<svg width="97" height="56" viewBox="0 0 97 56" fill="none" xmlns="http://www.w3.org/2000/svg">
<path d="M16.7646 8.60796C17.5878 9.59822 20.2106 11.5975 24.1168 11.6726C28.023 11.7478 30.6085 9.84858 31.413 8.88961" stroke="#F31155" stroke-width="4" stroke-linecap="round"/>
<path d="M63.9365 9.51506C64.7597 10.5053 67.3825 12.5046 71.2887 12.5798C75.1949 12.6549 77.7804 10.7557 78.5849 9.79671" stroke="#F31155" stroke-width="4" stroke-linecap="round"/>
<path d="M48.0684 48.6362C46.8298 48.6362 45.4157 47.9827 44.1787 46.3481C42.9399 44.7111 42.0576 42.2704 42.0576 39.4077C42.0576 36.545 42.94 34.1043 44.1787 32.4673C45.4157 30.8327 46.8298 30.1792 48.0684 30.1792C49.3068 30.1792 50.7201 30.8329 51.957 32.4673C53.1959 34.1043 54.0791 36.5449 54.0791 39.4077C54.0791 42.2704 53.1958 44.7111 51.957 46.3481C50.7201 47.9824 49.3068 48.6362 48.0684 48.6362Z" fill="#F31155" stroke="#F31155" stroke-width="8"/>
</svg>
