<svg width="294" height="96" viewBox="0 0 294 96" fill="none" xmlns="http://www.w3.org/2000/svg">
<g opacity="0.3">
<path d="M61.7518 58.5492C81.0007 58.5492 93.1188 57.8654 128.673 58.5491C164.228 59.2327 184.814 58.5494 194.394 58.5494" stroke="#0061EF" stroke-width="8" stroke-linecap="round"/>
<path d="M84.2227 23.4272C85.3738 24.8121 89.0417 27.6081 94.5045 27.7132C99.9673 27.8182 103.583 25.1622 104.708 23.8211" stroke="#0061EF" stroke-width="8" stroke-linecap="round"/>
<path d="M150.191 24.6958C151.343 26.0807 155.01 28.8767 160.473 28.9817C165.936 29.0868 169.552 26.4308 170.677 25.0897" stroke="#0061EF" stroke-width="8" stroke-linecap="round"/>
<path d="M271.419 50.6391C266.164 47.605 259.427 49.4101 256.393 54.6654L253.744 59.2539C253.185 60.2224 251.919 61.4607 250.95 62.0021L247.374 63.9805C245.165 65.2031 244.742 67.7322 246.403 69.6225C251.926 75.8596 259.309 80.1221 267.472 81.7866C269.759 82.2607 271.912 80.4761 271.872 78.1246L271.797 74.0379C271.797 72.9373 272.237 71.2224 272.796 70.2539L275.445 65.6654C278.47 60.426 276.659 53.6641 271.419 50.6391Z" stroke="#0061EF" stroke-width="3" stroke-miterlimit="10" stroke-linecap="round"/>
<path d="M274.087 52.7945C273.677 52.3675 273.233 51.963 272.746 51.597C271.332 50.5265 269.807 49.7943 268.212 49.4029C269.351 48.4938 270.971 48.3282 272.304 49.0982C273.638 49.8682 274.305 51.3538 274.087 52.7945Z" stroke="#0061EF" stroke-width="3" stroke-miterlimit="10" stroke-linecap="round" stroke-linejoin="round"/>
<path d="M261.374 79.0295C259.861 81.6493 256.481 82.5552 253.861 81.0427C252.559 80.291 251.664 79.0545 251.302 77.7022C250.939 76.3498 251.096 74.8315 251.848 73.5295" stroke="#0061EF" stroke-width="3" stroke-miterlimit="10"/>
<path d="M9.82127 4.69512C7.28185 5.37555 5.77108 7.99229 6.45151 10.5317L7.04561 12.7489C7.171 13.2169 7.16271 13.9838 7.03178 14.4465L6.54214 16.1482C6.24 17.1995 6.88523 18.1038 7.97303 18.1741C11.5757 18.3929 15.1431 17.437 18.1537 15.4462C18.9998 14.8906 19.1124 13.6846 18.38 12.9763L17.1051 11.7474C16.768 11.4101 16.3773 10.7501 16.252 10.2821L15.6579 8.06487C14.9795 5.53313 12.353 4.01674 9.82127 4.69512Z" fill="#0061EF" stroke="#0061EF" stroke-width="1.5" stroke-miterlimit="10" stroke-linecap="round"/>
<path d="M11.2969 4.53711C11.0405 4.53179 10.7806 4.54387 10.5192 4.58102C9.75806 4.6863 9.06663 4.92913 8.45824 5.29772C8.5286 4.67038 8.97409 4.12343 9.61853 3.95075C10.263 3.77807 10.9223 4.029 11.2969 4.53711Z" stroke="#0061EF" stroke-width="1.5" stroke-miterlimit="10" stroke-linecap="round" stroke-linejoin="round"/>
<path d="M15.4391 16.4687C15.7783 17.7346 15.0201 19.0478 13.7542 19.387C13.1251 19.5556 12.4722 19.451 11.9469 19.1477C11.4216 18.8444 11.0045 18.3312 10.8359 17.7021" fill="#0061EF"/>
<path d="M15.4391 16.4687C15.7783 17.7346 15.0201 19.0478 13.7542 19.387C13.1251 19.5556 12.4722 19.451 11.9469 19.1477C11.4216 18.8444 11.0045 18.3312 10.8359 17.7021" stroke="#0061EF" stroke-width="1.5" stroke-miterlimit="10"/>
</g>
</svg>
