<svg width="275" height="91" viewBox="0 0 275 91" fill="none" xmlns="http://www.w3.org/2000/svg">
<g opacity="0.3">
<path d="M87.2227 21.4272C88.3738 22.8121 92.0417 25.6081 97.5045 25.7132C102.967 25.8182 106.583 23.1622 107.708 21.8211" stroke="#F31155" stroke-width="8" stroke-linecap="round"/>
<path d="M153.191 22.6958C154.343 24.0807 158.01 26.8767 163.473 26.9817C168.936 27.0868 172.552 24.4308 173.677 23.0897" stroke="#F31155" stroke-width="8" stroke-linecap="round"/>
<path d="M131 79C128.66 79 126.249 77.7564 124.29 75.168C122.329 72.577 121 68.8184 121 64.5C121 60.1816 122.329 56.423 124.29 53.832C126.249 51.2436 128.66 50 131 50C133.34 50 135.751 51.2436 137.71 53.832C139.671 56.423 141 60.1816 141 64.5C141 68.8184 139.671 72.577 137.71 75.168C135.751 77.7564 133.34 79 131 79Z" fill="#F31155" stroke="#F31155" stroke-width="8"/>
<path d="M249.82 58.6694L245.654 65.8863" stroke="#F31155" stroke-width="3" stroke-linecap="round" stroke-linejoin="round"/>
<path d="M239.478 76.582L230.731 71.532C225.723 68.6403 225.697 63.8524 230.647 60.879L239.833 55.3672L248.477 50.1962C253.721 47.0463 257.936 49.4796 257.83 55.5962L257.665 65.6816L257.485 76.3934C257.385 82.1668 253.211 84.5297 248.217 81.6464L239.47 76.5964L239.478 76.582Z" stroke="#F31155" stroke-width="3" stroke-linecap="round" stroke-linejoin="round"/>
<path d="M243.145 70.2119L243.157 70.2194" stroke="#F31155" stroke-width="3" stroke-linecap="round" stroke-linejoin="round"/>
<path d="M13.0361 18.0999L8.58196 19.2934C6.0315 19.9768 4.47732 18.4395 5.11539 15.8816L6.30178 11.1364L7.42283 6.67657C8.09894 3.96665 10.2452 3.39158 12.1856 5.40038L15.3884 8.70953L18.7884 12.2258C20.62 14.122 20.0353 16.2323 17.4922 16.9138L13.0381 18.1072L13.0361 18.0999Z" fill="#F31155" stroke="#F31155" stroke-width="3" stroke-linecap="round" stroke-linejoin="round"/>
<path d="M12.1641 14.8594L12.1707 14.8576" stroke="#EFFAFF" stroke-width="1.5" stroke-linecap="round" stroke-linejoin="round"/>
<path d="M10.5938 8.97803L11.5785 12.653" stroke="#EFFAFF" stroke-width="1.5" stroke-linecap="round" stroke-linejoin="round"/>
</g>
</svg>
