<svg width="40" height="40" viewBox="0 0 40 40" fill="none" xmlns="http://www.w3.org/2000/svg">
<g clip-path="url(#clip0_233_12622)">
<path d="M19.998 0.540741C30.745 0.540741 39.4579 9.2528 39.458 19.9997C39.458 30.7468 30.7451 39.4597 19.998 39.4597C9.25112 39.4595 0.539062 30.7467 0.539062 19.9997C0.539217 9.25289 9.25122 0.540889 19.998 0.540741Z" fill="white" stroke="#231F20"/>
<path d="M22.8753 12.5652C22.1773 13.412 21.0606 14.0798 19.9438 13.9844C19.8042 12.8395 20.351 11.6231 20.9908 10.8718C21.6888 10.0012 22.9102 9.38102 23.899 9.33331C24.0153 10.5259 23.5617 11.6946 22.8753 12.5652Z" fill="#231F20"/>
<path d="M23.8936 14.2109C22.2766 14.1155 20.8923 15.1531 20.1246 15.1531C19.3451 15.1531 18.1702 14.2586 16.8906 14.2825C15.2271 14.3063 13.6799 15.2723 12.8307 16.8108C11.0858 19.8876 12.3771 24.4433 14.0638 26.9477C14.8898 28.188 15.8786 29.5476 17.1814 29.4999C18.4145 29.4522 18.9031 28.677 20.3921 28.677C21.8927 28.677 22.3232 29.4999 23.626 29.476C24.9755 29.4522 25.8247 28.2357 26.6506 26.9954C27.5929 25.5882 27.9767 24.2167 28 24.1452C27.9767 24.1213 25.3942 23.1076 25.371 20.0546C25.3477 17.5025 27.4067 16.286 27.4998 16.2145C26.3365 14.4494 24.5218 14.2586 23.8936 14.2109Z" fill="#231F20"/>
</g>
<defs>
<clipPath id="clip0_233_12622">
<rect width="40" height="40" fill="white"/>
</clipPath>
</defs>
</svg>
