<svg width="72" height="72" viewBox="0 0 72 72" fill="none" xmlns="http://www.w3.org/2000/svg">
<rect width="71.8168" height="71.6697" rx="35.8349" fill="#EADDFF"/>
<path fill-rule="evenodd" clip-rule="evenodd" d="M46.6816 28.6679C46.6816 34.6053 41.8585 39.4184 35.909 39.4184C29.9595 39.4184 25.1365 34.6053 25.1365 28.6679C25.1365 22.7306 29.9595 17.9175 35.909 17.9175C41.8585 17.9175 46.6816 22.7306 46.6816 28.6679ZM43.0907 28.6679C43.0907 32.6261 39.8754 35.8349 35.909 35.8349C31.9427 35.8349 28.7274 32.6261 28.7274 28.6679C28.7274 24.7097 31.9427 21.501 35.909 21.501C39.8754 21.501 43.0907 24.7097 43.0907 28.6679Z" fill="#4F378A"/>
<path d="M35.909 44.7936C24.2848 44.7936 14.3807 51.6532 10.6079 61.2634C11.527 62.1742 12.4951 63.0357 13.5081 63.8435C16.3175 55.0203 25.1306 48.3771 35.909 48.3771C46.6875 48.3771 55.5006 55.0204 58.31 63.8436C59.323 63.0357 60.2911 62.1742 61.2102 61.2634C57.4375 51.6532 47.5333 44.7936 35.909 44.7936Z" fill="#4F378A"/>
</svg>
