<svg width="111" height="101" viewBox="0 0 111 101" fill="none" xmlns="http://www.w3.org/2000/svg">
<rect width="111" height="69" rx="8" fill="#FFFDD2"/>
<g clip-path="url(#clip0_4159_26029)">
<path d="M19.0611 16.8237C19.0611 16.8237 19.0083 16.8554 18.9028 16.8765C18.8501 16.8871 18.7867 16.8976 18.7129 16.9082C18.639 16.9293 18.5546 16.9505 18.4491 16.9716C18.3541 17.0033 18.2486 17.0349 18.122 17.0772C18.0059 17.13 17.8793 17.1722 17.7526 17.2461C17.4888 17.3729 17.2039 17.5735 16.9401 17.8481C16.6763 18.1226 16.423 18.4817 16.2542 18.9147C16.2226 19.0308 16.1698 19.1364 16.1487 19.2632C16.1381 19.3265 16.117 19.3793 16.1065 19.4427C16.1065 19.506 16.0854 19.5694 16.0854 19.6328C16.0643 19.7595 16.0643 19.8862 16.0643 20.0235C16.0643 20.1608 16.0643 20.3086 16.0643 20.4565C16.0854 21.6392 16.1065 23.0015 16.1381 24.5433C16.1592 25.5677 16.1698 26.6765 16.1909 27.8487C16.2226 29.0209 16.2542 30.2776 16.2331 31.6082C16.0854 32.9282 16.5075 34.3327 16.2753 35.8006C16.212 37.2685 16.2753 38.7998 16.3175 40.4049C16.3703 42.0101 16.2226 43.6786 16.3597 45.4105C16.6446 47.1424 16.0432 48.9482 16.4019 50.8068C16.4758 52.6654 16.4547 54.5874 16.4441 56.5728C16.2226 58.5581 16.4441 60.5962 16.4864 62.6872C16.2226 64.7887 16.3386 66.9324 16.518 69.1395C16.1592 71.3466 16.212 73.6066 16.5497 75.9193C16.5497 77.0703 16.518 78.2425 16.5075 79.4253C16.5075 79.721 16.5075 80.0272 16.5075 80.3018C16.5075 80.5341 16.5497 80.7664 16.613 80.9988C16.7607 81.4423 17.0456 81.8542 17.415 82.1287C17.5943 82.2766 17.7843 82.4139 17.9953 82.4983C18.1008 82.5511 18.2064 82.5828 18.3224 82.6251C18.4385 82.6462 18.544 82.6884 18.6601 82.6884C18.7762 82.7095 18.8923 82.7095 19.0083 82.7095C19.1455 82.7095 19.3038 82.7095 19.4515 82.7095C19.7575 82.7095 20.0636 82.7095 20.3696 82.699C21.5936 82.6884 22.8388 82.6884 24.084 82.7201C26.5848 82.4772 29.1385 82.4878 31.7238 82.699C34.3196 82.435 36.9471 82.5406 39.6274 82.6779C42.2971 82.8257 45.0196 82.4455 47.7632 82.6567C50.5173 82.6779 53.3031 82.5934 56.1311 82.6356C58.9591 82.7412 61.8188 82.8574 64.7101 82.6251C67.6014 82.5617 70.5243 82.4772 73.479 82.6251C76.4336 82.3505 79.4199 82.4667 82.4273 82.6251C85.4347 82.5828 88.4737 82.7729 91.5444 82.6251C94.6045 82.6673 97.6963 82.5089 100.799 82.6251C101.358 82.6462 101.928 82.4561 102.371 82.0759C102.814 81.7063 103.12 81.1677 103.184 80.5975C103.215 80.3546 103.205 79.9111 103.205 79.5415C103.205 79.1613 103.205 78.7706 103.194 78.3904C103.184 77.6195 103.152 76.8486 103.11 76.0882C102.93 73.0257 103.184 69.9844 103.11 66.9641C103.373 63.9544 103.025 60.9659 103.11 58.009C103.089 55.0521 103.257 52.1269 103.12 49.2333C103.067 46.3398 103.025 43.478 103.131 40.6478C102.73 37.8176 103.236 35.0297 103.152 32.2735C103.321 29.5172 103.131 26.8032 103.173 24.1315C103.131 22.7903 103.173 21.4597 103.215 20.1502C103.215 19.8862 103.194 19.6433 103.131 19.4004C103.057 19.1576 102.951 18.9252 102.814 18.7246C102.529 18.3127 102.097 17.9959 101.632 17.8586C101.411 17.7636 101.168 17.7108 100.925 17.7002H100.83C100.83 17.7002 100.767 17.7002 100.725 17.7002H100.482H99.9967C99.3531 17.7002 98.7199 17.7214 98.0762 17.7319C96.7994 17.753 95.5437 17.753 94.288 17.6791C91.7871 17.8798 89.3284 17.5101 86.9225 17.6474C84.5166 17.6474 82.1529 17.658 79.842 17.6158C77.531 17.2989 75.2729 17.563 73.0674 17.5841C70.862 17.5524 68.7094 17.7636 66.62 17.5524C64.5307 17.5313 62.4835 17.394 60.5103 17.5101C58.5265 17.5524 56.6059 17.0561 54.7488 17.4679C52.8916 17.5418 51.0871 17.1511 49.3566 17.4257C47.626 17.6791 45.9587 17.394 44.3548 17.3834C42.7509 17.3729 41.2208 17.3517 39.754 17.3412C33.1589 17.2778 27.9672 17.2039 24.4322 17.1194C22.6594 17.0772 21.3087 17.0455 20.3907 17.0033C19.4726 16.961 19.0083 16.9188 19.0083 16.8765C19.0083 16.8343 19.5887 16.7815 20.7178 16.7392C21.8469 16.697 23.5141 16.6548 25.6774 16.6125C30.0143 16.528 36.3562 16.4436 44.3654 16.3802C45.9693 16.3696 47.6366 16.1479 49.3671 16.338C51.0977 16.338 52.8916 16.169 54.7593 16.2957C56.6165 16.0106 58.537 16.2429 60.5208 16.2535C62.5046 16.2429 64.5412 16.3274 66.6306 16.2218C68.7305 16.0528 70.8726 16.3063 73.078 16.1901C75.2834 16.3696 77.5416 16.3168 79.8525 16.1584C82.1635 16.3274 84.5166 16.1267 86.9331 16.1267C89.339 16.3908 91.7976 16.2112 94.2985 16.0951C95.5542 16.0423 96.81 16.0528 98.0868 16.0739C98.7199 16.0739 99.3636 16.0845 100.007 16.0951H100.493H100.735C100.767 16.0951 100.82 16.0951 100.873 16.0951H101.02C101.421 16.1267 101.822 16.2007 102.213 16.338C102.972 16.6336 103.627 17.1617 104.102 17.827C104.334 18.1649 104.513 18.5345 104.64 18.9252C104.766 19.316 104.819 19.7384 104.83 20.1397C104.851 21.4597 104.861 22.7903 104.84 24.1209C104.967 26.7927 105.009 29.5172 104.861 32.2629C104.946 35.0192 104.882 37.8071 104.882 40.6372C104.988 43.4674 104.872 46.3293 104.893 49.2228C104.946 52.1163 104.608 55.0415 104.904 57.9984C104.946 60.9553 104.861 63.9439 104.904 66.9536C104.861 69.9632 104.83 73.0046 104.904 76.0777C104.83 76.8486 104.787 77.6089 104.766 78.3798C104.756 78.76 104.745 79.1507 104.745 79.5309C104.745 79.9216 104.766 80.2596 104.724 80.777C104.629 81.738 104.165 82.6462 103.458 83.3115C102.751 83.9874 101.78 84.3992 100.778 84.4309C97.6647 84.5154 94.5834 84.4731 91.5127 84.4309C88.4526 84.4626 85.4135 84.4415 82.3956 84.4309C79.3882 84.5154 76.4019 84.3042 73.4473 84.4309C70.4927 84.5576 67.5697 84.2936 64.6784 84.4203C61.7871 84.5048 58.9274 84.5471 56.0994 84.4098C53.2714 84.4098 50.4857 84.1458 47.7315 84.3886C44.9774 84.4415 42.2655 84.7794 39.5957 84.3675C36.9155 84.4626 34.288 84.1774 31.6921 84.3464C29.1068 84.0507 26.5532 84.3358 24.0523 84.3253C22.7966 84.2936 21.562 84.2514 20.3379 84.2408C20.0319 84.2408 19.7259 84.2408 19.4199 84.2408C19.2616 84.2408 19.1244 84.2408 18.9556 84.2408C18.7656 84.2408 18.5863 84.2302 18.3963 84.1986C18.2064 84.1774 18.027 84.1246 17.8476 84.0824C17.6682 84.019 17.4888 83.9662 17.32 83.8923C16.9718 83.7445 16.6657 83.5438 16.3703 83.3115C15.7899 82.8468 15.3573 82.1921 15.1357 81.474C15.0301 81.1149 14.9774 80.7348 14.9774 80.3652C14.9774 80.0484 14.9774 79.7632 14.9985 79.4675C15.0301 78.2848 15.0724 77.1231 15.0513 75.9615C14.8824 73.6488 15.2728 71.3889 15.0829 69.1818C15.1251 66.9747 15.0618 64.8204 15.1146 62.7294C14.7136 60.6385 15.1146 58.5898 15.1462 56.615C15.199 54.6297 14.8824 52.7077 15.1884 50.8491C14.8824 48.9905 15.1462 47.1952 15.2306 45.4527C15.3151 43.7209 15.104 42.0523 15.2728 40.4472C15.0618 38.842 15.3889 37.3107 15.3151 35.8429C15.4522 34.375 15.3151 32.981 15.3573 31.6504C15.3151 30.3304 15.3256 29.0737 15.3995 27.8909C15.4206 26.7082 15.4311 25.6099 15.4522 24.5856C15.4839 23.0438 15.505 21.6815 15.5261 20.4987C15.5261 20.3509 15.5261 20.2136 15.5367 20.0657C15.5472 19.9179 15.5472 19.7595 15.5789 19.6222C15.5894 19.5483 15.6 19.4744 15.6211 19.411C15.6422 19.3371 15.6633 19.2737 15.6738 19.2104C15.7055 19.0731 15.7688 18.9464 15.811 18.8302C16.0221 18.3444 16.3281 17.9642 16.6446 17.6791C16.9612 17.394 17.2883 17.2039 17.5838 17.0877C17.7315 17.0138 17.8687 16.9927 17.9953 16.9399C18.122 16.9188 18.238 16.8871 18.3435 16.8765C18.4491 16.8765 18.544 16.866 18.6179 16.8554C18.7023 16.8554 18.7656 16.8554 18.8184 16.8554C18.9239 16.8554 18.9767 16.8765 18.9767 16.8871L19.0611 16.8237Z" fill="#0061EF"/>
<path d="M50.9423 83.4591C51.0478 83.4802 51.0478 84.1666 50.9528 85.4022C50.9317 85.6134 50.9212 85.8352 50.9001 86.0675C50.9001 86.3104 50.879 86.5638 50.8262 86.8278C50.6363 87.0707 51.0056 87.4086 50.7418 87.6727C50.6363 87.9578 50.6468 88.2746 50.6363 88.602C50.6363 88.9293 50.4358 89.2356 50.5202 89.6052C50.7523 89.9959 50.0981 90.2599 50.3936 90.6823C50.4147 91.0625 50.3303 91.4427 50.2458 91.844C49.9715 92.203 50.1192 92.6466 50.0876 93.069C50.0453 93.1112 50.0137 93.164 49.982 93.2168C49.9504 93.2485 49.9398 93.2696 49.9187 93.3013C49.8871 93.3541 49.8765 93.4175 49.8765 93.4703C49.8765 93.5759 49.9398 93.6498 50.0348 93.6392C50.0031 93.6709 49.9715 93.7026 49.9504 93.7448C49.8765 93.8821 49.982 93.9349 50.1087 93.9138C50.172 93.9032 50.2564 93.8716 50.3197 93.8293C50.3514 93.8082 50.383 93.7765 50.4041 93.7448C50.4358 93.7132 50.4358 93.6815 50.4991 93.6392C50.9634 93.6287 51.4382 93.7659 51.9342 93.6075C52.4196 93.5864 52.9156 93.5125 53.4221 93.5759C53.9286 93.333 54.4456 93.3435 54.9627 93.5547C55.4903 93.2907 56.0179 93.3963 56.5561 93.5336C57.0942 93.6815 57.643 93.3013 58.2022 93.5125C58.7615 93.5336 59.3208 93.4491 59.8906 93.4914C60.4604 93.597 61.0408 93.7132 61.6211 93.4808C62.2015 93.4175 62.7924 93.333 63.3939 93.4808C63.9848 93.2063 64.5969 93.3224 65.1984 93.4808C65.8104 93.4386 66.4224 93.6287 67.045 93.4808C67.6676 93.5231 68.2902 93.3647 68.9127 93.4808C69.0605 93.5019 69.1976 93.5125 69.3454 93.5336H69.3981C69.3981 93.5336 69.4087 93.5336 69.4192 93.5336H69.4403C69.4403 93.5336 69.472 93.5547 69.4931 93.5547C69.5564 93.5653 69.6408 93.5547 69.6303 93.5019C69.6197 93.4808 69.5986 93.4703 69.5881 93.4491C69.4826 93.333 69.5037 93.3541 69.5248 93.3119C69.5459 93.3541 69.5248 93.1218 69.5248 92.9845C69.5142 92.8366 69.4931 92.6782 69.4509 92.5304C69.6092 91.8862 69.1765 91.3476 69.1765 90.7457C69.0605 90.1543 69.1343 89.5524 68.9127 88.9927C68.7756 88.4224 68.6384 87.8627 68.6595 87.2819C68.1741 86.7856 68.5856 86.1414 68.4062 85.6134C68.4484 85.3283 68.4062 85.0537 68.3324 84.7897L68.2796 84.589L68.2585 84.494V84.4729C68.2585 84.4729 68.2268 84.4201 68.2268 84.3884C68.2057 84.3673 68.2057 84.3462 68.2057 84.3145C68.1741 84.3039 68.153 84.2617 68.1002 84.2405C68.0897 84.2405 68.0686 84.2405 68.058 84.2405C68.058 84.2405 68.0475 84.2405 68.0369 84.2405H68.0052C67.9103 84.2405 67.8048 84.2617 67.7098 84.2933C67.1822 84.2617 66.6757 84.4201 66.1692 84.2722C65.6627 84.4729 65.1667 84.1033 64.6813 84.2405C64.1959 84.2405 63.721 84.2511 63.2462 84.2089C62.7819 83.9026 62.3281 84.1561 61.8744 84.1772C61.4312 84.1455 60.9986 84.3567 60.5659 84.1455C60.1438 84.1244 59.7323 83.9871 59.3313 84.1033C58.9303 84.1455 58.5399 83.6492 58.1706 84.061C57.7907 84.1349 57.4319 83.7442 57.0837 84.0188C56.7355 84.2722 56.3978 83.9871 56.0707 83.9765C55.7435 83.966 55.4375 83.9449 55.1421 83.9343C52.4724 83.797 50.9528 83.6386 50.9528 83.4696C50.9528 83.2796 52.8417 83.1106 56.0707 82.9627C56.3978 82.9522 56.7355 82.7304 57.0837 82.9205C57.4319 82.9205 57.8012 82.7515 58.1706 82.8783C58.5504 82.5931 58.9303 82.8255 59.3313 82.836C59.7323 82.8255 60.1438 82.9099 60.5659 82.7938C60.988 82.6248 61.4207 82.8783 61.8744 82.7621C62.3176 82.9416 62.7713 82.8888 63.2462 82.7304C63.7105 82.8994 64.1853 82.6882 64.6813 82.6987C65.1667 82.9627 65.6627 82.7832 66.1692 82.6671C66.6757 82.572 67.1927 82.7093 67.7098 82.6459C67.8048 82.6459 67.9103 82.6565 68.0052 82.6565H68.2585L68.5329 82.6459C68.8916 82.6459 69.2715 82.6143 69.6514 82.6143C69.6936 82.836 69.7253 83.0684 69.7569 83.3112C69.8202 83.533 69.8835 83.7759 69.9469 84.0188L69.9891 84.2089L70.0207 84.3039C70.0418 84.3673 70.0524 84.4412 70.0629 84.5046C70.1157 84.7686 70.1262 85.0537 70.1051 85.3388C70.274 85.8774 70.2951 86.4476 70.3901 87.0073C70.58 87.5565 70.5589 88.1479 70.675 88.7181C70.8227 89.2884 70.58 89.922 70.9599 90.4711C71.0865 91.0519 71.1076 91.6644 71.2553 92.2558C71.2659 92.4037 71.287 92.5621 71.2975 92.7099C71.3186 92.8789 71.3292 92.9634 71.3714 93.2907C71.4558 93.8504 71.5508 94.3996 71.688 95.0121C71.6774 95.086 71.6669 95.1494 71.6563 95.2233C71.0232 95.1177 70.5483 95.1071 70.0629 95.1388C69.9363 95.1388 69.8202 95.1599 69.6936 95.1705L69.5037 95.1916C69.5037 95.1916 69.4298 95.1916 69.4192 95.1916H69.3665C69.2188 95.2338 69.0816 95.255 68.9338 95.2866C68.3007 95.3711 67.6781 95.3289 67.0661 95.2866C66.4435 95.3183 65.8315 95.2972 65.2195 95.2866C64.6074 95.3711 64.006 95.1599 63.415 95.2866C62.8135 95.4134 62.2226 95.1494 61.6423 95.2761C61.0619 95.3606 60.4815 95.4028 59.9117 95.2655C59.3419 95.2655 58.7826 95.0015 58.2233 95.2444C57.6641 95.2972 57.1153 95.6351 56.5772 95.2233C56.039 95.3183 55.5008 95.0226 54.9838 95.2022C54.4562 94.9065 53.9497 95.1916 53.4432 95.181C52.9367 95.1177 52.4407 95.0226 51.9553 95.1494C51.4699 95.2866 50.995 95.0754 50.5202 95.1177C50.4885 95.1388 50.3619 95.1494 50.2775 95.1599C50.1825 95.1599 50.0876 95.1599 49.9926 95.1599C49.8026 95.1599 49.6338 95.1282 49.465 95.1071C49.1273 95.0543 48.8529 95.0015 48.452 95.0543C48.452 95.0121 48.452 94.9698 48.4414 94.9276C48.5258 94.5474 48.568 94.1884 48.6208 93.8293C48.6419 93.6498 48.6736 93.4703 48.7052 93.2907C48.7158 93.2063 48.7369 93.1006 48.758 93.0373C48.7685 92.9845 48.7791 92.9317 48.8002 92.8789C48.4731 92.3931 48.9374 92.0552 49.0323 91.6645C49.1484 91.2737 48.8952 90.8407 49.2539 90.5239C49.0112 90.1015 49.3278 89.7847 49.465 89.4573C49.6022 89.13 49.4439 88.7604 49.6655 88.4647C49.5072 88.1162 49.8765 87.8522 49.8554 87.5565C50.0453 87.2819 49.9504 86.9862 50.0348 86.7222C50.0348 86.4477 50.0876 86.2048 50.2036 85.983C50.2564 85.7507 50.3091 85.5289 50.3619 85.3283C50.6574 84.1138 50.8684 83.4591 50.9739 83.4802L50.9423 83.4591Z" fill="#0061EF"/>
<path d="M42.2897 94.347C42.4058 94.347 42.5113 95.2552 42.6063 96.9026C42.6168 97.1772 42.6379 97.4729 42.659 97.7897C42.6907 98.1065 42.7223 98.4444 42.7012 98.8035C42.659 98.9091 42.659 98.9513 42.6801 99.0147C42.6907 99.0675 42.7329 99.1203 42.754 99.1625C42.8173 99.247 42.8595 99.2787 42.754 99.5005C42.8384 99.5427 42.965 99.5427 43.0917 99.5321C43.155 99.5321 43.2183 99.511 43.2816 99.5005C43.3132 99.5005 43.3344 99.4899 43.3766 99.4793L43.5348 99.4582C43.9675 99.4054 44.4107 99.5533 44.875 99.416C45.3393 99.1309 45.8247 99.7328 46.3206 99.3737C46.8166 99.2998 47.3337 99.3209 47.8718 99.3315C48.3994 99.5533 48.9481 99.3315 49.518 99.2893C50.0772 99.5533 50.6576 99.4371 51.2485 99.2576C51.8395 99.6166 52.4515 99.5638 53.0741 99.2259C53.6966 99.2153 54.3298 99.3526 54.9735 99.1942C55.6172 99.1731 56.2819 99.0992 56.9573 99.1625C57.6326 98.9196 58.3185 98.9302 59.015 99.1414C59.7114 98.8774 60.4184 98.983 61.136 99.1203C61.8535 99.2681 62.5816 98.888 63.3203 99.0992C64.0589 99.1097 64.8081 99.0358 65.5679 99.0781C66.3277 99.1837 67.098 99.2998 67.8683 99.0675C68.6492 99.0041 69.43 98.9197 70.2214 99.0569C71.0129 98.7824 71.8148 98.8985 72.6274 99.0569C73.4399 99.0147 74.2524 99.2048 75.0755 99.0569C75.487 99.0781 75.8985 99.0569 76.3206 99.0253C76.6161 99.0253 76.5211 99.0041 76.5633 99.0041C76.5844 99.0041 76.6161 99.0147 76.6689 99.0464C76.6689 99.0464 76.7111 99.0147 76.7322 98.983C76.7533 98.9302 76.7638 98.983 76.7638 98.6979C76.7744 98.286 76.7638 97.8742 76.6689 97.4623C76.5844 97.0505 76.595 96.6386 76.6267 96.2268C76.6478 96.0261 76.6583 95.8149 76.6689 95.6143V95.3819C76.6689 95.3819 76.6689 95.3503 76.6689 95.3397C76.7427 95.2763 76.7638 95.2024 76.7638 95.1391C76.69 95.1391 76.595 95.1707 76.5422 95.2024H76.5211V95.2235H76.4684C76.3945 95.2235 76.3206 95.2447 76.2468 95.2447C76.099 95.2447 75.9513 95.2447 75.8141 95.2341C75.0227 95.2552 74.2313 95.0863 73.4504 95.2235C72.6696 95.2763 71.9098 95.3186 71.15 95.213C70.3903 95.6143 69.6411 95.1074 68.9024 95.1919C68.1638 95.0229 67.4357 95.213 66.7181 95.1707C66.0005 95.2447 65.2936 94.9912 64.5971 95.1496C63.9007 95.1179 63.2148 95.2763 62.5394 95.1285C61.8641 95.3291 61.2098 94.9595 60.5556 95.0968C59.9119 95.0968 59.2788 95.1074 58.6562 95.0651C58.0336 94.7589 57.4321 95.0123 56.8307 95.0334C56.2397 95.0018 55.6594 95.213 55.1001 95.0018C54.5408 94.9806 53.9921 94.8434 53.4539 94.9595C52.9263 95.0018 52.4093 94.5054 51.9028 94.9173C51.4068 94.9912 50.9214 94.6005 50.4571 94.875C49.9928 95.1285 49.5391 94.8434 49.117 94.8328C48.6843 94.8222 48.2728 94.8011 47.8824 94.7906C44.3368 94.6533 42.3002 94.4949 42.3002 94.3259C42.3002 94.1358 44.8117 93.9669 49.117 93.819C49.5496 93.8085 49.9928 93.5867 50.4571 93.7768C50.9214 93.7768 51.4068 93.6078 51.9028 93.7345C52.3987 93.4494 52.9158 93.6817 53.4539 93.6923C53.9816 93.6817 54.5303 93.7662 55.1001 93.65C55.6594 93.4811 56.2397 93.7345 56.8307 93.6184C57.4216 93.7979 58.0336 93.7451 58.6562 93.5867C59.2788 93.7557 59.9119 93.5444 60.5556 93.555C61.1993 93.819 61.8641 93.6289 62.5394 93.5233C63.2148 93.4283 63.9007 93.5656 64.5971 93.5022C65.2936 93.555 66.0005 93.4388 66.7181 93.4811C67.4357 93.3544 68.1638 93.3121 68.9024 93.46C69.6411 93.3755 70.3903 93.4388 71.15 93.4388C71.9098 93.3332 72.6801 93.4494 73.4504 93.4283C74.2313 93.3755 75.0122 93.7134 75.8141 93.4177C75.9619 93.4177 76.1096 93.4177 76.2468 93.4177C76.4367 93.4177 76.6372 93.4177 76.8271 93.4177C77.3653 93.4177 77.914 93.4177 78.4627 93.4283C78.4627 93.8296 78.4627 94.2309 78.4838 94.6427V95.213L78.4627 95.4453V95.5932C78.4522 95.7938 78.4416 96.005 78.4416 96.2056C78.4416 96.6175 78.4416 97.0294 78.4838 97.4412C78.3361 97.8531 78.315 98.2649 78.3361 98.6768C78.3572 98.9936 78.3783 99.3104 78.3994 99.6377C78.4311 100.039 78.4627 100.451 78.4838 100.852C78.1145 100.873 77.7241 100.884 77.3231 100.894C76.9538 100.894 76.4367 100.894 76.3101 100.894C75.8985 100.894 75.4765 100.863 75.0649 100.852C74.2418 100.884 73.4293 100.863 72.6168 100.852C71.8043 100.937 71.0023 100.725 70.2109 100.852C69.4195 100.979 68.6281 100.715 67.8577 100.842C67.0769 100.926 66.3066 100.968 65.5574 100.831C64.7976 100.831 64.0484 100.567 63.3097 100.81C62.5711 100.863 61.843 101.201 61.1254 100.789C60.4079 100.894 59.7009 100.599 59.0044 100.768C58.308 100.472 57.6221 100.757 56.9467 100.747C56.2714 100.683 55.6172 100.588 54.9629 100.715C54.3192 100.852 53.6755 100.641 53.0635 100.683C52.4409 100.852 51.8395 100.461 51.238 100.652C50.6471 100.609 50.0667 100.683 49.5074 100.62C48.9481 101.021 48.3994 100.62 47.8613 100.578C47.3337 100.525 46.8166 100.842 46.3101 100.535C45.8141 100.842 45.3287 100.578 44.8644 100.493C44.4001 100.409 43.9464 100.62 43.5243 100.451C43.4715 100.483 43.4188 100.493 43.366 100.504C43.3027 100.514 43.2077 100.525 43.1339 100.525C42.965 100.525 42.8173 100.504 42.6696 100.483C42.3741 100.44 42.142 100.377 41.8359 100.409V100.388C41.8993 100.028 41.9098 99.7856 41.8993 99.5216C41.8993 99.3949 41.8887 99.2681 41.8781 99.1414C41.8781 99.0147 41.8781 98.8668 41.8781 98.7929C41.8359 98.4339 41.8465 98.0959 41.9309 97.7791C41.952 97.4623 41.9626 97.1666 41.9731 96.8921C42.0681 95.2341 42.1842 94.3365 42.2897 94.3365V94.347Z" fill="#0061EF"/>
<path d="M104.042 69.7414C104.042 69.8576 103.071 69.9632 101.288 70.0582C100.992 70.0793 100.675 70.0899 100.327 70.111C99.9896 70.1427 99.6203 70.1744 99.2404 70.1638C98.8605 70.016 98.449 70.4384 98.0269 70.2061C97.6048 70.1427 97.1616 70.2061 96.6867 70.2483C96.2225 70.3011 95.737 70.1532 95.2305 70.2905C94.724 70.5757 94.207 69.9737 93.6688 70.3328C93.1306 70.4067 92.5714 70.3856 92.0016 70.375C91.4317 70.1533 90.8303 70.375 90.2288 70.4067C89.6167 70.1427 88.9942 70.2589 88.361 70.4384C87.7173 70.0793 87.0631 70.1321 86.3983 70.4701C85.7335 70.4806 85.0476 70.3433 84.3406 70.5017C83.6442 70.5229 82.9266 70.5968 82.2091 70.5334C81.481 70.7763 80.7423 70.7657 79.9931 70.5545C79.2439 70.8185 78.4736 70.7129 77.7033 70.5757C76.933 70.4278 76.1415 70.808 75.3396 70.5968C74.5376 70.5757 73.7356 70.6601 72.9126 70.6179C72.0895 70.5123 71.2664 70.3961 70.4222 70.6285C69.5781 70.6918 68.7339 70.7763 67.8791 70.639C67.0244 70.9136 66.1591 70.7974 65.2833 70.639C64.4075 70.6813 63.5316 70.4912 62.6452 70.639C61.7589 70.5968 60.8619 70.7658 59.9544 70.639C59.0469 70.5545 58.1605 70.4701 57.2742 70.639C56.3878 70.8186 55.5014 70.5651 54.6255 70.639C53.7497 70.375 52.8844 70.7235 52.0297 70.639C51.175 70.6601 50.3202 70.4912 49.4866 70.6285C48.653 70.6813 47.8194 70.7235 46.9963 70.6179C46.1732 71.0192 45.3712 70.5123 44.5693 70.5968C43.7673 70.4278 42.9864 70.6179 42.2056 70.5757C41.4247 70.6496 40.6649 70.3856 39.9157 70.5545C39.1665 70.5229 38.4279 70.6813 37.6998 70.5334C36.9717 70.7341 36.2647 70.3645 35.5682 70.5017C34.8718 70.5017 34.1859 70.5123 33.5105 70.4701C32.8457 70.1638 32.1809 70.4173 31.5478 70.4384C30.9041 70.4067 30.2815 70.6179 29.6801 70.4067C29.068 70.3856 28.4771 70.2483 27.9073 70.375C27.3375 70.4173 26.7782 69.9209 26.24 70.3328C25.7019 70.4067 25.1848 70.016 24.6783 70.2905C24.1718 70.544 23.6864 70.2589 23.2221 70.2483C22.7578 70.2377 22.3146 70.2166 21.882 70.2061C18.0515 70.0688 15.8672 69.9104 15.8672 69.752C15.8672 69.5619 18.5791 69.3929 23.2221 69.2451C23.6864 69.2345 24.1718 69.0127 24.6783 69.2028C25.1848 69.2028 25.7019 69.0339 26.24 69.1606C26.7782 68.8755 27.3375 69.1078 27.9073 69.1183C28.4771 69.1078 29.068 69.1923 29.6801 69.0867C30.2921 68.9177 30.9147 69.1711 31.5478 69.055C32.1915 69.2345 32.8457 69.1817 33.5105 69.0233C34.1753 69.1923 34.8612 68.9916 35.5682 68.9916C36.2647 69.2556 36.9822 69.0761 37.6998 68.9599C38.4279 68.8649 39.1665 69.0022 39.9157 68.9388C40.6649 68.9916 41.4352 68.8755 42.2056 68.9177C42.9759 68.791 43.7673 68.7487 44.5693 68.8966C45.3712 68.8121 46.1732 68.8755 46.9963 68.8755C47.8194 68.7698 48.6424 68.886 49.4866 68.8649C50.3308 68.8121 51.175 69.15 52.0297 68.8649C52.8844 68.8227 53.7497 68.9071 54.6255 68.8649C55.5014 68.8966 56.3772 68.9388 57.2742 68.8649C58.1605 69.1606 59.0575 68.9811 59.9544 68.8649C60.8514 68.7804 61.7483 68.8227 62.6452 68.8649C63.5316 68.8332 64.418 68.8543 65.2833 68.8649C66.1591 68.7804 67.0244 68.9916 67.8791 68.8649C68.7339 68.7382 69.5886 69.0022 70.4222 68.8649C71.2664 68.7804 72.0895 68.7382 72.9126 68.8755C73.7356 68.8755 74.5376 69.1395 75.3396 68.8966C76.1415 68.8438 76.9224 68.5164 77.7033 68.9177C78.4841 68.8121 79.2439 69.1183 79.9931 68.9388C80.7423 69.2345 81.481 68.9494 82.2091 68.9599C82.9372 69.0127 83.6442 69.1183 84.3406 68.9916C85.0371 68.8543 85.723 69.0655 86.3983 69.0233C87.0631 68.8543 87.7279 69.2451 88.361 69.055C89.0047 69.0972 89.6273 69.0339 90.2288 69.0867C90.8408 68.6854 91.4317 69.0867 92.0016 69.1183C92.5714 69.1711 93.1306 68.8543 93.6688 69.1606C94.207 68.8543 94.724 69.1183 95.2305 69.2028C95.737 69.2873 96.2119 69.0761 96.6867 69.2451C97.151 69.0339 97.5942 69.3612 98.0269 69.2873C98.449 69.4246 98.8605 69.2873 99.2404 69.3295C99.6203 69.2767 99.9896 69.2979 100.327 69.3718C100.665 69.3929 100.992 69.4035 101.288 69.4246C103.071 69.5196 104.042 69.6252 104.042 69.7414Z" fill="#0061EF"/>
<path d="M59.94 73.3955C59.94 73.4483 59.8873 73.5117 59.7818 73.5645C59.729 73.5962 59.6762 73.6173 59.6024 73.6596C59.5391 73.7018 59.4546 73.7335 59.3702 73.7757C59.3175 73.8074 59.2541 73.8391 59.1908 73.8708C59.1592 73.8919 59.1275 73.913 59.0959 73.9341C59.0642 73.9552 59.0325 73.9764 58.9903 73.9764C58.8637 73.8708 58.9481 74.2826 58.7793 74.1031C58.6738 74.082 58.621 74.1664 58.5682 74.2615C58.526 74.3565 58.3572 74.2721 58.3572 74.4516C58.3994 74.5994 58.3255 74.5572 58.2411 74.5361C58.1567 74.5149 58.0723 74.5044 58.1567 74.6733C58.1356 74.7895 58.0512 74.8529 57.9668 74.9162C57.8507 74.8846 57.8085 74.9268 57.8085 74.9902C57.8085 75.0535 57.8085 75.138 57.8085 75.1908C57.5341 75.138 57.5447 75.3175 57.6713 75.4971C57.2914 75.4443 57.2914 75.6132 57.5658 75.835C57.5447 75.8878 57.513 75.9406 57.4814 75.9934C57.4497 76.0462 57.4392 76.1096 57.513 76.1835C57.513 76.2468 57.5236 76.3102 57.5341 76.3736C57.5341 76.4369 57.5341 76.5003 57.5025 76.5636C57.6185 76.627 57.6819 76.6798 57.6924 76.7432C57.6924 76.7749 57.6924 76.8065 57.6608 76.8382C57.6396 76.8699 57.608 76.9016 57.5658 76.9438C57.8401 77.0283 57.7663 77.1445 57.6713 77.324C57.6291 77.4085 57.703 77.4507 57.7663 77.493C57.8401 77.5352 57.9035 77.5669 57.8401 77.6725C57.8612 77.7358 57.914 77.7886 57.9562 77.8414C57.9984 77.8942 58.0512 77.947 58.0723 78.0104C58.0723 78.0527 58.0723 78.1054 58.0723 78.1477C58.0723 78.1899 58.0934 78.2216 58.1145 78.2533C58.1567 78.3167 58.2306 78.3483 58.3678 78.3061C58.4416 78.3272 58.5155 78.3483 58.5788 78.38C58.6421 78.4117 58.6843 78.4645 58.7054 78.5595C58.9692 78.4011 59.0114 78.5595 59.0853 78.7496C59.1592 78.7496 59.2119 78.813 59.2752 78.8552C59.3386 78.8975 59.4124 78.9292 59.4968 78.8552C59.5602 78.8869 59.6446 78.8658 59.7184 78.8552C59.7923 78.8341 59.8662 78.8341 59.94 78.8975C60.0139 78.9397 60.0878 78.9714 60.1722 78.982C60.2461 78.982 60.3199 78.9503 60.3832 78.8552C60.436 78.7602 60.4993 78.7496 60.5837 78.7707C60.6576 78.7813 60.742 78.7919 60.7948 78.7391C60.9108 78.8341 60.9742 78.7708 61.0164 78.7074C61.0691 78.644 61.0902 78.5384 61.1746 78.549C61.2274 78.5067 61.3013 78.4856 61.3751 78.4645C61.449 78.4434 61.5123 78.4011 61.5123 78.2955C61.5545 78.2322 61.5756 78.1688 61.6178 78.116C61.6601 78.0632 61.7128 78.021 61.7972 77.9998C61.6812 77.8203 61.7339 77.7992 61.8183 77.7781C61.9028 77.757 62.0399 77.757 62.0294 77.6725C62.1349 77.6514 62.156 77.588 62.1666 77.5141C62.1666 77.4402 62.1666 77.3662 62.1982 77.3134C62.1771 77.2395 62.2404 77.1867 62.2932 77.1339C62.3459 77.0811 62.3776 77.0177 62.3037 76.9333C62.3143 76.9016 62.3143 76.8699 62.3143 76.8382C62.3143 76.8065 62.2932 76.7749 62.2932 76.7432C62.2721 76.6798 62.2932 76.6164 62.3565 76.5531C62.251 76.4897 62.2932 76.4369 62.3354 76.363C62.3776 76.2996 62.4198 76.2257 62.3354 76.1729V76.0779C62.3354 76.0779 62.3037 76.0251 62.2932 75.9934C62.2826 75.9406 62.2721 75.8772 62.2721 75.8139C62.3987 75.7083 62.3882 75.6449 62.3459 75.5921C62.3037 75.5393 62.2088 75.5182 62.1771 75.4759C62.156 75.3492 61.9133 75.3703 62.0399 75.1697C61.9977 75.0746 62.0399 74.8846 61.8711 74.8846C61.8183 74.8634 61.8711 74.7473 61.8711 74.6628C61.8816 74.5783 61.85 74.5255 61.6706 74.6417C61.6073 74.6417 61.6284 74.5361 61.6178 74.4621C61.6178 74.3882 61.5862 74.3354 61.4596 74.4199C61.238 74.5677 61.3224 74.2932 61.2485 74.2298C61.1852 74.1665 61.1113 74.1242 61.0375 74.0714C60.4043 73.6384 59.8873 73.5434 59.8978 73.3639C59.8978 73.3216 59.94 73.2794 60.0139 73.2371C60.0878 73.1949 60.2144 73.1527 60.3727 73.1315C60.6892 73.0893 61.1852 73.1104 61.755 73.3639C61.8605 73.4167 62.1032 73.3005 62.1032 73.5434C62.156 73.5856 62.2404 73.5962 62.3143 73.6173C62.3882 73.6384 62.4409 73.6807 62.462 73.7757C62.768 73.6596 62.7153 73.9552 62.8102 74.0714C62.9263 74.177 62.9369 74.3671 63.1374 74.4305C63.3695 74.4938 63.2429 74.7578 63.4223 74.8634C63.3484 75.0958 63.4434 75.233 63.665 75.3598C63.6122 75.4759 63.6439 75.5604 63.6966 75.6449C63.7283 75.6871 63.7494 75.7294 63.781 75.7716C63.8022 75.8139 63.8233 75.8667 63.8338 75.9089C63.7177 76.0251 63.7177 76.1201 63.7494 76.2152C63.7811 76.3102 63.8655 76.4052 63.9182 76.5108C63.971 76.6164 63.9499 76.722 63.9288 76.8277C63.9288 76.8805 63.9077 76.9333 63.8971 76.9861C63.8971 77.0389 63.8866 77.0917 63.8971 77.1445C63.8233 77.3451 63.876 77.588 63.781 77.7886C63.8022 77.9154 63.8022 78.0315 63.781 78.1477C63.7388 78.2639 63.665 78.3589 63.5489 78.4223C63.5172 78.6651 63.3273 78.8447 63.1901 79.0242C63.1585 79.1509 63.0846 79.246 62.9896 79.3304C62.9052 79.4149 62.7997 79.4889 62.7153 79.5733C62.6414 79.6789 62.5042 79.7106 62.3776 79.7423C62.251 79.7845 62.156 79.8479 62.1349 80.0274C61.945 80.1964 61.6812 80.2386 61.4596 80.3759C61.2063 80.4393 60.9531 80.471 60.7209 80.5977C60.5626 80.471 60.4465 80.471 60.3199 80.5026C60.1933 80.5343 60.0772 80.6082 59.94 80.6716C59.8134 80.7139 59.6762 80.7138 59.5391 80.6927C59.4124 80.6716 59.2752 80.6294 59.1592 80.5871C59.0325 80.5871 58.9059 80.5449 58.7793 80.5132C58.6527 80.471 58.5366 80.4182 58.4205 80.3654C58.2833 80.3654 58.1778 80.2703 58.0828 80.1964C57.9773 80.1225 57.8929 80.0274 57.7557 80.0169C57.6185 80.0169 57.5341 79.9007 57.4497 79.7951C57.3653 79.7001 57.302 79.5839 57.1754 79.5522C57.0593 79.4994 56.9432 79.4361 56.8588 79.3516C56.8166 79.3093 56.7744 79.2565 56.7533 79.2037C56.7216 79.1509 56.7111 79.0876 56.7005 79.0136C56.6266 78.9186 56.6161 78.7813 56.5844 78.6651C56.5528 78.549 56.5 78.4539 56.3417 78.4117C56.2679 78.3167 56.1307 78.2533 56.0463 78.1583C55.9724 78.0632 55.9407 77.9365 56.099 77.7675C56.0252 77.6725 56.0357 77.5563 56.0568 77.4402C56.0568 77.324 56.0885 77.2184 55.9829 77.1233C56.0463 77.06 56.0779 77.0072 56.0885 76.9544C56.099 76.9016 56.0885 76.8488 56.0674 76.796C56.0357 76.7009 55.9513 76.5953 55.9618 76.4897C55.9935 76.3841 56.0357 76.2891 56.0568 76.194C56.0779 76.099 56.0885 76.0039 56.0463 75.8878C55.9935 75.7822 56.0252 75.6871 56.0885 75.5921C56.1412 75.5076 56.2045 75.4231 56.2151 75.3281C56.1623 75.2119 56.2573 75.138 56.3312 75.0746C56.405 75.0113 56.5 74.9585 56.4472 74.8318C56.5528 74.6839 56.595 74.5149 56.7322 74.3988C56.6161 74.2193 56.6688 74.1453 56.7638 74.1136C56.8588 74.082 56.9854 74.082 57.0593 74.0397C57.1331 73.9975 57.1331 73.9024 57.1648 73.818C57.1859 73.7335 57.2492 73.6807 57.4075 73.744C57.3653 73.5856 57.4075 73.5223 57.4919 73.5012C57.5763 73.4906 57.6819 73.5117 57.7557 73.5012C57.9035 73.5012 57.9035 73.2477 58.1039 73.3322C58.1039 73.0787 58.3678 73.3322 58.4311 73.2055C58.5894 73.2794 58.6316 73.1315 58.7371 73.1315C58.7793 73.0893 58.8215 73.0682 58.8637 73.0576C58.9165 73.0576 58.9587 73.0576 59.0114 73.0893C59.0959 73.0893 59.1803 73.0787 59.2541 73.0787C59.3702 73.0787 59.4652 73.0999 59.5602 73.1104C59.6446 73.121 59.7184 73.1527 59.7818 73.1738C59.8978 73.2266 59.9506 73.2688 59.9506 73.3322L59.94 73.3955Z" fill="#0061EF"/>
<path d="M35.1122 49.9092C35.1122 49.962 35.0489 50.0253 34.9328 50.0781C34.8695 50.1098 34.8062 50.1309 34.7217 50.1732C34.6373 50.2154 34.5529 50.2471 34.4474 50.2893C34.3841 50.321 34.3102 50.3633 34.2363 50.3949C34.2047 50.4161 34.1625 50.4477 34.1308 50.4583C34.0886 50.4794 34.057 50.5005 34.0042 50.5111C33.867 50.4055 33.9303 50.8173 33.7615 50.6589C33.6454 50.6484 33.5716 50.7329 33.5082 50.8385C33.4449 50.9335 33.2655 50.8702 33.255 51.0602C33.2972 51.2081 33.2022 51.1764 33.1073 51.1553C33.0123 51.1342 32.9279 51.1342 33.0017 51.3137C32.9595 51.451 32.8646 51.5249 32.7696 51.6094C32.643 51.5883 32.6007 51.6411 32.5902 51.715C32.5796 51.7889 32.5902 51.8734 32.5691 51.9473C32.2842 51.9156 32.2842 52.1163 32.4003 52.3169C32.0098 52.2852 31.9993 52.4859 32.2736 52.7182C32.2525 52.7816 32.2103 52.8449 32.1787 52.9189C32.1576 52.9505 32.147 52.9928 32.147 53.0245C32.147 53.0667 32.1681 53.1089 32.1998 53.1512C32.1998 53.2251 32.1998 53.299 32.2209 53.3729C32.2209 53.4469 32.2209 53.5208 32.1892 53.5947C32.3053 53.6686 32.3686 53.7426 32.3791 53.8165C32.3791 53.8587 32.3792 53.8904 32.3475 53.9326C32.3264 53.9749 32.2947 54.0171 32.2525 54.0594C32.5269 54.1755 32.4636 54.3128 32.3686 54.5135C32.3264 54.6085 32.4108 54.6719 32.4847 54.7247C32.5585 54.7775 32.6324 54.8303 32.5796 54.9464C32.6007 55.0309 32.6641 55.0837 32.7168 55.1471C32.7696 55.2104 32.8223 55.2738 32.854 55.3477C32.854 55.4005 32.854 55.4533 32.8646 55.4956C32.8751 55.5378 32.8962 55.5906 32.9173 55.6223C32.9701 55.6962 33.0545 55.749 33.2022 55.7068C33.2866 55.7385 33.3711 55.7701 33.4449 55.8124C33.5188 55.8546 33.5716 55.918 33.6138 56.013C33.8987 55.8652 33.9725 56.0447 34.0781 56.2454C34.173 56.2454 34.2363 56.3193 34.3208 56.3721C34.4052 56.4143 34.4896 56.4566 34.5951 56.3932C34.6795 56.4249 34.7745 56.4143 34.8589 56.3932C34.9539 56.3721 35.0383 56.3721 35.1227 56.4354C35.2177 56.4777 35.3127 56.5094 35.3971 56.5094C35.4921 56.5094 35.5765 56.4671 35.6503 56.3826C35.7242 56.277 35.7981 56.2665 35.893 56.2876C35.988 56.2982 36.083 56.2982 36.1568 56.2454C36.294 56.3404 36.3679 56.2665 36.4207 56.1926C36.484 56.1186 36.5156 56.013 36.6211 56.013C36.695 55.9602 36.7794 55.9391 36.8638 55.9074C36.9483 55.8757 37.0221 55.8229 37.0327 55.7173C37.0854 55.6434 37.1171 55.5695 37.1699 55.5061C37.191 55.4744 37.2226 55.4428 37.2648 55.4216C37.2965 55.4005 37.3387 55.3688 37.3809 55.3583C37.2754 55.1682 37.3387 55.1365 37.4337 55.0943C37.5286 55.0626 37.6658 55.0415 37.6658 54.9464C37.7713 54.9148 37.8135 54.8303 37.8241 54.7458C37.8241 54.6613 37.8241 54.5768 37.8769 54.5029C37.8663 54.4184 37.9191 54.3551 37.9824 54.2811C38.0457 54.2178 38.0668 54.1333 38.0035 54.0488C38.014 54.0066 38.0246 53.9749 38.014 53.9326C38.014 53.8904 37.9929 53.8587 37.9929 53.8165C37.9824 53.7426 37.9929 53.6686 38.0563 53.5947C37.9507 53.5208 37.9929 53.4469 38.0351 53.3729C38.0774 53.2885 38.1196 53.2145 38.0351 53.1512L38.014 53.0456L37.9824 52.94C37.9613 52.8661 37.9613 52.8027 37.9507 52.7288C38.0774 52.6126 38.0563 52.5387 38.0035 52.4753C37.9613 52.412 37.8558 52.3803 37.8136 52.3275C37.7819 52.1796 37.5286 52.1796 37.6447 51.9579C37.6236 51.8945 37.6131 51.8206 37.592 51.7572C37.5708 51.6939 37.5286 51.6305 37.4442 51.6305C37.3809 51.5988 37.4231 51.4721 37.4337 51.377C37.4337 51.282 37.402 51.2186 37.2121 51.3348C37.1382 51.3242 37.1488 51.2186 37.1382 51.1447C37.1277 51.0708 37.0854 51.0074 36.9588 51.0814C36.7267 51.2186 36.8005 50.9335 36.7056 50.8596C36.6211 50.7857 36.5367 50.7434 36.4523 50.6801C35.6926 50.1943 35.0911 50.1098 35.1016 49.9197C35.1016 49.8775 35.1438 49.8247 35.2388 49.793C35.3338 49.7613 35.471 49.7085 35.6503 49.698C36.0091 49.6557 36.5789 49.698 37.2226 49.9936C37.3387 50.057 37.6025 49.9514 37.6131 50.1943C37.6764 50.2365 37.7608 50.2577 37.8452 50.2788C37.9191 50.3105 37.9929 50.3633 38.014 50.4583C38.3412 50.3527 38.299 50.6589 38.4045 50.7962C38.4678 50.8596 38.51 50.9441 38.5522 51.018C38.605 51.0919 38.6683 51.1658 38.7633 51.2081C39.006 51.282 38.9004 51.5777 39.0798 51.7044C39.0165 51.9579 39.1115 52.1163 39.3436 52.2641C39.2909 52.3908 39.3225 52.4859 39.3858 52.5915C39.4175 52.6443 39.4491 52.6865 39.4703 52.7393C39.4914 52.7921 39.5125 52.8449 39.523 52.8977C39.4069 53.035 39.4069 53.1406 39.4386 53.2462C39.4703 53.3518 39.5547 53.4574 39.6074 53.5736C39.6602 53.6898 39.6391 53.8059 39.618 53.9326C39.618 53.996 39.5969 54.0488 39.5863 54.1122C39.5863 54.1755 39.5758 54.2283 39.5863 54.2917C39.5125 54.524 39.5547 54.788 39.4491 55.0204C39.4703 55.1576 39.4597 55.2949 39.428 55.4216C39.3858 55.5484 39.3014 55.654 39.1748 55.7385C39.1642 55.8757 39.0798 55.9919 39.0165 56.0975C38.9426 56.2137 38.8477 56.3087 38.7738 56.4143C38.7527 56.4882 38.721 56.5516 38.6894 56.6044C38.6472 56.6572 38.5944 56.71 38.5522 56.7522C38.4572 56.8473 38.3412 56.9318 38.2462 57.0268C38.1618 57.143 38.014 57.1852 37.8769 57.2275C37.7397 57.2803 37.6342 57.3542 37.592 57.5443C37.3704 57.7344 37.0749 57.7872 36.8322 57.9456C36.5473 58.0195 36.2729 58.0617 35.9986 58.199C35.8297 58.0828 35.6926 58.0723 35.5448 58.1145C35.4076 58.1462 35.2599 58.2307 35.1122 58.2835C34.9644 58.3152 34.8167 58.3257 34.669 58.3046C34.5213 58.2835 34.3735 58.2307 34.2363 58.1885C34.0886 58.1779 33.9514 58.1356 33.8037 58.104C33.6665 58.0617 33.5293 57.9984 33.4027 57.9456C33.255 57.9456 33.1389 57.84 33.0228 57.7555C32.9068 57.671 32.8012 57.576 32.6535 57.5548C32.4952 57.5337 32.4003 57.4175 32.3158 57.3119C32.2209 57.2063 32.147 57.0902 31.9993 57.0374C31.8621 56.974 31.746 56.9001 31.651 56.7945C31.6088 56.7417 31.5666 56.6889 31.5244 56.6255C31.4928 56.5622 31.4717 56.4882 31.4611 56.4143C31.3767 56.3087 31.3556 56.1609 31.3239 56.0341C31.2923 55.8969 31.2184 55.8018 31.0601 55.7385C30.9757 55.6329 30.828 55.5589 30.7436 55.4533C30.6591 55.3477 30.6275 55.2104 30.7858 55.0204C30.7013 54.9148 30.7224 54.7775 30.7224 54.6507C30.7224 54.524 30.7541 54.3973 30.638 54.2917C30.7013 54.2178 30.733 54.1544 30.733 54.1016C30.7436 54.0382 30.733 53.9854 30.7119 53.9326C30.6802 53.8165 30.5958 53.7003 30.6064 53.5842C30.638 53.468 30.6802 53.3518 30.7013 53.2462C30.7224 53.1406 30.7436 53.0245 30.7013 52.9083C30.6802 52.8449 30.6697 52.7921 30.6802 52.7393C30.6908 52.6865 30.7224 52.6337 30.7436 52.5809C30.8069 52.4859 30.8596 52.3908 30.8807 52.2852C30.8385 52.1585 30.9229 52.074 31.0074 52.0001C31.0918 51.9262 31.1867 51.8628 31.1445 51.7255C31.2606 51.5566 31.3134 51.3665 31.4611 51.2292C31.345 51.0391 31.4083 50.9546 31.5139 50.9124C31.6088 50.8702 31.7566 50.8596 31.8304 50.8174C31.9149 50.7751 31.9254 50.6589 31.9571 50.5745C31.9887 50.49 32.052 50.4266 32.2209 50.4794C32.1787 50.3105 32.242 50.2471 32.3264 50.226C32.4214 50.2049 32.5269 50.226 32.6219 50.2154C32.7907 50.1943 32.8012 49.9408 33.0123 50.0148C33.0334 49.7508 33.3077 49.9936 33.3816 49.8669C33.5504 49.9408 33.6138 49.7824 33.7298 49.7719C33.772 49.7296 33.8248 49.7085 33.8776 49.698C33.9303 49.698 33.9936 49.698 34.0464 49.7296C34.1414 49.7296 34.2363 49.7085 34.3313 49.7085C34.4579 49.7085 34.574 49.7191 34.6795 49.7296C34.7745 49.7402 34.8589 49.7719 34.9222 49.793C35.0594 49.8352 35.1227 49.888 35.1227 49.9514L35.1122 49.9092Z" fill="#0061EF"/>
<path d="M50.8032 30.9748C50.8032 31.0276 50.7399 31.0909 50.6238 31.1437C50.5605 31.1754 50.4972 31.1965 50.4127 31.2388C50.3283 31.281 50.2439 31.3127 50.1384 31.3549C50.0751 31.3866 50.0012 31.4289 49.9273 31.4605C49.8957 31.4817 49.8535 31.5133 49.8218 31.5239C49.7796 31.545 49.748 31.5661 49.6952 31.5767C49.558 31.4711 49.6213 31.8935 49.4525 31.7245C49.3364 31.714 49.2626 31.7985 49.1992 31.9041C49.1359 31.9991 48.9565 31.9358 48.946 32.1153C48.9882 32.2631 48.8932 32.2314 48.7983 32.2103C48.7033 32.1892 48.6189 32.1892 48.6927 32.3687C48.6505 32.506 48.5556 32.5799 48.4606 32.6644C48.334 32.6327 48.2917 32.6961 48.2812 32.77C48.2706 32.8439 48.2812 32.9284 48.2601 32.9918C47.9752 32.9601 47.9752 33.1607 48.0913 33.3614C47.7008 33.3192 47.6903 33.5198 47.9646 33.7627C47.9435 33.8366 47.9013 33.8894 47.8697 33.9633C47.838 34.0267 47.8274 34.1112 47.8908 34.1957C47.8908 34.2696 47.8908 34.3435 47.9013 34.4174C47.9013 34.4913 47.9013 34.5653 47.8697 34.6392C47.9857 34.7131 48.0596 34.787 48.0596 34.861C48.0596 34.8926 48.0596 34.9349 48.0279 34.9771C48.0068 35.0194 47.9752 35.0616 47.933 35.1038C48.2073 35.22 48.144 35.3573 48.0596 35.5579C48.0174 35.653 48.1018 35.7163 48.1757 35.7691C48.2495 35.8219 48.3234 35.8748 48.2706 35.9909C48.2917 36.0648 48.3551 36.1282 48.4078 36.1916C48.4606 36.2549 48.5133 36.3183 48.545 36.3922C48.545 36.445 48.545 36.4978 48.5661 36.5401C48.5767 36.5823 48.5978 36.6245 48.6189 36.6668C48.6611 36.7407 48.7455 36.7935 48.8932 36.7513C48.9776 36.7829 49.0621 36.8146 49.1359 36.8463C49.2098 36.8885 49.2626 36.9519 49.3048 37.0469C49.5897 36.9097 49.6635 37.0786 49.7691 37.2793C49.864 37.2793 49.9273 37.3532 50.0118 37.406C50.0962 37.4482 50.1806 37.4905 50.2861 37.4271C50.3705 37.4588 50.4655 37.4482 50.5499 37.4271C50.6449 37.406 50.7293 37.406 50.8137 37.4694C50.9087 37.501 51.0037 37.5433 51.0986 37.5433C51.1936 37.5433 51.278 37.501 51.3519 37.4166C51.4258 37.311 51.4996 37.3004 51.5946 37.3215C51.6896 37.3321 51.7845 37.3321 51.8584 37.2793C51.9956 37.3743 52.0694 37.3004 52.1222 37.2265C52.1855 37.1526 52.2172 37.0469 52.3227 37.0469C52.3966 36.9941 52.481 36.973 52.5654 36.9413C52.6498 36.9097 52.7237 36.8569 52.7342 36.7513C52.787 36.6773 52.8187 36.6034 52.8714 36.5295C52.9031 36.4978 52.9242 36.4661 52.9664 36.445C52.998 36.4239 53.0403 36.3922 53.0825 36.3816C52.9769 36.1916 53.0403 36.1599 53.1352 36.1176C53.2302 36.086 53.3674 36.0648 53.3674 35.9698C53.4729 35.9276 53.5151 35.8536 53.5257 35.7691C53.5257 35.6847 53.5257 35.6002 53.5784 35.5263C53.5679 35.4418 53.6312 35.3784 53.6839 35.3045C53.7473 35.2411 53.7684 35.1566 53.705 35.0722C53.7156 35.0299 53.7261 34.9982 53.7156 34.956C53.7156 34.9138 53.6945 34.8715 53.6945 34.8398C53.6734 34.7659 53.6945 34.692 53.7578 34.6181C53.6523 34.5442 53.6945 34.4702 53.7367 34.3963C53.7789 34.3224 53.8211 34.2379 53.7367 34.1745L53.7156 34.0689L53.6839 33.9633C53.6628 33.8894 53.6628 33.826 53.6523 33.7521C53.7789 33.636 53.7578 33.562 53.7156 33.4987C53.6628 33.4353 53.5679 33.4036 53.5257 33.3508C53.5045 33.203 53.2407 33.203 53.3568 32.9812C53.3357 32.9179 53.3252 32.8439 53.3041 32.7806C53.283 32.7172 53.2513 32.6539 53.1563 32.6539C53.093 32.6222 53.1352 32.4954 53.1458 32.4004C53.1458 32.3054 53.1141 32.242 52.9242 32.3582C52.8503 32.3476 52.8609 32.242 52.8503 32.1681C52.8398 32.0942 52.8081 32.0308 52.6709 32.1047C52.4388 32.242 52.5126 31.9569 52.4177 31.883C52.3333 31.809 52.2488 31.7668 52.1644 31.7034C51.4047 31.2177 50.8032 31.1332 50.8137 30.9431C50.8137 30.9008 50.8559 30.848 50.9509 30.8164C51.0459 30.7741 51.1831 30.7319 51.3624 30.7213C51.7212 30.6791 52.291 30.7213 52.9242 31.017C53.0508 31.0804 53.3041 30.9748 53.3146 31.2177C53.3779 31.2599 53.4623 31.281 53.5468 31.3021C53.6206 31.3338 53.6945 31.3866 53.7156 31.4817C54.0427 31.3761 54.0005 31.6823 54.106 31.8196C54.1693 31.883 54.2115 31.9674 54.2643 32.0414C54.3171 32.1153 54.3698 32.1892 54.4754 32.2314C54.7181 32.3054 54.6125 32.6011 54.7919 32.7278C54.7286 32.9812 54.8236 33.1396 55.0557 33.2875C55.0135 33.4142 55.0346 33.5092 55.0979 33.6148C55.1296 33.6676 55.1613 33.7099 55.1929 33.7627C55.214 33.8155 55.2351 33.8683 55.2457 33.9211C55.1296 34.0584 55.1296 34.1534 55.1613 34.2696C55.1929 34.3752 55.2773 34.4808 55.3301 34.597C55.3828 34.7131 55.3617 34.8293 55.3406 34.9454C55.3301 35.0088 55.3195 35.0616 55.309 35.125C55.2984 35.1883 55.2879 35.2411 55.309 35.3045C55.2246 35.5368 55.2773 35.8008 55.1718 36.0332C55.1929 36.1704 55.1824 36.3077 55.1507 36.4344C55.1085 36.5612 55.0241 36.6668 54.8974 36.7513C54.8869 36.8885 54.813 37.0047 54.7392 37.1103C54.6653 37.2265 54.5703 37.3215 54.4965 37.4271C54.4754 37.501 54.4437 37.5644 54.412 37.6172C54.3698 37.67 54.3171 37.7228 54.2749 37.765C54.1799 37.8601 54.0638 37.9446 53.9688 38.0396C53.8844 38.1558 53.7367 38.198 53.5995 38.2403C53.4623 38.2931 53.3568 38.367 53.3146 38.5571C53.093 38.7472 52.7976 38.8 52.5548 38.9584C52.2699 39.0323 51.985 39.0745 51.7212 39.2118C51.5524 39.0956 51.4047 39.0851 51.2675 39.1273C51.1303 39.159 50.9826 39.2435 50.8348 39.2963C50.6871 39.328 50.5394 39.3385 50.3916 39.3174C50.2439 39.2963 50.0962 39.2541 49.959 39.2013C49.8113 39.1907 49.6741 39.1484 49.5264 39.1168C49.3892 39.0745 49.252 39.0112 49.1254 38.9584C48.9671 38.9584 48.8616 38.8528 48.7455 38.7683C48.6294 38.6838 48.5239 38.5888 48.3762 38.5676C48.2179 38.5465 48.1229 38.4303 48.0385 38.3247C47.9435 38.2191 47.8697 38.103 47.7219 38.0502C47.5847 37.9974 47.4687 37.9129 47.3737 37.8073C47.3209 37.7545 47.2787 37.7017 47.2471 37.6383C47.2154 37.575 47.1943 37.501 47.1838 37.4271C47.0993 37.3215 47.0782 37.1737 47.0466 37.0469C47.0149 36.9202 46.9411 36.8146 46.7828 36.7513C46.6984 36.6457 46.5506 36.5717 46.4662 36.4661C46.3818 36.3605 46.3501 36.2232 46.5084 36.0332C46.424 35.9276 46.4451 35.7903 46.4451 35.6635C46.4451 35.5368 46.4768 35.4101 46.3607 35.3045C46.424 35.2306 46.4557 35.1672 46.4557 35.1144C46.4662 35.051 46.4557 34.9982 46.4346 34.9454C46.4029 34.8293 46.3185 34.7131 46.329 34.597C46.3607 34.4808 46.4134 34.3646 46.4346 34.259C46.4557 34.1429 46.4768 34.0373 46.4346 33.9211C46.3818 33.7944 46.424 33.6888 46.4768 33.5937C46.5401 33.4987 46.5928 33.4036 46.6139 33.298C46.5717 33.1713 46.6562 33.0868 46.7406 33.0129C46.825 32.939 46.92 32.8651 46.8777 32.7383C46.9938 32.5694 47.0466 32.3793 47.1943 32.242C47.0782 32.0519 47.1416 31.9674 47.2471 31.9252C47.342 31.883 47.4898 31.883 47.5636 31.8196C47.6481 31.7773 47.6586 31.6612 47.6903 31.5767C47.7219 31.4922 47.7958 31.4289 47.9541 31.4817C47.9119 31.3127 47.9752 31.2493 48.0596 31.2282C48.1546 31.2071 48.2601 31.2282 48.3551 31.2177C48.5239 31.1965 48.5344 30.9431 48.7455 31.017C48.7666 30.753 49.041 30.9959 49.1254 30.8692C49.2942 30.9431 49.3575 30.7847 49.4736 30.7741C49.5158 30.7319 49.5686 30.7002 49.6213 30.7002C49.6741 30.7002 49.7374 30.7002 49.7902 30.7319C49.8957 30.7319 49.9801 30.7108 50.0751 30.7108C50.2017 30.7108 50.3178 30.7213 50.4233 30.7319C50.5183 30.7424 50.6027 30.7741 50.666 30.7952C50.7926 30.8375 50.8665 30.8903 50.8665 30.9536L50.8032 30.9748Z" fill="#0061EF"/>
<path d="M66.4962 44.9671C66.4962 45.0199 66.4328 45.0832 66.3168 45.1361C66.2535 45.1677 66.1901 45.1889 66.1057 45.2311C66.0213 45.2733 65.9369 45.305 65.8314 45.3473C65.7681 45.3789 65.6942 45.4212 65.6203 45.4529C65.5887 45.474 65.5465 45.5057 65.5148 45.5162C65.4726 45.5373 65.4409 45.5585 65.3882 45.569C65.251 45.4634 65.3143 45.8858 65.1455 45.7169C65.0294 45.7063 64.9555 45.7908 64.8922 45.8964C64.8289 45.9914 64.6495 45.9281 64.639 46.1076C64.6812 46.2554 64.5862 46.2238 64.4912 46.2026C64.4068 46.1815 64.3118 46.1815 64.3857 46.361C64.3435 46.4983 64.2485 46.5723 64.1536 46.6567C64.0269 46.6251 63.9847 46.6884 63.9742 46.7623C63.9636 46.8363 63.9742 46.9207 63.9531 46.9841C63.6682 46.9524 63.6682 47.1531 63.7842 47.3537C63.3938 47.3115 63.3832 47.5227 63.6576 47.755C63.6365 47.8289 63.5943 47.8817 63.5626 47.9557C63.5415 47.9873 63.531 48.0296 63.531 48.0613C63.531 48.1035 63.5521 48.1457 63.5837 48.188C63.5837 48.2619 63.5837 48.3358 63.5943 48.4098C63.5943 48.4837 63.5943 48.5576 63.5626 48.6315C63.6787 48.7054 63.7526 48.7794 63.7526 48.8533C63.7526 48.885 63.7526 48.9272 63.7209 48.9694C63.6998 49.0117 63.6682 49.0539 63.626 49.0962C63.9003 49.2123 63.837 49.3496 63.7526 49.5503C63.7104 49.6453 63.7948 49.7087 63.8687 49.7615C63.9425 49.8143 64.0164 49.8671 63.9636 49.9832C64.0269 50.1311 64.1747 50.2367 64.238 50.3951C64.238 50.4479 64.238 50.5007 64.2591 50.5429C64.2696 50.5852 64.2907 50.638 64.3118 50.6697C64.3329 50.7119 64.3646 50.733 64.4174 50.7541C64.4596 50.7753 64.5229 50.7753 64.5968 50.7541C64.6812 50.7858 64.7656 50.8175 64.8395 50.8492C64.9133 50.8914 64.9661 50.9548 65.0083 51.0498C65.2932 50.9125 65.3671 51.0709 65.4726 51.2822C65.5676 51.2822 65.6309 51.3666 65.7047 51.4089C65.7892 51.4511 65.8736 51.4934 65.9791 51.43C66.0635 51.4617 66.1585 51.4511 66.2429 51.43C66.3379 51.4089 66.4223 51.4089 66.5067 51.4722C66.6017 51.5039 66.6861 51.5462 66.7811 51.5567C66.876 51.5567 66.9605 51.5145 67.0343 51.43C67.1082 51.3244 67.1821 51.3138 67.277 51.335C67.372 51.335 67.467 51.3455 67.5408 51.2927C67.678 51.3878 67.7413 51.3138 67.8046 51.2399C67.8679 51.166 67.8996 51.0604 68.0051 51.0604C68.079 51.0076 68.1634 50.9865 68.2478 50.9548C68.3322 50.9231 68.4061 50.8703 68.4167 50.7647C68.4694 50.6908 68.5011 50.6169 68.5538 50.5535C68.5749 50.5218 68.6066 50.4901 68.6488 50.469C68.6805 50.4373 68.7227 50.4162 68.7649 50.4057C68.6594 50.2156 68.7227 50.1839 68.8176 50.1416C68.9126 50.11 69.0498 50.0888 69.0498 49.9938C69.1553 49.9621 69.1975 49.8776 69.2081 49.7932C69.2081 49.7087 69.2081 49.6242 69.2608 49.5503C69.2503 49.4658 69.3031 49.4024 69.3664 49.3285C69.4297 49.2651 69.4508 49.1807 69.3875 49.0962C69.398 49.0539 69.4086 49.0222 69.398 48.98C69.398 48.9378 69.3769 48.9061 69.3769 48.8638C69.3558 48.7899 69.3769 48.716 69.4402 48.6421C69.3347 48.5682 69.3769 48.4942 69.4191 48.4203C69.4613 48.3358 69.5035 48.2619 69.4191 48.1985L69.398 48.0929L69.3664 47.9873C69.3453 47.924 69.3453 47.8501 69.3347 47.7761C69.4613 47.66 69.4402 47.586 69.3875 47.5227C69.3347 47.4593 69.2397 47.4276 69.1975 47.3748C69.1659 47.227 68.9126 47.2376 69.0287 47.0052C68.997 46.9419 68.997 46.8679 68.9759 46.8046C68.9548 46.7412 68.9126 46.6779 68.8282 46.6779C68.7649 46.6462 68.8071 46.5195 68.8176 46.4244C68.8176 46.3294 68.786 46.266 68.5961 46.3822C68.5222 46.3716 68.5327 46.266 68.5222 46.1921C68.5116 46.1182 68.4694 46.0548 68.3428 46.1287C68.1106 46.266 68.174 45.9809 68.0895 45.907C68.0051 45.833 67.9207 45.7908 67.8363 45.7274C67.0765 45.2417 66.4751 45.1572 66.4751 44.9671C66.4751 44.9248 66.5173 44.872 66.6122 44.8404C66.7072 44.8087 66.8444 44.7559 67.0238 44.7453C67.3825 44.7031 67.9524 44.7453 68.5855 45.041C68.7121 45.0938 68.9654 44.9882 68.9759 45.2417C69.0392 45.2839 69.1237 45.305 69.2081 45.3261C69.2819 45.3578 69.3558 45.4106 69.3769 45.5057C69.5352 45.4529 69.6196 45.5057 69.6513 45.5901C69.6935 45.6746 69.704 45.7802 69.7568 45.8542C69.8201 45.9175 69.8623 46.002 69.9151 46.0759C69.9678 46.1498 70.0206 46.2238 70.1261 46.266C70.3688 46.3399 70.2633 46.6356 70.4427 46.7623C70.3794 47.0158 70.4849 47.1742 70.7065 47.322C70.6643 47.4488 70.6854 47.5438 70.7487 47.6388C70.7804 47.6916 70.812 47.7339 70.8331 47.7867C70.8542 47.8395 70.8753 47.8923 70.8859 47.9451C70.7698 48.0718 70.7698 48.188 70.8015 48.2936C70.8331 48.3992 70.9175 48.5154 70.9703 48.621C71.0231 48.7371 71.002 48.8533 70.9809 48.98C70.9809 49.0434 70.9598 49.0962 70.9492 49.1595C70.9386 49.2229 70.9281 49.2757 70.9492 49.3391C70.8753 49.5714 70.9175 49.8354 70.812 50.0677C70.8331 50.205 70.8226 50.3423 70.7909 50.469C70.7487 50.5957 70.6643 50.7013 70.5377 50.7858C70.5271 50.9231 70.4532 51.0393 70.3794 51.1449C70.3055 51.261 70.2105 51.3561 70.1367 51.4617C70.1156 51.5356 70.0839 51.5884 70.0523 51.6518C70.01 51.7046 69.9573 51.7574 69.9151 51.7996C69.8201 51.8947 69.704 51.9791 69.6091 52.0742C69.5246 52.1903 69.3769 52.2326 69.2397 52.2748C69.1026 52.3276 68.997 52.4016 68.9548 52.5916C68.7332 52.7817 68.4483 52.8345 68.2056 52.9929C68.0579 53.0246 67.9207 53.0563 67.7835 53.0985C67.6464 53.1302 67.5092 53.183 67.372 53.2464C67.2032 53.1302 67.066 53.1196 66.9182 53.1619C66.7811 53.1936 66.6439 53.2781 66.4856 53.3414C66.3379 53.3837 66.1901 53.3837 66.0424 53.3625C65.8947 53.3414 65.7469 53.2992 65.6098 53.2569C65.462 53.2464 65.3249 53.2041 65.1771 53.1725C65.0399 53.1302 64.9028 53.0668 64.7761 53.014C64.6179 53.014 64.5123 52.9084 64.3963 52.824C64.2802 52.7395 64.1747 52.6444 64.0269 52.6233C63.8686 52.6022 63.7737 52.486 63.6893 52.3804C63.5943 52.2748 63.5204 52.1587 63.3832 52.1059C63.3199 52.0742 63.2566 52.0425 63.1933 52.0003C63.1405 51.958 63.0878 51.9158 63.035 51.863C62.9928 51.8102 62.9401 51.7574 62.9084 51.694C62.8767 51.6306 62.8556 51.5567 62.8451 51.4828C62.7607 51.3772 62.7396 51.2294 62.7079 51.1026C62.6762 50.9759 62.6024 50.8703 62.4441 50.8069C62.3597 50.7013 62.212 50.6274 62.1275 50.5218C62.0431 50.4162 62.0115 50.2789 62.1697 50.0994C62.0853 49.9938 62.1064 49.8565 62.1064 49.7298C62.1064 49.6031 62.1275 49.4763 62.022 49.3707C62.0853 49.2968 62.117 49.2335 62.1275 49.1807C62.1381 49.1173 62.1275 49.0645 62.1064 49.0117C62.0748 48.8955 61.9904 48.7794 62.0009 48.6632C62.0326 48.547 62.0748 48.4414 62.1064 48.3253C62.1275 48.2197 62.1486 48.1035 62.1064 47.9873C62.0748 47.924 62.0748 47.8712 62.0853 47.8078C62.0959 47.755 62.1275 47.7022 62.1486 47.6494C62.212 47.5544 62.2647 47.4593 62.2858 47.3537C62.2436 47.227 62.328 47.1425 62.4124 47.0686C62.4969 46.9841 62.5918 46.9207 62.5496 46.794C62.6657 46.6251 62.7185 46.435 62.8662 46.2977C62.7501 46.1076 62.8134 46.0231 62.9189 45.9809C63.0245 45.9386 63.1617 45.9281 63.2355 45.8858C63.3199 45.833 63.3305 45.7274 63.3621 45.6429C63.3938 45.5479 63.4571 45.4951 63.626 45.5479C63.5837 45.3789 63.6471 45.3156 63.7315 45.2945C63.8159 45.2733 63.932 45.2945 64.0164 45.2839C64.1852 45.2628 64.1958 45.0093 64.4068 45.0833C64.4279 44.8192 64.7023 45.0621 64.7761 44.9354C64.945 45.0093 65.0083 44.8509 65.1244 44.8404C65.1666 44.7981 65.2193 44.7664 65.2721 44.7559C65.3249 44.7559 65.3882 44.7559 65.4409 44.7876C65.5359 44.7876 65.6309 44.7664 65.7258 44.7664C65.8525 44.7664 65.9685 44.777 66.0741 44.7876C66.169 44.7981 66.2535 44.8298 66.3168 44.8509C66.4434 44.8932 66.5173 44.946 66.5173 45.0093L66.4962 44.9671Z" fill="#0061EF"/>
<path d="M84.7696 27.1093C84.7696 27.1621 84.7063 27.2254 84.5902 27.2782C84.5269 27.3099 84.4636 27.331 84.3792 27.3733C84.2947 27.4155 84.2103 27.4472 84.1048 27.4895C84.0415 27.5211 83.9676 27.5528 83.8938 27.5951C83.8621 27.6162 83.8199 27.6479 83.7882 27.669C83.746 27.6901 83.7144 27.7112 83.6722 27.7218C83.535 27.6162 83.5983 28.028 83.4295 27.8696C83.3134 27.8591 83.2395 27.9435 83.1762 28.0491C83.1129 28.1442 82.9335 28.0808 82.923 28.2604C82.9652 28.4082 82.8702 28.3765 82.7752 28.3554C82.6803 28.3343 82.5958 28.3343 82.6697 28.5138C82.6275 28.6511 82.5325 28.725 82.4376 28.8095C82.3109 28.7884 82.2687 28.8412 82.2582 28.9151C82.2476 28.989 82.2582 29.0735 82.2371 29.1369C81.9521 29.1052 81.9521 29.3058 82.0682 29.5065C81.6778 29.4748 81.6672 29.6754 81.9416 29.9078C81.9205 29.9711 81.8783 30.0345 81.8466 30.1084C81.8361 30.1401 81.815 30.1823 81.815 30.214C81.815 30.2563 81.8361 30.2985 81.8677 30.3407C81.8677 30.4147 81.8677 30.4886 81.8783 30.5625C81.8783 30.6364 81.8783 30.7103 81.8466 30.7843C81.9627 30.8582 82.0366 30.9321 82.0366 31.006C82.0366 31.0483 82.0366 31.08 82.0049 31.1222C81.9838 31.1644 81.9521 31.2067 81.9099 31.2489C82.1843 31.3651 82.121 31.5024 82.0366 31.703C81.9944 31.7981 82.0788 31.8614 82.1526 31.9142C82.2265 31.967 82.3004 32.0198 82.2476 32.136C82.2687 32.2205 82.332 32.2733 82.3848 32.3366C82.4376 32.4 82.4903 32.4634 82.522 32.5373C82.522 32.5901 82.522 32.6323 82.5431 32.6851C82.5536 32.7274 82.5747 32.7696 82.5958 32.8119C82.6486 32.8858 82.7225 32.9386 82.8702 32.8963C82.9546 32.928 83.039 32.9597 83.1129 33.0019C83.1868 33.0442 83.2395 33.1075 83.2817 33.2026C83.5666 33.0653 83.6405 33.2343 83.746 33.4349C83.841 33.4349 83.9043 33.5088 83.9887 33.5616C84.0731 33.6039 84.1576 33.6461 84.2631 33.5828C84.3475 33.6144 84.4425 33.6039 84.5269 33.5828C84.6219 33.5616 84.7063 33.5616 84.7907 33.625C84.8857 33.6672 84.9806 33.6989 85.0651 33.7095C85.16 33.7095 85.2444 33.6672 85.3183 33.5828C85.3922 33.4772 85.466 33.4666 85.561 33.4877C85.656 33.4983 85.751 33.4983 85.8248 33.4455C85.962 33.5405 86.0359 33.4666 86.0886 33.3927C86.1519 33.3187 86.1836 33.2131 86.2891 33.2131C86.363 33.1603 86.4474 33.1392 86.5318 33.1075C86.6162 33.0759 86.6901 33.0231 86.7007 32.9175C86.7534 32.8435 86.7851 32.7696 86.8378 32.6957C86.8589 32.664 86.8906 32.6323 86.9328 32.6112C86.9645 32.5901 87.0067 32.5584 87.0489 32.5478C86.9434 32.3578 87.0067 32.3261 87.1016 32.2838C87.1966 32.2522 87.3338 32.231 87.3338 32.136C87.4393 32.1043 87.4815 32.0198 87.4921 31.9353C87.4921 31.8509 87.4921 31.7664 87.5448 31.6925C87.5343 31.608 87.587 31.5446 87.6504 31.4707C87.7137 31.4073 87.7348 31.3228 87.6715 31.2384C87.682 31.1961 87.6926 31.1644 87.682 31.1222C87.682 31.08 87.6609 31.0483 87.6609 31.006C87.6504 30.9321 87.6609 30.8582 87.7242 30.7843C87.6187 30.7103 87.6609 30.6364 87.7031 30.5625C87.7453 30.4886 87.7875 30.4041 87.7031 30.3407L87.682 30.2351L87.6504 30.1295C87.6292 30.0556 87.6293 29.9922 87.6187 29.9183C87.7453 29.8022 87.7242 29.7282 87.6715 29.6649C87.6187 29.6015 87.5237 29.5698 87.4815 29.517C87.4604 29.3692 87.1966 29.3692 87.3127 29.1474C87.2916 29.0841 87.281 29.0101 87.2599 28.9468C87.2388 28.8834 87.1966 28.8201 87.1122 28.8201C87.0489 28.7884 87.0911 28.6616 87.1016 28.5666C87.1016 28.4716 87.07 28.4082 86.88 28.5244C86.8062 28.5138 86.8167 28.4082 86.8062 28.3343C86.7956 28.2604 86.764 28.197 86.6268 28.2709C86.3946 28.4082 86.458 28.1231 86.3735 28.0597C86.2891 27.9858 86.2047 27.933 86.1203 27.8802C85.3605 27.3944 84.759 27.3099 84.7696 27.1198C84.7696 27.0776 84.8118 27.0354 84.9068 26.9931C85.0017 26.9614 85.1389 26.9086 85.3183 26.8981C85.6771 26.8558 86.2469 26.8981 86.88 27.1938C87.0067 27.2571 87.2599 27.1515 87.2705 27.3944C87.3338 27.4366 87.4182 27.4578 87.5026 27.4789C87.587 27.5106 87.6504 27.5634 87.6715 27.6584C87.9986 27.5528 87.9564 27.8591 88.0619 27.9963C88.1252 28.0597 88.1674 28.1442 88.2202 28.2181C88.2624 28.292 88.3257 28.366 88.4312 28.4082C88.6739 28.4821 88.5684 28.7778 88.7478 28.9045C88.6845 29.158 88.7794 29.3164 89.0116 29.4642C88.9588 29.591 88.9905 29.686 89.0538 29.7916C89.0855 29.8444 89.1171 29.8866 89.1382 29.9394C89.1593 29.9922 89.1804 30.045 89.191 30.0979C89.0749 30.2246 89.0749 30.3407 89.1066 30.4463C89.1382 30.5519 89.2226 30.6575 89.2754 30.7737C89.3282 30.8899 89.3071 31.006 89.286 31.1222C89.286 31.1856 89.2648 31.2384 89.2543 31.3017C89.2437 31.3651 89.2437 31.4179 89.2543 31.4813C89.1804 31.7136 89.2226 31.9776 89.1171 32.2099C89.1382 32.3472 89.1277 32.4845 89.096 32.6112C89.0538 32.7379 88.9694 32.8435 88.8428 32.928C88.8322 33.0653 88.7583 33.1815 88.6845 33.2871C88.6106 33.4032 88.5156 33.4983 88.4418 33.6039C88.4207 33.6778 88.389 33.7412 88.3574 33.794C88.3151 33.8468 88.2624 33.8996 88.2202 33.9418C88.1252 34.0368 88.0091 34.1213 87.9142 34.2164C87.8297 34.3325 87.682 34.3748 87.5448 34.417C87.4077 34.4698 87.3021 34.5437 87.2599 34.7338C87.0383 34.9239 86.7429 34.9767 86.5002 35.1351C86.2153 35.209 85.9409 35.2513 85.6665 35.3886C85.4977 35.2724 85.3605 35.2618 85.2128 35.3041C85.0756 35.3358 84.9279 35.4203 84.7801 35.4731C84.6324 35.5047 84.4847 35.5153 84.337 35.4942C84.1892 35.4731 84.0415 35.4308 83.9043 35.378C83.7566 35.3674 83.6194 35.3252 83.4717 35.2935C83.3345 35.2513 83.1973 35.1879 83.0707 35.1351C82.923 35.1351 82.8069 35.0295 82.6908 34.945C82.5747 34.8606 82.4692 34.7655 82.3215 34.7444C82.1632 34.7233 82.0682 34.6071 81.9838 34.5015C81.8888 34.3959 81.815 34.2797 81.6672 34.2269C81.5301 34.1636 81.414 34.0897 81.319 33.984C81.2663 33.9312 81.2346 33.8784 81.1924 33.8151C81.1607 33.7517 81.1396 33.6778 81.1291 33.6039C81.0447 33.4983 81.0236 33.3504 80.9919 33.2237C80.9602 33.097 80.8864 32.9914 80.7281 32.928C80.6437 32.8224 80.4959 32.7485 80.4115 32.6323C80.3271 32.5267 80.2954 32.3894 80.4537 32.2099C80.3693 32.1043 80.3904 31.967 80.3904 31.8403C80.3904 31.7136 80.4221 31.5869 80.306 31.4813C80.3693 31.4073 80.401 31.344 80.401 31.2912C80.4115 31.2278 80.401 31.175 80.3799 31.1116C80.3482 30.9955 80.2638 30.8793 80.2743 30.7631C80.306 30.647 80.3482 30.5414 80.3799 30.4252C80.401 30.3196 80.4221 30.2035 80.3799 30.0873C80.3588 30.0239 80.3482 29.9711 80.3588 29.9183C80.3693 29.8655 80.401 29.8127 80.4221 29.7599C80.4854 29.6649 80.5382 29.5698 80.5593 29.4642C80.517 29.3375 80.6015 29.253 80.6859 29.1791C80.7703 29.1052 80.8653 29.0418 80.8231 28.9045C80.9391 28.7356 80.9919 28.5455 81.1396 28.4082C81.0236 28.2181 81.0869 28.1336 81.1924 28.0914C81.2979 28.0491 81.4351 28.0386 81.509 27.9963C81.5934 27.9541 81.5934 27.8379 81.6356 27.7535C81.6672 27.669 81.7306 27.6056 81.8994 27.6584C81.8572 27.4895 81.9205 27.4261 82.0049 27.405C82.0893 27.3838 82.2054 27.405 82.3004 27.3944C82.4692 27.3733 82.4798 27.1198 82.6908 27.1938C82.7119 26.9298 82.9863 27.1726 83.0601 27.0459C83.229 27.1198 83.2923 26.9614 83.4084 26.9509C83.4506 26.9086 83.5033 26.8875 83.5561 26.877C83.6089 26.877 83.6722 26.877 83.7249 26.9086C83.8199 26.9086 83.9149 26.8875 84.0098 26.8875C84.1365 26.8875 84.2525 26.8981 84.3581 26.9086C84.453 26.9192 84.5374 26.9509 84.6008 26.972C84.7274 27.0142 84.8013 27.067 84.8013 27.1304L84.7696 27.1093Z" fill="#0061EF"/>
<path d="M82.1123 33.4139C82.1862 33.4984 82.1124 33.7096 81.933 34.037C81.9013 34.0898 81.8697 34.1531 81.8274 34.2059C81.7958 34.2799 81.7641 34.3538 81.7008 34.396C81.5425 34.3432 81.7747 34.7023 81.5531 34.6072C81.4476 34.6178 81.4265 34.734 81.3842 34.829C81.3526 34.9346 81.1838 34.9029 81.2049 35.0719C81.3315 35.3465 80.8355 34.9874 81.0044 35.3253C80.9833 35.4626 80.8883 35.526 80.7828 35.5893C80.5506 35.5154 80.6139 35.7583 80.5506 35.8745C80.2763 35.7689 80.2657 35.9484 80.2974 36.1702C79.9491 36.0012 79.8964 36.1385 80.0336 36.4764C79.9386 36.582 79.7487 36.582 79.7487 36.7932C79.6642 36.9094 79.6009 37.0572 79.4532 37.1206C79.5165 37.3952 79.4004 37.5008 79.1472 37.4585C79.221 37.7542 79.0311 37.7859 78.8306 37.807C78.609 37.807 78.7567 38.1977 78.4929 38.1661C78.3663 38.2717 78.2924 38.4406 78.1447 38.5251C77.9442 38.5673 77.7437 38.599 77.7859 38.8947C77.7015 39.0637 77.6382 39.2432 77.4166 39.2643C77.4799 39.5811 77.2689 39.6234 77.0367 39.6445C76.9418 39.8029 76.678 39.7923 76.6568 40.0247C76.4986 40.1197 76.4775 40.3732 76.2664 40.4154C76.0765 40.4893 75.8865 40.5527 75.8654 40.7956C75.8654 41.049 75.5489 40.9962 75.475 41.1757C75.169 41.1124 75.2745 41.482 75.0846 41.5454C74.979 41.6826 74.7258 41.6826 74.7047 41.9044C74.6203 42.0628 74.5253 42.2107 74.3248 42.2529C74.4831 42.6542 74.0188 42.4113 73.9555 42.5908C73.7233 42.5908 73.7339 42.8337 73.5967 42.9182C73.5334 43.0872 73.2379 43.0132 73.2485 43.235C73.1113 43.3195 73.1218 43.5413 72.9002 43.5307C72.9319 43.7736 72.5731 43.6152 72.5626 43.8158C72.4571 43.9109 72.3726 44.027 72.246 44.0904C71.9294 43.9637 72.0139 44.2382 71.9294 44.3544C71.8134 44.4178 71.8661 44.6607 71.634 44.5973C71.5285 44.6607 71.3385 44.6501 71.3491 44.8296C71.2963 44.9458 70.8637 44.6712 71.0747 45.0408C71.0431 45.1675 70.6948 44.9669 70.8215 45.2415C70.927 45.4949 70.6526 45.3576 70.5788 45.421C70.5049 45.4738 70.4205 45.5266 70.3466 45.5794C69.6924 46.0335 69.2597 46.2341 69.1437 46.118C69.017 45.9807 69.2914 45.4738 69.8718 44.7029C69.9351 44.629 69.8507 44.3966 70.0511 44.46C70.125 44.3861 70.0828 44.196 70.2516 44.2066C70.125 43.9214 70.3783 44.0059 70.4732 43.9425C70.5471 43.8475 70.6948 43.8369 70.7054 43.6574C70.6737 43.4462 70.9481 43.5413 70.9586 43.3617C71.1802 43.3934 71.2435 43.2667 71.2224 43.0555C71.444 43.0872 71.3913 42.8337 71.5074 42.7387C71.7923 42.8232 71.7712 42.5908 71.8028 42.4113C71.845 42.2423 72.0455 42.2318 72.1088 42.0734C72.2566 41.9995 72.2882 41.8094 72.436 41.7249C72.4676 41.5242 72.5415 41.3764 72.7736 41.3658C72.8264 41.1863 72.9952 41.1229 73.1218 41.0068C73.1641 40.8167 73.3751 40.7745 73.4806 40.6372C73.565 40.4788 73.9238 40.5949 73.85 40.257C73.9449 40.1092 74.1349 40.0458 74.2298 39.8768C74.3881 39.7818 74.5358 39.6762 74.6203 39.4967C74.9474 39.5706 74.9579 39.3171 75.0107 39.1059C75.0846 38.9158 75.2428 38.8208 75.4117 38.7258C75.5172 38.5779 75.6649 38.4617 75.8021 38.3456C75.8654 38.1555 76.1503 38.1872 76.1925 37.976C76.2348 37.7648 76.5302 37.8281 76.5724 37.6169C76.6357 37.4374 76.7307 37.2895 76.9523 37.2684C77.0684 37.1523 77.3744 37.2262 77.3216 36.9305C77.3955 36.7721 77.29 36.4236 77.6804 36.6031C77.7226 36.4236 78.0392 36.5186 78.0286 36.2863C78.3452 36.3919 78.2608 36.0857 78.3769 35.9906C78.5246 35.9273 78.6934 35.8956 78.7145 35.7055C78.7145 35.5049 78.9678 35.5577 79.0416 35.4309C79.0205 35.2092 79.3899 35.3993 79.3477 35.1669C79.4637 35.1036 79.5165 34.9663 79.6431 34.924C79.4532 34.5544 79.8225 34.7551 79.928 34.6917C80.0547 34.6495 79.9069 34.3432 80.2024 34.4805C80.0758 34.1848 80.329 34.301 80.4556 34.2799C80.5928 34.2799 80.5084 34.0475 80.6983 34.1003C80.6139 33.8786 80.9094 34.0581 80.9199 33.9419C81.0782 33.9842 81.0466 33.8258 81.131 33.8046C81.1521 33.7202 81.2154 33.6779 81.3209 33.6885C81.3842 33.6462 81.437 33.6146 81.5003 33.5829C81.8274 33.3928 82.049 33.3294 82.1229 33.4139H82.1123Z" fill="#0061EF"/>
<path d="M63.732 46.2131C63.6581 46.2976 63.4787 46.2765 63.2044 46.1709C63.1622 46.1498 63.1094 46.1287 63.0567 46.1075C62.9933 46.097 62.9406 46.0759 62.8984 46.0336C62.9511 45.8858 62.624 46.1603 62.7295 45.9386C62.7295 45.8435 62.6346 45.8435 62.5502 45.833C62.4657 45.833 62.4974 45.664 62.3497 45.7168C62.0964 45.8752 62.4446 45.3789 62.1386 45.5901C62.0225 45.5901 61.9698 45.5162 61.917 45.4422C62.0014 45.2205 61.7798 45.3261 61.6849 45.2838C61.7904 45.0198 61.6427 45.0515 61.4422 45.1149C61.611 44.7769 61.4949 44.7558 61.1995 44.9353C61.115 44.872 61.1256 44.703 60.9462 44.7453C60.8512 44.6925 60.7246 44.6713 60.6824 44.5446C60.4397 44.6502 60.3553 44.5657 60.408 44.3334C60.1442 44.4496 60.1337 44.2912 60.1337 44.1116C60.1337 43.9216 59.8066 44.1116 59.8488 43.8793C59.7644 43.7843 59.6272 43.7632 59.5533 43.647C59.5322 43.478 59.5111 43.3091 59.2579 43.4041C59.1207 43.3619 58.9624 43.3407 58.9624 43.1507C58.6775 43.2668 58.6564 43.0873 58.6564 42.8866C58.5297 42.8338 58.5509 42.591 58.3504 42.6226C58.2765 42.4959 58.0654 42.5276 58.0338 42.3481C57.981 42.1897 57.9388 42.0418 57.7278 42.0735C57.5062 42.1157 57.5695 41.8412 57.4218 41.7989C57.4956 41.5138 57.1685 41.6828 57.1263 41.5244C57.0102 41.461 57.0313 41.2392 56.8414 41.2498C56.7148 41.197 56.5881 41.1548 56.567 40.9858C56.2083 41.197 56.451 40.7429 56.2927 40.7218C56.3138 40.5106 56.0922 40.5739 56.0394 40.4683C55.9022 40.4472 55.9867 40.1726 55.7862 40.2149C55.7229 40.1093 55.5329 40.1621 55.5435 39.972C55.3324 40.0459 55.4907 39.6974 55.3113 39.7291C55.2269 39.6552 55.1425 39.5918 55.0897 39.4968C55.2163 39.1905 54.9736 39.3173 54.8892 39.275C54.8365 39.18 54.6254 39.275 54.6993 39.0532C54.6465 38.9688 54.6676 38.8104 54.5199 38.842C54.4249 38.8209 54.6887 38.3879 54.3511 38.6414C54.2455 38.6414 54.446 38.2929 54.2033 38.4513C53.9712 38.5886 54.1084 38.3246 54.0662 38.2718C54.0239 38.2084 53.9817 38.1556 53.9395 38.1028C53.5913 37.6065 53.4436 37.2686 53.5491 37.1418C53.6757 37.0045 54.0978 37.1418 54.7309 37.522C54.7943 37.5537 54.9948 37.4481 54.9314 37.6382C54.9842 37.691 55.1636 37.617 55.1425 37.7649C55.3957 37.6065 55.3008 37.8388 55.3641 37.9127C55.4379 37.9655 55.4485 38.0923 55.5962 38.0711C55.7756 38.0078 55.6806 38.2612 55.8389 38.2401C55.7967 38.4407 55.9022 38.4724 56.0816 38.4196C56.0394 38.6203 56.261 38.5358 56.3349 38.6097C56.2399 38.8843 56.4404 38.8104 56.5987 38.8104C56.7464 38.8104 56.7359 38.9899 56.873 39.0216C56.9258 39.1377 57.0946 39.1272 57.1474 39.2433C57.3162 39.2328 57.4429 39.275 57.4323 39.4651C57.58 39.4862 57.6328 39.6235 57.7278 39.6974C57.8966 39.6974 57.9072 39.877 58.0232 39.9403C58.1604 39.9826 58.0232 40.3205 58.3187 40.1938C58.4453 40.2571 58.4875 40.405 58.6247 40.4578C58.6986 40.5739 58.7725 40.6901 58.9307 40.7218C58.8358 41.028 59.0574 40.9858 59.2367 40.9963C59.395 41.028 59.4689 41.1548 59.5428 41.2709C59.6694 41.3448 59.7538 41.4399 59.8488 41.5455C60.0071 41.5666 59.9649 41.8201 60.1442 41.8201C60.3236 41.8201 60.2498 42.0946 60.4292 42.0841C60.5874 42.1052 60.7035 42.158 60.7035 42.3481C60.7985 42.4326 60.7141 42.7071 60.9673 42.6121C61.0939 42.6543 61.4 42.4854 61.2206 42.8655C61.3789 42.8655 61.2733 43.1718 61.4738 43.119C61.3683 43.4147 61.6321 43.2879 61.7165 43.3619C61.7587 43.478 61.7798 43.6259 61.9381 43.6047C62.1175 43.5731 62.0436 43.8054 62.1597 43.8371C62.3497 43.7737 62.1597 44.1433 62.3602 44.0588C62.413 44.1539 62.5185 44.1644 62.5502 44.2806C62.8878 44.0483 62.6873 44.4073 62.7295 44.4918C62.7612 44.5974 63.0356 44.4073 62.8984 44.6925C63.1622 44.5235 63.0461 44.7664 63.0461 44.8825C63.0461 44.9987 63.2466 44.8825 63.1833 45.0621C63.3732 44.9565 63.2149 45.2416 63.3099 45.231C63.2677 45.3789 63.4049 45.3261 63.4154 45.3894C63.4893 45.3894 63.521 45.4422 63.5104 45.5373C63.5421 45.5901 63.5632 45.6323 63.5843 45.6746C63.7214 45.928 63.7637 46.1075 63.6898 46.192L63.732 46.2131Z" fill="#0061EF"/>
<path d="M48.4174 37.5538C48.5018 37.6277 48.4701 37.8389 48.3224 38.1663C48.3013 38.2191 48.2696 38.2824 48.238 38.3458C48.2169 38.4197 48.1958 38.4936 48.143 38.5359C47.9847 38.4936 48.2591 38.8316 48.0269 38.7471C47.9214 38.7682 47.9109 38.8738 47.9003 38.9794C47.8792 39.085 47.7104 39.0639 47.7526 39.2223C47.9109 39.4758 47.3832 39.1695 47.5943 39.4863C47.5943 39.613 47.4993 39.687 47.4149 39.7609C47.1722 39.7081 47.2672 39.9299 47.225 40.046C46.9506 39.9721 46.9612 40.1411 47.0139 40.3523C46.6551 40.215 46.6129 40.3523 46.7923 40.6691C46.7185 40.7747 46.5285 40.7852 46.5602 40.9964C46.4863 41.1126 46.4547 41.271 46.3175 41.3344C46.4124 41.5984 46.3175 41.704 46.0642 41.6829C46.1697 41.9574 46.0009 42.0102 45.8004 42.0419C45.5894 42.063 45.7793 42.4221 45.5261 42.4115C45.41 42.5171 45.3678 42.6861 45.2411 42.7811C45.0618 42.8339 44.8613 42.8867 44.9457 43.1613C44.8929 43.3303 44.8507 43.5098 44.6397 43.552C44.7452 43.8583 44.5447 43.9111 44.3231 43.9428C44.2492 44.1012 43.9854 44.1117 43.996 44.3441C43.8483 44.4497 43.8694 44.6926 43.6689 44.7454C43.4895 44.8298 43.3206 44.9143 43.3312 45.1466C43.3523 45.3895 43.0568 45.3684 43.0041 45.5374C42.6981 45.5057 42.8563 45.8542 42.677 45.9176C42.5925 46.0654 42.3498 46.076 42.3498 46.2872C42.2865 46.4456 42.2232 46.604 42.0333 46.6462C42.2338 47.0264 41.7484 46.8257 41.7167 47.0053C41.4846 47.0158 41.5373 47.2587 41.4107 47.3432C41.3685 47.5122 41.073 47.4594 41.1047 47.6706C40.9886 47.7656 41.0203 47.9768 40.8092 47.9874C40.8725 48.2197 40.5032 48.093 40.5243 48.2936C40.4399 48.3992 40.366 48.5048 40.2499 48.5788C39.9228 48.4837 40.0494 48.7477 39.9861 48.8533C39.8806 48.9272 39.965 49.1596 39.7223 49.1173C39.6274 49.1913 39.448 49.1913 39.4691 49.3602C39.4374 49.4764 38.9837 49.2441 39.2264 49.582C39.2264 49.7087 38.8465 49.5397 39.0048 49.7932C39.142 50.0361 38.857 49.9199 38.7937 49.9833C38.7199 50.0466 38.6566 50.0994 38.5932 50.1522C38.0129 50.638 37.6224 50.8703 37.4958 50.7647C37.3481 50.6486 37.5591 50.1311 38.0234 49.3391C38.0656 49.2546 37.9601 49.0434 38.1711 49.0962C38.2345 49.0223 38.1712 48.8428 38.3294 48.8322C38.1712 48.5682 38.4244 48.6316 38.5088 48.5576C38.5721 48.4626 38.7199 48.4309 38.6988 48.2725C38.646 48.0719 38.9204 48.1458 38.9098 47.9663C39.1209 47.9874 39.1736 47.8606 39.1314 47.6494C39.353 47.6494 39.2686 47.4171 39.3636 47.3221C39.659 47.3854 39.5957 47.1637 39.6063 46.9841C39.6168 46.8152 39.8173 46.7941 39.8595 46.6357C39.9967 46.5617 39.9967 46.3611 40.1233 46.2766C40.1233 46.076 40.1866 45.9281 40.3977 45.907C40.4293 45.7275 40.5876 45.6535 40.6826 45.5374C40.7037 45.3473 40.8936 45.2945 40.978 45.1572C41.0414 44.9988 41.4107 45.0833 41.2841 44.7665C41.3579 44.6081 41.5373 44.5342 41.6006 44.3757C41.7378 44.2701 41.875 44.1645 41.9277 43.9745C42.2654 44.0273 42.2338 43.7738 42.2654 43.5732C42.3076 43.3831 42.4554 43.2775 42.6031 43.1719C42.6875 43.024 42.8141 42.8973 42.9408 42.7811C42.983 42.5911 43.2468 42.6016 43.2679 42.401C43.2784 42.1898 43.5844 42.232 43.595 42.0314C43.6372 41.8518 43.7005 41.6934 43.9116 41.6617C44.0171 41.535 44.3126 41.5878 44.2281 41.3133C44.2809 41.1548 44.1332 40.8275 44.5341 40.9753C44.5553 40.7958 44.8718 40.8697 44.8402 40.648C45.1567 40.7219 45.0407 40.4367 45.1356 40.3311C45.2728 40.2572 45.4311 40.215 45.4205 40.0249C45.3994 39.8348 45.6527 39.8665 45.6949 39.7398C45.6421 39.5286 46.0326 39.687 45.9587 39.4652C46.0642 39.3913 46.0959 39.2646 46.2225 39.2117C45.9904 38.8633 46.3702 39.0322 46.4758 38.9689C46.5918 38.9161 46.4124 38.6309 46.7079 38.7471C46.5391 38.4725 46.8134 38.5676 46.9295 38.5359C47.0561 38.5148 46.9506 38.3036 47.1405 38.3458C47.035 38.1346 47.341 38.2824 47.341 38.1768C47.4993 38.198 47.4466 38.0607 47.531 38.0184C47.531 37.934 47.5943 37.8917 47.6998 37.8811C47.7526 37.8389 47.8053 37.7967 47.8581 37.765C48.1536 37.5643 48.3541 37.4799 48.449 37.5538H48.4174Z" fill="#0061EF"/>
</g>
<defs>
<clipPath id="clip0_4159_26029">
<rect width="90" height="85" fill="white" transform="translate(15 16)"/>
</clipPath>
</defs>
</svg>
