<svg width="91" height="93" viewBox="0 0 91 93" fill="none" xmlns="http://www.w3.org/2000/svg">
<circle cx="45.5" cy="45.5" r="45.5" fill="#EFFFE2"/>
<g clip-path="url(#clip0_4159_26031)">
<path d="M79.8799 57.2661C79.83 57.2661 79.7601 56.6582 79.6803 55.5023C79.5406 54.3564 79.401 52.6424 78.9121 50.5C78.8821 50.3206 78.8322 50.1413 78.7824 49.9519C78.7325 49.7626 78.6926 49.5832 78.6427 49.3839C78.5429 49.0053 78.4531 48.6067 78.3234 48.2081C78.1937 47.8095 78.064 47.391 77.9343 46.9625C77.7846 46.5439 77.625 46.1055 77.4853 45.6571C77.4454 45.4179 77.3655 45.1987 77.2558 44.9795C77.156 44.7602 77.0363 44.541 76.9166 44.3218C76.6971 43.8734 76.4277 43.4349 76.3179 42.9167C76.2181 42.6776 76.1283 42.4285 76.0086 42.1893C75.8889 41.9502 75.7592 41.711 75.6295 41.4718C75.4997 41.2327 75.37 40.9836 75.2204 40.7444C75.0707 40.5053 74.9211 40.2661 74.7614 40.0269C74.6018 39.7878 74.4721 39.5287 74.3124 39.2896C74.1628 39.0404 74.0031 38.7913 73.8535 38.5322C73.5541 38.0141 73.1949 37.5258 72.7859 37.0674C72.6661 36.9578 72.5564 36.8482 72.4666 36.7286C72.3668 36.609 72.267 36.4894 72.1673 36.3699C71.9777 36.1207 71.818 35.8417 71.6484 35.5727C71.4788 35.2937 71.2793 35.0445 71.0697 34.7854C70.8602 34.5363 70.6207 34.3071 70.3414 34.1178C69.3835 33.211 68.4456 32.2145 67.378 31.2978C67.2583 31.1582 67.1386 31.0287 67.0189 30.9091L66.8293 30.7198C66.7594 30.66 66.6896 30.6002 66.6297 30.5504C66.3504 30.3212 66.061 30.102 65.7717 29.8927C65.4823 29.6735 65.163 29.4941 64.8537 29.2948C64.6941 29.1952 64.5444 29.0955 64.3848 28.9959C64.2252 28.8962 64.0755 28.7966 63.9159 28.6969C63.3571 28.1887 62.7485 27.7403 62.06 27.3816C61.3915 27.0029 60.6632 26.7239 59.9248 26.4449C59.6155 26.1858 59.2763 25.9865 58.9271 25.7772C58.7575 25.6776 58.5779 25.5879 58.3983 25.4883C58.2187 25.3986 58.0291 25.3288 57.8395 25.2591C57.4604 25.1196 57.0813 24.99 56.6822 24.8904C56.2831 24.8007 55.874 24.7309 55.4649 24.6811C55.0758 24.5416 54.6767 24.442 54.2876 24.3124C53.8885 24.1928 53.4993 24.0533 53.0902 23.9636C52.6812 23.864 52.2721 23.7643 51.863 23.6846C51.444 23.6149 51.0249 23.565 50.5959 23.5252C50.1768 23.4455 49.7478 23.4056 49.3187 23.3658C48.8897 23.3259 48.4607 23.2561 48.0316 23.2462C47.6026 23.2163 47.1636 23.1864 46.7246 23.1565C46.2856 23.1366 45.8466 23.1266 45.4076 23.0967C44.9686 23.1465 44.5196 23.1864 44.0806 23.2362C43.6316 23.2761 43.1926 23.286 42.7436 23.3359C42.2946 23.3757 41.8456 23.3956 41.3966 23.4056C40.9476 23.4355 40.4886 23.4554 40.0297 23.4654C38.2537 23.9836 36.4478 24.2825 34.6019 24.721C34.1429 24.8405 33.694 24.99 33.245 25.1495C32.806 25.3288 32.3669 25.5281 31.9279 25.7274L31.5987 25.8769L31.2794 26.0363C31.0599 26.1459 30.8504 26.2456 30.6309 26.3452C30.1919 26.5346 29.7528 26.7538 29.3039 26.9232C27.5678 27.8001 25.9315 28.9062 24.3151 30.0721C22.6588 31.1881 21.0624 32.4836 19.8452 34.1377C18.5082 35.6823 17.3209 37.3564 16.0836 39.0404C15.1956 40.9337 14.138 42.7274 13.2201 44.6506C12.4718 46.6237 11.6836 48.6465 11.4142 50.7989C10.9652 52.9115 10.9153 55.0938 10.7956 57.2761C10.7157 59.4683 10.8554 61.6706 11.4142 63.7532C11.7035 64.7896 11.933 65.8359 12.2124 66.8722C12.3321 67.3904 12.5017 67.8986 12.6614 68.4068C12.7412 68.6559 12.811 68.915 12.9208 69.1641C13.0205 69.4132 13.1203 69.6624 13.2301 69.9015C13.2999 70.1606 13.3698 70.4197 13.4596 70.6688C13.5494 70.9179 13.6591 71.1571 13.7589 71.4062C13.8686 71.6454 13.9784 71.8845 14.0881 72.1237L14.4673 72.8112L14.8564 73.4988C14.9961 73.718 15.1358 73.9472 15.2755 74.1665C15.5449 74.6149 15.8143 75.0633 16.0836 75.5117C17.2111 77.2456 18.3585 78.9994 19.8452 80.4144C21.262 81.8792 22.7885 83.2046 24.3151 84.4801C25.233 84.9185 26.0212 85.5064 26.8195 86.0744C27.2086 86.3734 27.6177 86.6424 28.0267 86.9115C28.2363 87.041 28.4358 87.1805 28.6453 87.3001C28.8549 87.4197 29.0744 87.5293 29.3039 87.6289C29.7129 87.888 30.132 88.1272 30.581 88.3265C30.8005 88.4261 31.02 88.5258 31.2395 88.6254L31.5687 88.7749L31.908 88.9044C32.357 89.0639 32.806 89.2333 33.2549 89.3927C33.7139 89.5322 34.1629 89.6817 34.6019 89.8511C35.5198 90.0803 36.4078 90.3892 37.3058 90.6184C37.5353 90.6782 37.7548 90.738 37.9843 90.7978C38.2138 90.8476 38.4433 90.8874 38.6628 90.9273C38.8922 90.9672 39.1217 91.007 39.3412 91.0369L39.6805 91.0768C39.8002 91.0768 39.91 91.0867 40.0197 91.0967C40.4687 91.1665 40.9277 91.2163 41.3766 91.2661C41.8256 91.296 42.2846 91.3159 42.7336 91.3458C43.1826 91.3857 43.6316 91.3757 44.0806 91.3957C44.5295 91.4156 44.9686 91.4455 45.4175 91.4654C45.8566 91.4056 46.2956 91.3857 46.7346 91.3757C47.1736 91.3458 47.6026 91.3359 48.0416 91.3259C48.4806 91.3259 48.9097 91.2761 49.3387 91.2362C49.7677 91.1964 50.1968 91.1465 50.6059 91.0269C51.0249 90.9472 51.444 90.8775 51.853 90.7978C52.2621 90.7081 52.6712 90.6084 53.0803 90.5187C53.4893 90.439 53.8885 90.3095 54.2876 90.1999C54.6866 90.0903 55.0858 90.0006 55.4749 89.871C55.884 89.8112 56.2831 89.7216 56.6822 89.602C57.0713 89.4724 57.4404 89.323 57.8096 89.1635C57.9892 89.0838 58.1788 89.0041 58.3584 88.9144C58.538 88.8247 58.7076 88.735 58.8872 88.6354C59.2364 88.456 59.5956 88.2767 59.9348 88.0973C60.6333 87.7585 61.3117 87.3798 61.9503 86.9713C62.6088 86.5826 63.2274 86.1741 63.9159 85.8552C65.1531 85.0381 66.4102 84.2808 67.388 83.2544C67.6474 83.0152 67.9268 82.8159 68.2062 82.5967C68.4856 82.3874 68.7549 82.1682 69.0343 81.959C69.3137 81.7497 69.5631 81.5205 69.7826 81.2614C70.0021 81.0123 70.2017 80.7333 70.3613 80.4244C70.5709 80.1653 70.7904 79.9261 71.0198 79.6969C71.2493 79.4578 71.4888 79.2485 71.7083 79.0094C71.9278 78.7702 72.1373 78.541 72.3269 78.2819C72.4267 78.1524 72.5165 78.0328 72.5963 77.8933C72.6761 77.7538 72.746 77.6143 72.8058 77.4748C73.0553 76.8968 73.4244 76.4185 73.7637 75.9402C73.9433 75.701 74.1228 75.4719 74.3024 75.2327C74.482 75.0035 74.6317 74.7544 74.7814 74.5152C74.931 74.2661 75.0707 74.0269 75.2104 73.7878C75.3501 73.5486 75.4698 73.2995 75.5995 73.0604C75.7292 72.8212 75.8589 72.5821 75.9787 72.3429C76.0984 72.1037 76.2082 71.8646 76.3179 71.6254C77.3256 69.5029 78.0141 67.5 78.503 65.7362C78.6127 65.2878 78.7225 64.8593 78.8322 64.4507C78.932 64.0422 79.0019 63.6336 79.0817 63.255C79.2513 62.4976 79.3311 61.7901 79.4409 61.1624C79.6105 59.9068 79.7103 58.9302 79.7502 58.2726C79.8001 57.6149 79.8499 57.2761 79.8998 57.2761C79.9397 57.2761 79.9797 57.6946 79.9996 58.5117C79.9996 58.721 80.0196 58.9502 79.9996 59.1993C79.9896 59.4484 79.9797 59.7274 79.9697 60.0264C79.9597 60.3253 79.9497 60.6541 79.9198 61.0029C79.8799 61.3517 79.8499 61.7204 79.81 62.109C79.6304 63.6735 79.3112 65.6067 78.6726 67.7989C78.034 69.9912 77.0562 72.4425 75.6095 75.0035C75.4598 75.2526 75.3401 75.5316 75.1904 75.7907C75.0408 76.0498 74.8911 76.3189 74.7415 76.5879C74.4521 77.126 74.0829 77.6342 73.6339 78.1026C73.5442 78.2321 73.4544 78.3617 73.3646 78.5012C73.2748 78.6307 73.175 78.7602 73.0752 78.8898C72.8856 79.1489 72.6961 79.4179 72.5065 79.687C72.3169 79.956 72.0974 80.2051 71.8779 80.4642C71.6584 80.7134 71.4289 80.9625 71.1795 81.2016C70.4511 82.3874 69.2838 83.2444 68.1663 84.1712C67.0787 85.1477 65.8216 85.9648 64.6143 86.9214C64.0057 87.3997 63.3471 87.8183 62.6387 88.177C61.9403 88.5656 61.2119 88.8845 60.5135 89.303C60.1344 89.4425 59.7453 89.582 59.3661 89.7315C59.1765 89.8112 58.987 89.891 58.7974 89.9707C58.6078 90.0504 58.4182 90.1201 58.2187 90.1999C57.8296 90.3593 57.4504 90.5287 57.0713 90.6981C56.6822 90.8575 56.293 91.017 55.9039 91.1964C55.4849 91.306 55.0658 91.3857 54.6567 91.5053C54.2377 91.6149 53.8286 91.7544 53.4095 91.864C52.9905 91.9736 52.5714 92.0932 52.1424 92.2028C51.7134 92.3024 51.2743 92.3822 50.8453 92.4619C50.3963 92.4818 49.9473 92.5017 49.5083 92.5416C49.0593 92.5715 48.6203 92.6512 48.1713 92.6911C47.7223 92.7409 47.2734 92.8007 46.8144 92.8605C46.3554 92.9103 45.9064 92.9402 45.4375 92.9801C44.9785 93.0299 44.5096 93.0199 44.0406 93.0099C43.5717 93 43.1028 93 42.6338 92.9402C42.1649 92.9003 41.6959 92.8605 41.217 92.8107C40.7481 92.7509 40.2691 92.6911 39.8002 92.6512C37.9144 92.3224 35.9788 92.0135 34.103 91.3857C32.1774 90.9074 30.2816 90.17 28.5356 89.1037C26.6798 88.2468 24.9537 87.0908 23.2874 85.8253C21.5513 84.6495 20.0447 83.1348 18.578 81.5803C17.8397 80.813 17.1812 79.9461 16.5626 79.0692C16.2333 78.6407 15.944 78.1823 15.6147 77.7438C15.2854 77.3153 14.9662 76.8669 14.6169 76.4484C13.4097 74.6149 12.4718 72.6119 11.5938 70.5592C10.7956 68.4765 10.1969 66.3042 9.68806 64.092C9.53839 61.82 9.14927 59.5879 9.02954 57.2761C8.94972 54.9742 9.21911 52.6823 9.68806 50.4601C10.0872 48.228 10.7457 46.0557 11.5938 43.993C12.3521 41.8804 13.5394 40.007 14.6169 38.1037C14.8863 37.6254 15.1657 37.1571 15.495 36.7286C15.8143 36.2901 16.1335 35.8517 16.4927 35.4431C17.1812 34.6061 17.8996 33.8089 18.578 32.9818C19.9749 31.3575 21.5314 29.8828 23.2874 28.7368C24.1255 28.109 25.0135 27.5709 25.9015 27.0527C26.3405 26.7837 26.7895 26.5445 27.2285 26.2755C27.448 26.1459 27.6675 26.0064 27.8771 25.8669C28.0966 25.7374 28.3161 25.5979 28.5256 25.4584C28.9746 25.2092 29.4136 24.9502 29.8626 24.721C30.0921 24.6014 30.3116 24.4818 30.5311 24.3622L30.8703 24.1928C30.9901 24.143 31.0998 24.0832 31.2195 24.0334C31.6785 23.8341 32.1474 23.6348 32.6264 23.4853C33.1053 23.3458 33.6042 23.2362 34.103 23.1764C35.0309 22.8476 35.9888 22.6184 36.9566 22.449C37.1961 22.3992 37.4355 22.3593 37.675 22.3095C37.9144 22.2696 38.1539 22.2298 38.3934 22.1899C38.6328 22.15 38.8723 22.1002 39.1018 22.0504L39.451 21.9707L39.8002 21.9009C40.2891 21.9009 40.758 21.891 41.237 21.8411C41.7159 21.8212 42.1749 21.7813 42.6438 21.7216C43.1127 21.6618 43.5717 21.6418 44.0406 21.602C44.4996 21.5721 44.9686 21.5422 45.4275 21.5621C45.8865 21.592 46.3454 21.6119 46.8044 21.6418C47.2634 21.6917 47.7124 21.7415 48.1614 21.7813C48.6103 21.8112 49.0593 21.891 49.5083 21.9308C49.9573 21.9806 50.3963 22.0105 50.8453 22.0703C51.2843 22.1201 51.7233 22.1799 52.1623 22.2597C52.5914 22.3593 53.0204 22.4689 53.4395 22.5785C53.8685 22.6782 54.2676 22.8277 54.6867 22.9572C55.0957 23.0867 55.5148 23.1963 55.9139 23.3359C56.3329 23.4355 56.732 23.565 57.1311 23.7046C57.5203 23.864 57.8994 24.0434 58.2786 24.2227C58.4681 24.3124 58.6577 24.3921 58.8473 24.4818C59.0269 24.5715 59.2164 24.6711 59.406 24.7608C59.7752 24.9402 60.1543 25.0897 60.5435 25.2292C61.2618 25.6178 61.9802 25.9666 62.6587 26.3652C63.3571 26.7438 64.0056 27.1723 64.6442 27.6108C64.8338 27.6706 65.0134 27.7503 65.183 27.84C65.3526 27.9296 65.5222 28.0293 65.6819 28.1289C66.0012 28.3382 66.3105 28.5574 66.5898 28.8165C66.8692 29.0656 67.1386 29.3347 67.408 29.5838L67.6075 29.7731L67.7971 29.9724C67.9268 30.102 68.0565 30.2315 68.1962 30.3511C69.2638 31.3277 70.4811 32.1248 71.2094 33.3206C71.4888 33.5299 71.7382 33.7591 71.9777 34.0082C72.2072 34.2573 72.4366 34.4965 72.6162 34.7755C72.8058 35.0445 72.9854 35.3235 73.165 35.5926C73.2548 35.7321 73.3446 35.8616 73.4244 36.0012C73.5042 36.1407 73.594 36.2802 73.6739 36.4097C74.0031 36.9478 74.4022 37.4361 74.7415 37.9443C74.9111 38.1934 75.0907 38.4425 75.2403 38.7016C75.4 38.9607 75.5197 39.2298 75.6394 39.4988C75.829 39.728 75.9886 39.9672 76.1383 40.2163C76.278 40.4654 76.3877 40.7345 76.4975 40.9935C76.6073 41.2526 76.707 41.5117 76.8168 41.7608C76.9265 42.01 77.0263 42.269 77.156 42.5082C77.3157 43.0264 77.5352 43.4947 77.7247 43.973C77.8245 44.2122 77.9243 44.4414 78.0141 44.6706C78.1139 44.8997 78.2037 45.1289 78.2635 45.3581C78.4431 45.8066 78.6028 46.255 78.7424 46.6934C78.8622 47.1319 78.9619 47.5703 79.0418 47.9888C79.1615 48.3974 79.2313 48.8159 79.3211 49.2046C79.3611 49.4039 79.401 49.5932 79.4409 49.7825C79.4808 49.9718 79.5207 50.1612 79.5506 50.3405C79.9597 52.5527 79.9996 54.2866 80.0295 55.4525C80.0096 56.6184 79.9697 57.2262 79.9198 57.2262L79.8799 57.2661Z" fill="#0061EF"/>
<path d="M38.214 44.1723C38.2639 44.1723 38.3238 44.3217 38.3537 44.6107C38.3837 44.8997 38.3837 45.3282 38.2939 45.8762C38.2639 46.0556 38.224 46.2549 38.1741 46.4542C38.1342 46.6635 38.0843 46.8927 37.9845 47.1019C37.765 47.2614 38.0344 47.66 37.7152 47.8094C37.5455 48.0187 37.4657 48.2877 37.3659 48.5568C37.2662 48.8358 36.9968 49.0152 36.9469 49.344C37.0167 49.7625 36.3482 49.6928 36.448 50.1611C36.3183 50.48 36.0988 50.7391 35.8693 51.0081C35.4902 51.1576 35.4303 51.5662 35.2208 51.8751C34.7917 51.9946 34.6221 52.3534 34.5024 52.752C33.9836 52.8118 33.7641 53.1306 33.7242 53.6488C33.4548 53.9577 33.0756 54.157 32.896 54.5656C32.6166 54.8845 32.3672 55.2332 32.018 55.5023C31.9482 55.7414 31.8384 55.9308 31.6788 56.0902C31.6588 56.1101 31.6389 56.1301 31.6189 56.15L31.5191 56.2397C31.4393 56.3094 31.3595 56.3792 31.2797 56.439C31.12 56.5685 30.9604 56.6781 30.8007 56.7578C30.681 56.9671 30.5413 57.1664 30.3917 57.3458L30.2819 57.4753L30.222 57.5351C30.222 57.5351 30.1821 57.5052 30.1722 57.4952C30.1023 57.4255 30.0325 57.3557 29.9626 57.286C29.6833 56.987 29.4139 56.6283 29.1844 56.2995C29.0746 56.1301 28.9349 55.9905 28.8052 55.871C28.7154 55.7913 28.6157 55.7315 28.5159 55.6617C28.3163 55.5222 28.1268 55.3827 28.027 55.1435C27.7077 54.7848 27.3186 54.4859 27.0093 54.0972C26.7499 53.6687 26.4905 53.2203 25.9816 52.9911C25.5925 52.6523 25.1934 52.3135 24.9639 51.8153C24.4251 51.5761 24.1757 51.0779 23.9761 50.5597C23.6169 50.1512 23.4673 49.5931 23.0482 49.1945C22.7988 48.6963 22.3797 48.2678 22.24 47.6898C22.0704 47.1219 21.9507 46.5638 21.6514 46.0357C21.4917 45.7666 21.4518 45.4677 21.4418 45.1687C21.4418 44.8698 21.4618 44.5709 21.4219 44.2719C21.5416 43.963 21.5516 43.6641 21.5715 43.3551C21.5815 43.0462 21.6114 42.7174 21.7711 42.4483C21.8709 42.1594 22.0505 41.8903 22.2301 41.6512C22.4096 41.402 22.5992 41.1728 22.7589 40.9038C23.138 40.4354 23.6269 40.0169 24.2156 39.8675C24.4052 39.5685 24.7145 39.4788 25.0138 39.4689C25.3231 39.4589 25.6224 39.5087 25.8918 39.439C26.0415 39.4689 26.1812 39.4788 26.3208 39.4888C26.4505 39.4888 26.5902 39.4888 26.7199 39.4888C26.9893 39.4888 27.2687 39.4888 27.5481 39.5785C27.8274 39.6084 28.0968 39.7479 28.3363 39.8973C28.5758 40.0468 28.7953 40.2162 29.0647 40.3159C29.2742 40.4952 29.4937 40.6547 29.6833 40.844C29.7731 40.9337 29.8629 41.0333 29.9327 41.133C29.9726 41.1828 30.0025 41.2426 30.0325 41.2924L30.0524 41.3323C30.0524 41.3323 30.0524 41.3422 30.0524 41.3522V41.3921C30.1422 41.3721 30.1322 41.412 30.1422 41.5216C30.1422 41.6213 30.1722 41.7807 30.2121 41.7209C30.2121 41.7408 30.232 41.7608 30.242 41.7807C30.2819 41.691 30.3218 41.6113 30.3917 41.5714C30.4914 41.6811 30.5713 41.5914 30.6012 41.5017V41.4618L30.6511 41.3921L30.7309 41.2426C30.7808 41.143 30.8406 41.0533 30.9105 40.9636C31.0701 40.8141 31.1998 40.6248 31.3495 40.4653C31.5091 40.3059 31.6987 40.1764 31.9382 40.1465C32.1277 40.0468 32.3473 39.987 32.5468 39.9372C32.7464 39.8874 32.9359 39.8276 33.1155 39.7279C33.3051 39.6582 33.5146 39.7479 33.7042 39.7877C33.8938 39.8376 34.0634 39.8475 34.233 39.6482C34.4126 39.6084 34.6022 39.6981 34.7618 39.7678C34.9314 39.8376 35.0811 39.8973 35.2806 39.8077C35.4802 39.7279 35.6498 39.7877 35.7895 39.8774C35.9292 39.9671 36.0489 40.1066 36.1886 40.1764C36.458 40.3258 36.7074 40.4952 36.917 40.6846C37.3959 41.1031 37.7251 41.5615 37.9446 41.99C38.1641 42.4185 38.2639 42.817 38.3138 43.1359C38.4036 43.7836 38.3138 44.1224 38.234 44.1224C38.1342 44.1224 38.0743 43.7238 37.775 43.0761C37.6254 42.7573 37.4059 42.3786 37.0766 42.0099C36.7473 41.6412 36.3083 41.2825 35.7496 41.0533C35.6398 41.0034 35.5001 41.0034 35.3804 40.9935C35.2507 40.9835 35.141 40.9536 35.0312 40.834C34.7718 40.7743 34.5024 40.9038 34.233 40.7842C34.0933 40.9237 33.9536 40.9437 33.804 40.9337C33.6643 40.9237 33.5146 40.8839 33.365 40.9038C33.0956 40.9735 32.7763 40.9935 32.5767 41.2426C32.4969 41.3821 32.3672 41.4519 32.2375 41.5216C32.1078 41.6013 31.9681 41.691 31.8983 41.8505C31.8085 41.8804 31.7386 41.9302 31.6688 41.98C31.6389 42.0099 31.6089 42.0398 31.579 42.0697C31.559 42.0896 31.5491 42.0996 31.5391 42.1195L31.4792 42.2092C31.3096 42.4683 31.1799 42.7772 31.0502 43.2057C30.8806 43.385 30.7509 43.6242 30.6211 43.9132C30.4914 44.2022 30.3617 44.541 30.222 44.8598C30.1622 44.7502 30.0923 44.6306 30.0325 44.4911C29.8828 43.8733 29.7431 43.5445 29.5635 43.2455C29.3839 42.9466 29.1744 42.6775 28.925 42.3886L28.8352 42.2789L28.7953 42.2291L28.7753 42.1992C28.7753 42.1992 28.7154 42.1295 28.6855 42.0896C28.6256 42.0199 28.5758 41.9501 28.5159 41.8704C28.4061 41.7309 28.2864 41.5914 28.1367 41.5117C28.017 41.3921 27.8574 41.3124 27.7077 41.2526C27.5481 41.1928 27.3785 41.1529 27.2088 41.0931C27.0193 41.1131 26.8297 41.123 26.6401 41.123C26.5403 41.123 26.4505 41.1131 26.3508 41.1031C26.251 41.0832 26.1612 41.0632 26.0614 41.0333C25.6923 41.143 25.3131 41.1728 24.9639 41.3422C24.8142 41.4718 24.6446 41.5615 24.485 41.6611C24.3253 41.7608 24.1557 41.8804 24.036 42.0298C23.9262 42.1893 23.7466 42.2989 23.607 42.4483C23.4673 42.5978 23.3575 42.7871 23.4174 43.0263C23.3076 43.405 23.158 43.7936 23.2079 44.2221C23.1679 44.6605 23.2079 45.1289 23.3874 45.5673C23.2278 46.0955 23.567 46.524 23.8763 46.9226C24.1557 47.3411 24.3553 47.7895 24.5748 48.2379C24.8641 48.6465 25.1335 49.075 25.4129 49.4835C25.7721 49.8323 25.9217 50.3604 26.3308 50.6693C26.7399 50.9782 26.8696 51.5163 27.2887 51.8053C27.6778 52.1142 28.037 52.4431 28.2665 52.8915C28.5957 53.2403 28.7454 53.7684 29.2442 53.9478C29.4238 54.0972 29.6633 54.2068 29.8529 54.3463C29.9527 54.4161 30.0325 54.4958 30.1023 54.5955C30.1123 54.6154 30.1023 54.6154 30.1023 54.6154V54.6353C30.1023 54.6353 30.0923 54.6652 30.0923 54.6752C30.0923 54.7051 30.0724 54.7549 30.0624 54.8047C30.1422 54.8047 30.1622 54.9044 30.2121 55.014C30.222 55.0439 30.242 55.0638 30.252 55.0937C30.252 55.0937 30.252 55.1037 30.262 55.1136C30.262 55.1136 30.262 55.1136 30.2819 55.1037C30.3019 55.0837 30.3218 55.0439 30.3318 54.9841C30.3717 55.0439 30.4116 55.0539 30.4515 55.0439C30.4715 55.0439 30.4815 55.024 30.4914 55.014L30.5713 54.9143C30.701 54.735 30.8107 54.5357 30.9704 54.3862C31.3096 54.1172 31.6788 53.878 31.8783 53.4993C32.0679 53.1107 32.4969 52.9612 32.7364 52.6424C32.886 52.2438 33.4248 52.2139 33.5346 51.8053C33.8139 51.5462 34.0035 51.2373 34.2729 50.9982C34.2031 50.48 34.7219 50.4601 34.9514 50.2109C35.2008 49.9818 35.141 49.5333 35.56 49.4536C35.5001 49.0351 35.8793 48.9255 36.0988 48.7262C36.3283 48.5269 36.2884 48.1781 36.5677 48.0286C36.5179 47.6998 36.917 47.6201 36.9569 47.371C37.1863 47.2115 37.1664 46.9425 37.2861 46.7531C37.326 46.5339 37.4059 46.3446 37.5455 46.1852C37.6254 46.0058 37.6852 45.8364 37.7451 45.667C38.0843 44.7004 38.1342 44.1125 38.2539 44.1125L38.214 44.1723Z" fill="#0061EF"/>
<path d="M66.9206 45.8465C66.9705 45.8465 67.0304 45.9959 67.0603 46.2849C67.0903 46.5739 67.0903 47.0024 67.0005 47.5505C66.9705 47.7298 66.9306 47.9291 66.8807 48.1384C66.8408 48.3476 66.7909 48.5669 66.6912 48.7861C66.4716 48.9455 66.741 49.3441 66.4218 49.4936C66.2521 49.7029 66.1723 49.9719 66.0825 50.241C65.9828 50.52 65.7134 50.6993 65.6635 51.0282C65.7233 51.4467 65.0648 51.3769 65.1646 51.8453C65.0349 52.1542 64.8154 52.4233 64.5859 52.6923C64.2068 52.8418 64.1469 53.2503 63.9374 53.5592C63.5083 53.6788 63.3387 54.0376 63.219 54.4362C62.7001 54.4959 62.4806 54.8148 62.4407 55.333C62.1713 55.6419 61.7922 55.8412 61.6126 56.2497C61.3332 56.5686 61.0838 56.9174 60.7346 57.1864C60.6647 57.4256 60.555 57.6249 60.3953 57.7744C60.3754 57.7943 60.3554 57.8142 60.3355 57.8342L60.2357 57.9238C60.1559 57.9936 60.0761 58.0633 59.9962 58.1231C59.8366 58.2527 59.667 58.3623 59.5173 58.442C59.3976 58.6513 59.2579 58.8506 59.1082 59.0399L58.9985 59.1694L58.9386 59.2292C58.9386 59.2292 58.8987 59.1993 58.8887 59.1894C58.8189 59.1196 58.7491 59.0499 58.6792 58.9801C58.3998 58.6812 58.1304 58.3224 57.901 57.9936C57.7912 57.8342 57.6515 57.6847 57.5218 57.5651C57.432 57.4854 57.3322 57.4256 57.2325 57.3558C57.0329 57.2163 56.8433 57.0768 56.7436 56.8377C56.4243 56.4789 56.0352 56.18 55.7259 55.7914C55.4665 55.3629 55.207 54.9145 54.6982 54.6853C54.3091 54.3465 53.91 54.0077 53.6805 53.5194C53.1417 53.2802 52.8923 52.782 52.6927 52.2638C52.3335 51.8553 52.1838 51.2972 51.7648 50.8986C51.5154 50.4004 51.0963 49.9719 50.9566 49.3939C50.787 48.826 50.6673 48.2679 50.3679 47.7398C50.2083 47.4707 50.1684 47.1718 50.1684 46.8728C50.1684 46.5739 50.1784 46.275 50.1484 45.976C50.2781 45.6671 50.2781 45.3682 50.2981 45.0592C50.3181 44.7503 50.338 44.4315 50.4976 44.1524C50.5974 43.8535 50.777 43.5944 50.9566 43.3453C51.1362 43.0962 51.3258 42.867 51.4854 42.5979C51.8646 42.1296 52.3535 41.7111 52.9421 41.5616C53.1317 41.2626 53.441 41.173 53.7403 41.163C54.0496 41.153 54.339 41.2029 54.6184 41.1431C54.768 41.173 54.9077 41.1829 55.0374 41.1929C55.1671 41.1929 55.3068 41.1929 55.4365 41.1929C55.7059 41.1929 55.9953 41.1929 56.2647 41.2826C56.544 41.3125 56.8134 41.452 57.0529 41.6015C57.2923 41.7509 57.5118 41.9203 57.7812 42.02C57.9908 42.1993 58.2103 42.3588 58.3998 42.5481C58.4896 42.6378 58.5794 42.7374 58.6493 42.8371C58.6892 42.8869 58.7191 42.9467 58.7491 42.9965L58.769 43.0364C58.769 43.0364 58.769 43.0464 58.769 43.0563V43.0962C58.8588 43.0762 58.8488 43.1161 58.8588 43.2257C58.8588 43.3254 58.8887 43.4848 58.9286 43.435C58.9286 43.4549 58.9486 43.4748 58.9586 43.4948C59.0085 43.415 59.0384 43.3254 59.1082 43.2855C59.208 43.3951 59.2878 43.3054 59.3178 43.2158V43.1759L59.3677 43.1061L59.4375 42.9567C59.4874 42.857 59.5473 42.7673 59.6171 42.6777C59.7767 42.5282 59.9064 42.3388 60.0561 42.1794C60.2157 42.02 60.4053 41.8904 60.6448 41.8605C60.8344 41.7609 61.0539 41.7011 61.2534 41.6513C61.453 41.6015 61.6425 41.5417 61.8221 41.442C62.0117 41.3822 62.2212 41.4619 62.4108 41.5018C62.6004 41.5516 62.77 41.5616 62.9396 41.3623C63.1192 41.3224 63.3088 41.4121 63.4684 41.4819C63.638 41.5516 63.7877 41.6114 63.9872 41.5217C64.1868 41.442 64.3464 41.5018 64.4961 41.5915C64.6358 41.6812 64.7555 41.8207 64.8952 41.8904C65.1646 42.0399 65.414 42.2093 65.6236 42.3986C66.1025 42.8172 66.4317 43.2755 66.6512 43.704C66.8707 44.1325 66.9705 44.5311 67.0204 44.85C67.1102 45.4977 67.0204 45.8365 66.9406 45.8365C66.8408 45.8365 66.781 45.4379 66.4816 44.7902C66.332 44.4713 66.1125 44.0927 65.7832 43.724C65.4539 43.3553 65.0149 42.9965 64.4562 42.7673C64.3464 42.7175 64.2068 42.7175 64.087 42.7075C63.9573 42.6976 63.8476 42.6677 63.7378 42.5481C63.4784 42.4883 63.209 42.6179 62.9396 42.4983C62.7899 42.6378 62.6602 42.6577 62.5106 42.6478C62.3709 42.6378 62.2212 42.5979 62.0716 42.6179C61.8022 42.6876 61.4829 42.7075 61.2833 42.9567C61.2035 43.0962 61.0738 43.1659 60.9441 43.2456C60.8144 43.3254 60.6747 43.4151 60.6049 43.5745C60.5151 43.6044 60.4452 43.6542 60.3754 43.704C60.3455 43.7339 60.3055 43.7638 60.2856 43.7937C60.2756 43.8136 60.2557 43.8236 60.2457 43.8435L60.1858 43.9332C60.0162 44.1923 59.8865 44.5012 59.7568 44.9297C59.5872 45.1091 59.4575 45.3482 59.3277 45.6372C59.198 45.9262 59.0683 46.265 58.9286 46.5839C58.8688 46.4743 58.8089 46.3547 58.7391 46.2152C58.5894 45.5973 58.4497 45.2685 58.2701 44.9696C58.0905 44.6706 57.881 44.4016 57.6316 44.1126L57.5418 44.003L57.5019 43.9532L57.4819 43.9332C57.4819 43.9332 57.422 43.8635 57.3921 43.8236C57.3322 43.7539 57.2824 43.6741 57.2225 43.6044C57.1127 43.4649 56.993 43.3254 56.8433 43.2456C56.7236 43.1261 56.564 43.0464 56.4043 42.9866C56.2447 42.9268 56.0751 42.8969 55.9055 42.8271C55.7159 42.8471 55.5363 42.857 55.3367 42.857C55.237 42.857 55.1472 42.857 55.0474 42.8271C54.9476 42.8072 54.8578 42.7873 54.758 42.7574C54.3889 42.867 54.0097 42.8969 53.6605 43.0663C53.5109 43.1958 53.3512 43.2855 53.1816 43.3852C53.022 43.4848 52.8523 43.5944 52.7326 43.7539C52.6229 43.9133 52.4433 44.0229 52.3036 44.1724C52.1639 44.3218 52.0541 44.5112 52.114 44.7503C52.0043 45.129 51.8546 45.5176 51.9045 45.9461C51.8646 46.3846 51.9045 46.8529 52.0841 47.2914C51.9244 47.8195 52.2637 48.248 52.563 48.6466C52.8424 49.0651 53.0419 49.5135 53.2614 49.9619C53.5508 50.3705 53.8202 50.799 54.0995 51.2075C54.4587 51.5563 54.6084 52.0845 55.0175 52.3934C55.4265 52.7023 55.5662 53.2404 55.9753 53.5294C56.3644 53.8383 56.7236 54.1671 56.9531 54.6155C57.2824 54.9643 57.432 55.4924 57.9309 55.6718C58.1105 55.8213 58.35 55.9309 58.5395 56.0704C58.6293 56.1401 58.7191 56.2199 58.779 56.3195C58.789 56.3394 58.779 56.3394 58.779 56.3394V56.3594C58.779 56.3594 58.769 56.3893 58.769 56.3992C58.769 56.4291 58.7491 56.469 58.7391 56.5288C58.8189 56.5288 58.8389 56.6284 58.8887 56.738C58.8987 56.7679 58.9187 56.7879 58.9286 56.8177C58.9286 56.8177 58.9286 56.8277 58.9386 56.8377C58.9386 56.8377 58.9486 56.8377 58.9586 56.8277C58.9785 56.8078 58.9985 56.7679 58.9985 56.7081C59.0384 56.7679 59.0783 56.7779 59.1182 56.7679C59.1382 56.7679 59.1482 56.748 59.1581 56.738L59.238 56.6384C59.3677 56.459 59.4774 56.2597 59.6371 56.1102C59.9763 55.8412 60.3455 55.602 60.545 55.2234C60.7346 54.8347 61.1636 54.6853 61.4031 54.3664C61.5527 53.9678 62.0915 53.9379 62.2013 53.5294C62.4806 53.2703 62.6702 52.9514 62.9496 52.7222C62.8797 52.204 63.3986 52.1841 63.6281 51.935C63.8775 51.7058 63.8176 51.2574 64.2367 51.1777C64.1768 50.7591 64.546 50.6495 64.7755 50.4502C65.005 50.2509 64.965 49.9022 65.2444 49.7527C65.1945 49.4238 65.5936 49.3441 65.6435 49.095C65.873 48.9356 65.853 48.6665 65.9628 48.4772C66.0027 48.258 66.0925 48.0686 66.2222 47.9092C66.2921 47.7298 66.3619 47.5604 66.4218 47.401C66.761 46.4344 66.8109 45.8465 66.9306 45.8465H66.9206Z" fill="#0061EF"/>
<path d="M59.9464 72.4927C60.0362 72.5425 59.9264 72.9311 59.5772 73.5689C59.5073 73.6685 59.4375 73.7781 59.3677 73.8977C59.2978 74.0272 59.228 74.1568 59.1182 74.2664C58.9087 74.2863 59.0883 74.675 58.8089 74.655C58.6393 74.7348 58.5595 74.9042 58.4597 75.0736C58.3599 75.243 58.1105 75.2629 58.0406 75.4921C58.0506 75.6615 57.9209 75.6714 57.8012 75.6914C57.6815 75.7113 57.5617 75.7312 57.5717 75.9305C57.442 76.1199 57.2424 76.2394 57.0429 76.369C56.7336 76.3391 56.6438 76.638 56.4542 76.7975C56.105 76.7078 55.9553 76.9469 55.8157 77.226C55.4166 77.0466 55.217 77.206 55.1172 77.6345C54.8778 77.774 54.5585 77.7541 54.3689 78.0132C54.2392 78.0829 54.1195 78.1627 53.9898 78.2324C53.8601 78.3022 53.7204 78.352 53.5707 78.3719C53.3811 78.6908 53.0918 78.8104 52.7326 78.7107C52.5231 79.0396 52.1838 79.0495 51.8446 79.0196C51.5054 78.9698 51.2859 79.3983 50.9167 79.2887C50.8369 79.3086 50.7571 79.3285 50.6772 79.3485C50.5974 79.3684 50.5176 79.3883 50.4378 79.4182C50.2781 79.4581 50.1185 79.5079 49.9489 79.5179C49.7793 79.4979 49.5997 79.488 49.4301 79.4979C49.2604 79.5079 49.1008 79.5677 48.9511 79.7072C48.6219 79.8268 48.2926 79.9663 47.9234 79.8666C47.7638 80.0161 47.5942 80.0759 47.4146 80.0859C47.235 80.0859 47.0554 80.046 46.8758 79.9862C46.5166 80.056 46.1574 79.8965 45.7982 80.056C45.439 80.0261 45.0799 80.1855 44.7107 80.0859C44.3415 79.9962 43.9823 79.9065 43.6231 80.056C43.254 80.2154 42.9048 79.9364 42.5456 79.9862C42.3759 79.8567 42.2063 79.8567 42.0267 79.8766C41.8471 79.8965 41.6675 79.9364 41.4979 79.8766C41.1487 79.8766 40.8294 79.6474 40.4702 79.7172C40.3006 79.7172 40.121 79.7172 39.9614 79.6873C39.7918 79.6673 39.6321 79.6076 39.4825 79.5278C39.2829 79.6873 39.1233 79.6275 38.9736 79.5278C38.9038 79.478 38.824 79.4282 38.7541 79.3784C38.6843 79.3285 38.6044 79.2986 38.5246 79.2986C38.2552 79.0595 37.896 79.1591 37.5967 79.0296C37.2675 78.9997 37.048 78.6709 36.7087 78.7207C36.4293 78.6011 36.0901 78.621 35.8706 78.3819C35.701 78.4217 35.5713 78.3321 35.4615 78.2324C35.3418 78.1328 35.242 78.0231 35.0824 78.0231C34.823 77.9036 34.5536 77.8139 34.3341 77.6445C34.2343 77.2459 33.8751 77.3455 33.6356 77.2359C33.4261 77.0865 33.0969 77.1163 32.9971 76.8074C32.7975 76.658 32.6678 76.4188 32.4084 76.379C32.1889 76.2693 32.2987 75.7512 31.8796 75.9405C31.6501 75.8608 31.7399 75.4223 31.4107 75.502C31.0914 75.5519 31.1213 75.2131 30.9916 75.0835C30.8719 74.934 30.7521 74.7945 30.6424 74.665C30.383 74.376 30.1934 74.0771 30.0338 73.818C29.9539 73.6884 29.8741 73.5689 29.8143 73.4593C29.7544 73.3397 29.7045 73.24 29.6646 73.1404C29.495 72.7518 29.4451 72.5325 29.5149 72.4927C29.6945 72.3831 30.3131 73.26 31.6701 74.376C31.8098 74.4856 32.0891 74.4458 32.1091 74.7049C32.2587 74.8244 32.4982 74.8344 32.588 75.0536C32.9173 74.954 32.9472 75.2529 33.1168 75.3924C33.2964 75.512 33.4361 75.7013 33.6955 75.7312C33.9749 75.7113 34.0447 76.0501 34.3141 76.07C34.4438 76.3291 34.6833 76.4088 34.9826 76.3889C35.1323 76.658 35.4615 76.5683 35.701 76.6879C35.7708 76.8573 35.8806 76.937 36.0203 76.9669C36.16 76.9968 36.3096 76.9669 36.4593 76.9669C36.7486 76.9669 36.9582 77.206 37.2575 77.2359C37.5169 77.3655 37.8262 77.3455 38.0956 77.4751C38.4149 77.4352 38.7042 77.4751 38.9636 77.6843C39.0435 77.6843 39.1133 77.6843 39.1931 77.7043C39.2729 77.7142 39.3428 77.7342 39.4126 77.7541C39.5623 77.794 39.712 77.8438 39.8616 77.8737C40.0213 77.8537 40.1709 77.8936 40.3306 77.9335C40.4802 77.9733 40.6399 78.0132 40.7995 78.0331C41.1188 78.0331 41.3982 78.4118 41.7573 78.1627C41.917 78.1627 42.0866 78.1925 42.2462 78.2224C42.4059 78.2523 42.5755 78.2723 42.7451 78.2623C43.0744 78.3221 43.4036 78.3819 43.7429 78.3221C44.0721 78.6111 44.4213 78.4417 44.7606 78.342C45.0998 78.2523 45.439 78.2822 45.7783 78.3221C46.1175 78.2822 46.4468 78.2623 46.786 78.2623C46.9457 78.2125 47.1153 78.2224 47.2849 78.2324C47.4545 78.2324 47.6141 78.2424 47.7738 78.1726C48.0831 78.0231 48.4323 78.2125 48.7316 78.0431C48.8813 77.9733 49.031 77.9235 49.1906 77.8936C49.3403 77.8637 49.4999 77.8537 49.6695 77.8936C49.8192 77.8637 49.9888 77.8936 50.1484 77.8936C50.2283 77.8936 50.3081 77.8936 50.3779 77.8637C50.4478 77.8338 50.5176 77.784 50.5775 77.7043C50.8568 77.5747 51.0564 77.1961 51.4455 77.495C51.6949 77.3156 52.0541 77.495 52.2736 77.2559C52.6428 77.4452 52.8124 77.0765 53.0619 76.9868C53.2016 76.9669 53.3412 76.9469 53.4709 76.9171C53.6007 76.8772 53.7204 76.8174 53.8102 76.6978C53.9898 76.4587 54.319 76.5583 54.5286 76.3989C54.6782 76.1398 55.0673 76.359 55.1971 76.08C55.4265 76.0003 55.5862 75.811 55.8157 75.7412C55.8057 75.2928 56.2048 75.512 56.3944 75.4024C56.6039 75.3227 56.5839 74.944 56.9232 75.0636C56.9132 74.7148 57.2025 74.7846 57.4021 74.7148C57.6016 74.655 57.6016 74.386 57.8411 74.386C57.8211 74.1169 58.1604 74.2265 58.2202 74.0571C58.4298 74.0372 58.4497 73.8479 58.5695 73.7582C58.6293 73.6187 58.7291 73.519 58.8688 73.4692C58.9686 73.3795 59.0584 73.2898 59.1382 73.2201C59.6071 72.7219 59.8965 72.4528 59.9962 72.5126L59.9464 72.4927Z" fill="#0061EF"/>
<path d="M33.0378 15.1646C33.1475 15.1646 33.2473 15.324 33.3471 15.613C33.357 15.6628 33.377 15.7126 33.3969 15.7724C33.4269 15.8322 33.4568 15.882 33.4468 15.9518C33.3072 16.0116 33.7063 16.0813 33.4867 16.1511C33.4269 16.2208 33.4867 16.2906 33.5267 16.3703C33.5765 16.45 33.4369 16.5297 33.5666 16.6095C33.8459 16.6892 33.2573 16.7789 33.6065 16.8685C33.6863 16.9582 33.6564 17.0479 33.6464 17.1376C33.4369 17.2273 33.6464 17.3269 33.6863 17.4266C33.4269 17.5262 33.5366 17.6259 33.7162 17.7355C33.367 17.8351 33.4169 17.9447 33.7462 18.0544C33.7561 18.164 33.6165 18.2736 33.7761 18.3832C33.796 18.4928 33.8659 18.6124 33.806 18.732C34.0355 18.8515 34.0355 18.9711 33.826 19.0907C34.0754 19.2103 33.9756 19.3398 33.8459 19.4594C33.7063 19.5889 34.0654 19.7185 33.8659 19.848C33.8459 19.9776 33.9258 20.1071 33.8858 20.2466C33.7861 20.3762 33.6663 20.5157 33.8958 20.6552C33.9557 20.7947 34.0455 20.9342 33.9058 21.0637C34.1752 21.2032 34.0555 21.3427 33.9058 21.4823C33.9457 21.6218 33.7561 21.7712 33.9058 21.9107C33.8659 22.0602 34.0255 22.1997 33.9058 22.3492C33.826 22.4987 33.7462 22.6382 33.9058 22.7876C34.0754 22.9371 33.836 23.0766 33.9058 23.2161C33.6564 23.3556 33.9856 23.4951 33.9058 23.6347C33.9258 23.7742 33.7561 23.9137 33.8958 24.0432C33.9457 24.1827 33.9856 24.3123 33.8858 24.4518C34.275 24.5813 33.7861 24.7208 33.8659 24.8504C33.7063 24.9799 33.8858 25.1094 33.8459 25.239C33.9158 25.3685 33.6663 25.4881 33.826 25.6077C33.796 25.7273 33.9457 25.8468 33.806 25.9664C33.9956 26.086 33.6464 26.1956 33.7761 26.3152C33.7761 26.4248 33.7861 26.5444 33.7462 26.644C33.4468 26.7536 33.6963 26.8633 33.7162 26.9629C33.6863 27.0626 33.8858 27.1722 33.6863 27.2718C33.6663 27.3715 33.5267 27.4711 33.6464 27.5608C33.6963 27.6505 33.2074 27.7402 33.6065 27.8298C33.6763 27.9195 33.2972 27.9993 33.5666 28.079C33.816 28.1587 33.5366 28.2384 33.5267 28.3181C33.5067 28.3978 33.4967 28.4676 33.4867 28.5374C33.357 29.1552 33.2074 29.5139 33.0378 29.5139C32.8582 29.5139 32.6885 29.0755 32.5489 28.3181C32.5389 28.2384 32.3194 28.1687 32.5089 28.079C32.5089 27.9993 32.3493 27.9096 32.469 27.8298C32.1897 27.7402 32.4192 27.6505 32.4291 27.5608C32.4192 27.4711 32.5089 27.3715 32.3892 27.2718C32.2296 27.1722 32.469 27.0725 32.3593 26.9629C32.5289 26.8633 32.489 26.7536 32.3294 26.644C32.499 26.5344 32.2894 26.4248 32.2994 26.3152C32.5588 26.2056 32.3792 26.086 32.2695 25.9664C32.1797 25.8468 32.3094 25.7273 32.2495 25.6077C32.2994 25.4881 32.1797 25.3586 32.2296 25.239C32.1098 25.1094 32.06 24.9799 32.2096 24.8504C32.1298 24.7208 32.1897 24.5913 32.1897 24.4518C32.0899 24.3222 32.1996 24.1827 32.1797 24.0432C32.1298 23.9037 32.4591 23.7642 32.1697 23.6347C32.1298 23.4951 32.2196 23.3556 32.1697 23.2161C32.2096 23.0766 32.2396 22.9272 32.1697 22.7876C32.4491 22.6382 32.2795 22.4987 32.1697 22.3492C32.0899 22.1997 32.1298 22.0602 32.1697 21.9107C32.1398 21.7712 32.1597 21.6218 32.1697 21.4823C32.0899 21.3427 32.2894 21.2032 32.1697 21.0637C32.05 20.9242 32.2994 20.7847 32.1797 20.6552C32.0999 20.5157 32.05 20.3861 32.1897 20.2466C32.1897 20.1171 32.4491 19.9776 32.2096 19.848C32.1597 19.7185 31.8405 19.5889 32.2296 19.4594C32.1298 19.3298 32.4192 19.2103 32.2495 19.0907C32.5389 18.9711 32.2595 18.8515 32.2695 18.732C32.3294 18.6124 32.4192 18.4928 32.2994 18.3832C32.1597 18.2736 32.3792 18.154 32.3294 18.0544C32.1597 17.9447 32.5489 17.8351 32.3593 17.7355C32.3992 17.6358 32.3393 17.5262 32.3892 17.4266C32.0001 17.3269 32.3892 17.2273 32.4291 17.1376C32.489 17.0479 32.1697 16.9582 32.469 16.8685C32.1797 16.7789 32.4291 16.6991 32.5089 16.6095C32.5888 16.5297 32.3892 16.45 32.5489 16.3703C32.3393 16.2906 32.6586 16.2208 32.5888 16.1511C32.7285 16.0813 32.5888 16.0116 32.6287 15.9518C32.5788 15.892 32.5987 15.8322 32.6686 15.7724C32.6885 15.7126 32.6985 15.6628 32.7185 15.613C32.8183 15.324 32.918 15.1646 33.0278 15.1646H33.0378Z" fill="#0061EF"/>
<path d="M44.704 8C44.8137 8 44.9135 8.23916 45.0133 8.66764C45.0332 8.7374 45.0432 8.81712 45.0632 8.9068C45.0931 8.98652 45.123 9.0762 45.1131 9.17585C44.9734 9.26553 45.3825 9.36518 45.153 9.47479C45.0931 9.57444 45.153 9.68406 45.1929 9.80363C45.2428 9.91325 45.1031 10.0328 45.2328 10.1524C45.5122 10.272 44.9235 10.4015 45.2727 10.5311C45.3525 10.6606 45.3226 10.8001 45.3126 10.9396C45.1031 11.0791 45.3126 11.2186 45.3525 11.3681C45.0931 11.5176 45.2029 11.6671 45.3825 11.8265C45.0332 11.9859 45.0831 12.1454 45.4124 12.3048C45.4224 12.4642 45.2827 12.6336 45.4423 12.803C45.4623 12.9725 45.5321 13.1419 45.4723 13.3212C45.7117 13.5006 45.7017 13.68 45.4922 13.8593C45.7416 14.0387 45.6419 14.228 45.5122 14.4174C45.3725 14.6067 45.7317 14.796 45.5321 14.9953C45.5122 15.1846 45.592 15.3839 45.5521 15.5832C45.4523 15.7825 45.3326 15.9818 45.5621 16.1911C45.6219 16.4004 45.7117 16.5996 45.572 16.8089C45.8414 17.0182 45.7217 17.2274 45.572 17.4367C45.6119 17.646 45.4224 17.8652 45.572 18.0844C45.5321 18.3036 45.6918 18.5229 45.572 18.7421C45.4922 18.9613 45.4124 19.1805 45.572 19.3998C45.7416 19.619 45.5022 19.8283 45.572 20.0475C45.3226 20.2567 45.6519 20.476 45.572 20.6753C45.592 20.8845 45.4224 21.0938 45.5621 21.2931C45.6119 21.4924 45.6519 21.7016 45.5521 21.9009C45.9412 22.1002 45.4523 22.2995 45.5321 22.4889C45.3725 22.6882 45.5521 22.8775 45.5122 23.0668C45.582 23.2562 45.3326 23.4455 45.4922 23.6249C45.4623 23.8042 45.6119 23.9836 45.4723 24.163C45.6618 24.3423 45.3126 24.5117 45.4423 24.6811C45.4423 24.8505 45.4523 25.0199 45.4124 25.1794C45.1131 25.3388 45.3625 25.4982 45.3825 25.6577C45.3525 25.8171 45.5521 25.9666 45.3525 26.1161C45.3326 26.2655 45.1929 26.405 45.3126 26.5445C45.3525 26.6841 44.8736 26.8236 45.2727 26.9531C45.3425 27.0826 44.9634 27.2122 45.2328 27.3318C45.4822 27.4513 45.2029 27.5709 45.1929 27.6905C45.1829 27.8001 45.163 27.9097 45.153 28.0193C45.0233 28.956 44.8736 29.4842 44.704 29.4842C44.5244 29.4842 44.3548 28.8265 44.2151 27.6905C44.2051 27.5809 43.9856 27.4613 44.1752 27.3318C44.1752 27.2122 44.0155 27.0826 44.1353 26.9531C43.8559 26.8236 44.0854 26.6841 44.0954 26.5445C44.0854 26.405 44.1752 26.2655 44.0554 26.1161C43.8958 25.9666 44.1353 25.8171 44.0255 25.6577C44.1951 25.4982 44.1552 25.3388 43.9956 25.1794C44.1652 25.0199 43.9557 24.8505 43.9657 24.6811C44.2251 24.5117 44.0455 24.3324 43.9357 24.163C43.8359 23.9836 43.9756 23.8042 43.9058 23.6249C43.9557 23.4455 43.8359 23.2562 43.8858 23.0668C43.7661 22.8775 43.7162 22.6882 43.8659 22.4889C43.7861 22.2995 43.8459 22.1002 43.8459 21.9009C43.7461 21.7016 43.8559 21.5023 43.8359 21.2931C43.7861 21.0838 44.1153 20.8845 43.826 20.6753C43.7861 20.466 43.8759 20.2567 43.826 20.0475C43.8659 19.8382 43.8958 19.619 43.826 19.3998C44.1053 19.1805 43.9357 18.9613 43.826 18.7421C43.7461 18.5229 43.7861 18.3036 43.826 18.0844C43.796 17.8652 43.816 17.6559 43.826 17.4367C43.7461 17.2274 43.9457 17.0082 43.826 16.8089C43.7062 16.5996 43.9557 16.3904 43.8359 16.1911C43.7561 15.9818 43.7062 15.7825 43.8459 15.5832C43.8459 15.3839 44.1053 15.1846 43.8659 14.9953C43.816 14.796 43.4967 14.6067 43.8858 14.4174C43.7861 14.228 44.0754 14.0387 43.9058 13.8593C44.1951 13.68 43.9158 13.5006 43.9357 13.3212C43.9856 13.1419 44.0854 12.9725 43.9657 12.803C43.826 12.6336 44.0455 12.4642 43.9956 12.3048C43.8359 12.1354 44.2151 11.976 44.0255 11.8265C44.0654 11.6671 44.0056 11.5176 44.0554 11.3681C43.6663 11.2186 44.0554 11.0791 44.0954 10.9396C44.1552 10.8001 43.8359 10.6606 44.1353 10.5311C43.8459 10.4015 44.0954 10.272 44.1752 10.1524C44.255 10.0328 44.0554 9.91325 44.2151 9.80363C44.0056 9.69402 44.3248 9.58441 44.255 9.47479C44.3947 9.37515 44.255 9.2755 44.2949 9.17585C44.245 9.08617 44.265 8.99648 44.3348 8.9068C44.3548 8.82708 44.3648 8.74736 44.3847 8.66764C44.4845 8.22919 44.5843 8 44.694 8L44.704 8Z" fill="#0061EF"/>
<path d="M56.3528 15.165C56.4626 15.165 56.5624 15.3245 56.6621 15.6135C56.6821 15.6633 56.6921 15.7131 56.712 15.7729C56.742 15.8327 56.7719 15.8825 56.7619 15.9523C56.6222 16.012 57.0313 16.0818 56.8018 16.1516C56.742 16.2213 56.8018 16.2911 56.8417 16.3708C56.8916 16.4505 56.7519 16.5302 56.8817 16.6099C57.161 16.6897 56.5723 16.7793 56.9216 16.869C57.0014 16.9587 56.9814 17.0484 56.9615 17.1381C56.7519 17.2278 56.9615 17.3274 57.0014 17.4271C56.742 17.5267 56.8517 17.6264 57.0313 17.736C56.6821 17.8356 56.732 17.9452 57.0612 18.0548C57.0712 18.1645 56.9415 18.2741 57.0912 18.3837C57.1111 18.4933 57.181 18.6129 57.1211 18.7324C57.3606 18.852 57.3506 18.9716 57.1411 19.0912C57.3905 19.2108 57.2907 19.3403 57.161 19.4599C57.0213 19.5894 57.3805 19.719 57.181 19.8485C57.161 19.9781 57.2408 20.1076 57.2009 20.2471C57.1012 20.3766 56.9814 20.5162 57.2109 20.6557C57.2708 20.7952 57.3606 20.9347 57.2209 21.0642C57.4903 21.2037 57.3706 21.3432 57.2209 21.4827C57.2608 21.6222 57.0712 21.7717 57.2209 21.9112C57.181 22.0607 57.3406 22.2002 57.2209 22.3497C57.1411 22.4992 57.0612 22.6387 57.2209 22.7881C57.3905 22.9376 57.151 23.0771 57.2209 23.2166C56.9715 23.3561 57.3007 23.4956 57.2209 23.6351C57.2408 23.7747 57.0712 23.9142 57.2109 24.0437C57.2608 24.1832 57.3007 24.3128 57.2009 24.4523C57.5901 24.5818 57.1012 24.7213 57.181 24.8509C57.0213 24.9804 57.2009 25.1099 57.161 25.2395C57.2309 25.369 56.9814 25.4886 57.1411 25.6082C57.1111 25.7278 57.2608 25.8473 57.1211 25.9669C57.3107 26.0865 56.9615 26.1961 57.0912 26.3157C57.0912 26.4253 57.1012 26.5449 57.0612 26.6445C56.7619 26.7541 57.0114 26.8637 57.0313 26.9634C57.0014 27.063 57.2009 27.1727 57.0014 27.2723C56.9715 27.372 56.8417 27.4716 56.9615 27.5613C57.0014 27.651 56.5225 27.7407 56.9216 27.8303C56.9914 27.92 56.6123 27.9997 56.8817 28.0795C57.1311 28.1592 56.8517 28.2389 56.8417 28.3186C56.8318 28.3983 56.8118 28.4681 56.8018 28.5378C56.6721 29.1557 56.5225 29.5144 56.3528 29.5144C56.1732 29.5144 56.0036 29.0759 55.8639 28.3186C55.854 28.2389 55.6345 28.1691 55.824 28.0795C55.824 27.9997 55.6644 27.9101 55.7841 27.8303C55.5048 27.7407 55.7342 27.651 55.7442 27.5613C55.7342 27.4716 55.824 27.372 55.7043 27.2723C55.5447 27.1727 55.7841 27.073 55.6744 26.9634C55.844 26.8637 55.8041 26.7541 55.6444 26.6445C55.8141 26.5349 55.6045 26.4253 55.6145 26.3157C55.8739 26.2061 55.6943 26.0865 55.5846 25.9669C55.4948 25.8473 55.6245 25.7278 55.5646 25.6082C55.6145 25.4886 55.4948 25.3591 55.5447 25.2395C55.4249 25.1099 55.375 24.9804 55.5247 24.8509C55.4449 24.7213 55.5048 24.5918 55.5048 24.4523C55.405 24.3227 55.5147 24.1832 55.4948 24.0437C55.4449 23.9042 55.7642 23.7647 55.4848 23.6351C55.4449 23.4956 55.5247 23.3561 55.4848 23.2166C55.5247 23.0771 55.5546 22.9276 55.4848 22.7881C55.7642 22.6387 55.5946 22.4992 55.4848 22.3497C55.405 22.2002 55.4449 22.0607 55.4848 21.9112C55.4549 21.7717 55.4748 21.6222 55.4848 21.4827C55.405 21.3432 55.6045 21.2037 55.4848 21.0642C55.3651 20.9247 55.6145 20.7852 55.4948 20.6557C55.415 20.5162 55.3651 20.3866 55.5048 20.2471C55.5048 20.1176 55.7642 19.9781 55.5247 19.8485C55.4648 19.719 55.1555 19.5894 55.5447 19.4599C55.4449 19.3303 55.7342 19.2108 55.5646 19.0912C55.854 18.9716 55.5746 18.852 55.5846 18.7324C55.6444 18.6129 55.7342 18.4933 55.6145 18.3837C55.4748 18.2741 55.6844 18.1545 55.6444 18.0548C55.4848 17.9452 55.8639 17.8356 55.6744 17.736C55.7143 17.6363 55.6544 17.5267 55.7043 17.4271C55.3152 17.3274 55.7043 17.2278 55.7442 17.1381C55.8041 17.0484 55.4848 16.9587 55.7841 16.869C55.4948 16.7793 55.7442 16.6996 55.824 16.6099C55.9039 16.5302 55.7043 16.4505 55.8639 16.3708C55.6544 16.2911 55.9837 16.2213 55.9039 16.1516C56.0435 16.0818 55.9039 16.012 55.9537 15.9523C55.9039 15.8925 55.9238 15.8327 55.9937 15.7729C56.0136 15.7131 56.0236 15.6633 56.0435 15.6135C56.1433 15.3245 56.2431 15.165 56.3528 15.165Z" fill="#0061EF"/>
</g>
<defs>
<clipPath id="clip0_4159_26031">
<rect width="71" height="85" fill="white" transform="translate(9 8)"/>
</clipPath>
</defs>
</svg>
