<svg width="96" height="96" viewBox="0 0 96 96" fill="none" xmlns="http://www.w3.org/2000/svg">
<circle cx="48" cy="48" r="48" fill="#E2FFFE"/>
<g clip-path="url(#clip0_4159_26033)">
<path d="M83.027 24.2787C83.027 24.2787 83.1785 24.2182 83.4513 24.1879C83.5221 24.1879 83.6029 24.1678 83.6837 24.1577C83.7747 24.1375 83.8656 24.1275 83.9666 24.1073C84.0676 24.0871 84.1788 24.067 84.3 24.0468C84.4213 24.0166 84.5425 23.9863 84.6739 23.9561C85.1992 23.8149 85.856 23.5931 86.543 23.1999C86.7249 23.1092 86.8865 22.9882 87.0684 22.8672C87.2401 22.7362 87.422 22.6152 87.5938 22.464C87.6342 22.4337 87.6645 22.4035 87.7049 22.3732C87.7453 22.343 87.7756 22.3127 87.8059 22.2825C87.8666 22.222 87.9373 22.1615 87.9979 22.0909C88.1191 21.9599 88.2404 21.8288 88.3616 21.6876C88.4425 21.5969 88.5132 21.4961 88.5839 21.3953C88.6243 21.3449 88.6546 21.2844 88.6849 21.234C88.6849 21.2239 88.7051 21.2037 88.7051 21.1936H88.6445C88.6445 21.1936 88.5738 21.1936 88.5334 21.1936C88.2808 21.2138 87.9979 21.2037 87.7251 21.2037C87.5837 21.2037 87.4422 21.2037 87.3109 21.2037C87.2199 21.2037 87.129 21.2037 87.0381 21.1936C86.9269 21.1936 86.8158 21.1836 86.7047 21.1735C86.4824 21.1533 86.2601 21.1231 86.0378 21.1029C85.8156 21.0727 85.5832 21.0323 85.3508 20.992C85.2397 20.9517 85.1285 20.9315 85.0073 20.9013C84.8961 20.871 84.7749 20.8509 84.6536 20.8408C84.4112 20.8004 84.1687 20.7904 83.9262 20.7601C83.6837 20.7299 83.4311 20.6895 83.1785 20.6291C82.9361 20.5686 82.6936 20.4778 82.4612 20.3468C81.4913 19.9838 80.4607 19.6511 79.3998 19.2378C78.339 18.8244 77.3589 18.159 76.2476 17.6448C75.6515 17.4533 75.1564 17.0601 74.6714 16.6568C74.1764 16.2535 73.6813 15.8402 73.0549 15.5982C71.9536 14.8925 70.9028 14.0355 69.8521 13.1181C68.9326 12.0595 67.7404 11.2529 66.6594 10.2649C66.2148 9.67009 65.7096 9.12568 65.1641 8.63167C65.0226 8.51068 64.8913 8.37962 64.7498 8.26872C64.6084 8.15782 64.4669 8.04692 64.3154 7.93602C64.2446 7.88561 64.1739 7.82512 64.0931 7.77471L63.8607 7.63356C63.7092 7.54283 63.5475 7.46217 63.3959 7.38152C62.9211 6.86734 62.2846 6.52456 61.6986 6.76652C61.4056 6.87742 61.1328 7.09923 60.9004 7.37144C60.668 7.64364 60.476 7.96626 60.3043 8.30905C59.8496 8.90387 59.4152 9.55919 59.0009 10.2448L58.8494 10.5069L58.6776 10.7892C58.5665 10.9807 58.4351 11.1622 58.3139 11.3538C58.1927 11.5352 58.0512 11.7167 57.9098 11.8982C57.7582 12.0696 57.6269 12.2611 57.4753 12.4224C57.152 12.7551 56.7883 13.0475 56.4043 13.3197C56.0103 13.5818 55.6062 13.8238 55.1616 14.0053C54.7272 14.1868 54.2725 14.338 53.8078 14.4388L53.636 14.4791L53.5249 14.4993L53.3834 14.5195L52.8277 14.58C52.6358 14.6102 52.464 14.6001 52.2922 14.6001H52.0295C51.9487 14.6001 51.8477 14.6102 51.7871 14.58C51.6355 14.5497 51.4739 14.5195 51.3223 14.4892C51.2415 14.4691 51.1606 14.459 51.1101 14.4186C51.0798 14.4086 51.0495 14.3884 51.0192 14.3682C50.9889 14.3481 50.9586 14.3279 50.9283 14.2977C50.6757 14.1061 50.4938 13.7633 50.4534 13.4306C50.4231 13.2592 50.4231 13.0778 50.4332 12.9265C50.4534 12.7652 50.4938 12.6241 50.5443 12.5132C50.6151 12.3922 50.706 12.2712 50.7868 12.1502C50.807 12.0897 50.9283 12.0192 51.0091 11.9587L51.2819 11.757C51.4739 11.6663 51.6153 11.5554 51.777 11.4546C51.9285 11.3538 52.1306 11.2328 52.1508 11.2025L52.3529 11.0513L52.5448 10.8799C52.7974 10.6581 53.05 10.4162 53.2723 10.1439C53.5855 9.41805 53.8078 8.68207 53.8886 7.92594C53.9694 7.1698 53.9088 6.37333 53.6663 5.60711C53.4238 4.83081 52.8681 4.18557 52.2215 3.70165C51.5547 3.2278 50.8171 2.91526 50.0392 2.65313C49.2309 2.50191 48.3721 2.55232 47.5941 2.81444C46.8162 3.09673 46.0786 3.54034 45.5027 4.15533C45.1895 4.43762 44.9369 4.79048 44.7045 5.14335C44.6035 5.3349 44.4924 5.51638 44.4216 5.71801C44.3812 5.81883 44.3307 5.91965 44.3004 6.02047L44.2095 6.33301C43.9872 7.17988 44.0579 8.09733 44.4317 8.88371C44.7146 9.69026 45.2198 10.4162 45.8664 10.9908L46.1089 11.1925C46.1089 11.1925 46.1493 11.2227 46.1695 11.2429L46.2403 11.2933L46.5434 11.4949C46.7454 11.626 46.9677 11.757 47.1698 11.8881L47.2506 11.9385C47.2506 11.9385 47.2809 11.9688 47.291 11.9889L47.3718 12.0897L47.5335 12.2914C47.5941 12.3619 47.6244 12.4124 47.6547 12.493C47.6851 12.5636 47.7154 12.6442 47.7255 12.7249C47.7659 12.8963 47.7659 13.0878 47.7457 13.2794C47.7457 13.3701 47.7356 13.4709 47.7154 13.5617L47.6851 13.6927L47.6345 13.8238C47.5537 13.9952 47.4527 14.1464 47.3213 14.2674C47.19 14.4287 47.0687 14.5295 46.9071 14.6102C46.8465 14.6707 46.7151 14.6808 46.6141 14.711L46.2807 14.8018C46.1796 14.8018 46.0786 14.8118 45.9776 14.8118H45.6644L45.0278 14.7917H44.8763L44.755 14.7614L44.5732 14.7413C44.4519 14.7312 44.3307 14.711 44.1994 14.6808C43.7043 14.6001 43.2193 14.4388 42.7445 14.2372C42.2797 14.0355 41.8351 13.7633 41.4209 13.4609C41.0168 13.1483 40.6429 12.7955 40.3095 12.4224C39.8953 12.0091 39.5417 11.5352 39.2386 11.0513L39.0264 10.6783C38.9557 10.5472 38.9051 10.4464 38.8344 10.3355C38.7132 10.1036 38.5919 9.8919 38.4606 9.6701C38.208 9.23658 37.9352 8.81314 37.6321 8.41995C37.329 8.03684 36.9956 7.69405 36.642 7.46217C36.4803 7.34119 36.3187 7.23029 36.1671 7.1698C36.0155 7.10931 35.8842 7.08914 35.7428 7.10931C35.672 7.10931 35.5912 7.13955 35.5104 7.14963C35.4295 7.17988 35.3386 7.20004 35.2578 7.25045C35.0759 7.32103 34.8941 7.45209 34.7021 7.57307L34.4192 7.78479L34.1363 8.01667L33.5806 8.52076C33.3987 8.68207 33.1967 8.88371 32.9946 9.0551C32.7925 9.23658 32.6006 9.40797 32.3985 9.58944C30.7819 11.0412 29.1452 12.4628 27.5792 13.9549C26.0131 15.4672 24.1238 16.5459 22.3253 17.7053C21.3453 18.1489 20.4259 18.6833 19.4762 19.1773C18.5365 19.6713 17.5666 20.135 16.5462 20.4476C16.2936 20.5282 16.0511 20.6291 15.7884 20.6996C15.5358 20.7702 15.2731 20.8408 15.0205 20.9113C14.7578 20.9718 14.5053 21.0323 14.2426 21.0928C13.99 21.1533 13.7273 21.1936 13.4646 21.244C13.2019 21.2945 12.9493 21.3348 12.6866 21.3751C12.4239 21.4154 12.1714 21.4658 11.9087 21.486C11.646 21.5163 11.3833 21.5566 11.1307 21.5868L10.9387 21.607H10.8377L10.7973 21.6272C10.7973 21.6272 10.7569 21.6473 10.7367 21.6574C10.6558 21.6675 10.5952 21.6876 10.5447 21.6876H10.5346C10.5346 21.6876 10.5245 21.6876 10.5346 21.6977L10.5649 21.728L10.6154 21.7885L10.7165 21.8792C10.7165 21.8792 10.7266 21.8994 10.7468 21.9094L10.9185 22.0506C11.0499 22.1514 11.1812 22.2522 11.3126 22.343C11.5854 22.5244 11.8582 22.7059 12.1512 22.8571C12.5856 22.958 12.9998 23.0386 13.4141 23.1294C13.8283 23.1999 14.2527 23.2907 14.6871 23.331L15.0104 23.3713H15.3439L15.6773 23.3915C15.7379 23.3915 15.7884 23.3915 15.8389 23.3915H16.0006L16.334 23.3512L16.8392 23.3007C17.0513 23.3007 17.2635 23.3209 17.4555 23.4116C17.5565 23.452 17.6373 23.5125 17.7283 23.573C17.8192 23.6234 17.8899 23.704 17.9809 23.7746C18.2536 24.067 18.6073 24.3392 18.971 24.5509C19.3448 24.7626 19.7389 24.934 20.143 25.0651C20.5471 25.1961 20.9715 25.2667 21.3857 25.3272C21.5979 25.3373 21.8 25.3776 22.0121 25.3776H22.3253L22.6386 25.3877C23.3054 25.3373 23.9823 25.2365 24.639 25.0651C24.9725 24.9844 25.2958 24.8836 25.6191 24.7525L25.9828 24.6114C26.1243 24.5408 26.2758 24.5307 26.4274 24.5206C26.7305 24.5206 27.0235 24.6315 27.2659 24.813L27.3569 24.8836L27.3973 24.9138L27.4175 24.934C27.4175 24.934 27.4781 24.9743 27.5084 24.9945C27.569 25.0348 27.6398 25.0751 27.7105 25.1054C27.8519 25.176 27.9934 25.2365 28.1348 25.2869C28.8421 25.6296 29.6403 25.7607 30.4081 25.7405C30.8022 25.7305 31.1861 25.6801 31.57 25.6196C31.954 25.5389 32.3379 25.4683 32.7319 25.3574C32.8734 25.2869 33.0148 25.2163 33.1664 25.1457C33.3078 25.0751 33.4493 25.0046 33.5907 24.934L33.9949 24.7525C34.1363 24.7122 34.2879 24.682 34.4394 24.682C34.7425 24.682 35.0254 24.7929 35.2679 24.9844L35.4599 25.1256L35.6013 25.2264C35.6922 25.2869 35.7933 25.3574 35.8943 25.4078C36.0964 25.5288 36.2984 25.6397 36.5106 25.7305C36.935 25.922 37.3795 26.043 37.8241 26.0732C38.5111 26.1741 39.1981 26.1438 39.8448 25.9623C40.1681 25.8716 40.4813 25.7607 40.7844 25.6095C40.8551 25.5692 40.9359 25.5389 41.0067 25.4986L41.1178 25.4381L41.33 25.3272C41.4007 25.2869 41.4714 25.2667 41.5522 25.2365C41.6331 25.2163 41.7038 25.1961 41.7846 25.1961C41.8655 25.1961 41.9463 25.1961 42.017 25.1961C42.0574 25.1961 42.0978 25.2062 42.1382 25.2062L42.2494 25.2264C42.3706 25.2566 42.4919 25.2869 42.603 25.3171C43.3406 25.6397 44.0983 25.8514 44.8662 25.9422C45.0582 25.9623 45.2501 25.9926 45.4421 26.0228C45.634 26.043 45.8159 26.0732 46.0079 26.0833C46.3918 26.1035 46.7656 26.1337 47.1294 26.1741L47.4022 26.2144H47.6749C47.8568 26.2245 48.0488 26.2346 48.2306 26.2346C48.5944 26.2346 48.9581 26.2547 49.3218 26.2144C49.6855 26.1942 50.0392 26.1741 50.4029 26.164C50.7565 26.1539 51.1101 26.1237 51.4739 26.1337C52.1811 26.0833 52.8782 25.9623 53.5653 25.8716C53.9088 25.8313 54.2523 25.7405 54.5857 25.6599C54.9191 25.5792 55.2526 25.4885 55.5759 25.3776H55.6365L55.7072 25.3474L55.8487 25.3171C55.9396 25.3171 56.0406 25.2969 56.1316 25.3171C56.3235 25.3373 56.4953 25.4078 56.6569 25.5187L56.7277 25.5692L56.7681 25.5994L56.8489 25.6599C56.8994 25.7002 56.9499 25.7305 57.0106 25.7708C57.1217 25.8313 57.2227 25.9119 57.3339 25.9724C57.5561 26.1035 57.7885 26.2144 58.031 26.295C58.5059 26.4564 59.0312 26.4967 59.5162 26.3253C60.1022 26.2749 60.6781 26.2346 61.254 26.0934C61.5369 26.0228 61.8198 25.9321 62.0825 25.801C62.2138 25.7405 62.3351 25.6599 62.4563 25.5792C62.5169 25.5389 62.5675 25.4885 62.6281 25.4482C62.6584 25.428 62.6786 25.3978 62.7089 25.3776L62.7998 25.2869C62.8908 25.2062 62.9817 25.1256 63.0827 25.0651C63.1838 25.0046 63.305 24.9542 63.4263 24.9441C63.5475 24.9239 63.6687 24.9239 63.79 24.9441C63.9112 24.9642 64.0224 25.0147 64.1335 25.055C64.3255 25.1457 64.376 25.1659 64.477 25.2163C64.5679 25.2667 64.6589 25.307 64.7498 25.3474L65.0226 25.4784C65.1135 25.5187 65.2045 25.5591 65.2954 25.6095C65.4773 25.7002 65.6591 25.7607 65.841 25.8414C66.0229 25.9019 66.2148 25.9623 66.4068 25.9926C67.4272 26.2043 68.4477 26.1539 69.357 25.8716C69.7712 25.7405 70.1552 25.5692 70.4987 25.3574C70.5896 25.307 70.6704 25.2566 70.7513 25.186C70.8725 25.0953 70.9938 24.9945 71.1251 24.9441C71.2564 24.8836 71.408 24.8634 71.5595 24.8735C71.7111 24.8735 71.8424 24.934 71.9738 24.9945C72.1152 25.055 72.2668 25.1256 72.4082 25.186C72.5396 25.2365 72.6709 25.2869 72.8023 25.3373C73.065 25.428 73.3176 25.5187 73.5701 25.5792C74.0854 25.7204 74.5805 25.8212 75.0756 25.8615C76.0455 25.9523 76.9548 25.8615 77.7429 25.6397C78.5309 25.428 79.1978 25.1155 79.7535 24.7727C80.0263 24.6013 80.2687 24.4299 80.491 24.2484C80.6123 24.1375 80.7436 24.0468 80.8952 24.0065C80.9659 23.9964 81.0467 23.9762 81.1174 23.9863C81.1882 23.9863 81.2589 23.9964 81.3296 24.0166C81.4711 24.0468 81.6024 24.067 81.7337 24.0871C81.855 24.1073 81.9661 24.1375 82.0672 24.1476C82.2793 24.1879 82.4511 24.198 82.5925 24.2182C82.8754 24.2585 83.027 24.2888 83.027 24.319C83.027 24.3493 82.8855 24.3694 82.5925 24.3795C82.4511 24.3795 82.2692 24.3997 82.047 24.3795C81.8348 24.3593 81.5923 24.3392 81.3094 24.319C81.2084 24.319 81.1073 24.2988 81.0063 24.3392C80.9053 24.3795 80.8244 24.4501 80.7436 24.5408C80.5415 24.7324 80.2889 24.9441 80.0162 25.1356C79.4605 25.5288 78.7633 25.9019 77.9247 26.1741C77.0862 26.4463 76.1061 26.5874 75.0452 26.537C74.5199 26.5168 73.9642 26.4261 73.4085 26.295C73.1256 26.2346 72.8528 26.1438 72.5699 26.0632C72.4285 26.0128 72.287 25.9623 72.1456 25.9119C72.0243 25.8615 71.893 25.8111 71.7717 25.7607C71.7111 25.7405 71.6505 25.7103 71.5798 25.7103C71.5191 25.7103 71.4484 25.7204 71.3878 25.7607C71.3575 25.7809 71.3373 25.801 71.307 25.8212L71.2665 25.8514L71.2463 25.8716L71.2059 25.9019C71.1049 25.9825 70.9938 26.0531 70.8927 26.1136C70.4583 26.3858 69.9935 26.5975 69.4883 26.7588C68.4881 27.0714 67.3464 27.1419 66.235 26.9403C66.0229 26.91 65.8006 26.8596 65.5884 26.8193C65.3762 26.7588 65.1539 26.7286 64.9418 26.658C64.8306 26.6278 64.7296 26.5975 64.6185 26.5572C64.5073 26.5269 64.4063 26.4765 64.2952 26.4463C64.1941 26.4059 64.083 26.3656 63.9819 26.3152C63.891 26.2749 63.7395 26.2043 63.7395 26.1942C63.6889 26.164 63.6283 26.1337 63.5677 26.1237C63.497 26.1237 63.4465 26.1438 63.3656 26.164L63.1737 26.285C63.1029 26.3253 63.0322 26.3757 62.9615 26.416C62.82 26.4967 62.6786 26.5773 62.527 26.658C62.234 26.8193 61.9309 26.9504 61.6177 27.0714C60.9913 27.3133 60.2841 27.4645 59.5768 27.4242C58.9908 27.5553 58.3644 27.515 57.7784 27.3536C57.4854 27.273 57.1924 27.1621 56.9196 27.031C56.7782 26.9705 56.6468 26.8899 56.5054 26.8193C56.4347 26.779 56.374 26.7386 56.3033 26.6983L56.2023 26.6378L56.1619 26.6076H56.1518C56.1518 26.6076 56.081 26.5471 56.0305 26.537C56.0103 26.537 55.98 26.537 55.9598 26.537H55.9295L55.8891 26.5471C55.5557 26.6278 55.202 26.7084 54.8585 26.779C54.515 26.8496 54.1715 26.9403 53.8078 26.9907C53.0904 27.1016 52.3832 27.273 51.6456 27.394C51.2819 27.4746 50.9081 27.5452 50.5241 27.5754C50.1402 27.5956 49.7563 27.5956 49.3723 27.5956C48.9884 27.6158 48.5944 27.5654 48.2104 27.5452C48.0185 27.5452 47.8164 27.525 47.6244 27.525H47.3314L47.0384 27.5049C46.6545 27.4141 46.2605 27.3436 45.8664 27.2831C45.6644 27.2528 45.4724 27.2125 45.2804 27.1722C45.0885 27.1318 44.8864 27.1016 44.6944 27.0613C43.9064 26.9403 43.1183 26.7891 42.2999 26.6882L42.1484 26.6378L42.0675 26.6076C42.0675 26.6076 42.0574 26.6076 42.0473 26.5975C41.9968 26.5673 41.916 26.5572 41.8655 26.5874C41.8452 26.5874 41.8452 26.5874 41.8149 26.6076L41.6735 26.6782C41.5826 26.7286 41.4916 26.779 41.3906 26.8193C41.0168 27.0109 40.6227 27.1621 40.2085 27.2932C39.3901 27.5452 38.4909 27.6359 37.622 27.4948C37.0764 27.3335 36.551 27.152 36.0459 26.9403C35.7933 26.8395 35.5407 26.7185 35.2881 26.5975C35.1669 26.537 35.0355 26.4765 34.9143 26.406L34.591 26.2245C34.5404 26.1942 34.4798 26.1741 34.4192 26.1841C34.3889 26.1841 34.3586 26.2043 34.3384 26.2245L34.3081 26.2547H34.2879C34.2879 26.2547 34.2879 26.2749 34.2575 26.285C34.0959 26.3757 33.9342 26.4664 33.7726 26.5471C33.6109 26.6278 33.4392 26.7084 33.2674 26.779C32.833 26.9705 32.3682 27.1016 31.8933 27.2024C31.4185 27.2932 30.9234 27.3436 30.4283 27.3436C29.4281 27.3335 28.4278 27.1117 27.4882 26.7084C27.3064 26.6177 27.1245 26.5168 26.9527 26.416C26.8618 26.3656 26.7709 26.3051 26.69 26.2446C26.6496 26.2144 26.5991 26.1842 26.5587 26.1539L26.4981 26.1136C26.4981 26.1136 26.4274 26.0632 26.3869 26.0732C26.3667 26.0732 26.3465 26.0833 26.3263 26.0934H26.3061V26.1136H26.2758L26.2051 26.1539C25.8515 26.3152 25.4776 26.4463 25.0937 26.5673C24.3359 26.8092 23.5378 26.9705 22.7093 26.9806L22.3253 27.0109H21.9414C21.6787 27.031 21.4261 27.0008 21.1634 26.9806C20.6482 26.9201 20.1228 26.8193 19.6176 26.6479C19.1124 26.4765 18.6275 26.2648 18.1728 25.9926C17.7182 25.7204 17.2938 25.3978 16.8897 25.0046C16.8594 24.9844 16.819 24.9743 16.7886 24.9844L16.5967 25.0147L16.2127 25.0751L16.0208 25.1054C15.9602 25.1054 15.8894 25.1054 15.8187 25.1155L15.4247 25.1356L15.0306 25.1558L14.6265 25.1356C14.091 25.1155 13.5555 25.0348 13.0302 24.9138C12.5048 24.7727 11.9794 24.6114 11.4843 24.3795C11.1004 24.2283 10.7266 24.0367 10.3729 23.8149C10.2012 23.704 10.0294 23.583 9.85767 23.4621L9.73642 23.3612L9.6758 23.3108L9.59498 23.2503C9.46363 23.1394 9.33229 23.0285 9.21104 22.9076C9.0898 22.7866 8.95846 22.6656 8.83722 22.5446L8.51391 22.1716C8.40277 22.0506 8.31184 21.9195 8.2209 21.7985C8.12997 21.6776 8.02894 21.5566 7.94811 21.4356L7.43283 20.6996L7.17014 20.3165C7.17014 20.3165 7.11963 20.2459 7.10952 20.2258L7.06911 20.1552L6.98828 20.004C7.47325 20.0141 7.94811 20.0241 8.44318 20.0241H9.17063H9.53436C9.6556 20.0241 9.77684 20.0241 9.88798 20.0241C10.2618 20.004 10.6356 19.9838 10.9994 19.9536C11.2418 19.9334 11.4843 19.9132 11.7268 19.8931C11.9693 19.8729 12.2118 19.8427 12.4543 19.8124C12.6967 19.7822 12.9392 19.762 13.1817 19.7116C13.4242 19.6713 13.6667 19.631 13.9092 19.5705C14.1516 19.51 14.3941 19.4495 14.6265 19.389C14.8589 19.3083 15.0913 19.2277 15.3236 19.147C15.556 19.0563 15.7783 18.9454 16.0107 18.8345C17.8697 18.1489 19.7288 17.3424 21.4564 16.2334C23.2246 15.205 24.932 14.0154 26.4981 12.6241C28.2965 11.505 29.7413 9.92214 31.2063 8.34937L31.7721 7.76463C31.9641 7.57307 32.1459 7.38152 32.3581 7.18996C32.5703 6.99841 32.7824 6.79677 32.9946 6.6153L33.3381 6.34309C33.4594 6.25235 33.5806 6.16161 33.712 6.08096C33.9746 5.90957 34.2474 5.74826 34.5708 5.61719C34.7223 5.54662 34.9042 5.49621 35.0759 5.4458C35.2578 5.40548 35.4498 5.36515 35.6518 5.36515C36.056 5.34499 36.4702 5.42564 36.8238 5.56679C37.1673 5.71801 37.4603 5.90957 37.723 6.11121C38.2383 6.5044 38.6323 6.95808 38.9961 7.41176C39.3497 7.86545 39.6629 8.32921 39.9458 8.80306C40.0872 9.03494 40.2287 9.2769 40.36 9.50879L40.4611 9.68018C40.4914 9.74067 40.5318 9.80116 40.552 9.85157L40.7339 10.154C40.9865 10.5472 41.2693 10.9202 41.5826 11.2529C41.8655 11.5252 42.1686 11.757 42.4818 11.9889C42.8051 12.2006 43.1284 12.3922 43.482 12.5535C43.8356 12.7047 44.1994 12.8358 44.5934 12.9164C44.6843 12.9366 44.7854 12.9568 44.8864 12.9769L45.1087 13.0173C45.1087 13.0173 45.1794 13.0173 45.2097 13.0173C45.2501 13.0173 45.2905 13.0173 45.3107 12.9769C45.3107 12.9467 45.3107 12.9064 45.2905 12.8761C45.2905 12.8459 45.2703 12.8257 45.2501 12.8156C45.2299 12.8055 45.2097 12.7854 45.1895 12.7652L45.1693 12.7451L45.0885 12.6846C45.0885 12.6846 45.0278 12.6442 44.9975 12.614L44.6742 12.3216C43.8255 11.505 43.2294 10.4968 42.8253 9.41805C42.4414 8.32921 42.3605 7.11939 42.6232 6.0003L42.7344 5.57687C42.7748 5.43572 42.8354 5.30466 42.8758 5.17359C42.9667 4.90138 43.1082 4.64934 43.2395 4.39729C43.5325 3.90328 43.8659 3.43952 44.2903 3.05641C45.048 2.21961 46.0685 1.66511 47.1193 1.35258C47.2506 1.31225 47.382 1.29209 47.5234 1.25176C47.6547 1.22151 47.7861 1.18118 47.9275 1.1711C48.2003 1.13078 48.463 1.08037 48.7358 1.07028C48.8672 1.07028 49.0086 1.05012 49.1399 1.04004H49.7563C49.827 1.04004 49.8876 1.04004 49.9583 1.05012L50.3726 1.07028C51.4536 1.25176 52.5145 1.66511 53.3935 2.33051C54.2624 3.006 54.9393 3.95369 55.1717 5.01228C55.6163 5.98014 55.7274 7.06898 55.5961 8.09733C55.4647 9.13576 55.0808 10.0935 54.6059 10.9908C54.3129 11.3437 53.9896 11.6663 53.6663 11.9788L53.4238 12.2006L53.1712 12.4124C53.0601 12.5031 53.0601 12.5031 53.0197 12.5333C52.9894 12.5535 52.9591 12.5837 52.9389 12.6039L52.7671 12.735C52.7166 12.7753 52.7065 12.8459 52.7368 12.9064C52.757 12.9669 52.8075 13.0273 52.8681 13.0374C52.9389 13.0576 52.9995 13.0374 53.05 13.0374C53.0904 13.0374 53.1409 13.0374 53.2015 13.0374C53.2723 13.0374 53.2521 13.0475 53.5047 12.9971C53.8886 12.9366 54.2624 12.8257 54.616 12.6846C54.9697 12.5434 55.3132 12.3619 55.6264 12.1502C55.9295 11.9284 56.2225 11.6865 56.465 11.3941C56.5963 11.2529 56.6973 11.1017 56.8186 10.9606C56.9297 10.8093 57.051 10.6682 57.152 10.517C57.253 10.3657 57.3743 10.2145 57.4652 10.0532L57.6168 9.82132L57.7784 9.55919C58.223 8.84338 58.6877 8.14774 59.203 7.46217C59.4354 7.09923 59.7082 6.75644 60.0618 6.45399C60.4053 6.16161 60.8196 5.87932 61.3247 5.7281C61.4561 5.68777 61.5773 5.65752 61.7087 5.63736C61.84 5.61719 61.9815 5.60711 62.1128 5.60711C62.2442 5.60711 62.3755 5.62728 62.5068 5.63736C62.6281 5.6676 62.7594 5.68777 62.8706 5.71801C63.3353 5.85916 63.7395 6.0608 64.1133 6.25235C64.285 6.37333 64.4568 6.49431 64.6185 6.62538L64.861 6.81693L65.0832 7.01857C65.2348 7.14963 65.3762 7.2807 65.5278 7.41176C65.6793 7.54283 65.8006 7.67389 65.942 7.80495C66.4876 8.32921 67.013 8.8333 67.5182 9.35756C68.8215 10.0835 69.5894 11.3034 70.6098 12.2208C71.6101 13.1483 72.8326 13.723 73.6914 14.7009C74.8937 15.2151 75.7727 16.0922 76.7527 16.7576C77.7429 17.4331 78.8442 17.7759 79.7737 18.3707C80.8547 18.6329 81.7135 19.2882 82.6936 19.5201C83.613 19.9536 84.5829 20.0342 85.4619 20.2258C85.6842 20.2459 85.9065 20.2863 86.1288 20.3064C86.351 20.3266 86.5632 20.3568 86.7754 20.3871C86.8764 20.4073 86.9875 20.4173 87.0886 20.4274L87.2401 20.4476L87.4523 20.4677C87.5938 20.4879 87.7453 20.498 87.8868 20.5081L88.0989 20.5282H88.3111C88.887 20.5484 89.4427 20.5686 89.8974 20.5585C89.9176 20.5786 89.9277 20.5988 89.9479 20.6291L89.9681 20.6593C89.9681 20.6593 89.9277 20.7097 89.9176 20.7299C89.8367 20.8307 89.766 20.9416 89.6953 21.0323C89.5538 21.2239 89.4124 21.3953 89.2709 21.5667C89.1699 21.6977 89.0588 21.8187 88.9476 21.9397C88.8365 22.0607 88.7152 22.1716 88.6041 22.2926C88.493 22.4035 88.3616 22.5043 88.2505 22.6152C88.1899 22.6656 88.1393 22.716 88.0686 22.7664C88.008 22.8067 87.9575 22.8571 87.8969 22.8975C87.7049 23.0487 87.5028 23.1697 87.3109 23.3007C87.1088 23.4116 86.9269 23.5326 86.735 23.6133C85.9772 23.9964 85.2801 24.1779 84.7143 24.2686C84.5728 24.2888 84.4415 24.3089 84.3101 24.3291C84.1889 24.3392 84.0676 24.3493 83.9565 24.3493C83.8454 24.3493 83.7544 24.3493 83.6635 24.3593C83.5726 24.3593 83.4918 24.3593 83.421 24.3593C83.128 24.3392 82.9866 24.319 82.9866 24.2988L83.027 24.2787Z" fill="#0061EF"/>
<path d="M49.0085 26.8901C49.1196 26.8901 49.2206 27.4346 49.3116 28.4427C49.3217 28.6141 49.3419 28.7956 49.3621 28.9872C49.3924 29.1787 49.4227 29.3804 49.4025 29.6022C49.2611 29.8139 49.6652 30.0458 49.4429 30.2877C49.3823 30.5297 49.4429 30.7817 49.4833 31.0338C49.5338 31.2959 49.3924 31.5681 49.5237 31.8504C49.7965 32.1327 49.2206 32.4251 49.5642 32.7275C49.6349 33.03 49.6147 33.3425 49.6046 33.6651C49.3924 33.9878 49.6046 34.3205 49.6349 34.6632C49.3823 35.006 49.4934 35.3589 49.6652 35.7117C49.3217 36.0747 49.3722 36.4376 49.6955 36.8207C49.7056 37.1938 49.5743 37.587 49.7258 37.9701C49.746 38.3633 49.8167 38.7665 49.7561 39.1698C49.9885 39.5832 49.9784 39.9965 49.7763 40.42C50.0289 40.8434 49.9279 41.2769 49.7965 41.7104C49.6551 42.144 50.0188 42.5876 49.8167 43.0412C49.7965 43.4949 49.8774 43.9486 49.837 44.4023C49.7359 44.8661 49.6248 45.3298 49.8471 45.8037C49.9077 46.2775 49.9885 46.7514 49.8471 47.2353C50.1097 47.7192 49.9986 48.2032 49.8471 48.6972C49.8875 49.1912 49.7056 49.6852 49.8471 50.1792C49.8066 50.6833 49.9683 51.1773 49.8471 51.6915C49.7662 52.1956 49.6854 52.6996 49.8471 53.2037C50.0188 53.6978 49.7763 54.2018 49.8471 54.6858C49.5945 55.1798 49.9279 55.6637 49.8471 56.1476C49.8673 56.6316 49.7056 57.1054 49.8471 57.5793C49.8976 58.0531 49.938 58.5169 49.837 58.9806C50.2209 59.4444 49.7359 59.8981 49.8167 60.3417C49.6551 60.7954 49.837 61.2289 49.7965 61.6725C49.8673 62.106 49.6248 62.5395 49.7763 62.963C49.746 63.3864 49.8976 63.7998 49.7561 64.203C49.9481 64.6164 49.5945 65.0096 49.7258 65.4028C49.7258 65.796 49.7359 66.1791 49.6955 66.5521C49.3924 66.9251 49.645 67.2982 49.6652 67.6611C49.6349 68.0241 49.837 68.3668 49.6349 68.7096C49.6147 69.0524 49.4833 69.3851 49.6046 69.7077C49.645 70.0303 49.1701 70.3429 49.5642 70.6453C49.6349 70.9478 49.2611 71.2402 49.5237 71.5224C49.7662 71.8047 49.4934 72.077 49.4833 72.3391C49.4732 72.6012 49.453 72.8533 49.4429 73.0851C49.3116 75.2326 49.16 76.4726 48.9984 76.4726C48.8165 76.4726 48.6548 74.9503 48.5134 72.3391C48.5033 72.077 48.2911 71.8047 48.473 71.5224C48.473 71.2402 48.3113 70.9478 48.4326 70.6453C48.1598 70.3429 48.3821 70.0303 48.3922 69.7077C48.3821 69.3851 48.4629 69.0524 48.3517 68.7096C48.1901 68.3668 48.4326 68.014 48.3214 67.6611C48.4932 67.2982 48.4427 66.9352 48.2911 66.5521C48.4528 66.1791 48.2608 65.7859 48.2608 65.4028C48.5134 65.0096 48.3416 64.6063 48.2406 64.203C48.1497 63.7998 48.281 63.3763 48.2204 62.963C48.2709 62.5395 48.1598 62.106 48.2002 61.6725C48.0789 61.239 48.0385 60.7954 48.18 60.3417C48.0992 59.8981 48.1598 59.4343 48.1598 58.9806C48.0587 58.5169 48.1699 58.0531 48.1497 57.5793C48.0992 57.1054 48.4225 56.6316 48.1396 56.1476C48.0992 55.6637 48.18 55.1798 48.1396 54.6858C48.18 54.1918 48.2103 53.6978 48.1396 53.2037C48.4124 52.6996 48.2507 52.2056 48.1396 51.6915C48.0587 51.1874 48.0992 50.6833 48.1396 50.1792C48.1093 49.6751 48.1295 49.1811 48.1396 48.6972C48.0587 48.2032 48.2608 47.7192 48.1396 47.2353C48.0183 46.7514 48.2709 46.2775 48.1497 45.8037C48.0688 45.3298 48.0284 44.8661 48.1598 44.4023C48.1598 43.9385 48.4124 43.4848 48.18 43.0412C48.1295 42.5976 47.8163 42.154 48.2002 41.7104C48.1093 41.2769 48.3922 40.8434 48.2204 40.42C48.5033 39.9965 48.2305 39.5832 48.2406 39.1698C48.2911 38.7665 48.3922 38.3633 48.2608 37.9701C48.1295 37.5769 48.3315 37.1938 48.2911 36.8207C48.1295 36.4477 48.5033 36.0747 48.3214 35.7117C48.3618 35.3488 48.3012 34.9959 48.3517 34.6632C47.9678 34.3205 48.3517 33.9878 48.3922 33.6651C48.4427 33.3425 48.1396 33.03 48.4326 32.7275C48.1396 32.4251 48.3922 32.1327 48.473 31.8504C48.5538 31.5681 48.3517 31.2959 48.5134 31.0338C48.3113 30.7716 48.6245 30.5196 48.5538 30.2877C48.6852 30.0458 48.5538 29.824 48.5942 29.6022C48.5437 29.3904 48.5639 29.1787 48.6346 28.9872C48.6548 28.7956 48.6649 28.6141 48.6852 28.4427C48.7761 27.4446 48.8771 26.8901 48.9883 26.8901H49.0085Z" fill="#0061EF"/>
<path d="M45.8976 85.9798C45.8976 85.9798 45.6147 85.9596 45.15 85.7782C45.0287 85.7277 44.8974 85.6773 44.7559 85.6169C44.6145 85.5564 44.4629 85.4757 44.2912 85.4051C44.1295 85.3245 43.9477 85.2337 43.7557 85.143C43.5637 85.0422 43.3718 84.9313 43.1596 84.8204C43.0181 84.7397 42.8767 84.6591 42.7251 84.5784C42.5736 84.4877 42.422 84.397 42.2705 84.2961C42.1088 84.2054 41.9371 84.1147 41.7754 84.0038C41.6138 83.8929 41.442 83.7719 41.2804 83.6408C41.2197 83.5501 41.1389 83.4896 41.0379 83.4291C40.9469 83.3686 40.8459 83.3283 40.7449 83.2779C40.5428 83.177 40.3306 83.0661 40.2296 82.8343C40.078 82.6528 39.9063 82.4915 39.7244 82.3302C39.5325 82.1789 39.3607 81.9975 39.1586 81.8261C38.9566 81.6547 38.8151 81.4329 38.6535 81.2212C38.5726 81.1103 38.4918 81.0095 38.4009 80.8986C38.32 80.7877 38.2291 80.6868 38.118 80.586C37.9866 80.5054 37.8856 80.4045 37.8149 80.2735C37.7542 80.1424 37.7037 80.0013 37.6633 79.8601C37.5623 79.5778 37.5017 79.2855 37.2087 79.0838C37.1177 78.9528 37.0571 78.8116 36.9965 78.6705C36.9359 78.5293 36.8752 78.3781 36.8146 78.2269C36.7641 78.0756 36.7237 77.9143 36.6833 77.7631C36.6429 77.6018 36.6024 77.4506 36.5822 77.2792C36.6024 77.1078 36.6024 76.9364 36.5822 76.7751C36.5721 76.6138 36.5519 76.4424 36.5216 76.2811C36.5014 76.2004 36.4812 76.1097 36.4711 76.029C36.4509 75.9484 36.4509 75.8576 36.4307 75.777C36.4105 75.6056 36.3903 75.4342 36.3802 75.2527C36.5418 74.9099 36.5822 74.5672 36.6429 74.2244C36.6631 74.053 36.6631 73.8715 36.6833 73.69C36.6934 73.5086 36.7035 73.3271 36.7136 73.1355C37.2592 72.5407 37.4511 71.8753 37.532 71.0587C37.6936 70.7159 37.926 70.4134 38.1382 70.0908C38.2493 69.9295 38.3604 69.7783 38.4615 69.617C38.5625 69.4557 38.6535 69.2843 38.7444 69.1028C38.8555 68.9415 38.9768 68.7903 39.0879 68.629C39.199 68.4676 39.3304 68.3164 39.4516 68.1652C39.6941 67.8527 39.977 67.5704 40.27 67.2981C40.3609 67.1066 40.4822 66.9352 40.6135 66.784C40.7449 66.6227 40.8762 66.4714 41.0278 66.3303C41.3309 66.0581 41.6744 65.8161 42.0583 65.6246C42.1796 65.4431 42.3109 65.2818 42.4625 65.1306L42.4928 65.1003V65.0801C42.4928 65.0801 42.4928 65.0701 42.513 65.06C42.5332 65.06 42.5736 65.0499 42.6241 65.0297H42.6746C42.6746 65.0297 42.6948 65.0096 42.7049 65.0096C42.7049 65.0096 42.7251 64.9793 42.7251 64.9592C42.7251 64.9188 42.7049 64.8987 42.6039 64.8483C42.5635 64.8281 42.513 64.8079 42.4726 64.7878L42.4018 64.7676H42.3715C42.3715 64.7676 42.3513 64.7575 42.3311 64.7374C41.9472 64.5357 41.5632 64.3139 41.2702 63.9711C40.5731 63.4368 39.8255 62.9327 39.1889 62.2875C38.5827 61.5918 38.0472 60.8558 37.2794 60.261C36.6429 59.5553 36.0265 58.7588 35.7335 57.791C35.0768 56.9844 34.895 55.8754 34.9758 54.8269C34.9152 54.3027 34.9758 53.7683 35.0768 53.2541C35.1273 52.992 35.1981 52.74 35.2486 52.4879C35.3193 52.2359 35.3698 51.9737 35.4304 51.7217C35.6325 51.2378 35.8245 50.7438 36.067 50.28C36.3094 49.8162 36.5923 49.3726 36.9561 48.9996C37.1379 48.8081 37.3097 48.6165 37.4916 48.435C37.6734 48.2535 37.8553 48.0822 38.027 47.9007L38.0573 47.8704C38.0573 47.8704 38.0371 47.8906 38.0472 47.8805H38.0674L38.0978 47.8402C38.118 47.82 38.1281 47.7999 38.1382 47.7797C38.1584 47.7394 38.1685 47.7091 38.118 47.689C38.0877 47.689 38.0674 47.689 38.0573 47.6789C37.9765 47.6789 38.0068 47.6688 37.9765 47.6285C37.9664 47.6083 37.9462 47.5982 37.9159 47.5781H37.9058H37.8856L37.7441 47.5377C37.6431 47.5176 37.5522 47.4974 37.4511 47.4772C36.5923 47.0135 35.6022 47.0941 34.7333 46.7514C33.8341 46.5094 33.0056 46.0759 32.1064 45.9045C31.2274 45.6524 30.3686 45.3701 29.5805 44.9366C28.6005 44.9366 27.9842 44.1402 27.1759 43.8276C26.4687 43.3034 25.62 43.0513 24.9127 42.5674C24.1348 42.1843 23.5791 41.5088 22.8314 41.1156C22.6698 40.9845 22.5081 40.8535 22.3465 40.7224C22.1848 40.5914 22.013 40.4603 21.8615 40.3191C21.6998 40.1881 21.5483 40.0268 21.4068 39.8856C21.2654 39.7243 21.134 39.563 21.033 39.3714C20.6895 39.1093 20.4672 38.7262 20.2853 38.333C20.1136 37.9297 19.9822 37.5164 19.8004 37.103C19.6791 36.6695 19.6387 36.1957 19.6892 35.742C19.7499 35.2782 19.9115 34.8447 20.1439 34.4717C20.4975 34.1692 20.7501 33.8869 21.0128 33.5845C21.2755 33.3022 21.5382 33.0098 21.8514 32.7981C22.4879 32.4251 23.0537 31.9411 23.771 31.8806C24.4177 31.6488 25.0744 31.5983 25.6503 31.3161C26.2565 31.1144 26.9435 31.4471 27.4386 30.9531C27.7215 30.8624 28.0145 30.8825 28.3075 30.8926C28.5904 30.8926 28.8733 30.8825 29.1259 30.7111C29.6311 30.3885 30.1867 30.6002 30.6919 30.5599C31.1971 30.5196 31.672 30.4893 32.1266 30.4692C33.1572 30.4188 34.0766 30.4087 34.8748 30.4087C35.6729 30.4087 36.3499 30.4389 36.8954 30.449C37.9866 30.4793 38.5827 30.5398 38.5928 30.6204C38.5928 30.7111 37.8856 30.822 36.5317 30.9531C35.188 31.0741 33.238 31.185 30.793 31.5076C30.308 31.5782 29.823 31.8403 29.2774 31.7395C29.0147 31.7697 28.7521 31.8504 28.4894 31.921C28.2267 31.9915 27.9539 32.042 27.6609 32.042C27.1557 32.415 26.5495 32.3242 25.9635 32.4553C25.3977 32.6267 24.7713 32.7174 24.2358 33.0501C23.9832 33.2417 23.6902 33.3324 23.3972 33.4534C23.2457 33.5038 23.1042 33.5643 22.9729 33.645C22.8314 33.7155 22.7001 33.8063 22.5889 33.9071C22.2858 33.9978 22.013 34.1692 21.7908 34.391C21.5786 34.6128 21.427 34.8749 21.3563 35.1572C21.1441 35.3589 21.0633 35.6311 21.0633 35.9033C21.0633 36.1755 21.1239 36.4477 21.2048 36.73C21.1643 37.0425 21.2755 37.3652 21.4674 37.6475C21.6695 37.9197 21.9221 38.1717 22.1848 38.4036C22.7001 38.8774 23.1648 39.4723 23.8014 39.8957C24.3772 40.4099 25.0946 40.7527 25.7513 41.2063C26.499 41.5189 27.2365 41.8617 27.9135 42.3658C28.6914 42.6581 29.4391 43.0614 30.2373 43.3941C31.0657 43.626 31.8437 44.0393 32.6823 44.3015C33.531 44.5434 34.2888 45.1181 35.2385 45.0979C36.1175 45.3197 36.9763 45.6222 37.8856 45.7936L38.1685 45.8742L38.3099 45.9146L38.5625 45.9751C38.9161 46.0557 39.2799 46.1364 39.6436 46.2271C40.3609 46.3884 41.0884 46.5296 41.8461 46.6808C41.6542 46.8522 41.4723 47.0336 41.2804 47.2151C40.8055 47.5377 40.4216 47.8099 40.078 48.1023C39.9063 48.2435 39.7446 48.3846 39.5931 48.5258L39.3607 48.7375L39.2496 48.8484L39.1788 48.9189L39.1485 48.9492C39.0071 49.1206 38.8656 49.3121 38.7343 49.4936C38.6029 49.6852 38.4918 49.8767 38.3706 50.0683C37.8957 50.8244 37.4208 51.5402 37.0975 52.3165C36.8348 53.113 36.7035 53.9195 36.7439 54.7362C36.7641 54.837 36.7742 54.9378 36.7843 55.0386C36.8045 55.1394 36.8146 55.2403 36.8348 55.3411C36.855 55.5427 36.8954 55.7444 36.9258 55.946C36.9561 56.1476 37.0268 56.3493 37.0773 56.5408C37.148 56.7324 37.239 56.9239 37.34 57.1054C37.4612 57.2768 37.5522 57.4583 37.6431 57.6498C37.7441 57.8313 37.825 58.0229 37.926 58.2043C38.118 58.5774 38.3402 58.9403 38.6433 59.2327C39.2293 59.8477 39.8356 60.4122 40.3508 61.0877C40.9671 61.6523 41.4622 62.3782 42.2705 62.6807C42.614 62.9025 43.008 63.0638 43.3718 63.2654C43.9679 63.5981 44.6246 64.0417 45.0388 64.5156C45.2207 64.6063 45.3925 64.7071 45.5541 64.8079L45.6754 64.8785L45.6451 64.9088L45.5844 64.9491L45.352 65.1205C45.0287 65.3524 44.7054 65.5641 44.3922 65.7758C44.2407 65.8867 44.079 65.9875 43.9376 66.0883L43.7153 66.2496L43.5233 66.3908C43.3718 66.5118 43.2202 66.6529 43.099 66.8041C42.715 66.9453 42.4119 67.2074 42.1493 67.4796C42.0179 67.6208 41.8967 67.772 41.7754 67.9131C41.6542 68.0543 41.5228 68.1954 41.4016 68.3366C41.1187 68.5886 40.8358 68.8306 40.5933 69.1028C40.4721 69.2339 40.3407 69.3649 40.2397 69.5162C40.1387 69.6674 40.0376 69.8186 39.9568 69.9698C39.876 70.1311 39.785 70.2824 39.684 70.4235C39.583 70.5647 39.4718 70.7058 39.3708 70.8369C39.1687 71.1192 38.9464 71.3813 38.8151 71.6938C38.7747 71.8652 38.704 72.0064 38.6231 72.1576C38.5524 72.3088 38.4615 72.4399 38.3706 72.581C38.2796 72.7222 38.2089 72.8633 38.1483 73.0146C38.0877 73.1658 38.0371 73.317 38.0472 73.4884C37.9967 73.6396 37.9563 73.7909 37.9159 73.9421C37.8755 74.0933 37.8654 74.2445 37.8351 74.3958C37.7744 74.6982 37.7744 75.0007 37.7138 75.293C37.8149 75.4443 37.8553 75.5854 37.8755 75.7366C37.8755 75.8072 37.8755 75.8778 37.8755 75.9484C37.8755 76.0189 37.8755 76.0895 37.8755 76.1601C37.8654 76.3012 37.8351 76.4525 37.825 76.5936C37.825 76.7348 37.8149 76.886 37.825 77.0271C37.825 77.1683 37.8856 77.2993 37.9361 77.4304C37.9967 77.5615 38.0472 77.6824 38.1079 77.8135C38.1786 77.9345 38.2291 78.0555 38.2695 78.1865C38.2998 78.3176 38.32 78.4587 38.32 78.5999C38.5726 78.7814 38.6737 79.0132 38.7848 79.2451C38.8353 79.3661 38.8757 79.4871 38.9161 79.6182C38.9566 79.7391 39.0071 79.8601 39.0677 79.9811C39.1283 80.092 39.199 80.2029 39.2698 80.3037C39.3506 80.4045 39.4415 80.4852 39.5223 80.5759C39.6941 80.7574 39.8457 80.9389 39.9568 81.1607C40.1993 81.2615 40.3205 81.4631 40.462 81.6446C40.5933 81.8362 40.7146 82.0378 40.9065 82.1588C41.0278 82.3503 41.1995 82.4915 41.3612 82.6225C41.442 82.683 41.5329 82.7435 41.6138 82.8141C41.6946 82.8746 41.7855 82.9351 41.8562 83.0057C42.028 83.1065 42.1897 83.2174 42.3412 83.3384C42.4928 83.4593 42.6342 83.5702 42.7555 83.7114C42.8969 83.8223 43.0384 83.9231 43.1697 84.0239C43.3111 84.1147 43.4425 84.2155 43.5738 84.2961C43.7658 84.4272 43.9477 84.5583 44.1194 84.6692C44.2912 84.7801 44.4629 84.891 44.6145 84.9817C44.766 85.0825 44.9075 85.1733 45.0388 85.2539C45.1702 85.3346 45.2914 85.4051 45.3925 85.4757C45.8067 85.7479 46.0189 85.9092 45.9987 85.9596L45.8976 85.9798Z" fill="#0061EF"/>
<path d="M59.8733 30.6105C59.8834 30.4996 60.924 30.4492 62.8336 30.4088C63.1569 30.4088 63.5004 30.3887 63.8641 30.3988C64.2279 30.3887 64.6219 30.3685 65.0361 30.4088C65.4403 30.5701 65.905 30.1971 66.3395 30.4492C66.7941 30.5399 67.269 30.5399 67.7742 30.5399C68.2793 30.5399 68.7845 30.7415 69.3402 30.6911C69.6332 30.5903 69.8959 30.7113 70.1586 30.8222C70.4314 30.9331 70.6941 31.044 71.0174 30.9331C71.6034 30.9633 72.1995 31.1246 72.8057 31.296C73.3513 31.659 74.0383 31.6489 74.6849 31.8606C75.2305 32.3446 75.8772 32.526 76.6046 32.7781C77.0391 33.4838 77.5947 33.8669 78.3222 34.4416C78.5445 34.8247 78.6657 35.2683 78.7061 35.722C78.7465 36.1756 78.7162 36.6293 78.6657 37.0729C78.5546 37.5065 78.3929 37.9198 78.1908 38.3029C77.9787 38.6759 77.7261 39.0288 77.4331 39.3313C77.0694 40.1378 76.4025 40.7125 75.6246 41.0754C75.1194 41.7912 74.3414 42.2046 73.5433 42.5373C72.7451 42.8599 72.1591 43.5858 71.2801 43.7975C70.492 44.1705 69.714 44.6041 68.8755 44.8964C68.0066 45.1384 67.1276 45.3501 66.3496 45.8643C65.511 46.2272 64.6522 46.5801 63.7227 46.7112C62.9043 47.2253 61.9546 47.3564 61.0048 47.4371C60.9038 47.4673 60.8129 47.4875 60.7118 47.5177L60.5603 47.548C60.5603 47.548 60.53 47.548 60.5401 47.548H60.5199C60.5199 47.548 60.4492 47.548 60.4087 47.548C60.3683 47.548 60.3178 47.548 60.2673 47.548C60.2269 47.548 60.1764 47.5581 60.1764 47.5782C60.2168 47.5984 60.2673 47.6286 60.3178 47.6488C60.3178 47.6689 60.3582 47.6992 60.3986 47.7194C60.4188 47.7294 60.429 47.7395 60.4492 47.7496H60.4694L60.4795 47.7698C60.4795 47.7698 60.4795 47.7698 60.4593 47.7496L60.4896 47.7799C60.6714 47.9613 60.8432 48.1428 61.015 48.3344C61.1867 48.5259 61.3282 48.7477 61.4696 48.9594C62.0354 49.8365 62.4901 50.7439 62.9952 51.6815C63.1266 51.9134 63.2074 52.1654 63.2882 52.4175C63.3489 52.6796 63.3893 52.9417 63.4196 53.2039C63.46 53.7382 63.4499 54.2625 63.4398 54.7867C63.3994 54.9178 63.3691 55.0489 63.3387 55.1698C63.3084 55.2908 63.2781 55.4219 63.2579 55.5529C63.2175 55.805 63.167 56.057 63.1266 56.3091C63.0862 56.5611 63.0255 56.8031 62.9548 57.0551C62.8841 57.2971 62.7831 57.529 62.6719 57.7508C62.5709 57.9726 62.4597 58.2045 62.3284 58.4162C62.1971 58.6279 62.0657 58.8295 61.9243 59.0312C61.6515 59.4345 61.3686 59.8075 61.1261 60.2309C60.5704 61.0072 59.9642 61.723 59.2165 62.2574C59.0044 62.701 58.6507 62.9933 58.2567 63.2252C58.0647 63.3462 57.8627 63.447 57.6707 63.568C57.4787 63.6789 57.2969 63.81 57.1251 63.9511C56.721 64.1528 56.3674 64.3947 56.0238 64.6568L55.9834 64.6871L55.9531 64.7073L55.9026 64.7476L55.8016 64.8282C55.7207 64.8887 55.7106 64.8988 55.65 64.9291C55.65 64.9593 55.5793 64.9795 55.6197 64.9996C55.6399 65.0299 55.65 65.0601 55.6702 65.1005C55.6803 65.1206 55.7005 65.1408 55.7106 65.1609C55.7106 65.1609 55.7308 65.1811 55.7409 65.1912H55.7611L55.8016 65.2315C55.9632 65.3626 56.135 65.4836 56.3168 65.5844C56.6199 65.8667 56.9433 66.1086 57.2666 66.3708C57.4181 66.5018 57.5697 66.643 57.7111 66.7841C57.8526 66.9253 57.9839 67.0765 58.095 67.258C58.4386 67.4798 58.6912 67.8024 58.9134 68.1351C59.0246 68.2964 59.1357 68.4577 59.2468 68.619C59.358 68.7803 59.4792 68.9316 59.6308 69.0626C59.752 69.2138 59.8632 69.3752 59.9743 69.5365C60.0854 69.6978 60.1966 69.849 60.2976 70.0103C60.4896 70.343 60.7017 70.6656 60.8432 71.0185C60.8634 71.2201 60.9139 71.4016 60.9745 71.5831C61.0352 71.7645 61.1059 71.9259 61.1968 72.0972C61.2877 72.2586 61.3585 72.43 61.4393 72.5913C61.5201 72.7626 61.6111 72.924 61.6515 73.0954C61.6919 73.2768 61.7424 73.4482 61.803 73.6196C61.8636 73.791 61.894 73.9725 61.9445 74.1439C62.0354 74.4967 62.0455 74.8597 61.9849 75.2125C61.9849 75.3839 61.9647 75.5654 61.9546 75.7368C61.9546 75.8275 61.9445 75.9082 61.9243 75.9888C61.9142 76.0796 61.894 76.1602 61.8839 76.2409C61.8535 76.4022 61.8434 76.5736 61.8232 76.7349C61.7929 76.8962 61.7828 77.0676 61.7828 77.2289C61.7626 77.3902 61.702 77.5515 61.6212 77.6927C61.5403 77.8439 61.4595 77.985 61.3888 78.1161C61.308 78.2472 61.2271 78.3883 61.1867 78.5295C61.1463 78.6807 61.1261 78.842 61.1463 79.0134C61.0453 79.3058 60.8533 79.5477 60.6512 79.7695C60.5603 79.8804 60.4694 79.9913 60.3986 80.1224C60.3279 80.2434 60.2673 80.3744 60.237 80.5257C60.2067 80.6769 60.1461 80.808 60.0753 80.9289C60.0046 81.0499 59.9036 81.1407 59.8025 81.2415C59.6005 81.433 59.3883 81.5843 59.1963 81.7657C59.0145 81.9472 58.8427 82.1388 58.6608 82.3001C58.479 82.4614 58.2971 82.6227 58.1254 82.7739C56.5088 84.1148 55.0539 84.881 54.0537 85.3549C53.5586 85.5968 53.1545 85.7481 52.8817 85.8388C52.6089 85.9295 52.4674 85.9598 52.4472 85.9295C52.427 85.8892 52.5685 85.7682 52.8615 85.5767C53.0029 85.4758 53.1848 85.365 53.407 85.2339C53.6192 85.0927 53.8718 84.9314 54.1446 84.75C54.7003 84.387 55.3772 83.9232 56.135 83.3385C56.8826 82.7437 57.701 82.0279 58.479 81.1306C58.6406 80.9592 58.7518 80.7273 58.8831 80.5156C58.9437 80.4148 59.0246 80.3139 59.0953 80.2131C59.166 80.1123 59.2569 80.0216 59.3681 79.951C59.4388 79.8502 59.5095 79.7393 59.5702 79.6183C59.6207 79.4973 59.6813 79.3864 59.7318 79.2654C59.8531 79.0336 59.944 78.7916 60.1157 78.5698C60.1157 78.4186 60.1258 78.2875 60.1562 78.1463C60.1865 78.0153 60.237 77.8943 60.2976 77.7632C60.3481 77.6322 60.3986 77.5112 60.4593 77.3801C60.5199 77.2491 60.5704 77.118 60.6007 76.9869C60.6209 76.8458 60.6512 76.7046 60.6815 76.5635C60.7017 76.4224 60.7219 76.2812 60.7422 76.1401L60.7624 75.9183C60.7624 75.8477 60.7624 75.767 60.7624 75.6965C60.7624 75.5452 60.7422 75.4041 60.7118 75.2529C60.6007 74.9605 60.6209 74.658 60.5805 74.3556C60.5603 74.2044 60.5603 74.043 60.53 73.8918C60.4896 73.7406 60.4492 73.5894 60.3784 73.4482C60.3582 72.7929 60.0753 72.1678 59.6106 71.6536C59.5398 71.3109 59.3378 71.0286 59.1357 70.7463C59.0347 70.6051 58.9134 70.4741 58.8023 70.343C58.6912 70.2119 58.58 70.0708 58.4689 69.9297C58.4083 69.7482 58.3274 69.5869 58.2264 69.4356C58.1254 69.2844 58.0041 69.1433 57.8728 69.0122C57.6202 68.7501 57.307 68.5283 57.014 68.2964C56.8725 68.1754 56.7311 68.0544 56.5896 67.9234C56.4482 67.7923 56.3168 67.6612 56.1855 67.5201C55.9127 67.258 55.6298 66.9858 55.3166 66.7539C55.1751 66.6228 55.0236 66.4917 54.8619 66.3708C54.7205 66.2699 54.5891 66.159 54.4477 66.0582C54.2961 65.9473 54.1446 65.8364 53.993 65.7356C53.6899 65.5138 53.3767 65.292 53.0736 65.0702L52.8412 64.8988L52.7806 64.8585C52.7806 64.8585 52.7301 64.8282 52.7604 64.8182L52.8817 64.7476C53.0433 64.6468 53.2151 64.556 53.3767 64.4552C53.6495 64.2536 53.9728 64.0217 54.2355 63.8402L54.6599 63.5478L55.0842 63.2656C55.4176 63.0236 55.7713 62.822 56.1451 62.6304C56.7614 62.0759 57.4484 61.6021 58.0647 61.0375C58.6103 60.4023 59.2671 59.868 59.7722 59.1824C60.0147 58.8396 60.3077 58.5372 60.5704 58.1944C60.7017 58.0331 60.8129 57.8516 60.9038 57.6601C60.9947 57.4685 61.0554 57.2669 61.0857 57.0451C61.3888 56.2788 61.6818 55.5025 61.6818 54.6758C61.7727 53.8693 61.6818 53.0224 61.3181 52.2562C61.2978 51.8126 61.1463 51.3992 60.9038 51.0262C60.6714 50.6532 60.3582 50.3306 60.045 50.0079C59.8834 49.8466 59.7419 49.6752 59.5904 49.5139C59.4287 49.3526 59.2772 49.1913 59.1357 49.0199C58.8023 48.6973 58.4588 48.3848 58.1254 48.0621C57.7919 47.7395 57.4585 47.4371 57.1251 47.1447C56.9129 46.9632 56.6907 46.7817 56.4785 46.6003C57.8425 46.3079 59.1862 46.0256 60.5199 45.7433C61.3888 45.4509 62.3284 45.4106 63.167 45.0477C63.9955 44.6847 64.925 44.6444 65.7232 44.2512C66.5314 43.8883 67.3195 43.5354 68.1682 43.3438C68.9563 43.0212 69.8454 42.9002 70.492 42.3155C71.2195 41.8921 71.7751 41.2367 72.6542 41.1561C73.2806 40.6621 74.0989 40.4503 74.6041 39.8454C74.7961 39.7849 74.9678 39.6942 75.1194 39.5732C75.2709 39.4623 75.4124 39.3313 75.5336 39.1901C75.665 39.0591 75.766 38.8977 75.8873 38.7566C75.9984 38.6054 76.1095 38.4743 76.2207 38.3332C76.4733 38.0811 76.6955 37.819 76.8875 37.5468C77.0593 37.2645 77.1906 36.962 77.2108 36.6596C77.231 36.3571 77.2512 36.1051 77.2613 35.8429C77.2613 35.5808 77.2108 35.3086 77.0593 35.0868C76.8471 34.8953 76.7157 34.6533 76.544 34.4113C76.3621 34.1794 76.1398 33.9375 75.8266 33.8467C75.3215 33.4838 74.7254 33.2721 74.1798 32.9898C73.9979 33.0301 73.8363 33.02 73.6948 32.9898C73.5433 32.9595 73.4018 32.8991 73.2705 32.8285C72.9977 32.6873 72.735 32.5059 72.4521 32.4151C71.8863 32.2135 71.2599 32.3849 70.7547 32.0018C70.4516 32.0925 70.1788 32.0522 69.9161 31.9715C69.6534 31.8909 69.4008 31.7699 69.1381 31.6892C68.6229 31.5279 68.0874 31.6791 67.6226 31.4573C67.1174 31.6086 66.6729 31.2456 66.2182 31.286C65.7737 31.1146 65.3392 31.2154 64.9351 31.1549C64.5209 31.1751 64.1369 31.1549 63.7833 31.0541C63.4196 31.0238 63.0761 31.0037 62.7629 30.9734C60.8533 30.8121 59.8126 30.671 59.8227 30.5601L59.8733 30.6105Z" fill="#0061EF"/>
</g>
<defs>
<clipPath id="clip0_4159_26033">
<rect width="83" height="85" fill="white" transform="translate(7 1)"/>
</clipPath>
</defs>
</svg>
