<svg width="90" height="85" viewBox="0 0 90 85" fill="none" xmlns="http://www.w3.org/2000/svg">
<path d="M47.637 22C57.2263 22 65 31.4698 65 43.1511C64.9998 53.4528 42.1259 75.0189 34.2922 79.9702C33.9386 80.6342 33.4988 81 32.9544 81C32.8325 81 32.6805 80.9675 32.4997 80.9072C32.3191 80.9673 32.1674 81 32.0456 81C31.5011 81 31.0607 80.6344 30.7072 79.9702C22.8729 75.0182 0.000173966 53.4525 0 43.1511C0 31.4698 7.7737 22 17.363 22C23.86 22 29.5225 26.3476 32.4997 32.7841C35.4767 26.3474 41.1399 22 47.637 22Z" fill="#FFEDDE"/>
<g clip-path="url(#clip0_1617_23454)">
<path d="M51.5929 4.96396C51.5929 4.96396 51.3835 5.21467 50.9446 5.56566C50.5058 5.93671 49.8475 6.47824 49.1194 7.27047C49.0595 7.34067 48.9997 7.40084 48.9299 7.47104C48.87 7.54124 48.8102 7.62147 48.7503 7.69166C48.6306 7.84209 48.501 7.99251 48.3813 8.16299C48.1419 8.49393 47.9125 8.86498 47.6632 9.24605C47.4836 9.40651 47.4138 9.63716 47.354 9.87784C47.3241 9.99818 47.2941 10.1185 47.2343 10.2288C47.1844 10.3391 47.1246 10.4495 47.0248 10.5397C46.7555 10.9709 46.6558 11.5024 46.566 12.044C46.5461 12.1843 46.5261 12.3147 46.4962 12.4551C46.4763 12.5253 46.4663 12.5955 46.4463 12.6557C46.4364 12.7259 46.4264 12.7961 46.4064 12.8663C46.3865 13.0067 46.3666 13.1471 46.3566 13.2975C46.3566 13.4479 46.3566 13.5883 46.3965 13.7387C46.4264 13.819 46.4463 13.8892 46.4563 13.9594C46.4563 14.0396 46.4663 14.1198 46.4563 14.2C46.4463 14.3605 46.4064 14.5209 46.3765 14.6814C46.3067 15.0023 46.2469 15.3332 46.4164 15.6642C46.4962 16.3361 46.4663 17.028 46.4563 17.74C46.2469 18.452 46.4563 19.1841 46.4862 19.9463C46.2369 20.6984 46.3466 21.4706 46.5162 22.2728C46.177 23.0651 46.2269 23.8774 46.5461 24.7097C46.5561 25.5421 46.4264 26.3945 46.576 27.2569C46.596 28.1294 46.6658 29.0119 46.6059 29.9144C46.8353 30.817 46.8254 31.7295 46.6259 32.6722C46.8653 33.6048 46.7755 34.5575 46.6458 35.5202C46.576 36.0016 46.6358 36.483 46.6757 36.9743C46.7356 37.4256 46.7855 37.8568 46.7755 38.3181C46.8353 38.7694 46.965 39.2006 47.1146 39.6318C47.2044 39.8424 47.2742 40.0631 47.3739 40.2737L47.5136 40.5946C47.5634 40.6948 47.6133 40.8052 47.6632 40.9054C47.9923 41.7779 48.511 42.6504 49.3388 43.2019C50.0569 43.8638 50.8648 44.4053 51.6228 45.0672C52.6003 45.3881 53.4281 45.9296 54.3358 46.431C55.2933 46.762 56.2607 47.2133 57.328 47.2634C58.3553 47.494 59.4225 47.4339 60.4797 47.5442C61.537 47.6244 62.6241 47.6044 63.6315 47.2634C64.1302 47.0929 64.6389 46.9826 65.1476 46.8823C65.3969 46.8322 65.6463 46.762 65.9056 46.7018C66.1549 46.6216 66.3943 46.5514 66.6337 46.4411C66.893 46.401 67.1424 46.3408 67.3817 46.2305C67.5014 46.1803 67.6111 46.1302 67.7308 46.07C67.8405 46.0099 67.9502 45.9397 68.06 45.8795C68.4988 45.6187 68.8978 45.3079 69.3466 45.0772C69.7555 44.7864 70.1844 44.5357 70.5734 44.2348C70.9724 43.944 71.3314 43.6031 71.6306 43.212C72.259 42.4699 72.7876 41.6977 73.3063 40.9155C73.3162 40.7951 73.3362 40.6748 73.3761 40.5645C73.406 40.4542 73.4359 40.3439 73.4758 40.2335C73.5656 40.0229 73.6554 39.8124 73.7651 39.6118C73.9546 39.2006 74.184 38.7794 74.2039 38.3282C74.3635 37.8969 74.3835 37.4457 74.3635 36.9844C74.3436 36.493 74.3037 36.0116 74.3336 35.5303C74.2638 34.5675 74.5032 33.6149 74.3535 32.6923C74.3835 31.7596 74.2339 30.837 74.3735 29.9345C74.184 29.0319 74.5331 28.1494 74.4034 27.277C74.4034 26.4045 74.3934 25.5621 74.4333 24.7298C74.7226 23.8974 74.4832 23.0851 74.4633 22.2929C74.4932 21.5007 74.2937 20.7285 74.4932 19.9663C74.5131 19.2142 74.6428 18.4821 74.5331 17.7601C74.4932 17.0481 74.962 16.3561 74.573 15.6842C74.5331 15.3533 74.6129 15.0224 74.6627 14.6914C74.6927 14.531 74.7126 14.3705 74.7026 14.2101C74.7026 14.1298 74.7026 14.0496 74.6827 13.9694C74.6627 13.8892 74.6428 13.819 74.6029 13.7488C74.5331 13.5983 74.5032 13.4579 74.4932 13.3175C74.4633 13.1772 74.4633 13.0368 74.4633 12.8964V12.6858C74.4633 12.6156 74.4633 12.5454 74.4633 12.4752C74.4633 12.3348 74.4533 12.1944 74.4234 12.064C74.2937 11.5325 74.164 11.0211 73.9646 10.5598C73.5456 9.50679 72.9871 8.63433 72.4286 7.93234C71.87 7.22033 71.3215 6.68883 70.8527 6.26764C70.733 6.16736 70.6233 6.06708 70.5235 5.97682C70.4138 5.88657 70.3141 5.80634 70.2243 5.72611C70.1345 5.64589 70.0448 5.57569 69.975 5.51552C69.8952 5.45535 69.8254 5.39518 69.7555 5.34504C69.5062 5.13444 69.3765 5.0141 69.3965 4.97399C69.4164 4.93388 69.6159 5.0141 69.9849 5.19461C70.344 5.38515 70.8726 5.69603 71.501 6.18742C72.1293 6.66878 72.8674 7.34067 73.5756 8.26328C73.6653 8.38362 73.7551 8.50396 73.8449 8.6243C73.9346 8.74464 74.0144 8.875 74.1042 9.00537C74.2837 9.26611 74.4333 9.55693 74.5929 9.84775C74.8921 10.4495 75.1614 11.1213 75.3609 11.8534C75.3908 12.0038 75.4407 12.1543 75.4906 12.3047C75.5105 12.3849 75.5404 12.4551 75.5604 12.5353C75.5803 12.6156 75.6003 12.6858 75.6202 12.766C75.6502 12.9264 75.6801 13.0869 75.6901 13.2473C75.6901 13.4078 75.6801 13.5783 75.6402 13.7488C75.6402 13.829 75.6402 13.9092 75.6601 13.9995C75.6601 14.0797 75.6701 14.1599 75.6801 14.2402C75.6901 14.4006 75.71 14.5611 75.72 14.7215C75.7399 15.0424 75.7499 15.3734 75.6901 15.7143C75.9594 16.3862 75.7399 17.0782 75.7299 17.7902C75.7399 18.5022 75.6502 19.2343 75.7698 19.9964C75.9294 20.7485 75.6901 21.5207 75.7998 22.323C75.6302 23.1152 75.6801 23.9275 75.8297 24.7599C75.6701 25.5922 75.8596 26.4446 75.8596 27.307C75.6103 28.1695 75.7798 29.062 75.8895 29.9646C75.9793 30.8671 75.8496 31.7797 75.9095 32.7123C75.8596 33.6449 75.9693 34.5976 75.9294 35.5603C75.9893 36.0417 76.0292 36.5331 76.0391 37.0145C76.0391 37.546 75.9893 38.0975 75.8197 38.619C75.7798 39.1605 75.6402 39.692 75.4607 40.2135C75.3609 40.4642 75.2711 40.7249 75.1515 40.9756C75.0916 41.096 75.0417 41.2263 74.9819 41.3467L74.7924 41.7177C74.6927 41.9785 74.553 42.2192 74.4234 42.4598C74.2738 42.6905 74.1241 42.9312 73.9546 43.1418L73.6953 43.4727L73.426 43.7836C73.2464 43.9942 73.0569 44.1947 72.8674 44.4053C72.4984 44.8265 72.0496 45.1574 71.5907 45.4784C71.1419 45.8093 70.6831 46.1101 70.2941 46.5414C69.3666 47.1832 68.3193 47.6144 67.282 48.0757C66.2148 48.4568 65.0977 48.7175 63.9906 48.9983C62.8136 48.9281 61.7065 49.1989 60.5396 49.3092C59.3726 49.3894 58.2057 49.239 57.0886 48.9983C55.9515 48.8178 54.8444 48.5069 53.7872 48.0757C53.5179 47.9854 53.2486 47.8952 52.9993 47.7648L52.6202 47.5743L52.2512 47.3637C51.7525 47.0929 51.2837 46.7921 50.785 46.5313C50.2863 46.2706 49.8375 45.9196 49.4286 45.5385C49.0097 45.1675 48.6306 44.7563 48.2018 44.4053C47.3839 43.6532 46.6558 42.7607 46.2768 41.7177C46.2169 41.5974 46.1571 41.467 46.0973 41.3467C46.0474 41.2263 45.9975 41.096 45.9576 40.9656C45.8579 40.7149 45.798 40.4441 45.7182 40.1834C45.5886 39.6519 45.4489 39.1405 45.2495 38.629C45.1298 38.1075 45.0101 37.556 44.9702 37.0245C44.9303 36.5331 44.9502 36.0517 45.1398 35.5704C45.04 34.6077 45.3193 33.655 45.1597 32.7223C45.439 31.7897 45.1697 30.8671 45.1796 29.9646C45.2295 29.062 45.3293 28.1795 45.2096 27.307C45.0799 26.4346 45.2794 25.5922 45.2395 24.7599C45.0799 23.9275 45.4489 23.1152 45.2694 22.323C45.3093 21.5307 45.2495 20.7586 45.2993 19.9964C44.9203 19.2443 45.2993 18.5122 45.3392 17.7902C45.3991 17.0782 45.0899 16.3862 45.3791 15.7143C45.2395 15.3834 45.2295 15.0524 45.2594 14.7315C45.2794 14.5711 45.3093 14.4106 45.3392 14.2502C45.3592 14.17 45.3692 14.0897 45.3791 14.0095C45.3991 13.9293 45.409 13.839 45.419 13.7588C45.4489 13.5983 45.4589 13.4279 45.4589 13.2674C45.4689 13.107 45.4789 12.9465 45.4888 12.786C45.4888 12.7058 45.4888 12.6256 45.5088 12.5454C45.5188 12.4651 45.5387 12.3949 45.5487 12.3147C45.5886 12.1643 45.6285 12.0139 45.6983 11.8735C45.6983 11.713 45.7083 11.5626 45.7482 11.4222C45.7681 11.352 45.7881 11.2818 45.818 11.2116C45.8479 11.1414 45.8778 11.0812 45.9177 11.011C45.9875 10.8807 46.0574 10.7503 46.1272 10.63C46.187 10.4996 46.2568 10.3793 46.2967 10.2489C46.3865 10.1386 46.4463 10.0182 46.5162 9.89789C46.586 9.77755 46.6458 9.66724 46.6957 9.5469C46.7954 9.30622 46.9251 9.0856 47.0647 8.87501C47.2842 8.43376 47.5734 8.05268 47.9125 7.76186C48.0522 7.59138 48.2018 7.44096 48.3414 7.30056C48.4112 7.23036 48.481 7.15013 48.5509 7.07994C48.6207 7.00974 48.6905 6.94957 48.7603 6.87937C49.5881 6.10719 50.3262 5.63586 50.8349 5.34504C51.3436 5.06425 51.6328 4.95393 51.6627 4.99405L51.5929 4.96396Z" fill="#0061EF"/>
<path d="M83.8846 60.3204C83.9943 60.3204 84.0941 61.1227 84.1838 62.5969C84.1938 62.8375 84.2138 63.1083 84.2337 63.3891C84.2636 63.6699 84.2935 63.9707 84.2736 64.2916C84.134 64.6125 84.5329 64.9435 84.3135 65.2945C84.2536 65.6455 84.3135 66.0165 84.3534 66.3976C84.4033 66.7787 84.2636 67.1798 84.3933 67.591C84.6626 68.0021 84.0941 68.4333 84.4332 68.8846C84.503 69.3259 84.4831 69.7872 84.4731 70.2585C84.2636 70.7298 84.4731 71.2212 84.503 71.7226C84.2636 72.214 84.3534 72.7555 84.493 73.3171C84.2935 73.5779 84.1838 73.8386 84.1639 74.1194C84.124 74.4002 84.1639 74.691 84.2636 75.0119C84.134 75.5835 83.8547 76.115 83.7649 76.7368C83.6752 77.0276 83.5555 77.3084 83.4358 77.6092C83.3261 77.9001 83.1565 78.1708 82.987 78.4416C82.8772 79.1135 82.4783 79.6651 81.9197 80.0562C81.8898 80.1364 81.8599 80.2266 81.83 80.2968C81.7901 80.3771 81.7502 80.4473 81.7003 80.5175C81.6105 80.6579 81.5008 80.7882 81.3811 80.9086C81.2714 81.0389 81.1318 81.1392 80.9922 81.2395C80.8525 81.3398 80.7129 81.4401 80.5633 81.5303C80.2641 81.7008 80.0347 81.9615 79.7953 82.2223C79.5459 82.4629 79.2866 82.7036 78.9375 82.8139C78.3391 83.175 77.7506 83.5861 77.0724 83.8268C76.8929 83.8769 76.7233 83.9171 76.5438 83.9672C76.3642 84.0073 76.1947 84.0474 76.0151 84.0976C75.8456 84.1477 75.676 84.2079 75.5065 84.2781C75.3369 84.3483 75.1674 84.4185 74.9978 84.5188C74.8183 84.5689 74.6387 84.6291 74.4692 84.6892C74.2896 84.7394 74.1101 84.7695 73.9206 84.7995C73.7311 84.8296 73.5516 84.8597 73.3621 84.8697C73.1726 84.8697 72.9831 84.8697 72.7935 84.8397C72.604 84.9099 72.4145 84.96 72.225 85.0001C72.0355 85.0202 71.846 85.0202 71.6465 85.0001C71.457 85.0001 71.2675 84.95 71.078 84.9099C70.9883 84.8898 70.8885 84.8597 70.7987 84.8397L70.5195 84.7494C69.7415 84.6892 69.0334 84.3382 68.2554 84.2279C67.8963 84.0775 67.5173 83.9772 67.1483 83.8268C67.0585 83.7867 66.9588 83.7566 66.869 83.7165C66.7792 83.6764 66.6895 83.6262 66.5997 83.5861C66.4202 83.4959 66.2506 83.3956 66.091 83.2752C65.9314 83.1549 65.7719 83.0346 65.6123 82.9142L65.3729 82.7437L65.1435 82.5632C64.9839 82.4429 64.8243 82.3426 64.6647 82.2323C64.5052 82.122 64.3356 82.0117 64.166 81.9214C64.0763 81.8713 63.9865 81.8312 63.9067 81.771C63.8269 81.7108 63.7571 81.6507 63.6773 81.5805C63.5377 81.4501 63.3981 81.3097 63.2684 81.1593C63.1487 81.0088 63.029 80.8484 62.8994 80.698L62.7098 80.4773C62.65 80.4071 62.5902 80.3269 62.5203 80.2567C62.4505 80.0662 62.3508 79.9057 62.2311 79.7553C62.1314 79.5948 62.0017 79.4545 61.882 79.304L61.6925 79.0834C61.6327 79.0132 61.5828 78.933 61.5229 78.8528C61.4132 78.6923 61.3135 78.5318 61.2337 78.3614C60.8547 77.6995 60.6851 76.9674 60.336 76.3056C60.2662 76.1351 60.1864 75.9646 60.1366 75.7841C60.0767 75.6136 60.0269 75.4331 59.977 75.2526C59.957 75.1623 59.9271 75.0721 59.9072 74.9919C59.8872 74.9016 59.8772 74.8113 59.8673 74.7211C59.8473 74.5406 59.8274 74.3601 59.8174 74.1796C59.578 73.8486 59.568 73.4776 59.598 73.1166C59.6179 72.9361 59.6578 72.7555 59.6778 72.575C59.6977 72.3945 59.7077 72.214 59.6778 72.0536C59.8373 71.3917 59.6578 70.7499 59.6977 70.1081C59.6279 69.4663 59.8673 68.8345 59.7177 68.2227C59.7476 67.601 59.598 66.9993 59.7376 66.3976C59.5481 65.7959 59.8972 65.2142 59.7675 64.6326C59.7675 64.061 59.7576 63.4894 59.7974 62.9378C60.0867 62.3863 59.8473 61.8447 59.8274 61.3132C59.8573 60.7817 59.6578 60.2703 59.8573 59.7689C59.8772 59.2675 60.0069 58.7761 59.8972 58.3047C59.8573 57.8334 60.3261 57.3721 59.9371 56.9309C59.8673 56.4896 60.2363 56.0584 59.977 55.6372C59.7376 55.226 60.0069 54.8249 60.0169 54.4438C60.0268 54.0628 60.0468 53.6917 60.0568 53.3407C60.1864 50.1818 60.336 48.3767 60.4857 48.3767C60.6652 48.3767 60.8248 50.613 60.9644 54.4438C60.9744 54.8249 61.1838 55.226 61.0043 55.6372C61.0043 56.0484 61.1639 56.4796 61.0442 56.9309C61.3135 57.3721 61.0941 57.8334 61.0841 58.3047C61.0941 58.7761 61.0143 59.2675 61.124 59.7689C61.2836 60.2703 61.0442 60.7817 61.1539 61.3132C60.9843 61.8447 61.0342 62.3762 61.1838 62.9378C61.0242 63.4894 61.2237 64.051 61.2138 64.6326C60.9644 65.2042 61.134 65.7959 61.2437 66.3976C61.3334 66.9993 61.2038 67.611 61.2636 68.2227C61.2138 68.8445 61.3235 69.4763 61.2836 70.1081C61.4033 70.7499 61.4432 71.4017 61.3035 72.0536C61.3235 72.224 61.3434 72.3745 61.3534 72.5249C61.3634 72.6753 61.3733 72.8358 61.3733 72.9862C61.3933 73.2971 61.4132 73.6079 61.4531 73.9188C61.503 74.0692 61.5429 74.2197 61.5828 74.3701C61.6027 74.4503 61.6127 74.5205 61.6227 74.6007L61.6726 74.8314C61.7025 74.9818 61.7424 75.1423 61.7723 75.2927C61.8122 75.4532 61.8621 75.5936 61.9219 75.754C61.9917 75.9044 62.0216 76.0549 62.0715 76.2153C62.1114 76.3758 62.1613 76.5262 62.2012 76.6866C62.2411 76.8471 62.3109 76.9975 62.3907 77.1379C62.4705 77.2783 62.5802 77.4087 62.7098 77.519C62.7996 77.6494 62.8894 77.7898 62.9692 77.9402L63.0889 78.1508L63.2285 78.3614C63.3183 78.5018 63.408 78.6422 63.5078 78.7725C63.6075 78.9029 63.7172 79.0232 63.8369 79.1536L63.9865 79.3542C64.0364 79.4244 64.0962 79.4845 64.1461 79.5447C64.2558 79.6751 64.3655 79.7954 64.4752 79.9258C64.5949 80.0461 64.7246 80.1564 64.8443 80.2667L65.0438 80.4272C65.1136 80.4773 65.1834 80.5275 65.2532 80.5676C65.343 80.728 65.4427 80.8685 65.5624 80.9888C65.6921 81.1091 65.8317 81.2094 65.9813 81.2997C66.0511 81.3398 66.1309 81.3899 66.2007 81.43C66.2805 81.4701 66.3603 81.5002 66.4401 81.5303C66.5997 81.6005 66.7593 81.6607 66.9189 81.7309C67.0785 81.791 67.238 81.8612 67.3876 81.9314L67.6171 82.0418L67.8465 82.142C68.1556 82.2824 68.4648 82.4228 68.774 82.5532C69.4223 82.7437 70.0706 82.9042 70.7289 83.0145C70.8087 83.0145 70.8985 83.0145 70.9783 83.0346C71.0581 83.0346 71.1478 83.0446 71.2276 83.0546C71.3872 83.0747 71.5568 83.1048 71.7164 83.1148C71.8759 83.1348 72.0455 83.1549 72.2051 83.1549C72.3647 83.1549 72.5342 83.1348 72.6938 83.0947C72.8534 83.0546 73.013 83.0446 73.1726 83.0346C73.3321 83.0145 73.4917 83.0145 73.6513 83.0045C73.8109 83.0045 73.9804 83.0045 74.14 82.9744C74.2996 82.9443 74.4492 82.9042 74.5988 82.834C74.7484 82.7839 74.8981 82.7237 75.0477 82.6735C75.1973 82.6134 75.3369 82.5532 75.4865 82.5031C75.6361 82.4529 75.7857 82.4128 75.9354 82.3727C76.085 82.3226 76.2346 82.2824 76.3942 82.2523C76.9627 82.0217 77.6409 81.9214 78.0399 81.3999C78.2792 81.2094 78.4687 80.9487 78.6882 80.7481C78.8976 80.5275 79.127 80.367 79.4761 80.3069C79.5659 80.1865 79.6756 80.0862 79.7853 79.986C79.895 79.8857 80.0247 79.8054 80.1344 79.7052C80.2441 79.6049 80.3538 79.5046 80.4536 79.4043C80.5034 79.3542 80.5533 79.294 80.5932 79.2338C80.6331 79.1737 80.663 79.1035 80.6929 79.0333C80.8326 78.9631 80.9523 78.8628 81.052 78.7625C81.1019 78.7124 81.1517 78.6522 81.1916 78.592C81.2315 78.5319 81.2615 78.4617 81.3013 78.4015C81.431 78.1407 81.5407 77.88 81.6704 77.6293C81.82 77.3987 82.0095 77.178 82.1292 76.9273C82.2489 76.6766 82.3785 76.4359 82.3985 76.1551C82.4683 75.6136 82.8074 75.1724 82.8872 74.6509C82.8573 74.3801 82.967 74.1395 83.0568 73.8988C83.1366 73.6581 83.2164 73.4074 83.1565 73.1466C83.2164 72.6452 83.1765 72.1739 83.2263 71.6625C82.8473 71.161 83.2263 70.6697 83.2563 70.1983C83.3161 69.727 83.0069 69.2657 83.2961 68.8244C83.0069 68.3832 83.2563 67.952 83.336 67.5308C83.4158 67.1196 83.2164 66.7185 83.3759 66.3374C83.1765 65.9563 83.4857 65.5853 83.4158 65.2343C83.5455 64.8833 83.4158 64.5524 83.4557 64.2315C83.4059 63.9106 83.4258 63.6197 83.4956 63.339C83.5156 63.0582 83.5255 62.7974 83.5455 62.5467C83.6353 61.0726 83.735 60.2703 83.8447 60.2703L83.8846 60.3204Z" fill="#0061EF"/>
<path d="M83.5939 49.0083C83.5939 49.0585 83.4942 49.1186 83.3147 49.1788C83.2249 49.2089 83.1152 49.2289 82.9855 49.2791C82.8559 49.3192 82.7162 49.3693 82.5467 49.4195C82.437 49.4596 82.3272 49.5097 82.2076 49.5499C82.1477 49.5799 82.0879 49.61 82.028 49.6401C81.9682 49.6702 81.8984 49.7003 81.8385 49.7203C81.649 49.6401 81.659 50.0513 81.4396 49.9309C81.27 49.951 81.1403 50.0613 81.0207 50.1917C80.901 50.322 80.6716 50.2919 80.6017 50.5226C80.6017 50.6831 80.492 50.6831 80.3723 50.6831C80.2527 50.6831 80.1429 50.7232 80.1828 50.9137C80.133 51.004 80.0632 51.0742 80.0033 51.1544C79.9435 51.2346 79.8637 51.2948 79.7839 51.365C79.6343 51.365 79.5744 51.4653 79.5246 51.5655C79.4847 51.6759 79.4647 51.7862 79.4248 51.8965C79.1057 51.9466 79.0558 52.2074 79.1256 52.4982C78.9261 52.5283 78.7965 52.6085 78.7665 52.7288C78.7366 52.8492 78.7765 52.9996 78.8862 53.16C78.8463 53.2704 78.7965 53.3807 78.7566 53.501C78.7366 53.5612 78.7167 53.6213 78.7067 53.6815C78.7067 53.7417 78.7167 53.8119 78.7466 53.8721C78.7466 53.9924 78.7366 54.1228 78.7466 54.2431C78.7466 54.3735 78.7466 54.4938 78.7067 54.6242C78.8164 54.7545 78.8862 54.8749 78.8862 54.9952C78.8862 55.0554 78.8862 55.1256 78.8563 55.1858C78.8364 55.2459 78.8164 55.3161 78.7765 55.3863C79.0458 55.607 79.0159 55.8577 78.966 56.1585C78.9461 56.3089 79.0458 56.4192 79.1356 56.5296C79.2253 56.6399 79.3251 56.7402 79.2952 56.9106C79.3051 56.9407 79.3251 56.9708 79.3351 57.0009L79.3949 57.0911L79.5146 57.2616C79.5944 57.382 79.6841 57.4822 79.754 57.6026C79.7739 57.6728 79.7939 57.753 79.8238 57.8232C79.8537 57.8934 79.8936 57.9536 79.9335 58.0137C79.9834 58.0739 80.0332 58.1241 80.0931 58.1642C80.1629 58.2043 80.2427 58.2243 80.3325 58.2344C80.4621 58.3146 80.5818 58.3848 80.7115 58.455C80.8312 58.5352 80.9309 58.6355 81.0306 58.7659C81.4096 58.6957 81.5892 58.9163 81.8186 59.167C81.9682 59.1971 82.0879 59.2873 82.2275 59.3475C82.3671 59.4077 82.5168 59.4578 82.6763 59.4177C82.8259 59.4578 82.9756 59.4578 83.1252 59.4578C83.2748 59.4478 83.4244 59.4378 83.584 59.508C83.7336 59.5381 83.8932 59.5681 84.0527 59.5681C84.2123 59.5681 84.3619 59.508 84.4916 59.4177C84.6213 59.3074 84.7609 59.2773 84.9205 59.2773C85.0701 59.2773 85.2297 59.2472 85.3593 59.167C85.5488 59.2372 85.6685 59.1369 85.7882 59.0366L85.878 58.9664C85.878 58.9664 85.9279 58.9063 85.9578 58.8862C86.0176 58.8361 86.0775 58.796 86.1473 58.7759C86.267 58.6957 86.3966 58.6255 86.5363 58.5653C86.6659 58.5051 86.7856 58.4049 86.8455 58.2544C86.8953 58.1943 86.9352 58.1441 86.9851 58.0839C87.025 58.0238 87.0649 57.9636 87.1148 57.9135C87.1646 57.8633 87.2145 57.8132 87.2644 57.763C87.3142 57.7129 87.3641 57.6628 87.4339 57.6226C87.3641 57.392 87.4639 57.3118 87.5835 57.2215C87.7032 57.1313 87.8728 57.0711 87.8927 56.9207C88.0224 56.8304 88.0822 56.7 88.1122 56.5697C88.1421 56.4293 88.1521 56.2889 88.2219 56.1786C88.2219 56.0382 88.3017 55.9178 88.3615 55.7975C88.3815 55.7674 88.3914 55.7373 88.4114 55.7072C88.4114 55.6772 88.4313 55.6471 88.4313 55.607C88.4413 55.5368 88.4313 55.4766 88.4114 55.4064C88.4313 55.3462 88.4313 55.276 88.4413 55.2159C88.4413 55.1457 88.4313 55.0855 88.4214 55.0153C88.4114 54.8849 88.4213 54.7646 88.4912 54.6342C88.3914 54.5139 88.4214 54.3835 88.4612 54.2531C88.5011 54.1228 88.5211 53.9924 88.4413 53.8821C88.4413 53.8219 88.4213 53.7617 88.4114 53.7016C88.4014 53.6414 88.3815 53.5812 88.3715 53.5311C88.3416 53.4108 88.3316 53.2904 88.3017 53.1801C88.4014 53.0196 88.3715 52.8993 88.3017 52.799C88.2418 52.6987 88.1221 52.6185 88.0623 52.5182C88.0024 52.2876 87.7032 52.2174 87.7631 51.9165C87.7132 51.8163 87.6733 51.716 87.6334 51.6157C87.5835 51.5154 87.5237 51.4251 87.404 51.3951C87.3142 51.3349 87.3342 51.1845 87.3043 51.0641C87.2843 50.9438 87.2145 50.8636 87.005 50.9338C86.9053 50.8936 86.8953 50.7733 86.8455 50.673C86.8056 50.5727 86.7358 50.4925 86.5861 50.5427C86.3069 50.6229 86.3069 50.322 86.1672 50.2218C86.0276 50.1114 85.878 50.0412 85.7483 49.961C85.1299 49.61 84.5714 49.4395 84.1924 49.3092C83.8034 49.2089 83.584 49.1287 83.584 49.0484C83.584 49.0083 83.6538 48.9682 83.7835 48.9281C83.8533 48.908 83.9331 48.898 84.0328 48.878C84.1325 48.8579 84.2522 48.8579 84.3819 48.8579C84.9105 48.8479 85.7184 48.9381 86.626 49.3994C86.8056 49.4897 87.1048 49.4195 87.1746 49.7103C87.2644 49.7805 87.3741 49.8106 87.4838 49.8607C87.5935 49.9109 87.6833 49.9911 87.7332 50.1114C87.9127 50.0914 88.0224 50.1616 88.0822 50.2719C88.1521 50.3822 88.1919 50.5126 88.2717 50.6129C88.3615 50.7031 88.4313 50.8234 88.5011 50.9237C88.571 51.034 88.6607 51.1343 88.7804 51.2146C89.0497 51.365 89.0098 51.716 89.2193 51.9266C89.1993 52.097 89.2492 52.2274 89.2991 52.3678C89.3589 52.4982 89.4586 52.6185 89.5783 52.7389C89.5484 52.9093 89.5783 53.0497 89.6581 53.1901C89.688 53.2603 89.7279 53.3305 89.7678 53.4007C89.7978 53.4709 89.8177 53.5511 89.8277 53.6314C89.7279 53.8119 89.7379 53.9623 89.7778 54.1228C89.8077 54.2832 89.8875 54.4336 89.9474 54.6041C90.0072 54.7746 89.9773 54.9351 89.9474 55.1055C89.9374 55.1858 89.9274 55.276 89.9174 55.3562C89.9075 55.4365 89.8975 55.5267 89.8975 55.617C89.8077 55.9479 89.8277 56.319 89.6881 56.6499C89.6881 56.8404 89.6581 57.0209 89.6083 57.2015C89.5484 57.3719 89.4387 57.5324 89.2991 57.6628C89.2592 57.8533 89.1594 58.0037 89.0597 58.1642C88.9599 58.3246 88.8303 58.465 88.7206 58.6154C88.6807 58.7057 88.6408 58.796 88.5809 58.8662C88.5211 58.9364 88.4513 59.0066 88.3815 59.0767L88.172 59.2773C88.1022 59.3475 88.0224 59.4077 87.9625 59.4779C87.8329 59.6283 87.6534 59.7085 87.4738 59.7988C87.2943 59.879 87.1447 59.9994 87.0449 60.21C86.7258 60.4607 86.3368 60.571 85.9877 60.7715C85.7882 60.8217 85.5987 60.8818 85.3992 60.932C85.1998 60.9721 85.0102 61.0423 84.8108 61.1225C84.5814 61.0222 84.3819 61.0222 84.1824 61.0724C83.9829 61.1025 83.7835 61.1827 83.574 61.2429C83.3645 61.273 83.1551 61.273 82.9456 61.2529C82.7362 61.2228 82.5367 61.1727 82.3372 61.1225C82.1278 61.1025 81.9383 61.0423 81.7388 60.9922C81.5393 60.942 81.3598 60.8518 81.1703 60.7715C81.0705 60.7615 80.9708 60.7214 80.881 60.6713C80.7913 60.6211 80.7115 60.5609 80.6217 60.5108C80.4521 60.4105 80.3025 60.2701 80.103 60.22C79.9036 60.1698 79.7639 60.0194 79.6243 59.879C79.4847 59.7386 79.365 59.5882 79.1854 59.4979C79.0957 59.4478 79.0159 59.3977 78.9361 59.3375C78.8563 59.2773 78.7865 59.2071 78.7266 59.1369C78.6568 59.0667 78.597 58.9865 78.5471 58.9063C78.4972 58.826 78.4573 58.7258 78.4274 58.6355C78.3177 58.4851 78.2479 58.2945 78.188 58.1241C78.1581 58.0338 78.1182 57.9536 78.0584 57.8834C78.0285 57.8433 77.9985 57.8132 77.9586 57.7831C77.9287 57.753 77.8888 57.7229 77.839 57.6928C77.7392 57.5424 77.5697 57.4121 77.4599 57.2516C77.3602 57.0911 77.3103 56.9006 77.44 56.68C77.3403 56.5195 77.3502 56.339 77.3403 56.1585C77.3303 55.978 77.3403 55.8075 77.2305 55.6471C77.2904 55.5568 77.3103 55.4666 77.3103 55.3763C77.3103 55.2961 77.3103 55.2058 77.2904 55.1256C77.2505 54.9651 77.1707 54.7947 77.1906 54.6342C77.2206 54.4738 77.2704 54.3133 77.2904 54.1528C77.3203 53.9924 77.3403 53.842 77.3004 53.6715C77.2804 53.5913 77.2804 53.511 77.3004 53.4308C77.3203 53.3506 77.3502 53.2804 77.3802 53.2102C77.45 53.0698 77.5198 52.9294 77.5497 52.779C77.5198 52.6085 77.6295 52.4881 77.7193 52.3678C77.809 52.2475 77.9287 52.1472 77.9088 51.9767C78.0584 51.726 78.1581 51.4653 78.3476 51.2647C78.2678 51.0441 78.3476 50.9338 78.4773 50.8535C78.597 50.7733 78.7566 50.7332 78.8563 50.653C78.966 50.5727 78.9959 50.4424 79.0558 50.322C79.1156 50.2017 79.2154 50.1215 79.3949 50.1415C79.3949 49.951 79.4747 49.8607 79.5844 49.8206C79.7041 49.7805 79.8437 49.7705 79.9534 49.7404C80.1729 49.6702 80.2527 49.3994 80.502 49.4295C80.5419 49.2891 80.6416 49.259 80.7514 49.259C80.8611 49.259 80.9708 49.2691 81.0406 49.1989C81.26 49.239 81.3697 49.0685 81.5393 49.0384C81.6091 48.9883 81.6789 48.9482 81.7587 48.9381C81.8385 48.9281 81.9183 48.9281 81.9981 48.9381C82.1477 48.9181 82.2774 48.898 82.407 48.888C82.5965 48.888 82.7661 48.888 82.9057 48.888C83.0454 48.888 83.175 48.9181 83.2648 48.9381C83.4543 48.9782 83.554 49.0284 83.554 49.0785L83.5939 49.0083Z" fill="#0061EF"/>
<path d="M54.1658 0.190535C54.1658 0.300846 53.8865 0.381073 53.4876 0.591667C53.4277 0.63178 53.3579 0.671894 53.2781 0.722035C53.2183 0.792234 53.1485 0.842375 53.0687 0.882488C52.9889 0.842375 52.9889 0.93263 52.9789 1.00283C52.9789 1.08305 52.9589 1.14322 52.8592 1.08305C52.7994 1.08305 52.7595 1.12317 52.7295 1.17331C52.6996 1.21342 52.6697 1.27359 52.6597 1.32373C52.6398 1.3839 52.5899 1.40396 52.54 1.44407C52.5001 1.48419 52.4602 1.5243 52.4802 1.61456C52.56 1.7349 52.4802 1.74492 52.3805 1.75495C52.2907 1.76498 52.2109 1.80509 52.3406 1.93546C52.3406 2.00566 52.3406 2.06583 52.3206 2.126C52.3007 2.18617 52.2807 2.23631 52.2508 2.29648C52.1311 2.33659 52.1211 2.39676 52.1411 2.46696C52.1411 2.50708 52.171 2.53716 52.181 2.57727C52.2009 2.61739 52.2209 2.64747 52.2209 2.67756C52.161 2.70764 52.1112 2.73773 52.0912 2.77784C52.0713 2.81795 52.0613 2.86809 52.0713 2.90821C52.0912 2.99846 52.161 3.08872 52.2508 3.17897C51.9117 3.35948 51.9616 3.55002 52.2807 3.74056C52.2907 3.9311 52.161 4.12163 52.3106 4.3222C52.3306 4.52277 52.4004 4.72333 52.3406 4.9239C52.57 5.12447 52.56 5.33506 52.3605 5.55568C52.6099 5.76628 52.5101 5.9869 52.3805 6.20752C52.2408 6.42815 52.5999 6.64877 52.4004 6.87942C52.4004 6.98973 52.4004 7.1201 52.4204 7.21036C52.4403 7.29058 52.4403 7.36078 52.4403 7.44101C52.3605 7.61149 52.3106 7.83211 52.5899 7.89228C52.7096 8.02265 52.8592 8.09285 52.8592 8.30344C53.1584 8.2533 53.1684 8.41375 53.2282 8.63437C53.308 8.65443 53.3579 8.73466 53.4277 8.7848C53.4876 8.84497 53.5773 8.87506 53.6771 8.83494C53.7569 8.87506 53.8367 8.87506 53.9264 8.86503C54.0062 8.86503 54.086 8.84497 54.1758 8.91517C54.3453 8.99539 54.5548 9.03551 54.6745 8.84497C54.7243 8.73466 54.8041 8.73466 54.8939 8.72463C54.9837 8.72463 55.0734 8.7146 55.1333 8.6444C55.2729 8.69454 55.3427 8.62435 55.3727 8.53409C55.4125 8.45387 55.4225 8.34355 55.5123 8.31347C55.5322 8.27336 55.5622 8.24327 55.5921 8.22321C55.622 8.19313 55.6619 8.17307 55.6918 8.14299C55.7217 8.1129 55.7517 8.08282 55.7716 8.04271C55.7816 8.00259 55.7916 7.96248 55.7716 7.91234C55.7916 7.74186 55.7916 7.60146 55.9212 7.46106C55.7517 7.36078 55.7716 7.30061 55.8414 7.22038C55.8614 7.21035 55.8714 7.18027 55.8913 7.15019C55.9112 7.1201 55.9212 7.09002 55.9412 7.05993C55.9711 6.99976 55.9811 6.94962 55.9611 6.88945C56.1207 6.66883 55.9412 6.43817 55.9811 6.21755C55.9112 5.99693 56.1606 5.78633 56.001 5.56571C56.0309 5.35512 55.8813 5.14452 56.021 4.93393C55.8315 4.72333 56.1805 4.52277 56.0509 4.33223C56.0509 4.13166 56.0409 3.94112 56.0808 3.75059C56.37 3.56005 56.1307 3.36951 56.1107 3.189C56.1307 3.09875 56.0808 3.00849 56.0609 2.91824C56.0509 2.87812 56.0409 2.82798 56.0609 2.78787C56.0609 2.75778 56.0908 2.7277 56.1406 2.68759C56.1406 2.6575 56.1606 2.61739 56.1706 2.5873C56.1706 2.55722 56.1905 2.5171 56.1905 2.48702C56.2005 2.41682 56.1905 2.35665 56.1207 2.30651C56.0808 2.25637 56.1706 2.16611 56.2105 2.07586C56.2504 1.99563 56.2404 1.9154 56.0309 1.94549C55.9711 1.90538 56.021 1.82515 56.0309 1.74492C56.0409 1.6647 56.0309 1.5945 55.8913 1.62458C55.7616 1.64464 55.7317 1.60453 55.7317 1.53433C55.7317 1.47416 55.7417 1.3839 55.7118 1.34379C55.6818 1.29365 55.642 1.25354 55.612 1.21342C55.5821 1.17331 55.5422 1.1332 55.5123 1.09308C55.1931 0.762149 54.844 0.581639 54.6047 0.471327C54.5448 0.441242 54.485 0.411158 54.4351 0.391101C54.3852 0.371044 54.3453 0.350988 54.3054 0.330931C54.2356 0.290818 54.1957 0.250704 54.1957 0.210591C54.1957 0.170478 54.2456 0.130365 54.3453 0.0902515C54.4451 0.0501382 54.5947 0.0300816 54.7942 0.0200533C55.1831 0.0200533 55.8115 0.16045 56.4 0.681922C56.4598 0.732064 56.5496 0.75212 56.6294 0.802262C56.6992 0.852403 56.759 0.912573 56.7391 1.03291C56.8289 1.17331 57.0682 1.25354 57.0383 1.48419C57.2079 1.51427 57.2478 1.60453 57.2677 1.70481C57.2877 1.80509 57.2478 1.9154 57.2677 2.01569C57.3076 2.10594 57.3076 2.21625 57.3076 2.31654C57.3076 2.36668 57.3176 2.41682 57.3375 2.46696C57.3375 2.5171 57.3674 2.56725 57.3974 2.61739C57.4373 2.66753 57.4572 2.7277 57.4572 2.77784C57.4572 2.82798 57.4572 2.86809 57.4373 2.90821C57.4073 2.99846 57.3774 3.08872 57.4373 3.17897C57.2677 3.35948 57.3176 3.55002 57.4672 3.74056C57.3076 3.9311 57.4971 4.12163 57.4971 4.3222C57.2478 4.52277 57.4173 4.72333 57.527 4.9239C57.6168 5.12447 57.4871 5.33506 57.547 5.55568C57.4971 5.76628 57.6068 5.9869 57.5669 6.20752C57.6866 6.42815 57.7265 6.64877 57.5869 6.87942C57.6268 6.99976 57.6367 7.10004 57.6268 7.23041C57.6168 7.38084 57.5968 7.53126 57.5669 7.68169C57.6268 8.01262 57.4173 8.29341 57.3176 8.58423C57.2976 8.66446 57.2478 8.72463 57.1979 8.79483C57.148 8.855 57.0782 8.90514 57.0283 8.96531C56.9685 9.02548 56.9186 9.08565 56.8787 9.14582C56.8388 9.21602 56.8189 9.29624 56.8189 9.40656C56.6294 9.67732 56.3401 9.83777 56.1008 10.0684C55.8015 10.2188 55.5023 10.3191 55.2031 10.4996C55.0036 10.4094 54.844 10.4294 54.6844 10.4696C54.5249 10.5197 54.3753 10.5899 54.1957 10.6501C53.8566 10.7303 53.5075 10.63 53.1983 10.4996C52.8692 10.4194 52.57 10.269 52.3007 10.0684C52.1411 10.0083 52.0214 9.88791 51.9217 9.75755C51.8119 9.62718 51.7321 9.49681 51.5825 9.41658C51.5127 9.37647 51.4529 9.3163 51.413 9.2461C51.3631 9.1759 51.3332 9.10571 51.3033 9.02548C51.2733 8.94525 51.2434 8.87505 51.2135 8.80486C51.1836 8.73466 51.1437 8.66446 51.0838 8.60429C50.8844 8.35358 50.7447 8.03268 50.8345 7.70174C50.8046 7.55132 50.8644 7.39086 50.8943 7.24044C50.9243 7.11007 50.9342 7.00979 50.8145 6.88945C50.7647 6.6588 50.4555 6.43817 50.8345 6.21755C50.7348 5.99693 51.024 5.78633 50.8544 5.56571C51.1337 5.35512 50.8744 5.14452 50.8744 4.93393C50.9243 4.72333 51.024 4.52277 50.9043 4.33223C50.7746 4.13166 50.9741 3.94112 50.9342 3.75059C50.7746 3.56005 51.1437 3.36951 50.9642 3.189C50.9841 3.09875 50.9741 3.00849 50.9642 2.91824C50.9642 2.87812 50.9642 2.82798 50.9642 2.78787C50.9642 2.73773 50.9741 2.67756 50.9941 2.62741C50.9043 2.56725 50.8544 2.50708 50.8445 2.44691C50.8345 2.38674 50.8544 2.33659 50.8844 2.28645C50.9542 2.18617 51.0739 2.10594 51.1138 2.01569C51.1636 1.92543 51.1337 1.81512 51.1337 1.70481C51.1337 1.5945 51.1636 1.49422 51.3432 1.47416C51.2534 1.33376 51.2833 1.23348 51.3631 1.17331C51.4429 1.11314 51.5526 1.07303 51.6324 1.03291C51.7122 0.9928 51.7421 0.902545 51.772 0.822318C51.8119 0.742092 51.8618 0.681922 51.9715 0.671894C51.9516 0.541526 52.0314 0.511441 52.1211 0.491384C52.2109 0.471327 52.3007 0.471327 52.3306 0.401129C52.4303 0.411158 52.4802 0.371044 52.5301 0.320903C52.5799 0.280789 52.6198 0.230648 52.6897 0.210591C52.7694 0.10028 52.8991 0.0701948 53.0188 0.0902515C53.1285 0.0601665 53.2282 0.0401099 53.318 0.0200533C53.8865 -0.0501449 54.1758 0.10028 54.1758 0.190535H54.1658Z" fill="#0061EF"/>
<path d="M66.8299 0.190479C66.8299 0.30079 66.5506 0.381017 66.1516 0.591612C66.0918 0.631725 66.022 0.671838 65.9422 0.72198C65.8823 0.792178 65.8125 0.84232 65.7327 0.882433C65.6529 0.84232 65.6529 0.932574 65.643 1.00277C65.643 1.083 65.623 1.14317 65.5233 1.083C65.4634 1.083 65.4235 1.12311 65.3936 1.17325C65.3637 1.21337 65.3338 1.27354 65.3238 1.33371C65.3038 1.39388 65.254 1.41393 65.2041 1.45405C65.1642 1.49416 65.1243 1.53427 65.1443 1.62453C65.224 1.74487 65.1443 1.7549 65.0445 1.76492C64.9548 1.77495 64.875 1.81507 65.0046 1.94543C65.0046 2.01563 65.0046 2.0758 64.9847 2.13597C64.9647 2.19614 64.9348 2.24628 64.9149 2.30645C64.7952 2.34657 64.7852 2.40674 64.8051 2.47693C64.8051 2.51705 64.8351 2.54713 64.845 2.58725C64.865 2.62736 64.8849 2.65744 64.8949 2.68753C64.8251 2.71761 64.7852 2.7477 64.7652 2.78781C64.7453 2.82793 64.7353 2.87807 64.7453 2.91818C64.7652 3.00844 64.8351 3.09869 64.9248 3.18895C64.5857 3.36946 64.6356 3.55999 64.9548 3.75053C64.9647 3.94107 64.8351 4.13161 64.9847 4.33217C65.0046 4.53274 65.0744 4.73331 65.0146 4.93387C65.244 5.13444 65.234 5.34503 65.0345 5.56566C65.2839 5.77625 65.1842 5.99687 65.0545 6.2175C64.9149 6.43812 65.2739 6.65874 65.0744 6.88939C65.0744 6.99971 65.0744 7.13007 65.0944 7.22033C65.1143 7.30055 65.1143 7.38078 65.1143 7.46101C65.0345 7.63149 64.9847 7.85211 65.2639 7.91228C65.3836 8.04265 65.5332 8.11285 65.5332 8.32344C65.8325 8.2733 65.8424 8.43375 65.9023 8.65438C65.9821 8.67443 66.0319 8.75466 66.1018 8.8048C66.1616 8.86497 66.2514 8.89506 66.3511 8.85494C66.4309 8.89506 66.5207 8.89506 66.6005 8.88503C66.6803 8.88503 66.77 8.86497 66.8498 8.93517C67.0194 9.0154 67.2288 9.05551 67.3485 8.86497C67.3984 8.75466 67.4782 8.75466 67.5679 8.74463C67.6577 8.74463 67.7475 8.7346 67.8073 8.66441C67.937 8.71455 68.0168 8.64435 68.0467 8.55409C68.0866 8.47387 68.0966 8.36356 68.1863 8.33347C68.2063 8.30339 68.2362 8.2733 68.2661 8.24322C68.296 8.21313 68.3359 8.19308 68.3659 8.16299C68.3958 8.13291 68.4257 8.10282 68.4456 8.06271C68.4556 8.02259 68.4656 7.98248 68.4456 7.93234C68.4656 7.76186 68.4656 7.62146 68.5953 7.48106C68.4257 7.38078 68.4456 7.32061 68.5155 7.24038C68.5354 7.23036 68.5554 7.19024 68.5653 7.17019C68.5853 7.1401 68.5953 7.11002 68.6152 7.07993C68.6451 7.01976 68.6551 6.96962 68.6352 6.90945C68.7947 6.68883 68.6152 6.45818 68.6551 6.23755C68.5853 6.01693 68.8247 5.80634 68.675 5.58571C68.705 5.37512 68.5554 5.16452 68.695 4.95393C68.5055 4.74333 68.8546 4.54277 68.7149 4.35223C68.7149 4.15166 68.705 3.96113 68.7449 3.77059C69.0441 3.58005 68.7947 3.38951 68.7748 3.209C68.7947 3.11875 68.7449 3.02849 68.7249 2.93824C68.7249 2.89812 68.7149 2.84798 68.7249 2.80787C68.7249 2.77778 68.7548 2.7477 68.8047 2.70759C68.8047 2.6775 68.8247 2.63739 68.8346 2.6073C68.8346 2.57722 68.8546 2.5371 68.8546 2.50702C68.8646 2.43682 68.8546 2.36662 68.7848 2.32651C68.7449 2.27637 68.8346 2.18611 68.8745 2.09586C68.9144 2.01563 68.9045 1.93541 68.705 1.96549C68.6451 1.92538 68.695 1.84515 68.705 1.76492C68.7149 1.6847 68.705 1.6145 68.5653 1.64458C68.4357 1.66464 68.4057 1.62453 68.4057 1.55433C68.4057 1.49416 68.4157 1.40391 68.3858 1.36379C68.3559 1.31365 68.316 1.27354 68.2861 1.23342C68.2561 1.19331 68.2162 1.1532 68.1863 1.11308C67.8672 0.78215 67.5181 0.60164 67.2787 0.491328C67.2188 0.461244 67.159 0.431159 67.1091 0.411102C67.0593 0.391045 67.0194 0.370989 66.9795 0.350932C66.9097 0.310819 66.8698 0.270706 66.8698 0.230592C66.8698 0.190479 66.9196 0.150366 67.0194 0.110252C67.1191 0.0701392 67.2687 0.0500826 67.4682 0.0400542C67.8572 0.0400542 68.4855 0.180451 69.074 0.701923C69.1339 0.752065 69.2236 0.772121 69.3034 0.822263C69.3732 0.872404 69.4331 0.932574 69.4131 1.05291C69.5029 1.19331 69.7423 1.27354 69.7123 1.50419C69.8819 1.53427 69.9218 1.62453 69.9417 1.72481C69.9617 1.82509 69.9218 1.93541 69.9417 2.03569C69.9717 2.12594 69.9816 2.23626 69.9816 2.33654C69.9816 2.38668 69.9916 2.43682 70.0116 2.48696C70.0215 2.5371 70.0415 2.58725 70.0714 2.63739C70.1113 2.68753 70.1312 2.7477 70.1312 2.79784C70.1312 2.84798 70.1313 2.8881 70.1113 2.92821C70.0814 3.01846 70.0515 3.10872 70.1113 3.19897C69.9417 3.37948 69.9916 3.57002 70.1412 3.76056C69.9816 3.9511 70.1811 4.14164 70.1711 4.3422C69.9218 4.54277 70.1013 4.74333 70.2011 4.9439C70.2908 5.14447 70.1612 5.35506 70.221 5.57568C70.1711 5.78628 70.2809 6.0069 70.241 6.22753C70.3607 6.44815 70.4005 6.66877 70.2609 6.89942C70.3008 7.01976 70.3108 7.12005 70.3008 7.25041C70.2908 7.40084 70.2709 7.55126 70.241 7.71172C70.3008 8.04265 70.0914 8.32344 69.9916 8.61426C69.9717 8.69449 69.9218 8.75466 69.8719 8.82486C69.8221 8.88503 69.7522 8.93517 69.6924 8.99534C69.6326 9.05551 69.5827 9.11568 69.5428 9.17585C69.5029 9.24605 69.4829 9.32627 69.4829 9.43659C69.3034 9.70735 69.0042 9.8678 68.7648 10.0884C68.4656 10.2389 68.1664 10.3492 67.8672 10.5196C67.6677 10.4294 67.5081 10.4494 67.3485 10.4896C67.1889 10.5397 67.0293 10.6099 66.8598 10.6701C66.5207 10.7503 66.1716 10.65 65.8624 10.5196C65.5332 10.4394 65.234 10.279 64.9647 10.0884C64.8051 10.0283 64.6855 9.90792 64.5857 9.77755C64.476 9.64718 64.3862 9.51681 64.2466 9.43659C64.1668 9.39647 64.1169 9.3363 64.077 9.2661C64.0272 9.19591 63.9973 9.12571 63.9673 9.04548C63.9374 8.96526 63.9075 8.89506 63.8776 8.82486C63.8476 8.75466 63.8077 8.68446 63.7479 8.62429C63.5484 8.37358 63.4088 8.05268 63.4986 7.72174C63.4686 7.57132 63.5285 7.41087 63.5584 7.26044C63.5883 7.13007 63.5983 7.02979 63.4786 6.90945C63.4287 6.68883 63.1195 6.45818 63.4986 6.23755C63.3988 6.01693 63.6881 5.80634 63.5185 5.58571C63.7978 5.37512 63.5285 5.16452 63.5384 4.95393C63.5883 4.74333 63.6881 4.54277 63.5684 4.35223C63.4387 4.15166 63.6382 3.96113 63.5983 3.77059C63.4387 3.58005 63.8077 3.38951 63.6282 3.209C63.6482 3.11875 63.6382 3.02849 63.6282 2.93824C63.6282 2.89812 63.6282 2.84798 63.6282 2.80787C63.6282 2.75773 63.6382 2.69756 63.6581 2.64742C63.5684 2.58725 63.5185 2.52708 63.5085 2.47693C63.5085 2.41677 63.5185 2.36662 63.5584 2.31648C63.6282 2.2162 63.7479 2.13597 63.7878 2.04572C63.8377 1.95546 63.8077 1.84515 63.8077 1.73484C63.8077 1.62453 63.8377 1.52425 64.0172 1.50419C63.9274 1.36379 63.9574 1.26351 64.0371 1.20334C64.1169 1.14317 64.2267 1.10306 64.3064 1.06294C64.3862 1.02283 64.4162 0.932574 64.4461 0.852348C64.486 0.772121 64.5358 0.711951 64.6456 0.701923C64.6256 0.571555 64.7054 0.54147 64.7952 0.521413C64.8849 0.501357 64.9747 0.501357 65.0046 0.431159C65.1044 0.431159 65.1542 0.401074 65.2041 0.350932C65.254 0.310819 65.2939 0.260677 65.3637 0.240621C65.4435 0.130309 65.5731 0.100224 65.6928 0.120281C65.8025 0.0901958 65.9023 0.0701392 65.992 0.0500826C66.5705 -0.0201156 66.8498 0.130309 66.8498 0.220564L66.8299 0.190479Z" fill="#0061EF"/>
<path d="M32.9665 45.6288C32.9665 45.6288 32.7969 45.5285 32.6174 45.2878C32.4279 45.0472 32.1686 44.6661 31.7995 44.2449C31.6798 44.1045 31.5402 43.9541 31.3806 43.8137C31.2111 43.6833 31.0415 43.5529 30.862 43.4025C30.8121 43.2822 30.6824 43.2521 30.5428 43.2521C30.483 43.2521 30.4131 43.232 30.3633 43.212C30.3034 43.1919 30.2635 43.1518 30.2236 43.0716C30.1239 42.9813 30.0042 42.9513 29.8745 42.9111C29.7449 42.8911 29.6152 42.871 29.4656 42.871C29.3958 42.871 29.326 42.861 29.2562 42.8409C29.1863 42.8309 29.1165 42.8109 29.0467 42.8008C28.9071 42.7707 28.7475 42.7707 28.5979 42.8209C28.4483 42.9513 28.3086 42.8911 28.149 42.8309C27.9895 42.7908 27.8199 42.7507 27.7002 42.9513C27.5606 43.0315 27.411 43.0716 27.2614 43.1318C27.1816 43.1618 27.1118 43.1819 27.032 43.212C26.9522 43.2421 26.8824 43.2722 26.8026 43.3123C26.7527 43.3123 26.7028 43.3123 26.6629 43.3123C26.623 43.3123 26.5831 43.3323 26.5432 43.3524C26.4634 43.3925 26.3936 43.4426 26.3338 43.5028C26.2141 43.6332 26.1044 43.7736 25.9947 43.914C25.8949 43.924 25.7952 43.9541 25.7154 44.0042C25.6356 44.0544 25.5758 44.1246 25.5159 44.1948C25.4561 44.265 25.4262 44.3652 25.3962 44.4555C25.3763 44.5056 25.3663 44.5458 25.3563 44.5959C25.3563 44.646 25.3464 44.6962 25.3364 44.7463C24.8477 44.8667 24.708 45.328 24.9275 45.7692C24.8277 46.1302 24.6681 46.5113 24.8277 46.9225C24.8676 47.3437 24.9773 47.7448 25.0172 48.186C25.3364 48.5571 25.4561 48.9582 25.4461 49.4697C25.8351 49.8006 25.9548 50.2519 26.0745 50.7432C26.1941 51.2447 26.7427 51.4853 26.8624 52.0068C27.1317 52.438 27.4908 52.8191 27.78 53.2604C28.0194 53.7417 28.2787 54.2331 28.8073 54.5039C29.2063 54.8749 29.6352 55.2359 29.9144 55.7374C30.483 55.968 30.7822 56.4594 31.0814 56.9708C31.5103 57.3519 31.7796 57.9035 32.2982 58.2143C32.398 58.3247 32.4977 58.4249 32.6074 58.5252L32.777 58.6756L32.8568 58.7458C32.8967 58.7559 32.9066 58.7458 32.9366 58.8562C32.9665 58.8862 33.0263 58.8762 33.0862 58.8361C33.0862 58.8361 33.0961 58.8361 33.1061 58.816L33.1859 58.7358C33.2358 58.6857 33.2856 58.6255 33.3355 58.5754C33.4253 58.4651 33.515 58.3447 33.5948 58.2043C33.8841 57.6728 34.4626 57.4221 34.8117 56.9608C35.3902 56.7201 35.5398 56.0783 35.9786 55.7273C36.3377 55.2961 36.8264 54.9953 37.0857 54.4938C37.4049 54.0526 37.7041 53.6113 38.1131 53.2503C38.133 52.6085 38.8112 52.4781 39.0307 51.9968C39.4496 51.6659 39.5593 51.1344 39.8186 50.7332C39.9882 50.2719 40.417 49.951 40.447 49.4596C40.6464 49.0384 40.6365 48.5671 40.8758 48.176C40.8559 48.0557 40.8659 47.9554 40.8858 47.8451C40.9058 47.7448 40.9457 47.6345 40.9756 47.5342C41.0454 47.3336 41.1252 47.123 41.0554 46.9124V46.752V46.6116C41.0554 46.5113 41.0554 46.421 41.0354 46.3208C41.0255 46.2305 41.0055 46.1302 40.9955 46.04C40.9955 45.9497 40.9656 45.8595 40.9556 45.7592C40.9756 45.709 40.9955 45.6489 41.0055 45.5987C41.0055 45.5486 41.0055 45.4984 41.0055 45.4483C40.9856 45.358 40.9556 45.2578 40.9058 45.1775C40.8559 45.0973 40.7961 45.0171 40.7362 44.9469C40.6764 44.8767 40.6066 44.8065 40.5567 44.7363C40.5367 44.6962 40.5168 44.6561 40.4869 44.616C40.4569 44.5758 40.427 44.5458 40.3971 44.5157C40.3373 44.4555 40.2774 44.3853 40.2076 44.3251C40.0779 44.2048 39.9682 44.0845 39.8984 43.8939C39.7887 43.7635 39.659 43.6432 39.5393 43.5128C39.4795 43.4527 39.3997 43.4126 39.3299 43.3724C39.29 43.3524 39.2501 43.3323 39.2202 43.3223C39.1803 43.3123 39.1304 43.3022 39.0905 43.3022C39.0107 43.2722 38.9509 43.222 38.891 43.1518C38.8312 43.0916 38.7614 43.0214 38.7015 42.9713C38.5719 42.8409 38.4023 42.7908 38.2128 42.9412C38.0532 42.9412 37.9136 42.851 37.764 42.7808C37.6144 42.7206 37.4548 42.6805 37.3052 42.8209C37.1556 42.9513 37.0159 42.9412 36.8663 42.9212C36.7965 42.9111 36.7167 42.8911 36.6469 42.871C36.5771 42.861 36.5072 42.851 36.4374 42.871C36.2978 42.8811 36.1781 42.9212 36.0484 42.9513C35.9288 42.9914 35.7991 43.0214 35.6894 43.0716C35.4301 43.1618 35.2007 43.3123 34.9812 43.4527C34.7817 43.6031 34.5922 43.7635 34.4227 43.924C34.0935 44.2549 33.8442 44.5758 33.6447 44.8466C33.2458 45.3881 33.0263 45.679 32.9465 45.6489C32.8767 45.6088 32.9765 45.1675 33.3555 44.3953C33.5549 44.0143 33.8242 43.5429 34.283 43.0716C34.5124 42.8309 34.7917 42.6103 35.1209 42.4097C35.45 42.2092 35.839 42.0587 36.2579 41.9584C36.3377 41.9384 36.4275 41.9083 36.5072 41.8782C36.587 41.8481 36.6768 41.8181 36.7666 41.798C36.9361 41.7479 37.1256 41.7378 37.3052 41.8181C37.4847 41.8181 37.6842 41.798 37.8737 41.7779C38.0632 41.7779 38.2726 41.798 38.4522 41.8983C38.6716 41.8181 38.891 41.8481 39.0805 41.9484C39.1803 41.9986 39.27 42.0487 39.3598 42.1089C39.4496 42.169 39.5393 42.2292 39.6391 42.2894C39.6889 42.3094 39.7388 42.3295 39.7787 42.3596L39.9183 42.4498C40.0081 42.51 40.0979 42.5702 40.1876 42.6404C40.3572 42.7808 40.5467 42.9011 40.7462 43.0215C40.9756 43.1117 41.1252 43.3022 41.2549 43.5028C41.3247 43.6031 41.3845 43.7134 41.4444 43.8037C41.4843 43.8538 41.5142 43.9039 41.5541 43.9441C41.594 43.9942 41.6239 44.0443 41.6738 44.0844C41.7935 44.5859 42.0129 44.987 42.3021 45.4483C42.2922 45.5887 42.3121 45.709 42.332 45.8394C42.352 45.9698 42.3719 46.0901 42.4118 46.2205C42.4418 46.3508 42.4617 46.4812 42.4817 46.6116C42.4817 46.6818 42.5016 46.742 42.5116 46.8122C42.5116 46.8723 42.5116 46.9425 42.5116 47.0027C42.2423 47.5041 42.362 48.0055 42.342 48.5571C42.3121 49.0986 42.0328 49.5699 41.8932 50.0814C41.6538 50.5627 41.5242 51.0942 41.2249 51.5455C41.0654 52.077 40.816 52.5784 40.3871 52.9495C40.1477 53.4509 39.7687 53.8721 39.4296 54.3033C39.1703 54.8047 38.7215 55.1758 38.3724 55.617C38.0432 56.0883 37.4249 56.2989 37.2453 56.9107C36.8863 57.3619 36.4275 57.723 36.0584 58.1843C35.6295 58.5854 35.1907 58.9765 34.8316 59.4478C34.682 59.508 34.5424 59.5782 34.4227 59.6685C34.3628 59.7186 34.303 59.7587 34.2531 59.8189C34.2232 59.849 34.2033 59.869 34.1733 59.8991L34.0437 60.0395C33.8741 60.23 33.6946 60.4406 33.515 60.6512L33.2358 60.9922C33.146 61.1025 33.0463 61.2329 32.9465 61.3332C32.5476 60.9922 32.1287 60.581 31.7297 60.1799L31.5901 60.0395L31.5103 59.9593L31.3607 59.7888L31.0714 59.4579C30.6425 59.0567 30.2336 58.6255 29.8446 58.1943C29.3858 57.8333 29.1265 57.2717 28.6577 56.9207C28.179 56.5697 27.9795 55.9881 27.5307 55.627C27.1018 55.246 26.7128 54.8348 26.4734 54.3133C26.1343 53.8721 26.0146 53.2804 25.5159 52.9595C25.1668 52.5383 24.6083 52.2174 24.6781 51.5555C24.329 51.1143 24.349 50.5126 24.0098 50.0914C24.0398 49.7906 23.95 49.5499 23.8503 49.2992C23.7405 49.0585 23.6109 48.8178 23.561 48.5571C23.4912 48.0256 23.5311 47.5141 23.3915 47.0027C23.3715 46.9425 23.3615 46.8723 23.3516 46.8122C23.3516 46.742 23.3516 46.6818 23.3516 46.6116C23.3516 46.4812 23.3715 46.3408 23.4014 46.2105C23.4314 46.0801 23.4713 45.9497 23.5012 45.8294C23.5311 45.699 23.571 45.5787 23.5909 45.4483C23.5909 45.3781 23.5909 45.3179 23.6009 45.2477C23.6209 45.1876 23.6408 45.1274 23.6707 45.0672C23.7306 44.9469 23.7804 44.8366 23.8602 44.7363C23.94 44.636 24.0098 44.5357 24.0697 44.4254C24.1295 44.3151 24.1894 44.2148 24.2093 44.0844C24.4986 43.6933 24.7579 43.2822 25.1369 43.0215C25.1768 42.7206 25.3763 42.5802 25.5957 42.4799C25.7054 42.4398 25.8251 42.4097 25.9348 42.3796C25.9947 42.3696 26.0445 42.3496 26.0944 42.3395C26.1543 42.3195 26.2041 42.3094 26.254 42.2894C26.3537 42.2593 26.4535 42.1991 26.5432 42.139C26.633 42.0888 26.7228 42.0286 26.8225 41.9785C27.012 41.8682 27.2215 41.8181 27.4409 41.9083C27.6105 41.7278 27.8199 41.6877 28.0094 41.6977C28.2089 41.7278 28.4084 41.788 28.5879 41.8281C28.7674 41.8782 28.937 41.8481 29.1165 41.8481C29.2063 41.8481 29.2961 41.8481 29.3758 41.8682C29.4656 41.8882 29.5454 41.9183 29.6252 41.9785C29.8147 41.9083 29.9743 41.9885 30.1239 42.0788C30.2635 42.1891 30.3932 42.2894 30.5528 42.3295C30.6126 42.3997 30.6725 42.4398 30.7323 42.4799C30.7922 42.52 30.862 42.5601 30.9218 42.5902C31.0515 42.6504 31.1811 42.7206 31.2909 42.8209C31.5402 42.9513 31.7297 43.1518 31.8394 43.3825C31.989 43.573 32.1187 43.7535 32.2284 43.934C32.5575 44.4555 32.7371 44.8967 32.8368 45.1876C32.9366 45.4884 32.9665 45.6589 32.9166 45.679L32.9665 45.6288Z" fill="#0061EF"/>
<path d="M32.9704 54.203C32.8607 54.203 32.7609 54.1328 32.6712 54.0124C32.6512 53.9924 32.6413 53.9723 32.6213 53.9422C32.5914 53.9222 32.5615 53.8921 32.5814 53.862C32.721 53.8319 32.3221 53.8018 32.5415 53.7718C32.6014 53.7417 32.5415 53.7116 32.5016 53.6815C32.4517 53.6514 32.5914 53.6113 32.4617 53.5812C32.1924 53.5411 32.7609 53.511 32.4218 53.4709C32.352 53.4308 32.372 53.3907 32.3819 53.3506C32.5914 53.3105 32.3819 53.2703 32.342 53.2302C32.5914 53.1901 32.4817 53.14 32.3121 53.0999C32.6512 53.0598 32.6014 53.0096 32.2822 52.9595C32.2722 52.9093 32.4019 52.8592 32.2523 52.809C32.2323 52.7589 32.1625 52.7088 32.2223 52.6586C31.9929 52.6085 32.0029 52.5583 32.2024 52.4982C31.953 52.448 32.0528 52.3879 32.1825 52.3377C32.3221 52.2876 31.963 52.2274 32.1625 52.1672C32.1725 52.1071 32.1027 52.0569 32.1426 51.9967C32.2423 51.9366 32.352 51.8764 32.1326 51.8162C32.0727 51.7561 31.9929 51.6959 32.1326 51.6357C31.8733 51.5756 31.983 51.5154 32.1326 51.4552C32.0927 51.3951 32.2722 51.3349 32.1326 51.2647C32.1725 51.2045 32.0129 51.1343 32.1326 51.0741C32.2124 51.014 32.2922 50.9438 32.1326 50.8836C31.963 50.8234 32.2024 50.7532 32.1326 50.6931C32.3819 50.6329 32.0528 50.5727 32.1326 50.5126C32.1126 50.4524 32.2722 50.3922 32.1326 50.332C32.0927 50.2719 32.0428 50.2117 32.1426 50.1515C31.7635 50.0914 32.2423 50.0312 32.1625 49.9811C32.3221 49.9209 32.1426 49.8707 32.1825 49.8106C32.1126 49.7604 32.352 49.7003 32.2024 49.6501C32.2323 49.6 32.0827 49.5398 32.2223 49.4897C32.0328 49.4395 32.3819 49.3894 32.2523 49.3392C32.2523 49.2891 32.2423 49.239 32.2822 49.1888C32.5814 49.1387 32.3321 49.0986 32.3121 49.0484C32.342 49.0083 32.1426 48.9582 32.342 48.9181C32.362 48.8779 32.4916 48.8378 32.3819 48.7977C32.342 48.7576 32.8108 48.7175 32.4218 48.6774C32.352 48.6373 32.721 48.5972 32.4617 48.5671C32.2223 48.527 32.4916 48.4969 32.5016 48.4668C32.5116 48.4367 32.5315 48.4066 32.5415 48.3765C32.6712 48.1058 32.8208 47.9453 32.9704 47.9453C33.1499 47.9453 33.3095 48.1359 33.4491 48.4668C33.4591 48.4969 33.6686 48.537 33.489 48.5671C33.489 48.6072 33.6486 48.6373 33.5289 48.6774C33.7982 48.7175 33.5788 48.7576 33.5688 48.7977C33.5788 48.8378 33.499 48.8779 33.5988 48.9181C33.7583 48.9582 33.519 49.0083 33.6287 49.0484C33.4591 49.0986 33.509 49.1387 33.6586 49.1888C33.499 49.239 33.6985 49.2891 33.6885 49.3392C33.4392 49.3894 33.6087 49.4395 33.7184 49.4897C33.8082 49.5398 33.6785 49.59 33.7384 49.6501C33.6885 49.7003 33.7982 49.7604 33.7583 49.8106C33.878 49.8607 33.9179 49.9209 33.7783 49.9811C33.8581 50.0412 33.7982 50.1014 33.7982 50.1515C33.898 50.2117 33.7883 50.2719 33.8082 50.332C33.8581 50.3922 33.5389 50.4524 33.8182 50.5126C33.8581 50.5727 33.7783 50.6329 33.8182 50.6931C33.7783 50.7532 33.7484 50.8134 33.8182 50.8836C33.5489 50.9438 33.7184 51.014 33.8182 51.0741C33.898 51.1343 33.8581 51.2045 33.8182 51.2647C33.8481 51.3249 33.8282 51.3951 33.8182 51.4552C33.898 51.5154 33.6985 51.5756 33.8182 51.6357C33.9379 51.6959 33.6885 51.7561 33.8082 51.8162C33.888 51.8764 33.9279 51.9366 33.7982 51.9967C33.7982 52.0569 33.5489 52.1171 33.7783 52.1672C33.8282 52.2274 34.1374 52.2775 33.7583 52.3377C33.8581 52.3979 33.5688 52.448 33.7384 52.4982C33.4591 52.5483 33.7284 52.5984 33.7184 52.6586C33.6586 52.7088 33.5688 52.7589 33.6885 52.809C33.8182 52.8592 33.6187 52.9093 33.6586 52.9595C33.8182 53.0096 33.4491 53.0497 33.6287 53.0999C33.5888 53.14 33.6486 53.1901 33.5988 53.2302C33.9778 53.2703 33.5988 53.3205 33.5688 53.3506C33.519 53.3907 33.8182 53.4308 33.5289 53.4709C33.8182 53.511 33.5688 53.5511 33.489 53.5812C33.4093 53.6213 33.6087 53.6514 33.4491 53.6815C33.6486 53.7116 33.3394 53.7417 33.4092 53.7718C33.2796 53.8018 33.4092 53.8319 33.3694 53.862C33.4092 53.8921 33.3993 53.9122 33.3195 53.9422C33.2995 53.9623 33.2896 53.9924 33.2696 54.0124C33.1798 54.1328 33.0701 54.203 32.9704 54.203Z" fill="#0061EF"/>
<path d="M29.8359 51.0842C29.8359 50.9739 29.9058 50.8736 30.0354 50.7833C30.0554 50.7733 30.0753 50.7533 30.1052 50.7432C30.1252 50.7131 30.1551 50.6831 30.185 50.6931C30.2149 50.8335 30.2349 50.4323 30.2748 50.653C30.3047 50.7131 30.3346 50.653 30.3646 50.6129C30.3945 50.5627 30.4344 50.7031 30.4643 50.5727C30.5042 50.302 30.5341 50.8736 30.574 50.5326C30.6139 50.4624 30.6538 50.4825 30.6937 50.4925C30.7336 50.7031 30.7735 50.4925 30.8234 50.4624C30.8633 50.7131 30.9131 50.6028 30.953 50.4323C30.9929 50.7733 31.0428 50.7232 31.0927 50.4023C31.1425 50.3922 31.1924 50.5226 31.2423 50.3722C31.2921 50.3521 31.342 50.2819 31.3919 50.3421C31.4417 50.1114 31.4916 50.1215 31.5515 50.322C31.6013 50.0713 31.6612 50.1716 31.711 50.302C31.7609 50.4424 31.8208 50.0814 31.8806 50.2819C31.9305 50.302 31.9903 50.2218 32.0502 50.2719C32.11 50.3722 32.1698 50.4825 32.2297 50.2619C32.2895 50.2017 32.3494 50.1215 32.4092 50.2518C32.4691 49.9911 32.5289 50.1014 32.5888 50.2518C32.6486 50.2117 32.7084 50.3922 32.7783 50.2518C32.8381 50.292 32.9079 50.1315 32.9678 50.2518C33.0276 50.3321 33.0974 50.4123 33.1573 50.2518C33.2171 50.0814 33.2869 50.322 33.3468 50.2518C33.4066 50.5025 33.4665 50.1716 33.5263 50.2518C33.5862 50.2318 33.646 50.3922 33.7058 50.2619C33.7657 50.2218 33.8255 50.1716 33.8854 50.2719C33.9452 49.8908 34.0051 50.3722 34.0549 50.2819C34.1148 50.4424 34.1646 50.2619 34.2245 50.302C34.2843 50.2318 34.3342 50.4725 34.3841 50.322C34.4339 50.3521 34.4938 50.2017 34.5437 50.3421C34.5935 50.1516 34.6434 50.5025 34.6933 50.3722C34.7431 50.3722 34.793 50.3621 34.8429 50.4023C34.8927 50.6931 34.9326 50.4524 34.9825 50.4323C35.0324 50.4624 35.0723 50.2619 35.1122 50.4624C35.1521 50.4825 35.192 50.6129 35.2418 50.4925C35.2817 50.4524 35.3216 50.9237 35.3615 50.5326C35.4014 50.4624 35.4313 50.8335 35.4712 50.5727C35.5111 50.3321 35.5411 50.6028 35.571 50.6129C35.6009 50.6229 35.6308 50.6429 35.6607 50.653C35.93 50.7833 36.0896 50.9338 36.0896 51.0842C36.0896 51.2647 35.9001 51.4251 35.571 51.5655C35.5411 51.5756 35.5012 51.7862 35.4712 51.6057C35.4313 51.6057 35.4014 51.7661 35.3615 51.6458C35.3216 51.9165 35.2817 51.6959 35.2418 51.6859C35.2019 51.6959 35.162 51.6057 35.1122 51.716C35.0723 51.8764 35.0224 51.6357 34.9825 51.7461C34.9426 51.5756 34.8927 51.6257 34.8429 51.7761C34.793 51.6057 34.7531 51.8062 34.6933 51.8062C34.6434 51.5555 34.5935 51.726 34.5437 51.8363C34.4938 51.9266 34.4439 51.7962 34.3841 51.8564C34.3342 51.8062 34.2744 51.9165 34.2245 51.8764C34.1746 51.9968 34.1148 52.0369 34.0549 51.8965C33.9951 51.9767 33.9452 51.9165 33.8854 51.9165C33.8255 52.0168 33.7657 51.9065 33.7058 51.9266C33.646 51.9767 33.5862 51.6558 33.5263 51.9266C33.4665 51.9667 33.4066 51.8865 33.3468 51.9266C33.2869 51.8965 33.2271 51.8564 33.1573 51.9266C33.0974 51.6558 33.0276 51.8263 32.9678 51.9266C32.9079 52.0068 32.8381 51.9667 32.7783 51.9266C32.7184 51.9567 32.6486 51.9366 32.5888 51.9266C32.5289 52.0068 32.4691 51.8062 32.4092 51.9266C32.3494 52.0469 32.2895 51.7962 32.2297 51.9266C32.1698 52.0068 32.11 52.0469 32.0502 51.9165C31.9903 51.9165 31.9305 51.6658 31.8806 51.8965C31.8208 51.9466 31.7709 52.2675 31.711 51.8764C31.6512 51.9767 31.6013 51.6959 31.5515 51.8564C31.5016 51.5756 31.4417 51.8463 31.3919 51.8363C31.342 51.7862 31.2921 51.6859 31.2423 51.8062C31.1924 51.9366 31.1425 51.736 31.0927 51.7761C31.0428 51.9366 31.0029 51.5655 30.953 51.7461C30.9032 51.7059 30.8633 51.7661 30.8234 51.716C30.7835 52.097 30.7336 51.716 30.6937 51.6859C30.6538 51.6357 30.6139 51.9366 30.574 51.6458C30.5341 51.9366 30.4942 51.6859 30.4643 51.6057C30.4244 51.5254 30.3945 51.726 30.3646 51.5655C30.3346 51.7661 30.3047 51.4552 30.2748 51.5254C30.2449 51.3951 30.2149 51.5254 30.185 51.4853C30.1551 51.5254 30.1352 51.5154 30.1052 51.4452C30.0853 51.4251 30.0554 51.4151 30.0354 51.3951C29.9058 51.3048 29.8359 51.2045 29.8359 51.0942V51.0842Z" fill="#0061EF"/>
<path d="M64.4484 29.2525C64.4484 29.3628 63.6904 29.4631 62.294 29.5534C62.0646 29.5634 61.8153 29.5834 61.546 29.5935C61.2767 29.6236 60.9974 29.6536 60.6982 29.6336C60.399 29.4932 60.0798 29.8943 59.7507 29.6737C59.4215 29.6135 59.0724 29.6737 58.7134 29.7138C58.3543 29.764 57.9753 29.6236 57.5763 29.7539C57.1873 30.0247 56.7784 29.4531 56.3595 29.794C55.9406 29.8642 55.5017 29.8442 55.0529 29.8342C54.6041 29.6236 54.1453 29.8342 53.6665 29.8642C53.1878 29.6135 52.709 29.7238 52.2103 29.8943C51.7116 29.5534 51.203 29.6035 50.6743 29.9244C50.1557 29.9344 49.6171 29.8041 49.0685 29.9545C48.7194 29.9645 48.3703 29.9746 48.0113 29.9946C47.8617 29.7439 47.7021 29.4832 47.5525 29.2224L47.4727 29.072L47.4128 28.9617C47.373 28.8815 47.3331 28.8012 47.3031 28.721C46.8244 28.3399 46.5451 27.8385 46.4154 27.2268C46.1661 27.0363 45.9866 26.7956 45.837 26.5248C45.7671 26.3944 45.7073 26.254 45.6475 26.1137C45.6475 26.1036 45.6275 26.0735 45.6275 26.0635V26.0234C45.6275 26.0033 45.6275 25.9733 45.6375 25.9532C45.6375 25.873 45.5976 25.8228 45.5677 25.8228C45.5278 25.8228 45.5078 25.8629 45.4978 25.8629C45.4879 25.9031 45.4779 25.893 45.438 25.8429C45.4081 25.893 45.3782 25.9632 45.3582 26.0234C45.3582 26.0435 45.3582 26.0435 45.3383 26.0635L45.2186 26.2741C45.1388 26.4145 45.059 26.5549 44.9692 26.6853C44.5603 27.1967 44.1414 27.6981 44.0117 28.3801C43.7324 28.9817 43.4731 29.6035 43.0243 30.115C42.9146 30.827 42.4757 31.3585 42.0169 31.8799C41.9371 32.0304 41.8573 32.1808 41.7576 32.3212L41.618 32.5418L41.5481 32.6521L41.5282 32.6822L41.4983 32.7323L41.4384 32.8326C41.1093 33.3641 40.8101 33.8655 40.5109 34.5274C40.3114 34.8483 40.1219 35.1893 39.9324 35.5503C39.7329 35.9213 39.5334 36.2924 39.3339 36.6634C39.1943 36.1821 39.0547 35.6406 38.9449 35.0489C38.7953 34.3369 38.6657 33.6951 38.5161 33.0833C38.4762 32.9329 38.4363 32.7825 38.3964 32.6321L38.3365 32.4114L38.3066 32.3011L38.2867 32.241V32.2109C38.2168 32.0404 38.147 31.8799 38.0672 31.7295C37.7281 31.0977 37.778 30.3657 37.5386 29.7238C37.5984 29.0018 37.1097 28.4302 37.02 27.7583C36.8205 27.1165 36.8105 26.4245 36.5213 25.8228C36.3118 25.2011 36.0924 24.5793 36.0325 23.9375C35.7632 23.6768 35.7034 23.3559 35.6834 23.035C35.6635 22.7441 35.6435 22.2728 35.6236 22.333C35.6735 22.2227 35.6435 22.1124 35.6136 22.0722C35.5737 22.0221 35.5438 22.0422 35.5438 21.9318C35.5438 21.9318 35.5338 21.9318 35.5239 21.9118C35.4939 21.9619 35.474 21.9118 35.4441 21.9218C35.4042 21.9218 35.3543 22.002 35.3543 22.1424C35.3344 22.1625 35.3144 22.2026 35.3044 22.2327C35.3044 22.2528 35.2945 22.2728 35.2845 22.2828V22.3129V22.3229C35.2845 22.3229 35.2745 22.353 35.2645 22.3631C35.1349 22.6238 34.9952 22.8745 34.7858 23.0851C34.6661 23.6768 34.0876 23.9876 33.928 24.5192C33.6587 24.9905 33.3994 25.4618 33.1002 25.9031C32.5815 26.2139 32.5416 26.7755 32.3122 27.2268C32.033 27.648 31.9632 28.1695 31.5542 28.4803C31.4246 28.6809 31.2749 28.8614 31.1453 29.0519C31.1154 29.1021 31.0755 29.1522 31.0455 29.2024L31.0056 29.2726L30.9458 29.3829C30.866 29.5333 30.7862 29.6938 30.7164 29.8743C30.6765 29.9445 30.6366 30.0147 30.5967 30.0748C30.2676 30.0548 29.9285 29.9545 29.6791 29.9144C29.4896 29.8642 29.3001 29.8642 29.1106 30.0448C28.6917 30.1149 28.2828 29.7439 27.8938 30.0046C27.5048 30.2453 27.1258 29.9746 26.7567 29.9645C26.3977 29.9445 26.0486 29.9344 25.7095 29.9244C22.7272 29.794 21.0117 29.6436 21.0117 29.4832C21.0117 29.3027 23.1262 29.1422 26.7567 29.0018C27.1158 28.9918 27.4948 28.7812 27.8938 28.9617C28.2828 28.9617 28.6917 28.8012 29.1106 28.9216C29.3001 28.8012 29.4896 28.7712 29.6791 28.7912C29.6991 28.7912 29.6991 28.7912 29.6991 28.7912H29.709L29.729 28.8012L29.7788 28.8213C29.7788 28.8213 29.8586 28.8614 29.8985 28.8714C29.9085 28.8714 29.9185 28.8514 29.9384 28.8313C29.9584 28.7912 29.9783 28.7511 30.0082 28.721L30.0282 28.6909L30.0781 28.6207L30.1678 28.4703C30.2875 28.2697 30.3972 28.0692 30.477 27.8385C30.5768 27.3471 31.0256 27.0363 31.1752 26.5549C31.5742 26.2039 31.7836 25.7326 31.9133 25.2011C32.3122 24.83 32.412 24.2584 32.6913 23.7871C33.18 23.4361 33.3096 22.8645 33.4991 22.3229C33.5989 22.0522 33.7485 21.8115 33.9081 21.5608L34.0876 21.2599L34.2871 20.929C34.4167 20.7084 34.5464 20.4777 34.6661 20.2371C34.9055 19.866 35.1249 19.4548 35.3543 19.0236C35.5837 18.5924 35.8231 18.1311 36.0625 17.73C36.1024 17.8704 36.1323 18.0108 36.1622 18.1612C36.3318 18.5523 36.5013 19.0437 36.6609 19.6153C36.8205 20.1769 36.9601 20.7986 37.0399 21.4003C37.2593 22.0522 37.3092 22.2227 37.389 22.5536C37.4688 22.8645 37.5286 23.1754 37.6184 23.4862C37.8777 24.0779 37.9376 24.7398 38.137 25.3716C38.3565 25.9933 38.2168 26.7154 38.6557 27.297C38.8651 27.9388 38.9649 28.6107 39.1843 29.2625C39.3239 29.9344 39.4736 30.6063 39.7229 31.2682C39.703 31.4587 39.703 31.6393 39.7229 31.8097V31.8398V31.8599C39.7229 31.8599 39.7229 31.8799 39.7229 31.9C39.7229 31.92 39.7329 31.9401 39.7429 31.9602C39.7828 32.0404 39.8526 32.0304 39.8925 31.9702C39.9224 31.9501 39.9324 31.9301 39.9324 31.9501C39.9423 31.92 39.9623 31.9501 39.9922 31.9501C40.0122 31.89 40.0221 31.8699 40.0421 31.8298C40.2017 31.559 40.3712 31.2883 40.5308 31.0175C40.8001 30.3857 41.3088 29.8943 41.5481 29.2525C41.7775 28.6107 42.3261 28.1594 42.5455 27.5276C42.8049 26.9159 43.0941 26.3343 43.523 25.8429C43.6028 25.7025 43.6926 25.5721 43.7923 25.4418L43.9419 25.2512C44.0217 25.1309 44.0915 25.0206 44.1713 24.9103C44.4805 24.449 44.7199 24.0278 44.9692 23.3559C45.1288 23.045 45.2884 22.694 45.4579 22.3229C45.6674 22.6037 45.8968 22.9146 46.1162 23.3057C46.3357 23.6868 46.5351 24.1381 46.6448 24.5994C46.7246 24.7097 46.7945 24.82 46.8643 24.9403L46.964 25.1208L47.0139 25.2111L47.0438 25.2713C47.1136 25.4117 47.1635 25.5521 47.2233 25.6824C47.343 25.9632 47.4627 26.234 47.6821 26.4446C47.732 27.0964 48.2507 27.4675 48.5299 27.9589L48.6396 28.1995L48.6895 28.3199L48.7194 28.3801C48.7194 28.3801 48.7194 28.4001 48.7194 28.4101C48.7294 28.4603 48.7494 28.5204 48.7793 28.5706C48.8092 28.5706 48.8491 28.5706 48.889 28.5606C48.9089 28.5606 48.9189 28.5505 48.9389 28.5405C48.9389 28.5405 48.9588 28.5405 48.9588 28.5305H48.9788L49.0187 28.5204C49.5672 28.3901 50.0958 28.5906 50.6245 28.5505C51.1431 28.3901 51.6618 28.7611 52.1605 28.5806C52.6592 28.6207 53.1479 28.5606 53.6167 28.6107C54.0854 28.2296 54.5542 28.6107 55.003 28.6508C55.4519 28.711 55.8907 28.4001 56.3096 28.6909C56.7285 28.4001 57.1375 28.6508 57.5265 28.731C57.9155 28.8113 58.2945 28.6107 58.6635 28.7712C59.0226 28.5706 59.3717 28.8815 59.7008 28.8113C60.0299 28.9416 60.3491 28.8113 60.6483 28.8514C60.9475 28.8012 61.2268 28.8213 61.4961 28.8915C61.7654 28.9116 62.0148 28.9216 62.2442 28.9416C63.6405 29.0319 64.3985 29.1322 64.3985 29.2425L64.4484 29.2525Z" fill="#0061EF"/>
<path d="M76.3572 68.6138C76.3572 68.7241 75.5992 68.8244 74.2029 68.9147C73.9734 68.9247 73.7241 68.9447 73.4548 68.9648C73.1855 68.9949 72.9062 69.025 72.607 69.0049C72.3078 68.8645 71.9886 69.2656 71.6595 69.045C71.3303 68.9848 70.9813 69.045 70.6222 69.0851C70.2631 69.1353 69.8841 68.9949 69.4852 69.1252C69.0962 69.396 68.6872 68.8244 68.2683 69.1654C67.8494 69.2356 67.4106 69.2155 66.9617 69.2055C66.5129 68.9949 66.0541 69.2055 65.5754 69.2456C65.1066 68.9949 64.6179 69.1052 64.1192 69.2757C63.6205 68.9347 63.1118 68.9849 62.5832 69.3058C62.0645 69.3158 61.5259 69.1854 60.9774 69.3358C60.6283 69.3459 60.2792 69.3559 59.9201 69.3659C59.7705 69.1152 59.6109 68.8545 59.4613 68.5937L59.3715 68.4433L59.3117 68.323C59.2718 68.2428 59.2319 68.1625 59.202 68.0823C58.7232 67.7012 58.444 67.1998 58.3143 66.5881C58.065 66.3975 57.8854 66.1569 57.7358 65.8961C57.666 65.7658 57.6061 65.6254 57.5463 65.485C57.5463 65.4749 57.5264 65.4449 57.5264 65.4449V65.4047C57.5264 65.3847 57.5264 65.3646 57.5363 65.3345C57.5363 65.2543 57.4964 65.2042 57.4665 65.2042C57.4266 65.2042 57.4067 65.2443 57.3967 65.2443C57.3867 65.2844 57.3767 65.2744 57.3468 65.2242C57.3169 65.2643 57.287 65.3446 57.267 65.3947C57.267 65.4148 57.267 65.4148 57.2471 65.4449L57.1274 65.6555C57.0476 65.7958 56.9678 65.9262 56.878 66.0666C56.4691 66.568 56.0502 67.0795 55.9205 67.7614C55.6413 68.3631 55.382 68.9748 54.9331 69.4963C54.8234 70.2083 54.3846 70.7398 53.9257 71.2613C53.846 71.4117 53.7662 71.5621 53.6664 71.7025L53.5268 71.9131L53.457 72.0234L53.437 72.0535L53.4071 72.1037L53.3473 72.2039C53.0181 72.7354 52.7189 73.2369 52.4197 73.8987C52.2202 74.2196 52.0307 74.5606 51.8412 74.9216C51.6417 75.2927 51.4422 75.6637 51.2428 76.0348C51.1031 75.5534 50.9635 75.0119 50.8538 74.4302C50.7042 73.7182 50.5745 73.0764 50.4249 72.4647C50.385 72.3143 50.3451 72.1638 50.3052 72.0134L50.2454 71.7928L50.2154 71.6825L50.1855 71.5922C50.1257 71.4217 50.0558 71.2613 49.9761 71.1008C49.6369 70.469 49.6868 69.737 49.4474 69.0952C49.5073 68.3731 49.0186 67.8015 48.9288 67.1296C48.7293 66.4878 48.7193 65.7958 48.4301 65.1942C48.2206 64.5724 48.0012 63.9506 47.9414 63.3088C47.6721 63.0481 47.6222 62.7372 47.5923 62.4063C47.5823 62.2458 47.5823 62.0854 47.5624 61.9249V61.8046L47.5424 61.7544C47.5424 61.7544 47.5424 61.7544 47.5424 61.7444C47.5424 61.7244 47.5424 61.7143 47.5225 61.7043C47.5723 61.594 47.5424 61.4837 47.5125 61.4436C47.4726 61.3934 47.4427 61.4135 47.4427 61.3032C47.4427 61.3032 47.4327 61.3032 47.4227 61.2831C47.3928 61.3332 47.3728 61.2831 47.3429 61.2931C47.303 61.2931 47.2532 61.3734 47.2532 61.5138C47.2332 61.5338 47.2133 61.5739 47.2033 61.604C47.2033 61.6241 47.1933 61.6441 47.1933 61.6542V61.6842C47.1933 61.6842 47.1933 61.6842 47.1634 61.7344C47.0337 61.9951 46.8941 62.2458 46.6846 62.4564C46.565 63.0381 45.9865 63.3489 45.8269 63.8905C45.5576 64.3618 45.2983 64.8331 44.999 65.2744C44.4804 65.5852 44.4405 66.1468 44.2011 66.5981C43.9218 67.0193 43.852 67.5408 43.4431 67.8517C43.3134 68.0522 43.1638 68.2327 43.0342 68.4233C43.0042 68.4734 42.9743 68.5236 42.9344 68.5637L42.8846 68.6339L42.8247 68.7442C42.7349 68.8946 42.6651 69.0551 42.5953 69.2356C42.5554 69.3058 42.5155 69.376 42.4756 69.4361C42.1465 69.4161 41.8173 69.3158 41.558 69.2656C41.3685 69.2155 41.179 69.2255 40.9895 69.396C40.5706 69.4662 40.1617 69.0952 39.7727 69.3559C39.3837 69.5966 39.0047 69.3258 38.6356 69.3158C38.2766 69.3058 37.9275 69.2857 37.5884 69.2757C34.6061 69.1453 32.8906 68.9949 32.8906 68.8445C32.8906 68.6639 35.0051 68.5035 38.6257 68.3631C38.9847 68.3531 39.3637 68.1425 39.7627 68.323C40.1517 68.323 40.5606 68.1625 40.9795 68.2829C41.169 68.1625 41.3585 68.1425 41.548 68.1525C41.5979 68.1525 41.6079 68.1726 41.6578 68.1926C41.6976 68.2127 41.7375 68.2227 41.7774 68.2428C41.7874 68.2327 41.8074 68.2227 41.8173 68.2026C41.8373 68.1625 41.8572 68.1224 41.8872 68.0923L41.9071 68.0622L41.957 67.9921L42.0467 67.8416C42.1664 67.6411 42.2761 67.4405 42.3559 67.1998C42.4557 66.7084 42.9045 66.4076 43.0541 65.9162C43.4531 65.5652 43.6625 65.0939 43.7922 64.5624C44.1911 64.1913 44.2909 63.6297 44.5702 63.1584C45.0589 62.8074 45.1885 62.2358 45.378 61.6943C45.4778 61.4235 45.6274 61.1828 45.787 60.9321L45.9765 60.6313L46.176 60.3003C46.3056 60.0797 46.4353 59.8491 46.555 59.6084C46.7944 59.2373 47.0138 58.8362 47.2432 58.405C47.4726 57.9738 47.712 57.5225 47.9513 57.1113C47.9912 57.2517 48.0212 57.4021 48.061 57.5526C48.2206 57.9437 48.4002 58.4451 48.5597 59.0067C48.7193 59.5683 48.859 60.19 48.9388 60.7817C49.1582 61.4335 49.1981 61.594 49.2878 61.9349C49.3577 62.2458 49.4275 62.5567 49.5073 62.8676C49.7666 63.4592 49.8264 64.1211 50.0259 64.7529C50.2454 65.3747 50.1057 66.1067 50.5545 66.6783C50.764 67.3201 50.8637 67.992 51.0832 68.6439C51.2228 69.3158 51.3624 69.9877 51.6218 70.6495C51.6018 70.8301 51.6018 71.0106 51.6218 71.1911V71.2212V71.2513C51.6218 71.2513 51.6218 71.2713 51.6218 71.2914C51.6218 71.3114 51.6317 71.3315 51.6417 71.3515C51.6816 71.4318 51.7514 71.4217 51.7913 71.3616C51.8212 71.3315 51.8312 71.3214 51.8312 71.3415C51.8412 71.3114 51.8512 71.3415 51.8911 71.3415C51.911 71.2813 51.921 71.2613 51.9409 71.2212C52.1005 70.9504 52.2701 70.6796 52.4297 70.4089C52.699 69.7771 53.2076 69.2857 53.447 68.6439C53.6764 68.0021 54.225 67.5508 54.4444 66.919C54.7037 66.3073 54.993 65.7257 55.4218 65.2343C55.5016 65.0939 55.5914 64.9635 55.6911 64.8331L55.8408 64.6426C55.9205 64.5323 55.9904 64.4119 56.0702 64.3016C56.3694 63.8403 56.6187 63.4191 56.8681 62.7472C57.0277 62.4364 57.1872 62.0854 57.3668 61.7043C57.5762 61.9851 57.8056 62.296 58.0251 62.677C58.2445 63.0581 58.444 63.5094 58.5537 63.9707C58.6335 64.081 58.7033 64.1913 58.7731 64.3117L58.8728 64.4922L58.9227 64.5824L58.9526 64.6426C59.0225 64.773 59.0723 64.9234 59.1322 65.0538C59.2519 65.3345 59.3715 65.6053 59.591 65.8159C59.6408 66.4677 60.1595 66.8388 60.4388 67.3302L60.5485 67.5709L60.5983 67.6912L60.6283 67.7514C60.6283 67.7514 60.6283 67.7714 60.6283 67.7815C60.6382 67.8316 60.6582 67.8918 60.6881 67.9419C60.718 67.9419 60.7579 67.9419 60.7978 67.9319C60.8178 67.9319 60.8377 67.9219 60.8477 67.9118C60.8477 67.9118 60.8676 67.9118 60.8676 67.9018C60.8676 67.9018 60.8876 67.9018 60.8976 67.9018H60.9375C61.486 67.7614 62.0147 67.962 62.5433 67.9219C63.0619 67.7614 63.5806 68.1324 64.0793 67.9519C64.578 67.9921 65.0667 67.9319 65.5355 67.982C66.0142 67.6009 66.473 67.982 66.9218 68.0221C67.3707 68.0723 67.8095 67.7714 68.2284 68.0622C68.6473 67.7714 69.0563 68.0221 69.4453 68.1024C69.8343 68.1826 70.2133 67.982 70.5823 68.1425C70.9414 67.9419 71.2905 68.2528 71.6196 68.1826C71.9487 68.313 72.2679 68.1826 72.5671 68.2227C72.8663 68.1826 73.1456 68.1926 73.4149 68.2628C73.6842 68.2829 73.9336 68.2929 74.163 68.313C75.5593 68.4032 76.3173 68.5035 76.3173 68.6138H76.3572Z" fill="#0061EF"/>
</g>
<defs>
<clipPath id="clip0_1617_23454">
<rect width="69" height="85" fill="white" transform="translate(21)"/>
</clipPath>
</defs>
</svg>
