<svg width="78" height="96" viewBox="0 0 78 96" fill="none" xmlns="http://www.w3.org/2000/svg">
<path d="M52 0C56.4183 0 60 3.58172 60 8V22H70C74.4183 22 78 25.5817 78 30V66C78 70.4183 74.4183 74 70 74H60V88C60 92.4183 56.4183 96 52 96H26C21.5817 96 18 92.4183 18 88V74H8C3.58172 74 1.61069e-07 70.4183 0 66V30C0 25.5817 3.58172 22 8 22H18V8C18 3.58172 21.5817 8.0532e-08 26 0H52Z" fill="#D2F0FF"/>
<g clip-path="url(#clip0_4172_26038)">
<path d="M49.2817 74.5163C49.2817 74.6245 48.1507 74.7327 46.0755 74.8311C45.7313 74.8507 45.3576 74.8606 44.9642 74.8802C44.5708 74.9098 44.1479 74.9393 43.6955 74.9294C43.2529 74.7819 42.7808 75.195 42.2891 74.9688C41.7973 74.9097 41.2761 74.9688 40.7352 75.0081C40.1942 75.0573 39.6337 74.9196 39.0534 75.0475C38.4731 75.3327 37.8634 74.7327 37.2339 75.0868C36.6045 75.1655 35.9652 75.1458 35.2965 75.1262C34.6277 74.9098 33.9392 75.1262 33.241 75.1655C32.5328 74.9098 31.8051 75.018 31.0674 75.195C30.32 74.8409 29.5627 74.8901 28.7857 75.2245C28.0088 75.2344 27.2122 75.0966 26.4057 75.254C25.5992 75.2737 24.7633 75.3426 23.9273 75.2835C23.0815 75.5196 22.2259 75.5098 21.3505 75.3131C20.9178 75.4409 20.4752 75.4803 20.0327 75.4704C19.9245 75.4704 19.8065 75.4704 19.6983 75.4508H19.6589H19.6393L19.6196 75.4311C19.6196 75.4311 19.5311 75.3721 19.4524 75.3426H19.4229C19.4229 75.3426 19.3934 75.4213 19.4131 75.4803C19.4131 75.5098 19.4327 75.5393 19.4426 75.559C19.4426 75.559 19.4426 75.559 19.4426 75.5787V75.618L19.4524 75.6967L19.4721 75.8639C19.5213 76.3066 19.5508 76.7591 19.4524 77.2017C19.4327 78.1264 19.5114 79.0707 19.4721 80.0249C19.3639 80.9791 19.2557 81.9431 19.4917 82.9169C19.5508 83.8908 19.6393 84.8745 19.5016 85.868C19.777 86.8615 19.6491 87.8648 19.5016 88.8879C19.5508 89.9011 19.3541 90.9241 19.5016 91.957C19.4819 92.4783 19.5016 92.9898 19.5311 93.5112V93.9047L19.5508 94.062C19.5508 94.062 19.5508 94.0719 19.5508 94.0817C19.5508 94.1112 19.5409 94.1407 19.5114 94.1998C19.5114 94.1998 19.5606 94.2391 19.6098 94.2588H19.6491C19.6491 94.2588 19.6491 94.2686 19.6688 94.2686H19.718H19.8163H20.2097C20.7309 94.2883 21.2522 94.2686 21.7636 94.1899C22.7963 94.0129 23.8191 94.2588 24.8321 94.1899C25.8451 94.4457 26.8483 94.1112 27.8514 94.1899C28.8448 94.1604 29.8282 94.3375 30.8019 94.1998C31.7756 94.1506 32.7394 94.1014 33.6934 94.2096C34.6474 93.8161 35.5817 94.308 36.516 94.2293C37.4405 94.3965 38.3551 94.1998 39.2599 94.2489C40.1647 94.1702 41.0499 94.426 41.9154 94.2686C42.7907 94.2981 43.6463 94.1407 44.4921 94.2981C45.3379 94.1014 46.164 94.4654 46.9705 94.3276H48.2982H48.3376H48.4261C48.4851 94.3276 48.5441 94.3473 48.6228 94.3571C48.7014 94.3571 48.7408 94.2981 48.7605 94.2194C48.7703 94.1801 48.7703 94.1407 48.7703 94.0916V94.0129L48.7605 93.8653C48.7309 93.4817 48.6621 93.1079 48.6523 92.7341C48.6818 91.9963 48.4752 91.2684 48.6818 90.5601C48.7014 89.8519 48.8391 89.1731 48.7211 88.5042C48.6719 87.8353 49.1637 87.1861 48.7605 86.5664C48.6916 85.9368 49.0752 85.3368 48.7998 84.7564C48.5539 84.176 48.8293 83.6055 48.8391 83.0743C48.8588 82.5333 48.8686 82.0119 48.8785 81.5201C49.0063 77.0739 49.1637 74.5261 49.3309 74.5261C49.5177 74.5261 49.6849 77.6739 49.8226 83.0743C49.8325 83.6153 50.0488 84.176 49.862 84.7564C49.862 85.3368 50.0292 85.9467 49.9013 86.5664C50.1865 87.1959 49.9505 87.8353 49.9406 88.5042C49.9505 89.1731 49.862 89.8617 49.98 90.5601C50.1472 91.2684 49.9013 91.9865 50.0095 92.7341C49.921 93.1079 49.8915 93.4817 49.9013 93.8653C49.9013 93.9834 49.9013 94.1014 49.921 94.2194C49.921 94.3768 49.9406 94.5244 49.9505 94.6916C49.9701 95.0162 50.0095 95.3507 50.0488 95.7245V95.7737C49.6751 95.7343 49.3505 95.7146 49.0358 95.7146C48.8785 95.7146 48.7211 95.7146 48.5539 95.7146H48.3179L48.1605 95.7343C47.7671 95.7638 47.3737 95.813 46.9705 95.813C46.164 95.5474 45.3281 95.7343 44.4921 95.8425C43.6463 95.9409 42.7907 95.8032 41.9154 95.872C41.04 95.8228 40.1549 95.9409 39.2599 95.8917C38.3551 96.0097 37.4405 96.0589 36.516 95.9114C35.5915 95.9999 34.6474 95.931 33.6934 95.931C32.7394 96.0392 31.7756 95.9212 30.8019 95.9409C29.8282 95.9901 28.8448 95.6654 27.8514 95.9507C26.8581 95.9901 25.8549 95.9015 24.8321 95.9507C23.8191 95.9114 22.7963 95.872 21.7636 95.9507C21.2522 95.813 20.7309 95.7835 20.2097 95.8032C20.0818 95.8032 19.954 95.813 19.8163 95.8327H19.718L19.6688 95.8425H19.5901L19.236 95.8622C18.7345 95.8917 18.2427 95.9212 17.7411 95.9507C17.7215 95.4785 17.7116 94.9867 17.7018 94.485V93.8751V93.4817C17.7018 92.9603 17.7313 92.4488 17.751 91.9275C17.7215 90.8946 17.7411 89.8716 17.751 88.8584C17.6625 87.8452 17.869 86.8418 17.751 85.8385C17.633 84.8449 17.8788 83.8613 17.7608 82.8874C17.6821 81.9136 17.633 80.9496 17.7706 79.9954C17.7706 79.0412 18.0263 78.1067 17.7903 77.1722C17.7608 76.7197 17.6723 76.2771 17.633 75.8344V75.6672L17.6133 75.5885V75.4704C17.6133 75.254 17.6133 75.0278 17.6133 74.8114C17.633 74.3786 17.6723 73.9654 17.7608 73.6506C17.8198 73.6605 17.8788 73.6703 17.9378 73.6801C18.3214 73.6605 18.7443 73.6506 19.1475 73.6703H19.4524L19.5999 73.69H19.6589H19.6983L20.0327 73.7195C20.4752 73.7588 20.9178 73.7884 21.3505 73.6998C22.2259 73.9949 23.0815 73.7097 23.9273 73.7195C24.7731 73.7785 25.5992 73.8769 26.4057 73.749C27.222 73.6113 28.0088 73.8277 28.7857 73.7785C29.5627 73.6113 30.32 73.9949 31.0674 73.808C31.8051 73.8474 32.5328 73.7785 33.241 73.8474C33.9491 73.4539 34.6277 73.8474 35.2965 73.8867C35.9652 73.9457 36.6143 73.631 37.2339 73.9261C37.8634 73.631 38.4633 73.8867 39.0534 73.9654C39.6337 74.0539 40.1942 73.8375 40.7352 74.0048C41.2761 73.7982 41.7875 74.1228 42.2891 74.0441C42.7808 74.1818 43.2529 74.0441 43.6955 74.0835C44.138 74.0343 44.5609 74.0539 44.9642 74.1326C45.3576 74.1523 45.7313 74.1622 46.0755 74.1818C48.1507 74.2802 49.2817 74.3884 49.2817 74.4966V74.5163Z" fill="#0061EF"/>
<path d="M18.5983 11.8361C18.7064 11.8361 18.8146 12.9673 18.913 15.0429C18.9326 15.3872 18.9425 15.761 18.9622 16.1544C18.9917 16.5479 19.0212 16.9709 19.0113 17.4234C18.8638 17.866 19.2769 18.3382 19.0605 18.83C18.9917 19.3219 19.0605 19.8432 19.0998 20.3843C19.149 20.9253 19.0113 21.486 19.1392 22.0664C19.4146 22.6467 18.8245 23.2566 19.1785 23.8763C19.2572 24.5059 19.2375 25.1551 19.2179 25.8142C19.0015 26.4831 19.2179 27.1717 19.2572 27.8701C19.0015 28.5783 19.1097 29.2964 19.2867 30.044C19.1097 30.4178 19.031 30.7916 19.0408 31.1753C19.0408 31.2244 19.0408 31.2736 19.0408 31.3228C19.0408 31.3622 19.0408 31.3818 19.0605 31.4113C19.0703 31.4605 19.09 31.5097 19.1195 31.5491C19.1687 31.6277 19.2277 31.6671 19.3162 31.6573C19.3752 31.6573 19.4342 31.6671 19.4932 31.6769H19.5916L19.6408 31.6966H19.7883C20.1817 31.7163 20.5751 31.7064 20.9783 31.6376C21.7848 31.6179 22.6207 31.5491 23.4567 31.6081C24.3025 31.372 25.1581 31.3818 26.0335 31.5884C26.9088 31.3326 27.7939 31.431 28.6889 31.5687C29.5937 31.7064 30.5083 31.3425 31.4328 31.5491C32.3573 31.5687 33.3015 31.49 34.2554 31.5294C35.2094 31.6376 36.1733 31.7556 37.1469 31.5195C38.1206 31.4605 39.1041 31.372 40.0974 31.5097C41.0907 31.2343 42.1037 31.3622 43.1167 31.5097C44.1297 31.4605 45.1525 31.6573 46.1852 31.5097C46.6966 31.5294 47.2179 31.5097 47.7391 31.4802H48.1325L48.2899 31.4605H48.2997C48.2997 31.4605 48.3587 31.4704 48.4276 31.4999C48.4276 31.4999 48.4669 31.4507 48.4866 31.4015V31.3622C48.4866 31.3622 48.4964 31.3622 48.4964 31.3523V31.3031V31.2048V30.8113C48.5161 30.2899 48.4964 29.7686 48.4177 29.2571C48.2407 28.2242 48.4866 27.2012 48.4177 26.188C48.6734 25.1748 48.339 24.1714 48.4177 23.1681C48.3882 22.1746 48.5652 21.1909 48.4276 20.217C48.3784 19.2432 48.3292 18.2792 48.4374 17.325C48.044 16.3708 48.5357 15.4363 48.4571 14.5018C48.5357 14.0493 48.5357 13.6067 48.5161 13.164V12.9968L48.5062 12.9181V12.8788C48.5062 12.8788 48.5062 12.8788 48.5062 12.8591L48.4866 12.7902C48.4866 12.7902 48.4669 12.7017 48.4866 12.6525H48.4669C48.3981 12.6624 48.3685 12.6624 48.3194 12.6525H48.28L48.2604 12.6328C48.2604 12.6328 48.2407 12.6328 48.2309 12.6328H48.1915L47.8571 12.6033C47.4146 12.564 46.972 12.5443 46.5393 12.623C45.6639 12.5935 44.8083 12.7509 43.9625 12.6033C43.1167 12.8001 42.2906 12.4361 41.4841 12.5738C40.6776 12.5738 39.881 12.5837 39.1041 12.5443C38.3271 12.2394 37.5698 12.4951 36.8224 12.5148C36.0847 12.4853 35.357 12.6919 34.6488 12.4853C33.9407 12.4656 33.2523 12.3279 32.5933 12.4459C31.9246 12.4951 31.2755 12.0033 30.6559 12.4066C30.0264 12.4755 29.4265 12.0918 28.8364 12.3672C28.2561 12.6132 27.6857 12.3377 27.1546 12.3279C26.6137 12.3181 26.1023 12.2984 25.6007 12.2886C21.1553 12.1607 18.6081 12.0033 18.6081 11.8361C18.6081 11.6492 21.7553 11.4819 27.1448 11.3442C27.6857 11.3344 28.2463 11.118 28.8266 11.3049C29.4068 11.3049 30.0166 11.1475 30.646 11.2655C31.2755 10.9803 31.9147 11.2163 32.5835 11.2262C33.2523 11.2163 33.9309 11.3049 34.639 11.1868C35.3471 11.0196 36.0651 11.2655 36.8125 11.1573C37.56 11.3344 38.3173 11.2852 39.0942 11.1278C39.8712 11.295 40.6678 11.0885 41.4743 11.0983C42.2906 11.3541 43.1167 11.177 43.9527 11.0688C44.7985 10.9704 45.6541 11.1081 46.5294 11.0393C46.9622 11.0688 47.4047 11.0393 47.8473 11.0393H48.1817C48.3685 11.0196 48.5456 11.0196 48.7324 11.0196C49.1357 11.0196 49.5487 11.0196 49.952 11.0196C50.0011 11.0196 50.0602 11.0196 50.1093 11.0098C50.1388 11.3737 50.1585 11.777 50.1782 12.1803L50.1978 12.8001V13.164C50.2175 13.6067 50.188 14.0493 50.1192 14.5018C50.2077 15.4265 50.1388 16.3708 50.1388 17.325C50.247 18.2792 50.129 19.2432 50.1487 20.217C50.2077 21.1909 49.8733 22.1746 50.1585 23.1681C50.1978 24.1616 50.1093 25.165 50.1585 26.188C50.1192 27.2012 50.0798 28.2242 50.1585 29.2571C50.0208 29.7686 49.9913 30.2899 50.011 30.8113C50.011 30.9392 50.0208 31.0671 50.0405 31.2048V31.3031L50.0503 31.3523V31.431L50.07 31.7851C50.0995 32.2868 50.129 32.7787 50.1585 33.2803C49.6864 33.3 49.1947 33.3098 48.6931 33.3197H48.0833H47.6899C47.1687 33.3197 46.6474 33.2902 46.136 33.2705C45.1034 33.3 44.0805 33.2803 43.0675 33.2705C42.0545 33.359 41.0514 33.1525 40.0482 33.2705C39.0549 33.3885 38.0714 33.1426 37.0977 33.2607C36.1241 33.3394 35.1603 33.3885 34.2063 33.2508C33.2523 33.2508 32.318 32.9951 31.3836 33.2312C30.4592 33.2902 29.5445 33.605 28.6397 33.2115C27.7349 33.3098 26.8498 33.0246 25.9843 33.1918C25.109 32.9065 24.2533 33.182 23.4075 33.1623C22.5617 33.1033 21.7356 33.0049 20.9291 33.1328C20.5259 33.2016 20.1325 33.182 19.7391 33.1525H19.5916L19.3359 33.1328C19.1687 33.1328 19.0015 33.1229 18.8343 33.1131C18.5097 33.1033 18.1852 33.0934 17.8508 33.1131V33.0639C17.8115 32.7688 17.8016 32.4245 17.8115 32.0901C17.8115 31.9229 17.8213 31.7458 17.841 31.5884V31.4605L17.8508 31.4015V31.372V31.3523L17.8705 31.2048C17.9197 30.8211 17.9688 30.4473 17.8705 30.0735C17.9098 29.3259 17.841 28.6078 17.9 27.8996C17.5066 27.1913 17.9 26.5028 17.9393 25.8437C17.9983 25.1748 17.6836 24.5354 17.9787 23.9058C17.6836 23.2763 17.9393 22.6762 18.018 22.0959C18.1065 21.5155 17.8901 20.945 18.0573 20.4138C17.8508 19.8727 18.1754 19.3514 18.0967 18.8596C18.2344 18.3677 18.0967 17.8955 18.1459 17.4529C18.0967 17.0102 18.1164 16.5872 18.195 16.1839C18.2147 15.7905 18.2245 15.4167 18.2442 15.0724C18.3426 12.9968 18.4409 11.8656 18.5589 11.8656L18.5983 11.8361Z" fill="#0061EF"/>
<path d="M12.3147 32.3558C12.3147 32.3558 12.1869 32.4149 11.941 32.4542C11.882 32.4641 11.8131 32.4739 11.7345 32.4837C11.6656 32.5034 11.5771 32.5231 11.4886 32.5428C11.4001 32.5624 11.3017 32.5821 11.2034 32.6116C11.105 32.6411 10.9969 32.6805 10.8887 32.71C10.4461 32.8674 9.90518 33.0936 9.35442 33.5068C8.80367 33.9101 8.25291 34.4904 7.83001 35.2577C7.55463 35.7692 7.33826 36.3693 7.24975 37.0283C7.24975 37.107 7.23008 37.1956 7.22024 37.2743C7.21041 37.3628 7.22024 37.4415 7.22024 37.53C7.22024 37.6972 7.22024 37.8743 7.22024 38.0612C7.23008 38.435 7.23008 38.8285 7.22024 39.222C7.07272 40.0187 7.48579 40.8647 7.26942 41.75C7.21041 42.6353 7.26942 43.56 7.30876 44.524C7.35793 45.488 7.22024 46.5012 7.3481 47.5439C7.63331 48.5866 7.03338 49.6687 7.38744 50.7901C7.46612 51.9115 7.44645 53.0722 7.42678 54.2625C7.21041 55.4527 7.42678 56.6823 7.46612 57.9513C7.21041 59.2104 7.31859 60.5088 7.49562 61.8368C7.14156 63.1648 7.20057 64.5321 7.52513 65.9191C7.52513 66.6175 7.49562 67.3159 7.48579 68.034C7.48579 68.3881 7.47595 68.7521 7.48579 69.0964C7.50546 69.2538 7.50546 69.4112 7.53496 69.5686C7.5743 69.7259 7.60381 69.8833 7.65298 70.0309C7.8005 70.6408 8.07588 71.2211 8.45944 71.7327C8.83317 72.2442 9.31508 72.6868 9.84617 73.0508C10.4658 73.2869 11.0755 73.4443 11.705 73.523L11.823 73.5426H11.941L12.177 73.5721H12.2951L12.4426 73.5918L12.7278 73.6115C13.1114 73.641 13.5048 73.6804 13.8981 73.7295C15.4619 73.4738 17.0453 73.5721 18.6582 73.7099C20.2712 73.8476 21.9038 73.4836 23.5659 73.6902C25.228 73.7099 26.9097 73.6312 28.6112 73.6705C30.3126 73.7787 32.0436 73.8869 33.7843 73.6607C35.5251 73.6017 37.2954 73.5131 39.0755 73.6508C40.8557 73.3754 42.6554 73.5033 44.4749 73.6508C46.2944 73.6017 48.1236 73.7984 49.9726 73.6508C51.8216 73.6902 53.6804 73.5328 55.5588 73.6508C56.3456 73.6803 57.1521 73.523 57.8504 73.1393C58.5487 72.7557 59.1388 72.1655 59.4731 71.4572C59.6502 71.1129 59.7682 70.749 59.896 70.385L59.9649 70.1096L60.0042 69.9719L60.0337 69.8342L60.0829 69.5489C60.0927 69.4505 60.1026 69.362 60.1124 69.2636V69.1259L60.1321 69.057V68.9685L60.1518 68.6242L60.1714 67.9356C60.1714 67.4832 60.1813 67.0208 60.1714 66.5683C60.4271 64.7485 60.0927 62.9484 60.1714 61.1679C60.1419 59.3874 60.3189 57.6168 60.1813 55.8757C60.1321 54.1346 60.0829 52.4033 60.1911 50.7015C59.7977 48.9998 60.2894 47.3177 60.2108 45.6552C60.378 43.9928 60.1813 42.3599 60.2304 40.7467C60.1911 39.94 60.2304 39.1433 60.2698 38.3465V38.0514C60.2894 37.953 60.2894 37.8448 60.2894 37.7661V37.5103C60.2894 37.4218 60.2796 37.3431 60.2599 37.2546C60.2304 37.0874 60.2206 36.9103 60.1518 36.7529C60.1026 36.5955 60.0534 36.4283 59.9649 36.2807C59.7584 35.6414 59.365 35.0807 58.9027 34.6183C58.4405 34.156 57.8996 33.792 57.3291 33.4772C57.1619 33.4477 57.0144 33.3986 56.8571 33.3592C56.6997 33.3297 56.5522 33.2805 56.3948 33.2608L56.1588 33.2215C56.0801 33.2018 56.0014 33.192 55.9227 33.1821L55.6867 33.1526C55.608 33.1526 55.5293 33.133 55.431 33.1231C54.6934 33.0739 53.9558 33.0248 53.228 33.0838C51.7724 33.0838 50.3562 33.0936 48.9596 33.0543C47.5631 32.7493 46.2058 33.0051 44.8781 33.0248C43.5504 32.9952 42.2522 33.2018 40.9933 32.9952C39.7345 32.9657 38.5051 32.8379 37.3052 32.9559C36.1152 33.0051 34.9547 32.5132 33.8335 32.9166C32.7123 32.9854 31.6305 32.6018 30.588 32.8772C29.5455 33.1231 28.5325 32.8477 27.5687 32.8379C26.6049 32.828 25.6804 32.8083 24.7952 32.7985C20.8219 32.7296 17.6846 32.6608 15.5504 32.5821C13.4162 32.5034 12.2754 32.4247 12.2754 32.346C12.2754 32.2575 13.6818 32.169 16.2979 32.0804C18.914 32.0017 22.7397 31.923 27.5687 31.8542C28.5325 31.8443 29.5357 31.6279 30.588 31.8148C31.6305 31.8148 32.7123 31.6476 33.8335 31.7755C34.9547 31.4902 36.1152 31.7263 37.3052 31.7361C38.4953 31.7263 39.7246 31.8148 40.9933 31.6968C42.2522 31.5296 43.5504 31.7755 44.8781 31.6673C46.2058 31.8443 47.5729 31.7952 48.9596 31.6378C50.3562 31.805 51.7724 31.5984 53.228 31.6083C53.9558 31.7361 54.6835 31.7558 55.431 31.7263C55.5195 31.7263 55.6179 31.7263 55.726 31.7263H56.0408C56.1489 31.7263 56.2473 31.7263 56.3555 31.746L56.6702 31.7755C56.8767 31.7952 57.0833 31.8443 57.2996 31.8837C57.5062 31.923 57.7127 32.0017 57.9192 32.0607C58.7355 32.346 59.4731 32.8575 60.0731 33.5068C60.673 34.156 61.1352 34.9233 61.4598 35.7594C61.5385 35.966 61.5877 36.1922 61.6368 36.4086C61.6958 36.625 61.7155 36.8513 61.7548 37.0677C61.7745 37.1759 61.7843 37.2939 61.7942 37.4021L61.8139 37.7464C61.8237 37.8645 61.8139 37.953 61.8237 38.0612V38.3563C61.8434 39.1531 61.863 39.9499 61.8434 40.7565C61.9614 42.3697 62.0106 44.0027 61.863 45.6651C61.9515 47.3275 61.8827 49.0096 61.8827 50.7114C61.9909 52.4131 61.8729 54.1444 61.8925 55.8855C61.9515 57.6267 61.6172 59.3973 61.9024 61.1777C61.9417 62.9582 61.8532 64.7584 61.9024 66.5782C61.9024 67.0307 61.8827 67.4832 61.8729 67.9455V68.6341L61.863 68.9783V69.0669V69.1652V69.362C61.8434 69.4899 61.8434 69.6276 61.8237 69.7555L61.7647 70.1489L61.7352 70.3457L61.686 70.5424L61.5877 70.926C61.4205 71.4277 61.2336 71.9392 60.9582 72.4016C60.2796 73.2475 59.483 73.9459 58.5782 74.4968C57.6734 75.0378 56.621 75.3821 55.5293 75.451C53.6509 75.5297 51.7921 75.4903 49.9431 75.451C48.0941 75.4805 46.2649 75.4608 44.4454 75.451C42.6259 75.5297 40.8261 75.3329 39.046 75.451C37.2659 75.569 35.5055 75.3231 33.7548 75.4411C32.0141 75.5198 30.2831 75.569 28.5817 75.4313C26.8802 75.4313 25.1985 75.1755 23.5364 75.4116C21.8743 75.4707 20.2417 75.7854 18.6287 75.392C17.0158 75.4903 15.4324 75.2051 13.8686 75.3723C13.4752 75.3034 13.0917 75.2641 12.6983 75.2444H12.4131H12.2656H12.1082L11.7836 75.2247H11.6263L11.4591 75.2051C10.6035 75.1264 9.73798 74.8903 9.00036 74.428C8.28241 73.9558 7.68248 73.3361 7.21041 72.6475C6.73833 71.9589 6.39411 71.2015 6.15807 70.4047C6.09906 70.208 6.05972 70.0014 6.02038 69.7948C5.99088 69.5882 5.98104 69.3817 5.97121 69.1751C5.97121 69.0669 5.97121 68.9882 5.97121 68.8898V68.6242C5.98104 68.4472 5.99088 68.2701 6.00071 68.093C6.03022 67.3848 6.06956 66.6765 6.04989 65.9781C5.8827 64.5813 6.26626 63.2238 6.07939 61.8958C6.11873 60.5679 6.04989 59.2694 6.11873 58.0103C5.72534 56.7512 6.11873 55.5216 6.15807 54.3215C6.21708 53.1312 5.90237 51.9705 6.19741 50.8491C5.90237 49.7277 6.15807 48.6456 6.23675 47.6029C6.32527 46.5602 6.1089 45.547 6.27609 44.583C6.06956 43.619 6.39411 42.6944 6.31543 41.809C6.45312 40.9237 6.31543 40.0876 6.36461 39.281C6.34494 38.8777 6.3351 38.494 6.34494 38.1202C6.34494 37.9333 6.36461 37.7366 6.38428 37.5399C6.39411 37.4415 6.40395 37.3431 6.42362 37.2448C6.44329 37.1464 6.47279 37.0579 6.49246 36.9595C6.63015 36.2119 6.90553 35.543 7.24975 34.9921C7.771 34.156 8.4201 33.5559 9.04954 33.1625C9.67897 32.7592 10.2789 32.5624 10.7706 32.4542C10.8985 32.4345 11.0067 32.405 11.1149 32.3854C11.2231 32.3657 11.3214 32.3657 11.4198 32.3558C11.5083 32.3558 11.5968 32.3362 11.6755 32.3362C11.7541 32.3362 11.823 32.3362 11.8918 32.3362C12.1475 32.346 12.2754 32.3755 12.2754 32.3952L12.3147 32.3558Z" fill="#0061EF"/>
<path d="M33.9607 45.8321C33.9607 45.8321 33.764 45.6846 33.5181 45.3305C33.2624 44.9862 32.928 44.4648 32.4264 43.8549C32.2592 43.6484 32.0724 43.4516 31.856 43.2352C31.738 43.1467 31.6298 43.0385 31.5118 42.9401C31.3839 42.8516 31.2757 42.7335 31.1479 42.645C31.0594 42.4876 30.8823 42.4384 30.7151 42.4089C30.6266 42.3893 30.548 42.3696 30.4693 42.3302C30.3906 42.3007 30.3218 42.2515 30.2627 42.163C30.1939 42.104 30.1152 42.0646 30.0267 42.0351C29.9382 42.0056 29.8497 41.9663 29.7612 41.9466C29.6726 41.9269 29.5743 41.9171 29.476 41.8974C29.3776 41.8777 29.2891 41.8679 29.1907 41.8679C29.0924 41.8679 28.994 41.8482 28.8957 41.8286C28.7973 41.8089 28.699 41.7892 28.5908 41.7794C28.3843 41.74 28.1777 41.74 27.9614 41.799C27.745 41.9368 27.5483 41.8777 27.3221 41.8187C27.2139 41.799 27.0959 41.7794 26.9877 41.799C26.8795 41.8187 26.7713 41.8482 26.6828 41.9663C26.4763 42.0646 26.2599 42.1138 26.0436 42.2122C25.9354 42.2515 25.8272 42.2909 25.719 42.3302C25.6108 42.3794 25.5026 42.4286 25.3945 42.4679C25.3256 42.4679 25.2666 42.4679 25.2076 42.4876C25.1486 42.5073 25.0896 42.527 25.0404 42.5565C24.9322 42.6155 24.8339 42.6844 24.7355 42.7631C24.5585 42.9401 24.3913 43.127 24.2241 43.3139C24.0963 43.3533 23.9586 43.4024 23.8602 43.4811C23.7619 43.5598 23.6635 43.6582 23.5848 43.7566C23.5062 43.8549 23.4471 43.9828 23.398 44.1107C23.3685 44.1697 23.3488 44.2386 23.3193 44.2976C23.2996 44.3665 23.2898 44.4353 23.2701 44.5042C22.68 44.7501 22.4833 45.36 22.6604 45.96C22.6309 46.0879 22.5817 46.2158 22.5522 46.3535C22.5227 46.4912 22.4932 46.6191 22.4637 46.7568C22.4342 46.8945 22.4342 47.0322 22.4342 47.1699C22.4342 47.2388 22.4342 47.3077 22.444 47.3765C22.4538 47.4552 22.4735 47.5241 22.4932 47.5929C22.5325 48.1831 22.6702 48.7635 22.7489 49.3734C23.1128 49.9243 23.2898 50.4948 23.339 51.1735C23.811 51.6752 24.0077 52.2949 24.2143 52.9638C24.4208 53.6327 25.0896 54.0361 25.3158 54.7246C25.6993 55.3148 26.1813 55.8559 26.5943 56.4559C26.9582 57.0953 27.3418 57.7544 28.0105 58.1675C28.5515 58.6987 29.1219 59.2102 29.5448 59.8693C30.2726 60.2529 30.7151 60.9022 31.1577 61.5711C31.738 62.1121 32.1609 62.8105 32.8395 63.2827C33.105 63.5876 33.4099 63.8532 33.7148 64.1286C33.9213 64.3254 33.8722 64.2565 33.9017 64.286C33.9213 64.3057 33.9213 64.3254 33.9508 64.3942C33.9705 64.3942 34 64.3942 34.0394 64.3942C34.0885 64.3647 34.0689 64.4041 34.2656 64.2172C34.5606 63.9319 34.836 63.6368 35.0622 63.2925C35.5048 62.5941 36.2424 62.2006 36.744 61.5809C37.4717 61.1874 37.7668 60.3906 38.3569 59.8791C38.8585 59.2987 39.4977 58.8364 39.8911 58.1774C40.3435 57.5773 40.7763 56.9773 41.3074 56.4657C41.445 55.6591 42.2613 55.3739 42.5859 54.7345C43.117 54.2426 43.3235 53.5442 43.6874 52.9737C43.9431 52.354 44.4742 51.8523 44.5627 51.1834C44.8381 50.5833 44.8676 49.9439 45.1528 49.3832C45.1331 49.2258 45.1528 49.0685 45.1921 48.9209C45.2216 48.7733 45.261 48.6258 45.3102 48.4782C45.3888 48.1831 45.4774 47.888 45.4085 47.5929V47.3765C45.4085 47.3077 45.4085 47.2388 45.4085 47.1699C45.3987 47.0322 45.4085 46.8945 45.379 46.7568C45.3593 46.6191 45.3397 46.4814 45.32 46.3535C45.3003 46.2158 45.261 46.0879 45.2413 45.9502C45.261 45.8715 45.2708 45.8026 45.2807 45.7239C45.2807 45.6551 45.2708 45.5862 45.2512 45.5174C45.2216 45.3796 45.1823 45.2518 45.1036 45.1337C45.0348 45.0157 44.9561 44.9075 44.8774 44.7993C44.7987 44.6911 44.7102 44.5927 44.6414 44.4845C44.6119 44.4255 44.5824 44.3665 44.543 44.3173C44.5037 44.2681 44.4644 44.2189 44.4152 44.1697C44.3267 44.0812 44.248 43.9828 44.1496 43.8943C44.0611 43.8058 43.9726 43.7172 43.8939 43.6189C43.8251 43.5205 43.7366 43.4221 43.6874 43.3041C43.5202 43.1172 43.3333 42.9598 43.1563 42.7827C43.058 42.704 42.9596 42.645 42.8514 42.5761C42.8023 42.5466 42.7432 42.5171 42.6941 42.4975C42.6351 42.4778 42.5761 42.4581 42.517 42.4483C42.4089 42.4089 42.3105 42.3401 42.222 42.2515C42.1237 42.1827 42.0253 42.104 41.927 42.0253C41.7303 41.8679 41.4942 41.8089 41.2385 41.9466C41.1303 41.9368 41.0221 41.9171 40.914 41.8777C40.8058 41.8384 40.7074 41.7892 40.5992 41.7499C40.3829 41.6908 40.1665 41.6417 39.9501 41.7794C39.7436 41.9171 39.5371 41.9072 39.3305 41.8876C39.2322 41.8876 39.124 41.8581 39.0257 41.8482C38.9273 41.8482 38.829 41.8482 38.7306 41.8482C38.6323 41.8581 38.5437 41.8777 38.4454 41.8974C38.3569 41.9171 38.2585 41.9368 38.17 41.9663C38.0815 41.9958 37.993 42.0253 37.9045 42.0548C37.816 42.0843 37.7373 42.1138 37.6586 42.1433C37.5701 42.1827 37.4717 42.222 37.3832 42.2614C37.2947 42.3106 37.216 42.3499 37.1275 42.3991C37.039 42.4384 36.9603 42.4876 36.8915 42.5466C36.8128 42.5958 36.7341 42.645 36.6653 42.6942C36.3801 42.9106 36.1145 43.1368 35.8981 43.3729C35.4457 43.8353 35.1015 44.2878 34.836 44.6714C34.3049 45.4288 34.0197 45.8518 33.941 45.8125C33.8722 45.7731 34.0394 45.1731 34.5803 44.1304C34.8655 43.6189 35.249 42.9893 35.8686 42.3597C36.1834 42.045 36.5571 41.74 36.9997 41.4744C37.4521 41.2187 37.9635 41.0219 38.5241 40.8842C38.6323 40.8547 38.7503 40.8252 38.8585 40.7858C38.9666 40.7465 39.0847 40.717 39.2027 40.6875C39.4387 40.6285 39.6846 40.6186 39.9305 40.6973C40.1763 40.6973 40.432 40.6776 40.6976 40.658C40.8254 40.658 40.9631 40.6776 41.091 40.6973C41.2188 40.7268 41.3565 40.7465 41.4745 40.8154C41.7696 40.7465 42.0548 40.7858 42.3105 40.9236C42.4384 40.9826 42.5662 41.0514 42.6941 41.1203C42.8121 41.199 42.9399 41.2777 43.0678 41.3465C43.1366 41.3761 43.1957 41.4056 43.2645 41.4449L43.4514 41.563C43.5694 41.6417 43.6972 41.7203 43.8153 41.8089C44.0415 41.9958 44.2972 42.1532 44.5529 42.3302C44.6906 42.4089 44.8283 42.4876 44.9266 42.6057C45.0348 42.7237 45.1331 42.8417 45.2315 42.9696C45.3298 43.0975 45.4085 43.2352 45.497 43.3631C45.5462 43.432 45.5954 43.491 45.6446 43.55C45.6937 43.6189 45.7429 43.6779 45.7921 43.7369C45.9986 44.3763 46.2838 44.9271 46.6182 45.5469C46.6182 45.7239 46.6477 45.8912 46.6772 46.0584C46.6969 46.2256 46.7362 46.3928 46.7756 46.5699C46.8149 46.7371 46.8346 46.9142 46.8641 47.0913C46.8739 47.1798 46.8837 47.2683 46.8936 47.3568C46.8936 47.4454 46.8936 47.5339 46.8936 47.6126C46.7559 47.9569 46.7067 48.2913 46.687 48.6356C46.6772 48.8029 46.6772 48.9799 46.6772 49.157C46.6772 49.334 46.6575 49.5111 46.6575 49.6882C46.5887 50.4063 46.2445 51.0457 46.0379 51.7441C45.7331 52.3933 45.5069 53.1016 45.1233 53.7311C44.8774 54.4295 44.5234 55.1083 43.9726 55.6395C43.6186 56.3084 43.1268 56.8887 42.6547 57.4888C42.2712 58.1577 41.6909 58.679 41.1992 59.2889C40.7271 59.9185 39.9698 60.2726 39.6453 61.0497C39.1338 61.6596 38.5339 62.1809 38.0127 62.7908C37.4324 63.3417 36.8325 63.8925 36.3211 64.5221C35.9375 64.709 35.6228 64.9746 35.3572 65.2795C34.895 65.8107 34.4229 66.3518 33.9508 66.8928C33.6755 66.6469 33.3902 66.3813 33.1149 66.1157C32.8493 65.8599 32.4953 65.5058 32.4166 65.4173C32.1314 65.1222 31.856 64.8172 31.5905 64.5221C31.0004 63.9614 30.4398 63.381 29.8989 62.7908C29.2793 62.2695 28.8859 61.5514 28.2663 61.0497C27.6467 60.548 27.3024 59.8004 26.7123 59.2889C26.1419 58.7577 25.6207 58.1774 25.2568 57.4888C24.7847 56.8789 24.5585 56.1215 23.9389 55.6395C23.4767 55.0591 22.798 54.5771 22.7882 53.7311C22.3456 53.1212 22.2866 52.354 21.8736 51.7441C21.8736 51.5473 21.8441 51.3703 21.7949 51.1932C21.7457 51.026 21.6867 50.8588 21.6179 50.6915C21.4802 50.3669 21.3228 50.0325 21.254 49.6882C21.1458 48.9799 21.1654 48.2913 21.0179 47.6126C20.9983 47.5241 20.9786 47.4454 20.9688 47.3568C20.9688 47.2683 20.9688 47.1798 20.9688 47.0913C20.9786 46.9142 20.9884 46.7371 21.0278 46.5601C21.0671 46.3928 21.1064 46.2158 21.1556 46.0485C21.195 45.8813 21.254 45.7141 21.2835 45.5469C21.2835 45.4583 21.2933 45.3698 21.313 45.2911C21.3326 45.2124 21.3621 45.1239 21.4015 45.0452C21.4703 44.8878 21.5392 44.7403 21.6375 44.6025C21.7359 44.4648 21.8244 44.3271 21.9031 44.1796C21.9817 44.0418 22.0703 43.8943 22.1096 43.7369L22.2473 43.5402L22.3948 43.3533C22.4932 43.2254 22.5817 43.0877 22.68 42.9795C22.7882 42.8614 22.8866 42.7434 22.9947 42.6352C23.1029 42.5171 23.2308 42.4286 23.3488 42.3302C23.4373 41.9663 23.7127 41.7892 23.9782 41.6515C24.1258 41.5925 24.2733 41.5531 24.4208 41.5039C24.4896 41.4843 24.5683 41.4548 24.6372 41.4351C24.706 41.4154 24.7749 41.3859 24.8437 41.3662C24.9814 41.317 25.1092 41.2482 25.2273 41.1695C25.3551 41.1006 25.4731 41.0318 25.601 40.9629C25.8469 40.8252 26.1321 40.7662 26.4271 40.835C26.5353 40.7268 26.673 40.6776 26.8009 40.6383C26.9287 40.5989 27.0664 40.5891 27.1942 40.5891C27.4598 40.6186 27.7253 40.6776 27.9712 40.717C28.2171 40.7662 28.4531 40.7367 28.6892 40.7465C28.8072 40.7465 28.9252 40.7465 29.0432 40.776C29.1612 40.8055 29.2694 40.8449 29.3776 40.9039C29.5055 40.8645 29.6136 40.8842 29.7317 40.9039C29.8398 40.9334 29.948 40.9826 30.0464 41.0318C30.1447 41.0908 30.2431 41.1596 30.3316 41.2088C30.4299 41.258 30.5185 41.3072 30.6266 41.3367C30.7053 41.4154 30.7938 41.4744 30.8823 41.5236C30.9709 41.5728 31.0594 41.6318 31.1479 41.681C31.3249 41.7695 31.4921 41.8679 31.6396 41.9958C31.8068 42.0843 31.9445 42.2122 32.0822 42.3302C32.2101 42.4581 32.3084 42.5958 32.3969 42.7434C32.6035 42.9991 32.7903 43.2451 32.9378 43.4811C33.4001 44.1894 33.6558 44.7796 33.8131 45.1731C33.9607 45.5764 34.0197 45.8026 33.9705 45.8223L33.9607 45.8321Z" fill="#0061EF"/>
<path d="M51.202 69.0373C51.202 69.1455 50.8184 69.2537 50.1201 69.3521C50.0021 69.3619 49.8743 69.3816 49.7464 69.4013C49.6087 69.4308 49.471 69.4603 49.3235 69.4504C49.176 69.3029 49.0186 69.716 48.8514 69.4996C48.6842 69.4308 48.5072 69.4996 48.3302 69.539C48.1433 69.5882 47.9565 69.4504 47.7598 69.5783C47.5631 69.8636 47.3565 69.2635 47.15 69.6177C46.9435 69.6964 46.7173 69.6767 46.5009 69.657C46.2747 69.4406 46.0485 69.657 45.8026 69.6964C45.5666 69.4406 45.3207 69.5488 45.0748 69.7259C44.829 69.3717 44.5733 69.4308 44.3077 69.7554C44.0422 69.7652 43.7766 69.6275 43.5012 69.7849C43.2259 69.8046 42.9505 69.8734 42.6653 69.8144C42.3801 70.0505 42.0949 70.0406 41.7998 69.8341C41.5048 70.0898 41.2097 69.9915 40.9048 69.8537C40.5999 69.716 40.2951 70.08 39.9803 69.8734C39.6656 69.8537 39.3509 69.9324 39.0362 69.8931C38.7116 69.7849 38.3871 69.6668 38.0625 69.9029C37.738 69.962 37.4036 70.0505 37.0692 69.9128C36.7348 70.1882 36.3906 70.0603 36.0562 69.9128C35.712 69.9521 35.3678 69.7652 35.0235 69.9128C34.6793 69.8734 34.3253 70.0308 33.9712 69.9128C33.6172 69.8341 33.2631 69.7554 32.9189 69.9128C32.5747 70.0898 32.2304 69.8439 31.8862 69.9128C31.542 69.657 31.2076 69.9915 30.8732 69.9128C30.5388 69.9423 30.2044 69.7652 29.8799 69.9029C29.5553 69.9521 29.2308 70.0013 28.9062 69.8931C28.5817 70.2866 28.267 69.7947 27.9522 69.8734C27.6375 69.7062 27.3326 69.9029 27.0278 69.8537C26.7229 69.9226 26.4278 69.6767 26.1328 69.8341C25.8377 69.8046 25.5525 69.962 25.2673 69.8144C24.9821 70.0111 24.7067 69.6472 24.4313 69.7849C24.156 69.7849 23.8904 69.7947 23.6249 69.7554C23.3593 69.4504 23.1036 69.7062 22.8578 69.7259C22.6119 69.6964 22.366 69.8931 22.13 69.6865C21.8939 69.6668 21.6579 69.5291 21.4317 69.6472C21.2055 69.6964 20.9891 69.2045 20.7728 69.6078C20.5662 69.6767 20.3597 69.293 20.163 69.5685C19.9663 69.8144 19.7794 69.539 19.5926 69.5291C19.4057 69.5095 19.2385 69.4996 19.0713 69.4898C17.5764 69.3619 16.7109 69.2045 16.7109 69.0373C16.7109 68.8602 17.7731 68.6832 19.5926 68.5454C19.7794 68.5356 19.9663 68.3192 20.163 68.5061C20.3597 68.5061 20.5662 68.3389 20.7728 68.4668C20.9891 68.1815 21.2055 68.4176 21.4317 68.4274C21.6579 68.4176 21.8841 68.5061 22.13 68.3881C22.366 68.2208 22.6119 68.4668 22.8578 68.3586C23.1036 68.5356 23.3692 68.4864 23.6249 68.329C23.8904 68.4963 24.156 68.2897 24.4313 68.2995C24.7067 68.5651 24.9821 68.3782 25.2673 68.27C25.5525 68.1717 25.8377 68.3094 26.1328 68.2405C26.4278 68.2897 26.7229 68.1716 27.0278 68.2208C27.3326 68.1028 27.6375 68.0536 27.9522 68.2012C28.267 68.1225 28.5817 68.1815 28.9062 68.1815C29.2308 68.0733 29.5553 68.1913 29.8799 68.1716C30.2044 68.1225 30.5388 68.4471 30.8732 68.1618C31.2076 68.1225 31.5518 68.211 31.8862 68.1618C32.2304 68.2012 32.5747 68.2405 32.9189 68.1618C33.2631 68.4471 33.6172 68.27 33.9712 68.1618C34.3253 68.0831 34.6695 68.1225 35.0235 68.1618C35.3678 68.1323 35.7218 68.152 36.0562 68.1618C36.4004 68.0733 36.7348 68.2799 37.0692 68.1618C37.4036 68.0438 37.738 68.2897 38.0625 68.1716C38.3871 68.093 38.7116 68.0438 39.0362 68.1815C39.3607 68.1815 39.6755 68.4372 39.9803 68.2012C40.2951 68.1421 40.5999 67.8274 40.9048 68.2208C41.2097 68.1225 41.5048 68.4077 41.7998 68.2405C42.0949 68.5356 42.3801 68.2503 42.6653 68.27C42.9505 68.329 43.2259 68.4274 43.5012 68.2995C43.7766 68.1618 44.0422 68.3782 44.3077 68.329C44.5733 68.1618 44.829 68.5455 45.0748 68.3586C45.3207 68.3979 45.5666 68.329 45.8026 68.3881C46.0387 67.9946 46.2747 68.3881 46.5009 68.4274C46.7271 68.4864 46.9435 68.1716 47.15 68.4668C47.3565 68.1716 47.5631 68.4274 47.7598 68.5061C47.9565 68.5946 48.1433 68.3782 48.3302 68.5454C48.5171 68.3389 48.6842 68.6635 48.8514 68.5848C49.0186 68.7225 49.176 68.5848 49.3235 68.634C49.471 68.5848 49.6186 68.6045 49.7464 68.6832C49.8841 68.7028 50.0021 68.7127 50.1201 68.7323C50.8184 68.8307 51.202 68.9291 51.202 69.0373Z" fill="#0061EF"/>
</g>
<defs>
<clipPath id="clip0_4172_26038">
<rect width="56" height="85" fill="white" transform="translate(6 11)"/>
</clipPath>
</defs>
</svg>
