<svg width="89" height="103" viewBox="0 0 89 103" fill="none" xmlns="http://www.w3.org/2000/svg">
<path d="M70.9961 51.9434H46.7412V103H23.3711V51.9434H0L35.498 0L70.9961 51.9434Z" fill="#FFDDFD"/>
<g clip-path="url(#clip0_4172_26039)">
<path d="M17.6918 79.3316C17.8001 79.3316 17.8985 80.2027 17.997 81.7865C18.0068 82.0538 18.0265 82.3408 18.0462 82.6378C18.0758 82.9447 18.1053 83.2614 18.0954 83.6079C17.9576 83.9543 18.3613 84.3107 18.1348 84.6868C18.0758 85.063 18.1348 85.4589 18.1742 85.8747C18.2234 86.2904 18.0856 86.7161 18.2136 87.1714C18.4893 87.6168 17.9084 88.0821 18.253 88.5671C18.3317 89.0521 18.3121 89.5471 18.2924 90.0519C18.0856 90.5666 18.2924 91.0913 18.3317 91.6357C18.0758 92.1801 18.1841 92.7345 18.3613 93.3086C18.0167 93.8827 18.0659 94.4667 18.3908 95.0606C18.4007 95.6546 18.2628 96.2683 18.4204 96.8919C18.4401 97.1988 18.4499 97.5155 18.4696 97.8323V97.9511V98.149C18.4696 98.2876 18.4696 98.4262 18.4696 98.5747C18.4696 98.8518 18.4597 99.1389 18.4401 99.4062C18.4597 99.5348 18.4794 99.6635 18.4991 99.7922C18.0561 99.8813 17.4948 99.911 16.9238 99.9011H16.7072C16.6481 99.9011 16.6284 99.8912 16.589 99.8912C16.5201 99.8912 16.4413 99.8714 16.3626 99.8615C16.2149 99.8318 16.0672 99.8021 15.9096 99.7526C15.2401 100 14.5706 99.9011 13.8814 99.7724C13.1922 99.6338 12.4931 99.9902 11.7842 99.7922C11.6562 99.7922 11.2033 99.7922 10.8587 99.7922C10.4944 99.7922 10.1202 99.8021 9.75594 99.812C9.75594 99.2478 9.74609 98.6539 9.75594 98.0698C9.75594 98.0303 9.75594 97.9709 9.75594 97.9511V97.8818L9.78547 97.7432L9.82486 97.466C9.84455 97.278 9.86424 97.0998 9.87409 96.9117C9.88393 96.5454 9.8544 96.1693 9.74609 95.7932C9.68702 95.0508 9.5984 94.2886 9.73624 93.5264C9.4704 92.7642 9.58856 91.9921 9.73624 91.2101C9.69686 90.4281 9.88393 89.6461 9.73624 88.8542C9.77563 88.0623 9.61809 87.2605 9.73624 86.4587C9.81501 85.6569 9.89378 84.8551 9.73624 84.0632C9.56886 83.2713 9.80517 82.4794 9.73624 81.7073C9.98239 80.9253 9.65748 80.1532 9.73624 79.391C9.70671 78.6288 9.88393 77.8666 9.74609 77.1242C9.69686 76.3719 9.64763 75.6394 9.75594 74.9069C9.37194 74.1744 9.8544 73.4518 9.77563 72.7391C9.93316 72.0264 9.74609 71.3236 9.79532 70.6307C9.7264 69.9378 9.97255 69.2548 9.81501 68.5916C9.84455 67.9185 9.68701 67.2651 9.8347 66.6118C9.64763 65.9684 9.99224 65.3349 9.86424 64.7014C9.86424 64.0778 9.8544 63.464 9.89378 62.8701C9.95286 62.7513 9.99224 62.6227 10.0119 62.5039C10.0218 62.4544 10.0316 62.3455 10.0316 62.2564C10.0316 62.1673 10.0316 62.0683 10.0316 61.9792C10.0316 61.613 9.97255 61.217 9.94301 60.7914C10.1005 60.7815 10.2581 60.7617 10.4255 60.7617C10.6618 60.7617 10.8882 60.7617 11.1245 60.7617C11.2427 60.7617 11.351 60.7518 11.4691 60.7419H11.5577H11.6168H11.7251C12.0008 60.7122 12.2765 60.7122 12.5423 60.8112C13.0839 60.831 13.6057 60.9696 14.1177 60.8508C14.6297 60.8112 15.122 61.2863 15.5946 60.8904C15.8309 60.8508 16.0672 60.93 16.3035 60.9795C16.4216 61.0092 16.5299 61.029 16.6481 61.0191C16.6678 61.0191 16.717 61.0191 16.7564 61.0191C16.7958 61.0191 16.8352 61.0092 16.8844 60.9993C16.9632 60.9894 17.0518 60.9597 17.1502 60.93C17.5539 60.8013 17.9675 60.8112 18.2727 60.8607C18.2333 61.217 18.1742 61.5536 18.1644 61.8308C18.1545 62.5237 18.1348 62.8206 18.125 63.2166C17.997 66.6316 17.8395 68.5817 17.6819 68.5817C17.5933 68.5817 17.5047 67.9778 17.4259 66.8593C17.3865 66.2951 17.3472 65.6121 17.3078 64.8004C17.2881 64.3945 17.2684 63.959 17.2487 63.5036C17.2487 63.276 17.229 63.0384 17.2192 62.7909C17.2192 62.6722 17.2192 62.5534 17.2093 62.4346C17.2093 62.3752 17.2093 62.3059 17.1995 62.2366C17.1995 62.1376 17.1404 62.0782 17.1109 62.0287C16.973 62.0683 16.9041 62.0782 16.8352 61.9792C16.8056 61.9792 16.7859 61.9792 16.7564 61.9792H16.717C16.717 61.9792 16.6973 61.9891 16.6579 61.999C16.5496 62.0089 16.4315 62.0287 16.3133 62.0386C16.0869 62.0683 15.8506 62.0782 15.6044 62.0089C15.122 62.2861 14.6297 62.0584 14.1275 62.0485C13.6155 62.0584 13.0937 61.9693 12.5522 62.0881C12.2863 62.1673 12.0107 62.1475 11.735 62.1178H11.6267C11.6267 62.1178 11.5873 62.1079 11.5774 62.1079H11.5577C11.5577 62.1079 11.5085 62.0881 11.479 62.0881C11.4297 62.0881 11.3805 62.0881 11.351 62.1178C11.2919 62.0881 11.2427 62.0584 11.1836 62.0485C11.1442 62.098 11.1344 62.2168 11.1541 62.3257C11.1541 62.3554 11.1639 62.3752 11.1738 62.4049C11.1738 62.4346 11.1934 62.4445 11.2033 62.5138C11.223 62.6326 11.2525 62.7612 11.2821 62.88C11.1147 63.4739 11.3214 64.0877 11.3116 64.7113C11.0556 65.3349 11.2328 65.9684 11.3411 66.6217C11.4297 67.2651 11.3017 67.9284 11.3608 68.6015C11.3116 69.2746 11.4297 69.9576 11.3805 70.6406C11.4987 71.3335 11.5479 72.0363 11.4002 72.749C11.479 73.4617 11.4199 74.1843 11.4199 74.9168C11.5184 75.6493 11.4101 76.3917 11.4297 77.1341C11.479 77.8864 11.1541 78.6387 11.4396 79.4009C11.479 80.1631 11.4002 80.9352 11.4396 81.7172C11.4002 82.4992 11.3608 83.2812 11.4396 84.0731C11.1639 84.865 11.3313 85.6668 11.4396 86.4686C11.5184 87.2704 11.479 88.0722 11.4396 88.8641C11.4691 89.656 11.4494 90.4479 11.4396 91.22C11.5184 92.002 11.3214 92.774 11.4396 93.5362C11.5577 94.2984 11.3116 95.0606 11.4297 95.803C11.4691 96.1792 11.4987 96.5455 11.5085 96.9216C11.5085 97.1097 11.5085 97.2878 11.4888 97.4759C11.4888 97.565 11.4691 97.664 11.4593 97.7531L11.4396 97.8917V97.961L11.4199 97.9808C11.4199 98.0303 11.3707 98.0995 11.3411 98.2183C11.3608 98.2381 11.4101 98.2579 11.4691 98.248C11.4987 98.248 11.5282 98.2381 11.5577 98.2183C11.5577 98.1985 11.6857 98.1787 11.7842 98.1391C12.4931 98.0797 13.1922 97.763 13.8814 98.1589C14.5706 98.0599 15.25 98.347 15.9096 98.1787C16.0573 98.2381 16.2149 98.2777 16.3626 98.2975C16.4413 98.2975 16.5103 98.3074 16.589 98.3074H16.6973C16.6973 98.3074 16.717 98.3074 16.7367 98.3074C16.8352 98.2876 16.8844 98.2282 16.9336 98.2084C16.9336 98.1886 16.9336 98.1787 16.9336 98.1589C16.9435 98.1292 16.9632 98.0995 16.973 98.06C16.973 98.0402 16.9927 98.0203 16.9927 97.9907V97.9709C16.9927 97.9709 16.9927 97.9709 16.9927 97.9412V97.8224C17.0124 97.5056 17.0025 97.1889 16.9435 96.882C16.8056 96.2584 17.0222 95.6447 16.973 95.0508C16.8056 94.4568 17.1896 93.8728 17.0025 93.2987C17.0419 92.7246 16.9829 92.1702 17.0321 91.6258C16.6481 91.0814 17.0321 90.5567 17.0715 90.042C17.1305 89.5273 16.8155 89.0323 17.1109 88.5572C16.8155 88.0722 17.0715 87.6168 17.1502 87.1615C17.2389 86.7161 17.0222 86.2805 17.1896 85.8648C16.9829 85.449 17.2979 85.0531 17.229 84.6769C17.3668 84.3008 17.229 83.9345 17.2684 83.598C17.2192 83.2515 17.2389 82.9348 17.3176 82.6279C17.3373 82.321 17.3472 82.034 17.3668 81.7766C17.4653 80.1829 17.5638 79.3217 17.6721 79.3217L17.6918 79.3316Z" fill="#0061EF"/>
<path d="M14.1389 47.1707C14.2275 47.1113 14.6213 47.5468 15.2514 48.3783C15.3598 48.5169 15.4681 48.6653 15.5862 48.8237C15.7142 48.9821 15.8521 49.1405 15.9604 49.3385C15.9604 49.6057 16.4231 49.5859 16.3739 49.9126C16.4527 50.1601 16.6397 50.3481 16.817 50.556C17.004 50.7639 17.0336 51.0707 17.2994 51.2588C17.6932 51.3578 17.3585 51.9319 17.8114 52.0111C18.0378 52.2388 18.1954 52.5258 18.3628 52.8228C18.3628 53.2187 18.7172 53.3969 18.9338 53.684C18.9043 54.1195 19.1898 54.3769 19.5344 54.5947C19.436 55.0995 19.6821 55.3965 20.1646 55.5548C20.3812 55.8815 20.4796 56.2972 20.8243 56.5546C21.0606 56.8912 21.3362 57.2079 21.5036 57.6039C21.927 57.8414 22.1436 58.2077 22.2125 58.6927C22.4291 58.8115 22.5867 58.9798 22.695 59.1778C22.7245 59.2272 22.7442 59.2767 22.7737 59.3262L22.8033 59.4054L22.823 59.445L22.8525 59.5143C22.9411 59.7024 23.0199 59.8905 23.0987 60.0686C23.2365 60.425 23.5023 60.7417 23.7879 61.1179C24.0734 61.4841 24.3786 61.9098 24.4279 62.1771L24.4869 62.276C24.0833 62.276 23.6993 62.276 23.3054 62.2958C22.9116 62.2958 22.4882 62.3156 22.0648 62.2958C21.8482 62.276 21.6218 62.2463 21.4052 62.2265L21.2476 62.2067C21.2476 62.2067 21.2082 62.2067 21.1885 62.2067H21.1393C21.0802 62.1968 21.0212 62.187 20.9621 62.187C20.7258 62.1771 20.4796 62.2067 20.2335 62.3156C19.7412 62.375 19.2489 62.4641 18.7566 62.3255C18.2545 62.5928 17.7523 62.474 17.2403 62.3255C16.7283 62.3651 16.2164 62.1771 15.7044 62.3255C15.1924 62.2859 14.6705 62.4443 14.1389 62.3255C13.617 62.2463 13.0952 62.1672 12.5734 62.3255C12.0614 62.4938 11.5395 62.2562 11.0374 62.3255C10.5254 62.0781 10.0233 62.4047 9.53096 62.3255C9.02881 62.3453 8.53652 62.1771 8.05407 62.3156C7.52239 62.3651 7.25655 62.4047 6.22272 62.3057C5.72058 62.4938 5.22828 62.474 4.86398 62.4245C4.48984 62.3651 4.23384 62.2661 3.82031 62.2859C3.84 62.2562 3.8597 62.2265 3.86954 62.1969C4.23384 61.7613 4.42091 61.4545 4.60799 61.1179C4.78521 60.7912 4.96244 60.4349 5.19874 60.0983C5.28736 59.9202 5.39566 59.7519 5.51381 59.5836L5.5532 59.5242L5.58274 59.4945L5.64181 59.4252L5.75012 59.2965C5.89781 59.1283 6.03565 58.9501 6.08488 58.7224C6.34087 58.3661 6.43933 57.9206 6.78394 57.6336C6.84302 57.1683 7.36485 57.0099 7.46331 56.5843C7.67992 56.2378 7.87684 55.8914 8.12299 55.5845C8.58575 55.4163 8.5759 54.951 8.75313 54.6244C8.97958 54.3274 8.99928 53.9117 9.35373 53.7137C9.5605 53.4266 9.85587 53.1989 9.93464 52.8525C10.0725 52.5456 10.6534 52.5258 10.4762 52.0408C10.5845 51.7339 11.0669 51.6746 10.9882 51.2885C10.9291 50.9025 11.3131 50.8134 11.4706 50.5857C11.6281 50.3679 11.7758 50.1502 11.9235 49.9423C13.2133 48.111 14.0207 47.1014 14.1585 47.1904C14.3062 47.2894 13.617 48.7148 12.2977 51.1004C12.1697 51.338 12.1992 51.6845 11.8841 51.8428C11.7266 52.0903 11.7069 52.4367 11.4312 52.6347C11.5001 53.0505 11.1358 53.2088 10.9488 53.486C10.7814 53.7731 10.5254 54.0205 10.4269 54.3868C10.3777 54.7728 9.98387 54.951 9.87557 55.3371C9.53096 55.5647 9.37342 55.9112 9.29465 56.3269C8.95005 56.5744 8.91066 57.0198 8.68421 57.3564C8.25099 57.5643 8.18206 58.0196 8.04422 58.4354C7.90638 58.8412 7.56177 59.1382 7.38454 59.544C7.2467 59.7222 7.14824 59.9103 7.03993 60.1082L6.89225 60.3755C6.89225 60.3755 6.87255 60.4151 6.85286 60.425C6.89225 60.4745 6.94148 60.4844 6.94148 60.4943C6.94148 60.5042 6.90209 60.524 6.7544 60.6329H6.76425C6.86271 60.5933 6.8824 60.5933 6.90209 60.6032C6.92178 60.6032 6.95132 60.623 6.98086 60.623C7.0104 60.5933 7.03009 60.5834 7.03993 60.5834H7.1187H7.29593C7.54208 60.5933 7.77838 60.623 8.02453 60.6032C8.51683 60.5537 9.00912 60.8803 9.50142 60.5933C10.0036 60.5537 10.5057 60.6329 11.0078 60.5933C11.5198 60.6329 12.0318 60.6626 12.5438 60.5933C13.0656 60.8704 13.5875 60.7022 14.1093 60.5933C14.6312 60.5141 15.153 60.5537 15.6748 60.5933C16.1967 60.5636 16.7086 60.5834 17.2108 60.5933C17.7228 60.5141 18.2249 60.7121 18.7271 60.5933C19.2292 60.4745 19.7215 60.7219 20.204 60.6032C20.647 60.524 21.3461 60.4745 21.2575 60.6131C21.287 60.6131 21.3658 60.6725 21.4642 60.7021C21.5529 60.7417 21.6612 60.7516 21.543 60.6527C21.5233 60.6428 21.5036 60.623 21.4839 60.6131C21.415 60.5438 21.2476 60.4646 21.1984 60.4547C21.1393 60.4349 21.1984 60.4844 21.3756 60.4052C21.3362 60.3953 21.3264 60.3755 21.3264 60.3557C21.287 60.2567 21.2476 60.1676 21.2082 60.0686C21.1196 59.8608 21.031 59.6529 20.8439 59.5143C20.8439 58.9897 20.4009 58.7719 20.1843 58.4057C20.007 58.0196 19.8692 57.6138 19.5443 57.3267C19.2095 57.0495 19.18 56.6041 18.9338 56.2972C18.5892 56.0498 18.7074 55.5251 18.3529 55.3074C18.1855 54.9708 17.9394 54.6936 17.8015 54.3571C17.2896 54.2581 17.4372 53.7632 17.2896 53.4563C17.1616 53.1396 16.7283 53.0307 16.8071 52.605C16.3936 52.4961 16.4428 52.1002 16.3542 51.8131C16.2754 51.5162 15.9505 51.3875 15.9407 51.0707C15.6256 50.9519 15.7536 50.556 15.5665 50.3877C15.5468 50.1007 15.3204 49.972 15.2318 49.7641C15.0742 49.5958 14.9758 49.4078 14.9364 49.1999C14.8478 49.0217 14.7592 48.8534 14.6804 48.7049C14.2078 47.7745 14.001 47.23 14.0896 47.1707H14.1389Z" fill="#0061EF"/>
<path d="M31.9405 93.6252C31.8322 93.6252 31.7337 92.0414 31.6353 89.151C31.6156 88.6659 31.6057 88.1512 31.586 87.5969C31.5565 87.0425 31.527 86.4585 31.5368 85.8349C31.6747 85.2113 31.271 84.558 31.4974 83.8651C31.5565 83.1722 31.4974 82.4496 31.458 81.6973C31.4088 80.945 31.5467 80.163 31.4187 79.3414C31.143 78.5297 31.7239 77.6784 31.3793 76.8073C31.3005 75.9362 31.3202 75.0255 31.3399 74.0951C31.5467 73.1646 31.3399 72.2044 31.3005 71.2244C31.5565 70.2346 31.4482 69.2249 31.271 68.1955C31.6156 67.1561 31.5664 66.0969 31.2414 65.0081C31.2316 63.9192 31.3694 62.8106 31.2119 61.6821C31.1922 60.5537 31.1233 59.3955 31.1824 58.2176C30.9461 57.0396 30.9657 55.8419 31.1627 54.6244C30.9165 53.4068 31.015 52.1695 31.143 50.9123C31.2808 49.6552 30.9264 48.3783 31.1233 47.0816C31.143 45.7848 31.0642 44.4782 31.1036 43.1518C31.2021 41.8254 31.3202 40.4791 31.0937 39.1131C31.0347 37.757 30.9461 36.3811 31.0839 34.9854C30.8181 33.5996 30.9362 32.1939 31.0839 30.7784V30.4023V29.8084C31.0839 29.353 31.0937 28.8977 31.1036 28.4423C31.842 28.4522 32.5805 28.472 33.3288 28.4819C33.7915 28.4819 34.2543 28.4819 34.7171 28.4225C35.4358 28.4423 36.1546 28.4225 36.8733 28.3928C37.2376 28.3829 37.5921 28.373 37.9564 28.373C38.2714 28.373 38.5865 28.373 38.9114 28.3829C39.2462 28.3829 39.5809 28.4027 39.9059 28.4126C39.8862 29.066 39.8665 29.7193 39.8468 30.3726C39.8271 30.7388 39.8173 31.1051 39.8173 31.4614C39.8173 32.184 39.8271 32.9066 39.9059 33.6292C40.0732 35.0646 39.8369 36.4999 39.9059 37.9154C39.6597 39.3309 39.9846 40.7365 39.9059 42.1223C39.9256 43.5081 39.7582 44.8841 39.896 46.2501C39.9452 47.6062 39.9846 48.9524 39.8862 50.2887C40.2702 51.6152 39.7877 52.9317 39.8665 54.2185C39.7089 55.5152 39.8862 56.7922 39.8468 58.0493C39.9157 59.3064 39.6696 60.5438 39.8271 61.7613C39.7976 62.9789 39.9551 64.1766 39.8074 65.3545C39.9945 66.5325 39.6499 67.6906 39.7779 68.8191C39.7779 69.9475 39.7877 71.0562 39.7483 72.145C39.453 73.2339 39.6991 74.293 39.7188 75.3324C39.6893 76.3718 39.8862 77.3814 39.6893 78.3614C39.6696 79.3414 39.5317 80.3015 39.6499 81.232C39.6893 82.1625 39.2166 83.0633 39.6105 83.9443C39.6794 84.8153 39.3053 85.6666 39.5711 86.4783C39.8173 87.29 39.5416 88.0819 39.5317 88.8342C39.5219 89.5865 39.5022 90.3091 39.4923 91.002C39.4529 92.8135 39.4136 94.3973 39.3742 95.7336C39.3545 96.4067 39.3348 97.0105 39.3151 97.5451C39.2954 98.1588 39.2659 98.6933 39.2462 99.1486C38.5274 99.1189 38.0154 99.0892 37.7398 99.0497C37.4444 99.02 37.2868 98.9804 37.2868 98.9507C37.2868 98.921 37.4444 98.8814 37.7398 98.8517C38.0647 98.822 38.4191 98.7824 38.8523 98.7527C38.8031 98.0796 38.744 96.6047 38.7047 94.9318C38.6554 93.2292 38.6062 91.1802 38.5668 88.8243C38.557 88.072 38.3404 87.29 38.5274 86.4684C38.5274 85.6567 38.3699 84.8054 38.488 83.9344C38.2124 83.0633 38.4388 82.1625 38.4487 81.2221C38.4388 80.2916 38.5274 79.3315 38.4093 78.3515C38.2517 77.3616 38.488 76.352 38.3797 75.3225C38.5471 74.2831 38.5077 73.224 38.3502 72.1351C38.5176 71.0463 38.3108 69.9376 38.3207 68.8092C38.5767 67.6807 38.3994 66.5226 38.2911 65.3446C38.1927 64.1667 38.3305 62.9689 38.2714 61.7514C38.3207 60.5339 38.2025 59.2965 38.2517 58.0394C38.1336 56.7823 38.0844 55.5053 38.2321 54.2086C38.1533 52.9119 38.2124 51.6053 38.2124 50.2788C38.1139 48.9524 38.2222 47.6062 38.2025 46.2402C38.1533 44.8841 38.4782 43.5081 38.1927 42.1124C38.1533 40.7266 38.2419 39.321 38.1927 37.9055C38.2321 36.49 38.2616 35.0547 38.1927 33.6193C38.3305 32.8967 38.3601 32.1741 38.3404 31.4515C38.3305 31.0853 38.301 30.7289 38.2813 30.3627V30.2934V30.2736V30.2538C38.2813 30.2538 38.2517 30.2241 38.2517 30.2142C38.2419 30.1944 38.2222 30.1746 38.2124 30.1647L38.1336 30.1944H38.1041L38.0942 30.2043H38.0745H38.0056C37.6413 30.2043 37.277 30.2043 36.9225 30.2043C36.2038 30.2043 35.4752 30.1746 34.7663 30.1548C34.3035 30.1548 33.8309 30.1647 33.3682 30.1647H32.8759V30.2439V30.2637V30.3726V30.7487C32.9546 32.1642 32.7577 33.5699 32.8759 34.9557C32.994 36.3415 32.7479 37.7174 32.866 39.0834C32.9448 40.4395 32.994 41.7858 32.8562 43.1221C32.8562 44.4485 32.6002 45.765 32.8365 47.0519C32.8956 48.3486 33.2106 49.6255 32.8168 50.8827C32.9152 52.1398 32.6297 53.3771 32.7971 54.5947C32.5116 55.8122 32.7872 57.0099 32.7774 58.1879C32.7183 59.3658 32.6297 60.524 32.7479 61.6524C32.8857 62.7809 32.6691 63.8895 32.7183 64.9784C32.8857 66.0672 32.5017 67.1264 32.6888 68.1658C32.6494 69.2051 32.7183 70.2148 32.6592 71.1948C33.0432 72.1846 32.6593 73.1349 32.6199 74.0654C32.5608 74.9958 32.8759 75.8966 32.5805 76.7776C32.866 77.6487 32.6199 78.5 32.5411 79.3117C32.4525 80.1234 32.6593 80.9153 32.5017 81.6676C32.7085 82.4199 32.3934 83.1425 32.4623 83.8354C32.3245 84.5283 32.4623 85.1816 32.4131 85.8052C32.4623 86.4288 32.4426 87.0128 32.3639 87.5672C32.3442 88.1215 32.3343 88.6362 32.3146 89.1213C32.2162 92.0117 32.1177 93.5955 32.0094 93.5955L31.9405 93.6252Z" fill="#0061EF"/>
<path d="M31.9401 98.9804C31.8614 99.0596 31.7924 99.1289 31.7334 99.1982L31.7038 99.2378C31.7038 99.2378 31.6841 99.2675 31.6743 99.2774C31.6546 99.2972 31.6743 99.2774 31.6447 99.317C31.6251 99.3368 31.6349 99.3368 31.6152 99.3467C31.6054 99.3665 31.6152 99.3368 31.5955 99.3863C31.5758 99.416 31.5955 99.3863 31.5758 99.416C31.5561 99.4556 31.566 99.4457 31.5561 99.4457C31.5364 99.4754 31.5463 99.4754 31.5364 99.4754C31.5266 99.4952 31.5364 99.4853 31.5266 99.5051C31.5266 99.5249 31.5266 99.515 31.5167 99.5348C31.5167 99.5348 31.5167 99.5348 31.5167 99.5645C31.5069 99.5843 31.4675 99.6437 31.5167 99.5942C31.3888 99.7822 31.3986 99.7822 31.5167 99.6239C31.3789 99.8317 31.438 99.7525 31.5167 99.6536C31.5955 99.5348 31.4084 99.8416 31.5167 99.6734C31.5266 99.6635 31.4971 99.7228 31.5167 99.6932C31.5758 99.6041 31.6349 99.5051 31.5167 99.713C31.4872 99.7723 31.4577 99.8416 31.5167 99.7327C31.3888 99.9703 31.4577 99.8713 31.5266 99.7525C31.5069 99.7921 31.6054 99.6338 31.5364 99.7624C31.5561 99.7228 31.4971 99.8713 31.5463 99.7624C31.5955 99.6932 31.6349 99.6338 31.5955 99.7822C31.5463 99.9505 31.6546 99.7327 31.6546 99.802C31.7531 99.5645 31.6743 99.8911 31.7235 99.8119C31.7432 99.8416 31.8023 99.6833 31.8023 99.8119C31.822 99.8614 31.8614 99.9109 31.9007 99.8119C31.9598 99.9109 31.9401 99.8812 31.9598 99.9208C31.9795 99.8614 31.9992 99.8317 32.009 99.7921C32.0287 99.6239 32.0878 99.802 32.1174 99.7525C32.137 99.7229 32.137 99.7228 32.1666 99.6932C32.1961 99.6932 32.1666 99.6932 32.2355 99.6932C32.2552 99.6536 32.3733 99.7624 32.334 99.614C32.3832 99.5942 32.3635 99.5942 32.3832 99.5843C32.393 99.5546 32.3832 99.5645 32.4029 99.5249C32.4029 99.5249 32.3832 99.5546 32.4521 99.4358C32.4817 99.3368 32.4718 99.3566 32.4817 99.3467C32.4817 99.3269 32.4817 99.3665 32.4817 99.2675C32.4817 99.2576 32.4817 99.2675 32.4817 99.1982C32.4817 99.1982 32.4817 99.1982 32.462 99.1487C32.462 99.1388 32.462 99.1487 32.4324 99.1091C32.393 99.0695 32.4029 99.0794 32.4029 99.0794L32.3635 99.0497C32.2453 98.9805 32.0878 98.9903 31.9303 98.9804C31.7531 98.9804 31.5758 98.9804 31.4577 98.8815C31.4577 98.8815 31.4577 98.8815 31.4281 98.8419C31.4281 98.8419 31.4281 98.8419 31.3986 98.7924C31.3789 98.733 31.3789 98.7429 31.3789 98.7429C31.3789 98.733 31.3789 98.7726 31.3789 98.6736C31.3789 98.5845 31.3789 98.6538 31.3789 98.5944C31.3986 98.535 31.3888 98.5647 31.4084 98.5053C31.4675 98.4063 31.4577 98.4162 31.4577 98.4063C31.6546 98.5746 31.5463 98.4261 31.5364 98.3172C31.5266 98.2083 31.6251 98.3172 31.6349 98.238C31.694 98.2677 31.694 98.149 31.7531 98.1787C31.7629 98.05 31.8121 98.0005 31.8712 98.1391C31.9106 98.05 31.95 98.1193 31.9795 98.1193C32.0189 98.0203 32.0484 98.1391 32.078 98.1193C32.1272 98.0698 32.078 98.3964 32.1666 98.1193C32.206 98.0896 32.206 98.1787 32.2355 98.1292C32.2453 98.1688 32.2453 98.2084 32.2946 98.149C32.1961 98.4162 32.2749 98.2578 32.3438 98.1688C32.3832 98.0995 32.3733 98.1391 32.3635 98.1688C32.3832 98.149 32.3832 98.1688 32.3733 98.1787C32.4226 98.1094 32.3241 98.2875 32.3832 98.1985C32.4423 98.0995 32.3241 98.3172 32.3832 98.2182C32.4324 98.149 32.462 98.1193 32.3832 98.238C32.3832 98.238 32.2552 98.4558 32.3832 98.2578C32.4127 98.2183 32.5998 97.951 32.3832 98.2776C32.4423 98.1985 32.2847 98.436 32.3832 98.3073C32.2257 98.5449 32.3832 98.3271 32.3832 98.337C32.3537 98.3865 32.3044 98.4657 32.3832 98.3667C32.3832 98.3964 32.3832 98.3865 32.3832 98.3964C32.3832 98.4162 32.3832 98.3964 32.3733 98.4261C32.3635 98.4558 32.3733 98.4162 32.3635 98.4558C32.3438 98.4855 32.3438 98.4855 32.3438 98.4855C32.3438 98.4855 32.3438 98.4855 32.3241 98.5152C32.3044 98.5449 32.3044 98.5449 32.3044 98.5449C32.2847 98.5647 32.3044 98.535 32.2847 98.5746C32.2552 98.6142 32.265 98.5944 32.2552 98.6142C32.2158 98.6637 32.2355 98.634 32.2257 98.6538C32.206 98.6736 32.2257 98.6538 32.1961 98.6934L32.1666 98.733C32.1075 98.8023 32.0287 98.8815 31.9598 98.9508L31.9401 98.9804Z" fill="#0061EF"/>
<path d="M35.4746 15C35.5632 14.9406 35.9571 15.3762 36.5872 16.2077C36.6955 16.3462 36.8038 16.4947 36.922 16.663C37.05 16.8214 37.1878 16.9798 37.2961 17.1777C37.2961 17.445 37.7589 17.4252 37.7097 17.7618C37.7884 18.0092 37.9755 18.1973 38.1527 18.4052C38.3398 18.613 38.3693 18.9199 38.6352 19.108C39.0192 19.207 38.6943 19.7811 39.1472 19.8603C39.3736 20.0879 39.5312 20.375 39.6985 20.672C39.6985 21.0679 40.053 21.256 40.2795 21.5332C40.2499 21.9687 40.5354 22.2162 40.8801 22.4438C40.7816 22.9487 41.0277 23.2456 41.5102 23.404C41.7268 23.7307 41.8253 24.1464 42.1699 24.4038C42.4062 24.7403 42.6819 25.0571 42.8492 25.453C43.2726 25.6906 43.4892 26.0569 43.5582 26.5419C43.7748 26.6607 43.9323 26.8289 44.0406 27.0269C44.0701 27.0764 44.0898 27.1259 44.1194 27.1754L44.1489 27.2546L44.1686 27.2942L44.1981 27.3635C44.2867 27.5516 44.3655 27.7396 44.4443 27.9178C44.5821 28.2742 44.848 28.5909 45.1335 28.9671C45.419 29.3333 45.7243 29.759 45.7735 30.0262L45.8326 30.1252C45.4289 30.1252 45.0449 30.1252 44.6511 30.145C44.2572 30.1549 43.8338 30.1648 43.4203 30.145C43.2037 30.1252 42.9772 30.0955 42.7606 30.0658L42.6031 30.046C42.6031 30.046 42.5637 30.046 42.544 30.046H42.4948C42.4357 30.0361 42.3766 30.0262 42.3176 30.0262C42.0813 30.0163 41.8351 30.046 41.589 30.1549C41.0967 30.2143 40.6044 30.3034 40.1121 30.1648C39.6099 30.4321 39.1078 30.3133 38.5958 30.1648C38.0838 30.2044 37.5718 30.0163 37.0598 30.1648C36.5478 30.1252 36.026 30.2836 35.4943 30.1648C34.9725 30.0856 34.4507 30.0064 33.9288 30.1648C33.4168 30.3331 32.895 30.0955 32.3929 30.1648C31.8809 29.9173 31.3787 30.244 30.8864 30.1648C30.3843 30.1846 29.892 30.0163 29.4095 30.1549C28.8779 30.2044 28.612 30.2539 27.5782 30.145C27.076 30.3232 26.5838 30.3133 26.2195 30.2539C25.8453 30.1945 25.5893 30.0955 25.1758 30.1153C25.1955 30.0856 25.2152 30.0559 25.225 30.0262C25.5893 29.6006 25.7764 29.2838 25.9635 28.9473C26.1407 28.6206 26.3179 28.2643 26.5542 27.9277C26.6428 27.7495 26.7511 27.5812 26.8693 27.413L26.9087 27.3536L26.9382 27.3239L26.9973 27.2546L27.1056 27.1259C27.2533 26.9576 27.3911 26.7795 27.4403 26.5518C27.6963 26.1954 27.7948 25.75 28.1394 25.4629C28.1985 24.9977 28.7203 24.8393 28.8188 24.4137C29.0354 24.0672 29.2323 23.7208 29.4785 23.4139C29.9412 23.2456 29.9314 22.7804 30.1086 22.4537C30.3351 22.1568 30.3547 21.741 30.7092 21.5431C30.916 21.256 31.2113 21.0283 31.2901 20.6819C31.428 20.375 32.0089 20.3552 31.8415 19.8702C31.9498 19.5633 32.4224 19.5039 32.3535 19.1179C32.3042 18.7417 32.6784 18.6427 32.8359 18.4151C32.9935 18.1973 33.1411 17.9795 33.279 17.7717C34.5491 15.9305 35.3565 14.9208 35.4943 15C35.642 15.099 34.9528 16.5244 33.6334 18.91C33.5054 19.1476 33.535 19.5039 33.2199 19.6524C33.0624 19.8999 33.0427 20.2463 32.767 20.4542C32.8359 20.8699 32.4716 21.0283 32.2845 21.3055C32.1172 21.6024 31.8612 21.84 31.7627 22.2063C31.7135 22.5923 31.3098 22.7804 31.2113 23.1565C30.8667 23.3842 30.7092 23.7307 30.6304 24.1464C30.2858 24.3939 30.2464 24.8393 30.02 25.1759C29.5868 25.3837 29.5178 25.8391 29.38 26.2548C29.2323 26.6607 28.8975 26.9576 28.7203 27.3635C28.5825 27.5318 28.484 27.7297 28.3757 27.9277L28.228 28.195C28.228 28.195 28.2083 28.2346 28.1886 28.2445C28.228 28.294 28.2674 28.3039 28.2773 28.3138C28.2773 28.3237 28.2379 28.3434 28.0902 28.4523H28.1C28.1985 28.4127 28.2182 28.4127 28.2379 28.4226C28.2576 28.4226 28.2871 28.4424 28.3166 28.4424C28.3462 28.4127 28.3659 28.4028 28.3757 28.4028C28.3757 28.4028 28.3757 28.4028 28.3856 28.4028H28.6416C28.8877 28.4226 29.124 28.4424 29.3702 28.4325C29.8624 28.383 30.3547 28.7097 30.847 28.4325C31.3492 28.3929 31.8513 28.482 32.3535 28.4325C32.8655 28.4721 33.3774 28.5117 33.8894 28.4325C34.4113 28.7097 34.9331 28.5414 35.4549 28.4325C35.9768 28.3533 36.4986 28.3929 37.0204 28.4325C37.5423 28.4028 38.0543 28.4226 38.5564 28.4325C39.0684 28.3533 39.5705 28.5513 40.0727 28.4325C40.5748 28.3138 41.0671 28.5612 41.5496 28.4325C41.9926 28.3533 42.7016 28.3039 42.6031 28.4424C42.6326 28.4424 42.7114 28.5018 42.8099 28.5315C42.8985 28.5711 43.0068 28.581 42.8886 28.482C42.8689 28.4721 42.8492 28.4523 42.8296 28.4424C42.7606 28.3731 42.5932 28.294 42.544 28.2841C42.4849 28.2643 42.544 28.3138 42.7212 28.2346C42.6819 28.2247 42.672 28.2049 42.672 28.1851C42.6326 28.0861 42.5933 27.997 42.5539 27.898C42.4653 27.6901 42.3766 27.4823 42.1896 27.3437C42.1896 26.8191 41.7465 26.6013 41.5299 26.235C41.3527 25.849 41.2148 25.4431 40.8899 25.1561C40.5551 24.8789 40.5256 24.4335 40.2795 24.1266C39.9348 23.8791 40.053 23.3545 39.6985 23.1367C39.5312 22.8002 39.285 22.523 39.1472 22.1865C38.6352 22.0875 38.7829 21.5925 38.6352 21.2857C38.5072 20.9689 38.074 20.86 38.1527 20.4344C37.7392 20.3255 37.7884 19.9296 37.6998 19.6326C37.6112 19.3356 37.2961 19.207 37.2863 18.8902C36.9712 18.7714 37.0992 18.3755 36.9121 18.2072C36.8925 17.9201 36.666 17.7915 36.5774 17.5836C36.4198 17.4153 36.3214 17.2272 36.282 17.0194C36.1934 16.8412 36.1048 16.6729 36.026 16.5145C35.5534 15.5741 35.3466 15.0396 35.4353 14.9802L35.4746 15Z" fill="#0061EF"/>
<path d="M60.3536 73.9762C60.4619 73.9762 60.5604 74.7681 60.6588 76.2133C60.6687 76.4509 60.6884 76.7182 60.7081 76.9854C60.7376 77.2626 60.7671 77.5596 60.7573 77.8664C60.6195 78.1733 61.0231 78.5098 60.8065 78.8464C60.7475 79.1928 60.8065 79.5492 60.8459 79.9253C60.8951 80.3015 60.7573 80.6974 60.8853 81.1033C61.161 81.5091 60.5801 81.9348 60.9247 82.3703C61.0035 82.8059 60.9838 83.2612 60.9641 83.7264C60.7573 84.1917 60.9641 84.6668 61.0034 85.1618C60.7475 85.6567 60.8558 86.1615 61.033 86.6763C60.6884 87.191 60.7376 87.7255 61.0625 88.2699C61.0724 88.8144 60.9345 89.3687 61.0921 89.9329C61.1118 90.4971 61.1807 91.0812 61.1216 91.6652C61.3579 92.2492 61.3481 92.853 61.1413 93.4667C61.3874 94.0706 61.289 94.6942 61.161 95.3277C61.0231 95.9513 61.3776 96.5947 61.1807 97.2381C61.1807 97.3866 61.1807 97.5252 61.1807 97.6737C61.1807 97.8519 61.1807 98.03 61.1905 98.2181C61.1905 98.7526 61.2102 99.2971 61.2004 99.8316C61.0625 99.8316 60.9345 99.8316 60.7967 99.8316C60.4915 99.8019 60.1764 99.7821 59.8712 99.7623C59.6349 99.7425 59.3986 99.7326 59.1524 99.7128C58.8177 99.7029 58.4829 99.7326 58.1383 99.8415C57.4589 99.9009 56.7795 99.99 56.0903 99.8514C55.7457 99.99 55.4011 100.02 55.0467 100.01C54.8694 100.01 54.6922 99.9801 54.5248 99.9603C54.4362 99.9504 54.3476 99.9306 54.259 99.9108C54.1014 99.891 53.9341 99.8811 53.7765 99.8613C53.3138 99.8811 52.851 99.8613 52.4178 99.8415C52.4375 99.3961 52.4572 98.9704 52.4572 98.5547V98.2379V98.0795V98.0003V97.9509C52.4572 97.8321 52.4276 97.7133 52.4079 97.6044C52.4473 96.8818 52.2898 96.1592 52.4079 95.4267C52.4867 94.6942 52.5655 93.9716 52.4079 93.249C52.2406 92.5264 52.4769 91.8137 52.4079 91.101C52.6541 90.3883 52.3292 89.6954 52.4079 88.9925C52.3784 88.2996 52.5556 87.6067 52.4178 86.9336C52.3686 86.2506 52.3193 85.5775 52.4276 84.9143C52.0436 84.2511 52.5261 83.5978 52.4473 82.9444C52.6049 82.301 52.4276 81.6576 52.467 81.034C52.3981 80.4005 52.6442 79.7868 52.4867 79.173C52.5163 78.5593 52.3587 77.9654 52.5064 77.3715C52.3193 76.7875 52.6639 76.2034 52.5359 75.6392C52.5359 75.075 52.5261 74.5207 52.5655 73.9762C52.8609 73.4318 52.6147 72.8973 52.595 72.3826C52.6246 71.8678 52.4276 71.3531 52.6246 70.8681C52.6442 70.3731 52.7821 69.898 52.6639 69.4327C52.6246 68.9675 53.0972 68.5122 52.7033 68.0766C52.7033 68.0271 52.6935 67.9677 52.7033 67.9182C52.7033 67.8885 52.7033 67.8589 52.7033 67.8391V67.7203C52.7427 67.5619 52.7722 67.4035 52.7919 67.2649C52.8412 66.9779 52.8707 66.7502 52.7427 66.3147C53.1464 66.0573 54.1014 66.3345 54.4165 66.3543C54.7907 66.3642 55.1451 66.3839 55.4897 66.3938C58.5715 66.5225 60.3438 66.671 60.3438 66.8393C60.3438 67.0175 58.158 67.1857 54.4165 67.3243C54.3673 67.3243 54.3181 67.3243 54.2787 67.3342H54.2393L54.2196 67.3441H54.1901C54.1901 67.3441 54.1113 67.3936 54.0719 67.4134C54.003 67.4431 53.9538 67.453 53.7765 67.3639C53.7765 67.4629 53.8159 67.5817 53.8455 67.6708C53.8553 67.7203 53.8651 67.7599 53.8651 67.7995C53.8651 67.8391 53.8651 67.8786 53.8553 67.9182C53.8553 67.9677 53.8356 68.0271 53.8258 68.0766C54.1014 68.5122 53.875 68.9675 53.8651 69.4327C53.875 69.898 53.7864 70.3731 53.9045 70.8681C54.0621 71.363 53.8258 71.8678 53.9341 72.3826C53.7667 72.8973 53.8061 73.4318 53.9636 73.9762C53.7962 74.5207 54.003 75.075 53.9931 75.6392C53.7371 76.2034 53.9144 76.7875 54.0227 77.3715C54.1211 77.9555 53.9833 78.5593 54.0424 79.173C53.9931 79.7769 54.1113 80.4005 54.0621 81.034C54.1802 81.6675 54.2294 82.301 54.0818 82.9444C54.1605 83.5879 54.1014 84.2511 54.1014 84.9143C54.1999 85.5775 54.0916 86.2506 54.1113 86.9336C54.1605 87.6166 53.8356 88.2996 54.1211 88.9925C54.1605 89.6855 54.0719 90.3883 54.1211 91.101C54.0818 91.8038 54.0522 92.5264 54.1211 93.249C53.8455 93.9716 54.0128 94.6942 54.1211 95.4267C54.1999 96.1592 54.1605 96.8818 54.1211 97.6044V97.9509L54.131 97.9904V98.0003V98.0201C54.131 98.0201 54.131 98.0696 54.131 98.0993L54.2098 98.1191C54.2098 98.1191 54.2294 98.0993 54.2393 98.0993C54.3279 98.0993 54.4165 98.0993 54.5051 98.0993C54.6824 98.0993 54.8596 98.1191 55.027 98.129C55.3716 98.1587 55.726 98.1785 56.0706 98.129C56.7599 98.0102 57.4491 98.2577 58.1186 98.1389C58.4534 98.0993 58.798 98.0696 59.1327 98.0597H59.2607C59.2607 98.0597 59.3592 98.0597 59.3493 98.0597C59.3493 98.0597 59.3592 98.0597 59.369 98.0795C59.3887 98.0894 59.4183 98.1191 59.4675 98.1488C59.4773 98.1488 59.497 98.1488 59.5069 98.1488C59.5266 98.129 59.5856 98.0993 59.6053 98.0201C59.6053 98.0201 59.6053 98.0003 59.6053 97.9904C59.6053 97.9904 59.6053 97.9707 59.6053 97.9509V97.8915C59.6053 97.8222 59.6053 97.743 59.6053 97.6737C59.5955 97.5252 59.5659 97.3866 59.5069 97.2381C59.4576 96.5947 59.1327 95.9513 59.5266 95.3277C59.4281 94.6942 59.7136 94.0805 59.5462 93.4667C59.8318 92.853 59.5561 92.2591 59.5659 91.6652C59.625 91.0812 59.7136 90.4971 59.5955 89.9329C59.4576 89.3687 59.6644 88.8144 59.625 88.2699C59.4675 87.7255 59.8416 87.2009 59.6546 86.6763C59.6939 86.1615 59.625 85.6468 59.6841 85.1618C59.3001 84.6668 59.6841 84.1917 59.7235 83.7264C59.7826 83.2612 59.4675 82.8059 59.7629 82.3703C59.4773 81.9348 59.7235 81.5091 59.8022 81.1033C59.881 80.6974 59.6841 80.3015 59.8416 79.9253C59.6349 79.5492 59.9499 79.1829 59.881 78.8464C60.0189 78.4999 59.881 78.1733 59.9302 77.8664C59.881 77.5596 59.9007 77.2626 59.9795 76.9854C59.9992 76.7083 60.009 76.4509 60.0287 76.2133C60.1272 74.7681 60.2256 73.9762 60.3339 73.9762H60.3536Z" fill="#0061EF"/>
<path d="M56.8007 52.5358C56.8893 52.4764 57.2832 52.9021 57.9133 53.7434C58.0216 53.882 58.1299 54.0305 58.2481 54.1889C58.3761 54.3473 58.5139 54.5056 58.6222 54.7036C58.6222 54.9709 59.085 54.9511 59.0358 55.2777C59.1145 55.5252 59.3016 55.7133 59.4788 55.9212C59.6659 56.129 59.6954 56.4359 59.9613 56.6141C60.3453 56.713 60.0203 57.2872 60.4733 57.3664C60.6997 57.594 60.8573 57.8811 61.0246 58.178C61.0246 58.574 61.3791 58.7621 61.6055 59.0392C61.576 59.4748 61.8615 59.7222 62.2061 59.9499C62.1077 60.4547 62.3538 60.7517 62.8363 60.9101C63.0529 61.2367 63.1514 61.6525 63.496 61.9099C63.7323 62.2464 64.008 62.5632 64.1753 62.9591C64.5987 63.1967 64.8153 63.5629 64.8744 64.048C65.1009 64.1668 65.2485 64.335 65.3568 64.533C65.3864 64.5825 65.4061 64.632 65.4356 64.6815L65.4652 64.7607L65.4848 64.8003L65.5144 64.8696C65.603 65.0576 65.6818 65.2457 65.7605 65.4239C65.8984 65.7802 66.1642 66.097 66.4497 66.4731C66.7353 66.8394 67.0405 67.265 67.0897 67.5323L67.1488 67.6313C66.7451 67.6313 66.3611 67.6412 65.9673 67.6511C65.5735 67.661 65.1501 67.6709 64.7366 67.6511C64.5199 67.6214 64.2935 67.6016 64.0769 67.5719H63.9193C63.9193 67.5719 63.88 67.5521 63.8603 67.5521H63.8209C63.7618 67.5422 63.7027 67.5323 63.6437 67.5323C63.4073 67.5224 63.1612 67.5521 62.9151 67.661C62.4228 67.7204 61.9305 67.8095 61.4382 67.6709C60.936 67.9382 60.4339 67.8194 59.9317 67.6709C59.4197 67.7105 58.9078 67.5224 58.3958 67.6709C57.8739 67.6313 57.3619 67.7897 56.8303 67.6709C56.3084 67.5917 55.7866 67.5125 55.2648 67.6709C54.7429 67.8392 54.2309 67.6016 53.7288 67.6709C53.2168 67.4234 52.7147 67.7501 52.2224 67.6709C51.7202 67.6907 51.2279 67.5224 50.7455 67.661C50.2138 67.7105 49.948 67.76 48.9141 67.6511C48.412 67.8392 47.9197 67.8194 47.5554 67.76C47.1812 67.7006 46.9252 67.6016 46.5117 67.6214C46.5314 67.5917 46.5413 67.562 46.5609 67.5323C46.9252 67.1067 47.1123 66.7899 47.2994 66.4533C47.4766 66.1267 47.6538 65.7703 47.8901 65.4338C47.9788 65.2556 48.0871 65.0873 48.2052 64.9191L48.2446 64.8597L48.2741 64.83L48.3332 64.7607L48.4415 64.632C48.5892 64.4637 48.7271 64.2855 48.7763 64.0579C49.0323 63.7015 49.1307 63.2561 49.4753 62.969C49.5344 62.5038 50.0563 62.3454 50.1547 61.9198C50.3713 61.5733 50.5682 61.2268 50.8144 60.92C51.2772 60.7517 51.2673 60.2865 51.4445 59.9598C51.671 59.6629 51.6907 59.2471 52.0451 59.0491C52.2519 58.7621 52.5473 58.5344 52.626 58.1879C52.7639 57.8811 53.3448 57.8613 53.1676 57.3763C53.2759 57.0694 53.7583 57.01 53.6796 56.624C53.6303 56.2478 54.0143 56.1488 54.162 55.931C54.3195 55.7133 54.4672 55.4955 54.6149 55.2876C55.9047 53.4564 56.7121 52.4467 56.85 52.5358C56.9976 52.6348 56.3084 54.0602 54.9891 56.4458C54.8611 56.6833 54.8906 57.0397 54.5755 57.1882C54.418 57.4356 54.3983 57.7821 54.1226 57.99C54.1916 58.4057 53.8273 58.5641 53.6402 58.8413C53.4728 59.1283 53.2168 59.3758 53.1183 59.742C53.0691 60.1281 52.6753 60.3162 52.567 60.6923C52.2224 60.92 52.0648 61.2664 51.9861 61.6822C51.6415 61.9297 51.6021 62.3751 51.3756 62.7116C50.9424 62.9195 50.8735 63.3749 50.7356 63.7906C50.5879 64.2063 50.2532 64.4934 50.0759 64.8993C49.9381 65.0675 49.8396 65.2655 49.7313 65.4635L49.5935 65.7307C49.5935 65.7307 49.5738 65.7703 49.5541 65.7802C49.5935 65.8297 49.6329 65.8396 49.6427 65.8495C49.6427 65.8594 49.6033 65.8792 49.4557 65.9782H49.4655C49.564 65.9485 49.5837 65.9386 49.6033 65.9485C49.623 65.9485 49.6427 65.9683 49.6821 65.9683C49.7116 65.9386 49.7313 65.9287 49.7412 65.9287C49.7412 65.9287 49.7412 65.9287 49.751 65.9287H49.82H49.9972C50.2433 65.9386 50.4796 65.9683 50.7258 65.9485C51.2181 65.899 51.7104 66.2257 52.2027 65.9386C52.7048 65.899 53.207 65.9881 53.7091 65.9386C54.2211 65.9782 54.7331 66.0178 55.2451 65.9386C55.7571 66.2158 56.2789 66.0475 56.8106 65.9386C57.3324 65.8594 57.8542 65.899 58.3761 65.9386C58.8881 65.9089 59.4099 65.9287 59.912 65.9386C60.424 65.8594 60.9262 66.0574 61.4185 65.9386C61.9206 65.8198 62.4129 66.0673 62.8954 65.9485C63.3384 65.8693 64.0375 65.8198 63.9489 65.9584C63.9784 65.9584 64.0572 66.0178 64.1556 66.0475C64.2443 66.0871 64.3526 66.097 64.2344 65.998C64.2147 65.9881 64.195 65.9683 64.1753 65.9584C64.1064 65.899 63.939 65.8099 63.8898 65.8C63.8307 65.7802 63.8898 65.8297 64.067 65.7505C64.0276 65.7406 64.0178 65.7208 64.0178 65.7011C63.9784 65.6021 63.939 65.513 63.8996 65.414C63.811 65.2061 63.7224 64.9982 63.5353 64.8597C63.5452 64.335 63.0923 64.1173 62.8757 63.751C62.6984 63.365 62.5606 62.9591 62.2357 62.6721C61.9009 62.3949 61.8714 61.9494 61.6252 61.6426C61.2806 61.3951 61.3988 60.8705 61.0443 60.6527C60.8769 60.3162 60.6308 60.039 60.493 59.7024C59.981 59.6035 60.1287 59.1085 59.981 58.8017C59.853 58.4849 59.4197 58.376 59.4985 57.9504C59.085 57.8415 59.1342 57.4455 59.0456 57.1486C58.957 56.8516 58.6419 56.7229 58.6321 56.4062C58.317 56.2874 58.445 55.8915 58.2579 55.7232C58.2382 55.4361 58.0118 55.3074 57.9232 55.0996C57.7656 54.9313 57.6672 54.7432 57.6278 54.5353C57.5392 54.3572 57.4506 54.1889 57.3718 54.0404C56.8992 53.1099 56.6924 52.5655 56.781 52.5061L56.8007 52.5358Z" fill="#0061EF"/>
<path d="M81.6897 81.1232C81.798 81.1232 81.8965 82.0339 81.995 83.6969C82.0048 83.974 82.0245 84.271 82.0442 84.5877C82.0737 84.9045 82.1033 85.2411 82.0934 85.6073C81.9556 85.9637 82.3593 86.3398 82.1328 86.7358C82.0737 87.1317 82.1328 87.5475 82.1722 87.983C82.2214 88.4185 82.0836 88.864 82.2116 89.3391C82.4873 89.8043 81.9063 90.2993 82.2509 90.7942C82.3297 91.299 82.31 91.8138 82.2903 92.3483C82.0836 92.8828 82.2903 93.4372 82.3297 94.0014C82.0737 94.5656 82.182 95.1496 82.3593 95.7436C82.0146 96.3375 82.0639 96.9512 82.3888 97.5748C82.3888 97.6936 82.3888 97.8124 82.3888 97.9213C82.3888 98.0994 82.3789 98.2875 82.3691 98.4657C82.3593 98.8517 82.3396 99.2279 82.3593 99.6337C82.1033 99.6337 81.8473 99.6634 81.5814 99.703C81.3057 99.703 81.0301 99.7129 80.7445 99.7228C80.5771 99.7228 80.4098 99.7327 80.2325 99.7426C79.9076 99.7525 79.5729 99.7525 79.2282 99.7228C78.5587 99.9604 77.8695 99.9505 77.1704 99.7426C76.8258 99.8713 76.4714 99.9109 76.1169 99.901C75.9397 99.901 75.7723 99.8812 75.5754 99.8515C75.2406 99.8317 74.9256 99.802 74.6203 99.7624C74.3644 99.7327 74.1084 99.7228 73.8327 99.7327C73.8228 99.2477 73.7736 98.7627 73.7441 98.2281C73.7244 97.9015 73.7145 97.8322 73.7244 97.6639C73.7244 97.5154 73.7441 97.3768 73.7834 97.2284C73.8031 96.486 73.7244 95.7337 73.7637 94.9616C73.8622 94.1994 73.9804 93.4273 73.7539 92.6453C73.6948 91.8633 73.6062 91.0714 73.7441 90.2696C73.4782 89.4678 73.5964 88.666 73.7441 87.8444C73.7047 87.0327 73.8917 86.2111 73.7441 85.3796C73.7834 84.5481 73.6259 83.7167 73.7441 82.8753C73.8228 82.0339 73.9016 81.2024 73.7441 80.3709C73.5767 79.5394 73.813 78.7178 73.7441 77.9061C73.9902 77.0944 73.6653 76.2827 73.7441 75.4909C73.7244 74.6891 73.8917 73.8972 73.7539 73.1152C73.7047 72.3332 73.6554 71.5611 73.7637 70.7989C73.3798 70.0367 73.8622 69.2844 73.7834 68.5321C73.941 67.7897 73.7637 67.0572 73.8031 66.3346C73.7342 65.612 73.9804 64.8993 73.8228 64.1965C73.8524 63.4936 73.6948 62.8106 73.8425 62.1276C73.7441 61.7911 73.7834 61.4545 73.8425 61.118C73.8524 61.0388 73.8622 60.9497 73.8819 60.8705V60.7517L73.9016 60.6923C73.9016 60.6725 73.9016 60.6527 73.9016 60.6131C73.9114 60.336 73.9016 60.0687 73.8721 59.7717V58.9304C74.2856 58.9304 74.6893 58.9304 75.093 58.9304C75.28 58.9304 75.4671 58.9304 75.6542 58.9304C75.7723 58.9304 75.8905 58.9304 75.9988 58.9502C76.6191 59.2471 77.2295 58.9996 77.8203 58.9798C78.411 59.0095 78.9919 58.8116 79.5532 59.0095C79.8387 59.0194 80.1144 59.059 80.3901 59.0788C80.459 59.0788 80.5279 59.0788 80.5968 59.0887H80.6953H80.8528C81.0596 59.0887 81.2664 59.0689 81.4928 59.0392C81.7685 59.0293 82.0146 59.059 82.2116 59.1085C82.1623 59.4352 82.1033 59.7222 82.0934 59.9796C82.0934 60.1083 82.0934 60.2271 82.1131 60.336C82.123 60.3954 82.1426 60.4548 82.1623 60.5141C82.182 60.5735 82.2116 60.6527 82.2411 60.6824C82.31 61.1873 81.9359 61.6723 82.2017 62.1375C82.4479 62.6028 82.1722 63.0581 82.1623 63.4936C82.1426 63.9292 82.1328 64.3449 82.123 64.7409C81.995 68.3044 81.8374 70.3534 81.6799 70.3534C81.5027 70.3534 81.3353 67.8293 81.1974 63.4936C81.1876 63.0581 80.971 62.6127 81.158 62.1375C81.158 61.6723 81.0005 61.1873 81.1187 60.6824C81.099 60.6329 81.0793 60.623 81.0596 60.6032C81.0399 60.5933 81.0301 60.5735 81.0202 60.5636C81.0005 60.5438 80.9907 60.524 80.9808 60.4943C80.9808 60.4449 81.0005 60.3855 81.0301 60.2964C81.0005 60.2766 80.9513 60.2469 80.8922 60.2469C80.8331 60.2469 80.7839 60.2469 80.7347 60.2469H80.6953H80.5968H80.3901C80.1144 60.237 79.8387 60.2469 79.5532 60.2964C78.9919 60.4547 78.411 60.2172 77.8203 60.3261C77.2295 60.1578 76.6191 60.1974 75.9988 60.3558C75.8806 60.3261 75.7723 60.3063 75.6542 60.2964H75.5557C75.5557 60.2964 75.5163 60.2964 75.4966 60.2964C75.4179 60.3063 75.3588 60.336 75.3096 60.3657C75.3292 60.4251 75.3391 60.4745 75.3391 60.524C75.28 60.524 75.2406 60.5933 75.2209 60.6527C75.2209 60.6527 75.2209 60.6824 75.2209 60.7022V60.7616C75.2209 60.7616 75.2209 60.8408 75.2209 60.8804C75.2209 60.9596 75.221 61.0487 75.2308 61.1279C75.2603 61.4545 75.3292 61.7911 75.3785 62.1375C75.4769 62.8106 75.3391 63.5035 75.408 64.2064C75.3588 64.9092 75.4769 65.6219 75.4277 66.3445C75.5459 67.0671 75.5951 67.7996 75.4474 68.542C75.5262 69.2844 75.4671 70.0367 75.4671 70.8088C75.5656 71.571 75.4573 72.3431 75.4769 73.1251C75.5262 73.9071 75.2013 74.699 75.4769 75.5007C75.5163 76.3025 75.4376 77.1043 75.4769 77.916C75.4376 78.7277 75.408 79.5493 75.4769 80.3808C75.2013 81.2123 75.3686 82.0438 75.4769 82.8852C75.5557 83.7266 75.5163 84.558 75.4769 85.3895C75.5065 86.221 75.4868 87.0426 75.4769 87.8543C75.5557 88.666 75.3588 89.4777 75.4769 90.2795C75.5951 91.0813 75.3489 91.8732 75.4769 92.6552C75.5557 93.4372 75.6049 94.2093 75.4671 94.9715C75.4671 95.7337 75.2111 96.486 75.4474 97.2383C75.4572 97.3867 75.4769 97.5253 75.5065 97.6738C75.5262 97.8025 75.5557 98.0302 75.5754 97.9708C75.6148 97.9807 75.6443 97.9411 75.5951 97.9906C75.5754 98.0203 75.536 98.0697 75.5262 98.1489C75.5754 98.1192 75.5951 98.1192 75.6246 98.1291C75.7822 98.139 75.9791 98.1588 76.1465 98.1786C76.5009 98.2182 76.8554 98.2479 77.2 98.1687C77.899 98.4558 78.5784 98.1786 79.2578 98.1885C79.5925 98.2182 79.9273 98.2578 80.2621 98.2677C80.3408 98.2677 80.4295 98.2677 80.5082 98.2677H80.6953C80.6953 98.2677 80.7347 98.2677 80.7445 98.2677C80.7938 98.2677 80.843 98.238 80.8725 98.2083C80.9021 98.1687 80.9217 98.1588 80.9513 98.1588C80.9513 98.1093 80.9808 98.0797 81.0005 98.0203C81.0005 98.0104 81.0104 97.9906 81.0202 97.9708C81.0202 97.951 81.0202 97.9609 81.0301 97.8817C81.0301 97.7629 81.0301 97.6441 81.0301 97.5352C80.8627 96.9116 81.2467 96.2979 81.0596 95.704C81.099 95.11 81.0301 94.526 81.0891 93.9618C80.7051 93.3976 81.0891 92.8432 81.1285 92.3087C81.1876 91.7742 80.8725 91.2496 81.1679 90.7546C80.8824 90.2498 81.1285 89.7648 81.2073 89.2995C81.286 88.8343 81.0891 88.3789 81.2467 87.9434C81.0399 87.5079 81.355 87.0921 81.286 86.6962C81.4239 86.3002 81.286 85.9241 81.3254 85.5677C81.2762 85.2114 81.2959 84.8748 81.3747 84.5481C81.3944 84.2314 81.4042 83.9344 81.4239 83.6573C81.5224 81.9943 81.6208 81.0836 81.7291 81.0836L81.6897 81.1232Z" fill="#0061EF"/>
<path d="M78.1367 45.3889C78.2253 45.3295 78.6191 45.7651 79.2492 46.5966C79.3576 46.7351 79.4659 46.8836 79.584 47.0519C79.712 47.2103 79.8499 47.3686 79.9582 47.5666C79.9582 47.8339 80.4209 47.824 80.3717 48.1506C80.4505 48.3981 80.6375 48.5862 80.8246 48.7941C81.0117 49.0019 81.0412 49.3088 81.3071 49.4969C81.691 49.5958 81.3661 50.17 81.819 50.2492C82.0455 50.4768 82.203 50.7639 82.3704 51.0609C82.3704 51.4568 82.7249 51.6449 82.9513 51.922C82.9218 52.3576 83.2073 52.6051 83.5519 52.8327C83.4535 53.3376 83.6996 53.6345 84.1821 53.7929C84.3987 54.1195 84.4971 54.5254 84.8417 54.7927C85.078 55.1292 85.3537 55.446 85.5211 55.8419C85.9445 56.0795 86.1611 56.4556 86.2202 56.9308C86.4368 57.0496 86.5943 57.2178 86.7026 57.4158C86.7322 57.4653 86.7519 57.5148 86.7814 57.5643L86.8109 57.6435L86.8306 57.6831L86.8602 57.7524C86.9488 57.9404 87.0275 58.1285 87.1063 58.3067C87.2442 58.663 87.51 58.9798 87.7955 59.356C88.0811 59.7222 88.3863 60.1479 88.4355 60.4151L88.4946 60.5141C88.0909 60.5141 87.7168 60.524 87.3131 60.5339C86.9192 60.5339 86.4959 60.5537 86.0823 60.5339C85.8657 60.5141 85.6393 60.4844 85.4227 60.4646L85.2651 60.4448C85.2651 60.4448 85.2257 60.4448 85.206 60.4448H85.1568C85.0977 60.4349 85.0387 60.425 84.9796 60.425C84.7433 60.4151 84.4971 60.4448 84.251 60.5537C83.7587 60.6131 83.2664 60.7022 82.7741 60.5636C82.272 60.8309 81.7698 60.7121 81.2677 60.5636C80.7557 60.6131 80.2437 60.4151 79.7317 60.5636C79.2099 60.524 78.6979 60.6824 78.1662 60.5636C77.6444 60.4844 77.1225 60.4052 76.6007 60.5636C76.0789 60.7319 75.5669 60.4943 75.0647 60.5636C74.5527 60.3161 74.0506 60.6428 73.5583 60.5636C73.0562 60.5834 72.5639 60.4151 72.0814 60.5537C71.5497 60.6032 71.2839 60.6527 70.2501 60.5438C69.7479 60.7319 69.2556 60.7121 68.8913 60.6626C68.5172 60.6032 68.2612 60.5042 67.8477 60.524C67.8673 60.4943 67.887 60.4646 67.8969 60.4349C68.2612 59.9994 68.4483 59.6925 68.6353 59.356C68.8126 59.0293 68.9898 58.6729 69.2261 58.3265C69.3147 58.1483 69.423 57.98 69.5412 57.8118L69.5805 57.7524L69.6101 57.7227L69.6692 57.6534L69.7775 57.5247C69.9251 57.3564 70.063 57.1782 70.1122 56.9506C70.3682 56.5942 70.4667 56.1488 70.8211 55.8617C70.8802 55.4064 71.402 55.2381 71.5005 54.8125C71.7171 54.466 71.914 54.1195 72.1602 53.8127C72.6229 53.6345 72.6131 53.1792 72.7903 52.8525C73.0168 52.5556 73.0365 52.1398 73.3909 51.9418C73.5977 51.6548 73.8931 51.4271 73.9718 51.0807C74.1097 50.7738 74.6906 50.754 74.5232 50.269C74.6315 49.9621 75.114 49.9027 75.0352 49.5167C74.9761 49.1405 75.3601 49.0415 75.5176 48.8139C75.6752 48.5961 75.8229 48.3783 75.9706 48.1704C77.2604 46.3392 78.0677 45.3295 78.1957 45.4186C78.3434 45.5176 77.6542 46.943 76.3349 49.3286C76.2069 49.5662 76.2364 49.9225 75.9213 50.071C75.7638 50.3185 75.7441 50.6649 75.4684 50.8629C75.5373 51.2786 75.173 51.437 74.986 51.7142C74.8186 52.0111 74.5626 52.2487 74.4641 52.615C74.4149 53.001 74.0211 53.1792 73.9128 53.5652C73.5681 53.7929 73.4106 54.1393 73.3318 54.5551C72.9872 54.8026 72.9478 55.248 72.7214 55.5846C72.2882 55.7924 72.2192 56.2478 72.0814 56.6635C71.9337 57.0694 71.599 57.3663 71.4217 57.7722C71.2839 57.9503 71.1854 58.1384 71.0771 58.3364L70.9294 58.6037C70.9294 58.6037 70.9097 58.6432 70.89 58.6531C70.9294 58.7026 70.9688 58.7125 70.9787 58.7224C70.9787 58.7323 70.9393 58.7521 70.7916 58.861H70.8014C70.8901 58.8214 70.9196 58.8214 70.9393 58.8313C70.959 58.8313 70.9787 58.8511 71.018 58.8511C71.0476 58.8214 71.0673 58.8115 71.0771 58.8115C71.0771 58.8115 71.0771 58.8115 71.087 58.8115H71.1657H71.343C71.5891 58.8214 71.8254 58.8511 72.0716 58.8313C72.5639 58.7818 73.0562 59.1085 73.5485 58.8214C74.0506 58.7818 74.5527 58.861 75.0549 58.8214C75.5669 58.861 76.0789 58.9006 76.5908 58.8214C77.1028 59.0986 77.6247 58.9303 78.1563 58.8214C78.6782 58.7422 79.2 58.7818 79.7219 58.8214C80.2338 58.7917 80.7557 58.8115 81.2578 58.8214C81.7698 58.7422 82.272 58.9402 82.7642 58.8214C83.2664 58.7026 83.7587 58.9501 84.2411 58.8313C84.6842 58.7521 85.3833 58.7026 85.2947 58.8412C85.3242 58.8412 85.403 58.9006 85.5014 58.9303C85.59 58.9699 85.6983 58.9798 85.5802 58.8808C85.5605 58.8709 85.5408 58.8511 85.5211 58.8412C85.4522 58.7719 85.2848 58.6927 85.2356 58.6828C85.1765 58.663 85.2356 58.7125 85.4128 58.6334C85.3734 58.6235 85.3636 58.6037 85.3636 58.5839C85.3242 58.4849 85.2848 58.3958 85.2454 58.2968C85.1568 58.0889 85.0682 57.8811 84.8811 57.7425C84.8811 57.2178 84.4381 57.0001 84.2215 56.6338C84.0442 56.2478 83.9064 55.8419 83.5815 55.5549C83.2467 55.2777 83.2172 54.8323 82.971 54.5254C82.6264 54.2779 82.7446 53.7533 82.3901 53.5355C82.2227 53.199 81.9766 52.9218 81.8387 52.5853C81.3267 52.4863 81.4744 51.9913 81.3267 51.6845C81.1987 51.3677 80.7655 51.2588 80.8443 50.8332C80.4308 50.7243 80.48 50.3284 80.3914 50.0413C80.3126 49.7443 79.9877 49.6157 79.9779 49.2989C79.6628 49.1801 79.7908 48.7842 79.6037 48.6159C79.584 48.3288 79.3576 48.2001 79.2689 47.9923C79.1114 47.824 79.0129 47.6359 78.9736 47.428C78.8849 47.2499 78.7963 47.0816 78.7176 46.9232C78.245 45.9828 78.0382 45.4483 78.1268 45.3889H78.1367Z" fill="#0061EF"/>
<path d="M3.48438 40.0338C3.48438 39.9249 3.74037 39.826 4.20313 39.727C4.2819 39.7171 4.36066 39.6973 4.44928 39.6775C4.53789 39.6478 4.63635 39.6181 4.73481 39.628C4.83327 39.7666 4.94157 39.3607 5.04988 39.5884C5.15818 39.6478 5.27634 39.5884 5.40433 39.5488C5.52248 39.4993 5.65048 39.6379 5.78832 39.5092C5.91632 39.232 6.05417 39.8161 6.20185 39.4696C6.3397 39.4003 6.48739 39.4201 6.64492 39.43C6.79261 39.6379 6.95015 39.43 7.10768 39.3904C7.26522 39.6478 7.4326 39.5389 7.59998 39.3607C7.76736 39.7072 7.93474 39.6577 8.11197 39.331C8.28919 39.3211 8.46642 39.4597 8.65349 39.3013C8.84057 39.2815 9.02764 39.2122 9.21471 39.2716C9.40178 39.0341 9.5987 39.044 9.79562 39.2518C9.99254 39.0044 10.1895 39.1033 10.3962 39.232C10.603 39.3706 10.8098 39.0143 11.0165 39.2122C11.2233 39.232 11.4399 39.1528 11.6565 39.1924C11.8731 39.2914 12.0897 39.4102 12.3063 39.1825C12.5229 39.1231 12.7494 39.0341 12.9759 39.1726C13.2023 38.9054 13.4288 39.0242 13.6552 39.1726C13.8817 39.133 14.118 39.3211 14.3444 39.1726C14.5807 39.2122 14.8171 39.0539 15.0435 39.1726C15.2798 39.2518 15.5161 39.331 15.7524 39.1726C15.9887 39.0044 16.2152 39.2419 16.4416 39.1726C16.6681 39.4201 16.8945 39.0934 17.121 39.1726C17.3475 39.1429 17.5641 39.3211 17.7905 39.1825C18.0071 39.133 18.2336 39.0934 18.4404 39.1924C18.657 38.8064 18.8637 39.2914 19.0803 39.2122C19.2871 39.3805 19.4939 39.1924 19.7006 39.232C19.9074 39.1627 20.1043 39.4102 20.3012 39.2518C20.4982 39.2815 20.6951 39.1231 20.8822 39.2716C21.0692 39.0836 21.2563 39.43 21.4434 39.3013C21.6304 39.3013 21.8077 39.2914 21.9849 39.331C22.1621 39.628 22.3295 39.3805 22.4969 39.3607C22.6643 39.3904 22.8316 39.1924 22.9892 39.3904C23.1467 39.4102 23.3043 39.5488 23.4519 39.43C23.5996 39.3904 23.7473 39.8655 23.8852 39.4696C24.023 39.4003 24.1608 39.7765 24.2987 39.5092C24.4267 39.2617 24.5547 39.5389 24.6827 39.5488C24.8008 39.5686 24.919 39.5785 25.0371 39.5884C26.0414 39.7171 26.6125 39.8754 26.6125 40.0338C26.6125 40.212 25.9036 40.3803 24.6827 40.5189C24.5645 40.5288 24.4365 40.7465 24.2987 40.5585C24.1707 40.5585 24.0329 40.7168 23.8852 40.598C23.7473 40.8752 23.5996 40.6475 23.4519 40.6376C23.3043 40.6475 23.1467 40.5585 22.9892 40.6772C22.8316 40.8356 22.6643 40.598 22.4969 40.7069C22.3295 40.5387 22.1621 40.5783 21.9849 40.7366C21.8077 40.5684 21.6304 40.7762 21.4434 40.7663C21.2563 40.509 21.0692 40.6871 20.8822 40.796C20.6951 40.8851 20.4982 40.7564 20.3012 40.8158C20.1043 40.7663 19.9074 40.8851 19.7006 40.8356C19.4939 40.9544 19.2871 41.0039 19.0803 40.8554C18.8736 40.9346 18.657 40.8752 18.4404 40.8752C18.2237 40.9742 18.0071 40.8653 17.7905 40.8851C17.5739 40.9445 17.3475 40.6079 17.121 40.895C16.8945 40.9346 16.6681 40.8554 16.4416 40.895C16.2152 40.8554 15.9789 40.8257 15.7524 40.895C15.5161 40.6178 15.2798 40.7861 15.0435 40.895C14.8072 40.9742 14.5709 40.9346 14.3444 40.895C14.1081 40.9247 13.8817 40.9049 13.6552 40.895C13.4288 40.9742 13.2023 40.7762 12.9759 40.895C12.7494 41.0138 12.5328 40.7663 12.3063 40.8851C12.0799 40.9643 11.8633 41.0138 11.6565 40.8752C11.4399 40.8752 11.2331 40.6178 11.0165 40.8554C10.8098 40.9049 10.603 41.2316 10.3962 40.8356C10.1895 40.9346 9.99254 40.6475 9.79562 40.8158C9.5987 40.5288 9.40178 40.796 9.21471 40.796C9.02764 40.7366 8.84057 40.6475 8.65349 40.7663C8.47627 40.9049 8.28919 40.6871 8.11197 40.7366C7.93474 40.9049 7.76736 40.5189 7.59998 40.7069C7.4326 40.6673 7.26522 40.7267 7.10768 40.6772C6.95015 41.0633 6.79261 40.6772 6.64492 40.6376C6.49723 40.5783 6.34954 40.895 6.20185 40.598C6.06401 40.895 5.92617 40.6376 5.78832 40.5585C5.66033 40.4694 5.53233 40.6772 5.40433 40.5189C5.28618 40.7267 5.16803 40.41 5.04988 40.4793C4.94157 40.3407 4.83327 40.4793 4.73481 40.4397C4.63635 40.4892 4.53789 40.4694 4.44928 40.3902C4.36066 40.3704 4.2819 40.3605 4.20313 40.3407C3.74037 40.2417 3.48438 40.1427 3.48438 40.0338Z" fill="#0061EF"/>
<path d="M44.375 40.0338C44.375 39.9249 44.8476 39.826 45.7042 39.727C45.8519 39.7171 45.9996 39.6973 46.167 39.6775C46.3343 39.6478 46.5116 39.6181 46.6888 39.628C46.8759 39.7666 47.0728 39.3607 47.2796 39.5884C47.4863 39.6478 47.7029 39.5884 47.9294 39.5488C48.1558 39.4993 48.3921 39.6379 48.6284 39.5092C48.8746 39.232 49.1207 39.8161 49.3866 39.4696C49.6524 39.4003 49.9183 39.4201 50.194 39.43C50.4696 39.6379 50.7552 39.43 51.0505 39.3904C51.3459 39.6478 51.6413 39.5389 51.9564 39.3607C52.2616 39.7072 52.5865 39.6577 52.9114 39.331C53.2363 39.3211 53.5711 39.4597 53.9059 39.3013C54.2406 39.2815 54.5852 39.2122 54.9397 39.2716C55.2941 39.0341 55.6486 39.044 56.0129 39.2518C56.3772 39.0044 56.7415 39.1033 57.1255 39.232C57.4996 39.3706 57.8836 39.0143 58.2676 39.2122C58.6516 39.232 59.0455 39.1528 59.4393 39.1924C59.8331 39.2914 60.2368 39.4102 60.6405 39.1825C61.0442 39.1231 61.4577 39.0341 61.8712 39.1726C62.2848 38.9054 62.7081 39.0242 63.1315 39.1726C63.5549 39.133 63.9783 39.3211 64.4115 39.1726C64.8447 39.2122 65.2779 39.0539 65.7112 39.1726C66.1444 39.2518 66.5776 39.331 67.0108 39.1726C67.444 39.0044 67.8674 39.2419 68.2908 39.1726C68.7142 39.4201 69.1277 39.0934 69.5511 39.1726C69.9646 39.1429 70.3781 39.3211 70.7818 39.1825C71.1855 39.133 71.5892 39.0934 71.983 39.1924C72.3769 38.8064 72.7707 39.2914 73.1547 39.2122C73.5387 39.3805 73.9227 39.1924 74.2968 39.232C74.671 39.1627 75.0451 39.4102 75.4094 39.2518C75.7737 39.2815 76.1282 39.1231 76.4826 39.2716C76.8371 39.0836 77.1817 39.43 77.5164 39.3013C77.8512 39.3013 78.186 39.2914 78.5109 39.331C78.8358 39.628 79.1509 39.3805 79.4659 39.3607C79.7712 39.3904 80.0764 39.1924 80.3718 39.3904C80.6671 39.4102 80.9527 39.5488 81.2284 39.43C81.504 39.3904 81.7797 39.8655 82.0357 39.4696C82.2917 39.4003 82.5477 39.7765 82.7939 39.5092C83.04 39.2617 83.2665 39.5389 83.4929 39.5488C83.7194 39.5686 83.936 39.5785 84.1427 39.5884C85.9938 39.7171 87.0571 39.8754 87.0571 40.0338C87.0571 40.212 85.7476 40.3803 83.5028 40.5189C83.2763 40.5288 83.04 40.7465 82.8037 40.5585C82.5576 40.5585 82.3114 40.7168 82.0456 40.598C81.7797 40.8752 81.5139 40.6475 81.2382 40.6376C80.9625 40.6475 80.677 40.5585 80.3816 40.6772C80.0862 40.8356 79.7908 40.598 79.4758 40.7069C79.1706 40.5387 78.8456 40.5783 78.5207 40.7366C78.1958 40.5684 77.861 40.7762 77.5263 40.7663C77.1915 40.509 76.8469 40.6871 76.4925 40.796C76.138 40.8851 75.7835 40.7564 75.4192 40.8158C75.0549 40.7663 74.6907 40.8851 74.3067 40.8356C73.9325 40.9544 73.5485 41.0039 73.1645 40.8554C72.7805 40.9346 72.3867 40.8752 71.9929 40.8752C71.599 40.9742 71.1953 40.8653 70.7917 40.8851C70.388 40.9445 69.9744 40.6079 69.5609 40.895C69.1474 40.9346 68.724 40.8554 68.3006 40.895C67.8773 40.8554 67.4539 40.8257 67.0207 40.895C66.5874 40.6178 66.1542 40.7861 65.721 40.895C65.2878 40.9742 64.8546 40.9346 64.4213 40.895C63.9881 40.9247 63.5647 40.9049 63.1414 40.895C62.718 40.9742 62.3045 40.7762 61.8811 40.895C61.4676 41.0138 61.054 40.7663 60.6503 40.8851C60.2467 40.9643 59.843 41.0138 59.4491 40.8752C59.0553 40.8752 58.6615 40.6178 58.2775 40.8554C57.8935 40.9049 57.5095 41.2316 57.1353 40.8356C56.7612 40.9346 56.387 40.6475 56.0227 40.8158C55.6584 40.5288 55.304 40.796 54.9495 40.796C54.5951 40.7366 54.2505 40.6475 53.9157 40.7663C53.581 40.9049 53.2462 40.6871 52.9213 40.7366C52.5964 40.9049 52.2813 40.5189 51.9662 40.7069C51.661 40.6673 51.3558 40.7267 51.0604 40.6772C50.765 41.0633 50.4795 40.6772 50.2038 40.6376C49.9281 40.5783 49.6524 40.895 49.3964 40.598C49.1306 40.895 48.8844 40.6376 48.6383 40.5585C48.3921 40.4694 48.1657 40.6772 47.9392 40.5189C47.7128 40.7267 47.4962 40.41 47.2894 40.4793C47.0826 40.3407 46.8857 40.4793 46.6986 40.4397C46.5116 40.4892 46.3343 40.4694 46.1768 40.3902C46.0094 40.3704 45.8519 40.3605 45.714 40.3407C44.8476 40.2417 44.3848 40.1427 44.3848 40.0338H44.375Z" fill="#0061EF"/>
</g>
<defs>
<clipPath id="clip0_4172_26039">
<rect width="85" height="85" fill="white" transform="translate(3.48438 15)"/>
</clipPath>
</defs>
</svg>
