<svg width="42" height="52" viewBox="0 0 42 52" fill="none" xmlns="http://www.w3.org/2000/svg">
<path d="M14.25 19.505L14.25 18.05C14.25 14.675 16.965 11.36 20.34 11.045C24.36 10.655 27.75 13.82 27.75 17.765L27.75 19.835" stroke="#0061EF" stroke-width="1.5" stroke-miterlimit="10" stroke-linecap="round" stroke-linejoin="round"/>
<path d="M16.4993 41L25.4993 41C31.5292 41 32.6092 38.585 32.9242 35.645L34.0492 26.645C34.4542 22.985 33.4042 20 26.9992 20L14.9993 20C8.59425 20 7.54425 22.985 7.94925 26.645L9.07425 35.645C9.38925 38.585 10.4693 41 16.4993 41Z" stroke="#0061EF" stroke-width="1.5" stroke-miterlimit="10" stroke-linecap="round" stroke-linejoin="round"/>
<path d="M26.2437 26L26.2572 26" stroke="#0061EF" stroke-width="2" stroke-linecap="round" stroke-linejoin="round"/>
<path d="M15.7418 26L15.7552 26" stroke="#0061EF" stroke-width="2" stroke-linecap="round" stroke-linejoin="round"/>
</svg>
