<svg width="118" height="111" viewBox="0 0 118 111" fill="none" xmlns="http://www.w3.org/2000/svg">
<circle cx="41.4945" cy="41.4945" r="41.4945" transform="matrix(-1 0 0 1 118 0)" fill="#FEFFD3"/>
<g clip-path="url(#clip0_1032_14106)">
<path d="M59.8104 84.0995C59.8803 84.0995 59.9362 83.4325 59.9781 82.1404C59.9781 81.9737 59.9781 81.807 59.9921 81.6263C59.9921 81.4457 59.9921 81.2512 59.9921 81.0567C59.9921 80.6538 59.9641 80.2231 59.9641 79.7507C59.9641 79.2783 59.9082 78.7781 59.8663 78.2362C59.8104 77.6944 59.7824 77.1108 59.7125 76.4995C59.6566 76.0966 59.6007 75.6658 59.5448 75.2351C59.4889 74.7905 59.433 74.3459 59.3351 73.8735C59.1814 72.9426 59.0416 71.9423 58.7481 70.9141C58.5244 70.4278 58.4965 69.8721 58.3986 69.3163C58.3148 68.7606 58.2029 68.1909 57.8954 67.6629C57.7976 67.3851 57.6858 67.1072 57.5879 66.8293C57.4901 66.5514 57.3922 66.2597 57.2944 65.9679C57.1127 65.3843 56.931 64.773 56.7632 64.1756C56.4138 62.939 55.7848 61.758 55.4913 60.3964C55.3934 58.9792 54.1634 57.8816 54.1354 56.3394C53.758 54.9083 53.2548 53.4772 52.7656 51.9906C52.0248 50.5873 51.8291 48.9339 51.5775 47.3778C51.5076 47.1972 51.4377 47.0027 51.3678 46.8082C51.3259 46.6275 51.284 46.4469 51.256 46.2663C51.2141 45.8634 51.2281 45.4465 51.256 45.0297C51.256 44.8213 51.284 44.6129 51.3119 44.4045C51.3399 44.1961 51.3678 43.9877 51.4098 43.7793C51.4657 43.3625 51.5775 42.9456 51.6893 42.5288C51.4098 40.7782 51.8571 38.9998 52.8215 37.4436C53.3666 35.7625 53.9118 33.9841 54.9881 32.4557C55.9106 30.844 57.0428 29.3296 58.2169 27.8151C59.6986 26.5508 61.0684 25.217 62.4662 23.772C64.2413 22.8272 65.8488 21.6462 67.6379 20.6042C68.0852 20.3541 68.5465 20.104 69.0357 19.9373C69.5249 19.7567 70.0141 19.5899 70.5173 19.4649L71.2721 19.2565C71.5237 19.2009 71.7753 19.1314 72.0269 19.062C72.5301 18.9091 73.0333 18.7702 73.5365 18.5896C75.6052 18.1033 77.7578 17.9505 79.9243 17.9088C82.0909 17.7698 84.3553 17.8671 86.4659 18.6868C88.6185 19.2704 90.6592 20.1596 92.7559 21.021C94.601 22.3548 96.5439 23.4941 98.4169 24.8557L98.7384 25.1475L99.0599 25.4393L99.7028 26.0228L100.332 26.6342C100.541 26.8426 100.751 27.0371 100.947 27.2594L101.534 27.8985C101.73 28.1208 101.911 28.357 102.093 28.5793C102.47 29.0378 102.778 29.5241 103.085 30.0382C103.267 30.2744 103.421 30.5245 103.575 30.7607C103.728 31.0108 103.896 31.2469 104.036 31.5109C104.315 32.025 104.623 32.5391 104.861 33.0671C105.392 34.123 105.839 35.2067 106.342 36.2904C107.251 38.4857 107.908 40.806 107.922 43.154C107.922 43.4458 107.922 43.7376 107.922 44.0294V44.4601L107.95 44.8908C107.95 45.1826 107.964 45.4743 107.978 45.7661L108.034 46.7248C108.145 48.0308 108.411 49.2952 108.718 50.5317C108.774 50.6846 108.844 50.8374 108.9 50.9763C108.97 51.1292 109.026 51.2681 109.096 51.4209L109.278 51.8655L109.473 52.3102C109.599 52.6019 109.711 52.8937 109.851 53.1855C109.99 53.4772 110.116 53.769 110.242 54.033C110.745 55.1028 111.234 56.1866 111.849 57.2008C112.926 59.2849 114.226 61.2301 115.148 63.3558L115.344 63.7449C115.4 63.8699 115.484 64.0227 115.498 64.0783C115.512 64.12 115.526 64.1478 115.54 64.1895L115.568 64.3006C115.596 64.3701 115.596 64.4534 115.609 64.5368C115.623 64.8425 115.54 65.1481 115.386 65.426C115.218 65.69 114.98 65.9123 114.701 66.0235C114.631 66.0512 114.561 66.079 114.491 66.0929C114.421 66.1207 114.338 66.1207 114.254 66.1346H114.198L114.086 66.1485H113.876L113.457 66.2041C112.744 66.0512 112.031 66.0235 111.332 66.0374C111.151 66.0374 110.983 66.0373 110.801 66.0651H110.494L109.99 66.1068C109.347 66.1485 108.691 66.1902 108.048 66.2319C108.089 67.0377 108.117 67.8019 108.131 68.5383V68.9412L108.145 69.2468C108.145 69.4553 108.145 69.6498 108.145 69.8582C108.369 72.0534 108.117 74.207 108.173 76.3328C108.145 76.8607 108.145 77.3887 108.173 77.9167V78.1112C108.173 78.1112 108.173 78.2223 108.173 78.2779V78.5975C108.173 78.7086 108.145 78.8198 108.145 78.917C108.131 79.0282 108.145 79.1393 108.103 79.2366C107.95 80.0841 107.558 80.9316 106.901 81.5013C106.636 81.8348 106.286 82.0987 105.937 82.3488C105.573 82.5572 105.196 82.7656 104.791 82.8768C104.399 83.0157 103.98 83.0852 103.575 83.1408L103.267 83.1686H103.113C103.113 83.1686 102.988 83.1964 102.932 83.1964C102.68 83.1964 102.428 83.2241 102.177 83.2519C100.178 82.988 98.2072 83.4742 96.2783 83.2936C95.3837 83.2936 94.4891 83.2936 93.6085 83.2936C93.6085 84.294 93.6085 85.2804 93.6085 86.2669C93.6085 86.9199 93.6225 87.5729 93.6505 88.226C93.8601 89.143 93.8741 90.0461 93.8322 90.9492C93.8322 91.1715 93.8042 91.3938 93.7902 91.6161V91.7828C93.7902 91.7828 93.7902 91.8384 93.7763 91.8662V91.9217C93.7623 91.9912 93.7343 92.0607 93.7204 92.1302C93.6365 92.3802 93.4827 92.6025 93.287 92.7693C93.1053 92.9499 92.8537 93.0611 92.6021 93.0749C92.5323 93.0749 92.4763 93.0749 92.4065 93.0749H92.085C91.8753 93.0472 91.6517 93.0471 91.442 93.0333C90.5893 93.0055 89.7367 93.0055 88.898 93.1444C87.2207 93.1722 85.5853 93.3528 84.0058 93.1861C82.4264 93.1305 80.8888 93.7835 79.4072 93.2417C77.9255 93.1444 76.4858 93.6585 75.102 93.2972C73.7182 92.9638 72.3764 93.3389 71.1044 93.3528C69.8184 93.3667 68.5884 93.3945 67.4143 93.4084C66.1004 93.4362 64.8424 93.4501 63.6682 93.4779C63.0812 93.4779 62.5221 93.5057 61.9769 93.5057C61.5436 93.5057 61.1383 93.3389 60.8308 93.0611C60.5372 92.7832 60.3415 92.4219 60.2856 92.0468C60.2577 91.8801 60.2577 91.63 60.2577 91.4077C60.2577 91.1854 60.2577 90.9631 60.2437 90.7408C60.2157 89.8793 60.1878 89.0874 60.1738 88.3927C60.076 85.5722 59.9641 84.0717 59.8523 84.0717C59.7265 84.0717 59.6147 85.9335 59.5029 89.3792C59.5029 89.8099 59.4749 90.2684 59.4609 90.7408C59.4609 90.977 59.447 91.2271 59.447 91.4771C59.447 91.6022 59.447 91.7272 59.447 91.8662C59.447 91.9495 59.447 92.019 59.447 92.1024C59.447 92.1857 59.4749 92.2552 59.4749 92.3386C59.5867 92.9777 59.9502 93.589 60.5372 94.0058C60.8308 94.2142 61.1662 94.3671 61.5296 94.4504C61.6275 94.4643 61.7114 94.4782 61.8092 94.4921C61.8931 94.4921 62.0049 94.506 62.0888 94.506C62.2425 94.506 62.3963 94.506 62.55 94.506C65.052 94.5477 67.9175 94.6033 71.1323 94.6589C72.4183 94.6727 73.7462 94.9645 75.13 94.7144C76.5138 94.7144 77.9535 94.9367 79.4351 94.77C80.9168 95.1451 82.4543 94.8395 84.0338 94.8256C85.6133 94.8395 87.2487 94.7283 88.926 94.8673C89.7647 94.9784 90.6173 94.9506 91.4699 94.9089C91.6796 94.9089 91.9033 94.8951 92.1129 94.8812H92.4344C92.5742 94.8673 92.7419 94.8534 92.8817 94.8256C93.4967 94.7283 94.0698 94.4643 94.559 94.0614C94.9784 93.589 95.2579 93.0194 95.3558 92.408C95.3697 92.2552 95.3977 92.1024 95.3977 91.9495V91.8384V91.755V91.5883C95.3977 91.366 95.3977 91.1437 95.3977 90.9214C95.3977 90.0183 95.4816 89.1152 95.5934 88.1982C95.5095 87.5452 95.4955 86.8921 95.5095 86.2391V85.7389L95.5235 85.6139V85.5722L95.5375 85.4889C95.5514 85.3777 95.5654 85.2943 95.5934 85.211L95.859 85.2388H95.9708H95.9987H96.0966H96.3062C98.2352 84.8914 100.206 85.1276 102.205 85.2804C102.456 85.2943 102.708 85.3082 102.96 85.3082C103.03 85.3082 103.085 85.3082 103.155 85.3082H103.379L103.826 85.2804C104.413 85.211 105.014 85.0859 105.573 84.8636C106.147 84.6691 106.664 84.3634 107.167 84.0439C107.656 83.6965 108.131 83.3214 108.537 82.8768C109.333 81.9598 109.921 80.8622 110.228 79.6534C110.27 79.5006 110.284 79.3477 110.326 79.1949C110.354 79.0421 110.382 78.8892 110.396 78.7364L110.424 78.2779C110.424 78.2084 110.424 78.1112 110.424 78.0556V77.8611C110.424 77.3331 110.424 76.8051 110.424 76.2772C110.591 74.1514 110.647 71.9979 110.452 69.8026L110.48 69.1913V68.8856L110.494 68.7328V68.6911C110.494 68.6911 110.494 68.5799 110.494 68.5244C110.536 68.5244 110.578 68.5244 110.633 68.5244H110.675H110.899H111.43C112.129 68.4827 112.842 68.4688 113.555 68.4549H113.974L114.184 68.4688H114.282H114.435C114.645 68.4688 114.841 68.441 115.05 68.3993C115.26 68.3576 115.456 68.3021 115.651 68.2187C116.448 67.9269 117.091 67.3295 117.524 66.6348C117.944 65.9262 118.139 65.0787 118.042 64.245C118.014 64.0366 117.986 63.8282 117.916 63.6337L117.818 63.3419L117.692 63.064C117.594 62.8556 117.538 62.7584 117.469 62.6194L117.273 62.2304C116.252 60.1602 114.757 58.3123 113.988 56.0615C113.457 55.0195 112.884 53.9774 112.311 52.9354C112.157 52.6714 112.045 52.4352 111.919 52.1851C111.794 51.9489 111.682 51.6849 111.584 51.4348C111.528 51.3098 111.472 51.1847 111.43 51.0458L111.304 50.6568L111.179 50.2677C111.137 50.1427 111.109 50.0038 111.081 49.8648C110.759 48.8089 110.55 47.7113 110.48 46.5858L110.452 45.7244V44.7796L110.438 44.3072L110.41 43.8349C110.41 43.5153 110.382 43.1957 110.368 42.8901C110.284 42.5844 110.2 42.2648 110.144 41.9592C110.074 41.6535 110.018 41.3339 109.949 41.0283C109.809 40.4169 109.711 39.7917 109.557 39.1665C109.501 38.8608 109.431 38.5413 109.375 38.2356C109.306 37.9299 109.236 37.6104 109.166 37.3047L109.068 36.8323L108.942 36.3738L108.691 35.4429C107.88 32.9837 106.636 30.7051 105.14 28.6488C103.7 26.5508 102.009 24.6473 100.094 23.0356C99.8706 22.8272 99.6329 22.6188 99.3953 22.4104C99.1577 22.2159 98.9061 22.0214 98.6545 21.8408C98.1653 21.4517 97.6341 21.1322 97.1169 20.7848C96.8653 20.6042 96.5858 20.4653 96.3202 20.2985C96.0546 20.1457 95.7891 19.979 95.5235 19.8261C94.9784 19.5344 94.4612 19.2009 93.93 18.8952C93.6644 18.7424 93.3989 18.5896 93.1193 18.4506C92.8398 18.3117 92.5602 18.2005 92.2807 18.0755C91.7215 17.8254 91.1345 17.6309 90.5614 17.4364C90.2818 17.3252 89.9743 17.2558 89.6948 17.1724C89.4012 17.089 89.1217 16.9918 88.8282 16.9084C88.5346 16.8389 88.2411 16.7556 87.9615 16.6583C87.668 16.575 87.3884 16.4777 87.0949 16.3943C84.7746 15.7413 82.3704 15.394 80.0222 15.5885C79.4351 15.5885 78.8481 15.6441 78.275 15.6857C77.6879 15.7552 77.1148 15.8386 76.5417 15.9081C75.9686 16.0192 75.3956 16.0887 74.8364 16.172C74.5569 16.2137 74.2634 16.2554 73.9838 16.2832L73.5505 16.3249C73.4107 16.3388 73.2709 16.3527 73.1172 16.3666C72.5581 16.4777 71.985 16.5611 71.4259 16.7C71.1463 16.7556 70.8668 16.8251 70.5872 16.8806C70.3077 16.9501 70.0421 17.0335 69.7625 17.1168C69.2174 17.2697 68.6862 17.4781 68.183 17.7143C67.6659 17.9366 67.1906 18.27 66.7433 18.6174C66.2262 18.8119 65.7369 19.0898 65.2617 19.3537C64.7865 19.6316 64.3252 19.9373 63.8779 20.243C63.4306 20.5625 62.9973 20.8682 62.55 21.1877C62.3264 21.3545 62.1027 21.4934 61.8791 21.6462L61.5436 21.8685C61.4318 21.938 61.32 22.0214 61.2082 22.0908C60.8447 22.5077 60.4534 22.855 60.076 23.2302C59.8803 23.4108 59.6846 23.5914 59.4889 23.7581L58.9018 24.2861L58.3148 24.8002C58.1191 24.9808 57.9374 25.1614 57.7417 25.342C57.56 25.5227 57.3643 25.7033 57.1826 25.8978C57.0148 26.0923 56.8331 26.2868 56.6654 26.4813C55.3794 28.1069 54.3591 29.8437 53.2688 31.497C52.7097 32.3307 52.3043 33.2338 51.9549 34.1369C51.6194 35.0539 51.3399 35.9709 51.0184 36.8601C50.8087 37.2908 50.6969 37.7493 50.5711 38.2078C50.4453 38.6663 50.4034 39.1248 50.3335 39.5833C50.2636 40.0418 50.2217 40.5003 50.1518 40.9588C50.1238 41.1811 50.0819 41.4173 50.026 41.6257C49.984 41.848 49.9421 42.0703 49.8862 42.2926C49.8443 42.7372 49.7883 43.1957 49.7744 43.6403C49.7744 43.8626 49.7464 44.0849 49.7324 44.3072C49.7185 44.5295 49.7045 44.7519 49.7045 44.9742C49.7045 45.4188 49.6765 45.8495 49.7045 46.2941C49.7185 46.5303 49.7464 46.7804 49.7744 47.0166C49.8163 47.2389 49.8582 47.4612 49.9142 47.6696C49.8862 47.9058 49.8862 48.1281 49.9002 48.3365C49.9002 48.5588 49.9421 48.7672 49.9701 48.9756C50.0539 49.3924 50.1797 49.7953 50.3195 50.1844C50.613 50.9624 50.9765 51.6988 51.242 52.4491C51.7872 53.9357 51.871 55.5335 52.7237 56.8118C52.8215 58.3401 53.6322 59.5906 54.1913 60.8549C54.7644 62.1193 54.9461 63.467 55.5612 64.5924C55.631 65.2454 55.8687 65.815 56.1342 66.3708C56.26 66.6487 56.3998 66.9127 56.5116 67.1905C56.5675 67.3295 56.6235 67.4684 56.6794 67.6074C56.7213 67.7463 56.7632 67.8852 56.7912 68.0242C57.0428 68.5522 57.2105 69.094 57.3503 69.622C57.4901 70.15 57.5739 70.6779 57.7277 71.1781C57.9374 72.2063 58.1331 73.1649 58.4266 74.0541C58.5384 74.5126 58.6083 74.9434 58.6922 75.3741C58.776 75.8048 58.8459 76.2077 58.9158 76.6106C59.0276 77.2081 59.0835 77.7777 59.1674 78.3057C59.2513 78.8337 59.3212 79.3338 59.3631 79.8062C59.419 80.2647 59.4609 80.6954 59.5029 81.0845C59.5308 81.279 59.5448 81.4735 59.5728 81.6402C59.5728 81.8209 59.6007 81.9876 59.6147 82.1404C59.7125 83.4048 59.7964 84.0717 59.8803 84.0717L59.8104 84.0995Z" fill="#0061EF"/>
<path d="M58.986 54.7831C58.986 54.7831 59.0419 54.6998 59.0419 54.5608C59.0419 54.4219 59.0419 54.2274 59.0419 53.9773C59.0419 53.4632 59.1117 52.7268 59.4332 51.8237C59.5451 51.5319 59.6709 51.2124 59.8386 50.8789C59.9225 50.7122 60.0343 50.5594 60.1321 50.3926C60.23 50.2259 60.3418 50.0592 60.4396 49.8786C60.4536 49.6424 60.6633 49.5173 60.845 49.3784C61.0267 49.2394 61.2084 49.1005 61.2364 48.8365C61.446 48.4197 61.8234 48.1001 62.2148 47.7667C62.4105 47.6 62.5782 47.4054 62.746 47.2109C62.9277 47.0164 63.1234 46.8358 63.3889 46.7108C63.7244 46.6691 63.8642 46.419 64.0179 46.155C64.1857 45.9049 64.3534 45.6548 64.7448 45.6687C65.2759 45.3908 65.7651 45.0157 66.2823 44.6545C66.464 44.3627 66.7436 44.1821 67.0371 44.057C67.3307 43.9181 67.6661 43.8347 67.9736 43.6958C68.379 43.0705 69.0919 42.876 69.8327 42.7927C70.0423 42.4314 70.3359 42.1813 70.6713 42.0424C71.0068 41.9173 71.3982 41.8757 71.8315 41.959C72.5164 41.695 73.1733 41.2504 73.9701 41.2088C74.7109 40.9865 75.4937 40.8475 76.2345 40.5557C76.6678 40.5974 77.0731 40.5835 77.4645 40.4863C77.8559 40.4029 78.2473 40.2362 78.6247 40.0139C79.5053 40.1806 80.288 39.9027 81.1127 39.611C81.5181 39.4581 81.9653 39.4859 82.3986 39.4998C82.832 39.5276 83.2653 39.5276 83.6986 39.3748C84.5792 39.2914 85.4598 39.3748 86.3543 39.3331C87.2489 39.208 88.1854 39.1108 89.052 39.5415C89.9466 39.736 90.7993 40.0139 91.7218 40.0556C92.5045 40.6391 93.3712 40.7642 94.2657 40.9865C94.3636 41.042 94.4614 41.0976 94.5593 41.1393C94.6571 41.1949 94.755 41.2365 94.8528 41.2921C95.0625 41.3894 95.2442 41.5005 95.4399 41.5978C95.6356 41.7089 95.8033 41.834 95.971 41.9729C96.1248 42.1258 96.2785 42.2647 96.3904 42.4592C96.7118 42.7371 96.9355 43.0844 97.1172 43.4318C97.2989 43.793 97.4247 44.1404 97.6204 44.5016C97.7602 44.8629 97.886 45.2658 97.886 45.6826C97.886 46.0855 97.8021 46.5162 97.5924 46.8914C97.4946 47.0859 97.3828 47.2665 97.3269 47.461C97.243 47.6555 97.1871 47.8639 97.1032 48.0585C97.0194 48.253 96.9634 48.4753 96.8516 48.6698C96.7957 48.7671 96.7538 48.8643 96.6979 48.9616C96.642 49.0588 96.5721 49.1422 96.5022 49.2256C96.4602 49.4618 96.3484 49.6702 96.2086 49.8508C96.0828 50.0453 95.9151 50.1981 95.7474 50.351C95.4119 50.6566 95.0485 50.9345 94.7689 51.2957C94.098 51.9071 93.5529 52.6712 92.7142 53.0742C91.9594 53.5744 91.1767 54.0051 90.4778 54.5886C89.9606 54.5886 89.5972 54.8387 89.2477 55.1305C88.8983 55.4084 88.5768 55.7418 88.1575 55.8807C87.4726 56.4643 86.564 56.5893 85.7952 56.9645C84.9705 57.2007 84.2856 57.7981 83.433 57.8537C83.0416 58.0065 82.6363 58.076 82.2449 58.1732C81.8395 58.2566 81.4621 58.3678 81.0987 58.5623C80.6794 58.5345 80.316 58.6873 79.9386 58.8402C79.5751 58.993 79.1977 59.1458 78.8064 59.1319C78.0516 59.2848 77.2968 59.382 76.5699 59.5487C76.2345 59.7988 75.871 59.8544 75.4937 59.8683C75.1302 59.8683 74.7668 59.8127 74.4034 59.8266C73.7045 59.9239 73.0056 59.6738 72.3487 59.9656C72.0132 59.9933 71.6777 60.035 71.3562 60.0628C71.0348 60.0906 70.7133 60.0767 70.3918 59.9795C69.7768 59.8961 69.0919 60.4796 68.5607 59.8683C68.2672 59.7849 67.9736 59.8405 67.6801 59.8683C67.3866 59.8822 67.093 59.8683 66.8694 59.646C66.6318 59.4098 66.3802 59.3681 66.1146 59.3542C65.849 59.3403 65.5695 59.3681 65.3318 59.2987C64.8426 59.1736 64.3814 59.0347 63.948 58.8679C62.9696 58.5067 62.1589 58.076 61.5019 57.6314C60.845 57.1729 60.3697 56.7005 60.0203 56.2698C59.9225 56.1586 59.8526 56.0614 59.7827 55.9641C59.7128 55.8669 59.6429 55.7696 59.587 55.6862C59.4752 55.5056 59.3773 55.3528 59.3074 55.2138C59.1677 54.9499 59.0698 54.8248 59.0139 54.8387C58.958 54.8526 58.958 55.061 59.0139 55.4361C59.1117 55.8113 59.2795 56.367 59.6988 56.9923C60.1181 57.6175 60.7611 58.3122 61.6417 58.9374C62.5223 59.5765 63.6405 60.1323 64.9405 60.5769C65.206 60.6742 65.4437 60.8131 65.7092 60.9242C65.9748 61.0354 66.2683 61.1049 66.5759 61.0493C66.8694 61.1049 67.1489 61.216 67.4425 61.2994C67.736 61.3827 68.0435 61.4383 68.365 61.3966C68.9521 61.8551 69.637 61.605 70.3079 61.6189C70.6434 61.6467 70.9788 61.6328 71.3283 61.6189C71.6777 61.6189 72.0132 61.6189 72.3766 61.7023C73.0895 61.9246 73.8023 61.5495 74.5571 61.6467C74.9206 61.4939 75.284 61.4244 75.6614 61.3966C76.0388 61.3689 76.4302 61.3966 76.8215 61.4383C77.5624 61.1049 78.387 61.2577 79.1838 61.091C79.9106 60.5908 80.7633 60.6464 81.6159 60.5769C82.0492 60.5352 82.4406 60.3963 82.8599 60.2712C83.2653 60.1323 83.6706 59.9795 84.1039 59.8822C84.9146 59.5487 85.8092 59.3959 86.6199 58.993C87.5145 58.8124 88.3951 58.4928 89.1499 57.8954C90.0445 57.5897 90.8412 57.0478 91.6659 56.5615C92.5744 56.1864 93.3013 55.5195 94.112 54.9499C94.3217 54.8248 94.5173 54.6442 94.6991 54.4775C94.8808 54.2968 95.0485 54.1162 95.2302 53.9356C95.5796 53.5744 95.9431 53.2131 96.4463 52.9908C97.215 52.2961 97.8301 51.4347 98.487 50.5733C99.0461 49.6424 99.5214 48.642 99.9267 47.5305C99.8988 46.9192 99.9267 46.3495 99.9826 45.7521C100.025 45.1546 100.039 44.5433 99.9687 43.9181C99.8429 43.3067 99.6192 42.7093 99.2837 42.1813C98.9483 41.6673 98.5569 41.1949 98.1096 40.8058C97.2989 39.9305 96.3205 39.347 95.3281 38.8885C95.0904 38.7356 94.8528 38.6245 94.6012 38.5272C94.3496 38.43 94.098 38.3605 93.8324 38.2771C93.3292 38.1243 92.8121 38.0132 92.3368 37.8047C91.3724 37.3879 90.31 37.5408 89.3456 37.249C88.3671 37.0128 87.3747 36.8877 86.4103 37.0684C85.4458 37.0545 84.5093 37.4157 83.5588 37.1656C82.6223 37.1517 81.6439 36.8183 80.8192 37.4713C79.8966 37.4713 79.0859 37.9993 78.1914 37.9576C77.8 38.2355 77.3806 38.3466 76.9613 38.3883C76.542 38.4578 76.0947 38.4578 75.6893 38.5828C74.8926 38.8746 74.1518 39.2358 73.3271 39.347C72.4884 39.4303 71.8455 39.9861 71.1046 40.2084C70.6993 40.2501 70.3778 40.4724 70.0563 40.6808C69.7348 40.9031 69.4273 41.1115 69.0359 41.1671C68.393 41.5422 67.7081 41.7923 67.121 42.2091C66.6877 42.1535 66.3662 42.3342 66.1146 42.5704C65.849 42.8066 65.6393 43.1122 65.3738 43.3067C64.8566 43.7236 64.0738 43.7652 63.8083 44.4599C63.4309 44.4877 63.1793 44.6822 62.9696 44.9045C62.7599 45.1407 62.6062 45.4186 62.4245 45.6548C62.2428 45.9049 62.0051 46.0577 61.7815 46.2384C61.5578 46.419 61.3482 46.5996 61.2364 46.8775C60.6493 47.0859 60.6353 47.7806 60.2579 48.114C60.1741 48.378 60.0343 48.5586 59.8945 48.7532C59.7547 48.9477 59.587 49.1144 59.5031 49.3367C59.3633 49.5173 59.2376 49.6979 59.1537 49.9064C59.0698 50.1009 58.9999 50.3093 58.972 50.5177C58.8322 50.8928 58.7204 51.268 58.6505 51.6153C58.4268 52.6712 58.4967 53.5049 58.6505 54.0467C58.7064 54.3246 58.7903 54.5052 58.8601 54.6442C58.93 54.7692 58.972 54.8248 59.0139 54.8109L58.986 54.7831Z" fill="#0061EF"/>
<path d="M73.5513 69.2744C73.5513 69.2744 73.5094 69.1771 73.3836 69.1076C73.2717 69.0382 73.09 68.9409 72.8664 68.802C72.4331 68.538 71.8041 68.1073 71.1891 67.3848C70.9794 67.1486 70.7697 66.8707 70.574 66.5651C70.4762 66.4122 70.3923 66.2455 70.2945 66.0649C70.1966 65.8981 70.0988 65.7175 69.987 65.5508C69.7913 65.4258 69.7773 65.1896 69.7494 64.9534C69.7214 64.7311 69.6934 64.4949 69.4698 64.342C69.2042 63.953 69.1204 63.4667 69.0365 62.9665C68.9946 62.7164 68.8967 62.4802 68.8129 62.2301C68.729 61.9801 68.6731 61.7161 68.701 61.4243C68.8408 61.1186 68.6731 60.8685 68.5333 60.6046C68.4075 60.3406 68.2677 60.0627 68.4774 59.7431C68.5053 59.1457 68.4215 58.5483 68.3656 57.923C68.1978 57.6174 68.1839 57.2978 68.2258 56.9643C68.2537 56.6309 68.3376 56.3113 68.3795 55.9779C68.0301 55.2971 68.2258 54.6024 68.5193 53.9355C68.3097 53.5742 68.2398 53.1991 68.2957 52.8379C68.3516 52.4766 68.5193 52.1293 68.7989 51.7958C68.9247 51.0733 68.8548 50.2953 69.2182 49.5728C69.3999 48.8225 69.6655 48.0861 69.7773 47.2942C70.0289 46.9468 70.2246 46.5856 70.3364 46.1966C70.4622 45.8075 70.5042 45.4046 70.5042 44.9739C71.0912 44.307 71.245 43.4733 71.3987 42.6258C71.4686 42.1951 71.7202 41.8339 71.9439 41.4587C72.1815 41.0975 72.4051 40.7223 72.489 40.2777C72.8524 39.4858 73.3696 38.7633 73.7749 37.9713C74.1104 37.1377 74.4878 36.2902 75.2985 35.7483C75.9135 35.0814 76.5845 34.4701 77.0877 33.7059C77.9822 33.3308 78.5274 32.65 79.1703 31.997C79.2682 31.9414 79.366 31.8858 79.4499 31.8163C79.5477 31.7608 79.6316 31.7052 79.7295 31.6357C79.9112 31.5107 80.0929 31.3995 80.2886 31.2884C80.4843 31.1772 80.6799 31.0939 80.8756 31.0105C81.0853 30.9549 81.295 30.8854 81.5046 30.8993C81.91 30.7604 82.3153 30.7465 82.7207 30.7604C83.126 30.7743 83.5034 30.8438 83.9088 30.8577C84.3002 30.9132 84.7055 31.0244 85.069 31.2189C85.4184 31.4273 85.7539 31.7052 85.9775 32.0803C86.0893 32.2609 86.2011 32.4416 86.3409 32.5944C86.4667 32.7611 86.6065 32.914 86.7463 33.0807C86.8861 33.2474 87.0258 33.4141 87.1516 33.6087C87.2075 33.7059 87.2774 33.7893 87.3194 33.8865C87.3753 33.9838 87.4172 34.0949 87.4591 34.1922C87.6409 34.345 87.7667 34.5395 87.8645 34.748C87.9623 34.9425 88.0183 35.1787 88.0742 35.3871C88.172 35.8317 88.2279 36.2902 88.4096 36.707C88.6053 37.5823 88.9967 38.4437 88.9268 39.3607C88.9827 40.2638 88.9687 41.1531 89.1225 42.0423C88.8709 42.4869 88.8988 42.9315 88.9687 43.3622C89.0386 43.8068 89.1644 44.2514 89.0666 44.6821C89.2343 45.5713 88.8849 46.405 88.829 47.2525C88.6193 48.0722 88.801 48.9614 88.4236 49.7395C88.3677 50.1424 88.2279 50.5315 88.1161 50.9205C87.9903 51.3095 87.8925 51.6985 87.8785 52.1015C87.6409 52.4488 87.5989 52.8379 87.529 53.2408C87.4731 53.6298 87.4312 54.0327 87.2075 54.3662C86.9699 55.1026 86.6764 55.7973 86.4527 56.492C86.5087 56.9088 86.3689 57.2561 86.2011 57.5757C86.0194 57.8813 85.7818 58.1731 85.6141 58.4788C85.3485 59.1318 84.7894 59.6042 84.7055 60.3267C84.5518 60.6185 84.44 60.938 84.2862 61.2298C84.1464 61.5216 83.9787 61.7994 83.7271 62.0217C83.3357 62.508 83.5174 63.3972 82.7067 63.5501C82.497 63.7585 82.3852 64.0364 82.2594 64.3142C82.1336 64.5782 81.9659 64.8144 81.6584 64.8978C81.3509 64.9811 81.1692 65.1896 81.0294 65.4119C80.8756 65.6342 80.7778 65.8843 80.5821 66.0649C80.2187 66.4261 79.8692 66.7457 79.5058 67.0374C78.7091 67.6905 77.9263 68.1906 77.1995 68.5241C76.4726 68.8576 75.8157 69.0382 75.2706 69.1215C75.1308 69.1493 75.005 69.1632 74.8792 69.1632C74.7534 69.1632 74.6416 69.191 74.5297 69.191C74.3201 69.191 74.1244 69.2049 73.9846 69.191C73.6911 69.191 73.5233 69.191 73.5094 69.2605C73.4954 69.3161 73.6631 69.4272 74.0265 69.5523C74.39 69.6634 74.977 69.7746 75.7318 69.7329C76.4866 69.6912 77.4092 69.4828 78.4016 69.0382C79.394 68.5936 80.4423 67.9128 81.4767 67.0097C81.6863 66.829 81.9379 66.6901 82.1756 66.5234C82.4132 66.3566 82.6089 66.1343 82.7207 65.8426C82.9164 65.6203 83.154 65.4258 83.3776 65.2173C83.5873 64.995 83.811 64.7727 83.9228 64.4671C84.6077 64.1892 84.7475 63.4806 85.0829 62.911C85.2786 62.6331 85.4324 62.3413 85.6001 62.0356C85.7678 61.7439 85.9495 61.4382 86.1872 61.1742C86.7323 60.6601 86.7742 59.8682 87.2355 59.2707C87.2914 58.8817 87.4032 58.5344 87.571 58.187C87.7247 57.8397 87.9484 57.5201 88.2 57.2005C88.2838 56.3947 88.815 55.7556 89.0666 54.9914C88.9967 54.1161 89.4719 53.4214 89.8354 52.6433C90.0171 52.2543 90.1009 51.8375 90.1848 51.4207C90.2687 51.0039 90.3386 50.5731 90.4644 50.1563C90.5762 49.2949 90.8977 48.4474 90.9536 47.5443C91.2471 46.6828 91.4009 45.7658 91.2611 44.8211C91.4428 43.9041 91.3729 42.9454 91.3589 41.9867C91.4847 41.0141 91.2611 40.0554 91.1772 39.069C91.1772 38.8189 91.1213 38.5827 91.0514 38.3326C90.9955 38.0964 90.9116 37.8463 90.8418 37.6101C90.702 37.1238 90.5762 36.6375 90.6321 36.0957C90.4084 35.0814 89.9612 34.1227 89.5418 33.1224C89.0107 32.1637 88.3677 31.2606 87.6129 30.3575C87.0678 30.0796 86.5785 29.76 86.0893 29.4127C85.6001 29.0792 85.069 28.7597 84.4819 28.5096C83.8808 28.3012 83.2518 28.2039 82.6228 28.2317C82.0078 28.2595 81.3928 28.3567 80.8337 28.5513C79.6735 28.8152 78.6672 29.3571 77.7726 29.9823C77.521 30.1074 77.3113 30.2602 77.1016 30.4269C76.892 30.5937 76.6963 30.7743 76.5006 30.9549C76.1232 31.3162 75.7598 31.6913 75.3405 32.0109C74.4878 32.6361 74.0825 33.6225 73.3696 34.3172C72.6847 35.0397 72.0697 35.8317 71.7482 36.7487C71.245 37.5823 71.1052 38.5549 70.4063 39.2496C69.9311 40.0415 69.1483 40.7223 69.3021 41.7644C68.8408 42.5563 68.9107 43.515 68.4075 44.2653C68.4494 44.7377 68.3376 45.1545 68.1699 45.5435C68.0161 45.9465 67.8065 46.3216 67.7086 46.7384C67.5688 47.5721 67.5129 48.3918 67.1914 49.156C66.842 49.9201 67.0097 50.7538 66.828 51.504C66.6603 51.8792 66.6882 52.2682 66.7162 52.6433C66.7442 53.0324 66.7721 53.4075 66.6323 53.7687C66.6323 54.5051 66.5065 55.2276 66.5764 55.9362C66.3108 56.2835 66.3108 56.6448 66.3947 56.9782C66.4786 57.3256 66.6323 57.659 66.6743 57.9786C66.7861 58.6316 66.4227 59.3263 66.8979 59.9099C66.7302 60.2433 66.7721 60.5629 66.8699 60.8546C66.9678 61.1464 67.1495 61.4243 67.2473 61.7022C67.3731 61.9801 67.3871 62.2718 67.4291 62.5497C67.485 62.8276 67.5269 63.1055 67.7226 63.3278C67.6247 63.9391 68.2118 64.3003 68.3097 64.7866C68.4914 64.9811 68.5892 65.2034 68.6871 65.4258C68.7849 65.6481 68.8548 65.8704 68.9946 66.051C69.0784 66.2594 69.1763 66.4678 69.316 66.6345C69.4418 66.8151 69.5816 66.968 69.7494 67.1069C70.001 67.4265 70.2805 67.6905 70.5461 67.9406C71.3428 68.663 72.1256 69.0104 72.6567 69.1632C72.9223 69.2466 73.132 69.2744 73.2717 69.2744C73.4115 69.2744 73.4954 69.2744 73.4954 69.2327L73.5513 69.2744Z" fill="#0061EF"/>
<path d="M91.3869 64.898C91.3869 64.898 91.2891 64.5785 90.8138 64.2311C90.5762 64.0644 90.2408 63.8838 89.8214 63.7726C89.3881 63.6615 88.8709 63.6198 88.2839 63.7309C87.8925 63.8143 87.4871 63.9532 87.0958 64.2033C86.6904 64.4256 86.299 64.7591 86.0335 65.2176C86.0055 65.3565 85.9356 65.4677 85.8657 65.5788C85.7819 65.69 85.698 65.8011 85.6141 65.9123C85.5303 66.0373 85.4464 66.1624 85.4045 66.3013C85.4045 66.343 85.3905 66.3708 85.3765 66.4125C85.3765 66.4403 85.3765 66.4542 85.3765 66.4819C85.3765 66.5236 85.4045 66.5653 85.4324 66.6209C85.4604 66.8154 85.4604 67.0099 85.4604 67.1627V67.2461V67.26H85.4045C85.3346 67.2183 85.2647 67.2044 85.1808 67.1766C85.0131 67.1211 84.8873 67.1489 84.7475 67.135C84.6776 67.135 84.6077 67.1211 84.5099 67.0933C84.44 67.0794 84.3841 67.0516 84.3142 67.0377C84.2443 67.0099 84.1884 66.9682 84.1325 66.9266C83.9228 66.6626 83.6293 66.6904 83.3218 66.6765C83.0282 66.6487 82.7068 66.607 82.525 66.2874C82.0218 65.9401 81.4488 65.69 80.8897 65.3704C80.7079 65.3426 80.5542 65.301 80.4004 65.2176C80.2467 65.1342 80.1209 65.037 79.9951 64.9258C79.7435 64.6896 79.5059 64.4534 79.2403 64.2172C78.8629 64.1478 78.5554 63.9671 78.2758 63.7309C78.0242 63.4809 77.8146 63.1613 77.6189 62.8417C77.1716 62.7862 76.8501 62.5916 76.5845 62.3277C76.4587 62.1887 76.3469 62.0359 76.249 61.8553C76.1652 61.6746 76.0953 61.4801 76.0394 61.2578C75.7878 60.9661 75.4803 60.7299 75.2007 60.452C74.9351 60.1741 74.6696 59.8684 74.4879 59.4933C74.0126 58.8542 73.5653 58.1734 73.0202 57.5481C72.7826 56.7006 72.3213 56.0059 71.6224 55.4363C71.5385 54.9778 71.3708 54.5887 71.1332 54.2136C70.8956 53.8524 70.63 53.4911 70.3225 53.1577C70.015 52.8242 69.8892 52.3796 69.7354 51.9489C69.6655 51.7266 69.5956 51.5182 69.4978 51.3098C69.4 51.1014 69.3021 50.9068 69.1344 50.7262C68.9387 50.3094 68.757 49.8926 68.6032 49.4619C68.4495 49.0312 68.2678 48.6005 68.1 48.1697C67.6527 47.35 67.2055 46.4747 67.2614 45.4743C67.1915 45.0019 67.0936 44.5434 67.0237 44.071C66.9399 43.5986 66.8281 43.1401 66.6603 42.6816C66.7162 42.4316 66.7302 42.1815 66.7302 41.9453C66.7302 41.7091 66.7302 41.4729 66.6883 41.2367C66.6044 40.7643 66.5205 40.2919 66.3948 39.8195C66.3948 39.5833 66.4087 39.3471 66.3948 39.097C66.3948 38.8608 66.3668 38.6107 66.3948 38.3745C66.3948 38.1383 66.4087 37.9021 66.4367 37.652C66.4786 37.4158 66.5485 37.1935 66.6324 36.9573C66.6324 36.874 66.6603 36.7628 66.6743 36.6934C66.6743 36.6795 66.6743 36.6517 66.6883 36.6378C66.7023 36.5961 66.7162 36.5683 66.7442 36.5544C66.7582 36.5405 66.7861 36.5266 66.8001 36.5127C66.8001 36.5127 66.8001 36.5127 66.8141 36.4988C66.8141 36.4988 66.8141 36.4988 66.8281 36.4988C66.842 36.4988 66.856 36.4988 66.884 36.4711C66.884 36.4711 66.8979 36.4711 66.9119 36.4711C66.9119 36.4711 66.9259 36.4711 66.9678 36.4711H67.0797L67.3033 36.5405C67.6527 36.6239 68.0162 36.6378 68.3656 36.6378C69.0645 36.6378 69.7634 36.4988 70.4483 36.2626C71.1472 36.0403 71.7063 35.5124 72.0837 34.901C72.4611 34.2897 72.6568 33.595 72.7826 32.9142C72.7826 32.8308 72.7686 32.7475 72.7546 32.6641V32.5391C72.7546 32.5391 72.7406 32.4835 72.7267 32.4835C72.7267 32.4835 72.6847 32.4279 72.6847 32.414C72.6707 32.3446 72.6847 32.3029 72.6847 32.2751C72.6847 32.2751 72.6847 32.2473 72.7127 32.2473L72.8245 32.289C72.8245 32.289 72.9223 32.3307 72.9503 32.289C72.9922 32.289 73.0202 32.289 73.0761 32.289H73.132L73.2159 32.3029L73.3836 32.3307C73.4954 32.3446 73.6073 32.3723 73.7191 32.4001C74.1524 32.4974 74.5997 32.6502 74.9771 32.9003C75.7878 33.3171 76.5426 33.8173 77.3812 34.1786C77.4931 34.4148 77.6468 34.5815 77.8285 34.7204C78.0102 34.8594 78.2059 34.9705 78.4156 35.0678C78.6253 35.165 78.8349 35.2623 79.0306 35.3734C79.2263 35.4846 79.422 35.6096 79.5757 35.7764C80.4144 36.1932 80.8897 36.999 81.5466 37.5826C82.0917 38.2773 82.9304 38.6941 83.3218 39.4999C83.9088 40.1252 84.2443 40.931 84.9013 41.4729C85.1808 42.2926 86.0195 42.6955 86.299 43.4875C86.7323 44.1544 87.1097 44.8491 87.5291 45.5021C88.2699 45.9745 88.2978 46.822 88.6054 47.4889C88.7871 47.8085 88.8709 48.1697 88.9967 48.5032C89.1225 48.8367 89.2623 49.1562 89.5139 49.4341C89.6537 49.7537 89.8354 50.0454 89.9892 50.3511C90.1429 50.6568 90.2408 50.9763 90.2687 51.3098C90.4364 51.935 91.2332 52.3796 90.8837 53.116C90.9257 53.4217 91.0934 53.6995 91.2332 53.9635C91.373 54.2414 91.4848 54.5193 91.359 54.8388C91.1214 55.4641 91.6245 55.9365 91.6944 56.4644C91.7364 56.7284 91.7783 56.9785 91.8342 57.2286C91.8622 57.4787 91.8901 57.7288 91.9181 57.965C92.0019 58.5068 92.0019 59.0209 92.0439 59.5072C92.0718 59.7573 92.0439 59.9796 92.0439 60.2158C92.0439 60.452 92.0439 60.6604 92.0439 60.8827C92.0019 61.2995 91.988 61.7024 91.946 62.0498C91.8901 62.3971 91.8482 62.7306 91.7923 63.0224C91.7224 63.3002 91.6665 63.5503 91.6245 63.7726C91.5686 63.9949 91.4988 64.1756 91.4708 64.3145C91.3869 64.6202 91.3729 64.7869 91.4149 64.8147C91.4708 64.8425 91.6106 64.6896 91.8342 64.3562C91.8901 64.2728 91.946 64.1755 92.0159 64.0783C92.0718 63.9671 92.1277 63.8421 92.1837 63.7171C92.2955 63.4531 92.4492 63.1474 92.5471 62.7723C93.0223 61.3273 93.3298 59.0626 93.0083 56.2699C92.9664 55.7141 93.1202 55.0889 92.7567 54.5332C92.7008 54.2275 92.6729 53.9218 92.6309 53.6162C92.589 53.3105 92.5331 52.9909 92.3514 52.6992C92.5331 51.9767 92.0579 51.407 91.8063 50.7679C91.6944 50.4345 91.5686 50.1149 91.4289 49.7814C91.2891 49.4619 91.1633 49.1145 91.0934 48.7533C91.0654 48.3643 90.8837 48.0447 90.702 47.7112C90.5063 47.3778 90.3246 47.0582 90.2268 46.6692C89.6677 46.0857 89.3881 45.3493 89.1784 44.5573C88.5914 43.9599 88.4236 43.1124 87.9624 42.4038C87.2076 41.8897 86.956 41.0422 86.5506 40.2502C86.1313 39.4583 85.4464 38.8608 84.9292 38.1105C84.2862 37.4575 83.783 36.6656 83.0842 36.0265C82.539 35.2345 81.8681 34.5259 80.9875 34.0396C80.3026 33.3171 79.4499 32.7892 78.5973 32.2334C77.8146 31.5526 76.8082 31.1775 75.8437 30.7329C75.3545 30.4967 74.8233 30.3855 74.2782 30.2883L73.8728 30.2049L73.6632 30.1632L73.4255 30.1076C72.9922 30.0243 72.5589 29.8853 72.0837 29.7742C71.6084 29.7186 71.1612 29.7325 70.6999 29.7325H70.001C69.8053 29.7464 69.6935 29.7742 69.4978 29.7881C69.7494 30.3716 70.001 30.9552 70.2107 31.5109C70.2806 31.761 70.3644 31.9972 70.4064 32.2612V32.3723C70.4064 32.3723 70.4064 32.4001 70.4064 32.414V32.4696C70.4064 32.4696 70.3924 32.553 70.3784 32.5808C70.3644 32.9003 70.2666 33.2199 70.0849 33.4978C69.9032 33.7617 69.6236 33.9979 69.3021 34.0952C69.0924 34.4148 68.715 34.5537 68.3516 34.512C68.1699 34.4842 68.0022 34.4425 67.8484 34.3592L67.7925 34.3314H67.7646L67.7087 34.2758L67.4431 34.123L67.3732 34.0813H67.3452L67.3033 34.0257L67.1356 33.859L66.8001 33.5255C66.3947 33.1365 65.9894 32.7475 65.598 32.3585C65.5281 32.4974 65.4722 32.6085 65.4023 32.7753L65.1927 33.3171C65.0529 33.6784 64.9131 34.0535 64.7873 34.4286C64.6755 34.8038 64.5776 35.165 64.4658 35.5402L64.3121 36.082C64.2841 36.221 64.2841 36.3182 64.2562 36.4294C64.2002 36.7073 64.1443 36.9851 64.0884 37.2769C64.0605 37.5548 64.0325 37.8327 64.0046 38.1105C63.9766 38.3884 63.9766 38.6663 63.9766 38.9442C63.9766 39.2221 63.9766 39.4999 63.9766 39.7639C63.9486 40.3058 63.9766 40.8476 64.0884 41.3756C64.1304 41.6396 64.1723 41.9036 64.2002 42.1676C64.2422 42.4316 64.2701 42.6955 64.2701 42.9595C64.2701 43.5014 64.4099 44.0016 64.5637 44.5017C64.7034 45.0019 64.8852 45.4882 64.9411 46.0023C65.0948 47.0166 65.3604 48.003 65.8776 48.8783C66.0313 49.3507 66.3249 49.7675 66.5345 50.1983C66.7582 50.6429 66.9678 51.0736 67.0098 51.5738C67.0936 51.7961 67.1495 52.0323 67.2194 52.2685C67.2893 52.5047 67.3592 52.727 67.4431 52.9632C67.6108 53.4078 67.8484 53.8246 68.3097 54.1025C68.4774 54.5471 68.757 54.9222 69.0365 55.2834C69.3161 55.6447 69.5956 56.0198 69.7354 56.4644C70.5601 57.0063 70.7278 57.9511 71.273 58.6597C71.8461 59.3405 72.489 59.9101 72.8944 60.6743C73.1041 61.0494 73.3976 61.3551 73.7051 61.633C73.9986 61.9247 74.3481 62.1609 74.5997 62.4805C74.6975 62.6611 74.8373 62.8139 74.9771 62.9529C75.1308 63.0779 75.2986 63.203 75.4663 63.3002C75.8018 63.5225 76.1232 63.7587 76.3469 64.0922C76.6544 64.3284 76.9479 64.5785 77.2275 64.8286C77.521 65.0648 77.8285 65.301 78.136 65.4955C78.2618 65.9401 78.5973 66.1346 78.9328 66.2874C79.1005 66.3569 79.2822 66.4264 79.4639 66.4681C79.6456 66.5236 79.8134 66.5792 79.9811 66.6487C80.3026 66.7876 80.5542 67.0516 80.8477 67.2461C81.1413 67.4406 81.4348 67.6074 81.8262 67.5657C82.0638 67.8713 82.3713 68.0103 82.6928 68.0936C83.0282 68.1492 83.3777 68.1353 83.6852 68.177C83.7691 68.177 83.839 68.2048 83.9228 68.2187C84.0067 68.2187 84.0766 68.2465 84.1465 68.2604C84.3561 68.3159 84.5798 68.3576 84.7894 68.4132C85.0131 68.4549 85.2227 68.5244 85.4464 68.5244C85.6561 68.5244 85.8517 68.5244 86.0195 68.4827C86.2152 68.5521 86.4248 68.6077 86.5926 68.6216H86.7184L86.7463 68.6355H86.7603L86.7883 68.6077C86.8302 68.5799 86.8721 68.5521 86.9001 68.5244C86.8162 68.2465 86.7184 67.8991 86.6345 67.6351C86.5926 67.4962 86.5646 67.3712 86.5506 67.2461C86.5506 67.1905 86.5367 67.1211 86.5227 67.0655V66.9821V66.9127C86.5087 66.8154 86.4947 66.732 86.4947 66.6487C86.4947 66.607 86.4947 66.5514 86.4947 66.5236V66.4542C86.5227 66.3569 86.5506 66.2596 86.5926 66.1624C86.6345 66.0651 86.6764 65.9818 86.7323 65.8984C86.7743 65.815 86.8302 65.7317 86.8721 65.6483C87.1237 65.3704 87.3474 65.1203 87.571 64.8425C87.8366 64.6341 88.1301 64.4812 88.4097 64.384C88.843 64.245 89.2623 64.2033 89.6257 64.245C89.9892 64.2728 90.2967 64.3701 90.5343 64.4534C91.0095 64.6479 91.2611 64.8147 91.317 64.7452L91.3869 64.898Z" fill="#0061EF"/>
<path d="M79.575 45.4603C79.575 45.5297 79.6449 45.6131 79.7707 45.6826C79.8266 45.7243 79.9104 45.752 79.9943 45.8076C80.0782 45.8493 80.176 45.9049 80.2878 45.9466C80.3577 45.9882 80.4416 46.0299 80.5115 46.0716C80.5534 46.0994 80.5953 46.1272 80.6233 46.155C80.6652 46.1828 80.7072 46.2105 80.7491 46.2105C80.9168 46.0716 80.805 46.5996 81.0147 46.3773C81.1405 46.3495 81.2243 46.4606 81.2803 46.5718C81.3362 46.6829 81.5598 46.5718 81.5458 46.808C81.4759 46.9886 81.5878 46.9469 81.6996 46.9052C81.8114 46.8775 81.9093 46.8636 81.7974 47.0859C81.8254 47.2387 81.9232 47.3221 82.035 47.4054C82.1888 47.3637 82.2447 47.4054 82.2447 47.5027C82.2447 47.586 82.2307 47.6833 82.2447 47.7667C82.6081 47.6972 82.5802 47.9195 82.4124 48.1557C82.9156 48.0723 82.9156 48.3085 82.5382 48.5725C82.5522 48.642 82.6081 48.7115 82.6501 48.7809C82.692 48.8504 82.706 48.9338 82.6081 49.031C82.6081 49.1144 82.5942 49.1838 82.5802 49.2672C82.5802 49.3506 82.5802 49.42 82.6221 49.5034C82.4684 49.5868 82.3845 49.6562 82.3705 49.7257C82.3705 49.7674 82.3705 49.7952 82.4124 49.8369C82.4404 49.8785 82.4823 49.9202 82.5522 49.9758C82.1888 50.087 82.2866 50.2259 82.4124 50.4482C82.4684 50.5593 82.3705 50.6149 82.2866 50.6705C82.2028 50.7261 82.1049 50.7678 82.2028 50.9067C82.1748 50.9901 82.1049 51.0456 82.049 51.1151C81.9931 51.1846 81.9372 51.2402 81.9092 51.3235C81.9092 51.3791 81.9092 51.4347 81.9092 51.4902C81.9092 51.5458 81.8813 51.5875 81.8673 51.6292C81.8254 51.7125 81.7275 51.7542 81.5458 51.6987C81.448 51.7264 81.3641 51.7542 81.2803 51.782C81.1964 51.8237 81.1545 51.8932 81.1265 52.0043C80.791 51.782 80.7351 51.9904 80.6373 52.2405C80.5394 52.2405 80.4835 52.3239 80.3997 52.3795C80.3158 52.435 80.2319 52.4767 80.1201 52.3795C80.0362 52.4211 79.9384 52.3933 79.8405 52.3795C79.7427 52.3517 79.6588 52.3378 79.561 52.435C79.4631 52.4906 79.3653 52.5323 79.2675 52.5462C79.1696 52.5462 79.0718 52.5045 79.0019 52.3933C78.932 52.2683 78.8481 52.2544 78.7503 52.2822C78.6524 52.2961 78.5546 52.31 78.4707 52.2405C78.317 52.3795 78.2471 52.2961 78.1912 52.2127C78.1353 52.1294 78.1073 52.0043 77.9955 52.0182C77.9256 51.9626 77.8278 51.9487 77.7439 51.921C77.646 51.8932 77.5762 51.8376 77.5762 51.7125C77.5342 51.6292 77.4923 51.5458 77.4364 51.4763C77.3805 51.4069 77.3106 51.3652 77.1988 51.3374C77.3525 51.1151 77.2826 51.0734 77.1708 51.0456C77.059 51.0178 76.8773 51.0178 76.9052 50.9067C76.7654 50.8789 76.7375 50.7955 76.7235 50.7122C76.7235 50.6149 76.7375 50.5316 76.6816 50.4621C76.7095 50.3648 76.6257 50.3093 76.5698 50.2398C76.4999 50.1703 76.4579 50.087 76.5558 49.9897C76.5418 49.948 76.5418 49.9063 76.5418 49.8647C76.5418 49.823 76.5698 49.7813 76.5698 49.7396C76.5977 49.6562 76.5698 49.5868 76.4859 49.5034C76.6257 49.4339 76.5698 49.3506 76.5138 49.2672C76.4579 49.1838 76.402 49.1005 76.5138 49.031C76.5138 48.9477 76.5418 48.8782 76.5558 48.8087C76.5698 48.7392 76.5837 48.6559 76.5698 48.5864C76.402 48.4475 76.416 48.3641 76.4719 48.3085C76.5278 48.253 76.6536 48.2252 76.6956 48.1557C76.7095 47.989 77.031 48.0307 76.8633 47.7667C76.9192 47.6416 76.8633 47.4054 77.073 47.4054C77.1428 47.3776 77.073 47.2248 77.059 47.1137C77.045 47.0025 77.0869 46.933 77.3106 47.0859C77.3944 47.0859 77.3665 46.9608 77.3665 46.8636C77.3665 46.7663 77.4084 46.6968 77.5622 46.808C77.8557 47.0025 77.7299 46.6413 77.8278 46.5718C77.9116 46.4884 78.0095 46.4329 78.0933 46.3634C78.904 45.8076 79.561 45.6826 79.547 45.4464C79.547 45.3908 79.4911 45.3213 79.3933 45.2797C79.2954 45.2241 79.1417 45.1685 78.932 45.1546C78.5266 45.099 77.8837 45.1268 77.1568 45.4325C77.017 45.502 76.6956 45.3491 76.7095 45.6548C76.6396 45.7104 76.5418 45.7104 76.444 45.7382C76.3461 45.7659 76.2762 45.8215 76.2622 45.9466C75.8569 45.7937 75.9268 46.1689 75.815 46.3356C75.6612 46.4745 75.6472 46.7107 75.3956 46.7941C75.0881 46.8636 75.2558 47.2109 75.0322 47.3498C75.144 47.6555 75.0182 47.8222 74.7247 47.989C74.7946 48.1418 74.7527 48.2391 74.6828 48.3502C74.6129 48.4614 74.515 48.5725 74.5011 48.6976C74.6548 48.8504 74.6548 48.9754 74.6129 49.0866C74.5709 49.2116 74.4731 49.3228 74.3892 49.4617C74.3193 49.5868 74.3473 49.7257 74.3613 49.8647C74.3753 49.9341 74.3892 50.0036 74.4032 50.0592C74.4172 50.1286 74.4172 50.1981 74.4032 50.2676C74.5011 50.5316 74.4172 50.8372 74.557 51.1012C74.529 51.2679 74.529 51.4208 74.557 51.5597C74.5989 51.6987 74.7107 51.8237 74.8645 51.9071C74.9064 52.2266 75.144 52.4489 75.3257 52.6851C75.3537 52.8518 75.4655 52.9769 75.5913 53.0742C75.7031 53.1853 75.8429 53.2687 75.9408 53.3937C76.0386 53.5326 76.2063 53.5604 76.3741 53.616C76.5278 53.6716 76.6536 53.7411 76.6956 53.9911C76.9472 54.2135 77.2966 54.2551 77.5622 54.4496C77.8976 54.533 78.2191 54.5608 78.5266 54.7275C78.7223 54.5608 78.8901 54.5608 79.0438 54.6025C79.1976 54.6442 79.3653 54.7414 79.533 54.8248C79.7008 54.8804 79.8825 54.8804 80.0502 54.8665C80.2179 54.8387 80.3857 54.7831 80.5394 54.7275C80.7072 54.7275 80.8749 54.672 81.0287 54.6303C81.1824 54.5886 81.3362 54.5052 81.4899 54.4358C81.6716 54.4358 81.7974 54.3107 81.9232 54.2135C82.063 54.1162 82.1748 53.9911 82.3565 53.9773C82.5382 53.9773 82.6501 53.8244 82.7479 53.6994C82.8458 53.5743 82.9296 53.4354 83.1113 53.3937C83.2651 53.3381 83.4049 53.2409 83.5167 53.1297C83.5726 53.0742 83.6285 53.0047 83.6565 52.9352C83.6844 52.8657 83.7124 52.7824 83.7124 52.6851C83.8102 52.5601 83.8242 52.3933 83.8522 52.2405C83.8941 52.0877 83.964 51.9765 84.1736 51.9071C84.2715 51.7959 84.4532 51.7125 84.565 51.5875C84.6629 51.4625 84.7048 51.3096 84.4951 51.0873C84.593 50.9623 84.579 50.8094 84.551 50.6566C84.551 50.5038 84.5091 50.3648 84.6489 50.2537C84.565 50.1703 84.5231 50.1008 84.5091 50.0314C84.4951 49.9619 84.5091 49.8924 84.5231 49.8369C84.565 49.7118 84.6768 49.5729 84.6629 49.4478C84.6209 49.3228 84.565 49.1839 84.5371 49.0588C84.5091 48.9338 84.4951 48.8087 84.551 48.6698C84.6349 48.5308 84.579 48.4058 84.4951 48.2946C84.4252 48.1835 84.3414 48.0862 84.3274 47.9612C84.3973 47.8083 84.2855 47.725 84.1736 47.6416C84.0618 47.5583 83.95 47.4888 84.0199 47.336C83.8801 47.1553 83.8242 46.9191 83.6565 46.7802C83.8102 46.544 83.7403 46.4467 83.6145 46.4051C83.4887 46.3634 83.321 46.3634 83.2371 46.3078C83.1393 46.2522 83.1393 46.1272 83.1113 46.016C83.0834 45.9049 82.9995 45.8354 82.8038 45.9188C82.8737 45.7104 82.8038 45.627 82.706 45.6131C82.5942 45.5992 82.4544 45.627 82.3565 45.6131C82.1608 45.6131 82.1608 45.2797 81.9092 45.3908C81.9092 45.0574 81.5598 45.3908 81.4759 45.238C81.2803 45.3352 81.2104 45.1407 81.0706 45.1407C81.0147 45.0851 80.9727 45.0574 80.9029 45.0435C80.8469 45.0435 80.7771 45.0435 80.7072 45.0851C80.5953 45.0851 80.4835 45.0851 80.3857 45.0851C80.2319 45.0851 80.1061 45.1129 79.9943 45.1268C79.8825 45.1546 79.7846 45.1824 79.7147 45.2102C79.561 45.2658 79.4911 45.3352 79.4911 45.4186L79.575 45.4603Z" fill="#0061EF"/>
<path d="M68.4211 29.2046C68.4211 29.2741 68.477 29.3574 68.5748 29.4269C68.6727 29.4964 68.8125 29.5797 68.9662 29.677C69.0221 29.7048 69.078 29.7465 69.1339 29.7881C69.1899 29.8437 69.2458 29.8993 69.3157 29.9132C69.4554 29.7604 69.3157 30.2883 69.5113 30.0521C69.6232 30.0104 69.6651 30.1077 69.707 30.2189C69.735 30.3161 69.9307 30.205 69.9027 30.4134C69.8328 30.594 69.9167 30.5384 70.0145 30.4828C70.1124 30.4412 70.1963 30.4134 70.0844 30.6218C70.0844 30.7607 70.1683 30.8024 70.2522 30.858C70.5457 30.7468 70.378 31.0247 70.3919 31.122C70.7414 31.0247 70.6855 31.2192 70.5038 31.4137C70.993 31.3026 70.979 31.4832 70.5876 31.7194C70.5876 31.775 70.6435 31.8167 70.6855 31.8583C70.7134 31.9139 70.7274 31.9695 70.6296 32.039C70.6296 32.0945 70.6016 32.1501 70.5876 32.2057C70.5876 32.2613 70.5876 32.3168 70.6156 32.3724C70.4618 32.428 70.378 32.4836 70.378 32.5252C70.378 32.5808 70.4479 32.6364 70.5597 32.7059C70.2102 32.7614 70.3221 32.8726 70.4618 33.0393C70.5317 33.1227 70.4339 33.1644 70.364 33.1922C70.2801 33.2199 70.2102 33.2477 70.3081 33.3589C70.2661 33.47 70.1264 33.5256 70.0984 33.6507C70.1264 33.7479 70.1403 33.8452 70.0984 33.9007C70.0705 33.9563 69.9866 33.9841 69.8328 33.9007C69.6791 33.9285 69.5253 33.9007 69.5253 34.123C69.2318 33.873 69.2318 34.0536 69.1899 34.2898C69.12 34.2898 69.078 34.3592 69.0221 34.4009C68.9662 34.4426 68.8963 34.4843 68.8264 34.4009C68.7705 34.4426 68.7006 34.4009 68.6307 34.4009C68.5609 34.3731 68.5049 34.3592 68.4351 34.4426C68.3652 34.4982 68.2953 34.5399 68.2254 34.5538C68.1555 34.5538 68.0856 34.5121 68.0437 34.4009C68.0017 34.2759 67.9458 34.2759 67.8759 34.3037C67.8061 34.3315 67.7222 34.3592 67.6803 34.3037C67.5545 34.4426 67.4985 34.3731 67.4706 34.3037C67.4287 34.2342 67.4287 34.1231 67.3448 34.1369C67.3029 34.0953 67.219 34.0953 67.1491 34.0814C67.0792 34.0814 67.0233 34.0258 67.0373 33.9285C67.0093 33.873 66.9953 33.8035 66.9534 33.7479C66.9115 33.7062 66.8695 33.6784 66.7717 33.6646C66.9534 33.4561 66.8835 33.4422 66.7857 33.4422C66.6878 33.4422 66.5201 33.4561 66.5481 33.3728C66.4223 33.3728 66.3943 33.3033 66.4083 33.2477C66.4083 33.1783 66.4362 33.1088 66.3943 33.0671C66.4223 32.9976 66.3524 32.956 66.2965 32.9143C66.2266 32.8726 66.1986 32.8031 66.2965 32.7337C66.2685 32.6781 66.2965 32.6225 66.3244 32.5669C66.3524 32.5114 66.3244 32.4558 66.2406 32.4002C66.3803 32.3446 66.3244 32.2891 66.2545 32.2335C66.1986 32.1779 66.1287 32.1084 66.2266 32.0667C66.2266 32.0112 66.2406 31.9556 66.2545 31.9139C66.2545 31.8583 66.2545 31.8028 66.2545 31.7472C66.0728 31.636 66.0868 31.5666 66.1427 31.5249C66.1986 31.4832 66.3104 31.4693 66.3384 31.4276C66.3384 31.3026 66.6319 31.3721 66.4502 31.1359C66.4782 31.0386 66.3943 30.8441 66.59 30.8719C66.6459 30.858 66.562 30.719 66.5341 30.6218C66.5061 30.5245 66.5341 30.4689 66.7577 30.6218C66.8276 30.6218 66.7857 30.5106 66.7857 30.4273C66.7857 30.3439 66.7997 30.2883 66.9394 30.3995C67.205 30.6218 67.0513 30.2744 67.1211 30.205C67.1771 30.1355 67.247 30.0938 67.3168 30.0382C67.8899 29.5797 68.4071 29.4269 68.4071 29.1907C68.4071 29.0796 68.2533 28.9406 67.9179 28.8711C67.5824 28.8017 67.0652 28.8017 66.4642 29.0518C66.3524 29.1073 66.0588 28.9267 66.1008 29.2324C65.989 29.3158 65.7234 29.2324 65.7234 29.4686C65.346 29.288 65.4438 29.6492 65.36 29.7742C65.2342 29.8854 65.2342 30.0938 65.0105 30.1494C64.731 30.1911 64.9127 30.5106 64.703 30.6079C64.8288 30.8719 64.703 31.0108 64.4374 31.1359C64.5073 31.2609 64.4794 31.3582 64.4234 31.4415C64.3536 31.5249 64.2697 31.6221 64.2557 31.7194C64.4095 31.8444 64.4234 31.9556 64.3815 32.0529C64.3396 32.1501 64.2417 32.2474 64.1579 32.3585C64.088 32.4697 64.1159 32.5808 64.1299 32.692C64.1579 32.8031 64.1858 32.9143 64.1579 33.0254C64.2557 33.2338 64.1579 33.4978 64.2837 33.7201C64.2417 33.8591 64.2278 33.998 64.2837 34.123C64.3256 34.2481 64.4095 34.3454 64.5492 34.4148C64.5632 34.6927 64.7729 34.8594 64.9406 35.0539C64.9546 35.2068 65.0524 35.304 65.1503 35.3874C65.2481 35.4708 65.36 35.5402 65.4438 35.6375C65.5137 35.7486 65.6814 35.7764 65.8072 35.8042C65.947 35.832 66.0449 35.9015 66.0588 36.1377C66.2685 36.3183 66.562 36.3461 66.7857 36.5128C67.0652 36.5684 67.3308 36.5962 67.5824 36.749C67.7501 36.5823 67.8899 36.5684 68.0157 36.6101C68.1415 36.6517 68.2813 36.749 68.4211 36.8324C68.5609 36.8879 68.7146 36.8879 68.8544 36.874C68.9942 36.8463 69.1339 36.8046 69.2597 36.749C69.5393 36.7351 69.8189 36.6379 70.0565 36.5128C70.2102 36.5128 70.322 36.4155 70.4199 36.3183C70.5317 36.2349 70.6156 36.1238 70.7833 36.1238C70.951 36.1238 71.0349 35.9987 71.1048 35.8876C71.1887 35.7764 71.2446 35.6514 71.3983 35.6236C71.5381 35.5819 71.6639 35.5124 71.7478 35.4152C71.8456 35.3179 71.9015 35.1929 71.9015 35.0401C71.9854 34.9428 71.9854 34.79 71.9994 34.651C72.0273 34.526 72.0832 34.4287 72.2789 34.387C72.3628 34.2898 72.5445 34.2342 72.6424 34.1369C72.7402 34.0397 72.7542 33.9007 72.5445 33.7062C72.6424 33.609 72.6144 33.47 72.5864 33.3589C72.5725 33.2338 72.5305 33.1227 72.6703 33.0254C72.5026 32.8865 72.5026 32.7892 72.5445 32.6781C72.5864 32.5669 72.6983 32.4697 72.6703 32.3585C72.6284 32.2474 72.5725 32.1501 72.5445 32.039C72.5166 31.9417 72.5026 31.8306 72.5725 31.7194C72.6563 31.5944 72.6004 31.4971 72.5305 31.4137C72.4606 31.3304 72.3908 31.247 72.3908 31.1359C72.4606 31.0108 72.3628 30.9274 72.265 30.8719C72.1671 30.8024 72.0553 30.7607 72.1392 30.6218C72.0134 30.4689 71.9854 30.2744 71.8316 30.1633C71.9994 29.941 71.9435 29.8715 71.8316 29.8437C71.7198 29.8159 71.5521 29.8437 71.4822 29.7881C71.3983 29.7465 71.4123 29.6353 71.3844 29.5381C71.3564 29.4408 71.3005 29.3852 71.1048 29.4825C71.2586 29.0796 70.8951 29.2324 70.7274 29.2463C70.5597 29.2463 70.5876 28.9545 70.364 29.0796C70.3919 28.76 70.0704 29.0934 70.0145 28.9684C69.8328 29.0796 69.8049 28.8989 69.6791 28.8989C69.6092 28.8017 69.4974 28.7878 69.3855 28.8711C69.2877 28.8711 69.2038 28.8711 69.12 28.8711C68.8823 28.8989 68.7006 28.9406 68.5748 29.0101C68.463 29.0796 68.3931 29.1351 68.3931 29.2185L68.4211 29.2046Z" fill="#0061EF"/>
<path d="M89.1929 63.9948C89.1929 64.0643 89.2488 64.1476 89.3466 64.2171C89.4445 64.2866 89.5842 64.37 89.738 64.4672C89.7939 64.495 89.8498 64.5367 89.9057 64.5784C89.9616 64.6339 90.0176 64.6895 90.0874 64.7034C90.2272 64.5506 90.0874 65.0785 90.2831 64.8423C90.395 64.8007 90.4369 64.8979 90.4788 65.0091C90.5068 65.1063 90.7025 64.9952 90.6745 65.2036C90.5906 65.3842 90.6885 65.3147 90.7863 65.2731C90.8842 65.2314 90.968 65.2036 90.8562 65.412C90.8562 65.5509 90.9401 65.5926 91.024 65.6482C91.3175 65.537 91.1497 65.8149 91.1637 65.9122C91.5132 65.8149 91.4573 66.0094 91.2755 66.204C91.7648 66.0928 91.7508 66.2734 91.3594 66.5096C91.3594 66.5652 91.4153 66.6069 91.4573 66.6486C91.4852 66.7041 91.4992 66.7597 91.4013 66.8292C91.4013 66.9403 91.3035 67.0515 91.4013 67.1626C91.2476 67.2182 91.1637 67.2599 91.1498 67.3155C91.1498 67.371 91.2196 67.4266 91.3315 67.4961C90.982 67.5517 91.0938 67.6628 91.2336 67.8295C91.3035 67.9129 91.2057 67.9546 91.1358 67.9824C91.0519 68.0102 90.982 68.0379 91.0799 68.1491C91.0379 68.2602 90.8982 68.3158 90.8702 68.4409C90.8982 68.5381 90.9121 68.6354 90.8702 68.691C90.8422 68.7465 90.7584 68.7743 90.6046 68.691C90.4509 68.7188 90.2971 68.691 90.2971 68.8994C90.0036 68.6632 90.0036 68.8299 89.9616 69.0661C89.8918 69.0661 89.8498 69.1356 89.7939 69.1773C89.738 69.2189 89.6681 69.2606 89.5842 69.1773C89.5283 69.2189 89.4584 69.1773 89.3886 69.1773C89.3187 69.1495 89.2628 69.1356 89.1929 69.2189C89.123 69.2745 89.0531 69.3162 88.9832 69.3301C88.9133 69.3301 88.8434 69.2884 88.8015 69.1773C88.7596 69.0522 88.7036 69.0522 88.6338 69.08C88.5639 69.1078 88.48 69.1356 88.4381 69.08C88.3123 69.2189 88.2564 69.1495 88.2284 69.08C88.1865 69.0105 88.1865 68.8994 88.1026 68.9133C88.0187 68.816 87.7671 68.9133 87.7951 68.691C87.7671 68.6354 87.7532 68.5659 87.7112 68.5103C87.6693 68.4687 87.6274 68.4409 87.5295 68.427C87.7112 68.2186 87.6413 68.2047 87.5435 68.2047C87.4457 68.2047 87.2779 68.2186 87.3059 68.1352C87.1801 68.1352 87.1521 68.0657 87.1661 68.0102C87.1661 67.9407 87.1941 67.8712 87.1521 67.8295C87.1801 67.7601 87.1102 67.7184 87.0543 67.6767C86.9844 67.635 86.9564 67.5795 87.0543 67.4961C87.0263 67.4405 87.0543 67.3849 87.0822 67.3294C87.1102 67.2738 87.0962 67.2182 86.9984 67.1626C87.1381 67.1071 87.0822 67.0515 87.0123 66.9959C86.9425 66.9403 86.8865 66.8709 86.9844 66.8292C86.9844 66.7736 87.0123 66.718 87.0263 66.6624C87.0263 66.6069 87.0263 66.5513 87.0263 66.4957C86.8446 66.3846 86.8586 66.3151 86.9145 66.2734C86.9704 66.2317 87.0822 66.2178 87.1102 66.1901C87.1102 66.065 87.4037 66.1345 87.222 65.8983C87.25 65.801 87.1661 65.5926 87.3618 65.6343C87.4177 65.6204 87.3338 65.4815 87.3059 65.3842C87.2779 65.287 87.3059 65.2314 87.5295 65.3842C87.5994 65.3842 87.5575 65.2731 87.5575 65.1897C87.5575 65.1063 87.5575 65.0508 87.7112 65.1619C87.9768 65.3842 87.823 65.0369 87.9069 64.9674C87.9628 64.8979 88.0327 64.8562 88.1026 64.8007C88.6897 64.3422 89.1929 64.1893 89.1929 63.9531C89.1929 63.842 89.0391 63.703 88.7036 63.6336C88.3682 63.5641 87.851 63.5641 87.25 63.8003C87.1381 63.8559 86.8446 63.6753 86.8865 63.9809C86.7747 64.0643 86.5091 63.9809 86.5091 64.2171C86.1317 64.0365 86.2296 64.3838 86.1317 64.5228C86.0059 64.6339 86.0059 64.8423 85.7823 64.8979C85.5027 64.9396 85.6845 65.2592 85.4748 65.3425C85.6006 65.6065 85.4748 65.7454 85.2092 65.8705C85.2791 65.9955 85.2511 66.0928 85.1813 66.1762C85.1114 66.2595 85.0275 66.3429 85.0135 66.454C85.1673 66.593 85.1813 66.6902 85.1393 66.7875C85.0974 66.8848 84.9995 66.982 84.9157 67.0932C84.8458 67.2043 84.8737 67.3155 84.8877 67.4266C84.9157 67.5378 84.9436 67.6489 84.9157 67.7601C85.0135 67.9685 84.9157 68.2325 85.0415 68.4548C84.9995 68.5937 84.9856 68.7326 85.0415 68.8577C85.0834 68.9827 85.1673 69.08 85.3071 69.1495C85.321 69.4273 85.5307 69.5941 85.6845 69.7886C85.6984 69.9414 85.7963 70.0387 85.8941 70.122C85.992 70.2054 86.1038 70.2749 86.1877 70.386C86.2575 70.4972 86.4253 70.525 86.5511 70.5528C86.6909 70.5805 86.7887 70.65 86.8027 70.8862C87.0123 71.0807 87.3059 71.0946 87.5295 71.2613C87.8091 71.3169 88.0747 71.3447 88.3262 71.4975C88.494 71.3308 88.6338 71.3169 88.7596 71.3586C88.8854 71.4003 89.0251 71.4975 89.1649 71.5809C89.3047 71.6365 89.4584 71.6365 89.5982 71.6226C89.738 71.5948 89.8778 71.5531 90.0176 71.4975C90.2971 71.4836 90.5767 71.3864 90.8143 71.2613C90.968 71.2613 91.0799 71.1641 91.1777 71.0807C91.2895 70.9974 91.3734 70.8862 91.5411 70.8862C91.7089 70.8862 91.7927 70.7612 91.8626 70.65C91.9465 70.5389 92.0164 70.4138 92.1561 70.386C92.2959 70.3443 92.4217 70.2749 92.5056 70.1776C92.6034 70.0804 92.6593 69.9553 92.6593 69.8025C92.7292 69.7052 92.7432 69.5524 92.7572 69.4134C92.7851 69.2884 92.8411 69.1911 93.0367 69.1495C93.1206 69.0522 93.3023 68.9966 93.4002 68.8994C93.498 68.8021 93.512 68.6632 93.3023 68.4687C93.4002 68.3714 93.3722 68.2325 93.3443 68.1213C93.3303 67.9963 93.2883 67.8851 93.4281 67.7879C93.2604 67.6489 93.2604 67.5517 93.3023 67.4405C93.3443 67.3294 93.4561 67.2321 93.4421 67.121C93.3582 66.8986 93.2185 66.718 93.3443 66.4818C93.4281 66.3568 93.3722 66.2595 93.3023 66.1762C93.2324 66.0789 93.1625 66.0094 93.1625 65.8983C93.2324 65.7732 93.1346 65.6899 93.0367 65.6343C92.9389 65.5648 92.8271 65.5231 92.9109 65.3703C92.7851 65.2175 92.7572 65.023 92.6034 64.9118C92.7712 64.6895 92.7153 64.62 92.6034 64.5923C92.4916 64.5645 92.3239 64.5923 92.254 64.5367C92.1701 64.495 92.1841 64.3838 92.1561 64.2866C92.1282 64.1893 92.0723 64.1338 91.8766 64.231C91.9605 64.0365 91.9045 63.967 91.8067 63.9531C91.7089 63.9531 91.5831 63.9948 91.4992 63.9948C91.3315 63.9948 91.3594 63.703 91.1358 63.8281C91.1637 63.5085 90.8422 63.842 90.7863 63.7169C90.6046 63.8281 90.5767 63.6336 90.4648 63.6475C90.381 63.5502 90.2831 63.5363 90.1713 63.6197C90.0735 63.6197 89.9896 63.6197 89.9057 63.6197C89.6681 63.6475 89.4864 63.6891 89.3606 63.7586C89.2488 63.8281 89.1929 63.8976 89.1929 63.967V63.9948Z" fill="#0061EF"/>
<path d="M56.7069 108.83C56.7069 108.969 57.0983 109.122 57.8112 109.247C57.923 109.261 58.0628 109.289 58.1886 109.317C58.3284 109.358 58.4681 109.4 58.6219 109.372C58.7756 109.178 58.9434 109.734 59.1111 109.428C59.2788 109.345 59.4606 109.428 59.6423 109.483C59.824 109.553 60.0197 109.358 60.2293 109.539C60.439 109.914 60.6487 109.122 60.8583 109.595C61.068 109.692 61.2916 109.664 61.5293 109.65C61.7669 109.358 61.9905 109.65 62.2421 109.706C62.4797 109.358 62.7313 109.511 62.9969 109.747C63.2485 109.275 63.5141 109.345 63.7797 109.789C64.0452 109.803 64.3248 109.622 64.6044 109.831C64.8839 109.859 65.1774 109.956 65.457 109.872C65.7505 110.192 66.0441 110.178 66.3516 109.9C66.6451 110.248 66.9526 110.109 67.2741 109.928C67.5816 109.734 67.9031 110.234 68.2246 109.956C68.5461 109.942 68.8676 110.039 69.203 109.984C69.5385 109.845 69.86 109.692 70.1955 109.998C70.5309 110.081 70.8664 110.192 71.2158 110.011C71.5653 110.373 71.9147 110.22 72.2642 110.011C72.6136 110.067 72.963 109.817 73.3265 110.011C73.6899 109.956 74.0393 110.178 74.4028 110.011C74.7662 109.9 75.1296 109.803 75.479 110.011C75.5629 110.067 75.6607 110.095 75.7446 110.095C75.7726 110.095 75.7726 110.095 75.8285 110.095H75.9543C76.0381 110.095 76.122 110.067 76.2059 110.067C76.5413 110.025 76.8349 109.97 77.1703 110.011C77.4499 109.803 77.8413 109.886 78.3165 109.97C78.3585 109.775 78.4004 109.553 78.3584 109.275C78.3724 108.969 78.3305 108.622 78.2886 108.316C78.2746 108.164 78.2606 108.011 78.2606 107.858C78.2606 107.788 78.2606 107.705 78.2746 107.636C78.2746 107.594 78.2886 107.566 78.2886 107.524C78.2886 107.511 78.2886 107.483 78.3025 107.469V107.441C78.3864 107.108 78.4423 106.774 78.3025 106.455C78.8337 106.121 78.1628 105.802 78.2746 105.482C78.0509 105.162 78.3025 104.843 78.2466 104.537C78.3445 104.232 78.009 103.926 78.2187 103.62C78.1767 103.315 78.3864 103.023 78.1907 102.731C78.4563 102.439 77.9671 102.161 78.1488 101.883C78.1488 101.606 78.1628 101.328 78.1068 101.064C77.7015 100.8 78.037 100.536 78.0649 100.286C78.023 100.036 78.3025 99.7855 78.023 99.5354C77.995 99.2853 77.8133 99.063 77.9671 98.8268C78.023 98.6045 77.366 98.3822 77.9112 98.1599C78.009 97.9376 77.4918 97.7292 77.8553 97.5347C78.1907 97.3402 77.8133 97.1457 77.7993 96.9512C77.7854 96.7705 77.7574 96.5899 77.7434 96.4232C77.5617 94.8948 77.3521 94.0195 77.1284 94.0195C76.8768 94.0195 76.6532 95.1033 76.4575 96.9512C76.4435 97.1318 76.15 97.3263 76.4016 97.5347C76.4016 97.7292 76.1779 97.9376 76.3457 98.1599C75.9683 98.3683 76.2758 98.5906 76.2897 98.8268C76.2758 99.063 76.3876 99.2853 76.2338 99.5354C76.0102 99.7716 76.3457 100.022 76.1919 100.286C76.4295 100.536 76.3596 100.8 76.15 101.064C76.3736 101.328 76.108 101.606 76.108 101.883C76.4575 102.161 76.2199 102.453 76.0661 102.731C75.9403 103.023 76.122 103.315 76.0381 103.62C76.108 103.926 75.9543 104.218 76.0102 104.537C75.8425 104.843 75.7865 105.162 75.9822 105.482C75.8704 105.802 75.9543 106.121 75.9543 106.455C75.8145 106.788 75.9683 107.108 75.9403 107.441V107.469C75.9403 107.469 75.9403 107.469 75.9683 107.497C75.9962 107.511 76.0381 107.538 76.0521 107.566C76.108 107.622 76.122 107.705 75.9263 107.594C75.9123 107.594 75.9263 107.608 75.9263 107.636C75.9263 107.636 75.8984 107.677 75.8425 107.636C75.8425 107.663 75.8145 107.691 75.7865 107.691C75.7865 107.691 75.7726 107.691 75.7586 107.691C75.7586 107.691 75.7167 107.691 75.7027 107.691C75.6188 107.691 75.521 107.663 75.4371 107.636C75.0737 108.025 74.7242 107.788 74.3608 107.636C73.9974 107.524 73.634 107.58 73.2845 107.636C72.9351 107.594 72.5717 107.622 72.2222 107.636C71.8728 107.524 71.5233 107.802 71.1739 107.636C70.8245 107.469 70.489 107.816 70.1535 107.649C69.8181 107.538 69.4826 107.483 69.1611 107.663C68.8256 107.663 68.5041 108.011 68.1827 107.691C67.8612 107.622 67.5397 107.191 67.2322 107.719C66.9247 107.58 66.6172 107.969 66.3096 107.747C66.0021 108.136 65.7086 107.761 65.4151 107.775C65.1215 107.858 64.842 107.983 64.5624 107.816C64.2829 107.636 64.0033 107.913 63.7377 107.858C63.4722 107.636 63.2066 108.15 62.955 107.9C62.7034 107.955 62.4518 107.872 62.2002 107.941C61.9626 107.413 61.7249 107.941 61.4873 107.997C61.2637 108.066 61.0261 107.649 60.8164 108.052C60.6067 107.649 60.3971 107.997 60.1874 108.108C59.9917 108.219 59.796 107.941 59.6003 108.164C59.4186 107.886 59.2369 108.316 59.0692 108.219C58.9014 108.4 58.7337 108.219 58.58 108.275C58.4262 108.219 58.2864 108.233 58.1467 108.344C58.0069 108.372 57.8811 108.386 57.7693 108.414C57.0564 108.539 56.665 108.692 56.665 108.83H56.7069Z" fill="#0061EF"/>
<path d="M56.7067 108.872C56.7067 108.719 55.896 108.58 54.4144 108.455C54.1628 108.441 53.8972 108.414 53.6176 108.386C53.3381 108.344 53.0306 108.303 52.7091 108.33C52.3876 108.525 52.0521 107.969 51.7027 108.275C51.3533 108.358 50.9759 108.275 50.5985 108.219C50.2071 108.15 49.8157 108.344 49.3964 108.164C48.977 107.788 48.5437 108.58 48.0964 108.108C47.6492 108.011 47.1879 108.039 46.7126 108.052C46.2374 108.344 45.7482 108.052 45.245 108.011C44.7418 108.358 44.2246 108.205 43.6935 107.969C43.1623 108.441 42.6172 108.372 42.0581 107.927C41.499 107.914 40.9259 108.094 40.3528 107.886C39.7657 107.858 39.1786 107.761 38.5776 107.844C37.9766 107.524 37.3615 107.538 36.7325 107.816C36.1035 107.469 35.4746 107.608 34.8316 107.788C34.1886 107.983 33.5316 107.483 32.8747 107.761C32.2177 107.788 31.5328 107.677 30.8619 107.733C30.177 107.872 29.4921 108.025 28.7932 107.719C28.0943 107.636 27.3954 107.524 26.6826 107.719C25.9697 107.358 25.2568 107.511 24.53 107.719C24.3483 107.705 24.1666 107.719 23.9849 107.719C23.8171 107.733 23.6354 107.747 23.4537 107.761C23.1322 107.788 22.7967 107.761 22.5032 107.622C22.1817 107.608 21.8742 107.497 21.5667 107.399C21.2592 107.288 20.9657 107.177 20.6302 107.122C19.9872 106.983 19.3303 106.733 18.9389 106.191C18.7432 105.913 18.4916 105.732 18.226 105.552C17.9605 105.371 17.6949 105.176 17.5271 104.912C17.1917 104.787 17.01 104.51 16.8842 104.218C16.7584 103.926 16.6745 103.62 16.4788 103.37C16.353 103.092 16.1853 102.828 16.0455 102.55C15.9057 102.273 15.8079 101.981 15.8219 101.661C15.738 101.05 15.738 100.466 15.5703 99.8828C15.8358 99.5911 15.8079 99.3132 15.752 99.0214C15.6961 98.7296 15.5982 98.4101 15.724 98.1461C15.6681 97.8404 15.766 97.5487 15.8778 97.2847C15.9896 97.0207 16.1433 96.7706 16.2412 96.5066C16.3949 96.2704 16.4788 95.9925 16.5767 95.7285C16.6745 95.4646 16.8143 95.2145 17.0659 95.0477C17.3594 94.5753 17.8766 94.3253 18.1282 93.8112C18.4077 93.7278 18.5755 93.5194 18.7432 93.311C18.9109 93.1026 19.0927 92.8942 19.3582 92.8386C19.8055 92.5607 20.2668 92.3662 20.7141 92.1439C20.8818 91.866 21.1194 91.7688 21.371 91.741C21.6226 91.7132 21.8742 91.741 22.1118 91.7132C22.5871 91.5882 23.0623 91.8105 23.5096 91.5326C23.9988 91.4909 24.502 91.3242 24.9773 91.477C25.4525 91.5326 25.9138 90.8796 26.3611 91.4214C26.8084 91.5187 27.2417 91.0046 27.661 91.3659C28.0803 91.6993 28.4857 91.3242 28.8631 91.3103C29.2545 91.2964 29.6179 91.2686 29.9673 91.2547C33.1403 91.0741 34.9714 90.8657 34.9714 90.6434C34.9714 90.3933 32.7209 90.171 28.8631 89.9765C28.4717 89.9626 28.0803 89.6708 27.661 89.9209C27.2417 89.9209 26.8084 89.6986 26.3611 89.8653C25.9138 89.4902 25.4525 89.7958 24.9773 89.8097C24.502 89.7958 24.0268 89.907 23.4956 89.768C23.2161 89.6569 22.9365 89.6986 22.657 89.768C22.3774 89.8236 22.0979 89.907 21.8043 89.8931C21.2732 90.2265 20.7141 90.3238 20.0571 90.3377C19.5679 90.7684 18.897 90.7823 18.3378 91.1297C17.9744 91.7549 17.3454 91.9216 16.7444 92.2829C16.1573 92.6441 15.8219 93.2693 15.3466 93.7834C14.9972 94.3808 14.494 94.9088 14.2424 95.5896C13.7951 96.1731 13.4876 96.8956 13.5295 97.6598C13.2639 98.3684 13.2779 99.1465 13.2919 99.8967C13.1661 100.675 13.4177 101.439 13.5714 102.203C13.6274 102.592 13.837 102.953 14.0187 103.287C14.2144 103.634 14.3822 103.982 14.3822 104.426C14.7036 105.163 15.2488 105.788 15.724 106.441C16.2971 107.038 16.9261 107.552 17.5411 108.122C17.9884 108.205 18.3518 108.4 18.7013 108.622C19.0507 108.844 19.3862 109.108 19.7496 109.345C20.5044 109.761 21.357 109.942 22.1817 109.998C22.5871 110.081 23.0064 110.109 23.4257 110.123C23.6494 110.123 23.8171 110.123 23.9988 110.123H24.544C25.2708 110.22 25.9837 109.942 26.6965 110.095C27.4094 110.262 28.1083 109.928 28.8072 110.081C29.5061 110.192 30.191 110.248 30.8759 110.067C31.5608 110.067 32.2317 109.72 32.8887 110.039C33.5596 110.109 34.2026 110.539 34.8456 110.012C35.4885 110.15 36.1175 109.748 36.7465 109.984C37.3755 109.595 37.9905 109.97 38.5916 109.956C39.1926 109.886 39.7797 109.748 40.3668 109.914C40.9538 110.095 41.5129 109.817 42.072 109.873C42.6312 110.095 43.1763 109.581 43.7074 109.831C44.2386 109.775 44.7558 109.859 45.259 109.789C45.7622 110.317 46.2514 109.789 46.7266 109.748C47.2019 109.664 47.6631 110.095 48.1104 109.692C48.5577 110.095 48.991 109.748 49.4104 109.636C49.8297 109.525 50.235 109.803 50.6124 109.581C51.0038 109.859 51.3672 109.428 51.7167 109.525C52.0661 109.345 52.4016 109.525 52.7231 109.47C53.0446 109.539 53.3381 109.511 53.6316 109.4C53.9112 109.372 54.1768 109.358 54.4284 109.345C55.91 109.22 56.7207 109.067 56.7207 108.928L56.7067 108.872Z" fill="#0061EF"/>
<path d="M34.9575 90.6017C34.9575 90.7545 35.4746 90.8934 36.4391 91.0185C36.5929 91.0324 36.7746 91.0602 36.9563 91.088C37.138 91.1296 37.3337 91.1713 37.5433 91.1574C37.753 90.9629 37.9627 91.5187 38.1863 91.213C38.41 91.1296 38.6476 91.213 38.8992 91.2686C39.1508 91.338 39.4024 91.1435 39.6819 91.3242C39.9475 91.6993 40.2271 90.9073 40.5206 91.3797C40.8141 91.477 41.1077 91.4492 41.4152 91.4353C41.7227 91.1435 42.0302 91.4353 42.3936 91.477C42.7291 91.1157 43.0785 91.2408 43.4839 91.4214C43.7774 90.8934 44.1268 90.9073 44.63 91.2269C45.0214 91.1435 45.3289 90.8379 45.7902 90.8795C46.1816 90.7545 46.6149 90.6572 46.9503 90.3655C47.4815 90.4349 47.8729 90.171 48.0825 89.6847C48.6556 89.6847 48.9352 89.2817 49.1449 88.8232C49.2427 88.6009 49.4524 88.4898 49.662 88.3508C49.8717 88.2258 50.0674 88.073 50.1093 87.7951C50.3889 87.4061 50.7383 87.0587 50.948 86.6141C51.0738 86.1139 51.1297 85.6276 51.6189 85.2803C51.8845 84.8496 52.1501 84.3772 52.0942 83.8353C52.5694 83.4046 52.4995 82.835 52.3458 82.2931C52.4436 81.7651 52.192 81.2511 52.3458 80.7092C52.2479 80.1812 52.3737 79.6116 52.0942 79.1114C51.8565 78.6112 51.591 78.1527 51.591 77.5831C51.591 76.9856 51.0458 76.6522 50.8641 76.1798C50.5846 76.0408 50.4588 75.8185 50.3609 75.5823C50.2491 75.3461 50.1513 75.0821 49.9416 74.9293C49.6341 74.5125 49.1169 74.318 48.8653 73.8456C48.5298 73.4705 48.1664 73.1092 47.6632 72.9564C47.6073 72.5951 47.3697 72.4979 47.1041 72.4562C46.8385 72.4145 46.5729 72.4284 46.3773 72.2756C45.8601 72.2756 45.5246 71.8727 45.0494 71.7893C44.63 71.5531 44.1129 71.7893 43.7075 71.4975C43.2602 71.4697 42.8409 71.2057 42.3936 71.4003C42.2818 71.3308 42.1839 71.3169 42.0721 71.3169C41.9603 71.3169 41.8764 71.3586 41.7786 71.3864C41.5829 71.4558 41.4012 71.5253 41.2195 71.428C40.8421 71.428 40.4787 71.4142 40.1152 71.4697C39.7518 71.8865 39.4024 71.5392 39.0669 71.5114C38.7314 71.5531 38.396 71.2752 38.0605 71.5531C37.739 71.5809 37.4175 71.7615 37.11 71.5948C36.8025 71.5392 36.509 72.1922 36.2155 71.6503C35.9219 71.5531 35.6424 72.0672 35.3768 71.7059C35.1112 71.3725 34.8456 71.7476 34.594 71.7615C34.3424 71.7893 34.1048 71.8032 33.8812 71.8171C31.8404 71.9977 30.6663 72.2061 30.6663 72.4145C30.6663 72.6646 32.12 72.8869 34.594 73.0814C34.8456 73.0953 35.0972 73.3871 35.3768 73.137C35.6424 73.137 35.9219 73.3593 36.2155 73.1926C36.509 73.5677 36.8025 73.262 37.11 73.2481C37.4175 73.262 37.739 73.137 38.0605 73.2898C38.382 73.5121 38.7175 73.1787 39.0669 73.3315C39.4024 73.0953 39.7658 73.1648 40.1152 73.3732C40.4787 73.1509 40.8421 73.4288 41.2195 73.4149C41.4012 73.2343 41.5969 73.2204 41.7786 73.2481C41.8764 73.262 41.9743 73.3037 42.0581 73.3315C42.142 73.3732 42.2259 73.4149 42.3097 73.4566C42.6452 73.5955 43.0086 73.4566 43.3441 73.5955C43.7075 73.5955 44.029 73.8178 44.3784 73.8734C44.672 74.1374 44.9795 74.318 45.3988 74.2902C45.6924 74.5542 46.0558 74.6514 46.3773 74.8598C46.6149 75.1794 47.0202 75.2906 47.2858 75.5823C47.4116 75.7352 47.6073 75.8046 47.789 75.9158C47.9707 76.0269 48.1245 76.1659 48.0965 76.4438C48.3202 76.7772 48.6417 77.0412 48.7954 77.4163C49.047 77.7359 49.2846 78.0832 49.3405 78.5001C49.8577 78.7363 49.7739 79.2503 49.7179 79.6671C49.7179 80.0979 49.8298 80.4869 49.9136 80.8898C49.9136 81.3066 49.9136 81.7096 49.9136 82.1125C49.7739 82.5015 49.9835 82.9322 49.7459 83.2935C49.6201 83.4602 49.6061 83.6686 49.5921 83.8631C49.5782 84.0576 49.5502 84.266 49.4104 84.4189C49.1588 84.7384 48.9492 85.0441 48.9212 85.4609C48.7395 85.7805 48.7954 86.3084 48.3062 86.4057C48.1664 86.5307 47.9428 86.5863 47.789 86.6836C47.6353 86.7808 47.5374 86.9198 47.5933 87.2393C47.2439 87.3922 47.2159 87.9201 46.7966 87.9618C46.7407 88.4898 46.2235 88.3786 45.93 88.5593C45.6644 88.7955 45.4128 89.0594 45.0354 89.0317C44.658 88.9761 44.4483 89.3512 44.1269 89.379C43.9451 89.3095 43.8193 89.4207 43.6796 89.5179C43.5398 89.6152 43.4 89.7125 43.2183 89.6152C42.9248 89.7125 42.6173 89.6569 42.3237 89.7402C42.156 89.4902 42.0442 89.4902 41.8764 89.5596C41.7227 89.6291 41.5689 89.7819 41.4152 89.7958C41.1077 89.8792 40.8141 89.4485 40.5206 89.8514C40.2271 89.4485 39.9475 89.7958 39.6819 89.907C39.4164 90.0181 39.1508 89.7402 38.8992 89.9625C38.6476 89.6847 38.41 90.1154 38.1863 90.0181C37.9627 90.1987 37.739 90.0181 37.5433 90.0737C37.3337 90.0042 37.138 90.032 36.9563 90.1432C36.7746 90.171 36.6068 90.1849 36.4391 90.1987C35.4886 90.3238 34.9575 90.4766 34.9575 90.6156V90.6017Z" fill="#0061EF"/>
<path d="M21.8048 63.6058C21.8048 63.6753 21.9865 63.7586 22.322 63.842C22.4897 63.8837 22.6993 63.9254 22.937 64.0087C23.1746 64.0921 23.4542 64.1338 23.7617 64.2588C23.9573 64.3422 24.181 64.3978 24.4046 64.495C24.6143 64.6201 24.8519 64.7312 25.1035 64.8285C25.2573 64.8007 25.3551 64.9396 25.453 65.0647C25.5508 65.2036 25.6487 65.3009 25.8443 65.2592C25.9981 65.3009 26.1239 65.3703 26.2497 65.4676C26.3056 65.5232 26.3755 65.5648 26.4314 65.6204C26.4873 65.676 26.5432 65.7455 26.5991 65.801C26.711 65.9261 26.8647 65.9956 27.0045 66.0928C27.1443 66.1901 27.2701 66.3012 27.34 66.4818C27.34 66.6069 27.3819 66.6764 27.4658 66.7319C27.5356 66.7875 27.6335 66.8153 27.7313 66.8431C27.913 66.9126 28.1087 66.9959 28.0528 67.2877C28.1926 67.6489 28.4582 67.9129 28.6678 68.2464C29.1431 68.427 29.0592 68.955 29.185 69.3301C29.4226 69.4551 29.5345 69.6358 29.5904 69.8581C29.6463 70.0665 29.5904 70.3166 29.5345 70.5389C29.6742 70.6222 29.8 70.7056 29.8699 70.8029C29.9398 70.9001 29.9817 71.0113 29.9817 71.1224C30.0097 71.3586 29.9119 71.5948 29.6882 71.831C29.6882 71.9422 29.7022 72.0533 29.7162 72.1645C29.7301 72.2756 29.7581 72.3868 29.7581 72.5118C29.7581 72.7341 29.7581 72.9703 29.6323 73.1926C29.5764 73.4149 29.5205 73.6511 29.4646 73.8734C29.3947 74.0957 29.3388 74.318 29.3108 74.5681C29.1011 74.7487 28.9194 74.9432 28.8496 75.1655C28.8076 75.2767 28.7797 75.3879 28.7517 75.5129C28.7238 75.6379 28.7238 75.763 28.7377 75.9158C28.2066 76.1937 28.0668 76.6383 27.8991 77.1524C27.8711 77.2913 27.7733 77.3886 27.6754 77.4719C27.5776 77.5553 27.4658 77.6248 27.3539 77.7081C27.1303 77.8471 26.8927 77.9721 26.7948 78.25C26.5991 78.4306 26.3755 78.5557 26.1519 78.7085C25.9142 78.8335 25.6906 78.9586 25.4669 79.1253C25.2573 79.292 25.0476 79.5005 24.796 79.6116C24.6702 79.6672 24.5304 79.7089 24.3907 79.7366C24.2509 79.7644 24.1111 79.7644 23.9573 79.7228C23.3982 79.7922 22.8671 79.7783 22.322 79.9867C22.1822 79.9034 22.0424 79.8478 21.9026 79.82C21.8327 79.82 21.7628 79.7922 21.679 79.7922C21.5951 79.7922 21.5112 79.7922 21.4414 79.7922C21.1199 79.8061 20.7844 79.9034 20.4629 79.9867C19.806 79.9312 19.149 80.1813 18.4781 79.9867C17.8071 80.0423 17.1362 79.8339 16.4653 79.9867C15.7944 80.0979 15.1094 80.1951 14.4525 79.9867C14.117 79.8756 13.7816 79.8895 13.4601 79.9312C13.2923 79.9451 13.1246 79.9728 12.9709 79.9867H12.8171C12.8171 79.9867 12.7891 79.9867 12.7752 79.9867C12.6633 80.1674 12.5375 80.1257 12.5375 80.0701C12.5935 79.9451 12.6633 79.8756 12.6074 79.8617C12.6074 79.8339 12.6074 79.82 12.6074 79.7783C12.5934 79.6255 12.5795 79.4588 12.5515 79.3059C12.5236 78.9864 12.5096 78.6807 12.6074 78.3612C12.6633 77.7359 12.7332 77.1107 12.5934 76.4994C13.1246 75.888 12.4537 75.2906 12.5655 74.6932C12.3419 74.0957 12.5935 73.5122 12.5375 72.9286C12.6354 72.3451 12.2999 71.7754 12.5096 71.2197C12.4676 70.6639 12.6773 70.1082 12.4816 69.5663C12.7472 69.0244 12.258 68.4965 12.4397 67.9685C12.4397 67.4405 12.4537 66.9403 12.3978 66.4402C11.9924 65.94 12.3279 65.4398 12.3558 64.9813C12.3279 64.8979 12.3838 64.8285 12.4257 64.7729C12.4537 64.7173 12.4537 64.6756 12.3279 64.4811C12.3279 64.4811 12.4537 64.3978 12.5375 64.37C12.6214 64.3422 12.7472 64.3422 12.8311 64.4255C12.8311 64.4255 12.873 64.4255 12.901 64.4255C12.9289 64.4255 12.9569 64.4255 12.9848 64.4255C13.0407 64.4255 13.0967 64.3978 13.1386 64.37C13.2504 64.3283 13.3482 64.2588 13.4601 64.2171C13.6697 64.1338 13.8794 64.106 14.0751 64.37C14.4804 64.4672 14.8718 63.9531 15.2492 64.3144C15.6266 64.6478 15.99 64.2727 16.3395 64.2588C16.6889 64.2449 17.0244 64.2171 17.3459 64.2032C20.2113 64.0226 21.8607 63.8142 21.8607 63.6058C21.8607 63.3557 19.8339 63.1334 16.3395 62.9389C15.99 62.925 15.6266 62.6332 15.2492 62.8833C14.8718 62.8833 14.4804 62.661 14.0751 62.8277C13.8794 62.6332 13.6697 62.6193 13.4601 62.6471C13.3482 62.661 13.2504 62.6888 13.1386 62.7166C13.0827 62.7166 13.0268 62.7444 12.9848 62.7583H12.901C12.901 62.7583 12.859 62.7722 12.8031 62.7722C12.4537 62.7722 12.1042 62.7861 11.7548 62.7999C11.4053 62.7999 11.0559 62.7999 10.6086 62.7305H10.5527C10.4549 62.9945 10.4828 63.4252 10.5247 63.8142C10.5527 64.2171 10.5946 64.5923 10.5247 64.9813C10.7624 65.4676 10.6925 65.9539 10.4828 66.4541C10.7065 66.9542 10.4269 67.4683 10.4409 67.9824C10.7903 68.5104 10.5527 69.0383 10.3989 69.5802C10.2731 70.1221 10.4549 70.6778 10.371 71.2336C10.4409 71.7893 10.2871 72.359 10.343 72.9425C10.1753 73.5261 10.1194 74.1096 10.3151 74.707C10.2033 75.3045 10.2871 75.9019 10.2871 76.5133C10.1474 77.1246 10.3011 77.7359 10.2731 78.375C10.2312 78.6946 10.3291 79.0003 10.385 79.3198C10.4129 79.4727 10.4269 79.6394 10.4129 79.7922C10.4129 80.0562 10.357 80.348 10.2592 80.6675C10.2312 81.2372 10.2592 81.8068 10.2592 82.3626C10.9161 82.3626 11.5451 82.3348 12.1741 82.3626H12.6354L12.845 82.3348H12.9709C13.1386 82.3209 13.3063 82.307 13.4601 82.307C13.7955 82.307 14.117 82.307 14.4525 82.3626C15.1234 81.9736 15.7944 82.2098 16.4653 82.3626C17.1362 82.4738 17.8071 82.4182 18.4781 82.3626C19.149 82.4043 19.806 82.3765 20.4629 82.3626C20.7844 82.4182 21.1199 82.3765 21.4414 82.3487C21.6091 82.3348 21.7489 82.3209 21.9446 82.307C22.1263 82.307 22.308 82.307 22.4897 82.3348C22.8671 82.4043 23.2165 82.2931 23.566 82.1959L23.8315 82.1264C23.9154 82.0986 23.9993 82.0708 24.0831 82.043C24.2509 81.9875 24.4326 81.9597 24.6143 81.9458C24.796 81.9458 24.9777 81.8902 25.1455 81.8485C25.3132 81.8068 25.4949 81.7513 25.6626 81.6957C25.9981 81.5706 26.2916 81.3761 26.5712 81.1399C26.8647 80.9593 27.1163 80.7092 27.3819 80.4869C27.6195 80.2507 27.8991 80.0562 28.2485 79.959C28.5141 79.7644 28.8635 79.6394 29.1431 79.431C29.2829 79.3198 29.3947 79.2087 29.4785 79.0558C29.5624 78.9169 29.6323 78.7363 29.6183 78.5279C29.7441 78.4167 29.842 78.2917 29.9258 78.1527C30.0097 78.0138 30.0796 77.8749 30.1355 77.722C30.1914 77.5692 30.2613 77.4303 30.3452 77.2913C30.429 77.1524 30.5269 77.0273 30.6387 76.9162C30.6247 76.7356 30.6387 76.5688 30.6946 76.416C30.7505 76.2632 30.8204 76.1381 30.8903 75.9992C31.0301 75.7213 31.2397 75.4712 31.3096 75.1794C31.3516 74.8738 31.3795 74.582 31.4215 74.2902C31.4494 73.9985 31.5053 73.7067 31.6311 73.4288C31.7429 73.1509 31.729 72.8592 31.701 72.5674C31.701 72.4284 31.6591 72.2756 31.6311 72.1506C31.6032 72.0116 31.5892 71.8727 31.6032 71.7337C31.715 71.442 31.5892 71.178 31.4774 70.9279C31.4215 70.8029 31.3655 70.6778 31.3376 70.5389C31.3096 70.4138 31.2817 70.2749 31.3096 70.1359C31.2118 69.8859 31.1699 69.6219 31.086 69.3857C31.0021 69.1495 30.9183 68.8994 30.7925 68.691C30.9322 68.3575 30.8204 68.1213 30.6387 67.9407C30.471 67.7462 30.2054 67.6211 30.0656 67.4266C29.9119 67.246 29.8699 66.9959 29.7581 66.7875C29.6603 66.5791 29.5205 66.3846 29.2409 66.3429C29.2409 66.0511 29.1012 65.8844 28.9194 65.7594C28.8216 65.7038 28.7238 65.6482 28.6259 65.6065C28.5141 65.5648 28.4162 65.5232 28.3184 65.4815C28.1227 65.3842 28.0109 65.2175 27.8851 65.0786C27.7453 64.9396 27.6055 64.8146 27.3819 64.7868C27.3539 64.6756 27.284 64.5923 27.2142 64.5367C27.1303 64.4811 27.0464 64.4672 26.9486 64.4394C26.7669 64.3978 26.5712 64.3839 26.4454 64.2449C26.068 64.2449 25.8443 63.9531 25.5508 63.8698C25.2992 63.6892 25.0057 63.6197 24.7121 63.6197C24.4466 63.5502 24.195 63.5224 23.9713 63.4808C23.6219 63.4113 23.3144 63.4252 23.0488 63.4113C22.7832 63.3974 22.5596 63.4113 22.3779 63.453C22.0144 63.5085 21.8327 63.5641 21.8327 63.6475L21.8048 63.6058Z" fill="#0061EF"/>
<path d="M0.000118256 66.3986C0.000118256 66.5514 0.12591 66.6903 0.363531 66.8154C0.405464 66.8293 0.447403 66.8571 0.489336 66.8849C0.531269 66.9265 0.587178 66.9682 0.629111 66.9404C0.685022 66.7459 0.726956 67.3017 0.782867 66.996C0.838778 66.9126 0.894693 66.996 0.950604 67.0516C1.00651 67.1211 1.0764 66.9265 1.13231 67.1072C1.2022 67.4823 1.27209 66.6903 1.34198 67.1627C1.41187 67.26 1.48175 67.2322 1.56562 67.2183C1.63551 66.9265 1.71938 67.2183 1.78927 67.26C1.87313 66.9126 1.94302 67.0655 2.02689 67.3017C2.11075 66.8293 2.19462 66.8987 2.27848 67.3434C2.36235 67.3572 2.4602 67.1766 2.54406 67.385C2.62793 67.4128 2.72577 67.5101 2.82362 67.4267C2.92146 67.7463 3.0193 67.7324 3.11715 67.4545C3.21499 67.8019 3.31283 67.6629 3.41068 67.4823C3.50852 67.2878 3.62034 67.788 3.71819 67.5101C3.81603 67.4823 3.92786 67.5934 4.0257 67.524C4.13752 67.385 4.23537 67.2322 4.34719 67.5379C4.45901 67.6212 4.57083 67.7324 4.68266 67.5379C4.79448 67.8991 4.9063 67.7463 5.01812 67.5379C5.12994 67.5934 5.24176 67.3434 5.36756 67.5379C5.47938 67.4823 5.59121 67.7046 5.717 67.5379C5.82883 67.4267 5.95463 67.3156 6.06645 67.5379C6.17827 67.7741 6.29009 67.4406 6.41589 67.5379C6.52771 67.1905 6.63954 67.649 6.75136 67.5379C6.86319 67.5657 6.97501 67.3434 7.08683 67.5379C7.19865 67.5934 7.31046 67.6629 7.40831 67.524C7.52013 68.0519 7.61798 67.385 7.71582 67.5101C7.81366 67.2878 7.92549 67.5379 8.02333 67.4823C8.12118 67.5795 8.21902 67.2461 8.31686 67.4545C8.41471 67.4128 8.51255 67.6212 8.61039 67.4267C8.70824 67.6907 8.79211 67.2044 8.88996 67.385C8.97382 67.385 9.07166 67.3989 9.15553 67.3434C9.23939 66.9265 9.32326 67.2739 9.40713 67.3017C9.49099 67.26 9.57487 67.5379 9.64475 67.26C9.72862 67.2322 9.7985 67.0516 9.86839 67.2183C9.93828 67.2739 10.0082 66.6209 10.092 67.1627C10.1619 67.26 10.2318 66.7459 10.2877 67.1072C10.3576 67.4406 10.4135 67.0655 10.4694 67.0516C10.5253 67.0377 10.5813 67.0099 10.6372 66.996C11.1264 66.8154 11.4199 66.607 11.4199 66.3986C11.4199 66.1485 11.0705 65.9262 10.4694 65.7317C10.4135 65.7178 10.3436 65.426 10.2877 65.6761C10.2178 65.6761 10.1619 65.4538 10.092 65.6205C10.0222 65.2454 9.95226 65.551 9.86839 65.5649C9.7985 65.551 9.71464 65.6761 9.64475 65.5232C9.56089 65.3009 9.49099 65.6344 9.40713 65.4816C9.32326 65.7178 9.23939 65.6483 9.15553 65.4399C9.07166 65.6761 8.97382 65.3982 8.88996 65.3982C8.79211 65.7455 8.70824 65.5094 8.61039 65.3565C8.51255 65.2315 8.41471 65.4121 8.31686 65.3287C8.21902 65.3982 8.12118 65.2315 8.02333 65.3009C7.92549 65.1342 7.81366 65.0786 7.71582 65.2732C7.61798 65.162 7.50615 65.2454 7.40831 65.2454C7.29649 65.1064 7.19865 65.2593 7.08683 65.2315C6.97501 65.162 6.86319 65.6066 6.75136 65.2315C6.63954 65.1759 6.52771 65.2871 6.41589 65.2315C6.30407 65.2871 6.19225 65.3287 6.06645 65.2315C5.95463 65.6066 5.82883 65.3704 5.717 65.2315C5.60518 65.1203 5.47938 65.1759 5.36756 65.2315C5.25574 65.1898 5.14392 65.2176 5.01812 65.2315C4.9063 65.1203 4.79448 65.3982 4.68266 65.2315C4.57083 65.0647 4.45901 65.4121 4.34719 65.2315C4.23537 65.1203 4.12354 65.0647 4.0257 65.2454C3.91388 65.2454 3.81603 65.5927 3.71819 65.2732C3.62034 65.2037 3.50852 64.7591 3.41068 65.3009C3.31283 65.162 3.21499 65.551 3.11715 65.3287C3.0193 65.7178 2.92146 65.3426 2.82362 65.3565C2.72577 65.426 2.64191 65.5649 2.54406 65.3982C2.4602 65.2176 2.36235 65.4955 2.27848 65.4399C2.19462 65.2176 2.11075 65.7317 2.02689 65.4816C1.94302 65.5371 1.85915 65.4538 1.78927 65.5232C1.7054 64.9953 1.63551 65.5233 1.56562 65.5649C1.49573 65.6344 1.42585 65.2176 1.34198 65.6205C1.27209 65.2176 1.2022 65.5649 1.13231 65.6761C1.06242 65.7872 1.00651 65.5094 0.950604 65.7317C0.894693 65.4538 0.838778 65.8845 0.782867 65.7872C0.726956 65.9679 0.671044 65.7872 0.629111 65.8428C0.5732 65.7872 0.531269 65.8011 0.489336 65.8984C0.447403 65.9262 0.405464 65.9401 0.363531 65.9679C0.12591 66.0929 0.000118256 66.2318 0.000118256 66.3847V66.3986Z" fill="#0061EF"/>
<path d="M0.000118256 78.3751C0.000118256 78.5279 0.12591 78.6669 0.363531 78.7919C0.405464 78.8197 0.447403 78.8336 0.489336 78.8614C0.531269 78.9031 0.587178 78.9447 0.629111 78.9308C0.685022 78.7363 0.726956 79.2921 0.782867 78.9864C0.838778 78.9031 0.894693 78.9864 0.950604 79.042C1.00651 79.1115 1.0764 78.9169 1.13231 79.0976C1.2022 79.4727 1.27209 78.6808 1.34198 79.1531C1.41187 79.2504 1.48175 79.2226 1.56562 79.2087C1.63551 78.9169 1.71938 79.2087 1.78927 79.2643C1.87313 78.9169 1.94302 79.0698 2.02689 79.306C2.11075 78.8336 2.19462 78.9031 2.27848 79.3477C2.36235 79.3616 2.4602 79.1809 2.54406 79.3893C2.62793 79.4171 2.72577 79.5144 2.82362 79.4171C2.92146 79.7367 3.0193 79.7228 3.11715 79.4449C3.21499 79.7923 3.31283 79.6533 3.41068 79.4727C3.50852 79.2782 3.62034 79.7784 3.71819 79.5005C3.81603 79.4727 3.92786 79.5839 4.0257 79.5283C4.13752 79.3893 4.23537 79.2365 4.34719 79.5422C4.45901 79.6255 4.57083 79.7367 4.68266 79.5561C4.79448 79.9173 4.9063 79.7645 5.01812 79.5561C5.12994 79.6116 5.24176 79.3616 5.36756 79.5561C5.47938 79.5005 5.59121 79.7089 5.717 79.5561C5.82883 79.4449 5.95463 79.3338 6.06645 79.5561C6.17827 79.7923 6.29009 79.4588 6.41589 79.5561C6.52771 79.2087 6.63954 79.6672 6.75136 79.5561C6.86319 79.5839 6.97501 79.3616 7.08683 79.5422C7.19865 79.6116 7.31046 79.6672 7.40831 79.5283C7.52013 80.0563 7.61798 79.3893 7.71582 79.5005C7.81366 79.2782 7.92549 79.5283 8.02333 79.4727C8.12118 79.57 8.21902 79.2365 8.31686 79.4449C8.41471 79.4032 8.51255 79.6116 8.61039 79.4171C8.70824 79.6811 8.79211 79.1948 8.88996 79.3893C8.97382 79.3893 9.07166 79.4032 9.15553 79.3477C9.23939 78.9447 9.32326 79.2782 9.40713 79.306C9.49099 79.2643 9.57487 79.5422 9.64475 79.2643C9.72862 79.2365 9.7985 79.0559 9.86839 79.2087C9.93828 79.2643 10.0082 78.6113 10.092 79.1531C10.1619 79.2504 10.2318 78.7363 10.2877 79.0976C10.3576 79.431 10.4135 79.0559 10.4694 79.042C10.5253 79.0281 10.5813 79.0003 10.6372 78.9864C11.1264 78.8058 11.4199 78.5974 11.4199 78.3751C11.4199 78.125 11.0705 77.9027 10.4694 77.7082C10.4135 77.6943 10.3436 77.4025 10.2877 77.6526C10.2178 77.6526 10.1619 77.4303 10.092 77.597C10.0222 77.2219 9.95226 77.5276 9.86839 77.5414C9.7985 77.5276 9.71464 77.6387 9.64475 77.4859C9.56089 77.2636 9.49099 77.597 9.40713 77.4442C9.32326 77.6804 9.23939 77.6109 9.15553 77.4025C9.07166 77.6248 8.97382 77.3469 8.88996 77.3608C8.79211 77.7082 8.70824 77.4581 8.61039 77.3191C8.51255 77.1941 8.41471 77.3747 8.31686 77.2914C8.21902 77.3608 8.12118 77.208 8.02333 77.2636C7.92549 77.0968 7.81366 77.0413 7.71582 77.2358C7.61798 77.1246 7.50615 77.208 7.40831 77.208C7.29649 77.0691 7.19865 77.2219 7.08683 77.1941C6.97501 77.1246 6.86319 77.5692 6.75136 77.1802C6.63954 77.1246 6.52771 77.2358 6.41589 77.1802C6.30407 77.2358 6.19225 77.2775 6.06645 77.1802C5.95463 77.5553 5.82883 77.333 5.717 77.1802C5.60518 77.0691 5.47938 77.1246 5.36756 77.1802C5.25574 77.1385 5.14392 77.1663 5.01812 77.1802C4.9063 77.0691 4.79448 77.3469 4.68266 77.1802C4.57083 77.0135 4.45901 77.3608 4.34719 77.1941C4.23537 77.0829 4.12354 77.0274 4.0257 77.208C3.91388 77.208 3.81603 77.5553 3.71819 77.2358C3.62034 77.1663 3.50852 76.7356 3.41068 77.2636C3.31283 77.1385 3.21499 77.5276 3.11715 77.2914C3.0193 77.6804 2.92146 77.3053 2.82362 77.3191C2.72577 77.3886 2.64191 77.5276 2.54406 77.3608C2.4602 77.1802 2.36235 77.4581 2.27848 77.4025C2.19462 77.1802 2.11075 77.6943 2.02689 77.4442C1.94302 77.4998 1.85915 77.4164 1.78927 77.4859C1.7054 76.9579 1.63551 77.4859 1.56562 77.5414C1.49573 77.6109 1.42585 77.1941 1.34198 77.597C1.27209 77.1941 1.2022 77.5414 1.13231 77.6526C1.06242 77.7637 1.00651 77.4859 0.950604 77.7082C0.894693 77.4303 0.838778 77.861 0.782867 77.7638C0.726956 77.9444 0.671044 77.7638 0.629111 77.8193C0.5732 77.7499 0.531269 77.7776 0.489336 77.8749C0.447403 77.8888 0.405464 77.9166 0.363531 77.9444C0.12591 78.0694 0.000118256 78.2223 0.000118256 78.3612V78.3751Z" fill="#0061EF"/>
</g>
<defs>
<clipPath id="clip0_1032_14106">
<rect width="118" height="94.6593" fill="white" transform="matrix(-1 0 0 1 118 15.5605)"/>
</clipPath>
</defs>
</svg>
