<svg width="115" height="99" viewBox="0 0 115 99" fill="none" xmlns="http://www.w3.org/2000/svg">
<circle cx="37" cy="37" r="37" transform="matrix(-1 0 0 1 115 11)" fill="#F9E5FF"/>
<g clip-path="url(#clip0_1032_14130)">
<path d="M38.4992 98.9884C38.4756 99.0473 37.7191 98.7529 36.2888 98.1405C34.8703 97.5163 32.7899 96.5741 30.1302 95.2668C29.2437 94.8428 28.298 94.3482 27.2933 93.8418C26.2767 93.3353 25.201 92.7936 24.1017 92.1458C23.0733 91.3685 21.6667 91.1094 20.591 90.1437C20 89.7433 19.3971 89.3546 18.7588 88.9777C18.1323 88.5891 17.4704 88.2004 16.8202 87.7882C15.4963 86.9756 14.2906 85.8921 12.8603 84.9852C12.4821 84.785 12.1393 84.5377 11.8083 84.255C11.4891 83.9724 11.1818 83.6544 10.8745 83.3364C10.5671 83.0184 10.2716 82.6887 9.94063 82.3942C9.60966 82.0998 9.26686 81.8054 8.86496 81.5698C7.50559 80.3685 6.25261 78.9317 5.14147 77.33C5.02326 77.1062 4.90506 76.8942 4.77503 76.6822C4.65683 76.4702 4.5268 76.2583 4.40859 76.0463C4.14854 75.6223 3.88849 75.1983 3.62843 74.7743C3.12015 73.9146 2.58822 73.0313 2.19814 72.0773C2.06811 71.5709 1.94991 71.0645 1.79624 70.558C1.66621 70.0516 1.51254 69.557 1.3707 69.0506C1.07518 68.0377 0.779666 67.0131 0.507793 65.9649C0.543254 64.8578 0.543254 63.7743 0.436869 62.6908C0.354125 61.5955 0.200457 60.5002 -0.000493496 59.3814C-0.0241347 57.1319 0.247739 54.8707 0.212277 52.5388C0.342304 50.2186 0.46051 47.8632 0.756025 45.4842C0.685102 43.0698 0.909693 40.6437 1.35888 38.194C1.26431 35.6972 1.57165 33.2004 1.87898 30.6565C2.20996 28.1126 1.8908 25.5099 2.2336 22.8835C2.2927 21.5762 2.30452 20.2454 2.31634 18.9146C2.32817 17.36 2.35181 15.7936 2.36363 14.2154L2.38727 13.3204V13.2968H2.41091H2.47001L2.58822 13.3204L2.81281 13.3557L3.26199 13.4146C3.82938 13.4852 4.39677 13.5559 4.96416 13.6383C5.63794 13.7208 6.31171 13.8032 6.98548 13.8386C8.33303 13.9446 9.70422 13.9446 11.0636 13.7914C13.7942 13.6972 16.5129 13.3557 19.2553 12.9788C21.8913 12.1191 24.5509 11.4242 27.1396 10.3525C28.3808 9.7165 29.6101 9.04519 30.7922 8.26789C31.9624 7.49059 33.0736 6.59551 34.0428 5.55911L34.8112 4.81714L35.5322 4.02806C35.7687 3.75719 35.9932 3.48631 36.2178 3.21543C36.336 3.08588 36.4424 2.93277 36.5488 2.79145L36.9389 2.28502C37.3763 1.71971 37.7782 1.14262 38.2037 0.577314L38.5229 0.153331L38.6056 0.0473351L38.6292 0.0237804C38.6292 0.0237804 38.6411 -0.0115515 38.6529 0.0120031L38.6883 0.0708897L38.842 0.282881L39.4803 1.14262L40.1186 2.00237L40.6269 2.6619L40.9579 3.09766L41.2889 3.52164C43.0856 5.7711 45.2488 7.73791 47.7784 9.06875C49.0432 9.72828 50.2844 10.3878 51.561 10.9649C52.8376 11.5538 54.1615 12.0602 55.5327 12.3899C56.8448 12.9081 58.2396 13.1672 59.6345 13.3439C61.0293 13.5088 62.4241 13.5795 63.8071 13.709C66.585 13.8386 69.3628 13.9681 72.0816 13.5677L72.7553 13.497L73.6773 13.391L74.5993 13.285L74.8358 13.2615H74.954C74.954 13.2615 74.9776 13.2615 74.9776 13.285V13.3439L74.9894 13.8268C75.0131 14.8161 75.0367 15.7936 75.0603 16.7829C75.084 18.149 75.0958 19.5034 75.0485 20.8578C75.1786 21.5291 75.2377 22.2004 75.2613 22.8717C75.3086 23.5431 75.3086 24.2026 75.2968 24.8739C75.2849 26.2047 75.2258 27.5356 75.3322 28.8428C75.3204 29.5024 75.3086 30.1619 75.3559 30.8096C75.3913 31.4574 75.4504 32.1169 75.5095 32.7529C75.6277 34.0484 75.7578 35.3321 75.8169 36.6041C75.9469 37.876 76.0178 39.148 76.0769 40.4081C76.1124 41.0441 76.1478 41.6683 76.1951 42.2925C76.2306 42.7047 76.2779 43.1287 76.3133 43.5409L76.3606 43.9413L76.3843 44.1416C76.3843 44.1416 76.3606 44.1887 76.337 44.2122L76.2542 44.2593L75.5686 44.6598L75.0012 44.9542C74.8712 45.0248 74.7412 45.0955 74.623 45.178C74.3748 45.3311 74.1265 45.4959 73.8783 45.649C73.4173 46.0024 72.9326 46.3321 72.5071 46.7326C72.0579 47.0977 71.6678 47.5216 71.2423 47.8985C70.8522 48.3225 70.4385 48.7111 70.0602 49.1469C69.7411 49.618 69.4574 50.1009 69.1264 50.5602C68.8427 51.0431 68.5117 51.5024 68.2517 51.997L68.0389 52.3621C67.968 52.4799 67.8971 52.6094 67.8498 52.7272C67.7316 52.9863 67.6134 53.2336 67.507 53.481C67.3888 53.7283 67.3179 53.9992 67.2351 54.2583L67.1169 54.6587C67.0814 54.7882 67.0578 54.9296 67.0342 55.0591C66.9632 55.33 66.8923 55.5891 66.8332 55.8482C66.7859 56.1191 66.7386 56.3899 66.6914 56.649L66.6204 57.0495L66.5732 57.4499C66.5377 57.7208 66.5141 57.9799 66.4786 58.2508C66.4313 59.3225 66.4077 60.3942 66.5141 61.4424C66.4668 62.5141 66.6559 63.5623 67.0105 64.5398C67.3651 65.5174 67.8261 66.436 68.3108 67.3193C68.7718 68.2144 69.3628 69.0388 69.9893 69.7925C70.143 69.981 70.3085 70.1576 70.4621 70.3461L70.6985 70.6287C70.7813 70.7229 70.864 70.8054 70.9468 70.8996C71.1123 71.0762 71.2659 71.2647 71.4196 71.4413C71.5851 71.618 71.7506 71.7947 71.9043 71.9831C72.0697 72.1598 72.2589 72.3011 72.448 72.466L72.7199 72.7015C72.7199 72.7015 72.8026 72.7722 72.8617 72.8311L73.0981 73.0077C73.4055 73.2433 73.7128 73.4788 74.0201 73.7144L74.1383 73.7968C74.1383 73.7968 74.1383 73.8321 74.1383 73.8557L74.1029 73.9146L73.9492 74.1619L73.6537 74.6565C73.4764 74.9392 73.3109 75.2219 73.1454 75.5163L72.9563 75.8343C72.8972 75.9403 72.8144 76.0463 72.7553 76.1405C72.4835 76.5527 72.2234 76.9649 71.9752 77.3889C71.6915 77.7893 71.3723 78.1426 71.0413 78.4959C70.8759 78.6726 70.7222 78.8493 70.5449 79.0141C70.3676 79.179 70.2021 79.3439 70.0248 79.497C69.8593 79.6619 69.682 79.8268 69.5283 79.9917C69.3746 80.1565 69.2091 80.3332 69.0555 80.4981C68.7363 80.8396 68.4645 81.1929 68.228 81.6051C67.9325 81.9467 67.5779 82.2411 67.2351 82.512C66.8923 82.7947 66.5377 83.0538 66.1831 83.3246C65.4738 83.8311 64.7882 84.3493 64.2327 84.997C63.6535 85.6212 62.9915 86.1159 62.3059 86.5516C61.6085 86.9756 60.9111 87.3525 60.2728 87.7882C58.9725 88.6244 57.7195 89.4253 56.4902 90.1319C55.1308 90.9563 53.8069 91.6747 52.5657 92.3578C51.3128 93.0291 50.1425 93.6415 49.0432 94.2069C47.9321 94.7604 46.9155 95.2668 45.9698 95.7261C45.0242 96.1737 44.1613 96.5741 43.3929 96.9392C42.6246 97.3043 41.939 97.6105 41.3362 97.8696C40.7451 98.1287 40.2368 98.3525 39.8349 98.5174C39.0193 98.8589 38.5938 99.012 38.5701 98.9649C38.5465 98.9178 39.0311 98.6234 39.9768 98.1051C40.9343 97.5987 42.3409 96.845 44.1849 95.8675C44.6459 95.6201 45.1306 95.361 45.6389 95.0902C46.1471 94.8075 46.6791 94.5248 47.2465 94.2186C47.802 93.9124 48.3931 93.5944 48.9959 93.2647C49.5988 92.9231 50.2253 92.5698 50.8872 92.1929C53.4877 90.6972 56.4547 88.966 59.599 86.7989C60.2255 86.3514 60.8283 85.8568 61.4548 85.3739C62.0695 84.8792 62.7078 84.3846 63.4407 83.9724C64.079 83.466 64.6937 82.8889 65.332 82.3236C65.6393 82.0291 65.9467 81.7347 66.2658 81.452C66.585 81.1694 66.9278 80.8867 67.2588 80.6041C67.507 80.239 67.7907 79.8857 68.0862 79.5677C68.2399 79.4028 68.3817 79.2379 68.5236 79.073C68.6654 78.9081 68.8191 78.7433 68.9727 78.5784C69.1264 78.4135 69.2801 78.2486 69.4456 78.0955C69.611 77.9424 69.7411 77.754 69.8947 77.5891C70.1903 77.2475 70.4976 76.8942 70.7813 76.5291C71.0413 76.1405 71.3014 75.7636 71.5614 75.375C71.6324 75.2807 71.7033 75.1865 71.7624 75.0805L71.9397 74.7743C72.0106 74.6448 72.0934 74.527 72.1643 74.3974L72.2352 74.2679L72.2707 74.1972C72.2707 74.1972 72.2943 74.1737 72.2707 74.1619L72.2352 74.1383C72.1525 74.0795 72.0697 74.0206 71.987 73.9617L71.9279 73.9146L71.786 73.8086L71.4787 73.573C71.2778 73.4081 71.065 73.2668 70.864 73.0902C70.6513 72.9253 70.4503 72.7604 70.2494 72.5837C70.0484 72.4071 69.8711 72.2186 69.682 72.0184C69.5874 71.9242 69.4928 71.83 69.4101 71.724L69.15 71.4178C68.9846 71.2058 68.8073 71.0056 68.6536 70.7818C68.0034 69.9103 67.4597 68.9681 66.8687 68.0377C66.4431 67.0131 66.053 65.9649 65.6984 64.9049C65.3438 63.8332 65.0601 62.7261 64.8237 61.5955C64.7764 60.4296 64.7764 59.2754 64.8001 58.0859C64.8237 57.7914 64.8473 57.497 64.871 57.2026L64.9064 56.755L64.9774 56.3075C65.0247 56.0131 65.0719 55.7186 65.1192 55.4124C65.1901 55.118 65.2611 54.8236 65.3438 54.5291C65.4029 54.3878 65.4502 54.2465 65.5093 54.1052L65.6984 53.6812C65.8166 53.3985 65.923 53.1159 66.0412 52.8332C66.1712 52.5505 66.2895 52.2797 66.4077 51.997C66.4668 51.8557 66.5259 51.7144 66.5968 51.5848L66.7977 51.1726C67.046 50.6073 67.3533 50.0773 67.637 49.5238C67.968 48.9938 68.2753 48.4403 68.6536 47.9338C69.0082 47.4156 69.4456 46.9446 69.8711 46.4735C70.3321 46.0259 70.7813 45.5784 71.3014 45.178C71.786 44.754 72.3298 44.4007 72.8617 44.0238C73.1336 43.8471 73.4173 43.6822 73.6892 43.5056C73.831 43.4114 73.961 43.3289 74.1029 43.2465L74.3038 43.1287L74.3511 43.0934L74.4575 43.0463C74.4575 43.0463 74.4811 43.0463 74.4811 43.0345V43.0109V42.9638V42.8343L74.4339 42.3632C74.3748 41.739 74.3157 41.1148 74.2565 40.4788C74.1383 39.2186 73.9965 37.9585 73.9374 36.6747C73.7719 35.4028 73.6301 34.1073 73.5355 32.8118C73.4882 32.164 73.4409 31.5045 73.4173 30.8568C73.3936 30.1972 73.3936 29.5377 73.4173 28.8782C73.3109 27.5591 73.24 26.2283 73.1809 24.8857C73.1572 24.2144 73.1336 23.5431 73.0981 22.8717C73.0981 22.2004 73.0863 21.5174 73.0745 20.8343C72.9917 19.4799 72.9681 18.1137 72.9681 16.7358C72.9681 16.3942 72.9681 16.0527 72.9681 15.6994V15.558V15.5227H72.9326L72.8263 15.5345H72.708L72.6844 15.5463H72.6135L72.3534 15.5816C70.9468 15.7465 69.5165 15.7347 68.098 15.7229C66.6677 15.7229 65.2374 15.664 63.7717 15.7583C60.8638 15.6405 57.9559 15.1105 55.0599 14.3803C52.1875 13.5559 49.3978 12.3428 46.75 10.8236C45.5443 9.88138 44.3268 8.96275 43.1565 7.98524C41.9745 7.00772 40.8279 5.98309 39.764 4.85247L39.3739 4.42849L39.0075 3.98095L38.842 3.78074H38.8302L38.8066 3.74541C38.7711 3.67474 38.7356 3.76896 38.712 3.79252L38.4165 4.15761C38.2983 4.31072 38.1801 4.45205 38.05 4.59337C37.8018 4.87603 37.5417 5.17046 37.2817 5.45312L36.4897 6.27753L35.6623 7.06661C33.4755 9.1983 30.9222 10.9296 28.2271 12.2133C26.9032 12.9199 25.4966 13.4381 24.0781 13.8739C22.6596 14.2979 21.2293 14.6512 19.8108 14.9927C18.3924 15.346 16.9384 15.5109 15.5081 15.6052C14.0778 15.7111 12.6476 15.7347 11.2291 15.8171C9.81061 15.876 8.39214 15.876 6.9973 15.7936C6.29989 15.7583 5.60247 15.6876 4.91688 15.6169H4.85778H4.83413L4.78685 15.5934L4.69229 15.5698C4.69229 15.5698 4.62136 15.5463 4.5859 15.5345C4.5859 15.5463 4.56226 15.558 4.55044 15.5816C4.53862 16.0291 4.51498 16.4767 4.50316 16.9124C4.46769 17.5837 4.43223 18.2668 4.39677 18.9264C4.32585 20.269 4.29039 21.5998 4.39677 22.9306C4.37313 25.5805 4.63318 28.2069 4.00669 30.7508C3.97123 33.33 3.42748 35.8268 3.42748 38.3118C2.87191 40.7615 2.99012 43.2229 2.76553 45.6137C2.49365 47.9927 2.16268 50.3246 2.16268 52.633C2.18632 54.9296 1.81988 57.1555 1.87898 59.3461C1.98537 60.4413 1.94991 61.5131 1.96173 62.573C1.98537 63.633 2.00901 64.6929 2.2927 65.694C2.43455 66.7186 2.6355 67.7079 2.90738 68.6737C3.02558 69.1565 3.19107 69.6276 3.33292 70.0987C3.49841 70.558 3.64025 71.0291 3.81756 71.4884C4.38495 72.3011 4.81049 73.1373 5.20057 73.997C5.41334 74.421 5.59065 74.8568 5.81524 75.269C5.92163 75.4692 6.02802 75.6812 6.14622 75.8814C6.26443 76.0816 6.39445 76.2818 6.52448 76.4702L6.71361 76.7529C6.78453 76.8471 6.85546 76.9413 6.92638 77.0238C7.06823 77.2004 7.21008 77.3771 7.36374 77.5538C7.65926 77.8953 7.97842 78.2251 8.28575 78.5548C8.60491 78.8728 8.91224 79.2026 9.19594 79.5323C9.49145 79.8621 9.76333 80.2036 10.0234 80.5805C11.5128 81.5463 12.5885 82.8771 13.8414 83.9606C15.0826 85.0559 16.5129 85.7743 17.6713 86.7872C18.3687 87.1169 18.9834 87.5409 19.5626 87.9884C20.1536 88.4242 20.721 88.8717 21.3475 89.2015C22.4587 90.073 23.6998 90.6148 24.7755 91.2743C25.9103 91.8514 26.9505 92.4403 27.8961 93.0645C28.8891 93.6062 29.8111 94.1244 30.674 94.5955C33.2627 96.0088 35.2958 97.057 36.6552 97.7872C38.0146 98.5173 38.7238 98.9178 38.6883 98.9767L38.4992 98.9884Z" fill="#0061EF"/>
<path d="M83.2061 41.8445C83.2061 41.7385 84.4473 41.503 86.7286 41.821C86.9178 41.8445 87.1069 41.8916 87.3197 41.9152C87.5206 41.9505 87.7334 41.9858 87.9462 42.0447C88.1589 42.0918 88.3835 42.1272 88.6199 42.1861C88.8445 42.2567 89.0809 42.3274 89.3055 42.4098C89.5183 42.5629 89.7784 42.5983 90.0384 42.6218C90.3103 42.6454 90.5822 42.716 90.7831 42.9516C91.0195 43.0929 91.2678 43.2225 91.5396 43.3402C91.6697 43.3991 91.8115 43.458 91.9415 43.5169C92.0715 43.5758 92.2134 43.6347 92.3552 43.7053C92.6389 43.8231 92.8872 44.0115 93.1354 44.2C93.3955 44.3766 93.6555 44.5651 93.9628 44.6946C94.3293 44.7417 94.5421 45.0362 94.7548 45.307C94.9676 45.5897 95.1685 45.8606 95.5823 45.943C96.1615 46.3552 96.6698 46.8852 97.1426 47.4741C97.4381 48.1925 98.1001 48.6518 98.5847 49.2878C98.762 50.124 99.2821 50.7364 99.8495 51.3959C99.8259 52.3381 100.204 53.0565 100.854 53.7749C101.138 54.6111 101.209 55.518 101.528 56.3895C101.705 57.2963 101.883 58.2267 101.812 59.1925C102.107 60.1464 102.048 61.1711 101.658 62.1133C101.812 63.1379 101.469 64.1507 101.008 65.0694C100.89 65.3049 100.795 65.5405 100.724 65.7878C100.641 66.0351 100.571 66.2824 100.511 66.5415C100.358 67.0479 100.192 67.5544 99.8259 67.9666C99.3176 68.897 98.8211 69.8627 98.1237 70.6989C97.3672 71.4998 96.5397 72.1946 95.9132 73.1486C95.1449 73.9612 94.2938 74.7385 93.23 75.2214C92.438 76.1047 91.2914 76.5287 90.1448 76.7996C89.0691 77.2824 87.8871 77.3884 86.7641 77.7889C85.5939 77.9655 84.4118 78.2717 83.1943 78.1304C81.9886 78.0244 80.8302 77.8242 79.6245 77.7889C79.0216 77.7889 78.4424 77.624 77.8868 77.412C77.6031 77.3178 77.3313 77.2 77.0594 77.094C76.7875 76.988 76.5156 76.882 76.2319 76.7878C75.9837 76.6111 75.7355 76.4698 75.4754 76.3402C75.3454 76.2814 75.2154 76.2225 75.0853 76.1636C74.9553 76.1047 74.8253 76.0458 74.6834 75.9987L74.2815 75.8338C74.1515 75.7749 74.0215 75.716 73.8915 75.6454C73.6314 75.5158 73.3832 75.3863 73.1586 75.1978C72.1656 74.609 71.4091 73.761 70.4753 73.125C69.6124 72.4184 68.8086 71.6175 68.2649 70.6754C67.7566 70.3809 67.4492 69.9098 67.2365 69.4034C67.1183 69.1561 67.0237 68.897 66.9291 68.6497C66.8818 68.5201 66.8227 68.4023 66.7636 68.2846C66.7045 68.1668 66.6454 68.049 66.5745 67.9312C66.2672 66.9066 65.6525 66.0351 65.3924 65.034C65.2033 64.5512 65.1087 64.0447 65.0496 63.5501C65.0142 63.3028 64.9787 63.0554 64.9314 62.8081C64.896 62.5608 64.8251 62.3252 64.7423 62.0779C64.6359 61.1004 64.3995 60.1229 64.5886 59.1572C64.5414 58.9216 64.5295 58.6743 64.5414 58.4387C64.565 58.2032 64.6123 57.9676 64.6596 57.7321C64.7068 57.4966 64.766 57.2728 64.8132 57.0372C64.8605 56.8135 64.8842 56.5779 64.8842 56.3424C65.026 55.4355 65.2506 54.5522 65.5579 53.7278C65.7116 53.5512 65.8298 53.3627 65.9244 53.1625C66.0189 52.9623 66.1017 52.7739 66.1608 52.5619C66.2199 52.3617 66.279 52.1497 66.3499 51.9494C66.4208 51.7492 66.4799 51.5372 66.5627 51.3488C66.7755 50.9837 66.9055 50.5833 67.1064 50.2182C67.2837 49.8531 67.5083 49.4998 67.8275 49.2407C68.3003 48.5929 68.8913 48.0747 69.2696 47.427C69.4942 47.1208 69.8488 46.9441 70.1561 46.7439C70.4635 46.5319 70.7354 46.3199 70.8299 45.8959C71.0663 45.6368 71.3855 45.4719 71.6928 45.307C72.0002 45.1539 72.272 44.9655 72.4493 44.6475C72.6267 44.3413 72.8985 44.1529 73.194 44.0233C73.4896 43.8938 73.7969 43.7996 74.0569 43.6582C74.187 43.5876 74.317 43.5169 74.447 43.4462C74.5771 43.3756 74.7071 43.3167 74.8371 43.2578C75.0972 43.1282 75.3572 43.0105 75.6054 42.9163C76.752 42.4334 77.8277 42.139 78.7615 41.9387C78.998 41.8916 79.2226 41.8563 79.4471 41.8092C79.6717 41.7739 79.8727 41.7503 80.0736 41.7267C80.4755 41.6679 80.842 41.6561 81.1729 41.6325C81.8349 41.609 82.3314 41.6325 82.6742 41.6679C83.017 41.7032 83.1825 41.7503 83.1825 41.7974C83.1825 41.927 82.3314 41.9741 80.7947 42.2803C80.0264 42.4334 79.1043 42.6572 78.0523 43.034C77.0003 43.4109 75.8419 43.9291 74.6362 44.6711C74.3879 44.8124 74.187 45.0244 73.9624 45.2128C73.7378 45.4013 73.5014 45.5779 73.1822 45.6604C72.9222 45.8252 72.7212 46.0726 72.4966 46.2846C72.272 46.5083 72.0474 46.7321 71.7401 46.8852C71.4919 47.5801 70.8299 47.8392 70.3689 48.3574C69.9197 48.8873 69.4114 49.3938 69.1041 50.0769C68.9859 50.442 68.7613 50.7246 68.5604 51.0426C68.3358 51.3488 68.1348 51.6668 68.0166 52.0437C67.4965 52.6443 67.2246 53.4098 67.1655 54.2342C66.7282 54.9409 66.7518 55.8006 66.6218 56.6133C66.1844 57.3906 66.3026 58.2856 66.4208 59.1454C66.5272 60.0051 66.409 60.8884 66.6218 61.7717C66.6927 62.6668 67.0237 63.5265 67.2483 64.4098C67.662 65.246 68.0639 66.0587 68.3476 66.9773C68.8677 67.7664 69.3051 68.6143 69.8961 69.3916C70.5817 70.0865 71.1373 70.8991 71.8938 71.5587C72.2839 71.8649 72.603 72.2535 72.9813 72.5951C73.1586 72.7717 73.3714 72.9248 73.5841 73.0662C73.7969 73.2075 74.0333 73.3135 74.2934 73.3724C75.1681 73.8788 76.0428 74.4323 77.0357 74.7621C77.9814 75.1861 78.9861 75.5276 80.0382 75.6336C81.0193 76.1636 82.1422 76.0694 83.1943 75.9398C84.2581 75.8338 85.3102 75.7867 86.3622 75.6336C87.3906 75.3981 88.3953 75.1272 89.3646 74.7621C90.2748 74.291 91.315 74.0437 92.107 73.3724C92.2961 73.2075 92.5089 73.0661 92.7217 72.9248C92.9345 72.7835 93.1472 72.6539 93.36 72.5126C93.7855 72.2417 94.1993 71.9473 94.5184 71.5587C95.1804 70.8167 95.795 70.0629 96.5161 69.3916C96.7998 69.003 97.1544 68.6497 97.4381 68.2728C97.5918 68.0844 97.7218 67.8724 97.8282 67.6604C97.8873 67.5544 97.9346 67.4484 97.97 67.3306C98.0055 67.2128 98.041 67.0951 98.0646 66.9773C98.2537 66.5415 98.3483 66.0704 98.4783 65.6229C98.5374 65.3991 98.6202 65.1871 98.7265 64.9869C98.8329 64.7749 98.963 64.5865 99.1521 64.3981C99.223 63.9387 99.4121 63.5265 99.554 63.0908L99.6604 62.761C99.6958 62.655 99.7195 62.5372 99.7313 62.4312C99.7668 62.2075 99.8022 61.9837 99.7786 61.7599C99.8968 61.5479 99.9677 61.336 100.015 61.1122C100.05 60.8884 100.062 60.6646 100.062 60.4409C100.062 60.2171 100.039 59.9933 100.015 59.7813C99.9914 59.5694 99.9914 59.3456 99.9795 59.1336C100.05 58.2739 100.062 57.4023 99.7786 56.6015C99.4831 55.8124 99.5303 54.9644 99.2348 54.2225C99.1284 54.0458 99.0457 53.8574 98.9984 53.6689C98.9393 53.4805 98.892 53.2921 98.8566 53.0918C98.8211 52.8916 98.762 52.7032 98.6911 52.5265C98.6202 52.3499 98.5256 52.1732 98.3956 52.0201C98.1001 51.3135 97.6509 50.7011 97.3081 50.0533C97.1189 49.9591 96.9535 49.8531 96.8353 49.7235C96.717 49.594 96.6343 49.4291 96.5397 49.276C96.3742 48.958 96.256 48.6047 96.0433 48.3338C95.8423 48.0512 95.5468 47.8509 95.2868 47.639C95.0267 47.427 94.7785 47.215 94.6603 46.8617C94.2938 46.7792 94.0574 46.579 93.8328 46.3434C93.6082 46.1197 93.4427 45.837 93.2181 45.625C92.9936 45.413 92.7335 45.2599 92.4735 45.1304C92.2134 44.9891 91.9652 44.8477 91.7642 44.624C91.6105 44.6122 91.4805 44.5533 91.3623 44.4944C91.2441 44.4237 91.1259 44.3531 91.0195 44.2589C90.8067 44.0822 90.6058 43.8938 90.3457 43.8349C89.9438 43.4698 89.4119 43.4345 88.9864 43.2225C88.75 43.1754 88.5372 43.1047 88.3244 43.034C88.1116 42.9634 87.9107 42.8809 87.7216 42.7749C87.5206 42.7043 87.3315 42.6572 87.1424 42.5983C86.9532 42.5512 86.7759 42.4923 86.5868 42.4452C84.4473 41.9152 83.2061 41.9034 83.2061 41.7385V41.8445Z" fill="#0061EF"/>
<path d="M83.2175 68.9563C83.0875 68.9563 82.9575 68.7443 82.8511 68.3675C82.8274 68.3086 82.8156 68.2379 82.792 68.1555C82.7565 68.0848 82.721 68.0024 82.7329 67.9199C82.9102 67.8375 82.4137 67.755 82.6738 67.6608C82.7447 67.5666 82.6738 67.4724 82.6265 67.3782C82.5674 67.2839 82.7329 67.1779 82.5792 67.0602C82.2364 66.9542 82.9575 66.8364 82.5319 66.7186C82.4374 66.6009 82.461 66.4831 82.4846 66.3535C82.7447 66.2358 82.4846 66.1062 82.4374 65.9767C82.7447 65.8471 82.6147 65.7058 82.4019 65.5762C82.8274 65.4349 82.7683 65.2936 82.3664 65.1523C82.3546 65.0109 82.5201 64.8578 82.331 64.7047C82.3073 64.5516 82.2246 64.3985 82.2955 64.2454C82.0118 64.0923 82.0236 63.9274 82.26 63.7625C81.9527 63.5976 82.0709 63.4328 82.2364 63.2679C82.4019 63.103 81.9645 62.9263 82.2128 62.7615C82.2364 62.5848 82.1418 62.4199 82.1891 62.2433C82.3191 62.0666 82.4492 61.8899 82.1773 61.7015C82.1064 61.5248 82 61.3364 82.1655 61.1597C81.8345 60.9713 81.9882 60.7947 82.1655 60.5944C82.1064 60.406 82.3428 60.2176 82.1655 60.0291C82.2128 59.8407 82.0236 59.6405 82.1655 59.452C82.26 59.2518 82.3546 59.0634 82.1655 58.875C81.9527 58.6865 82.2482 58.4981 82.1655 58.3096C82.4728 58.1212 82.0709 57.9328 82.1655 57.7561C82.13 57.5677 82.3428 57.391 82.1773 57.2026C82.1182 57.0259 82.0591 56.8375 82.1891 56.6608C81.7163 56.4842 82.3073 56.3075 82.2128 56.1426C82.4137 55.966 82.1891 55.8011 82.2364 55.6362C82.1537 55.4713 82.4492 55.3064 82.26 55.1415C82.2955 54.9767 82.1064 54.8236 82.2955 54.6587C82.0591 54.5056 82.4965 54.3525 82.331 54.1994C82.331 54.0463 82.3192 53.9049 82.3664 53.7518C82.7329 53.6105 82.4255 53.4692 82.4019 53.3278C82.4374 53.1865 82.2009 53.057 82.4374 52.9274C82.4728 52.7979 82.6265 52.6683 82.4846 52.5505C82.4255 52.4328 83.0166 52.3032 82.5319 52.1854C82.4492 52.0677 82.9102 51.9617 82.5792 51.8439C82.2719 51.7379 82.6147 51.6319 82.6265 51.5259C82.6501 51.4317 82.662 51.3257 82.6738 51.2433C82.8274 50.4188 83.0166 49.9478 83.2175 49.9478C83.4421 49.9478 83.6431 50.5248 83.8085 51.5377C83.8204 51.6437 84.0804 51.7379 83.8558 51.8557C83.8558 51.9617 84.0568 52.0794 83.9031 52.1972C84.2459 52.315 83.9622 52.4328 83.9504 52.5623C83.9622 52.6801 83.8558 52.8096 83.9977 52.9392C84.1986 53.0687 83.9031 53.2101 84.045 53.3396C83.8322 53.4809 83.8913 53.6223 84.0804 53.7636C83.8795 53.9049 84.1277 54.058 84.1159 54.2111C83.7967 54.3642 84.0213 54.5173 84.1513 54.6705C84.2696 54.8236 84.1041 54.9884 84.175 55.1533C84.1159 55.3182 84.2577 55.4831 84.1986 55.648C84.3405 55.8129 84.3996 55.9895 84.2223 56.1544C84.3287 56.3311 84.2459 56.4959 84.2459 56.6726C84.3641 56.8493 84.2341 57.0259 84.2577 57.2144C84.3168 57.391 83.9268 57.5794 84.2696 57.7679C84.3168 57.9563 84.2104 58.133 84.2696 58.3214C84.2223 58.5099 84.175 58.6983 84.2696 58.8867C83.9268 59.0752 84.1395 59.2754 84.2696 59.4638C84.3641 59.664 84.3168 59.8525 84.2696 60.0409C84.305 60.2293 84.2814 60.4178 84.2696 60.6062C84.3759 60.7946 84.1277 60.9831 84.2696 61.1715C84.4114 61.36 84.1159 61.5366 84.2577 61.7133C84.3523 61.8899 84.4114 62.0784 84.2459 62.255C84.2459 62.4317 83.9386 62.6084 84.2223 62.7732C84.2932 62.9499 84.6715 63.1148 84.1986 63.2797C84.3168 63.4445 83.974 63.6094 84.175 63.7743C83.8322 63.9392 84.1632 64.0923 84.1513 64.2572C84.0804 64.4103 83.9622 64.5634 84.1159 64.7165C84.2814 64.8696 84.0213 65.0109 84.0804 65.164C84.2814 65.3054 83.8204 65.4467 84.045 65.588C83.9977 65.7293 84.0804 65.8589 83.9977 65.9884C84.4705 66.118 83.9977 66.2475 83.9504 66.3653C83.8795 66.4831 84.2577 66.6126 83.9031 66.7304C84.2577 66.8482 83.9504 66.9542 83.8558 67.072C83.7494 67.1779 84.0095 67.2839 83.8085 67.3899C84.0568 67.4842 83.6667 67.5902 83.7613 67.6726C83.5958 67.7668 83.7613 67.8493 83.7022 67.9317C83.7613 68.0141 83.7376 68.0966 83.6431 68.1672C83.6194 68.2379 83.6076 68.3086 83.584 68.3792C83.4657 68.7679 83.3357 68.9681 83.2057 68.9681L83.2175 68.9563Z" fill="#0061EF"/>
<path d="M73.6544 59.4752C73.6544 59.3456 73.8672 59.2161 74.2573 59.0983C74.3164 59.0747 74.3873 59.063 74.47 59.0394C74.5409 59.0041 74.6237 58.9687 74.7064 58.9805C74.7892 59.1572 74.8719 58.6625 74.9665 58.9216C75.061 59.0041 75.1556 58.9216 75.2502 58.8745C75.3447 58.8156 75.4511 58.9805 75.5693 58.8274C75.6757 58.4859 75.7939 59.2043 75.9121 58.7803C76.0303 58.6861 76.1485 58.7096 76.2786 58.7332C76.4086 58.9923 76.5268 58.7332 76.6687 58.6861C76.7987 58.9923 76.9405 58.8627 77.0706 58.6507C77.2124 59.0747 77.3542 59.0158 77.4961 58.6154C77.6379 58.6036 77.7916 58.7685 77.9453 58.5801C78.0989 58.5565 78.2526 58.4741 78.4063 58.5447C78.56 58.2621 78.7254 58.2739 78.8909 58.5212C79.0564 58.215 79.2219 58.3328 79.3874 58.4976C79.5529 58.6743 79.7302 58.2268 79.8957 58.4741C80.073 58.4976 80.2385 58.4034 80.4158 58.4505C80.5931 58.5801 80.7704 58.7214 80.9595 58.4388C81.1368 58.3681 81.326 58.2621 81.5151 58.427C81.7042 58.0972 81.8815 58.2503 82.0825 58.427C82.2716 58.3681 82.4607 58.6036 82.6499 58.427C82.839 58.4741 83.04 58.2857 83.2291 58.427C83.4182 58.5212 83.6192 58.6154 83.8083 58.427C83.9974 58.215 84.1866 58.5094 84.3757 58.427C84.5648 58.7332 84.7539 58.3328 84.9313 58.427C85.1204 58.3916 85.2977 58.6036 85.4868 58.4388C85.6641 58.3799 85.8533 58.321 86.0306 58.4505C86.2079 57.9794 86.3852 58.5683 86.5507 58.4741C86.728 58.6743 86.8935 58.4388 87.059 58.4976C87.2245 58.4152 87.3899 58.7096 87.5554 58.5212C87.7209 58.5565 87.8746 58.3681 88.0401 58.5447C88.1937 58.3092 88.3474 58.745 88.5011 58.5801C88.6548 58.5801 88.7966 58.5683 88.9503 58.6154C89.0921 58.9805 89.234 58.6743 89.3758 58.6507C89.5177 58.6861 89.6477 58.4388 89.7777 58.6861C89.9077 58.7214 90.0378 58.8745 90.156 58.7332C90.2742 58.6743 90.4042 59.2632 90.5224 58.7803C90.6406 58.6979 90.747 59.1572 90.8652 58.8274C90.9716 58.533 91.078 58.8627 91.1844 58.8745C91.2789 58.8981 91.3853 58.9098 91.468 58.9216C92.2955 59.0747 92.7683 59.2632 92.7683 59.4634C92.7683 59.6872 92.1773 59.8874 91.1725 60.0522C91.0661 60.064 90.9716 60.3231 90.8534 60.0994C90.747 60.0994 90.6288 60.2996 90.5106 60.1465C90.3924 60.488 90.2742 60.2054 90.1441 60.1936C90.0141 60.2054 89.8959 60.0994 89.7659 60.2407C89.6359 60.4409 89.494 60.1465 89.364 60.276C89.2221 60.064 89.0803 60.1229 88.9384 60.3113C88.7966 60.1111 88.6429 60.3585 88.4893 60.3467C88.3356 60.0287 88.1819 60.2525 88.0283 60.382C87.8746 60.4998 87.7091 60.3349 87.5436 60.4056C87.3781 60.3467 87.2126 60.488 87.0471 60.4291C86.8817 60.5704 86.7043 60.6293 86.5389 60.4527C86.3615 60.5587 86.1961 60.4762 86.0187 60.4762C85.8414 60.6058 85.6641 60.4645 85.475 60.488C85.2977 60.5469 85.1086 60.1582 84.9194 60.4998C84.7303 60.5469 84.553 60.4409 84.3639 60.4998C84.1747 60.4527 83.9856 60.4056 83.7965 60.4998C83.6073 60.1582 83.4064 60.3702 83.2173 60.4998C83.0163 60.594 82.8272 60.5469 82.6381 60.4998C82.4489 60.5351 82.2598 60.5116 82.0707 60.4998C81.8815 60.6058 81.6924 60.3585 81.5033 60.4998C81.3141 60.6411 81.1368 60.3467 80.9477 60.488C80.7704 60.5822 80.5813 60.6411 80.404 60.4762C80.2267 60.4762 80.0493 60.17 79.8839 60.4527C79.7066 60.5233 79.5411 60.9002 79.3756 60.4291C79.2101 60.5469 79.0446 60.2054 78.8791 60.4056C78.7136 60.064 78.56 60.3938 78.3945 60.382C78.2408 60.3113 78.0871 60.1936 77.9335 60.3467C77.7798 60.5116 77.6379 60.2525 77.4843 60.3113C77.3424 60.5116 77.2006 60.0522 77.0587 60.276C76.9169 60.2289 76.7869 60.3113 76.6568 60.2407C76.5268 60.7118 76.3968 60.2407 76.2667 60.1936C76.1485 60.1229 76.0185 60.4998 75.9003 60.1465C75.7821 60.4998 75.6757 60.1936 75.5575 60.0994C75.4511 59.9934 75.3447 60.2525 75.2384 60.0522C75.132 60.2996 75.0374 59.9109 74.9547 60.0051C74.8601 59.8403 74.7774 60.0051 74.6946 59.958C74.6119 60.0169 74.5291 59.9934 74.4582 59.8991C74.3873 59.8756 74.3164 59.8638 74.2454 59.8403C73.8554 59.7225 73.6426 59.6047 73.6426 59.4752H73.6544Z" fill="#0061EF"/>
<path d="M31.9874 28.4657C32.1174 28.4657 32.2474 30.668 32.3656 34.6841C32.3775 35.3554 32.4011 36.0856 32.4247 36.8511C32.4484 37.7226 32.4838 38.7237 32.4838 39.7365C32.342 39.6541 32.1883 39.5599 32.0347 39.4774C31.7392 39.2654 31.4909 39.1123 31.2427 38.9828C30.9826 38.8532 30.7226 38.7472 30.4271 38.6177C30.2852 38.5588 30.1315 38.4881 29.9779 38.4175L29.7888 38.3233C29.7888 38.3233 29.6824 38.2762 29.6351 38.2408C29.4223 38.1348 29.2332 37.9935 29.0559 37.8168C28.2639 37.2751 27.3537 36.8275 26.4199 36.3565C25.9471 36.1209 25.4979 35.8265 25.0369 35.5438C24.8005 35.4025 24.564 35.2612 24.3158 35.1316C24.1976 35.061 24.0676 35.0021 23.9376 34.9432C23.8193 34.8843 23.6539 34.8018 23.6066 34.8018C23.4174 34.8136 23.3229 34.7665 23.1692 34.637C23.0746 34.7312 22.921 34.8254 22.7791 35.0138C22.5545 35.3318 22.3536 35.7087 22.2708 36.1327C21.7389 37.228 21.0888 38.2997 20.4268 39.4186C19.5521 40.4078 19.1029 41.6916 18.4528 42.8929C18.3346 43.0106 18.2282 43.1402 18.1218 43.2697L17.9681 43.4699L17.8854 43.5759C17.779 43.7055 17.6726 43.8704 17.5899 44.0235C17.7672 44.1177 17.9681 44.2001 18.1455 44.259C18.1691 44.259 18.1809 44.259 18.2164 44.2826L18.3464 44.3415L18.6065 44.4475C18.7838 44.5181 18.9611 44.5888 19.1384 44.6595C20.1786 45.743 21.4907 46.426 23.0037 46.8383C23.2756 46.9914 23.5475 47.1562 23.8193 47.3211L24.2212 47.5684C24.3986 47.6744 24.564 47.7804 24.7414 47.8864C25.6397 48.4282 26.5144 48.9346 27.5074 49.4764C27.1409 49.7001 26.7981 49.9239 26.4317 50.1712C25.8525 50.5128 25.2733 50.8661 24.6822 51.2076C24.3158 51.4314 23.9494 51.6552 23.5711 51.8789C22.8855 52.2911 22.1763 52.7034 21.4434 53.0684C20.8169 53.5866 20.1668 54.046 19.4575 54.4582C19.1029 54.6584 18.7483 54.8586 18.3819 55.0353C18.3228 55.0353 18.24 55.0353 18.0864 55.0588V55.0824C18.1455 55.1413 18.2046 55.1766 18.2518 55.2001L18.3109 55.2355H18.3228L18.3464 55.2708L18.441 55.4004C18.6774 55.7537 18.902 56.1188 19.1147 56.4956C19.5403 57.2494 19.9067 58.0267 20.285 58.8275C21.0179 60.4293 22.2827 61.7483 22.9801 63.4207L23.181 63.774L23.2638 63.9036L23.4293 63.7976L23.4647 63.774L23.6657 63.6562L24.0912 63.4089C24.6586 63.0792 25.226 62.7494 25.817 62.4314C26.6563 62.0192 27.4956 61.6188 28.3112 61.1595C28.7249 60.9357 29.1268 60.6884 29.5169 60.441C29.8124 60.2526 30.1197 60.0524 30.4152 59.864C30.7699 59.6284 31.1363 59.3811 31.5264 59.122C32.0347 58.8158 32.5548 58.4978 33.0631 58.1916C33.0749 58.9218 33.0867 59.6402 33.1103 60.3704C33.1103 61.0417 33.1222 61.7248 33.134 62.4078C33.134 63.2087 33.1103 64.0096 33.0512 64.8104C33.2049 65.7526 33.2522 66.6948 33.2404 67.637C33.2404 68.1081 33.2167 68.5909 33.1813 69.062V69.2387C33.1813 69.2387 33.1694 69.2622 33.1576 69.274C33.1576 69.274 33.134 69.2976 33.134 69.3211C33.1103 69.3565 33.0985 69.3918 33.0749 69.4389C33.0749 69.4389 33.0749 69.4389 33.0749 69.4507C33.1222 69.4507 33.1576 69.4507 33.1931 69.4507H33.6659C34.1624 69.4742 34.6588 69.486 35.1553 69.5096C36.1482 69.5331 37.153 69.5449 38.1577 69.4624C39.1625 69.486 40.1672 69.4624 41.1838 69.4271C41.6921 69.4153 42.2004 69.4036 42.7087 69.4036H42.8978H42.9924C43.016 69.4036 43.0042 69.4036 43.016 69.4036C43.0278 69.4036 43.0396 69.4036 43.0633 69.4036C43.0988 69.4036 43.1342 69.4271 43.1933 69.4389C43.1933 69.4389 43.217 69.38 43.2288 69.3447V69.2858C43.2288 69.2858 43.2524 69.2858 43.2524 69.2622V69.168V68.9796C43.2761 68.4732 43.2879 67.9667 43.2997 67.4603C43.2997 66.4475 43.2879 65.4464 43.1933 64.4453C43.1106 63.7034 43.1106 62.9614 43.1224 62.2312C43.146 60.8886 43.1697 59.5577 43.2051 58.2269C44.0444 58.7333 44.86 59.2044 45.6756 59.652C45.8648 59.7815 46.0657 59.9111 46.2549 60.0406L46.5385 60.229L46.7159 60.3468C46.9168 60.4881 47.1296 60.6177 47.3423 60.7472C47.7679 60.9946 48.1934 61.2301 48.6308 61.4539C49.5055 61.9014 50.3802 62.3254 51.1959 62.8554C51.6451 63.1027 52.0942 63.3736 52.5316 63.6445L52.6971 63.7505L52.7798 63.7976H52.8035V63.8093L52.8626 63.8682C52.9099 63.9036 52.9453 63.9389 52.9926 63.9742C53.0162 63.9389 53.0399 63.9036 53.0753 63.8682L53.1108 63.8093L53.1817 63.6798C53.3945 63.2911 53.6073 62.9025 53.7964 62.5021C54.6948 60.8415 55.5813 59.1926 56.6215 57.6616C56.8107 57.0021 57.1062 56.425 57.4608 55.8714C57.5435 55.7301 57.6381 55.6006 57.7327 55.4592L57.8627 55.259H57.8863C57.9336 55.2472 57.9927 55.2119 58.0518 55.153C58.0518 55.1295 58.0164 55.0941 57.9809 55.0588C57.9573 55.047 57.9454 55.0235 57.9218 55.0117L57.7918 54.941L57.6145 54.8468C56.1487 53.7751 54.4938 53.0802 53.0044 52.1616C52.7325 52.0203 52.4725 51.8789 52.2124 51.7258C51.8815 51.5256 51.5505 51.3254 51.2195 51.1252C50.3093 50.5717 49.4701 50.0417 48.6072 49.5353C49.3991 49.0877 50.132 48.652 50.8649 48.1691C51.1722 47.9924 51.4796 47.8158 51.7987 47.6391C51.976 47.5331 52.1652 47.4271 52.3425 47.3093C52.6971 47.0856 53.0635 46.8736 53.4181 46.6498C54.1274 46.2141 54.8484 45.8019 55.6049 45.4721C56.1369 45.0599 56.7161 44.7419 57.3071 44.4475L57.7445 44.2355L57.9572 44.1295L58.0282 44.1059C58.1227 44.0824 58.2291 44.0353 58.3237 43.9881C58.2764 43.9057 58.2173 43.8115 58.1464 43.7526C57.7918 43.1402 57.4371 42.5395 57.0943 41.9389C56.7043 41.2676 56.3378 40.6081 55.9714 39.9368C55.534 38.4528 54.5293 37.3222 53.7846 36.0856C53.69 35.9207 53.5955 35.7558 53.5009 35.6027L53.359 35.3672L53.2881 35.2494C53.2881 35.2494 53.2763 35.2258 53.2645 35.2141V35.1905C53.1817 35.1081 53.1108 35.0138 53.0399 34.9314C52.9453 34.9903 52.8744 35.0492 52.7798 35.0845H52.7444L52.7207 35.1081C52.7207 35.1081 52.7207 35.1081 52.6853 35.1198L52.4607 35.2258C52.307 35.2965 52.1533 35.3554 51.9997 35.4143C50.794 36.0738 49.5528 36.6038 48.5008 37.3693C47.957 37.7108 47.3305 37.9228 46.7513 38.1702C46.6095 38.229 46.4676 38.2879 46.314 38.3704C46.1248 38.4646 45.9357 38.5706 45.7466 38.6884C45.3801 38.9121 45.0137 39.1948 44.5409 39.5952C44.2099 39.8072 43.8789 39.9956 43.5716 40.1487C43.607 39.3479 43.678 38.5588 43.7134 37.8757C43.7371 37.5342 43.7371 37.2162 43.7252 36.8864C43.7134 36.6509 43.678 36.4271 43.6189 36.1916C43.3233 35.061 43.6543 33.9657 43.6661 32.9175C43.6898 31.8693 43.7016 30.8682 43.7134 29.9025C43.7134 29.5963 43.7252 29.3018 43.7371 29.0192C43.4179 29.0192 43.1106 28.9956 42.8151 28.9956C42.3541 28.9956 41.9049 28.9721 41.4793 28.9721C40.6164 28.9485 39.8008 28.925 39.0443 28.9132C37.5312 28.8779 36.2428 28.8308 35.2026 28.7836C33.1222 28.7012 32.011 28.607 32.011 28.5128C32.011 28.4186 33.1222 28.3243 35.2026 28.2419C36.2428 28.1948 37.5312 28.1595 39.0443 28.1123C39.8008 28.0888 40.6164 28.077 41.4793 28.0535C41.9167 28.0535 42.3659 28.0299 42.8151 28.0299C43.4416 28.0299 44.0917 28.0063 44.7655 28.0063C44.7891 29.5256 44.8127 31.1744 44.8482 32.9293C44.86 33.9774 45.1201 35.0727 44.8955 36.2033C44.8955 36.4271 44.8955 36.6627 44.9191 36.8864C44.9191 36.9924 44.9428 37.0866 44.9546 37.1809C44.9782 37.3575 45.0137 37.4988 44.9901 37.6991C45.061 37.6637 45.1319 37.6402 45.2146 37.6284C45.3683 37.44 45.4511 37.3457 45.5338 37.2751C45.5693 37.2398 45.6047 37.2162 45.652 37.1926C45.7702 37.122 45.9239 37.0395 46.0539 36.9689C46.6095 36.6862 47.2005 36.4271 47.7679 36.1091C48.879 35.4496 50.0966 34.8725 51.2195 34.0717C51.3495 33.9657 51.4796 33.8714 51.6214 33.7772L51.8342 33.6477L52.1888 33.4357C52.6734 33.153 53.1699 32.8822 53.6545 32.6231C53.9619 33.1766 54.2574 33.7301 54.5529 34.2601L54.7302 34.5663L54.8721 34.8018C54.9666 34.9667 55.073 35.1198 55.1794 35.2729C55.7232 36.6273 56.5151 37.8757 57.4371 39.0888C57.7327 39.7954 58.1227 40.4432 58.5365 41.1027C58.7492 41.4325 58.962 41.7505 59.1748 42.0802L59.4939 42.5749L59.6594 42.8457L59.9195 43.2933C60.1204 43.7526 60.3214 44.1766 60.5341 44.5888C60.0377 44.8361 59.5885 45.0952 59.1275 45.3543L58.7847 45.5545L58.5719 45.6841L58.1582 45.955C57.6145 46.3201 57.0707 46.6969 56.5151 47.0738C55.8295 47.5331 55.1085 47.9335 54.3756 48.334C54.0092 48.5342 53.6427 48.7344 53.2763 48.9464C53.099 49.0524 52.9099 49.1584 52.7325 49.2644L52.6734 49.2997H52.6616L52.638 49.335C52.6143 49.3468 52.6025 49.3586 52.5907 49.3822C52.4843 49.4293 52.3661 49.4881 52.2834 49.547C52.4134 49.6177 52.5552 49.6648 52.6616 49.7119H52.6971L52.7207 49.7355L52.8153 49.7944L53.2054 50.0181C53.4654 50.1712 53.7255 50.3243 53.9855 50.4892C55.5813 51.2312 57.1416 52.0792 58.6192 53.1273L58.7965 53.2098L59.0211 53.3275L59.6476 53.6809C60.0731 53.9164 60.4987 54.152 60.9242 54.3993C60.6169 54.9175 60.3214 55.4475 60.014 55.9657C59.8131 56.3072 59.6121 56.6487 59.3994 57.0021C59.0684 57.5674 58.7256 58.1209 58.3946 58.698C57.579 60.3586 56.5151 61.9132 55.5931 63.562C55.3804 63.9507 55.1558 64.3275 54.9194 64.6926C54.5175 65.3404 54.1156 65.9882 53.7018 66.6359C53.3118 66.4004 52.9099 66.153 52.5198 65.9175L51.9406 65.5759L51.5623 65.3522C51.1131 65.1049 50.6403 64.8811 50.1438 64.7044C49.2927 64.2451 48.4535 63.7387 47.6142 63.244C47.1887 62.9967 46.775 62.7494 46.3494 62.5021L45.7111 62.137L45.5693 62.0545H45.5456C45.5456 62.0545 45.522 62.031 45.4983 62.031C45.4392 61.9839 45.3801 61.9368 45.2974 61.8779C45.2974 61.925 45.2974 61.9721 45.2856 62.031V62.1134V62.2665C45.2856 62.9967 45.3092 63.7387 45.3447 64.4807C45.1674 65.4817 45.1437 66.4828 45.1674 67.4956C45.1792 68.0021 45.2146 68.5085 45.2383 69.0149V69.2033L45.2619 69.2976V69.4624L45.2974 70.1691C45.321 70.652 45.3328 71.1348 45.3565 71.6177C44.8837 71.6177 44.399 71.6413 43.9262 71.653C43.5361 71.653 43.1342 71.653 42.7441 71.6766C42.2358 71.6766 41.7276 71.6766 41.2193 71.6766C40.2027 71.6766 39.198 71.6413 38.1932 71.6177C37.1885 71.6295 36.1837 71.6413 35.1908 71.6413C33.8787 71.6413 32.5784 71.6295 31.29 71.6177H30.959C30.959 71.1819 30.9472 70.7344 30.9353 70.2869V69.6038V69.1091C30.9353 68.638 30.959 68.1552 30.9826 67.6841C31.0181 66.7419 31.0417 65.7997 30.9708 64.8575C30.9117 64.0567 30.9235 63.2558 30.959 62.455V62.3019V62.2312V62.1959V62.1487C30.959 62.1487 30.9826 62.0781 30.9945 62.0428C31.0063 61.9721 31.0181 61.8896 31.0181 61.819C30.9708 61.8543 30.9117 61.9014 30.8644 61.9485C30.829 61.9839 30.8053 62.0074 30.7817 62.031C30.7344 62.0663 30.829 62.031 30.5453 62.1959C30.1434 62.4432 29.7415 62.6905 29.3396 62.926C28.5239 63.3971 27.7083 63.8329 26.8572 64.2215C26.278 64.5513 25.687 64.8457 25.1078 65.1402L24.6704 65.3639L24.4458 65.4817L24.0676 65.6819C23.5711 65.9528 23.0865 66.2237 22.6018 66.5064C22.3772 66.1177 22.1526 65.7526 21.9044 65.3757L21.538 64.8104C21.467 64.6926 21.4316 64.6691 21.3961 64.6102L21.2779 64.4571C20.3204 62.9378 19.0911 61.5834 18.6301 59.8404C18.1336 59.1102 17.7554 58.3329 17.3653 57.5674C17.1643 57.1787 16.9752 56.8018 16.7624 56.4368L16.5497 56.0834L16.266 55.6006C16.065 55.2826 15.8641 54.9646 15.6395 54.6231C15.604 54.5524 15.5804 54.4817 15.5449 54.3993C16.2778 54.0695 16.8925 53.7515 17.4835 53.4218C17.8381 53.2333 18.1927 53.0213 18.5355 52.7976C19.2211 52.3618 19.8713 51.8907 20.5687 51.5021C21.2897 51.1252 22.0226 50.7601 22.7318 50.3714C22.9092 50.2772 23.0865 50.1712 23.252 50.077L23.512 49.9239L23.642 49.8532L23.6775 49.8297H23.7011C23.8075 49.7472 23.8903 49.6648 23.9257 49.6059C23.9494 49.5588 23.973 49.5353 24.0085 49.4999C23.8548 49.4293 23.7957 49.3586 23.6657 49.2526L23.642 49.229C23.642 49.229 23.642 49.229 23.5948 49.1937L23.3938 49.0642L22.9919 48.8168C22.72 48.652 22.4482 48.4989 22.1763 48.3457C20.7696 47.7687 19.7176 46.6263 18.3464 46.1081C18.1809 46.0138 18.0272 45.9078 17.8618 45.8136C17.6726 45.7076 17.4953 45.6016 17.3062 45.4956C16.7624 45.1894 16.2305 44.8832 15.6868 44.577C15.9705 44.0941 16.2423 43.6113 16.526 43.1284L16.727 42.7869L16.857 42.5749C16.9516 42.4335 17.0343 42.2922 17.1171 42.1627C17.4008 40.7376 18.4764 39.819 19.162 38.7237C19.8713 37.6402 20.1668 36.3565 21.0888 35.4849C21.1361 35.2729 21.207 35.0727 21.2897 34.8843C21.3252 34.7901 21.3725 34.6959 21.4198 34.6016L21.4907 34.4603L21.5734 34.319C21.9162 33.7183 22.2945 33.153 22.6373 32.6584C23.181 33.0235 23.6775 33.365 24.1385 33.6712C24.3513 33.8126 24.4222 33.8597 24.564 33.9421C24.6823 34.0128 24.8005 34.0834 24.9305 34.1541C25.1787 34.2836 25.4269 34.4132 25.6634 34.531C26.148 34.7783 26.6208 35.0374 27.0227 35.3907C28.0629 35.6969 28.7367 36.5331 29.6114 36.9335C29.8006 37.0866 29.9897 37.228 30.1907 37.3457L30.3443 37.44L30.4743 37.5106C30.5335 37.546 30.5926 37.5813 30.6635 37.6048C30.9117 37.7344 31.1127 37.8168 31.3491 37.9817C31.4082 38.0053 31.4673 38.0288 31.5146 38.0524C31.4909 37.5813 31.5146 37.2751 31.5855 36.8511C31.6091 36.0856 31.6209 35.3672 31.6446 34.7076C31.7628 30.6916 31.8928 28.4892 32.0228 28.4892L31.9874 28.4657Z" fill="#0061EF"/>
</g>
<defs>
<clipPath id="clip0_1032_14130">
<rect width="102" height="99" fill="white"/>
</clipPath>
</defs>
</svg>
