<svg width="96" height="110" viewBox="0 0 96 110" fill="none" xmlns="http://www.w3.org/2000/svg">
<rect y="33.8364" width="70.9508" height="67.6762" rx="33.8381" fill="#FFFDD2"/>
<rect x="37.1133" y="11.6223" width="39.1678" height="72.4012" transform="rotate(-17.2612 37.1133 11.6223)" fill="#FFFDD2"/>
<g clip-path="url(#clip0_1032_13941)">
<path d="M32.6142 42.2527C32.5815 42.1436 31.8283 42.2855 30.4639 42.6457C30.2347 42.7003 29.9945 42.7876 29.7325 42.864C29.4706 42.9295 29.1868 43.0059 28.903 43.1369C28.6847 43.3989 28.2044 43.1151 27.997 43.4753C27.7241 43.6827 27.3639 43.77 27.0146 43.8901C26.6653 44.021 26.3815 44.3158 25.9667 44.3922C25.4646 44.3376 25.4209 45.0799 24.8642 44.9925C24.6568 45.0799 24.4604 45.1781 24.2748 45.2982C24.0892 45.4182 23.9037 45.5601 23.7181 45.6911C23.6526 45.8003 23.5762 45.8876 23.4889 45.964C23.4016 46.0404 23.3033 46.1059 23.1942 46.1605C22.9868 46.2696 22.7466 46.357 22.5392 46.488C22.3209 47.0119 21.8516 47.2084 21.3494 47.4049C21.273 47.7214 21.1311 47.9397 20.9237 48.1034C20.7273 48.2672 20.4653 48.3763 20.1378 48.4309C19.9304 48.6056 19.7667 48.8239 19.5811 49.0313C19.4938 49.1295 19.3956 49.2277 19.2864 49.326C19.1882 49.4242 19.0681 49.5116 18.948 49.577C18.5332 49.9591 18.1075 50.352 17.7801 50.8432C17.2234 51.138 16.8413 51.6182 16.6558 52.2404C16.361 52.4042 16.1537 52.6334 15.9899 52.8954C15.8262 53.1573 15.6952 53.4521 15.586 53.7577C15.3677 54.358 14.7237 54.7183 14.5818 55.3841C14.4399 55.6679 14.2653 55.9517 14.1015 56.2355C13.9487 56.5193 13.7959 56.814 13.6758 57.1306C13.5012 57.7855 13.3484 58.4404 12.879 58.9862C12.7153 59.2919 12.5734 59.6084 12.4533 59.9249C12.3223 60.2415 12.235 60.5799 12.2022 60.9401C12.0822 61.082 11.9839 61.2348 11.9184 61.3985C11.8529 61.5623 11.7984 61.726 11.7547 61.9007C11.722 62.0753 11.6892 62.25 11.6783 62.4246C11.6783 62.5992 11.6674 62.7848 11.6674 62.9704C11.6237 63.145 11.5801 63.3088 11.5582 63.4943C11.5255 63.669 11.5146 63.8545 11.5037 64.0292C11.46 64.3894 11.4054 64.7387 11.2853 65.088C11.2635 65.4482 11.1653 65.7975 11.1216 66.1577C11.067 66.5179 11.0124 66.8781 11.0561 67.2493C11.0889 67.9915 11.1544 68.701 10.9906 69.4214C10.9142 69.7817 10.947 70.1419 10.9906 70.5021C11.0452 70.8623 11.0779 71.2116 11.0889 71.5609C11.2635 71.8993 11.2744 72.2486 11.2635 72.6088C11.2635 72.7834 11.2526 72.9581 11.2635 73.1327C11.2635 73.3074 11.2963 73.482 11.3508 73.6457C11.3945 73.995 11.4927 74.3225 11.5801 74.6609C11.6237 74.8246 11.6565 74.9993 11.6892 75.163C11.722 75.3267 11.7547 75.5014 11.7547 75.676C11.8748 76.3419 11.9621 77.0296 12.2896 77.619C12.1913 78.001 12.3223 78.3067 12.4751 78.6014L12.6061 78.8197C12.6498 78.8852 12.6934 78.9616 12.748 79.0271C12.8353 79.169 12.9118 79.3109 12.9445 79.4746C13.141 79.7475 13.2501 80.0422 13.3484 80.3479C13.392 80.5007 13.4466 80.6535 13.5012 80.7954C13.5558 80.9373 13.6213 81.0901 13.6977 81.2211C13.7959 81.5158 13.9706 81.7887 14.1343 82.0507L14.2544 82.2472C14.298 82.3127 14.3417 82.3782 14.3744 82.4436C14.4508 82.5746 14.5054 82.7165 14.5491 82.8694C14.8765 83.3824 15.0075 84.0046 15.4769 84.4084C15.5424 84.7141 15.7389 84.9324 15.9353 85.1507C16.0336 85.2599 16.1318 85.369 16.2192 85.4782C16.3174 85.5873 16.3938 85.7074 16.4484 85.8384C16.6121 86.0676 16.7758 86.2859 16.9396 86.5151C17.1033 86.7334 17.267 86.9518 17.4635 87.1482C18.0639 87.3556 18.1949 87.9342 18.5114 88.338C18.8934 88.6873 19.079 89.2004 19.5811 89.3968C19.6684 89.4842 19.7667 89.5606 19.854 89.637C19.9522 89.7025 20.0505 89.7789 20.1487 89.8444C20.3343 89.9863 20.5089 90.1391 20.6399 90.3465C20.7927 90.5211 21.0438 90.5866 21.2512 90.6849C21.4586 90.7831 21.6551 90.8923 21.6769 91.1979C21.9716 91.5363 22.5392 91.4708 22.6811 91.9511C22.8558 92.3986 23.347 92.3877 23.6526 92.5842C23.9692 92.7916 24.2639 92.988 24.5586 93.1409C25.8794 93.9159 26.9928 94.3525 27.7459 94.6581C28.4991 94.9637 28.9248 95.0838 28.9575 95.0074C29.0012 94.9201 28.5646 94.5926 27.735 94.0578C27.3202 93.7958 26.7963 93.4792 26.1959 93.1081C25.9012 92.9116 25.5956 92.6933 25.2681 92.4641C25.1044 92.3549 24.9297 92.2349 24.7551 92.1148C24.5913 91.9838 24.4167 91.8528 24.242 91.7109C23.9582 91.4926 23.7836 91.0997 23.3579 91.0342C23.0523 90.794 22.8558 90.4011 22.4519 90.2482C22.3864 89.9972 22.2336 89.8662 22.048 89.7461C21.8734 89.6261 21.6769 89.5278 21.5023 89.375C21.3494 89.2222 21.1639 89.0803 21.0001 88.9384C20.9128 88.862 20.8255 88.7856 20.7491 88.7092C20.6727 88.6218 20.6072 88.5236 20.5417 88.4254C20.3452 87.9669 19.8322 87.8032 19.5811 87.3665C19.1336 87.1155 18.8389 86.6898 18.6424 86.1986C18.4023 86.0676 18.2604 85.8384 18.1294 85.6091C17.9984 85.3799 17.8892 85.1398 17.7255 84.9215C17.5945 84.856 17.4744 84.7687 17.3871 84.6704C17.2889 84.5722 17.2234 84.4521 17.1579 84.332C17.0378 84.081 16.9505 83.8081 16.8522 83.5461C16.623 83.0331 16.2519 82.6074 16.0227 82.0725C15.9463 81.9525 15.8698 81.8324 15.8044 81.7014L15.7061 81.5049C15.6734 81.4394 15.6515 81.3739 15.6188 81.2975C15.5096 81.0246 15.4005 80.7517 15.2586 80.5007C15.2258 80.3479 15.1822 80.206 15.1385 80.0641L14.9966 79.6384C14.8984 79.3546 14.7674 79.0926 14.5818 78.8306C14.5491 78.6778 14.5054 78.5359 14.4508 78.394L14.3744 78.1757L14.298 77.9574C14.1998 77.6627 14.0906 77.3788 13.9924 77.0841C13.8941 76.4619 13.654 75.8834 13.523 75.2503C13.5012 75.0975 13.4466 74.9447 13.392 74.7919C13.3375 74.6391 13.2938 74.4862 13.2392 74.3334C13.141 74.0278 13.0755 73.7003 13.1737 73.3619C13.1628 73.1982 13.1301 73.0345 13.1082 72.8817C13.0864 72.7179 13.0646 72.5542 13.0427 72.3905C12.9991 72.063 12.9554 71.7355 12.9554 71.4081C12.8899 71.0806 12.879 70.7422 12.8572 70.4148C12.8463 70.0764 12.8463 69.7489 12.8681 69.4105C12.5625 68.7338 12.7698 68.0461 12.9336 67.3693C13.0646 66.6926 13.0973 66.0158 13.1519 65.339C13.2174 65.0116 13.272 64.6732 13.3375 64.3457C13.3702 64.182 13.392 64.0183 13.4248 63.8545C13.4575 63.6908 13.4903 63.5271 13.523 63.3633C13.5776 63.2105 13.6213 63.0468 13.654 62.8831C13.6867 62.7193 13.7195 62.5556 13.7413 62.4028C13.7741 62.239 13.7959 62.0753 13.8396 61.9225C13.8832 61.7697 13.9378 61.6059 14.0142 61.464C14.167 61.1693 14.2325 60.8528 14.3089 60.5362C14.3853 60.2197 14.4508 59.9031 14.6255 59.6302C14.9311 59.0626 15.2258 58.5168 15.3459 57.8837C15.4769 57.5999 15.5533 57.2943 15.6625 56.9996C15.7716 56.7158 15.9135 56.432 16.1755 56.2355C16.5248 55.7334 17.1142 55.4059 17.0815 54.6855C17.278 54.4563 17.4089 54.1943 17.5399 53.9323C17.6709 53.6704 17.8128 53.4084 18.053 53.2337C18.1403 52.5897 18.7406 52.3278 19.079 51.8911C19.3956 51.4327 19.6794 50.9524 20.1487 50.6577C20.2688 50.5813 20.367 50.4939 20.4544 50.4066C20.5417 50.3193 20.629 50.2101 20.7163 50.1119C20.8801 49.9045 21.0329 49.6862 21.2294 49.5334C21.4804 49.4242 21.6223 49.2168 21.7751 48.9985C21.928 48.7911 22.0808 48.5946 22.3318 48.5073C22.6702 48.158 23.0959 47.9179 23.4234 47.5795C23.7399 47.6013 23.9146 47.4704 24.0674 47.2957C24.1438 47.2084 24.2093 47.1101 24.2748 47.0119C24.3403 46.9137 24.4167 46.8263 24.504 46.7608C24.6678 46.608 24.8861 46.5534 25.0825 46.4552C25.279 46.3679 25.4646 46.2696 25.5519 46.0295C26.0649 46.0732 26.2723 45.6475 26.567 45.3855C26.8618 45.1126 27.2984 45.1453 27.5385 44.8288C27.9533 44.8615 28.1171 44.414 28.4445 44.3376C28.6737 44.0647 29.034 44.0756 29.285 43.9228C29.5797 43.8464 29.8308 43.7372 30.0491 43.5735C30.2892 43.4644 30.5076 43.3552 30.7259 43.2679C32.003 42.7221 32.7016 42.3619 32.6688 42.2527H32.6142Z" fill="#0061EF"/>
<path d="M32.8215 47.1212C32.8215 47.1212 32.636 47.0666 32.3522 47.0993C32.0574 47.1321 31.6427 47.1976 31.075 47.3395C30.9768 47.3722 30.8677 47.3941 30.7694 47.4268C30.6712 47.4705 30.5838 47.5032 30.4856 47.5469C30.2782 47.6233 30.0599 47.6888 29.8525 47.8198C29.7106 48.0708 29.274 47.7979 29.1539 48.1363C28.9574 48.3328 28.6845 48.4201 28.4117 48.5402C28.2698 48.5948 28.1497 48.693 28.0296 48.7803C27.9095 48.8676 27.7786 48.955 27.6039 48.9877C27.1782 48.9331 27.2655 49.6317 26.7634 49.5226C26.5997 49.5881 26.4469 49.6754 26.305 49.7845C26.1631 49.8937 26.0321 50.0138 25.9011 50.1448C25.7592 50.5486 25.3226 50.6141 25.006 50.8324C24.9078 51.3018 24.5367 51.4765 24.1109 51.6293C24.0673 52.1641 23.7616 52.4261 23.205 52.5025C22.9102 52.8081 22.7028 53.212 22.3099 53.4631C22.0152 53.8015 21.6659 54.1071 21.4366 54.5219C20.9673 54.7511 20.6944 55.155 20.5962 55.6789C20.105 55.93 19.9521 56.4321 19.8102 56.9233C19.7775 57.0543 19.7229 57.1634 19.6465 57.2617C19.581 57.3708 19.4937 57.4691 19.4173 57.5673C19.2535 57.7747 19.1007 57.9821 19.0789 58.255C19.0243 58.3751 18.9697 58.4842 18.9043 58.5934C18.8388 58.7025 18.7733 58.8226 18.7296 58.9427C18.6204 59.1719 18.5113 59.412 18.424 59.6631C18.3694 59.9251 18.3257 60.187 18.2384 60.449C18.162 60.7001 18.0528 60.9511 17.8454 61.1585C17.7254 61.4096 17.6053 61.6497 17.5071 61.9117C17.4197 62.1737 17.3652 62.4465 17.3652 62.7303C17.1578 62.9596 17.0486 63.2215 16.994 63.4944C16.9613 63.6363 16.9613 63.7782 16.9613 63.9201C16.9613 64.062 16.9722 64.2149 16.9831 64.3568C16.8303 64.9025 16.9176 65.492 16.7102 66.0377C16.6993 66.6163 16.4373 67.173 16.5574 67.7624C16.5902 68.0571 16.6229 68.3409 16.6229 68.6356C16.6229 68.7775 16.6229 68.9194 16.6011 69.0613C16.6011 69.2032 16.5683 69.3451 16.5356 69.487C16.4483 69.7708 16.481 70.0656 16.5356 70.3494C16.5574 70.4913 16.5792 70.6332 16.6011 70.7751C16.6229 70.917 16.6447 71.0589 16.6447 71.2008C16.8085 71.4628 16.8194 71.7466 16.8085 72.0304C16.8085 72.3142 16.7539 72.598 16.863 72.8599C16.8958 73.1328 16.9831 73.3948 17.0595 73.6568C17.0923 73.7878 17.125 73.9187 17.1469 74.0497C17.1687 74.1807 17.1796 74.3226 17.1796 74.4536C17.2669 74.9885 17.3433 75.5233 17.5944 76.0036C17.3652 76.6258 18.031 76.9751 18.1074 77.4772C18.4567 77.892 18.4676 78.4268 18.6969 78.8744C18.7514 79.1254 18.9152 79.3219 19.0571 79.5293C19.199 79.7367 19.33 79.9441 19.3627 80.1952C19.5919 80.6209 19.712 81.1012 20.0722 81.4286C20.105 81.6797 20.2578 81.8652 20.4106 82.029C20.5852 82.1927 20.7599 82.3455 20.8254 82.5747C20.9564 82.7603 21.0764 82.9459 21.1965 83.1205C21.262 83.2078 21.3275 83.2952 21.393 83.3825C21.4585 83.4589 21.5349 83.5462 21.6113 83.6226C22.1352 83.7645 22.1789 84.2557 22.419 84.5832C22.7138 84.867 22.8229 85.3036 23.2377 85.4455C23.3796 85.5765 23.5324 85.6966 23.6743 85.8167C23.8271 85.9367 23.9581 86.0568 24.0455 86.2314C24.2747 86.5262 24.875 86.3843 24.8423 86.9409C25.0606 87.2248 25.5736 87.1265 25.6282 87.5522C25.7046 87.9561 26.1194 87.9452 26.3705 88.098C26.6215 88.2617 26.8507 88.4145 27.08 88.5564C27.211 88.6329 27.331 88.7202 27.4511 88.7966C27.5712 88.873 27.7022 88.9385 27.8113 89.004C28.0515 89.135 28.2698 89.255 28.4772 89.3642C28.6845 89.4734 28.8701 89.5825 29.0557 89.6589C29.2412 89.7353 29.405 89.8008 29.5578 89.8663C30.1581 90.1064 30.4965 90.1938 30.5402 90.1174C30.5838 90.03 30.2564 89.7462 29.6233 89.3096C29.2958 89.1022 28.9247 88.7966 28.4772 88.4691C28.0187 88.1526 27.5493 87.7269 26.9926 87.2902C26.7634 87.1156 26.6979 86.7445 26.3377 86.7008C26.1085 86.5043 25.9775 86.1769 25.6391 86.0568C25.6064 85.6093 25.2025 85.5547 24.9405 85.3255C24.8205 85.1945 24.6786 85.0962 24.5476 84.9762C24.4166 84.8561 24.3074 84.7142 24.231 84.5395C24.1219 84.1466 23.6634 84.0483 23.5106 83.6772C23.1286 83.4916 22.9212 83.1423 22.812 82.7276C22.7138 82.673 22.6374 82.6075 22.5719 82.5311C22.5064 82.4547 22.4627 82.3564 22.419 82.2691C22.3317 82.0835 22.2553 81.8762 22.1352 81.7124C21.906 81.6142 21.7641 81.4504 21.6659 81.254C21.5785 81.0575 21.5349 80.8283 21.4803 80.61C21.3493 80.1842 20.9891 79.8786 20.8581 79.442C20.7381 79.2564 20.6507 79.0381 20.5634 78.8307C20.4761 78.6124 20.3888 78.405 20.2796 78.1976C20.225 77.7173 20.0831 77.2698 19.7666 76.8878C19.7011 76.4075 19.4828 75.9709 19.33 75.5124C19.3081 75.0103 19.068 74.5628 18.9697 74.0716C18.9479 73.9515 18.9152 73.8314 18.8715 73.7113C18.8278 73.5913 18.7842 73.4712 18.7405 73.3511C18.6532 73.111 18.5986 72.8599 18.6969 72.5871C18.6641 72.336 18.6314 72.0849 18.5877 71.823C18.555 71.5719 18.5113 71.3099 18.5113 71.048C18.4895 70.917 18.4567 70.786 18.4458 70.6659C18.4349 70.5349 18.424 70.4039 18.413 70.273C18.4021 70.011 18.4021 69.749 18.4349 69.4761C18.3585 69.3451 18.3039 69.2142 18.2821 69.0832C18.2602 68.9522 18.2712 68.8103 18.2821 68.6793C18.3148 68.4064 18.4021 68.1444 18.4676 67.8825C18.555 67.3476 18.5986 66.8237 18.5986 66.2888C18.675 65.7649 18.7623 65.2518 18.8388 64.7388C18.8824 64.6187 18.9152 64.4877 18.9261 64.3568C18.937 64.2258 18.9479 64.0948 18.9697 63.9747C19.0025 63.7237 19.0462 63.4617 19.1771 63.2325C19.3081 63.0032 19.33 62.7522 19.3627 62.4902C19.4173 62.2391 19.4609 61.9881 19.6028 61.7698C19.7229 61.5515 19.8321 61.3222 19.9194 61.093C20.0176 60.8638 20.094 60.6346 20.1159 60.3835C20.2141 60.1543 20.2469 59.9032 20.3014 59.6631C20.3233 59.543 20.3669 59.4339 20.4324 59.3247C20.4979 59.2265 20.5743 59.1282 20.6944 59.0518C20.8254 58.8553 21.0219 58.6916 21.1638 58.4951C21.2293 58.3969 21.2838 58.2986 21.3166 58.1895C21.3493 58.0803 21.3602 57.9494 21.3275 57.7965C21.4912 57.6219 21.5676 57.4036 21.644 57.1853C21.7314 56.967 21.8078 56.7486 22.0152 56.6177C22.0152 56.0828 22.5173 55.8754 22.7574 55.5152C22.9757 55.1331 23.1722 54.7402 23.5324 54.5C23.8926 54.2599 24.0236 53.8233 24.3293 53.5613C24.7222 53.3867 24.7004 52.8081 25.1261 52.6881C25.3771 52.3934 25.6937 52.186 25.9229 51.8912C26.4687 51.9677 26.4796 51.4328 26.7198 51.1817C26.8398 51.0507 27.0145 50.9962 27.1564 50.9198C27.3092 50.8434 27.4511 50.756 27.4948 50.5377C27.9423 50.6032 28.0405 50.2103 28.2479 49.9592C28.3462 49.8282 28.4881 49.7736 28.63 49.7191C28.7719 49.6645 28.8919 49.599 28.9684 49.4462C29.3176 49.4898 29.3722 49.0532 29.6342 48.9877C29.787 48.7257 30.0817 48.7476 30.2673 48.6057C30.4965 48.5402 30.6821 48.431 30.8349 48.2564C30.9222 48.2018 31.0096 48.1472 31.0969 48.0926C31.1842 48.049 31.2497 48.0162 31.3261 47.9726C31.8064 47.7543 32.2103 47.5796 32.4722 47.4377C32.7342 47.2958 32.8652 47.1867 32.8434 47.1321L32.8215 47.1212Z" fill="#0061EF"/>
<path d="M53.6607 35.9217C53.5516 35.9545 53.6607 36.7841 53.9554 38.2686C53.9991 38.5196 54.0646 38.7816 54.1192 39.0654C54.1628 39.3492 54.2174 39.6548 54.3047 39.9714C54.534 40.2443 54.2065 40.6918 54.523 40.9756C54.6868 41.3031 54.7195 41.6851 54.7741 42.0781C54.8287 42.471 55.0797 42.8313 55.047 43.2788C54.8723 43.77 55.5928 44.032 55.3526 44.5668C55.3963 45.0362 55.5382 45.4837 55.6801 45.9422C56.0294 46.357 55.942 46.9027 56.0294 47.4049C56.4223 47.8306 56.4442 48.3763 56.4005 48.9439C56.9026 49.3697 56.9899 49.9263 56.8044 50.5594C56.8699 50.8323 56.979 51.1052 57.0663 51.3781C57.11 51.52 57.1537 51.6619 57.1755 51.8038C57.1864 51.8802 57.1973 51.9457 57.2083 52.0221C57.2083 52.0549 57.2083 52.0985 57.2083 52.1313V52.1531V52.1859C57.2083 52.2732 57.2192 52.3387 57.2083 52.4042C57.2083 52.426 57.2083 52.4369 57.2083 52.4587V52.4806C57.2083 52.4806 57.2082 52.4915 57.1973 52.4915C57.1646 52.4915 57.1318 52.5024 57.11 52.5242C57.0227 52.4587 56.979 52.4151 56.9463 52.3823L56.9135 52.3496H56.848H56.728C56.4114 52.3496 56.0949 52.4042 55.7783 52.5024C55.1452 52.2295 54.4903 52.3387 53.8354 52.4806C53.1804 52.6334 52.5037 52.2404 51.8269 52.4587C51.1501 52.4697 50.4625 52.3932 49.7639 52.4369C49.0653 52.5461 48.3667 52.6661 47.6463 52.426C46.9368 52.3605 46.2163 52.2732 45.485 52.4151C44.7536 52.1313 44.0223 52.2513 43.2801 52.4151C42.9089 52.3932 42.5378 52.426 42.1667 52.4587C41.9811 52.4697 41.7955 52.4806 41.61 52.4806C41.5117 52.4806 41.4244 52.4806 41.3262 52.4587C41.2279 52.4587 41.1406 52.4369 41.0533 52.4042C40.7149 52.4042 40.3765 52.3823 40.0491 52.2841C39.8853 52.2404 39.7216 52.2186 39.547 52.1859C39.3832 52.1422 39.2195 52.1204 39.0448 52.0985C38.8702 52.0876 38.7065 52.044 38.5427 52.0003C38.379 51.9566 38.2043 51.913 38.0515 51.8475C37.7459 51.7056 37.4293 51.5528 37.1892 51.2908C37.0691 51.1598 36.9272 51.0725 36.7962 50.9742C36.6653 50.876 36.5234 50.7778 36.3815 50.6904C36.2286 50.614 36.1086 50.5049 35.9667 50.4066C35.8357 50.2975 35.7047 50.1992 35.6065 50.0682C35.2899 49.9154 35.0607 49.6535 34.9079 49.3587C34.8315 49.2168 34.7441 49.064 34.6677 48.9221C34.5913 48.7693 34.5149 48.6274 34.4057 48.5073C34.3621 48.4309 34.3184 48.3654 34.2857 48.2999C34.2529 48.2235 34.2093 48.158 34.1656 48.0816C34.0783 47.9397 34.0019 47.7978 33.9145 47.6559C33.8491 47.5031 33.7836 47.3612 33.729 47.2084C33.7072 47.132 33.6853 47.0556 33.6635 46.9792C33.6417 46.9027 33.6417 46.8154 33.6417 46.739C33.6089 46.5862 33.5871 46.4225 33.5543 46.2696C33.5216 46.1168 33.5216 45.9531 33.4998 45.8003C33.4779 45.6475 33.4452 45.4946 33.4233 45.3309C33.4015 45.1781 33.3797 45.0253 33.3469 44.8615C33.3906 44.7851 33.4233 44.7087 33.4452 44.6323C33.467 44.5559 33.4888 44.4795 33.4998 44.4031C33.5216 44.2503 33.4998 44.0975 33.4779 43.9446L33.4561 43.8246V43.7045C33.4343 43.6281 33.4343 43.5517 33.4343 43.4753C33.4343 43.3225 33.4343 43.1696 33.4779 43.0168C33.4779 42.864 33.4888 42.7112 33.5216 42.5584C33.5543 42.4056 33.5871 42.2637 33.6635 42.1218C33.7945 41.8489 33.9145 41.576 34.0346 41.3031C34.1219 41.183 34.1765 41.0411 34.2311 40.9101C34.2966 40.7791 34.3512 40.6372 34.4167 40.5063C34.4822 40.3753 34.5367 40.2334 34.6241 40.1133C34.7114 39.9932 34.8096 39.8841 34.9297 39.7967C34.9734 39.7313 35.017 39.6767 35.0607 39.6221C35.1043 39.5675 35.1589 39.5239 35.2135 39.4693C35.3117 39.371 35.4209 39.2728 35.5191 39.1746C35.6174 39.0763 35.7265 38.989 35.8248 38.8908C35.923 38.7925 36.0103 38.6834 36.0977 38.5524C36.3815 38.4541 36.5779 38.2686 36.7635 38.0612C36.9709 37.8756 37.1783 37.6791 37.4512 37.6136C37.6913 37.5045 37.9315 37.3735 38.1716 37.2753C38.4227 37.1879 38.6628 37.0788 38.9029 36.9805C39.1103 36.7622 39.3614 36.6749 39.6234 36.6531C39.8853 36.6531 40.1473 36.6749 40.3984 36.6531C40.6494 36.6203 40.8896 36.6531 41.1406 36.664C41.4026 36.6858 41.6646 36.6858 41.9156 36.5767C42.4286 36.5548 42.9308 36.4129 43.422 36.5439C43.9132 36.5876 44.3825 36.0746 44.841 36.5003C45.2994 36.5767 45.747 36.1728 46.1727 36.4566C46.5984 36.7186 47.0132 36.4239 47.4061 36.4129C47.7991 36.402 48.1811 36.3802 48.5413 36.3693C51.7942 36.2274 53.6498 36.0636 53.6498 35.889C53.6498 35.6925 51.3466 35.5179 47.4061 35.365C47.0132 35.3541 46.5984 35.1249 46.1727 35.3214C45.747 35.3214 45.2994 35.1467 44.841 35.2777C44.3825 34.983 43.9132 35.2231 43.422 35.2341C42.9308 35.2231 42.4286 35.3105 41.9156 35.1904C41.6536 35.1031 41.4026 35.1249 41.1297 35.1577C40.8459 35.2013 40.5621 35.245 40.2565 35.2013C39.9727 35.3214 39.6889 35.4087 39.3941 35.4415C39.0994 35.4851 38.7938 35.5179 38.4772 35.5179C38.2043 35.6925 37.9205 35.8017 37.6149 35.8781C37.3093 35.9654 37.0036 36.0746 36.7198 36.2165C36.5015 36.4893 36.2505 36.6858 35.9557 36.8277C35.6829 37.0024 35.3663 37.1334 35.0716 37.2971C34.9297 37.3844 34.7987 37.4936 34.6677 37.6136C34.5367 37.7337 34.4167 37.8429 34.3075 37.9739C34.1983 38.1048 34.0892 38.2358 33.9691 38.3668C33.9145 38.4323 33.8491 38.4978 33.7945 38.5633C33.7399 38.6288 33.6853 38.6943 33.6198 38.7598C33.5216 38.9017 33.4233 39.0436 33.3142 39.1855C33.205 39.3274 33.1177 39.4802 33.0086 39.6221C32.9103 39.7749 32.8012 39.9168 32.7138 40.0696C32.6265 40.2334 32.5501 40.3971 32.4846 40.5608C32.2554 40.8556 32.1026 41.1939 31.9607 41.5323C31.8843 41.707 31.8515 41.8925 31.8188 42.0781C31.786 42.2637 31.7642 42.4492 31.7642 42.6457C31.7096 42.8203 31.666 43.0059 31.6332 43.1915L31.5895 43.4753L31.5677 43.6172V43.7591C31.5677 43.9556 31.5568 44.1411 31.5459 44.3267C31.5459 44.4249 31.5459 44.5232 31.5459 44.6105L31.5677 44.8943C31.5459 45.0908 31.5459 45.2763 31.5568 45.4728C31.5568 45.6693 31.6114 45.8549 31.6441 46.0513C31.6878 46.2478 31.7096 46.4334 31.7642 46.6299C31.8188 46.8154 31.8733 47.0119 31.917 47.1975C31.9388 47.2957 31.9607 47.3939 31.9934 47.4813C32.0262 47.5686 32.0698 47.6668 32.1135 47.7542C32.2008 47.9288 32.2991 48.1035 32.3864 48.289C32.4846 48.4637 32.5829 48.6274 32.6593 48.813C32.7029 48.9003 32.7357 48.9985 32.7575 49.0968C32.7793 49.195 32.8121 49.2932 32.8339 49.4024C32.9321 49.577 33.0304 49.7517 33.1395 49.9263C33.2487 50.101 33.3797 50.2538 33.5107 50.4066C33.7508 50.7341 34.0455 51.0179 34.2966 51.3454C34.9079 51.8911 35.5628 52.3932 36.2395 52.8735C36.6653 52.9718 37.0582 53.1028 37.4184 53.3102C37.604 53.4084 37.7896 53.4957 37.9751 53.594C38.1607 53.6922 38.3462 53.8013 38.5536 53.8778C38.7501 53.9542 38.9575 54.0197 39.1649 54.0742C39.3723 54.1288 39.5797 54.1506 39.7871 54.1834C40.2019 54.2598 40.6276 54.238 41.0533 54.238C41.1624 54.238 41.2498 54.2489 41.348 54.2489H41.6318C41.8174 54.2489 42.0029 54.2489 42.1885 54.2489C42.5596 54.2489 42.9308 54.238 43.3019 54.2271C44.0441 54.3144 44.7755 54.0961 45.5068 54.2271C46.2382 54.358 46.9586 54.0851 47.6681 54.2161C48.3776 54.3035 49.0871 54.3471 49.7857 54.2052C50.4843 54.2052 51.172 53.9323 51.8487 54.1834C52.5255 54.238 53.1913 54.5763 53.8572 54.1616C54.5121 54.2707 55.167 53.9542 55.8001 54.1397C56.1167 53.9869 56.4332 53.9869 56.7498 54.0197H56.8699L56.9354 54.0415H57.0336C57.1646 54.0415 57.2847 54.0415 57.4156 54.0524C57.6776 54.0524 57.9396 54.0524 58.1906 54.0524C58.4308 54.0197 58.6709 53.9978 58.9002 53.9651H58.9438H58.9656H58.9766V53.9542V53.8559L58.9656 53.6704C58.9656 53.5503 58.9547 53.4193 58.9438 53.2992V53.1137C58.9438 53.0482 58.922 52.9936 58.9111 52.939C58.8892 52.819 58.8674 52.7098 58.8456 52.5897C58.8128 52.3605 58.791 52.1204 58.7801 51.8802V51.7929V51.7165C58.7801 51.6837 58.7801 51.6401 58.7692 51.6073C58.7692 51.5309 58.7473 51.4654 58.7255 51.389C58.6818 51.2471 58.6382 51.1052 58.5836 50.9742C58.4744 50.7013 58.3653 50.4394 58.3107 50.1556C58.3325 49.5552 57.7977 49.1295 57.8523 48.551C57.6776 48.038 57.6012 47.5031 57.4047 47.0228C57.6667 46.4225 57.1428 46.0404 56.979 45.582C56.7935 45.1235 56.9899 44.5887 56.5751 44.2284C56.7607 43.7045 56.3787 43.3443 56.1931 42.9622C55.9966 42.5693 56.1058 42.1218 55.8329 41.7834C55.942 41.3468 55.5163 41.0629 55.4945 40.7027C55.2653 40.3971 55.309 40.026 55.178 39.7203C55.1452 39.3929 55.047 39.0982 54.8942 38.8362C54.8068 38.5633 54.7195 38.3013 54.6322 38.0612C54.141 36.6203 53.8244 35.8562 53.7044 35.889L53.6607 35.9217Z" fill="#0061EF"/>
<path d="M42.0889 42.5038C42.0889 42.4492 42.0344 42.3947 41.9252 42.3401C41.8706 42.3183 41.8051 42.2855 41.7178 42.2746C41.6305 42.2637 41.5432 42.2528 41.4231 42.2418C41.3467 42.2418 41.2703 42.2418 41.1829 42.2418C41.0956 42.2309 40.9974 42.2309 40.9101 42.2746C40.8773 42.4492 40.6153 42.0781 40.6153 42.3401C40.5498 42.4492 40.4189 42.4274 40.2988 42.4492C40.1678 42.4711 40.146 42.6457 39.9604 42.613C39.8185 42.5366 39.8185 42.6457 39.8076 42.733C39.8076 42.8313 39.8076 42.9186 39.622 42.8313C39.4583 42.864 39.371 42.995 39.2836 43.1151C39.3601 43.3661 39.0981 43.3552 38.9671 43.4644C39.109 43.7482 38.9343 43.8028 38.6942 43.8792C38.9562 44.1957 38.8579 44.294 38.465 44.3595C38.4322 44.4468 38.4431 44.545 38.4322 44.6323C38.4322 44.7197 38.3995 44.807 38.3012 44.8943C38.2794 44.9816 38.2358 45.0799 38.2139 45.1781C38.1921 45.2764 38.1921 45.3746 38.2139 45.4728C38.0829 45.5711 38.0393 45.6802 38.0393 45.7894C38.0393 45.844 38.0611 45.8985 38.0829 45.9422C38.1157 45.9968 38.1703 46.0404 38.2248 46.0841C37.9847 46.3352 38.1484 46.5535 38.3449 46.7063C38.4541 46.7827 38.4322 46.9028 38.4213 47.0228C38.4213 47.1429 38.4213 47.2739 38.5741 47.3176C38.6942 47.5031 38.7488 47.7433 38.9234 47.8961C39.0326 47.9616 39.1527 48.0052 39.24 48.0816C39.3273 48.1581 39.3819 48.2563 39.3819 48.4309C39.4474 48.5292 39.5129 48.6493 39.6002 48.7257C39.6875 48.813 39.7967 48.8785 39.9386 48.8785C39.9931 49.2496 40.3097 49.2714 40.5935 49.2169C40.7027 49.2824 40.8336 49.2933 40.9537 49.3042C41.0847 49.3042 41.1939 49.3369 41.3139 49.4352C41.4449 49.4352 41.565 49.4897 41.6851 49.5225C41.816 49.5552 41.947 49.5662 42.0671 49.5225C42.1981 49.4788 42.3182 49.4243 42.4382 49.4133C42.5583 49.3915 42.6784 49.3915 42.8203 49.457C42.9622 49.5225 43.0822 49.4679 43.2023 49.4024C43.3115 49.3369 43.4097 49.2496 43.5407 49.2387C43.6062 49.075 43.7153 49.0313 43.8463 49.0204C43.9773 49.0204 44.1083 48.9986 44.1956 48.8894C44.3048 48.8348 44.3812 48.7257 44.4576 48.6383C44.5449 48.551 44.6213 48.4637 44.7523 48.4419C44.8615 48.3764 44.9597 48.3109 45.0361 48.2235C45.1234 48.1362 45.1889 48.038 45.2108 47.907C45.44 47.9397 45.4946 47.8197 45.5055 47.6887C45.5055 47.5468 45.4727 47.4049 45.5601 47.3285C45.5273 47.1866 45.5819 47.0992 45.6474 47.001C45.702 46.9028 45.7784 46.8154 45.8002 46.7063C45.8657 46.619 45.8439 46.4989 45.8329 46.3788C45.8329 46.2697 45.8111 46.1605 45.9094 46.0732C45.9094 46.0186 45.9094 45.975 45.9312 45.9204C45.9421 45.8658 45.953 45.8221 45.9749 45.7676C45.9967 45.6693 46.0076 45.5602 45.9203 45.4619C46.0185 45.3637 45.9749 45.2545 45.9203 45.1672C45.8657 45.0799 45.7893 44.9926 45.8439 44.8834C45.833 44.7852 45.8111 44.6978 45.7893 44.6105C45.7565 44.5232 45.7347 44.4249 45.6801 44.3485C45.4946 44.3158 45.4618 44.2394 45.4509 44.1521C45.4509 44.0647 45.4727 43.9556 45.4509 43.8683C45.3527 43.7373 45.4509 43.4753 45.178 43.4535C45.058 43.3334 44.8615 43.3007 44.8615 43.1042C44.8287 43.0278 44.6868 43.0496 44.5886 43.0496C44.4903 43.0496 44.4248 43.0278 44.5231 42.8204C44.5013 42.744 44.3921 42.7549 44.3048 42.7658C44.2175 42.7658 44.152 42.7658 44.1847 42.6021C44.2284 42.2964 43.9555 42.482 43.8463 42.4383C43.7372 42.3837 43.628 42.3619 43.5298 42.3183C43.0604 42.1873 42.6784 42.1982 42.4382 42.2418C42.1872 42.3073 42.0671 42.3837 42.0671 42.4711C42.0671 42.5693 42.2199 42.6566 42.4491 42.7767C42.6784 42.8968 43.0058 43.0496 43.3333 43.3334C43.3988 43.3989 43.3442 43.6172 43.5298 43.508C43.6062 43.5626 43.5625 43.7482 43.7153 43.7154C43.5844 43.9883 43.8027 43.8792 43.89 43.9447C43.9446 44.0211 44.0756 44.0538 44.0428 44.2066C43.9446 44.3813 44.2284 44.3376 44.1629 44.5014C44.3812 44.5123 44.3812 44.6542 44.2502 44.8179C44.3594 44.8397 44.3594 44.9052 44.3375 44.9707C44.3266 45.0362 44.2829 45.1017 44.2939 45.1563C44.4358 45.189 44.4685 45.2545 44.4467 45.3091C44.4248 45.3746 44.3484 45.4401 44.2939 45.4947C44.2502 45.5492 44.2502 45.6147 44.2611 45.6693C44.2611 45.7021 44.272 45.7348 44.272 45.7566C44.272 45.7894 44.2611 45.8112 44.2393 45.844C44.2829 45.975 44.1301 46.0623 44.141 46.1933C44.0537 46.226 43.9991 46.2697 43.9664 46.3242C43.9337 46.3788 43.9336 46.4334 43.9773 46.5316C43.8463 46.5971 43.8463 46.739 43.759 46.8373C43.6826 46.8591 43.6389 46.9028 43.6062 46.9573C43.5734 47.0119 43.5516 47.0774 43.4861 47.1102C43.4206 47.132 43.4206 47.2302 43.3879 47.3066C43.3551 47.3721 43.3115 47.4376 43.1696 47.3394C43.0386 47.3721 42.9622 47.514 42.8203 47.514C42.7111 47.6014 42.591 47.6778 42.4382 47.6232C42.3946 47.776 42.3291 47.8197 42.2527 47.8088C42.1763 47.7869 42.0998 47.7105 42.0344 47.6669C41.9689 47.6232 41.9034 47.6014 41.8379 47.6123C41.7724 47.6123 41.7069 47.6123 41.6305 47.6341C41.5104 47.5795 41.3794 47.5577 41.2484 47.525C41.172 47.394 40.9537 47.525 40.8991 47.3503C40.8773 47.263 40.8118 47.2521 40.7354 47.2412C40.659 47.2412 40.5935 47.2084 40.5826 47.1211C40.5608 47.0447 40.5498 46.9792 40.5062 46.9355C40.4625 46.8919 40.4079 46.8591 40.3206 46.8591C40.2879 46.8045 40.1896 46.7936 40.1241 46.7609C40.0586 46.7281 40.015 46.6735 40.1023 46.5535C40.1023 46.488 40.1678 46.3897 40.1787 46.3242C40.2005 46.2588 40.1569 46.2151 39.9386 46.226C39.9713 46.1496 39.9167 46.1059 39.8512 46.0623C39.7858 46.0186 39.7639 45.9531 39.8403 45.8876C39.7639 45.8658 39.7203 45.844 39.6984 45.8112C39.6766 45.7785 39.6875 45.7457 39.6984 45.713C39.7312 45.6475 39.7858 45.5929 39.7858 45.5274C39.7639 45.4728 39.7203 45.4073 39.7093 45.3419C39.6984 45.2873 39.7093 45.2218 39.7967 45.1781C39.8731 45.1345 39.8622 45.0799 39.8512 45.0144C39.8294 44.9598 39.7967 44.8834 39.8512 44.8397C39.9495 44.8179 39.9167 44.7524 39.884 44.676C39.8512 44.5996 39.8294 44.5341 39.9386 44.5232C39.9386 44.4031 40.0586 44.3595 40.0586 44.2285C40.2551 44.3049 40.2879 44.2721 40.266 44.1957C40.2442 44.1302 40.1896 44.0102 40.2115 43.9665C40.2224 43.9119 40.3097 43.9228 40.3643 43.9119C40.4189 43.901 40.4625 43.8792 40.3861 43.7373C40.528 43.8246 40.5608 43.8028 40.5717 43.7373C40.5717 43.6827 40.5717 43.5845 40.5717 43.5299C40.5935 43.3989 40.79 43.5408 40.7682 43.3552C40.9428 43.4971 40.8555 43.1697 40.9646 43.2024C40.9646 43.0278 41.1065 43.1369 41.1502 43.0714C41.2375 43.0933 41.2921 43.0605 41.3358 42.9623C41.3903 42.9295 41.4449 42.8968 41.4995 42.864C41.5759 42.8313 41.6523 42.7876 41.7178 42.7549C41.7833 42.7221 41.8379 42.6894 41.8815 42.6676C41.9689 42.613 42.0234 42.5475 42.0234 42.4929L42.0889 42.5038Z" fill="#0061EF"/>
<path d="M52.3607 31.0862C52.2516 31.119 52.5354 32.5926 53.1466 35.2778C53.2449 35.7253 53.365 36.2056 53.485 36.7186C53.5942 37.2317 53.7033 37.7883 53.878 38.356C54.1727 38.8908 53.9216 39.6003 54.3146 40.1788C54.5438 40.7901 54.6639 41.4778 54.8058 42.1764C54.9368 42.8859 55.2752 43.5627 55.3407 44.3486C55.2533 45.1781 56.0611 45.7894 55.9192 46.6845C56.0611 47.5032 56.3012 48.3327 56.5523 49.1841C56.9998 49.981 57.0217 50.9197 57.2181 51.8366C57.7202 52.6662 57.8622 53.6268 57.9276 54.631C58.5498 55.4824 58.7463 56.4757 58.6808 57.5673C58.9319 58.5715 59.3467 59.5539 59.4667 60.6345C59.7178 61.6824 59.9361 62.763 60.2963 63.8218C60.34 64.968 60.6456 66.0704 61.1586 67.1292C61.2023 68.319 61.6062 69.4324 62.0537 70.5458C62.2611 71.0479 62.3593 71.5828 62.4576 72.1176L62.534 72.5215L62.5558 72.6197V72.6743L62.5886 72.7616L62.6759 73.1328C62.796 73.624 62.9269 74.137 63.0798 74.5955C63.309 74.519 63.5382 74.4426 63.7565 74.3662C64.0294 74.2898 64.2914 74.2243 64.5643 74.1479C64.7826 74.0933 64.99 74.0388 65.2083 73.9842C65.5139 73.9078 65.8086 73.8314 66.1143 73.755C66.7146 73.6021 67.3259 73.4493 67.9372 73.2638C69.127 72.8271 70.3277 72.3796 71.6484 72.2814C72.9146 72.0085 74.2027 71.7574 75.4361 71.2771C76.7896 71.2116 78.0449 70.7423 79.3002 70.2511C80.6101 69.9454 81.8763 69.3997 83.2407 69.2032C83.8956 69.0067 84.5724 68.8539 85.2382 68.7011L85.7404 68.581L85.9914 68.5155L86.2752 68.4391C86.9083 68.2645 87.5414 68.0898 88.1309 67.8933C87.9453 67.2711 87.7597 66.6599 87.5742 66.0377L87.4104 65.5137L87.2685 65.0225C87.083 64.3567 86.9192 63.6909 86.8319 63.0032C86.6573 61.6278 86.0569 60.3835 85.7731 59.0627C85.1618 57.8292 85.1618 56.4539 84.7252 55.1986C84.4087 53.9106 83.8956 52.6989 83.6992 51.4109C83.4154 50.1447 83.1316 48.9003 82.6949 47.7105C82.7713 46.3789 81.9418 45.3091 81.7125 44.0975C81.2213 42.9514 81.1013 41.7288 80.752 40.5827C80.5227 39.4038 79.9551 38.3341 79.8132 37.1771C79.4749 36.0637 79.3439 34.9176 78.9073 33.8806C78.8199 32.7454 78.165 31.7848 78.0231 30.7042C77.7393 29.6672 77.4882 28.6411 77.1717 27.6588C76.8879 27.2003 76.7351 26.7091 76.6368 26.2179C76.5823 25.9559 76.5604 25.7922 76.4622 25.3337C76.3749 24.9408 76.2875 24.526 76.1893 24.1221L76.1456 23.9802C75.7636 24.0894 75.3925 24.1767 75.0104 24.264C74.8139 24.3077 74.6284 24.3514 74.4428 24.395C74.3227 24.4168 74.2027 24.4496 74.0826 24.4714C73.6241 24.5697 73.1875 24.7006 72.7727 24.919C71.8777 25.1809 71.0263 25.563 70.1421 25.6612C69.2689 25.8468 68.5812 26.5672 67.6643 26.3707C66.8456 26.5126 66.1689 27.113 65.3502 27.0366C64.5315 26.982 63.8875 27.4623 63.1998 27.6588C62.5122 27.8552 61.8463 28.0517 61.2241 28.2373C58.397 29.0669 56.1702 29.7436 54.6639 30.2239C53.1576 30.7151 52.3607 31.0098 52.3826 31.0971C52.4044 31.1845 53.4414 31.0098 55.3407 30.595C57.24 30.1802 60.0016 29.5253 63.4727 28.663C64.1713 28.4883 64.9463 28.5211 65.6449 28.1281C66.3981 27.9207 67.2167 27.888 67.9808 27.5496C68.865 27.626 69.6291 27.1676 70.4805 26.9165C71.3428 26.6982 72.1942 26.3707 73.1329 26.2507C73.5914 26.2179 74.028 26.076 74.4756 25.9341C74.5847 25.9014 74.6939 25.8577 74.803 25.8249C74.8358 25.8031 74.8794 25.7922 74.9231 25.7813C74.9995 25.7485 75.0868 25.7376 75.1523 25.7376V25.7813C75.2724 25.8577 75.327 25.945 75.4798 26.5454C75.5999 27.0366 75.6763 27.5387 75.7308 28.0626C76.1675 29.0123 76.233 30.0929 76.5168 31.1299C77.0625 32.1014 77.1608 33.2147 77.3463 34.3172C77.5319 35.4197 77.9685 36.4894 78.2087 37.6246C78.558 38.7271 78.7435 39.895 79.1037 41.0412C79.2893 42.231 79.5513 43.4098 80.0206 44.5669C80.2499 45.7785 80.6428 46.9683 80.9703 48.1908C81.1886 49.4352 81.647 50.6468 81.9527 51.9021C82.2365 53.1683 82.9132 54.3363 82.9569 55.6898C83.2625 56.9778 83.6882 58.244 83.983 59.5539C84.365 60.8419 84.758 62.1518 85.0309 63.4944C85.3583 64.1166 85.5548 64.7715 85.7185 65.4483C85.7622 65.612 85.7949 65.7866 85.8277 65.9504L85.8823 66.2014L85.9041 66.3324C85.9041 66.3324 85.9259 66.4306 85.915 66.4306C85.915 66.5071 85.8823 66.5507 85.8604 66.5726C85.7949 66.5726 85.7622 66.5726 85.7294 66.5726L85.2601 66.6926L84.758 66.8236C84.0921 67.0092 83.4372 67.2057 82.7823 67.4021C81.4506 67.7296 80.1407 68.0898 78.8418 68.4609C77.521 68.7229 76.2875 69.2796 74.9777 69.5088C73.6678 69.7271 72.478 70.3275 71.19 70.5349C69.9238 70.7859 68.6685 71.0697 67.4896 71.5391C66.8784 71.7028 66.2889 71.9321 65.6995 72.1285C65.4048 72.2268 65.11 72.3141 64.8044 72.3905L64.6953 72.4123H64.6407L64.597 72.4342C64.5752 72.4342 64.5534 72.4342 64.5424 72.4342C64.5097 72.4342 64.4769 72.4123 64.466 72.3796C64.4442 72.3796 64.4333 72.3796 64.4224 72.3687C64.4224 72.3032 64.4442 72.2377 64.466 72.205C64.466 72.205 64.466 72.194 64.4879 72.1831V72.1285L64.466 72.0303C64.4442 71.8993 64.4224 71.7574 64.3896 71.6264C64.2696 71.0916 64.0949 70.5785 63.7784 70.1092C63.571 68.9303 62.9706 67.8715 62.8396 66.7035C62.2393 65.6666 62.2284 64.4877 61.9336 63.4071C61.5843 62.3373 61.2023 61.3113 61.0495 60.2306C60.9185 59.15 60.4164 58.1894 60.1981 57.1852C60.0998 56.1373 59.4449 55.275 59.3794 54.2708C59.0847 53.332 58.8991 52.3824 58.5935 51.4982C58.7463 50.4831 58.1132 49.7081 57.8512 48.8676C57.5674 48.0271 57.6657 47.1102 57.1417 46.3898C57.229 45.5056 56.7597 44.7961 56.4759 44.0757C56.1921 43.3553 56.203 42.5693 55.8537 41.9253C55.8755 41.1722 55.3734 40.6045 55.2752 39.9496C54.9695 39.3493 54.9368 38.7162 54.7403 38.1486C54.6312 37.5591 54.4674 37.0243 54.26 36.544C54.1072 36.0419 53.9653 35.5725 53.8234 35.125C53.0157 32.4943 52.5135 31.0753 52.4044 31.0971L52.3607 31.0862Z" fill="#0061EF"/>
<path d="M69.4438 71.9429C69.3347 71.9756 69.3456 72.445 69.4657 73.2855C69.4875 73.4274 69.5093 73.5693 69.5311 73.733C69.5421 73.8968 69.553 74.0714 69.6185 74.2351C69.815 74.3661 69.4438 74.6718 69.7167 74.8027C69.8368 74.9774 69.8259 75.1957 69.8368 75.4249C69.8368 75.6542 70.0442 75.8288 69.9678 76.0908C69.7385 76.3964 70.4153 76.4728 70.1206 76.8112C70.1097 77.0732 70.197 77.3242 70.2843 77.5862C70.5681 77.7936 70.4262 78.1211 70.459 78.4049C70.7973 78.6123 70.7537 78.9288 70.6554 79.2672C71.1357 79.6165 71.1466 79.8785 71.0157 80.7626C71.0375 80.8718 71.0702 80.97 71.103 81.0573C71.3213 80.9918 71.5396 80.9045 71.747 80.8499C71.9544 80.7844 72.1509 80.7517 72.3692 80.7626C72.5002 80.7299 72.6421 80.708 72.784 80.6753L72.8822 80.6535H72.9477L73.0678 80.6207C73.2315 80.588 73.3952 80.5443 73.559 80.4679C73.9519 80.6207 74.2903 80.5225 74.5741 80.2168C74.9889 80.3806 75.3055 80.195 75.622 79.9658C75.9386 79.7256 76.397 79.9985 76.7026 79.6929C77.0629 79.5837 77.4558 79.551 77.816 79.4091C78.1653 79.2017 78.5037 78.9834 78.9512 79.1253C79.3551 79.0816 79.759 79.0707 80.1083 78.8306C80.5667 79.0052 80.9269 78.776 81.2872 78.5249C81.691 78.4594 82.0403 78.1647 82.4879 78.2084C82.5315 78.1866 82.5861 78.1756 82.6407 78.1647L82.9026 78.0992C83.0991 78.0556 83.2956 78.0119 83.4921 77.9792C83.885 77.8918 84.2998 77.7936 84.6055 77.6517C84.4527 77.2369 84.2998 76.8549 84.2016 76.4947C84.147 76.3091 84.1034 76.1344 84.0706 75.9489L84.0488 75.807C84.0488 75.807 84.0379 75.7087 84.0379 75.6869C84.0379 75.6323 84.0379 75.5777 84.0379 75.5232C84.1034 75.0756 83.7431 74.7373 83.7104 74.3225C83.3502 73.995 83.5794 73.5147 83.3829 73.1436C83.3065 72.7506 83.0227 72.4122 83.0664 71.9865C83.0118 71.5936 82.9572 71.2006 82.7498 70.8622C83.0446 70.382 82.4442 70.1527 82.4333 69.7598C82.4005 69.7161 82.3678 69.6725 82.346 69.6397C82.346 69.6397 82.346 69.6179 82.3241 69.607L82.3023 69.5524L82.2586 69.4323C82.215 69.2795 82.1713 69.1158 82.1386 68.9629C82.0731 68.6355 82.0185 68.2862 81.9203 67.9915C81.9093 67.8932 81.8875 67.8168 81.8657 67.7295C81.5928 67.8059 81.2981 67.926 81.0252 68.0351C80.7523 68.1334 80.5122 68.2098 80.2393 68.2098C80.1629 68.2316 80.0864 68.2534 80.021 68.2753C79.9555 68.2862 79.9336 68.2971 79.8791 68.308C79.7917 68.3189 79.7044 68.3298 79.6171 68.3517C79.4424 68.3844 79.2787 68.4172 79.1368 68.5482C78.7548 68.439 78.5255 68.8865 78.1762 68.832C77.8597 68.9193 77.5431 68.9848 77.2484 69.1158C77.0301 69.5087 76.659 69.3341 76.3643 69.3887C76.0805 69.4978 75.7421 69.3668 75.5238 69.6506C75.2509 69.7489 75.0217 69.9563 74.7269 69.9017C74.454 69.9235 74.334 70.4911 73.9738 70.1418C73.7118 70.1418 73.5699 70.5894 73.2752 70.371C72.9804 70.1746 72.8385 70.5239 72.6312 70.5894C72.4238 70.6658 72.2273 70.7313 72.0417 70.7968C70.3389 71.3971 69.3783 71.8228 69.422 71.9865C69.4766 72.1721 70.7537 72.0193 72.904 71.5936C73.1224 71.5499 73.3952 71.7137 73.5808 71.4626C73.81 71.3971 74.0938 71.5063 74.3012 71.3098C74.6178 71.5281 74.8143 71.2334 75.0762 71.146C75.3382 71.0915 75.5893 70.9277 75.8949 70.9714C76.2114 71.0696 76.4297 70.7422 76.7572 70.7749C76.9974 70.5239 77.3139 70.4911 77.6632 70.5675C77.9252 70.3165 78.2854 70.4365 78.6019 70.3492C78.8421 69.9999 79.2241 70.0982 79.5843 70.12C79.759 70.12 79.9227 70.0654 80.0864 70.0108C80.1738 69.9781 80.2502 69.9563 80.3375 69.9235C80.3812 69.9235 80.4248 69.9017 80.4576 69.8908C80.4685 69.8908 80.4794 69.8908 80.4903 69.8908C80.5231 69.858 80.5558 69.858 80.5886 69.8689C80.6213 69.8689 80.6322 69.8908 80.665 69.8798C80.665 69.8798 80.665 69.8798 80.6759 69.8908C80.6322 69.9999 80.6104 70.0436 80.5995 70.0654C80.5995 70.0654 80.5995 70.0763 80.6213 70.0763H80.6322C80.6322 70.0763 80.6431 70.0982 80.6541 70.1091C80.6759 70.1527 80.7086 70.1964 80.7414 70.2291C80.7414 70.6112 80.916 70.9605 81.0252 71.3425C81.0252 71.7464 81.2435 72.0848 81.309 72.4777C81.3526 72.8707 81.8002 73.1654 81.6037 73.6348C81.6692 74.0387 81.8548 74.4098 81.9093 74.8137C82.0512 75.1957 82.2041 75.5887 82.2259 76.0144C82.2805 76.058 82.3132 76.1017 82.3569 76.1454C82.3787 76.1781 82.3896 76.1672 82.4005 76.1781C82.4005 76.1781 82.4224 76.1781 82.4224 76.189C82.4551 76.2108 82.466 76.2436 82.4551 76.2654C82.4551 76.32 82.3678 76.3309 82.3023 76.3091C82.2259 76.2873 82.2041 76.2763 82.2041 76.2873C82.2041 76.2873 82.2041 76.2982 82.1931 76.3091C82.1931 76.3091 82.1931 76.32 82.1604 76.3309L82.0076 76.3855C81.5928 76.4619 81.1998 76.5929 80.8069 76.713C80.3812 76.7348 80.0537 77.0513 79.628 77.0404C79.2023 77.0186 78.8857 77.3788 78.471 77.357C78.0671 77.3788 77.6741 77.4334 77.3467 77.6735C76.9755 77.7718 76.6699 78.132 76.2442 77.9901C75.8621 78.0337 75.4255 77.7936 75.1745 78.2957C74.7924 78.2957 74.5305 78.6777 74.1375 78.6013C73.8755 78.9834 73.4607 78.7978 73.1333 78.8961C72.9695 78.9725 72.8167 79.0489 72.6639 79.1144C72.6202 79.1253 72.5875 79.1471 72.5438 79.158H72.4783C72.4783 79.158 72.4674 79.1799 72.4565 79.1799C72.4238 79.1799 72.4019 79.1689 72.3801 79.1362C72.3473 79.0816 72.3364 79.0925 72.2928 79.1144C72.26 79.1471 72.2054 79.2017 72.1618 79.2235C72.1618 79.2235 72.1509 79.1908 72.1509 79.1689C72.2054 79.038 72.1509 79.0707 72.0963 79.0489C72.0635 79.0489 72.0308 79.027 72.0199 79.0052C72.0199 78.9943 72.0199 78.9834 72.0199 78.9616C72.0199 78.9616 72.0199 78.9397 72.0308 78.9397C72.0308 78.9397 72.0308 78.9397 72.0308 78.9288V78.8961C71.9216 78.6123 71.9107 78.3175 71.7797 78.0556C72.1072 77.6735 71.6378 77.5098 71.5287 77.2587C71.3977 77.0077 71.6597 76.6693 71.2885 76.5056C71.5287 76.1781 71.2012 76.0144 71.0593 75.807C70.9065 75.5996 71.0593 75.3267 70.841 75.152C70.9938 74.8792 70.6118 74.77 70.6336 74.5517C70.4371 74.3989 70.5245 74.1806 70.4371 74.0168C70.4371 73.8313 70.3716 73.6675 70.2625 73.5365C70.2079 73.3837 70.1424 73.2418 70.0988 73.1108C69.7822 72.3249 69.553 71.9101 69.4438 71.9429Z" fill="#0061EF"/>
<path d="M74.1268 79.4856C74.0176 79.5183 73.9849 79.8239 74.0285 80.3806C74.0285 80.468 74.0504 80.5662 74.0504 80.6754C74.0504 80.7845 74.0504 80.8937 74.094 81.0028C74.2687 81.0792 73.8866 81.3085 74.1377 81.3739C74.2359 81.4831 74.2141 81.625 74.2032 81.7778C74.1923 81.9306 74.3669 82.0289 74.2796 82.2144C74.0285 82.4437 74.6835 82.4328 74.3669 82.6838C74.3342 82.8585 74.3997 83.0222 74.4652 83.1859C74.7271 83.2951 74.5525 83.5243 74.5634 83.7099C74.8799 83.819 74.8035 84.0264 74.6725 84.2666C74.8799 84.3102 74.9782 84.3866 74.9891 84.4849C74.9891 84.5067 74.9891 84.5394 74.9891 84.5613C74.9891 84.594 74.9673 84.6159 74.9564 84.6595C74.9236 84.7468 74.8799 84.8451 74.8254 84.9652C74.869 85.1289 74.9345 85.2817 74.9891 85.4345C75.0437 85.5873 75.0873 85.7511 75.0655 86.0021C75.0983 86.1768 75.131 86.3514 75.1637 86.5261C75.3493 86.4933 75.5676 86.4387 75.7859 86.3405C76.0588 86.5261 76.5828 86.3733 76.9211 86.0676C76.9539 86.0676 76.9757 86.0894 77.0085 86.0894C77.0303 86.0894 77.0412 86.1113 77.063 86.1113C77.0958 86.1222 77.1285 86.1331 77.1613 86.144C77.2268 86.144 77.2814 86.144 77.3359 86.1222C77.4451 86.0785 77.5433 85.9912 77.6416 85.893C77.8271 85.6856 78.1546 86.0021 78.3402 85.7292C78.5694 85.6528 78.8204 85.6637 79.0497 85.5546C79.2571 85.3799 79.4754 85.2053 79.781 85.3799C80.043 85.3799 80.3159 85.4018 80.5233 85.1944C80.8507 85.4018 81.069 85.2162 81.2873 84.9979C81.4183 84.987 81.5384 84.9106 81.6585 84.856C81.7349 84.8123 82.0078 84.725 82.2697 84.7359C82.499 84.6486 82.7609 84.6159 83.0229 84.5613C83.2849 84.5176 83.5578 84.4521 83.7324 84.343C83.6124 84.0701 83.5032 83.8081 83.4268 83.5789C83.3504 83.3497 83.3176 83.1313 83.3395 82.8912C83.3722 82.662 83.2631 82.3345 83.2085 82.269C83.143 82.1489 83.0666 82.0289 83.0666 81.8979C82.7391 81.7123 83.012 81.363 82.8592 81.1447C82.8155 80.8828 82.5754 80.6863 82.6518 80.4025C82.63 80.1405 82.619 79.8894 82.4444 79.682C82.7828 79.3327 82.2152 79.2345 82.237 78.9725C82.1169 78.8743 82.0951 78.7651 82.0842 78.6342V78.5468C82.0842 78.5468 82.0842 78.4923 82.0623 78.4377C82.0405 78.3285 82.0187 78.2303 81.9859 78.132C81.9641 77.9137 81.8659 77.7282 81.7895 77.5644C81.7021 77.3898 81.6366 77.237 81.6476 76.9641C81.6148 76.8768 81.593 76.7676 81.5712 76.6584C81.3092 76.7021 81.0363 76.713 80.7197 76.9204C80.556 76.8549 80.3486 76.9532 80.174 77.0623C80.0866 77.1169 79.9993 77.1606 79.912 77.2042C79.8683 77.2261 79.8247 77.237 79.781 77.2479H79.7483H79.7264C79.7155 77.2479 79.6937 77.2479 79.6828 77.2479C79.4754 77.3025 79.2789 77.3461 79.0933 77.4334C78.9842 77.7937 78.7222 77.5863 78.5257 77.619C78.3511 77.7063 78.1109 77.5426 77.9909 77.8046C77.8162 77.881 77.6852 78.0556 77.4778 77.9792C77.2923 77.9792 77.2704 78.525 76.9976 78.1539C76.8229 78.1211 76.7792 78.5577 76.55 78.3176C76.3317 78.0993 76.2662 78.4268 76.1352 78.4704C76.0042 78.525 75.8733 78.5687 75.7532 78.6232C74.6725 79.0599 74.0722 79.3873 74.1159 79.5511C74.1595 79.7366 75 79.693 76.3972 79.4747C76.5391 79.4528 76.7356 79.6384 76.8338 79.4092C76.9757 79.3655 77.1831 79.4965 77.3032 79.3327C77.5433 79.5838 77.6416 79.3 77.8053 79.2454C77.9799 79.2127 78.1218 79.0708 78.3292 79.1472C78.5476 79.2673 78.6676 78.9725 78.8859 79.038C79.0278 78.8088 79.2243 78.8088 79.4754 78.918C79.6282 78.6887 79.8792 78.8525 80.0866 78.787C80.0866 78.7651 80.0976 78.7433 80.1085 78.7324V78.7106L80.1303 78.6887C80.1303 78.6669 80.1303 78.6451 80.1521 78.6342C80.174 78.6123 80.1958 78.6014 80.2067 78.6123C80.2504 78.6342 80.2722 78.6997 80.2831 78.7542C80.294 78.8306 80.3377 78.7542 80.3923 78.7324C80.3923 78.7324 80.3923 78.7542 80.3923 78.787C80.4141 78.787 80.4141 78.8306 80.4032 78.8634C80.4032 78.8961 80.3814 78.9289 80.4032 78.9398C80.3704 78.9616 80.3486 78.9835 80.3377 78.9944C80.3268 78.9944 80.3377 79.0271 80.3377 79.0599C80.3377 79.0926 80.3377 79.1254 80.3377 79.1472C80.3595 79.2673 80.4141 79.3764 80.5233 79.4747C80.5014 79.7366 80.6324 79.9549 80.6979 80.1842C80.6542 80.457 80.8398 80.6644 80.8835 80.9155C80.8835 81.1775 81.2983 81.3303 81.069 81.6578C81.1018 81.9197 81.2546 82.1489 81.2655 82.4218C81.3638 82.6401 81.5057 83.0113 81.4074 82.9567C81.5602 82.9676 81.6148 83.0331 81.593 83.0549C81.5821 83.0877 81.4947 83.0768 81.4292 83.0549C81.2983 83.0004 81.3528 83.0331 81.3419 83.0768C81.4074 83.0331 81.0145 83.1532 80.7961 83.2296C80.5123 83.2078 80.3159 83.4916 80.043 83.437C79.7592 83.3824 79.5845 83.699 79.3007 83.6444C79.0388 83.6225 78.7768 83.6444 78.5803 83.8518C78.3402 83.9173 78.1764 84.2447 77.8708 84.0592C77.6197 84.0592 77.3032 83.7972 77.1831 84.2666C77.0521 84.2447 76.9539 84.3211 76.8556 84.3975C76.8011 84.4303 76.7574 84.463 76.7028 84.4849C76.6701 84.4849 76.6483 84.4958 76.6155 84.4849C76.6046 84.4849 76.5828 84.4849 76.5718 84.4849C76.5718 84.4849 76.5718 84.474 76.5609 84.463C76.5609 84.6159 76.5064 84.6377 76.4845 84.6159C76.4518 84.594 76.4409 84.5176 76.419 84.5285C76.3754 84.5722 76.3208 84.6377 76.2662 84.6595C76.2553 84.6377 76.2553 84.594 76.288 84.5067C76.3317 84.4085 76.3208 84.4194 76.288 84.4085C76.2553 84.4085 76.2007 84.4085 76.2225 84.3539C76.2553 84.3211 76.2662 84.3102 76.2553 84.2993C76.2553 84.2993 76.2335 84.2775 76.2116 84.2556C76.1898 84.2338 76.1789 84.212 76.1571 84.1902C76.0806 84.1137 76.0042 84.0264 76.0697 83.9063C75.9824 83.7317 75.9933 83.5352 75.8842 83.3715C76.2335 83.0877 75.7859 83.0222 75.7095 82.8694C75.6113 82.7166 75.8842 82.4655 75.5458 82.3891C75.8078 82.149 75.5021 82.0725 75.3821 81.9416C75.2511 81.8215 75.4366 81.6141 75.2292 81.5268C75.4039 81.3303 75.0437 81.2975 75.0764 81.1447C74.9018 81.0574 75 80.9046 74.9345 80.8063C74.9564 80.6863 74.9018 80.5771 74.8035 80.5007C74.7599 80.4025 74.7162 80.3151 74.6835 80.2387C74.4433 79.7475 74.2578 79.4856 74.1486 79.5183L74.1268 79.4856Z" fill="#0061EF"/>
<path d="M55.5482 21.9826C55.439 22.0154 55.4499 22.4956 55.5809 23.3471C55.6028 23.489 55.6246 23.6418 55.6464 23.8055C55.6573 23.9692 55.6683 24.1439 55.7337 24.3185C55.9302 24.4604 55.5591 24.7552 55.8429 24.8971C55.963 25.0826 55.9521 25.3009 55.963 25.5302C55.963 25.7594 56.1704 25.945 56.1049 26.2178C55.8866 26.5235 56.5524 26.6108 56.2577 26.9601C56.2577 27.233 56.3341 27.484 56.4323 27.746C56.7161 27.9534 56.5742 28.2918 56.6179 28.5756C56.7052 28.6302 56.7598 28.6847 56.8035 28.7502C56.8035 28.7612 56.8253 28.783 56.8362 28.8157C56.8471 28.8376 56.858 28.8703 56.869 28.8921C56.8908 28.9467 56.9017 29.0013 56.9126 29.0559C56.9563 29.2742 56.9454 29.5362 56.9345 29.8636C57.1309 29.94 57.2401 30.0383 57.2947 30.2347C57.5348 30.1693 57.6985 30.2347 57.9278 30.3657C58.1897 30.3002 58.4517 30.1911 58.7137 30.1147L58.8774 30.0601C58.8774 30.0601 58.9538 30.0383 58.9975 30.0383C59.0848 30.0274 59.1612 30.0274 59.2595 30.0383C59.5869 29.9728 59.9362 29.9509 60.2528 29.7981C60.6566 29.9509 60.995 29.8418 61.2897 29.5471C61.7045 29.7108 62.032 29.5143 62.3595 29.2851C62.676 29.045 63.1454 29.3178 63.4619 29.0122C63.8221 28.8921 64.226 28.8703 64.5971 28.7284C64.9464 28.521 65.3067 28.2918 65.7542 28.4337C66.1581 28.39 66.5729 28.3791 66.9331 28.1281C67.4024 28.3027 67.7736 28.0626 68.1447 27.8115C68.5595 27.746 68.9197 27.4404 69.3781 27.484C69.4982 27.4295 69.9894 27.3312 70.3714 27.2439C70.7753 27.1566 71.201 27.0583 71.5176 26.9055C71.3648 26.4798 71.2119 26.0978 71.1028 25.7266C71.0482 25.5411 71.0045 25.3664 70.9718 25.1809L70.95 25.039C70.95 25.039 70.95 24.9844 70.95 24.9735V24.9298C70.95 24.9298 70.95 24.8207 70.95 24.7661C71.0155 24.3076 70.6553 23.9692 70.6225 23.5435C70.2514 23.2052 70.4915 22.714 70.295 22.3428C70.2186 21.939 69.9348 21.5897 69.9676 21.164C69.913 20.7601 69.8584 20.3671 69.6401 20.0069C69.7929 19.7668 69.7165 19.5812 69.5964 19.4066C69.5855 19.3847 69.5746 19.3738 69.5528 19.3302L69.4873 19.2101C69.4436 19.1337 69.4109 19.0463 69.3672 18.9699C69.2908 18.8171 69.2362 18.6643 69.2144 18.4787C69.0507 18.2168 68.9743 17.9111 68.9088 17.5728C68.6031 17.6273 68.2866 17.671 67.9482 17.7911C67.7954 17.8129 67.6317 17.8566 67.4679 17.9111C67.3915 17.933 67.3151 17.9657 67.2387 17.9985C67.1623 18.0312 67.075 18.064 67.0422 18.0749C66.8785 18.1622 66.7038 18.2277 66.5074 18.1949C66.169 18.3259 65.776 18.2495 65.4813 18.5006C65.0883 18.3914 64.8591 18.8499 64.4989 18.7953C64.1714 18.8826 63.8549 18.9481 63.5493 19.0791C63.32 19.4721 62.9489 19.2974 62.6433 19.352C62.3595 19.4611 62.0102 19.3302 61.7809 19.614C61.5081 19.7122 61.2679 19.9305 60.9623 19.8759C60.6785 19.8978 60.5584 20.4654 60.1982 20.1161C59.9253 20.1161 59.7943 20.5636 59.4778 20.3562C59.1721 20.1597 59.0302 20.509 58.8119 20.5745C58.6045 20.6509 58.3971 20.7164 58.2007 20.7819C56.4651 21.3932 55.4827 21.8189 55.5264 21.9826C55.5809 22.1682 56.8799 22.0045 59.0739 21.5678C59.2922 21.5242 59.576 21.6879 59.7616 21.4259C59.9908 21.3604 60.2855 21.4696 60.4929 21.2731C60.8204 21.4914 61.0169 21.1858 61.2788 21.0985C61.5517 21.0439 61.8028 20.8802 62.1084 20.9129C62.4359 21.0002 62.6542 20.6728 62.9816 20.7164C63.2327 20.4544 63.5493 20.4217 63.8986 20.509C64.1605 20.2471 64.5317 20.378 64.8591 20.2798C65.1102 19.9305 65.4922 20.0287 65.8633 20.0397C66.2236 20.0397 66.5292 19.8213 66.9003 19.7886C67.0641 19.7122 67.2496 19.6904 67.4352 19.6576C67.4898 19.6467 67.4898 19.6576 67.5007 19.6576H67.5225C67.5443 19.6576 67.5552 19.6576 67.5771 19.6358C67.5989 19.7013 67.588 19.7449 67.5989 19.7559C67.5989 19.7777 67.6207 19.7559 67.6971 19.734C67.6862 19.7668 67.6753 19.7886 67.6753 19.7995C67.6753 19.7995 67.6753 19.8104 67.6753 19.8213L67.6971 19.8868C67.7517 20.0724 67.8172 20.258 67.8718 20.4435C67.8718 20.8583 68.0901 21.2076 68.1665 21.6006C68.2102 22.0045 68.6577 22.3101 68.4721 22.7904C68.5376 23.1942 68.7341 23.5763 68.7887 24.002C68.9306 24.3949 69.0834 24.7988 69.1162 25.2245C69.1598 25.2682 69.2035 25.3119 69.2472 25.3555L69.269 25.3883H69.2799C69.2908 25.3883 69.3017 25.3883 69.3017 25.3992C69.3345 25.421 69.3454 25.4538 69.3345 25.4756C69.3345 25.5302 69.2472 25.552 69.1817 25.5302C69.1052 25.5083 69.0943 25.4974 69.0725 25.5083C69.0398 25.5192 69.138 25.5192 68.8433 25.6175C68.4285 25.7048 68.0137 25.8249 67.6207 25.9559C67.195 25.9777 66.8457 26.2942 66.42 26.2833C65.9943 26.2724 65.6669 26.6326 65.2412 26.6108C64.8264 26.6326 64.4334 26.6872 64.095 26.9383C63.713 27.0365 63.4074 27.4076 62.9707 27.2548C62.5887 27.2985 62.1302 27.0692 61.8792 27.5714C61.4971 27.5714 61.2133 27.9534 60.8204 27.877C60.5475 28.27 60.1327 28.0735 59.7943 28.1826C59.4778 28.3354 59.1721 28.521 58.8119 28.4774C58.7246 28.4664 58.6373 28.4773 58.5609 28.4992C58.5172 28.5101 58.4845 28.521 58.4408 28.5428C58.4299 28.5428 58.3971 28.5647 58.3971 28.5647H58.3862C58.3535 28.6193 58.2989 28.6847 58.2552 28.6629C58.2334 28.5647 58.1897 28.6629 58.0806 28.7502C58.0369 28.7721 57.9933 28.7284 58.0478 28.6083C58.0151 28.5756 58.0151 28.521 58.0042 28.4664V28.4337L57.9823 28.3791C57.9605 28.3136 57.9387 28.2372 57.895 28.1717C58.2116 27.7788 57.7422 27.615 57.633 27.364C57.5021 27.1129 57.7531 26.7636 57.3929 26.5999C57.6221 26.2724 57.3056 26.0978 57.1528 25.8904C56.9999 25.683 57.1528 25.3992 56.9345 25.2245C57.0873 24.9516 56.7052 24.8316 56.7271 24.6133C56.5306 24.4495 56.6179 24.2312 56.5306 24.0566C56.5306 23.8601 56.4651 23.6964 56.345 23.5654C56.2795 23.4126 56.2249 23.2707 56.1813 23.1287C55.8647 22.3319 55.6355 21.9062 55.5264 21.928L55.5482 21.9826Z" fill="#0061EF"/>
<path d="M71.802 17.6492C71.7692 17.5401 71.5291 17.4855 71.1034 17.4964C71.027 17.4964 70.9615 17.4964 70.8741 17.4964C70.7868 17.4964 70.6995 17.4746 70.6122 17.5183C70.5685 17.6929 70.3611 17.289 70.3284 17.5401C70.252 17.6274 70.1319 17.5947 70.0227 17.5728C69.9027 17.551 69.8372 17.7257 69.6844 17.6165C69.4988 17.3545 69.5425 17.9985 69.3241 17.6711C69.1822 17.6274 69.0622 17.6711 68.9421 17.7366C68.8766 17.9876 68.6801 17.8021 68.5382 17.8021C68.4727 18.1077 68.2981 18.0204 68.1125 17.8785C68.0689 18.2823 67.9051 18.2605 67.665 17.9658C67.5122 17.9985 67.3921 18.1732 67.1956 18.064C67.0319 18.0859 66.8572 18.064 66.7153 18.1623C66.4861 17.9658 66.3224 18.0204 66.2132 18.2714C65.9731 18.0531 65.8312 18.2059 65.6893 18.3806C65.5583 18.5771 65.2745 18.2496 65.1544 18.5007C64.9798 18.5661 64.7833 18.5334 64.6086 18.6316C64.4558 18.7845 64.303 18.9591 64.0519 18.7626C63.8446 18.7517 63.6372 18.708 63.4843 18.9045C63.2115 18.6753 63.0586 18.85 62.8949 19.0464C62.6875 19.0464 62.5456 19.2975 62.3055 19.1992C62.1199 19.2975 61.8688 19.1883 61.7051 19.363C61.5305 19.5049 61.3449 19.6359 61.1048 19.5267C60.8646 19.4066 60.7336 19.7123 60.5153 19.6904C60.3843 20.007 60.1005 19.7123 59.9368 19.8542C59.7403 19.876 59.5984 20.1052 59.3692 20.0179C59.1727 20.0179 58.9653 20.0179 58.8125 20.1816C58.5178 19.8323 58.4741 20.3781 58.2776 20.3454C58.1467 20.5637 57.9174 20.4109 57.7537 20.5091C57.5572 20.4873 57.459 20.782 57.2516 20.6728C57.0878 20.7492 56.8805 20.6292 56.7604 20.8257C56.5421 20.6728 56.4875 21.0767 56.291 20.9785C56.1382 21.0221 55.9745 21.0549 55.8435 21.1313C55.778 21.4806 55.5597 21.2623 55.4069 21.2841C55.2759 21.3496 55.0794 21.1859 55.003 21.426C54.872 21.4915 54.7738 21.6552 54.6209 21.5679C54.479 21.557 54.49 22.0919 54.2607 21.7098C54.1188 21.6662 54.1079 22.0919 53.9224 21.8408C53.7368 21.6116 53.704 21.9281 53.6058 21.9718C53.5076 22.0154 53.4093 22.0591 53.322 22.0919C52.5033 22.4521 52.0558 22.7468 52.0995 22.9105C52.154 23.0961 52.7981 23.107 53.8787 22.976C53.9878 22.9651 54.1516 23.1507 54.2171 22.9324C54.3262 22.8996 54.49 23.0415 54.5773 22.8778C54.7738 23.1288 54.8393 22.8669 54.9593 22.8123C55.0903 22.7905 55.1995 22.6595 55.3632 22.7359C55.5488 22.8669 55.6143 22.5831 55.7889 22.6595C55.8871 22.4412 56.04 22.4521 56.2364 22.5721C56.3347 22.3647 56.553 22.5285 56.7058 22.4739C56.7931 22.1683 57.0005 22.3102 57.197 22.3757C57.3826 22.4302 57.5136 22.2447 57.6991 22.2665C57.8519 22.1683 58.0593 22.2447 58.2231 22.1464C58.4305 22.2228 58.616 22.2228 58.7579 22.0264C58.9544 22.07 59.1181 21.95 59.3037 21.8954C59.5111 21.95 59.6639 21.7862 59.8604 21.7644C60.0569 21.7644 60.166 21.3823 60.428 21.6225C60.6245 21.6116 60.7991 21.4697 61.0174 21.4806C61.203 21.3933 61.3886 21.295 61.6069 21.3278C61.7269 20.9785 61.978 21.1095 62.2072 21.164C62.4365 21.1968 62.622 21.0985 62.8076 21.0003C63.015 20.9785 63.2115 20.913 63.397 20.8366C63.6153 20.8693 63.7572 20.6073 63.9755 20.6728C64.2048 20.7383 64.3248 20.4327 64.5431 20.5091C64.7505 20.5419 64.947 20.5419 65.0998 20.3454C65.2854 20.2908 65.3946 19.9852 65.6347 20.1816C65.8312 20.1816 66.0931 20.4654 66.1586 20.0179C66.3551 20.0725 66.4534 19.7341 66.6608 19.8542C66.7481 19.5158 66.9882 19.7559 67.152 19.7014C67.2939 19.6031 67.4358 19.4612 67.6213 19.5485C67.8178 19.6468 67.9051 19.3848 68.0689 19.3957C68.2653 19.5267 68.309 19.0901 68.5055 19.2429C68.6365 19.1665 68.7893 19.1883 68.9093 19.101C69.1495 19.4612 69.1822 19.0246 69.2914 18.9591C69.4005 18.8718 69.6189 19.1556 69.6516 18.8172C69.8481 19.0901 69.9027 18.7954 69.99 18.6862C70.0773 18.5661 70.241 18.7517 70.3065 18.5552C70.4703 18.7408 70.4812 18.3806 70.5903 18.4352C70.6449 18.2714 70.7759 18.3806 70.8523 18.3151C70.9506 18.3369 71.027 18.3042 71.0815 18.2059C71.1579 18.1732 71.2234 18.1295 71.278 18.0968C71.6491 17.8894 71.8456 17.7257 71.8129 17.6165L71.802 17.6492Z" fill="#0061EF"/>
<path d="M56.1485 99.079C56.2577 99.0463 56.1813 98.4568 55.9411 97.4198C55.8975 97.2452 55.8538 97.0596 55.8102 96.8632C55.7774 96.6667 55.7337 96.4484 55.6573 96.2301C55.439 96.0663 55.7774 95.6952 55.4718 95.5315C55.3299 95.3132 55.308 95.0403 55.2644 94.7674C55.2316 94.4945 54.9915 94.2653 55.0352 93.9378C55.2207 93.5667 54.533 93.4684 54.7841 93.0427C54.7623 92.7153 54.6313 92.4096 54.5112 92.0931C54.1837 91.842 54.2929 91.4381 54.2165 91.0888C53.8454 90.8378 53.8454 90.4448 53.8999 90.0301C53.4306 89.7899 53.3542 89.3969 53.5616 88.9167C53.4415 88.5346 53.1795 88.1962 53.2013 87.7487C53.0922 87.3448 53.0267 86.93 52.8302 86.5371C52.9285 86.0459 52.7866 85.642 52.4373 85.2818C52.5464 84.7797 52.3063 84.3758 52.0334 83.9829C51.7496 83.5899 51.9679 83.0332 51.6077 82.6512C51.4549 82.2145 51.3239 81.7561 51.1711 81.2867C50.789 81.2867 50.3851 81.2758 49.9813 81.2976L49.8175 81.3195H49.7411L49.6975 81.3413L49.5119 81.385C49.3918 81.4068 49.2718 81.4286 49.1408 81.4395C48.8897 81.4505 48.6496 81.4286 48.3985 81.2976C47.8964 81.2321 47.3943 81.1448 46.8922 81.2976C46.3792 81.0138 45.8661 81.1448 45.3531 81.2976C44.8401 81.254 44.3161 81.4614 43.7922 81.2976C43.2682 81.3413 42.7334 81.1776 42.1985 81.2976C41.6637 81.385 41.1397 81.4723 40.6048 81.2976C40.0809 81.123 39.557 81.385 39.033 81.3086C38.52 81.5814 38.007 81.2321 37.4939 81.3304C36.9809 81.3086 36.4788 81.4941 35.9876 81.3522C35.7365 81.3304 35.4855 81.3086 35.2453 81.2976C35.1253 81.2976 35.0052 81.2976 34.8742 81.3086C34.8087 81.3086 34.7541 81.3195 34.6886 81.3304C34.6231 81.3304 34.5904 81.3522 34.4594 81.3631C34.0337 81.1776 33.5425 81.1885 33.1496 81.2431C33.0841 81.505 33.0295 81.7779 32.9749 82.0181C32.9422 82.1381 32.9203 82.2582 32.8767 82.3674C32.8548 82.4219 32.8439 82.4765 32.8221 82.5311C32.8003 82.5857 32.7784 82.6402 32.7566 82.6621C32.7566 83.1642 32.3964 83.5244 32.2654 83.9719C32.0253 84.3758 32.1126 84.8888 31.796 85.2491C31.665 85.6748 31.3485 86.0241 31.3485 86.4825C30.9992 86.81 31.1957 87.3448 30.9119 87.6723C30.7591 88.0543 30.6062 88.4255 30.4971 88.8184C30.6499 89.3096 30.2679 89.5716 30.1041 89.91C29.995 90.2811 29.6675 90.5431 29.733 90.9579C29.6238 91.3072 29.6348 91.6783 29.3837 91.9512C29.22 92.2459 29.5802 92.748 29.0672 92.8899C28.8816 93.1628 29.1436 93.5994 28.7724 93.7741C28.4122 93.9596 28.5869 94.3308 28.4995 94.5927C28.4122 94.8547 28.3358 95.1058 28.2594 95.3459C27.5608 97.5072 27.2443 98.7734 27.408 98.8389C27.5826 98.9044 28.3358 97.4744 29.471 94.9639C29.5911 94.7128 29.8967 94.5272 29.8203 94.1779C29.9295 93.9051 30.2024 93.6758 30.1915 93.3265C30.5844 93.141 30.4753 92.7371 30.5844 92.4205C30.7263 92.104 30.7591 91.7438 30.9992 91.46C31.2939 91.1871 31.1848 90.7505 31.4358 90.4339C31.4031 90.0191 31.5886 89.6698 31.8834 89.3642C31.8615 88.9276 32.2108 88.6329 32.3527 88.2399C32.2436 87.7487 32.5819 87.4322 32.8439 87.0719C33.095 86.7117 33.1168 86.2424 33.346 85.8603C33.4552 85.4237 33.739 85.0526 33.8591 84.605C34.1429 84.223 34.3612 83.8082 34.383 83.3061C34.4048 83.2624 34.4048 83.2733 34.4158 83.2733H34.4267C34.4267 83.2733 34.4376 83.2515 34.4485 83.2515C34.4485 83.2406 34.4594 83.2188 34.4703 83.1969C34.4922 83.1969 34.5249 83.1751 34.5577 83.1751C34.5467 83.186 34.6231 83.1969 34.6886 83.2079C34.7432 83.2079 34.8087 83.2079 34.8742 83.2188C34.9943 83.2188 35.1143 83.2188 35.2453 83.2188C35.4964 83.2079 35.7365 83.1751 35.9876 83.186C36.4897 83.2406 36.9918 82.8913 37.4939 83.186C38.007 83.2188 38.52 83.1314 39.033 83.186C39.546 83.1424 40.07 83.0987 40.6048 83.186C41.1288 82.8804 41.6637 83.0659 42.1985 83.186C42.7334 83.2733 43.2682 83.2188 43.7922 83.1751C44.3161 83.2079 44.8401 83.1751 45.364 83.1642C45.877 83.2515 46.3901 83.0332 46.9031 83.1424C47.4161 83.2624 47.9073 83.0005 48.4094 83.1205C48.6605 83.1642 48.9006 83.1969 49.1517 83.1969C49.2718 83.1969 49.3918 83.1969 49.5228 83.1751C49.5883 83.1751 49.6429 83.1533 49.7084 83.1424H49.752V83.1205V83.0987C49.752 83.0987 49.8503 83.0441 49.9376 83.0005C49.9922 83.0005 50.0468 83.1096 49.9376 83.2079C50.0359 83.6772 49.8612 84.223 50.3961 84.5286C50.4397 84.998 50.8763 85.3255 50.8436 85.8057C51.2802 86.1332 51.1383 86.6353 51.2802 87.0392C51.4767 87.4322 51.7059 87.7924 51.7059 88.229C51.7059 88.6656 52.0443 88.9822 52.1207 89.3751C52.0771 89.8117 52.5901 90.0519 52.5246 90.4667C52.6774 90.816 52.732 91.1871 52.9066 91.5036C52.6337 91.973 53.1359 92.1804 53.2778 92.486C53.4415 92.7917 53.2341 93.2065 53.6271 93.4139C53.4306 93.8177 53.7908 94.0251 53.9545 94.2762C54.1292 94.5272 54.0091 94.8765 54.2711 95.073C54.151 95.4005 54.5549 95.5424 54.5658 95.8153C54.7841 96.0117 54.7295 96.2737 54.8387 96.4811C54.8605 96.7103 54.9478 96.9068 55.0897 97.0815C55.1771 97.267 55.2425 97.4417 55.319 97.6054C55.7556 98.5769 56.0394 99.0899 56.1485 99.0572V99.079Z" fill="#0061EF"/>
<path d="M42.1443 87.3557C42.1443 87.3011 42.0897 87.2466 41.9696 87.192C41.9151 87.1702 41.8387 87.1374 41.7513 87.1265C41.664 87.1156 41.5658 87.1047 41.4457 87.0938C41.3693 87.0938 41.282 87.0938 41.1946 87.0938C41.151 87.0938 41.0964 87.0938 41.0527 87.0938C41.0091 87.0938 40.9545 87.1156 40.9108 87.1374C40.8781 87.3121 40.6052 86.9409 40.5943 87.2138C40.5288 87.323 40.3869 87.3121 40.2559 87.3339C40.1249 87.3557 40.0922 87.5413 39.9066 87.5085C39.7647 87.4321 39.7538 87.5413 39.7429 87.6395C39.7429 87.7378 39.732 87.836 39.5464 87.7487C39.3827 87.7814 39.2953 87.9233 39.1971 88.0434C39.2299 88.1744 39.1862 88.2399 39.1098 88.2835C39.0334 88.3272 38.9351 88.349 38.8696 88.4145C39.0115 88.7092 38.826 88.7638 38.5858 88.8511C38.8369 89.1677 38.7387 89.2769 38.3457 89.3533C38.3129 89.4406 38.3239 89.5388 38.3129 89.6371C38.302 89.7353 38.2802 89.8226 38.182 89.91C38.1601 90.0082 38.1165 90.1064 38.0946 90.2047C38.0728 90.3029 38.0728 90.4121 38.0946 90.5103C37.9637 90.6085 37.92 90.7286 37.92 90.8378C37.92 90.8923 37.9418 90.9469 37.9637 91.0015C37.9964 91.0561 38.051 91.0997 38.1056 91.1543C37.8654 91.4163 38.0291 91.6346 38.2256 91.8093C38.3348 91.8966 38.3129 92.0166 38.3129 92.1476C38.3129 92.2786 38.3239 92.3987 38.4767 92.4533C38.5968 92.6497 38.6513 92.9008 38.8369 93.0645C38.946 93.13 39.0661 93.1846 39.1644 93.261C39.2517 93.3374 39.3063 93.4466 39.3172 93.6212C39.3827 93.7304 39.4482 93.8395 39.5464 93.9269C39.6446 94.0142 39.7538 94.0797 39.8957 94.0797C39.9612 94.4617 40.2777 94.4835 40.5725 94.4399C40.6816 94.5054 40.8235 94.5163 40.9545 94.5272C41.0855 94.5272 41.2056 94.56 41.3256 94.6582C41.4566 94.6582 41.5876 94.7128 41.7186 94.7455C41.8496 94.7783 41.9806 94.7892 42.1225 94.7455C42.2534 94.7019 42.3844 94.6473 42.5154 94.6255C42.6464 94.6036 42.7665 94.6036 42.9193 94.6582C43.0612 94.7237 43.1922 94.6582 43.3123 94.6036C43.4323 94.5381 43.5306 94.4399 43.6616 94.429C43.727 94.2652 43.8471 94.2216 43.9781 94.2107C44.1091 94.1997 44.251 94.1779 44.3383 94.0797C44.4584 94.0251 44.5348 93.9159 44.6112 93.8286C44.6985 93.7413 44.7749 93.654 44.9168 93.6212C45.026 93.5557 45.1242 93.4902 45.2116 93.392C45.2552 93.3483 45.2989 93.3047 45.3207 93.2501C45.3535 93.1955 45.3753 93.1409 45.3862 93.0645C45.6263 93.0973 45.6809 92.9772 45.6809 92.8353C45.6809 92.6934 45.6591 92.5515 45.7464 92.4642C45.7137 92.3223 45.7792 92.224 45.8337 92.1258C45.8992 92.0276 45.9647 91.9293 45.9866 91.8202C46.052 91.7219 46.0302 91.6019 46.0302 91.4818C46.0302 91.3617 46.0084 91.2635 46.1066 91.1652C46.1066 91.1107 46.1066 91.0561 46.1285 91.0015C46.1394 90.9469 46.1503 90.8923 46.1721 90.8378C46.1939 90.7286 46.2049 90.6195 46.1175 90.5212C46.2158 90.4121 46.1612 90.3138 46.1175 90.2156C46.063 90.1173 45.9866 90.03 46.0411 89.9209C46.0302 89.8226 46.0084 89.7244 45.9866 89.6371C45.9538 89.5388 45.932 89.4515 45.8774 89.3642C45.6918 89.3205 45.6482 89.255 45.6482 89.1568C45.6482 89.0585 45.67 88.9494 45.6482 88.8621C45.5499 88.7202 45.6263 88.4582 45.3644 88.4254C45.2443 88.3054 45.0478 88.2617 45.0369 88.0652C45.0042 87.9888 44.8623 88.0106 44.764 88.0106C44.6658 88.0106 44.6003 87.9779 44.6876 87.7705C44.6549 87.6941 44.5566 87.705 44.4584 87.705C44.3711 87.705 44.2946 87.6941 44.3274 87.5413C44.3711 87.2356 44.0873 87.4212 43.9781 87.3666C43.8689 87.3121 43.7489 87.2793 43.6397 87.2466C43.1485 87.1047 42.7556 87.1156 42.4936 87.1592C42.2316 87.2138 42.1115 87.3011 42.1115 87.3885C42.1115 87.4867 42.2644 87.574 42.5154 87.6941C42.7665 87.8142 43.1158 87.9779 43.4542 88.2726C43.5196 88.3381 43.476 88.5564 43.6616 88.4582C43.738 88.5128 43.7052 88.6983 43.858 88.6765C43.727 88.9603 43.9563 88.8511 44.0436 88.9276C44.1091 89.0149 44.2401 89.0476 44.2073 89.2004C44.1091 89.386 44.4038 89.3423 44.3383 89.5061C44.5566 89.5279 44.5566 89.6807 44.4366 89.8335C44.5457 89.8663 44.5457 89.9318 44.5348 89.9973C44.5239 90.0628 44.4802 90.1283 44.4911 90.1938C44.633 90.2265 44.6658 90.292 44.6439 90.3575C44.6221 90.423 44.5457 90.4994 44.4911 90.554C44.4475 90.6195 44.4475 90.674 44.4584 90.7395C44.4584 90.7723 44.4693 90.805 44.4693 90.8378C44.4693 90.8705 44.4693 90.9033 44.4366 90.9251C44.4802 91.067 44.3165 91.1543 44.3274 91.2962C44.2401 91.3399 44.1746 91.3835 44.1527 91.4381C44.12 91.4927 44.12 91.5582 44.1527 91.6564C44.0873 91.7001 44.0436 91.7438 44.0218 91.8093C43.9999 91.8747 43.9672 91.9293 43.9235 91.9839C43.8799 91.9839 43.858 92.0166 43.8253 92.0385C43.8035 92.0603 43.7816 92.0821 43.7598 92.1149C43.727 92.1695 43.6943 92.2459 43.6288 92.2786C43.5633 92.3004 43.5633 92.4096 43.5196 92.4751C43.4869 92.5515 43.4323 92.617 43.2904 92.5188C43.1594 92.5624 43.0721 92.7043 42.9084 92.7043C42.8538 92.748 42.7883 92.7916 42.7228 92.8135C42.6573 92.8353 42.5809 92.8462 42.5045 92.8135C42.4608 92.9663 42.3844 93.01 42.308 92.999C42.2316 92.9772 42.1443 92.9008 42.0788 92.8571C42.0024 92.8135 41.9369 92.7916 41.8605 92.8026C41.795 92.8026 41.7186 92.8026 41.6422 92.8244C41.5112 92.7698 41.3693 92.748 41.2274 92.7043C41.1401 92.5733 40.9108 92.7043 40.8453 92.5188C40.8126 92.4314 40.7471 92.4205 40.6707 92.3987C40.5943 92.3987 40.5179 92.3659 40.507 92.2677C40.4851 92.1913 40.4633 92.1149 40.4196 92.0712C40.376 92.0166 40.3214 91.9948 40.2232 91.973C40.1795 91.9184 40.0813 91.9075 40.0158 91.8638C39.9503 91.8202 39.8957 91.7656 39.9939 91.6455C39.9939 91.5691 40.0485 91.4709 40.0703 91.4054C40.0922 91.329 40.0485 91.2853 39.8302 91.2962C39.863 91.2198 39.7975 91.1762 39.7429 91.1216C39.6774 91.067 39.6446 91.0015 39.7211 90.9251C39.6446 90.9033 39.601 90.8814 39.5791 90.8487C39.5573 90.8159 39.5682 90.7832 39.5791 90.7504C39.6119 90.685 39.6665 90.6195 39.6665 90.554C39.6446 90.4885 39.601 90.423 39.5901 90.3575C39.5791 90.292 39.5901 90.2265 39.6774 90.1828C39.7538 90.1392 39.7538 90.0737 39.732 90.0082C39.721 89.9427 39.6883 89.8772 39.732 89.8226C39.8302 89.8008 39.7975 89.7244 39.7647 89.648C39.732 89.5716 39.721 89.4952 39.8302 89.4842C39.8302 89.3642 39.9612 89.3096 39.9612 89.1786C40.1577 89.2441 40.1904 89.2114 40.1795 89.135C40.1686 89.0585 40.1031 88.9494 40.1249 88.8948C40.1358 88.8402 40.2232 88.8402 40.2777 88.8293C40.3323 88.8184 40.376 88.7966 40.3105 88.6438C40.4524 88.7311 40.4851 88.6983 40.4961 88.6438C40.507 88.5892 40.4961 88.4909 40.4961 88.4254C40.5179 88.2835 40.7253 88.4254 40.7034 88.2399C40.8781 88.3818 40.8017 88.0543 40.9108 88.0871C40.9218 87.9124 41.0527 88.0216 41.1073 87.9561C41.151 87.9561 41.1837 87.9561 41.2165 87.9452C41.2492 87.9233 41.2711 87.8906 41.2929 87.8469C41.3584 87.8142 41.413 87.7814 41.4675 87.7487C41.5549 87.705 41.6313 87.6723 41.6968 87.6395C41.7622 87.6068 41.8277 87.574 41.8714 87.5522C41.9696 87.4867 42.0242 87.4321 42.0242 87.3776L42.1443 87.3557Z" fill="#0061EF"/>
<path d="M21.0769 99.0681C20.9568 99.0681 20.8477 100.891 20.7494 104.231C20.7385 104.788 20.7167 105.388 20.6949 106.021C20.684 106.338 20.6621 106.676 20.6512 107.015C20.6512 107.189 20.6512 107.353 20.6512 107.528C20.6512 107.746 20.6512 107.953 20.6512 108.172C20.7058 108.51 20.684 108.848 20.6512 109.252C20.9459 109.285 21.2734 109.34 21.6336 109.361C21.7209 109.361 21.8192 109.361 21.9065 109.361H22.0484C22.0484 109.361 22.1466 109.361 22.1794 109.361C22.3104 109.361 22.4304 109.329 22.5614 109.296C23.3583 109.23 24.1878 109.296 25.0611 109.34C25.9343 109.394 26.8403 109.241 27.779 109.383C28.7178 109.678 29.7002 109.056 30.7044 109.427C31.7195 109.503 32.7565 109.481 33.8371 109.471C34.9178 109.241 36.0202 109.471 37.1555 109.503C38.2907 109.23 39.4586 109.351 40.6593 109.536C41.86 109.165 43.0826 109.22 44.3379 109.569C45.5931 109.58 46.8703 109.438 48.1801 109.602C49.49 109.623 50.8217 109.7 52.1861 109.634C53.5506 109.885 54.9259 109.874 56.334 109.656C57.7421 109.929 59.172 109.82 60.6238 109.678C62.0756 109.525 63.5492 109.918 65.0446 109.7C66.54 109.678 68.0573 109.765 69.5964 109.722C71.1354 109.612 72.6854 109.492 74.2573 109.733C75.8291 109.798 77.4228 109.885 79.0274 109.743C80.6319 110.027 82.2583 109.907 83.8957 109.743C85.533 109.787 87.1812 109.591 88.8513 109.743C89.6809 109.722 90.5214 109.743 91.3619 109.776C91.7767 109.787 92.2024 109.798 92.6281 109.798C92.9665 109.798 93.3158 109.798 93.6541 109.787C94.0471 109.787 94.4401 109.765 94.8112 109.754C94.7894 109.023 94.7675 108.292 94.7457 107.56C94.7239 107.135 94.7129 106.72 94.7129 106.294C94.7129 105.454 94.7129 104.624 94.8112 103.784C94.8985 102.987 94.8876 102.19 94.8548 101.393C94.833 101 94.8221 100.596 94.8112 100.203V99.7448L94.8003 99.1991C94.8003 98.8389 94.8003 98.4786 94.8003 98.1075H94.4401C94.0362 98.1294 93.6541 98.1621 93.283 98.173L92.77 98.1948H92.4644C92.0605 98.2058 91.6566 98.1949 91.2418 98.173C90.4341 98.1294 89.6263 98.0639 88.8186 98.1184C87.214 98.0966 85.6203 98.2713 84.0485 98.1184C82.4767 98.0639 80.9267 98.0202 79.3876 98.1294C77.8485 97.7146 76.3421 98.2385 74.8467 98.1512C73.3513 98.3258 71.8777 98.1294 70.4259 98.173C68.9742 98.0966 67.5442 98.3586 66.1361 98.1948C64.728 98.2276 63.3418 98.0639 61.9882 98.2167C60.6238 98.0093 59.2921 98.3913 57.9823 98.2494C56.6724 98.2494 55.3953 98.2385 54.14 98.2822C52.8847 98.6096 51.6622 98.3368 50.4615 98.3149C49.2608 98.3477 48.0928 98.1294 46.9576 98.3477C45.8224 98.3695 44.709 98.5114 43.6393 98.3804C42.5586 98.3367 41.5217 98.8498 40.5065 98.4241C39.5023 98.3477 38.5199 98.7515 37.5812 98.4677C36.6424 98.2058 35.7364 98.5005 34.8632 98.5114C33.99 98.5223 33.1604 98.5441 32.3635 98.5551C28.7833 98.6206 25.9561 98.697 24.035 98.7843C22.1139 98.8607 21.0878 98.948 21.0878 99.0353C21.0878 99.1336 22.354 99.2209 24.7118 99.3082C27.0695 99.3956 30.5188 99.4829 34.8632 99.5484C35.7364 99.5593 36.6424 99.7885 37.5812 99.592C38.5199 99.592 39.5023 99.7667 40.5065 99.6357C41.5217 99.9304 42.5586 99.6903 43.6393 99.6794C44.7199 99.6903 45.8224 99.6029 46.9576 99.7121C48.0928 99.8868 49.2608 99.6248 50.4615 99.7448C51.6622 99.5593 52.8847 99.6139 54.14 99.7776C55.3953 99.603 56.6724 99.8103 57.9823 99.8103C59.2921 99.5375 60.6238 99.7339 61.9882 99.8431C63.3527 99.9413 64.728 99.7994 66.1361 99.8649C67.5442 99.8103 68.9742 99.9304 70.4259 99.8868C71.8777 100.018 73.3513 100.061 74.8467 99.9086C76.3421 99.9959 77.8594 99.9304 79.3876 99.9304C80.9267 100.04 82.4767 99.9195 84.0485 99.9413C85.6203 99.9959 87.214 99.6466 88.8186 99.9522C89.6154 99.9741 90.4232 99.9522 91.2418 99.9522C91.6457 99.9522 92.0605 99.9522 92.4644 99.9522H92.77H92.8136H92.8246H92.8464C92.8791 99.9522 92.901 99.9522 92.9119 99.9632H92.9446L92.9555 100.029V100.072C92.9555 100.072 92.9555 100.072 92.9665 100.203C92.9665 100.596 92.9665 100.989 92.9774 101.393C92.9774 102.179 92.9774 102.976 92.9228 103.784C93.0756 104.613 93.0975 105.454 93.0756 106.294C93.0647 106.709 93.0429 107.135 93.0101 107.56V107.713C93.0101 107.713 92.9992 107.746 92.9883 107.746C92.9883 107.746 92.9774 107.79 92.9665 107.811C92.9446 107.844 92.9337 107.855 92.9228 107.866L92.8355 107.844H92.8027C92.8027 107.844 92.8027 107.844 92.77 107.844H92.6172C92.1915 107.844 91.7767 107.844 91.351 107.844C90.5105 107.844 89.6809 107.877 88.8404 107.899C87.1812 107.866 85.5221 107.888 83.8848 107.899C82.2474 107.811 80.621 108.03 79.0164 107.899C77.4119 107.768 75.8182 108.041 74.2464 107.899C72.6745 107.811 71.1245 107.768 69.5854 107.91C68.0464 107.91 66.5291 108.183 65.0337 107.931C63.5382 107.877 62.0647 107.539 60.6129 107.953C59.1611 107.844 57.7312 108.161 56.3231 107.975C54.915 108.281 53.5287 107.986 52.1752 107.997C50.8108 108.052 49.4791 108.161 48.1692 108.03C46.8593 107.888 45.5822 108.106 44.3269 108.062C43.0717 107.888 41.8491 108.292 40.6484 108.095C39.4477 108.139 38.2798 108.073 37.1445 108.128C36.0093 107.713 34.8959 108.128 33.8262 108.161C32.7456 108.226 31.7086 107.888 30.6935 108.204C29.6892 107.888 28.7069 108.161 27.7681 108.248C26.8294 108.335 25.9234 108.117 25.0502 108.292C24.1769 108.073 23.3473 108.412 22.5505 108.335C22.4195 108.357 22.2995 108.379 22.1685 108.39H22.0375C22.0375 108.39 21.9611 108.412 21.9174 108.412C21.7646 108.412 21.6227 108.412 21.4808 108.39C21.4808 108.226 21.5026 108.073 21.4808 107.921C21.4808 107.866 21.4808 107.811 21.4917 107.768V107.713V107.648V107.517C21.4917 107.342 21.4917 107.167 21.4917 107.004C21.4917 106.665 21.459 106.338 21.4153 106.01C21.3935 105.366 21.3826 104.766 21.3607 104.209C21.2625 100.869 21.1424 99.0463 21.0332 99.0463L21.0769 99.0681Z" fill="#0061EF"/>
</g>
<defs>
<clipPath id="clip0_1032_13941">
<rect width="83.9621" height="92.4762" fill="white" transform="matrix(-1 0 0 1 94.877 17.4636)"/>
</clipPath>
</defs>
</svg>
