<svg width="78" height="101" viewBox="0 0 78 101" fill="none" xmlns="http://www.w3.org/2000/svg">
<path d="M69 0C73.4183 3.22128e-08 77 3.58172 77 8V92C77 96.4183 73.4183 100 69 100H28C23.5817 100 20 96.4183 20 92V79H8C3.58172 79 1.28855e-07 75.4183 0 71V39C5.15422e-07 34.5817 3.58172 31 8 31H20V8C20 3.58172 23.5817 3.22128e-08 28 0H69Z" fill="#FFF1E4"/>
<g clip-path="url(#clip0_1032_13943)">
<path d="M32.2302 15.6898C32.2302 15.6898 32.1802 15.7198 32.0802 15.7398C31.9802 15.7598 31.8302 15.7698 31.6502 15.8198C31.2802 15.9098 30.7102 16.0798 30.1202 16.5298C29.8202 16.7498 29.5302 17.0498 29.2802 17.4298C29.0302 17.8098 28.8202 18.2698 28.7302 18.7998C28.7202 18.9298 28.6902 19.0698 28.6802 19.1998C28.6802 19.3398 28.6702 19.4698 28.6802 19.6298C28.6802 19.9298 28.6902 20.2498 28.7002 20.5798C28.7102 21.2298 28.7202 21.9298 28.7402 22.6698C28.7502 23.6498 28.7702 24.7098 28.7902 25.8398C28.8202 26.9698 28.8502 28.1698 28.8402 29.4398C28.7002 30.7098 29.1002 32.0498 28.8802 33.4598C28.8202 34.8698 28.8802 36.3398 28.9202 37.8798C28.9302 38.2998 28.9302 38.7198 28.9202 39.1498C28.9202 39.2498 28.9202 39.3598 28.9202 39.4698V39.6398C28.9202 39.7598 28.9102 39.8798 28.9002 39.9998C29.0002 39.9998 29.1002 39.9998 29.2002 39.9998C29.3202 39.9998 29.4402 39.9998 29.5602 39.9998C29.9302 39.9998 30.3102 39.9798 30.6902 39.9498C32.3502 39.6798 34.0802 40.2498 35.8602 39.9098C37.6402 39.8298 39.4902 39.8598 41.3902 39.8698C42.1502 39.9498 42.9302 39.9698 43.7102 39.9598C44.1002 39.9598 44.4902 39.9398 44.8902 39.9198C45.0402 39.9198 45.4002 39.8998 45.7002 39.8898C46.0202 39.8898 46.3402 39.8698 46.6602 39.8598C46.6702 40.4398 46.6802 41.0298 46.7002 41.6098C46.4502 43.6198 46.5602 45.6798 46.7302 47.7998C46.3902 49.9198 46.4402 52.0798 46.7602 54.2998C46.7702 56.5198 46.6402 58.7798 46.7902 61.0898C46.7902 61.8798 46.8102 62.6698 46.8202 63.4698C46.8202 63.8698 46.8202 64.2698 46.8302 64.6698C46.8302 65.3198 46.8302 65.9798 46.8302 66.6398C46.2002 66.6398 45.5702 66.6398 44.9402 66.6398C44.5602 66.6398 44.1802 66.6298 43.8002 66.6198C41.4002 66.8498 38.9502 66.8398 36.4702 66.6398C35.3302 66.7498 34.1902 66.7898 33.0302 66.7898C32.4502 66.7898 31.8702 66.7798 31.2902 66.7598C31.0002 66.7598 30.7102 66.7398 30.4202 66.7298L29.9802 66.7098H29.9502H29.9302H29.8902L29.8402 66.7298H29.8202L29.7602 66.7898L29.6402 66.8998L29.3102 67.1998C29.3102 67.1998 29.2802 67.2298 29.2702 67.2398L29.2502 67.2598L29.2102 67.2998V67.3498V67.4198V67.8498C29.2102 68.1398 29.2302 68.4198 29.2302 68.7098C29.2502 69.2798 29.2702 69.8598 29.2902 70.4298C29.3302 71.5798 29.3502 72.7398 29.2602 73.9098C29.2402 76.5498 29.3202 79.2298 29.2802 81.9398C29.1802 84.6498 29.0702 87.3998 29.2902 90.1698C29.3202 91.5598 29.3602 92.9598 29.3702 94.3598C29.3702 94.7098 29.3702 95.0598 29.3702 95.4098C29.3702 95.4598 29.3702 95.4898 29.3702 95.5198V95.6198C29.3702 95.6898 29.3702 95.7498 29.3902 95.8198L29.4202 96.0198C29.4302 96.0898 29.4502 96.1498 29.4702 96.2198L29.4902 96.3198L29.5202 96.4098C29.5402 96.4698 29.5602 96.5398 29.5902 96.5998C29.6502 96.7198 29.7002 96.8498 29.7702 96.9698C29.8302 97.0898 29.9202 97.1998 29.9902 97.3198C30.0802 97.4198 30.1602 97.5398 30.2602 97.6298C30.7102 97.9598 31.2302 98.1698 31.7502 98.2398L31.9502 98.2598C32.0202 98.2598 32.0802 98.2598 32.1502 98.2598H32.2502C32.2502 98.2598 32.3402 98.2598 32.3802 98.2598H32.6502C33.0102 98.2598 33.3602 98.2598 33.7202 98.2598C35.1502 98.2698 36.5902 98.3398 38.0402 98.4098C40.9302 98.3698 43.8502 98.5498 46.7902 98.4098C49.7302 98.4498 52.6902 98.2898 55.6802 98.4098C58.6702 98.4898 61.6302 98.5598 64.5702 98.4098C66.0402 98.3298 67.5002 98.3398 68.9602 98.3698C69.6902 98.3898 70.4202 98.3998 71.1402 98.4098C71.5002 98.4098 71.8702 98.4098 72.2302 98.4098H72.7702H72.9102C72.9602 98.4098 73.0002 98.4098 73.0302 98.4098L73.2402 98.3898C73.8002 98.3998 74.3802 98.2098 74.8402 97.8598C75.0702 97.6798 75.2802 97.4798 75.4402 97.2398C75.6002 96.9998 75.7402 96.7498 75.8202 96.4698C75.8702 96.3398 75.8902 96.1998 75.9202 96.0598C75.9302 95.9198 75.9602 95.7798 75.9602 95.6398V95.4198V95.1498V94.6098C75.9302 93.8998 75.9302 93.1898 75.9602 92.4798C75.9402 89.6398 76.1002 86.8398 75.9602 84.0598C75.9202 81.2798 75.8702 78.5398 75.9702 75.8298C75.5902 73.1198 76.0702 70.4398 75.9902 67.7998C76.1502 65.1598 75.9702 62.5498 76.0102 59.9898C75.9402 57.4198 76.1802 54.8998 76.0302 52.4098C76.0602 49.9198 75.9102 47.4798 76.0502 45.0798C75.8602 42.6798 76.2102 40.3198 76.0802 38.0098C76.0802 35.6998 76.0702 33.4298 76.1102 31.2198C76.4002 28.9998 76.1602 26.8398 76.1402 24.7198C76.1602 23.6598 76.1102 22.6198 76.0902 21.5898C76.0802 21.0698 76.0702 20.5598 76.0902 20.0498V19.6698L76.1102 19.4798V19.3198V19.1598V18.9998L76.0902 18.8398L76.0702 18.6798C75.8802 17.8598 75.3602 17.1198 74.6502 16.6698C74.3002 16.4498 73.9002 16.2998 73.4902 16.2398L73.3402 16.2198H73.1902H73.0402C72.9902 16.2198 72.9202 16.2198 72.8602 16.2198C72.6202 16.2198 72.3802 16.2398 72.1502 16.2498C70.2502 16.2898 68.4102 15.8198 66.6202 16.2098C64.8402 16.2798 63.1102 15.9098 61.4502 16.1698C59.7902 16.4098 58.1802 16.1398 56.6502 16.1298C55.1102 16.1098 53.6402 16.0998 52.2302 16.0898C45.9002 16.0298 40.9202 15.9598 37.5202 15.8798C35.8202 15.8398 34.5202 15.8098 33.6402 15.7698C32.7602 15.7298 32.3102 15.6898 32.3102 15.6498C32.3102 15.6098 32.8702 15.5598 33.9502 15.5198C35.0302 15.4798 36.6302 15.4398 38.7102 15.3998C42.8702 15.3198 48.9602 15.2398 56.6502 15.1798C58.1902 15.1698 59.7902 14.9598 61.4502 15.1398C63.1102 15.1398 64.8402 14.9798 66.6202 15.0998C68.4002 14.8298 70.2502 15.0498 72.1502 15.0598H72.8602C72.9202 15.0598 72.9802 15.0598 73.0402 15.0598H73.2502L73.4602 15.0798L73.6702 15.1098C74.2202 15.1998 74.7602 15.3998 75.2402 15.6898C76.2102 16.2698 76.9502 17.2198 77.3002 18.3498L77.3702 18.5598L77.4102 18.7798L77.4502 18.9998L77.4702 19.2198L77.4902 19.4398V19.6298V20.0098C77.4902 20.5198 77.4902 21.0298 77.4702 21.5498C77.4402 22.5798 77.4102 23.6298 77.4702 24.6798C77.3002 26.7998 77.3502 28.9598 77.5002 31.1798C77.3402 33.3998 77.5402 35.6598 77.5302 37.9698C77.2802 40.2798 77.4502 42.6398 77.5602 45.0398C77.6502 47.4398 77.5202 49.8898 77.5802 52.3698C77.5302 54.8598 77.6402 57.3798 77.6002 59.9498C77.7202 62.5198 77.7602 65.1198 77.6202 67.7598C77.7002 70.3998 77.6402 73.0798 77.6402 75.7898C77.7402 78.4998 77.6302 81.2498 77.6502 84.0198C77.7002 86.7998 77.3802 89.5998 77.6602 92.4398C77.6602 93.1498 77.6602 93.8598 77.6602 94.5698V95.1098V95.3798C77.6602 95.4798 77.6602 95.5898 77.6402 95.6998C77.6402 95.9198 77.5902 96.1398 77.5502 96.3498C77.4902 96.5598 77.4502 96.7798 77.3602 96.9798C77.2102 97.3998 77.0002 97.7798 76.7402 98.1398C76.4902 98.4998 76.1702 98.8098 75.8202 99.0798C75.1302 99.6198 74.2702 99.9598 73.3902 100.05H73.0602C73.0002 100.07 72.9602 100.07 72.9102 100.06H72.7702H72.2302C71.8702 100.06 71.5102 100.06 71.1402 100.05C70.4102 100.05 69.6902 100.04 68.9602 100.04C67.5002 100.04 66.0402 100.04 64.5702 100.08C61.6302 99.7998 58.6702 99.9698 55.6802 100.08C52.7002 100.16 49.7302 100.12 46.7902 100.08C43.8502 100.11 40.9302 100.09 38.0402 100.08C36.5902 100.12 35.1602 100.09 33.7202 100.07C33.3602 100.07 33.0002 100.06 32.6502 100.05H32.3802C32.3802 100.05 32.3002 100.05 32.2402 100.05H32.0802C31.9702 100.03 31.8602 100.03 31.7602 100.02L31.4402 99.9698C30.5902 99.8098 29.7802 99.4098 29.1302 98.8398C28.9602 98.6998 28.8202 98.5398 28.6702 98.3798C28.5402 98.2098 28.4002 98.0398 28.2902 97.8498C28.1702 97.6698 28.0802 97.4698 27.9802 97.2698C27.9402 97.1698 27.9002 97.0698 27.8602 96.9598L27.8102 96.8098L27.7702 96.6498C27.6502 96.2398 27.6202 95.7798 27.6102 95.3698C27.6102 95.0198 27.6202 94.6698 27.6302 94.3198C27.6602 92.9198 27.6902 91.5198 27.6302 90.1298C27.5502 87.3498 27.5102 84.6098 27.6402 81.8998C27.6402 79.1898 27.8902 76.5098 27.6602 73.8698C27.6402 72.6998 27.5602 71.5398 27.5202 70.3898C27.5002 69.8098 27.4902 69.2398 27.4902 68.6698C27.4902 68.3798 27.5002 68.0998 27.5102 67.8098L27.5302 67.3798L27.5602 66.5798L27.8802 66.2898L28.0402 66.1498C28.0902 66.1098 28.1502 66.0498 28.1702 66.0298C28.2902 65.9398 28.4102 65.8498 28.5302 65.7598L28.6402 65.6398L28.8002 65.4698L29.2202 65.0398H30.0002H30.4402C30.7302 65.0398 31.0202 65.0398 31.3102 65.0498C31.8902 65.0698 32.4702 65.0798 33.0502 65.0998C34.2102 65.1298 35.3502 65.1498 36.4902 65.0798C38.9802 65.3598 41.4202 65.0898 43.8202 65.0998C44.2002 65.0998 44.5802 65.1198 44.9602 65.1298H45.1002H45.1402H45.2202L45.3902 65.1498V64.9798L45.4102 64.8898V64.8698V64.7998V64.6498C45.4102 64.2498 45.4202 63.8498 45.4102 63.4498C45.4102 62.6498 45.3902 61.8598 45.3502 61.0698C45.2202 58.7598 45.4202 56.4898 45.3802 54.2798C45.2202 52.0698 45.5902 49.8998 45.4102 47.7798C45.4502 45.6598 45.3902 43.5998 45.4402 41.5898L45.4102 41.4398V41.3998C45.4102 41.3998 45.4002 41.3998 45.4002 41.3898V41.3698L45.3502 41.2998C45.3302 41.2598 45.3102 41.2298 45.3002 41.1998C45.2502 41.2098 45.2102 41.2198 45.1702 41.2198C45.1202 41.2198 45.1702 41.2198 44.8902 41.2198C44.4902 41.2098 44.1002 41.1898 43.7102 41.1598C42.9302 41.1098 42.1602 41.0398 41.3902 41.0198C39.4902 40.9698 37.6502 41.2698 35.8602 40.9798C34.0802 41.2698 32.3502 41.0198 30.6902 40.9398C30.3102 40.9198 29.9302 40.9198 29.5602 40.9198C29.0102 40.9198 28.4602 40.9398 27.9202 40.9398C27.9202 40.6098 27.9102 40.2698 27.9002 39.9398C27.9002 39.6598 27.9002 39.3798 27.9002 39.1098C27.9002 38.6798 27.9202 38.2598 27.9602 37.8398C27.7602 36.2998 28.0702 34.8298 28.0002 33.4198C28.1302 32.0098 28.0002 30.6698 28.0402 29.3998C28.0002 28.1298 28.0102 26.9298 28.0902 25.7998C28.1102 24.6698 28.1202 23.6098 28.1402 22.6298C28.1502 21.8898 28.1602 21.1998 28.1802 20.5398C28.1802 20.2098 28.1902 19.8998 28.2002 19.5898C28.2002 19.4398 28.2202 19.2798 28.2302 19.1198C28.2402 18.9598 28.2802 18.8098 28.3002 18.6598C28.4302 18.0698 28.6902 17.5598 28.9802 17.1598C29.2802 16.7498 29.6202 16.4498 29.9602 16.2298C30.3002 16.0098 30.6202 15.8598 30.9102 15.7698C30.9802 15.7498 31.0502 15.7198 31.1202 15.7098C31.1902 15.6998 31.2502 15.6798 31.3102 15.6698C31.3702 15.6598 31.4302 15.6398 31.4902 15.6398C31.5502 15.6398 31.6002 15.6398 31.6502 15.6298C31.8502 15.5998 32.0002 15.6198 32.1002 15.6298C32.2002 15.6298 32.2502 15.6498 32.2502 15.6598L32.2302 15.6898Z" fill="#0061EF"/>
<path d="M76.7309 27.8801C76.7309 27.9901 76.2009 28.0901 75.2209 28.1801C75.0609 28.1901 74.8809 28.2101 74.7009 28.2301C74.5109 28.2601 74.3109 28.2901 74.1009 28.2701C73.8909 28.1301 73.6709 28.5301 73.4409 28.3101C73.2109 28.2501 72.9609 28.3101 72.7109 28.3501C72.4609 28.4001 72.1909 28.2601 71.9109 28.3901C71.6409 28.6601 71.3509 28.0901 71.0509 28.4301C70.7509 28.5001 70.4509 28.4801 70.1309 28.4701C69.8209 28.2601 69.4909 28.4701 69.1609 28.5001C68.8309 28.2501 68.4809 28.3601 68.1309 28.5301C67.7809 28.1901 67.4209 28.2401 67.0509 28.5601C66.6809 28.5701 66.3109 28.4401 65.9309 28.5901C65.5509 28.6101 65.1609 28.6801 64.7609 28.6201C64.3609 28.8501 63.9609 28.8401 63.5509 28.6401C63.1409 28.8901 62.7209 28.7901 62.3009 28.6601C61.8709 28.5201 61.4409 28.8801 61.0109 28.6801C60.5709 28.6601 60.1309 28.7401 59.6809 28.7001C59.2309 28.6001 58.7809 28.4901 58.3209 28.7101C57.8609 28.7701 57.4009 28.8501 56.9309 28.7101C56.4609 28.9701 55.9909 28.8601 55.5109 28.7101C55.0309 28.7501 54.5509 28.5701 54.0609 28.7101C53.5709 28.6701 53.0809 28.8301 52.5909 28.7101C52.1009 28.6301 51.6109 28.5601 51.1209 28.7101C50.6309 28.8801 50.1509 28.6401 49.6709 28.7101C49.1909 28.4601 48.7209 28.7901 48.2509 28.7101C47.7809 28.7301 47.3209 28.5701 46.8609 28.7101C46.4009 28.7501 45.9509 28.8001 45.5009 28.7001C45.0509 29.0801 44.6109 28.6001 44.1709 28.6801C43.7309 28.5201 43.3009 28.7001 42.8809 28.6601C42.4609 28.7301 42.0409 28.4901 41.6309 28.6401C41.2209 28.6101 40.8109 28.7601 40.4209 28.6201C40.0209 28.8101 39.6309 28.4601 39.2509 28.5901C38.8709 28.5901 38.4909 28.6001 38.1309 28.5601C37.7609 28.2601 37.4009 28.5101 37.0509 28.5301C36.7009 28.5001 36.3609 28.7001 36.0309 28.5001C35.7009 28.4801 35.3709 28.3501 35.0609 28.4701C34.7409 28.5101 34.4409 28.0401 34.1509 28.4301C33.8509 28.5001 33.5709 28.1301 33.2909 28.3901C33.0109 28.6301 32.7509 28.3601 32.4909 28.3501C32.2409 28.3401 31.9909 28.3201 31.7609 28.3101C29.6609 28.1801 28.4609 28.0301 28.4609 27.8801C28.4609 27.7001 29.9409 27.5401 32.4909 27.4001C32.7509 27.3901 33.0109 27.1801 33.2909 27.3601C33.5709 27.3601 33.8509 27.2001 34.1509 27.3201C34.4509 27.0501 34.7509 27.2701 35.0609 27.2801C35.3709 27.2701 35.7009 27.3501 36.0309 27.2401C36.3609 27.0801 36.7109 27.3201 37.0509 27.2101C37.4009 27.3801 37.7609 27.3301 38.1309 27.1801C38.5009 27.3401 38.8709 27.1501 39.2509 27.1501C39.6309 27.4001 40.0209 27.2301 40.4209 27.1201C40.8209 27.0301 41.2209 27.1601 41.6309 27.1001C42.0409 27.1501 42.4609 27.0401 42.8809 27.0801C43.3109 26.9601 43.7409 26.9201 44.1709 27.0601C44.6109 26.9801 45.0509 27.0401 45.5009 27.0401C45.9509 26.9401 46.4009 27.0501 46.8609 27.0301C47.3209 26.9801 47.7809 27.3001 48.2509 27.0301C48.7209 26.9901 49.1909 27.0701 49.6709 27.0301C50.1509 27.0701 50.6309 27.1001 51.1209 27.0301C51.6109 27.3101 52.1009 27.1401 52.5909 27.0301C53.0809 26.9501 53.5709 26.9901 54.0609 27.0301C54.5509 27.0001 55.0309 27.0201 55.5109 27.0301C55.9909 26.9501 56.4609 27.1501 56.9309 27.0301C57.4009 26.9101 57.8609 27.1601 58.3209 27.0301C58.7809 26.9501 59.2309 26.9101 59.6809 27.0401C60.1309 27.0401 60.5709 27.2901 61.0109 27.0601C61.4509 27.0101 61.8809 26.6901 62.3009 27.0801C62.7209 26.9901 63.1409 27.2601 63.5509 27.1001C63.9609 27.3801 64.3709 27.1101 64.7609 27.1201C65.1609 27.1701 65.5509 27.2701 65.9309 27.1501C66.3109 27.0201 66.6909 27.2201 67.0509 27.1801C67.4209 27.0201 67.7809 27.3901 68.1309 27.2101C68.4809 27.2501 68.8209 27.1901 69.1609 27.2401C69.4909 26.8601 69.8209 27.2401 70.1309 27.2801C70.4409 27.3301 70.7509 27.0301 71.0509 27.3201C71.3409 27.0301 71.6309 27.2801 71.9109 27.3601C72.1909 27.4401 72.4509 27.2401 72.7109 27.4001C72.9609 27.2001 73.2109 27.5101 73.4409 27.4401C73.6709 27.5701 73.9009 27.4401 74.1009 27.4801C74.3109 27.4401 74.5109 27.4501 74.7009 27.5201C74.8909 27.5401 75.0609 27.5501 75.2209 27.5701C76.2009 27.6601 76.7309 27.7601 76.7309 27.8701V27.8801Z" fill="#0061EF"/>
<path d="M76.7309 87.0703C76.7309 87.1803 76.2009 87.2803 75.2209 87.3703C75.0609 87.3803 74.8809 87.4003 74.7009 87.4203C74.5109 87.4503 74.3109 87.4803 74.1009 87.4603C73.8909 87.3203 73.6709 87.7203 73.4409 87.5003C73.2109 87.4403 72.9609 87.5003 72.7109 87.5403C72.4609 87.5903 72.1909 87.4503 71.9109 87.5803C71.6409 87.8503 71.3509 87.2803 71.0509 87.6203C70.7509 87.6903 70.4509 87.6703 70.1309 87.6603C69.8209 87.4503 69.4909 87.6603 69.1609 87.6903C68.8309 87.4403 68.4809 87.5503 68.1309 87.7203C67.7809 87.3803 67.4209 87.4303 67.0509 87.7503C66.6809 87.7603 66.3109 87.6303 65.9309 87.7803C65.5509 87.8003 65.1609 87.8703 64.7609 87.8103C64.3609 88.0403 63.9609 88.0303 63.5509 87.8303C63.1409 88.0803 62.7209 87.9803 62.3009 87.8503C61.8709 87.7103 61.4409 88.0703 61.0109 87.8703C60.5709 87.8503 60.1309 87.9303 59.6809 87.8903C59.2309 87.7903 58.7809 87.6803 58.3209 87.9003C57.8609 87.9603 57.4009 88.0403 56.9309 87.9103C56.4609 88.1703 55.9909 88.0603 55.5109 87.9103C55.0309 87.9503 54.5509 87.7703 54.0609 87.9103C53.5709 87.8703 53.0809 88.0303 52.5909 87.9103C52.1009 87.8303 51.6109 87.7503 51.1209 87.9103C50.6309 88.0803 50.1509 87.8403 49.6709 87.9103C49.1909 87.6603 48.7209 87.9903 48.2509 87.9103C47.7809 87.9303 47.3209 87.7703 46.8609 87.9003C46.4009 87.9503 45.9509 87.9903 45.5009 87.8903C45.0509 88.2703 44.6109 87.7903 44.1709 87.8703C43.7309 87.7103 43.3009 87.8903 42.8809 87.8503C42.4609 87.9203 42.0409 87.6703 41.6309 87.8303C41.2209 87.8003 40.8109 87.9503 40.4209 87.8103C40.0209 88.0003 39.6309 87.6503 39.2509 87.7803C38.8709 87.7803 38.4909 87.7903 38.1309 87.7503C37.7609 87.4603 37.4009 87.7003 37.0509 87.7203C36.7009 87.6903 36.3609 87.8903 36.0309 87.6903C35.7009 87.6703 35.3709 87.5403 35.0609 87.6603C34.7409 87.7003 34.4409 87.2303 34.1509 87.6203C33.8509 87.6903 33.5709 87.3203 33.2909 87.5803C33.0109 87.8203 32.7509 87.5503 32.4909 87.5403C32.2409 87.5303 31.9909 87.5103 31.7609 87.5003C29.6609 87.3703 28.4609 87.2203 28.4609 87.0703C28.4609 86.8903 29.9409 86.7303 32.4909 86.5903C32.7509 86.5803 33.0109 86.3703 33.2909 86.5503C33.5709 86.5503 33.8509 86.3903 34.1509 86.5103C34.4509 86.2403 34.7509 86.4603 35.0609 86.4703C35.3709 86.4603 35.7009 86.5503 36.0309 86.4403C36.3609 86.2803 36.7109 86.5203 37.0509 86.4103C37.4009 86.5803 37.7609 86.5303 38.1309 86.3803C38.5009 86.5403 38.8709 86.3503 39.2509 86.3503C39.6309 86.6003 40.0209 86.4203 40.4209 86.3203C40.8209 86.2303 41.2209 86.3603 41.6309 86.3003C42.0409 86.3503 42.4609 86.2403 42.8809 86.2803C43.3109 86.1603 43.7409 86.1203 44.1709 86.2603C44.6109 86.1803 45.0509 86.2403 45.5009 86.2403C45.9509 86.1403 46.4009 86.2503 46.8609 86.2303C47.3209 86.1803 47.7809 86.5003 48.2509 86.2203C48.7209 86.1803 49.1909 86.2603 49.6709 86.2203C50.1509 86.2503 50.6309 86.2903 51.1209 86.2203C51.6109 86.4903 52.1009 86.3203 52.5909 86.2203C53.0809 86.1403 53.5709 86.1803 54.0609 86.2203C54.5509 86.1903 55.0309 86.2103 55.5109 86.2203C55.9909 86.1403 56.4609 86.3403 56.9309 86.2203C57.4009 86.1003 57.8609 86.3503 58.3209 86.2303C58.7809 86.1503 59.2309 86.1103 59.6809 86.2403C60.1309 86.2403 60.5709 86.4903 61.0109 86.2603C61.4509 86.2103 61.8809 85.9003 62.3009 86.2803C62.7209 86.1803 63.1409 86.4703 63.5509 86.3003C63.9609 86.5803 64.3709 86.3103 64.7609 86.3203C65.1609 86.3703 65.5509 86.4703 65.9309 86.3503C66.3109 86.2203 66.6909 86.4203 67.0509 86.3803C67.4209 86.2203 67.7809 86.5903 68.1309 86.4103C68.4809 86.4503 68.8209 86.3903 69.1609 86.4403C69.4909 86.0603 69.8209 86.4403 70.1309 86.4703C70.4409 86.5303 70.7509 86.2203 71.0509 86.5103C71.3409 86.2203 71.6309 86.4703 71.9109 86.5503C72.1909 86.6303 72.4509 86.4303 72.7109 86.5903C72.9609 86.3903 73.2109 86.7003 73.4409 86.6303C73.6709 86.7603 73.9009 86.6303 74.1009 86.6703C74.3109 86.6303 74.5109 86.6403 74.7009 86.7103C74.8909 86.7303 75.0609 86.7403 75.2209 86.7603C76.2009 86.8503 76.7309 86.9603 76.7309 87.0603V87.0703Z" fill="#0061EF"/>
<path d="M52.5791 90.4497C52.5791 90.4997 52.5291 90.5597 52.4491 90.6097C52.4091 90.6397 52.3591 90.6597 52.2991 90.6897C52.2391 90.7197 52.1691 90.7597 52.0991 90.7897C52.0491 90.8197 51.9991 90.8397 51.9491 90.8697C51.8991 90.9097 51.8491 90.9597 51.7891 90.9697C51.6691 90.8697 51.7591 91.2497 51.6191 91.0897C51.5291 91.0697 51.4791 91.1397 51.4391 91.2297C51.3991 91.3097 51.2491 91.2297 51.2591 91.3897C51.3091 91.5197 51.2291 91.4897 51.1591 91.4597C51.0791 91.4297 51.0091 91.4197 51.0891 91.5797C51.0691 91.6897 51.0091 91.7397 50.9291 91.7897C50.7091 91.7197 50.8091 91.9397 50.7891 92.0297C50.5291 91.9697 50.5591 92.1297 50.6791 92.2897C50.3191 92.2197 50.3191 92.3797 50.5991 92.5697C50.5891 92.6197 50.5491 92.6597 50.5191 92.7097C50.4891 92.7597 50.4791 92.8097 50.5491 92.8797C50.5491 92.9297 50.5591 92.9897 50.5691 93.0397C50.5791 93.0897 50.5691 93.1397 50.5391 93.1997C50.6491 93.2497 50.7091 93.2997 50.7191 93.3497C50.7191 93.3997 50.6791 93.4497 50.5891 93.5197C50.8391 93.5897 50.7691 93.6797 50.6791 93.8297C50.6391 93.8997 50.7091 93.9397 50.7691 93.9697C50.8291 93.9997 50.8891 94.0297 50.8291 94.1297C50.8691 94.2397 50.9891 94.2997 51.0291 94.4097C51.0291 94.4897 51.0291 94.5697 51.0491 94.6197C51.0791 94.6797 51.1491 94.6997 51.2691 94.6597C51.3291 94.6797 51.3991 94.6897 51.4491 94.7097C51.4991 94.7297 51.5391 94.7797 51.5491 94.8697C51.7891 94.7097 51.8091 94.8497 51.8691 95.0297C51.9291 95.0297 51.9791 95.0897 52.0291 95.1197C52.0791 95.1597 52.1491 95.1897 52.2191 95.1197C52.2791 95.1497 52.3391 95.1297 52.3991 95.1197C52.4591 95.0997 52.5191 95.0897 52.5791 95.1597C52.6391 95.1997 52.7091 95.2297 52.7691 95.2397C52.8291 95.2397 52.8991 95.2097 52.9391 95.1297C52.9791 95.0397 53.0391 95.0397 53.1091 95.0497C53.1791 95.0697 53.2491 95.0797 53.2891 95.0297C53.3891 95.1297 53.4391 95.0697 53.4791 95.0097C53.5191 94.9497 53.5291 94.8597 53.6091 94.8697C53.6591 94.8297 53.7191 94.8197 53.7791 94.7997C53.8391 94.7797 53.8891 94.7497 53.8891 94.6597C53.9191 94.6097 53.9391 94.5497 53.9691 94.4997C54.0091 94.4597 54.0491 94.4297 54.1291 94.4097C54.0091 94.2497 54.0591 94.2297 54.1391 94.2097C54.2191 94.1997 54.3391 94.1997 54.3291 94.1297C54.4191 94.1097 54.4491 94.0597 54.4491 93.9997C54.4491 93.9397 54.4391 93.8797 54.4791 93.8297C54.4591 93.7697 54.5091 93.7297 54.5591 93.6797C54.6091 93.6397 54.6291 93.5797 54.5591 93.5197C54.5891 93.4697 54.5591 93.4097 54.5491 93.3597C54.5291 93.3097 54.5491 93.2597 54.6091 93.1997C54.5091 93.1497 54.5491 93.0997 54.5891 93.0397C54.6291 92.9797 54.6691 92.9197 54.5991 92.8797C54.5991 92.8297 54.5791 92.7797 54.5691 92.7297C54.5591 92.6797 54.5591 92.6297 54.5591 92.5797C54.6791 92.4897 54.6691 92.4297 54.6291 92.3897C54.5891 92.3497 54.4991 92.3397 54.4691 92.2997C54.4591 92.1897 54.2291 92.2197 54.3591 92.0297C54.3191 91.9497 54.3691 91.7797 54.2191 91.7897C54.1691 91.7697 54.2191 91.6697 54.2391 91.5897C54.2591 91.5097 54.2291 91.4597 54.0591 91.5797C53.9991 91.5797 54.0291 91.4897 54.0191 91.4197C54.0191 91.3497 53.9991 91.2997 53.8891 91.3897C53.6891 91.5397 53.7791 91.2797 53.7091 91.2297C53.6491 91.1697 53.5891 91.1397 53.5291 91.0897C52.9891 90.7097 52.5491 90.6097 52.5491 90.4397C52.5491 90.3597 52.6891 90.2597 52.9691 90.2197C53.2491 90.1797 53.6791 90.1897 54.1791 90.4097C54.2691 90.4497 54.4991 90.3397 54.4891 90.5597C54.5791 90.6297 54.7891 90.5797 54.7991 90.7597C55.0891 90.6397 55.0291 90.9097 55.0991 91.0197C55.1991 91.1197 55.2091 91.2797 55.3891 91.3397C55.5991 91.3797 55.4791 91.6297 55.6391 91.7197C55.5591 91.9297 55.6391 92.0497 55.8491 92.1597C55.7991 92.2597 55.8191 92.3397 55.8691 92.4097C55.9191 92.4797 55.9891 92.5597 55.9891 92.6497C55.8791 92.7597 55.8691 92.8397 55.9091 92.9197C55.9391 92.9997 56.0091 93.0897 56.0691 93.1797C56.1191 93.2697 56.0991 93.3697 56.0791 93.4597C56.0591 93.5497 56.0391 93.6397 56.0491 93.7397C55.9791 93.9197 56.0491 94.1297 55.9391 94.3097C55.9591 94.4197 55.9691 94.5297 55.9391 94.6297C55.9091 94.7297 55.8391 94.8097 55.7291 94.8697C55.7091 95.0897 55.5391 95.2397 55.4091 95.3997C55.3891 95.5197 55.3191 95.5997 55.2291 95.6697C55.1491 95.7397 55.0591 95.8097 54.9891 95.8797C54.9291 95.9697 54.7991 95.9997 54.6891 96.0297C54.5791 96.0597 54.4891 96.1197 54.4691 96.2897C54.2991 96.4397 54.0591 96.4697 53.8791 96.5997C53.6491 96.6497 53.4291 96.6797 53.2191 96.7997C53.0791 96.6797 52.9691 96.6797 52.8591 96.7097C52.7491 96.7397 52.6391 96.8097 52.5291 96.8697C52.4091 96.9097 52.2891 96.9097 52.1791 96.8997C52.0591 96.8797 51.9491 96.8397 51.8391 96.7997C51.6091 96.7797 51.3891 96.6997 51.1791 96.5997C51.0591 96.5997 50.9691 96.5097 50.8791 96.4497C50.7891 96.3797 50.7091 96.2997 50.5891 96.2897C50.4591 96.2897 50.3891 96.1897 50.3191 96.0997C50.2491 96.0097 50.1891 95.9197 50.0691 95.8897C49.9591 95.8497 49.8591 95.7897 49.7891 95.7097C49.7091 95.6297 49.6591 95.5397 49.6491 95.4097C49.5891 95.3297 49.5691 95.2097 49.5491 95.0997C49.5291 94.9897 49.4691 94.9097 49.3291 94.8797C49.2591 94.7997 49.1291 94.7497 49.0591 94.6597C48.9891 94.5797 48.9691 94.4597 49.1191 94.3097C49.0391 94.2297 49.0691 94.1197 49.0791 94.0197C49.0791 93.9197 49.1091 93.8197 49.0091 93.7397C49.1291 93.6297 49.1291 93.5397 49.0891 93.4497C49.0591 93.3597 48.9791 93.2697 48.9891 93.1797C49.0191 93.0897 49.0591 92.9997 49.0791 92.9197C49.0991 92.8297 49.1091 92.7497 49.0591 92.6497C49.0091 92.5497 49.0391 92.4697 49.0891 92.3897C49.1391 92.3097 49.1991 92.2397 49.1991 92.1597C49.1491 92.0597 49.2291 91.9897 49.3091 91.9397C49.3791 91.8797 49.4591 91.8397 49.4191 91.7297C49.5191 91.5997 49.5491 91.4497 49.6691 91.3497C49.5491 91.1797 49.5991 91.1197 49.6891 91.0897C49.7791 91.0597 49.8991 91.0697 49.9591 91.0297C50.0291 90.9997 50.0291 90.9097 50.0491 90.8297C50.0691 90.7597 50.1191 90.7097 50.2691 90.7697C50.2191 90.6197 50.2691 90.5697 50.3391 90.5497C50.4091 90.5397 50.5091 90.5697 50.5791 90.5597C50.7191 90.5597 50.7091 90.3297 50.8891 90.4097C50.8891 90.1697 51.1291 90.4097 51.1791 90.3097C51.3191 90.3897 51.3591 90.2397 51.4491 90.2497C51.5191 90.1797 51.5991 90.1697 51.6991 90.2197C51.7791 90.2197 51.8491 90.2197 51.9191 90.2197C52.0191 90.2197 52.1091 90.2397 52.1891 90.2497C52.2691 90.2697 52.3291 90.2897 52.3791 90.3097C52.4791 90.3497 52.5291 90.3997 52.5291 90.4597L52.5791 90.4497Z" fill="#0061EF"/>
<path d="M57.43 21.8901C57.43 22.0001 57.32 22.1001 57.13 22.1901C57.1 22.2101 57.06 22.2201 57.02 22.2401C56.98 22.2701 56.94 22.3001 56.9 22.2801C56.86 22.1401 56.81 22.5401 56.77 22.3201C56.72 22.2601 56.68 22.3201 56.62 22.3601C56.57 22.4101 56.52 22.2701 56.46 22.4001C56.4 22.6701 56.35 22.1001 56.29 22.4401C56.23 22.5101 56.17 22.4901 56.11 22.4801C56.05 22.2701 55.98 22.4801 55.92 22.5201C55.85 22.2701 55.78 22.3801 55.71 22.5501C55.64 22.2101 55.57 22.2601 55.49 22.5801C55.42 22.5901 55.34 22.4601 55.26 22.6101C55.18 22.6301 55.11 22.7001 55.03 22.6401C54.95 22.8701 54.87 22.8601 54.79 22.6601C54.71 22.9101 54.62 22.8101 54.54 22.6801C54.46 22.5401 54.37 22.8901 54.28 22.7001C54.19 22.6901 54.1 22.7601 54.01 22.7201C53.92 22.6201 53.83 22.5101 53.74 22.7301C53.65 22.7901 53.55 22.8701 53.46 22.7301C53.37 22.9901 53.27 22.8801 53.17 22.7301C53.07 22.7701 52.98 22.5901 52.88 22.7301C52.78 22.6901 52.68 22.8401 52.59 22.7301C52.49 22.6501 52.39 22.5701 52.3 22.7301C52.2 22.9001 52.11 22.6601 52.01 22.7301C51.91 22.4801 51.82 22.8101 51.72 22.7301C51.63 22.7501 51.53 22.5901 51.44 22.7301C51.35 22.7801 51.26 22.8201 51.17 22.7201C51.08 23.1001 50.99 22.6201 50.9 22.7001C50.81 22.5401 50.73 22.7201 50.64 22.6801C50.56 22.7501 50.47 22.5101 50.39 22.6601C50.31 22.6301 50.23 22.7801 50.15 22.6401C50.07 22.8301 49.99 22.4801 49.92 22.6101C49.84 22.6101 49.77 22.6201 49.69 22.5801C49.62 22.2901 49.54 22.5301 49.47 22.5501C49.4 22.5201 49.33 22.7201 49.26 22.5201C49.19 22.5001 49.13 22.3701 49.07 22.4801C49.01 22.5201 48.95 22.0501 48.89 22.4401C48.83 22.5101 48.77 22.1401 48.72 22.4001C48.67 22.6401 48.61 22.3701 48.56 22.3601C48.51 22.3501 48.46 22.3301 48.41 22.3201C47.99 22.1901 47.75 22.0401 47.75 21.8901C47.75 21.7101 48.05 21.5501 48.56 21.4101C48.61 21.4001 48.66 21.1901 48.72 21.3701C48.78 21.3701 48.83 21.2101 48.89 21.3301C48.95 21.0601 49.01 21.2801 49.07 21.2901C49.13 21.2801 49.2 21.3601 49.26 21.2601C49.33 21.1001 49.39 21.3401 49.47 21.2301C49.54 21.4001 49.61 21.3501 49.69 21.2001C49.76 21.3601 49.84 21.1601 49.92 21.1701C50 21.4201 50.07 21.2501 50.15 21.1401C50.23 21.0501 50.31 21.1801 50.39 21.1201C50.47 21.1701 50.56 21.0601 50.64 21.1001C50.72 20.9801 50.81 20.9401 50.9 21.0801C50.99 21.0001 51.08 21.0601 51.17 21.0601C51.26 20.9601 51.35 21.0701 51.44 21.0501C51.53 21.0001 51.63 21.3201 51.72 21.0401C51.81 21.0001 51.91 21.0801 52.01 21.0401C52.11 21.0701 52.2 21.1101 52.3 21.0401C52.4 21.3201 52.5 21.1501 52.59 21.0401C52.69 20.9601 52.79 21.0001 52.88 21.0401C52.98 21.0101 53.07 21.0301 53.17 21.0401C53.27 20.9601 53.36 21.1601 53.46 21.0401C53.55 20.9201 53.65 21.1701 53.74 21.0501C53.83 20.9701 53.92 20.9301 54.01 21.0601C54.1 21.0601 54.19 21.3101 54.28 21.0801C54.37 21.0301 54.45 20.7101 54.54 21.1001C54.63 21.0001 54.71 21.2801 54.79 21.1201C54.87 21.4001 54.95 21.1301 55.03 21.1401C55.11 21.1901 55.19 21.2901 55.26 21.1701C55.34 21.0401 55.41 21.2401 55.49 21.2001C55.56 21.0401 55.63 21.4101 55.71 21.2301C55.78 21.2701 55.85 21.2101 55.92 21.2601C55.99 20.8801 56.05 21.2601 56.11 21.2901C56.17 21.3401 56.23 21.0401 56.29 21.3301C56.35 21.0401 56.41 21.2901 56.46 21.3701C56.51 21.4501 56.57 21.2501 56.62 21.4101C56.67 21.2101 56.72 21.5201 56.77 21.4501C56.82 21.5801 56.86 21.4501 56.9 21.4901C56.94 21.4501 56.98 21.4601 57.02 21.5401C57.06 21.5601 57.09 21.5701 57.13 21.5901C57.33 21.6801 57.43 21.7801 57.43 21.8901Z" fill="#0061EF"/>
<path d="M10.7895 40.4501C10.8995 40.4501 10.9995 41.9101 11.0895 44.5701C11.1095 45.0201 11.1195 45.4901 11.1395 46.0001C11.1695 46.5101 11.1995 47.0501 11.1895 47.6201C11.0495 48.1901 11.4495 48.8001 11.2295 49.4301C11.1695 50.0601 11.2295 50.7301 11.2695 51.4201C11.3195 52.1101 11.1795 52.8401 11.3095 53.5901C11.5795 54.3401 11.0095 55.1201 11.3495 55.9201C11.4195 56.7301 11.3995 57.5601 11.3895 58.4101C11.1795 59.2701 11.3895 60.1501 11.4295 61.0601C11.1795 61.9701 11.2895 62.9001 11.4595 63.8501C11.3395 64.1901 11.2695 64.5201 11.2395 64.8701V64.9601L11.2295 65.0301C11.2295 65.0801 11.2295 65.1301 11.2295 65.1801C11.2295 65.2801 11.2495 65.3601 11.2795 65.4301C11.4795 65.3901 11.6695 65.3101 11.7695 65.2201H12.0695C12.1995 65.2201 12.3195 65.2201 12.4495 65.2301C12.6995 65.2301 12.9595 65.2501 13.2095 65.2601C13.7195 65.2701 14.2395 65.2601 14.7595 65.1901C15.2795 65.1701 15.8095 65.1601 16.3395 65.1501C16.6095 65.1501 16.8695 65.1501 17.1395 65.1501C17.2695 65.1501 17.4095 65.1501 17.5395 65.1501C17.6995 65.1501 17.8595 65.1601 18.0195 65.1701C18.3995 65.1201 18.8195 65.0901 19.2495 65.0601C19.3795 65.4201 19.4995 65.8101 19.6095 66.2101L19.7295 66.6201C19.7595 66.7301 19.7895 66.8301 19.8095 66.9401C19.9095 67.3701 19.9795 67.8101 20.0195 68.2701C20.5495 69.2901 20.7495 70.4201 20.9195 71.5701C20.9495 71.8001 21.0095 72.0301 21.0695 72.2601C21.0995 72.3701 21.1395 72.4901 21.1795 72.6001C21.1795 72.6201 21.1995 72.6601 21.2095 72.6801V72.7001L21.2395 72.7301C21.2995 72.8201 21.3495 72.8101 21.3595 72.8801C21.3795 72.8701 21.3895 72.8801 21.4195 72.9001C21.4595 72.8601 21.4995 72.8201 21.5395 72.7701C21.5195 72.7901 21.6695 72.6301 21.7695 72.5301L22.0795 72.2001C22.4995 71.7701 22.9195 71.3301 23.3695 70.9101C24.3095 70.1201 25.2595 69.3201 25.9895 68.2701C26.4095 67.8101 26.8295 67.3301 27.2695 66.8801C27.4895 66.6501 27.7095 66.4301 27.9495 66.2101C28.0595 66.1001 28.1795 65.9901 28.2995 65.8901L28.4795 65.7301L28.6695 65.5701C28.8195 65.3801 28.9795 65.1901 29.1495 64.9901L29.5595 64.9601L29.9595 64.9401C30.0995 64.9301 30.2495 64.9201 30.3895 64.9101C30.6795 64.9001 30.9695 64.9101 31.2595 64.9101C31.8395 64.9301 32.4195 64.9901 33.0095 65.0501C34.3095 65.0101 35.6295 65.1901 36.9595 65.0501C38.2895 65.0901 39.6195 64.9301 40.9695 65.0501C42.3195 65.1301 43.6495 65.2101 44.9795 65.0501H45.0495L45.0795 65.0401L45.0995 65.0201L45.1195 65.0001C45.1195 65.0001 45.1395 64.9901 45.1595 64.9901C45.1595 64.9701 45.1595 64.9601 45.1795 64.9401V64.9201H45.1895V64.8301L45.2095 64.4701C45.2295 63.9901 45.2495 63.5201 45.2295 63.0501C45.4795 61.7501 45.1495 60.4501 45.2295 59.1701C45.2095 57.8901 45.3695 56.6201 45.2295 55.3701C45.1895 54.1201 45.1395 52.8801 45.2395 51.6601C44.8595 50.4401 45.3395 49.2301 45.2495 48.0401C45.4095 46.8501 45.2295 45.6701 45.2695 44.5101C45.2295 43.9301 45.2695 43.3601 45.3095 42.7901C45.3295 42.5001 45.3395 42.2201 45.3395 41.9401C45.3395 41.8001 45.3395 41.6601 45.3295 41.5201V41.4701V41.4401V41.4001C45.3295 41.3801 45.3095 41.3701 45.2995 41.3501C45.2995 41.3001 45.2995 41.2401 45.2995 41.1901C45.2395 41.1901 45.1795 41.2001 45.1295 41.2101H45.0895H45.0695C45.0695 41.2101 45.0695 41.2101 45.0495 41.2101H44.7195C44.2795 41.2201 43.8395 41.2101 43.3995 41.1601C42.3195 41.3501 41.2495 41.0001 40.2095 41.1301C39.1695 41.1301 38.1495 41.1401 37.1495 41.1001C36.1495 40.8101 35.1695 41.0501 34.2195 41.0701C33.2695 41.0401 32.3295 41.2401 31.4295 41.0401C30.5195 41.0201 29.6395 40.8901 28.7795 41.0101C27.9195 41.0501 27.0895 40.5801 26.2895 40.9701C25.4795 41.0401 24.7095 40.6701 23.9595 40.9301C23.2095 41.1701 22.4895 40.9001 21.7895 40.8901C21.0995 40.8701 20.4295 40.8601 19.7995 40.8501C16.9395 40.7901 14.6995 40.7201 13.1695 40.6401C11.6395 40.5701 10.8195 40.4901 10.8195 40.4101C10.8195 40.3201 11.8295 40.2401 13.7095 40.1601C15.5895 40.0801 18.3295 40.0001 21.7995 39.9401C22.4895 39.9301 23.2195 39.7201 23.9695 39.9001C24.7195 39.9001 25.4995 39.7401 26.2995 39.8601C27.1095 39.5901 27.9395 39.8101 28.7895 39.8201C29.6495 39.8101 30.5295 39.9001 31.4395 39.7801C32.3495 39.6201 33.2795 39.8601 34.2295 39.7501C35.1795 39.9201 36.1595 39.8701 37.1595 39.7201C38.1595 39.8801 39.1795 39.6901 40.2195 39.6901C41.2595 39.9401 42.3295 39.7601 43.4095 39.6601C43.8495 39.6201 44.2895 39.6201 44.7295 39.6301C45.0295 39.6301 45.3395 39.6401 45.6395 39.6501C46.0295 39.6501 46.4295 39.6501 46.8295 39.6501C46.8295 40.0301 46.8295 40.4101 46.8495 40.7901C46.8495 41.0201 46.8495 41.2501 46.8395 41.4801V41.9001C46.8395 42.1801 46.8495 42.4701 46.8595 42.7501C46.8795 43.3201 46.8895 43.8901 46.8695 44.4701C46.9895 45.6301 47.0295 46.8001 46.8895 48.0001C46.9695 49.1901 46.9095 50.4001 46.9095 51.6201C47.0095 52.8401 46.8995 54.0801 46.9195 55.3301C46.9695 56.5801 46.6495 57.8501 46.9195 59.1301C46.9595 60.4101 46.8795 61.7001 46.9195 63.0101C46.9095 63.4801 46.8995 63.9601 46.8895 64.4301V64.7901V65.3801C46.8895 65.8201 46.8895 66.2601 46.8895 66.7001C46.5595 66.7001 46.2295 66.7001 45.8995 66.7101H45.3995L45.1495 66.7301H45.0495H44.9795C43.6495 66.4601 42.3195 66.6201 40.9695 66.7301C39.6195 66.8101 38.2895 66.7701 36.9595 66.7301C35.6295 66.7601 34.3195 66.7401 33.0095 66.7301C32.4295 66.7701 31.8395 66.7501 31.2595 66.7301C30.9695 66.7201 30.6795 66.7101 30.3895 66.7001C30.2495 66.7001 30.0995 66.7001 29.9595 66.7001H29.9195H29.8995C29.8895 66.7001 29.8795 66.7001 29.8695 66.7001C29.8595 66.7201 29.8495 66.7401 29.8395 66.7601C29.8395 66.7601 29.8195 66.7801 29.8095 66.8001L29.7695 66.8501L29.6895 66.9401L29.5295 67.1201C29.4195 67.2401 29.3095 67.3501 29.1895 67.4601C28.9595 67.6801 28.7295 67.9001 28.4895 68.1101C28.0195 68.5401 27.5495 68.9601 27.1495 69.4401C26.3195 70.3801 25.4795 71.2901 24.5095 72.0601C24.0795 72.4901 23.5995 72.8801 23.1495 73.2801C23.0395 73.3801 22.9295 73.4801 22.8195 73.5901C22.6995 73.7001 22.6395 73.7701 22.4195 73.9901C22.0595 74.3601 21.7095 74.7601 21.3195 75.2301C21.0295 75.5301 20.7395 75.8501 20.4295 76.1901C20.1695 75.4101 19.8795 74.5601 19.6295 73.6401L19.5395 73.3001L19.4995 73.1301L19.4795 73.0301C19.4495 72.9101 19.4295 72.8001 19.4195 72.6801C19.3895 72.4401 19.3695 72.2001 19.3895 71.9601C18.9995 70.8701 18.9795 69.6901 18.5295 68.6501C18.5295 68.1901 18.4295 67.7501 18.3095 67.3301C18.2795 67.2201 18.2495 67.1201 18.2095 67.0101L18.1595 66.8501V66.8101L18.1395 66.7901L18.1295 66.7601C18.0995 66.7001 18.0695 66.6501 18.0395 66.6201C17.9695 66.6301 17.9195 66.6401 17.8695 66.6401H17.8495L17.7495 66.6301H17.5495C17.4095 66.6101 17.2795 66.6001 17.1495 66.6001C16.8795 66.5901 16.6095 66.5701 16.3495 66.5601C15.8195 66.5401 15.2895 66.5601 14.7695 66.6101C14.2495 66.6801 13.7295 66.6601 13.2195 66.6301C12.9595 66.6201 12.7095 66.6001 12.4595 66.5901C12.3295 66.5901 12.2095 66.5901 12.0795 66.5801H11.8895H11.6295C11.1195 66.6301 10.5795 66.6301 10.0895 66.6101C10.0995 66.3001 10.1195 65.9901 10.1295 65.6901C10.1495 65.4101 10.1595 65.1301 10.1795 64.8501C10.2095 64.5101 10.2095 64.1701 10.1495 63.8301C10.1895 62.8701 10.1295 61.9401 10.1795 61.0401C9.79952 60.1301 10.1795 59.2501 10.2095 58.3901C10.2595 57.5301 9.95952 56.7001 10.2495 55.9001C9.95952 55.1001 10.2095 54.3201 10.2895 53.5701C10.3695 52.8201 10.1695 52.1001 10.3295 51.4001C10.1295 50.7101 10.4395 50.0401 10.3695 49.4101C10.4995 48.7801 10.3695 48.1701 10.4095 47.6001C10.3695 47.0301 10.3795 46.4801 10.4495 45.9801C10.4695 45.4701 10.4795 44.9901 10.4995 44.5501C10.5895 41.8901 10.6995 40.4301 10.7995 40.4301L10.7895 40.4501Z" fill="#0061EF"/>
<path d="M71.4198 44.06C71.4198 44.17 71.1898 44.27 70.7698 44.36C70.6998 44.37 70.6198 44.39 70.5498 44.41C70.4698 44.44 70.3798 44.47 70.2898 44.45C70.1998 44.31 70.1098 44.71 70.0098 44.49C69.9098 44.43 69.8098 44.49 69.6998 44.53C69.5898 44.58 69.4798 44.44 69.3598 44.57C69.2398 44.84 69.1198 44.27 68.9898 44.61C68.8598 44.68 68.7298 44.66 68.5998 44.65C68.4698 44.44 68.3298 44.65 68.1898 44.69C68.0498 44.44 67.8998 44.55 67.7498 44.72C67.5998 44.38 67.4498 44.43 67.2898 44.75C67.1298 44.76 66.9698 44.63 66.8098 44.78C66.6498 44.8 66.4798 44.87 66.3098 44.81C66.1398 45.04 65.9698 45.03 65.7898 44.83C65.6098 45.08 65.4398 44.98 65.2498 44.85C65.0698 44.71 64.8798 45.06 64.6998 44.87C64.5098 44.86 64.3198 44.93 64.1298 44.89C63.9398 44.79 63.7398 44.68 63.5498 44.9C63.3498 44.96 63.1498 45.04 62.9498 44.9C62.7498 45.16 62.5498 45.05 62.3398 44.9C62.1298 44.94 61.9298 44.76 61.7198 44.9C61.5098 44.86 61.2998 45.01 61.0898 44.9C60.8798 44.82 60.6698 44.74 60.4598 44.9C60.2498 45.07 60.0498 44.83 59.8398 44.9C59.6398 44.65 59.4298 44.98 59.2298 44.9C59.0298 44.92 58.8298 44.76 58.6298 44.9C58.4298 44.94 58.2398 44.99 58.0498 44.89C57.8598 45.27 57.6698 44.79 57.4798 44.87C57.2898 44.71 57.1098 44.89 56.9298 44.85C56.7498 44.92 56.5698 44.68 56.3898 44.83C56.2198 44.8 56.0398 44.95 55.8698 44.81C55.6998 45 55.5298 44.65 55.3698 44.78C55.2098 44.78 55.0498 44.79 54.8898 44.75C54.7298 44.46 54.5798 44.7 54.4298 44.72C54.2798 44.69 54.1298 44.89 53.9898 44.69C53.8498 44.67 53.7098 44.54 53.5798 44.65C53.4398 44.69 53.3098 44.22 53.1898 44.61C53.0598 44.68 52.9398 44.31 52.8198 44.57C52.6998 44.81 52.5898 44.54 52.4798 44.53C52.3698 44.51 52.2698 44.5 52.1698 44.49C51.2698 44.36 50.7598 44.21 50.7598 44.06C50.7598 43.88 51.3898 43.72 52.4798 43.58C52.5898 43.57 52.6998 43.36 52.8198 43.54C52.9398 43.54 53.0598 43.38 53.1898 43.5C53.3198 43.23 53.4498 43.45 53.5798 43.46C53.7098 43.45 53.8498 43.53 53.9898 43.43C54.1298 43.27 54.2798 43.51 54.4298 43.4C54.5798 43.57 54.7298 43.52 54.8898 43.37C55.0498 43.53 55.2098 43.33 55.3698 43.34C55.5298 43.59 55.6998 43.42 55.8698 43.31C56.0398 43.22 56.2098 43.35 56.3898 43.29C56.5698 43.34 56.7498 43.23 56.9298 43.27C57.1098 43.15 57.2998 43.11 57.4798 43.25C57.6698 43.17 57.8598 43.23 58.0498 43.23C58.2398 43.13 58.4398 43.24 58.6298 43.22C58.8298 43.17 59.0298 43.49 59.2298 43.21C59.4298 43.17 59.6298 43.25 59.8398 43.21C60.0398 43.24 60.2498 43.28 60.4598 43.21C60.6698 43.48 60.8798 43.31 61.0898 43.21C61.2998 43.13 61.5098 43.17 61.7198 43.21C61.9298 43.18 62.1298 43.2 62.3398 43.21C62.5498 43.13 62.7498 43.33 62.9498 43.21C63.1498 43.09 63.3498 43.34 63.5498 43.22C63.7498 43.14 63.9398 43.1 64.1298 43.23C64.3198 43.23 64.5098 43.48 64.6998 43.25C64.8898 43.2 65.0698 42.89 65.2498 43.27C65.4298 43.17 65.6098 43.45 65.7898 43.29C65.9698 43.57 66.1398 43.3 66.3098 43.31C66.4798 43.36 66.6498 43.46 66.8098 43.34C66.9798 43.21 67.1298 43.41 67.2898 43.37C67.4498 43.21 67.5998 43.58 67.7498 43.4C67.8998 43.44 68.0498 43.38 68.1898 43.43C68.3298 43.05 68.4698 43.43 68.5998 43.46C68.7398 43.51 68.8698 43.21 68.9898 43.5C69.1098 43.21 69.2398 43.46 69.3598 43.54C69.4798 43.62 69.5898 43.42 69.6998 43.58C69.8098 43.38 69.9098 43.69 70.0098 43.62C70.1098 43.75 70.1998 43.62 70.2898 43.66C70.3798 43.62 70.4698 43.63 70.5498 43.7C70.6298 43.72 70.6998 43.73 70.7698 43.75C71.1898 43.84 71.4198 43.95 71.4198 44.05V44.06Z" fill="#0061EF"/>
<path d="M71.4198 53.7002C71.4198 53.8102 71.2498 53.9102 70.9498 54.0002C70.8998 54.0202 70.8398 54.0302 70.7898 54.0502C70.7298 54.0802 70.6698 54.1102 70.5998 54.0902C70.5298 53.9502 70.4598 54.3502 70.3898 54.1302C70.3198 54.0702 70.2398 54.1302 70.1598 54.1702C70.0798 54.2202 69.9998 54.0802 69.9098 54.2102C69.8198 54.4802 69.7298 53.9102 69.6398 54.2502C69.5498 54.3202 69.4498 54.3002 69.3498 54.2902C69.2498 54.0802 69.1498 54.2902 69.0498 54.3302C68.9398 54.0802 68.8398 54.1902 68.7298 54.3602C68.6198 54.0202 68.5098 54.0702 68.3898 54.3902C68.2798 54.3902 68.1598 54.2702 68.0398 54.4202C67.9198 54.4402 67.7998 54.5102 67.6698 54.4502C67.5498 54.6802 67.4198 54.6702 67.2898 54.4702C67.1598 54.7202 67.0298 54.6202 66.8998 54.4902C66.7698 54.3502 66.6298 54.7102 66.4898 54.5102C66.3498 54.5002 66.2098 54.5702 66.0698 54.5302C65.9298 54.4302 65.7898 54.3202 65.6398 54.5402C65.4998 54.6002 65.3498 54.6802 65.1998 54.5402C65.0498 54.8002 64.9098 54.6902 64.7498 54.5402C64.5998 54.5802 64.4498 54.4002 64.2998 54.5402C64.1498 54.5002 63.9898 54.6502 63.8398 54.5402C63.6798 54.4602 63.5298 54.3802 63.3798 54.5402C63.2298 54.7102 63.0798 54.4702 62.9298 54.5402C62.7798 54.2902 62.6298 54.6202 62.4798 54.5402C62.3298 54.5602 62.1898 54.4002 62.0398 54.5402C61.8998 54.5802 61.7498 54.6302 61.6098 54.5302C61.4698 54.9102 61.3298 54.4302 61.1898 54.5102C61.0498 54.3502 60.9198 54.5302 60.7798 54.4902C60.6498 54.5602 60.5198 54.3202 60.3898 54.4702C60.2598 54.4402 60.1298 54.5902 60.0098 54.4502C59.8898 54.6402 59.7598 54.2902 59.6398 54.4202C59.5198 54.4202 59.3998 54.4302 59.2898 54.3902C59.1698 54.0902 59.0598 54.3402 58.9498 54.3602C58.8398 54.3302 58.7298 54.5302 58.6298 54.3302C58.5298 54.3102 58.4198 54.1802 58.3298 54.2902C58.2298 54.3302 58.1298 53.8602 58.0398 54.2502C57.9498 54.3202 57.8598 53.9502 57.7698 54.2102C57.6798 54.4502 57.5998 54.1802 57.5198 54.1702C57.4398 54.1602 57.3598 54.1402 57.2898 54.1302C56.6298 54.0002 56.2598 53.8502 56.2598 53.7002C56.2598 53.5202 56.7198 53.3602 57.5198 53.2202C57.5998 53.2102 57.6798 53.0002 57.7698 53.1802C57.8598 53.1802 57.9498 53.0202 58.0398 53.1402C58.1298 52.8702 58.2298 53.0902 58.3298 53.1002C58.4298 53.0902 58.5298 53.1702 58.6298 53.0702C58.7398 52.9102 58.8398 53.1502 58.9498 53.0402C59.0598 53.2102 59.1698 53.1602 59.2898 53.0102C59.3998 53.1702 59.5198 52.9702 59.6398 52.9802C59.7598 53.2302 59.8798 53.0602 60.0098 52.9502C60.1298 52.8602 60.2598 52.9902 60.3898 52.9302C60.5198 52.9802 60.6498 52.8702 60.7798 52.9102C60.9098 52.7902 61.0498 52.7502 61.1898 52.8902C61.3298 52.8102 61.4698 52.8702 61.6098 52.8702C61.7498 52.7702 61.8898 52.8802 62.0398 52.8602C62.1798 52.8102 62.3298 53.1302 62.4798 52.8502C62.6298 52.8102 62.7798 52.8902 62.9298 52.8502C63.0798 52.8802 63.2298 52.9202 63.3798 52.8502C63.5298 53.1302 63.6898 52.9602 63.8398 52.8502C63.9898 52.7702 64.1498 52.8102 64.2998 52.8502C64.4498 52.8202 64.5998 52.8402 64.7498 52.8502C64.8998 52.7702 65.0498 52.9702 65.1998 52.8502C65.3498 52.7302 65.4898 52.9802 65.6398 52.8602C65.7798 52.7802 65.9298 52.7402 66.0698 52.8702C66.2098 52.8702 66.3498 53.1202 66.4898 52.8902C66.6298 52.8402 66.7598 52.5302 66.8998 52.9102C67.0298 52.8102 67.1598 53.1002 67.2898 52.9302C67.4198 53.2102 67.5498 52.9402 67.6698 52.9502C67.7898 53.0102 67.9198 53.1002 68.0398 52.9802C68.1598 52.8502 68.2798 53.0502 68.3898 53.0102C68.5098 52.8502 68.6198 53.2202 68.7298 53.0402C68.8398 53.0802 68.9498 53.0202 69.0498 53.0702C69.1498 52.6902 69.2598 53.0702 69.3498 53.1002C69.4498 53.1502 69.5398 52.8502 69.6398 53.1402C69.7298 52.8502 69.8198 53.1002 69.9098 53.1802C69.9998 53.2602 70.0798 53.0602 70.1598 53.2202C70.2398 53.0202 70.3198 53.3302 70.3898 53.2602C70.4598 53.3902 70.5298 53.2602 70.5998 53.3002C70.6698 53.2602 70.7298 53.2702 70.7898 53.3502C70.8498 53.3602 70.8998 53.3802 70.9498 53.4002C71.2598 53.4902 71.4198 53.6002 71.4198 53.7002Z" fill="#0061EF"/>
<path d="M71.4207 62.4802C71.4207 62.5802 71.2507 62.6902 70.9507 62.7802C70.9007 62.8002 70.8507 62.8102 70.7907 62.8302C70.7307 62.8602 70.6707 62.8902 70.6107 62.8702C70.5407 62.7302 70.4807 63.1302 70.4007 62.9102C70.3307 62.8502 70.2507 62.9102 70.1707 62.9502C70.0907 63.0002 70.0107 62.8602 69.9207 62.9902C69.8407 63.2602 69.7507 62.6902 69.6607 63.0302C69.5707 63.1002 69.4807 63.0802 69.3807 63.0702C69.2807 62.8602 69.1807 63.0702 69.0807 63.1102C68.9807 62.8602 68.8707 62.9702 68.7607 63.1402C68.6507 62.8002 68.5407 62.8502 68.4307 63.1702C68.3207 63.1802 68.2007 63.0502 68.0807 63.2002C67.9607 63.2202 67.8407 63.2902 67.7207 63.2302C67.6007 63.4602 67.4707 63.4502 67.3407 63.2502C67.2107 63.5002 67.0807 63.4002 66.9507 63.2702C66.8207 63.1302 66.6907 63.4902 66.5507 63.2902C66.4207 63.2702 66.2807 63.3402 66.1407 63.3002C66.0007 63.2002 65.8607 63.0902 65.7207 63.3102C65.5807 63.3702 65.4307 63.4502 65.2907 63.3202C65.1407 63.5802 65.0007 63.4702 64.8507 63.3202C64.7007 63.3602 64.5507 63.1802 64.4007 63.3202C64.2507 63.2802 64.1007 63.4402 63.9407 63.3202C63.7907 63.2402 63.6407 63.1702 63.4807 63.3202C63.3307 63.4902 63.1807 63.2502 63.0307 63.3202C62.8807 63.0702 62.7407 63.4002 62.5907 63.3202C62.4507 63.3402 62.3007 63.1802 62.1607 63.3102C62.0207 63.3502 61.8807 63.4002 61.7407 63.3002C61.6007 63.6802 61.4607 63.2002 61.3307 63.2902C61.1907 63.1302 61.0607 63.3102 60.9307 63.2702C60.8007 63.3402 60.6707 63.1002 60.5407 63.2502C60.4107 63.2202 60.2907 63.3702 60.1707 63.2302C60.0507 63.4202 59.9207 63.0702 59.8107 63.2002C59.6907 63.2002 59.5807 63.2102 59.4607 63.1702C59.3507 62.8802 59.2407 63.1202 59.1307 63.1402C59.0207 63.1102 58.9207 63.3102 58.8107 63.1102C58.7107 63.0902 58.6107 62.9602 58.5107 63.0702C58.4107 63.1102 58.3207 62.6402 58.2307 63.0302C58.1407 63.1002 58.0507 62.7302 57.9707 62.9902C57.8907 63.2302 57.8007 62.9602 57.7207 62.9502C57.6407 62.9402 57.5707 62.9202 57.4907 62.9102C56.8407 62.7802 56.4707 62.6302 56.4707 62.4802C56.4707 62.3002 56.9307 62.1402 57.7207 62.0002C57.8007 61.9902 57.8807 61.7802 57.9707 61.9602C58.0507 61.9602 58.1407 61.8002 58.2307 61.9202C58.3207 61.6502 58.4207 61.8702 58.5107 61.8802C58.6107 61.8702 58.7107 61.9602 58.8107 61.8402C58.9107 61.6802 59.0207 61.9202 59.1307 61.8102C59.2407 61.9802 59.3507 61.9302 59.4607 61.7802C59.5707 61.9402 59.6907 61.7502 59.8107 61.7502C59.9307 62.0002 60.0507 61.8302 60.1707 61.7202C60.2907 61.6302 60.4207 61.7602 60.5407 61.7002C60.6707 61.7502 60.8007 61.6402 60.9307 61.6802C61.0607 61.5602 61.1907 61.5202 61.3307 61.6602C61.4707 61.5802 61.6007 61.6402 61.7407 61.6402C61.8807 61.5402 62.0207 61.6502 62.1607 61.6302C62.3007 61.5802 62.4507 61.9002 62.5907 61.6202C62.7407 61.5802 62.8807 61.6602 63.0307 61.6202C63.1807 61.6502 63.3307 61.6902 63.4807 61.6202C63.6307 61.9002 63.7807 61.7302 63.9407 61.6202C64.0907 61.5402 64.2407 61.5802 64.4007 61.6202C64.5507 61.5902 64.7007 61.6102 64.8507 61.6202C65.0007 61.5402 65.1407 61.7402 65.2907 61.6202C65.4407 61.5002 65.5807 61.7502 65.7207 61.6302C65.8607 61.5502 66.0007 61.5102 66.1407 61.6402C66.2807 61.6402 66.4207 61.8902 66.5507 61.6602C66.6907 61.6102 66.8207 61.2902 66.9507 61.6802C67.0807 61.5802 67.2107 61.8602 67.3407 61.7002C67.4707 61.9802 67.5907 61.7102 67.7207 61.7202C67.8407 61.7702 67.9607 61.8702 68.0807 61.7502C68.2007 61.6202 68.3107 61.8202 68.4307 61.7802C68.5407 61.6202 68.6507 61.9902 68.7607 61.8102C68.8707 61.8502 68.9707 61.7902 69.0807 61.8402C69.1807 61.4602 69.2807 61.8402 69.3807 61.8802C69.4807 61.9302 69.5707 61.6302 69.6607 61.9202C69.7507 61.6302 69.8407 61.8802 69.9207 61.9602C70.0107 62.0402 70.0907 61.8402 70.1707 62.0002C70.2507 61.8002 70.3207 62.1102 70.4007 62.0402C70.4707 62.1702 70.5407 62.0402 70.6107 62.0802C70.6707 62.0402 70.7407 62.0502 70.7907 62.1202C70.8507 62.1402 70.9007 62.1502 70.9507 62.1702C71.2507 62.2602 71.4207 62.3602 71.4207 62.4702V62.4802Z" fill="#0061EF"/>
<path d="M27.7799 60.1C27.6699 60.1 27.5699 59.94 27.4799 59.64C27.4599 59.59 27.4499 59.54 27.4299 59.48C27.3999 59.42 27.3699 59.36 27.3899 59.3C27.5299 59.24 27.1299 59.17 27.3499 59.1C27.4099 59.03 27.3499 58.96 27.3099 58.88C27.2599 58.8 27.3999 58.72 27.2699 58.64C26.9999 58.56 27.5699 58.47 27.2299 58.38C27.1599 58.29 27.1799 58.2 27.1899 58.1C27.3999 58.01 27.1899 57.91 27.1499 57.81C27.3999 57.71 27.2899 57.61 27.1199 57.5C27.4599 57.39 27.4099 57.29 27.0899 57.18C27.0799 57.07 27.2099 56.96 27.0599 56.84C27.0399 56.72 26.9699 56.61 27.0299 56.49C26.7999 56.37 26.8099 56.25 27.0099 56.12C26.7599 56 26.8599 55.87 26.9899 55.74C27.1299 55.61 26.7699 55.48 26.9699 55.35C26.9899 55.22 26.9099 55.08 26.9499 54.95C27.0499 54.81 27.1599 54.68 26.9399 54.54C26.8799 54.4 26.7999 54.26 26.9299 54.12C26.6699 53.98 26.7799 53.84 26.9299 53.69C26.8899 53.55 27.0699 53.4 26.9299 53.25C26.9699 53.1 26.8099 52.96 26.9299 52.8C27.0099 52.65 27.0799 52.5 26.9299 52.36C26.7599 52.21 26.9999 52.07 26.9299 51.92C27.1699 51.78 26.8499 51.63 26.9299 51.49C26.9099 51.35 27.0699 51.21 26.9399 51.07C26.8899 50.93 26.8499 50.79 26.9499 50.66C26.5699 50.52 27.0499 50.39 26.9699 50.26C27.1299 50.13 26.9499 50 26.9899 49.87C26.9199 49.74 27.1599 49.62 27.0099 49.49C27.0399 49.37 26.8899 49.24 27.0299 49.12C26.8399 49 27.1899 48.88 27.0599 48.77C27.0599 48.65 27.0499 48.54 27.0899 48.43C27.3799 48.32 27.1399 48.21 27.1199 48.1C27.1499 47.99 26.9499 47.89 27.1499 47.79C27.1699 47.69 27.2999 47.59 27.1899 47.5C27.1499 47.41 27.6199 47.31 27.2299 47.22C27.1599 47.13 27.5299 47.05 27.2699 46.96C27.0299 46.88 27.2999 46.8 27.3099 46.72C27.3199 46.64 27.3399 46.57 27.3499 46.5C27.4799 45.87 27.6299 45.5 27.7899 45.5C27.9699 45.5 28.1299 45.95 28.2699 46.72C28.2799 46.8 28.4899 46.88 28.3099 46.96C28.3099 47.04 28.4699 47.13 28.3499 47.22C28.6199 47.31 28.3999 47.4 28.3899 47.5C28.3999 47.59 28.3199 47.69 28.4299 47.79C28.5899 47.89 28.3499 47.99 28.4599 48.1C28.2899 48.21 28.3299 48.31 28.4899 48.43C28.3299 48.54 28.5199 48.65 28.5199 48.77C28.2699 48.89 28.4399 49 28.5499 49.12C28.6399 49.24 28.5099 49.36 28.5699 49.49C28.5199 49.61 28.6299 49.74 28.5899 49.87C28.7099 50 28.7499 50.13 28.6099 50.26C28.6899 50.39 28.6299 50.53 28.6299 50.66C28.7299 50.79 28.6199 50.93 28.6399 51.07C28.6899 51.21 28.3699 51.35 28.6399 51.49C28.6799 51.63 28.5999 51.78 28.6399 51.92C28.5999 52.07 28.5699 52.21 28.6399 52.36C28.3599 52.51 28.5299 52.65 28.6399 52.8C28.7199 52.95 28.6799 53.1 28.6399 53.25C28.6699 53.4 28.6499 53.54 28.6399 53.69C28.7199 53.84 28.5199 53.98 28.6399 54.12C28.7599 54.26 28.5199 54.4 28.6399 54.54C28.7199 54.68 28.7599 54.82 28.6299 54.95C28.6299 55.09 28.3799 55.22 28.6099 55.35C28.6599 55.48 28.9799 55.61 28.5899 55.74C28.6899 55.87 28.4099 55.99 28.5699 56.12C28.2899 56.24 28.5599 56.37 28.5499 56.49C28.4999 56.61 28.3999 56.73 28.5199 56.84C28.6499 56.96 28.4499 57.07 28.4899 57.18C28.6499 57.29 28.2799 57.4 28.4599 57.5C28.4199 57.61 28.4799 57.71 28.4299 57.81C28.8099 57.91 28.4299 58.01 28.3899 58.1C28.3399 58.19 28.6399 58.29 28.3499 58.38C28.6399 58.47 28.3899 58.55 28.3099 58.64C28.2299 58.72 28.4299 58.8 28.2699 58.88C28.4699 58.96 28.1599 59.03 28.2299 59.1C28.0999 59.17 28.2299 59.24 28.1899 59.3C28.2399 59.36 28.2199 59.42 28.1499 59.48C28.1299 59.54 28.1199 59.59 28.0999 59.64C28.0099 59.93 27.9099 60.1 27.7999 60.1H27.7799Z" fill="#0061EF"/>
<path d="M20.4709 52.8199C20.4709 52.7099 20.6309 52.6099 20.9309 52.5199C20.9809 52.4999 21.0309 52.4899 21.0909 52.4699C21.1509 52.4399 21.2109 52.4099 21.2709 52.4299C21.3309 52.5699 21.4009 52.1699 21.4709 52.3899C21.5409 52.4499 21.6109 52.3899 21.6909 52.3499C21.7709 52.2999 21.8509 52.4399 21.9309 52.3099C22.0109 52.0399 22.1009 52.6099 22.1909 52.2699C22.2809 52.1999 22.3709 52.2199 22.4709 52.2299C22.5609 52.4399 22.6609 52.2299 22.7609 52.1999C22.8609 52.4499 22.9609 52.3399 23.0709 52.1699C23.1809 52.5099 23.2809 52.4599 23.3909 52.1399C23.5009 52.1299 23.6109 52.2599 23.7309 52.1099C23.8409 52.0899 23.9609 52.0199 24.0809 52.0799C24.2009 51.8499 24.3209 51.8599 24.4509 52.0599C24.5709 51.8099 24.7009 51.9099 24.8309 52.0399C24.9609 52.1799 25.0909 51.8199 25.2209 52.0199C25.3509 52.0399 25.4909 51.9599 25.6209 51.9999C25.7609 52.0999 25.8909 52.2099 26.0309 51.9899C26.1709 51.9299 26.3109 51.8499 26.4509 51.9899C26.5909 51.7299 26.7409 51.8399 26.8809 51.9899C27.0209 51.9499 27.1709 52.1299 27.3209 51.9899C27.4709 52.0299 27.6109 51.8699 27.7609 51.9899C27.9109 52.0699 28.0609 52.1399 28.2009 51.9899C28.3509 51.8199 28.4909 52.0599 28.6409 51.9899C28.7909 52.2399 28.9309 51.9099 29.0709 51.9899C29.2109 51.9699 29.3509 52.1299 29.4909 51.9899C29.6309 51.9499 29.7709 51.8999 29.9009 51.9999C30.0309 51.6199 30.1709 52.0999 30.3009 52.0199C30.4309 52.1799 30.5609 51.9999 30.6909 52.0399C30.8209 51.9699 30.9509 52.2099 31.0709 52.0599C31.1909 52.0899 31.3209 51.9399 31.4409 52.0799C31.5609 51.8899 31.6809 52.2399 31.7909 52.1099C31.9009 52.1099 32.0209 52.0999 32.1309 52.1399C32.2409 52.4399 32.3509 52.1899 32.4509 52.1699C32.5609 52.1999 32.6609 51.9999 32.7609 52.1999C32.8609 52.2199 32.9609 52.3499 33.0509 52.2299C33.1409 52.1899 33.2409 52.6599 33.3309 52.2699C33.4209 52.1999 33.5109 52.5699 33.5909 52.3099C33.6709 52.0699 33.7509 52.3399 33.8309 52.3499C33.9109 52.3599 33.9809 52.3799 34.0509 52.3899C34.6809 52.5199 35.0409 52.6699 35.0409 52.8299C35.0409 53.0099 34.5909 53.1699 33.8209 53.3099C33.7409 53.3199 33.6609 53.5299 33.5809 53.3499C33.5009 53.3499 33.4109 53.5099 33.3209 53.3899C33.2309 53.6599 33.1409 53.4399 33.0409 53.4299C32.9409 53.4399 32.8509 53.3599 32.7509 53.4699C32.6509 53.6299 32.5509 53.3899 32.4409 53.4999C32.3309 53.3299 32.2309 53.3799 32.1209 53.5299C32.0109 53.3599 31.9009 53.5599 31.7809 53.5599C31.6609 53.3099 31.5509 53.4799 31.4309 53.5899C31.3109 53.6799 31.1909 53.5499 31.0609 53.6099C30.9409 53.5599 30.8109 53.6699 30.6809 53.6299C30.5509 53.7499 30.4209 53.7899 30.2909 53.6499C30.1609 53.7299 30.0209 53.6699 29.8909 53.6699C29.7509 53.7699 29.6209 53.6599 29.4809 53.6799C29.3409 53.7299 29.2009 53.4099 29.0609 53.6799C28.9209 53.7199 28.7809 53.6399 28.6309 53.6799C28.4909 53.6399 28.3409 53.6099 28.1909 53.6799C28.0409 53.3999 27.8909 53.5699 27.7509 53.6799C27.6009 53.7599 27.4509 53.7199 27.3109 53.6799C27.1609 53.7099 27.0209 53.6899 26.8709 53.6799C26.7309 53.7599 26.5809 53.5599 26.4409 53.6799C26.3009 53.7999 26.1609 53.5599 26.0209 53.6799C25.8809 53.7599 25.7409 53.7999 25.6109 53.6699C25.4709 53.6699 25.3409 53.4199 25.2109 53.6499C25.0809 53.6999 24.9509 54.0199 24.8209 53.6299C24.6909 53.7199 24.5709 53.4499 24.4409 53.6099C24.3209 53.3299 24.1909 53.5999 24.0709 53.5899C23.9509 53.5399 23.8309 53.4399 23.7209 53.5599C23.6009 53.6899 23.4909 53.4899 23.3809 53.5299C23.2709 53.6899 23.1609 53.3199 23.0609 53.4999C22.9509 53.4599 22.8509 53.5199 22.7509 53.4699C22.6509 53.8499 22.5509 53.4699 22.4609 53.4299C22.3709 53.3799 22.2709 53.6799 22.1809 53.3899C22.0909 53.6799 22.0009 53.4299 21.9209 53.3499C21.8409 53.2699 21.7609 53.4699 21.6809 53.3099C21.6009 53.5099 21.5309 53.1999 21.4609 53.2699C21.3909 53.1399 21.3209 53.2699 21.2609 53.2299C21.2009 53.2699 21.1409 53.2599 21.0809 53.1899C21.0209 53.1699 20.9709 53.1599 20.9209 53.1399C20.6209 53.0499 20.4609 52.9499 20.4609 52.8399L20.4709 52.8199Z" fill="#0061EF"/>
</g>
<defs>
<clipPath id="clip0_1032_13943">
<rect width="67.64" height="85.2" fill="white" transform="translate(10 15)"/>
</clipPath>
</defs>
</svg>
