<svg width="122" height="96" viewBox="0 0 122 96" fill="none" xmlns="http://www.w3.org/2000/svg">
<rect width="88" height="71" rx="11" fill="#FFE2F0"/>
<g clip-path="url(#clip0_1032_13984)">
<path d="M26.8888 49.7863C26.9451 49.7863 27.0014 50.552 27.0577 52.0271C27.114 53.5023 27.1703 55.6756 27.2266 58.4907C27.2491 59.4254 27.2603 60.4388 27.2828 61.5198C27.3166 62.6009 27.3504 63.7495 27.3279 64.9543C27.1703 66.1705 27.6206 67.4429 27.3729 68.7942C27.3054 70.1342 27.3729 71.5418 27.418 73.0057C27.4743 74.4696 27.3166 76.001 27.463 77.5888C27.767 79.1765 27.1252 80.8206 27.508 82.5209C27.5869 84.2213 27.5643 85.978 27.5531 87.7909C27.3166 89.6039 27.5531 91.4732 27.5981 93.3875L27.5531 93.7591C27.5531 93.7591 27.5306 93.8717 27.508 93.928C27.4855 94.0518 27.463 94.187 27.4517 94.3221C27.6206 94.3446 27.8121 94.3446 28.0035 94.3446C28.1836 94.3446 28.3638 94.3446 28.5439 94.3446C28.7241 94.3446 28.9155 94.3334 29.0957 94.3221C29.8275 94.2883 30.5819 94.2207 31.3251 94.1532C33.3406 94.536 35.4123 94.4797 37.5292 94.1194C39.646 94.1081 41.8078 94.2545 44.0147 94.0856C46.2216 94.0631 48.4623 93.9843 50.7593 94.0518C53.045 93.7928 55.387 93.8041 57.7515 94.0293C60.1273 93.7478 62.5369 93.8604 64.9802 94.0068C67.4236 94.1644 69.912 93.7591 72.4342 93.9843C74.9563 94.0068 77.5123 93.9167 80.0907 93.9618C82.6805 94.0744 85.2927 94.1982 87.95 93.9505C90.596 93.8829 93.2758 93.7928 95.9781 93.9505C98.6805 93.6577 101.417 93.7816 104.175 93.9505C106.934 93.9055 109.715 94.1081 112.519 93.9505C113.926 93.973 115.334 93.9505 116.741 93.9167C117.45 93.9055 118.16 93.8942 118.869 93.8942H119.398L119.894 93.9054C119.939 93.9054 119.984 93.928 120.051 93.9392C120.051 93.9392 120.074 93.8491 120.085 93.7816C120.085 93.4438 120.108 93.0947 120.119 92.7569C120.141 92.0474 120.153 91.338 120.153 90.6286C120.153 89.221 120.153 87.8022 120.051 86.4059C119.86 83.602 120.13 80.8206 120.051 78.0617C120.333 75.3029 119.961 72.5665 120.051 69.864C120.029 67.1614 120.209 64.4814 120.063 61.8351C120.006 59.1889 119.961 56.5652 120.074 53.9752C119.961 53.2771 119.916 52.5676 119.905 51.8695C119.905 51.6893 119.905 51.5204 119.905 51.3515V51.0925V50.9574V50.9011C119.916 50.8785 119.939 50.856 119.95 50.7997C119.95 50.7772 119.916 50.7659 119.882 50.7434H119.849V50.7321H119.826H119.77H119.657L119.218 50.7096C118.644 50.6871 118.058 50.6758 117.484 50.6984C114.962 50.5182 112.485 50.7209 110.03 50.6758C107.576 50.7547 105.166 50.4844 102.801 50.6533C100.426 50.6195 98.095 50.7884 95.798 50.6308C93.5123 50.8448 91.2603 50.4506 89.0534 50.597C86.8465 50.597 84.6847 50.6083 82.5791 50.5632C80.4623 50.2367 78.4018 50.5069 76.375 50.5295C74.3596 50.4957 72.3891 50.7209 70.475 50.4957C68.5608 50.4732 66.6917 50.3268 64.8789 50.4619C63.0661 50.5069 61.3096 49.9777 59.6094 50.4169C57.9092 50.4957 56.2653 50.079 54.6776 50.3718C53.09 50.6421 51.5587 50.338 50.095 50.3268C48.6312 50.3042 47.2237 50.293 45.8838 50.2817C39.8486 50.2142 35.0971 50.1353 31.8543 50.0452C30.2329 50.0002 28.9943 49.9664 28.1498 49.9214C27.3166 49.8763 26.8775 49.8313 26.8775 49.7863C26.8775 49.7412 27.4067 49.6849 28.4426 49.6399C29.4672 49.5948 30.9985 49.5498 32.9802 49.5047C36.9549 49.4147 42.7536 49.3246 50.095 49.257C51.5587 49.2457 53.09 49.0093 54.6776 49.212C56.2653 49.212 57.9092 49.0318 59.6094 49.1669C61.3096 48.8629 63.0661 49.1106 64.8789 49.1219C66.6917 49.1106 68.5608 49.212 70.475 49.0768C72.3891 48.8967 74.3596 49.1669 76.375 49.0431C78.3905 49.2345 80.4623 49.1782 82.5791 49.0093C84.6959 49.1894 86.8578 48.9642 89.0534 48.9755C91.2603 49.257 93.5123 49.0656 95.798 48.9417C98.095 48.8404 100.426 48.9867 102.79 48.9192C105.166 48.9755 107.576 48.8516 110.019 48.8967C112.462 48.7615 114.951 48.7165 117.473 48.8741C118.047 48.8516 118.621 48.8404 119.207 48.8291C119.567 48.8291 119.927 48.8291 120.288 48.8291H121.92C121.92 50.5295 121.898 52.2523 121.898 53.9865C122.01 56.5764 121.887 59.1889 121.909 61.8464C121.965 64.4927 121.605 67.1727 121.92 69.8752C121.965 72.5778 121.875 75.3141 121.92 78.073C121.875 80.8318 121.842 83.6132 121.92 86.4171C121.763 87.8134 121.74 89.2323 121.763 90.6399C121.763 91.3493 121.797 92.0587 121.83 92.7681C121.842 93.1397 121.864 93.5001 121.875 93.8717C121.887 94.536 121.909 95.2117 121.92 95.8873C120.885 95.8986 119.837 95.9211 118.801 95.9324C118.092 95.9324 117.383 95.9324 116.673 95.9324C115.266 95.9324 113.858 95.8986 112.451 95.8761C109.647 95.9098 106.866 95.8873 104.108 95.8761C101.349 95.9661 98.6129 95.7409 95.9106 95.8761C93.2083 96.0112 90.5285 95.7297 87.8824 95.8648C85.2364 95.9549 82.6129 95.9999 80.0232 95.8535C77.4334 95.8535 74.8775 95.572 72.3666 95.831C69.8444 95.8873 67.356 96.2364 64.9127 95.8085C62.4581 95.9211 60.0485 95.5945 57.684 95.786C55.3082 95.4707 52.9774 95.7747 50.6917 95.7635C48.3947 95.7072 46.1541 95.5946 43.9472 95.7297C41.7403 95.8761 39.5784 95.6509 37.4616 95.6959C35.3448 95.8761 33.2843 95.4594 31.2575 95.6621C30.5031 95.6508 29.76 95.6509 29.0281 95.6509C28.0372 95.6509 27.0577 95.6509 26.0893 95.6509C26.0893 95.2342 26.0893 94.8176 26.0893 94.4009C26.0893 94.1982 26.0893 93.9955 26.0893 93.7816V93.41C25.6727 91.4957 26.1006 89.6264 26.1344 87.8134C26.1907 86.0005 25.8529 84.2438 26.1794 82.5435C25.8529 80.8431 26.1344 79.1991 26.2244 77.6113C26.3145 76.0236 26.0893 74.4921 26.2695 73.0282C26.0443 71.5643 26.3933 70.1568 26.3145 68.8167C26.4609 67.4767 26.3145 66.193 26.3596 64.9769C26.3145 63.7607 26.3258 62.6234 26.4046 61.5424C26.4271 60.4613 26.4384 59.4591 26.4609 58.5133C26.5172 55.6981 26.5735 53.5248 26.6298 52.0496C26.6861 50.5745 26.7424 49.8088 26.8099 49.8088L26.8888 49.7863Z" fill="#0061EF"/>
<path d="M26.8892 14.7882C26.9455 14.7882 27.0018 15.4864 27.0581 16.8152C27.1144 18.1439 27.1707 20.1033 27.227 22.6482C27.2495 23.4927 27.2608 24.4048 27.2833 25.3733C27.3171 26.3417 27.3509 27.3776 27.3284 28.4699C27.1707 29.5622 27.6211 30.7108 27.3734 31.9269C27.3058 33.1318 27.3734 34.4043 27.4184 35.7218C27.4747 37.0393 27.3171 38.4243 27.4635 39.8544C27.7675 41.2845 27.1257 42.7709 27.5085 44.3024C27.5536 45.0681 27.5648 45.8451 27.5648 46.6446C27.5648 47.0387 27.5648 47.4328 27.5648 47.8382C27.5648 48.0409 27.5648 48.2436 27.5648 48.4463C27.5648 48.5814 27.5648 48.7053 27.5648 48.8404C27.531 48.953 27.5085 49.0882 27.486 49.2233C27.6324 49.2458 27.8125 49.2571 27.9927 49.2458C28.1616 49.2458 28.3305 49.2458 28.4994 49.2346C28.6795 49.2346 28.8597 49.2233 29.0398 49.212C29.7605 49.1782 30.4811 49.1219 31.2242 49.1107C32.9582 49.3922 34.726 49.2683 36.55 49.0769C38.3741 49.4598 40.232 49.4035 42.1348 49.0431C44.0377 49.0319 45.9857 49.1782 47.9786 49.0093C49.9603 48.9868 51.9871 48.908 54.0588 48.9756C56.1194 48.7166 58.2249 48.7278 60.3643 48.953C62.5036 48.6715 64.6767 48.7841 66.8836 48.9305C69.0905 49.0882 71.3312 48.694 73.6056 48.908C75.8801 48.9305 78.1771 48.8404 80.5078 48.8855C82.8386 48.9981 85.2031 49.1219 87.5902 48.8742C89.9772 48.8066 92.3868 48.7166 94.8301 48.8742C97.2735 48.5814 99.7281 48.7053 102.216 48.8742C104.705 48.8292 107.205 49.0319 109.738 48.8742C112.271 48.9193 114.816 48.7503 117.383 48.8742C117.991 48.8967 118.599 48.908 119.207 48.9305H119.658L119.883 48.953C119.905 48.953 119.905 48.953 119.905 48.953H119.917H119.939C120.007 48.953 120.074 48.953 120.153 48.9643C120.153 48.8967 120.153 48.8066 120.153 48.7278V47.8045C120.131 47.1401 120.097 46.4757 120.052 45.8113C119.86 43.2777 120.131 40.7778 120.052 38.2892C120.333 35.8006 119.962 33.3345 120.052 30.9022C120.052 30.2266 120.052 29.5397 120.063 28.864V28.3573L120.086 28.0983V27.9745C120.086 27.9745 120.086 27.9519 120.086 27.9407C120.086 27.8619 120.097 27.7943 120.108 27.7155C120.063 27.7155 119.996 27.7155 119.939 27.7155H119.793H119.399C118.87 27.7155 118.34 27.738 117.811 27.7718C115.424 27.8168 113.06 27.8731 110.729 27.7605C108.398 28.1884 106.09 27.6479 103.827 27.738C101.552 27.5578 99.3115 27.7605 97.1046 27.7155C94.8977 27.7943 92.7246 27.524 90.5852 27.6929C88.4459 27.6592 86.3403 27.8281 84.2798 27.6704C82.2193 27.8844 80.1813 27.4902 78.1996 27.6366C77.3551 27.6366 76.5219 27.6366 75.6999 27.6366C74.7654 27.6366 73.8533 27.6366 72.9413 27.6254C72.7612 27.4452 72.581 27.2763 72.3896 27.1074C72.2883 27.006 72.1757 26.9047 72.0743 26.8034C70.9146 25.2606 69.3607 24.1909 68.0208 22.9635C66.7147 21.691 65.2622 20.6438 64.1588 19.3038C62.9089 18.0989 61.783 16.8489 60.4994 15.8355L60.3643 15.7116L60.2517 15.6103C60.2517 15.6103 60.1841 15.5314 60.1391 15.4864L60.0377 15.4639H59.9814C59.9814 15.4639 59.9702 15.4526 59.9476 15.4526H59.8801C59.7112 15.4301 59.5423 15.4076 59.3734 15.3963C59.0356 15.3625 58.6978 15.3288 58.36 15.3062C57.6957 15.2612 57.0314 15.2725 56.3896 15.4639C54.8583 15.5427 53.372 15.1261 51.942 15.4188C50.512 15.6891 49.1384 15.3851 47.8097 15.3738C46.4811 15.3625 45.22 15.34 44.0039 15.3288C38.5655 15.2612 34.2756 15.1824 31.3593 15.0923C29.8956 15.0472 28.7809 15.0135 28.0265 14.9684C27.2721 14.9234 26.878 14.8783 26.878 14.8333C26.878 14.7882 27.3621 14.7319 28.2854 14.6869C29.22 14.6419 30.5937 14.5968 32.384 14.5518C35.9645 14.4617 41.2003 14.3829 47.8097 14.304C49.1271 14.2928 50.512 14.0563 51.942 14.259C53.372 14.259 54.8583 14.0788 56.3896 14.214C57.0652 14.0225 57.7182 14 58.3826 14C58.7203 14 59.0581 14.0225 59.3959 14.0338C59.5648 14.0338 59.7337 14.0563 59.9026 14.0563C60.1616 14.0563 60.4318 14.0788 60.6908 14.0788C60.9385 14.3153 61.175 14.5518 61.4227 14.7995C62.6275 15.903 63.7872 17.1305 65.1384 18.2115C66.5233 19.2587 67.638 20.6663 69.0567 21.8261C70.2615 23.2112 71.6465 24.4386 73.1665 25.621C73.2678 25.7336 73.3692 25.8462 73.4705 25.9475C73.5043 25.9926 73.5381 26.0264 73.5719 26.0714H73.6732H73.7408H73.8984C74.1011 26.0714 74.3037 26.0714 74.5064 26.0714C74.9118 26.0714 75.3284 26.0489 75.7337 26.0376C76.5557 26.0038 77.3889 25.9701 78.2334 25.9701C80.2151 26.2516 82.2531 26.0601 84.3136 25.9363C86.3741 25.8349 88.4797 25.9813 90.619 25.9138C92.7583 25.9701 94.9315 25.8462 97.1384 25.8912C99.3453 25.7561 101.586 25.7111 103.86 25.8687C106.135 25.7786 108.432 25.8462 110.763 25.8462C113.093 25.7336 115.458 25.8575 117.845 25.8349C118.374 25.8237 118.903 25.8349 119.433 25.8462H119.827L120.491 25.88C120.964 25.8912 121.437 25.9025 121.91 25.9138C121.898 26.5218 121.887 27.1186 121.876 27.7267V28.3123V28.819C121.876 29.4946 121.921 30.1815 122 30.8572C122.045 33.3007 121.955 35.7556 122 38.2442C121.955 40.7328 121.921 43.2439 122 45.7663C121.921 46.4307 121.876 47.095 121.853 47.7594V48.2661L121.831 48.8517C121.831 49.426 121.831 50.0115 121.842 50.5971C121.324 50.5971 120.795 50.6196 120.266 50.6309H119.883L119.658 50.6534L119.207 50.6759C118.599 50.7097 117.991 50.7322 117.383 50.766C114.816 50.8561 112.271 50.811 109.738 50.766C107.205 50.7998 104.705 50.7773 102.216 50.766C99.7281 50.8561 97.2622 50.6309 94.8301 50.766C92.3868 50.9011 89.9772 50.6196 87.5902 50.7547C85.2031 50.8448 82.8386 50.8899 80.5078 50.7435C78.1771 50.7435 75.8801 50.462 73.6056 50.721C71.3312 50.7773 69.0905 51.1263 66.8836 50.6984C64.6767 50.811 62.5036 50.4957 60.3643 50.6759C58.2249 50.3606 56.1194 50.6647 54.0588 50.6534C51.9983 50.5858 49.9716 50.4845 47.9786 50.6196C45.9857 50.766 44.0377 50.5408 42.1348 50.5858C40.232 50.766 38.3629 50.3494 36.55 50.552C34.726 50.507 32.9582 50.5746 31.2242 50.5183C30.4923 50.6984 29.7605 50.721 29.0398 50.6984C28.8597 50.6984 28.6795 50.6759 28.4994 50.6647L28.2291 50.6421H28.094L28.0265 50.6196H27.9139C27.3284 50.5858 26.7541 50.552 26.1799 50.5183C26.2024 50.0904 26.2137 49.685 26.2137 49.2909C26.2137 49.1219 26.2137 48.9643 26.2137 48.7954V48.4463C26.2137 48.2436 26.2137 48.0409 26.1911 47.8382C26.1686 47.4328 26.1461 47.0387 26.1236 46.6446C26.0898 45.8451 26.0785 45.0681 26.2474 44.3024C25.9209 42.7709 26.2024 41.2845 26.2925 39.8544C26.3826 38.4243 26.1574 37.0505 26.3375 35.7218C26.1123 34.4043 26.4614 33.1318 26.3826 31.9269C26.5289 30.7221 26.3826 29.5622 26.4276 28.4699C26.3826 27.3776 26.3938 26.3417 26.4726 25.3733C26.4952 24.4048 26.5064 23.4927 26.5289 22.6482C26.5852 20.1145 26.6415 18.1439 26.6978 16.8152C26.7541 15.4864 26.8104 14.7882 26.878 14.7882H26.8892Z" fill="#0061EF"/>
<path d="M32.2823 49.7863C32.1584 49.7863 32.0458 47.7594 31.9445 44.0434C31.9445 43.7281 31.9333 43.4128 31.922 43.075C31.922 42.6921 31.8995 42.298 31.8995 41.8813C31.8995 41.5998 31.8882 41.307 31.877 41.003C32.226 41.003 32.5863 40.9917 32.9466 40.9805C33.1268 40.9805 33.2957 40.9805 33.4758 40.9805C33.6109 40.9805 33.7573 40.9805 33.8924 40.9805C34.6919 41.1381 35.5363 40.6877 36.4146 40.9354C37.3041 41.003 38.2274 40.9354 39.1957 40.8904C40.1641 40.8341 41.1662 40.9917 42.2133 40.8454C43.2605 40.5413 44.3414 41.1832 45.4674 40.8003C46.5934 40.7215 47.7531 40.744 48.9466 40.7553C50.1401 40.9917 51.3675 40.7553 52.6398 40.7215C53.9009 41.003 55.207 40.8791 56.5356 40.6877C57.8643 41.0706 59.2267 41.0143 60.6229 40.6539C62.0191 40.6427 63.4378 40.789 64.8903 40.6201C66.3428 40.5976 67.8291 40.5188 69.3379 40.5864C70.8467 40.3274 72.3893 40.3386 73.9544 40.5638C75.5195 40.2823 77.1071 40.3949 78.7172 40.5413C80.3273 40.699 81.9713 40.2936 83.6264 40.5188C85.2929 40.5413 86.9705 40.4512 88.6708 40.4963C90.3822 40.6089 92.105 40.7327 93.8502 40.485C95.5955 40.4174 97.3632 40.3274 99.1423 40.4738C100.921 40.181 102.723 40.3048 104.547 40.4738C106.36 40.4287 108.195 40.6314 110.042 40.4738C110.965 40.4963 111.899 40.4738 112.823 40.44C113.284 40.4287 113.757 40.4174 114.219 40.4174C114.579 40.4174 114.928 40.4174 115.289 40.4287C115.728 40.4287 116.156 40.4512 116.583 40.4625C116.583 40.9017 116.561 41.3408 116.55 41.78V42.4218L116.516 42.816C116.493 43.2889 116.482 43.7506 116.482 44.2123C116.471 45.1469 116.482 46.0703 116.583 46.9937C116.629 47.4553 116.651 47.9283 116.651 48.39C116.651 48.7503 116.651 49.1107 116.651 49.471C116.651 49.9102 116.64 50.3381 116.629 50.7772C115.84 50.7547 115.052 50.7435 114.275 50.7322C113.825 50.7209 113.374 50.7209 112.924 50.7322C111.1 50.4507 109.31 50.8223 107.519 50.7322C105.74 50.7547 103.973 50.5745 102.227 50.7209C100.482 50.7772 98.7594 50.8223 97.048 50.7097C95.3477 51.1376 93.6588 50.5971 92.0036 50.6872C90.3372 50.507 88.7045 50.7097 87.0944 50.6646C85.4843 50.7435 83.8854 50.4732 82.3316 50.6421C80.7665 50.6083 79.2351 50.7772 77.7151 50.6196C76.2063 50.8335 74.72 50.4394 73.2675 50.5858C71.815 50.5858 70.385 50.5971 69.0001 50.552C67.6039 50.2255 66.2415 50.4957 64.9128 50.5182C63.5842 50.4845 62.2893 50.7097 61.017 50.4845C59.7559 50.4619 58.5173 50.3156 57.3238 50.4507C56.1303 50.4957 54.9705 49.9665 53.8446 50.4056C52.7186 50.4845 51.6377 50.0678 50.5905 50.3606C49.5434 50.6309 48.5413 50.3268 47.5729 50.3156C46.6046 50.293 45.6813 50.2818 44.7918 50.2705C40.8059 50.2029 37.6757 50.1241 35.5476 50.034C33.4083 49.9552 32.271 49.8651 32.271 49.775C32.271 49.6737 33.6785 49.5836 36.302 49.4935C38.9143 49.4034 42.7425 49.3134 47.5842 49.2458C48.5525 49.2345 49.5546 48.9981 50.6018 49.2007C51.6489 49.2007 52.7299 49.0206 53.8558 49.1557C54.9818 48.8517 56.1416 49.0994 57.3351 49.1107C58.5286 49.0994 59.7559 49.2007 61.0283 49.0656C62.2893 48.8855 63.5955 49.1557 64.9241 49.0318C66.2527 49.2233 67.6152 49.167 69.0114 48.9981C70.4076 49.1782 71.8263 48.953 73.2788 48.9643C74.7313 49.2458 76.2176 49.0544 77.7264 48.9305C79.2351 48.8291 80.7777 48.9755 82.3428 48.908C83.9079 48.9643 85.4955 48.8404 87.1057 48.8855C88.7158 48.7503 90.3597 48.7053 92.0149 48.8629C93.6813 48.7728 95.359 48.8404 97.0592 48.8404C98.7707 48.7278 100.493 48.8517 102.239 48.8291C103.984 48.7728 105.752 49.1332 107.531 48.8179C109.31 48.7728 111.111 48.8629 112.935 48.8179C113.386 48.8179 113.836 48.8404 114.287 48.8404H114.455H114.534H114.545H114.602H114.714C114.714 48.8404 114.714 48.7728 114.714 48.7391V48.6828V48.4012C114.714 47.9396 114.692 47.4779 114.669 47.0049C114.827 46.0816 114.85 45.1469 114.827 44.2235C114.816 43.7619 114.793 43.2889 114.759 42.8272V42.6471C114.759 42.6471 114.737 42.5119 114.737 42.5232C114.737 42.5007 114.726 42.4781 114.714 42.4669C114.703 42.4331 114.681 42.4106 114.669 42.3993L114.579 42.4218H114.545C114.545 42.4218 114.478 42.4331 114.422 42.4331H114.241C113.769 42.4331 113.307 42.4444 112.845 42.4331C111.911 42.4331 110.987 42.3993 110.064 42.3768C108.218 42.4106 106.382 42.3881 104.569 42.3768C102.745 42.4669 100.955 42.2417 99.1648 42.3768C97.3857 42.5119 95.618 42.2304 93.8727 42.3768C92.1275 42.4669 90.4048 42.5119 88.6933 42.3655C86.9931 42.3655 85.3041 42.084 83.6489 42.343C81.9825 42.3993 80.3499 42.7597 78.7397 42.3205C77.1296 42.4218 75.5307 42.1065 73.9769 42.298C72.4118 41.9827 70.8805 42.2867 69.3604 42.2755C67.8516 42.2192 66.3653 42.1065 64.9128 42.2417C63.4603 42.3881 62.0304 42.1628 60.6454 42.2079C59.2492 42.3881 57.8868 41.9714 56.5582 42.1741C55.2295 42.1291 53.9234 42.1966 52.6623 42.1403C51.4012 42.5682 50.1739 42.1403 48.9691 42.0953C47.7756 42.039 46.6159 42.3768 45.4899 42.0502C44.3639 42.3768 43.283 42.0953 42.2359 42.0052C41.1887 41.9151 40.1866 42.1403 39.2183 41.9602C38.2499 42.1854 37.3266 41.8363 36.4371 41.9151C35.5476 41.7687 34.7144 41.9151 33.915 41.8701C33.7686 41.8701 33.6335 41.8926 33.4983 41.8926C33.4083 41.8926 33.3182 41.8926 33.2281 41.8926C33.0705 41.8926 32.9241 41.8926 32.7552 41.8701C32.7439 41.9827 32.7214 42.0953 32.6989 42.2192C32.6989 42.343 32.6989 42.4556 32.6877 42.5682C32.6877 42.7371 32.6876 42.906 32.6764 43.075C32.6764 43.4015 32.6539 43.7281 32.6539 44.0434C32.5525 47.7594 32.4399 49.7863 32.3161 49.7863H32.2823Z" fill="#0061EF"/>
<path d="M36.4606 41.4083C36.3368 41.4083 36.2242 39.5616 36.1228 36.1947C36.1116 35.6316 36.089 35.0236 36.0665 34.3817C36.0665 34.2691 36.0665 34.1452 36.0553 34.0214C36.0553 33.875 36.0553 33.7173 36.044 33.5709C36.044 33.2556 36.0327 32.9403 36.0215 32.6138C36.3368 32.6138 36.6745 32.6138 37.0123 32.6138C37.1475 32.6363 37.2713 32.6476 37.3952 32.6476C37.4515 32.6476 37.5303 32.6476 37.5753 32.6476C37.6204 32.6476 37.6654 32.6476 37.7104 32.6476C37.9019 32.6363 38.082 32.6025 38.2734 32.5687C38.6562 32.5012 39.0503 32.4561 39.4557 32.5687C40.2551 32.6363 41.0996 32.5687 41.9779 32.5237C42.8561 32.4674 43.7681 32.625 44.7252 32.4787C45.671 32.1746 46.6619 32.8165 47.6753 32.4336C48.6999 32.3548 49.747 32.3773 50.8392 32.3886C51.9201 32.625 53.0461 32.3886 54.1946 32.3435C55.3431 32.625 56.5254 32.5012 57.7301 32.3097C58.9462 32.6926 60.1735 32.6363 61.4458 32.276C62.7069 32.2647 64.0018 32.4111 65.3304 32.2422C66.6478 32.2197 67.999 32.1408 69.3726 32.2197C70.7463 31.9607 72.1425 31.9719 73.5612 32.1971C74.98 31.9156 76.4212 32.0282 77.8962 32.1746C79.36 32.3323 80.8575 31.9269 82.3663 32.1521C83.8751 32.1746 85.4064 32.0845 86.9603 32.1296C88.5141 32.2422 90.0792 32.366 91.6668 32.1183C93.2544 32.0507 94.8533 31.9607 96.4747 32.1071C98.0961 31.8143 99.7287 31.9381 101.384 32.1071C103.039 32.062 104.706 32.2647 106.383 32.1071C107.228 32.1296 108.072 32.1071 108.917 32.0733C109.344 32.0733 109.761 32.0507 110.189 32.0507C110.538 32.0507 110.898 32.0508 111.247 32.062C111.641 32.062 112.036 32.0845 112.418 32.0958C112.396 32.839 112.373 33.5822 112.362 34.3254C112.34 34.7533 112.328 35.1699 112.328 35.5979C112.328 36.4424 112.328 37.2869 112.43 38.1315C112.497 38.6833 112.508 39.235 112.497 39.7868C112.475 40.6539 112.463 41.5209 112.441 42.388C111.9 42.3768 111.371 42.3655 110.842 42.3655H110.2C110.054 42.3655 109.919 42.3655 109.772 42.3768C108.117 42.0952 106.485 42.4668 104.863 42.3768C103.242 42.3993 101.632 42.2191 100.055 42.3768C98.4676 42.4331 96.9026 42.4781 95.3487 42.3655C93.7949 42.7934 92.2636 42.2529 90.7548 42.343C89.246 42.1628 87.7597 42.3655 86.2847 42.3205C84.8209 42.3993 83.3684 42.129 81.9497 42.2979C80.531 42.2642 79.1348 42.4331 77.7611 42.2754C76.3874 42.4894 75.0363 42.0952 73.7189 42.2416C72.4015 42.2416 71.1066 42.2529 69.8343 42.2078C68.562 41.8813 67.3234 42.1515 66.1186 42.1741C64.9138 42.1403 63.7316 42.3655 62.5831 42.1403C61.4346 42.1178 60.3199 41.9714 59.2277 42.0952C58.1467 42.1403 57.0883 41.611 56.0637 42.0502C55.0391 42.129 54.0595 41.7124 53.1024 42.0052C52.1566 42.2754 51.2333 41.9714 50.3551 41.9601C49.4768 41.9376 48.6323 41.9263 47.8329 41.9151C44.2185 41.8475 41.3698 41.7687 39.4219 41.6786C37.4852 41.5998 36.4494 41.5097 36.4494 41.4196C36.4494 41.3183 37.733 41.2282 40.1087 41.1381C42.4845 41.048 45.9638 40.9579 50.3551 40.8904C51.2333 40.8791 52.1453 40.6426 53.1024 40.8453C54.0482 40.8453 55.0391 40.6651 56.0637 40.8003C57.0883 40.4962 58.1355 40.744 59.2277 40.7552C60.3086 40.744 61.4346 40.8453 62.5831 40.7214C63.7316 40.5413 64.9138 40.8115 66.1186 40.6877C67.3234 40.8791 68.562 40.8228 69.8343 40.6539C71.0954 40.8341 72.3902 40.6088 73.7189 40.6201C75.0363 40.9016 76.3874 40.7102 77.7611 40.5863C79.1348 40.485 80.531 40.6314 81.9497 40.5638C83.3684 40.6201 84.8209 40.4962 86.2847 40.5413C87.7484 40.4061 89.246 40.3611 90.7548 40.5188C92.2636 40.4287 93.7949 40.4962 95.3487 40.4962C96.9026 40.3836 98.4676 40.5075 100.055 40.485C101.643 40.4287 103.242 40.789 104.863 40.4737C106.485 40.4287 108.117 40.5188 109.772 40.4737H110.2L110.302 40.485H110.358C110.358 40.485 110.358 40.485 110.369 40.485H110.403C110.403 40.485 110.493 40.4962 110.538 40.5075C110.538 40.4737 110.538 40.4287 110.538 40.3836V39.8093C110.538 39.2576 110.516 38.7058 110.493 38.154C110.651 37.3095 110.673 36.4649 110.651 35.6204C110.639 35.1925 110.617 34.7758 110.583 34.3479V34.1903C110.583 34.1903 110.561 34.1677 110.561 34.1565C110.561 34.134 110.549 34.1227 110.538 34.1114C110.516 34.0889 110.504 34.0664 110.493 34.0551L110.403 34.0777H110.369C110.369 34.0777 110.369 34.0889 110.358 34.0889H110.2C109.772 34.0889 109.356 34.0889 108.928 34.0889C108.083 34.0889 107.239 34.0664 106.394 34.0326C104.717 34.0664 103.05 34.0439 101.395 34.0326C99.74 34.1227 98.1073 33.8975 96.4859 34.0326C94.8645 34.1678 93.2657 33.8862 91.6781 34.0214C90.0905 34.1114 88.5254 34.1565 86.9715 34.0101C85.4177 34.0101 83.8864 33.7286 82.3776 33.9876C80.8688 34.0439 79.3825 34.393 77.9075 33.9651C76.4437 34.0777 74.9912 33.7624 73.5725 33.9425C72.1538 33.6272 70.7576 33.9313 69.3839 33.92C68.0102 33.8637 66.6591 33.7511 65.3417 33.8862C64.0243 34.0326 62.7294 33.8074 61.4571 33.8525C60.196 34.0326 58.9574 33.616 57.7414 33.8187C56.5366 33.7736 55.3543 33.8412 54.2059 33.7849C53.0574 34.2128 51.9427 33.7849 50.8505 33.7511C49.7695 33.6835 48.7111 34.0326 47.6865 33.7061C46.6619 34.0326 45.6823 33.7511 44.7365 33.661C43.7794 33.5709 42.8674 33.7961 41.9891 33.616C41.1109 33.8412 40.2664 33.4921 39.4669 33.5709C39.0616 33.4921 38.6788 33.4921 38.2847 33.5034C38.0933 33.5034 37.9019 33.5146 37.7217 33.5259C37.6429 33.5259 37.5753 33.5259 37.4965 33.5259C37.4402 33.5259 37.3839 33.5259 37.3276 33.5259C37.1925 33.5484 37.0574 33.5484 36.9335 33.5484C36.9335 33.6835 36.9335 33.8074 36.911 33.9313C36.8885 34.0889 36.866 34.2466 36.8547 34.4042C36.8322 35.0461 36.8209 35.6542 36.7984 36.2172C36.6971 39.5954 36.5845 41.4309 36.4606 41.4309V41.4083Z" fill="#0061EF"/>
<path d="M91.4196 67.0826C91.4196 67.2065 89.8771 67.3191 87.0509 67.4204C86.578 67.443 86.0713 67.4542 85.5308 67.4767C84.9904 67.5105 84.4161 67.5443 83.8081 67.533C83.2001 67.3754 82.5583 67.8258 81.8827 67.5781C81.5449 67.5443 81.1958 67.5443 80.8468 67.5556C80.4077 67.5781 79.9685 67.6006 79.5181 67.6231C79.2367 67.6344 78.9439 67.6344 78.6624 67.6231C78.6624 67.2065 78.6849 66.7786 78.6962 66.3619C78.6962 66.2606 78.6962 66.148 78.6962 66.0466V65.9115V65.7989C78.6962 65.6525 78.6737 65.5061 78.6399 65.3597C78.3359 64.5602 78.9777 63.7382 78.5949 62.8824C78.516 62.0266 78.5386 61.1483 78.5498 60.2361C78.7863 59.324 78.5498 58.3894 78.5048 57.4322C78.6286 57.0156 78.6737 56.5877 78.6737 56.1598V56.0021C78.6737 56.0021 78.6737 55.9346 78.6737 55.9121C78.6737 55.8558 78.6624 55.7995 78.6512 55.7544C78.6286 55.6531 78.5949 55.5742 78.5611 55.5179C78.4823 55.5405 78.4147 55.563 78.3471 55.5855C78.3359 55.5405 78.3021 55.4954 78.2571 55.4616C78.2345 55.4391 78.2008 55.4279 78.1782 55.4166L78.1332 55.3941H78.1107L78.0657 55.3716C77.8067 55.3265 77.5477 55.3152 77.2887 55.3152C76.7708 55.3265 76.2416 55.4279 75.7124 55.608C74.654 55.6193 73.573 55.4729 72.4583 55.6418C71.9066 55.6531 71.3436 55.6756 70.7806 55.6868C70.4991 55.6868 70.2177 55.6868 69.9362 55.6868C69.8348 55.6868 69.8573 55.6868 69.8348 55.6868H69.7785C69.7785 55.6868 69.6997 55.6643 69.6547 55.6643C69.6547 55.6868 69.6434 55.7094 69.6322 55.7319C69.6772 55.8332 69.711 55.8895 69.7335 55.9233V55.9458C69.7335 55.9458 69.756 55.9458 69.756 56.0247C69.756 56.1598 69.756 56.2949 69.756 56.4188C69.756 56.948 69.6885 57.4885 69.5871 58.0291C69.8686 59.2227 69.756 60.4276 69.6096 61.655C69.452 62.8824 69.8573 64.1323 69.6322 65.3935C69.6322 65.7426 69.6322 66.9925 69.6434 67.9722C68.9903 67.9722 68.3373 67.9835 67.673 67.9947C67.4816 67.9947 67.2901 67.9947 67.0987 67.9947C66.9186 67.9947 66.7384 67.9947 66.5583 67.9835C65.2634 67.8709 63.946 67.747 62.6174 67.9947C61.2887 68.0623 59.9488 68.1524 58.5864 68.006C58.4175 68.0398 58.2374 68.0736 58.0685 68.0961L57.8095 68.1299H57.6856L57.6293 68.1524V68.1862C57.6293 68.1862 57.5956 68.1636 57.573 68.1862V68.2199L57.5618 68.3438L57.5393 68.6028L57.483 69.1095C57.528 70.4946 57.3253 71.8909 57.483 73.2985C57.4604 73.9967 57.483 74.7061 57.5167 75.4155V75.9447L57.5393 76.4402C57.5393 76.474 57.528 76.5078 57.4942 76.5979C57.4942 76.5979 57.573 76.6429 57.6406 76.6654C57.6406 76.6654 57.6969 76.6654 57.7419 76.6654H57.8771L58.1473 76.6879H58.6765C59.3858 76.7105 60.0952 76.6879 60.7933 76.5979C62.2008 76.4064 63.597 76.6767 64.9819 76.5979C65.6124 76.7217 66.2543 76.7105 66.8848 76.6767L67.3577 76.6429H67.5942L67.6505 76.6204H67.763L67.977 76.6091C68.5512 76.5866 69.148 76.5753 69.7222 76.5866C69.7222 76.8006 69.7222 77.0032 69.711 77.2172C69.711 77.5325 69.711 77.8478 69.711 78.1518V78.6248L69.6997 78.895C69.6885 79.2329 69.6772 79.5707 69.6547 79.9085C69.6322 80.5841 69.6209 81.2485 69.6997 81.9129C69.756 83.2416 69.801 84.5591 69.6885 85.8541C69.9024 86.5072 69.8686 87.1491 69.8011 87.7909L69.7447 88.2751L69.711 88.5116V88.6355L69.6997 88.6693C69.6659 88.7368 69.6547 88.8269 69.6772 88.872V88.8945C69.6772 88.8945 69.7673 88.9508 69.8461 88.962H69.8799H69.9474H70.1726L70.6343 88.9508C71.2423 88.9283 71.8503 88.8945 72.4583 88.917C73.6856 88.8382 74.9017 89.1084 76.0839 88.9395C76.6244 88.9508 77.1536 88.9395 77.6828 88.9057C77.863 88.9057 78.0319 88.9057 78.212 88.8945C78.2683 88.8945 78.3134 88.8945 78.4034 88.9283C78.4034 88.917 78.426 88.8945 78.4372 88.8832C78.4147 88.8269 78.3922 88.7931 78.3809 88.7481C78.3809 88.7368 78.3809 88.7143 78.3809 88.703V88.6805V88.6017C78.3809 88.3202 78.4147 88.0387 78.4372 87.7459C78.4935 87.1829 78.5498 86.6198 78.471 86.0681C78.471 84.9645 78.4597 83.8722 78.5048 82.8137C78.8313 81.7552 78.5611 80.7193 78.5386 79.7058C78.5386 79.5256 78.5386 79.3455 78.5386 79.1653C78.5386 78.9739 78.516 78.7824 78.516 78.591C78.4935 77.9942 78.471 77.3636 78.4823 76.778C78.9664 76.778 79.4506 76.8118 79.9122 76.8794H80.205L80.4527 76.8906C80.5766 76.8906 80.6892 76.9019 80.813 76.9132C81.0495 76.9244 81.2859 76.9469 81.5224 76.9582C81.9953 76.9807 82.4569 76.9807 82.9073 76.9132C83.8193 76.8681 84.6976 77.3974 85.5533 76.9582C86.4091 76.8794 87.231 77.296 88.0305 77.0032C88.8299 76.733 89.5956 77.037 90.3274 77.0483C90.5639 77.0483 90.7891 77.0708 91.003 77.0708C91.003 76.8906 91.0143 76.7105 91.0255 76.5528C91.0706 75.0664 91.1044 73.7377 91.1381 72.5778C91.1719 71.3954 91.217 70.3932 91.262 69.5825C91.3408 67.9609 91.4309 67.0826 91.521 67.0826C91.611 67.0826 91.7011 68.0398 91.7912 69.8302C91.8362 70.7198 91.8813 71.8233 91.9151 73.1183C91.9376 73.7602 91.9488 74.4583 91.9714 75.2015C91.9714 75.5731 91.9939 75.956 92.0051 76.3501C92.0051 76.9132 92.0276 77.4987 92.0276 78.0843C91.4759 78.0843 90.9129 78.0955 90.3274 78.1068C89.5956 78.118 88.8299 78.3545 88.0305 78.1518C87.231 78.1518 86.4091 78.332 85.5533 78.1969C84.6976 78.5009 83.8193 78.2532 82.9073 78.2419C82.4569 78.2419 81.9953 78.2307 81.5224 78.2194C81.2859 78.2194 81.0495 78.2194 80.813 78.2194C80.6892 78.2194 80.5766 78.2194 80.4527 78.2419C80.3739 78.2419 80.3626 78.2419 80.3401 78.2532C80.3176 78.2532 80.2951 78.2644 80.2725 78.2757C80.1937 78.332 80.1262 78.3433 80.0474 78.3433C80.0474 78.4446 80.0136 78.5347 80.0023 78.6586C80.0023 78.6586 80.0023 78.6586 80.0023 78.6923V78.7599V78.895C80.0023 78.9851 80.0023 79.0752 80.0023 79.1653C80.0023 79.3455 80.0136 79.5256 80.0361 79.7058C79.8447 80.7193 79.901 81.7552 80.0699 82.8137C79.8897 83.8722 80.1037 84.9533 80.1037 86.0681C79.9573 86.6198 79.9348 87.1829 79.9685 87.7459C79.9798 88.0274 80.0136 88.3089 80.0361 88.6017V88.658V88.6918V88.7368L80.0474 88.917L80.0699 89.2886C80.0811 89.5476 80.1037 89.8066 80.1149 90.0656L80.1374 90.6737C79.687 90.6849 79.2141 90.6849 78.7412 90.6849C78.5273 90.6849 78.3021 90.6849 78.0882 90.6849H77.6941C77.1649 90.6624 76.6357 90.6511 76.0952 90.6849C74.9017 90.6286 73.6969 90.7525 72.4696 90.7075C71.8616 90.775 71.2648 90.8201 70.6455 90.8313C70.4879 90.8313 70.3415 90.8313 70.1839 90.8313C69.9699 90.8313 69.7673 90.8313 69.5533 90.8201C68.9678 90.8088 68.3936 90.775 67.8644 90.7412C67.8644 90.6962 67.8644 90.6399 67.8644 90.5948C67.8419 90.0431 67.8306 89.4463 67.8193 88.8607V88.3089V87.8247C67.8193 87.1829 67.8419 86.541 67.8419 85.8879C67.7293 84.5929 67.8531 83.2754 67.8306 81.9467C67.7968 81.2823 67.8756 80.6179 67.9207 79.9423C67.9432 79.6045 67.9545 79.2666 67.9432 78.9288V78.8049V78.7374C67.9432 78.7149 67.9432 78.6923 67.9432 78.6923C67.9432 78.6698 67.9319 78.6586 67.9207 78.636C67.8982 78.6023 67.8756 78.591 67.8306 78.591C67.8306 78.5797 67.8306 78.5685 67.8306 78.5572C67.7856 78.5572 67.7518 78.5572 67.718 78.5572H67.7067H67.6505H67.414H66.9411C66.3105 78.546 65.68 78.5347 65.0382 78.5572C63.6533 78.5122 62.2571 78.4784 60.8496 78.5572C60.1515 78.3996 59.4421 78.377 58.7328 78.3996C58.5526 78.3996 58.3837 78.4108 58.2036 78.4221L57.6406 78.4671C56.9763 78.5009 56.3007 78.5347 55.6251 78.5572C55.6026 77.9041 55.5913 77.2285 55.5801 76.5528V75.9785V75.4493C55.5801 74.7399 55.6026 74.0304 55.6364 73.3323C55.6026 71.9247 55.6251 70.5284 55.6364 69.1433C55.6251 68.9744 55.6139 68.8055 55.6139 68.6366V68.3776V68.0398C55.6139 67.3979 55.6364 66.7673 55.6476 66.148C56.312 66.1592 56.9538 66.1818 57.5843 66.1818H57.9108H58.1698C58.3387 66.1818 58.5189 66.1705 58.6877 66.148C60.0389 66.0129 61.3901 66.2944 62.7187 66.148C64.0474 66.0579 65.3647 66.0129 66.6596 66.1592C66.8398 66.1592 67.0199 66.1592 67.2001 66.1705H67.4703L67.6054 66.193H67.673H67.7067C67.7743 66.2155 67.8869 66.2493 67.9995 66.2606C68.0108 66.193 68.0108 66.1142 67.9995 66.0466C67.9882 66.0579 67.9545 65.675 67.8982 65.416C67.8419 64.1549 67.4928 62.9049 67.9207 61.6775C67.8081 60.4501 68.1234 59.2339 67.9432 58.0516C68.0896 57.5111 68.1008 56.9818 68.0783 56.4413L68.0558 56.0472C68.0558 56.0472 68.0558 55.867 68.0445 55.7544L68.022 55.4166C67.9995 54.9549 67.977 54.482 67.977 54.0203C68.1684 54.0203 68.3598 54.0203 68.54 54.0203C69.0354 54.0315 69.5196 54.0541 70.0037 54.0653C70.2852 54.0766 70.5667 54.0991 70.8482 54.1104C71.4112 54.1216 71.9742 54.1104 72.5259 54.0541C73.6293 53.9077 74.7215 54.1329 75.7799 54.0878C76.3091 53.9977 76.8383 54.0541 77.3563 54.1104C77.6153 54.1329 77.8742 54.1667 78.1332 54.1779H78.2571H78.4147C78.516 54.1779 78.6286 54.1779 78.73 54.1779C78.9439 54.1779 79.1578 54.1554 79.383 54.1329C79.6082 54.1329 79.8222 54.1329 80.0361 54.1441C80.0361 54.5045 80.0361 54.8761 80.0361 55.2364C80.0361 55.5517 80.0361 55.8783 80.0361 56.1936C80.0361 56.6215 80.0361 57.0494 80.0023 57.466C80.4302 58.4344 80.0023 59.3691 79.9573 60.2699C79.901 61.182 80.2388 62.0604 79.9122 62.9162C80.2388 63.772 79.9573 64.594 79.8672 65.3935C79.8447 65.5399 79.8447 65.6863 79.8447 65.8327V65.9453V66.0016V66.0354L79.8559 66.1367C79.8672 66.2719 79.901 66.3732 79.8897 66.5083C79.9685 66.5083 80.0361 66.5308 80.1037 66.5759C80.2275 66.5196 80.2951 66.4971 80.3851 66.4971C80.5653 66.4971 80.7455 66.5196 80.9256 66.5421C81.2747 66.5984 81.6237 66.666 81.9615 66.6209C82.6371 66.7673 83.2789 66.6209 83.8869 66.666C84.4949 66.6097 85.0692 66.6322 85.6096 66.711C86.1501 66.7335 86.6568 66.7448 87.1297 66.7673C89.9559 66.8687 91.4984 66.9813 91.4984 67.1051L91.4196 67.0826Z" fill="#0061EF"/>
</g>
<defs>
<clipPath id="clip0_1032_13984">
<rect width="96" height="82" fill="white" transform="translate(26 14)"/>
</clipPath>
</defs>
</svg>
