<svg width="110" height="90" viewBox="0 0 110 90" fill="none" xmlns="http://www.w3.org/2000/svg">
<circle cx="73" cy="53" r="37" fill="#E2F5FF"/>
<g clip-path="url(#clip0_1032_13939)">
<path d="M48.4156 5.21345C48.4257 5.26426 48.8097 5.24393 49.5373 5.14231C50.2649 5.07117 51.326 4.93906 52.7004 4.95938C52.9328 4.95938 53.1652 4.96954 53.4078 4.97971C53.6503 5.00003 53.903 5.02036 54.1657 5.04068C54.6912 5.10166 55.2369 5.19312 55.8129 5.28458C56.1161 5.2541 56.3991 5.40653 56.682 5.51832C56.8235 5.5793 56.965 5.6606 57.1166 5.70125C57.2682 5.75206 57.4197 5.77239 57.5915 5.77239C57.9048 5.85369 58.2181 5.95532 58.5112 6.11792C58.6627 6.19922 58.8143 6.26019 58.9558 6.36182C59.0973 6.45328 59.2388 6.54475 59.3904 6.63621C59.5318 6.73784 59.6733 6.8293 59.8249 6.92076C59.9765 7.01223 60.118 7.11385 60.2696 7.21548C60.411 7.3171 60.5626 7.42889 60.6839 7.56101C60.7445 7.62198 60.8153 7.69312 60.8759 7.7541L60.9669 7.85572L61.0376 7.97767C61.1083 8.1606 61.2195 8.30288 61.3408 8.44515C61.4519 8.58743 61.6035 8.70938 61.7349 8.84149C61.8562 8.98377 61.9875 9.12605 62.0886 9.29881C62.1694 9.47158 62.2301 9.66467 62.2301 9.87808C62.4423 10.6199 62.604 11.3923 62.5939 12.2155C62.6343 12.4289 62.6545 12.6321 62.6343 12.8456C62.604 13.059 62.5636 13.2724 62.513 13.4756C62.4423 13.6789 62.3614 13.8821 62.2806 14.0956C62.1896 14.2988 62.0886 14.5021 62.0077 14.7053C61.9168 15.6403 61.3307 16.4431 60.6334 17.1037C60.5626 17.3476 60.4717 17.5813 60.3504 17.8049C60.2291 18.0285 60.0775 18.2419 59.9159 18.435C59.5925 18.8313 59.1882 19.1769 58.7234 19.4817C58.0665 20.3049 57.5006 21.2297 56.7022 21.9919C56.005 22.8354 55.2571 23.6687 54.6003 24.6138C53.7008 25.3557 52.9934 26.2704 52.4174 27.3273C51.4776 28.0895 50.8207 29.0956 50.1639 30.1423C49.5272 31.1891 48.4661 31.9309 47.8496 33.0386C47.0816 34.0346 46.2327 34.9797 45.4748 36.0163C44.7573 37.0935 44.0499 38.1911 43.0393 39.0752C42.1702 40.0712 41.2708 41.0671 40.5533 42.2053C39.5023 43.0895 38.7545 44.2378 38.0168 45.3964C37.5721 45.9248 37.178 46.4838 36.7637 47.0427C36.5616 47.3171 36.3494 47.6017 36.1371 47.8659C35.9249 48.1199 35.7026 48.374 35.45 48.5976C35.0255 49.1159 34.5505 49.5834 34.0453 50C33.54 50.4167 33.0347 50.7927 32.5193 51.1484C32.2565 51.3212 31.9938 51.4634 31.7108 51.5854C31.438 51.687 31.155 51.7887 30.862 51.8191C30.579 51.8699 30.2859 51.8598 30.003 51.8191C29.8615 51.7887 29.72 51.7683 29.5886 51.7175C29.5179 51.6972 29.4472 51.6769 29.3865 51.6464L29.1844 51.5549C28.669 51.2907 28.1536 51.0061 27.6281 50.6708C27.1127 50.3354 26.6075 49.9289 26.183 49.4309C25.6373 49.0549 25.2331 48.5265 24.8592 47.9878C24.6773 47.7033 24.4853 47.4289 24.3034 47.1443C24.1114 46.8598 23.9092 46.5956 23.697 46.3313C22.9088 45.2338 21.9689 44.2785 21.2919 43.1403C20.544 42.0529 19.7962 40.9858 18.9372 40.0204C18.4926 38.75 17.3203 38.0285 16.6432 36.9716C15.7539 36.0671 15.1678 34.9594 14.3998 34.0143C13.7328 32.998 12.8031 32.185 12.227 31.1484C11.4893 30.2236 10.9234 29.1972 10.1251 28.374C9.59956 27.3374 8.63952 26.6667 8.09381 25.7013C7.43694 24.8273 6.80029 23.9533 6.13331 23.1403C5.68866 22.8151 5.37538 22.4086 5.08232 21.9716C4.79935 21.5447 4.53661 21.0874 4.27386 20.6911C3.68773 19.9086 3.37445 19.0041 2.78832 18.2826C2.36388 17.4695 1.89902 16.6769 1.76765 15.8029C1.6767 15.376 1.45436 15 1.31289 14.5935C1.27246 14.4919 1.24215 14.3903 1.21183 14.2886C1.19162 14.187 1.1714 14.0854 1.1613 13.9736C1.15119 13.7602 1.1613 13.5569 1.25225 13.3435C1.25225 13.1403 1.22193 12.9472 1.20172 12.7439C1.18151 12.5508 1.14109 12.3476 1.12087 12.1545C1.10066 11.9614 1.10066 11.7683 1.12087 11.5752C1.13098 11.3821 1.20173 11.1992 1.29268 11.0265C1.37352 10.8537 1.45437 10.6809 1.50489 10.5082C1.52511 10.4269 1.54531 10.3354 1.56553 10.2439C1.58574 10.1525 1.60595 10.0712 1.62616 9.98987C1.68679 9.64434 1.75753 9.29881 1.88891 8.98377C2.17187 8.36385 2.55589 7.8354 2.98033 7.38824C3.21276 7.13418 3.48561 6.92076 3.73825 6.71751C3.87973 6.62605 4.0111 6.53458 4.15258 6.44312C4.21322 6.39231 4.28397 6.35166 4.36481 6.32117C4.43555 6.28052 4.50629 6.25003 4.57703 6.20938C4.84988 6.04678 5.14294 5.95532 5.4158 5.83336C5.55728 5.78255 5.69876 5.7419 5.84024 5.70125C5.98172 5.6606 6.11309 5.60979 6.25457 5.58946C7.34599 5.3354 8.32624 5.28458 9.11449 5.30491C9.50861 5.30491 9.86231 5.3354 10.1655 5.34556C10.4687 5.35572 10.7213 5.38621 10.9335 5.40654C11.3479 5.44719 11.5702 5.44719 11.5702 5.40654C11.5702 5.36588 11.3276 5.26426 10.8325 5.13214C10.5798 5.05084 10.2665 5.00003 9.89262 4.92889C9.51871 4.84759 9.07407 4.8171 8.56878 4.76629C7.56832 4.71548 6.2849 4.72564 4.8701 5.21345C4.1627 5.45735 3.41488 5.81304 2.73779 6.37198C2.06071 6.92076 1.44426 7.65247 0.989502 8.52645C0.817707 8.88214 0.605488 9.22767 0.453903 9.61385C0.413479 9.70532 0.373055 9.80694 0.342739 9.90857C0.31242 10.0102 0.29221 10.1118 0.271999 10.2134C0.231575 10.4167 0.201256 10.6301 0.221466 10.8435C0.191151 11.0468 0.140625 11.2602 0.120411 11.4736C0.0900955 11.687 0.0597801 11.9004 0.0294647 12.1139C0.0193596 12.3273 0.00924683 12.5508 0.00924683 12.7744C0.00924683 12.998 0.049675 13.2216 0.100204 13.435C0.0395699 13.6687 0.039566 13.8923 0.0496712 14.126C0.0496712 14.2378 0.0698814 14.3598 0.0799866 14.4716C0.100201 14.5834 0.13052 14.6952 0.160835 14.8069C0.261894 15.2643 0.453899 15.6911 0.585274 16.1484C0.837917 17.063 1.28257 17.9167 1.61606 18.8618C1.6969 19.0956 1.78786 19.3395 1.90913 19.5529C2.0304 19.7765 2.17188 19.9899 2.30325 20.2033C2.44473 20.4167 2.59631 20.6199 2.73779 20.8334C2.87927 21.0468 3.02075 21.2602 3.15212 21.4939C3.52604 21.8801 3.85952 22.2561 4.15258 22.6728C4.45576 23.0895 4.71851 23.5366 4.97115 24.0143C5.73919 24.746 6.21415 25.7419 6.88113 26.6159C7.75022 27.3374 8.27572 28.3435 8.87196 29.3191C9.4783 30.2947 10.2868 31.1382 10.9335 32.124C11.6813 33.0386 12.3079 34.0752 13.0759 35.0204C13.7025 36.0773 14.4099 37.0935 15.279 38.0082C15.9662 39.0651 16.7746 40.0407 17.5527 41.0671C18.2399 42.1647 19.1191 43.1403 19.8872 44.2073C20.635 45.2947 21.7062 46.1586 22.2721 47.4187C22.4641 47.6931 22.6662 47.9675 22.8684 48.2317L23.1715 48.6382L23.4949 49.0549C23.9396 49.6037 24.3943 50.1423 24.8794 50.6911C25.3948 51.1992 25.9506 51.6972 26.567 52.1443C27.1835 52.5813 27.8505 52.998 28.6185 53.2927C28.7196 53.3029 28.8206 53.3232 28.9217 53.3334C29.0227 53.3435 29.1238 53.3537 29.2349 53.3638C29.4371 53.3943 29.6493 53.3943 29.8514 53.4147C30.2657 53.4248 30.67 53.435 31.0742 53.3842C31.4885 53.3537 31.8826 53.2622 32.2768 53.1606C32.6608 53.0488 33.0448 52.9167 33.4086 52.7439C34.1261 52.3882 34.7527 51.9309 35.3186 51.4228C35.8845 50.9147 36.3696 50.3659 36.8344 49.7968C37.077 49.5326 37.3094 49.248 37.5418 48.9634C37.7541 48.6891 37.9764 48.4147 38.1886 48.1403C38.613 47.5915 39.0375 47.0427 39.4518 46.5041C40.3714 45.4777 41.0485 44.2785 41.9782 43.3029C42.908 42.3273 43.5345 41.1179 44.444 40.1626C45.3232 39.1769 46.1721 38.1911 46.8593 37.0834C47.6576 36.0773 48.2337 34.9086 49.2139 34.0854C50.0325 33.1403 51.0633 32.3679 51.4978 31.1586C52.3366 30.2643 52.8419 29.1362 53.711 28.3232C54.2061 27.2155 55.146 26.4736 55.8534 25.5793C56.5203 24.6443 57.1267 23.7094 57.9149 22.9269C58.7032 22.1545 59.1984 21.1687 59.8855 20.376C60.2797 20.0204 60.5626 19.5732 60.8355 19.1362C60.977 18.9228 61.1083 18.6992 61.2599 18.496C61.4115 18.2826 61.5833 18.0793 61.7753 17.8964C62.3513 17.0224 62.9274 16.1382 63.2507 15.1626C63.4326 14.9594 63.5741 14.7358 63.6651 14.4919C63.7459 14.248 63.8066 13.9939 63.8369 13.7399C63.8571 13.4858 63.8571 13.2216 63.8672 12.9675C63.8672 12.7134 63.8369 12.4594 63.847 12.2155C63.8369 11.9716 63.8268 11.7175 63.847 11.4736C63.847 11.2297 63.8268 10.9858 63.8167 10.7419C63.7863 10.498 63.7358 10.2643 63.6651 10.0305C63.5741 9.80694 63.463 9.59353 63.3114 9.40044C63.2912 9.15654 63.2204 8.93296 63.1396 8.70938C63.0385 8.49597 62.9173 8.30288 62.7758 8.11995C62.6343 7.93702 62.4726 7.78458 62.3109 7.62198C62.1492 7.46954 61.9774 7.33743 61.8157 7.19515L61.6945 7.08336L61.5732 6.98174C61.4923 6.9106 61.4216 6.83946 61.3408 6.76832C61.1993 6.61588 61.0376 6.48377 60.886 6.35166C60.7344 6.21954 60.5828 6.08743 60.411 5.9858C60.2392 5.88418 60.0674 5.78255 59.8855 5.73174C59.7441 5.58946 59.5824 5.48784 59.4207 5.39637C59.259 5.30491 59.067 5.2541 58.8952 5.19312C58.5415 5.07117 58.1878 5.03052 57.8745 4.86792C57.7027 4.83743 57.5309 4.8171 57.3692 4.77645C57.2075 4.7358 57.0458 4.68499 56.8943 4.64434C56.581 4.56304 56.2778 4.46141 55.9645 4.43093C55.3582 4.27849 54.7721 4.22767 54.2162 4.26832C53.9434 4.26832 53.6806 4.26832 53.428 4.25816C53.1754 4.26832 52.9227 4.27849 52.6903 4.28865C51.2654 4.36995 50.1942 4.61385 49.4767 4.79678C48.7693 5.00003 48.4055 5.14231 48.4156 5.19312V5.21345Z" fill="#0061EF"/>
<path d="M73.175 54.0042C73.2861 54.0042 73.3973 52.6932 73.4983 50.2846C73.5186 49.8883 73.5287 49.4513 73.5489 48.994C73.5792 48.5367 73.6095 48.0489 73.5994 47.5306C73.559 47.3985 73.559 47.2765 73.5792 47.1342C73.5893 46.992 73.6196 46.8497 73.6398 46.7074C73.6701 46.4127 73.6904 46.1078 73.5186 45.8233C73.3468 45.2338 73.2154 44.6139 72.983 43.9838C72.7505 43.3436 72.2655 42.8355 71.932 42.1952C71.8814 42.0021 71.7703 41.8598 71.6389 41.7277C71.5075 41.5956 71.3559 41.494 71.2044 41.3822C71.0427 41.2806 70.8911 41.1688 70.7597 41.0468C70.6182 40.9249 70.497 40.7724 70.406 40.5895C69.8603 40.0407 69.1832 39.6241 68.4657 39.2582C67.6572 39.0753 67.0004 38.5468 66.202 38.242C65.3127 38.242 64.5245 37.9168 63.6554 37.6017C62.7156 37.8355 61.8566 37.7237 60.8965 37.429C60.4216 37.4391 59.9466 37.5306 59.4716 37.6119C58.9967 37.7033 58.5116 37.7948 58.0164 37.8558C57.7739 37.9066 57.5313 37.9879 57.2888 38.059C57.0463 38.1403 56.8037 38.2115 56.5713 38.3131C56.0963 38.496 55.6315 38.7399 55.1969 39.0448C54.6815 39.2074 54.2066 39.5021 53.7922 39.8477C53.3779 40.2033 53.0242 40.6505 52.7513 41.1383C52.3067 41.4838 51.9429 41.931 51.67 42.4188C51.4073 42.9168 51.1951 43.4554 51.0637 44.0042C50.9929 44.2785 50.9121 44.5529 50.811 44.807C50.7201 45.0712 50.619 45.3355 50.5281 45.6098C50.4472 45.8842 50.3563 46.1586 50.3058 46.433C50.2754 46.5753 50.2552 46.7176 50.2451 46.8598C50.235 47.0021 50.2451 47.1444 50.2451 47.2867C50.2047 47.5712 50.1845 47.8558 50.1643 48.1403C50.134 48.4249 50.1239 48.7094 50.1137 48.994C50.0935 49.5529 50.0834 50.0916 50.1036 50.6505C50.2047 51.7582 50.3159 52.8761 50.0632 54.0042C49.9925 55.1322 49.8914 56.2806 50.0228 57.429C49.7398 58.5773 49.851 59.746 49.9925 60.9249C49.942 62.1038 50.1239 63.2928 49.9622 64.4818C49.9925 65.681 49.8207 66.8903 49.9318 68.0997C50.0026 69.3192 50.0834 70.5184 49.9116 71.7176C49.8207 72.3172 49.8308 72.9066 49.8611 73.5062C49.8813 73.8111 49.8813 74.0753 49.8813 74.3395C49.8813 74.4716 49.8611 74.6038 49.851 74.7359C49.8308 74.868 49.8106 75.0001 49.7803 75.1322C49.8207 75.681 49.659 76.1993 49.4367 76.6769C49.2143 77.1546 48.9213 77.5916 48.6989 78.059C48.416 78.496 48.133 78.9432 47.7995 79.3497C47.4661 79.7562 47.0921 80.1322 46.6475 80.4168C45.8087 81.0468 44.9093 81.5346 44.0301 82.0631C43.4844 82.0936 43.0296 82.2867 42.5648 82.5001C42.11 82.7135 41.6351 82.9371 41.1298 82.9879C40.6548 83.1607 40.1495 83.2115 39.6543 83.2115C39.1592 83.2115 38.6741 83.1607 38.1991 83.1403C37.7242 83.059 37.2492 83.0285 36.7843 82.9574C36.3195 82.8761 35.8647 82.744 35.4807 82.4899C35.0562 82.3273 34.6722 82.0733 34.3286 81.7989C33.9749 81.5346 33.6516 81.2501 33.2979 80.9859C33.0755 80.5997 32.7926 80.2948 32.5096 79.9594C32.2368 79.6241 31.9942 79.2481 31.8932 78.8314C31.5799 78.0285 31.398 77.1952 31.2666 76.3619C31.0645 75.9554 31.0342 75.5285 31.0544 75.0916C31.0746 74.6546 31.1352 74.2176 31.1453 73.7806C31.0948 72.9168 31.2969 72.0733 31.0645 71.2603C31.0241 70.4371 30.8725 69.6444 30.9837 68.872C31.014 68.0997 30.4986 67.3578 30.9028 66.6261C30.9634 65.8944 30.5592 65.2033 30.822 64.5225C31.0645 63.8416 30.7714 63.1912 30.7512 62.5712C30.7209 61.9412 30.7007 61.3416 30.6704 60.7725C30.448 55.62 30.2358 52.6627 30.0741 52.6729C29.9832 52.6729 29.9023 53.5875 29.8518 55.2846C29.7912 56.9818 29.7609 59.4615 29.7406 62.5916C29.7406 63.2216 29.5284 63.872 29.7406 64.5428C29.7508 65.2237 29.5992 65.9249 29.7406 66.6464C29.4678 67.3781 29.7103 68.12 29.7406 68.8924C29.7406 69.6647 29.8518 70.4574 29.7406 71.2806C29.5891 72.1038 29.8518 72.9371 29.7406 73.8009C29.8417 74.2277 29.8821 74.6647 29.872 75.1017C29.872 75.5489 29.8417 76.0265 29.8013 76.5042C29.872 76.7379 29.9226 76.9716 29.963 77.2155C30.0135 77.4493 30.0438 77.6932 30.0943 77.9371C30.1752 78.4249 30.2763 78.9229 30.4683 79.4005C30.7916 79.8273 31.0241 80.2745 31.2868 80.7216C31.5395 81.1688 31.8022 81.6464 32.1357 82.0733C32.4793 82.5001 32.9037 82.8558 33.3585 83.1607C33.8132 83.4655 34.3084 83.7196 34.8036 83.9737C35.319 84.1769 35.8344 84.37 36.3801 84.5225C36.9157 84.6749 37.4715 84.7867 38.0273 84.807C39.1288 85.0407 40.3112 85.0204 41.4127 84.6647C42.5547 84.5428 43.6562 84.1261 44.7173 83.6485C45.8289 83.2521 46.8092 82.5204 47.749 81.7684C48.2341 81.4025 48.6282 80.9147 49.0021 80.4269C49.376 79.9391 49.7398 79.4412 50.1946 78.9838C50.8919 77.9168 51.2759 76.6668 51.5488 75.3964C51.569 75.2338 51.5892 75.0712 51.6094 74.9086L51.6397 74.4208C51.6397 74.0956 51.6498 73.7603 51.6498 73.4757C51.6498 72.8863 51.6599 72.2867 51.7105 71.6871C51.4275 70.4879 51.6195 69.2786 51.7408 68.0692C51.8317 66.8497 51.8014 65.6505 51.761 64.4513C51.8014 63.2521 51.7913 62.0631 51.7812 60.8944C51.8721 59.7155 51.67 58.5468 51.8014 57.3985C51.9328 56.2399 51.6801 55.1017 51.8115 53.9737C51.9025 52.8456 51.9631 51.7277 51.8115 50.62C51.8115 50.0712 51.7509 49.5123 51.7206 48.9838C51.7206 48.7196 51.7003 48.4655 51.7408 48.2115C51.7711 47.9574 51.8216 47.7033 51.9126 47.4594C51.9328 47.3375 51.9631 47.2054 51.9934 47.0834L52.1046 46.7277C52.1753 46.4838 52.2663 46.2603 52.337 46.0265C52.4179 45.7928 52.4886 45.5692 52.529 45.3253C52.5795 45.0916 52.5998 44.8477 52.5998 44.5834C52.812 44.1566 52.9838 43.7094 53.1758 43.2826C53.3779 42.8558 53.6204 42.4493 53.9842 42.1444C54.1661 41.6972 54.4895 41.3517 54.8533 41.0773C55.2272 40.8029 55.6214 40.5895 56.0054 40.3558C56.3692 40.1017 56.7431 39.8578 57.1473 39.6647C57.3494 39.5631 57.5617 39.492 57.7638 39.4208C57.976 39.3598 58.1882 39.2989 58.4105 39.2785C58.8451 39.2277 59.2594 39.1261 59.6838 39.0245C60.0982 38.933 60.5226 38.8416 60.9471 38.8517C61.1593 38.8822 61.3715 38.8924 61.5837 38.8822C61.7959 38.8822 61.9981 38.8517 62.2103 38.8416C62.6246 38.8111 63.049 38.8009 63.4432 38.9533C64.2617 39.0245 65.0197 39.2887 65.7675 39.4716C66.0707 39.7867 66.4142 39.9188 66.7781 40.0103C67.1419 40.1119 67.5259 40.1729 67.8493 40.3253C68.0211 40.3964 68.1726 40.4981 68.3141 40.6098C68.4556 40.7115 68.5971 40.8334 68.7285 40.9452C69.0013 41.1688 69.2742 41.372 69.6279 41.4737C69.7188 41.6363 69.8098 41.7785 69.9209 41.9005C70.0321 42.0224 70.1534 42.1342 70.2847 42.2359C70.406 42.3375 70.5475 42.4391 70.6789 42.5306C70.8001 42.6322 70.9416 42.7338 71.0528 42.8456C71.2852 43.0692 71.4368 43.3436 71.5783 43.6078C71.649 43.7399 71.7197 43.872 71.7905 44.0042C71.8612 44.1363 71.9522 44.2481 72.0431 44.37C72.0532 44.5224 72.0937 44.6647 72.1442 44.7968C72.1947 44.929 72.2655 45.0509 72.3261 45.1729C72.3867 45.2948 72.4575 45.4269 72.508 45.5489C72.5585 45.681 72.5989 45.8029 72.5989 45.9452C72.7202 46.1993 72.7505 46.4635 72.7606 46.7176C72.7606 46.8497 72.7606 46.9716 72.7606 47.1037C72.7606 47.2257 72.7606 47.368 72.7606 47.4899C72.7101 48.0082 72.7303 48.496 72.8112 48.9533C72.8314 49.4107 72.8415 49.8477 72.8617 50.244C72.9627 52.6525 73.0638 53.9635 73.1851 53.9635L73.175 54.0042Z" fill="#0061EF"/>
<path d="M73.1965 59.939C73.1965 60 73.3178 60.061 73.5502 60.1219C73.6614 60.1626 73.8029 60.1829 73.9646 60.2337C74.1262 60.2845 74.3182 60.3353 74.5204 60.3963C74.6618 60.437 74.8033 60.4979 74.9549 60.5589C75.0256 60.5894 75.1065 60.6301 75.1873 60.6605C75.2682 60.7012 75.349 60.7317 75.44 60.7622C75.6623 60.691 75.6926 61.1382 75.9554 61.0264C76.0564 61.0366 76.1575 61.0874 76.2383 61.1382C76.2788 61.1687 76.3293 61.1992 76.3697 61.2297C76.4101 61.2703 76.4506 61.311 76.491 61.3516C76.6426 61.5142 76.9356 61.4939 77.0367 61.7581C77.0367 61.9512 77.1883 61.9512 77.3297 61.9715C77.4712 61.9918 77.6026 62.0427 77.5723 62.2561C77.6329 62.3679 77.7239 62.4593 77.8148 62.561C77.8957 62.6524 77.9967 62.7439 78.0877 62.8353C78.2696 62.8557 78.3504 62.9675 78.401 63.0996C78.4616 63.2317 78.4919 63.374 78.5525 63.5061C78.9163 63.5975 78.9972 63.9227 78.9467 64.2683C79.169 64.3191 79.3206 64.4309 79.361 64.5833C79.4014 64.7357 79.361 64.9187 79.2599 65.1118C79.3105 65.254 79.361 65.3963 79.4216 65.5488C79.4519 65.6199 79.4722 65.7012 79.4823 65.7825C79.4823 65.8638 79.4823 65.9451 79.4519 66.0264C79.4519 66.189 79.4722 66.3414 79.4722 66.504C79.4722 66.6666 79.4722 66.8292 79.5126 66.9918C79.4014 67.1544 79.3206 67.3171 79.3105 67.4797C79.3105 67.561 79.3105 67.6423 79.3408 67.7337C79.3509 67.815 79.3812 67.9065 79.4216 67.9979C79.1286 68.2927 79.1387 68.6179 79.1791 68.9939C79.1791 69.1768 79.0679 69.3292 78.9669 69.4715C78.8557 69.6138 78.7344 69.7459 78.7547 69.9593C78.7344 70 78.7142 70.0406 78.7041 70.0813C78.6839 70.1219 78.6536 70.1524 78.6334 70.1931L78.4818 70.4166C78.3908 70.5691 78.2696 70.7012 78.1786 70.8638C78.1483 70.9553 78.118 71.0467 78.0776 71.1382C78.0371 71.2195 77.9866 71.3008 77.926 71.3719C77.8654 71.4431 77.8047 71.5142 77.7239 71.565C77.643 71.6158 77.542 71.6565 77.4308 71.6666C77.2691 71.7683 77.1175 71.8699 76.9558 71.9614C76.7941 72.063 76.6628 72.1951 76.5415 72.3475C76.0766 72.3171 75.824 72.5813 75.5208 72.8658C75.3288 72.9065 75.1671 73.0284 74.9852 73.0996C74.8033 73.1707 74.6113 73.2418 74.4092 73.2012C74.2172 73.252 74.0151 73.252 73.8231 73.252C73.621 73.2418 73.4289 73.2418 73.2268 73.313C73.0247 73.3435 72.8226 73.374 72.6205 73.374C72.4184 73.3638 72.2264 73.3028 72.0445 73.2012C71.8727 73.0792 71.6807 73.0386 71.4887 73.0284C71.3876 73.0284 71.2966 73.0081 71.1956 72.9776C71.1046 72.9573 71.0137 72.9268 70.9227 72.876C70.8015 72.9065 70.7105 72.8862 70.6196 72.8557C70.5286 72.815 70.4478 72.7642 70.3669 72.7032L70.2558 72.6118C70.2558 72.6118 70.185 72.5406 70.1446 72.5101C70.0739 72.4492 69.993 72.3983 69.9021 72.3679C69.7404 72.2662 69.5787 72.1748 69.4069 72.0833C69.2351 71.9918 69.0936 71.8699 69.0027 71.687C68.942 71.6158 68.8814 71.5447 68.8207 71.4736C68.7702 71.3923 68.7096 71.3211 68.649 71.2601C68.5883 71.189 68.5277 71.128 68.4569 71.067C68.3963 71.0061 68.3256 70.9349 68.2447 70.8841C68.2953 70.6199 68.1639 70.4979 68.0325 70.376C67.9618 70.315 67.8809 70.2642 67.8102 70.2032C67.7698 70.1727 67.7394 70.1423 67.7192 70.1016C67.699 70.061 67.6788 70.0203 67.6687 69.9797C67.5171 69.8577 67.4363 69.6951 67.3958 69.5223C67.3554 69.3496 67.3352 69.1666 67.2544 69.0142C67.2443 68.8313 67.1634 68.6788 67.0826 68.5264C66.9916 68.374 66.9613 68.2012 67.0118 68.0183C66.9916 67.937 66.9815 67.8557 66.9714 67.7642C66.9714 67.6829 66.9815 67.5914 66.9916 67.5101C67.0017 67.3374 66.9916 67.1849 66.9209 67.0122C67.032 66.8496 66.9916 66.687 66.9512 66.5244C66.9108 66.3618 66.8906 66.189 66.9815 66.0467C66.9916 65.9654 67.0017 65.8943 67.0219 65.813C67.0421 65.7418 67.0624 65.6605 67.0826 65.5894C67.123 65.437 67.1432 65.2845 67.1735 65.1321C67.0826 64.939 67.123 64.7866 67.1937 64.6544C67.2645 64.5223 67.4059 64.4207 67.4767 64.2886C67.5676 63.9939 67.9112 63.8821 67.8708 63.5264C67.9314 63.4044 67.9921 63.2723 68.0527 63.1402C68.1133 63.0183 68.1942 62.9065 68.3357 62.8455C68.4468 62.7642 68.4468 62.5914 68.4873 62.439C68.5277 62.2866 68.6186 62.1951 68.8511 62.2561C68.9723 62.2053 69.0027 62.0528 69.0633 61.9309C69.1239 61.8191 69.2149 61.7175 69.3867 61.7581C69.71 61.8191 69.7505 61.4837 69.9324 61.3516C70.1042 61.2195 70.2962 61.128 70.468 61.0162C71.2663 60.5792 71.9737 60.376 72.4588 60.2337C72.954 60.1219 73.2268 60.0305 73.2268 59.939C73.2268 59.8882 73.1359 59.8475 72.9742 59.817C72.8933 59.7967 72.7822 59.7866 72.6609 59.7662C72.6003 59.7662 72.5295 59.7459 72.4588 59.7459C72.3881 59.7459 72.3072 59.7459 72.2264 59.7459C71.5695 59.7459 70.5589 59.878 69.4372 60.4573C69.225 60.5792 68.8612 60.5183 68.75 60.8536C68.6388 60.9349 68.5075 60.9857 68.3761 61.0569C68.2447 61.128 68.1336 61.2195 68.0628 61.3719C67.8607 61.3719 67.7192 61.4532 67.6384 61.5853C67.5474 61.7175 67.4969 61.8801 67.3958 62.002C67.2746 62.1138 67.2038 62.2561 67.1129 62.3882C67.0219 62.5203 66.9108 62.6524 66.7794 62.754C66.4661 62.9573 66.4863 63.374 66.2438 63.6484C66.2438 63.8516 66.1933 64.0142 66.1225 64.187C66.0518 64.3496 65.9406 64.502 65.7991 64.6544C65.8194 64.8577 65.7789 65.0406 65.6981 65.2134C65.6577 65.3049 65.6172 65.3963 65.5768 65.4776C65.5465 65.5691 65.5162 65.6605 65.5061 65.7622C65.6172 65.9756 65.597 66.1687 65.5566 66.3618C65.5162 66.5549 65.4353 66.7479 65.3747 66.9512C65.3141 67.1544 65.3444 67.3679 65.3747 67.5711C65.3848 67.6727 65.3949 67.7845 65.4151 67.8862C65.4353 67.9878 65.4454 68.0996 65.4454 68.2012C65.5465 68.6179 65.5465 69.0549 65.7082 69.4715C65.7183 69.6951 65.7587 69.9288 65.8295 70.1422C65.9103 70.3557 66.0417 70.5488 66.2034 70.7215C66.2236 70.7723 66.2337 70.8333 66.2539 70.8841C66.2741 70.9349 66.3044 70.9857 66.3347 71.0366C66.3853 71.1382 66.4459 71.2398 66.5166 71.3313C66.6379 71.5345 66.7895 71.7073 66.931 71.8902C66.9815 72.002 67.0421 72.1036 67.1129 72.1951C67.1836 72.2866 67.2746 72.3679 67.3554 72.4492L67.6081 72.7032C67.699 72.7845 67.79 72.8557 67.8708 72.9471C68.0325 73.1301 68.2548 73.2418 68.467 73.3435C68.6894 73.4553 68.8713 73.5975 69.0027 73.8414C69.3968 74.1463 69.8818 74.2886 70.3164 74.5223L70.6802 74.624C70.8015 74.6646 70.9126 74.7053 71.044 74.7256C71.2865 74.7866 71.5291 74.8679 71.7716 74.9492C72.0445 74.8374 72.2971 74.8577 72.5396 74.9085C72.7923 74.9492 73.0348 75.0305 73.2976 75.1016C73.5502 75.1321 73.813 75.1321 74.0656 75.1016C74.3182 75.0711 74.5709 75 74.8134 74.939C75.0661 74.9085 75.3086 74.8374 75.5511 74.7764C75.7937 74.7053 76.0261 74.6036 76.2585 74.5122C76.3798 74.4918 76.5011 74.441 76.6122 74.3801C76.7234 74.3191 76.8245 74.2581 76.9356 74.187L77.0973 74.0853C77.1478 74.0447 77.1984 74.0142 77.2489 73.9837C77.35 73.9227 77.4611 73.8618 77.5824 73.8211C77.8249 73.75 77.9967 73.567 78.1786 73.3943C78.3605 73.2317 78.5121 73.0386 78.7243 72.9268C78.8254 72.8557 78.9265 72.7947 79.0275 72.7235C79.1185 72.6422 79.2094 72.5609 79.2903 72.4695C79.3711 72.378 79.4519 72.2866 79.5126 72.1951C79.5732 72.0935 79.6237 71.9817 79.6642 71.8699C79.8056 71.6768 79.8966 71.4634 79.9774 71.2398C80.0179 71.1382 80.0684 71.0264 80.1391 70.9451C80.1695 70.8943 80.2099 70.8536 80.2503 70.813C80.2907 70.7723 80.3311 70.7317 80.3918 70.691C80.513 70.4979 80.7051 70.3353 80.8263 70.1422C80.9375 69.939 81.0082 69.7154 80.887 69.441C80.9981 69.2479 80.9981 69.0142 81.0183 68.8008C81.0183 68.75 81.0183 68.689 81.0284 68.6382C81.0284 68.5874 81.0284 68.5264 81.0385 68.4756C81.0486 68.374 81.079 68.2622 81.1396 68.1707C81.079 68.0589 81.0588 67.9471 81.0588 67.8455C81.0588 67.7439 81.0588 67.6423 81.0891 67.5406C81.1295 67.3374 81.2204 67.1341 81.2002 66.9309C81.1598 66.7276 81.1093 66.5244 81.0891 66.3313C81.0588 66.1382 81.0284 65.9451 81.0689 65.7317C81.0891 65.6301 81.0891 65.5284 81.0689 65.437C81.0486 65.3455 81.0082 65.254 80.9678 65.1626C80.887 64.9797 80.8061 64.8069 80.7657 64.624C80.7859 64.4207 80.6646 64.2581 80.5535 64.1057C80.4423 63.9532 80.3109 63.8211 80.321 63.6179C80.1492 63.313 80.0078 62.9878 79.7753 62.7236C79.8461 62.4695 79.7349 62.3374 79.5934 62.2357C79.4519 62.1341 79.27 62.0731 79.1488 61.9715C79.0174 61.8699 78.9669 61.7175 78.886 61.5752C78.8052 61.4329 78.694 61.3313 78.4818 61.3414C78.4818 61.128 78.3706 61.0162 78.2292 60.9553C78.0877 60.8943 77.926 60.8841 77.7946 60.8333C77.5319 60.7317 77.4106 60.4268 77.1074 60.437C77.0771 60.3557 77.0367 60.3049 76.9862 60.2744C76.9356 60.2439 76.8649 60.2337 76.8043 60.2337C76.6729 60.2236 76.5415 60.2337 76.4506 60.1423C76.1878 60.1626 76.0362 59.9797 75.824 59.939C75.733 59.878 75.6421 59.8374 75.5511 59.817C75.4602 59.7967 75.3591 59.7967 75.2581 59.817C75.0762 59.7866 74.9145 59.7561 74.7528 59.7459C74.5103 59.7357 74.3081 59.7256 74.1262 59.7256C73.9443 59.7256 73.7928 59.7561 73.6715 59.7764C73.4289 59.817 73.3077 59.8679 73.3077 59.9288L73.1965 59.939Z" fill="#0061EF"/>
<path d="M73.196 53.9938C73.196 54.1259 74.1055 54.1564 75.6719 54.5629C75.8032 54.5934 75.9346 54.6442 76.0761 54.6747C76.2176 54.7154 76.359 54.756 76.5005 54.8068C76.642 54.8678 76.7936 54.9186 76.9452 54.9796C77.0968 55.0406 77.2584 55.1015 77.4201 55.1524C77.6121 55.132 77.7536 55.2743 77.8951 55.3963C78.0467 55.5182 78.1882 55.6402 78.4105 55.6097C78.6025 55.6503 78.7743 55.7418 78.9461 55.8434C79.1179 55.945 79.2897 56.067 79.4514 56.1991C79.6232 56.321 79.8051 56.4125 79.9971 56.5243C80.1891 56.6259 80.371 56.758 80.5125 56.941C80.6135 57.1849 80.8258 57.2662 81.0582 57.3475C81.2805 57.4389 81.5028 57.5507 81.5635 57.8454C81.8565 58.2316 82.2203 58.5568 82.5639 58.9328C83.0692 59.1767 83.2208 59.7458 83.4836 60.2032C83.999 60.508 84.191 61.067 84.2718 61.6463C84.8377 61.9918 85.0297 62.5914 84.8883 63.2621C85.0499 63.8211 85.343 64.38 85.2824 65.0202C85.3531 65.63 85.3531 66.2499 85.4239 66.8902C85.1813 67.5304 85.1712 68.1402 85.2723 68.8211C84.9186 69.4308 84.8781 70.071 84.8074 70.7621C84.7872 70.9349 84.7367 71.0975 84.676 71.2601C84.6053 71.4125 84.5143 71.565 84.4335 71.7174C84.2516 72.0121 84.0798 72.3068 84.0091 72.6625C83.7059 73.2926 83.2713 73.8515 82.8772 74.441C82.5437 75.0711 82.1294 75.7113 81.422 76.0365C80.846 76.4837 80.2194 76.8495 79.6737 77.3678C78.9057 77.5304 78.3297 77.9674 77.6829 78.3841C76.9755 78.6178 76.2883 79.0345 75.5001 79.0243C74.7522 79.2174 73.964 79.1259 73.196 79.2479C72.4178 79.3292 71.6195 79.3393 70.8919 79.0243C70.5382 78.8617 70.1642 78.7906 69.7903 78.7194C69.5983 78.6889 69.4164 78.6381 69.2345 78.5873C69.0526 78.5365 68.8707 78.4755 68.709 78.3841C68.5069 78.3841 68.325 78.3231 68.1532 78.2519C68.0623 78.2113 67.9814 78.1706 67.9006 78.13C67.8197 78.0792 67.7389 78.0284 67.658 77.9776L67.4256 77.815L67.1932 77.6524C67.0416 77.5507 66.8799 77.4491 66.7182 77.3678C66.1119 76.9511 65.4146 76.6361 64.9699 76.0365C64.4646 75.508 64.0301 74.9491 63.5147 74.441C63.4642 74.0345 63.2418 73.7702 63.0094 73.506C62.8881 73.3841 62.7669 73.2519 62.6557 73.1097C62.5951 73.0385 62.5445 72.9674 62.494 72.8963C62.4536 72.815 62.4132 72.7438 62.3828 72.6625C61.918 72.1137 61.827 71.3922 61.5845 70.7723C61.5239 70.4369 61.3824 70.132 61.2813 69.8068C61.2207 69.6442 61.1702 69.4918 61.15 69.319C61.1196 69.1564 61.0994 68.9938 61.1196 68.8211C60.9883 68.1706 61.1196 67.5202 60.9681 66.8902C61.0287 66.7276 61.0388 66.5751 61.0388 66.4227C61.0388 66.2702 61.0388 66.1076 61.0186 65.9552C60.9984 65.7926 60.9984 65.6402 61.0085 65.4877C61.0085 65.3353 61.0388 65.1828 61.0994 65.0304C61.1904 64.4206 61.3622 63.8414 61.4935 63.2723C61.4632 63.1097 61.4733 62.9572 61.4935 62.8048C61.5239 62.6625 61.5845 62.5202 61.6552 62.3983C61.7159 62.2662 61.7967 62.1442 61.8776 62.0223C61.9584 61.9003 62.0292 61.7784 62.0999 61.6564C62.3222 61.128 62.777 60.7723 62.8881 60.2032C63.161 59.7458 63.3732 59.2377 63.8078 58.9328C63.9897 58.7499 64.0806 58.4958 64.2019 58.2621C64.3231 58.0284 64.4949 57.8454 64.8082 57.8353C65.0103 57.7032 65.1316 57.4898 65.2832 57.2967C65.4348 57.1137 65.5965 56.941 65.8592 56.9206C66.122 56.9003 66.2837 56.758 66.4453 56.6158C66.5969 56.4633 66.7384 56.2804 66.9203 56.1788C67.0921 56.067 67.2639 55.9654 67.4458 55.8637C67.6176 55.7621 67.7894 55.6706 67.9612 55.5893C68.7292 55.2032 69.4467 54.9288 70.0834 54.7255C70.7302 54.5223 71.286 54.4003 71.7508 54.3089C72.2157 54.2276 72.5694 54.1564 72.8119 54.1158C73.0545 54.065 73.1858 54.0243 73.1858 53.9837C73.1858 53.9024 72.5492 53.7702 71.3567 53.8414C70.7605 53.882 70.0228 53.9735 69.184 54.1971C68.3452 54.4206 67.4054 54.7662 66.415 55.2946C66.2129 55.3963 65.9906 55.4674 65.7784 55.569C65.556 55.6605 65.364 55.8028 65.2226 56.0263C65.0204 56.1585 64.8082 56.2906 64.5859 56.4227C64.3737 56.565 64.1716 56.7276 64.02 56.9511C63.4338 57.1036 63.2115 57.6625 62.8679 58.0893C62.4839 58.506 62.2212 59.0243 61.7967 59.441C61.5643 59.6442 61.4127 59.9084 61.2914 60.193C61.1601 60.4674 61.0489 60.7621 60.8569 61.0162C60.7457 61.6666 60.4628 62.2154 60.1091 62.7946C60.0787 63.4755 59.7048 64.065 59.6038 64.756C59.7655 65.4776 59.5027 66.128 59.3916 66.8495C59.2905 67.571 59.4623 68.2926 59.5027 69.0345C59.6644 69.756 59.7048 70.5284 59.9777 71.2499C60.0889 72.0223 60.3516 72.7845 60.8468 73.4247C61.1297 74.1767 61.6249 74.8271 62.11 75.4776C62.5142 76.1991 63.161 76.7377 63.7471 77.317C64.0402 77.6219 64.404 77.8353 64.7577 78.0589C64.9295 78.1706 65.1114 78.2824 65.2731 78.4146C65.4348 78.5467 65.5965 78.6889 65.7379 78.8719C66.4352 79.3597 67.2437 79.6849 68.0218 80.0507C68.8404 80.3353 69.6893 80.5487 70.5382 80.7926C71.4477 80.6706 72.2864 80.9349 73.1858 81.0467C74.0853 81.128 74.9746 80.9958 75.8335 80.7926C76.7026 80.6503 77.5515 80.3861 78.3499 80.0507C79.1886 79.8068 79.8657 79.2174 80.6338 78.8617C80.8258 78.7702 81.0178 78.6686 81.1795 78.5365C81.3513 78.4044 81.5129 78.2723 81.6645 78.13C81.9778 77.8454 82.2709 77.5507 82.6145 77.317C83.2814 76.819 83.8878 76.2194 84.2516 75.4776C84.4941 75.1523 84.676 74.7865 84.8478 74.4206C84.9388 74.2479 85.0297 74.065 85.1409 73.9024C85.1914 73.8211 85.2521 73.7398 85.3127 73.6585C85.3733 73.5772 85.434 73.4958 85.5047 73.4247C85.7169 73.0893 85.9595 72.7641 86.1515 72.4186C86.2424 72.2458 86.3233 72.0629 86.3637 71.8698C86.4041 71.6767 86.4142 71.4735 86.3738 71.2601C86.5355 70.9044 86.5961 70.5284 86.6365 70.1422C86.6466 70.0507 86.6568 69.9491 86.677 69.8576C86.677 69.7662 86.6972 69.6747 86.7174 69.5832C86.7477 69.4003 86.7982 69.2174 86.8589 69.0345C86.8083 68.8414 86.7881 68.6483 86.7982 68.4654C86.7982 68.2824 86.8184 68.0995 86.8488 67.9166C86.8791 67.7337 86.9094 67.5609 86.9296 67.378C86.9599 67.195 86.9801 67.0223 86.97 66.8393C86.9094 66.1178 86.7376 65.4369 86.7578 64.7458C86.7881 64.0345 86.4041 63.4247 86.2525 62.7845C86.2424 62.6117 86.1919 62.4593 86.1313 62.3068C86.0605 62.1544 85.9797 62.0121 85.8988 61.88C85.818 61.7377 85.727 61.6056 85.6563 61.4633C85.5855 61.3211 85.535 61.1686 85.5047 61.0162C85.1914 60.4674 84.9489 59.9085 84.5649 59.441C84.5649 59.0853 84.3931 58.8312 84.1707 58.6381C83.9484 58.445 83.6857 58.2824 83.4937 58.0893C83.0995 57.7032 82.9277 57.0832 82.3416 56.9511C82.2406 56.6666 82.0587 56.4837 81.8363 56.3515C81.614 56.2296 81.3715 56.128 81.1491 56.0263C80.9268 55.9247 80.755 55.7519 80.563 55.6097C80.3811 55.4674 80.1891 55.3251 79.9466 55.2946C79.8051 55.0914 79.5929 54.9999 79.3806 54.9491C79.1684 54.8881 78.9562 54.8576 78.7844 54.7357C78.36 54.695 78.0467 54.4308 77.693 54.3393C77.5212 54.258 77.3595 54.1971 77.1877 54.1463C77.0159 54.1056 76.8441 54.0853 76.6824 54.0751C76.5207 54.0345 76.3691 54.0141 76.2176 53.9837C76.066 53.9633 75.9245 53.9328 75.783 53.9125C74.0954 53.6889 73.1757 53.882 73.1757 53.9735L73.196 53.9938Z" fill="#0061EF"/>
<path d="M46.4062 36.1891C46.4062 36.0773 46.0627 35.9655 45.426 35.8639C45.3148 35.8537 45.2037 35.8334 45.0824 35.8131C44.9611 35.7826 44.8298 35.7521 44.6984 35.7623C44.5569 35.9147 44.4154 35.4879 44.2638 35.7114C44.1123 35.7826 43.9506 35.7114 43.7889 35.6606C43.6272 35.6098 43.4453 35.7521 43.2735 35.62C43.0916 35.3253 42.9097 35.9452 42.7177 35.5793C42.5257 35.498 42.3235 35.5184 42.1214 35.5387C41.9193 35.7623 41.7071 35.5387 41.4848 35.498C41.2725 35.7623 41.0401 35.6505 40.8178 35.4675C40.5854 35.8334 40.3529 35.7724 40.1205 35.4371C39.878 35.4269 39.6354 35.5692 39.3828 35.4066C39.1301 35.3862 38.8775 35.3151 38.6249 35.3761C38.3621 35.1322 38.0994 35.1423 37.8366 35.3456C37.5638 35.0814 37.2909 35.183 37.0181 35.3253C36.7452 35.4675 36.4622 35.0915 36.1793 35.3049C35.8963 35.3253 35.6032 35.244 35.3102 35.2846C35.0171 35.3964 34.7241 35.5082 34.4209 35.2643C34.1177 35.2033 33.8145 35.1119 33.5114 35.2541C33.2082 34.9696 32.8949 35.1017 32.5816 35.2541C32.2684 35.2033 31.9551 35.4066 31.6418 35.2541C31.3285 35.2948 31.0052 35.1322 30.6818 35.2541C30.3584 35.3354 30.0451 35.4167 29.7217 35.2541C29.4085 35.0712 29.0952 35.3253 28.7819 35.2541C28.4686 35.5184 28.1655 35.1728 27.8522 35.2541C27.549 35.2236 27.2458 35.4066 26.9427 35.2541C26.6395 35.2033 26.3464 35.1525 26.0534 35.2643C25.7603 34.8578 25.4672 35.3659 25.1843 35.2846C24.9013 35.4574 24.6184 35.2541 24.3455 35.3049C24.0726 35.2338 23.7998 35.4879 23.5269 35.3253C23.2541 35.3558 22.9913 35.1932 22.7387 35.3456C22.4759 35.1423 22.2233 35.5184 21.9808 35.3761C21.7281 35.3761 21.4856 35.3659 21.243 35.4066C21.0005 35.7216 20.7681 35.4574 20.5457 35.4371C20.3133 35.4675 20.091 35.2541 19.8788 35.4675C19.6666 35.498 19.4543 35.6301 19.2421 35.5082C19.04 35.4574 18.8379 35.9655 18.6459 35.5488C18.4539 35.4777 18.2619 35.8741 18.0901 35.5895C17.9082 35.3354 17.7364 35.62 17.5747 35.6301C17.413 35.6505 17.2513 35.6606 17.0997 35.6708C15.7354 35.8029 14.9472 35.9655 14.9472 36.1281C14.9472 36.311 15.9173 36.494 17.5747 36.6362C17.7364 36.6464 17.9183 36.87 18.0901 36.6769C18.272 36.6769 18.4539 36.8497 18.6459 36.7175C18.8379 37.0123 19.04 36.7684 19.2421 36.7582C19.4442 36.7684 19.6565 36.6769 19.8788 36.7988C20.091 36.9716 20.3234 36.7175 20.5457 36.8395C20.7782 36.6566 21.0106 36.7074 21.243 36.87C21.4856 36.6972 21.7281 36.9106 21.9707 36.9005C22.2233 36.6261 22.4759 36.8192 22.7286 36.931C22.9913 37.0326 23.2541 36.8903 23.5168 36.9614C23.7897 36.9106 24.0625 37.0326 24.3354 36.9818C24.6082 37.1139 24.8912 37.1545 25.1742 37.0021C25.4571 37.0936 25.7502 37.0224 26.0433 37.0224C26.3363 37.1342 26.6294 37.0123 26.9326 37.0326C27.2357 37.0936 27.5389 36.748 27.8421 37.0428C28.1452 37.0834 28.4585 36.9919 28.7718 37.0428C29.0851 37.0021 29.3983 36.9614 29.7116 37.0428C30.0249 36.748 30.3483 36.931 30.6717 37.0428C30.995 37.1241 31.3083 37.0834 31.6317 37.0428C31.945 37.0732 32.2684 37.0631 32.5715 37.0428C32.8848 37.1342 33.188 36.9208 33.5013 37.0428C33.8044 37.1647 34.1076 36.9106 34.4108 37.0428C34.7139 37.1241 35.007 37.1749 35.3001 37.0326C35.5931 37.0326 35.8862 36.7684 36.1692 37.0123C36.4521 37.0732 36.7351 37.3984 37.0079 36.9919C37.2808 37.0936 37.5537 36.7988 37.8265 36.9716C38.0994 36.6769 38.3621 36.9614 38.6147 36.9513C38.8775 36.8903 39.1301 36.7887 39.3727 36.9208C39.6253 37.0631 39.8679 36.8395 40.1104 36.8903C40.3529 37.0631 40.5854 36.6667 40.8077 36.8598C41.0401 36.8192 41.2624 36.8903 41.4747 36.8293C41.6869 37.2358 41.8991 36.8293 42.1113 36.7887C42.3134 36.7277 42.5156 37.0529 42.7076 36.748C42.8996 37.0529 43.0815 36.7887 43.2634 36.7074C43.4453 36.6159 43.6171 36.8395 43.7788 36.6667C43.9405 36.8802 44.1021 36.5448 44.2537 36.6261C44.4053 36.4838 44.5468 36.6261 44.6883 36.5854C44.8298 36.6362 44.951 36.6159 45.0723 36.5346C45.1936 36.5143 45.3047 36.5041 45.4159 36.4838C46.0525 36.3822 46.4062 36.2806 46.4062 36.1688V36.1891Z" fill="#0061EF"/>
<path d="M43.4241 0.213405C43.4241 0.162592 43.3332 0.101616 43.1614 0.0609661C43.0704 0.0406409 42.9694 0.0101531 42.838 -9.52836e-06C42.7066 -9.52836e-06 42.555 -0.0101721 42.3832 -9.52836e-06C42.2721 -9.52836e-06 42.1508 0.0203157 42.0194 0.0406409C41.9487 0.0406409 41.8881 0.0406409 41.8173 0.0508035C41.7466 0.0609661 41.6758 0.0812913 41.6152 0.121942C41.5343 0.315031 41.2211 -0.0304973 41.1604 0.254056C41.0392 0.386169 40.8573 0.396332 40.6754 0.457308C40.4935 0.508121 40.4025 0.721535 40.1802 0.731698C40.0185 0.670722 39.9781 0.802836 39.9376 0.914625C39.8972 1.03658 39.877 1.14836 39.6749 1.08739C39.4627 1.16869 39.3212 1.35162 39.1797 1.53454C39.1797 1.68698 39.1191 1.77845 39.018 1.85975C38.9271 1.93088 38.7957 1.99186 38.7149 2.08332C38.8159 2.43901 38.5835 2.57113 38.3106 2.72357C38.5228 3.10975 38.3915 3.30284 37.9771 3.45528C37.9266 3.58739 37.9266 3.72967 37.9064 3.86178C37.8963 3.93292 37.8761 3.99389 37.8559 4.06503C37.8357 4.13617 37.8053 4.19714 37.7548 4.26828C37.7245 4.41056 37.674 4.55284 37.6538 4.69511C37.6335 4.83739 37.6234 4.98983 37.6538 5.14227C37.5224 5.29471 37.482 5.44714 37.482 5.60975C37.482 5.69105 37.5022 5.76219 37.5325 5.84349C37.5729 5.91462 37.6234 5.99593 37.6841 6.0569C37.4618 6.41259 37.6538 6.72763 37.866 6.99186C37.9872 7.12397 37.9872 7.28658 37.9974 7.45934C38.0176 7.6321 38.058 7.80487 38.2197 7.90649C38.2904 8.05893 38.3814 8.20121 38.4521 8.35365C38.5228 8.50609 38.6239 8.64836 38.7452 8.77032C38.8159 8.82113 38.8867 8.87194 38.9574 8.92275C39.0281 8.97357 39.0989 9.02438 39.1595 9.08536C39.2201 9.14633 39.2707 9.20731 39.3212 9.28861C39.3616 9.35975 39.402 9.45121 39.4223 9.55284C39.5334 9.69511 39.6345 9.84755 39.776 9.95934C39.9174 10.0711 40.0589 10.1829 40.261 10.2134C40.4227 10.6504 40.8371 10.7215 41.2211 10.7215C41.3828 10.8028 41.5748 10.8435 41.7567 10.8638C41.9386 10.8841 42.1205 10.9248 42.2822 11.0366C42.4742 11.0366 42.646 11.1077 42.838 11.1484C43.0199 11.1789 43.2119 11.1992 43.4039 11.1484C43.5959 11.0976 43.7778 11.0467 43.9597 11.0264C44.1416 10.9959 44.3235 10.9858 44.5256 11.0264C44.7278 11.0772 44.9097 11.0061 45.0815 10.9349C45.2532 10.8536 45.4048 10.7419 45.5867 10.7114C45.708 10.5284 45.8697 10.4573 46.0516 10.4268C46.2335 10.3963 46.4154 10.3354 46.5468 10.2134C46.7085 10.1321 46.8297 9.98983 46.951 9.86788C47.0824 9.74592 47.2037 9.62397 47.3754 9.55284C47.4462 9.50202 47.527 9.45121 47.5877 9.4004C47.6584 9.33942 47.719 9.27845 47.7797 9.21747C47.8403 9.15649 47.9009 9.08536 47.9515 9.01422C48.002 8.94308 48.0323 8.86178 48.0626 8.77032C48.3254 8.74999 48.4163 8.59755 48.4466 8.40446C48.477 8.22153 48.4871 8.02845 48.5881 7.89633C48.5881 7.70324 48.669 7.57113 48.7397 7.42885C48.8206 7.28658 48.9115 7.1443 48.9418 6.9817C49.0227 6.83942 49.0126 6.66666 49.0227 6.50406C49.0328 6.34145 49.0227 6.18901 49.1237 6.04674C49.1237 5.96544 49.1439 5.8943 49.1642 5.813C49.1743 5.7317 49.1945 5.66056 49.2046 5.57926C49.2248 5.42682 49.245 5.27438 49.1642 5.12194C49.2551 4.9695 49.2046 4.81706 49.154 4.67479C49.0934 4.53251 49.0126 4.4004 49.0631 4.24796C49.053 4.17682 49.0429 4.10568 49.0328 4.03454C49.0126 3.9634 49.0025 3.90243 48.9823 3.83129C48.9418 3.69918 48.9115 3.5569 48.8408 3.43495C48.6488 3.35365 48.5881 3.24186 48.5679 3.10975C48.5578 2.97763 48.5477 2.83536 48.5073 2.71341C48.3759 2.49999 48.4062 2.16462 48.1031 2.07316C48.0222 1.9817 47.9212 1.91056 47.8302 1.82926C47.7393 1.74796 47.6786 1.65649 47.6382 1.53454C47.5776 1.43292 47.4159 1.42275 47.2946 1.39227C47.1733 1.36178 47.0824 1.31097 47.143 1.07723C47.0824 0.9756 46.9611 0.965438 46.85 0.945112C46.7388 0.924787 46.6377 0.894299 46.6478 0.721535C46.6478 0.386169 46.3042 0.528446 46.1426 0.447145C45.9809 0.355682 45.8192 0.304869 45.6575 0.243893C44.9501 -9.52929e-06 44.3639 -0.0304973 43.9799 -9.52836e-06C43.5858 0.0508035 43.3938 0.121942 43.3938 0.213405C43.3938 0.264218 43.4544 0.304869 43.5656 0.365844C43.6768 0.42682 43.8385 0.457307 44.0406 0.538608C44.4448 0.670722 45.0309 0.894299 45.6272 1.33129C45.7484 1.42275 45.7585 1.67682 45.991 1.61584C46.0516 1.66666 46.092 1.74796 46.1426 1.8191C46.1931 1.89023 46.2436 1.96137 46.3447 1.96137C46.3042 2.12397 46.3649 2.18495 46.4356 2.23576C46.5064 2.27641 46.6175 2.3069 46.6782 2.36788C46.7388 2.43901 46.7994 2.49999 46.8601 2.57113C46.9207 2.64227 46.9712 2.72357 46.9813 2.82519C46.9308 3.07926 47.2542 3.09958 47.234 3.34349C47.3552 3.3943 47.4361 3.46544 47.4563 3.56706C47.4866 3.66869 47.4664 3.78048 47.426 3.90243C47.5472 3.97357 47.5574 4.07519 47.5574 4.18698C47.5574 4.2378 47.5573 4.29877 47.5472 4.34958C47.5472 4.4004 47.5371 4.46137 47.5472 4.51219C47.6887 4.59349 47.7393 4.70528 47.719 4.81706C47.6988 4.92885 47.6281 5.04064 47.5776 5.15243C47.5371 5.26422 47.527 5.36584 47.5371 5.47763C47.5371 5.52845 47.5371 5.58942 47.5371 5.64023C47.5371 5.69105 47.5169 5.75202 47.4967 5.80284C47.527 6.03658 47.3451 6.22967 47.3249 6.46341C47.2239 6.55487 47.143 6.64633 47.1026 6.74796C47.0521 6.84958 47.0217 6.96137 47.042 7.10365C46.9611 7.19511 46.8803 7.28658 46.8297 7.3882C46.7792 7.49999 46.7186 7.60162 46.6478 7.69308C46.5872 7.72357 46.5468 7.76422 46.5064 7.81503C46.4659 7.85568 46.4255 7.90649 46.3851 7.94714L46.284 8.09958C46.284 8.09958 46.2032 8.19105 46.1527 8.22153C46.0415 8.28251 46.0011 8.42479 45.9202 8.52641C45.8495 8.62804 45.7484 8.72966 45.5564 8.66869C45.3341 8.77032 45.1421 8.9634 44.8793 9.00406C44.7682 9.06503 44.657 9.13617 44.5357 9.16666C44.4145 9.19714 44.2831 9.22763 44.1517 9.20731C44.0507 9.36991 43.9193 9.42072 43.7778 9.41056C43.6363 9.39023 43.505 9.32926 43.3736 9.27845C43.2422 9.22763 43.1108 9.20731 42.9896 9.20731C42.8582 9.20731 42.7369 9.19714 42.6056 9.20731C42.4843 9.16666 42.363 9.12601 42.2417 9.10568C42.1205 9.07519 41.9992 9.02438 41.8779 9.00406C41.6859 8.83129 41.3626 8.90243 41.2009 8.66869C41.12 8.5569 41.019 8.50609 40.8977 8.45527C40.7764 8.41462 40.6653 8.34349 40.6147 8.22153C40.5844 8.16056 40.5541 8.10975 40.5238 8.05893C40.4935 8.00812 40.4631 7.95731 40.4227 7.90649C40.3823 7.86584 40.3419 7.82519 40.2913 7.78454C40.2408 7.74389 40.1903 7.71341 40.1297 7.69308C40.0589 7.60162 39.9275 7.54064 39.8366 7.44918C39.7456 7.36788 39.6648 7.26625 39.7355 7.09349C39.7153 6.97154 39.7355 6.82926 39.7355 6.71747C39.7355 6.59552 39.685 6.50406 39.4425 6.46341C39.4627 6.34145 39.3919 6.23983 39.3212 6.1382C39.2505 6.03658 39.21 5.92479 39.2808 5.80284C39.1999 5.76219 39.1494 5.70121 39.1292 5.6504C39.109 5.59958 39.1191 5.53861 39.1292 5.47763C39.1595 5.35568 39.21 5.25406 39.21 5.14227C39.1898 5.03048 39.1494 4.91869 39.1393 4.8069C39.1393 4.69511 39.1595 4.59349 39.2404 4.49186C39.2808 4.44105 39.301 4.4004 39.3111 4.34958C39.3212 4.29877 39.3212 4.24796 39.3212 4.19714C39.3212 4.09552 39.2909 3.97357 39.3515 3.89227C39.4627 3.82113 39.4425 3.7195 39.4324 3.59755C39.4122 3.48576 39.4324 3.37397 39.5435 3.32316C39.5839 3.11991 39.7557 2.99796 39.7962 2.80487C40.0084 2.83536 40.069 2.77438 40.0791 2.67275C40.0892 2.57113 40.0488 2.42885 40.1094 2.34755C40.1499 2.26625 40.261 2.24593 40.3419 2.20528C40.4227 2.16462 40.4935 2.12397 40.453 1.95121C40.6147 2.01219 40.6754 1.95121 40.7158 1.88007C40.7562 1.79877 40.7663 1.68698 40.8067 1.60568C40.8775 1.43292 41.1301 1.54471 41.1705 1.32113C41.2817 1.37194 41.3322 1.32113 41.3727 1.23983C41.4131 1.16869 41.4535 1.07723 41.5242 1.07723C41.5849 0.884137 41.7668 0.965438 41.8678 0.884137C41.9386 0.884137 41.9891 0.873974 42.0497 0.843486C42.1003 0.823161 42.1508 0.782511 42.2013 0.731698C42.3024 0.691047 42.4034 0.640234 42.4944 0.609747C42.6359 0.558934 42.7672 0.518283 42.8784 0.477633C42.9896 0.436982 43.0906 0.406495 43.1614 0.376007C43.3231 0.315031 43.4039 0.254056 43.4039 0.19308L43.4241 0.213405Z" fill="#0061EF"/>
<path d="M16.5435 0.447057C16.5435 0.396244 16.4526 0.335269 16.2808 0.294618C16.1999 0.274293 16.0888 0.243805 15.9574 0.233643C15.826 0.233643 15.6744 0.233643 15.5127 0.233643C15.4016 0.233643 15.2803 0.253968 15.1489 0.274293C15.0782 0.274293 15.0074 0.274293 14.9468 0.284456C14.8761 0.294618 14.8053 0.314943 14.7447 0.355594C14.6638 0.548683 14.3506 0.203155 14.2899 0.487708C14.1687 0.619821 13.9868 0.629984 13.8049 0.69096C13.623 0.741773 13.532 0.955187 13.3097 0.96535C13.148 0.904374 13.1076 1.03649 13.0773 1.15844C13.0368 1.28039 13.0166 1.39218 12.8145 1.3312C12.7134 1.37185 12.6124 1.43283 12.5417 1.51413C12.4608 1.59543 12.4002 1.68689 12.3294 1.77836C12.3294 1.9308 12.2688 2.02226 12.1677 2.10356C12.0768 2.1747 11.9454 2.23568 11.8646 2.32714C11.9656 2.68283 11.7332 2.80478 11.4603 2.96738C11.6625 3.35356 11.5412 3.54665 11.1269 3.69909C11.0763 3.8312 11.0763 3.97348 11.0561 4.10559C11.0561 4.17673 11.0359 4.23771 11.0056 4.30885C10.9854 4.37998 10.9551 4.44096 10.9045 4.50194C10.8742 4.64421 10.8237 4.78649 10.8035 4.92876C10.7833 5.07104 10.7732 5.22348 10.8035 5.37592C10.6721 5.52836 10.6317 5.6808 10.6317 5.8434C10.6317 5.9247 10.6519 5.99584 10.6822 6.07714C10.7226 6.14828 10.7732 6.22958 10.8338 6.29055C10.6115 6.64624 10.8035 6.96129 11.0157 7.22551C11.137 7.35763 11.137 7.52023 11.1471 7.69299C11.1572 7.86576 11.2077 8.03852 11.3694 8.14015C11.4401 8.29259 11.5311 8.43486 11.6018 8.5873C11.6726 8.73974 11.7736 8.88202 11.8949 9.00397C11.9656 9.05478 12.0364 9.10559 12.1071 9.15641C12.1778 9.20722 12.2486 9.25803 12.3092 9.31901C12.3699 9.37998 12.4204 9.44096 12.4709 9.52226C12.5113 9.60356 12.5518 9.68486 12.5821 9.78649C12.6932 9.92877 12.7943 10.0812 12.9358 10.193C13.0773 10.3048 13.2187 10.4166 13.4209 10.4471C13.5825 10.884 13.9969 10.9552 14.3809 10.9552C14.5426 11.0365 14.7245 11.0771 14.9165 11.0975C15.0984 11.1178 15.2803 11.1584 15.442 11.2702C15.634 11.2702 15.8058 11.3414 15.9978 11.382C16.1797 11.4125 16.3717 11.4328 16.5637 11.382C16.7557 11.3312 16.9376 11.2804 17.1195 11.2601C17.3014 11.2296 17.4833 11.2194 17.6855 11.2601C17.8876 11.3109 18.0695 11.2397 18.2413 11.1686C18.4131 11.0873 18.5647 10.9755 18.7466 10.945C18.8678 10.7621 19.0295 10.691 19.2114 10.6605C19.3933 10.63 19.5752 10.569 19.7066 10.4471C19.8683 10.3658 19.9896 10.2235 20.1108 10.1015C20.2422 9.97958 20.3635 9.85763 20.5353 9.78649C20.606 9.73568 20.6869 9.68486 20.7475 9.63405C20.8182 9.57307 20.8789 9.5121 20.9395 9.45112C21.0001 9.39015 21.0608 9.31901 21.1113 9.24787C21.1618 9.17673 21.1921 9.09543 21.2225 9.00397C21.4852 8.98364 21.5762 8.8312 21.6065 8.63811C21.6368 8.45519 21.6469 8.2621 21.7479 8.12998C21.7479 7.93689 21.8288 7.80478 21.9096 7.6625C21.9905 7.52023 22.0814 7.37795 22.1118 7.21535C22.1926 7.07307 22.1825 6.90031 22.1926 6.73771C22.2027 6.57511 22.1926 6.42267 22.2937 6.28039C22.2937 6.19909 22.3139 6.12795 22.3341 6.04665C22.3442 5.96535 22.3644 5.89421 22.3745 5.81291C22.3947 5.66047 22.4149 5.50803 22.3341 5.35559C22.425 5.20315 22.3745 5.05072 22.324 4.90844C22.2633 4.76616 22.1825 4.63405 22.233 4.48161C22.2229 4.41047 22.2128 4.33933 22.2027 4.2682C22.1825 4.19706 22.1724 4.13608 22.1522 4.06494C22.1118 3.93283 22.0814 3.79055 22.0107 3.6686C21.8187 3.5873 21.7581 3.47551 21.7378 3.3434C21.7176 3.21128 21.7176 3.06901 21.6772 2.94706C21.5458 2.72348 21.5762 2.39828 21.273 2.30681C21.1921 2.21535 21.0911 2.14421 21.0001 2.06291C20.9092 1.98161 20.8485 1.89015 20.8081 1.7682C20.7475 1.66657 20.5858 1.65641 20.4645 1.62592C20.3433 1.59543 20.2523 1.54462 20.3129 1.32104C20.2523 1.21941 20.131 1.20925 20.0098 1.18893C19.8986 1.1686 19.7975 1.13811 19.8077 0.96535C19.8077 0.629984 19.4641 0.77226 19.3125 0.69096C19.1508 0.599496 18.979 0.548683 18.8274 0.487708C18.12 0.243805 17.5339 0.213317 17.1498 0.243805C16.7557 0.294618 16.5637 0.375919 16.5637 0.45722C16.5637 0.508033 16.6244 0.548683 16.7355 0.609659C16.8467 0.660472 17.0084 0.701122 17.2105 0.782423C17.6147 0.914537 18.2008 1.13811 18.7971 1.57511C18.9184 1.66657 18.9285 1.92063 19.1609 1.85966C19.2215 1.91047 19.2619 1.99177 19.3125 2.05275C19.363 2.12389 19.4135 2.19502 19.5146 2.19502C19.4742 2.35763 19.5348 2.4186 19.6055 2.46941C19.6763 2.52023 19.7874 2.54055 19.8481 2.60153C19.9087 2.67267 19.9693 2.73364 20.03 2.80478C20.0906 2.87592 20.1411 2.95722 20.1512 3.06901C20.1007 3.32307 20.4342 3.3434 20.4039 3.5873C20.5252 3.63811 20.606 3.70925 20.6262 3.82104C20.6565 3.92267 20.6363 4.03446 20.5959 4.15641C20.7172 4.22755 20.7273 4.33933 20.7273 4.44096C20.7273 4.49177 20.7273 4.55275 20.7273 4.60356C20.7273 4.65437 20.7172 4.71535 20.7273 4.76616C20.8687 4.84746 20.9193 4.95925 20.8991 5.07104C20.8789 5.18283 20.8081 5.29462 20.7576 5.40641C20.7172 5.5182 20.7071 5.61982 20.7273 5.73161C20.7273 5.79259 20.7273 5.8434 20.7273 5.90437C20.7273 5.95519 20.7071 6.01616 20.6868 6.06698C20.7172 6.30072 20.5353 6.4938 20.5151 6.72754C20.414 6.81901 20.3331 6.91047 20.2927 7.0121C20.2422 7.11372 20.2119 7.22551 20.2321 7.36779C20.1512 7.45925 20.0704 7.55072 20.0199 7.65234C19.9693 7.76413 19.9087 7.86576 19.838 7.95722C19.7773 7.98771 19.7369 8.02836 19.6965 8.07917C19.6561 8.11982 19.6156 8.17063 19.5752 8.21128L19.4742 8.36372C19.4742 8.36372 19.3933 8.45519 19.3428 8.48568C19.2316 8.54665 19.1912 8.68893 19.1104 8.79055C19.0295 8.89218 18.9386 8.99381 18.7466 8.93283C18.5141 9.03446 18.3322 9.22754 18.0695 9.2682C17.9583 9.32917 17.8471 9.40031 17.7259 9.4308C17.6046 9.46128 17.4732 9.49177 17.3419 9.47145C17.2408 9.63405 17.1094 9.68486 16.9679 9.6747C16.8265 9.65438 16.6951 9.5934 16.5637 9.54259C16.4324 9.49177 16.3111 9.47145 16.1797 9.48161C16.0483 9.48161 15.9271 9.47145 15.7957 9.48161C15.6744 9.44096 15.5532 9.40031 15.4319 9.37998C15.3106 9.3495 15.1893 9.29868 15.0681 9.2682C14.8761 9.09543 14.5527 9.16657 14.391 8.93283C14.3102 8.82104 14.2091 8.77023 14.0878 8.71942C13.9666 8.67876 13.8554 8.61779 13.8049 8.48568C13.7745 8.4247 13.7442 8.37389 13.7038 8.32307C13.6735 8.27226 13.6432 8.22145 13.6028 8.17063C13.5623 8.12998 13.5219 8.08933 13.4714 8.04868C13.4208 8.00803 13.3703 7.97755 13.3097 7.94706C13.2389 7.85559 13.1076 7.79462 13.0166 7.70315C12.9257 7.61169 12.8448 7.52023 12.9156 7.34746C12.8954 7.22551 12.9156 7.08324 12.9156 6.97145C12.9156 6.8495 12.865 6.75803 12.6225 6.71738C12.6427 6.59543 12.572 6.4938 12.5012 6.39218C12.4305 6.29055 12.3901 6.17876 12.4608 6.05681C12.38 6.01616 12.3294 5.95519 12.3092 5.90437C12.289 5.8434 12.2991 5.79259 12.3092 5.73161C12.3395 5.61982 12.3901 5.50803 12.3901 5.39624C12.3699 5.28446 12.3294 5.17267 12.3193 5.06088C12.3193 4.94909 12.3395 4.84746 12.4204 4.74584C12.4608 4.70519 12.481 4.65437 12.4911 4.60356C12.5012 4.55275 12.5012 4.50194 12.5012 4.45112C12.5012 4.3495 12.4709 4.22754 12.5315 4.14624C12.6427 4.07511 12.6326 3.97348 12.6124 3.85153C12.5922 3.73974 12.6023 3.62795 12.7236 3.57714C12.764 3.37389 12.9358 3.25194 12.9762 3.05885C13.1985 3.08933 13.2491 3.02836 13.2592 2.92673C13.2592 2.82511 13.2288 2.68283 13.2895 2.60153C13.3299 2.52023 13.4411 2.4999 13.5219 2.45925C13.6028 2.4186 13.6735 2.37795 13.6331 2.20519C13.7948 2.26616 13.8554 2.20519 13.8958 2.13405C13.9362 2.05275 13.9463 1.94096 13.9868 1.85966C14.0575 1.68689 14.3102 1.79868 14.3506 1.57511C14.4617 1.62592 14.5123 1.57511 14.5527 1.49381C14.5931 1.42267 14.6335 1.3312 14.7043 1.3312C14.7649 1.13811 14.9468 1.21941 15.0479 1.13811C15.1186 1.13811 15.1691 1.12795 15.2298 1.09746C15.2803 1.07714 15.3308 1.03649 15.3814 0.985675C15.4824 0.945025 15.5835 0.894212 15.6744 0.863724C15.8159 0.812911 15.9473 0.77226 16.0584 0.73161C16.1696 0.69096 16.2707 0.670634 16.3414 0.629984C16.5031 0.569008 16.5839 0.508033 16.5839 0.447057H16.5435Z" fill="#0061EF"/>
</g>
<defs>
<clipPath id="clip0_1032_13939">
<rect width="87" height="85" fill="white" transform="matrix(-1 0 0 1 87 0)"/>
</clipPath>
</defs>
</svg>
