<svg width="96" height="100" viewBox="0 0 96 100" fill="none" xmlns="http://www.w3.org/2000/svg">
<path d="M96 100H39V31.5L96 0V100Z" fill="#E4FFE8"/>
<g clip-path="url(#clip0_1032_14035)">
<path d="M72.2108 14.0399C72.2608 14.1399 71.6508 14.5699 70.4908 15.2699C70.3008 15.3899 70.0908 15.5099 69.8708 15.6499C69.6508 15.7899 69.4208 15.9499 69.1608 16.0699C68.8308 16.0699 68.7508 16.5799 68.3608 16.5299C68.0408 16.6199 67.7708 16.8299 67.4808 17.0299C67.1908 17.2399 66.8008 17.2799 66.5208 17.5699C66.3108 17.9899 65.6908 17.6499 65.4808 18.1499C65.1508 18.3999 64.7708 18.5799 64.3708 18.7599C63.8908 18.7599 63.5808 19.1599 63.1908 19.4099C62.6608 19.3899 62.2908 19.7099 61.9408 20.0899C61.3508 19.9999 60.9308 20.2799 60.6308 20.7999C60.1808 21.0399 59.6608 21.1599 59.2608 21.5399C58.8008 21.7999 58.3508 22.1099 57.8308 22.3099C57.4508 22.7699 56.9408 23.0199 56.3408 23.0999C55.9508 23.5899 55.3908 23.7599 54.8008 23.9199C54.2108 24.0599 53.8508 24.6599 53.2108 24.7599C52.6608 25.0199 52.1508 25.3699 51.5808 25.6199C50.9808 25.8099 50.3708 25.9999 49.9108 26.4999C49.3708 26.8499 48.8408 27.2199 48.2008 27.3899C47.7408 27.9299 47.1108 28.1199 46.4508 28.2999C45.8808 28.6399 45.2008 28.7799 44.6708 29.2199C44.0508 29.4899 43.5208 29.9499 42.8608 30.1599C42.2108 30.3999 41.5708 30.6399 41.0408 31.0899C40.5208 31.5499 39.8108 31.6399 39.2508 32.0099C38.5408 32.0899 38.1108 32.6899 37.4908 32.9099C36.9208 33.2299 36.2708 33.3699 35.7708 33.7899C35.2208 34.1199 34.6908 34.4599 34.0808 34.6399C33.7008 35.2699 32.9308 35.1199 32.4308 35.4699C31.8208 35.5999 31.3708 36.0399 30.8308 36.2699C30.3408 36.6099 29.7108 36.6499 29.2708 37.0499C28.7508 37.2799 28.3208 37.6799 27.7608 37.7999C27.3608 38.2199 26.7108 38.1599 26.3008 38.5199C25.8308 38.7599 25.3708 39.0099 24.9008 39.2099C24.3108 39.1699 23.9808 39.6199 23.5608 39.8699C23.1108 40.0599 22.7808 40.4599 22.2808 40.4899C21.8608 40.6799 21.4008 40.7699 21.0708 41.0799C20.7008 41.3199 20.1008 41.0799 19.9208 41.6299C19.5908 41.8799 19.0608 41.7199 18.8508 42.1399C18.6208 42.5399 18.1708 42.4599 17.8508 42.6099C17.5308 42.7599 17.2208 42.8999 16.9308 43.0399C14.2908 44.2499 12.7308 44.8799 12.6608 44.7399C12.5808 44.5799 14.3308 43.4899 17.4008 41.7399C17.7108 41.5699 17.9408 41.2099 18.3608 41.1999C18.7008 41.0299 18.9808 40.6999 19.4008 40.6199C19.6408 40.1799 20.1208 40.1899 20.5108 40.0099C20.8908 39.7999 21.3308 39.6699 21.6908 39.3599C22.0208 38.9999 22.5608 38.9999 22.9408 38.6799C23.4508 38.6099 23.8708 38.3399 24.2508 37.9699C24.7808 37.8899 25.1508 37.4699 25.6208 37.2299C26.2108 37.2199 26.6108 36.8099 27.0508 36.4599C27.5008 36.1199 28.0608 35.9899 28.5408 35.6699C29.0708 35.4499 29.5308 35.0799 30.0808 34.8499C30.5508 34.4699 31.0608 34.1599 31.6708 34.0099C32.1708 33.6599 32.7508 33.4399 33.3008 33.1499C33.8108 32.7699 34.4208 32.5899 34.9708 32.2699C35.5108 31.9299 36.2408 31.9299 36.6808 31.3699C37.2408 31.0399 37.8608 30.8099 38.4308 30.4599C39.0408 30.1899 39.6508 29.9199 40.2108 29.5399C40.9408 29.4799 41.4608 29.0199 42.0208 28.5999C42.5908 28.2099 43.2208 27.9399 43.8408 27.6699C44.4308 27.3399 45.0308 27.0399 45.6308 26.7499C46.1808 26.3699 46.8608 26.2499 47.3908 25.8499C47.9108 25.4399 48.6008 25.3699 49.1108 24.9699C49.6408 24.5999 50.1808 24.2799 50.8008 24.1199C51.3508 23.8299 52.0208 23.7799 52.4508 23.2899C52.9608 22.9599 53.3508 22.3999 54.0508 22.4799C54.5308 22.1199 55.1808 22.1099 55.6108 21.6999C56.2508 21.6999 56.6208 21.1899 57.1208 20.9499C57.6408 20.7499 58.1608 20.5899 58.5808 20.2299C58.9908 19.8599 59.5508 19.8199 59.9808 19.5399C60.3608 19.1599 60.9708 19.2699 61.3208 18.8799C61.7708 18.6899 62.1608 18.4199 62.6008 18.2599C62.8308 17.6999 63.4108 17.8399 63.8108 17.6699C64.2208 17.5199 64.4608 17.0499 64.9608 17.1199C65.1908 16.6699 65.6608 16.7199 66.0308 16.6099C66.4108 16.5099 66.6408 16.1599 67.0308 16.1399C67.2508 15.7899 67.7008 15.9299 67.9508 15.7099C68.3008 15.6799 68.5208 15.4299 68.7908 15.3299C69.0308 15.1599 69.2808 15.0399 69.5508 14.9899C69.7908 14.8899 70.0108 14.7899 70.2208 14.6999C71.4708 14.1699 72.1808 13.9199 72.2308 14.0199L72.2108 14.0399Z" fill="#0061EF"/>
<path d="M63.1895 12.26C63.2095 12.15 63.4395 12.09 63.8295 12.07C63.8995 12.07 63.9695 12.07 64.0395 12.07C64.1195 12.06 64.1995 12.04 64.2795 12.07C64.3295 12.23 64.4995 11.84 64.5395 12.07C64.6195 12.15 64.7195 12.11 64.8295 12.08C64.9395 12.05 65.0095 12.21 65.1395 12.1C65.2995 11.85 65.2895 12.45 65.4795 12.13C65.6095 12.08 65.7195 12.13 65.8395 12.16C65.9195 12.39 66.0895 12.21 66.2195 12.2C66.2995 12.48 66.4495 12.39 66.6195 12.25C66.6795 12.62 66.8295 12.6 67.0395 12.3C67.1795 12.32 67.2995 12.48 67.4795 12.36C67.6295 12.36 67.7995 12.33 67.9395 12.42C68.1395 12.22 68.2895 12.26 68.4095 12.49C68.6195 12.27 68.7595 12.4 68.8995 12.56C69.0395 12.73 69.2695 12.41 69.3995 12.64C69.5595 12.69 69.7495 12.65 69.9095 12.73C70.0595 12.87 70.2095 13.02 70.4395 12.82C70.6295 12.79 70.8195 12.75 70.9795 12.92C71.0395 12.86 71.0895 12.83 71.1395 12.81C71.1695 12.81 71.1895 12.8 71.2095 12.8C71.2395 12.8 71.2995 12.81 71.3395 12.83C71.5195 12.88 71.6795 12.98 71.8095 13.08C71.9895 13.09 72.1395 13.16 72.2895 13.22C72.4395 13.27 72.5895 13.31 72.8395 13.29C72.9995 13.35 73.2395 13.35 73.4695 13.38C73.4295 13.52 73.3695 13.67 73.2495 13.85C73.1295 14.04 73.0195 14.21 72.9395 14.37C72.8595 14.53 72.8295 14.68 72.8495 14.84C72.8995 15.17 72.4795 15.56 72.5095 15.68C72.2095 15.76 72.4495 16.06 72.2995 16.19C72.2595 16.37 72.0295 16.48 72.0895 16.69C72.0695 16.88 72.0495 17.06 71.8795 17.18C72.1795 17.49 71.6595 17.47 71.6695 17.66C71.4495 17.76 71.5695 17.98 71.4595 18.12C71.4595 18.3 71.1695 18.36 71.2595 18.57C71.1695 18.71 71.2595 18.91 71.0595 19C71.1795 19.22 70.7895 19.23 70.8595 19.42C70.7995 19.56 70.7595 19.7 70.6695 19.82C70.3295 19.84 70.5195 20.07 70.4795 20.2C70.3995 20.31 70.5395 20.52 70.2995 20.56C70.2295 20.67 70.0595 20.74 70.1295 20.9C70.1295 21.03 69.6295 20.96 69.9595 21.22C69.9795 21.35 69.5895 21.32 69.7995 21.52C69.9895 21.71 69.6895 21.71 69.6495 21.8C69.5995 21.89 69.5495 21.97 69.4995 22.05C69.0695 22.76 68.7595 23.15 68.5995 23.08C68.4295 23.01 68.4895 22.41 68.7295 21.43C68.7495 21.33 68.5895 21.16 68.8095 21.13C68.8495 21.03 68.7395 20.87 68.8995 20.8C68.6795 20.59 68.9395 20.56 68.9995 20.45C69.0295 20.33 69.1695 20.25 69.1095 20.08C69.0095 19.9 69.2795 19.86 69.2295 19.69C69.4395 19.63 69.4495 19.48 69.3595 19.29C69.5695 19.22 69.4395 19.01 69.4995 18.87C69.7995 18.83 69.6795 18.62 69.6495 18.43C69.6195 18.25 69.7995 18.15 69.7995 17.98C69.9095 17.85 69.8595 17.65 69.9595 17.52C69.9095 17.32 69.9295 17.15 70.1295 17.04C70.1195 16.85 70.2395 16.71 70.3095 16.55C70.2795 16.35 70.4495 16.23 70.4995 16.05C70.5195 15.86 70.8895 15.82 70.6895 15.54C70.7195 15.36 70.8695 15.21 70.8895 15.02L70.9695 14.9L70.9895 14.87C70.9895 14.87 70.9895 14.87 70.9895 14.86C70.9895 14.85 70.9895 14.83 70.9595 14.82C71.1195 14.82 71.1595 14.77 71.1495 14.75C71.1295 14.73 71.0495 14.74 70.9895 14.75C70.9495 14.75 70.9295 14.76 70.9395 14.75C70.9395 14.75 70.9595 14.73 70.9695 14.71C70.9195 14.73 70.9195 14.71 70.9095 14.69C70.8795 14.73 70.8895 14.69 70.8795 14.67C70.8795 14.67 70.8795 14.66 70.8695 14.65C70.8495 14.65 70.8295 14.63 70.7995 14.63C70.7595 14.62 70.7095 14.62 70.6595 14.63C70.4595 14.71 70.3295 14.43 70.1295 14.51C69.9395 14.56 69.7495 14.57 69.6095 14.39C69.4395 14.36 69.3195 14.07 69.0995 14.27C68.9195 14.29 68.6895 14.57 68.6095 14.15C68.4295 14.21 68.3195 13.9 68.1295 14.03C68.0295 13.72 67.8195 13.95 67.6695 13.91C67.5295 13.83 67.3995 13.7 67.2295 13.79C67.0595 13.9 66.9495 13.66 66.7995 13.68C66.6295 13.81 66.5595 13.41 66.3895 13.57C66.2595 13.51 66.1195 13.54 65.9995 13.46C65.7895 13.82 65.7495 13.41 65.6295 13.35C65.5195 13.27 65.3395 13.56 65.2895 13.24C65.1195 13.51 65.0595 13.24 64.9695 13.13C64.8795 13.02 64.7395 13.21 64.6695 13.03C64.5295 13.21 64.4995 12.88 64.3995 12.93C64.3395 12.78 64.2295 12.89 64.1495 12.84C64.0595 12.87 63.9895 12.84 63.9295 12.75C63.8595 12.72 63.7995 12.69 63.7395 12.66C63.3795 12.49 63.1995 12.35 63.2195 12.24L63.1895 12.26Z" fill="#0061EF"/>
<path d="M65.0082 35.7199C64.8982 35.7199 64.7982 34.56 64.6982 32.44C64.6882 32.08 64.6682 31.6999 64.6482 31.2999C64.6282 30.8799 64.5982 30.4 64.5982 29.91C64.7282 29.91 64.8582 29.91 64.9982 29.91C65.3582 29.98 65.6182 29.91 65.9682 29.86C66.0182 29.86 66.0382 29.85 66.0682 29.84L66.1582 29.82C66.2182 29.81 66.2782 29.7999 66.3382 29.7999C66.4582 29.7999 66.5882 29.81 66.7082 29.87C67.2082 29.93 67.7382 29.87 68.2882 29.83C68.8382 29.78 69.4182 29.92 70.0082 29.79C70.6082 29.51 71.2282 30.1 71.8682 29.75C72.1882 29.71 72.5182 29.7 72.8482 29.7C73.0882 29.7 73.3282 29.7 73.5682 29.7C73.8282 29.7 74.0982 29.6999 74.3682 29.7099C74.4282 29.7299 74.4982 29.74 74.5582 29.75C74.4882 30.31 74.4982 30.75 74.5282 31.24V31.33L74.5382 31.3899V31.51L74.5782 31.76C74.5982 31.92 74.6182 32.09 74.6282 32.26C74.3682 32.98 74.4782 33.7199 74.6582 34.4799C74.3082 35.24 74.3582 36.0199 74.6882 36.8099C74.6982 37.61 74.5682 38.42 74.7182 39.25C74.7382 40.08 74.8082 40.92 74.7482 41.79C74.9882 42.65 74.9782 43.5299 74.7682 44.4199C75.0182 45.3099 74.9182 46.2199 74.7882 47.1399C74.6482 48.0599 75.0082 48.9999 74.8082 49.9399C74.7982 50.8899 74.8682 51.85 74.8282 52.82C74.7282 53.7899 74.6082 54.7799 74.8382 55.7799C74.8982 56.7799 74.9882 57.7799 74.8482 58.7999C75.1182 59.82 74.9982 60.85 74.8482 61.88C74.8882 62.92 74.6982 63.9599 74.8482 65.02C74.8082 66.08 74.9682 67.1399 74.8482 68.2099C74.7682 69.2799 74.6882 70.35 74.8482 71.4C75.0182 72.46 74.7782 73.5 74.8482 74.54C74.5982 75.58 74.9282 76.6 74.8482 77.62C74.8482 77.74 74.8482 77.86 74.8482 77.98V78.5999C74.8282 79.0199 74.8182 79.44 74.8082 79.87C74.3082 79.86 73.8282 79.8499 73.3582 79.8499H72.9982H72.8882H72.7882C72.6582 79.8599 72.5282 79.88 72.3882 79.9C71.3882 79.95 70.4082 79.9899 69.4382 79.8899C68.4682 80.2799 67.5082 79.79 66.5582 79.87C66.4282 79.85 66.2882 79.8299 66.1582 79.82H66.0582C66.0582 79.82 66.0082 79.8099 65.9382 79.8099H65.5982C65.1382 79.8099 64.6782 79.81 64.1982 79.83C64.1982 79.48 64.1782 79.1199 64.1682 78.7699C64.1682 78.5899 64.1682 78.41 64.1682 78.23V77.9899V77.8399C64.0982 76.9199 64.3482 76.0099 64.1882 75.1199C64.2182 74.2299 64.0682 73.35 64.2182 72.49C64.0282 71.63 64.3782 70.78 64.2482 69.95C64.2482 69.1199 64.2382 68.3099 64.2782 67.5099C64.5782 66.7099 64.3282 65.9399 64.3082 65.18C64.3382 64.42 64.1382 63.68 64.3382 62.9599C64.3682 62.2399 64.4982 61.5399 64.3782 60.8499C64.3382 60.1699 64.8182 59.5099 64.4182 58.8699C64.3482 58.2299 64.7282 57.6099 64.4582 57.0099C64.2082 56.4099 64.4882 55.84 64.4982 55.29C64.5082 54.74 64.5282 54.21 64.5382 53.7C64.6682 49.16 64.8182 46.5499 64.9882 46.5499C65.1682 46.5499 65.3382 49.7699 65.4782 55.2799C65.4882 55.8299 65.7082 56.41 65.5182 57C65.5182 57.6 65.6782 58.22 65.5582 58.86C65.8382 59.5 65.6082 60.16 65.5982 60.84C65.6082 61.52 65.5182 62.22 65.6382 62.95C65.7982 63.67 65.5582 64.41 65.6682 65.1699C65.4982 65.9299 65.5382 66.7099 65.6982 67.5C65.5282 68.2999 65.7382 69.1099 65.7282 69.9399C65.4682 70.77 65.6482 71.6199 65.7582 72.4799C65.8582 73.34 65.7182 74.22 65.7782 75.11C65.7282 76 65.8482 76.91 65.7982 77.83L65.8182 77.98V78.0199C65.8182 78.0199 65.8382 78.06 65.8482 78.07C65.8682 78.09 65.8782 78.1 65.8882 78.11C65.9182 78.11 65.9282 78.11 65.9582 78.11H65.9782C65.9782 78.11 66.0182 78.1299 66.0482 78.1299H66.1482C66.2782 78.1499 66.4182 78.17 66.5482 78.19C67.4982 78.11 68.4582 78.1699 69.4282 78.1699C70.3982 78.07 71.3882 78.18 72.3782 78.16C72.5082 78.16 72.6482 78.16 72.7782 78.16H72.8782H72.9282C72.9482 78.16 72.9682 78.16 72.9582 78.16H72.9882C72.9882 78.16 73.1082 78.2199 73.1882 78.2399C73.2082 78.1999 73.2182 78.14 73.1982 78.08C73.1982 78.06 73.1982 78.0499 73.1882 78.04C73.1882 78.04 73.1882 78.0299 73.1782 78.0199V77.97C73.1582 77.85 73.1382 77.7299 73.0982 77.61C73.0582 76.59 73.1382 75.5599 73.0982 74.5299C73.1382 73.4899 73.1682 72.45 73.0982 71.3899C73.3782 70.34 73.2082 69.27 73.0982 68.2C73.0182 67.13 73.0582 66.07 73.0982 65.0099C73.0682 63.9499 73.0882 62.91 73.0982 61.8699C73.0182 60.8299 73.2182 59.8 73.0982 58.79C72.9782 57.77 73.2282 56.77 73.1082 55.77C73.0282 54.77 72.9782 53.79 73.1182 52.81C73.1182 51.84 73.3782 50.88 73.1382 49.93C73.0782 48.9799 72.7582 48.05 73.1582 47.13C73.0582 46.21 73.3482 45.3 73.1782 44.41C73.4682 43.5199 73.1882 42.64 73.2082 41.78C73.2582 40.92 73.3582 40.07 73.2382 39.24C73.0982 38.41 73.3082 37.5999 73.2682 36.7999C73.0982 35.9999 73.4882 35.2299 73.2982 34.4699C73.3382 33.7099 73.2682 32.97 73.3282 32.25C73.2382 32.08 73.1882 31.92 73.1682 31.75C73.1682 31.67 73.1582 31.58 73.1582 31.5C73.1582 31.46 73.1582 31.4199 73.1582 31.3799V31.32C73.1582 31.32 73.1582 31.3099 73.1682 31.2999C73.2082 31.2399 73.3082 31.09 73.3382 30.93C73.3282 30.93 73.3082 30.93 73.2982 30.92C73.2482 30.91 73.1682 30.92 73.0982 30.93C73.0682 30.93 73.0282 30.9499 72.9982 30.9599C72.9782 30.9599 72.9782 30.9599 72.9482 30.9799H72.8282C72.4982 31.0299 72.1682 31.0299 71.8482 30.8899C71.2082 31.1899 70.5882 30.93 69.9882 30.85C69.3882 30.76 68.8182 30.9699 68.2682 30.8099C67.7182 31.0199 67.1882 30.7 66.6882 30.77C66.5582 30.73 66.4382 30.7199 66.3182 30.7099C66.2582 30.7099 66.1982 30.7099 66.1382 30.7099H66.0482H65.9682C65.8182 30.7099 65.6982 30.7399 65.5582 30.7299C65.5082 30.7399 65.4582 30.75 65.4082 30.75C65.4182 30.96 65.4082 31.12 65.3382 31.32C65.3182 31.72 65.3082 32.1 65.2882 32.45C65.1882 34.57 65.0882 35.7299 64.9782 35.7299L65.0082 35.7199Z" fill="#0061EF"/>
<path d="M46.9606 53.7799C46.8506 53.7799 46.7506 52.8199 46.6506 51.0699C46.6306 50.7799 46.6206 50.4599 46.6006 50.1299C46.5706 49.7899 46.5406 49.4399 46.5506 49.0599C46.6906 48.6799 46.2806 48.2799 46.5106 47.8699C46.5706 47.4499 46.5106 47.0199 46.4706 46.5599C46.4206 46.0999 46.5606 45.6299 46.4306 45.1299C46.1506 44.6399 46.7406 44.1199 46.3906 43.5899C46.3106 43.0599 46.3306 42.5099 46.3506 41.9499C46.4606 41.6699 46.4606 41.3799 46.4306 41.0899C46.4106 40.9499 46.3906 40.7999 46.3706 40.6499C46.3506 40.4899 46.3306 40.3899 46.3206 40.1099C46.4406 39.6699 46.4806 39.2999 46.4706 38.8499C46.9206 38.8399 47.3506 38.7599 47.8906 38.6699C47.9206 38.6799 47.9606 38.6899 47.9806 38.6999L48.0406 38.7299C48.0406 38.7299 48.1206 38.7699 48.1606 38.7799C48.2406 38.8099 48.3206 38.8399 48.4006 38.8599C48.5606 38.8999 48.7206 38.9199 48.8806 38.9099C49.2006 38.8999 49.5306 38.7999 49.8606 38.6399C50.5206 38.6299 51.1906 38.7699 51.8806 38.6099C52.5706 38.5899 53.2706 38.5199 53.9806 38.5799C54.3106 38.4699 54.6406 38.4099 54.9806 38.3999C55.6206 38.3999 56.2706 38.4299 56.8106 38.5099C56.8006 38.6199 56.7806 38.7399 56.7706 38.8499C56.8306 39.1199 56.8806 39.4499 56.9006 39.7899C56.9106 39.9599 56.9206 40.1399 56.9206 40.3199V40.4799V40.6199C56.9106 40.9999 56.8506 41.3699 56.7906 41.7499C56.6506 42.5099 57.0106 43.2899 56.8106 44.0699C56.7906 44.8499 56.8706 45.6499 56.8306 46.4499C56.7306 47.2599 56.6106 48.0699 56.8406 48.8999C56.9006 49.7299 56.9906 50.5599 56.8506 51.3999C57.1206 52.2399 57.0006 53.0899 56.8506 53.9499C56.8906 54.8099 56.7006 55.6699 56.8506 56.5499C56.8106 57.4199 56.9706 58.2999 56.8506 59.1899C56.7706 60.0799 56.6906 60.9599 56.8506 61.8299C57.0206 62.6999 56.7806 63.5699 56.8506 64.4299C56.6006 65.2899 56.9306 66.1399 56.8506 66.9799C56.8706 67.8199 56.7006 68.6599 56.8406 69.4799C56.8906 70.2999 56.9406 71.1199 56.8306 71.9199C57.2206 72.7299 56.7306 73.5199 56.8106 74.3099C56.6506 75.0899 56.8406 75.8699 56.7906 76.6299C56.8306 77.0099 56.7906 77.3899 56.7506 77.7599V77.8999L56.7306 77.9699V78.0099V78.0599C56.7306 78.2199 56.7306 78.3799 56.7306 78.5399C56.7306 78.8599 56.7406 79.1799 56.7806 79.5299C56.7806 79.6299 56.7806 79.7199 56.7806 79.8199C56.1806 79.8199 55.6106 79.8499 55.0006 79.8599C54.6506 79.8699 54.3306 79.8599 54.0006 79.7999C53.2906 79.9899 52.5906 79.6399 51.9006 79.7699C51.2106 79.7699 50.5406 79.7799 49.8806 79.7399C49.5506 79.5899 49.2206 79.5799 48.9006 79.5999C48.7406 79.6099 48.5806 79.6399 48.4206 79.6599C48.3406 79.6599 48.2606 79.6799 48.1806 79.6899H48.0606L48.0006 79.6999H47.9106C47.3806 79.6799 46.8306 79.7299 46.2606 79.7499C46.2406 79.2699 46.2506 78.7399 46.3406 78.2599C46.3406 77.9799 46.3606 77.8799 46.3706 77.7199C46.3806 77.5699 46.4006 77.4299 46.4106 77.2799C46.4306 76.9899 46.4306 76.6999 46.3706 76.4199C46.3306 75.8599 46.8106 75.3099 46.4106 74.7799C46.3406 74.2499 46.7206 73.7399 46.4506 73.2399C46.2006 72.7499 46.4806 72.2699 46.4906 71.8099C46.5106 71.3499 46.5206 70.9199 46.5306 70.4999C46.6606 66.7399 46.8206 64.5799 46.9806 64.5799C47.1606 64.5799 47.3306 67.2399 47.4706 71.8099C47.4806 72.2699 47.7006 72.7399 47.5106 73.2399C47.5106 73.7299 47.6706 74.2499 47.5506 74.7799C47.8306 75.3099 47.6006 75.8599 47.5906 76.4199C47.5906 76.6999 47.5806 76.9899 47.5706 77.2799C47.5706 77.4199 47.5706 77.5699 47.5706 77.7199C47.5706 77.8599 47.5906 78.0599 47.6206 78.0699C47.7006 78.1499 47.6806 78.2199 47.6606 78.3399C47.7306 78.3699 47.8506 78.3999 47.9706 78.3399C47.9706 78.3399 47.9706 78.3499 47.9906 78.3599H48.0506L48.1706 78.3999C48.2506 78.4199 48.3306 78.4299 48.4106 78.4399C48.5706 78.4599 48.7306 78.4599 48.8906 78.4599C49.2106 78.4599 49.5406 78.3999 49.8706 78.3199C50.5306 78.4899 51.2006 78.2799 51.8906 78.2899C52.5806 78.5499 53.2806 78.3699 53.9906 78.2599C54.3206 78.2199 54.6606 78.2199 54.9806 78.2299C55.0506 78.2399 55.1406 78.2599 55.2106 78.2399C55.2106 78.2199 55.2106 78.2099 55.2006 78.1899C55.2106 78.1599 55.2106 78.1199 55.2106 78.0799C55.2106 78.0599 55.2106 78.0399 55.2106 78.0199V77.7499C55.1806 77.3699 55.1606 76.9999 55.1806 76.6199C55.0606 75.8599 55.0106 75.0799 55.1606 74.2999C55.0806 73.5199 55.1406 72.7199 55.1406 71.9099C55.0406 71.0999 55.1506 70.2899 55.1306 69.4699C55.0806 68.6399 55.4106 67.8099 55.1206 66.9699C55.0806 66.1299 55.1606 65.2799 55.1206 64.4199C55.1606 63.5599 55.2006 62.6999 55.1206 61.8199C55.4006 60.9499 55.2306 60.0699 55.1206 59.1799C55.0406 58.2899 55.0806 57.4099 55.1206 56.5399C55.0906 55.6699 55.1106 54.7999 55.1206 53.9399C55.0406 53.0799 55.2406 52.2299 55.1206 51.3899C55.0006 50.5499 55.2506 49.7099 55.1306 48.8899C55.0506 48.0699 55.0006 47.2499 55.1406 46.4399C55.1406 45.6399 55.4006 44.8399 55.1606 44.0599C55.1006 43.2799 54.7806 42.4999 55.1806 41.7399C55.1306 41.3599 55.1806 40.9799 55.2206 40.6099C55.2206 40.5199 55.2406 40.4299 55.2506 40.3399C55.2506 40.3199 55.2606 40.2899 55.2606 40.2599C55.2606 40.2099 55.2506 40.1599 55.2106 40.1599C55.2306 40.1299 55.2506 40.0999 55.2706 40.0699C55.2706 39.9699 55.1006 39.9799 55.0006 40.0199C54.6806 40.0499 54.3406 40.1099 54.0106 40.1099C53.3006 40.0499 52.6006 39.9599 51.9106 40.0799C51.2206 40.2199 50.5506 40.0099 49.8906 40.0499C49.5606 40.1299 49.2406 40.0799 48.9106 40.0299C48.7506 39.9999 48.5906 39.9799 48.4306 39.9699C48.3506 39.9699 48.2706 39.9699 48.1906 39.9699C48.1506 39.9699 48.1106 39.9699 48.0706 39.9899H48.0106C48.0106 39.9899 47.9906 40.0099 47.9906 40.0199C47.8806 39.9999 47.7706 40.0099 47.6706 40.0199C47.6706 40.1199 47.6706 40.2099 47.6506 40.2999C47.7006 40.3399 47.7306 40.3299 47.7606 40.4299C47.7906 40.4999 47.8006 40.5799 47.8106 40.6499C47.8306 40.7999 47.8106 40.9399 47.7906 41.0899C47.7406 41.3799 47.6306 41.6699 47.6106 41.9499C47.5506 42.5199 47.8706 43.0599 47.5706 43.5899C47.8606 44.1199 47.6106 44.6299 47.5306 45.1299C47.4406 45.6199 47.6506 46.0999 47.4906 46.5599C47.7006 47.0199 47.3706 47.4499 47.4506 47.8699C47.3106 48.2899 47.4506 48.6899 47.4106 49.0599C47.4606 49.4399 47.4406 49.7899 47.3606 50.1299C47.3406 50.4699 47.3306 50.7799 47.3106 51.0699C47.2106 52.8199 47.1106 53.7799 47.0006 53.7799H46.9606Z" fill="#0061EF"/>
<path d="M28.9001 71.8301C28.7901 71.8301 28.6901 71.0301 28.5901 69.5701C28.5701 69.3301 28.5601 69.0601 28.5401 68.7901C28.5101 68.5101 28.4801 68.2101 28.4901 67.9001C28.6301 67.5901 28.2201 67.2501 28.4501 66.9101C28.5101 66.5601 28.4501 66.2001 28.4101 65.8201C28.3601 65.4401 28.5001 65.0401 28.3701 64.6301C28.0901 64.2201 28.6801 63.7901 28.3301 63.3501C28.2501 62.9101 28.2701 62.4501 28.2901 61.9801C28.5001 61.5101 28.2901 61.0301 28.2501 60.5301C28.5101 60.0301 28.4001 59.5201 28.2201 59.0001C28.5701 58.4801 28.5201 57.9401 28.1901 57.3901C28.1801 56.8401 28.3201 56.2801 28.1601 55.7101C28.1401 55.1401 28.0701 54.5501 28.1301 53.9601C27.8901 53.3701 27.9101 52.7601 28.1101 52.1401C27.8601 51.5301 27.9601 50.9001 28.0901 50.2601C28.1301 50.1001 28.1301 49.9501 28.1201 49.7901C28.1201 49.7101 28.1101 49.6301 28.1001 49.5501L28.0801 49.4301C28.0801 49.4301 28.0801 49.4001 28.0801 49.3701V49.2601C28.0501 48.9701 28.0301 48.6701 28.0201 48.3701C28.0201 48.0701 28.0201 47.7801 28.0701 47.5301H28.1501C28.7401 47.5501 29.3301 47.5301 29.9201 47.5301C30.2501 47.5201 30.5801 47.5101 30.9201 47.5301C31.5901 47.6401 32.2701 47.7501 32.9601 47.5201C33.6501 47.4601 34.3401 47.3701 35.0401 47.5101C35.3901 47.3801 35.7401 47.3401 36.1001 47.3501C36.2801 47.3501 36.4501 47.3801 36.6301 47.4001C36.7201 47.4101 36.8101 47.4301 36.9001 47.4401C37.0601 47.4601 37.2301 47.4801 37.3901 47.4901C37.8601 47.4701 38.3301 47.4901 38.7701 47.5101C38.7501 47.9601 38.7301 48.3901 38.7301 48.8101V49.1301V49.2901V49.3701V49.4201C38.7401 49.5401 38.7601 49.6601 38.7801 49.7801C38.7401 50.5101 38.9001 51.2401 38.7801 51.9801C38.7001 52.7201 38.6201 53.4501 38.7801 54.1801C38.9501 54.9101 38.7101 55.6301 38.7801 56.3401C38.5301 57.0601 38.8601 57.7601 38.7801 58.4701C38.8001 59.1701 38.6301 59.8701 38.7701 60.5501C38.8201 61.2401 38.8701 61.9201 38.7601 62.5901C39.1501 63.2601 38.6601 63.9201 38.7401 64.5801C38.5801 65.2301 38.7601 65.8801 38.7201 66.5101C38.7901 67.1401 38.5401 67.7701 38.7001 68.3901C38.6701 69.0101 38.8301 69.6101 38.6801 70.2101C38.8701 70.8001 38.5201 71.3901 38.6501 71.9601C38.6501 72.5301 38.6601 73.0901 38.6201 73.6401C38.3201 74.1901 38.5701 74.7301 38.5901 75.2501C38.5601 75.7701 38.7601 76.2801 38.5601 76.7801C38.5501 77.0301 38.5101 77.2701 38.4901 77.5201C38.4901 77.6401 38.4701 77.7601 38.4801 77.8801C38.4801 77.9401 38.4801 77.9901 38.5001 78.0701C38.5001 78.1601 38.5201 78.2501 38.5301 78.3501C38.5401 78.5801 38.5101 78.7901 38.4701 78.9801C38.4301 79.1701 38.3701 79.3201 38.3501 79.4901C38.0601 79.4601 37.8601 79.4801 37.6701 79.6401C37.5101 79.6601 37.3301 79.6401 37.1601 79.6301C37.0801 79.6201 36.9901 79.6101 36.9201 79.5901C36.8601 79.5801 36.8101 79.5601 36.7601 79.5501C36.5501 79.5001 36.3401 79.4701 36.1301 79.6101C35.7201 79.8601 35.3201 79.5801 34.9401 79.5701C34.5601 79.5601 34.1901 79.5401 33.8501 79.5301C30.7201 79.4001 28.9201 79.2501 28.9201 79.0801C28.9201 78.9001 31.1401 78.7301 34.9401 78.5901C35.3201 78.5801 35.7201 78.3601 36.1301 78.5501C36.3401 78.5501 36.5501 78.5101 36.7601 78.4901C36.8101 78.4901 36.8701 78.4801 36.9201 78.4701C36.9501 78.4701 36.9601 78.4701 36.9801 78.4701C37.0201 78.4701 37.0701 78.4901 37.1301 78.5201C37.1501 78.4101 37.1601 78.3801 37.2201 78.3801C37.2201 78.3401 37.2501 78.3201 37.2701 78.2901C37.2901 78.2601 37.3201 78.2101 37.3201 78.1601C37.3201 78.1401 37.3201 78.1101 37.3201 78.0901V77.9201C37.3201 77.8001 37.3301 77.6801 37.3401 77.5601C37.3401 77.3201 37.3401 77.0701 37.2801 76.8201C37.1201 76.3201 37.3601 75.8101 37.2501 75.2901C37.4201 74.7701 37.3801 74.2301 37.2201 73.6801C37.3901 73.1301 37.1801 72.5701 37.1901 72.0001C37.4501 71.4301 37.2701 70.8401 37.1601 70.2501C37.0701 69.6601 37.2001 69.0501 37.1401 68.4301C37.1901 67.8101 37.0701 67.1901 37.1201 66.5501C37.0001 65.9101 36.9501 65.2701 37.1001 64.6201C37.0201 63.9701 37.0801 63.3001 37.0801 62.6301C36.9801 61.9601 37.0901 61.2801 37.0701 60.5901C37.0201 59.9001 37.3501 59.2101 37.0701 58.5101C37.0301 57.8101 37.1101 57.1001 37.0701 56.3801C37.1101 55.6701 37.1401 54.9401 37.0701 54.2201C37.3501 53.4901 37.1801 52.7601 37.0701 52.0201C36.9901 51.2801 37.0301 50.5501 37.0701 49.8201V49.4601L37.0601 49.4201V49.4101V49.3901C37.0601 49.3901 37.0601 49.3401 37.0601 49.3101L36.9801 49.2901C36.9801 49.2901 36.9601 49.3101 36.9501 49.3101C36.8601 49.3101 36.7701 49.3101 36.6801 49.3101C36.5001 49.3101 36.3301 49.2901 36.1501 49.2801C35.8001 49.2501 35.4401 49.2301 35.0901 49.2801C34.3901 49.4001 33.6901 49.1501 33.0101 49.2701C32.3201 49.3501 31.6401 49.4001 30.9701 49.2601C30.6301 49.2601 30.3001 49.2001 29.9701 49.1601C29.9201 49.1401 29.8801 49.1301 29.8301 49.1401C29.7901 49.1501 29.7601 49.1801 29.7901 49.2401C29.8201 49.3401 29.9101 49.4201 29.9501 49.4201C29.9501 49.4201 29.9501 49.4601 29.9501 49.4701C29.9501 49.5101 29.9501 49.5501 29.9501 49.5901C29.9501 49.6701 29.9501 49.7501 29.9301 49.8301C29.9001 49.9901 29.8501 50.1401 29.7501 50.3001C29.8501 50.9401 29.5601 51.5601 29.7301 52.1801C29.4401 52.8001 29.7201 53.4001 29.7101 54.0001C29.6601 54.5901 29.5601 55.1801 29.6801 55.7501C29.8201 56.3201 29.6101 56.8801 29.6501 57.4301C29.8201 57.9801 29.4301 58.5201 29.6201 59.0401C29.5801 59.5601 29.6501 60.0801 29.5901 60.5701C29.9801 61.0701 29.5901 61.5501 29.5501 62.0201C29.4901 62.4901 29.8101 62.9501 29.5101 63.3901C29.8001 63.8301 29.5501 64.2601 29.4701 64.6701C29.3801 65.0801 29.5901 65.4801 29.4301 65.8601C29.6401 66.2401 29.3201 66.6101 29.3901 66.9501C29.2501 67.3001 29.3901 67.6301 29.3501 67.9401C29.4001 68.2501 29.3801 68.5501 29.3001 68.8301C29.2801 69.1101 29.2701 69.3701 29.2501 69.6201C29.1501 71.0801 29.0501 71.8801 28.9401 71.8801L28.9001 71.8301Z" fill="#0061EF"/>
<path d="M10.8492 79.05C10.7392 79.05 10.6392 78.37 10.5392 77.13C10.5292 76.92 10.5092 76.7 10.4892 76.46C10.4592 76.22 10.4292 75.97 10.4392 75.7C10.5792 75.43 10.1692 75.15 10.3992 74.85C10.4592 74.55 10.3992 74.24 10.3592 73.92C10.3092 73.6 10.4492 73.26 10.3192 72.91C10.0392 72.56 10.6292 72.2 10.2792 71.82C10.2092 71.44 10.2192 71.06 10.2392 70.66C10.4492 70.26 10.2392 69.85 10.1992 69.43C10.4592 69.01 10.3492 68.57 10.1692 68.13C10.5192 67.68 10.4692 67.23 10.1392 66.76C10.1292 66.29 10.2692 65.82 10.1092 65.33C10.0892 64.84 10.0192 64.35 10.0792 63.84C9.83916 63.34 9.84916 62.82 10.0592 62.3C9.80916 61.78 9.90916 61.24 10.0392 60.7C10.1792 60.16 9.81916 59.61 10.0192 59.06C10.0192 58.92 10.0192 58.78 10.0192 58.64C10.0192 58.45 10.0192 58.27 9.99916 58.08C9.98916 57.57 9.97916 57.04 9.99916 56.54H10.0092C10.5792 56.59 11.0992 56.65 11.5892 56.66H11.7692H11.8492H11.8992C11.9692 56.66 12.0492 56.65 12.1192 56.64C12.2692 56.62 12.4092 56.58 12.5592 56.52C13.1392 56.46 13.7292 56.37 14.3292 56.51C14.9292 56.24 15.5292 56.36 16.1392 56.51C16.7492 56.47 17.3592 56.66 17.9792 56.51C18.1392 56.52 18.2892 56.51 18.4392 56.51H18.6692L18.7892 56.49H18.8692H18.9792C19.5592 56.47 20.1892 56.46 20.7192 56.52C20.6792 57.15 20.6392 57.72 20.6292 58.27C20.6292 58.43 20.6292 58.49 20.6292 58.57C20.6292 58.65 20.6292 58.73 20.6392 58.8C20.6492 58.96 20.6792 59.11 20.7192 59.26C20.8892 59.88 20.6492 60.49 20.7192 61.1C20.4692 61.71 20.7992 62.31 20.7192 62.91C20.7392 63.51 20.5692 64.1 20.7092 64.68C20.7592 65.26 20.8092 65.84 20.6992 66.41C21.0892 66.98 20.5992 67.54 20.6792 68.1C20.5192 68.66 20.6992 69.2 20.6592 69.74C20.7292 70.28 20.4792 70.81 20.6392 71.33C20.6092 71.85 20.7692 72.37 20.6192 72.87C20.8092 73.37 20.4592 73.87 20.5892 74.36C20.5892 74.85 20.5992 75.32 20.5592 75.79C20.2592 76.26 20.5092 76.71 20.5292 77.16C20.5092 77.38 20.5592 77.6 20.5792 77.82C20.5992 77.96 20.5992 78.45 20.4992 78.73C20.4892 79.05 20.4492 79.34 20.4292 79.61C20.0592 79.58 19.7492 79.58 19.4392 79.64C19.2892 79.65 19.1192 79.63 18.9692 79.6L18.8592 79.57C18.8592 79.57 18.8092 79.55 18.7792 79.54C18.7292 79.52 18.6792 79.5 18.6392 79.48C18.4492 79.42 18.2492 79.39 18.0692 79.6C17.6892 79.67 17.3292 79.29 16.9792 79.56C16.6292 79.81 16.2892 79.53 15.9692 79.52C15.6492 79.51 15.3392 79.49 15.0392 79.48C12.3792 79.35 10.8492 79.2 10.8492 79.03C10.8492 78.85 12.7292 78.68 15.9692 78.54C16.2892 78.53 16.6292 78.31 16.9792 78.5C17.3292 78.5 17.6892 78.34 18.0692 78.46C18.2592 78.32 18.4492 78.31 18.6392 78.33C18.6892 78.33 18.7392 78.34 18.7792 78.35H18.8492L18.8792 78.38C18.9192 78.4 18.9592 78.42 18.9992 78.42C19.0792 78.42 19.1692 78.44 19.2692 78.44C19.2692 78.37 19.2692 78.27 19.2092 78.18C19.1292 78.06 19.1492 78.11 19.1692 77.82C19.1992 77.6 19.2292 77.38 19.1692 77.16C19.3392 76.71 19.2992 76.26 19.1392 75.79C19.3092 75.32 19.0992 74.85 19.1092 74.36C19.3692 73.87 19.1892 73.38 19.0792 72.87C18.9792 72.36 19.1192 71.85 19.0492 71.33C19.0992 70.81 18.9792 70.28 19.0292 69.74C18.9092 69.2 18.8592 68.65 19.0092 68.1C18.9292 67.54 18.9892 66.98 18.9892 66.41C18.8892 65.84 18.9992 65.26 18.9792 64.68C18.9292 64.1 19.2592 63.5 18.9692 62.91C18.9292 62.31 19.0192 61.71 18.9692 61.1C19.0092 60.49 19.0392 59.88 18.9692 59.26C19.0392 59.11 19.0792 58.95 19.0992 58.8C19.1092 58.72 19.1192 58.64 19.1192 58.57C19.1192 58.5 19.1192 58.39 19.1192 58.4C19.0992 58.32 19.0292 58.28 18.9692 58.3C18.8892 58.34 18.8792 58.35 18.8592 58.35H18.8292H18.7092H18.4792L18.0192 58.31C17.3992 58.34 16.7892 58.32 16.1792 58.31C15.5692 58.39 14.9692 58.19 14.3692 58.31C13.7692 58.43 13.1792 58.18 12.5992 58.3C12.4592 58.32 12.3092 58.34 12.1592 58.35L11.9392 58.37H11.8892C11.8892 58.37 11.8892 58.37 11.8792 58.37C11.8592 58.37 11.8492 58.35 11.7292 58.28C11.7292 58.28 11.6692 58.32 11.6292 58.39C11.6292 58.39 11.6292 58.41 11.6192 58.42C11.6192 58.43 11.6192 58.42 11.6192 58.47C11.6192 58.54 11.6192 58.61 11.6192 58.68C11.6292 58.82 11.6592 58.96 11.7192 59.1C11.7692 59.66 12.0892 60.2 11.6992 60.74C11.7992 61.28 11.5092 61.81 11.6792 62.34C11.3892 62.86 11.6592 63.38 11.6592 63.88C11.5992 64.39 11.5092 64.88 11.6292 65.37C11.7692 65.86 11.5492 66.33 11.5992 66.8C11.7692 67.27 11.3792 67.72 11.5692 68.17C11.5292 68.61 11.5992 69.05 11.5392 69.47C11.9292 69.89 11.5392 70.3 11.4992 70.7C11.4392 71.1 11.7592 71.49 11.4592 71.86C11.7492 72.23 11.4992 72.6 11.4192 72.95C11.3392 73.3 11.5392 73.64 11.3792 73.96C11.5892 74.28 11.2692 74.59 11.3392 74.89C11.1992 75.19 11.3392 75.47 11.2992 75.74C11.3492 76.01 11.3292 76.26 11.2492 76.5C11.2292 76.74 11.2192 76.96 11.1992 77.17C11.0992 78.41 10.9992 79.09 10.8892 79.09L10.8492 79.05Z" fill="#0061EF"/>
<path d="M12.6406 86.2901C12.6406 86.1801 13.4406 86.0801 14.9006 85.9801C15.1406 85.9601 15.4106 85.9501 15.6906 85.9301C15.9706 85.9001 16.2706 85.8701 16.5806 85.8801C16.8906 86.0201 17.2306 85.6101 17.5806 85.8301C17.9306 85.9001 18.2906 85.8301 18.6706 85.7901C19.0506 85.7401 19.4506 85.8801 19.8606 85.7501C20.2706 85.4701 20.7006 86.0601 21.1406 85.7101C21.5806 85.6301 22.0406 85.6501 22.5106 85.6701C22.9806 85.8801 23.4606 85.6701 23.9606 85.6301C24.4606 85.8901 24.9706 85.7801 25.4906 85.6001C26.0106 85.9501 26.5506 85.9001 27.1006 85.5701C27.6506 85.5601 28.2106 85.7001 28.7806 85.5401C29.3506 85.5201 29.9306 85.4501 30.5306 85.5101C31.1306 85.2701 31.7306 85.2801 32.3506 85.4901C32.9606 85.2401 33.5906 85.3401 34.2306 85.4701C34.8706 85.6101 35.5106 85.2501 36.1606 85.4501C36.8106 85.4701 37.4806 85.3901 38.1506 85.4301C38.8206 85.5301 39.5006 85.6501 40.1906 85.4201C40.8806 85.3601 41.5706 85.2701 42.2706 85.4101C42.9706 85.1401 43.6806 85.2601 44.4006 85.4101C45.1106 85.3601 45.8406 85.5601 46.5706 85.4101C47.3006 85.4501 48.0306 85.2901 48.7706 85.4101C49.5106 85.4901 50.2406 85.5701 50.9706 85.4101C51.7006 85.2401 52.4206 85.4801 53.1306 85.4101C53.8406 85.6601 54.5506 85.3301 55.2606 85.4101C55.9606 85.3901 56.6606 85.5601 57.3406 85.4201C58.0306 85.3701 58.7106 85.3201 59.3806 85.4301C60.0506 85.0401 60.7106 85.5301 61.3706 85.4501C62.0206 85.6101 62.6706 85.4201 63.3006 85.4701C63.9306 85.4001 64.5606 85.6501 65.1806 85.4901C65.8006 85.5201 66.4006 85.3601 66.9906 85.5101C67.5906 85.3201 68.1706 85.6701 68.7406 85.5401C69.3106 85.5401 69.8706 85.5301 70.4206 85.5701C70.9706 85.8701 71.5006 85.6201 72.0306 85.6001C72.5506 85.6301 73.0706 85.4301 73.5606 85.6301C74.0606 85.6501 74.5406 85.7901 75.0106 85.6701C75.4806 85.6301 75.9406 86.1101 76.3806 85.7101C76.8206 85.6401 77.2506 86.0201 77.6606 85.7501C78.0706 85.5001 78.4706 85.7801 78.8506 85.7901C79.2306 85.8101 79.6006 85.8201 79.9406 85.8301C83.0706 85.9601 84.8706 86.1201 84.8706 86.2801C84.8706 86.4601 82.6506 86.6301 78.8506 86.7701C78.4706 86.7801 78.0706 87.0001 77.6606 86.8101C77.2506 86.8101 76.8206 86.9701 76.3806 86.8501C75.9406 87.1301 75.4806 86.9001 75.0106 86.8901C74.5406 86.9001 74.0606 86.8101 73.5606 86.9301C73.0606 87.0901 72.5506 86.8501 72.0306 86.9601C71.5106 86.7901 70.9706 86.8301 70.4206 86.9901C69.8706 86.8201 69.3106 87.0301 68.7406 87.0201C68.1706 86.7601 67.5806 86.9401 66.9906 87.0501C66.4006 87.1401 65.7906 87.0101 65.1806 87.0701C64.5606 87.0201 63.9406 87.1401 63.3006 87.0901C62.6606 87.2101 62.0206 87.2601 61.3706 87.1101C60.7206 87.1901 60.0506 87.1301 59.3806 87.1301C58.7106 87.2301 58.0306 87.1201 57.3406 87.1401C56.6506 87.1901 55.9606 86.8601 55.2606 87.1501C54.5606 87.1901 53.8506 87.1001 53.1306 87.1501C52.4206 87.1101 51.6906 87.0701 50.9706 87.1501C50.2406 86.8701 49.5106 87.0401 48.7706 87.1501C48.0306 87.2301 47.3006 87.1901 46.5706 87.1501C45.8406 87.1801 45.1206 87.1601 44.4006 87.1501C43.6806 87.2301 42.9806 87.0301 42.2706 87.1501C41.5706 87.2701 40.8706 87.0201 40.1906 87.1401C39.5006 87.2201 38.8206 87.2701 38.1506 87.1301C37.4806 87.1301 36.8206 86.8701 36.1606 87.1101C35.5106 87.1701 34.8606 87.4901 34.2306 87.0901C33.5906 87.1901 32.9706 86.9001 32.3506 87.0701C31.7306 86.7801 31.1306 87.0601 30.5306 87.0501C29.9406 86.9901 29.3506 86.9001 28.7806 87.0201C28.2106 87.1601 27.6506 86.9401 27.1006 86.9901C26.5506 87.1601 26.0106 86.7701 25.4906 86.9601C24.9706 86.9201 24.4506 86.9801 23.9606 86.9301C23.4606 87.3201 22.9806 86.9301 22.5106 86.8901C22.0406 86.8301 21.5806 87.1501 21.1406 86.8501C20.7006 87.1401 20.2706 86.8901 19.8606 86.8101C19.4506 86.7201 19.0506 86.9301 18.6706 86.7701C18.2906 86.9801 17.9306 86.6601 17.5806 86.7301C17.2306 86.5901 16.9006 86.7301 16.5806 86.6801C16.2706 86.7301 15.9706 86.7101 15.6906 86.6301C15.4106 86.6101 15.1506 86.6001 14.9006 86.5801C13.4406 86.4801 12.6406 86.3801 12.6406 86.2701V86.2901Z" fill="#0061EF"/>
<path d="M0 86.2901C0 86.1801 0.02 86.0801 0.06 85.9801L0.08 85.9301C0.08 85.9301 0.09 85.8701 0.1 85.8801C0.1 86.0201 0.12 85.6101 0.12 85.8301C0.12 85.9001 0.14 85.8301 0.15 85.7901C0.15 85.7401 0.17 85.8801 0.18 85.7501C0.19 85.4701 0.2 86.0601 0.21 85.7101C0.22 85.6301 0.23 85.6501 0.24 85.6701C0.25 85.8801 0.26 85.6701 0.28 85.6301C0.29 85.8901 0.31 85.7801 0.32 85.6001C0.33 85.9501 0.35 85.9001 0.36 85.5701C0.37 85.5601 0.39 85.7001 0.4 85.5401C0.42 85.5201 0.43 85.4501 0.44 85.5101C0.46 85.2701 0.47 85.2801 0.49 85.4901C0.51 85.2401 0.52 85.3401 0.54 85.4701C0.56 85.6101 0.57 85.2501 0.59 85.4501C0.61 85.4701 0.62 85.3901 0.64 85.4301C0.66 85.5301 0.67 85.6501 0.69 85.4201C0.71 85.3601 0.72 85.2701 0.74 85.4101C0.76 85.1401 0.78 85.2601 0.79 85.4101C0.81 85.3601 0.83 85.5601 0.85 85.4101C0.87 85.4501 0.89 85.2901 0.91 85.4101C0.93 85.4901 0.95 85.5701 0.97 85.4101C0.99 85.2401 1.01 85.4801 1.02 85.4101C1.04 85.6601 1.06 85.3301 1.07 85.4101C1.09 85.3901 1.11 85.5601 1.12 85.4201C1.14 85.3701 1.16 85.3201 1.17 85.4301C1.19 85.0401 1.2 85.5301 1.22 85.4501C1.24 85.6101 1.25 85.4201 1.27 85.4701C1.29 85.4001 1.3 85.6501 1.32 85.4901C1.34 85.5201 1.35 85.3601 1.37 85.5101C1.38 85.3201 1.4 85.6701 1.41 85.5401C1.42 85.5401 1.44 85.5301 1.45 85.5701C1.46 85.8701 1.48 85.6201 1.49 85.6001C1.5 85.6301 1.52 85.4301 1.53 85.6301C1.54 85.6501 1.56 85.7901 1.57 85.6701C1.58 85.6301 1.59 86.1101 1.6 85.7101C1.61 85.6401 1.62 86.0201 1.63 85.7501C1.63 85.5001 1.65 85.7801 1.66 85.7901L1.69 85.8301C1.77 85.9601 1.81 86.1201 1.81 86.2801C1.81 86.4601 1.75 86.6301 1.66 86.7701C1.66 86.7801 1.64 87.0001 1.63 86.8101C1.62 86.8101 1.61 86.9701 1.6 86.8501C1.59 87.1301 1.58 86.9001 1.57 86.8901C1.56 86.9001 1.55 86.8101 1.53 86.9301C1.52 87.0901 1.51 86.8501 1.49 86.9601C1.48 86.7901 1.46 86.8301 1.45 86.9901C1.44 86.8201 1.42 87.0301 1.41 87.0201C1.4 86.7601 1.38 86.9401 1.37 87.0501C1.35 87.1401 1.34 87.0101 1.32 87.0701C1.3 87.0201 1.29 87.1401 1.27 87.0901C1.25 87.2101 1.24 87.2601 1.22 87.1101C1.2 87.1901 1.19 87.1301 1.17 87.1301C1.15 87.2301 1.14 87.1201 1.12 87.1401C1.1 87.1901 1.09 86.8601 1.07 87.1501C1.05 87.1901 1.03 87.1001 1.02 87.1501C1 87.1101 0.98 87.0701 0.97 87.1501C0.95 86.8701 0.93 87.0401 0.91 87.1501C0.89 87.2301 0.87 87.1901 0.85 87.1501C0.83 87.1801 0.81 87.1601 0.79 87.1501C0.77 87.2301 0.75 87.0301 0.74 87.1501C0.72 87.2701 0.71 87.0201 0.69 87.1401C0.67 87.2201 0.66 87.2701 0.64 87.1301C0.62 87.1301 0.61 86.8701 0.59 87.1101C0.57 87.1701 0.56 87.4901 0.54 87.0901C0.52 87.1901 0.51 86.9001 0.49 87.0701C0.47 86.7801 0.46 87.0601 0.44 87.0501C0.42 86.9901 0.41 86.9001 0.4 87.0201C0.39 87.1601 0.37 86.9401 0.36 86.9901C0.35 87.1601 0.33 86.7701 0.32 86.9601C0.31 86.9201 0.29 86.9801 0.28 86.9301C0.27 87.3201 0.26 86.9301 0.24 86.8901C0.23 86.8301 0.22 87.1501 0.21 86.8501C0.2 87.1401 0.19 86.8901 0.18 86.8101C0.17 86.7201 0.16 86.9301 0.15 86.7701C0.15 86.9801 0.13 86.6601 0.12 86.7301C0.12 86.5901 0.1 86.7301 0.1 86.6801C0.1 86.7301 0.08 86.7101 0.08 86.6301L0.06 86.5801C0.02 86.4801 0 86.3801 0 86.2701L0 86.2901Z" fill="#0061EF"/>
</g>
<defs>
<clipPath id="clip0_1032_14035">
<rect width="84.86" height="75.29" fill="white" transform="translate(0 12)"/>
</clipPath>
</defs>
</svg>
