<svg width="370" height="442" viewBox="0 0 370 442" fill="none" xmlns="http://www.w3.org/2000/svg">
<rect width="370" height="442" fill="url(#paint0_linear_4006_25920)"/>
<mask id="mask0_4006_25920" style="mask-type:alpha" maskUnits="userSpaceOnUse" x="0" y="0" width="370" height="442">
<rect width="370" height="442" fill="#C7E6FB"/>
</mask>
<g mask="url(#mask0_4006_25920)">
<mask id="mask1_4006_25920" style="mask-type:luminance" maskUnits="userSpaceOnUse" x="-540" y="-26" width="910" height="468">
<path d="M365.092 203.255L362.753 204.238L365.659 203.463L367.912 202.642L365.092 203.255ZM347.334 209.309C346.516 209.701 345.696 210.092 344.879 210.484C345.883 210.165 346.883 209.844 347.887 209.526L350.231 208.53L347.336 209.309H347.334ZM355.638 205.333L351.865 207.138C353.367 206.737 354.869 206.338 356.371 205.938C357.649 205.4 358.93 204.864 360.21 204.326L355.638 205.331V205.333ZM330.129 216.155L327.669 217.503L330.584 216.416C331.413 216.011 332.246 215.609 333.079 215.208L330.131 216.155H330.129ZM338.144 211.781C336.879 212.467 335.613 213.154 334.349 213.842C335.861 213.359 337.375 212.879 338.886 212.395C340.148 211.786 341.405 211.173 342.668 210.564L338.144 211.781ZM346.221 207.407L341.646 209.886C343.487 209.391 345.329 208.893 347.171 208.399C348.716 207.657 350.267 206.916 351.816 206.175C349.951 206.588 348.087 206.994 346.221 207.407ZM305.693 228.617L305.636 228.653L305.822 228.562L305.695 228.617H305.693ZM313.422 223.814C312.57 224.34 311.717 224.865 310.868 225.392L313.919 224.073L316.412 222.692L313.422 223.814ZM321.189 219.03L317.441 221.339L321.872 219.677C323.147 218.977 324.427 218.278 325.703 217.578L321.189 219.03ZM328.98 214.256C327.467 215.175 325.954 216.097 324.449 217.021L329.946 215.254C331.46 214.424 332.971 213.592 334.49 212.766C332.651 213.262 330.817 213.76 328.98 214.256ZM336.788 209.502L331.806 212.534C333.862 211.978 335.919 211.425 337.973 210.871C339.677 209.946 341.385 209.023 343.09 208.102C340.99 208.567 338.888 209.034 336.788 209.501V209.502ZM289.784 237.5L289.566 237.653L290.077 237.365L290.155 237.318L289.784 237.502V237.5ZM297.265 232.283L294.73 234.051L297.69 232.581C298.545 232.046 299.403 231.514 300.262 230.979L297.267 232.282L297.265 232.283ZM304.755 227.088C303.504 227.949 302.251 228.81 301.007 229.677C302.5 229.027 303.993 228.376 305.486 227.727C306.729 226.953 307.969 226.18 309.211 225.407L304.755 227.088ZM312.271 221.906L307.862 224.947C309.648 224.274 311.431 223.597 313.219 222.924C314.723 221.994 316.23 221.067 317.735 220.14L312.27 221.908L312.271 221.906ZM319.828 216.737C318.183 217.855 316.535 218.971 314.899 220.093C316.93 219.438 318.961 218.783 320.994 218.13C322.652 217.111 324.307 216.089 325.969 215.071L319.83 216.737H319.828ZM327.38 211.595C325.636 212.779 323.9 213.966 322.158 215.152L328.796 213.351C330.582 212.26 332.371 211.173 334.159 210.086C331.898 210.588 329.638 211.091 327.38 211.595ZM274.469 247.164L274.112 247.447L274.581 247.15L274.923 246.909L274.47 247.164H274.469ZM281.656 241.551C280.796 242.217 279.938 242.883 279.084 243.551L282.126 241.84L284.684 240.037C283.673 240.541 282.666 241.046 281.656 241.55V241.551ZM288.855 235.953L285.226 238.775C286.666 238.058 288.108 237.341 289.55 236.625C290.799 235.751 292.05 234.881 293.301 234.009C291.817 234.656 290.337 235.306 288.855 235.953ZM296.119 230.352C294.666 231.468 293.212 232.581 291.765 233.699C293.523 232.933 295.285 232.167 297.043 231.399C298.507 230.381 299.965 229.359 301.431 228.342L296.118 230.35L296.119 230.352ZM303.356 224.79C301.769 226.005 300.191 227.225 298.605 228.442C300.581 227.694 302.56 226.948 304.538 226.202C306.169 225.075 307.804 223.949 309.439 222.824L303.358 224.792L303.356 224.79ZM310.68 219.228C308.969 220.524 307.257 221.819 305.553 223.119L312.062 221.012C313.806 219.814 315.554 218.617 317.305 217.423C315.095 218.023 312.89 218.627 310.68 219.228ZM317.986 213.698C316.201 215.042 314.426 216.392 312.648 217.736L319.634 215.834C321.459 214.588 323.289 213.344 325.116 212.1L317.986 213.696V213.698ZM259.707 257.632L259.231 258.048L259.937 257.545L260.315 257.248L259.707 257.634V257.632ZM266.584 251.626C265.735 252.366 264.891 253.105 264.042 253.846L267.024 251.945C267.886 251.266 268.754 250.588 269.617 249.909L266.584 251.626ZM273.539 245.605C272.332 246.648 271.121 247.691 269.916 248.735L274.203 246.309C275.416 245.358 276.62 244.408 277.834 243.458L273.539 245.605ZM280.456 239.627C279.053 240.835 277.66 242.044 276.26 243.253L281.404 240.683C282.844 239.561 284.288 238.441 285.729 237.32L280.456 239.627ZM287.479 233.633C285.922 234.961 284.364 236.287 282.813 237.617L288.619 235.078C290.208 233.847 291.801 232.617 293.395 231.388L287.479 233.633ZM294.479 227.674C292.823 229.077 291.172 230.483 289.523 231.888L295.887 229.472L300.974 225.562C298.809 226.264 296.645 226.97 294.479 227.674ZM301.545 221.722C299.809 223.183 298.07 224.644 296.338 226.107L303.134 223.9C304.918 222.537 306.711 221.18 308.504 219.821L301.545 221.72V221.722ZM308.624 215.799C306.818 217.3 305.018 218.803 303.222 220.31C305.636 219.65 308.055 218.991 310.471 218.333C312.31 216.937 314.144 215.54 315.99 214.147L308.624 215.799ZM245.448 268.942L244.852 269.525L245.614 268.918L246.194 268.407L245.448 268.942ZM252.105 262.49L249.57 264.945C250.543 264.248 251.521 263.555 252.494 262.858C253.351 262.105 254.2 261.352 255.058 260.6L252.107 262.49H252.105ZM258.72 256.093C257.549 257.218 256.387 258.346 255.22 259.473L259.407 256.801L263.013 253.652L258.718 256.093H258.72ZM265.413 249.678C264.042 250.991 262.67 252.304 261.3 253.62L266.297 250.783C267.708 249.555 269.123 248.33 270.541 247.106L265.413 249.678ZM272.105 243.293C270.596 244.725 269.09 246.159 267.588 247.595L273.269 244.749L277.896 240.749L272.105 243.293ZM278.844 236.916C277.242 238.43 275.64 239.946 274.041 241.462L280.2 238.761C281.855 237.34 283.52 235.922 285.184 234.505L278.844 236.916ZM285.619 230.556C283.929 232.132 282.24 233.71 280.56 235.291C282.782 234.445 285.006 233.602 287.228 232.758C288.948 231.289 290.661 229.819 292.384 228.354L285.617 230.558L285.619 230.556ZM292.401 224.228C290.666 225.844 288.933 227.462 287.202 229.08L294.241 226.789C296.034 225.272 297.838 223.756 299.64 222.242L292.401 224.228ZM299.258 217.91C297.452 219.564 295.645 221.217 293.852 222.877L301.318 220.83C303.156 219.287 304.991 217.744 306.836 216.204L299.26 217.911L299.258 217.91ZM231.842 280.992L231.218 281.666L232 280.973L232.593 280.39L231.842 280.992ZM238.157 274.173C237.311 275.08 236.466 275.986 235.626 276.893L238.599 274.512L241.122 272.046L238.159 274.173H238.157ZM244.519 267.346L241.093 271.023L245.134 268.125C246.314 266.975 247.501 265.826 248.688 264.679L244.519 267.347V267.346ZM250.907 260.535C249.563 261.957 248.221 263.382 246.885 264.808L251.803 261.66C253.165 260.341 254.524 259.022 255.887 257.704L250.905 260.536L250.907 260.535ZM257.305 253.745L252.949 258.366L258.429 255.252C259.935 253.802 261.449 252.355 262.96 250.907C261.075 251.852 259.188 252.799 257.304 253.745H257.305ZM263.764 246.958C262.2 248.592 260.635 250.223 259.08 251.861L265.135 248.824C266.724 247.303 268.31 245.78 269.905 244.26L263.764 246.958ZM270.214 240.205C268.597 241.891 266.99 243.58 265.379 245.267L271.841 242.429C273.512 240.84 275.192 239.255 276.871 237.668L270.216 240.205H270.214ZM276.758 233.449C275.067 235.189 273.374 236.927 271.694 238.671L278.587 236.045C280.316 234.412 282.049 232.781 283.788 231.152L276.758 233.449ZM283.284 226.731C281.556 228.498 279.842 230.271 278.122 232.043L285.371 229.675C287.15 228.011 288.93 226.351 290.713 224.692L283.284 226.729V226.731ZM289.895 220.026C288.119 221.822 286.342 223.619 284.575 225.421L292.163 223.338C293.988 221.645 295.823 219.956 297.659 218.269L289.895 220.024V220.026ZM218.779 293.857L218.037 294.747L218.913 293.879L219.626 293.102L218.779 293.859V293.857ZM224.787 286.648L222.352 289.57L225.152 287.073C226.003 286.148 226.861 285.222 227.714 284.297L224.787 286.648ZM230.865 279.416C229.749 280.738 228.632 282.06 227.521 283.385C228.843 282.325 230.173 281.262 231.498 280.2C232.636 278.969 233.769 277.736 234.907 276.504L230.865 279.416ZM236.926 272.22C235.646 273.734 234.375 275.248 233.1 276.762L237.826 273.367C239.157 271.935 240.493 270.503 241.83 269.071L236.926 272.22ZM243.075 264.998C241.663 266.653 240.248 268.307 238.842 269.963L244.199 266.527C245.648 264.976 247.094 263.426 248.547 261.879L243.075 264.998ZM249.203 257.82C247.712 259.559 246.232 261.299 244.745 263.039L250.598 259.703C252.138 258.063 253.683 256.427 255.229 254.789L249.203 257.82ZM255.413 250.637C253.847 252.445 252.281 254.254 250.721 256.064C252.818 255.009 254.911 253.955 257.007 252.901C258.622 251.197 260.24 249.497 261.864 247.795L255.413 250.637ZM261.626 243.483C260.006 245.336 258.395 247.193 256.784 249.05L263.481 246.101C265.146 244.355 266.812 242.609 268.481 240.866L261.626 243.483ZM267.897 236.342C266.232 238.235 264.568 240.127 262.91 242.024L269.939 239.341C271.661 237.549 273.396 235.765 275.129 233.982L267.897 236.342ZM274.196 229.233C272.487 231.152 270.779 233.071 269.081 234.994L276.492 232.573C278.245 230.768 279.989 228.958 281.747 227.152L274.196 229.233ZM280.529 222.147C278.791 224.084 277.058 226.025 275.327 227.966L283.029 225.844C284.826 224.009 286.637 222.182 288.444 220.354L280.529 222.147ZM206.249 307.565C205.996 307.904 205.743 308.245 205.489 308.583L206.358 307.629L207.154 306.664L206.249 307.565ZM212.022 299.902C211.227 300.956 210.431 302.009 209.64 303.063L212.377 300.352C213.191 299.369 213.999 298.388 214.813 297.405L212.024 299.902H212.022ZM217.766 292.292C216.693 293.704 215.631 295.114 214.566 296.525L218.413 293.082C219.517 291.757 220.623 290.431 221.728 289.107L217.766 292.29V292.292ZM223.579 284.658C222.339 286.285 221.101 287.91 219.864 289.537L224.432 285.867C225.712 284.335 226.998 282.803 228.285 281.271L223.579 284.658ZM229.396 277.053C228.04 278.817 226.689 280.581 225.339 282.345L230.52 278.617L234.713 273.639L229.398 277.052L229.396 277.053ZM235.255 269.458C233.822 271.313 232.391 273.168 230.963 275.023L236.593 271.408C238.082 269.648 239.584 267.891 241.084 266.133L235.255 269.456V269.458ZM241.152 261.873C239.644 263.8 238.14 265.728 236.642 267.658L242.754 264.174C244.299 262.36 245.841 260.544 247.392 258.731L241.152 261.872V261.873ZM247.068 254.313C245.521 256.286 243.979 258.26 242.435 260.232L248.896 256.981C250.505 255.108 252.125 253.24 253.745 251.37L247.068 254.313ZM253.052 246.761C251.443 248.778 249.834 250.794 248.241 252.815L255.114 249.787C256.762 247.886 258.402 245.984 260.055 244.085L253.052 246.761ZM259.033 239.246C257.402 241.285 255.785 243.326 254.162 245.367L261.337 242.626C263.028 240.689 264.73 238.757 266.432 236.823L259.033 239.246ZM265.11 231.738C263.43 233.805 261.746 235.869 260.08 237.942L267.617 235.474C269.339 233.52 271.061 231.568 272.794 229.62L265.112 231.738H265.11ZM271.174 224.272C269.477 226.346 267.797 228.427 266.108 230.505L273.927 228.352C275.681 226.382 277.442 224.414 279.204 222.448L271.174 224.272ZM194.377 321.989L193.624 323.102L194.45 322.099L195.23 321.048L194.377 321.989ZM199.816 313.958C199.03 315.111 198.243 316.264 197.461 317.415L200.174 314.425L202.563 311.227L199.816 313.958ZM205.272 305.941L202.198 310.458L205.843 306.833C206.922 305.398 208.007 303.958 209.091 302.521L205.271 305.941H205.272ZM210.778 297.914C209.582 299.65 208.384 301.385 207.194 303.121C208.671 301.797 210.156 300.471 211.638 299.147C212.866 297.518 214.091 295.887 215.322 294.258L210.778 297.915V297.914ZM216.284 289.915C214.997 291.781 213.715 293.647 212.429 295.513L217.388 291.526C218.737 289.745 220.095 287.967 221.452 286.188L216.284 289.915ZM221.866 281.896C220.483 283.875 219.095 285.853 217.723 287.834L223.216 283.875C224.638 282.013 226.05 280.149 227.478 278.288L221.865 281.898L221.866 281.896ZM227.429 273.927C225.999 275.963 224.587 278.002 223.163 280.039L229.047 276.256C230.534 274.317 232.031 272.382 233.529 270.445L227.429 273.927ZM233.091 265.934C231.598 268.033 230.105 270.133 228.623 272.236L234.917 268.644C236.455 266.656 237.993 264.67 239.542 262.685L233.093 265.934H233.091ZM238.739 257.99C237.215 260.122 235.702 262.257 234.187 264.391L240.826 261.045C242.406 259.019 243.992 256.996 245.581 254.971L238.74 257.99H238.739ZM244.47 250.044C242.903 252.211 241.333 254.378 239.777 256.549L246.752 253.472C248.372 251.412 250.003 249.357 251.636 247.303L244.47 250.044ZM250.212 242.135C248.614 244.324 247.025 246.513 245.436 248.705L252.745 245.909C254.394 243.833 256.044 241.756 257.7 239.682L250.212 242.135ZM256.016 234.25C254.387 236.455 252.763 238.66 251.147 240.867L258.735 238.381C260.422 236.28 262.126 234.188 263.826 232.092L256.016 234.248V234.25ZM261.86 226.39C260.2 228.608 258.546 230.826 256.898 233.049L264.824 230.861C266.528 228.757 268.226 226.651 269.937 224.553L261.859 226.39H261.86ZM183.078 337.206L182.291 338.501L183.153 337.334L183.964 336.124L183.078 337.206ZM188.18 328.826C187.442 330.034 186.713 331.237 185.976 332.445L188.513 329.348C189.295 328.186 190.08 327.022 190.866 325.86L188.18 328.826ZM193.372 320.373C192.384 321.979 191.393 323.586 190.411 325.189L193.953 321.284C194.974 319.771 195.988 318.261 197.012 316.749L193.37 320.375L193.372 320.373ZM198.536 311.981C197.406 313.807 196.288 315.629 195.166 317.455L199.405 313.236C200.583 311.497 201.77 309.757 202.954 308.021L198.534 311.981H198.536ZM203.785 303.541C202.549 305.524 201.312 307.508 200.083 309.493L204.876 305.197C206.16 303.316 207.445 301.438 208.736 299.555L203.785 303.541ZM209.029 295.143C207.72 297.228 206.42 299.313 205.118 301.397L210.389 297.155C211.749 295.174 213.113 293.195 214.479 291.216L209.496 294.807L209.029 295.143ZM214.333 286.739C212.966 288.901 211.6 291.064 210.238 293.226L215.908 289.14C217.332 287.08 218.768 285.023 220.205 282.963L216.371 285.428L214.333 286.737V286.739ZM219.661 278.359C218.243 280.577 216.832 282.796 215.422 285.015L216.117 284.569L221.501 281.105C222.968 279 224.434 276.897 225.905 274.793L222.763 276.588L219.661 278.358V278.359ZM225.029 269.996C223.576 272.254 222.126 274.512 220.681 276.771L222.534 275.713L227.076 273.121C228.592 270.965 230.125 268.812 231.655 266.658L228.42 268.289L225.029 269.996ZM230.445 261.647C228.947 263.94 227.452 266.231 225.969 268.528L228.214 267.397L232.749 265.111C234.291 262.939 235.822 260.763 237.371 258.59L232.987 260.524L230.445 261.645V261.647ZM235.884 253.331C234.362 255.642 232.856 257.955 231.347 260.27L232.807 259.626L238.41 257.155C239.991 254.947 241.586 252.744 243.181 250.539L235.958 253.304L235.884 253.333V253.331ZM241.401 245.023C239.841 247.359 238.275 249.694 236.729 252.036L244.148 249.198C245.754 246.978 247.354 244.758 248.97 242.542L241.402 245.023H241.401ZM246.917 236.763C245.345 239.104 243.788 241.451 242.224 243.793L249.903 241.276C251.538 239.04 253.185 236.807 254.833 234.576L246.919 236.763H246.917ZM252.541 228.515C250.927 230.872 249.307 233.225 247.71 235.587L255.713 233.376C257.373 231.132 259.037 228.891 260.708 226.652L252.541 228.515ZM172.328 353.27L171.532 354.722L172.383 353.446L173.219 352.063L172.33 353.27H172.328ZM177.176 344.429L175.065 348.276L177.476 345.015C178.221 343.785 178.961 342.56 179.709 341.33L177.176 344.429ZM182.031 335.617C181.089 337.317 180.151 339.017 179.214 340.715L182.625 336.542L185.558 331.723L182.031 335.617ZM186.92 326.796C185.847 328.728 184.776 330.661 183.707 332.593L187.737 328.142C188.868 326.292 190.006 324.441 191.144 322.59L187.586 326.134L186.92 326.798V326.796ZM191.846 317.975C190.668 320.074 189.489 322.172 188.32 324.27L192.941 319.671C194.161 317.685 195.379 315.7 196.603 313.714L194.984 315.164L191.846 317.976V317.975ZM196.788 309.172C195.554 311.366 194.323 313.562 193.092 315.758L194.652 314.359L198.123 311.249C199.423 309.146 200.739 307.043 202.049 304.94L196.788 309.174V309.172ZM201.794 300.36C200.488 302.647 199.177 304.934 197.885 307.22L202.016 303.895L203.381 302.795C204.729 300.628 206.073 298.463 207.427 296.297L201.794 300.358V300.36ZM206.794 291.588C205.458 293.919 204.136 296.254 202.805 298.587L208.636 294.384C210.038 292.151 211.451 289.919 212.864 287.688L206.794 291.589V291.588ZM211.886 282.799C210.495 285.187 209.104 287.573 207.729 289.962L213.951 285.96C215.388 283.689 216.824 281.42 218.27 279.153L211.886 282.797V282.799ZM216.964 274.058C215.553 276.468 214.162 278.879 212.76 281.291L219.29 277.564C220.763 275.258 222.243 272.955 223.725 270.651L216.964 274.056V274.058ZM222.141 265.31C220.69 267.754 219.237 270.197 217.801 272.643L224.667 269.184C226.169 266.853 227.68 264.526 229.194 262.2L222.141 265.31ZM227.32 256.607C225.847 259.063 224.388 261.521 222.928 263.982L230.096 260.819C231.625 258.472 233.158 256.126 234.697 253.782L227.32 256.606V256.607ZM232.58 247.916C231.074 250.391 229.574 252.866 228.083 255.343L235.542 252.489C237.102 250.123 238.675 247.761 240.25 245.4L236.56 246.61L232.58 247.914V247.916ZM237.862 239.266C236.335 241.747 234.818 244.229 233.306 246.717L236.422 245.696L241.072 244.173C242.65 241.803 244.225 239.434 245.812 237.07L237.862 239.268V239.266ZM243.212 230.642C241.659 233.13 240.115 235.62 238.579 238.113L246.596 235.897C248.203 233.513 249.836 231.138 251.461 228.761L243.212 230.643V230.642ZM162.209 370.065L161.475 371.566L162.217 370.333L163.049 368.802L162.209 370.067V370.065ZM166.751 360.833C166.077 362.201 165.399 363.569 164.729 364.935L167.064 361.426L169.172 357.552L166.751 360.833ZM171.286 351.642C170.408 353.42 169.535 355.195 168.657 356.972L171.859 352.628C172.794 350.917 173.736 349.203 174.676 347.49L172.917 349.644L171.286 351.642ZM175.892 342.397C174.872 344.44 173.848 346.483 172.835 348.524L176.716 343.774C177.779 341.837 178.836 339.904 179.905 337.967L175.892 342.397ZM180.48 333.207C179.38 335.402 178.292 337.593 177.194 339.785L179.829 336.878L181.582 334.94C182.744 332.837 183.913 330.732 185.082 328.625L180.48 333.206V333.207ZM185.149 323.976C183.974 326.294 182.8 328.611 181.633 330.927L186.48 326.101C187.709 323.89 188.939 321.681 190.175 319.47L185.147 323.976H185.149ZM189.815 314.784C188.593 317.176 187.382 319.569 186.167 321.962L191.421 317.254C192.701 314.967 193.986 312.678 195.274 310.39L189.813 314.784H189.815ZM194.546 305.582C193.279 308.041 192.013 310.501 190.755 312.96L196.372 308.438C197.699 306.085 199.037 303.734 200.376 301.381L194.546 305.582ZM199.299 296.405C197.994 298.909 196.695 301.416 195.401 303.922L201.389 299.608C202.749 297.217 204.111 294.827 205.478 292.438L199.301 296.407L199.299 296.405ZM204.103 287.239C202.767 289.78 201.436 292.319 200.11 294.862C202.203 293.517 204.303 292.166 206.4 290.818C207.798 288.383 209.215 285.951 210.627 283.516L204.105 287.239H204.103ZM208.949 278.093C207.578 280.663 206.211 283.232 204.854 285.803L211.5 282.011C212.92 279.561 214.335 277.11 215.766 274.664L208.951 278.093H208.949ZM213.829 268.976C212.438 271.561 211.057 274.148 209.676 276.734L216.59 273.252C218.044 270.771 219.519 268.296 220.99 265.817L213.829 268.975V268.976ZM218.783 259.874C217.355 262.479 215.928 265.082 214.519 267.692L221.781 264.489C223.254 262.005 224.721 259.517 226.205 257.034L218.784 259.874H218.783ZM223.748 250.81C222.308 253.421 220.885 256.033 219.454 258.645L226.965 255.77C228.469 253.266 229.987 250.767 231.507 248.266L223.748 250.809V250.81ZM228.812 241.769C227.334 244.39 225.849 247.009 224.39 249.639L232.233 247.067C233.756 244.561 235.277 242.057 236.813 239.556L233.587 240.448L228.812 241.77V241.769ZM233.871 232.774C232.385 235.39 230.924 238.016 229.447 240.638L233.469 239.525L237.528 238.403C239.075 235.89 240.635 233.381 242.197 230.873L233.869 232.774H233.871ZM152.701 387.616L151.999 389.214L152.736 387.851L153.492 386.297L152.701 387.616ZM156.912 378.029C156.276 379.464 155.647 380.898 155.016 382.333L157.222 378.656L159.238 374.532L158.774 375.23L156.912 378.03V378.029ZM161.167 368.407C160.338 370.278 159.511 372.151 158.684 374.023L161.716 369.463C162.598 367.666 163.482 365.868 164.368 364.067L161.167 368.407ZM165.439 358.797C164.482 360.937 163.528 363.075 162.58 365.213L165.326 361.49L166.273 360.206L169.295 354.079L165.44 358.797H165.439ZM169.739 349.19C168.708 351.494 167.677 353.796 166.646 356.098L170.812 351C171.91 348.785 173.017 346.565 174.125 344.347L169.737 349.192L169.739 349.19ZM174.081 339.577C172.977 342.009 171.874 344.44 170.779 346.87L175.43 341.733C176.587 339.417 177.738 337.1 178.898 334.784C177.292 336.38 175.681 337.987 174.081 339.579V339.577ZM178.443 329.979C177.299 332.491 176.159 334.999 175.023 337.51L180.029 332.525C181.242 330.112 182.467 327.699 183.693 325.282L178.445 329.979H178.443ZM182.869 320.366C181.671 322.953 180.469 325.539 179.287 328.126L184.711 323.266C185.958 320.806 187.195 318.347 188.449 315.884L182.871 320.364L182.869 320.366ZM187.297 310.797C186.078 313.418 184.869 316.041 183.658 318.664L189.388 314.06C190.675 311.539 191.975 309.018 193.275 306.498L187.297 310.797ZM191.81 301.21C190.544 303.882 189.275 306.554 188.024 309.228L194.126 304.841C195.443 302.289 196.755 299.738 198.081 297.188L191.81 301.21ZM196.314 291.675C195.034 294.362 193.773 297.051 192.504 299.739C194.632 298.373 196.761 297.011 198.892 295.643C200.238 293.06 201.592 290.477 202.95 287.896L196.314 291.677V291.675ZM200.927 282.126C199.608 284.846 198.286 287.564 196.985 290.285L203.703 286.458C205.072 283.854 206.451 281.252 207.835 278.651L200.927 282.124V282.126ZM205.531 272.63C204.196 275.355 202.88 278.086 201.558 280.815L208.56 277.294C209.955 274.677 211.355 272.061 212.76 269.445L205.531 272.628V272.63ZM210.233 263.139C208.867 265.883 207.502 268.626 206.154 271.375L213.449 268.163C214.871 265.531 216.304 262.902 217.739 260.274L210.233 263.141V263.139ZM214.951 253.694C213.568 256.441 212.197 259.192 210.826 261.943L218.412 259.044C219.852 256.409 221.292 253.773 222.743 251.141L214.951 253.694ZM219.748 244.275C218.339 247.027 216.932 249.782 215.539 252.542L223.387 249.97C224.852 247.323 226.34 244.682 227.825 242.042L219.748 244.275ZM224.588 234.894C223.156 237.646 221.732 240.402 220.315 243.162L228.463 240.909C229.947 238.27 231.422 235.627 232.915 232.991L225.032 234.791L224.588 234.894ZM143.791 405.931L143.117 407.652L143.815 406.214L144.552 404.523L143.791 405.931ZM147.686 395.974L145.939 400.441L147.966 396.685C148.603 395.231 149.243 393.77 149.883 392.313L147.686 395.974ZM151.638 385.952C150.859 387.919 150.077 389.887 149.308 391.848L151.512 388.174L152.198 387.032C153.019 385.157 153.838 383.287 154.661 381.41L151.639 385.954L151.638 385.952ZM155.578 375.987C154.696 378.209 153.825 380.425 152.947 382.645L156.414 377.434C157.362 375.289 158.314 373.136 159.267 370.986L155.58 375.987H155.578ZM159.594 365.946C158.624 368.365 157.651 370.785 156.689 373.2L160.678 367.792C161.702 365.483 162.72 363.177 163.748 360.868L159.593 365.948L159.594 365.946ZM163.6 355.961C162.577 358.496 161.567 361.026 160.551 363.56C162.017 361.769 163.489 359.963 164.959 358.166C166.042 355.733 167.137 353.296 168.23 350.859C166.684 352.565 165.142 354.259 163.6 355.959V355.961ZM167.682 345.93C166.606 348.566 165.529 351.202 164.466 353.836L169.268 348.539C170.401 346.016 171.537 343.493 172.683 340.967C171.014 342.625 169.35 344.276 167.682 345.93ZM171.763 335.951C170.654 338.647 169.555 341.339 168.453 344.033C170.175 342.322 171.894 340.621 173.617 338.906C174.792 336.318 175.968 333.727 177.149 331.135L171.763 335.951ZM175.912 325.951C174.767 328.702 173.623 331.451 172.488 334.2L177.994 329.28C179.201 326.637 180.42 323.994 181.642 321.351C179.732 322.885 177.821 324.421 175.914 325.95L175.912 325.951ZM180.081 315.985C178.905 318.774 177.739 321.561 176.576 324.35L182.427 319.653C183.662 316.979 184.895 314.305 186.138 311.631C184.12 313.082 182.098 314.538 180.083 315.985H180.081ZM184.305 306.023C183.105 308.842 181.909 311.662 180.718 314.482C182.764 313.013 184.813 311.538 186.86 310.064C188.128 307.349 189.411 304.639 190.693 301.926C188.566 303.293 186.433 304.663 184.305 306.025V306.023ZM188.578 296.08C187.347 298.926 186.122 301.77 184.905 304.617C187.064 303.234 189.228 301.843 191.39 300.456C192.675 297.733 193.953 295.008 195.246 292.283C193.024 293.548 190.799 294.818 188.578 296.078V296.08ZM192.888 286.166C191.639 289.025 190.397 291.885 189.16 294.745C191.404 293.468 193.655 292.184 195.903 290.905C197.217 288.151 198.556 285.4 199.89 282.65C197.557 283.823 195.221 284.997 192.89 286.166H192.888ZM197.266 276.269C195.985 279.144 194.701 282.019 193.439 284.897C195.799 283.713 198.161 282.522 200.523 281.336C201.856 278.582 203.174 275.828 204.52 273.075C202.103 274.14 199.683 275.206 197.268 276.267L197.266 276.269ZM201.67 266.41C200.376 269.287 199.096 272.167 197.812 275.047L205.14 271.822C206.498 269.049 207.878 266.282 209.256 263.513L201.672 266.41H201.67ZM206.171 256.567C204.84 259.457 203.505 262.344 202.194 265.239L209.849 262.315C211.228 259.544 212.6 256.773 213.989 254.008L206.171 256.567ZM210.673 246.783C209.335 249.663 208.016 252.552 206.691 255.436L214.577 252.855C215.979 250.077 217.397 247.305 218.814 244.532L210.673 246.783ZM215.299 237.015C213.922 239.904 212.535 242.788 211.178 245.688L219.381 243.421C220.803 240.645 222.227 237.872 223.665 235.105L215.297 237.015H215.299ZM210.287 245.933C211.647 243.02 213.035 240.12 214.419 237.216L205.996 239.14C204.692 242.153 203.396 245.17 202.11 248.189L210.287 245.933ZM205.776 255.735C207.109 252.832 208.436 249.926 209.784 247.027L201.645 249.273C200.363 252.29 199.096 255.31 197.834 258.333L205.776 255.735ZM201.267 265.595C202.583 262.68 203.92 259.774 205.256 256.868L197.372 259.446C196.112 262.464 194.857 265.485 193.615 268.509C196.165 267.539 198.714 266.569 201.267 265.595ZM196.857 275.468C198.15 272.566 199.439 269.664 200.745 266.764C198.208 267.732 195.674 268.695 193.139 269.66C191.906 272.674 190.688 275.691 189.471 278.708C191.935 277.628 194.395 276.552 196.859 275.468H196.857ZM192.466 285.384C193.737 282.484 195.023 279.585 196.312 276.689C193.87 277.761 191.431 278.83 188.993 279.899C187.778 282.912 186.56 285.926 185.362 288.943C187.729 287.759 190.097 286.575 192.466 285.386V285.384ZM188.149 295.318C189.399 292.429 190.655 289.541 191.917 286.654C189.564 287.834 187.215 289.008 184.864 290.183C183.676 293.18 182.511 296.181 181.338 299.181C183.607 297.895 185.876 296.609 188.149 295.318ZM183.867 305.281C185.095 302.403 186.329 299.528 187.569 296.653C185.324 297.93 183.08 299.199 180.834 300.473C179.663 303.466 178.489 306.459 177.332 309.454C179.511 308.064 181.685 306.676 183.867 305.281ZM179.634 315.262C180.838 312.404 182.054 309.544 183.273 306.685C181.112 308.068 178.958 309.442 176.801 310.819C175.665 313.783 174.55 316.749 173.421 319.713C175.492 318.23 177.561 316.751 179.634 315.262ZM175.454 325.251C176.632 322.422 177.809 319.594 178.996 316.765C176.954 318.232 174.916 319.686 172.877 321.147C171.752 324.102 170.619 327.055 169.512 330.01C171.492 328.427 173.472 326.841 175.452 325.253L175.454 325.251ZM171.299 335.265C172.454 332.463 173.621 329.658 174.788 326.854C172.839 328.417 170.892 329.975 168.946 331.531C167.859 334.442 166.79 337.348 165.711 340.258C167.571 338.598 169.437 336.929 171.299 335.265ZM167.204 345.274C168.328 342.521 169.442 339.769 170.572 337.014C168.748 338.643 166.922 340.272 165.102 341.896C164.033 344.776 162.96 347.656 161.906 350.534L167.204 345.274ZM163.115 355.323C164.211 352.608 165.322 349.89 166.431 347.173C164.709 348.882 162.984 350.598 161.264 352.304C160.24 355.113 159.224 357.92 158.207 360.729L163.117 355.323H163.115ZM159.1 365.329C160.155 362.697 161.204 360.065 162.264 357.431L157.496 362.681C156.498 365.432 155.501 368.18 154.514 370.926C156.041 369.063 157.569 367.203 159.1 365.329ZM155.074 375.391C156.089 372.837 157.118 370.276 158.145 367.715C156.676 369.51 155.212 371.298 153.745 373.084C152.799 375.73 151.856 378.373 150.916 381.016C152.299 379.145 153.687 377.27 155.074 375.389V375.391ZM151.127 385.38L153.987 378.144C152.667 379.931 151.352 381.706 150.037 383.483C149.137 386.009 148.241 388.532 147.352 391.054L151.127 385.381V385.38ZM147.168 395.416C148.048 393.176 148.934 390.934 149.819 388.687L146.353 393.885C145.535 396.211 144.719 398.535 143.904 400.857L147.168 395.414V395.416ZM143.262 405.397C144.03 403.434 144.799 401.47 145.568 399.505L142.697 404.293C141.982 406.333 141.269 408.37 140.56 410.406L143.262 405.399V405.397ZM139.355 415.415C139.944 413.904 140.526 412.401 141.117 410.888L139.086 414.651L137.462 419.324L138.629 416.914L139.357 415.417L139.355 415.415ZM135.476 425.393L136.187 423.563L135.473 425.039L134.84 426.857L135.476 425.393ZM-498.428 441.871H-503.408C-515.215 439.591 -527.134 437.006 -539.16 434.13V433.158C-525.445 436.441 -511.86 439.363 -498.428 441.871ZM-539.16 336.412C-286.01 348.701 -41.0079 294.555 205.6 238.281C247.452 141.569 299.103 48.7742 369.999 -26V-24.7669C299.545 49.6662 248.128 141.915 206.445 238.088L214.922 236.152C256.065 149.52 305.333 66.216 369.999 -2.80326V-1.58113C305.769 67.0843 256.756 149.852 215.804 235.952L224.232 234.029C264.346 156.966 311.097 82.6856 369.999 19.5635V20.7638C311.531 83.521 265.055 157.281 225.154 233.817L233.527 231.906C272.303 163.888 316.432 98.1738 369.999 41.0383V42.2477C316.87 99.0001 273.034 164.191 234.498 231.685L242.884 229.77C280.027 170.258 321.414 112.626 369.999 61.4661V62.6336C321.847 113.405 280.778 170.537 243.897 229.538L252.231 227.637C287.482 176.04 326.043 125.954 369.999 80.6645V81.8374C326.489 126.722 288.268 176.304 253.309 227.391L261.569 225.509C294.707 181.218 330.373 138.121 370.001 98.5021V99.6549C330.831 138.856 295.534 181.459 262.722 225.244L270.899 223.385C301.722 185.791 334.435 149.122 370.001 114.93V116.077C334.915 149.839 302.602 186.01 272.143 223.101L280.269 221.255C308.591 189.764 338.299 158.979 370.001 129.913V131.016C338.792 159.652 309.52 189.958 281.595 220.956L289.652 219.13C315.328 193.148 341.986 167.689 370.001 143.391V144.483C342.512 168.34 316.332 193.314 291.103 218.802L299.032 217.012C321.943 195.953 345.527 175.268 370.001 155.344V156.426C346.094 175.898 323.038 196.092 300.629 216.653L308.408 214.9C328.458 198.202 348.949 181.764 370.001 165.803V166.867C349.574 182.36 329.676 198.303 310.197 214.497C312.726 213.928 315.257 213.362 317.788 212.795C334.899 199.924 352.284 187.227 370.001 174.812V175.859C352.976 187.792 336.261 199.986 319.799 212.344C322.265 211.792 324.727 211.239 327.193 210.69C341.296 201.145 355.555 191.705 369.999 182.424V183.455C356.337 192.236 342.837 201.157 329.482 210.177C331.858 209.647 334.235 209.121 336.611 208.592C347.656 201.896 358.782 195.262 369.999 188.704V189.709C359.673 195.747 349.423 201.85 339.243 208.007C341.514 207.503 343.785 206.994 346.058 206.493C354.002 202.204 361.983 197.945 369.999 193.719V194.709C363.03 198.385 356.089 202.086 349.174 205.807C351.276 205.342 353.38 204.88 355.484 204.417C360.311 202.111 365.15 199.818 369.999 197.533V198.511C366.428 200.194 362.864 201.881 359.306 203.574L364.943 202.336C366.628 201.632 368.314 200.928 369.999 200.225V201.201L369.821 201.276L369.999 201.236V203.509C365.646 204.873 361.295 206.241 356.949 207.615C351.109 209.761 345.274 211.918 339.448 214.083C333.842 216.47 328.247 218.867 322.661 221.273C317.108 223.989 311.564 226.713 306.035 229.445C300.783 232.367 295.545 235.299 290.317 238.233C285.146 241.486 279.987 244.742 274.843 248.003C269.959 251.456 265.092 254.913 260.235 258.371C255.456 262.151 250.692 265.934 245.946 269.717C241.382 273.743 236.838 277.77 232.309 281.796C227.952 286.073 223.616 290.353 219.294 294.628C215.095 299.21 210.915 303.789 206.751 308.364C202.778 313.176 198.823 317.984 194.886 322.783C191.102 327.868 187.342 332.943 183.594 338.01C180.001 343.371 176.425 348.723 172.866 354.06C169.459 359.706 166.07 365.337 162.698 370.949C159.529 376.792 156.38 382.614 153.243 388.419C150.254 394.557 147.286 400.673 144.331 406.765C141.548 413.155 138.782 419.519 136.031 425.856C133.953 431.211 131.883 436.55 129.825 441.869H128.323L131.349 434.901L132.974 430.192C131.078 434.101 129.19 437.988 127.303 441.869H126.516C129.31 436.124 132.111 430.356 134.924 424.552C135.633 422.501 136.353 420.44 137.069 418.383C132.805 426.274 128.565 434.099 124.334 441.869H123.517C128.505 432.711 133.509 423.461 138.544 414.136C139.353 411.814 140.153 409.501 140.966 407.176C133.934 418.881 126.952 430.449 119.99 441.869H119.133C126.776 429.342 134.442 416.622 142.168 403.752C143.053 401.225 143.946 398.692 144.839 396.16C134.505 411.655 124.261 426.917 114.037 441.869H113.135C123.986 426.013 134.858 409.795 145.833 393.329C146.768 390.675 147.703 388.023 148.646 385.365C134.402 404.627 120.295 423.526 106.192 441.869H105.234C119.944 422.753 134.656 403.015 149.525 382.901C150.501 380.15 151.485 377.397 152.468 374.645C133.552 397.712 114.846 420.256 96.0933 441.871H95.046C114.402 419.588 133.705 396.315 153.238 372.485C154.25 369.662 155.265 366.838 156.289 364.011C131.791 390.947 107.587 417.133 83.2432 441.869H82.1159C107.074 416.546 131.878 389.688 156.998 362.057C158.04 359.18 159.082 356.302 160.133 353.422C128.943 384.314 98.1626 414.211 67.062 441.869H65.8129C97.5498 413.7 128.945 383.196 160.773 351.658C161.844 348.727 162.929 345.794 164.015 342.861C124.726 377.864 85.9889 411.55 46.6314 441.869H45.2477C85.2816 411.106 124.663 376.839 164.622 341.222C165.717 338.267 166.808 335.312 167.908 332.356C118.737 371.683 70.2932 409.291 20.7403 441.868H19.1475C69.4404 408.916 118.577 370.756 168.472 330.836C169.592 327.845 170.734 324.855 171.87 321.864C110.407 365.868 49.8971 407.646 -12.5131 441.868H-14.3405C48.8988 407.347 110.16 365.016 172.412 320.43C173.55 317.431 174.679 314.432 175.828 311.435C98.7208 360.674 22.866 407.062 -56.1982 441.868H-58.4747C21.5859 406.864 98.3171 359.921 176.345 310.08C177.51 307.054 178.7 304.031 179.883 301.007C81.7613 356.638 -14.6878 408.523 -116.655 441.868H-119.679C-16.4206 408.5 81.1195 356.01 180.387 299.716C181.567 296.693 182.734 293.669 183.929 290.646C53.9228 355.704 -73.6941 415.543 -211.81 441.868H-216.809C-76.5906 416.013 52.6737 355.35 184.425 289.404C185.633 286.363 186.86 283.328 188.084 280.291C-42.319 381.325 -266.723 469.712 -539.16 416.471V415.501C-266.532 468.8 -42.0135 380.228 188.564 279.104C189.788 276.068 191.006 273.033 192.242 270C-42.5444 359.377 -272.498 439.006 -539.16 397.927V396.961C-272.318 438.084 -42.2371 358.305 192.721 268.849C193.968 265.806 195.235 262.767 196.501 259.73C-42.4208 337.757 -277.639 408.715 -539.16 378.488V377.534C-277.475 407.792 -42.1226 336.708 196.961 258.617C198.228 255.58 199.494 252.543 200.779 249.512C-42.0171 316.488 -282.192 378.922 -539.16 358.283V357.329C-282.033 377.992 -41.7153 315.457 201.245 248.43C202.534 245.393 203.84 242.363 205.149 239.333C-41.3007 295.568 -286.157 349.628 -539.16 337.348V336.412Z" fill="white"/>
</mask>
<g mask="url(#mask1_4006_25920)">
<path d="M370.001 -44.2646H-539.16V451.315H370.001V-44.2646Z" fill="url(#paint1_linear_4006_25920)"/>
</g>
</g>
<defs>
<linearGradient id="paint0_linear_4006_25920" x1="252.212" y1="1.25829e-05" x2="-35.3792" y2="72.3002" gradientUnits="userSpaceOnUse">
<stop stop-color="#C7E6FB"/>
<stop offset="1" stop-color="#FFDDFC"/>
</linearGradient>
<linearGradient id="paint1_linear_4006_25920" x1="-454.619" y1="256.145" x2="268.97" y2="153.842" gradientUnits="userSpaceOnUse">
<stop offset="0.0913462" stop-color="#2AABEE"/>
<stop offset="1" stop-color="#FF6699"/>
</linearGradient>
</defs>
</svg>
