<svg width="1112" height="442" viewBox="0 0 1112 442" fill="none" xmlns="http://www.w3.org/2000/svg">
<rect width="1112" height="442" fill="url(#paint0_linear_4002_25901)"/>
<mask id="mask0_4002_25901" style="mask-type:alpha" maskUnits="userSpaceOnUse" x="0" y="0" width="1112" height="442">
<rect width="1112" height="442" fill="#C7E6FB"/>
</mask>
<g mask="url(#mask0_4002_25901)">
<mask id="mask1_4002_25901" style="mask-type:luminance" maskUnits="userSpaceOnUse" x="-152" y="-183" width="1264" height="651">
<path d="M1105.17 136.125L1101.92 137.492L1105.96 136.414L1109.1 135.273L1105.17 136.125ZM1080.49 144.542C1079.35 145.087 1078.21 145.63 1077.07 146.175C1078.47 145.731 1079.86 145.285 1081.25 144.844L1084.51 143.459L1080.49 144.542H1080.49ZM1092.03 139.013L1086.79 141.524C1088.87 140.966 1090.96 140.411 1093.05 139.855C1094.83 139.107 1096.61 138.361 1098.39 137.613L1092.03 139.011V139.013ZM1056.57 154.059L1053.15 155.933L1057.2 154.422C1058.35 153.859 1059.51 153.301 1060.67 152.743L1056.57 154.059H1056.57ZM1067.71 147.978C1065.95 148.932 1064.19 149.888 1062.43 150.844C1064.53 150.172 1066.64 149.505 1068.74 148.833C1070.5 147.986 1072.24 147.134 1074 146.287L1067.71 147.978ZM1078.94 141.897L1072.58 145.343C1075.14 144.656 1077.7 143.964 1080.26 143.276C1082.41 142.244 1084.56 141.214 1086.72 140.185C1084.12 140.758 1081.53 141.324 1078.94 141.897ZM1022.59 171.385L1022.51 171.436L1022.77 171.309L1022.6 171.385H1022.59ZM1033.34 164.708C1032.15 165.438 1030.97 166.169 1029.79 166.902L1034.03 165.068L1037.5 163.148L1033.34 164.708ZM1044.14 158.056L1038.93 161.267L1045.09 158.956C1046.86 157.983 1048.64 157.011 1050.41 156.037L1044.14 158.056ZM1054.97 151.419C1052.87 152.697 1050.76 153.978 1048.67 155.264L1056.31 152.807C1058.42 151.653 1060.52 150.496 1062.63 149.347C1060.07 150.037 1057.52 150.73 1054.97 151.419ZM1065.82 144.811L1058.9 149.025C1061.76 148.252 1064.62 147.483 1067.47 146.713C1069.84 145.427 1072.21 144.144 1074.59 142.863C1071.67 143.51 1068.74 144.159 1065.82 144.808V144.811ZM1000.48 183.736L1000.17 183.949L1000.88 183.548L1000.99 183.482L1000.48 183.738V183.736ZM1010.88 176.483L1007.35 178.94L1011.47 176.896C1012.65 176.153 1013.85 175.412 1015.04 174.669L1010.88 176.48L1010.88 176.483ZM1021.29 169.26C1019.55 170.457 1017.81 171.654 1016.08 172.859C1018.15 171.956 1020.23 171.05 1022.3 170.148C1024.03 169.072 1025.76 167.997 1027.48 166.922L1021.29 169.26ZM1031.74 162.055L1025.61 166.283C1028.09 165.347 1030.57 164.406 1033.06 163.47C1035.15 162.177 1037.24 160.889 1039.34 159.6L1031.74 162.058L1031.74 162.055ZM1042.25 154.868C1039.96 156.423 1037.67 157.975 1035.39 159.535C1038.22 158.624 1041.04 157.714 1043.87 156.806C1046.17 155.388 1048.47 153.968 1050.78 152.553L1042.25 154.868H1042.25ZM1052.74 147.719C1050.32 149.365 1047.91 151.016 1045.48 152.665L1054.71 150.162C1057.2 148.645 1059.68 147.134 1062.17 145.622C1059.03 146.319 1055.88 147.019 1052.74 147.719ZM979.182 197.171L978.686 197.564L979.339 197.151L979.814 196.816L979.184 197.171H979.182ZM989.175 189.368C987.979 190.294 986.786 191.219 985.598 192.147L989.827 189.769L993.384 187.263C991.978 187.963 990.578 188.666 989.175 189.365V189.368ZM999.183 181.585L994.137 185.508C996.139 184.512 998.144 183.515 1000.15 182.518C1001.89 181.304 1003.62 180.094 1005.36 178.882C1003.3 179.782 1001.24 180.685 999.183 181.585ZM1009.28 173.797C1007.26 175.349 1005.24 176.896 1003.23 178.451C1005.67 177.385 1008.12 176.32 1010.57 175.253C1012.6 173.838 1014.63 172.417 1016.67 171.002L1009.28 173.794L1009.28 173.797ZM1019.34 166.065C1017.14 167.754 1014.94 169.45 1012.74 171.142C1015.49 170.102 1018.24 169.065 1020.99 168.028C1023.25 166.46 1025.53 164.896 1027.8 163.331L1019.35 166.067L1019.34 166.065ZM1029.53 158.332C1027.15 160.133 1024.77 161.934 1022.4 163.742L1031.45 160.813C1033.87 159.147 1036.3 157.483 1038.74 155.822C1035.66 156.656 1032.6 157.496 1029.53 158.332ZM1039.68 150.643C1037.2 152.512 1034.73 154.389 1032.26 156.258L1041.97 153.613C1044.51 151.881 1047.06 150.151 1049.6 148.422L1039.68 150.641V150.643ZM958.659 211.725L957.997 212.304L958.978 211.604L959.504 211.19L958.659 211.728V211.725ZM968.22 203.374C967.04 204.404 965.867 205.431 964.686 206.461L968.832 203.818C970.03 202.875 971.236 201.931 972.437 200.988L968.22 203.374ZM977.89 195.003C976.211 196.454 974.528 197.904 972.852 199.355L978.813 195.982C980.499 194.661 982.172 193.339 983.861 192.018L977.89 195.003ZM987.506 186.692C985.555 188.371 983.618 190.053 981.672 191.734L988.823 188.161C990.826 186.601 992.833 185.044 994.838 183.484L987.506 186.692ZM997.27 178.359C995.106 180.205 992.939 182.049 990.783 183.898L998.855 180.368C1001.06 178.656 1003.28 176.947 1005.5 175.237L997.27 178.359ZM1007 170.074C1004.7 172.024 1002.4 173.98 1000.11 175.932L1008.96 172.575L1016.03 167.137C1013.02 168.114 1010.01 169.095 1007 170.074ZM1016.83 161.799C1014.41 163.83 1012 165.862 1009.59 167.896L1019.04 164.827C1021.52 162.933 1024.01 161.046 1026.5 159.157L1016.83 161.797V161.799ZM1026.67 153.565C1024.16 155.652 1021.65 157.742 1019.16 159.836C1022.51 158.918 1025.88 158.003 1029.24 157.087C1031.79 155.147 1034.34 153.205 1036.91 151.267L1026.67 153.565ZM938.835 227.448L938.006 228.26L939.065 227.416L939.871 226.705L938.835 227.448ZM948.09 218.479L944.566 221.892C945.918 220.923 947.278 219.96 948.631 218.991C949.822 217.944 951.002 216.896 952.195 215.851L948.092 218.479H948.09ZM957.287 209.585C955.659 211.15 954.043 212.717 952.42 214.284L958.242 210.569L963.255 206.192L957.284 209.585H957.287ZM966.592 200.666C964.686 202.492 962.778 204.318 960.874 206.146L967.821 202.203C969.783 200.496 971.749 198.792 973.721 197.09L966.592 200.666ZM975.895 191.79C973.797 193.781 971.704 195.774 969.616 197.77L977.513 193.814L983.947 188.252L975.895 191.79ZM985.264 182.924C983.037 185.029 980.81 187.136 978.588 189.244L987.15 185.488C989.45 183.512 991.766 181.542 994.079 179.571L985.264 182.924ZM994.683 174.081C992.335 176.272 989.986 178.466 987.651 180.664C990.74 179.488 993.831 178.316 996.921 177.142C999.312 175.1 1001.69 173.056 1004.09 171.02L994.681 174.084L994.683 174.081ZM1004.11 165.284C1001.7 167.531 999.292 169.78 996.885 172.029L1006.67 168.844C1009.16 166.734 1011.67 164.627 1014.18 162.522L1004.11 165.284ZM1013.65 156.499C1011.14 158.799 1008.62 161.097 1006.13 163.404L1016.51 160.559C1019.07 158.414 1021.62 156.268 1024.18 154.128L1013.65 156.501L1013.65 156.499ZM919.918 244.201L919.051 245.14L920.138 244.176L920.962 243.364L919.918 244.201ZM928.698 234.722C927.522 235.982 926.347 237.242 925.179 238.503L929.312 235.193L932.821 231.765L928.7 234.722H928.698ZM937.543 225.229L932.78 230.342L938.398 226.312C940.038 224.715 941.689 223.117 943.34 221.522L937.543 225.232V225.229ZM946.424 215.76C944.556 217.738 942.69 219.719 940.832 221.702L947.67 217.325C949.564 215.491 951.452 213.658 953.348 211.824L946.421 215.763L946.424 215.76ZM955.32 206.321L949.263 212.745L956.882 208.416C958.976 206.4 961.081 204.389 963.182 202.375C960.561 203.689 957.937 205.005 955.318 206.321H955.32ZM964.299 196.885C962.125 199.157 959.949 201.424 957.787 203.701L966.206 199.479C968.415 197.364 970.619 195.246 972.836 193.134L964.299 196.885ZM973.266 187.496C971.019 189.84 968.784 192.188 966.544 194.534L975.529 190.588C977.852 188.379 980.188 186.175 982.521 183.969L973.269 187.496H973.266ZM982.364 178.103C980.013 180.522 977.66 182.939 975.324 185.364L984.908 181.712C987.312 179.442 989.721 177.175 992.138 174.91L982.364 178.103ZM991.437 168.763C989.036 171.22 986.652 173.685 984.26 176.148L994.34 172.856C996.812 170.543 999.287 168.236 1001.77 165.928L991.437 168.76V168.763ZM1000.63 159.441C998.159 161.939 995.69 164.437 993.232 166.942L1003.78 164.046C1006.32 161.693 1008.87 159.344 1011.42 156.999L1000.63 159.438V159.441ZM901.757 262.088L900.725 263.325L901.944 262.118L902.935 261.038L901.757 262.09V262.088ZM910.109 252.065L906.724 256.128L910.617 252.656C911.801 251.371 912.994 250.082 914.179 248.796L910.109 252.065ZM918.56 242.01C917.008 243.849 915.456 245.687 913.911 247.528C915.749 246.055 917.597 244.577 919.44 243.101C921.023 241.389 922.598 239.675 924.18 237.963L918.56 242.01ZM926.986 232.006C925.206 234.111 923.439 236.215 921.667 238.32L928.238 233.601C930.088 231.61 931.946 229.619 933.804 227.629L926.986 232.006ZM935.536 221.966C933.572 224.266 931.605 226.566 929.651 228.869L937.098 224.091C939.113 221.935 941.123 219.78 943.143 217.629L935.536 221.966ZM944.055 211.987C941.982 214.403 939.924 216.823 937.857 219.242L945.994 214.604C948.135 212.324 950.284 210.049 952.433 207.772L944.055 211.987ZM952.688 202C950.512 204.513 948.335 207.029 946.166 209.544C949.081 208.079 951.991 206.613 954.905 205.147C957.15 202.778 959.4 200.415 961.658 198.049L952.688 202ZM961.327 192.054C959.074 194.63 956.834 197.212 954.594 199.793L963.905 195.693C966.221 193.266 968.536 190.839 970.857 188.414L961.327 192.054ZM970.046 182.125C967.73 184.758 965.417 187.387 963.111 190.025L972.885 186.294C975.279 183.804 977.69 181.324 980.099 178.844L970.046 182.125ZM978.803 172.242C976.426 174.91 974.053 177.578 971.691 180.251L981.995 176.886C984.432 174.375 986.857 171.859 989.301 169.349L978.803 172.242ZM987.608 162.39C985.191 165.083 982.782 167.782 980.375 170.48L991.084 167.531C993.581 164.979 996.099 162.438 998.612 159.897L987.608 162.39ZM884.336 281.146C883.985 281.617 883.634 282.092 883.28 282.561L884.488 281.234L885.595 279.893L884.336 281.146ZM892.363 270.492C891.258 271.958 890.151 273.421 889.051 274.887L892.856 271.118C893.988 269.751 895.111 268.387 896.243 267.02L892.365 270.492H892.363ZM900.349 259.912C898.857 261.875 897.381 263.835 895.9 265.798L901.249 261.01C902.783 259.169 904.32 257.325 905.857 255.484L900.349 259.909V259.912ZM908.431 249.299C906.707 251.561 904.985 253.82 903.266 256.082L909.616 250.98C911.396 248.85 913.183 246.72 914.973 244.589L908.431 249.299ZM916.518 238.726C914.632 241.178 912.754 243.631 910.878 246.083L918.08 240.899L923.91 233.979L916.52 238.724L916.518 238.726ZM924.663 228.166C922.671 230.745 920.681 233.324 918.697 235.903L926.524 230.877C928.594 228.43 930.682 225.988 932.768 223.543L924.663 228.164V228.166ZM932.861 217.621C930.766 220.299 928.675 222.98 926.592 225.663L935.089 220.819C937.237 218.299 939.381 215.773 941.537 213.252L932.861 217.619V217.621ZM941.087 207.11C938.936 209.854 936.792 212.598 934.646 215.339L943.628 210.82C945.865 208.215 948.118 205.619 950.37 203.019L941.087 207.11ZM949.407 196.611C947.17 199.416 944.932 202.218 942.718 205.028L952.274 200.818C954.564 198.176 956.844 195.53 959.142 192.89L949.407 196.611ZM957.722 186.162C955.454 188.998 953.207 191.835 950.949 194.673L960.925 190.862C963.276 188.168 965.642 185.483 968.008 182.795L957.722 186.162ZM966.17 175.724C963.834 178.598 961.493 181.468 959.178 184.349L969.656 180.918C972.05 178.202 974.444 175.488 976.854 172.78L966.173 175.724H966.17ZM974.601 165.345C972.242 168.228 969.907 171.121 967.558 174.01L978.428 171.018C980.868 168.279 983.315 165.542 985.765 162.809L974.601 165.345ZM867.831 301.2L866.785 302.747L867.932 301.352L869.017 299.892L867.831 301.2ZM875.392 290.034C874.3 291.637 873.206 293.24 872.119 294.84L875.89 290.684L879.212 286.238L875.392 290.034ZM882.979 278.889L878.704 285.168L883.773 280.129C885.272 278.133 886.781 276.132 888.288 274.134L882.976 278.889H882.979ZM890.634 267.728C888.97 270.142 887.304 272.554 885.651 274.968C887.704 273.127 889.769 271.283 891.829 269.442C893.536 267.177 895.24 264.91 896.951 262.646L890.634 267.73V267.728ZM898.288 256.607C896.499 259.202 894.716 261.796 892.929 264.39L899.823 258.847C901.699 256.371 903.587 253.899 905.473 251.426L898.288 256.607ZM906.049 245.459C904.126 248.211 902.197 250.96 900.288 253.714L907.925 248.211C909.902 245.621 911.866 243.03 913.851 240.443L906.047 245.462L906.049 245.459ZM913.782 234.379C911.795 237.21 909.831 240.045 907.852 242.877L916.032 237.618C918.1 234.922 920.181 232.231 922.264 229.538L913.782 234.379ZM921.655 223.267C919.579 226.186 917.504 229.104 915.443 232.028L924.193 227.035C926.332 224.271 928.47 221.509 930.624 218.75L921.657 223.267H921.655ZM929.507 212.222C927.388 215.187 925.285 218.154 923.179 221.121L932.409 216.47C934.606 213.653 936.81 210.84 939.019 208.025L929.509 212.222H929.507ZM937.475 201.176C935.296 204.188 933.114 207.201 930.95 210.219L940.648 205.941C942.9 203.078 945.168 200.22 947.438 197.364L937.475 201.176ZM945.458 190.179C943.236 193.223 941.027 196.266 938.817 199.314L948.98 195.426C951.273 192.541 953.566 189.652 955.869 186.769L945.458 190.179ZM953.528 179.216C951.263 182.282 949.005 185.348 946.758 188.417L957.307 184.96C959.653 182.039 962.022 179.13 964.385 176.216L953.528 179.214V179.216ZM961.653 168.289C959.345 171.373 957.044 174.456 954.754 177.548L965.773 174.505C968.142 171.581 970.503 168.651 972.882 165.735L961.65 168.289H961.653ZM852.122 322.356L851.028 324.156L852.226 322.533L853.353 320.852L852.122 322.356ZM859.216 310.705C858.189 312.384 857.176 314.058 856.152 315.737L859.678 311.43C860.765 309.815 861.858 308.197 862.95 306.582L859.216 310.705ZM866.433 298.953C865.06 301.185 863.683 303.419 862.318 305.648L867.242 300.219C868.66 298.117 870.071 296.017 871.494 293.914L866.431 298.956L866.433 298.953ZM873.613 287.285C872.043 289.824 870.488 292.357 868.928 294.896L874.821 289.03C876.459 286.613 878.11 284.194 879.756 281.78L873.61 287.285H873.613ZM880.911 275.551C879.192 278.308 877.473 281.067 875.764 283.826L882.428 277.854C884.213 275.239 886 272.627 887.795 270.01L880.911 275.551ZM888.202 263.875C886.382 266.774 884.574 269.673 882.764 272.571L890.093 266.673C891.984 263.919 893.88 261.167 895.778 258.416L888.851 263.409L888.202 263.875ZM895.576 252.192C893.675 255.197 891.776 258.205 889.883 261.21L897.765 255.53C899.745 252.666 901.742 249.806 903.739 246.943L898.41 250.369L895.576 252.19V252.192ZM902.983 240.542C901.011 243.626 899.049 246.709 897.09 249.796L898.056 249.174L905.541 244.358C907.581 241.432 909.619 238.508 911.664 235.584L907.296 238.079L902.983 240.539V240.542ZM910.446 228.914C908.426 232.054 906.411 235.193 904.401 238.333L906.977 236.862L913.292 233.258C915.4 230.261 917.532 227.268 919.658 224.273L915.16 226.541L910.446 228.914ZM917.976 217.307C915.893 220.495 913.815 223.68 911.753 226.873L914.875 225.3L921.179 222.123C923.323 219.103 925.452 216.077 927.606 213.057L921.511 215.745L917.976 217.304V217.307ZM925.538 205.745C923.422 208.959 921.329 212.174 919.23 215.392L921.26 214.497L929.049 211.061C931.248 207.992 933.465 204.929 935.682 201.863L925.641 205.707L925.538 205.748V205.745ZM933.208 194.194C931.039 197.443 928.862 200.689 926.713 203.945L937.027 199.999C939.26 196.913 941.484 193.826 943.732 190.745L933.21 194.194H933.208ZM940.878 182.711C938.691 185.965 936.527 189.228 934.353 192.485L945.029 188.985C947.301 185.876 949.592 182.772 951.882 179.67L940.88 182.711H940.878ZM948.697 171.243C946.452 174.52 944.199 177.791 941.98 181.075L953.106 178.002C955.414 174.882 957.727 171.766 960.05 168.654L948.697 171.243ZM837.177 344.69L836.069 346.709L837.253 344.934L838.415 343.011L837.179 344.69H837.177ZM843.916 332.398L840.981 337.747L844.333 333.212C845.37 331.503 846.399 329.799 847.438 328.089L843.916 332.398ZM850.666 320.147C849.357 322.51 848.052 324.874 846.75 327.235L851.493 321.432L855.57 314.732L850.666 320.147ZM857.464 307.883C855.972 310.568 854.483 313.256 852.997 315.942L858.599 309.754C860.171 307.183 861.754 304.609 863.336 302.035L858.389 306.962L857.464 307.885V307.883ZM864.312 295.619C862.674 298.537 861.036 301.454 859.41 304.37L865.834 297.977C867.53 295.215 869.224 292.456 870.925 289.694L868.675 291.711L864.312 295.621V295.619ZM871.183 283.38C869.467 286.431 867.755 289.484 866.044 292.537L868.213 290.592L873.039 286.268C874.846 283.344 876.677 280.42 878.497 277.496L871.183 283.382V283.38ZM878.143 271.128C876.328 274.309 874.505 277.489 872.708 280.666L878.451 276.043L880.35 274.514C882.223 271.501 884.091 268.491 885.975 265.481L878.143 271.126V271.128ZM885.095 258.933C883.237 262.174 881.399 265.42 879.548 268.663L887.656 262.821C889.605 259.716 891.569 256.612 893.533 253.511L885.095 258.935V258.933ZM892.173 246.714C890.239 250.034 888.305 253.351 886.394 256.673L895.045 251.109C897.042 247.952 899.039 244.797 901.049 241.645L892.173 246.712V246.714ZM899.234 234.562C897.272 237.912 895.338 241.265 893.389 244.617L902.467 239.436C904.515 236.231 906.573 233.028 908.633 229.825L899.234 234.559V234.562ZM906.431 222.399C904.414 225.798 902.394 229.193 900.397 232.594L909.942 227.786C912.031 224.545 914.131 221.309 916.237 218.075L906.431 222.399ZM913.631 210.3C911.583 213.714 909.556 217.132 907.526 220.553L917.491 216.156C919.617 212.892 921.748 209.631 923.887 206.372L913.631 210.298V210.3ZM920.944 198.216C918.851 201.657 916.766 205.099 914.693 208.543L925.062 204.574C927.231 201.285 929.418 198.001 931.607 194.719L926.478 196.4L920.944 198.214V198.216ZM928.288 186.19C926.165 189.639 924.056 193.091 921.953 196.55L926.286 195.13L932.75 193.012C934.944 189.718 937.134 186.424 939.341 183.137L928.288 186.193V186.19ZM935.726 174.2C933.567 177.659 931.42 181.121 929.284 184.588L940.43 181.506C942.665 178.192 944.935 174.89 947.195 171.586L935.726 174.203V174.2ZM823.108 368.039L822.087 370.126L823.119 368.412L824.276 366.284L823.108 368.042V368.039ZM829.423 355.204C828.485 357.106 827.543 359.008 826.612 360.908L829.858 356.028L832.788 350.642L829.423 355.204ZM835.728 342.425C834.507 344.898 833.294 347.366 832.073 349.836L836.524 343.797C837.824 341.419 839.133 339.035 840.44 336.654L837.996 339.649L835.728 342.425ZM842.132 329.573C840.713 332.413 839.29 335.254 837.882 338.091L843.277 331.488C844.756 328.794 846.224 326.106 847.711 323.413L842.132 329.573ZM848.51 316.797C846.98 319.847 845.468 322.893 843.942 325.941L847.605 321.899L850.042 319.206C851.657 316.282 853.283 313.355 854.908 310.426L848.51 316.794V316.797ZM855.002 303.962C853.368 307.185 851.735 310.406 850.112 313.627L856.852 306.916C858.561 303.843 860.27 300.772 861.989 297.698L854.999 303.962H855.002ZM861.488 291.183C859.79 294.508 858.106 297.835 856.417 301.162L863.721 294.617C865.5 291.437 867.288 288.254 869.077 285.074L861.486 291.183H861.488ZM868.066 278.389C866.304 281.808 864.545 285.229 862.795 288.647L870.604 282.36C872.45 279.089 874.31 275.82 876.171 272.549L868.066 278.389ZM874.674 265.63C872.859 269.112 871.054 272.597 869.254 276.081L877.579 270.084C879.47 266.759 881.363 263.437 883.265 260.115L874.677 265.633L874.674 265.63ZM881.353 252.887C879.495 256.42 877.645 259.95 875.802 263.485C878.712 261.616 881.631 259.737 884.546 257.863C886.49 254.477 888.46 251.097 890.424 247.711L881.356 252.887H881.353ZM888.091 240.172C886.184 243.745 884.283 247.315 882.397 250.891L891.637 245.619C893.612 242.213 895.578 238.805 897.568 235.404L888.093 240.172H888.091ZM894.876 227.497C892.942 231.09 891.02 234.686 889.102 238.282L898.713 233.441C900.736 229.992 902.786 226.551 904.831 223.104L894.876 227.494V227.497ZM901.762 214.842C899.777 218.463 897.793 222.082 895.834 225.711L905.931 221.258C907.978 217.804 910.018 214.345 912.081 210.894L901.764 214.842H901.762ZM908.666 202.241C906.664 205.87 904.684 209.501 902.695 213.133L913.138 209.136C915.229 205.654 917.339 202.18 919.453 198.703L908.666 202.238V202.241ZM915.706 189.67C913.651 193.314 911.586 196.956 909.558 200.613L920.461 197.037C922.58 193.552 924.693 190.07 926.829 186.594L922.345 187.834L915.706 189.672V189.67ZM922.739 177.165C920.674 180.801 918.641 184.453 916.589 188.097L922.181 186.55L927.823 184.991C929.974 181.496 932.143 178.009 934.315 174.522L922.737 177.165H922.739ZM809.889 392.44L808.914 394.662L809.938 392.767L810.989 390.607L809.889 392.44ZM815.744 379.111C814.86 381.107 813.985 383.1 813.108 385.096L816.174 379.983L818.978 374.25L818.333 375.221L815.744 379.114V379.111ZM821.66 365.734C820.507 368.336 819.357 370.94 818.207 373.542L822.423 367.202C823.649 364.704 824.878 362.204 826.109 359.701L821.66 365.734ZM827.598 352.374C826.268 355.349 824.941 358.321 823.624 361.293L827.441 356.117L828.758 354.332L832.96 345.813L827.601 352.374H827.598ZM833.577 339.017C832.143 342.22 830.71 345.42 829.277 348.621L835.068 341.533C836.595 338.454 838.135 335.368 839.674 332.284L833.574 339.02L833.577 339.017ZM839.614 325.652C838.079 329.033 836.545 332.413 835.023 335.791L841.489 328.65C843.097 325.429 844.697 322.208 846.31 318.988C844.078 321.207 841.838 323.441 839.614 325.655V325.652ZM845.678 312.308C844.088 315.8 842.503 319.287 840.923 322.779L847.883 315.848C849.569 312.493 851.273 309.138 852.977 305.778L845.681 312.308H845.678ZM851.831 298.943C850.166 302.539 848.494 306.135 846.851 309.731L854.392 302.975C856.127 299.554 857.846 296.136 859.59 292.712L851.834 298.941L851.831 298.943ZM857.987 285.639C856.293 289.284 854.612 292.93 852.929 296.577L860.894 290.176C862.684 286.672 864.492 283.167 866.299 279.662L857.987 285.639ZM864.262 272.31C862.502 276.025 860.738 279.741 858.998 283.458L867.482 277.359C869.313 273.812 871.138 270.264 872.981 266.718L864.262 272.31ZM870.523 259.055C868.744 262.79 866.992 266.528 865.227 270.266C868.185 268.367 871.145 266.472 874.108 264.57C875.979 260.979 877.862 257.388 879.751 253.8L870.523 259.057V259.055ZM876.937 245.779C875.104 249.56 873.266 253.338 871.456 257.122L880.797 251.802C882.701 248.18 884.617 244.564 886.541 240.948L876.937 245.776V245.779ZM883.338 232.576C881.482 236.365 879.652 240.161 877.814 243.955L887.549 239.061C889.488 235.422 891.435 231.785 893.389 228.148L883.338 232.574V232.576ZM889.875 219.381C887.977 223.196 886.078 227.01 884.205 230.832L894.347 226.366C896.324 222.706 898.316 219.052 900.311 215.397L889.875 219.384V219.381ZM896.435 206.25C894.512 210.069 892.605 213.894 890.699 217.718L901.246 213.688C903.248 210.024 905.251 206.359 907.268 202.7L896.435 206.25ZM903.104 193.154C901.145 196.981 899.188 200.81 897.252 204.647L908.163 201.072C910.2 197.392 912.268 193.72 914.334 190.05L903.104 193.154ZM909.834 180.112C907.842 183.938 905.862 187.77 903.893 191.607L915.221 188.475C917.284 184.806 919.334 181.131 921.409 177.467L910.451 179.97L909.834 180.112ZM797.502 417.904L796.564 420.296L797.535 418.297L798.559 415.946L797.502 417.904ZM802.917 404.06L800.488 410.271L803.307 405.049C804.191 403.028 805.081 400.997 805.971 398.971L802.917 404.06ZM808.411 390.127C807.329 392.861 806.242 395.598 805.172 398.324L808.236 393.216L809.189 391.629C810.332 389.022 811.469 386.422 812.615 383.813L808.413 390.13L808.411 390.127ZM813.889 376.273C812.663 379.362 811.452 382.443 810.231 385.53L815.052 378.284C816.369 375.302 817.693 372.31 819.018 369.32L813.891 376.273H813.889ZM819.473 362.313C818.123 365.675 816.771 369.041 815.433 372.398L820.98 364.879C822.403 361.669 823.819 358.463 825.247 355.252L819.471 362.315L819.473 362.313ZM825.042 348.431C823.619 351.956 822.216 355.473 820.803 358.996C822.84 356.505 824.888 353.995 826.931 351.497C828.437 348.114 829.959 344.726 831.479 341.337C829.33 343.709 827.186 346.065 825.042 348.428V348.431ZM830.718 334.485C829.221 338.15 827.724 341.814 826.246 345.476L832.922 338.112C834.497 334.604 836.077 331.097 837.67 327.585C835.349 329.89 833.036 332.185 830.718 334.485ZM836.39 320.611C834.848 324.359 833.322 328.102 831.79 331.848C834.184 329.469 836.572 327.103 838.969 324.719C840.602 321.121 842.238 317.519 843.878 313.916L836.39 320.611ZM842.159 306.708C840.567 310.533 838.977 314.354 837.399 318.176L845.054 311.337C846.733 307.662 848.426 303.987 850.125 300.313C847.471 302.445 844.814 304.581 842.162 306.706L842.159 306.708ZM847.956 292.852C846.32 296.729 844.7 300.604 843.082 304.482L851.217 297.952C852.934 294.234 854.648 290.516 856.377 286.798C853.571 288.817 850.76 290.841 847.959 292.852H847.956ZM853.829 279.003C852.16 282.921 850.497 286.841 848.841 290.762C851.685 288.721 854.534 286.669 857.38 284.62C859.142 280.846 860.927 277.078 862.709 273.307C859.752 275.206 856.786 277.111 853.829 279.005V279.003ZM859.769 265.179C858.058 269.135 856.354 273.089 854.663 277.047C857.664 275.125 860.672 273.19 863.678 271.263C865.465 267.477 867.242 263.688 869.04 259.899C865.95 261.659 862.856 263.424 859.769 265.176V265.179ZM865.761 251.396C864.024 255.37 862.297 259.346 860.578 263.323C863.698 261.547 866.828 259.762 869.952 257.984C871.78 254.155 873.64 250.331 875.496 246.506C872.253 248.137 869.004 249.77 865.763 251.396H865.761ZM871.848 237.636C870.066 241.632 868.281 245.629 866.527 249.631C869.808 247.985 873.092 246.329 876.376 244.681C878.229 240.851 880.062 237.022 881.932 233.195C878.573 234.676 875.208 236.157 871.851 237.633L871.848 237.636ZM877.971 223.929C876.171 227.928 874.391 231.932 872.607 235.936L882.794 231.453C884.683 227.598 886.602 223.751 888.518 219.901L877.973 223.929H877.971ZM884.228 210.244C882.377 214.261 880.522 218.276 878.699 222.3L889.342 218.235C891.258 214.383 893.167 210.531 895.098 206.686L884.228 210.244ZM890.487 196.641C888.626 200.646 886.794 204.663 884.951 208.672L895.915 205.084C897.864 201.221 899.836 197.367 901.805 193.512L890.487 196.641ZM896.918 183.061C895.005 187.078 893.076 191.087 891.19 195.12L902.594 191.967C904.571 188.108 906.55 184.253 908.55 180.406L896.916 183.061H896.918ZM889.951 195.459C891.842 191.409 893.771 187.377 895.695 183.34L883.985 186.015C882.172 190.205 880.37 194.399 878.583 198.596L889.951 195.459ZM883.679 209.088C885.532 205.051 887.378 201.011 889.251 196.981L877.936 200.103C876.153 204.297 874.391 208.497 872.637 212.699L883.679 209.088ZM877.41 222.795C879.24 218.742 881.098 214.703 882.956 210.663L871.995 214.246C870.243 218.443 868.499 222.643 866.772 226.847C870.316 225.498 873.86 224.149 877.41 222.795ZM871.279 236.522C873.077 232.487 874.869 228.453 876.684 224.42C873.158 225.767 869.634 227.106 866.11 228.448C864.396 232.637 862.702 236.832 861.011 241.026C864.436 239.525 867.856 238.029 871.282 236.522H871.279ZM865.174 250.308C866.941 246.276 868.729 242.246 870.521 238.219C867.126 239.71 863.736 241.196 860.346 242.682C858.657 246.872 856.963 251.061 855.297 255.256C858.589 253.61 861.88 251.964 865.174 250.31V250.308ZM859.173 264.119C860.909 260.102 862.656 256.087 864.411 252.073C861.14 253.714 857.873 255.347 854.605 256.98C852.954 261.147 851.333 265.318 849.703 269.49C852.858 267.702 856.013 265.914 859.173 264.119ZM853.219 277.971C854.926 273.969 856.642 269.972 858.366 265.975C855.244 267.751 852.125 269.516 849.003 271.286C847.375 275.447 845.742 279.609 844.134 283.773C847.162 281.841 850.186 279.911 853.219 277.971ZM847.334 291.848C849.008 287.874 850.699 283.897 852.393 279.923C849.389 281.846 846.394 283.755 843.396 285.67C841.816 289.791 840.266 293.914 838.696 298.035C841.575 295.974 844.452 293.917 847.334 291.848ZM841.522 305.735C843.16 301.801 844.796 297.871 846.447 293.937C843.608 295.976 840.774 297.997 837.94 300.029C836.375 304.137 834.8 308.243 833.261 312.351C836.014 310.15 838.767 307.946 841.52 305.737L841.522 305.735ZM835.746 319.657C837.351 315.762 838.974 311.862 840.597 307.964C837.887 310.137 835.18 312.303 832.475 314.466C830.963 318.514 829.476 322.553 827.977 326.598C830.563 324.291 833.157 321.97 835.746 319.657ZM830.053 333.572C831.615 329.745 833.165 325.919 834.735 322.089C832.199 324.354 829.661 326.619 827.13 328.876C825.644 332.88 824.152 336.884 822.686 340.886L830.053 333.572ZM824.367 347.543C825.892 343.769 827.436 339.991 828.978 336.212C826.584 338.588 824.185 340.975 821.794 343.346C820.371 347.251 818.957 351.154 817.544 355.06L824.37 347.543H824.367ZM818.785 361.456C820.252 357.796 821.71 354.137 823.184 350.475L816.556 357.773C815.168 361.598 813.783 365.419 812.41 369.236C814.533 366.647 816.657 364.06 818.785 361.456ZM813.189 375.444C814.599 371.894 816.03 368.333 817.458 364.773C815.416 367.268 813.381 369.753 811.341 372.236C810.026 375.916 808.714 379.59 807.407 383.265C809.331 380.663 811.26 378.056 813.189 375.442V375.444ZM807.7 389.331L811.677 379.271C809.841 381.756 808.014 384.224 806.186 386.694C804.935 390.206 803.688 393.713 802.452 397.221L807.7 389.334V389.331ZM802.197 403.284C803.42 400.17 804.652 397.053 805.883 393.929L801.064 401.157C799.927 404.39 798.792 407.621 797.659 410.849L802.197 403.282V403.284ZM796.767 417.161C797.834 414.432 798.903 411.701 799.972 408.97L795.98 415.627C794.987 418.462 793.996 421.295 793.01 424.125L796.767 417.164V417.161ZM791.334 431.089C792.153 428.989 792.962 426.899 793.784 424.795L790.96 430.026L788.702 436.524L790.325 433.173L791.337 431.091L791.334 431.089ZM785.942 444.961L786.93 442.417L785.937 444.469L785.057 446.997L785.942 444.961ZM-95.3704 467.871H-102.295C-118.709 464.701 -135.28 461.107 -152 457.108V455.756C-132.931 460.321 -114.045 464.384 -95.3704 467.871ZM-152 321.252C199.953 338.337 540.577 263.059 883.434 184.821C941.621 50.3625 1013.43 -78.6487 1112 -182.607V-180.892C1014.05 -77.4085 942.561 50.8443 884.609 184.552L896.395 181.861C953.596 61.4169 1022.09 -54.3995 1112 -150.356V-148.657C1022.7 -53.1923 954.557 61.8784 897.621 181.582L909.338 178.91C965.108 71.7688 1030.11 -31.502 1112 -119.26V-117.591C1030.71 -30.3405 966.094 72.2075 910.62 178.615L922.261 175.958C976.171 81.3929 1037.52 -9.96883 1112 -89.4038V-87.7224C1038.13 -8.82003 977.187 81.8139 923.611 175.651L935.27 172.988C986.91 90.2486 1044.45 10.1239 1112 -61.0032V-59.3802C1045.05 11.2067 987.954 90.6366 936.679 172.666L948.264 170.023C997.275 98.2877 1050.89 28.6544 1112 -34.3118V-32.6812C1051.51 29.722 998.367 98.6554 949.763 169.681L961.248 167.064C1007.32 105.487 1056.9 45.5695 1112 -9.51236V-7.90961C1057.54 46.5915 1008.47 105.822 962.851 166.696L974.219 164.112C1017.07 111.845 1062.55 60.864 1112 13.3268V14.922C1063.22 61.8607 1018.29 112.149 975.948 163.716L987.246 161.15C1026.62 117.369 1067.92 74.5686 1112 34.1575V35.6918C1068.61 75.5043 1027.91 117.637 989.089 160.734L1000.29 158.196C1035.99 122.073 1073.05 86.6779 1112 52.8959V54.415C1073.78 87.5833 1037.38 122.304 1002.31 157.739L1013.33 155.251C1045.19 125.973 1077.97 97.215 1112 69.5143V71.0182C1078.76 98.0899 1046.71 126.166 1015.55 154.752L1026.37 152.315C1054.24 129.1 1082.73 106.246 1112 84.0557V85.5342C1083.6 107.075 1055.94 129.24 1028.85 151.754C1032.37 150.963 1035.89 150.177 1039.41 149.388C1063.2 131.494 1087.37 113.841 1112 96.581V98.0367C1088.33 114.627 1065.09 131.58 1042.2 148.762C1045.63 147.993 1049.06 147.225 1052.48 146.461C1072.09 133.191 1091.92 120.067 1112 107.164V108.597C1093 120.805 1074.23 133.208 1055.67 145.749C1058.97 145.011 1062.27 144.281 1065.58 143.545C1080.93 134.235 1096.4 125.012 1112 115.895V117.292C1097.64 125.687 1083.39 134.172 1069.24 142.731C1072.39 142.031 1075.55 141.324 1078.71 140.626C1089.76 134.664 1100.85 128.742 1112 122.867V124.244C1102.31 129.354 1092.66 134.499 1083.04 139.673C1085.97 139.026 1088.89 138.384 1091.82 137.74C1098.53 134.535 1105.26 131.347 1112 128.169V129.529C1107.03 131.869 1102.08 134.215 1097.13 136.569L1104.97 134.847C1107.31 133.868 1109.65 132.889 1112 131.912V133.269L1111.75 133.373L1112 133.317V136.477C1105.95 138.374 1099.9 140.276 1093.85 142.186C1085.73 145.171 1077.62 148.168 1069.52 151.178C1061.73 154.498 1053.95 157.83 1046.18 161.175C1038.46 164.951 1030.76 168.738 1023.07 172.537C1015.77 176.599 1008.48 180.675 1001.22 184.755C994.026 189.277 986.854 193.803 979.703 198.338C972.912 203.138 966.145 207.944 959.393 212.752C952.749 218.007 946.126 223.267 939.528 228.526C933.182 234.123 926.865 239.723 920.568 245.32C914.511 251.267 908.481 257.216 902.472 263.16C896.635 269.531 890.823 275.896 885.034 282.256C879.511 288.946 874.012 295.631 868.539 302.303C863.278 309.374 858.05 316.429 852.84 323.474C847.845 330.927 842.872 338.368 837.925 345.788C833.188 353.637 828.475 361.466 823.788 369.269C819.382 377.392 815.004 385.487 810.643 393.556C806.487 402.09 802.361 410.593 798.253 419.063C794.383 427.947 790.538 436.795 786.713 445.605C783.823 453.051 780.946 460.473 778.085 467.868H775.997L780.203 458.181L782.463 451.633C779.827 457.068 777.203 462.472 774.578 467.868H773.484C777.369 459.88 781.262 451.861 785.173 443.792C786.159 440.941 787.16 438.076 788.156 435.215C782.228 446.186 776.333 457.065 770.45 467.868H769.315C776.249 455.135 783.207 442.275 790.207 429.311C791.332 426.083 792.444 422.867 793.574 419.634C783.798 435.907 774.091 451.991 764.411 467.868H763.22C773.845 450.451 784.503 432.768 795.245 414.874C796.476 411.361 797.717 407.839 798.958 404.319C784.592 425.862 770.349 447.081 756.134 467.868H754.88C769.967 445.823 785.082 423.275 800.341 400.383C801.641 396.693 802.94 393.006 804.252 389.311C784.448 416.091 764.836 442.366 745.228 467.868H743.896C764.348 441.291 784.802 413.849 805.473 385.885C806.831 382.06 808.198 378.234 809.566 374.407C783.267 406.477 757.259 437.819 731.188 467.871H729.732C756.642 436.891 783.48 404.534 810.635 371.404C812.043 367.479 813.454 363.553 814.877 359.622C780.818 397.071 747.167 433.478 713.323 467.868H711.755C746.455 432.661 780.939 395.321 815.863 356.906C817.312 352.907 818.76 348.905 820.221 344.901C776.859 387.85 734.065 429.415 690.826 467.868H689.089C733.213 428.705 776.861 386.296 821.111 342.448C822.6 338.373 824.109 334.295 825.619 330.217C770.996 378.883 717.14 425.715 662.421 467.868H660.498C716.156 425.099 770.908 377.458 826.463 327.94C827.985 323.831 829.502 319.723 831.031 315.612C762.669 370.288 695.318 422.576 626.425 467.866H624.211C694.133 422.053 762.447 369 831.815 313.5C833.372 309.341 834.96 305.184 836.54 301.025C751.088 362.204 666.962 420.288 580.193 467.866H577.653C665.574 419.872 750.745 361.019 837.293 299.032C838.876 294.863 840.445 290.694 842.043 286.527C734.841 354.984 629.381 419.477 519.458 467.866H516.293C627.601 419.2 734.28 353.936 842.761 284.643C844.381 280.436 846.035 276.233 847.68 272.029C711.262 349.372 577.17 421.508 435.405 467.866H431.201C574.761 421.475 710.37 348.499 848.381 270.233C850.021 266.031 851.644 261.826 853.305 257.624C672.559 348.073 495.134 431.266 303.112 467.866H296.163C491.107 431.921 670.822 347.581 853.995 255.897C855.674 251.67 857.38 247.45 859.082 243.227C538.754 383.694 226.767 506.578 -152 432.557V431.208C227.032 505.31 539.179 382.17 859.749 241.577C861.45 237.357 863.144 233.137 864.863 228.919C538.441 353.181 218.738 463.887 -152 406.776V405.432C218.988 462.606 538.868 351.689 865.528 227.319C867.262 223.089 869.024 218.864 870.784 214.642C538.613 323.121 211.591 421.774 -152 379.75V378.424C211.819 420.491 539.027 321.663 871.423 213.095C873.185 208.872 874.945 204.65 876.732 200.435C539.174 293.552 205.261 380.354 -152 351.659V350.333C205.481 379.06 539.594 292.119 877.379 198.931C879.172 194.709 880.987 190.496 882.807 186.284C540.17 264.466 199.748 339.626 -152 322.553V321.252Z" fill="white"/>
</mask>
<g mask="url(#mask1_4002_25901)">
<path d="M1112 -208H-152V481H1112V-208Z" fill="url(#paint1_linear_4002_25901)"/>
</g>
</g>
<defs>
<linearGradient id="paint0_linear_4002_25901" x1="758" y1="1.25829e-05" x2="173" y2="442" gradientUnits="userSpaceOnUse">
<stop stop-color="#C7E6FB"/>
<stop offset="1" stop-color="#FFDDFC"/>
</linearGradient>
<linearGradient id="paint1_linear_4002_25901" x1="-34.4632" y1="209.658" x2="971.537" y2="67.426" gradientUnits="userSpaceOnUse">
<stop offset="0.0913462" stop-color="#2AABEE"/>
<stop offset="1" stop-color="#FF6699"/>
</linearGradient>
</defs>
</svg>
