<svg width="706" height="145" viewBox="0 0 706 145" fill="none" xmlns="http://www.w3.org/2000/svg">
<g filter="url(#filter0_d_1455_45011)">
<path fill-rule="evenodd" clip-rule="evenodd" d="M76.4021 15.6758C73.0924 14.0582 65.4765 11.0107 62.1668 9.97075C55.6328 7.91983 34.8492 6.90159 23.0054 22.1535C17.2473 29.5773 14.1867 38.9581 13.3183 48.2956C10.9837 73.3327 25.034 96.6006 33.4613 108.321L33.6535 108.588L33.141 109L32.9275 108.747C31.4541 106.992 29.8526 105.324 28.5572 103.425C26.9629 101.092 25.4966 98.6804 24.1016 96.2251C22.7563 93.8492 20.1655 89.0324 20.1655 89.0324C19.347 87.2703 15.3041 78.1639 13.8664 73.4121C12.4357 68.6965 11.4037 63.8869 10.5709 59.034V59.0196C7.33236 35.2101 18.5569 19.7271 26.9913 13.3216C39.1483 4.0924 54.4584 4.21517 68.594 10.2018C70.0176 10.8085 71.2774 11.5595 72.5799 12.39C73.9679 13.2782 75.3487 14.1737 76.7295 15.0764L77 15.2497L76.6939 15.813L76.4092 15.6758H76.4021Z" fill="#EE2D5F"/>
<path fill-rule="evenodd" clip-rule="evenodd" d="M103.628 15.8242C102.183 16.3128 100.615 16.8157 100.263 16.9091C100.112 16.9522 99.8677 17.024 99.7095 17.024H98.7892C98.7892 17.024 100.615 15.4434 101.967 14.5022C117.591 3.61034 136.709 8.82638 144.539 12.7779C183.466 32.4279 145.841 81.6642 141.045 87.4119C130.231 100.373 108.661 115.813 95.568 120.892L95.2876 121L95 120.468L99.1487 117.508H99.163C103.75 114.742 112.975 107.989 117.217 104.382C123.559 98.9863 129.527 93.059 134.883 86.6862C143.252 76.7355 152.635 62.6895 155.411 47.0917C161.4 13.3527 126.73 12.5337 120.51 12.6989C116.11 12.8139 111.681 13.4174 107.417 14.5022L103.635 15.817L103.628 15.8242Z" fill="#3DADE3"/>
<path fill-rule="evenodd" clip-rule="evenodd" d="M27 77.8547H48.5189L51.0898 90.8836L79.4209 26H82.6237L63.2328 120.378L92.9147 48.5197L94.97 49.1287L92.3047 76.1726L128 76.1219L126.598 78.5508L89.7337 79.3918L90.7577 62.3461L61.5696 130.811L58.3378 131L75.2159 44.4087L50.8574 98.8663H48.7513L46.0351 80.7476H27.0436L27 77.8547Z" fill="#EE2D5F"/>
<path d="M55.6522 67.7793L55.0501 70.8348H47.8799L47.6884 70.3018L53.107 63.455C53.8733 62.4865 54.4343 61.8033 54.7901 61.3979L54.7354 61.3228H52.416C52.0739 61.3228 51.8208 61.3453 51.6634 61.3979C51.5061 61.4504 51.3487 61.5405 51.1914 61.6682C51.034 61.7958 50.8629 61.9835 50.6782 62.2312C50.4935 62.4865 50.2951 62.8393 50.0693 63.3048H49.1867L49.7683 60.4444H56.8153L57 60.9925L49.8914 69.8814L49.9461 69.9565H52.1902C52.5871 69.9565 52.8881 69.9339 53.1002 69.8889C53.3123 69.8363 53.497 69.7538 53.6544 69.6186C53.8117 69.491 53.9759 69.2883 54.147 69.0255C54.318 68.7628 54.5233 68.3423 54.7764 67.7793H55.659H55.6522ZM44.4796 64.2132C44.5343 63.9129 44.5754 63.6577 44.5959 63.4399C44.6164 63.2222 44.6233 62.9895 44.6233 62.7342C44.6233 62.1712 44.5138 61.7583 44.2949 61.503C44.0759 61.2477 43.7133 61.1201 43.207 61.1201C42.9333 61.1201 42.6597 61.1652 42.4134 61.2628C42.1602 61.3604 41.9071 61.5255 41.6539 61.7507C41.394 61.9835 41.1476 62.2763 40.915 62.6517C40.6824 63.0195 40.4703 63.47 40.2787 63.9955C40.0872 64.5285 39.9435 65.0916 39.834 65.6997C39.7246 66.3078 39.6767 66.8934 39.6767 67.464C39.6767 68.2147 39.7656 68.7853 39.9572 69.1532C40.1488 69.5285 40.4635 69.7162 40.9013 69.7162C41.1066 69.7162 41.3187 69.6712 41.5376 69.5661C41.7566 69.4685 42.0029 69.2808 42.2765 69.003C42.5502 68.7327 42.8581 68.3273 43.2002 67.8018C43.5081 67.3138 43.7544 66.8333 43.9391 66.3604C44.1238 65.8874 44.2675 65.3318 44.3906 64.6862L44.4796 64.2207V64.2132ZM45.3485 60.9775L46.2584 60.2568L46.8879 60.4294L45.3759 67.8168C45.2869 68.2523 45.2185 68.5826 45.1843 68.8228C45.1569 69.0556 45.1364 69.2508 45.1364 69.4009C45.1364 69.7012 45.2117 69.9114 45.3622 70.0465C45.5127 70.1817 45.8069 70.2643 46.2311 70.3018L46.1421 70.8348H43.3096L43.9322 68.1096L43.8023 68.0646C43.1728 69.0781 42.5707 69.8213 42.0029 70.2943C41.435 70.7598 40.8329 71 40.2035 71C39.4783 71 38.9172 70.6997 38.5136 70.0991C38.1168 69.4985 37.9183 68.6502 37.9183 67.5616C37.9183 66.8709 37.9936 66.1727 38.1373 65.467C38.281 64.7688 38.4999 64.1081 38.7941 63.4775C39.0883 62.8468 39.4372 62.2988 39.8477 61.8183C40.2582 61.3378 40.7371 60.9625 41.2708 60.6772C41.8113 60.3919 42.3929 60.2492 43.0291 60.2492C43.4396 60.2492 43.8296 60.3018 44.1991 60.4069C44.5685 60.512 44.9517 60.6997 45.3485 60.97M30.3103 62.7042H30.6319C30.9124 62.7042 31.1655 62.6516 31.3913 62.5541C31.6239 62.4489 31.8839 62.2613 32.1918 61.9985C32.4997 61.7282 32.9786 61.2402 33.6422 60.5195C34.3059 59.7988 34.778 59.2507 35.0585 58.8829C35.339 58.5075 35.5443 58.1847 35.6742 57.9144C35.8042 57.6441 35.8658 57.3964 35.8658 57.1712C35.8658 56.991 35.8042 56.8483 35.6674 56.7357C35.5306 56.6231 35.3458 56.5556 35.0995 56.533L35.209 56H39.4577L39.3483 56.533C39.0814 56.5706 38.7872 56.7282 38.452 56.9835C38.1236 57.2387 37.6105 57.7417 36.9263 58.4925L33.0812 62.5991L35.1885 68.1622C35.3664 68.6351 35.51 68.9805 35.6195 69.1982C35.729 69.4234 35.8453 69.6036 35.9684 69.7538C36.0916 69.9039 36.2353 70.024 36.3926 70.1141C36.55 70.2042 36.7416 70.2718 36.9673 70.3018L36.8579 70.8348H33.0333L33.1428 70.3018C33.4986 70.2718 33.6833 70.0916 33.6833 69.7838C33.6833 69.6862 33.6765 69.5886 33.6559 69.491C33.6422 69.3859 33.608 69.2357 33.5465 69.048C33.4917 68.8529 33.4096 68.6126 33.3138 68.3423L32.0276 64.8889C31.8771 64.476 31.7471 64.1832 31.6308 64.018C31.5213 63.8529 31.3981 63.7327 31.275 63.6727C31.1518 63.6126 30.9534 63.5751 30.6866 63.5751H30.1324L29.3114 67.6817C29.2225 68.1171 29.1677 68.4625 29.1404 68.7102C29.113 68.9655 29.0993 69.1832 29.0993 69.3784C29.0993 69.7012 29.1746 69.9339 29.3251 70.0691C29.4756 70.2042 29.7219 70.2868 30.0708 70.3093L29.9614 70.8423H26L26.1095 70.3093C26.3626 70.2718 26.5473 70.1967 26.6773 70.0991C26.8005 70.0015 26.91 69.8664 26.9921 69.6937C27.0742 69.521 27.1563 69.3108 27.2315 69.0631C27.3068 68.8153 27.4162 68.3273 27.5599 67.6141L29.243 59.2432C29.3114 58.9129 29.3593 58.5901 29.4004 58.2823C29.4414 57.9745 29.4619 57.7117 29.4619 57.494C29.4619 57.1562 29.3798 56.9159 29.2225 56.7808C29.0651 56.6456 28.8188 56.5631 28.4904 56.548L28.5999 56.015H32.5612L32.4518 56.548C32.1986 56.6006 32.0207 56.6682 31.9113 56.7432C31.8018 56.8183 31.6992 56.9234 31.6171 57.0661C31.5281 57.2087 31.4392 57.4339 31.3503 57.7492C31.2613 58.0571 31.145 58.5601 31.0082 59.2583L30.3035 62.7267L30.3103 62.7042Z" fill="#3DADE3"/>
<path d="M115.409 64.0817C115.509 63.5466 115.565 63.042 115.565 62.5757C115.565 62.0024 115.452 61.5819 115.225 61.322C114.999 61.0621 114.623 60.9322 114.099 60.9322C113.809 60.9322 113.533 60.978 113.278 61.0774C113.016 61.1768 112.754 61.345 112.492 61.5743C112.222 61.8113 111.967 62.1094 111.727 62.4916C111.486 62.8662 111.266 63.3249 111.068 63.86C110.87 64.4028 110.721 64.9761 110.608 65.5953C110.494 66.2145 110.445 66.8108 110.445 67.3918C110.445 68.1562 110.537 68.7372 110.735 69.1118C110.933 69.494 111.259 69.6851 111.712 69.6851C111.925 69.6851 112.144 69.6393 112.371 69.5323C112.598 69.4329 112.853 69.2418 113.136 68.9589C113.419 68.6837 113.738 68.2709 114.092 67.7358C114.411 67.2389 114.666 66.7496 114.857 66.268C115.048 65.7864 115.197 65.2207 115.324 64.5633L115.416 64.0893L115.409 64.0817ZM116.684 58.119C116.734 57.8743 116.783 57.6068 116.826 57.3087C116.868 57.0105 116.882 56.7506 116.882 56.5366C116.882 56.3225 116.847 56.1467 116.769 56.032C116.698 55.9173 116.585 55.8333 116.45 55.7874C116.309 55.7339 116.061 55.6957 115.7 55.6727L115.82 55.0994L118.391 55H119L116.344 67.7511C116.252 68.2174 116.181 68.5614 116.146 68.7907C116.118 69.0201 116.096 69.2112 116.096 69.3641C116.096 69.6699 116.174 69.8839 116.33 70.0215C116.486 70.1591 116.79 70.2432 117.237 70.2814L117.144 70.8242H114.212L114.857 68.0492L114.722 68.0033C114.071 69.0354 113.448 69.7922 112.86 70.2738C112.272 70.7477 111.649 70.9924 110.997 70.9924C110.246 70.9924 109.666 70.6866 109.248 70.075C108.837 69.4635 108.632 68.5996 108.632 67.4912C108.632 66.7879 108.71 66.0769 108.858 65.3583C109.007 64.6474 109.234 63.9747 109.538 63.3325C109.843 62.6904 110.204 62.1323 110.629 61.6431C111.054 61.1538 111.55 60.7716 112.102 60.4811C112.661 60.1906 113.263 60.0454 113.922 60.0454C114.34 60.0454 114.722 60.0989 115.076 60.183C115.431 60.2747 115.792 60.4353 116.16 60.6646L116.698 58.1113L116.684 58.119ZM101.054 65.1137C101.684 65.1061 102.237 65.0678 102.711 64.999C103.186 64.9302 103.596 64.8309 103.936 64.7086C104.276 64.5862 104.567 64.441 104.793 64.2728C105.02 64.1046 105.197 63.9135 105.331 63.7148C105.466 63.5084 105.558 63.2943 105.608 63.0726C105.657 62.8433 105.686 62.614 105.686 62.3693C105.686 61.9183 105.593 61.5667 105.395 61.3144C105.197 61.0621 104.914 60.9322 104.524 60.9322C104.05 60.9322 103.575 61.1156 103.115 61.4902C102.654 61.8571 102.244 62.3617 101.89 62.9962C101.535 63.6307 101.259 64.334 101.054 65.1137ZM106.507 68.6226C105.997 69.2188 105.516 69.6928 105.048 70.0368C104.581 70.3808 104.12 70.6331 103.653 70.7783C103.193 70.9236 102.676 71 102.116 71C101.557 71 101.11 70.9083 100.721 70.7172C100.331 70.526 100.013 70.2738 99.7578 69.9451C99.4958 69.6163 99.3116 69.2265 99.1841 68.7754C99.0637 68.3168 99 67.8275 99 67.2924C99 66.505 99.1346 65.6565 99.3966 64.7544C99.6586 63.8524 100.055 63.042 100.586 62.3235C101.125 61.6049 101.762 61.0468 102.506 60.6493C103.249 60.2594 104.05 60.053 104.885 60.053C105.721 60.053 106.33 60.2365 106.748 60.5958C107.159 60.9627 107.371 61.5208 107.371 62.2929C107.371 63.5466 106.826 64.4869 105.735 65.1137C104.644 65.7406 103.023 66.054 100.877 66.054C100.799 66.4974 100.756 66.979 100.756 67.4912C100.756 68.2633 100.898 68.829 101.174 69.1806C101.458 69.5323 101.911 69.7081 102.548 69.7081C103.186 69.7081 103.752 69.5628 104.262 69.2647C104.779 68.9666 105.31 68.5155 105.87 67.904L106.507 68.6226Z" fill="#3DADE3"/>
<path d="M203.324 25.1769H227.427V111.827H203.324V25.1769ZM252.297 111.827L228.713 69.0876L254.745 25.1769H266.858L248.045 57.0017L278.205 111.827H252.297Z" fill="white"/>
<path d="M276.525 111.827L307.452 25.1769H331.68L363.136 111.827H337.228L327.822 86.1082H298.17L288.898 111.827H276.525ZM302.049 75.3292H323.953L312.742 44.414L302.039 75.3292H302.049Z" fill="white"/>
<path d="M361.838 111.827L403.976 37.2628H364.151V25.1769H437.486L395.223 99.7519H434.779V111.827H361.838Z" fill="white"/>
<path d="M444.705 111.827V25.1769H468.414L487.486 71.4295L506.435 25.1769H529.894V111.827H505.792V55.5798L482.591 111.827H480.144L456.684 55.193V111.827H444.705Z" fill="white"/>
<path d="M545.348 111.827V25.1769H599.61V36.876H569.45V62.2083H598.065V73.8968H569.45V100.139H600.647V111.827H545.348Z" fill="white"/>
<path d="M612.616 111.827V25.1769H645.876C659.1 25.1769 670.104 28.5539 678.857 35.3078C690.286 44.1422 696.001 55.4857 696.001 69.349C696.001 76.7092 694.237 83.5781 690.711 89.9347C687.185 96.3017 682.29 101.477 676.015 105.46C669.232 109.705 659.131 111.827 645.731 111.827H612.605H612.616ZM636.719 100.526H641.23C649.486 100.526 655.926 98.3614 660.562 94.033C667.345 87.7078 670.747 78.957 670.747 67.7912C670.747 58.434 668.164 50.8856 663.02 45.1145C657.855 39.3538 650.824 36.4787 641.884 36.4787H636.729V100.526H636.719Z" fill="white"/>
</g>
<defs>
<filter id="filter0_d_1455_45011" x="0" y="0" width="706" height="145" filterUnits="userSpaceOnUse" color-interpolation-filters="sRGB">
<feFlood flood-opacity="0" result="BackgroundImageFix"/>
<feColorMatrix in="SourceAlpha" type="matrix" values="0 0 0 0 0 0 0 0 0 0 0 0 0 0 0 0 0 0 127 0" result="hardAlpha"/>
<feOffset dy="4"/>
<feGaussianBlur stdDeviation="5"/>
<feComposite in2="hardAlpha" operator="out"/>
<feColorMatrix type="matrix" values="0 0 0 0 0 0 0 0 0 0 0 0 0 0 0 0 0 0 0.25 0"/>
<feBlend mode="normal" in2="BackgroundImageFix" result="effect1_dropShadow_1455_45011"/>
<feBlend mode="normal" in="SourceGraphic" in2="effect1_dropShadow_1455_45011" result="shape"/>
</filter>
</defs>
</svg>
