<svg width="65" height="65" viewBox="0 0 65 65" fill="none" xmlns="http://www.w3.org/2000/svg">
<g clip-path="url(#clip0_923_15203)">
<path d="M64.4322 32.6409C64.3879 32.6409 64.326 32.095 64.2464 31.0472C64.1226 30.0082 63.9899 28.4585 63.5476 26.5125C63.521 26.3452 63.4768 26.1867 63.4326 26.0194C63.3883 25.8521 63.3441 25.6848 63.2999 25.5087C63.2114 25.1653 63.1318 24.8043 63.008 24.4433C62.893 24.0823 62.7691 23.7037 62.6541 23.3162C62.5126 22.9376 62.3799 22.5414 62.2472 22.1363C62.2118 21.925 62.1322 21.7225 62.0349 21.52C61.9376 21.3174 61.8314 21.1237 61.7253 20.9212C61.5218 20.5162 61.283 20.1199 61.1769 19.6445C61.0884 19.4243 60.9999 19.1954 60.8938 18.9841C60.7876 18.7639 60.6726 18.5526 60.5488 18.3325C60.4249 18.1124 60.3099 17.8922 60.1773 17.6721C60.0446 17.4608 59.903 17.2406 59.7615 17.0205C59.62 16.8004 59.4961 16.5714 59.3546 16.3513C59.2131 16.1224 59.0715 15.9022 58.9388 15.6733C58.6646 15.2066 58.3373 14.7664 57.9658 14.3437C57.8596 14.2469 57.7623 14.1412 57.6739 14.0355C57.5765 13.9299 57.4881 13.8242 57.4085 13.7098C57.2404 13.4808 57.09 13.2343 56.9308 12.9877C56.7804 12.7324 56.5946 12.5034 56.4089 12.2745C56.2143 12.0544 56.002 11.843 55.7454 11.6669C54.8697 10.8393 54.0205 9.94112 53.0474 9.10463C52.9413 8.98136 52.8351 8.86689 52.7201 8.75242L52.5432 8.58512C52.4813 8.53229 52.4194 8.47946 52.3574 8.42663C52.1098 8.22411 51.8444 8.02159 51.579 7.82788C51.3136 7.62536 51.0217 7.46686 50.7475 7.28195C50.6059 7.1939 50.4644 7.10585 50.3229 7.00899C50.1813 6.92094 50.0398 6.82408 49.8983 6.74484C49.6417 6.5159 49.3764 6.30458 49.0933 6.10206L48.881 5.95237C48.8102 5.90834 48.7394 5.86432 48.6598 5.82029C48.5095 5.73224 48.3591 5.64419 48.2087 5.56494C47.6072 5.22154 46.9349 4.96619 46.2714 4.71083C45.9884 4.4819 45.6788 4.29699 45.3691 4.11208C45.2099 4.02403 45.0507 3.93598 44.8915 3.85673C44.7234 3.77748 44.5553 3.71585 44.3872 3.64541C44.0423 3.51333 43.6973 3.39886 43.3346 3.31081C42.9719 3.23156 42.6004 3.16992 42.2288 3.11709C41.875 2.99382 41.5123 2.89696 41.1585 2.7825C40.7958 2.67683 40.442 2.55356 40.0704 2.46551C39.6989 2.37746 39.3274 2.2894 38.9558 2.21016C38.5755 2.14852 38.1951 2.09569 37.8059 2.06047C37.4255 1.99003 37.0363 1.95481 36.647 1.91078C36.2578 1.87556 35.8686 1.81392 35.4705 1.79631C35.0725 1.7699 34.6832 1.74348 34.2852 1.71707C33.8871 1.69946 33.489 1.68185 33.0821 1.66423C32.6752 1.69946 32.2771 1.75229 31.8702 1.78751C31.4633 1.82273 31.0564 1.83153 30.6495 1.87556C30.2426 1.91078 29.8357 1.92839 29.4199 1.9372C29.013 1.96361 28.5972 1.98122 28.1726 1.99003C26.5627 2.4479 24.9085 2.72966 23.2277 3.1259C22.812 3.23156 22.3962 3.36364 21.9982 3.51333C21.5912 3.67182 21.202 3.85673 20.804 4.03283L20.5032 4.16491L20.2113 4.3146C20.0167 4.41146 19.8221 4.50831 19.6186 4.59637C19.424 4.69322 19.2117 4.76367 19.0171 4.86052C18.8136 4.94858 18.619 5.03663 18.4067 5.11587C16.8233 5.90834 15.3372 6.91214 13.8687 7.96876C12.3649 8.98136 10.9142 10.1524 9.7996 11.6581C8.57886 13.0582 7.49966 14.5727 6.37622 16.1048C5.56239 17.8218 4.60703 19.4507 3.77551 21.1854C3.09438 22.9816 2.37786 24.8043 2.13901 26.7591C1.7321 28.6786 1.67903 30.6598 1.57287 32.6321C1.50211 34.6133 1.62595 36.6121 2.13901 38.514C2.40439 39.4562 2.60785 40.4071 2.86438 41.3405C2.97053 41.816 3.12091 42.2738 3.2713 42.7317C3.35091 42.9606 3.41283 43.1984 3.50129 43.4185C3.58975 43.6386 3.67821 43.8676 3.77551 44.0877C3.83744 44.3166 3.89936 44.5544 3.98782 44.7833C4.07628 45.0034 4.16474 45.2324 4.26204 45.4525C4.35935 45.6726 4.45665 45.8928 4.5628 46.1041L4.90779 46.7293L5.26163 47.3544C5.38548 47.5569 5.50932 47.7595 5.64201 47.962C5.76585 48.1645 5.88969 48.367 6.00469 48.5695C6.12854 48.7721 6.25238 48.9658 6.37622 49.1771C7.40235 50.7532 8.44617 52.3382 9.7996 53.6237C11.0911 54.9533 12.4799 56.1508 13.8687 57.3131C14.7003 57.7181 15.4168 58.2465 16.1421 58.7572C16.496 59.0301 16.8675 59.2767 17.2479 59.5144C17.4337 59.6377 17.6194 59.7521 17.814 59.8666C18.0086 59.9723 18.2121 60.0691 18.4067 60.166C18.5925 60.2805 18.7871 60.3949 18.9817 60.5006C19.1763 60.6151 19.3709 60.6943 19.5744 60.7912C19.7778 60.888 19.9724 60.9761 20.1759 61.0641L20.4767 61.1962L20.7863 61.3107C21.1932 61.4604 21.6001 61.61 22.0159 61.7509C22.4316 61.883 22.8385 62.0151 23.2454 62.1648C24.077 62.3761 24.8819 62.6579 25.7046 62.8604C25.9081 62.9132 26.1115 62.966 26.315 63.0189C26.5184 63.0629 26.7307 63.0981 26.9342 63.1422C27.1377 63.1774 27.35 63.2126 27.5534 63.239L27.863 63.283C27.9692 63.283 28.0753 63.3006 28.1726 63.3006C28.5884 63.3623 28.9953 63.4063 29.4111 63.4503C29.8268 63.4767 30.2337 63.4944 30.6406 63.5208C31.0476 63.556 31.4545 63.5472 31.8614 63.5648C32.2683 63.5824 32.6664 63.6088 33.0733 63.6264C33.4713 63.5736 33.8783 63.556 34.2763 63.5472C34.6744 63.5208 35.0725 63.512 35.4705 63.5032C35.8686 63.5032 36.2578 63.4591 36.647 63.4239C37.0363 63.3887 37.4255 63.3359 37.797 63.2302C38.1774 63.1598 38.5578 63.0893 38.9381 63.0277C39.3097 62.9396 39.6812 62.8604 40.0527 62.7723C40.4243 62.6931 40.7869 62.5874 41.1496 62.4906C41.5123 62.3937 41.875 62.3057 42.2288 62.1912C42.6004 62.1384 42.963 62.0503 43.3169 61.9446C43.6707 61.8302 44.0069 61.6893 44.343 61.5484C44.5111 61.478 44.6792 61.4075 44.8384 61.3283C44.9976 61.249 45.1568 61.161 45.3161 61.0817C45.6345 60.9232 45.953 60.7559 46.2714 60.5975C46.9083 60.2893 47.5276 59.9459 48.1114 59.576C48.2618 59.488 48.4033 59.3999 48.5537 59.3119L48.7748 59.1798L48.996 59.0477C49.2879 58.8716 49.5887 58.7043 49.8983 58.5634C51.0217 57.8238 52.1628 57.137 53.0563 56.2037C53.2863 55.9835 53.5516 55.7986 53.7993 55.6049C54.047 55.4112 54.3035 55.2175 54.5512 55.0326C54.6751 54.9357 54.7989 54.8388 54.9139 54.7332C55.0201 54.6275 55.1351 54.5131 55.2324 54.4074C55.4358 54.1785 55.6216 53.9319 55.7631 53.659C55.9489 53.4212 56.1524 53.2011 56.3647 52.9986C56.5681 52.7872 56.7981 52.5935 56.9839 52.3734C57.1785 52.1621 57.3731 51.9419 57.55 51.7218C57.6385 51.6073 57.7181 51.4929 57.7977 51.3696C57.8685 51.2463 57.9304 51.1231 57.9923 50.991C58.2311 50.4715 58.5585 50.04 58.8681 49.5998C59.0273 49.3796 59.1954 49.1771 59.3546 48.957C59.5138 48.7456 59.6553 48.5255 59.788 48.3054C59.9207 48.0853 60.0534 47.8651 60.1773 47.645C60.3011 47.4249 60.4161 47.2047 60.5311 46.9846C60.6461 46.7645 60.7611 46.5443 60.8761 46.333C60.9911 46.1217 61.0884 45.9016 61.1857 45.6814C62.1057 43.7531 62.7249 41.9392 63.176 40.3367C63.2822 39.9316 63.3795 39.5442 63.4679 39.1744C63.5653 38.8046 63.6183 38.4348 63.6979 38.0914C63.8572 37.4045 63.9279 36.7618 64.0252 36.1982C64.1756 35.0536 64.2641 34.173 64.3083 33.5831C64.3614 32.9843 64.4056 32.6762 64.441 32.6762C64.4764 32.6762 64.5118 33.0548 64.5295 33.8032C64.5295 33.9881 64.5471 34.1995 64.5295 34.4284C64.5206 34.6573 64.5118 34.9127 64.5029 35.1768C64.4852 35.4498 64.4852 35.7404 64.4587 36.0574C64.4233 36.3743 64.3968 36.7089 64.3614 37.0611C64.1933 38.4788 63.9102 40.2222 63.3264 42.2122C62.7426 44.1934 61.858 46.4211 60.5488 48.7368C60.4161 48.9658 60.3011 49.2123 60.1684 49.4501C60.0357 49.6878 59.903 49.9255 59.7615 50.1721C59.4961 50.6564 59.16 51.1231 58.7619 51.5457C58.6823 51.6602 58.5938 51.7834 58.5142 51.9067C58.4258 52.0212 58.3373 52.1445 58.2577 52.2589C58.0808 52.4967 57.9127 52.7344 57.7358 52.9809C57.5677 53.2275 57.3643 53.4476 57.1608 53.6854C56.9573 53.9143 56.7539 54.1432 56.5239 54.3546C55.8516 55.42 54.7989 56.2037 53.7905 57.0401C52.7997 57.9207 51.6586 58.6691 50.5617 59.532C50.2875 59.7522 49.9956 59.9547 49.6948 60.1484L49.4737 60.2893C49.3941 60.3333 49.3144 60.3773 49.2437 60.4213C49.0844 60.5094 48.9252 60.5886 48.766 60.6767C48.1379 61.0289 47.4656 61.3195 46.8376 61.6981C46.4926 61.8302 46.1387 61.9446 45.7938 62.0855C45.6168 62.156 45.4488 62.2264 45.2807 62.2969C45.1038 62.3673 44.9357 62.4377 44.7588 62.5082C44.4049 62.6491 44.0599 62.8076 43.715 62.9572C43.3611 63.0981 43.0073 63.2478 42.6534 63.4063C42.2819 63.5032 41.8927 63.5824 41.5212 63.6881C41.1408 63.7849 40.7693 63.917 40.3889 64.0051C40.0085 64.1107 39.6193 64.2076 39.2389 64.3132C38.8497 64.4013 38.4516 64.4805 38.0536 64.551C37.6466 64.5774 37.2397 64.5862 36.8328 64.6214C36.4259 64.6566 36.0278 64.7183 35.6121 64.7535C35.2052 64.7975 34.7894 64.8504 34.3825 64.9032C33.9667 64.9472 33.551 64.9736 33.1352 65.0089C32.7194 65.0529 32.2948 65.0441 31.8702 65.0353C31.4456 65.0177 31.021 65.0177 30.5964 64.9736C30.1718 64.9384 29.7384 64.9032 29.3138 64.8592C28.8891 64.8063 28.4557 64.7535 28.0222 64.7095C26.3061 64.4189 24.5546 64.1283 22.8474 63.556C21.0959 63.1245 19.3709 62.4465 17.7875 61.4956C16.1068 60.7207 14.5322 59.6729 13.0195 58.5282C11.4449 57.4628 10.0738 56.0892 8.73809 54.6804C8.0658 53.9847 7.47312 53.2011 6.90698 52.3998C6.60622 52.0124 6.34084 51.5985 6.04892 51.2023C5.74816 50.8149 5.46509 50.4098 5.13779 50.0312C4.04089 48.3758 3.18284 46.5532 2.3867 44.7041C1.66133 42.8197 1.11288 40.8474 0.652896 38.8486C0.511361 36.7882 0.157523 34.7718 0.0513714 32.6762C-0.0193961 30.5893 0.219444 28.5113 0.652896 26.5037C1.01558 24.4785 1.6171 22.515 2.3867 20.6483C3.07668 18.7375 4.15589 17.0381 5.13779 15.3211C5.38548 14.8896 5.64201 14.467 5.94277 14.0708C6.23469 13.6745 6.51776 13.2695 6.84506 12.8997C7.46427 12.1336 8.12772 11.4204 8.73809 10.672C10.0031 9.20149 11.4184 7.8631 13.0195 6.82408C13.7803 6.26055 14.5853 5.75865 15.3991 5.30078C15.7972 5.05424 16.2129 4.83411 16.6021 4.59637C16.8056 4.47309 17.0002 4.34982 17.1948 4.22655C17.3894 4.11208 17.5929 3.98881 17.7875 3.85673C17.9909 3.74226 18.1944 3.6366 18.389 3.51333C18.5836 3.39886 18.7959 3.302 18.9994 3.18753C19.2028 3.08187 19.4063 2.97621 19.6098 2.87055L19.9194 2.71205C20.0255 2.65922 20.1317 2.6152 20.229 2.57117C20.6536 2.38626 21.0693 2.21016 21.5028 2.07808C21.9451 1.95481 22.3874 1.84914 22.8385 1.79631C23.6877 1.49694 24.5546 1.28561 25.4304 1.13592C25.6515 1.0919 25.8638 1.04787 26.0761 1.01265C26.2973 0.977429 26.5096 0.942208 26.7307 0.906987C26.943 0.871767 27.1642 0.827741 27.3765 0.783715L27.6949 0.713273L28.0134 0.651637C28.4557 0.651637 28.8891 0.634026 29.3138 0.598805C29.7472 0.581195 30.1718 0.537169 30.5964 0.493143C31.021 0.440312 31.4456 0.422701 31.8702 0.38748C32.2948 0.361065 32.7106 0.334649 33.1352 0.35226C33.551 0.378675 33.9756 0.396286 34.3825 0.422701C34.7982 0.466727 35.2052 0.510753 35.6209 0.545974C36.0278 0.57239 36.4347 0.642831 36.8417 0.686857C37.2486 0.730883 37.6555 0.757299 38.0536 0.81013C38.4605 0.854156 38.8585 0.906987 39.2477 0.986234C39.637 1.07429 40.0262 1.17114 40.4066 1.27681C40.7869 1.37366 41.1585 1.50574 41.5388 1.62021C41.9104 1.73468 42.2908 1.84034 42.6534 1.95481C43.0338 2.04286 43.3965 2.15733 43.7592 2.2894C44.113 2.43029 44.458 2.59759 44.803 2.75608C44.9711 2.83533 45.148 2.91457 45.3161 2.99382C45.4841 3.08187 45.6522 3.16112 45.8203 3.24037C46.1564 3.40766 46.5014 3.53974 46.8464 3.66302C47.4922 4.01522 48.1556 4.33221 48.7748 4.69322C48.9341 4.78128 49.0844 4.86933 49.2437 4.95738L49.4737 5.08946L49.6948 5.23915C49.9956 5.43286 50.2875 5.62658 50.5794 5.82909C50.7563 5.88193 50.9156 5.96117 51.0659 6.04042C51.2252 6.11967 51.3755 6.20772 51.5171 6.30458C51.809 6.49829 52.0921 6.692 52.3397 6.92975C52.5963 7.15868 52.8351 7.39642 53.0828 7.62536L53.2686 7.80146L53.4455 7.97756C53.5605 8.09203 53.6843 8.2065 53.8082 8.32097C54.7812 9.20149 55.8781 9.93232 56.5416 11.0066C56.7981 11.1915 57.0193 11.4028 57.2316 11.6229C57.4439 11.843 57.6473 12.072 57.8154 12.3185C57.9923 12.5651 58.1515 12.8116 58.3108 13.0582C58.3904 13.1814 58.47 13.3047 58.5496 13.428C58.6292 13.5513 58.7 13.6745 58.7796 13.7978C59.0804 14.2909 59.443 14.7312 59.7527 15.189C59.9119 15.418 60.0623 15.6469 60.2126 15.8758C60.3542 16.1048 60.4692 16.3513 60.5753 16.5979C60.7434 16.8092 60.8938 17.0293 61.0265 17.2494C61.1503 17.4784 61.2476 17.7161 61.3538 17.9539C61.4511 18.1916 61.5484 18.4293 61.6457 18.6495C61.743 18.8784 61.8315 19.1073 61.9553 19.3187C62.0968 19.7853 62.3003 20.2168 62.4684 20.6483C62.5568 20.8596 62.6453 21.0709 62.7337 21.2822C62.8222 21.4935 62.9018 21.6961 62.9637 21.9074C63.123 22.3124 63.2645 22.7175 63.3972 23.1137C63.5033 23.5099 63.5918 23.9062 63.6714 24.2848C63.7776 24.6634 63.8483 25.0332 63.9279 25.3854C63.9633 25.5616 63.9987 25.7377 64.0341 25.9138C64.0695 26.0899 64.1049 26.2572 64.1314 26.4245C64.5029 28.4232 64.5383 29.9994 64.5737 31.056C64.556 32.1126 64.5206 32.6673 64.4764 32.6673L64.4322 32.6409Z" fill="#0061EF"/>
<path d="M16.7126 61.1257C16.7126 61.1257 16.403 61.3546 15.7484 61.6364C15.0938 61.9181 14.1119 62.3144 12.8027 62.693C12.3604 62.8163 11.8916 62.9484 11.3785 63.054C10.8655 63.1773 10.317 63.3006 9.72434 63.3446C9.42358 63.3094 9.12281 63.3974 8.81321 63.4679C8.5036 63.5383 8.1763 63.5823 7.84015 63.4855C7.17671 63.4238 6.47788 63.415 5.74366 63.3094C5.37213 63.2565 5.00945 63.1333 4.64677 63.0012C4.28408 62.8603 3.9214 62.7018 3.53218 62.5609C3.10757 62.4729 2.78912 62.1647 2.50605 61.8477C2.21413 61.5219 1.96644 61.1873 1.57722 60.932C0.984545 60.2628 0.595324 59.3999 0.383021 58.5017C0.356483 58.0262 0.27687 57.5772 0.206102 57.1193C0.126488 56.6614 0.0557209 56.186 0.046875 55.7017C0.170718 55.2262 0.23264 54.7507 0.27687 54.2664C0.312253 53.7821 0.329945 53.289 0.347637 52.7871C0.84301 51.8714 1.05531 50.9116 1.0907 49.8374C1.4003 48.8512 1.88683 47.9091 2.17875 46.87C2.57682 45.8751 2.99257 44.8537 3.54987 43.8851C3.86832 42.802 4.42562 41.7983 5.15983 40.9001C5.54905 39.7907 6.23904 38.8397 6.9821 37.9064C7.734 36.9818 8.14976 35.8107 9.00782 34.9214C9.72434 33.9352 10.4143 32.9138 11.2193 31.9452C12.0597 31.0119 12.9354 30.0961 13.5989 28.9867C13.9881 28.476 14.3862 27.9653 14.8019 27.4722C15.0142 27.2256 15.2265 26.9791 15.4477 26.7414C15.5627 26.6269 15.6688 26.5036 15.7927 26.3891C15.9696 26.213 16.1553 26.0281 16.3323 25.852C16.5092 25.6055 16.7038 25.3589 16.9072 25.1124L16.9869 25.0155C16.9869 25.0155 17.0134 24.9803 17.0222 24.9715L17.0665 25.0067L17.2434 25.1388L17.6149 25.4206L17.9953 25.72L18.1988 25.8784L18.2518 25.9137C18.2518 25.9137 18.2695 25.9225 18.2784 25.9313L18.3226 25.9577C18.4376 26.0369 18.5526 26.125 18.6764 26.1954C18.8003 26.2659 18.9153 26.3539 19.0391 26.4156C19.163 26.486 19.2868 26.5476 19.4106 26.6269L19.7999 26.803L19.8972 26.847L20.0033 26.8822L20.2068 26.9527L20.4191 27.0055L20.6314 27.0319C20.7729 27.0495 20.9145 27.0936 21.0648 27.0936L21.5071 27.1288H21.9494C22.5421 27.0936 23.1348 26.9615 23.6655 26.6797C24.2228 26.4596 24.7182 26.1162 25.1605 25.72C25.2667 25.6143 25.3817 25.5174 25.479 25.4118C25.5763 25.2973 25.6736 25.1916 25.7797 25.0772C25.877 24.9627 25.9655 24.8394 26.054 24.725L26.1247 24.6369L26.1866 24.5401L26.3193 24.3551C26.6555 23.8621 26.9209 23.2985 27.0535 22.7086C27.1774 22.1186 27.1951 21.5023 27.0624 20.9211C26.9297 20.34 26.7793 19.7852 26.5582 19.2393C26.5051 19.1072 26.452 18.9664 26.3813 18.8431L26.2839 18.6494C26.2486 18.5877 26.2132 18.5173 26.1778 18.4557L26.054 18.2708C25.9655 18.1563 25.8593 18.0242 25.7709 17.9009C25.5763 17.6632 25.3817 17.4343 25.1782 17.1965L25.1163 17.1085C25.1163 17.1085 25.1782 17.0644 25.2047 17.038L25.3905 16.8971C25.5055 16.8091 25.6205 16.7122 25.7355 16.6242C25.9566 16.4481 26.1778 16.2632 26.3813 16.0871L26.5847 15.911L26.7705 15.7437C26.8943 15.6292 27.0093 15.5147 27.1332 15.4003C27.6108 14.9424 28.0797 14.4845 28.6104 14.0971C29.61 13.2518 30.7158 12.565 31.6623 11.6933C32.653 10.8832 33.6615 10.0995 34.7407 9.45675C35.5722 8.45295 36.846 8.11835 37.8279 7.39633C38.9336 6.85921 39.8713 6.09316 40.924 5.52963C41.9236 4.87804 43.0559 4.51703 44.0201 3.87425C45.055 3.38116 46.0369 2.76479 47.1161 2.4478C48.0804 1.84905 49.2215 1.74339 50.2034 1.28552C51.2295 0.942115 52.2468 0.642738 53.2729 0.449024C54.3433 0.484245 55.3075 0.105621 56.3159 0.0263742C56.8201 0.00876383 57.3155 -0.0440674 57.8197 -0.0440674C58.3151 -0.0440674 58.8193 0.00876383 59.2882 0.176063C59.7658 0.27292 60.2347 0.422608 60.677 0.607518C61.1193 0.783622 61.5527 0.986141 61.9862 1.17986C62.4019 1.40879 62.7204 1.77861 63.0035 2.13082C63.2865 2.49183 63.5431 2.82643 63.9323 3.1082C64.1977 3.46921 64.3215 3.90066 64.4277 4.3057C64.525 4.71955 64.6046 5.10698 64.7903 5.4856C64.9673 5.86422 65.0115 6.26926 64.9938 6.64789C64.9938 6.8416 64.9673 7.03532 64.9496 7.22022C64.9319 7.40513 64.9053 7.59004 64.8965 7.77495C64.8523 8.49698 64.755 9.18378 64.6223 9.82656C64.3304 11.2706 63.9234 12.521 63.5254 13.5864C63.1273 14.6518 62.7381 15.5323 62.4019 16.2368C61.7296 17.6456 61.2873 18.3588 61.2254 18.3324C61.1458 18.2972 61.5439 17.3462 62.2073 15.5676C62.5346 14.6782 62.9238 13.5776 63.2777 12.2656C63.4546 11.614 63.6315 10.9008 63.7642 10.1436C63.8969 9.3863 64.0119 8.57623 64.0296 7.73093C64.0296 7.56363 64.0296 7.38752 64.003 7.22022C63.9854 7.04412 63.9588 6.87682 63.9411 6.70072C63.8969 6.35732 63.8527 6.01391 63.8704 5.64409C63.8084 5.29189 63.6758 4.94848 63.5342 4.62269C63.3838 4.2969 63.2246 3.97111 63.0742 3.63651C62.7735 3.38996 62.5346 3.12581 62.2869 2.84404C62.0304 2.57108 61.765 2.28931 61.4289 2.07799C60.7477 1.68175 59.9693 1.32954 59.0936 1.27671C58.6513 1.27671 58.2266 1.21508 57.7755 1.17105C57.3244 1.12702 56.8644 1.10941 56.4044 1.18866C55.4579 1.10061 54.4937 1.29432 53.556 1.63773C52.5564 1.70817 51.6099 2.16604 50.628 2.49183C49.5665 2.6063 48.62 3.14342 47.6557 3.65412C46.6915 4.15601 45.6389 4.51703 44.657 5.08056C43.6308 5.55604 42.6666 6.19002 41.6405 6.73594C40.6851 7.41394 39.7032 8.05672 38.6152 8.59384C37.6421 9.30706 36.5983 9.93223 35.5899 10.6454C34.6345 11.4291 33.5642 12.0807 32.5734 12.8644C31.6004 13.6656 30.415 14.238 29.5746 15.2506C29.0881 15.6732 28.5839 16.0783 28.0797 16.5009C27.8408 16.7034 27.5931 16.9059 27.3543 17.1173C27.3278 17.1437 27.3012 17.1701 27.2747 17.1965L27.2393 17.2317L27.2216 17.2493C27.2216 17.2493 27.2216 17.2493 27.2216 17.2582L27.2482 17.311C27.2482 17.3198 27.2482 17.3198 27.2658 17.3374L27.4251 17.5663C27.4781 17.6456 27.5224 17.7248 27.5755 17.8041L27.7081 18.0506C27.8054 18.2091 27.8762 18.3852 27.9558 18.5525C28.2566 19.2305 28.4777 19.9525 28.5927 20.701C28.5397 21.467 28.4777 22.1979 28.3539 22.9375C28.2124 23.6771 27.9912 24.408 27.6462 25.0948L27.5047 25.3501L27.4339 25.4734L27.3543 25.5879C27.2393 25.7464 27.1332 25.9049 27.0182 26.0546C26.8943 26.1954 26.7616 26.3451 26.6378 26.486C26.5051 26.6269 26.3547 26.7502 26.2132 26.8734C25.6293 27.3665 24.9659 27.7628 24.2582 28.0445C23.5594 28.3439 22.8075 28.52 22.0644 28.5816L21.4983 28.6081L20.9321 28.5816C20.7464 28.5816 20.5606 28.5376 20.3749 28.5112L20.1006 28.4672L19.8264 28.3967L19.5522 28.3351L19.4195 28.2999L19.2868 28.2559C19.1099 28.1942 18.933 28.1326 18.756 28.0709C18.588 27.9917 18.4199 27.9036 18.2518 27.8244C18.0838 27.7451 17.9334 27.6307 17.7741 27.5426C17.6149 27.4458 17.4734 27.3401 17.323 27.2256L17.2699 27.1816L17.2434 27.164V27.1464L17.2169 27.12C17.2169 27.12 17.1992 27.1024 17.1903 27.0936C17.1815 27.0936 17.1726 27.076 17.1549 27.0936C17.1284 27.1288 17.1107 27.164 17.093 27.1992C17.093 27.2168 17.0753 27.2344 17.0753 27.2433V27.2609C17.0753 27.2609 17.0753 27.2609 17.0665 27.2785L16.9869 27.3665C16.8807 27.4898 16.7746 27.6131 16.6684 27.7275C16.4473 27.9653 16.235 28.1942 16.0138 28.4231C15.5715 28.8898 15.1381 29.3477 14.7665 29.8672C14.0058 30.8798 13.2539 31.8748 12.4047 32.7641C11.6528 33.7327 10.7328 34.578 10.2109 35.6786C9.54742 36.6824 9.12281 37.8095 8.19399 38.5932C7.62785 39.6146 6.81402 40.4599 6.37173 41.5077C5.58444 42.353 5.25714 43.4448 4.76176 44.4046C4.23101 45.3467 3.6914 46.2801 3.39064 47.2839C3.09873 48.2877 2.55912 49.1682 2.29374 50.128C2.21413 50.6211 2.02837 51.0789 1.86029 51.528C1.69222 51.9859 1.54184 52.4437 1.53299 52.9192C1.42684 53.3771 1.35607 53.835 1.31185 54.284C1.25877 54.7331 1.23223 55.1822 1.19685 55.6224C1.36492 56.0627 1.37377 56.4765 1.37377 56.8992C1.37377 57.313 1.34723 57.7357 1.43569 58.1319C1.5153 58.5281 1.70107 58.8892 1.89568 59.2149C2.09029 59.5495 2.27605 59.8489 2.3999 60.2275C2.7272 60.4389 2.97488 60.6854 3.22257 60.932C3.47026 61.1785 3.71794 61.4427 4.00986 61.6452C4.30177 61.8477 4.63792 61.971 4.96522 62.059C5.30137 62.1559 5.61982 62.2351 5.93827 62.3672C6.28327 62.3496 6.60172 62.42 6.92017 62.4905C7.23863 62.5609 7.55708 62.6314 7.86669 62.6049C8.49475 62.737 9.09628 62.5785 9.66242 62.5521C10.2286 62.4553 10.7593 62.376 11.2724 62.3496C11.7766 62.2703 12.2454 62.1735 12.6877 62.0766C13.9969 61.7773 14.9965 61.4779 15.6777 61.2754C16.3588 61.0728 16.7126 60.976 16.7392 61.02L16.7126 61.1257Z" fill="#0061EF"/>
<path d="M27.8262 21.5552C27.8705 21.5552 27.9147 21.6697 27.9501 21.881C27.9678 21.9866 27.9854 22.1275 27.9943 22.286C27.9943 22.4445 27.9943 22.6294 27.9766 22.8408C27.9589 22.9816 27.9324 23.1313 27.9058 23.2898C27.9058 23.3691 27.8881 23.4571 27.8705 23.5452C27.8528 23.6244 27.8262 23.7125 27.782 23.8005C27.5962 23.9238 27.8793 24.2496 27.5962 24.3552C27.5255 24.4345 27.4812 24.5314 27.4458 24.6282C27.4282 24.681 27.4105 24.7339 27.3928 24.7867C27.3751 24.8395 27.3574 24.8924 27.3308 24.9452C27.2512 25.1565 27.0389 25.2974 26.977 25.5528C27.0035 25.7201 26.8709 25.7817 26.747 25.8433C26.6232 25.905 26.4905 25.9578 26.5259 26.1603C26.4639 26.2748 26.3843 26.3892 26.287 26.4861C26.1897 26.583 26.0747 26.6622 25.9686 26.7591C25.8093 26.7855 25.6943 26.8647 25.597 26.9704C25.4997 27.0761 25.4113 27.2169 25.2963 27.305C24.9159 27.2698 24.7301 27.5163 24.509 27.7805C24.4028 27.7452 24.3144 27.7276 24.2259 27.7276C24.1463 27.7276 24.0667 27.7541 23.9959 27.7805C23.8544 27.8421 23.7305 27.9742 23.6244 28.1679C23.4652 28.2295 23.2971 28.2295 23.129 28.2648C23.0494 28.2824 22.961 28.3 22.8813 28.3264C22.8017 28.3528 22.7133 28.3792 22.6337 28.4233C22.4656 28.4585 22.2887 28.5113 22.1117 28.5377C21.9348 28.5553 21.7579 28.5641 21.5721 28.5465C21.3952 28.661 21.2006 28.6874 21.0148 28.6874C20.9175 28.6874 20.8291 28.6698 20.7318 28.6346C20.6433 28.5994 20.546 28.5553 20.4664 28.4937C20.0595 28.6698 19.6791 28.4761 19.343 28.2648C19.1749 28.1415 18.9803 28.1239 18.7768 28.0975C18.5822 28.0534 18.3788 28.0006 18.2372 27.8333C18.0603 27.7364 17.8834 27.6396 17.7065 27.5427C17.6092 27.4987 17.5295 27.4371 17.4411 27.3842C17.3526 27.3226 17.273 27.261 17.1934 27.1993L17.0872 27.0849L16.9899 26.9616C16.928 26.8823 16.8573 26.8031 16.7865 26.7327C16.6361 26.5918 16.4857 26.4597 16.2557 26.3716C16.1761 26.3012 16.0877 26.2396 16.008 26.1603C15.9284 26.0811 15.8577 26.0018 15.7869 25.9226C15.7161 25.8433 15.6542 25.7553 15.5923 25.6672C15.5392 25.5704 15.495 25.4647 15.4596 25.359C15.3534 25.2974 15.265 25.227 15.1854 25.1389C15.1058 25.0597 15.0615 24.954 15.0084 24.8571C14.92 24.6546 14.8669 24.4345 14.8492 24.1968C14.6458 23.7917 14.6811 23.325 14.4688 22.92C14.4512 22.6911 14.3892 22.4797 14.345 22.2508C14.3185 22.0219 14.2919 21.7929 14.3362 21.564C14.3804 21.3351 14.4246 21.1149 14.4512 20.8948C14.4865 20.6747 14.5042 20.4545 14.4688 20.2168C14.4335 19.9791 14.5219 19.7677 14.6015 19.5564C14.6369 19.4507 14.6988 19.3539 14.7431 19.2482C14.7873 19.1514 14.8315 19.0457 14.8581 18.94C14.9465 18.852 15.0084 18.7639 15.0615 18.6671C15.1146 18.5702 15.15 18.4646 15.1765 18.3589L15.2208 18.2004C15.2384 18.1476 15.2561 18.0947 15.2827 18.0507C15.3269 17.9539 15.38 17.857 15.4596 17.7778C15.5569 17.584 15.725 17.4344 15.8665 17.2759C16.008 17.1086 16.1584 16.9677 16.2557 16.774C16.3176 16.6859 16.3796 16.5979 16.4503 16.5186C16.5211 16.4394 16.6007 16.3689 16.6715 16.2897C16.7511 16.2192 16.8307 16.1488 16.9103 16.0872C16.9988 16.0343 17.0961 15.9815 17.1846 15.9375C17.2465 15.6733 17.4322 15.5589 17.6445 15.506C17.7507 15.4708 17.8568 15.4532 17.9541 15.4268C18.0072 15.4092 18.0515 15.3916 18.0957 15.3739C18.1399 15.3563 18.1841 15.3299 18.2284 15.3035C18.4407 15.2859 18.6176 15.189 18.7857 15.0922C18.9626 15.0041 19.1395 14.9073 19.3253 14.8632C19.5022 14.7752 19.7056 14.7752 19.8914 14.7488C19.9445 14.7488 19.9887 14.74 20.0329 14.7312C20.0772 14.7312 20.1302 14.7312 20.1745 14.7136C20.2718 14.6959 20.3602 14.6695 20.4487 14.6255C20.546 14.6255 20.6345 14.5991 20.7229 14.5815C20.8114 14.5727 20.9087 14.5551 20.9972 14.5463C21.1829 14.5286 21.3687 14.5022 21.5456 14.5815C21.7314 14.5022 21.9083 14.5551 22.0852 14.5991C22.1737 14.6255 22.2533 14.6607 22.3417 14.6783C22.4302 14.7047 22.5098 14.7136 22.6071 14.6959C22.9521 14.74 23.2794 14.8368 23.5979 14.9513C23.7129 15.1362 23.8544 15.2066 24.0136 15.2419C24.0932 15.2595 24.1728 15.2683 24.2525 15.2859C24.3321 15.3035 24.4117 15.3211 24.4825 15.3563C24.6151 15.4356 24.7744 15.4708 24.9159 15.5324C25.0574 15.6029 25.1901 15.6821 25.2609 15.8406C25.3228 15.8846 25.3759 15.9375 25.429 15.9815C25.482 16.0343 25.5263 16.096 25.5794 16.14C25.6855 16.2457 25.7917 16.3337 25.9332 16.3777C26.057 16.457 26.0836 16.6243 26.1366 16.7564C26.1897 16.8972 26.2782 16.9853 26.4905 16.9677C26.5966 17.0469 26.632 17.1878 26.6762 17.3111C26.7293 17.4344 26.7736 17.5488 26.9416 17.5752C27.1009 17.6105 27.1716 17.7161 27.207 17.8306C27.2424 17.9451 27.2424 18.0859 27.2955 18.1828C27.3485 18.2797 27.3928 18.3765 27.4458 18.4734C27.4812 18.5702 27.5255 18.6671 27.5608 18.7639C27.8881 19.6269 27.9501 20.3489 27.9501 20.8244C27.9235 21.3086 27.8528 21.5552 27.782 21.5552C27.7466 21.5552 27.7024 21.4759 27.6581 21.3351C27.6051 21.1942 27.5785 20.9829 27.4901 20.7187C27.3485 20.1904 27.1009 19.4243 26.5524 18.6143C26.4993 18.535 26.4109 18.4734 26.3313 18.4029C26.2516 18.3325 26.1897 18.262 26.1897 18.13C26.0747 17.9451 25.8093 17.8922 25.7563 17.6457C25.597 17.6457 25.4997 17.584 25.4378 17.4872C25.367 17.3991 25.3228 17.2671 25.2432 17.1878C25.1459 17.1174 25.0574 17.0293 24.969 16.9501C24.9248 16.906 24.8717 16.8708 24.8186 16.8356C24.7655 16.8092 24.7036 16.7828 24.6328 16.774C24.4913 16.774 24.394 16.6859 24.2967 16.5979C24.1994 16.5186 24.0932 16.4394 23.9517 16.4218C23.9075 16.3601 23.8632 16.3073 23.8102 16.2633C23.7571 16.2192 23.6952 16.1928 23.6244 16.1752C23.4917 16.14 23.3502 16.1224 23.1998 16.1488C23.0936 16.0431 22.9521 16.0167 22.8106 15.9991C22.669 15.9815 22.5187 15.9991 22.386 15.9815C22.324 15.9111 22.2621 15.867 22.1914 15.8406C22.1206 15.8142 22.0498 15.8054 21.9702 15.8142C21.8198 15.8318 21.6694 15.8846 21.5191 15.9199C21.4483 15.9375 21.3687 15.9463 21.2979 15.9551C21.2271 15.9551 21.1475 15.9551 21.0768 15.9551C20.9972 15.9551 20.9264 15.9551 20.8468 15.9551C20.776 15.9639 20.6964 15.9815 20.6256 16.0079C20.316 15.9991 20.0418 16.184 19.7322 16.2192C19.5995 16.3249 19.4757 16.413 19.3253 16.4746C19.1837 16.5362 19.0422 16.5891 18.8653 16.5979C18.8299 16.6243 18.8034 16.6507 18.768 16.6683C18.7326 16.6947 18.7061 16.7211 18.6707 16.7387C18.6087 16.7828 18.538 16.8268 18.4672 16.862C18.3257 16.9325 18.1841 17.0205 18.0603 17.1174C18.0072 17.1878 17.9453 17.2406 17.8834 17.2935C17.8303 17.3463 17.7595 17.3991 17.6976 17.452L17.503 17.6017C17.4411 17.6545 17.388 17.7161 17.3349 17.7866C17.2376 17.9275 17.0784 18.0067 16.9546 18.13C16.8307 18.2444 16.698 18.3765 16.7246 18.5966C16.5653 18.896 16.353 19.169 16.2646 19.5124L16.1584 19.7501C16.123 19.8294 16.0788 19.9086 16.0611 19.9967C16.0169 20.164 15.9727 20.3401 15.9727 20.5162C15.8311 20.6659 15.7692 20.842 15.7692 21.0269C15.778 21.2118 15.8311 21.3967 15.8754 21.5728C15.9196 21.7489 15.9373 21.925 15.9461 22.1011C15.955 22.2772 15.9815 22.4533 15.9815 22.6294C16.0788 22.964 16.1584 23.3074 16.2734 23.6244C16.3619 23.7741 16.4238 23.9326 16.4769 24.0999C16.5034 24.1791 16.53 24.2672 16.5742 24.3376C16.6184 24.4081 16.6715 24.4785 16.7423 24.5402C16.813 24.593 16.8573 24.6634 16.9015 24.7427C16.9546 24.8131 16.9899 24.8836 17.0342 24.9628C17.0784 25.0421 17.1138 25.1125 17.1669 25.1829C17.2199 25.2534 17.2819 25.3062 17.3615 25.3502C17.503 25.4471 17.6268 25.5528 17.7595 25.6496C17.8215 25.7024 17.8834 25.7553 17.9365 25.8169C17.963 25.8521 17.9895 25.8874 18.0161 25.9138C18.0426 25.949 18.0691 25.9754 18.0868 26.0106C18.1576 26.0635 18.2107 26.1163 18.2638 26.1779C18.3168 26.2396 18.3699 26.31 18.4407 26.3628C18.5645 26.4685 18.7061 26.5654 18.9007 26.5389C19.0599 26.583 19.2368 26.5742 19.3872 26.6094C19.5464 26.627 19.6791 26.6974 19.7676 26.9088C19.9268 26.9176 20.0683 26.988 20.2099 27.0584C20.3514 27.1377 20.5018 27.1729 20.661 27.1289C20.7229 27.2081 20.8025 27.2434 20.8733 27.2698C20.9441 27.2874 21.0237 27.2874 21.1033 27.2698C21.2537 27.2434 21.4041 27.2081 21.5544 27.1993C21.7048 27.2169 21.8464 27.2434 21.9967 27.2522C22.1471 27.2522 22.2887 27.2169 22.4214 27.1465C22.4833 27.1025 22.554 27.0849 22.6248 27.0761C22.6956 27.0584 22.7575 27.0496 22.8283 27.0496C22.9698 27.0408 23.1202 27.0496 23.2352 26.9792C23.3413 26.8647 23.4829 26.8647 23.6244 26.8559C23.7659 26.8559 23.9075 26.8207 23.9871 26.6974C24.2436 26.627 24.4294 26.4333 24.6682 26.3452C24.6771 26.1339 24.7655 26.0635 24.8894 26.0282C25.0132 25.993 25.1724 26.0018 25.2609 25.9226C25.367 25.8609 25.4113 25.7377 25.482 25.6408C25.544 25.544 25.6059 25.4559 25.7828 25.4559C25.7563 25.2886 25.827 25.2094 25.9243 25.1477C26.0128 25.0861 26.1366 25.0421 26.2251 24.9804C26.4197 24.8571 26.3578 24.5842 26.5878 24.4961C26.5701 24.4345 26.5878 24.3817 26.6055 24.3464C26.632 24.3024 26.6586 24.2672 26.7028 24.2408C26.7824 24.1791 26.8709 24.1175 26.8797 24.0207C27.0743 23.9062 27.0212 23.6949 27.1097 23.5628C27.1097 23.4835 27.1362 23.4043 27.1716 23.3338C27.1982 23.2634 27.2335 23.193 27.2866 23.1313C27.3397 22.9904 27.3928 22.8672 27.4282 22.7439C27.4812 22.559 27.5255 22.3917 27.5697 22.2508C27.6139 22.1011 27.6316 21.9778 27.6581 21.881C27.7112 21.6785 27.7643 21.5728 27.8174 21.5728L27.8262 21.5552Z" fill="#0061EF"/>
</g>
<defs>
<clipPath id="clip0_923_15203">
<rect width="65" height="65" fill="white"/>
</clipPath>
</defs>
</svg>
