<svg width="18" height="18" viewBox="0 0 18 18" fill="none" xmlns="http://www.w3.org/2000/svg">
<path d="M3.07697 4.15366C2.79134 4.15366 2.51741 4.26712 2.31544 4.46909C2.11347 4.67106 2 4.94499 2 5.23062V14.9233C2 15.2089 2.11347 15.4829 2.31544 15.6848C2.51741 15.8868 2.79134 16.0003 3.07697 16.0003H14.9236C15.2092 16.0003 15.4832 15.8868 15.6851 15.6848C15.8871 15.4829 16.0006 15.2089 16.0006 14.9233V5.23062C16.0006 4.94499 15.8871 4.67106 15.6851 4.46909C15.4832 4.26712 15.2092 4.15366 14.9236 4.15366H12.7697" stroke="#5B5B5B" stroke-width="1.5" stroke-linecap="round" stroke-linejoin="round"/>
<path d="M5.23438 1.99971V6.30757" stroke="#5B5B5B" stroke-width="1.5" stroke-linecap="round" stroke-linejoin="round"/>
<path d="M12.7734 1.99971V6.30757" stroke="#5B5B5B" stroke-width="1.5" stroke-linecap="round" stroke-linejoin="round"/>
<path d="M5.23438 4.15366H10.6192" stroke="#5B5B5B" stroke-width="1.5" stroke-linecap="round" stroke-linejoin="round"/>
<path d="M5.76562 11.1539L7.91956 12.7694L11.6889 8.46152" stroke="#5B5B5B" stroke-width="1.5" stroke-linecap="round" stroke-linejoin="round"/>
</svg>
