<svg width="50" height="50" viewBox="0 0 50 50" fill="none" xmlns="http://www.w3.org/2000/svg">
<rect x="50" y="50" width="50" height="50" rx="25" transform="rotate(-180 50 50)" fill="#40ADE9"/>
<path d="M27.6957 34.2167C28.6411 34.8276 29.7677 35.0938 30.8861 34.9706C32.0045 34.8474 33.0464 34.3422 33.8367 33.5401L34.5275 32.8636C34.8304 32.5533 35 32.1366 35 31.7027C35 31.2688 34.8304 30.8521 34.5275 30.5418L31.5952 27.6357C31.288 27.3333 30.8745 27.1639 30.4438 27.1639C30.013 27.1639 29.5995 27.3333 29.2923 27.6357C28.9825 27.9391 28.5665 28.1089 28.1332 28.1089C27.6999 28.1089 27.2839 27.9391 26.9741 27.6357L22.3683 23.0229C22.2147 22.8712 22.0927 22.6905 22.0094 22.4912C21.9261 22.2919 21.8832 22.078 21.8832 21.862C21.8832 21.6459 21.9261 21.432 22.0094 21.2327C22.0927 21.0334 22.2147 20.8527 22.3683 20.7011C22.6702 20.3934 22.8394 19.9793 22.8394 19.5479C22.8394 19.1165 22.6702 18.7023 22.3683 18.3947L19.4514 15.4732C19.1416 15.1698 18.7255 15 18.2922 15C17.859 15 17.4429 15.1698 17.1331 15.4732L16.4576 16.1651C15.6567 16.9566 15.1524 18.0001 15.0294 19.1202C14.9063 20.2403 15.1722 21.3687 15.7821 22.3156C18.9601 27.0064 23.0038 31.0459 27.6957 34.2167Z" fill="white"/>
</svg>
