<svg width="24" height="24" viewBox="0 0 24 24" fill="none" xmlns="http://www.w3.org/2000/svg">
<path d="M21.97 17.9303C21.97 18.2824 21.89 18.6443 21.72 18.9965C21.55 19.3486 21.33 19.6812 21.04 19.9942C20.55 20.5224 20.01 20.9039 19.4 21.1485C18.8 21.393 18.15 21.5202 17.45 21.5202C16.43 21.5202 15.34 21.2854 14.19 20.8061C13.04 20.3268 11.89 19.6812 10.75 18.8693C9.6 18.0476 8.51 17.1379 7.47 16.1304C6.44 15.1131 5.51 14.0469 4.68 12.9317C3.86 11.8166 3.2 10.7015 2.72 9.59615C2.24 8.48102 2 7.4148 2 6.39749C2 5.73233 2.12 5.09651 2.36 4.5096C2.6 3.91291 2.98 3.36513 3.51 2.87603C4.15 2.25978 4.85 1.95654 5.59 1.95654C5.87 1.95654 6.15 2.01523 6.4 2.13262C6.66 2.25 6.89 2.42607 7.07 2.6804L9.39 5.87905C9.57 6.1236 9.7 6.34858 9.79 6.56378C9.88 6.7692 9.93 6.97462 9.93 7.16047C9.93 7.39524 9.86 7.63 9.72 7.85498C9.59 8.07996 9.4 8.31473 9.16 8.54949L8.4 9.32225C8.29 9.42985 8.24 9.55702 8.24 9.71353C8.24 9.79178 8.25 9.86025 8.27 9.93851C8.3 10.0168 8.33 10.0755 8.35 10.1341C8.53 10.4569 8.84 10.8776 9.28 11.3862C9.73 11.8949 10.21 12.4133 10.73 12.9317C11.27 13.4502 11.79 13.9295 12.32 14.3697C12.84 14.8001 13.27 15.0935 13.61 15.2696C13.66 15.2892 13.72 15.3185 13.79 15.3479C13.87 15.3772 13.95 15.387 14.04 15.387C14.21 15.387 14.34 15.3283 14.45 15.2207L15.21 14.4871C15.46 14.2425 15.7 14.0567 15.93 13.9393C16.16 13.8023 16.39 13.7339 16.64 13.7339C16.83 13.7339 17.03 13.773 17.25 13.861C17.47 13.9491 17.7 14.0762 17.95 14.2425L21.26 16.5412C21.52 16.7173 21.7 16.9227 21.81 17.1673C21.91 17.4118 21.97 17.6564 21.97 17.9303Z" stroke="#5B5B5B" stroke-width="1.5" stroke-miterlimit="10"/>
<path d="M18.5 8.80401C18.5 8.2171 18.03 7.31717 17.33 6.58354C16.69 5.90859 15.84 5.38037 15 5.38037" stroke="#5B5B5B" stroke-width="1.5" stroke-linecap="round" stroke-linejoin="round"/>
<path d="M22 8.80382C22 5.01825 18.87 1.95654 15 1.95654" stroke="#5B5B5B" stroke-width="1.5" stroke-linecap="round" stroke-linejoin="round"/>
</svg>
