<svg width="18" height="18" viewBox="0 0 18 18" fill="none" xmlns="http://www.w3.org/2000/svg">
<g clip-path="url(#clip0_1854_27018)">
<path d="M8.99777 0.642883C10.6507 0.642883 12.2664 1.13302 13.6408 2.05132C15.0151 2.96961 16.0862 4.27482 16.7188 5.80189C17.3513 7.32895 17.5168 9.0093 17.1943 10.6304C16.8719 12.2516 16.0759 13.7407 14.9072 14.9094C13.7384 16.0782 12.2493 16.8741 10.6282 17.1966C9.00704 17.5191 7.3267 17.3536 5.79963 16.721C4.27256 16.0885 2.96736 15.0173 2.04906 13.643C1.13077 12.2687 0.640631 10.6529 0.640631 9.00003C0.637981 6.60599 1.55908 4.30324 3.21206 2.57145" stroke="#5B5B5B" stroke-linecap="round" stroke-linejoin="round"/>
<path d="M0.640625 3.21433L3.21205 2.57147L3.85491 5.1429" stroke="#5B5B5B" stroke-linecap="round" stroke-linejoin="round"/>
<path d="M9 4.5V9.64286L12.3429 11.3143" stroke="#5B5B5B" stroke-linecap="round" stroke-linejoin="round"/>
</g>
<defs>
<clipPath id="clip0_1854_27018">
<rect width="18" height="18" fill="white"/>
</clipPath>
</defs>
</svg>
