<svg width="18" height="18" viewBox="0 0 18 18" fill="none" xmlns="http://www.w3.org/2000/svg">
<g clip-path="url(#clip0_3037_5469)">
<path d="M8.99973 0.642853C10.6526 0.642853 12.2684 1.13299 13.6427 2.05129C15.017 2.96958 16.0882 4.27479 16.7207 5.80186C17.3533 7.32892 17.5188 9.00927 17.1963 10.6304C16.8738 12.2515 16.0779 13.7406 14.9091 14.9094C13.7404 16.0782 12.2513 16.8741 10.6301 17.1966C9.009 17.519 7.32865 17.3535 5.80159 16.721C4.27452 16.0885 2.96931 15.0173 2.05102 13.643C1.13272 12.2686 0.642584 10.6529 0.642584 9C0.639934 6.60596 1.56104 4.30321 3.21401 2.57142" stroke="#5B5B5B" stroke-linecap="round" stroke-linejoin="round"/>
<path d="M0.642578 3.21427L3.21401 2.57141L3.85686 5.14284" stroke="#5B5B5B" stroke-linecap="round" stroke-linejoin="round"/>
<path d="M9 4.5V9.64286L12.3429 11.3143" stroke="#5B5B5B" stroke-linecap="round" stroke-linejoin="round"/>
</g>
<defs>
<clipPath id="clip0_3037_5469">
<rect width="18" height="18" fill="white"/>
</clipPath>
</defs>
</svg>
