<svg width="154" height="60" viewBox="0 0 154 60" fill="none" xmlns="http://www.w3.org/2000/svg">
<path d="M79.0332 0C68.2497 0 58.7871 5.619 53.4476 14.0713C51.89 13.6983 50.2648 13.5 48.5937 13.5C42.575 13.5 37.1519 16.0619 33.3415 20.1597C31.5307 19.4126 29.5449 19 27.4621 19C18.987 19 12.1165 25.8277 12.1165 34.25C12.1165 42.6723 18.987 49.5 27.4621 49.5C29.418 49.5 31.2881 49.1356 33.0083 48.4727C36.8323 52.7841 42.3971 55.5 48.5937 55.5C52.4587 55.5 56.0778 54.4426 59.1825 52.6016C64.4894 57.2085 71.4331 60 79.0332 60C88.6711 60 97.2542 55.5116 102.781 48.5234C106.228 49.5785 110.035 49.5792 113.694 48.2856C117.087 47.0865 119.871 44.9459 121.855 42.2646C124.985 44.3494 129.033 44.987 132.856 43.6357C135.451 42.7185 137.544 41.025 138.966 38.9121C140.81 39.8367 143.046 40.0341 145.181 39.2793C147.63 38.4139 149.386 36.4955 150.087 34.2529C150.437 34.411 150.824 34.5 151.233 34.5C152.761 34.5 154 33.2688 154 31.75C154 30.2312 152.761 29 151.233 29C150.748 29 150.292 29.124 149.896 29.3418C148.394 25.6203 144.085 23.7462 140.124 25.1465C139.787 25.2653 139.465 25.4045 139.156 25.561C136.15 20.8118 130.136 18.5938 124.595 20.5522C123.629 20.8936 122.733 21.3431 121.915 21.8809C118.119 16.6926 111.642 13.9722 105.177 14.9912C99.9565 6.02904 90.2034 0 79.0332 0Z" fill="white"/>
<path d="M7.32988 21.0332C6.6315 19.0819 4.47337 18.0628 2.50984 18.7568C0.546371 19.4509 -0.479126 21.5951 0.219208 23.5464C0.917557 25.4976 3.07529 26.5171 5.03877 25.8232C7.00227 25.1292 8.02821 22.9845 7.32988 21.0332Z" fill="white"/>
</svg>
