<svg width="86" height="65" viewBox="0 0 86 65" fill="none" xmlns="http://www.w3.org/2000/svg">
<g clip-path="url(#clip0_1143_38255)">
<path d="M44.0075 59.2999C43.9275 59.3699 43.5575 59.0799 42.9475 58.4899C42.8475 58.3899 42.7375 58.2899 42.6275 58.1699C42.5075 58.0599 42.3675 57.9499 42.2675 57.8099C42.2675 57.5799 41.8275 57.6899 41.8675 57.3999C41.7875 57.2099 41.6075 57.0799 41.4275 56.9399C41.2475 56.7999 41.2075 56.5399 40.9575 56.4399C40.5975 56.4399 40.8775 55.8799 40.4575 55.8999C40.2375 55.7499 40.0875 55.5399 39.9275 55.3199C39.9175 54.9799 39.5775 54.8999 39.3675 54.6999C39.3675 54.5099 39.3075 54.3799 39.1975 54.2699C39.1475 54.2199 39.0775 54.1799 39.0075 54.1399C38.9675 54.1199 38.9375 54.0999 38.8975 54.0899L38.8375 54.0699L38.7575 54.0199C38.7375 53.7499 38.6875 53.5799 38.5675 53.4299C38.5975 53.3099 38.5875 53.1999 38.5675 53.0799C38.5675 53.0199 38.5375 52.9499 38.5175 52.8899C38.5075 52.8499 38.4975 52.8199 38.4875 52.7799C38.4875 52.7599 38.4775 52.7399 38.4675 52.7299L38.4375 52.6899C38.4875 52.3799 38.6775 52.0899 38.5975 51.7399C38.6375 51.4099 38.6375 51.0699 38.7675 50.7499C38.6075 50.3699 38.6875 50.0299 38.9475 49.7199C38.7775 49.3299 38.9475 48.9899 39.1375 48.6599C39.3475 48.3299 39.0675 47.8999 39.3375 47.5599C39.4275 47.1899 39.4275 46.8099 39.5475 46.4399C39.7175 46.0799 39.9075 45.7199 39.7575 45.2899C39.7575 45.0899 39.7675 44.8899 39.7975 44.6899C39.8075 44.5899 39.8275 44.4899 39.8575 44.3999L39.8775 44.3299C39.8775 44.3299 39.8975 44.2899 39.9075 44.2399C39.9375 44.1499 39.9675 44.0599 39.9975 43.9799C39.9375 43.5399 39.9975 43.0699 40.0975 42.6699C40.4975 42.6899 40.9175 42.7499 41.2875 42.8099C41.3775 42.8099 41.4775 42.8099 41.5675 42.8099H41.7075H41.7875C41.8875 42.8099 41.9975 42.8299 42.0975 42.8499C42.3075 42.8699 42.5075 42.8799 42.7175 42.8099C43.1375 42.8499 43.5575 42.6999 43.9775 42.8099C44.4075 42.8899 44.8275 42.9699 45.2475 42.8099C45.4575 42.7299 45.6675 42.7399 45.8675 42.7699C45.9675 42.7799 46.0775 42.7999 46.1775 42.8099H46.2575H46.3975C46.4875 42.8099 46.5875 42.8099 46.6875 42.7999C47.0175 42.9199 47.3275 42.8999 47.7075 42.8699C47.8075 43.1999 47.9575 43.5599 47.9875 43.9699C48.0075 44.0599 48.0275 44.1499 48.0475 44.2399C48.0475 44.2999 48.0475 44.2999 48.0575 44.3299V44.3999C48.0775 44.4999 48.0775 44.5999 48.0875 44.6999C48.1075 44.8999 48.1375 45.0999 48.2375 45.2799C48.3575 45.6599 48.4775 46.0299 48.4475 46.4299C48.8975 46.7399 48.4975 47.1999 48.6475 47.5499C48.5675 47.9499 48.8175 48.2799 48.8475 48.6499C48.9875 48.9899 48.8175 49.3999 49.0375 49.7099C49.0775 50.0599 49.2975 50.3799 49.2175 50.7399C49.4675 51.0399 49.1975 51.4399 49.3875 51.7299C49.4475 52.0499 49.5275 52.3699 49.5475 52.6799C49.5475 52.6899 49.5375 52.6999 49.5275 52.7199C49.5275 52.7299 49.5175 52.7599 49.5075 52.7699C49.5075 52.8099 49.4975 52.8399 49.4875 52.8799C49.4875 52.9499 49.4775 53.0099 49.4875 53.0799C49.4875 53.2099 49.5275 53.3299 49.5775 53.4699C49.4675 53.6399 49.3775 53.8399 49.2375 54.0199L49.1775 54.0899C49.1775 54.0899 49.1575 54.1199 49.1375 54.1299C49.1175 54.1599 49.0975 54.1899 49.0775 54.2199C49.0375 54.2899 48.9975 54.3499 48.9675 54.4099C48.8875 54.5399 48.7975 54.6499 48.6275 54.6899C48.4275 54.8899 48.1475 55.0299 48.0675 55.3099C47.9275 55.5399 47.3975 55.4399 47.5375 55.8899C47.4275 56.1299 46.9875 56.0799 47.0375 56.4299C47.0775 56.7699 46.7175 56.7699 46.5675 56.9299C46.4175 57.0899 46.2675 57.2399 46.1275 57.3899C44.8775 58.6899 44.0975 59.3899 43.9775 59.2899C43.8375 59.1799 44.5375 58.0899 45.8275 56.3199C45.9575 56.1399 45.9475 55.8399 46.2375 55.7699C46.3875 55.5899 46.4275 55.2999 46.6775 55.1799C46.6275 54.8099 46.9675 54.7499 47.1575 54.5499C47.3175 54.3299 47.5675 54.1799 47.6675 53.8899C47.6975 53.7299 47.8075 53.6299 47.9175 53.5299C47.9775 53.4799 48.0375 53.4299 48.0875 53.3799C48.1075 53.3499 48.1375 53.3199 48.1575 53.2899C48.1575 53.2699 48.1775 53.2599 48.1875 53.2399V53.2199C48.2775 53.2299 48.3475 53.1899 48.3875 53.1499C48.3875 53.1099 48.3575 53.0799 48.3275 53.0399C48.3075 53.0199 48.2975 53.0099 48.2775 52.9999C48.2775 52.9999 48.2575 52.9899 48.2475 52.9799C48.2475 52.9799 48.2475 52.9799 48.2275 52.9699L48.2075 52.9399C48.3075 52.5999 48.0475 52.3199 47.9975 51.9999C48.1775 51.6299 47.9475 51.3299 47.7775 51.0199C47.6175 50.6999 47.6775 50.3399 47.5475 49.9999C47.5275 49.6399 47.3475 49.3099 47.3175 48.9499C47.1275 48.6099 47.0175 48.2599 47.0875 47.8599C46.9375 47.5099 46.9275 47.1199 46.8475 46.7399C46.6775 46.3799 46.7075 45.9799 46.6075 45.5899C46.5475 45.3999 46.5675 45.1899 46.5675 44.9899C46.5675 44.8899 46.5675 44.7899 46.5275 44.6899C46.5275 44.6699 46.5075 44.6399 46.4975 44.6199C46.4975 44.5999 46.4775 44.5599 46.4675 44.5699C46.4475 44.5699 46.4175 44.5699 46.3875 44.5699C46.3675 44.5499 46.3675 44.5199 46.3775 44.4799C46.3575 44.4799 46.3275 44.4699 46.2975 44.4899C46.2975 44.4899 46.2875 44.4899 46.2775 44.4799H46.2675L46.1875 44.4699C46.0875 44.4699 45.9775 44.4599 45.8775 44.4599C45.6675 44.4599 45.4575 44.4599 45.2575 44.4999C44.8375 44.2299 44.4175 44.3999 43.9875 44.4999C43.5675 44.5799 43.1375 44.5399 42.7275 44.4999C42.5175 44.5099 42.3075 44.5199 42.1075 44.5199H41.7975L41.7175 44.5099H41.6975C41.6875 44.5499 41.6675 44.5199 41.6175 44.4999C41.5875 44.4999 41.5575 44.5299 41.6075 44.5899C41.6175 44.5999 41.6275 44.6099 41.6275 44.6099C41.6275 44.6099 41.6275 44.6499 41.6275 44.6699C41.6275 44.6999 41.6275 44.7199 41.6075 44.7399C41.5875 44.8399 41.5475 44.9299 41.5175 45.0299C41.4475 45.2199 41.3775 45.4099 41.3975 45.6099C41.3975 46.0099 41.3675 46.4099 41.1575 46.7599C41.0775 47.1399 40.7675 47.4599 40.9175 47.8799C40.8975 48.2599 41.1275 48.6799 40.6875 48.9699C40.7075 49.3499 40.3675 49.6499 40.4575 50.0199C40.1175 50.3099 40.3075 50.7099 40.2375 51.0399C40.1175 51.3699 39.9575 51.6799 40.0175 52.0199C40.0875 52.3699 39.8175 52.6499 39.8075 52.9599C39.8075 52.9699 39.8075 52.9799 39.8075 52.9899C39.8075 52.9899 39.8075 52.9899 39.8075 52.9999C39.8075 52.9999 39.8075 53.0099 39.8075 53.0199C39.8075 53.0299 39.8075 53.0399 39.7975 53.0499C39.7775 53.0699 39.7475 53.0999 39.7075 53.1299C39.6875 53.1699 39.7075 53.2399 39.7975 53.2299V53.2499L39.8375 53.2999L39.9075 53.3899C39.9575 53.4499 40.0075 53.4999 40.0475 53.5599C40.1475 53.6699 40.2375 53.7799 40.3075 53.9099C40.7775 53.8899 40.6675 54.3399 40.8175 54.5699C40.9475 54.8099 41.3475 54.8199 41.2975 55.1999C41.6775 55.2099 41.6475 55.5599 41.7375 55.7899C41.8275 56.0199 42.1275 56.0699 42.1475 56.3399C42.4475 56.3799 42.3375 56.7399 42.5175 56.8499C42.5475 57.0899 42.7575 57.1599 42.8475 57.3199C42.9975 57.4299 43.0975 57.5699 43.1375 57.7399C43.2275 57.8699 43.3175 57.9999 43.3875 58.1199C43.8575 58.8299 44.0675 59.2399 43.9875 59.3099L44.0075 59.2999Z" fill="#0061EF"/>
<path d="M39.1685 39.1102C39.2685 39.0702 39.4585 39.3002 39.7285 39.7402C39.7685 39.8202 39.8185 39.9002 39.8685 39.9802C39.9285 40.0602 39.9985 40.1502 40.0185 40.2602C39.9285 40.4102 40.3385 40.3802 40.1785 40.5702C40.1685 40.7102 40.2585 40.8102 40.3585 40.9102C40.4485 41.0202 40.3785 41.2002 40.5485 41.2802C40.8585 41.3202 40.3685 41.6602 40.7385 41.6902C40.8685 41.8102 40.8985 41.9602 40.9485 42.1202C40.8185 42.3502 41.0685 42.4302 41.1585 42.5802C41.1185 42.6402 41.0985 42.7002 41.0885 42.7502C41.0885 42.7802 41.0885 42.8002 41.0885 42.8202C41.0885 42.8402 41.0885 42.8402 41.1085 42.8502C41.1385 42.8902 41.2185 42.9002 41.2985 42.8702C41.1385 43.0502 41.1285 43.2002 41.1985 43.1902C41.2685 43.1502 41.3585 43.0702 41.4385 42.9502C41.4685 42.9502 41.4885 42.9802 41.5285 42.9902C41.5485 42.9902 41.5685 42.9902 41.5785 42.9902C41.5785 42.9902 41.6085 42.9802 41.6385 42.9702C41.6585 42.9602 41.6885 42.9402 41.7085 42.9202C41.9085 42.9002 42.1085 42.8302 42.3185 42.8902C42.5285 42.6602 42.7385 42.6702 42.9585 42.8702C43.1685 42.6202 43.3985 42.7202 43.6185 42.8502C43.8385 42.9902 44.0685 42.6302 44.2985 42.8302C44.5285 42.8502 44.7585 42.7702 44.9985 42.8102C45.2385 42.9102 45.4685 43.0202 45.7085 42.8002C45.8285 42.7702 45.9485 42.7302 46.0685 42.7202C46.1285 42.7202 46.1885 42.7202 46.2485 42.7202C46.2785 42.7202 46.3085 42.7302 46.3385 42.7402C46.3485 42.7402 46.3785 42.7502 46.3785 42.7602V42.7802C46.3985 42.6602 46.3785 42.6202 46.3785 42.6202C46.3785 42.6202 46.3985 42.6602 46.4485 42.7202C46.4585 42.7302 46.4785 42.7402 46.4885 42.7602C46.4885 42.7202 46.5085 42.7402 46.5385 42.7302C46.5485 42.7302 46.5685 42.7202 46.5685 42.7002C46.5685 42.7002 46.5685 42.7002 46.5685 42.6902C46.5685 42.6702 46.5685 42.6602 46.5685 42.6402C46.5685 42.6102 46.5685 42.5702 46.5685 42.5402C46.6885 42.3102 46.6285 42.0202 46.8185 41.8102C46.9785 41.5902 47.1385 41.3702 47.0685 41.0802C46.9885 40.7802 47.2985 40.6202 47.3185 40.3702C47.3985 40.3302 47.4385 40.2802 47.4685 40.2202C47.4985 40.1402 47.4885 40.1402 47.4685 40.1202C47.4385 40.0802 47.3785 40.0702 47.4285 40.0502C47.4285 40.0302 47.4685 40.0102 47.4985 39.9702C47.5285 39.9402 47.5585 39.9002 47.4785 39.9302C47.4685 39.9302 47.4585 39.9302 47.4485 39.9302C47.3785 39.9602 47.3685 39.9702 47.4085 39.8902C47.2285 40.0802 47.2785 40.0602 47.2885 39.9902C47.3185 39.9302 47.3085 39.8302 47.2885 39.8702C47.2885 39.8502 47.2885 39.8302 47.2785 39.8202C47.2785 39.8202 47.2785 39.8202 47.2785 39.8102H47.2585C47.1985 39.8102 47.1485 39.8102 47.0885 39.8202C46.9785 39.8402 46.8685 39.8802 46.7485 39.8602C46.5285 39.9302 46.3085 39.6902 46.0885 39.8402C45.8685 39.8102 45.6585 39.9602 45.4485 39.8202C45.2385 40.0102 45.0385 39.6602 44.8385 39.7902C44.6385 39.7902 44.4385 39.8002 44.2485 39.7602C44.0585 39.4702 43.8685 39.7102 43.6885 39.7302C43.5085 39.7002 43.3285 39.9002 43.1485 39.7002C42.9785 39.6802 42.8085 39.5502 42.6385 39.6702C42.4785 39.7102 42.3185 39.2402 42.1585 39.6302C41.9985 39.7002 41.8485 39.3302 41.7085 39.5902C41.5685 39.8302 41.4285 39.5602 41.2885 39.5502C41.1585 39.5402 41.0285 39.5202 40.9085 39.5102C39.8085 39.3802 39.1785 39.2302 39.1785 39.0802C39.1785 38.9002 39.9585 38.7402 41.2885 38.6002C41.4185 38.5902 41.5585 38.3802 41.7085 38.5602C41.8485 38.5602 41.9985 38.4002 42.1585 38.5202C42.3085 38.2502 42.4685 38.4702 42.6385 38.4802C42.8085 38.4702 42.9685 38.5502 43.1485 38.4502C43.3185 38.2902 43.4985 38.5302 43.6885 38.4202C43.8685 38.5902 44.0585 38.5402 44.2485 38.3902C44.4385 38.5502 44.6385 38.3602 44.8385 38.3602C45.0385 38.6102 45.2485 38.4402 45.4485 38.3302C45.6585 38.2402 45.8685 38.3702 46.0885 38.3102C46.2985 38.3602 46.5185 38.2502 46.7485 38.2902C46.8585 38.2302 46.9685 38.1902 47.0885 38.1802C47.1485 38.1802 47.1985 38.1802 47.2585 38.1902H47.2785L47.3185 38.2002C47.3485 38.2002 47.3685 38.2102 47.3985 38.2202C47.4485 38.2302 47.4985 38.2502 47.5485 38.2702C47.7685 38.2302 47.9885 38.2202 48.1985 38.2302C48.4085 38.2302 48.6185 38.2502 48.8385 38.2502C49.2385 38.1702 49.5485 38.2202 49.8585 38.2402C49.8185 38.3402 49.7785 38.4402 49.7585 38.5402C49.7185 38.7302 49.5585 39.0002 49.4385 39.2202C49.3185 39.4502 49.2485 39.6302 49.3285 39.8202C49.2685 40.0302 49.1885 40.2602 49.0985 40.4702L48.9985 40.7402C48.9785 40.8002 48.9585 40.8602 48.9585 40.9202C48.8385 41.1502 48.7285 41.3702 48.7185 41.6402C48.3785 41.7902 48.4485 42.0902 48.4685 42.3702C48.4685 42.6402 48.3385 42.8702 48.2185 43.1002L48.1985 43.1902V43.2402L48.1585 43.3302C48.1185 43.4402 48.0785 43.5602 48.0385 43.6702C47.9585 43.9002 47.8785 44.1102 47.7885 44.3302C47.7785 44.3902 47.7585 44.4502 47.7485 44.5102C47.5485 44.5102 47.3185 44.4902 47.1085 44.4702C46.8985 44.4502 46.6985 44.4402 46.5085 44.4902C46.4785 44.4902 46.4485 44.5002 46.4185 44.5102C46.3985 44.5102 46.3885 44.5102 46.3685 44.5202C46.3385 44.5202 46.3085 44.5202 46.2785 44.5202C46.2185 44.5202 46.1585 44.5002 46.0985 44.4802C45.9785 44.4502 45.8585 44.4202 45.7385 44.4802C45.4985 44.5602 45.2585 44.6002 45.0285 44.4702C44.7985 44.4702 44.5585 44.2202 44.3285 44.4502C44.0985 44.5002 43.8685 44.8102 43.6485 44.4302C43.4285 44.5302 43.2085 44.2502 42.9885 44.4102C42.7785 44.1302 42.5585 44.4002 42.3485 44.3902C42.1385 44.3402 41.9385 44.2402 41.7385 44.3602C41.7085 44.3802 41.6885 44.3902 41.6685 44.4002C41.6385 44.4002 41.6285 44.4102 41.5685 44.4102C41.4785 44.4102 41.3985 44.4002 41.3085 44.3802C41.1385 44.3502 40.9885 44.3102 40.8185 44.3302C40.6685 44.3902 40.5385 44.3802 40.4385 44.3402C40.3985 44.0902 40.4185 43.8502 40.2585 43.7502C40.2185 43.5902 40.1585 43.4602 40.1085 43.3202L40.0685 43.2202C40.0685 43.2202 40.0485 43.1802 40.0485 43.1602C40.0385 43.1202 40.0285 43.0702 40.0185 43.0302C39.6085 43.0002 39.8985 42.7102 39.8685 42.5402C39.8685 42.3702 39.5185 42.3302 39.7285 42.0802C39.4085 42.0402 39.5785 41.8102 39.6085 41.6502C39.6385 41.4902 39.3985 41.4302 39.4985 41.2502C39.2585 41.2002 39.5085 40.9702 39.3985 40.8802C39.4785 40.7202 39.3185 40.6502 39.3185 40.5402C39.2385 40.4502 39.2185 40.3502 39.2485 40.2302C39.2285 40.1302 39.2085 40.0402 39.1885 39.9602C39.0985 39.4502 39.0885 39.1502 39.1885 39.1102H39.1685Z" fill="#0061EF"/>
<path d="M51.5504 33.81C51.5004 33.81 51.4504 33.41 51.4004 32.64C51.3704 32.26 51.3504 31.78 51.3304 31.21C51.3204 31 51.3104 30.77 51.2904 30.52C51.2904 30.41 51.2804 30.29 51.2704 30.17C51.2704 30.11 51.2704 30.05 51.2604 30C51.2004 30.04 51.1404 30.07 51.0804 30.11C50.9304 30.2 50.7704 30.3 50.6104 30.4C50.5304 30.44 50.4504 30.49 50.3604 30.53C50.2504 30.59 50.1404 30.64 50.0304 30.7C49.7804 30.84 49.5004 30.96 49.2204 31.08C49.0804 31.14 48.9404 31.2 48.7904 31.26C48.6404 31.31 48.4904 31.36 48.3304 31.41C48.0004 31.44 47.7104 31.61 47.3804 31.74C47.0604 31.87 46.7304 32.02 46.3504 31.97C45.6304 32.04 44.9004 32.2 44.1104 32.28C43.7204 32.31 43.3104 32.33 42.9004 32.28C42.6904 32.26 42.4904 32.25 42.2804 32.25C42.1804 32.25 42.0704 32.25 41.9604 32.25C41.8504 32.25 41.7504 32.25 41.6404 32.25C41.4204 32.29 41.2004 32.28 40.9904 32.25C40.8804 32.23 40.7704 32.21 40.6704 32.18C40.5604 32.14 40.4604 32.1 40.3504 32.07C39.9304 31.91 39.5004 31.79 39.0204 31.82C38.7904 31.78 38.5704 31.73 38.3404 31.67C38.1104 31.62 37.8904 31.52 37.6704 31.45C37.4404 31.37 37.2204 31.29 37.0004 31.19C36.7804 31.09 36.5604 30.98 36.3404 30.88C36.1404 30.73 35.9204 30.61 35.7104 30.48C35.6004 30.42 35.4904 30.36 35.3804 30.3C35.3104 30.26 35.2604 30.25 35.2104 30.22C35.1004 30.18 35.0104 30.14 34.9304 30.11L34.8204 30.07L34.7704 30.05C34.7704 30.05 34.7504 30.04 34.7504 30.05V30.09C34.6304 30.07 34.5904 30.38 34.6104 30.65C34.6104 30.75 34.6204 30.86 34.6304 30.97C34.6304 31.1 34.6504 31.23 34.6704 31.36C34.7004 31.62 34.7404 31.88 34.7804 32.15C34.6904 32.41 34.6304 32.68 34.5904 32.95C34.5904 33.02 34.5704 33.07 34.5704 33.16L34.5504 33.45C34.5504 33.64 34.5504 33.83 34.5504 34.02V34.17V34.24V34.28V34.3C34.5504 34.3 34.5404 34.3 34.5304 34.3L34.2604 34.37C34.0804 34.42 33.8904 34.47 33.7004 34.53L33.5504 34.58L33.4704 34.61C33.4704 34.61 33.4404 34.62 33.4204 34.63C33.3604 34.66 33.3004 34.69 33.2404 34.72C33.1204 34.78 33.0004 34.84 32.8804 34.92C32.6304 35 32.3704 35.05 32.1104 35.13C31.9804 35.17 31.8504 35.2 31.7204 35.24C31.5904 35.28 31.4704 35.33 31.3404 35.37C31.0804 35.45 30.8304 35.57 30.5904 35.68C30.3504 35.8 30.1104 35.94 29.8804 36.1C28.9104 36.63 28.0204 37.3 27.1204 38C26.4004 38.91 25.6404 39.74 24.7904 40.58C24.5504 41.13 24.2704 41.65 23.9704 42.16C23.6904 42.68 23.3704 43.19 23.1004 43.74C22.8204 44.28 22.6704 44.89 22.5804 45.49C22.4804 46.1 22.4004 46.71 22.2404 47.32C22.1904 47.63 22.1804 47.94 22.1604 48.26C22.1604 48.58 22.1604 48.88 22.1604 49.22C22.1704 49.89 22.1804 50.56 22.1604 51.24C22.0604 52.59 21.9504 53.96 22.1704 55.35C22.2304 56.74 22.3104 58.14 22.1704 59.55C22.3004 60.26 22.3404 60.97 22.3204 61.68C22.3204 62.04 22.2904 62.4 22.2704 62.75L22.2504 63.02V63.09C22.2504 63.09 22.2504 63.1 22.2504 63.11L22.2404 63.13C22.2204 63.15 22.2104 63.18 22.1904 63.22C22.1904 63.23 22.1904 63.24 22.1904 63.25C22.2204 63.25 22.2404 63.25 22.2604 63.25H22.3004H22.3204H22.3504C22.6904 63.26 23.0304 63.27 23.3704 63.28C24.0504 63.3 24.7404 63.3 25.4304 63.24C26.9004 63.28 28.3804 63.12 29.8604 63.24C31.3504 63.32 32.8304 63.39 34.2904 63.24C35.7604 63.07 37.2104 63.31 38.6504 63.24C40.0904 63.49 41.5204 63.16 42.9404 63.24C44.3604 63.22 45.7604 63.38 47.1404 63.25C48.5204 63.21 49.8904 63.16 51.2504 63.26C52.6004 62.88 53.9404 63.36 55.2604 63.28C56.5804 63.44 57.8804 63.26 59.1604 63.3C60.4404 63.23 61.7004 63.47 62.9404 63.32C63.3204 63.33 63.6904 63.32 64.0604 63.32H64.1904H64.2204H64.2804C64.2804 63.32 64.3504 63.3 64.3904 63.3C64.3904 63.25 64.3904 63.21 64.3904 63.16V63.12L64.4004 63.1V63.02C64.4204 62.9 64.4304 62.78 64.4404 62.67C64.2504 61.47 64.6004 60.3 64.4704 59.14C64.4704 57.99 64.4604 56.86 64.5004 55.75C64.7904 54.64 64.5504 53.56 64.5304 52.51C64.5604 51.45 64.3604 50.43 64.5604 49.42C64.5604 49.17 64.5804 48.93 64.5904 48.68C64.5904 48.44 64.6104 48.2 64.5904 47.97C64.5904 47.74 64.5804 47.5 64.5404 47.27C64.5104 47.04 64.4704 46.81 64.4004 46.59C64.3504 46.37 64.3404 46.14 64.3204 45.91C64.3004 45.68 64.3004 45.45 64.2704 45.23C64.2204 44.78 64.1104 44.35 63.7804 44.01C63.6004 43.62 63.5104 43.2 63.3804 42.8C63.3104 42.6 63.2404 42.4 63.1504 42.22C63.0504 42.04 62.9304 41.87 62.7804 41.73C62.6204 41.59 62.5004 41.43 62.3904 41.27C62.2804 41.11 62.1804 40.94 62.0904 40.77C62.0004 40.6 61.9104 40.43 61.8204 40.26C61.7304 40.09 61.6304 39.93 61.5104 39.79C61.0604 39.2 60.5804 38.66 60.0904 38.19C59.5404 37.65 58.9804 37.19 58.4304 36.78C57.8704 36.38 57.3304 36.03 56.8004 35.74C55.7504 35.16 54.7904 34.78 53.9904 34.52C53.5904 34.39 53.2404 34.29 52.9304 34.21C52.6204 34.13 52.3604 34.07 52.1404 34.02C51.7104 33.93 51.4904 33.86 51.5004 33.82C51.5004 33.78 51.7904 33.76 52.3304 33.8C52.8704 33.84 53.6804 33.95 54.7004 34.23C55.2104 34.37 55.7704 34.57 56.3704 34.81C56.9704 35.07 57.6104 35.38 58.2704 35.77C59.5804 36.56 60.9904 37.67 62.2504 39.2C62.7504 39.81 63.4004 40.38 63.6704 41.23C64.0904 41.97 64.6204 42.73 64.8204 43.64C65.1104 44.03 65.2604 44.48 65.3604 44.95C65.4204 45.18 65.4404 45.43 65.4804 45.67C65.5204 45.91 65.5404 46.16 65.5804 46.4C65.6304 46.64 65.6504 46.89 65.6804 47.14C65.7104 47.39 65.7204 47.64 65.7304 47.89C65.7504 48.14 65.7504 48.4 65.7704 48.65C65.7904 48.91 65.8004 49.16 65.8304 49.41C65.9904 50.41 65.7504 51.44 65.8604 52.5C65.6904 53.56 65.7404 54.64 65.8904 55.74C65.7304 56.85 65.9204 57.97 65.9204 59.13C65.6704 60.28 65.8404 61.46 65.9504 62.66C65.9504 62.78 65.9704 62.9 65.9704 63.01V63.11V63.27V63.59C65.9704 64.02 65.9704 64.45 65.9704 64.87C65.3404 64.87 64.7104 64.86 64.0704 64.85C63.7004 64.85 63.3204 64.85 62.9504 64.86C61.7104 64.81 60.4504 64.92 59.1704 64.88C57.8904 65 56.5904 65.04 55.2704 64.9C53.9504 64.98 52.6204 64.92 51.2604 64.92C49.9104 65.02 48.5404 64.91 47.1504 64.93C45.7604 64.98 44.3604 64.66 42.9504 64.94C41.5404 64.98 40.1104 64.9 38.6604 64.94C37.2204 64.91 35.7604 64.87 34.3004 64.94C32.8304 64.66 31.3604 64.83 29.8704 64.94C28.3804 65.02 26.9004 64.98 25.4404 64.94C24.7504 64.95 24.0604 64.96 23.3804 64.95C22.4004 64.95 21.4304 64.94 20.4604 64.93C20.4604 64.76 20.4604 64.6 20.4604 64.44C20.4504 64.11 20.4404 63.77 20.4404 63.43V62.99V62.72C20.4404 62.36 20.4604 62 20.4704 61.65C20.5004 60.94 20.5204 60.22 20.4704 59.52C20.3504 58.11 20.6004 56.71 20.4804 55.32C20.4004 53.94 20.3604 52.57 20.4904 51.21C20.4904 50.53 20.5504 49.86 20.5904 49.19C20.6004 48.86 20.6304 48.5 20.6204 48.16C20.6404 47.81 20.6204 47.47 20.6204 47.11C20.6604 46.42 20.7104 45.72 20.8304 45.04C20.9504 44.36 21.2004 43.7 21.6104 43.14C21.8104 42.49 22.1404 41.9 22.4904 41.34C22.8404 40.78 23.2104 40.24 23.5204 39.66C24.0204 39.22 24.4104 38.72 24.8304 38.23C25.2404 37.74 25.6504 37.25 26.1304 36.85C27.1204 36.06 28.1904 35.47 29.2004 34.8C29.4504 34.63 29.7204 34.49 29.9904 34.36C30.2704 34.24 30.5404 34.13 30.8304 34.04C30.9704 33.99 31.1104 33.95 31.2504 33.91C31.3904 33.87 31.5304 33.83 31.6804 33.79C31.9604 33.7 32.2404 33.64 32.5204 33.55C32.6504 33.49 32.7904 33.45 32.9304 33.41C33.0004 33.39 33.0704 33.37 33.1404 33.36H33.1904V33.35H33.2104C33.2104 33.35 33.2904 33.35 33.3304 33.35H33.4004C33.4004 33.35 33.4104 33.33 33.4204 33.31C33.4304 33.28 33.4504 33.24 33.4504 33.19C33.4504 33.17 33.4604 33.15 33.4604 33.12V33.08V33.03V32.93C33.4604 32.66 33.4604 32.4 33.4104 32.13C33.4104 31.87 33.4204 31.6 33.4204 31.34C33.4204 31.04 33.4204 30.75 33.4204 30.46C33.4204 29.6 33.4204 28.73 33.4404 27.95C33.4304 27.88 33.4204 27.81 33.4104 27.74V27.73H33.4204L33.4504 27.74L33.5004 27.76C33.5704 27.78 33.6504 27.81 33.7304 27.85C33.8904 27.92 34.0704 28.02 34.2504 28.12C34.4304 28.23 34.6204 28.34 34.8104 28.47L35.3804 28.85L35.6604 29.04L35.9204 29.22C36.0104 29.29 36.1004 29.36 36.2004 29.43C36.3804 29.58 36.5804 29.7 36.7804 29.8C36.9804 29.91 37.1904 29.99 37.4004 30.07C37.6104 30.14 37.8304 30.19 38.0504 30.25C38.2604 30.31 38.4704 30.38 38.6704 30.45C38.8704 30.52 39.0704 30.61 39.2604 30.74C39.7004 30.74 40.1204 30.78 40.5104 30.9C40.6104 30.93 40.7104 30.96 40.8104 30.99C40.9104 31.02 41.0104 31.04 41.1104 31.07C41.3104 31.12 41.5104 31.18 41.7004 31.22C41.8004 31.24 41.9004 31.26 42.0004 31.27C42.1004 31.27 42.2004 31.28 42.3004 31.28C42.5004 31.28 42.6904 31.28 42.8904 31.28C43.2804 31.28 43.6504 31.24 44.0304 31.32C44.1204 31.29 44.2104 31.27 44.3004 31.26C44.3904 31.24 44.4804 31.23 44.5704 31.22C44.7504 31.2 44.9304 31.2 45.1104 31.2C45.2004 31.2 45.2904 31.2 45.3804 31.2C45.4704 31.2 45.5604 31.2 45.6404 31.18C45.8204 31.17 45.9904 31.14 46.1504 31.1C46.5004 31.12 46.8204 31.02 47.1404 30.94C47.4604 30.86 47.7504 30.73 48.0504 30.66C48.1904 30.6 48.3404 30.55 48.4804 30.5C48.6204 30.44 48.7604 30.39 48.8904 30.34C49.1604 30.24 49.4404 30.17 49.7004 30.07C49.7604 30.04 49.8304 30.01 49.8904 29.99C49.9704 29.95 50.0504 29.91 50.1304 29.88C50.3004 29.8 50.4604 29.72 50.6204 29.65C50.9204 29.49 51.2104 29.34 51.4904 29.19C51.5904 29.14 51.6904 29.08 51.7904 29.03C51.7904 29.03 51.7904 29.03 51.7904 29.04V29.11V29.2C51.7904 29.26 51.7904 29.32 51.7904 29.38C51.7904 29.61 51.7804 29.84 51.7704 30.05C51.7604 30.47 51.7404 30.85 51.7304 31.21C51.7104 31.77 51.6804 32.25 51.6604 32.64C51.6104 33.41 51.5604 33.81 51.5004 33.81H51.5504Z" fill="#0061EF"/>
<path d="M79.5575 24.14C79.5575 24.03 80.3975 23.93 81.9175 23.84C82.1775 23.83 82.4475 23.81 82.7375 23.79C83.0175 23.76 83.3975 23.73 83.5475 23.75C83.6775 23.82 83.7775 23.75 83.8175 23.7C83.8775 23.65 83.8875 23.6 84.1275 23.7C84.2175 23.72 84.3075 23.73 84.3775 23.73C84.2975 23.59 84.1575 23.43 84.0475 23.3C83.9675 23.2 83.9375 23.12 83.8975 23.02C83.8775 22.97 83.8475 22.92 83.8175 22.87C83.7575 22.78 83.6975 22.7 83.6075 22.62C83.1575 22.38 83.4275 21.71 82.9075 21.48C82.6175 21.12 82.3875 20.69 82.1575 20.26C82.0875 19.73 81.6575 19.4 81.3675 18.96C81.3275 18.38 80.9675 17.98 80.5375 17.59C80.5575 16.94 80.2375 16.49 79.6675 16.15C79.3675 15.66 79.1975 15.09 78.7675 14.64C78.4475 14.13 78.0875 13.64 77.8275 13.07C77.3175 12.64 77.0075 12.09 76.8575 11.44C76.3275 11 76.0775 10.39 75.8575 9.74996C75.8275 9.66996 75.7975 9.58996 75.7575 9.51996C75.7375 9.47996 75.7175 9.43996 75.6975 9.40996C75.6975 9.40996 75.6875 9.38996 75.6775 9.38996C75.6475 9.35996 75.6075 9.34996 75.5875 9.34996C75.5575 9.34996 75.5375 9.34996 75.5275 9.34996C75.5175 9.32996 75.5075 9.29996 75.4975 9.16996C75.4975 9.16996 75.4275 9.28996 75.4075 9.34996C75.3975 9.37996 75.3875 9.40996 75.3675 9.43996L75.3275 9.50996C75.2875 9.57996 75.2375 9.65996 75.1875 9.72996C74.7475 10.29 74.2975 10.85 74.1375 11.58C73.8275 12.23 73.5375 12.9 73.0575 13.47C72.9175 14.24 72.4475 14.82 71.9475 15.4C71.6075 16.07 71.0775 16.63 70.8175 17.36C70.3975 18 70.1575 18.74 69.6675 19.36C69.2175 19.99 68.7675 20.62 68.5175 21.35C68.3975 21.72 68.1975 22.04 67.9775 22.35C67.8675 22.51 67.7575 22.66 67.6575 22.82C67.6075 22.9 67.5575 22.98 67.5075 23.06C67.4875 23.09 67.4975 23.08 67.4975 23.09C67.4975 23.09 67.4975 23.11 67.4975 23.12C67.3975 23.13 67.3375 23.2 67.3175 23.25C67.2975 23.3 67.3175 23.33 67.3475 23.34C67.4475 23.31 67.4875 23.29 67.4975 23.32C67.5275 23.32 67.5575 23.32 67.5775 23.32L67.6175 23.34C67.6175 23.34 67.6175 23.34 67.6575 23.34H67.7975C68.1575 23.37 68.5175 23.38 68.8775 23.31C69.2375 23.29 69.5975 23.26 69.9475 23.26H70.5075C70.8375 23.28 71.1575 23.3 71.4675 23.32C71.7775 23.24 72.0975 23.2 72.3975 23.18C72.4275 23.69 72.3775 24.29 72.3275 24.81L72.3075 25V25.1C72.3075 25.1 72.2875 25.14 72.2875 25.16C72.2775 25.23 72.2675 25.3 72.2575 25.37C72.2375 25.51 72.2375 25.64 72.2575 25.78C72.0975 26.46 72.2775 27.14 72.2375 27.8C72.3075 28.46 72.0675 29.12 72.2175 29.76C72.1875 30.4 72.3375 31.04 72.1975 31.66C72.3575 32.34 72.1375 32.28 72.1375 32.52C72.1675 32.52 72.2075 32.52 72.2575 32.49H72.6575C72.9475 32.49 73.2375 32.49 73.5275 32.52C74.0975 32.81 74.6575 32.57 75.2075 32.55C75.7575 32.58 76.2875 32.38 76.8075 32.58C77.3275 32.6 77.8375 32.73 78.3275 32.62C78.3775 32.62 78.4375 32.62 78.4875 32.62C78.5375 32.62 78.6075 32.64 78.6175 32.65C78.6675 32.68 78.7275 32.71 78.7975 32.74C78.9275 32.8 79.1175 32.85 79.1575 32.77C79.1275 32.71 79.0975 32.65 79.0475 32.58C79.0075 32.45 79.0875 32.41 79.1375 32.28C79.1375 32.26 79.1475 32.25 79.1575 32.24V32.22C79.1575 32.22 79.1675 32.19 79.1675 32.18C79.1675 32.13 79.1775 32.07 79.1675 32.02C79.1675 31.91 79.1375 31.8 79.0775 31.69C78.8375 31.26 79.1075 30.84 79.1175 30.45C79.1275 30.05 79.1475 29.67 79.1575 29.31C79.2875 26.03 79.4375 24.15 79.5875 24.15C79.7675 24.15 79.9275 26.47 80.0675 30.45C80.0775 30.85 80.2875 31.26 80.1075 31.69C80.1075 31.8 80.1075 31.91 80.1275 32.02C80.1275 32.08 80.1375 32.13 80.1475 32.18V32.22L80.1575 32.29V32.42C80.1875 32.78 80.1975 33.17 80.1375 33.49C80.1775 33.61 80.1975 33.73 80.2175 33.85C79.9475 33.92 79.5675 33.91 79.2075 33.88C79.0275 33.86 78.8475 33.85 78.6675 33.83C78.5675 33.83 78.5275 33.81 78.4675 33.81C78.4175 33.81 78.3575 33.8 78.3075 33.8C77.8175 33.81 77.3075 33.73 76.7875 33.84C76.2675 34 75.7275 33.76 75.1875 33.87C74.6375 33.7 74.0775 33.75 73.5075 33.9C73.2175 33.82 72.9275 33.83 72.6375 33.86H72.5275L72.4675 33.88H72.4375H72.3875L72.0075 33.9C71.7475 33.92 71.4875 33.93 71.2275 33.93C71.0875 33.89 70.9475 33.86 70.8075 33.84C70.8575 33.38 70.8475 33 70.8175 32.59C70.8175 32.49 70.7975 32.38 70.7875 32.28C70.7875 32.22 70.7775 32.19 70.7675 32.16L70.7475 32.06C70.7275 31.93 70.6975 31.8 70.6775 31.67C70.5875 31.05 70.7175 30.41 70.6575 29.77C70.7075 29.13 70.5975 28.47 70.6375 27.81C70.5175 27.15 70.4775 26.47 70.6175 25.79C70.5975 25.65 70.5875 25.52 70.5875 25.38V25.11C70.5875 25.11 70.5875 25.03 70.5975 24.98C70.5775 24.98 70.5575 24.98 70.5375 24.98C70.4975 25 70.4775 25.02 70.4575 25.02H70.3575H70.2275H69.9575C69.6075 25 69.2475 24.98 68.8875 24.99C68.5275 25.02 68.1675 24.95 67.8075 24.91H67.6675L67.4375 24.89C67.2775 24.89 67.1175 24.89 66.9575 24.89C66.6275 24.9 66.2975 24.93 65.8875 25C65.3975 25.01 64.9175 25.01 64.4375 25C64.9075 24.2 65.3775 23.43 65.7975 22.63L66.0675 22.2L66.2175 21.96C66.3175 21.8 66.4175 21.64 66.5175 21.48C66.7075 21.16 66.8875 20.82 67.0475 20.47C67.6675 19.95 67.9075 19.2 68.1975 18.48C68.5175 17.77 68.9375 17.13 69.3475 16.49C69.7075 15.82 70.0975 15.17 70.4875 14.53C70.7875 13.84 71.3375 13.3 71.6075 12.61C71.8775 11.92 72.4475 11.41 72.7075 10.73C72.9975 10.07 73.3175 9.42996 73.7875 8.88996C73.8275 8.81996 73.8775 8.73996 73.9275 8.66996L74.1575 8.31996C74.3175 8.07996 74.4875 7.82996 74.6475 7.58996C74.9575 7.10996 75.2275 6.66996 75.5275 5.95996L75.5875 6.01996C75.7475 6.25996 75.9075 6.48996 76.0775 6.71996C76.2475 6.94996 76.4275 7.19996 76.6075 7.46996C76.7875 7.73996 76.9575 8.02996 77.1075 8.33996C77.1475 8.41996 77.1775 8.48996 77.2075 8.56996C77.2275 8.61996 77.2275 8.64996 77.2375 8.69996C77.2575 8.78996 77.2675 8.87996 77.2675 8.96996C77.6875 9.49996 77.7675 10.2 78.2275 10.68C78.3075 11.38 78.8575 11.79 79.1575 12.34C79.4175 12.91 79.6475 13.48 80.0475 13.94C80.4675 14.39 80.5775 15 80.9075 15.48C81.3375 15.9 81.2975 16.57 81.7275 16.95C81.9675 17.44 82.2875 17.88 82.4975 18.35C83.0875 18.61 83.0075 19.24 83.2275 19.68C83.4275 20.13 83.9275 20.4 83.9075 20.94C84.3875 21.2 84.3975 21.71 84.5475 22.12C84.5875 22.22 84.6275 22.31 84.6875 22.41C84.7675 22.55 84.8675 22.68 84.9575 22.82C85.1375 23.09 85.3175 23.38 85.3675 23.62C85.5575 23.82 85.6775 24.01 85.7575 24.18C85.8375 24.35 85.8775 24.49 85.9175 24.62C85.6875 24.59 85.4975 24.58 85.3575 24.6C85.0075 24.53 84.7675 24.53 84.5375 24.54C84.3075 24.55 84.0775 24.57 83.8375 24.56C83.3175 24.61 83.0875 24.59 82.7775 24.52C82.4875 24.5 82.2075 24.49 81.9575 24.47C80.4275 24.38 79.5975 24.28 79.5975 24.17L79.5575 24.14Z" fill="#0061EF"/>
<path d="M15.1256 24.1402C15.1256 24.0302 15.9656 23.9302 17.4856 23.8402C17.7356 23.8302 18.0156 23.8102 18.3056 23.7902C18.5856 23.7602 18.9656 23.7302 19.1156 23.7502C19.2456 23.8202 19.3356 23.7502 19.3856 23.7002C19.4456 23.6502 19.4556 23.6002 19.6956 23.7002C19.7856 23.7202 19.8756 23.7302 19.9456 23.7302C19.8656 23.5902 19.7256 23.4302 19.6156 23.3002C19.5356 23.2002 19.5056 23.1202 19.4656 23.0202C19.4456 22.9702 19.4156 22.9202 19.3856 22.8702C19.3356 22.7902 19.2656 22.7002 19.1856 22.6202C18.7356 22.3802 19.0056 21.7102 18.4856 21.4802C18.1956 21.1202 17.9656 20.6902 17.7356 20.2602C17.6656 19.7302 17.2356 19.3902 16.9456 18.9602C16.9056 18.3802 16.5356 17.9802 16.1156 17.5902C16.1356 16.9402 15.8156 16.4802 15.2456 16.1502C14.9456 15.6602 14.7756 15.0802 14.3456 14.6402C14.0256 14.1302 13.6656 13.6402 13.4056 13.0702C12.8956 12.6402 12.5856 12.0902 12.4356 11.4402C11.8956 11.0002 11.6556 10.3902 11.4356 9.7502C11.4056 9.6702 11.3756 9.5902 11.3356 9.5202C11.3156 9.4802 11.2956 9.4402 11.2756 9.4102C11.2756 9.4102 11.2656 9.3902 11.2556 9.3902C11.2256 9.3602 11.1856 9.3502 11.1656 9.3502C11.1356 9.3502 11.1156 9.3502 11.1056 9.3502C11.0956 9.3302 11.0856 9.3002 11.0756 9.1702C11.0756 9.1702 11.0056 9.2902 10.9856 9.3502C10.9756 9.3802 10.9656 9.4102 10.9456 9.4402L10.9056 9.5102C10.8656 9.5802 10.8156 9.6502 10.7656 9.7302C10.3256 10.2902 9.87562 10.8502 9.71562 11.5802C9.40562 12.2302 9.11562 12.9002 8.63562 13.4702C8.49562 14.2402 8.02563 14.8202 7.52563 15.4002C7.18563 16.0702 6.64563 16.6302 6.39563 17.3702C5.97563 18.0102 5.73563 18.7502 5.24563 19.3602C4.78562 19.9902 4.34562 20.6202 4.09562 21.3502C3.97563 21.7202 3.77562 22.0402 3.55562 22.3502C3.44563 22.5102 3.33562 22.6602 3.23563 22.8202C3.18563 22.9002 3.13562 22.9802 3.08562 23.0602C3.06562 23.0902 3.07562 23.0802 3.07562 23.0902C3.07562 23.0902 3.07562 23.1102 3.07562 23.1202C2.97563 23.1302 2.91563 23.2002 2.89563 23.2502C2.87563 23.3002 2.89563 23.3302 2.92563 23.3402C3.02562 23.3102 3.06562 23.2902 3.07562 23.3202C3.10562 23.3202 3.13563 23.3202 3.15563 23.3202L3.19563 23.3402C3.19563 23.3402 3.19563 23.3402 3.23563 23.3402H3.37563C3.73563 23.3702 4.10563 23.3802 4.45563 23.3102C4.81563 23.2902 5.17563 23.2602 5.52563 23.2602H6.08563C6.41563 23.2802 6.73563 23.3002 7.04563 23.3202C7.35563 23.2402 7.67562 23.2002 7.97563 23.1802C8.00563 23.6902 7.95563 24.2902 7.89563 24.8102L7.87563 25.0002V25.1002C7.87563 25.1002 7.85563 25.1402 7.85563 25.1602C7.84562 25.2302 7.83563 25.3002 7.82562 25.3702C7.80562 25.5102 7.80562 25.6402 7.82562 25.7802C7.66563 26.4602 7.84562 27.1402 7.80562 27.8002C7.87563 28.4602 7.62563 29.1202 7.78562 29.7602C7.75562 30.4002 7.90562 31.0402 7.76562 31.6602C7.92562 32.3402 7.70563 32.2802 7.70563 32.5202C7.73563 32.5202 7.77562 32.5202 7.82562 32.4902H8.22562C8.51562 32.4902 8.80562 32.4902 9.09562 32.5202C9.66562 32.8102 10.2256 32.5702 10.7756 32.5502C11.3256 32.5802 11.8556 32.3802 12.3756 32.5802C12.8956 32.6002 13.4056 32.7302 13.8956 32.6202C13.9456 32.6202 14.0056 32.6202 14.0556 32.6202C14.1056 32.6202 14.1756 32.6402 14.1856 32.6502C14.2356 32.6802 14.2956 32.7102 14.3656 32.7402C14.4956 32.8002 14.6856 32.8502 14.7256 32.7702C14.6956 32.7102 14.6656 32.6502 14.6156 32.5802C14.5756 32.4502 14.6556 32.4102 14.7056 32.2802C14.7056 32.2702 14.7156 32.2502 14.7256 32.2402V32.2202C14.7256 32.2202 14.7356 32.1902 14.7356 32.1802C14.7356 32.1302 14.7456 32.0702 14.7456 32.0202C14.7456 31.9102 14.7156 31.8002 14.6456 31.6902C14.4056 31.2602 14.6756 30.8402 14.6856 30.4502C14.6956 30.0502 14.7156 29.6702 14.7256 29.3102C14.8556 26.0302 15.0056 24.1502 15.1656 24.1502C15.3456 24.1502 15.5056 26.4702 15.6456 30.4502C15.6556 30.8502 15.8656 31.2602 15.6856 31.6902C15.6856 31.8002 15.6956 31.9102 15.7056 32.0202C15.7056 32.0802 15.7156 32.1302 15.7256 32.1802V32.2202L15.7356 32.2902V32.4202C15.7656 32.7802 15.7756 33.1702 15.7156 33.4902C15.7556 33.6102 15.7756 33.7302 15.7956 33.8502C15.5256 33.9202 15.1456 33.9102 14.7856 33.8802C14.6056 33.8602 14.4256 33.8502 14.2456 33.8302C14.1456 33.8302 14.1056 33.8102 14.0456 33.8102C13.9956 33.8102 13.9356 33.8002 13.8856 33.8002C13.3956 33.8102 12.8856 33.7302 12.3656 33.8402C11.8456 34.0002 11.3056 33.7602 10.7656 33.8702C10.2156 33.7002 9.65562 33.7502 9.08562 33.9002C8.79562 33.8202 8.50562 33.8302 8.21562 33.8602H8.10562L8.04562 33.8802H8.01562H7.96562L7.58563 33.9002C7.32563 33.9202 7.06563 33.9302 6.80562 33.9302C6.66563 33.8902 6.52562 33.8602 6.38562 33.8402C6.43563 33.3802 6.42563 33.0002 6.39563 32.5902C6.39563 32.4902 6.37563 32.3802 6.36562 32.2802C6.36562 32.2202 6.36562 32.1902 6.34562 32.1602L6.32562 32.0602C6.30562 31.9302 6.28563 31.8002 6.25563 31.6702C6.16563 31.0502 6.29562 30.4102 6.23562 29.7702C6.28562 29.1302 6.17562 28.4702 6.21562 27.8102C6.09562 27.1502 6.05562 26.4702 6.19562 25.7902C6.17562 25.6502 6.16563 25.5202 6.16563 25.3802V25.1102C6.16563 25.1102 6.16562 25.0302 6.17562 24.9802C6.15562 24.9802 6.13562 24.9802 6.11562 24.9802C6.07562 25.0002 6.05562 25.0202 6.03562 25.0202H5.93563H5.80562H5.53562C5.18563 25.0002 4.82562 24.9802 4.46562 24.9902C4.10562 25.0202 3.74563 24.9502 3.38563 24.9102H3.24563L3.01562 24.8902C2.85562 24.8902 2.69563 24.8902 2.53562 24.8902C2.20563 24.9002 1.87563 24.9302 1.46563 25.0002C0.975625 25.0102 0.495625 25.0102 0.015625 25.0002C0.485625 24.2002 0.955625 23.4302 1.37563 22.6302L1.64562 22.2002L1.79562 21.9602C1.89562 21.8002 1.99562 21.6402 2.08562 21.4802C2.27562 21.1602 2.45562 20.8202 2.61562 20.4702C3.23562 19.9502 3.47563 19.2002 3.76562 18.4802C4.08563 17.7702 4.50563 17.1302 4.91563 16.4902C5.27563 15.8202 5.66563 15.1702 6.05562 14.5302C6.35563 13.8402 6.90562 13.3002 7.17562 12.6102C7.44562 11.9202 8.01562 11.4102 8.27562 10.7302C8.56562 10.0702 8.88562 9.4302 9.35562 8.8902C9.39562 8.8202 9.44562 8.7402 9.49562 8.6702L9.72562 8.3202C9.88562 8.0802 10.0556 7.8302 10.2156 7.5902C10.5256 7.1102 10.7956 6.6702 11.0956 5.9502L11.1556 6.0102C11.3156 6.2502 11.4756 6.4702 11.6456 6.7102C11.8156 6.9402 11.9956 7.1902 12.1756 7.4602C12.3556 7.7302 12.5256 8.0202 12.6756 8.3302C12.7156 8.4102 12.7456 8.4802 12.7756 8.5602C12.7956 8.6102 12.7956 8.6402 12.8156 8.6902C12.8356 8.78019 12.8456 8.8702 12.8456 8.9602C13.2656 9.4902 13.3456 10.1902 13.8056 10.6702C13.8856 11.3702 14.4356 11.7802 14.7356 12.3302C14.9956 12.9002 15.2256 13.4702 15.6256 13.9302C16.0456 14.3802 16.1556 14.9902 16.4856 15.4702C16.9156 15.8902 16.8656 16.5602 17.2956 16.9402C17.5356 17.4302 17.8556 17.8702 18.0656 18.3402C18.6556 18.6002 18.5756 19.2302 18.7956 19.6702C18.9956 20.1202 19.4956 20.3902 19.4756 20.9302C19.9556 21.1902 19.9656 21.7002 20.1156 22.1102C20.1556 22.2102 20.2056 22.3002 20.2656 22.4002C20.3456 22.5402 20.4356 22.6702 20.5356 22.8102C20.7156 23.0802 20.8956 23.3702 20.9356 23.6102C21.1256 23.8102 21.2556 24.0002 21.3256 24.1702C21.4056 24.3402 21.4456 24.4802 21.4856 24.6102C21.2556 24.5802 21.0656 24.5602 20.9256 24.5902C20.5756 24.5202 20.3356 24.5202 20.1056 24.5302C19.8756 24.5402 19.6456 24.5602 19.4056 24.5502C18.8856 24.6002 18.6456 24.5802 18.3456 24.5102C18.0556 24.4902 17.7756 24.4802 17.5256 24.4602C15.9956 24.3702 15.1656 24.2702 15.1656 24.1602L15.1256 24.1402Z" fill="#0061EF"/>
<path d="M27.1194 50.7002C27.2294 50.7002 27.3294 50.8502 27.4194 51.1202C27.4394 51.1602 27.4494 51.2102 27.4694 51.2702C27.4994 51.3202 27.5294 51.3802 27.5094 51.4402C27.3694 51.5002 27.7694 51.5602 27.5494 51.6202C27.4894 51.6802 27.5494 51.7502 27.5894 51.8202C27.6394 51.8902 27.4994 51.9602 27.6294 52.0402C27.8994 52.1202 27.3294 52.1902 27.6694 52.2802C27.7394 52.3602 27.7193 52.4502 27.7093 52.5302C27.4993 52.6202 27.7094 52.7102 27.7394 52.8002C27.4894 52.8902 27.5994 52.9902 27.7694 53.0802C27.4294 53.1802 27.4794 53.2802 27.7994 53.3802C27.8094 53.4802 27.6794 53.5902 27.8294 53.6902C27.8494 53.8002 27.9194 53.9002 27.8594 54.0102C28.0894 54.1202 28.0794 54.2302 27.8794 54.3502C28.1294 54.4602 28.0294 54.5802 27.8994 54.7002C27.7594 54.8202 28.1194 54.9402 27.9194 55.0602C27.8994 55.1802 27.9694 55.3002 27.9394 55.4302C27.8394 55.5502 27.7294 55.6802 27.9494 55.8102C28.0094 55.9402 28.0893 56.0702 27.9593 56.1902C28.2193 56.3202 28.1093 56.4502 27.9593 56.5802C27.9993 56.7102 27.8194 56.8502 27.9593 56.9802C27.9194 57.1102 28.0793 57.2502 27.9593 57.3902C27.8793 57.5302 27.8094 57.6602 27.9593 57.8002C28.1293 57.9302 27.8893 58.0702 27.9593 58.2002C27.7093 58.3302 28.0394 58.4602 27.9593 58.5902C27.9793 58.7202 27.8194 58.8502 27.9494 58.9702C27.9994 59.1002 28.0394 59.2202 27.9394 59.3502C28.3194 59.4702 27.8394 59.6002 27.9194 59.7202C27.7594 59.8402 27.9394 59.9602 27.8994 60.0802C27.9694 60.2002 27.7294 60.3102 27.8794 60.4302C27.8494 60.5402 27.9994 60.6602 27.8594 60.7702C28.0494 60.8802 27.6994 60.9902 27.8294 61.0902C27.8294 61.2002 27.8394 61.3002 27.7994 61.4002C27.5094 61.5002 27.7494 61.6002 27.7694 61.7002C27.7394 61.8002 27.9394 61.8902 27.7394 61.9802C27.7194 62.0702 27.5893 62.1602 27.7093 62.2502C27.7493 62.3402 27.2794 62.4202 27.6694 62.5002C27.7394 62.5802 27.3694 62.6602 27.6294 62.7402C27.8694 62.8202 27.5994 62.8902 27.5894 62.9602C27.5694 63.0302 27.5594 63.1002 27.5494 63.1602C27.4194 63.7402 27.2694 64.0702 27.1194 64.0702C26.9394 64.0702 26.7794 63.6602 26.6394 62.9602C26.6294 62.8902 26.4194 62.8202 26.5994 62.7402C26.5994 62.6602 26.4394 62.5902 26.5594 62.5002C26.2894 62.4202 26.5094 62.3302 26.5194 62.2502C26.5094 62.1602 26.5994 62.0702 26.4794 61.9802C26.3194 61.8902 26.5594 61.7902 26.4494 61.7002C26.6194 61.6002 26.5694 61.5002 26.4194 61.4002C26.5794 61.3002 26.3894 61.1902 26.3894 61.0902C26.6394 60.9802 26.4694 60.8802 26.3594 60.7702C26.2694 60.6602 26.3994 60.5502 26.3394 60.4302C26.3894 60.3202 26.2794 60.2002 26.3194 60.0802C26.1994 59.9602 26.1594 59.8402 26.2994 59.7202C26.2194 59.6002 26.2794 59.4802 26.2794 59.3502C26.1794 59.2302 26.2894 59.1002 26.2694 58.9702C26.2194 58.8402 26.5394 58.7202 26.2594 58.5902C26.2194 58.4602 26.2994 58.3302 26.2594 58.2002C26.2994 58.0702 26.3294 57.9302 26.2594 57.8002C26.5394 57.6702 26.3694 57.5302 26.2594 57.3902C26.1794 57.2502 26.2194 57.1202 26.2594 56.9802C26.2294 56.8502 26.2494 56.7102 26.2594 56.5802C26.1794 56.4502 26.3794 56.3202 26.2594 56.1902C26.1394 56.0602 26.3894 55.9302 26.2694 55.8102C26.1894 55.6802 26.1494 55.5602 26.2794 55.4302C26.2794 55.3102 26.5294 55.1802 26.2994 55.0602C26.2494 54.9402 25.9394 54.8202 26.3194 54.7002C26.2194 54.5802 26.4994 54.4702 26.3394 54.3502C26.6194 54.2402 26.3494 54.1202 26.3594 54.0102C26.4094 53.9002 26.5094 53.7902 26.3894 53.6902C26.2594 53.5802 26.4594 53.4802 26.4194 53.3802C26.2594 53.2802 26.6294 53.1802 26.4494 53.0802C26.4894 52.9802 26.4194 52.8902 26.4794 52.8002C26.0994 52.7102 26.4794 52.6202 26.5194 52.5302C26.5794 52.4402 26.2694 52.3602 26.5594 52.2802C26.2694 52.2002 26.5194 52.1202 26.5994 52.0402C26.6794 51.9602 26.4794 51.8902 26.6394 51.8202C26.4394 51.7502 26.7494 51.6802 26.6794 51.6202C26.8094 51.5602 26.6794 51.4902 26.7194 51.4402C26.6694 51.3802 26.6894 51.3302 26.7594 51.2702C26.7794 51.2202 26.7894 51.1702 26.8094 51.1202C26.8994 50.8502 26.9994 50.7002 27.1094 50.7002H27.1194Z" fill="#0061EF"/>
<path d="M59.4162 50.7002C59.5262 50.7002 59.6262 50.8502 59.7162 51.1202C59.7362 51.1602 59.7462 51.2102 59.7662 51.2702C59.7962 51.3202 59.8262 51.3802 59.8062 51.4402C59.6662 51.5002 60.0662 51.5602 59.8462 51.6202C59.7862 51.6802 59.8462 51.7502 59.8862 51.8202C59.9362 51.8902 59.7962 51.9602 59.9262 52.0402C60.1962 52.1202 59.6262 52.1902 59.9662 52.2802C60.0362 52.3602 60.0162 52.4502 60.0062 52.5302C59.7962 52.6202 60.0062 52.7102 60.0362 52.8002C59.7862 52.8902 59.8962 52.9902 60.0662 53.0802C59.7262 53.1802 59.7762 53.2802 60.0962 53.3802C60.1062 53.4802 59.9762 53.5902 60.1262 53.6902C60.1462 53.8002 60.2162 53.9002 60.1562 54.0102C60.3862 54.1202 60.3762 54.2302 60.1762 54.3502C60.4262 54.4602 60.3262 54.5802 60.1962 54.7002C60.0562 54.8202 60.4162 54.9402 60.2162 55.0602C60.1962 55.1802 60.2762 55.3002 60.2362 55.4302C60.1362 55.5502 60.0262 55.6802 60.2462 55.8102C60.3062 55.9402 60.3862 56.0702 60.2462 56.1902C60.5062 56.3202 60.3962 56.4502 60.2462 56.5802C60.2862 56.7102 60.1062 56.8502 60.2462 56.9802C60.2062 57.1102 60.3662 57.2502 60.2462 57.3902C60.1662 57.5302 60.0862 57.6602 60.2462 57.8002C60.4162 57.9302 60.1762 58.0702 60.2462 58.2002C59.9962 58.3302 60.3262 58.4602 60.2462 58.5902C60.2662 58.7202 60.1062 58.8502 60.2462 58.9702C60.2962 59.1002 60.3362 59.2202 60.2362 59.3502C60.6162 59.4702 60.1362 59.6002 60.2162 59.7202C60.0562 59.8402 60.2362 59.9602 60.1962 60.0802C60.2662 60.2002 60.0262 60.3102 60.1762 60.4302C60.1462 60.5402 60.2962 60.6602 60.1562 60.7702C60.3462 60.8802 59.9962 60.9902 60.1262 61.0902C60.1262 61.2002 60.1362 61.3002 60.0962 61.4002C59.7962 61.5002 60.0462 61.6002 60.0662 61.7002C60.0362 61.8002 60.2362 61.8902 60.0362 61.9802C60.0162 62.0702 59.8862 62.1602 60.0062 62.2502C60.0462 62.3402 59.5762 62.4202 59.9662 62.5002C60.0362 62.5802 59.6662 62.6602 59.9262 62.7402C60.1662 62.8202 59.8962 62.8902 59.8862 62.9602C59.8762 63.0302 59.8562 63.1002 59.8462 63.1602C59.7162 63.7402 59.5662 64.0702 59.4062 64.0702C59.2262 64.0702 59.0662 63.6602 58.9262 62.9602C58.9162 62.8902 58.7062 62.8202 58.8862 62.7402C58.8862 62.6602 58.7262 62.5902 58.8462 62.5002C58.5762 62.4202 58.7962 62.3302 58.8062 62.2502C58.7962 62.1602 58.8762 62.0702 58.7762 61.9802C58.6162 61.8902 58.8562 61.7902 58.7462 61.7002C58.9162 61.6002 58.8662 61.5002 58.7162 61.4002C58.8762 61.3002 58.6862 61.1902 58.6862 61.0902C58.9362 60.9802 58.7562 60.8802 58.6562 60.7702C58.5662 60.6602 58.6962 60.5502 58.6362 60.4302C58.6862 60.3202 58.5762 60.2002 58.6162 60.0802C58.4962 59.9602 58.4562 59.8402 58.5962 59.7202C58.5162 59.6002 58.5762 59.4802 58.5762 59.3502C58.4762 59.2302 58.5862 59.1002 58.5662 58.9702C58.5162 58.8402 58.8362 58.7202 58.5562 58.5902C58.5162 58.4602 58.5962 58.3302 58.5562 58.2002C58.5962 58.0702 58.6262 57.9302 58.5562 57.8002C58.8262 57.6702 58.6562 57.5302 58.5562 57.3902C58.4762 57.2502 58.5162 57.1202 58.5562 56.9802C58.5262 56.8502 58.5462 56.7102 58.5562 56.5802C58.4762 56.4502 58.6762 56.3202 58.5562 56.1902C58.4362 56.0602 58.6862 55.9302 58.5662 55.8102C58.4862 55.6802 58.4462 55.5602 58.5762 55.4302C58.5762 55.3102 58.8262 55.1802 58.5962 55.0602C58.5462 54.9402 58.2362 54.8202 58.6162 54.7002C58.5162 54.5802 58.7962 54.4702 58.6362 54.3502C58.9162 54.2402 58.6462 54.1202 58.6562 54.0102C58.7062 53.9002 58.8062 53.7902 58.6862 53.6902C58.5562 53.5802 58.7562 53.4802 58.7162 53.3802C58.5562 53.2802 58.9262 53.1802 58.7462 53.0802C58.7862 52.9802 58.7262 52.8902 58.7762 52.8002C58.3962 52.7102 58.7762 52.6202 58.8062 52.5302C58.8662 52.4402 58.5562 52.3602 58.8462 52.2802C58.5562 52.2002 58.8062 52.1202 58.8862 52.0402C58.9662 51.9602 58.7662 51.8902 58.9262 51.8202C58.7262 51.7502 59.0362 51.6802 58.9662 51.6202C59.0962 51.5602 58.9662 51.4902 59.0062 51.4402C58.9662 51.3802 58.9762 51.3302 59.0562 51.2702C59.0662 51.2202 59.0862 51.1702 59.0962 51.1202C59.1862 50.8502 59.2962 50.7002 59.3962 50.7002H59.4162Z" fill="#0061EF"/>
<path d="M43.2919 0.139953C43.2919 0.0599535 44.4019 -0.140047 46.4419 0.139953C46.6119 0.159953 46.7819 0.199953 46.9619 0.229953C47.1419 0.269953 47.3319 0.299953 47.5219 0.349953C47.7119 0.389953 47.9119 0.429953 48.1219 0.479953C48.3219 0.539953 48.5319 0.599954 48.7419 0.679954C48.9319 0.809954 49.1619 0.849954 49.4019 0.879954C49.6419 0.909953 49.8819 0.969953 50.0619 1.16995C50.2719 1.29995 50.5019 1.40995 50.7319 1.51995C50.8519 1.56995 50.9719 1.61995 51.0919 1.67995C51.2119 1.73995 51.3319 1.78995 51.4519 1.84995C51.7019 1.95995 51.9219 2.12995 52.1519 2.28995C52.3819 2.44995 52.6119 2.61995 52.8919 2.73995C53.2119 2.79995 53.4019 3.04995 53.6019 3.28995C53.7919 3.52995 53.9819 3.77995 54.3319 3.85995C54.8419 4.23995 55.3019 4.70995 55.7219 5.23995C56.0019 5.87995 56.5719 6.29995 57.0119 6.86995C57.1919 7.59995 57.6419 8.15995 58.1319 8.75995C58.1419 9.58995 58.4819 10.24 59.0219 10.89C59.2719 11.64 59.3519 12.45 59.6219 13.23C59.7719 14.04 59.9319 14.88 59.8719 15.74C60.1119 16.59 60.0619 17.5 59.7319 18.35C59.8419 19.27 59.5419 20.16 59.1519 21C59.0419 21.21 58.9719 21.42 58.9019 21.65C58.8319 21.87 58.7719 22.09 58.7019 22.32C58.6419 22.55 58.5519 22.77 58.4619 22.98C58.3719 23.2 58.2519 23.4 58.0919 23.59C57.6419 24.42 57.1919 25.28 56.5719 26.03C55.9019 26.75 55.1719 27.39 54.6019 28.22C53.9119 28.94 53.1519 29.63 52.2119 30.07C51.4919 30.84 50.4819 31.23 49.4719 31.48C48.5119 31.91 47.4619 32.02 46.4619 32.37C45.4219 32.53 44.3619 32.79 43.2819 32.68C42.2019 32.6 41.1719 32.42 40.1019 32.37C39.5619 32.35 39.0519 32.21 38.5619 32.03C38.3119 31.95 38.0719 31.84 37.8319 31.75C37.5819 31.66 37.3419 31.56 37.1019 31.48C36.8819 31.33 36.6519 31.2 36.4219 31.09C36.3019 31.03 36.1919 30.98 36.0719 30.93C35.9519 30.88 35.8419 30.83 35.7219 30.78L35.3619 30.63C35.2419 30.58 35.1319 30.52 35.0119 30.46C34.7819 30.35 34.5619 30.22 34.3619 30.06C33.4819 29.53 32.7919 28.79 31.9719 28.21C31.2119 27.57 30.5019 26.86 30.0019 26.01C29.5619 25.73 29.2919 25.31 29.0919 24.87C28.9819 24.65 28.9019 24.42 28.8019 24.2C28.7519 24.09 28.7019 23.98 28.6519 23.88C28.6019 23.77 28.5419 23.67 28.4819 23.57C28.1919 22.66 27.6619 21.87 27.4319 20.98C27.2619 20.55 27.1819 20.1 27.1219 19.65C27.1019 19.54 27.0819 19.43 27.0619 19.32C27.0419 19.21 27.0319 19.1 27.0119 18.99C26.9719 18.77 26.9119 18.55 26.8519 18.34C26.7519 17.46 26.5619 16.59 26.7119 15.73C26.6719 15.52 26.6619 15.3 26.6719 15.09C26.6919 14.88 26.7319 14.67 26.7719 14.46C26.8019 14.25 26.8619 14.05 26.9019 13.84C26.9419 13.63 26.9619 13.43 26.9619 13.22C27.0919 12.41 27.2919 11.62 27.5619 10.88C27.6919 10.71 27.7919 10.54 27.8719 10.37C27.9519 10.2 28.0219 10.02 28.0819 9.82995C28.1419 9.64995 28.1919 9.45995 28.2519 9.27995C28.3119 9.09995 28.3719 8.91995 28.4519 8.74995C28.6419 8.41995 28.7619 8.06995 28.9319 7.73995C29.0919 7.40995 29.2919 7.09995 29.5719 6.85995C29.9919 6.27995 30.5019 5.80995 30.8619 5.22995C31.0619 4.95995 31.3719 4.78995 31.6419 4.59995C31.9119 4.40995 32.1619 4.21995 32.2519 3.84995C32.4619 3.61995 32.7419 3.46995 33.0119 3.31995C33.2819 3.17995 33.5219 3.00995 33.6919 2.72995C33.8619 2.45995 34.1019 2.29995 34.3619 2.17995C34.6219 2.05995 34.8919 1.96995 35.1319 1.83995C35.2519 1.77995 35.3719 1.70995 35.4819 1.64995C35.6019 1.58995 35.7219 1.53995 35.8319 1.47995C36.0619 1.36995 36.2919 1.25995 36.5219 1.16995C37.5419 0.739953 38.5019 0.459953 39.3419 0.279953C39.5519 0.239953 39.7519 0.199953 39.9519 0.169953C40.1519 0.129954 40.3319 0.119953 40.5119 0.0899535C40.8719 0.0399535 41.2019 0.0299535 41.4919 -4.65093e-05C42.0819 -0.0200465 42.5319 -0.0200465 42.8319 0.0199535C43.1319 0.0499535 43.2919 0.0899535 43.2919 0.129953C43.2919 0.229953 42.5219 0.269953 41.1519 0.529953C40.4719 0.669953 39.6319 0.859954 38.6819 1.19995C37.7419 1.52995 36.6919 2.00995 35.6019 2.66995C35.3819 2.79995 35.1919 2.98995 34.9919 3.14995C34.7819 3.30995 34.5719 3.47995 34.2919 3.55995C34.0619 3.70995 33.8819 3.92995 33.6619 4.11995C33.4519 4.31995 33.2519 4.51995 32.9919 4.66995C32.7519 5.26995 32.1719 5.52995 31.7519 5.99995C31.3519 6.46995 30.8919 6.93995 30.6119 7.54995C30.5019 7.86995 30.3019 8.12995 30.1119 8.41995C29.9119 8.69995 29.7419 8.98995 29.6319 9.31995C29.1819 9.86995 28.9319 10.56 28.8719 11.3C28.5019 11.94 28.4919 12.72 28.3719 13.46C28.0019 14.17 28.0919 14.97 28.1919 15.75C28.2819 16.53 28.1819 17.33 28.3619 18.13C28.4319 18.94 28.7219 19.72 28.9219 20.52C29.2819 21.28 29.6419 22.02 29.9019 22.85C30.3619 23.57 30.7619 24.34 31.2919 25.04C31.8919 25.68 32.4119 26.41 33.0919 27C33.4419 27.28 33.7419 27.63 34.0819 27.94C34.2419 28.1 34.4319 28.24 34.6219 28.36C34.8119 28.49 35.0219 28.58 35.2519 28.65C36.0419 29.11 36.8319 29.61 37.7219 29.9C38.5719 30.28 39.4819 30.58 40.4219 30.69C41.3119 31.14 42.3119 31.07 43.2719 30.96C44.2319 30.88 45.1819 30.83 46.1219 30.69C47.0519 30.48 47.9519 30.23 48.8219 29.9C49.6519 29.48 50.5719 29.23 51.2919 28.65C51.4719 28.5 51.6619 28.38 51.8419 28.24C52.0319 28.11 52.2319 28 52.4119 27.87C52.7919 27.62 53.1619 27.35 53.4519 27C54.0619 26.33 54.6119 25.66 55.2519 25.04C55.5119 24.69 55.8119 24.37 56.0719 24.02C56.2119 23.85 56.3219 23.66 56.4219 23.47C56.4719 23.37 56.5219 23.28 56.5519 23.18C56.5919 23.08 56.6219 22.97 56.6419 22.86C56.7319 22.66 56.8019 22.46 56.8519 22.26C56.9119 22.05 56.9719 21.85 57.0319 21.65C57.0919 21.45 57.1619 21.26 57.2619 21.07C57.3519 20.88 57.4619 20.7 57.6219 20.53C57.6919 20.12 57.8519 19.74 57.9819 19.34C58.0119 19.24 58.0419 19.14 58.0719 19.05C58.1019 18.95 58.1219 18.85 58.1419 18.75C58.1719 18.55 58.2119 18.35 58.1919 18.14C58.2819 17.95 58.3519 17.75 58.3919 17.55C58.4219 17.35 58.4319 17.15 58.4319 16.95C58.4319 16.75 58.4119 16.55 58.4019 16.35C58.3919 16.15 58.3819 15.96 58.3719 15.76C58.4219 14.98 58.4319 14.19 58.1919 13.47C57.9419 12.75 57.9519 12 57.6919 11.32C57.5919 11.16 57.5319 10.99 57.4819 10.82C57.4319 10.65 57.3819 10.48 57.3419 10.3C57.3019 10.12 57.2519 9.94995 57.1819 9.78995C57.1119 9.62995 57.0419 9.46995 56.9219 9.32995C56.6519 8.68995 56.2619 8.13995 55.9419 7.55995C55.7719 7.46995 55.6319 7.36995 55.5319 7.24995C55.4219 7.12995 55.3419 6.98995 55.2619 6.84995C55.1119 6.56995 54.9919 6.24995 54.8019 6.00995C54.6219 5.74995 54.3619 5.56995 54.1319 5.37995C53.9019 5.17995 53.6819 4.98995 53.5619 4.67995C53.2419 4.58995 53.0319 4.40995 52.8319 4.20995C52.6319 4.00995 52.4719 3.76995 52.2619 3.57995C52.0619 3.38995 51.8219 3.24995 51.5919 3.12995C51.3619 2.99995 51.1319 2.86995 50.9519 2.67995C50.8119 2.65995 50.7019 2.60995 50.5919 2.54995C50.4819 2.48995 50.3819 2.41995 50.2819 2.33995C50.0819 2.18995 49.9019 2.02995 49.6719 1.95995C49.3019 1.63995 48.8319 1.58995 48.4519 1.41995C48.2419 1.36995 48.0519 1.31995 47.8619 1.23995C47.6719 1.17995 47.4919 1.09995 47.3219 1.01995C47.1419 0.959953 46.9619 0.909954 46.7919 0.859954C46.6219 0.819954 46.4619 0.759953 46.3019 0.729954C44.3719 0.269954 43.2619 0.259953 43.2619 0.129953L43.2919 0.139953Z" fill="#0061EF"/>
<path d="M28.0881 11.4702C28.0481 11.3702 28.3581 11.1502 28.9481 10.8302C29.0481 10.7802 29.1481 10.7202 29.2581 10.6602C29.3681 10.5902 29.4781 10.5102 29.6181 10.4702C29.7981 10.5502 29.7981 10.1202 30.0181 10.2702C30.1881 10.2702 30.3181 10.1502 30.4581 10.0502C30.5981 9.94021 30.8181 10.0002 30.9381 9.81021C30.9981 9.49021 31.4081 9.94021 31.4481 9.55021C31.5981 9.40021 31.7981 9.34021 31.9981 9.27021C32.2781 9.37021 32.3881 9.10021 32.5781 8.97021C32.8881 9.10021 33.0481 8.90021 33.1881 8.65021C33.5481 8.86021 33.7481 8.70021 33.8181 8.30021C34.0281 8.18021 34.3181 8.18021 34.4681 7.93021C34.6781 7.79021 34.8781 7.61021 35.1281 7.53021C35.2481 7.20021 35.4681 7.08021 35.8081 7.10021C35.9081 6.75021 36.1881 6.69021 36.4881 6.64021C36.7981 6.60021 36.8181 6.15021 37.1581 6.14021C37.3881 5.98021 37.5681 5.75021 37.8081 5.60021C37.9481 5.54021 38.0881 5.49021 38.2081 5.40021C38.3181 5.31021 38.4081 5.19021 38.4181 5.01021C38.5681 4.76021 38.6781 4.51021 38.9381 4.37021C38.9281 4.28021 38.9281 4.20021 38.9381 4.13021C38.9481 4.06021 38.9881 4.01021 39.0181 3.96021C39.0481 3.91021 39.0981 3.86021 39.1481 3.82021C39.1681 3.80021 39.2081 3.76021 39.2481 3.73021L39.3581 3.63021C39.4281 3.45021 39.5581 3.30021 39.6881 3.15021C39.8181 2.99021 39.9581 2.84021 40.0781 2.62021C40.2681 2.47021 40.4581 2.28021 40.7281 2.14021C40.9981 2.00021 41.3381 1.94021 41.6181 2.02021C41.9081 2.08021 42.1381 2.19021 42.3381 2.29021C42.5381 2.39021 42.7281 2.47021 42.9381 2.51021C43.3681 2.59021 43.5081 3.01021 43.8081 3.18021C43.9081 3.59021 44.3681 3.57021 44.5481 3.85021C44.7981 4.05021 44.9181 4.38021 45.2381 4.49021C45.4981 4.66021 45.7481 4.82021 45.9081 5.08021C46.3681 4.97021 46.2981 5.51021 46.5681 5.61021C46.7081 5.90021 47.0281 5.90021 47.2381 6.07021C47.4981 6.14021 47.6181 6.48021 47.9081 6.44021C48.1281 6.57021 48.3981 6.51021 48.5781 6.72021C48.7181 6.67021 48.8181 6.73021 48.9181 6.80021C49.0181 6.87021 49.1281 6.95021 49.2481 6.90021C49.4681 6.94021 49.6881 6.94021 49.9081 6.99021C50.1181 7.29021 50.3681 7.03021 50.5981 6.99021C50.8381 7.01021 51.0581 6.80021 51.2881 6.99021C51.5081 7.00021 51.7381 7.12021 51.9381 6.99021C52.1481 6.93021 52.3881 7.39021 52.5581 6.99021C52.7481 6.91021 52.9681 7.27021 53.1381 6.99021C53.3081 6.74021 53.5081 6.99021 53.6781 6.99021C53.8481 6.99021 54.0181 6.99021 54.1681 6.98021C55.5881 6.95021 56.4181 7.01021 56.4381 7.17021C56.4581 7.34021 55.4781 7.62021 53.7581 7.94021C53.5881 7.96021 53.4181 8.18021 53.2181 8.01021C53.0281 8.01021 52.8481 8.19021 52.6381 8.08021C52.4581 8.37021 52.2281 8.15021 52.0181 8.15021C51.8081 8.18021 51.5781 8.10021 51.3581 8.22021C51.1381 8.39021 50.8981 8.17021 50.6581 8.29021C50.4081 8.14021 50.1781 8.20021 49.8881 8.35021C49.6181 8.18021 49.3181 8.35021 49.0281 8.31021C48.7781 8.02021 48.4681 8.12021 48.1481 8.13021C47.8281 8.13021 47.5781 7.90021 47.2781 7.83021C47.0181 7.66021 46.6881 7.61021 46.4381 7.42021C46.1081 7.36021 45.8081 7.22021 45.6281 6.92021C45.3181 6.80021 45.1081 6.55021 44.8581 6.35021C44.5481 6.22021 44.3781 5.93021 44.1181 5.73021C43.8481 5.56021 43.8281 5.10021 43.3981 5.09021C43.1381 4.90021 42.9581 4.63021 42.6981 4.47021C42.4881 4.25021 42.2781 4.03021 42.0081 3.95021C41.9781 3.76021 41.8681 3.68021 41.7581 3.65021C41.6481 3.63021 41.5381 3.67021 41.4981 3.73021C41.4481 3.77021 41.4581 3.78021 41.4281 3.78021C41.3981 3.78021 41.3381 3.80021 41.2681 3.84021C41.1581 3.98021 41.0081 4.18021 40.8681 4.41021C40.8681 4.45021 40.8481 4.48021 40.8381 4.51021C40.8181 4.54021 40.8081 4.56021 40.7881 4.61021C40.7381 4.69021 40.6781 4.78021 40.6181 4.85021C40.4981 5.00021 40.3781 5.15021 40.3181 5.33021C40.2581 5.52021 40.1181 5.64021 39.9781 5.76021C39.8381 5.88021 39.6981 5.98021 39.6281 6.15021C39.5381 6.30021 39.4381 6.44021 39.3181 6.57021C39.1981 6.68021 39.0581 6.78021 38.8881 6.84021C38.6381 7.05021 38.2381 7.05021 38.1281 7.43021C37.9081 7.66021 37.8281 8.10021 37.3681 7.95021C37.1681 8.20021 36.7681 8.12021 36.6181 8.41021C36.2281 8.32021 36.1181 8.69021 35.8781 8.82021C35.6081 8.91021 35.3281 8.96021 35.1481 9.19021C34.9781 9.43021 34.6481 9.37021 34.4381 9.53021C34.2881 9.79021 33.8981 9.57021 33.7581 9.83021C33.5281 9.90021 33.3381 10.0602 33.1081 10.1002C33.0581 10.5402 32.6981 10.2902 32.4881 10.3502C32.2681 10.3902 32.1981 10.7502 31.8981 10.5702C31.8281 10.9102 31.5481 10.7602 31.3381 10.7702C31.1281 10.7702 31.0381 11.0202 30.8181 10.9402C30.7281 11.1902 30.4581 10.9702 30.3381 11.0902C30.1381 11.0302 30.0481 11.2002 29.8981 11.2202C29.7781 11.3102 29.6481 11.3502 29.4981 11.3302C29.3781 11.3602 29.2581 11.3902 29.1481 11.4102C28.4881 11.5602 28.1181 11.5802 28.0781 11.4902L28.0881 11.4702Z" fill="#0061EF"/>
<path d="M37.7553 13.0198C37.7553 13.0698 37.7153 13.1298 37.6453 13.1798C37.5753 13.2298 37.4753 13.2898 37.3553 13.3598C37.3153 13.3798 37.2753 13.4098 37.2353 13.4398C37.1953 13.4798 37.1553 13.5198 37.1053 13.5298C37.0053 13.4198 37.1053 13.7998 36.9653 13.6298C36.8853 13.5998 36.8553 13.6698 36.8253 13.7498C36.8053 13.8198 36.6653 13.7398 36.6853 13.8898C36.7353 14.0198 36.6753 13.9798 36.6053 13.9398C36.5353 13.9098 36.4653 13.8898 36.5553 14.0398C36.5553 14.1398 36.4953 14.1698 36.4353 14.2198C36.2253 14.1398 36.3453 14.3398 36.3353 14.4098C36.0853 14.3398 36.1253 14.4798 36.2553 14.6198C35.9053 14.5398 35.9153 14.6698 36.1953 14.8398C36.1953 14.8798 36.1553 14.9098 36.1253 14.9398C36.1053 14.9798 36.0953 15.0198 36.1653 15.0698C36.1653 15.1098 36.1853 15.1498 36.1953 15.1898C36.1953 15.2298 36.1953 15.2698 36.1753 15.3098C36.2853 15.3498 36.3453 15.3898 36.3453 15.4198C36.3453 15.4598 36.2953 15.4998 36.2153 15.5498C36.4653 15.5998 36.3853 15.6698 36.2853 15.7898C36.2353 15.8498 36.3053 15.8798 36.3553 15.8998C36.4153 15.9198 36.4653 15.9398 36.3953 16.0198C36.4253 16.1098 36.5253 16.1398 36.5453 16.2298C36.5253 16.2998 36.5153 16.3698 36.5453 16.4098C36.5653 16.4498 36.6253 16.4698 36.7353 16.4098C36.8453 16.4298 36.9553 16.4098 36.9553 16.5698C37.1653 16.3898 37.1653 16.5198 37.2053 16.6898C37.2553 16.6898 37.2853 16.7398 37.3253 16.7698C37.3653 16.7998 37.4153 16.8298 37.4753 16.7698C37.5153 16.7998 37.5653 16.7698 37.6153 16.7698C37.6653 16.7498 37.7053 16.7398 37.7553 16.7998C37.8053 16.8398 37.8553 16.8698 37.9053 16.8798C37.9553 16.8798 38.0053 16.8498 38.0353 16.7698C38.0653 16.6798 38.1053 16.6798 38.1553 16.6998C38.2053 16.7198 38.2653 16.7398 38.2953 16.6998C38.3853 16.7998 38.4253 16.7498 38.4453 16.6998C38.4753 16.6498 38.4753 16.5698 38.5353 16.5798C38.5653 16.5498 38.6253 16.5498 38.6753 16.5398C38.7253 16.5398 38.7653 16.4998 38.7553 16.4298C38.7753 16.3798 38.7853 16.3398 38.8153 16.2998C38.8453 16.2698 38.8753 16.2398 38.9453 16.2398C38.8253 16.0898 38.8653 16.0798 38.9353 16.0798C39.0053 16.0798 39.1253 16.0898 39.1053 16.0298C39.1953 16.0298 39.2153 15.9798 39.2053 15.9398C39.2053 15.8898 39.1853 15.8398 39.2153 15.8098C39.1953 15.7598 39.2453 15.7298 39.2853 15.6998C39.3353 15.6698 39.3553 15.6198 39.2853 15.5698C39.3053 15.5298 39.2853 15.4898 39.2653 15.4398C39.2453 15.3998 39.2653 15.3598 39.3253 15.3198C39.2253 15.2798 39.2653 15.2398 39.3153 15.1998C39.3553 15.1598 39.4053 15.1098 39.3353 15.0798C39.3353 15.0398 39.3153 14.9998 39.3153 14.9598C39.3153 14.9198 39.3153 14.8798 39.3153 14.8398C39.4453 14.7598 39.4353 14.7098 39.3953 14.6798C39.3553 14.6498 39.2753 14.6398 39.2553 14.6098C39.2553 14.5198 39.0353 14.5698 39.1753 14.3998C39.1553 14.3298 39.2153 14.1798 39.0753 14.2098C39.0353 14.1998 39.0953 14.0998 39.1153 14.0298C39.1353 13.9598 39.1153 13.9198 38.9553 14.0298C38.9053 14.0298 38.9353 13.9498 38.9353 13.8898C38.9353 13.8298 38.9353 13.7898 38.8253 13.8698C38.6353 14.0298 38.7353 13.7798 38.6853 13.7298C38.6453 13.6798 38.5953 13.6498 38.5453 13.6098C38.1253 13.2798 37.7553 13.1698 37.7553 12.9998C37.7553 12.9198 37.8653 12.8198 38.1053 12.7698C38.3453 12.7198 38.7153 12.7198 39.1553 12.8998C39.2353 12.9398 39.4453 12.8098 39.4253 13.0298C39.5053 13.0898 39.6953 13.0298 39.6953 13.1998C39.9653 13.0698 39.8953 13.3298 39.9653 13.4198C40.0553 13.4998 40.0553 13.6498 40.2153 13.6898C40.4153 13.7198 40.2853 13.9498 40.4353 14.0198C40.3453 14.2098 40.4353 14.3098 40.6253 14.3998C40.5653 14.4898 40.5953 14.5598 40.6353 14.6198C40.6853 14.6798 40.7453 14.7498 40.7553 14.8198C40.6453 14.9198 40.6353 14.9898 40.6653 15.0598C40.6953 15.1298 40.7653 15.1998 40.8253 15.2798C40.8753 15.3598 40.8553 15.4398 40.8453 15.5198C40.8253 15.5998 40.8053 15.6798 40.8153 15.7598C40.7453 15.9098 40.8153 16.0998 40.7253 16.2598C40.7553 16.3598 40.7653 16.4598 40.7253 16.5498C40.6953 16.6398 40.6353 16.7098 40.5353 16.7598C40.5253 16.9598 40.3653 17.0798 40.2553 17.2298C40.2453 17.3398 40.1753 17.4098 40.1053 17.4698C40.0353 17.5298 39.9553 17.5798 39.8953 17.6598C39.8453 17.7398 39.7253 17.7598 39.6253 17.7798C39.5253 17.8098 39.4553 17.8498 39.4453 18.0198C39.2953 18.1598 39.0853 18.1698 38.9253 18.2898C38.7253 18.3298 38.5353 18.3498 38.3453 18.4598C38.2153 18.3398 38.1253 18.3298 38.0353 18.3598C37.9453 18.3898 37.8453 18.4598 37.7453 18.5198C37.6453 18.5598 37.5353 18.5598 37.4353 18.5498C37.3353 18.5298 37.2353 18.4998 37.1353 18.4598C36.9353 18.4498 36.7353 18.3798 36.5653 18.2898C36.4553 18.2898 36.3753 18.2198 36.3053 18.1498C36.2253 18.0898 36.1653 18.0098 36.0453 18.0098C35.9253 18.0098 35.8753 17.9198 35.8153 17.8398C35.7553 17.7598 35.7153 17.6698 35.6053 17.6498C35.5053 17.6198 35.4153 17.5698 35.3553 17.4998C35.2853 17.4298 35.2453 17.3398 35.2453 17.2298C35.1853 17.1598 35.1853 17.0498 35.1653 16.9498C35.1453 16.8598 35.1053 16.7898 34.9653 16.7598C34.9053 16.6898 34.7753 16.6498 34.7053 16.5798C34.6353 16.5098 34.6253 16.4098 34.7753 16.2698C34.7053 16.1998 34.7253 16.0998 34.7453 16.0098C34.7553 15.9198 34.7853 15.8398 34.6853 15.7698C34.8153 15.6698 34.8053 15.5898 34.7753 15.5198C34.7453 15.4398 34.6653 15.3698 34.6753 15.2898C34.7053 15.2098 34.7453 15.1398 34.7653 15.0598C34.7853 14.9798 34.7953 14.9098 34.7453 14.8298C34.6853 14.7398 34.7253 14.6698 34.7753 14.6098C34.8253 14.5398 34.8753 14.4798 34.8753 14.4098C34.8253 14.3198 34.8953 14.2598 34.9653 14.2198C35.0353 14.1698 35.1053 14.1398 35.0553 14.0298C35.1453 13.9198 35.1653 13.7798 35.2753 13.6998C35.1553 13.5398 35.1953 13.4798 35.2753 13.4598C35.3553 13.4398 35.4753 13.4598 35.5253 13.4198C35.5853 13.3898 35.5753 13.3098 35.5953 13.2398C35.6153 13.1698 35.6553 13.1298 35.7953 13.1998C35.6853 12.9098 35.9453 13.0198 36.0653 13.0298C36.1853 13.0298 36.1653 12.8198 36.3353 12.8998C36.3153 12.6698 36.5453 12.9098 36.5953 12.8198C36.7253 12.8998 36.7453 12.7598 36.8353 12.7698C36.8853 12.6998 36.9653 12.6898 37.0453 12.7498C37.1153 12.7498 37.1753 12.7498 37.2353 12.7498C37.4053 12.7698 37.5353 12.7998 37.6253 12.8498C37.7153 12.8998 37.7553 12.9498 37.7553 12.9998V13.0198Z" fill="#0061EF"/>
<path d="M50.3313 13.0201C50.3313 13.0701 50.2913 13.1301 50.2213 13.1801C50.1513 13.2301 50.0513 13.2901 49.9313 13.3601C49.8913 13.3801 49.8513 13.4101 49.8113 13.4401C49.7713 13.4801 49.7313 13.5201 49.6813 13.5301C49.5813 13.4201 49.6813 13.8001 49.5413 13.6301C49.4613 13.6001 49.4313 13.6701 49.4013 13.7501C49.3713 13.8201 49.2413 13.7401 49.2613 13.8901C49.3213 14.0201 49.2513 13.9801 49.1813 13.9401C49.1113 13.9101 49.0513 13.8901 49.1313 14.0401C49.1313 14.1401 49.0713 14.1701 49.0113 14.2201C48.8013 14.1401 48.9213 14.3401 48.9013 14.4101C48.6513 14.3401 48.6913 14.4801 48.8213 14.6201C48.4713 14.5401 48.4813 14.6701 48.7613 14.8401C48.7613 14.8801 48.7213 14.9101 48.6913 14.9501C48.6613 14.9901 48.6613 15.0301 48.7313 15.0801C48.7313 15.1201 48.7513 15.1601 48.7613 15.2001C48.7613 15.2401 48.7613 15.2801 48.7413 15.3201C48.8513 15.3601 48.9113 15.4001 48.9213 15.4301C48.9213 15.4701 48.8713 15.5101 48.7913 15.5601C49.0413 15.6101 48.9613 15.6801 48.8613 15.8001C48.8113 15.8601 48.8813 15.8901 48.9313 15.9101C48.9913 15.9301 49.0413 15.9501 48.9713 16.0301C49.0013 16.1201 49.1013 16.1501 49.1213 16.2401C49.1013 16.3101 49.0913 16.3801 49.1213 16.4201C49.1413 16.4601 49.2013 16.4801 49.3113 16.4201C49.4213 16.4401 49.5313 16.4201 49.5313 16.5801C49.7413 16.4101 49.7413 16.5301 49.7813 16.7001C49.8313 16.7001 49.8613 16.7501 49.9013 16.7801C49.9413 16.8101 49.9913 16.8401 50.0513 16.7801C50.0913 16.8101 50.1413 16.7801 50.1913 16.7801C50.2413 16.7601 50.2813 16.7501 50.3313 16.8101C50.3813 16.8501 50.4313 16.8801 50.4813 16.8901C50.5313 16.8901 50.5813 16.8601 50.6113 16.7801C50.6413 16.6901 50.6813 16.6901 50.7313 16.7101C50.7813 16.7301 50.8413 16.7501 50.8713 16.7101C50.9613 16.8101 51.0013 16.7601 51.0213 16.7101C51.0513 16.6601 51.0513 16.5801 51.1113 16.5901C51.1413 16.5601 51.2013 16.5601 51.2513 16.5501C51.3013 16.5501 51.3413 16.5101 51.3313 16.4401C51.3513 16.3901 51.3613 16.3501 51.3913 16.3101C51.4213 16.2801 51.4513 16.2501 51.5213 16.2501C51.3913 16.1001 51.4413 16.0901 51.5113 16.0901C51.5813 16.0901 51.7013 16.1001 51.6813 16.0401C51.7713 16.0401 51.7913 15.9901 51.7813 15.9501C51.7813 15.9001 51.7613 15.8501 51.7913 15.8201C51.7713 15.7701 51.8213 15.7401 51.8613 15.7101C51.9113 15.6801 51.9313 15.6301 51.8613 15.5801C51.8813 15.5401 51.8613 15.5001 51.8413 15.4501C51.8213 15.4101 51.8313 15.3701 51.9013 15.3301C51.8013 15.2901 51.8413 15.2501 51.8913 15.2101C51.9313 15.1701 51.9813 15.1201 51.9113 15.0901C51.9113 15.0501 51.9013 15.0101 51.8913 14.9701C51.8913 14.9301 51.8913 14.8901 51.8913 14.8501C52.0213 14.7701 52.0113 14.7201 51.9713 14.6901C51.9313 14.6601 51.8513 14.6501 51.8313 14.6201C51.8313 14.5301 51.6213 14.5801 51.7513 14.4101C51.7313 14.3401 51.7913 14.1901 51.6513 14.2201C51.6113 14.2101 51.6713 14.1101 51.6913 14.0401C51.7113 13.9701 51.6913 13.9301 51.5313 14.0401C51.4813 14.0401 51.5113 13.9601 51.5113 13.9001C51.5113 13.8401 51.5113 13.8001 51.4013 13.8801C51.2113 14.0401 51.3213 13.7901 51.2613 13.7401C51.2213 13.6901 51.1713 13.6601 51.1213 13.6201C50.7013 13.2901 50.3313 13.1801 50.3313 13.0101C50.3313 12.9301 50.4413 12.8301 50.6813 12.7801C50.9213 12.7301 51.2913 12.7301 51.7313 12.9101C51.8113 12.9501 52.0213 12.8201 52.0013 13.0401C52.0813 13.1001 52.2713 13.0401 52.2713 13.2101C52.5413 13.0801 52.4713 13.3401 52.5413 13.4301C52.6313 13.5101 52.6313 13.6601 52.7913 13.7001C52.9913 13.7301 52.8613 13.9601 53.0113 14.0301C52.9213 14.2201 53.0013 14.3201 53.2013 14.4101C53.1413 14.5001 53.1713 14.5701 53.2113 14.6301C53.2613 14.6901 53.3213 14.7601 53.3313 14.8301C53.2213 14.9301 53.2113 15.0001 53.2413 15.0701C53.2713 15.1401 53.3413 15.2101 53.4013 15.2901C53.4513 15.3701 53.4313 15.4501 53.4213 15.5301C53.4013 15.6101 53.3813 15.6901 53.3913 15.7701C53.3213 15.9201 53.3913 16.1101 53.3013 16.2701C53.3313 16.3701 53.3413 16.4701 53.3113 16.5601C53.2813 16.6501 53.2213 16.7201 53.1113 16.7701C53.1013 16.9701 52.9513 17.0901 52.8313 17.2401C52.8213 17.3401 52.7513 17.4201 52.6813 17.4801C52.6113 17.5401 52.5313 17.5901 52.4713 17.6701C52.4213 17.7501 52.3013 17.7701 52.2013 17.7901C52.1013 17.8201 52.0313 17.8601 52.0213 18.0301C51.8713 18.1701 51.6613 18.1801 51.5013 18.3001C51.3013 18.3401 51.1113 18.3601 50.9213 18.4701C50.8013 18.3501 50.7013 18.3401 50.6113 18.3701C50.5213 18.4001 50.4213 18.4701 50.3213 18.5301C50.2213 18.5701 50.1113 18.5701 50.0113 18.5601C49.9113 18.5401 49.8113 18.5101 49.7113 18.4701C49.5113 18.4601 49.3113 18.3901 49.1413 18.3001C49.0313 18.3001 48.9513 18.2301 48.8813 18.1601C48.8013 18.1001 48.7413 18.0201 48.6213 18.0201C48.5013 18.0201 48.4413 17.9301 48.3913 17.8501C48.3313 17.7701 48.2913 17.6801 48.1813 17.6601C48.0813 17.6301 47.9913 17.5801 47.9313 17.5101C47.8613 17.4401 47.8213 17.3501 47.8213 17.2401C47.7613 17.1701 47.7613 17.0601 47.7513 16.9601C47.7313 16.8701 47.6913 16.8001 47.5513 16.7701C47.4913 16.7001 47.3613 16.6601 47.2913 16.5901C47.2213 16.5201 47.2113 16.4201 47.3613 16.2801C47.2913 16.2101 47.3113 16.1101 47.3313 16.0201C47.3413 15.9301 47.3713 15.8501 47.2713 15.7801C47.3913 15.6801 47.3913 15.6001 47.3613 15.5301C47.3313 15.4501 47.2513 15.3801 47.2613 15.3001C47.2913 15.2201 47.3313 15.1501 47.3513 15.0701C47.3713 14.9901 47.3813 14.9201 47.3313 14.8401C47.2713 14.7501 47.3113 14.6801 47.3613 14.6201C47.4113 14.5501 47.4613 14.4901 47.4613 14.4201C47.4113 14.3301 47.4813 14.2701 47.5513 14.2301C47.6213 14.1801 47.7013 14.1501 47.6413 14.0401C47.7313 13.9301 47.7513 13.7901 47.8613 13.7101C47.7413 13.5501 47.7813 13.5001 47.8613 13.4701C47.9413 13.4501 48.0613 13.4701 48.1113 13.4301C48.1713 13.4001 48.1613 13.3201 48.1813 13.2501C48.1913 13.1801 48.2413 13.1401 48.3813 13.2101C48.2713 12.9201 48.5313 13.0301 48.6513 13.0401C48.7713 13.0401 48.7513 12.8301 48.9213 12.9101C48.9013 12.6801 49.1313 12.9201 49.1713 12.8301C49.3013 12.9101 49.3213 12.7701 49.4113 12.7801C49.4613 12.7101 49.5413 12.7001 49.6213 12.7601C49.6913 12.7601 49.7513 12.7601 49.8113 12.7601C49.9813 12.7801 50.1113 12.8101 50.2013 12.8601C50.2813 12.9101 50.3313 12.9601 50.3313 13.0101V13.0201Z" fill="#0061EF"/>
<path d="M38.9461 23.17C39.0161 23.1 39.1761 23.1 39.3761 23.16C39.4161 23.17 39.4461 23.18 39.4861 23.2C39.5261 23.2 39.5761 23.2 39.5961 23.24C39.5461 23.37 39.8261 23.09 39.7261 23.28C39.7261 23.36 39.7961 23.34 39.8661 23.33C39.9361 23.33 39.8961 23.46 40.0061 23.39C40.1961 23.2 39.9261 23.7 40.1661 23.45C40.2561 23.42 40.2961 23.46 40.3361 23.51C40.2761 23.72 40.4361 23.57 40.5061 23.57C40.4361 23.82 40.5561 23.76 40.6861 23.63C40.5861 23.96 40.6861 23.95 40.8761 23.69C40.9361 23.71 40.9461 23.87 41.0761 23.75C41.1561 23.75 41.2361 23.72 41.2861 23.8C41.4361 23.61 41.4861 23.64 41.4961 23.85C41.6361 23.64 41.6761 23.74 41.7261 23.89C41.7661 24.04 41.9261 23.72 41.9561 23.93C42.0261 23.97 42.1261 23.9 42.1961 23.95C42.2561 24.06 42.3261 24.19 42.4361 23.97C42.5261 23.93 42.6161 23.84 42.6861 23.97C42.7861 23.71 42.8561 23.83 42.9361 23.97C43.0161 23.93 43.1161 24.11 43.1961 23.97C43.2861 24.01 43.3661 23.84 43.4561 23.95C43.5461 24.02 43.6561 24.09 43.7161 23.92C43.7761 23.74 43.8961 23.97 43.9661 23.88C44.1061 24.1 44.1161 23.77 44.2161 23.83C44.2861 23.78 44.4161 23.92 44.4561 23.77C44.5161 23.7 44.5761 23.63 44.6861 23.7C44.6261 23.32 44.8661 23.73 44.9161 23.63C45.0561 23.74 45.0561 23.55 45.1361 23.55C45.1761 23.45 45.3561 23.64 45.3461 23.47C45.4261 23.47 45.4161 23.29 45.5461 23.38C45.5061 23.19 45.7561 23.44 45.7361 23.29C45.7961 23.25 45.8461 23.2 45.9261 23.2C46.1561 23.4 46.0661 23.16 46.1061 23.1C46.1761 23.09 46.1061 22.89 46.2761 23C46.3361 22.98 46.4761 23.04 46.4361 22.91C46.4461 22.84 46.8161 23.14 46.5861 22.82C46.5761 22.73 46.8861 22.96 46.7261 22.73C46.5861 22.52 46.8161 22.67 46.8561 22.64C46.8961 22.61 46.9461 22.59 46.9861 22.56C47.3461 22.33 47.5961 22.21 47.7361 22.3C47.8761 22.39 47.8561 22.76 47.5661 23.28C47.5361 23.33 47.6461 23.52 47.4761 23.44C47.4361 23.48 47.4961 23.64 47.3661 23.61C47.5061 23.85 47.2961 23.74 47.2361 23.78C47.1861 23.84 47.0761 23.82 47.0861 23.95C47.1261 24.12 46.9161 23.99 46.9261 24.13C46.7561 24.05 46.7261 24.13 46.7461 24.31C46.5861 24.23 46.6261 24.44 46.5461 24.48C46.3361 24.32 46.3561 24.52 46.3261 24.65C46.2861 24.78 46.1461 24.71 46.0861 24.82C45.9761 24.82 45.9361 24.97 45.8261 24.97C45.7861 25.12 45.7061 25.21 45.5561 25.12C45.4961 25.24 45.3661 25.22 45.2661 25.25C45.1961 25.38 45.0561 25.31 44.9561 25.37C44.8661 25.45 44.6761 25.17 44.6361 25.47C44.5361 25.53 44.4061 25.47 44.3061 25.55C44.1861 25.55 44.0661 25.52 43.9661 25.61C43.8161 25.36 43.7261 25.54 43.6161 25.65C43.5061 25.74 43.3861 25.71 43.2661 25.67C43.1561 25.7 43.0361 25.7 42.9161 25.67C42.7961 25.75 42.6961 25.54 42.5761 25.65C42.4561 25.76 42.3661 25.52 42.2461 25.61C42.1261 25.67 42.0061 25.7 41.9261 25.55C41.8161 25.53 41.7661 25.28 41.6161 25.48C41.5061 25.51 41.3261 25.78 41.3261 25.39C41.2061 25.46 41.1861 25.16 41.0461 25.29C41.0461 24.99 40.8661 25.21 40.7861 25.17C40.7161 25.09 40.6661 24.97 40.5361 25.05C40.3961 25.14 40.4061 24.91 40.3061 24.91C40.1561 25.02 40.2461 24.65 40.0961 24.77C40.0361 24.7 39.9361 24.72 39.8961 24.63C39.6461 24.92 39.7661 24.55 39.7161 24.48C39.6861 24.4 39.4561 24.62 39.5561 24.34C39.3361 24.54 39.4161 24.3 39.4161 24.2C39.4161 24.1 39.2461 24.22 39.2961 24.06C39.1261 24.19 39.2761 23.9 39.1861 23.93C39.2261 23.79 39.1061 23.86 39.0961 23.81C39.0361 23.81 39.0061 23.77 39.0261 23.69C39.0061 23.65 38.9861 23.61 38.9661 23.58C38.8661 23.37 38.8561 23.22 38.9361 23.14L38.9461 23.17Z" fill="#0061EF"/>
</g>
<defs>
<clipPath id="clip0_1143_38255">
<rect width="85.89" height="64.97" fill="white"/>
</clipPath>
</defs>
</svg>
