<svg width="84" height="69" viewBox="0 0 84 69" fill="none" xmlns="http://www.w3.org/2000/svg">
<g clip-path="url(#clip0_1143_38231)">
<path d="M77.8062 67.7999C77.7562 67.7999 77.6963 67.2799 77.6263 66.2999C77.5263 65.3199 77.4263 63.8699 77.0963 62.0199C77.0563 61.7099 76.9762 61.3899 76.9162 61.0599C76.8462 60.7299 76.7962 60.3899 76.7063 60.0399C76.6163 59.6899 76.5262 59.3299 76.4362 58.9699C76.3363 58.6099 76.2363 58.2299 76.1463 57.8399C76.1063 57.4299 75.9162 57.0599 75.7462 56.6699C75.5762 56.2799 75.3762 55.8899 75.3362 55.4399C75.2862 55.2199 75.2063 55.0099 75.1263 54.7999C75.0462 54.5899 74.9563 54.3699 74.8663 54.1599C74.6863 53.7299 74.4562 53.3099 74.2462 52.8799C74.0162 52.4499 73.8262 51.9999 73.6062 51.5499C73.4862 51.3299 73.3762 51.0999 73.2462 50.8799C73.1862 50.7699 73.1162 50.6599 73.0462 50.5499C72.9762 50.4399 72.8963 50.3399 72.8163 50.2299C72.6263 50.0399 72.4762 49.8199 72.3463 49.5899C72.2163 49.3599 72.0963 49.1199 71.9763 48.8699C71.7463 48.3699 71.4562 47.8999 70.9962 47.5399C70.2562 46.6899 69.5462 45.7899 68.7362 44.9099C68.0662 43.8999 67.0263 43.1899 66.0363 42.4199C65.2262 41.4199 64.0963 40.7199 62.8963 40.1499C61.9763 39.1399 60.7163 38.4999 59.3363 38.1799C59.1763 38.0999 59.0262 38.0299 58.8662 37.9499C58.7062 37.8799 58.5462 37.7999 58.3862 37.7199C58.0662 37.5699 57.7563 37.4099 57.4263 37.2699C57.0962 37.1299 56.7762 36.9799 56.4263 36.8699L56.1862 36.7899C56.1862 36.7899 56.1262 36.7799 56.0962 36.7699C56.0362 36.7699 55.9762 36.7299 55.9562 36.8199L55.9062 36.8799L55.8763 36.9099V36.9299L55.8162 36.9799C55.6963 37.1299 55.5562 37.2699 55.4162 37.3999C55.2762 37.5399 55.1462 37.6799 55.0062 37.8199C54.8662 37.9599 54.7163 38.0899 54.5763 38.2199C54.4263 38.3499 54.2863 38.4899 54.1362 38.6099C53.9862 38.7299 53.8263 38.8599 53.6763 38.9799C53.3662 39.2299 53.0363 39.4399 52.7062 39.6699C51.5262 40.7699 50.0163 41.5299 48.3963 41.9199C48.0363 42.1299 47.6463 42.2799 47.2463 42.4299C47.0462 42.5099 46.8463 42.5599 46.6463 42.6199C46.4463 42.6799 46.2363 42.7299 46.0363 42.7799C45.2062 42.9399 44.3563 43.0299 43.4963 43.0399C43.2863 43.0399 43.0662 43.0499 42.8563 43.0599C42.6463 43.0599 42.4263 43.0599 42.2163 43.0799C41.7863 43.1099 41.3562 43.1099 40.9162 43.1299C40.6962 43.1399 40.4863 43.1299 40.2663 43.1299C40.0462 43.1199 39.8263 43.1099 39.6063 43.0899C39.3862 43.0599 39.1763 43.0299 38.9562 42.9899C38.8462 42.9699 38.7362 42.9499 38.6362 42.9299C38.5262 42.8999 38.4263 42.8699 38.3162 42.8399C38.0962 42.7999 37.8862 42.7599 37.6662 42.7099C37.4462 42.6599 37.2363 42.6099 37.0163 42.5599C36.5863 42.4699 36.1562 42.3299 35.7262 42.2099C34.8762 41.9299 34.0363 41.6199 33.2363 41.1899C32.4463 40.7499 31.6963 40.2399 30.9463 39.7199C30.7663 39.5899 30.5763 39.4499 30.3862 39.3299C30.1962 39.1999 30.0163 39.0599 29.8363 38.9299C29.4563 38.6699 29.0962 38.3899 28.7062 38.1299C28.5362 37.9799 28.3663 37.8199 28.1863 37.6699L27.9263 37.4399L27.6963 37.2099C27.6963 37.2099 27.6462 37.1699 27.6262 37.1699L27.5963 37.1899H27.5863V37.1999L27.5562 37.2199C27.1462 37.3799 26.7463 37.5499 26.3363 37.7099C25.9263 37.8699 25.5163 38.0399 25.1063 38.1899C23.6163 39.1799 22.0163 39.9399 20.4463 40.8299C18.9863 41.8699 17.4362 42.8599 16.2062 44.2399C14.8462 45.4699 13.7563 46.9699 12.5763 48.3899C11.4262 49.8399 10.4063 51.4099 9.75625 53.1299C9.60625 53.5599 9.43625 53.9899 9.25625 54.3999C9.09625 54.8199 8.90625 55.2399 8.73625 55.6599C8.57625 56.0799 8.39625 56.4999 8.25625 56.9299C8.11625 57.3599 7.97625 57.7899 7.87625 58.2299C7.70625 58.6499 7.55625 59.0799 7.45625 59.5199C7.35625 59.9599 7.26625 60.3999 7.20625 60.8399C7.14625 61.2799 7.08625 61.7299 7.03625 62.1699C6.99625 62.6099 6.93625 63.0499 6.85625 63.4899C6.81625 63.9299 6.77625 64.3699 6.71625 64.8099C6.67625 65.2499 6.64625 65.6899 6.60625 66.1299C6.58625 66.3499 6.58625 66.5699 6.57625 66.7899V66.9099V66.9799C6.57625 66.9999 6.57625 67.0299 6.57625 67.0499V67.0599H6.59625H6.63625C6.68625 67.0599 6.73625 67.0399 6.77625 67.0199C7.19625 67.0199 7.61625 66.9999 8.03625 66.9899C8.47625 66.9899 8.91625 66.9699 9.35625 66.9699C10.2362 66.9699 11.1063 66.9699 11.9663 67.0299C13.6963 66.6499 15.4062 67.1299 17.0963 67.0499C18.7863 67.2099 20.4462 67.0299 22.0863 67.0699C23.7262 66.9999 25.3463 67.2399 26.9263 67.0899C28.5163 67.1199 30.0763 66.9699 31.6163 67.1099C33.1463 66.9199 34.6562 67.2699 36.1362 67.1399C37.6162 67.1399 39.0563 67.1299 40.4762 67.1699C41.8862 67.4699 43.2763 67.2199 44.6263 67.1999C45.9762 67.2299 47.2963 67.0299 48.5763 67.2299C49.8663 67.2499 51.1163 67.3799 52.3263 67.2599C53.5363 67.2199 54.7163 67.6899 55.8563 67.2999C56.9963 67.2299 58.0962 67.5999 59.1662 67.3399C60.2262 67.0999 61.2563 67.3699 62.2363 67.3799C63.2163 67.3999 64.1562 67.4099 65.0562 67.4199C69.1062 67.4799 72.2863 67.5499 74.4563 67.6299C76.6263 67.6999 77.7863 67.7799 77.7863 67.8599C77.7863 67.9499 76.3562 68.0299 73.6962 68.1099C71.0362 68.1899 67.1463 68.2599 62.2363 68.3299C61.2563 68.3399 60.2262 68.5499 59.1662 68.3699C58.1062 68.3699 57.0063 68.5299 55.8563 68.4099C54.7163 68.6799 53.5363 68.4599 52.3263 68.4499C51.1163 68.4599 49.8663 68.3799 48.5763 68.4799C47.2863 68.6399 45.9762 68.3999 44.6263 68.5099C43.2763 68.3399 41.8862 68.3899 40.4762 68.5399C39.0563 68.3799 37.6162 68.5799 36.1362 68.5699C34.6562 68.3199 33.1562 68.4899 31.6163 68.5999C30.0763 68.6899 28.5163 68.5599 26.9263 68.6199C25.3363 68.5699 23.7162 68.6899 22.0763 68.6399C20.4362 68.7599 18.7663 68.7999 17.0863 68.6599C15.3962 68.7399 13.6863 68.6799 11.9563 68.6799C11.0863 68.7299 10.2163 68.7299 9.34625 68.7199C8.90625 68.7199 8.46625 68.7099 8.02625 68.6999C7.80625 68.6999 7.58625 68.6999 7.36625 68.6999C7.11625 68.6999 6.87625 68.6999 6.62625 68.6999C6.21625 68.6999 5.79625 68.6999 5.38625 68.6999H5.07625H4.92625C4.92625 68.6999 4.91625 68.6999 4.90625 68.6999V68.6399V68.5599L4.92625 67.9299C4.94625 67.5399 4.96625 67.1399 4.97625 66.7499C4.99625 66.5199 5.00625 66.2899 5.02625 66.0699C5.07625 65.6199 5.10625 65.1599 5.12625 64.6999C5.15625 64.2399 5.16625 63.7799 5.14625 63.3099C5.31625 61.4599 5.74625 59.6299 6.19625 57.7899C6.73625 55.9699 7.41625 54.1899 8.17625 52.4099C9.25625 50.7899 10.0862 49.0499 11.1462 47.3899C12.2362 45.7599 13.5562 44.2999 14.9862 42.9999C16.3663 41.6499 17.8762 40.4599 19.4562 39.4199C19.6462 39.2799 19.8363 39.1399 20.0363 39.0099C20.2363 38.8799 20.4362 38.7599 20.6362 38.6299C21.0362 38.3899 21.4563 38.1699 21.8663 37.9399C22.2863 37.7299 22.6963 37.5099 23.1163 37.2999C23.5363 37.0999 23.9463 36.8699 24.3563 36.6599C24.7663 36.4399 25.1763 36.2299 25.6063 36.0699C26.0363 35.8899 26.4562 35.7299 26.8962 35.5899C27.2762 35.4499 27.6563 35.3199 28.0363 35.1799H28.0763C28.0763 35.1799 28.0863 35.1599 28.0963 35.1599H28.1063L28.1562 35.2299L28.2563 35.3399L28.4662 35.5699L28.8762 36.0199L29.1063 36.2699L29.3363 36.4899C29.4963 36.6299 29.6462 36.7799 29.8162 36.9099C31.1362 37.9799 32.5163 38.8899 33.9463 39.7399C34.6863 40.1099 35.4263 40.4699 36.1963 40.7599C36.5863 40.8899 36.9762 41.0399 37.3763 41.1199C37.5763 41.1599 37.7762 41.2099 37.9762 41.2299C38.1763 41.2499 38.3862 41.2699 38.5863 41.2799C38.6862 41.2999 38.7863 41.3099 38.8862 41.3199L39.1862 41.3399L39.7863 41.3799C39.9863 41.3799 40.1862 41.3799 40.3862 41.3799C40.5863 41.3799 40.7863 41.3899 40.9762 41.3799C41.3763 41.3799 41.7663 41.3799 42.1562 41.3899C42.3563 41.3899 42.5462 41.4099 42.7463 41.4299C42.9463 41.4399 43.1362 41.4599 43.3363 41.4899C44.1162 41.3799 44.8862 41.2899 45.6562 41.1799C45.8462 41.1399 46.0363 41.0999 46.2262 41.0599C46.4162 41.0199 46.6063 40.9799 46.7863 40.9199C47.1562 40.7999 47.5163 40.6899 47.8563 40.5099C48.0462 40.4799 48.2362 40.4399 48.4162 40.3899C48.5962 40.3299 48.7762 40.2699 48.9562 40.1999C49.3162 40.0699 49.6462 39.8899 49.9762 39.7099C50.1462 39.6199 50.2962 39.5199 50.4562 39.4199C50.6162 39.3199 50.7762 39.2199 50.9263 39.1199C51.2262 38.8999 51.5362 38.6999 51.8462 38.4899C52.1462 38.2799 52.4662 38.0999 52.7562 37.8699C52.9062 37.7599 53.0462 37.6499 53.1963 37.5399C53.3463 37.4299 53.4762 37.3099 53.6162 37.1899C53.7562 37.0699 53.8962 36.9599 54.0262 36.8299C54.1562 36.6999 54.2863 36.5799 54.4062 36.4499C54.5363 36.3199 54.6562 36.1899 54.7663 36.0499C54.9562 35.8199 55.1562 35.5899 55.3462 35.3599C55.5162 34.9499 55.8662 35.2399 56.1662 35.3099C56.4162 35.3999 56.6562 35.4899 56.9062 35.5799C57.2562 35.7099 57.5962 35.8699 57.9263 36.0199C58.2663 36.1699 58.5862 36.3399 58.9162 36.4999C59.2463 36.6599 59.5763 36.8099 59.8963 36.9699C60.5863 37.2099 61.1863 37.5999 61.7863 37.9799C62.0763 38.1799 62.3662 38.3799 62.6662 38.5599C62.9562 38.7499 63.2563 38.9299 63.5763 39.0699C64.7063 39.8499 65.8362 40.5999 66.8062 41.4799C67.1162 41.6199 67.3963 41.7999 67.6563 41.9999C67.9163 42.1999 68.1362 42.4399 68.3563 42.6699C68.4663 42.7899 68.5662 42.9099 68.6763 43.0299C68.7762 43.1599 68.8763 43.2799 68.9763 43.3999C69.1663 43.6499 69.3763 43.8799 69.5762 44.1199C69.7762 44.3599 69.9863 44.5799 70.2063 44.7899C70.4263 45.0099 70.6362 45.2299 70.8362 45.4399C70.9362 45.5499 71.0462 45.6599 71.1362 45.7699C71.2362 45.8799 71.3262 45.9999 71.4062 46.1199C71.5762 46.3599 71.7362 46.6099 71.8562 46.8899C72.3062 47.2799 72.6663 47.7299 72.9362 48.2299C73.0762 48.4799 73.2062 48.7199 73.3262 48.9699C73.4463 49.2199 73.5563 49.4699 73.6763 49.7099C73.7363 49.8299 73.7963 49.9499 73.8663 50.0699C73.9263 50.1899 73.9962 50.3099 74.0562 50.4199C74.1862 50.6499 74.3263 50.8799 74.4563 51.0999C74.7063 51.5499 74.9462 52.0099 75.0862 52.4999C75.3762 52.9199 75.5562 53.3699 75.6962 53.8299C75.7662 54.0599 75.8263 54.2899 75.8963 54.5099C75.9663 54.7299 76.0462 54.9499 76.1362 55.1599C76.2162 55.6099 76.3763 56.0299 76.5063 56.4399C76.6363 56.8499 76.7863 57.2499 76.8763 57.6499C76.9963 58.0399 77.1062 58.4299 77.1962 58.8099C77.2762 59.1899 77.3263 59.5599 77.3663 59.9299C77.4363 60.2899 77.4863 60.6399 77.5363 60.9799C77.5863 61.3199 77.6462 61.6399 77.6662 61.9599C77.8962 63.8499 77.9062 65.3199 77.9062 66.3099C77.8763 67.2999 77.8262 67.8199 77.7762 67.8199L77.8062 67.7999Z" fill="#0061EF"/>
<path d="M59.265 17.4601C59.265 17.4601 59.335 17.5801 59.365 17.8101V17.9001H59.265C59.015 17.8801 58.635 17.8401 58.135 17.7701C57.635 17.7001 57.015 17.6001 56.285 17.5001C55.925 17.4501 55.545 17.3901 55.135 17.3401C54.725 17.2901 54.285 17.2601 53.825 17.1701C53.385 16.9701 52.845 17.2701 52.365 17.0001C51.865 16.8701 51.325 16.8601 50.755 16.8401C50.195 16.8201 49.625 16.6301 49.005 16.7001C48.375 16.9001 47.795 16.3001 47.125 16.5901C46.795 16.6001 46.465 16.5901 46.135 16.5701C45.805 16.5601 45.465 16.5301 45.115 16.5101C44.775 16.3901 44.425 16.3801 44.065 16.3901C43.705 16.4101 43.345 16.4701 42.975 16.4801C42.615 16.3501 42.235 16.3101 41.865 16.3201C41.485 16.3401 41.105 16.4201 40.725 16.5101C40.335 16.3501 39.945 16.2701 39.545 16.3001C39.145 16.3301 38.755 16.4401 38.355 16.6101C37.545 16.6401 36.715 16.5801 35.885 16.7901C35.465 16.8301 35.045 16.8901 34.615 16.9401C34.185 16.9901 33.755 17.0401 33.325 17.0501C32.905 17.2101 32.475 17.3301 32.035 17.3801C31.595 17.4401 31.145 17.4301 30.685 17.4101C29.825 17.7901 28.905 17.8201 27.965 17.8701C27.535 17.8801 27.115 18.0001 26.695 18.1201C26.165 18.2701 25.555 18.4501 24.995 18.5101L24.965 18.4801C24.965 18.4801 24.925 18.4801 24.895 18.4901H24.855L24.835 18.5001V18.4701V18.4501C24.835 18.4501 24.835 18.4501 24.835 18.4601V18.5401L24.805 18.6001V18.6401L24.755 18.8001C24.695 19.0201 24.625 19.2301 24.565 19.4501C24.235 20.3401 23.965 21.3101 24.115 22.3001C24.095 23.2801 24.175 24.2501 24.135 25.2501C24.485 26.2201 24.525 27.2001 24.645 28.2201C24.935 29.1801 25.115 30.2201 25.675 31.1001C26.065 32.0601 26.715 32.8801 27.215 33.8101C27.745 34.7201 28.355 35.5801 29.195 36.2101C29.615 36.5101 29.975 36.8801 30.345 37.2301C30.525 37.4101 30.715 37.5801 30.905 37.7501C31.005 37.8301 31.095 37.9201 31.195 37.9901C31.295 38.0601 31.405 38.1301 31.515 38.2001C31.685 38.4001 31.875 38.5701 32.095 38.7101C32.305 38.8501 32.525 38.9801 32.755 39.0901C32.985 39.2001 33.215 39.3001 33.435 39.4101C33.665 39.5101 33.885 39.6201 34.095 39.7501C34.995 40.1601 35.875 40.6601 36.845 40.8101C37.315 40.9301 37.795 41.0101 38.265 41.1101C38.505 41.1501 38.735 41.1901 38.975 41.2501C39.205 41.3001 39.445 41.3401 39.675 41.4001C39.795 41.3701 39.925 41.3501 40.035 41.3401C40.155 41.3301 40.275 41.3201 40.395 41.3301C40.625 41.3301 40.855 41.3901 41.095 41.4201C41.325 41.4601 41.565 41.5001 41.795 41.5401C42.025 41.5601 42.265 41.5701 42.495 41.5401C42.725 41.5801 42.965 41.5701 43.195 41.5601C43.425 41.5501 43.655 41.5301 43.885 41.4801C44.115 41.4401 44.335 41.4001 44.565 41.3601C44.785 41.3101 45.005 41.2701 45.235 41.2401C45.455 41.1901 45.675 41.1301 45.895 41.0901C46.115 41.0501 46.335 41.0201 46.555 40.9701C46.775 40.9201 46.995 40.8801 47.205 40.8101C47.415 40.7401 47.615 40.6501 47.815 40.5501C48.655 40.2801 49.375 39.8001 50.185 39.5301C50.355 39.4001 50.525 39.2701 50.705 39.1701C50.885 39.0701 51.085 38.9901 51.265 38.8901C51.455 38.8001 51.635 38.7101 51.815 38.6001C51.985 38.4901 52.155 38.3701 52.305 38.2201C52.965 37.7401 53.575 37.2201 54.165 36.7001C54.555 36.5401 54.835 36.2601 55.085 35.9601C55.205 35.8101 55.315 35.6501 55.425 35.4901C55.535 35.3301 55.645 35.1801 55.755 35.0301C55.995 34.7401 56.195 34.4301 56.385 34.1201C56.485 33.9601 56.585 33.8201 56.695 33.6701C56.805 33.5201 56.915 33.3901 57.055 33.2601C57.155 33.1101 57.255 32.9701 57.355 32.8201C57.455 32.6701 57.555 32.5301 57.655 32.3801C57.835 32.0801 57.995 31.7701 58.085 31.4401C58.145 31.2801 58.235 31.1401 58.335 31.0001C58.435 30.8601 58.545 30.7301 58.625 30.5801C58.805 30.3001 58.955 30.0001 58.865 29.6301C58.935 29.3201 59.105 29.0501 59.235 28.7601C59.305 28.6201 59.365 28.4801 59.405 28.3301C59.445 28.1801 59.445 28.0301 59.415 27.8701C59.385 27.7101 59.395 27.5601 59.415 27.4201C59.435 27.2801 59.465 27.1401 59.515 27.0001C59.605 26.7301 59.725 26.4601 59.765 26.1901C59.855 25.6501 59.905 25.1201 59.955 24.6201C60.045 23.4901 60.015 22.4601 59.955 21.5801C59.885 20.7001 59.775 19.9401 59.655 19.3401C59.425 18.1301 59.245 17.4801 59.325 17.4501C59.395 17.4201 59.795 18.1601 60.225 19.6501C60.425 20.4001 60.625 21.3401 60.745 22.4601C60.855 23.5801 60.875 24.8801 60.725 26.3201C60.705 26.6101 60.695 26.9101 60.675 27.2101C60.665 27.3601 60.645 27.5201 60.605 27.6701C60.565 27.8201 60.505 27.9701 60.435 28.1101C60.395 28.2601 60.375 28.4201 60.345 28.5801C60.315 28.7401 60.285 28.9001 60.255 29.0601C60.195 29.3801 60.095 29.7001 59.935 30.0001C59.975 30.7301 59.495 31.3101 59.175 31.9501C59.025 32.2801 58.835 32.5901 58.665 32.9201C58.575 33.0801 58.475 33.2401 58.385 33.4101C58.295 33.5801 58.215 33.7501 58.135 33.9201C58.065 34.1001 57.975 34.2701 57.875 34.4401C57.775 34.6001 57.645 34.7501 57.525 34.9101C57.285 35.2201 57.005 35.5101 56.805 35.8601C56.165 36.3801 55.655 37.0101 55.145 37.7001C54.785 37.9401 54.475 38.2201 54.165 38.5201C54.015 38.6701 53.845 38.8201 53.685 38.9601C53.525 39.1101 53.355 39.2501 53.175 39.3801C52.955 39.4601 52.755 39.5501 52.565 39.6701C52.375 39.7801 52.185 39.9001 52.005 40.0301C51.825 40.1601 51.645 40.3001 51.465 40.4301C51.275 40.5601 51.105 40.7101 50.905 40.8401C50.135 41.3601 49.215 41.6101 48.355 41.9901C47.445 42.2701 46.535 42.6201 45.565 42.7801C44.625 43.0901 43.615 43.2401 42.595 43.1401C41.585 43.2701 40.555 43.1401 39.515 43.0301C39.255 43.0201 38.995 43.0101 38.735 42.9601C38.475 42.9201 38.215 42.8701 37.955 42.8201C37.445 42.6901 36.935 42.5601 36.415 42.4101C36.285 42.3801 36.155 42.3501 36.025 42.3001C35.895 42.2501 35.775 42.2001 35.655 42.1501C35.405 42.0501 35.155 41.9401 34.915 41.8201C34.675 41.7001 34.425 41.6001 34.175 41.5001C33.925 41.4001 33.665 41.3201 33.385 41.2701C32.385 40.8201 31.475 40.1901 30.545 39.5901C29.665 38.9101 28.835 38.1601 27.985 37.4201C27.385 36.4301 26.555 35.6801 25.805 34.7901C25.085 33.8901 24.555 32.8601 24.125 31.8201C23.625 30.8001 23.265 29.7301 23.005 28.6501C22.645 27.5901 22.665 26.4701 22.465 25.4001C22.415 25.1301 22.375 24.8601 22.375 24.5901C22.375 24.3201 22.375 24.0501 22.395 23.7801C22.415 23.5101 22.435 23.2401 22.445 22.9701C22.465 22.7001 22.475 22.4401 22.465 22.1701C22.465 21.1001 22.605 20.0401 22.985 19.0601C23.035 18.8201 23.125 18.5801 23.205 18.3501L23.375 17.8901C23.445 17.7001 23.525 17.5101 23.595 17.3201C23.785 17.3201 23.965 17.3201 24.145 17.3201H24.215C24.215 17.3201 24.275 17.3201 24.245 17.3201H24.175L24.035 17.3601H24.015L24.075 17.3101L24.205 17.2301C24.285 17.1801 24.375 17.1201 24.455 17.0601L24.585 16.9701H24.605C24.605 16.9701 24.615 16.9701 24.625 16.9701L24.655 16.9901L24.715 17.0301C24.795 17.0901 24.885 17.1401 24.975 17.2101L25.315 17.4801C25.495 17.3101 25.675 17.1301 25.855 16.9401C25.945 16.8401 26.025 16.7401 26.115 16.6401L26.245 16.4901L26.315 16.4201L26.345 16.3801H26.385C26.815 16.2701 27.255 16.2201 27.715 16.3101C28.635 16.0301 29.605 16.1901 30.495 15.8801C30.965 15.9401 31.425 15.9001 31.865 15.8101C32.315 15.7201 32.745 15.6001 33.195 15.5601C33.645 15.5401 34.085 15.5401 34.515 15.5101C34.955 15.4801 35.375 15.4301 35.805 15.3501C36.655 15.1601 37.505 15.3001 38.325 15.2301C38.735 15.1301 39.145 15.1701 39.545 15.2001C39.945 15.2401 40.345 15.2801 40.735 15.1901C41.125 15.2001 41.515 15.1901 41.895 15.1901C42.275 15.1901 42.655 15.1901 43.025 15.2301C43.405 15.0501 43.775 15.0501 44.135 15.1101C44.495 15.1801 44.845 15.3001 45.205 15.3301C45.555 15.3701 45.905 15.3301 46.245 15.3001C46.585 15.2901 46.925 15.3001 47.245 15.4801C47.925 15.2401 48.545 15.5301 49.145 15.6701C49.745 15.8201 50.355 15.6701 50.905 15.8901C51.495 15.7601 51.995 16.1401 52.525 16.1401C53.025 16.3301 53.525 16.3001 53.985 16.4001C54.455 16.4301 54.895 16.5001 55.295 16.6601C55.705 16.7501 56.085 16.8401 56.435 16.9201C57.165 17.0801 57.775 17.2501 58.255 17.3801C58.745 17.5201 59.105 17.6301 59.345 17.7101C59.295 17.7501 59.255 17.7801 59.205 17.8201C59.235 17.5901 59.265 17.4701 59.305 17.4701L59.265 17.4601Z" fill="#0061EF"/>
<path d="M24.2788 3.09C24.3888 3.09 24.4888 4.2 24.5788 6.22C24.5888 6.56 24.6087 6.92 24.6287 7.31C24.6587 7.7 24.6888 8.11 24.6688 8.55C24.5288 8.99 24.9287 9.45 24.7087 9.93C24.6487 10.41 24.7088 10.92 24.7488 11.45C24.7988 11.98 24.6588 12.53 24.7888 13.1C25.0588 13.67 24.4888 14.26 24.8288 14.87C24.8688 15.18 24.8787 15.49 24.8787 15.8C24.8787 15.96 24.8787 16.12 24.8787 16.28C24.8787 16.36 24.8787 16.44 24.8787 16.52V16.57V16.6V16.65C24.7687 16.81 24.7687 17.03 24.7987 17.15V17.17L24.8388 17.15L24.9088 17.12L25.0388 17.06C25.1188 17.02 25.1888 16.98 25.2588 16.96C25.2888 16.99 25.3288 17 25.3688 17.02C25.4388 17.02 25.5387 17.02 25.6287 17.01C25.8087 16.99 25.9788 16.96 26.1488 16.91C26.4888 16.82 26.8388 16.68 27.1788 16.53C27.5688 16.63 27.9488 16.63 28.3088 16.55C28.6788 16.47 29.0287 16.33 29.3888 16.1C29.7688 16.03 30.1588 16 30.5388 15.95C30.9288 15.91 31.3187 15.86 31.7087 15.73C32.1087 15.67 32.5088 15.59 32.9088 15.54C33.3188 15.49 33.7288 15.45 34.1388 15.44C34.3387 15.36 34.5488 15.3 34.7488 15.25C34.9588 15.2 35.1688 15.18 35.3788 15.16C35.7988 15.13 36.2287 15.16 36.6687 15.22C37.0887 15.06 37.5288 15.02 37.9688 15.01C38.4088 15.01 38.8488 15.04 39.2987 15.09C39.7488 15.15 40.1887 15.09 40.6388 15.05C41.0888 15 41.5487 14.96 41.9988 15.07C42.4587 15.09 42.9188 15.08 43.3788 15.08C43.8388 15.08 44.3088 15.1 44.7787 15.14C45.7188 15.28 46.6488 15.46 47.6288 15.31C48.1088 15.31 48.5988 15.33 49.0788 15.36C49.5588 15.4 50.0487 15.45 50.5287 15.58C51.5287 15.44 52.5088 15.67 53.4788 15.96C53.9788 16.01 54.4688 16.12 54.9587 16.22C55.4487 16.33 55.9487 16.42 56.4587 16.44C56.7087 16.49 56.9587 16.53 57.2087 16.57C57.4587 16.61 57.7088 16.65 57.9688 16.69C58.3187 16.75 58.2287 16.72 58.2787 16.73C58.2887 16.73 58.3088 16.74 58.3288 16.75L58.3587 16.77C58.3587 16.77 58.3887 16.79 58.3887 16.78C58.4087 16.77 58.4288 16.73 58.4488 16.69V16.65L58.4587 16.63V16.61V16.59L58.4688 16.21C58.4688 15.7 58.4588 15.2 58.3788 14.69C58.2088 13.68 58.4488 12.68 58.3788 11.69C58.6288 10.7 58.2988 9.71 58.3788 8.74C58.3588 7.77 58.5187 6.8 58.3887 5.85C58.3687 5.37 58.3388 4.9 58.3388 4.43V3.9V3.86V3.84C58.3388 3.82 58.3488 3.81 58.3587 3.79L58.3788 3.75C58.3788 3.75 58.3888 3.72 58.3788 3.72C58.2488 3.78 58.2287 3.82 58.2188 3.83C57.9987 3.78 57.7787 3.7 57.5687 3.62C57.3587 3.53 57.1488 3.44 56.9388 3.35C56.7288 3.27 56.5088 3.21 56.2887 3.18C55.8688 3 55.4388 2.91 54.9988 2.83C54.7788 2.79 54.5687 2.76 54.3487 2.73C54.1287 2.7 53.9187 2.66 53.7087 2.61C53.2787 2.56 52.8587 2.44 52.4387 2.33C52.0187 2.23 51.5988 2.14 51.1788 2.15C50.3488 1.97 49.5088 2.05 48.7188 1.8C48.5088 1.82 48.3088 1.8 48.1088 1.79C47.9088 1.77 47.7088 1.73 47.5188 1.69C47.1288 1.61 46.7288 1.52 46.3388 1.55C45.5588 1.49 44.7888 1.48 44.0388 1.39C43.2988 1.07 42.5488 1.31 41.8288 1.32C41.1088 1.3 40.4188 1.51 39.7288 1.32C39.0487 1.32 38.3788 1.23 37.7388 1.38C37.4188 1.41 37.0887 1.34 36.7787 1.3C36.4587 1.26 36.1487 1.27 35.8687 1.49C35.2687 1.6 34.6487 1.31 34.1187 1.64C33.5887 1.95 33.0088 1.74 32.4888 1.82C31.9688 1.89 31.4688 1.95 30.9888 2.01C28.8588 2.32 27.1788 2.63 26.0288 2.84C24.8888 3.06 24.2588 3.14 24.2388 3.07C24.2188 2.98 24.9388 2.71 26.3088 2.27C26.6488 2.17 27.0387 2.06 27.4688 1.95C27.8888 1.84 28.3588 1.7 28.8588 1.59C29.3588 1.48 29.9088 1.36 30.4888 1.23C31.0688 1.11 31.6888 1 32.3388 0.88C32.8588 0.78 33.3888 0.51 33.9788 0.62C34.5487 0.55 35.1288 0.31 35.7488 0.39C36.0388 0.23 36.3588 0.19 36.6788 0.18C36.9988 0.17 37.3288 0.2 37.6588 0.2C38.3188 0.15 38.9987 0.2 39.6887 0.07C40.3787 -0.1 41.0988 0.12 41.8288 0C42.5588 0.18 43.3088 0.14 44.0788 0.01C44.8388 0.22 45.6287 0.05 46.4387 0.11C46.8287 0.27 47.2288 0.32 47.6388 0.33C47.8487 0.33 48.0487 0.33 48.2587 0.33C48.4687 0.33 48.6788 0.33 48.8888 0.32C49.7288 0.33 50.5587 0.55 51.4187 0.63C51.8387 0.72 52.2787 0.77 52.7087 0.82C53.1488 0.88 53.5788 0.95 54.0188 1.05C54.2388 1.06 54.4688 1.08 54.6887 1.11C54.9087 1.13 55.1388 1.16 55.3588 1.21C55.7988 1.3 56.2387 1.43 56.6687 1.6C56.8987 1.63 57.1287 1.67 57.3487 1.72C57.5787 1.77 57.7988 1.83 58.0188 1.89C58.2388 1.95 58.4688 2.02 58.6888 2.08C59.0988 2.19 59.5088 2.3 59.9287 2.41L60.0088 2.43H60.0488C60.0488 2.43 60.0488 2.46 60.0588 2.47V2.63L60.0788 2.95C60.0788 3.16 60.0888 3.38 60.0888 3.6V4.07V4.42C60.0788 4.89 60.0588 5.36 60.0687 5.84C60.1187 6.79 59.7988 7.75 60.0788 8.73C60.1188 9.7 60.0387 10.68 60.0788 11.68C60.0387 12.67 60.0088 13.67 60.0788 14.68C59.9388 15.18 59.9188 15.69 59.9388 16.2C59.9888 17.04 60.0387 17.88 60.0788 18.72V18.81V18.86C60.0788 18.87 60.0487 18.86 60.0387 18.86L59.8688 18.83L59.5188 18.77C59.2788 18.73 59.0388 18.69 58.8088 18.65C58.3588 18.57 57.7387 18.45 57.5987 18.42C57.1087 18.31 56.6188 18.21 56.1288 18.1C55.6288 18.03 55.1388 17.95 54.6588 17.86C54.1688 17.78 53.6788 17.7 53.1988 17.62C52.2188 17.55 51.2787 17.25 50.2987 17.23C49.8188 17.23 49.3387 17.16 48.8687 17.08C48.3988 17 47.9288 16.92 47.4488 16.95C46.4988 16.96 45.5688 16.93 44.6588 16.76C44.1988 16.74 43.7488 16.65 43.2888 16.61C42.8388 16.57 42.3788 16.56 41.9288 16.66C41.4788 16.67 41.0387 16.77 40.5987 16.81C40.1587 16.85 39.7188 16.84 39.2787 16.65C38.8487 16.71 38.4088 16.68 37.9788 16.66C37.5487 16.64 37.1187 16.62 36.7087 16.73C36.2787 16.62 35.8588 16.64 35.4488 16.7C35.2388 16.73 35.0388 16.76 34.8388 16.8C34.6388 16.84 34.4288 16.87 34.2288 16.89C33.8188 16.9 33.4188 16.9 33.0188 16.93C32.6188 16.95 32.2288 17.02 31.8488 17.13C31.4688 17.25 31.0788 17.28 30.6988 17.3C30.3188 17.33 29.9388 17.35 29.5688 17.43C29.2088 17.57 28.8387 17.57 28.4587 17.59C28.0887 17.61 27.7188 17.63 27.3888 17.79C27.0287 17.84 26.6888 17.91 26.3388 17.99C26.1688 18.03 25.9988 18.07 25.8288 18.11L25.5688 18.16C25.4288 18.19 25.2888 18.21 25.1488 18.24C24.8688 18.4 24.5488 18.52 24.2388 18.61C24.0888 18.65 23.9388 18.69 23.7888 18.72L23.5788 18.76L23.4788 18.78H23.4688C23.4688 18.78 23.4688 18.78 23.4688 18.77V18.74V18.68C23.4987 18.35 23.5388 18.02 23.5688 17.72C23.5988 17.42 23.6288 17.14 23.6388 16.88C23.6388 16.81 23.6388 16.75 23.6388 16.68V16.51C23.6388 16.43 23.6388 16.35 23.6188 16.27C23.5988 16.11 23.5788 15.95 23.5588 15.79C23.5288 15.47 23.5188 15.16 23.6688 14.86C23.3788 14.25 23.6287 13.66 23.7087 13.09C23.7887 12.52 23.5888 11.97 23.7488 11.44C23.5488 10.91 23.8588 10.41 23.7888 9.92C23.9188 9.44 23.7888 8.98 23.8288 8.54C23.7888 8.1 23.7988 7.69 23.8688 7.3C23.8888 6.91 23.8988 6.55 23.9188 6.21C24.0088 4.19 24.1087 3.08 24.2188 3.08L24.2788 3.09Z" fill="#0061EF"/>
<path d="M41.7933 13.25C41.6833 13.25 41.5833 13.15 41.4933 12.96C41.4733 12.93 41.4633 12.9 41.4433 12.86C41.4133 12.82 41.3833 12.79 41.4033 12.75C41.5433 12.71 41.1433 12.67 41.3633 12.62C41.4233 12.57 41.3633 12.53 41.3233 12.48C41.2733 12.43 41.4133 12.38 41.2833 12.33C41.0133 12.28 41.5833 12.22 41.2433 12.17C41.1733 12.11 41.1933 12.06 41.2033 12C41.4133 11.94 41.2033 11.88 41.1633 11.81C41.4133 11.75 41.3033 11.68 41.1333 11.61C41.4733 11.54 41.4233 11.47 41.1033 11.4C41.0933 11.33 41.2233 11.26 41.0733 11.19C41.0533 11.12 40.9833 11.04 41.0433 10.97C40.8133 10.89 40.8233 10.82 41.0233 10.74C40.7733 10.66 40.8733 10.58 41.0033 10.5C41.1433 10.42 40.7933 10.34 40.9833 10.25C41.0033 10.17 40.9233 10.08 40.9633 10C41.0633 9.91002 41.1733 9.83002 40.9533 9.74002C40.8933 9.65002 40.8133 9.56002 40.9533 9.47002C40.6933 9.38002 40.8033 9.29002 40.9533 9.20002C40.9133 9.11002 41.0933 9.02002 40.9533 8.92002C40.9933 8.83002 40.8333 8.73002 40.9533 8.64002C41.0333 8.55002 41.1133 8.45002 40.9533 8.36002C40.7833 8.27002 41.0233 8.17002 40.9533 8.08002C41.2033 7.99002 40.8733 7.90002 40.9533 7.81002C40.9333 7.72002 41.0933 7.63002 40.9533 7.54002C40.9133 7.45002 40.8633 7.37002 40.9633 7.28002C40.5833 7.19002 41.0633 7.11002 40.9833 7.03002C41.1433 6.95002 40.9633 6.86002 41.0033 6.78002C40.9333 6.70002 41.1733 6.62002 41.0233 6.54002C41.0533 6.46002 40.9033 6.38002 41.0433 6.31002C40.8533 6.23002 41.2033 6.16002 41.0733 6.09002C41.0733 6.02002 41.0633 5.94002 41.1033 5.88002C41.3933 5.81002 41.1533 5.74002 41.1333 5.67002C41.1633 5.60002 40.9633 5.54002 41.1633 5.47002C41.1833 5.41002 41.3133 5.34002 41.2033 5.28002C41.1633 5.22002 41.6333 5.16002 41.2433 5.10002C41.1733 5.04002 41.5433 4.99002 41.2833 4.94002C41.0433 4.89002 41.3133 4.84002 41.3233 4.79002C41.3333 4.74002 41.3533 4.70002 41.3633 4.65002C41.4933 4.25002 41.6433 4.02002 41.7933 4.02002C41.9733 4.02002 42.1333 4.30002 42.2733 4.79002C42.2833 4.84002 42.4933 4.89002 42.3133 4.94002C42.3133 4.99002 42.4733 5.05002 42.3533 5.10002C42.6233 5.16002 42.4033 5.21002 42.3933 5.28002C42.4033 5.34002 42.3233 5.40002 42.4333 5.47002C42.5933 5.53002 42.3533 5.60002 42.4633 5.67002C42.2933 5.74002 42.3433 5.81002 42.4933 5.88002C42.3333 5.95002 42.5333 6.02002 42.5233 6.09002C42.2733 6.16002 42.4433 6.24002 42.5533 6.31002C42.6433 6.39002 42.5133 6.46002 42.5733 6.54002C42.5233 6.62002 42.6333 6.70002 42.5933 6.78002C42.7133 6.86002 42.7533 6.94002 42.6133 7.03002C42.6933 7.11002 42.6333 7.20002 42.6333 7.28002C42.7333 7.37002 42.6233 7.45002 42.6433 7.54002C42.6933 7.63002 42.3733 7.72002 42.6533 7.81002C42.6933 7.90002 42.6133 7.99002 42.6533 8.08002C42.6133 8.17002 42.5833 8.26002 42.6533 8.36002C42.3733 8.45002 42.5433 8.55002 42.6533 8.64002C42.7333 8.73002 42.6933 8.83002 42.6533 8.92002C42.6833 9.01002 42.6633 9.11002 42.6533 9.20002C42.7333 9.29002 42.5333 9.38002 42.6533 9.47002C42.7733 9.56002 42.5333 9.65002 42.6433 9.74002C42.7233 9.83002 42.7633 9.92002 42.6333 10C42.6333 10.09 42.3833 10.17 42.6133 10.25C42.6633 10.33 42.9833 10.42 42.5933 10.5C42.6933 10.58 42.4133 10.66 42.5733 10.74C42.2933 10.82 42.5633 10.9 42.5533 10.97C42.5033 11.05 42.4033 11.12 42.5233 11.19C42.6533 11.26 42.4533 11.33 42.4933 11.4C42.6533 11.47 42.2833 11.54 42.4633 11.61C42.4233 11.68 42.4933 11.74 42.4333 11.81C42.8133 11.87 42.4333 11.94 42.3933 12C42.3433 12.06 42.6433 12.12 42.3533 12.17C42.6433 12.23 42.3933 12.28 42.3133 12.33C42.2333 12.38 42.4333 12.43 42.2733 12.48C42.4733 12.53 42.1633 12.57 42.2333 12.62C42.1033 12.66 42.2333 12.71 42.1933 12.75C42.2333 12.79 42.2233 12.83 42.1533 12.86C42.1333 12.9 42.1233 12.93 42.1033 12.96C42.0133 13.15 41.9033 13.25 41.8033 13.25H41.7933Z" fill="#0061EF"/>
<path d="M37.1719 8.64021C37.1719 8.53021 37.2719 8.43021 37.4619 8.34021C37.4919 8.32021 37.5219 8.31021 37.5619 8.29021C37.6019 8.26021 37.6319 8.23021 37.6719 8.24021C37.7119 8.38021 37.7519 7.98021 37.8019 8.20021C37.8419 8.26021 37.8919 8.20021 37.9419 8.16021C37.9919 8.11021 38.0419 8.25021 38.0919 8.12021C38.1419 7.85021 38.2019 8.42021 38.2519 8.08021C38.3119 8.01021 38.3719 8.03021 38.4319 8.04021C38.4919 8.25021 38.5519 8.04021 38.6119 8.01021C38.6719 8.26021 38.7419 8.15021 38.8119 7.98021C38.8819 8.32021 38.9419 8.27021 39.0219 7.95021C39.0919 7.94021 39.1619 8.07021 39.2319 7.92021C39.3019 7.90021 39.3819 7.83021 39.4519 7.89021C39.5319 7.66021 39.6019 7.67021 39.6819 7.87021C39.7619 7.62021 39.8419 7.72021 39.9219 7.85021C40.0019 7.99021 40.0819 7.63021 40.1719 7.83021C40.2519 7.84021 40.3419 7.77021 40.4219 7.81021C40.5119 7.91021 40.5919 8.02021 40.6819 7.80021C40.7719 7.74021 40.8619 7.66021 40.9519 7.79021C41.0419 7.53021 41.1319 7.64021 41.2219 7.79021C41.3119 7.75021 41.4019 7.93021 41.5019 7.79021C41.5919 7.83021 41.6919 7.67021 41.7819 7.79021C41.8719 7.87021 41.9719 7.94021 42.0619 7.79021C42.1519 7.62021 42.2519 7.86021 42.3419 7.79021C42.4319 8.03021 42.5219 7.71021 42.6119 7.79021C42.7019 7.77021 42.7919 7.93021 42.8819 7.80021C42.9719 7.76021 43.0519 7.71021 43.1419 7.81021C43.2219 7.43021 43.3119 7.91021 43.3919 7.83021C43.4719 7.99021 43.5619 7.81021 43.6419 7.85021C43.7219 7.78021 43.8019 8.02021 43.8819 7.87021C43.9619 7.90021 44.0419 7.75021 44.1119 7.89021C44.1919 7.70021 44.2619 8.05021 44.3319 7.92021C44.4019 7.92021 44.4719 7.91021 44.5419 7.95021C44.6119 8.25021 44.6819 8.00021 44.7519 7.98021C44.8219 8.01021 44.8819 7.81021 44.9519 8.01021C45.0119 8.03021 45.0819 8.16021 45.1319 8.04021C45.1919 8.00021 45.2519 8.47021 45.3119 8.08021C45.3719 8.01021 45.4219 8.38021 45.4719 8.12021C45.5219 7.88021 45.5719 8.15021 45.6219 8.16021C45.6719 8.17021 45.7119 8.19021 45.7619 8.20021C46.1619 8.33021 46.3919 8.48021 46.3919 8.63021C46.3919 8.81021 46.1119 8.97021 45.6219 9.11021C45.5719 9.12021 45.5219 9.33021 45.4719 9.15021C45.4219 9.15021 45.3619 9.31021 45.3119 9.19021C45.2519 9.46021 45.2019 9.24021 45.1319 9.23021C45.0719 9.24021 45.0119 9.16021 44.9519 9.27021C44.8919 9.43021 44.8219 9.19021 44.7519 9.30021C44.6819 9.13021 44.6119 9.18021 44.5419 9.33021C44.4719 9.16021 44.4019 9.36021 44.3319 9.36021C44.2619 9.11021 44.1819 9.29021 44.1119 9.39021C44.0319 9.48021 43.9619 9.35021 43.8819 9.41021C43.8019 9.36021 43.7219 9.47021 43.6419 9.43021C43.5619 9.55021 43.4819 9.59021 43.3919 9.45021C43.3119 9.53021 43.2219 9.47021 43.1419 9.47021C43.0519 9.57021 42.9719 9.46021 42.8819 9.48021C42.7919 9.53021 42.7019 9.21021 42.6119 9.49021C42.5219 9.53021 42.4319 9.45021 42.3419 9.49021C42.2519 9.45021 42.1619 9.42021 42.0619 9.49021C41.9719 9.21021 41.8719 9.38021 41.7819 9.49021C41.6919 9.57021 41.5919 9.53021 41.5019 9.49021C41.4119 9.52021 41.3119 9.50021 41.2219 9.49021C41.1319 9.57021 41.0419 9.37021 40.9519 9.49021C40.8619 9.61021 40.7719 9.36021 40.6819 9.48021C40.5919 9.56021 40.5119 9.60021 40.4219 9.47021C40.3319 9.47021 40.2519 9.22021 40.1719 9.45021C40.0919 9.50021 40.0119 9.82021 39.9219 9.43021C39.8419 9.52021 39.7619 9.24021 39.6819 9.41021C39.6019 9.13021 39.5219 9.40021 39.4519 9.39021C39.3719 9.34021 39.3019 9.24021 39.2319 9.36021C39.1619 9.49021 39.0919 9.29021 39.0219 9.33021C38.9519 9.49021 38.8819 9.12021 38.8119 9.30021C38.7419 9.26021 38.6819 9.32021 38.6119 9.27021C38.5519 9.65021 38.4919 9.27021 38.4319 9.23021C38.3719 9.18021 38.3119 9.48021 38.2519 9.19021C38.1919 9.48021 38.1419 9.23021 38.0919 9.15021C38.0419 9.07021 37.9919 9.27021 37.9419 9.11021C37.8919 9.31021 37.8519 9.00021 37.8019 9.07021C37.7619 8.94021 37.7119 9.07021 37.6719 9.03021C37.6319 9.08021 37.5919 9.06021 37.5619 8.98021C37.5219 8.96021 37.4919 8.95021 37.4619 8.93021C37.2719 8.84021 37.1719 8.74021 37.1719 8.63021V8.64021Z" fill="#0061EF"/>
<path d="M18.9964 67.8001C18.8864 67.8001 18.7864 67.6201 18.6964 67.2801C18.6864 67.2201 18.6664 67.1601 18.6464 67.1001C18.6164 67.0401 18.5864 66.9701 18.6064 66.8901C18.7464 66.8201 18.3464 66.7401 18.5664 66.6601C18.6264 66.5801 18.5664 66.4901 18.5264 66.4101C18.4764 66.3201 18.6164 66.2301 18.4864 66.1401C18.2164 66.0501 18.7864 65.9501 18.4464 65.8401C18.3764 65.7401 18.3964 65.6301 18.4064 65.5201C18.6164 65.4101 18.4064 65.3001 18.3664 65.1901C18.6164 65.0701 18.5064 64.9601 18.3364 64.8401C18.6764 64.7201 18.6264 64.5901 18.3064 64.4701C18.2964 64.3401 18.4264 64.2101 18.2764 64.0801C18.2564 63.9501 18.1864 63.8101 18.2464 63.6801C18.0164 63.5401 18.0264 63.4001 18.2264 63.2601C17.9764 63.1201 18.0764 62.9701 18.2064 62.8301C18.3464 62.6801 17.9864 62.5401 18.1864 62.3801C18.1964 62.2301 18.1264 62.0801 18.1664 61.9201C18.2664 61.7601 18.3764 61.6101 18.1564 61.4501C18.0964 61.2901 18.0164 61.1301 18.1564 60.9701C17.8964 60.8101 18.0064 60.6401 18.1564 60.4801C18.1164 60.3201 18.2964 60.1501 18.1564 59.9801C18.1964 59.8101 18.0464 59.6401 18.1564 59.4701C18.2364 59.3001 18.3164 59.1301 18.1564 58.9601C17.9864 58.7901 18.2264 58.6201 18.1564 58.4601C18.4064 58.3001 18.0764 58.1301 18.1564 57.9701C18.1364 57.8101 18.2964 57.6501 18.1564 57.4901C18.1164 57.3301 18.0664 57.1701 18.1664 57.0201C17.7864 56.8601 18.2664 56.7101 18.1864 56.5601C18.3464 56.4101 18.1664 56.2601 18.2064 56.1101C18.1364 55.9601 18.3764 55.8201 18.2264 55.6801C18.2564 55.5401 18.1064 55.4001 18.2464 55.2601C18.0564 55.1201 18.4064 54.9901 18.2764 54.8601C18.2764 54.7301 18.2664 54.6001 18.3064 54.4701C18.5964 54.3401 18.3564 54.2201 18.3364 54.1001C18.3664 53.9801 18.1664 53.8601 18.3664 53.7501C18.3864 53.6401 18.5164 53.5201 18.4064 53.4201C18.3664 53.3101 18.8364 53.2101 18.4464 53.1001C18.3764 53.0001 18.7464 52.9001 18.4864 52.8001C18.2464 52.7101 18.5164 52.6101 18.5264 52.5301C18.5364 52.4401 18.5564 52.3601 18.5664 52.2801C18.6964 51.5601 18.8464 51.1401 18.9964 51.1401C19.1764 51.1401 19.3364 51.6501 19.4764 52.5301C19.4864 52.6201 19.6964 52.7101 19.5164 52.8001C19.5164 52.8901 19.6764 52.9901 19.5564 53.1001C19.8264 53.2001 19.6064 53.3101 19.5964 53.4201C19.6064 53.5301 19.5264 53.6401 19.6264 53.7501C19.7864 53.8701 19.5464 53.9801 19.6564 54.1001C19.4864 54.2201 19.5364 54.3501 19.6864 54.4701C19.5264 54.6001 19.7264 54.7301 19.7164 54.8601C19.4664 54.9901 19.6364 55.1301 19.7464 55.2601C19.8364 55.4001 19.7064 55.5401 19.7664 55.6801C19.7164 55.8201 19.8264 55.9701 19.7864 56.1101C19.9064 56.2601 19.9464 56.4101 19.8064 56.5601C19.8864 56.7101 19.8264 56.8601 19.8264 57.0201C19.9264 57.1701 19.8164 57.3301 19.8364 57.4901C19.8864 57.6501 19.5664 57.8101 19.8464 57.9701C19.8864 58.1301 19.8064 58.3001 19.8464 58.4601C19.8164 58.6201 19.7764 58.7901 19.8464 58.9601C19.5664 59.1301 19.7364 59.3001 19.8464 59.4701C19.9264 59.6401 19.8864 59.8101 19.8464 59.9801C19.8764 60.1501 19.8564 60.3201 19.8464 60.4801C19.9264 60.6401 19.7264 60.8101 19.8464 60.9701C19.9664 61.1301 19.7164 61.2901 19.8364 61.4501C19.9164 61.6101 19.9564 61.7701 19.8264 61.9201C19.8264 62.0701 19.5764 62.2301 19.8064 62.3801C19.8564 62.5301 20.1664 62.6801 19.7864 62.8301C19.8864 62.9801 19.5964 63.1201 19.7664 63.2601C19.4864 63.4001 19.7564 63.5401 19.7464 63.6801C19.6864 63.8201 19.5964 63.9501 19.7164 64.0801C19.8464 64.2101 19.6464 64.3401 19.6864 64.4701C19.8464 64.6001 19.4764 64.7201 19.6564 64.8401C19.6164 64.9601 19.6764 65.0801 19.6264 65.1901C20.0064 65.3001 19.6264 65.4201 19.5964 65.5201C19.5464 65.6301 19.8464 65.7301 19.5564 65.8401C19.8464 65.9401 19.5964 66.0401 19.5164 66.1401C19.4364 66.2301 19.6364 66.3301 19.4764 66.4101C19.6764 66.5001 19.3664 66.5801 19.4364 66.6601C19.3064 66.7401 19.4364 66.8201 19.3964 66.8901C19.4364 66.9601 19.4264 67.0301 19.3564 67.1001C19.3464 67.1701 19.3264 67.2301 19.3064 67.2801C19.2164 67.6201 19.1164 67.8001 19.0064 67.8001H18.9964Z" fill="#0061EF"/>
<path d="M64.5945 67.8001C64.4945 67.8001 64.3846 67.6201 64.2946 67.2801C64.2746 67.2201 64.2645 67.1601 64.2445 67.1001C64.2145 67.0401 64.1845 66.9701 64.1945 66.8901C64.3345 66.8201 63.9346 66.7401 64.1546 66.6601C64.2146 66.5801 64.1546 66.4901 64.1146 66.4101C64.0646 66.3201 64.2045 66.2301 64.0745 66.1401C63.8045 66.0501 64.3745 65.9501 64.0345 65.8401C63.9645 65.7401 63.9845 65.6301 63.9945 65.5201C64.2045 65.4101 63.9945 65.3001 63.9545 65.1901C64.2045 65.0701 64.0945 64.9601 63.9245 64.8401C64.2645 64.7201 64.2145 64.5901 63.8945 64.4701C63.8845 64.3401 64.0145 64.2101 63.8645 64.0801C63.8445 63.9501 63.7745 63.8101 63.8345 63.6801C63.6045 63.5401 63.6145 63.4001 63.8145 63.2601C63.5645 63.1201 63.6645 62.9701 63.7945 62.8301C63.9345 62.6801 63.5745 62.5401 63.7745 62.3801C63.7845 62.2301 63.7145 62.0801 63.7545 61.9201C63.8545 61.7601 63.9645 61.6101 63.7445 61.4501C63.6845 61.2901 63.6045 61.1301 63.7345 60.9701C63.4745 60.8101 63.5845 60.6401 63.7345 60.4801C63.6945 60.3201 63.8745 60.1501 63.7345 59.9801C63.7745 59.8101 63.6145 59.6401 63.7345 59.4701C63.8145 59.3001 63.8845 59.1301 63.7345 58.9601C63.5645 58.7901 63.8045 58.6201 63.7345 58.4601C63.9845 58.3001 63.6545 58.1301 63.7345 57.9701C63.7145 57.8101 63.8745 57.6501 63.7445 57.4901C63.6945 57.3301 63.6545 57.1701 63.7545 57.0201C63.3745 56.8601 63.8545 56.7101 63.7745 56.5601C63.9345 56.4101 63.7545 56.2601 63.7945 56.1101C63.7245 55.9601 63.9645 55.8201 63.8145 55.6801C63.8445 55.5401 63.6945 55.4001 63.8345 55.2601C63.6445 55.1201 63.9945 54.9901 63.8645 54.8601C63.8645 54.7301 63.8545 54.6001 63.8945 54.4701C64.1845 54.3401 63.9445 54.2201 63.9245 54.1001C63.9545 53.9801 63.7545 53.8601 63.9545 53.7501C63.9745 53.6401 64.1045 53.5201 63.9945 53.4201C63.9545 53.3101 64.4245 53.2101 64.0345 53.1001C63.9645 53.0001 64.3345 52.9001 64.0745 52.8001C63.8345 52.7101 64.1046 52.6101 64.1146 52.5301C64.1246 52.4401 64.1446 52.3601 64.1546 52.2801C64.2846 51.5601 64.4345 51.1401 64.5845 51.1401C64.7645 51.1401 64.9245 51.6501 65.0645 52.5301C65.0745 52.6201 65.2845 52.7101 65.1045 52.8001C65.1045 52.8901 65.2645 52.9901 65.1445 53.1001C65.4145 53.2001 65.1946 53.3101 65.1846 53.4201C65.1946 53.5301 65.1046 53.6401 65.2246 53.7501C65.3846 53.8701 65.1445 53.9801 65.2545 54.1001C65.0846 54.2201 65.1345 54.3501 65.2845 54.4701C65.1245 54.6001 65.3245 54.7301 65.3145 54.8601C65.0645 54.9901 65.2345 55.1301 65.3445 55.2601C65.4345 55.4001 65.3046 55.5401 65.3646 55.6801C65.3146 55.8201 65.4245 55.9701 65.3845 56.1101C65.5045 56.2601 65.5446 56.4101 65.4046 56.5601C65.4846 56.7101 65.4245 56.8601 65.4245 57.0201C65.5245 57.1701 65.4146 57.3301 65.4346 57.4901C65.4846 57.6501 65.1645 57.8101 65.4445 57.9701C65.4845 58.1301 65.4045 58.3001 65.4445 58.4601C65.4145 58.6201 65.3745 58.7901 65.4445 58.9601C65.1645 59.1301 65.3345 59.3001 65.4445 59.4701C65.5245 59.6401 65.4845 59.8101 65.4445 59.9801C65.4745 60.1501 65.4545 60.3201 65.4445 60.4801C65.5245 60.6401 65.3245 60.8101 65.4445 60.9701C65.5645 61.1301 65.3246 61.2901 65.4346 61.4501C65.5146 61.6101 65.5545 61.7701 65.4245 61.9201C65.4245 62.0701 65.1746 62.2301 65.4046 62.3801C65.4546 62.5301 65.7645 62.6801 65.3845 62.8301C65.4845 62.9801 65.2046 63.1201 65.3646 63.2601C65.0846 63.4001 65.3545 63.5401 65.3445 63.6801C65.2945 63.8201 65.1945 63.9501 65.3145 64.0801C65.4445 64.2101 65.2445 64.3401 65.2845 64.4701C65.4445 64.6001 65.0745 64.7201 65.2545 64.8401C65.2146 64.9601 65.2746 65.0801 65.2246 65.1901C65.6046 65.3001 65.2246 65.4201 65.1846 65.5201C65.1346 65.6301 65.4345 65.7301 65.1445 65.8401C65.4345 65.9401 65.1845 66.0401 65.1045 66.1401C65.0245 66.2301 65.2245 66.3301 65.0645 66.4101C65.2645 66.5001 64.9545 66.5801 65.0245 66.6601C64.8945 66.7401 65.0245 66.8201 64.9845 66.8901C65.0345 66.9601 65.0145 67.0301 64.9445 67.1001C64.9245 67.1701 64.9145 67.2301 64.8945 67.2801C64.8045 67.6201 64.7045 67.8001 64.5945 67.8001Z" fill="#0061EF"/>
<path d="M83.57 67.7802C83.57 67.8902 82.65 67.9902 80.96 68.0802C80.68 68.0902 80.38 68.1102 80.05 68.1302C79.73 68.1602 79.38 68.1902 79.02 68.1702C78.66 68.0302 78.27 68.4302 77.87 68.2102C77.47 68.1502 77.04 68.2102 76.6 68.2502C76.16 68.3002 75.7 68.1602 75.23 68.2902C74.75 68.5602 74.26 67.9902 73.75 68.3302C73.24 68.4002 72.71 68.3802 72.17 68.3702C71.63 68.1602 71.07 68.3702 70.49 68.4102C69.91 68.1602 69.32 68.2702 68.72 68.4402C68.11 68.1002 67.49 68.1502 66.86 68.4702C66.23 68.4802 65.58 68.3502 64.91 68.5002C64.25 68.5202 63.57 68.5902 62.89 68.5302C62.2 68.7602 61.5 68.7502 60.79 68.5502C60.08 68.8002 59.35 68.7002 58.62 68.5702C57.88 68.4302 57.14 68.7902 56.38 68.5902C55.62 68.5702 54.86 68.6502 54.08 68.6102C53.3 68.5102 52.52 68.4002 51.72 68.6202C50.93 68.6802 50.12 68.7602 49.31 68.6202C48.5 68.8802 47.68 68.7702 46.85 68.6202C46.02 68.6602 45.19 68.4802 44.35 68.6202C43.51 68.5802 42.66 68.7302 41.8 68.6202C40.94 68.5402 40.1 68.4602 39.26 68.6202C38.42 68.7902 37.58 68.5502 36.75 68.6202C35.92 68.3702 35.1 68.7002 34.29 68.6202C33.48 68.6402 32.67 68.4802 31.88 68.6202C31.09 68.6702 30.3 68.7102 29.52 68.6102C28.74 68.9902 27.98 68.5102 27.22 68.5902C26.46 68.4302 25.72 68.6102 24.98 68.5702C24.24 68.6402 23.52 68.4002 22.81 68.5502C22.1 68.5202 21.4 68.6702 20.71 68.5302C20.02 68.7202 19.35 68.3702 18.68 68.5002C18.02 68.5002 17.37 68.5102 16.73 68.4702C16.1 68.1802 15.47 68.4202 14.87 68.4402C14.26 68.4102 13.67 68.6102 13.1 68.4102C12.52 68.3902 11.96 68.2602 11.42 68.3702C10.88 68.4102 10.35 67.9402 9.84 68.3302C9.33 68.4002 8.84 68.0302 8.36 68.2902C7.88 68.5302 7.42 68.2602 6.98 68.2502C6.54 68.2402 6.12 68.2202 5.71 68.2102C2.08 68.0802 0 67.9302 0 67.7702C0 67.5902 2.57 67.4302 6.97 67.2902C7.41 67.2802 7.87 67.0702 8.35 67.2502C8.83 67.2502 9.32 67.0902 9.83 67.2102C10.34 66.9402 10.87 67.1602 11.41 67.1702C11.95 67.1602 12.51 67.2402 13.09 67.1302C13.67 66.9702 14.26 67.2102 14.86 67.1002C15.47 67.2702 16.09 67.2202 16.72 67.0702C17.35 67.2302 18 67.0302 18.67 67.0402C19.33 67.2902 20.01 67.1202 20.7 67.0102C21.39 66.9202 22.09 67.0502 22.8 66.9902C23.51 67.0402 24.24 66.9302 24.97 66.9702C25.71 66.8502 26.45 66.8102 27.21 66.9502C27.97 66.8702 28.73 66.9302 29.51 66.9302C30.29 66.8302 31.07 66.9402 31.87 66.9202C32.66 66.8702 33.47 67.1902 34.28 66.9102C35.09 66.8702 35.91 66.9502 36.74 66.9102C37.57 66.9502 38.4 66.9802 39.25 66.9102C40.09 67.1902 40.94 67.0202 41.79 66.9102C42.64 66.8302 43.49 66.8702 44.34 66.9102C45.18 66.8802 46.02 66.9002 46.84 66.9102C47.67 66.8302 48.49 67.0302 49.3 66.9102C50.11 66.7902 50.92 67.0402 51.71 66.9202C52.51 66.8402 53.29 66.8002 54.07 66.9302C54.85 66.9302 55.61 67.1802 56.37 66.9502C57.13 66.9002 57.87 66.5802 58.61 66.9702C59.35 66.8702 60.07 67.1502 60.78 66.9902C61.49 67.2702 62.19 67.0002 62.88 67.0102C63.57 67.0702 64.24 67.1602 64.9 67.0402C65.56 66.9102 66.21 67.1102 66.85 67.0702C67.48 66.9102 68.11 67.2802 68.71 67.1002C69.32 67.1402 69.91 67.0802 70.48 67.1302C71.06 66.7502 71.62 67.1302 72.16 67.1702C72.7 67.2202 73.23 66.9202 73.74 67.2102C74.25 66.9202 74.74 67.1702 75.22 67.2502C75.7 67.3302 76.15 67.1302 76.59 67.2902C77.03 67.0902 77.45 67.4002 77.86 67.3302C78.26 67.4602 78.65 67.3302 79.01 67.3702C79.38 67.3202 79.72 67.3402 80.04 67.4102C80.36 67.4302 80.67 67.4402 80.95 67.4602C82.64 67.5502 83.56 67.6502 83.56 67.7602L83.57 67.7802Z" fill="#0061EF"/>
</g>
<defs>
<clipPath id="clip0_1143_38231">
<rect width="83.57" height="68.78" fill="white"/>
</clipPath>
</defs>
</svg>
