<svg width="1805" height="625" viewBox="0 0 1805 625" fill="none" xmlns="http://www.w3.org/2000/svg">
<ellipse cx="902.5" cy="310.5" rx="890.5" ry="310.5" fill="#7CB1FF"/>
<ellipse cx="902.5" cy="314.5" rx="902.5" ry="310.5" fill="url(#paint0_linear_3616_38935)"/>
<path d="M366.201 129C381.046 129 394.072 136.679 401.423 148.231C403.567 147.721 405.804 147.45 408.105 147.45C416.39 147.45 423.856 150.951 429.101 156.552C431.594 155.531 434.328 154.967 437.195 154.967C448.862 154.967 458.32 164.298 458.32 175.808C458.32 187.319 448.862 196.65 437.195 196.65C434.503 196.65 431.928 196.152 429.56 195.246C424.296 201.138 416.635 204.85 408.105 204.85C402.784 204.85 397.802 203.405 393.528 200.889C386.222 207.185 376.663 211 366.201 211C352.933 211 341.118 204.866 333.509 195.315C328.764 196.757 323.524 196.758 318.486 194.99C313.815 193.351 309.983 190.426 307.252 186.762C302.943 189.611 297.37 190.482 292.107 188.636C288.535 187.382 285.653 185.068 283.696 182.18C281.158 183.443 278.08 183.713 275.14 182.682C271.77 181.499 269.352 178.877 268.386 175.812C267.905 176.028 267.372 176.15 266.809 176.15C264.706 176.15 263 174.467 263 172.392C263 170.316 264.706 168.633 266.809 168.633C267.477 168.633 268.104 168.803 268.65 169.1C270.717 164.014 276.649 161.453 282.103 163.367C282.565 163.529 283.01 163.719 283.435 163.933C287.573 157.443 295.852 154.412 303.48 157.088C304.809 157.555 306.042 158.169 307.168 158.904C312.394 151.813 321.31 148.095 330.21 149.488C337.397 137.24 350.824 129 366.201 129Z" fill="white"/>
<path d="M464.91 157.745C465.871 155.079 468.842 153.686 471.545 154.634C474.248 155.583 475.66 158.513 474.698 161.18C473.737 163.847 470.767 165.24 468.064 164.292C465.361 163.343 463.948 160.412 464.91 157.745Z" fill="white"/>
<path d="M1403.53 298.995C1406.58 298.995 1409.06 301.459 1409.06 304.498C1409.06 307.536 1406.58 310 1403.53 310C1400.48 310 1398 307.536 1398 304.498C1398 301.459 1400.48 298.995 1403.53 298.995Z" fill="white"/>
<path d="M1529.64 201C1552.6 201 1571.98 216.228 1578.14 237.088C1586.03 240.264 1592.5 246.197 1596.35 253.687C1597.61 253.5 1598.89 253.404 1600.2 253.404C1614.45 253.404 1626 264.9 1626 279.082C1626 293.263 1614.45 304.76 1600.2 304.76C1594.1 304.76 1588.5 302.653 1584.08 299.132C1578.56 302.692 1571.98 304.76 1564.92 304.76C1557.8 304.76 1551.17 302.659 1545.62 299.047C1540.6 300.713 1535.23 301.615 1529.64 301.615C1520.67 301.615 1512.25 299.292 1504.95 295.217C1500.22 301.037 1492.99 304.76 1484.88 304.76C1479.56 304.76 1474.62 303.157 1470.51 300.412C1467.19 304.653 1462.01 307.38 1456.18 307.38C1451.92 307.38 1448 305.915 1444.9 303.464C1442.87 305.858 1439.83 307.38 1436.44 307.38C1430.33 307.38 1425.38 302.453 1425.38 296.375C1425.38 290.297 1430.33 285.37 1436.44 285.37C1437.11 285.37 1437.77 285.43 1438.41 285.545C1440.15 277.362 1447.45 271.221 1456.18 271.221C1457.56 271.221 1458.89 271.374 1460.18 271.66C1462.84 262.878 1470.09 256.08 1479.16 254.037C1479.12 253.133 1479.09 252.223 1479.09 251.308C1479.09 246.691 1479.72 242.22 1480.89 237.973C1478.19 235.914 1476.46 232.677 1476.46 229.036C1476.46 222.814 1481.53 217.769 1487.78 217.769C1489.06 217.769 1490.28 217.98 1491.43 218.368C1500.7 207.729 1514.38 201 1529.64 201Z" fill="white"/>
<g filter="url(#filter0_f_3616_38935)">
<path d="M1181.87 202.74C1180.14 202.74 1178.74 204.142 1178.74 205.87C1178.74 207.599 1180.14 209 1181.87 209C1183.6 209 1185 207.599 1185 205.87C1185 204.142 1183.6 202.74 1181.87 202.74Z" fill="white"/>
<path d="M1110.52 147C1097.53 147 1086.57 155.662 1083.08 167.527C1078.61 169.334 1074.95 172.709 1072.78 176.969C1072.07 176.863 1071.34 176.808 1070.6 176.808C1062.54 176.808 1056 183.347 1056 191.413C1056 199.48 1062.54 206.019 1070.6 206.019C1074.05 206.019 1077.22 204.821 1079.72 202.818C1082.84 204.843 1086.56 206.019 1090.56 206.019C1094.59 206.019 1098.34 204.824 1101.48 202.77C1104.32 203.717 1107.36 204.231 1110.52 204.231C1115.59 204.231 1120.36 202.909 1124.49 200.592C1127.16 203.902 1131.26 206.019 1135.84 206.019C1138.85 206.019 1141.65 205.108 1143.97 203.546C1145.85 205.958 1148.79 207.51 1152.08 207.51C1154.49 207.51 1156.71 206.676 1158.47 205.282C1159.61 206.644 1161.33 207.51 1163.25 207.51C1166.71 207.51 1169.51 204.707 1169.51 201.25C1169.51 197.793 1166.71 194.99 1163.25 194.99C1162.87 194.99 1162.5 195.024 1162.14 195.09C1161.15 190.435 1157.02 186.942 1152.08 186.942C1151.3 186.942 1150.55 187.029 1149.82 187.192C1148.32 182.197 1144.21 178.33 1139.08 177.168C1139.11 176.654 1139.12 176.136 1139.12 175.615C1139.12 172.99 1138.77 170.446 1138.1 168.031C1139.63 166.859 1140.61 165.018 1140.61 162.947C1140.61 159.408 1137.74 156.538 1134.2 156.538C1133.48 156.538 1132.79 156.658 1132.14 156.879C1126.89 150.828 1119.15 147 1110.52 147Z" fill="white"/>
</g>
<defs>
<filter id="filter0_f_3616_38935" x="1051" y="142" width="139" height="72" filterUnits="userSpaceOnUse" color-interpolation-filters="sRGB">
<feFlood flood-opacity="0" result="BackgroundImageFix"/>
<feBlend mode="normal" in="SourceGraphic" in2="BackgroundImageFix" result="shape"/>
<feGaussianBlur stdDeviation="2.5" result="effect1_foregroundBlur_3616_38935"/>
</filter>
<linearGradient id="paint0_linear_3616_38935" x1="902.5" y1="4" x2="902.5" y2="625" gradientUnits="userSpaceOnUse">
<stop stop-color="#E6F8FF"/>
<stop offset="1" stop-color="#B1E3FF"/>
</linearGradient>
</defs>
</svg>
