<svg width="390" height="458" viewBox="0 0 390 458" fill="none" xmlns="http://www.w3.org/2000/svg">
<g clip-path="url(#clip0_3618_38975)">
<ellipse cx="194.5" cy="327.333" rx="316.5" ry="327.5" fill="#7CB1FF"/>
<ellipse cx="194.5" cy="333.5" rx="330.5" ry="331.5" fill="url(#paint0_linear_3618_38975)"/>
<path d="M-49.7989 82.833C-34.9542 82.833 -21.9277 90.5123 -14.5772 102.064C-12.4329 101.554 -10.1957 101.283 -7.89517 101.283C0.390265 101.283 7.85579 104.784 13.1014 110.385C15.5942 109.364 18.3278 108.8 21.1951 108.8C32.8621 108.8 42.3201 118.131 42.3201 129.641C42.3201 141.152 32.8621 150.483 21.1951 150.483C18.5025 150.483 15.9281 149.985 13.56 149.079C8.29578 154.971 0.635129 158.683 -7.89517 158.683C-13.2159 158.683 -18.198 157.238 -22.4721 154.722C-29.7777 161.018 -39.3365 164.833 -49.7989 164.833C-63.0667 164.833 -74.8824 158.699 -82.491 149.148C-87.2365 150.59 -92.4762 150.591 -97.5143 148.823C-102.185 147.184 -106.017 144.259 -108.748 140.595C-113.057 143.444 -118.63 144.315 -123.893 142.469C-127.465 141.215 -130.347 138.901 -132.304 136.013C-134.842 137.276 -137.92 137.546 -140.86 136.515C-144.23 135.332 -146.648 132.71 -147.614 129.645C-148.095 129.861 -148.628 129.983 -149.191 129.983C-151.294 129.983 -153 128.3 -153 126.225C-153 124.149 -151.294 122.466 -149.191 122.466C-148.523 122.466 -147.896 122.636 -147.35 122.933C-145.283 117.847 -139.351 115.286 -133.897 117.2C-133.435 117.362 -132.99 117.552 -132.565 117.766C-128.427 111.276 -120.148 108.245 -112.52 110.921C-111.191 111.388 -109.958 112.002 -108.832 112.737C-103.606 105.646 -94.6897 101.928 -85.7897 103.321C-78.6025 91.0727 -65.1761 82.833 -49.7989 82.833Z" fill="white"/>
<path d="M48.9095 111.578C49.8709 108.912 52.8419 107.519 55.5449 108.467C58.2479 109.416 59.6596 112.346 58.6982 115.013C57.7369 117.68 54.7665 119.073 52.0635 118.125C49.3605 117.176 47.9482 114.245 48.9095 111.578Z" fill="white"/>
<path d="M247.529 191.828C250.582 191.828 253.058 194.292 253.058 197.331C253.058 200.369 250.582 202.833 247.529 202.833C244.475 202.833 242 200.369 242 197.331C242 194.292 244.475 191.828 247.529 191.828Z" fill="white"/>
<path d="M373.64 93.833C396.595 93.833 415.977 109.061 422.141 129.921C430.03 133.097 436.502 139.03 440.35 146.52C441.606 146.334 442.891 146.237 444.199 146.237C458.448 146.237 470 157.733 470 171.915C470 186.096 458.448 197.593 444.199 197.593C438.1 197.593 432.498 195.486 428.081 191.965C422.564 195.525 415.984 197.593 408.919 197.593C401.798 197.593 395.169 195.492 389.624 191.88C384.6 193.546 379.226 194.448 373.64 194.448C364.674 194.448 356.253 192.125 348.952 188.05C344.222 193.87 336.989 197.593 328.882 197.593C323.563 197.593 318.621 195.99 314.514 193.245C311.19 197.486 306.008 200.213 300.185 200.213C295.918 200.213 291.995 198.748 288.895 196.297C286.867 198.691 283.832 200.213 280.439 200.213C274.332 200.213 269.381 195.286 269.381 189.208C269.381 183.13 274.332 178.203 280.439 178.203C281.112 178.203 281.772 178.263 282.412 178.378C284.149 170.195 291.446 164.054 300.185 164.054C301.556 164.054 302.892 164.207 304.177 164.493C306.837 155.711 314.093 148.913 323.164 146.87C323.115 145.966 323.09 145.056 323.09 144.141C323.09 139.524 323.715 135.053 324.885 130.806C322.193 128.747 320.457 125.51 320.457 121.869C320.457 115.647 325.526 110.602 331.778 110.602C333.056 110.602 334.285 110.813 335.431 111.202C344.699 100.562 358.38 93.833 373.64 93.833Z" fill="white"/>
<path d="M458.872 413.573C457.144 413.573 455.744 414.975 455.744 416.703C455.744 418.432 457.144 419.833 458.872 419.833C460.599 419.833 462 418.432 462 416.703C462 414.975 460.599 413.573 458.872 413.573Z" fill="white"/>
<path d="M387.52 357.833C374.532 357.833 363.566 366.495 360.078 378.36C355.614 380.167 351.953 383.542 349.776 387.802C349.065 387.696 348.338 387.641 347.598 387.641C339.536 387.641 333 394.18 333 402.246C333 410.313 339.536 416.852 347.598 416.852C351.048 416.852 354.219 415.654 356.717 413.651C359.839 415.676 363.562 416.852 367.559 416.852C371.588 416.852 375.339 415.658 378.476 413.603C381.318 414.55 384.359 415.064 387.52 415.064C392.593 415.064 397.357 413.742 401.488 411.425C404.164 414.735 408.256 416.852 412.843 416.852C415.852 416.852 418.649 415.941 420.972 414.379C422.853 416.791 425.785 418.343 429.08 418.343C431.494 418.343 433.713 417.509 435.467 416.115C436.615 417.477 438.332 418.343 440.252 418.343C443.707 418.343 446.508 415.54 446.508 412.083C446.508 408.626 443.707 405.823 440.252 405.823C439.871 405.823 439.498 405.857 439.135 405.923C438.153 401.268 434.024 397.775 429.08 397.775C428.304 397.775 427.548 397.862 426.821 398.025C425.316 393.03 421.211 389.163 416.078 388.001C416.106 387.487 416.12 386.969 416.12 386.448C416.12 383.823 415.766 381.279 415.104 378.864C416.628 377.692 417.61 375.851 417.61 373.78C417.61 370.241 414.742 367.371 411.204 367.371C410.481 367.371 409.786 367.491 409.138 367.712C403.894 361.661 396.153 357.833 387.52 357.833Z" fill="white"/>
</g>
<defs>
<linearGradient id="paint0_linear_3618_38975" x1="194.5" y1="2" x2="194.5" y2="665" gradientUnits="userSpaceOnUse">
<stop stop-color="#E6F8FF"/>
<stop offset="1" stop-color="#B1E3FF"/>
</linearGradient>
<clipPath id="clip0_3618_38975">
<rect width="390" height="458" fill="white"/>
</clipPath>
</defs>
</svg>
