<svg width="197" height="48" viewBox="0 0 197 48" fill="none" xmlns="http://www.w3.org/2000/svg">
<path fill-rule="evenodd" clip-rule="evenodd" d="M25.292 3.66171C24.0314 3.04954 21.1306 1.89624 19.8699 1.5027C17.3812 0.726542 9.46487 0.341198 4.95367 6.11316C2.76042 8.92261 1.59467 12.4727 1.26392 16.0064C0.374691 25.4815 5.72632 34.287 8.93622 38.7225L9.00942 38.8237L8.81422 38.9794L8.73289 38.8838C8.1717 38.2197 7.56171 37.5884 7.0683 36.8696C6.46102 35.9869 5.90254 35.0741 5.37117 34.1449C4.85878 33.2457 3.87196 31.4229 3.87196 31.4229C3.56019 30.756 2.0203 27.3098 1.47267 25.5115C0.927747 23.7269 0.534644 21.9068 0.21745 20.0703V20.0648C-1.01608 11.0543 3.25926 5.19489 6.47187 2.77078C11.1024 -0.721913 16.9338 -0.675454 22.318 1.59015C22.8602 1.81972 23.3401 2.10394 23.8362 2.41823C24.3649 2.75438 24.8908 3.09326 25.4167 3.43488L25.5198 3.50047L25.4032 3.71364L25.2948 3.66171H25.292Z" fill="#EE2D5F"/>
<path fill-rule="evenodd" clip-rule="evenodd" d="M35.0677 3.61001C34.5228 3.79585 33.9318 3.98716 33.7989 4.02268C33.742 4.03908 33.6498 4.06641 33.5902 4.06641H33.2432C33.2432 4.06641 33.9318 3.46517 34.4415 3.10715C40.3326 -1.03598 47.5413 0.948134 50.4937 2.45125C65.1713 9.92582 50.9844 28.6546 49.1761 30.841C45.0986 35.7712 36.9655 41.6443 32.0286 43.5764L31.9229 43.6174L31.8145 43.4152L33.3787 42.2892H33.3842C35.1138 41.2371 38.5921 38.6681 40.1916 37.2962C42.5828 35.2437 44.833 32.9891 46.8527 30.5649C50.0084 26.7798 53.5463 21.4369 54.5928 15.5037C56.8511 2.66988 43.7784 2.35833 41.4333 2.42119C39.7741 2.46491 38.1041 2.69448 36.4965 3.10715L35.0704 3.60728L35.0677 3.61001Z" fill="#3DADE3"/>
<path fill-rule="evenodd" clip-rule="evenodd" d="M6.58008 27.2852H14.6129L15.5727 32.1963L26.1485 7.73926H27.3441L20.1056 43.3139L31.1857 16.2278L31.9529 16.4573L30.9579 26.6512L44.2828 26.632L43.7595 27.5476L29.9982 27.8646L30.3805 21.4395L19.4847 47.2466L18.2783 47.3176L24.5788 14.6782L15.4859 35.2052H14.6997L13.6858 28.3756H6.59634L6.58008 27.2852Z" fill="#EE2D5F"/>
<path d="M17.4548 23.2162L17.2162 24.3285H14.375L14.2991 24.1345L16.4463 21.642C16.7499 21.2895 16.9722 21.0408 17.1132 20.8932L17.0915 20.8659H16.1725C16.0369 20.8659 15.9366 20.8741 15.8743 20.8932C15.8119 20.9123 15.7496 20.9451 15.6872 20.9916C15.6248 21.038 15.5571 21.1064 15.4839 21.1966C15.4107 21.2895 15.3321 21.4179 15.2426 21.5874H14.8929L15.1233 20.5461H17.9157L17.9889 20.7456L15.1721 23.9814L15.1938 24.0087H16.083C16.2403 24.0087 16.3595 24.0005 16.4436 23.9842C16.5276 23.965 16.6008 23.935 16.6632 23.8858C16.7255 23.8393 16.7906 23.7655 16.8584 23.6699C16.9262 23.5742 17.0075 23.4212 17.1078 23.2162H17.4575H17.4548ZM13.0276 21.9181C13.0493 21.8087 13.0656 21.7158 13.0737 21.6366C13.0819 21.5573 13.0846 21.4726 13.0846 21.3797C13.0846 21.1747 13.0412 21.0244 12.9545 20.9315C12.8677 20.8385 12.724 20.7921 12.5234 20.7921C12.415 20.7921 12.3065 20.8085 12.2089 20.844C12.1086 20.8795 12.0083 20.9397 11.908 21.0216C11.805 21.1064 11.7074 21.213 11.6152 21.3496C11.523 21.4835 11.439 21.6475 11.3631 21.8388C11.2871 22.0328 11.2302 22.2378 11.1868 22.4592C11.1435 22.6805 11.1245 22.8937 11.1245 23.1014C11.1245 23.3747 11.1597 23.5824 11.2356 23.7163C11.3115 23.853 11.4363 23.9213 11.6098 23.9213C11.6911 23.9213 11.7751 23.9049 11.8619 23.8666C11.9486 23.8311 12.0462 23.7628 12.1547 23.6617C12.2631 23.5633 12.3851 23.4157 12.5207 23.2244C12.6427 23.0468 12.7403 22.8718 12.8135 22.6997C12.8867 22.5275 12.9436 22.3253 12.9924 22.0902L13.0276 21.9208V21.9181ZM13.372 20.7402L13.7325 20.4778L13.9819 20.5407L13.3828 23.2299C13.3476 23.3884 13.3204 23.5086 13.3069 23.5961C13.296 23.6808 13.2879 23.7519 13.2879 23.8065C13.2879 23.9158 13.3177 23.9924 13.3774 24.0415C13.437 24.0907 13.5536 24.1208 13.7217 24.1345L13.6864 24.3285H12.5641L12.8108 23.3364L12.7593 23.32C12.5098 23.689 12.2713 23.9596 12.0462 24.1317C11.8212 24.3012 11.5827 24.3886 11.3332 24.3886C11.0459 24.3886 10.8236 24.2793 10.6636 24.0607C10.5064 23.842 10.4277 23.5332 10.4277 23.1369C10.4277 22.8855 10.4576 22.6313 10.5145 22.3745C10.5714 22.1203 10.6582 21.8798 10.7748 21.6502C10.8913 21.4207 11.0296 21.2212 11.1923 21.0462C11.3549 20.8713 11.5447 20.7347 11.7562 20.6308C11.9703 20.527 12.2008 20.4751 12.4529 20.4751C12.6156 20.4751 12.7701 20.4942 12.9165 20.5325C13.0629 20.5707 13.2147 20.639 13.372 20.7374M7.41305 21.3687H7.54047C7.65162 21.3687 7.75193 21.3496 7.84139 21.3141C7.93357 21.2758 8.03659 21.2075 8.15859 21.1118C8.28058 21.0135 8.47036 20.8358 8.73333 20.5734C8.9963 20.3111 9.18337 20.1116 9.29452 19.9777C9.40567 19.841 9.48701 19.7235 9.53852 19.6251C9.59003 19.5267 9.61443 19.4365 9.61443 19.3546C9.61443 19.289 9.59003 19.237 9.5358 19.196C9.48158 19.1551 9.40839 19.1305 9.31079 19.1223L9.35416 18.9282H11.0377L10.9944 19.1223C10.8886 19.1359 10.772 19.1933 10.6392 19.2862C10.5091 19.3792 10.3057 19.5623 10.0346 19.8356L8.51102 21.3305L9.34603 23.3556C9.41652 23.5278 9.47345 23.6535 9.51683 23.7327C9.5602 23.8147 9.60629 23.8803 9.65509 23.935C9.70389 23.9896 9.76082 24.0333 9.82318 24.0661C9.88553 24.0989 9.96144 24.1235 10.0509 24.1345L10.0075 24.3285H8.49205L8.53542 24.1345C8.6764 24.1235 8.7496 24.0579 8.7496 23.9459C8.7496 23.9104 8.74689 23.8748 8.73875 23.8393C8.73333 23.801 8.71978 23.7464 8.69538 23.6781C8.67369 23.607 8.64116 23.5196 8.6032 23.4212L8.09352 22.164C8.03388 22.0137 7.98237 21.9071 7.93628 21.847C7.8929 21.7869 7.8441 21.7431 7.79531 21.7213C7.74651 21.6994 7.66788 21.6858 7.56215 21.6858H7.34256L7.01723 23.1807C6.98199 23.3392 6.9603 23.4649 6.94945 23.5551C6.93861 23.648 6.93319 23.7273 6.93319 23.7983C6.93319 23.9158 6.96301 24.0005 7.02265 24.0497C7.0823 24.0989 7.17989 24.129 7.31816 24.1372L7.27478 24.3312H5.70508L5.74846 24.1372C5.84876 24.1235 5.92196 24.0962 5.97347 24.0607C6.02227 24.0251 6.06565 23.976 6.09818 23.9131C6.13071 23.8502 6.16325 23.7737 6.19307 23.6835C6.22289 23.5933 6.26627 23.4157 6.3232 23.1561L6.99012 20.1089C7.01723 19.9886 7.03621 19.8711 7.05247 19.759C7.06874 19.647 7.07687 19.5513 7.07687 19.4721C7.07687 19.3491 7.04434 19.2616 6.98199 19.2124C6.91963 19.1633 6.82203 19.1332 6.6919 19.1277L6.73528 18.9337H8.30498L8.26161 19.1277C8.1613 19.1469 8.09081 19.1715 8.04743 19.1988C8.00406 19.2261 7.96339 19.2644 7.93086 19.3163C7.89561 19.3682 7.86037 19.4502 7.82513 19.565C7.78988 19.677 7.74379 19.8602 7.68957 20.1143L7.41033 21.3769L7.41305 21.3687Z" fill="#3DADE3"/>
<path d="M39.4768 21.8849C39.5148 21.6936 39.5365 21.5132 39.5365 21.3465C39.5365 21.1416 39.4931 20.9912 39.4064 20.8983C39.3196 20.8054 39.1759 20.7589 38.9753 20.7589C38.8641 20.7589 38.7584 20.7753 38.6608 20.8109C38.5605 20.8464 38.4602 20.9065 38.3599 20.9885C38.2569 21.0732 38.1593 21.1798 38.0671 21.3165C37.9749 21.4504 37.8909 21.6144 37.815 21.8057C37.739 21.9997 37.6821 22.2047 37.6387 22.426C37.5954 22.6474 37.5764 22.8606 37.5764 23.0683C37.5764 23.3416 37.6116 23.5493 37.6875 23.6832C37.7634 23.8198 37.8882 23.8882 38.0617 23.8882C38.143 23.8882 38.227 23.8718 38.3138 23.8335C38.4005 23.798 38.4981 23.7296 38.6066 23.6285C38.715 23.5301 38.837 23.3826 38.9726 23.1913C39.0946 23.0136 39.1922 22.8387 39.2654 22.6665C39.3386 22.4944 39.3955 22.2921 39.4443 22.0571L39.4795 21.8876L39.4768 21.8849ZM39.9648 19.7532C39.9838 19.6658 40.0028 19.5701 40.019 19.4635C40.0353 19.3569 40.0407 19.264 40.0407 19.1875C40.0407 19.111 40.0272 19.0481 39.9974 19.0071C39.9702 18.9661 39.9269 18.9361 39.8754 18.9197C39.8211 18.9005 39.7263 18.8869 39.588 18.8787L39.6341 18.6737L40.6182 18.6382H40.8513L39.8347 23.1967C39.7995 23.3634 39.7723 23.4864 39.7588 23.5684C39.7479 23.6504 39.7398 23.7187 39.7398 23.7734C39.7398 23.8827 39.7696 23.9592 39.8293 24.0084C39.8889 24.0576 40.0055 24.0877 40.1763 24.1013L40.141 24.2954H39.0187L39.2654 23.3033L39.2139 23.2869C38.9644 23.6559 38.7259 23.9264 38.5009 24.0986C38.2758 24.268 38.0373 24.3555 37.7878 24.3555C37.5005 24.3555 37.2782 24.2462 37.1182 24.0275C36.961 23.8089 36.8824 23.5001 36.8824 23.1038C36.8824 22.8524 36.9122 22.5982 36.9691 22.3413C37.026 22.0871 37.1128 21.8466 37.2294 21.6171C37.3459 21.3875 37.4842 21.188 37.6469 21.0131C37.8095 20.8382 37.9993 20.7016 38.2108 20.5977C38.4249 20.4938 38.6554 20.4419 38.9075 20.4419C39.0675 20.4419 39.2139 20.4611 39.3494 20.4911C39.485 20.5239 39.6232 20.5813 39.7642 20.6633L39.9702 19.7505L39.9648 19.7532ZM33.9815 22.2539C34.2228 22.2511 34.4343 22.2375 34.6159 22.2129C34.7975 22.1883 34.9548 22.1527 35.0849 22.109C35.2151 22.0653 35.3262 22.0134 35.413 21.9532C35.4997 21.8931 35.5675 21.8248 35.619 21.7537C35.6705 21.6799 35.7058 21.6034 35.7247 21.5242C35.7437 21.4422 35.7546 21.3602 35.7546 21.2727C35.7546 21.1115 35.7193 20.9858 35.6434 20.8956C35.5675 20.8054 35.459 20.7589 35.3099 20.7589C35.1283 20.7589 34.9467 20.8245 34.7704 20.9584C34.5942 21.0896 34.437 21.27 34.3014 21.4968C34.1659 21.7237 34.0601 21.9751 33.9815 22.2539ZM36.069 23.5083C35.8738 23.7214 35.6895 23.8909 35.5106 24.0139C35.3316 24.1368 35.1554 24.227 34.9765 24.279C34.8003 24.3309 34.6024 24.3582 34.3882 24.3582C34.174 24.3582 34.0032 24.3254 33.8541 24.2571C33.705 24.1888 33.583 24.0986 33.4854 23.9811C33.3851 23.8636 33.3146 23.7242 33.2658 23.5629C33.2197 23.399 33.1953 23.224 33.1953 23.0327C33.1953 22.7513 33.2468 22.4479 33.3471 22.1254C33.4474 21.8029 33.5993 21.5132 33.8026 21.2563C34.0086 20.9994 34.2526 20.7999 34.5373 20.6578C34.8219 20.5184 35.1283 20.4447 35.4482 20.4447C35.7681 20.4447 36.0013 20.5102 36.1612 20.6387C36.3185 20.7699 36.3998 20.9694 36.3998 21.2454C36.3998 21.6936 36.191 22.0298 35.7735 22.2539C35.356 22.478 34.7352 22.59 33.9137 22.59C33.8839 22.7485 33.8677 22.9207 33.8677 23.1038C33.8677 23.3798 33.9219 23.5821 34.0276 23.7078C34.1361 23.8335 34.3096 23.8964 34.5536 23.8964C34.7975 23.8964 35.0144 23.8444 35.2096 23.7378C35.4075 23.6313 35.6109 23.47 35.825 23.2514L36.069 23.5083Z" fill="#3DADE3"/>
<path d="M67.7871 6.05859H74.0876V28.7092H67.7871V6.05859ZM80.5887 28.7092L74.4238 17.5369L81.2285 6.05859H84.3951L79.4772 14.3776L87.361 28.7092H80.5887Z" fill="#40ADE9"/>
<path d="M86.9219 28.7092L95.0063 6.05859H101.339L109.562 28.7092H102.79L100.331 21.9861H92.5799L90.1562 28.7092H86.9219ZM93.5938 19.1685H99.3196L96.3889 11.0872L93.5911 19.1685H93.5938Z" fill="#40ADE9"/>
<path d="M109.225 28.7092L120.24 9.21787H109.829V6.05859H128.999L117.952 25.5526H128.291V28.7092H109.225Z" fill="#40ADE9"/>
<path d="M130.885 28.7092V6.05859H137.082L142.068 18.1491L147.021 6.05859H153.153V28.7092H146.853V14.006L140.788 28.7092H140.148L134.016 13.9048V28.7092H130.885Z" fill="#40ADE9"/>
<path d="M157.193 28.7092V6.05859H171.378V9.11675H163.494V15.7386H170.974V18.7941H163.494V25.6537H171.649V28.7092H157.193Z" fill="#40ADE9"/>
<path d="M174.778 28.7092V6.05859H183.472C186.929 6.05859 189.806 6.94133 192.094 8.70681C195.081 11.0161 196.575 13.9814 196.575 17.6052C196.575 19.5292 196.114 21.3248 195.192 22.9864C194.271 24.6507 192.991 26.0036 191.351 27.0448C189.578 28.1544 186.937 28.7092 183.435 28.7092H174.775H174.778ZM181.079 25.7549H182.258C184.416 25.7549 186.099 25.1891 187.311 24.0577C189.084 22.4043 189.974 20.1168 189.974 17.198C189.974 14.7521 189.299 12.7789 187.954 11.2703C186.604 9.76445 184.766 9.0129 182.429 9.0129H181.081V25.7549H181.079Z" fill="#40ADE9"/>
<path d="M67.7871 37.4546H69.0315V41.9284H67.7871V37.4546ZM70.3138 41.9257L69.0966 39.7202L70.4412 37.4546H71.0675L70.0969 39.0971L71.6531 41.9284H70.3165L70.3138 41.9257Z" fill="#40ADE9"/>
<path d="M72.0117 41.9257V37.4546H73.2561V41.3244H74.8583V41.9257H72.0117Z" fill="#40ADE9"/>
<path d="M76.4553 37.4546H75.2109V41.9284H76.4553V37.4546Z" fill="#40ADE9"/>
<path d="M77.2793 41.9257V37.4546H78.6186L80.1476 39.8076V37.4546H80.7657V41.9257H80.069L77.9001 38.5532V41.9257H77.2793Z" fill="#40ADE9"/>
<path d="M82.8342 37.4546H81.5898V41.9284H82.8342V37.4546Z" fill="#40ADE9"/>
<path d="M83.6621 37.4546H84.9065V41.9284H83.6621V37.4546ZM86.1888 41.9257L84.9716 39.7202L86.3162 37.4546H86.9425L85.9719 39.0971L87.5281 41.9284H86.1915L86.1888 41.9257Z" fill="#40ADE9"/>
<path d="M87.4383 41.926L89.0351 37.4521H90.2849L91.9088 41.926H90.5722L90.087 40.5978H88.5552L88.0754 41.926H87.4355H87.4383ZM88.7558 40.043H89.8863L89.3062 38.4469L88.7531 40.043H88.7558Z" fill="#40ADE9"/>
<path d="M99.9863 41.9257L102.163 38.0777H100.106V37.4546H103.893L101.711 41.3026H103.752V41.9257H99.9863Z" fill="#40ADE9"/>
<path d="M104.266 41.9257V37.4546H107.066V38.0586H105.51V39.3649H106.985V39.9689H105.51V41.3244H107.12V41.9257H104.266Z" fill="#40ADE9"/>
<path d="M107.738 41.926V37.4521H109.641C110.216 37.4521 110.674 37.5724 111.01 37.8129C111.346 38.0561 111.514 38.3841 111.514 38.7995C111.514 39.4035 111.165 39.797 110.462 39.9801L111.533 41.926H110.143L109.064 39.6795C109.134 39.6877 109.207 39.6932 109.283 39.6932C109.937 39.6932 110.262 39.4308 110.262 38.9033C110.262 38.3267 109.92 38.037 109.237 38.037H108.977V41.926H107.732H107.738Z" fill="#40ADE9"/>
<path d="M112.901 41.9257V38.0586H111.656V37.4546H115.381V38.0586H114.145V41.9257H112.901Z" fill="#40ADE9"/>
<path d="M115.752 41.9257V37.4546H116.996V39.3649H118.295V37.4546H119.537V41.9257H118.295V39.9689H116.996V41.9257H115.752Z" fill="#40ADE9"/>
<path d="M119.889 41.926L121.486 37.4521H122.736L124.36 41.926H123.023L122.538 40.5978H121.006L120.527 41.926H119.887H119.889ZM121.207 40.043H122.338L121.76 38.4469L121.207 40.043Z" fill="#40ADE9"/>
<path d="M124.713 41.9257V37.4546H126.052L127.581 39.8076V37.4546H128.199V41.9257H127.503L125.334 38.5532V41.9257H124.713Z" fill="#40ADE9"/>
<path d="M128.518 41.926L130.115 37.4521H131.365L132.989 41.926H131.652L131.167 40.5978H129.635L129.155 41.926H128.516H128.518ZM129.836 40.043H130.966L130.389 38.4469L129.836 40.043Z" fill="#40ADE9"/>
<path d="M141.068 41.9338V37.46H143.045C143.56 37.46 143.966 37.5857 144.265 37.8344C144.563 38.0858 144.715 38.4247 144.715 38.8538C144.715 39.3129 144.533 39.6545 144.17 39.8786C143.926 40.0262 143.587 40.1 143.153 40.1H142.315V41.931H141.071L141.068 41.9338ZM142.313 39.5179H142.646C142.904 39.5179 143.088 39.4769 143.197 39.3976C143.375 39.2692 143.462 39.0669 143.462 38.7936C143.462 38.5668 143.389 38.3837 143.24 38.247C143.091 38.1104 142.893 38.0421 142.646 38.0421H142.313V39.5179Z" fill="#40ADE9"/>
<path d="M144.432 41.9338L146.029 37.46H147.279L148.903 41.9338H147.566L147.081 40.6056H145.549L145.069 41.9338H144.43H144.432ZM145.75 40.048H146.88L146.303 38.452L145.75 40.048Z" fill="#40ADE9"/>
<path d="M149.255 41.9338V37.46H151.159C151.733 37.46 152.191 37.5802 152.528 37.8207C152.864 38.0639 153.032 38.3919 153.032 38.8073C153.032 39.4113 152.682 39.8048 151.98 39.9879L153.051 41.9338H151.66L150.581 39.6873C150.652 39.6955 150.725 39.701 150.801 39.701C151.454 39.701 151.779 39.4386 151.779 38.9111C151.779 38.3345 151.438 38.0448 150.755 38.0448H150.494V41.9338H149.25H149.255Z" fill="#40ADE9"/>
<path d="M153.173 41.9338L154.769 37.46H156.019L157.643 41.9338H156.307L155.821 40.6056H154.29L153.81 41.9338H153.17H153.173ZM154.49 40.048H155.621L155.043 38.452L154.49 40.048Z" fill="#40ADE9"/>
<path d="M157.578 41.9338L159.752 38.0858H157.697V37.46H161.482L159.3 41.3107H161.344V41.9338H157.578Z" fill="#40ADE9"/>
<path d="M163.098 37.46H161.854V41.9338H163.098V37.46Z" fill="#40ADE9"/>
<path d="M164.682 41.9338V38.0639H163.438V37.46H167.163V38.0639H165.926V41.9338H164.682Z" fill="#40ADE9"/>
<path d="M169.458 37.3618C170.133 37.3618 170.697 37.5886 171.158 38.0451C171.616 38.5015 171.846 39.0617 171.846 39.7285C171.846 40.3954 171.621 40.9392 171.169 41.3792C170.716 41.8165 170.149 42.0351 169.466 42.0351C168.783 42.0351 168.189 41.8165 167.736 41.382C167.284 40.9474 167.059 40.3899 167.059 39.7094C167.059 39.0699 167.294 38.5206 167.766 38.056C168.238 37.5941 168.802 37.3618 169.461 37.3618M169.412 37.8838C169.114 37.8838 168.88 38.0287 168.707 38.3183C168.495 38.6764 168.387 39.1246 168.387 39.6657C168.387 40.2341 168.485 40.6796 168.68 41.0021C168.875 41.3273 169.143 41.4885 169.485 41.4885C169.862 41.4885 170.133 41.2945 170.296 40.9037C170.442 40.5593 170.515 40.174 170.515 39.7449C170.515 39.3159 170.447 38.9059 170.309 38.5588C170.133 38.1079 169.832 37.8811 169.412 37.8811" fill="#40ADE9"/>
<path d="M172.418 41.9338V37.46H173.662V41.3298H175.265V41.9338H172.418Z" fill="#40ADE9"/>
<path d="M177.587 37.3618C178.262 37.3618 178.826 37.5886 179.287 38.0451C179.745 38.5015 179.975 39.0617 179.975 39.7285C179.975 40.3954 179.75 40.9392 179.297 41.3792C178.845 41.8165 178.278 42.0351 177.595 42.0351C176.912 42.0351 176.318 41.8165 175.865 41.382C175.413 40.9474 175.188 40.3899 175.188 39.7094C175.188 39.0699 175.423 38.5206 175.895 38.056C176.367 37.5941 176.931 37.3618 177.589 37.3618M177.541 37.8838C177.242 37.8838 177.009 38.0287 176.836 38.3183C176.624 38.6764 176.516 39.1246 176.516 39.6657C176.516 40.2341 176.614 40.6796 176.809 41.0021C177.004 41.3273 177.272 41.4885 177.614 41.4885C177.991 41.4885 178.262 41.2945 178.425 40.9037C178.571 40.5593 178.644 40.174 178.644 39.7449C178.644 39.3159 178.576 38.9059 178.438 38.5588C178.262 38.1079 177.961 37.8811 177.541 37.8811" fill="#40ADE9"/>
<path d="M183.672 39.9417H184.87V41.2508C184.138 41.7646 183.428 42.0215 182.734 42.0215C182.04 42.0215 181.495 41.8302 181.023 41.4448C180.527 41.0376 180.277 40.461 180.277 39.7149C180.277 38.9688 180.538 38.3949 181.055 37.9385C181.503 37.5449 182.037 37.3481 182.66 37.3481C183.447 37.3481 184.089 37.687 184.588 38.3593L183.975 38.8212C183.653 38.2008 183.249 37.8893 182.772 37.8893C182.403 37.8893 182.121 38.0478 181.923 38.3621C181.725 38.6763 181.627 39.1273 181.627 39.7121C181.627 40.297 181.72 40.696 181.907 40.9857C182.102 41.289 182.408 41.4421 182.826 41.4421C183.167 41.4421 183.449 41.3382 183.672 41.1333V39.939V39.9417Z" fill="#40ADE9"/>
<path d="M186.713 37.46H185.469V41.9338H186.713V37.46Z" fill="#40ADE9"/>
<path d="M188.417 41.9338V39.8403L187.066 37.46H188.417L189.368 39.1161L190.279 37.46H190.924L189.658 39.7283V41.9338H188.417Z" fill="#40ADE9"/>
<path d="M190.83 41.9338L192.427 37.46H193.677L195.301 41.9338H193.964L193.479 40.6056H191.947L191.47 41.9338H190.83ZM192.148 40.048H193.278L192.701 38.452L192.148 40.048Z" fill="#40ADE9"/>
<path d="M97.1565 39.6901C97.1565 40.3624 96.6143 40.909 95.9474 40.909C95.2805 40.909 94.7383 40.3624 94.7383 39.6901C94.7383 39.0178 95.2805 38.4712 95.9474 38.4712C96.6143 38.4712 97.1565 39.0178 97.1565 39.6901Z" fill="#40ADE9"/>
<path d="M138.237 39.6901C138.237 40.3624 137.694 40.909 137.027 40.909C136.361 40.909 135.818 40.3624 135.818 39.6901C135.818 39.0178 136.361 38.4712 137.027 38.4712C137.694 38.4712 138.237 39.0178 138.237 39.6901Z" fill="#40ADE9"/>
</svg>
