<svg width="30" height="30" viewBox="0 0 30 30" fill="none" xmlns="http://www.w3.org/2000/svg">
<path d="M6.14844 25.35L8.36094 27.0625C8.64844 27.35 9.28594 27.4874 9.72344 27.4874H12.4359C13.2984 27.4874 14.2234 26.85 14.4359 25.9875L16.1484 20.7749C16.5109 19.7749 15.8609 18.9124 14.7859 18.9124H11.9234C11.4984 18.9124 11.1359 18.5499 11.2109 18.0499L11.5734 15.7624C11.7109 15.1249 11.2859 14.3999 10.6484 14.1874C10.0734 13.9749 9.36094 14.2624 9.07344 14.6874L6.14844 19.0499" stroke="#5B5B5B" stroke-width="1.5" stroke-miterlimit="10"/>
<path d="M2.5 25.35V18.35C2.5 17.35 2.925 16.9874 3.925 16.9874H4.6375C5.6375 16.9874 6.0625 17.35 6.0625 18.35V25.35C6.0625 26.35 5.6375 26.7125 4.6375 26.7125H3.925C2.925 26.7125 2.5 26.3625 2.5 25.35Z" stroke="#5B5B5B" stroke-width="1.5" stroke-linecap="round" stroke-linejoin="round"/>
<path d="M23.851 4.64966L21.6385 2.93716C21.351 2.64966 20.7135 2.51221 20.276 2.51221H17.5635C16.701 2.51221 15.776 3.14965 15.5635 4.01215L13.851 9.2247C13.4885 10.2247 14.1385 11.0872 15.2135 11.0872H18.076C18.501 11.0872 18.8635 11.4498 18.7885 11.9498L18.426 14.2372C18.2885 14.8747 18.7135 15.5997 19.351 15.8122C19.926 16.0247 20.6385 15.7372 20.926 15.3122L23.851 10.9497" stroke="#5B5B5B" stroke-width="1.5" stroke-miterlimit="10"/>
<path d="M27.5 4.64981V11.6498C27.5 12.6498 27.075 13.0124 26.075 13.0124H25.3625C24.3625 13.0124 23.9375 12.6498 23.9375 11.6498V4.64981C23.9375 3.64981 24.3625 3.28735 25.3625 3.28735H26.075C27.075 3.28735 27.5 3.63731 27.5 4.64981Z" stroke="#5B5B5B" stroke-width="1.5" stroke-linecap="round" stroke-linejoin="round"/>
</svg>
