<svg width="86" height="81" viewBox="0 0 86 81" fill="none" xmlns="http://www.w3.org/2000/svg">
<g clip-path="url(#clip0_926_40980)">
<path d="M3.8453 0.780097C3.8453 0.780097 3.7953 0.810097 3.6953 0.830097C3.6453 0.840097 3.5853 0.850097 3.5153 0.860097C3.4453 0.880097 3.3653 0.900097 3.2653 0.920097C3.1753 0.950097 3.0753 0.980097 2.9553 1.0201C2.8453 1.0701 2.7253 1.1101 2.6053 1.1801C2.3553 1.3001 2.0853 1.4901 1.8353 1.7501C1.5853 2.0101 1.3453 2.3501 1.1853 2.7601C1.1553 2.8701 1.1053 2.9701 1.0853 3.0901C1.0753 3.1501 1.0553 3.2001 1.0453 3.2601C1.0453 3.3201 1.0253 3.3801 1.0253 3.4401C1.0053 3.5601 1.0053 3.6801 1.0053 3.8101C1.0053 3.9401 1.0053 4.0801 1.0053 4.2201C1.0253 5.3401 1.0453 6.6301 1.0753 8.0901C1.0953 9.0601 1.1053 10.1101 1.1253 11.2201C1.1553 12.3301 1.1853 13.5201 1.1653 14.7801C1.0253 16.0301 1.4253 17.3601 1.2053 18.7501C1.1453 20.1401 1.2053 21.5901 1.2453 23.1101C1.2953 24.6301 1.1553 26.2101 1.2853 27.8501C1.5553 29.4901 0.985299 31.2001 1.3253 32.9601C1.3953 34.7201 1.3753 36.5401 1.3653 38.4201C1.1553 40.3001 1.3653 42.2301 1.4053 44.2101C1.1553 46.2001 1.2653 48.2301 1.4353 50.3201C1.0953 52.4101 1.1453 54.5501 1.4653 56.7401C1.4653 57.8301 1.4353 58.9401 1.4253 60.0601C1.4253 60.3401 1.4253 60.6301 1.4253 60.8901C1.4253 61.1101 1.4653 61.3301 1.5253 61.5501C1.6653 61.9701 1.9353 62.3601 2.2853 62.6201C2.4553 62.7601 2.6353 62.8901 2.8353 62.9701C2.9353 63.0201 3.0353 63.0501 3.1453 63.0901C3.2553 63.1101 3.3553 63.1501 3.4653 63.1501C3.5753 63.1701 3.6853 63.1701 3.7953 63.1701C3.9253 63.1701 4.0753 63.1701 4.2153 63.1701C4.5053 63.1701 4.7953 63.1701 5.0853 63.1601C6.2453 63.1501 7.4253 63.1501 8.6053 63.1801C10.9753 62.9501 13.3953 62.9601 15.8453 63.1601C18.3053 62.9101 20.7953 63.0101 23.3353 63.1401C25.8653 63.2801 28.4453 62.9201 31.0453 63.1201C33.6553 63.1401 36.2953 63.0601 38.9753 63.1001C41.6553 63.2001 44.3653 63.3101 47.1053 63.0901C49.8453 63.0301 52.6153 62.9501 55.4153 63.0901C58.2153 62.8301 61.0453 62.9401 63.8953 63.0901C66.7453 63.0501 69.6253 63.2301 72.5353 63.0901C75.4353 63.1301 78.3653 62.9801 81.3053 63.0901C81.8353 63.1101 82.3753 62.9301 82.7953 62.5701C83.2153 62.2201 83.5053 61.7101 83.5653 61.1701C83.5953 60.9401 83.5853 60.5201 83.5853 60.1701C83.5853 59.8101 83.5853 59.4401 83.5753 59.0801C83.5653 58.3501 83.5353 57.6201 83.4953 56.9001C83.3253 54.0001 83.5653 51.1201 83.4953 48.2601C83.7453 45.4101 83.4153 42.5801 83.4953 39.7801C83.4753 36.9801 83.6353 34.2101 83.5053 31.4701C83.4553 28.7301 83.4153 26.0201 83.5153 23.3401C83.1353 20.6601 83.6153 18.0201 83.5353 15.4101C83.6953 12.8001 83.5153 10.2301 83.5553 7.7001C83.5153 6.4301 83.5553 5.1701 83.5953 3.9301C83.5953 3.6801 83.5753 3.4501 83.5153 3.2201C83.4453 2.9901 83.3453 2.7701 83.2153 2.5801C82.9453 2.1901 82.5353 1.8901 82.0953 1.7601C81.8853 1.6701 81.6553 1.6201 81.4253 1.6101H81.3353C81.3353 1.6101 81.2753 1.6101 81.2353 1.6101H81.0053H80.5453C79.9353 1.6101 79.3353 1.6301 78.7253 1.6401C77.5153 1.6601 76.3253 1.6601 75.1353 1.5901C72.7653 1.7801 70.4353 1.4301 68.1553 1.5601C65.8753 1.5601 63.6353 1.5701 61.4453 1.5301C59.2553 1.2301 57.1153 1.4801 55.0253 1.5001C52.9353 1.4701 50.8953 1.6701 48.9153 1.4701C46.9353 1.4501 44.9953 1.3201 43.1253 1.4301C41.2453 1.4701 39.4253 1.0001 37.6653 1.3901C35.9053 1.4601 34.1953 1.0901 32.5553 1.3501C30.9153 1.5901 29.3353 1.3201 27.8153 1.3101C26.2953 1.3001 24.8453 1.2801 23.4553 1.2701C17.2053 1.2101 12.2853 1.1401 8.9353 1.0601C7.2553 1.0201 5.9753 0.990097 5.1053 0.950097C4.2353 0.910097 3.7953 0.870097 3.7953 0.830097C3.7953 0.790097 4.3453 0.740097 5.4153 0.700097C6.4853 0.660097 8.0653 0.620097 10.1153 0.580097C14.2253 0.500097 20.2353 0.420097 27.8253 0.360097C29.3453 0.350097 30.9253 0.140097 32.5653 0.320097C34.2053 0.320097 35.9053 0.160097 37.6753 0.280097C39.4353 0.0100972 41.2553 0.230097 43.1353 0.240097C45.0153 0.230097 46.9453 0.310097 48.9253 0.210097C50.9153 0.0500972 52.9453 0.290097 55.0353 0.180097C57.1253 0.350097 59.2653 0.300097 61.4553 0.150097C63.6453 0.310097 65.8753 0.120097 68.1653 0.120097C70.4453 0.370097 72.7753 0.200097 75.1453 0.0900972C76.3353 0.0400972 77.5253 0.0500972 78.7353 0.0700972C79.3353 0.0700972 79.9453 0.0800972 80.5553 0.0900972H81.0153H81.2453C81.2753 0.0900972 81.3253 0.0900972 81.3753 0.0900972H81.5153C81.8953 0.120097 82.2753 0.190097 82.6453 0.320097C83.3653 0.600097 83.9853 1.1001 84.4353 1.7301C84.6553 2.0501 84.8253 2.4001 84.9453 2.7701C85.0653 3.1401 85.1153 3.5401 85.1253 3.9201C85.1453 5.1701 85.1553 6.4301 85.1353 7.6901C85.2553 10.2201 85.2953 12.8001 85.1553 15.4001C85.2353 18.0101 85.1753 20.6501 85.1753 23.3301C85.2753 26.0101 85.1653 28.7201 85.1853 31.4601C85.2353 34.2001 84.9153 36.9701 85.1953 39.7701C85.2353 42.5701 85.1553 45.4001 85.1953 48.2501C85.1553 51.1001 85.1253 53.9801 85.1953 56.8901C85.1253 57.6201 85.0853 58.3401 85.0653 59.0701C85.0553 59.4301 85.0453 59.8001 85.0453 60.1601C85.0453 60.5301 85.0653 60.8501 85.0253 61.3401C84.9353 62.2501 84.4953 63.1101 83.8253 63.7401C83.1553 64.3801 82.2353 64.7701 81.2853 64.8001C78.3353 64.8801 75.4153 64.8401 72.5053 64.8001C69.6053 64.8301 66.7253 64.8101 63.8653 64.8001C61.0153 64.8801 58.1853 64.6801 55.3853 64.8001C52.5853 64.9201 49.8153 64.6701 47.0753 64.7901C44.3353 64.8701 41.6253 64.9101 38.9453 64.7801C36.2653 64.7801 33.6253 64.5301 31.0153 64.7601C28.4053 64.8101 25.8353 65.1301 23.3053 64.7401C20.7653 64.8301 18.2753 64.5601 15.8153 64.7201C13.3653 64.4401 10.9453 64.7101 8.5753 64.7001C7.3853 64.6701 6.2153 64.6301 5.0553 64.6201C4.7653 64.6201 4.4753 64.6201 4.1853 64.6201C4.0353 64.6201 3.9053 64.6201 3.7453 64.6201C3.5653 64.6201 3.3953 64.6101 3.2153 64.5801C3.0353 64.5601 2.8653 64.5101 2.6953 64.4701C2.5253 64.4101 2.3553 64.3601 2.1953 64.2901C1.8653 64.1501 1.5753 63.9601 1.2953 63.7401C0.745299 63.3001 0.335299 62.6801 0.125299 62.0001C0.025299 61.6601 -0.0247009 61.3001 -0.0247009 60.9501C-0.0247009 60.6501 -0.0247009 60.3801 -0.00470094 60.1001C0.0252991 58.9801 0.0652991 57.8801 0.0452991 56.7801C-0.114701 54.5901 0.255299 52.4501 0.0752991 50.3601C0.115299 48.2701 0.0552991 46.2301 0.105299 44.2501C-0.274701 42.2701 0.105299 40.3301 0.135299 38.4601C0.185299 36.5801 -0.114701 34.7601 0.175299 33.0001C-0.114701 31.2401 0.135299 29.5401 0.215299 27.8901C0.295299 26.2501 0.0952991 24.6701 0.255299 23.1501C0.0552991 21.6301 0.365299 20.1801 0.295299 18.7901C0.425299 17.4001 0.295299 16.0801 0.335299 14.8201C0.295299 13.5701 0.305299 12.3801 0.375299 11.2601C0.395299 10.1401 0.405299 9.1001 0.425299 8.1301C0.455299 6.6701 0.475299 5.3801 0.495299 4.2601C0.495299 4.1201 0.495299 3.9901 0.505299 3.8501C0.515299 3.7101 0.515299 3.5601 0.545299 3.4301C0.555299 3.3601 0.565299 3.2901 0.585299 3.2301C0.605299 3.1601 0.625299 3.1001 0.635299 3.0401C0.665299 2.9101 0.725299 2.7901 0.765299 2.6801C0.965299 2.2201 1.2553 1.8601 1.5553 1.5901C1.8553 1.3201 2.1653 1.1401 2.4453 1.0301C2.5853 0.960097 2.7153 0.940097 2.8353 0.890097C2.9553 0.870097 3.0653 0.840097 3.1653 0.830097C3.2653 0.830097 3.3553 0.820097 3.4253 0.810097C3.5053 0.810097 3.5653 0.810097 3.6153 0.810097C3.7153 0.810097 3.7653 0.830097 3.7653 0.840097L3.8453 0.780097Z" fill="#0061EF"/>
<path d="M34.0575 63.8801C34.1575 63.9001 34.1575 64.5501 34.0675 65.7201C34.0475 65.9201 34.0375 66.1301 34.0175 66.3501C34.0175 66.5801 33.9975 66.8201 33.9475 67.0701C33.7675 67.3001 34.1175 67.6201 33.8675 67.8701C33.7675 68.1401 33.7775 68.4401 33.7675 68.7501C33.7675 69.0601 33.5775 69.3501 33.6575 69.7001C33.8775 70.0701 33.2575 70.3201 33.5375 70.7201C33.5575 71.0801 33.4775 71.4401 33.3975 71.8201C33.1375 72.1601 33.2775 72.5801 33.2475 72.9801C33.2075 73.0201 33.1775 73.0701 33.1475 73.1201C33.1175 73.1501 33.1075 73.1701 33.0875 73.2001C33.0575 73.2501 33.0475 73.3101 33.0475 73.3601C33.0475 73.4601 33.1075 73.5301 33.1975 73.5201C33.1675 73.5501 33.1375 73.5801 33.1175 73.6201C33.0475 73.7501 33.1475 73.8001 33.2675 73.7801C33.3275 73.7701 33.4075 73.7401 33.4675 73.7001C33.4975 73.6801 33.5275 73.6501 33.5475 73.6201C33.5775 73.5901 33.5775 73.5601 33.6375 73.5201C34.0775 73.5101 34.5275 73.6401 34.9975 73.4901C35.4575 73.4701 35.9275 73.4001 36.4075 73.4601C36.8875 73.2301 37.3775 73.2401 37.8675 73.4401C38.3675 73.1901 38.8675 73.2901 39.3775 73.4201C39.8875 73.5601 40.4075 73.2001 40.9375 73.4001C41.4675 73.4201 41.9975 73.3401 42.5375 73.3801C43.0775 73.4801 43.6275 73.5901 44.1775 73.3701C44.7275 73.3101 45.2875 73.2301 45.8575 73.3701C46.4175 73.1101 46.9975 73.2201 47.5675 73.3701C48.1475 73.3301 48.7275 73.5101 49.3175 73.3701C49.9075 73.4101 50.4975 73.2601 51.0875 73.3701C51.2275 73.3901 51.3575 73.4001 51.4975 73.4201H51.5475C51.5475 73.4201 51.5575 73.4201 51.5675 73.4201H51.5875C51.5875 73.4201 51.6175 73.4401 51.6375 73.4401C51.6975 73.4501 51.7775 73.4401 51.7675 73.3901C51.7575 73.3701 51.7375 73.3601 51.7275 73.3401C51.6275 73.2301 51.6475 73.2501 51.6675 73.2101C51.6875 73.2501 51.6675 73.0301 51.6675 72.9001C51.6575 72.7601 51.6375 72.6101 51.5975 72.4701C51.7475 71.8601 51.3375 71.3501 51.3375 70.7801C51.2275 70.2201 51.2975 69.6501 51.0875 69.1201C50.9575 68.5801 50.8275 68.0501 50.8475 67.5001C50.3875 67.0301 50.7775 66.4201 50.6075 65.9201C50.6475 65.6501 50.6075 65.3901 50.5375 65.1401L50.4875 64.9501L50.4675 64.8601V64.8401C50.4675 64.8401 50.4375 64.7901 50.4375 64.7601C50.4175 64.7401 50.4175 64.7201 50.4175 64.6901C50.3875 64.6801 50.3675 64.6401 50.3175 64.6201C50.3075 64.6201 50.2875 64.6201 50.2775 64.6201C50.2775 64.6201 50.2675 64.6201 50.2575 64.6201H50.2275C50.1375 64.6201 50.0375 64.6401 49.9475 64.6701C49.4475 64.6401 48.9675 64.7901 48.4875 64.6501C48.0075 64.8401 47.5375 64.4901 47.0775 64.6201C46.6175 64.6201 46.1675 64.6301 45.7175 64.5901C45.2775 64.3001 44.8475 64.5401 44.4175 64.5601C43.9975 64.5301 43.5875 64.7301 43.1775 64.5301C42.7775 64.5101 42.3875 64.3801 42.0075 64.4901C41.6275 64.5301 41.2575 64.0601 40.9075 64.4501C40.5475 64.5201 40.2075 64.1501 39.8775 64.4101C39.5475 64.6501 39.2275 64.3801 38.9175 64.3701C38.6075 64.3601 38.3175 64.3401 38.0375 64.3301C35.5075 64.2001 34.0675 64.0501 34.0675 63.8901C34.0675 63.7101 35.8575 63.5501 38.9175 63.4101C39.2275 63.4001 39.5475 63.1901 39.8775 63.3701C40.2075 63.3701 40.5575 63.2101 40.9075 63.3301C41.2675 63.0601 41.6275 63.2801 42.0075 63.2901C42.3875 63.2801 42.7775 63.3601 43.1775 63.2501C43.5775 63.0901 43.9875 63.3301 44.4175 63.2201C44.8375 63.3901 45.2675 63.3401 45.7175 63.1901C46.1575 63.3501 46.6075 63.1501 47.0775 63.1601C47.5375 63.4101 48.0075 63.2401 48.4875 63.1301C48.9675 63.0401 49.4575 63.1701 49.9475 63.1101C50.0375 63.1101 50.1375 63.1201 50.2275 63.1201H50.4675L50.7275 63.1101C51.0675 63.1101 51.4275 63.0801 51.7875 63.0801C51.8275 63.2901 51.8575 63.5101 51.8875 63.7401C51.9475 63.9501 52.0075 64.1801 52.0675 64.4101L52.1075 64.5901L52.1375 64.6801C52.1575 64.7401 52.1675 64.8101 52.1775 64.8701C52.2275 65.1201 52.2375 65.3901 52.2175 65.6601C52.3775 66.1701 52.3975 66.7101 52.4875 67.2401C52.6675 67.7601 52.6475 68.3201 52.7575 68.8601C52.8975 69.4001 52.6675 70.0001 53.0275 70.5201C53.1475 71.0701 53.1675 71.6501 53.3075 72.2101C53.3175 72.3501 53.3375 72.5001 53.3475 72.6401C53.3675 72.8001 53.3775 72.8801 53.4175 73.1901C53.4975 73.7201 53.5875 74.2401 53.7175 74.8201C53.7075 74.8901 53.6975 74.9501 53.6875 75.0201C53.0875 74.9201 52.6375 74.9101 52.1775 74.9401C52.0575 74.9401 51.9475 74.9601 51.8275 74.9701L51.6475 74.9901C51.6475 74.9901 51.5775 74.9901 51.5675 74.9901H51.5175C51.3775 75.0301 51.2475 75.0501 51.1075 75.0801C50.5075 75.1601 49.9175 75.1201 49.3375 75.0801C48.7475 75.1101 48.1675 75.0901 47.5875 75.0801C47.0075 75.1601 46.4375 74.9601 45.8775 75.0801C45.3075 75.2001 44.7475 74.9501 44.1975 75.0701C43.6475 75.1501 43.0975 75.1901 42.5575 75.0601C42.0175 75.0601 41.4875 74.8101 40.9575 75.0401C40.4275 75.0901 39.9075 75.4101 39.3975 75.0201C38.8875 75.1101 38.3775 74.8301 37.8875 75.0001C37.3875 74.7201 36.9075 74.9901 36.4275 74.9801C35.9475 74.9201 35.4775 74.8301 35.0175 74.9501C34.5575 75.0801 34.1075 74.8801 33.6575 74.9201C33.6275 74.9401 33.5075 74.9501 33.4275 74.9601C33.3375 74.9601 33.2475 74.9601 33.1575 74.9601C32.9775 74.9601 32.8175 74.9301 32.6575 74.9101C32.3375 74.8601 32.0775 74.8101 31.6975 74.8601C31.6975 74.8201 31.6975 74.7801 31.6875 74.7401C31.7675 74.3801 31.8075 74.0401 31.8575 73.7001C31.8775 73.5301 31.9075 73.3601 31.9375 73.1901C31.9475 73.1101 31.9675 73.0101 31.9875 72.9501C31.9975 72.9001 32.0075 72.8501 32.0275 72.8001C31.7175 72.3401 32.1575 72.0201 32.2475 71.6501C32.3575 71.2801 32.1175 70.8701 32.4575 70.5701C32.2275 70.1701 32.5275 69.8701 32.6575 69.5601C32.7875 69.2501 32.6375 68.9001 32.8475 68.6201C32.6975 68.2901 33.0475 68.0401 33.0275 67.7601C33.2075 67.5001 33.1175 67.2201 33.1975 66.9701C33.1975 66.7101 33.2475 66.4801 33.3575 66.2701C33.4075 66.0501 33.4575 65.8401 33.5075 65.6501C33.7875 64.5001 33.9875 63.8801 34.0875 63.9001L34.0575 63.8801Z" fill="#0061EF"/>
<path d="M25.8597 74.19C25.9697 74.19 26.0697 75.05 26.1597 76.61C26.1697 76.87 26.1897 77.15 26.2097 77.45C26.2397 77.75 26.2697 78.07 26.2497 78.41C26.2097 78.51 26.2097 78.55 26.2297 78.61C26.2397 78.66 26.2797 78.71 26.2997 78.75C26.3597 78.83 26.3997 78.86 26.2997 79.07C26.3797 79.11 26.4997 79.11 26.6197 79.1C26.6797 79.1 26.7397 79.08 26.7997 79.07C26.8297 79.07 26.8497 79.06 26.8897 79.05L27.0397 79.03C27.4497 78.98 27.8697 79.12 28.3097 78.99C28.7497 78.72 29.2097 79.29 29.6797 78.95C30.1497 78.88 30.6397 78.9 31.1497 78.91C31.6497 79.12 32.1697 78.91 32.7097 78.87C33.2397 79.12 33.7897 79.01 34.3497 78.84C34.9097 79.18 35.4897 79.13 36.0797 78.81C36.6697 78.8 37.2697 78.93 37.8797 78.78C38.4897 78.76 39.1197 78.69 39.7597 78.75C40.3997 78.52 41.0497 78.53 41.7097 78.73C42.3697 78.48 43.0397 78.58 43.7197 78.71C44.3997 78.85 45.0897 78.49 45.7897 78.69C46.4897 78.7 47.1997 78.63 47.9197 78.67C48.6397 78.77 49.3697 78.88 50.0997 78.66C50.8397 78.6 51.5797 78.52 52.3297 78.65C53.0797 78.39 53.8397 78.5 54.6097 78.65C55.3797 78.61 56.1497 78.79 56.9297 78.65C57.3197 78.67 57.7097 78.65 58.1097 78.62C58.3897 78.62 58.2997 78.6 58.3397 78.6C58.3597 78.6 58.3897 78.61 58.4397 78.64C58.4397 78.64 58.4797 78.61 58.4997 78.58C58.5197 78.53 58.5297 78.58 58.5297 78.31C58.5397 77.92 58.5297 77.53 58.4397 77.14C58.3597 76.75 58.3697 76.36 58.3997 75.97C58.4197 75.78 58.4297 75.58 58.4397 75.39V75.17C58.4397 75.17 58.4397 75.14 58.4397 75.13C58.5097 75.07 58.5297 75 58.5297 74.94C58.4597 74.94 58.3697 74.97 58.3197 75H58.2997V75.02H58.2497C58.1797 75.02 58.1097 75.04 58.0397 75.04C57.8997 75.04 57.7597 75.04 57.6297 75.03C56.8797 75.05 56.1297 74.89 55.3897 75.02C54.6497 75.07 53.9297 75.11 53.2097 75.01C52.4897 75.39 51.7797 74.91 51.0797 74.99C50.3797 74.83 49.6897 75.01 49.0097 74.97C48.3297 75.04 47.6597 74.8 46.9997 74.95C46.3397 74.92 45.6897 75.07 45.0497 74.93C44.4097 75.12 43.7897 74.77 43.1697 74.9C42.5597 74.9 41.9597 74.91 41.3697 74.87C40.7797 74.58 40.2097 74.82 39.6397 74.84C39.0797 74.81 38.5297 75.01 37.9997 74.81C37.4697 74.79 36.9497 74.66 36.4397 74.77C35.9397 74.81 35.4497 74.34 34.9697 74.73C34.4997 74.8 34.0397 74.43 33.5997 74.69C33.1597 74.93 32.7297 74.66 32.3297 74.65C31.9197 74.64 31.5297 74.62 31.1597 74.61C27.7997 74.48 25.8697 74.33 25.8697 74.17C25.8697 73.99 28.2497 73.83 32.3297 73.69C32.7397 73.68 33.1597 73.47 33.5997 73.65C34.0397 73.65 34.4997 73.49 34.9697 73.61C35.4397 73.34 35.9297 73.56 36.4397 73.57C36.9397 73.56 37.4597 73.64 37.9997 73.53C38.5297 73.37 39.0797 73.61 39.6397 73.5C40.1997 73.67 40.7797 73.62 41.3697 73.47C41.9597 73.63 42.5597 73.43 43.1697 73.44C43.7797 73.69 44.4097 73.51 45.0497 73.41C45.6897 73.32 46.3397 73.45 46.9997 73.39C47.6597 73.44 48.3297 73.33 49.0097 73.37C49.6897 73.25 50.3797 73.21 51.0797 73.35C51.7797 73.27 52.4897 73.33 53.2097 73.33C53.9297 73.23 54.6597 73.34 55.3897 73.32C56.1297 73.27 56.8697 73.59 57.6297 73.31C57.7697 73.31 57.9097 73.31 58.0397 73.31C58.2197 73.31 58.4097 73.31 58.5897 73.31C59.0997 73.31 59.6197 73.31 60.1397 73.32C60.1397 73.7 60.1397 74.08 60.1597 74.47V75.01L60.1397 75.23V75.37C60.1297 75.56 60.1197 75.76 60.1197 75.95C60.1197 76.34 60.1197 76.73 60.1597 77.12C60.0197 77.51 59.9997 77.9 60.0197 78.29C60.0397 78.59 60.0597 78.89 60.0797 79.2C60.1097 79.58 60.1397 79.97 60.1597 80.35C59.8097 80.37 59.4397 80.38 59.0597 80.39C58.7097 80.39 58.2197 80.39 58.0997 80.39C57.7097 80.39 57.3097 80.36 56.9197 80.35C56.1397 80.38 55.3697 80.36 54.5997 80.35C53.8297 80.43 53.0697 80.23 52.3197 80.35C51.5697 80.47 50.8197 80.22 50.0897 80.34C49.3497 80.42 48.6197 80.46 47.9097 80.33C47.1897 80.33 46.4797 80.08 45.7797 80.31C45.0797 80.36 44.3897 80.68 43.7097 80.29C43.0297 80.39 42.3597 80.11 41.6997 80.27C41.0397 79.99 40.3897 80.26 39.7497 80.25C39.1097 80.19 38.4897 80.1 37.8697 80.22C37.2597 80.35 36.6497 80.15 36.0697 80.19C35.4797 80.35 34.9097 79.98 34.3397 80.16C33.7797 80.12 33.2297 80.19 32.6997 80.13C32.1697 80.51 31.6497 80.13 31.1397 80.09C30.6397 80.04 30.1497 80.34 29.6697 80.05C29.1997 80.34 28.7397 80.09 28.2997 80.01C27.8597 79.93 27.4297 80.13 27.0297 79.97C26.9797 80 26.9297 80.01 26.8797 80.02C26.8197 80.03 26.7297 80.04 26.6597 80.04C26.4997 80.04 26.3597 80.02 26.2197 80C25.9397 79.96 25.7197 79.9 25.4297 79.93V79.91C25.4897 79.57 25.4997 79.34 25.4897 79.09C25.4897 78.97 25.4797 78.85 25.4697 78.73C25.4697 78.61 25.4697 78.47 25.4697 78.4C25.4297 78.06 25.4397 77.74 25.5197 77.44C25.5397 77.14 25.5497 76.86 25.5597 76.6C25.6497 75.03 25.7597 74.18 25.8597 74.18V74.19Z" fill="#0061EF"/>
<path d="M84.3803 50.8899C84.3803 50.9999 83.4603 51.0999 81.7703 51.1899C81.4903 51.2099 81.1903 51.2199 80.8603 51.2399C80.5403 51.2699 80.1903 51.2999 79.8303 51.2899C79.4703 51.1499 79.0803 51.5499 78.6803 51.3299C78.2803 51.2699 77.8603 51.3299 77.4103 51.3699C76.9703 51.4199 76.5103 51.2799 76.0303 51.4099C75.5503 51.6799 75.0603 51.1099 74.5503 51.4499C74.0403 51.5199 73.5103 51.4999 72.9703 51.4899C72.4303 51.2799 71.8603 51.4899 71.2903 51.5199C70.7103 51.2699 70.1203 51.3799 69.5203 51.5499C68.9103 51.2099 68.2903 51.2599 67.6603 51.5799C67.0303 51.5899 66.3803 51.4599 65.7103 51.6099C65.0503 51.6299 64.3703 51.6999 63.6903 51.6399C63.0003 51.8699 62.3003 51.8599 61.5903 51.6599C60.8803 51.9099 60.1503 51.8099 59.4203 51.6799C58.6903 51.5399 57.9403 51.8999 57.1803 51.6999C56.4203 51.6799 55.6603 51.7599 54.8803 51.7199C54.1003 51.6199 53.3203 51.5099 52.5203 51.7299C51.7203 51.7899 50.9203 51.8699 50.1103 51.7399C49.3003 51.9999 48.4803 51.8899 47.6503 51.7399C46.8203 51.7799 45.9903 51.5999 45.1503 51.7399C44.3103 51.6999 43.4603 51.8599 42.6003 51.7399C41.7403 51.6599 40.9003 51.5799 40.0603 51.7399C39.2203 51.9099 38.3803 51.6699 37.5503 51.7399C36.7203 51.4899 35.9003 51.8199 35.0903 51.7399C34.2803 51.7599 33.4703 51.5999 32.6803 51.7299C31.8903 51.7799 31.1003 51.8199 30.3203 51.7199C29.5403 52.0999 28.7803 51.6199 28.0203 51.6999C27.2603 51.5399 26.5203 51.7199 25.7803 51.6799C25.0403 51.7499 24.3203 51.4999 23.6103 51.6599C22.9003 51.6299 22.2003 51.7799 21.5103 51.6399C20.8203 51.8299 20.1503 51.4799 19.4903 51.6099C18.8303 51.6099 18.1803 51.6199 17.5403 51.5799C16.9103 51.2899 16.2803 51.5299 15.6803 51.5499C15.0703 51.5199 14.4803 51.7199 13.9103 51.5199C13.3303 51.4999 12.7703 51.3699 12.2303 51.4899C11.6903 51.5299 11.1603 51.0599 10.6503 51.4499C10.1403 51.5199 9.65031 51.1499 9.17031 51.4099C8.69031 51.6499 8.23031 51.3799 7.79031 51.3699C7.35031 51.3599 6.93031 51.3399 6.52031 51.3299C2.89031 51.1999 0.820312 51.0499 0.820312 50.8999C0.820312 50.7199 3.39031 50.5599 7.79031 50.4199C8.23031 50.4099 8.69031 50.1999 9.17031 50.3799C9.65031 50.3799 10.1403 50.2199 10.6503 50.3399C11.1603 50.0699 11.6903 50.2899 12.2303 50.2999C12.7703 50.2899 13.3303 50.3699 13.9103 50.2699C14.4903 50.1099 15.0803 50.3499 15.6803 50.2399C16.2903 50.4099 16.9103 50.3599 17.5403 50.2099C18.1703 50.3699 18.8203 50.1799 19.4903 50.1799C20.1503 50.4299 20.8303 50.2599 21.5103 50.1499C22.2003 50.0599 22.9003 50.1899 23.6103 50.1299C24.3203 50.1799 25.0503 50.0699 25.7803 50.1099C26.5103 49.9899 27.2603 49.9499 28.0203 50.0899C28.7803 50.0099 29.5403 50.0699 30.3203 50.0699C31.1003 49.9699 31.8803 50.0799 32.6803 50.0599C33.4803 50.0099 34.2803 50.3299 35.0903 50.0599C35.9003 50.0199 36.7203 50.0999 37.5503 50.0599C38.3803 50.0899 39.2103 50.1299 40.0603 50.0599C40.9003 50.3399 41.7503 50.1699 42.6003 50.0599C43.4503 49.9799 44.3003 50.0199 45.1503 50.0599C45.9903 50.0299 46.8303 50.0499 47.6503 50.0599C48.4803 49.9799 49.3003 50.1799 50.1103 50.0599C50.9203 49.9399 51.7303 50.1899 52.5203 50.0599C53.3203 49.9799 54.1003 49.9399 54.8803 50.0699C55.6603 50.0699 56.4203 50.3199 57.1803 50.0899C57.9403 50.0399 58.6803 49.7299 59.4203 50.1099C60.1603 50.0099 60.8803 50.2999 61.5903 50.1299C62.3003 50.4099 63.0003 50.1399 63.6903 50.1499C64.3803 50.1999 65.0503 50.2999 65.7103 50.1799C66.3703 50.0499 67.0203 50.2499 67.6603 50.2099C68.2903 50.0499 68.9203 50.4199 69.5203 50.2399C70.1303 50.2799 70.7203 50.2199 71.2903 50.2699C71.8703 49.8899 72.4303 50.2699 72.9703 50.2999C73.5103 50.3499 74.0403 50.0499 74.5503 50.3399C75.0603 50.0499 75.5503 50.2999 76.0303 50.3799C76.5103 50.4599 76.9603 50.2599 77.4103 50.4199C77.8503 50.2199 78.2703 50.5299 78.6803 50.4599C79.0803 50.5899 79.4703 50.4599 79.8303 50.4999C80.1903 50.4499 80.5403 50.4699 80.8603 50.5399C81.1803 50.5599 81.4903 50.5699 81.7703 50.5899C83.4603 50.6799 84.3803 50.7799 84.3803 50.8899Z" fill="#0061EF"/>
<path d="M42.5912 54.3498C42.5912 54.3998 42.5412 54.4598 42.4412 54.5098C42.3912 54.5398 42.3412 54.5598 42.2712 54.5998C42.2112 54.6398 42.1312 54.6698 42.0512 54.7098C42.0012 54.7398 41.9412 54.7698 41.8812 54.7998C41.8512 54.8198 41.8212 54.8398 41.7912 54.8598C41.7612 54.8798 41.7312 54.8998 41.6912 54.8998C41.5712 54.7998 41.6512 55.1898 41.4912 55.0198C41.3912 54.9998 41.3412 55.0798 41.2912 55.1698C41.2512 55.2598 41.0912 55.1798 41.0912 55.3498C41.1312 55.4898 41.0612 55.4498 40.9812 55.4298C40.9012 55.4098 40.8212 55.3998 40.9012 55.5598C40.8812 55.6698 40.8012 55.7298 40.7212 55.7898C40.6112 55.7598 40.5712 55.7998 40.5712 55.8598C40.5712 55.9198 40.5712 55.9998 40.5712 56.0498C40.3112 55.9998 40.3212 56.1698 40.4412 56.3398C40.0812 56.2898 40.0812 56.4498 40.3412 56.6598C40.3212 56.7098 40.2912 56.7598 40.2612 56.8098C40.2312 56.8598 40.2212 56.9198 40.2912 56.9898C40.2912 57.0498 40.3012 57.1098 40.3112 57.1698C40.3112 57.2298 40.3112 57.2898 40.2812 57.3498C40.3912 57.4098 40.4512 57.4598 40.4612 57.5198C40.4612 57.5498 40.4612 57.5798 40.4312 57.6098C40.4112 57.6398 40.3812 57.6698 40.3412 57.7098C40.6012 57.7898 40.5312 57.8998 40.4412 58.0698C40.4012 58.1498 40.4712 58.1898 40.5312 58.2298C40.6012 58.2698 40.6612 58.2998 40.6012 58.3998C40.6212 58.4598 40.6712 58.5098 40.7112 58.5598C40.7512 58.6098 40.8012 58.6598 40.8212 58.7198C40.8212 58.7598 40.8212 58.8098 40.8212 58.8498C40.8212 58.8898 40.8412 58.9198 40.8612 58.9498C40.9012 59.0098 40.9712 59.0398 41.1012 58.9998C41.1712 59.0198 41.2412 59.0398 41.3012 59.0698C41.3612 59.0998 41.4012 59.1498 41.4212 59.2398C41.6712 59.0898 41.7112 59.2398 41.7812 59.4198C41.8512 59.4198 41.9012 59.4798 41.9612 59.5198C42.0212 59.5598 42.0912 59.5898 42.1712 59.5198C42.2312 59.5498 42.3112 59.5298 42.3812 59.5198C42.4512 59.4998 42.5212 59.4998 42.5912 59.5598C42.6612 59.5998 42.7312 59.6298 42.8112 59.6398C42.8812 59.6398 42.9512 59.6098 43.0112 59.5198C43.0612 59.4298 43.1212 59.4198 43.2012 59.4398C43.2712 59.4498 43.3512 59.4598 43.4012 59.4098C43.5112 59.4998 43.5712 59.4398 43.6112 59.3798C43.6612 59.3198 43.6812 59.2198 43.7612 59.2298C43.8112 59.1898 43.8812 59.1698 43.9512 59.1498C44.0212 59.1298 44.0812 59.0898 44.0812 58.9898C44.1212 58.9298 44.1412 58.8698 44.1812 58.8198C44.2212 58.7698 44.2712 58.7298 44.3512 58.7098C44.2412 58.5398 44.2912 58.5198 44.3712 58.4998C44.4512 58.4798 44.5812 58.4798 44.5712 58.3998C44.6712 58.3798 44.6912 58.3198 44.7012 58.2498C44.7012 58.1798 44.7012 58.1098 44.7312 58.0598C44.7112 57.9898 44.7712 57.9398 44.8212 57.8898C44.8712 57.8398 44.9012 57.7798 44.8312 57.6998C44.8412 57.6698 44.8412 57.6398 44.8412 57.6098C44.8412 57.5798 44.8212 57.5498 44.8212 57.5198C44.8012 57.4598 44.8212 57.3998 44.8812 57.3398C44.7812 57.2798 44.8212 57.2298 44.8612 57.1598C44.9012 57.0998 44.9412 57.0298 44.8612 56.9798V56.8898C44.8612 56.8898 44.8312 56.8398 44.8212 56.8098C44.8112 56.7598 44.8012 56.6998 44.8012 56.6398C44.9212 56.5398 44.9112 56.4798 44.8712 56.4298C44.8312 56.3798 44.7412 56.3598 44.7112 56.3198C44.6912 56.1998 44.4612 56.2198 44.5812 56.0298C44.5412 55.9398 44.5812 55.7598 44.4212 55.7598C44.3712 55.7398 44.4212 55.6298 44.4212 55.5498C44.4312 55.4698 44.4012 55.4198 44.2312 55.5298C44.1712 55.5298 44.1912 55.4298 44.1812 55.3598C44.1812 55.2898 44.1512 55.2398 44.0312 55.3198C43.8212 55.4598 43.9012 55.1998 43.8312 55.1398C43.7712 55.0798 43.7012 55.0398 43.6312 54.9898C43.0312 54.5798 42.5412 54.4898 42.5512 54.3198C42.5512 54.2798 42.5912 54.2398 42.6612 54.1998C42.7312 54.1598 42.8512 54.1198 43.0012 54.0998C43.3012 54.0598 43.7712 54.0798 44.3112 54.3198C44.4112 54.3698 44.6412 54.2598 44.6412 54.4898C44.6912 54.5298 44.7712 54.5398 44.8412 54.5598C44.9112 54.5798 44.9612 54.6198 44.9812 54.7098C45.2712 54.5998 45.2212 54.8798 45.3112 54.9898C45.4212 55.0898 45.4312 55.2698 45.6212 55.3298C45.8412 55.3898 45.7212 55.6398 45.8912 55.7398C45.8212 55.9598 45.9112 56.0898 46.1212 56.2098C46.0712 56.3198 46.1012 56.3998 46.1512 56.4798C46.1812 56.5198 46.2012 56.5598 46.2312 56.5998C46.2512 56.6398 46.2712 56.6898 46.2812 56.7298C46.1712 56.8398 46.1712 56.9298 46.2012 57.0198C46.2312 57.1098 46.3112 57.1998 46.3612 57.2998C46.4112 57.3998 46.3912 57.4998 46.3712 57.5998C46.3712 57.6498 46.3512 57.6998 46.3412 57.7498C46.3412 57.7998 46.3312 57.8498 46.3412 57.8998C46.2712 58.0898 46.3212 58.3198 46.2312 58.5098C46.2512 58.6298 46.2512 58.7398 46.2312 58.8498C46.1912 58.9598 46.1212 59.0498 46.0112 59.1098C45.9812 59.3398 45.8012 59.5098 45.6712 59.6798C45.6412 59.7998 45.5712 59.8898 45.4812 59.9698C45.4012 60.0498 45.3012 60.1198 45.2212 60.1998C45.1512 60.2998 45.0212 60.3298 44.9012 60.3598C44.7812 60.3998 44.6912 60.4598 44.6712 60.6298C44.4912 60.7898 44.2412 60.8298 44.0312 60.9598C43.7912 61.0198 43.5512 61.0498 43.3312 61.1698C43.1812 61.0498 43.0712 61.0498 42.9512 61.0798C42.8312 61.1098 42.7212 61.1798 42.5912 61.2398C42.4712 61.2798 42.3412 61.2798 42.2112 61.2598C42.0912 61.2398 41.9612 61.1998 41.8512 61.1598C41.7312 61.1598 41.6112 61.1198 41.4912 61.0898C41.3712 61.0498 41.2612 60.9998 41.1512 60.9498C41.0212 60.9498 40.9212 60.8598 40.8312 60.7898C40.7312 60.7198 40.6512 60.6298 40.5212 60.6198C40.3912 60.6198 40.3112 60.5098 40.2312 60.4098C40.1512 60.3198 40.0912 60.2098 39.9712 60.1798C39.8612 60.1298 39.7512 60.0698 39.6712 59.9898C39.6312 59.9498 39.5912 59.8998 39.5712 59.8498C39.5412 59.7998 39.5312 59.7398 39.5212 59.6698C39.4512 59.5798 39.4412 59.4498 39.4112 59.3398C39.3812 59.2298 39.3312 59.1398 39.1812 59.0998C39.1112 59.0098 38.9812 58.9498 38.9012 58.8598C38.8312 58.7698 38.8012 58.6498 38.9512 58.4898C38.8812 58.3998 38.8912 58.2898 38.9112 58.1798C38.9112 58.0698 38.9412 57.9698 38.8412 57.8798C38.9012 57.8198 38.9312 57.7698 38.9412 57.7198C38.9512 57.6698 38.9412 57.6198 38.9212 57.5698C38.8912 57.4798 38.8112 57.3798 38.8212 57.2798C38.8512 57.1798 38.8912 57.0898 38.9112 56.9998C38.9312 56.9098 38.9412 56.8198 38.9012 56.7098C38.8512 56.6098 38.8812 56.5198 38.9412 56.4298C38.9912 56.3498 39.0512 56.2698 39.0612 56.1798C39.0112 56.0698 39.1012 55.9998 39.1712 55.9398C39.2412 55.8798 39.3312 55.8298 39.2812 55.7098C39.3812 55.5698 39.4212 55.4098 39.5512 55.2998C39.4412 55.1298 39.4912 55.0598 39.5812 55.0298C39.6712 54.9998 39.7912 54.9998 39.8612 54.9598C39.9312 54.9198 39.9312 54.8298 39.9612 54.7498C39.9812 54.6698 40.0412 54.6198 40.1912 54.6798C40.1512 54.5298 40.1912 54.4698 40.2712 54.4498C40.3512 54.4398 40.4512 54.4598 40.5212 54.4498C40.6612 54.4498 40.6612 54.2098 40.8512 54.2898C40.8512 54.0498 41.1012 54.2898 41.1612 54.1698C41.3112 54.2398 41.3512 54.0998 41.4512 54.0998C41.4912 54.0598 41.5312 54.0398 41.5712 54.0298C41.6212 54.0298 41.6612 54.0298 41.7112 54.0598C41.7912 54.0598 41.8712 54.0498 41.9412 54.0498C42.0512 54.0498 42.1412 54.0698 42.2312 54.0798C42.3112 54.0898 42.3812 54.1198 42.4412 54.1398C42.5512 54.1898 42.6012 54.2298 42.6012 54.2898L42.5912 54.3498Z" fill="#0061EF"/>
<path d="M19.0599 32.1101C19.0599 32.1601 18.9999 32.2201 18.8899 32.2701C18.8299 32.3001 18.7699 32.3201 18.6899 32.3601C18.6099 32.4001 18.5299 32.4301 18.4299 32.4701C18.3699 32.5001 18.2999 32.5401 18.2299 32.5701C18.1999 32.5901 18.1599 32.6201 18.1299 32.6301C18.0899 32.6501 18.0599 32.6701 18.0099 32.6801C17.8799 32.5801 17.9399 32.9701 17.7799 32.8201C17.6699 32.8101 17.5999 32.8901 17.5399 32.9901C17.4799 33.0801 17.3099 33.0201 17.2999 33.2001C17.3399 33.3401 17.2499 33.3101 17.1599 33.2901C17.0699 33.2701 16.9899 33.2701 17.0599 33.4401C17.0199 33.5701 16.9299 33.6401 16.8399 33.7201C16.7199 33.7001 16.6799 33.7501 16.6699 33.8201C16.6599 33.8901 16.6699 33.9701 16.6499 34.0401C16.3799 34.0101 16.3799 34.2001 16.4899 34.3901C16.1199 34.3601 16.1099 34.5501 16.3699 34.7701C16.3499 34.8301 16.3099 34.8901 16.2799 34.9601C16.2599 34.9901 16.2499 35.0301 16.2499 35.0601C16.2499 35.1001 16.2699 35.1401 16.2999 35.1801C16.2999 35.2501 16.2999 35.3201 16.3199 35.3901C16.3199 35.4601 16.3199 35.5301 16.2899 35.6001C16.3999 35.6701 16.4599 35.7401 16.4699 35.8101C16.4699 35.8501 16.4699 35.8801 16.4399 35.9201C16.4199 35.9601 16.3899 36.0001 16.3499 36.0401C16.6099 36.1501 16.5499 36.2801 16.4599 36.4701C16.4199 36.5601 16.4999 36.6201 16.5699 36.6701C16.6399 36.7201 16.7099 36.7701 16.6599 36.8801C16.6799 36.9601 16.7399 37.0101 16.7899 37.0701C16.8399 37.1301 16.8899 37.1901 16.9199 37.2601C16.9199 37.3101 16.9199 37.3601 16.9299 37.4001C16.9399 37.4401 16.9599 37.4901 16.9799 37.5201C17.0299 37.5901 17.1099 37.6401 17.2499 37.6001C17.3299 37.6301 17.4099 37.6601 17.4799 37.7001C17.5499 37.7401 17.5999 37.8001 17.6399 37.8901C17.9099 37.7501 17.9799 37.9201 18.0799 38.1101C18.1699 38.1101 18.2299 38.1801 18.3099 38.2301C18.3899 38.2701 18.4699 38.3101 18.5699 38.2501C18.6499 38.2801 18.7399 38.2701 18.8199 38.2501C18.9099 38.2301 18.9899 38.2301 19.0699 38.2901C19.1599 38.3301 19.2499 38.3601 19.3299 38.3601C19.4199 38.3601 19.4999 38.3201 19.5699 38.2401C19.6399 38.1401 19.7099 38.1301 19.7999 38.1501C19.8899 38.1601 19.9799 38.1601 20.0499 38.1101C20.1799 38.2001 20.2499 38.1301 20.2999 38.0601C20.3599 37.9901 20.3899 37.8901 20.4899 37.8901C20.5599 37.8401 20.6399 37.8201 20.7199 37.7901C20.7999 37.7601 20.8699 37.7101 20.8799 37.6101C20.9299 37.5401 20.9599 37.4701 21.0099 37.4101C21.0299 37.3801 21.0599 37.3501 21.0999 37.3301C21.1299 37.3101 21.1699 37.2801 21.2099 37.2701C21.1099 37.0901 21.1699 37.0601 21.2599 37.0201C21.3499 36.9901 21.4799 36.9701 21.4799 36.8801C21.5799 36.8501 21.6199 36.7701 21.6299 36.6901C21.6299 36.6101 21.6299 36.5301 21.6799 36.4601C21.6699 36.3801 21.7199 36.3201 21.7799 36.2501C21.8399 36.1901 21.8599 36.1101 21.7999 36.0301C21.8099 35.9901 21.8199 35.9601 21.8099 35.9201C21.8099 35.8801 21.7899 35.8501 21.7899 35.8101C21.7799 35.7401 21.7899 35.6701 21.8499 35.6001C21.7499 35.5301 21.7899 35.4601 21.8299 35.3901C21.8699 35.3101 21.9099 35.2401 21.8299 35.1801L21.8099 35.0801L21.7799 34.9801C21.7599 34.9101 21.7599 34.8501 21.7499 34.7801C21.8699 34.6701 21.8499 34.6001 21.7999 34.5401C21.7599 34.4801 21.6599 34.4501 21.6199 34.4001C21.5899 34.2601 21.3499 34.2601 21.4599 34.0501C21.4399 33.9901 21.4299 33.9201 21.4099 33.8601C21.3899 33.8001 21.3499 33.7401 21.2699 33.7401C21.2099 33.7101 21.2499 33.5901 21.2599 33.5001C21.2599 33.4101 21.2299 33.3501 21.0499 33.4601C20.9799 33.4501 20.9899 33.3501 20.9799 33.2801C20.9699 33.2101 20.9299 33.1501 20.8099 33.2201C20.5899 33.3501 20.6599 33.0801 20.5699 33.0101C20.4899 32.9401 20.4099 32.9001 20.3299 32.8401C19.6099 32.3801 19.0399 32.3001 19.0499 32.1201C19.0499 32.0801 19.0899 32.0301 19.1799 32.0001C19.2699 31.9701 19.3999 31.9201 19.5699 31.9101C19.9099 31.8701 20.4499 31.9101 21.0599 32.1901C21.1699 32.2501 21.4199 32.1501 21.4299 32.3801C21.4899 32.4201 21.5699 32.4401 21.6499 32.4601C21.7199 32.4901 21.7899 32.5401 21.8099 32.6301C22.1199 32.5301 22.0799 32.8201 22.1799 32.9501C22.2399 33.0101 22.2799 33.0901 22.3199 33.1601C22.3699 33.2301 22.4299 33.3001 22.5199 33.3401C22.7499 33.4101 22.6499 33.6901 22.8199 33.8101C22.7599 34.0501 22.8499 34.2001 23.0699 34.3401C23.0199 34.4601 23.0499 34.5501 23.1099 34.6501C23.1399 34.7001 23.1699 34.7401 23.1899 34.7901C23.2099 34.8401 23.2299 34.8901 23.2399 34.9401C23.1299 35.0701 23.1299 35.1701 23.1599 35.2701C23.1899 35.3701 23.2699 35.4701 23.3199 35.5801C23.3699 35.6901 23.3499 35.8001 23.3299 35.9201C23.3299 35.9801 23.3099 36.0301 23.2999 36.0901C23.2999 36.1501 23.2899 36.2001 23.2999 36.2601C23.2299 36.4801 23.2699 36.7301 23.1699 36.9501C23.1899 37.0801 23.1799 37.2101 23.1499 37.3301C23.1099 37.4501 23.0299 37.5501 22.9099 37.6301C22.8999 37.7601 22.8199 37.8701 22.7599 37.9701C22.6899 38.0801 22.5999 38.1701 22.5299 38.2701C22.5099 38.3401 22.4799 38.4001 22.4499 38.4501C22.4099 38.5001 22.3599 38.5501 22.3199 38.5901C22.2299 38.6801 22.1199 38.7601 22.0299 38.8501C21.9499 38.9601 21.8099 39.0001 21.6799 39.0401C21.5499 39.0901 21.4499 39.1601 21.4099 39.3401C21.1999 39.5201 20.9199 39.5701 20.6899 39.7201C20.4199 39.7901 20.1599 39.8301 19.8999 39.9601C19.7399 39.8501 19.6099 39.8401 19.4699 39.8801C19.3399 39.9101 19.1999 39.9901 19.0599 40.0401C18.9199 40.0701 18.7799 40.0801 18.6399 40.0601C18.4999 40.0401 18.3599 39.9901 18.2299 39.9501C18.0899 39.9401 17.9599 39.9001 17.8199 39.8701C17.6899 39.8301 17.5599 39.7701 17.4399 39.7201C17.2999 39.7201 17.1899 39.6201 17.0799 39.5401C16.9699 39.4601 16.8699 39.3701 16.7299 39.3501C16.5799 39.3301 16.4899 39.2201 16.4099 39.1201C16.3199 39.0201 16.2499 38.9101 16.1099 38.8601C15.9799 38.8001 15.8699 38.7301 15.7799 38.6301C15.7399 38.5801 15.6999 38.5301 15.6599 38.4701C15.6299 38.4101 15.6099 38.3401 15.5999 38.2701C15.5199 38.1701 15.4999 38.0301 15.4699 37.9101C15.4399 37.7801 15.3699 37.6901 15.2199 37.6301C15.1399 37.5301 14.9999 37.4601 14.9199 37.3601C14.8399 37.2601 14.8099 37.1301 14.9599 36.9501C14.8799 36.8501 14.8999 36.7201 14.8999 36.6001C14.8999 36.4801 14.9299 36.3601 14.8199 36.2601C14.8799 36.1901 14.9099 36.1301 14.9099 36.0801C14.9199 36.0201 14.9099 35.9701 14.8899 35.9201C14.8599 35.8101 14.7799 35.7001 14.7899 35.5901C14.8199 35.4801 14.8599 35.3701 14.8799 35.2701C14.8999 35.1701 14.9199 35.0601 14.8799 34.9501C14.8599 34.8901 14.8499 34.8401 14.8599 34.7901C14.8699 34.7401 14.8999 34.6901 14.9199 34.6401C14.9799 34.5501 15.0299 34.4601 15.0499 34.3601C15.0099 34.2401 15.0899 34.1601 15.1699 34.0901C15.2499 34.0201 15.3399 33.9601 15.2999 33.8301C15.4099 33.6701 15.4599 33.4901 15.5999 33.3601C15.4899 33.1801 15.5499 33.1001 15.6499 33.0601C15.7399 33.0201 15.8799 33.0101 15.9499 32.9701C16.0299 32.9301 16.0399 32.8201 16.0699 32.7401C16.0999 32.6601 16.1599 32.6001 16.3199 32.6501C16.2799 32.4901 16.3399 32.4301 16.4199 32.4101C16.5099 32.3901 16.6099 32.4101 16.6999 32.4001C16.8599 32.3801 16.8699 32.1401 17.0699 32.2101C17.0899 31.9601 17.3499 32.1901 17.4199 32.0701C17.5799 32.1401 17.6399 31.9901 17.7499 31.9801C17.7899 31.9401 17.8399 31.9201 17.8899 31.9101C17.9399 31.9101 17.9999 31.9101 18.0499 31.9401C18.1399 31.9401 18.2299 31.9201 18.3199 31.9201C18.4399 31.9201 18.5499 31.9301 18.6499 31.9401C18.7399 31.9501 18.8199 31.9801 18.8799 32.0001C19.0099 32.0401 19.0699 32.0901 19.0699 32.1501L19.0599 32.1101Z" fill="#0061EF"/>
<path d="M33.9284 14.1799C33.9284 14.2299 33.8684 14.2899 33.7584 14.3399C33.6984 14.3699 33.6384 14.3899 33.5584 14.4299C33.4784 14.4699 33.3984 14.4999 33.2984 14.5399C33.2384 14.5699 33.1684 14.6099 33.0984 14.6399C33.0684 14.6599 33.0284 14.6899 32.9984 14.6999C32.9584 14.7199 32.9284 14.7399 32.8784 14.7499C32.7484 14.6499 32.8084 15.0499 32.6484 14.8899C32.5384 14.8799 32.4684 14.9599 32.4084 15.0599C32.3484 15.1499 32.1784 15.0899 32.1684 15.2599C32.2084 15.3999 32.1184 15.3699 32.0284 15.3499C31.9384 15.3299 31.8584 15.3299 31.9284 15.4999C31.8884 15.6299 31.7984 15.6999 31.7084 15.7799C31.5884 15.7499 31.5484 15.8099 31.5384 15.8799C31.5284 15.9499 31.5384 16.0299 31.5184 16.0899C31.2484 16.0599 31.2484 16.2499 31.3584 16.4399C30.9884 16.3999 30.9784 16.5899 31.2384 16.8199C31.2184 16.8899 31.1784 16.9399 31.1484 17.0099C31.1184 17.0699 31.1084 17.1499 31.1684 17.2299C31.1684 17.2999 31.1684 17.3699 31.1784 17.4399C31.1784 17.5099 31.1784 17.5799 31.1484 17.6499C31.2584 17.7199 31.3284 17.7899 31.3284 17.8599C31.3284 17.8899 31.3284 17.9299 31.2984 17.9699C31.2784 18.0099 31.2484 18.0499 31.2084 18.0899C31.4684 18.1999 31.4084 18.3299 31.3284 18.5199C31.2884 18.6099 31.3684 18.6699 31.4384 18.7199C31.5084 18.7699 31.5784 18.8199 31.5284 18.9299C31.5484 18.9999 31.6084 19.0599 31.6584 19.1199C31.7084 19.1799 31.7584 19.2399 31.7884 19.3099C31.7884 19.3599 31.7884 19.4099 31.8084 19.4499C31.8184 19.4899 31.8384 19.5299 31.8584 19.5699C31.8984 19.6399 31.9784 19.6899 32.1184 19.6499C32.1984 19.6799 32.2784 19.7099 32.3484 19.7399C32.4184 19.7799 32.4684 19.8399 32.5084 19.9299C32.7784 19.7999 32.8484 19.9599 32.9484 20.1499C33.0384 20.1499 33.0984 20.2199 33.1784 20.2699C33.2584 20.3099 33.3384 20.3499 33.4384 20.2899C33.5184 20.3199 33.6084 20.3099 33.6884 20.2899C33.7784 20.2699 33.8584 20.2699 33.9384 20.3299C34.0284 20.3599 34.1184 20.3999 34.2084 20.3999C34.2984 20.3999 34.3784 20.3599 34.4484 20.2799C34.5184 20.1799 34.5884 20.1699 34.6784 20.1899C34.7684 20.1999 34.8584 20.1999 34.9284 20.1499C35.0584 20.2399 35.1284 20.1699 35.1784 20.0999C35.2384 20.0299 35.2684 19.9299 35.3684 19.9299C35.4384 19.8799 35.5184 19.8599 35.5984 19.8299C35.6784 19.7999 35.7484 19.7499 35.7584 19.6499C35.8084 19.5799 35.8384 19.5099 35.8884 19.4399C35.9184 19.4099 35.9384 19.3799 35.9784 19.3599C36.0084 19.3399 36.0484 19.3099 36.0884 19.2999C35.9884 19.1199 36.0484 19.0899 36.1384 19.0499C36.2284 19.0199 36.3584 18.9999 36.3584 18.9099C36.4584 18.8699 36.4984 18.7999 36.5084 18.7199C36.5084 18.6399 36.5084 18.5599 36.5584 18.4899C36.5484 18.4099 36.6084 18.3499 36.6584 18.2799C36.7184 18.2199 36.7384 18.1399 36.6784 18.0599C36.6884 18.0199 36.6984 17.9899 36.6884 17.9499C36.6884 17.9099 36.6684 17.8699 36.6684 17.8399C36.6484 17.7699 36.6684 17.6999 36.7284 17.6299C36.6284 17.5599 36.6684 17.4899 36.7084 17.4199C36.7484 17.3499 36.7884 17.2699 36.7084 17.2099L36.6884 17.1099L36.6584 17.0099C36.6384 16.9399 36.6384 16.8799 36.6284 16.8099C36.7484 16.6999 36.7284 16.6299 36.6884 16.5699C36.6384 16.5099 36.5484 16.4799 36.5084 16.4299C36.4884 16.2899 36.2384 16.2899 36.3484 16.0799C36.3284 16.0199 36.3184 15.9499 36.2984 15.8899C36.2784 15.8299 36.2484 15.7699 36.1584 15.7699C36.0984 15.7399 36.1384 15.6199 36.1484 15.5299C36.1484 15.4399 36.1184 15.3799 35.9384 15.4899C35.8684 15.4799 35.8784 15.3799 35.8684 15.3099C35.8584 15.2399 35.8284 15.1799 35.6984 15.2499C35.4784 15.3799 35.5484 15.1099 35.4584 15.0399C35.3784 14.9699 35.2984 14.9299 35.2184 14.8699C34.4984 14.4099 33.9284 14.3299 33.9384 14.1499C33.9384 14.1099 33.9784 14.0599 34.0684 14.0299C34.1584 13.9899 34.2884 13.9499 34.4584 13.9399C34.7984 13.8999 35.3384 13.9399 35.9384 14.2199C36.0584 14.2799 36.2984 14.1799 36.3084 14.4099C36.3684 14.4499 36.4484 14.4699 36.5284 14.4899C36.5984 14.5199 36.6684 14.5699 36.6884 14.6599C36.9984 14.5599 36.9584 14.8499 37.0584 14.9799C37.1184 15.0399 37.1584 15.1199 37.2084 15.1899C37.2584 15.2599 37.3084 15.3299 37.4084 15.3699C37.6384 15.4399 37.5384 15.7199 37.7084 15.8399C37.6484 16.0799 37.7384 16.2299 37.9584 16.3699C37.9184 16.4899 37.9384 16.5799 37.9984 16.6799C38.0284 16.7299 38.0584 16.7699 38.0884 16.8199C38.1084 16.8699 38.1284 16.9199 38.1384 16.9699C38.0284 17.0999 38.0284 17.1899 38.0584 17.2999C38.0884 17.3999 38.1684 17.4999 38.2184 17.6099C38.2684 17.7199 38.2484 17.8299 38.2284 17.9399C38.2184 17.9999 38.2084 18.0499 38.1984 18.1099C38.1884 18.1699 38.1784 18.2199 38.1984 18.2799C38.1184 18.4999 38.1684 18.7499 38.0684 18.9699C38.0884 19.0999 38.0784 19.2299 38.0484 19.3499C38.0084 19.4699 37.9284 19.5699 37.8084 19.6499C37.7984 19.7799 37.7284 19.8899 37.6584 19.9899C37.5884 20.0999 37.4984 20.1899 37.4284 20.2899C37.4084 20.3599 37.3784 20.4199 37.3484 20.4699C37.3084 20.5199 37.2584 20.5699 37.2184 20.6099C37.1284 20.6999 37.0184 20.7799 36.9284 20.8699C36.8484 20.9799 36.7084 21.0199 36.5784 21.0599C36.4484 21.1099 36.3484 21.1799 36.3084 21.3599C36.0984 21.5399 35.8184 21.5899 35.5884 21.7399C35.3184 21.8099 35.0484 21.8499 34.7984 21.9799C34.6384 21.8699 34.4984 21.8599 34.3684 21.8999C34.2384 21.9299 34.0984 22.0099 33.9584 22.0599C33.8184 22.0899 33.6784 22.0999 33.5384 22.0799C33.3984 22.0599 33.2584 22.0199 33.1284 21.9699C32.9884 21.9599 32.8584 21.9199 32.7184 21.8899C32.5884 21.8499 32.4584 21.7899 32.3384 21.7399C32.1884 21.7399 32.0884 21.6399 31.9784 21.5599C31.8684 21.4799 31.7684 21.3899 31.6284 21.3699C31.4784 21.3499 31.3884 21.2399 31.3084 21.1399C31.2184 21.0399 31.1484 20.9299 31.0084 20.8799C30.8784 20.8299 30.7684 20.7499 30.6784 20.6499C30.6284 20.5999 30.5884 20.5499 30.5584 20.4899C30.5284 20.4299 30.5084 20.3599 30.4984 20.2899C30.4184 20.1899 30.3984 20.0499 30.3684 19.9299C30.3384 19.8099 30.2684 19.7099 30.1184 19.6499C30.0384 19.5499 29.8984 19.4799 29.8184 19.3799C29.7384 19.2799 29.7084 19.1499 29.8584 18.9699C29.7784 18.8699 29.7984 18.7399 29.7984 18.6199C29.7984 18.4999 29.8284 18.3799 29.7184 18.2799C29.7784 18.2099 29.8084 18.1499 29.8084 18.0999C29.8184 18.0399 29.8084 17.9899 29.7884 17.9399C29.7584 17.8299 29.6784 17.7199 29.6884 17.6099C29.7184 17.4999 29.7684 17.3899 29.7884 17.2899C29.8084 17.1799 29.8284 17.0799 29.7884 16.9699C29.7384 16.8499 29.7784 16.7499 29.8284 16.6599C29.8884 16.5699 29.9384 16.4799 29.9584 16.3799C29.9184 16.2599 29.9984 16.1799 30.0784 16.1099C30.1584 16.0399 30.2484 15.9699 30.2084 15.8499C30.3184 15.6899 30.3684 15.5099 30.5084 15.3799C30.3984 15.1999 30.4584 15.1199 30.5584 15.0799C30.6484 15.0399 30.7884 15.0399 30.8584 14.9799C30.9384 14.9399 30.9484 14.8299 30.9784 14.7499C31.0084 14.6699 31.0784 14.6099 31.2284 14.6599C31.1884 14.4999 31.2484 14.4399 31.3284 14.4199C31.4184 14.3999 31.5184 14.4199 31.6084 14.4099C31.7684 14.3899 31.7784 14.1499 31.9784 14.2199C31.9984 13.9699 32.2584 14.1999 32.3384 14.0799C32.4984 14.1499 32.5584 13.9999 32.6684 13.9899C32.7084 13.9499 32.7584 13.9199 32.8084 13.9199C32.8584 13.9199 32.9184 13.9199 32.9684 13.9499C33.0684 13.9499 33.1484 13.9299 33.2384 13.9299C33.3584 13.9299 33.4684 13.9399 33.5684 13.9499C33.6584 13.9599 33.7384 13.9899 33.7984 14.0099C33.9184 14.0499 33.9884 14.0999 33.9884 14.1599L33.9284 14.1799Z" fill="#0061EF"/>
<path d="M48.7999 27.4302C48.7999 27.4802 48.7399 27.5402 48.6299 27.5902C48.5699 27.6202 48.5099 27.6402 48.4299 27.6802C48.3499 27.7202 48.2699 27.7502 48.1699 27.7902C48.1099 27.8202 48.0399 27.8602 47.9699 27.8902C47.9399 27.9102 47.8999 27.9402 47.8699 27.9502C47.8299 27.9702 47.7999 27.9902 47.7499 28.0002C47.6199 27.9002 47.6799 28.3002 47.5199 28.1402C47.4099 28.1302 47.3399 28.2102 47.2799 28.3102C47.2199 28.4002 47.0499 28.3402 47.0399 28.5102C47.0799 28.6502 46.9899 28.6202 46.8999 28.6002C46.8199 28.5802 46.7299 28.5802 46.7999 28.7502C46.7599 28.8802 46.6699 28.9502 46.5799 29.0302C46.4599 29.0002 46.4199 29.0602 46.4099 29.1302C46.3999 29.2002 46.4099 29.2802 46.3899 29.3402C46.1199 29.3102 46.1199 29.5002 46.2299 29.6902C45.8599 29.6502 45.8499 29.8502 46.1099 30.0702C46.0899 30.1402 46.0499 30.1902 46.0199 30.2602C45.9999 30.2902 45.9899 30.3302 45.9899 30.3602C45.9899 30.4002 46.0099 30.4402 46.0399 30.4802C46.0399 30.5502 46.0399 30.6202 46.0499 30.6902C46.0499 30.7602 46.0499 30.8302 46.0199 30.9002C46.1299 30.9702 46.1999 31.0402 46.1999 31.1102C46.1999 31.1402 46.1999 31.1802 46.1699 31.2202C46.1499 31.2602 46.1199 31.3002 46.0799 31.3402C46.3399 31.4502 46.2799 31.5802 46.1999 31.7702C46.1599 31.8602 46.2399 31.9202 46.3099 31.9702C46.3799 32.0202 46.4499 32.0702 46.3999 32.1802C46.4599 32.3202 46.5999 32.4202 46.6599 32.5702C46.6599 32.6202 46.6599 32.6702 46.6799 32.7102C46.6899 32.7502 46.7099 32.8002 46.7299 32.8302C46.7499 32.8702 46.7799 32.8902 46.8299 32.9102C46.8699 32.9302 46.9299 32.9302 46.9999 32.9102C47.0799 32.9402 47.1599 32.9702 47.2299 33.0002C47.2999 33.0402 47.3499 33.1002 47.3899 33.1902C47.6599 33.0602 47.7299 33.2102 47.8299 33.4102C47.9199 33.4102 47.9799 33.4902 48.0499 33.5302C48.1299 33.5702 48.2099 33.6102 48.3099 33.5502C48.3899 33.5802 48.4799 33.5702 48.5599 33.5502C48.6499 33.5302 48.7299 33.5302 48.8099 33.5902C48.8999 33.6202 48.9799 33.6602 49.0699 33.6702C49.1599 33.6702 49.2399 33.6302 49.3099 33.5502C49.3799 33.4502 49.4499 33.4402 49.5399 33.4602C49.6299 33.4602 49.7199 33.4702 49.7899 33.4202C49.9199 33.5102 49.9799 33.4402 50.0399 33.3702C50.0999 33.3002 50.1299 33.2002 50.2299 33.2002C50.2999 33.1502 50.3799 33.1302 50.4599 33.1002C50.5399 33.0702 50.6099 33.0202 50.6199 32.9202C50.6699 32.8502 50.6999 32.7802 50.7499 32.7202C50.7699 32.6902 50.7999 32.6602 50.8399 32.6402C50.8699 32.6102 50.9099 32.5902 50.9499 32.5802C50.8499 32.4002 50.9099 32.3702 50.9999 32.3302C51.0899 32.3002 51.2199 32.2802 51.2199 32.1902C51.3199 32.1602 51.3599 32.0802 51.3699 32.0002C51.3699 31.9202 51.3699 31.8402 51.4199 31.7702C51.4099 31.6902 51.4599 31.6302 51.5199 31.5602C51.5799 31.5002 51.5999 31.4202 51.5399 31.3402C51.5499 31.3002 51.5599 31.2702 51.5499 31.2302C51.5499 31.1902 51.5299 31.1602 51.5299 31.1202C51.5099 31.0502 51.5299 30.9802 51.5899 30.9102C51.4899 30.8402 51.5299 30.7702 51.5699 30.7002C51.6099 30.6202 51.6499 30.5502 51.5699 30.4902L51.5499 30.3902L51.5199 30.2902C51.4999 30.2302 51.4999 30.1602 51.4899 30.0902C51.6099 29.9802 51.5899 29.9102 51.5399 29.8502C51.4899 29.7902 51.3999 29.7602 51.3599 29.7102C51.3299 29.5702 51.0899 29.5802 51.1999 29.3602C51.1699 29.3002 51.1699 29.2302 51.1499 29.1702C51.1299 29.1102 51.0899 29.0502 51.0099 29.0502C50.9499 29.0202 50.9899 28.9002 50.9999 28.8102C50.9999 28.7202 50.9699 28.6602 50.7899 28.7702C50.7199 28.7602 50.7299 28.6602 50.7199 28.5902C50.7099 28.5202 50.6699 28.4602 50.5499 28.5302C50.3299 28.6602 50.3899 28.3902 50.3099 28.3202C50.2299 28.2502 50.1499 28.2102 50.0699 28.1502C49.3499 27.6902 48.7799 27.6102 48.7799 27.4302C48.7799 27.3902 48.8199 27.3402 48.9099 27.3102C48.9999 27.2802 49.1299 27.2302 49.2999 27.2202C49.6399 27.1802 50.1799 27.2202 50.7799 27.5002C50.8999 27.5502 51.1399 27.4502 51.1499 27.6902C51.2099 27.7302 51.2899 27.7502 51.3699 27.7702C51.4399 27.8002 51.5099 27.8502 51.5299 27.9402C51.6799 27.8902 51.7599 27.9402 51.7899 28.0202C51.8299 28.1002 51.8399 28.2002 51.8899 28.2702C51.9499 28.3302 51.9899 28.4102 52.0399 28.4802C52.0899 28.5502 52.1399 28.6202 52.2399 28.6602C52.4699 28.7302 52.3699 29.0102 52.5399 29.1302C52.4799 29.3702 52.5799 29.5202 52.7899 29.6602C52.7499 29.7802 52.7699 29.8702 52.8299 29.9602C52.8599 30.0102 52.8899 30.0502 52.9099 30.1002C52.9299 30.1502 52.9499 30.2002 52.9599 30.2502C52.8499 30.3702 52.8499 30.4802 52.8799 30.5802C52.9099 30.6802 52.9899 30.7902 53.0399 30.8902C53.0899 31.0002 53.0699 31.1102 53.0499 31.2302C53.0499 31.2902 53.0299 31.3402 53.0199 31.4002C53.0099 31.4602 52.9999 31.5102 53.0199 31.5702C52.9499 31.7902 52.9899 32.0402 52.8899 32.2602C52.9099 32.3902 52.8999 32.5202 52.8699 32.6402C52.8299 32.7602 52.7499 32.8602 52.6299 32.9402C52.6199 33.0702 52.5499 33.1802 52.4799 33.2802C52.4099 33.3902 52.3199 33.4802 52.2499 33.5802C52.2299 33.6502 52.1999 33.7002 52.1699 33.7602C52.1299 33.8102 52.0799 33.8602 52.0399 33.9002C51.9499 33.9902 51.8399 34.0702 51.7499 34.1602C51.6699 34.2702 51.5299 34.3102 51.3999 34.3502C51.2699 34.4002 51.1699 34.4702 51.1299 34.6502C50.9199 34.8302 50.6499 34.8802 50.4199 35.0302C50.2799 35.0602 50.1499 35.0902 50.0199 35.1302C49.8899 35.1602 49.7599 35.2102 49.6299 35.2702C49.4699 35.1602 49.3399 35.1502 49.1999 35.1902C49.0699 35.2202 48.9399 35.3002 48.7899 35.3602C48.6499 35.4002 48.5099 35.4002 48.3699 35.3802C48.2299 35.3602 48.0899 35.3202 47.9599 35.2802C47.8199 35.2702 47.6899 35.2302 47.5499 35.2002C47.4199 35.1602 47.2899 35.1002 47.1699 35.0502C47.0199 35.0502 46.9199 34.9502 46.8099 34.8702C46.6999 34.7902 46.5999 34.7002 46.4599 34.6802C46.3099 34.6602 46.2199 34.5502 46.1399 34.4502C46.0499 34.3502 45.9799 34.2402 45.8499 34.1902C45.7899 34.1602 45.7299 34.1302 45.6699 34.0902C45.6199 34.0502 45.5699 34.0102 45.5199 33.9602C45.4799 33.9102 45.4299 33.8602 45.3999 33.8002C45.3699 33.7402 45.3499 33.6702 45.3399 33.6002C45.2599 33.5002 45.2399 33.3602 45.2099 33.2402C45.1799 33.1202 45.1099 33.0202 44.9599 32.9602C44.8799 32.8602 44.7399 32.7902 44.6599 32.6902C44.5799 32.5902 44.5499 32.4602 44.6999 32.2902C44.6199 32.1902 44.6399 32.0602 44.6399 31.9402C44.6399 31.8202 44.6599 31.7002 44.5599 31.6002C44.6199 31.5302 44.6499 31.4702 44.6599 31.4202C44.6699 31.3602 44.6599 31.3102 44.6399 31.2602C44.6099 31.1502 44.5299 31.0402 44.5399 30.9302C44.5699 30.8202 44.6099 30.7202 44.6399 30.6102C44.6599 30.5102 44.6799 30.4002 44.6399 30.2902C44.6099 30.2302 44.6099 30.1802 44.6199 30.1202C44.6299 30.0702 44.6599 30.0202 44.6799 29.9702C44.7399 29.8802 44.7899 29.7902 44.8099 29.6902C44.7699 29.5702 44.8499 29.4902 44.9299 29.4202C45.0099 29.3402 45.0999 29.2802 45.0599 29.1602C45.1699 29.0002 45.2199 28.8202 45.3599 28.6902C45.2499 28.5102 45.3099 28.4302 45.4099 28.3902C45.5099 28.3502 45.6399 28.3402 45.7099 28.3002C45.7899 28.2502 45.7999 28.1502 45.8299 28.0702C45.8599 27.9802 45.9199 27.9302 46.0799 27.9802C46.0399 27.8202 46.0999 27.7602 46.1799 27.7402C46.2599 27.7202 46.3699 27.7402 46.4499 27.7302C46.6099 27.7102 46.6199 27.4702 46.8199 27.5402C46.8399 27.2902 47.0999 27.5202 47.1699 27.4002C47.3299 27.4702 47.3899 27.3202 47.4999 27.3102C47.5399 27.2702 47.5899 27.2402 47.6399 27.2302C47.6899 27.2302 47.7499 27.2302 47.7999 27.2602C47.8899 27.2602 47.9799 27.2402 48.0699 27.2402C48.1899 27.2402 48.2999 27.2502 48.3999 27.2602C48.4899 27.2702 48.5699 27.3002 48.6299 27.3202C48.7499 27.3602 48.8199 27.4102 48.8199 27.4702L48.7999 27.4302Z" fill="#0061EF"/>
<path d="M66.1202 10.5198C66.1202 10.5698 66.0602 10.6298 65.9502 10.6798C65.8902 10.7098 65.8302 10.7298 65.7502 10.7698C65.6702 10.8098 65.5902 10.8398 65.4902 10.8798C65.4302 10.9098 65.3602 10.9398 65.2902 10.9798C65.2602 10.9998 65.2202 11.0298 65.1902 11.0498C65.1502 11.0698 65.1202 11.0898 65.0802 11.0998C64.9502 10.9998 65.0102 11.3898 64.8502 11.2398C64.7402 11.2298 64.6702 11.3098 64.6102 11.4098C64.5502 11.4998 64.3802 11.4398 64.3702 11.6098C64.4102 11.7498 64.3202 11.7198 64.2302 11.6998C64.1402 11.6798 64.0602 11.6798 64.1302 11.8498C64.0902 11.9798 64.0002 12.0498 63.9102 12.1298C63.7902 12.1098 63.7502 12.1598 63.7402 12.2298C63.7302 12.2998 63.7402 12.3798 63.7202 12.4398C63.4502 12.4098 63.4502 12.5998 63.5602 12.7898C63.1902 12.7598 63.1802 12.9498 63.4402 13.1698C63.4202 13.2298 63.3802 13.2898 63.3502 13.3598C63.3402 13.3898 63.3202 13.4298 63.3202 13.4598C63.3202 13.4998 63.3402 13.5398 63.3702 13.5798C63.3702 13.6498 63.3702 13.7198 63.3802 13.7898C63.3802 13.8598 63.3802 13.9298 63.3502 13.9998C63.4602 14.0698 63.5302 14.1398 63.5302 14.2098C63.5302 14.2498 63.5302 14.2798 63.5002 14.3198C63.4802 14.3598 63.4502 14.3998 63.4102 14.4398C63.6702 14.5498 63.6102 14.6798 63.5302 14.8698C63.4902 14.9598 63.5702 15.0198 63.6402 15.0698C63.7102 15.1198 63.7802 15.1698 63.7302 15.2798C63.7502 15.3598 63.8102 15.4098 63.8602 15.4698C63.9102 15.5298 63.9602 15.5898 63.9902 15.6598C63.9902 15.7098 63.9902 15.7498 64.0102 15.7998C64.0202 15.8398 64.0402 15.8798 64.0602 15.9198C64.1102 15.9898 64.1802 16.0398 64.3202 15.9998C64.4002 16.0298 64.4802 16.0598 64.5502 16.0998C64.6202 16.1398 64.6702 16.1998 64.7102 16.2898C64.9802 16.1598 65.0502 16.3198 65.1502 16.5098C65.2402 16.5098 65.3002 16.5798 65.3802 16.6298C65.4602 16.6698 65.5402 16.7098 65.6402 16.6498C65.7202 16.6798 65.8102 16.6698 65.8902 16.6498C65.9802 16.6298 66.0602 16.6298 66.1402 16.6898C66.2302 16.7298 66.3202 16.7598 66.4002 16.7698C66.4902 16.7698 66.5702 16.7298 66.6402 16.6498C66.7102 16.5498 66.7802 16.5398 66.8702 16.5598C66.9602 16.5698 67.0502 16.5698 67.1202 16.5198C67.2502 16.6098 67.3202 16.5398 67.3702 16.4698C67.4302 16.3998 67.4602 16.2998 67.5602 16.2998C67.6302 16.2498 67.7102 16.2298 67.7902 16.1998C67.8702 16.1698 67.9402 16.1198 67.9502 16.0198C68.0002 15.9498 68.0302 15.8798 68.0802 15.8098C68.1002 15.7798 68.1302 15.7498 68.1702 15.7298C68.2002 15.7098 68.2402 15.6798 68.2802 15.6698C68.1802 15.4898 68.2402 15.4598 68.3302 15.4198C68.4202 15.3898 68.5502 15.3698 68.5502 15.2798C68.6502 15.2498 68.6902 15.1698 68.7002 15.0898C68.7002 15.0098 68.7002 14.9298 68.7502 14.8598C68.7402 14.7798 68.7902 14.7198 68.8502 14.6498C68.9102 14.5898 68.9302 14.5098 68.8702 14.4298C68.8802 14.3898 68.8902 14.3598 68.8802 14.3198C68.8802 14.2798 68.8602 14.2498 68.8602 14.2098C68.8502 14.1398 68.8602 14.0698 68.9202 13.9998C68.8202 13.9298 68.8602 13.8598 68.9002 13.7898C68.9402 13.7198 68.9802 13.6398 68.9002 13.5798L68.8802 13.4798L68.8502 13.3798C68.8302 13.3098 68.8302 13.2498 68.8202 13.1798C68.9402 13.0698 68.9202 12.9998 68.8702 12.9398C68.8202 12.8798 68.7302 12.8498 68.6902 12.7998C68.6702 12.6598 68.4202 12.6598 68.5302 12.4498C68.5102 12.3898 68.5002 12.3198 68.4802 12.2598C68.4602 12.1998 68.4202 12.1398 68.3402 12.1398C68.2802 12.1098 68.3202 11.9898 68.3302 11.8998C68.3302 11.8098 68.3002 11.7498 68.1202 11.8598C68.0502 11.8498 68.0602 11.7498 68.0502 11.6798C68.0402 11.6098 68.0102 11.5498 67.8802 11.6198C67.6602 11.7498 67.7202 11.4798 67.6402 11.4198C67.5602 11.3498 67.4802 11.2998 67.4002 11.2498C66.6802 10.7898 66.1102 10.7098 66.1202 10.5298C66.1202 10.4898 66.1602 10.4498 66.2502 10.4098C66.3402 10.3798 66.4702 10.3298 66.6402 10.3198C66.9802 10.2798 67.5202 10.3198 68.1202 10.5998C68.2402 10.6598 68.4802 10.5598 68.4902 10.7898C68.5502 10.8298 68.6302 10.8498 68.7102 10.8698C68.7902 10.8998 68.8502 10.9498 68.8702 11.0398C69.1802 10.9398 69.1402 11.2298 69.2402 11.3598C69.3002 11.4198 69.3402 11.4998 69.3902 11.5698C69.4302 11.6398 69.4902 11.7098 69.5902 11.7498C69.8202 11.8198 69.7202 12.0998 69.8902 12.2198C69.8302 12.4598 69.9202 12.6098 70.1402 12.7498C70.0902 12.8698 70.1202 12.9598 70.1802 13.0598C70.2102 13.1098 70.2402 13.1498 70.2602 13.1998C70.2802 13.2498 70.3002 13.2998 70.3102 13.3498C70.2002 13.4698 70.2002 13.5798 70.2302 13.6798C70.2602 13.7798 70.3402 13.8798 70.3902 13.9898C70.4402 14.0998 70.4202 14.2098 70.4002 14.3198C70.4002 14.3798 70.3802 14.4298 70.3702 14.4898C70.3602 14.5498 70.3602 14.5998 70.3702 14.6598C70.3002 14.8798 70.3402 15.1298 70.2402 15.3498C70.2602 15.4798 70.2502 15.6098 70.2202 15.7298C70.1802 15.8498 70.1002 15.9498 69.9802 16.0298C69.9702 16.1598 69.9002 16.2698 69.8302 16.3698C69.7602 16.4798 69.6702 16.5698 69.6002 16.6698C69.5802 16.7398 69.5502 16.7998 69.5202 16.8498C69.4802 16.8998 69.4302 16.9498 69.3902 16.9898C69.3002 17.0798 69.1902 17.1598 69.1002 17.2498C69.0202 17.3598 68.8802 17.3998 68.7502 17.4398C68.6202 17.4898 68.5202 17.5598 68.4802 17.7398C68.2702 17.9198 67.9902 17.9698 67.7602 18.1198C67.4902 18.1898 67.2302 18.2298 66.9702 18.3598C66.8102 18.2498 66.6802 18.2398 66.5402 18.2798C66.4102 18.3098 66.2702 18.3898 66.1302 18.4398C65.9902 18.4698 65.8502 18.4798 65.7102 18.4598C65.5702 18.4398 65.4302 18.3998 65.3002 18.3498C65.1602 18.3398 65.0302 18.2998 64.8902 18.2698C64.7602 18.2298 64.6302 18.1698 64.5102 18.1198C64.3702 18.1198 64.2602 18.0198 64.1502 17.9398C64.0402 17.8598 63.9402 17.7698 63.8002 17.7498C63.6502 17.7298 63.5602 17.6198 63.4802 17.5198C63.3902 17.4198 63.3202 17.3098 63.1802 17.2598C63.0502 17.1998 62.9402 17.1298 62.8502 17.0298C62.8002 16.9798 62.7702 16.9298 62.7302 16.8698C62.7002 16.8098 62.6802 16.7398 62.6702 16.6698C62.5902 16.5698 62.5702 16.4298 62.5402 16.3098C62.5102 16.1898 62.4402 16.0898 62.2902 16.0298C62.2102 15.9298 62.0702 15.8598 61.9902 15.7498C61.9102 15.6498 61.8802 15.5198 62.0302 15.3498C61.9502 15.2498 61.9702 15.1198 61.9702 14.9998C61.9702 14.8798 62.0002 14.7598 61.8902 14.6598C61.9502 14.5898 61.9802 14.5298 61.9802 14.4798C61.9902 14.4198 61.9802 14.3698 61.9602 14.3098C61.9302 14.1998 61.8502 14.0898 61.8602 13.9798C61.8902 13.8698 61.9302 13.7698 61.9602 13.6598C61.9802 13.5598 62.0002 13.4498 61.9602 13.3398C61.9402 13.2798 61.9302 13.2298 61.9402 13.1798C61.9502 13.1298 61.9802 13.0798 62.0002 13.0298C62.0602 12.9398 62.1102 12.8498 62.1302 12.7498C62.0902 12.6298 62.1702 12.5498 62.2502 12.4798C62.3302 12.4098 62.4202 12.3498 62.3802 12.2198C62.4902 12.0598 62.5402 11.8798 62.6802 11.7498C62.5702 11.5698 62.6302 11.4898 62.7302 11.4498C62.8302 11.4098 62.9602 11.3998 63.0302 11.3598C63.1102 11.3198 63.1102 11.2098 63.1502 11.1298C63.1802 11.0498 63.2402 10.9898 63.4002 11.0398C63.3602 10.8798 63.4202 10.8198 63.5002 10.7998C63.5802 10.7798 63.6902 10.7998 63.7802 10.7898C63.9402 10.7698 63.9502 10.5298 64.1502 10.5998C64.1702 10.3498 64.4302 10.5798 64.5002 10.4598C64.6602 10.5298 64.7202 10.3798 64.8302 10.3698C64.8702 10.3298 64.9202 10.3098 64.9702 10.2998C65.0202 10.2998 65.0802 10.2998 65.1302 10.3298C65.2202 10.3298 65.3102 10.3098 65.4002 10.3098C65.5202 10.3098 65.6302 10.3198 65.7302 10.3298C65.8202 10.3398 65.9002 10.3698 65.9602 10.3898C66.0802 10.4298 66.1502 10.4798 66.1502 10.5398L66.1202 10.5198Z" fill="#0061EF"/>
<path d="M63.6 16.4898C63.67 16.5698 63.6 16.7698 63.43 17.0798C63.4 17.1298 63.37 17.1898 63.33 17.2398C63.3 17.3098 63.27 17.3798 63.21 17.4198C63.06 17.3698 63.28 17.7098 63.07 17.6198C62.97 17.6298 62.95 17.7398 62.91 17.8298C62.88 17.9298 62.72 17.8998 62.74 18.0598C62.86 18.3198 62.39 17.9798 62.55 18.2998C62.53 18.4298 62.44 18.4898 62.34 18.5498C62.12 18.4798 62.18 18.7098 62.12 18.8198C61.86 18.7198 61.85 18.8898 61.88 19.0998C61.55 18.9398 61.5 19.0698 61.63 19.3898C61.54 19.4898 61.36 19.4898 61.36 19.6898C61.28 19.7998 61.22 19.9398 61.08 19.9998C61.14 20.2598 61.03 20.3598 60.79 20.3198C60.86 20.5998 60.68 20.6298 60.49 20.6498C60.28 20.6498 60.42 21.0198 60.17 20.9898C60.05 21.0898 59.98 21.2498 59.84 21.3298C59.65 21.3698 59.46 21.3998 59.5 21.6798C59.42 21.8398 59.36 22.0098 59.15 22.0298C59.21 22.3298 59.01 22.3698 58.79 22.3898C58.7 22.5398 58.45 22.5298 58.43 22.7498C58.28 22.8398 58.26 23.0798 58.06 23.1198C57.88 23.1898 57.7 23.2498 57.68 23.4798C57.68 23.7198 57.38 23.6698 57.31 23.8398C57.02 23.7798 57.12 24.1298 56.94 24.1898C56.84 24.3198 56.6 24.3198 56.58 24.5298C56.5 24.6798 56.41 24.8198 56.22 24.8598C56.37 25.2398 55.93 25.0098 55.87 25.1798C55.65 25.1798 55.66 25.4098 55.53 25.4898C55.47 25.6498 55.19 25.5798 55.2 25.7898C55.07 25.8698 55.08 26.0798 54.87 26.0698C54.9 26.2998 54.56 26.1498 54.55 26.3398C54.45 26.4298 54.37 26.5398 54.25 26.5998C53.95 26.4798 54.03 26.7398 53.95 26.8498C53.84 26.9098 53.89 27.1398 53.67 27.0798C53.57 27.1398 53.39 27.1298 53.4 27.2998C53.35 27.4098 52.94 27.1498 53.14 27.4998C53.11 27.6198 52.78 27.4298 52.9 27.6898C53 27.9298 52.74 27.7998 52.67 27.8598C52.6 27.9098 52.52 27.9598 52.45 28.0098C51.83 28.4398 51.42 28.6298 51.31 28.5198C51.19 28.3898 51.45 27.9098 52 27.1798C52.06 27.1098 51.98 26.8898 52.17 26.9498C52.24 26.8798 52.2 26.6998 52.36 26.7098C52.24 26.4398 52.48 26.5198 52.57 26.4598C52.64 26.3698 52.78 26.3598 52.79 26.1898C52.76 25.9898 53.02 26.0798 53.03 25.9098C53.24 25.9398 53.3 25.8198 53.28 25.6198C53.49 25.6498 53.44 25.4098 53.55 25.3198C53.82 25.3998 53.8 25.1798 53.83 25.0098C53.87 24.8498 54.06 24.8398 54.12 24.6898C54.26 24.6198 54.29 24.4398 54.43 24.3598C54.46 24.1698 54.53 24.0298 54.75 24.0198C54.8 23.8498 54.96 23.7898 55.08 23.6798C55.12 23.4998 55.32 23.4598 55.42 23.3298C55.5 23.1798 55.84 23.2898 55.77 22.9698C55.86 22.8298 56.04 22.7698 56.13 22.6098C56.28 22.5198 56.42 22.4198 56.5 22.2498C56.81 22.3198 56.82 22.0798 56.87 21.8798C56.94 21.6998 57.09 21.6098 57.25 21.5198C57.35 21.3798 57.49 21.2698 57.62 21.1598C57.68 20.9798 57.95 21.0098 57.99 20.8098C58.03 20.6098 58.31 20.6698 58.35 20.4698C58.41 20.2998 58.5 20.1598 58.71 20.1398C58.82 20.0298 59.11 20.0998 59.06 19.8198C59.13 19.6698 59.03 19.3398 59.4 19.5098C59.44 19.3398 59.74 19.4298 59.73 19.2098C60.03 19.3098 59.95 19.0198 60.06 18.9298C60.2 18.8698 60.36 18.8398 60.38 18.6598C60.38 18.4698 60.62 18.5198 60.69 18.3998C60.67 18.1898 61.02 18.3698 60.98 18.1498C61.09 18.0898 61.14 17.9598 61.26 17.9198C61.08 17.5698 61.43 17.7598 61.53 17.6998C61.65 17.6598 61.51 17.3698 61.79 17.4998C61.67 17.2198 61.91 17.3298 62.03 17.3098C62.16 17.3098 62.08 17.0898 62.26 17.1398C62.18 16.9298 62.46 17.0998 62.47 16.9898C62.62 17.0298 62.59 16.8798 62.67 16.8598C62.69 16.7798 62.75 16.7398 62.85 16.7498C62.91 16.7098 62.96 16.6798 63.02 16.6498C63.33 16.4698 63.54 16.4098 63.61 16.4898H63.6Z" fill="#0061EF"/>
<path d="M46.1817 28.6099C46.1117 28.6899 45.9417 28.6699 45.6817 28.5699C45.6417 28.5499 45.5917 28.5299 45.5417 28.5099C45.4817 28.4999 45.4317 28.4799 45.3917 28.4399C45.4417 28.2999 45.1317 28.5599 45.2317 28.3499C45.2317 28.2599 45.1417 28.2599 45.0617 28.2499C44.9817 28.2499 45.0117 28.0899 44.8717 28.1399C44.6317 28.2899 44.9617 27.8199 44.6717 28.0199C44.5617 28.0199 44.5117 27.9499 44.4617 27.8799C44.5417 27.6699 44.3317 27.7699 44.2417 27.7299C44.3417 27.4799 44.2017 27.5099 44.0117 27.5699C44.1717 27.2499 44.0617 27.2299 43.7817 27.3999C43.7017 27.3399 43.7117 27.1799 43.5417 27.2199C43.4517 27.1699 43.3317 27.1499 43.2917 27.0299C43.0617 27.1299 42.9817 27.0499 43.0317 26.8299C42.7817 26.9399 42.7717 26.7899 42.7717 26.6199C42.7717 26.4399 42.4617 26.6199 42.5017 26.3999C42.4217 26.3099 42.2917 26.2899 42.2217 26.1799C42.2017 26.0199 42.1817 25.8599 41.9417 25.9499C41.8117 25.9099 41.6617 25.8899 41.6617 25.7099C41.3917 25.8199 41.3717 25.6499 41.3717 25.4599C41.2517 25.4099 41.2717 25.1799 41.0817 25.2099C41.0117 25.0899 40.8117 25.1199 40.7817 24.9499C40.7317 24.7999 40.6917 24.6599 40.4917 24.6899C40.2817 24.7299 40.3417 24.4699 40.2017 24.4299C40.2717 24.1599 39.9617 24.3199 39.9217 24.1699C39.8117 24.1099 39.8317 23.8999 39.6517 23.9099C39.5317 23.8599 39.4117 23.8199 39.3917 23.6599C39.0517 23.8599 39.2817 23.4299 39.1317 23.4099C39.1517 23.2099 38.9417 23.2699 38.8917 23.1699C38.7617 23.1499 38.8417 22.8899 38.6517 22.9299C38.5917 22.8299 38.4117 22.8799 38.4217 22.6999C38.2217 22.7699 38.3717 22.4399 38.2017 22.4699C38.1217 22.3999 38.0417 22.3399 37.9917 22.2499C38.1117 21.9599 37.8817 22.0799 37.8017 22.0399C37.7517 21.9499 37.5517 22.0399 37.6217 21.8299C37.5717 21.7499 37.5917 21.5999 37.4517 21.6299C37.3617 21.6099 37.6117 21.1999 37.2917 21.4399C37.1917 21.4399 37.3817 21.1099 37.1517 21.2599C36.9317 21.3899 37.0617 21.1399 37.0217 21.0899C36.9817 21.0299 36.9417 20.9799 36.9017 20.9299C36.5717 20.4599 36.4317 20.1399 36.5317 20.0199C36.6517 19.8899 37.0517 20.0199 37.6517 20.3799C37.7117 20.4099 37.9017 20.3099 37.8417 20.4899C37.8917 20.5399 38.0617 20.4699 38.0417 20.6099C38.2817 20.4599 38.1917 20.6799 38.2517 20.7499C38.3217 20.7999 38.3317 20.9199 38.4717 20.8999C38.6417 20.8399 38.5517 21.0799 38.7017 21.0599C38.6617 21.2499 38.7617 21.2799 38.9317 21.2299C38.8917 21.4199 39.1017 21.3399 39.1717 21.4099C39.0817 21.6699 39.2717 21.5999 39.4217 21.5999C39.5617 21.5999 39.5517 21.7699 39.6817 21.7999C39.7317 21.9099 39.8917 21.8999 39.9417 22.0099C40.1017 21.9999 40.2217 22.0399 40.2117 22.2199C40.3517 22.2399 40.4017 22.3699 40.4917 22.4399C40.6517 22.4399 40.6617 22.6099 40.7717 22.6699C40.9017 22.7099 40.7717 23.0299 41.0517 22.9099C41.1717 22.9699 41.2117 23.1099 41.3417 23.1599C41.4117 23.2699 41.4817 23.3799 41.6317 23.4099C41.5417 23.6999 41.7517 23.6599 41.9217 23.6699C42.0717 23.6999 42.1417 23.8199 42.2117 23.9299C42.3317 23.9999 42.4117 24.0899 42.5017 24.1899C42.6517 24.2099 42.6117 24.4499 42.7817 24.4499C42.9517 24.4499 42.8817 24.7099 43.0517 24.6999C43.2017 24.7199 43.3117 24.7699 43.3117 24.9499C43.4017 25.0299 43.3217 25.2899 43.5617 25.1999C43.6817 25.2399 43.9717 25.0799 43.8017 25.4399C43.9517 25.4399 43.8517 25.7299 44.0417 25.6799C43.9417 25.9599 44.1917 25.8399 44.2717 25.9099C44.3117 26.0199 44.3317 26.1599 44.4817 26.1399C44.6517 26.1099 44.5817 26.3299 44.6917 26.3599C44.8717 26.2999 44.6917 26.6499 44.8817 26.5699C44.9317 26.6599 45.0317 26.6699 45.0617 26.7799C45.3817 26.5599 45.1917 26.8999 45.2317 26.9799C45.2617 27.0799 45.5217 26.8999 45.3917 27.1699C45.6417 27.0099 45.5317 27.2399 45.5317 27.3499C45.5317 27.4599 45.7217 27.3499 45.6617 27.5199C45.8417 27.4199 45.6917 27.6899 45.7817 27.6799C45.7417 27.8199 45.8717 27.7699 45.8817 27.8299C45.9517 27.8299 45.9817 27.8799 45.9717 27.9699C46.0017 28.0199 46.0217 28.0599 46.0417 28.0999C46.1717 28.3399 46.2117 28.5099 46.1417 28.5899L46.1817 28.6099Z" fill="#0061EF"/>
<path d="M31.6754 20.4098C31.7554 20.4798 31.7254 20.6798 31.5854 20.9898C31.5654 21.0398 31.5354 21.0998 31.5054 21.1598C31.4854 21.2298 31.4654 21.2998 31.4154 21.3398C31.2654 21.2998 31.5254 21.6198 31.3054 21.5398C31.2054 21.5598 31.1954 21.6598 31.1854 21.7598C31.1654 21.8598 31.0054 21.8398 31.0454 21.9898C31.1954 22.2298 30.6954 21.9398 30.8954 22.2398C30.8954 22.3598 30.8054 22.4298 30.7254 22.4998C30.4954 22.4498 30.5854 22.6598 30.5454 22.7698C30.2854 22.6998 30.2954 22.8598 30.3454 23.0598C30.0054 22.9298 29.9654 23.0598 30.1354 23.3598C30.0654 23.4598 29.8854 23.4698 29.9154 23.6698C29.8454 23.7798 29.8154 23.9298 29.6854 23.9898C29.7754 24.2398 29.6854 24.3398 29.4454 24.3198C29.5454 24.5798 29.3854 24.6298 29.1954 24.6598C28.9954 24.6798 29.1754 25.0198 28.9354 25.0098C28.8254 25.1098 28.7854 25.2698 28.6654 25.3598C28.4954 25.4098 28.3054 25.4598 28.3854 25.7198C28.3354 25.8798 28.2954 26.0498 28.0954 26.0898C28.1954 26.3798 28.0054 26.4298 27.7954 26.4598C27.7254 26.6098 27.4754 26.6198 27.4854 26.8398C27.3454 26.9398 27.3654 27.1698 27.1754 27.2198C27.0054 27.2998 26.8454 27.3798 26.8554 27.5998C26.8754 27.8298 26.5954 27.8098 26.5454 27.9698C26.2554 27.9398 26.4054 28.2698 26.2354 28.3298C26.1554 28.4698 25.9254 28.4798 25.9254 28.6798C25.8654 28.8298 25.8054 28.9798 25.6254 29.0198C25.8154 29.3798 25.3554 29.1898 25.3254 29.3598C25.1054 29.3698 25.1554 29.5998 25.0354 29.6798C24.9954 29.8398 24.7154 29.7898 24.7454 29.9898C24.6354 30.0798 24.6654 30.2798 24.4654 30.2898C24.5254 30.5098 24.1754 30.3898 24.1954 30.5798C24.1154 30.6798 24.0454 30.7798 23.9354 30.8498C23.6254 30.7598 23.7454 31.0098 23.6854 31.1098C23.5854 31.1798 23.6654 31.3998 23.4354 31.3598C23.3454 31.4298 23.1754 31.4298 23.1954 31.5898C23.1654 31.6998 22.7354 31.4798 22.9654 31.7998C22.9654 31.9198 22.6054 31.7598 22.7554 31.9998C22.8854 32.2298 22.6154 32.1198 22.5554 32.1798C22.4854 32.2398 22.4254 32.2898 22.3654 32.3398C21.8154 32.7998 21.4454 33.0198 21.3254 32.9198C21.1854 32.8098 21.3854 32.3198 21.8254 31.5698C21.8654 31.4898 21.7654 31.2898 21.9654 31.3398C22.0254 31.2698 21.9654 31.0998 22.1154 31.0898C21.9654 30.8398 22.2054 30.8998 22.2854 30.8298C22.3454 30.7398 22.4854 30.7098 22.4654 30.5598C22.4154 30.3698 22.6754 30.4398 22.6654 30.2698C22.8654 30.2898 22.9154 30.1698 22.8754 29.9698C23.0854 29.9698 23.0054 29.7498 23.0954 29.6598C23.3754 29.7198 23.3154 29.5098 23.3254 29.3398C23.3354 29.1798 23.5254 29.1598 23.5654 29.0098C23.6954 28.9398 23.6954 28.7498 23.8154 28.6698C23.8154 28.4798 23.8754 28.3398 24.0754 28.3198C24.1054 28.1498 24.2554 28.0798 24.3454 27.9698C24.3654 27.7898 24.5454 27.7398 24.6254 27.6098C24.6854 27.4598 25.0354 27.5398 24.9154 27.2398C24.9854 27.0898 25.1554 27.0198 25.2154 26.8698C25.3454 26.7698 25.4754 26.6698 25.5254 26.4898C25.8454 26.5398 25.8154 26.2998 25.8454 26.1098C25.8854 25.9298 26.0254 25.8298 26.1654 25.7298C26.2454 25.5898 26.3654 25.4698 26.4854 25.3598C26.5254 25.1798 26.7754 25.1898 26.7954 24.9998C26.8054 24.7998 27.0954 24.8398 27.1054 24.6498C27.1454 24.4798 27.2054 24.3298 27.4054 24.2998C27.5054 24.1798 27.7854 24.2298 27.7054 23.9698C27.7554 23.8198 27.6154 23.5098 27.9954 23.6498C28.0154 23.4798 28.3154 23.5498 28.2854 23.3398C28.5854 23.4098 28.4754 23.1398 28.5654 23.0398C28.6954 22.9698 28.8454 22.9298 28.8354 22.7498C28.8154 22.5698 29.0554 22.5998 29.0954 22.4798C29.0454 22.2798 29.4154 22.4298 29.3454 22.2198C29.4454 22.1498 29.4754 22.0298 29.5954 21.9798C29.3754 21.6498 29.7354 21.8098 29.8354 21.7498C29.9454 21.6998 29.7754 21.4298 30.0554 21.5398C29.8954 21.2798 30.1554 21.3698 30.2654 21.3398C30.3854 21.3198 30.2854 21.1198 30.4654 21.1598C30.3654 20.9598 30.6554 21.0998 30.6554 20.9998C30.8054 21.0198 30.7554 20.8898 30.8354 20.8498C30.8354 20.7698 30.8954 20.7298 30.9954 20.7198C31.0454 20.6798 31.0954 20.6398 31.1454 20.6098C31.4254 20.4198 31.6154 20.3398 31.7054 20.4098H31.6754Z" fill="#0061EF"/>
</g>
<defs>
<clipPath id="clip0_926_40980">
<rect width="85.29" height="80.49" fill="white"/>
</clipPath>
</defs>
</svg>
