<svg width="78" height="86" viewBox="0 0 78 86" fill="none" xmlns="http://www.w3.org/2000/svg">
<g clip-path="url(#clip0_926_41022)">
<path d="M3.18916 0.900029C3.18916 0.900029 3.07916 0.960029 2.86916 1.00003C2.66916 1.05003 2.35916 1.13003 2.00916 1.33003C1.96916 1.35003 1.91916 1.38003 1.87916 1.41003C1.83916 1.44003 1.78916 1.47003 1.74916 1.50003C1.65916 1.56003 1.56916 1.64003 1.47916 1.72003C1.29916 1.89003 1.12916 2.09003 0.96916 2.33003C0.67916 2.81003 0.48916 3.48003 0.61916 4.20003C0.65916 4.44003 0.73916 4.68003 0.84916 4.91003C0.95916 5.14003 1.11916 5.36003 1.30916 5.55003C1.49916 5.74003 1.72916 5.91003 1.97916 6.04003C2.23916 6.17003 2.50916 6.26003 2.80916 6.31003C2.87916 6.34003 2.95916 6.36003 3.02916 6.36003C3.10916 6.36003 3.17916 6.37003 3.26916 6.36003C3.44916 6.35003 3.62916 6.32003 3.80916 6.29003C4.16916 6.23003 4.54916 6.19003 4.92916 6.29003C5.68916 6.35003 6.48916 6.29003 7.32916 6.25003C8.15916 6.20003 9.03916 6.34003 9.93916 6.21003C10.8392 5.94003 11.7792 6.51003 12.7492 6.17003C13.7192 6.10003 14.7192 6.12003 15.7492 6.13003C16.7792 6.34003 17.8492 6.13003 18.9392 6.09003C20.0292 6.34003 21.1492 6.23003 22.2992 6.06003C23.4492 6.40003 24.6292 6.35003 25.8292 6.03003C27.0292 6.02003 28.2692 6.15003 29.5192 6.00003C30.7792 5.98003 32.0592 5.91003 33.3592 5.97003C34.6592 5.74003 35.9892 5.75003 37.3392 5.95003C38.6892 5.70003 40.0592 5.80003 41.4592 5.93003C42.8492 6.07003 44.2692 5.71003 45.6992 5.91003C47.1392 5.93003 48.5892 5.85003 50.0592 5.89003C51.5292 5.99003 53.0192 6.10003 54.5292 5.88003C56.0392 5.82003 57.5592 5.74003 59.0992 5.87003C60.6392 5.61003 62.1992 5.72003 63.7692 5.87003C65.3392 5.83003 66.9192 6.01003 68.5192 5.87003C70.1192 5.91003 71.7292 5.76003 73.3492 5.87003C73.9192 5.91003 74.5192 5.69003 74.9292 5.25003C75.3392 4.82003 75.5192 4.18003 75.3792 3.62003C75.2392 3.07003 74.9692 2.59003 74.5492 2.22003C74.3392 2.04003 74.0892 1.90003 73.8192 1.83003C73.6892 1.79003 73.5492 1.77003 73.4092 1.77003H73.3592H73.2892H73.1392L72.8392 1.78003C71.2692 1.53003 69.7092 1.86003 68.1692 1.78003C66.6292 1.80003 65.0992 1.64003 63.5992 1.77003C62.0892 1.82003 60.5992 1.86003 59.1292 1.76003C57.6592 2.14003 56.1992 1.66003 54.7692 1.74003C53.3392 1.58003 51.9192 1.76003 50.5292 1.72003C49.1292 1.79003 47.7592 1.55003 46.4092 1.70003C45.0592 1.67003 43.7292 1.82003 42.4292 1.68003C41.1292 1.87003 39.8392 1.52003 38.5892 1.65003C37.3292 1.65003 36.0992 1.66003 34.8992 1.62003C33.6992 1.33003 32.5192 1.57003 31.3692 1.59003C30.2192 1.56003 29.0992 1.76003 28.0092 1.56003C26.9192 1.54003 25.8492 1.41003 24.8192 1.52003C23.7892 1.56003 22.7892 1.09003 21.8192 1.48003C20.8492 1.55003 19.9092 1.18003 19.0092 1.44003C18.1092 1.68003 17.2392 1.41003 16.3992 1.40003C15.5592 1.39003 14.7592 1.37003 13.9992 1.36003C10.5592 1.30003 7.85916 1.23003 6.00916 1.15003C4.15916 1.08003 3.17916 1.00003 3.17916 0.92003C3.17916 0.830029 4.39916 0.75003 6.65916 0.67003C8.91916 0.59003 12.2292 0.510029 16.3992 0.450029C17.2392 0.440029 18.1092 0.230029 19.0092 0.410029C19.9092 0.410029 20.8492 0.250029 21.8192 0.370029C22.7892 0.100029 23.7892 0.320029 24.8192 0.330029C25.8492 0.320029 26.9192 0.400029 28.0092 0.300029C29.0992 0.140029 30.2192 0.380029 31.3692 0.27003C32.5192 0.44003 33.6992 0.390029 34.8992 0.240029C36.0992 0.400029 37.3292 0.200029 38.5892 0.210029C39.8492 0.460029 41.1292 0.28003 42.4292 0.180029C43.7392 0.0900295 45.0592 0.220029 46.4092 0.160029C47.7592 0.210029 49.1292 0.100029 50.5292 0.140029C51.9192 0.0200295 53.3392 -0.0199705 54.7692 0.120029C56.2092 0.0400295 57.6592 0.100029 59.1292 0.100029C60.5992 2.94894e-05 62.0892 0.110029 63.5992 0.0900295C65.1092 0.0400295 66.6292 0.360029 68.1692 0.0800295C69.7092 0.0400295 71.2692 0.120029 72.8392 0.0800295H73.1392H73.2892H73.3692H73.4692C73.7192 0.0900295 73.9792 0.130029 74.2292 0.190029C74.7292 0.320029 75.1892 0.54003 75.5992 0.85003C76.4092 1.46003 76.9692 2.40003 77.1092 3.44003C77.0792 4.48003 76.7092 5.47003 76.0592 6.23003C75.7292 6.61003 75.3292 6.94003 74.8692 7.17003C74.4092 7.41003 73.8892 7.55003 73.3692 7.58003C71.7492 7.66003 70.1392 7.62003 68.5392 7.58003C66.9392 7.61003 65.3592 7.59003 63.7892 7.58003C62.2192 7.66003 60.6592 7.46003 59.1192 7.58003C57.5792 7.70003 56.0492 7.45003 54.5492 7.57003C53.0392 7.65003 51.5492 7.69003 50.0792 7.56003C48.6092 7.56003 47.1492 7.31003 45.7192 7.54003C44.2792 7.59003 42.8692 7.90003 41.4792 7.52003C40.0892 7.62003 38.7092 7.34003 37.3592 7.50003C36.0092 7.22003 34.6792 7.48003 33.3792 7.48003C32.0692 7.42003 30.7892 7.33003 29.5392 7.45003C28.2792 7.58003 27.0492 7.38003 25.8492 7.42003C24.6492 7.58003 23.4692 7.21003 22.3192 7.39003C21.1692 7.35003 20.0492 7.42003 18.9592 7.36003C17.8692 7.74003 16.8092 7.36003 15.7692 7.33003C14.7392 7.27003 13.7392 7.58003 12.7692 7.29003C11.7992 7.58003 10.8592 7.33003 9.95916 7.25003C9.05916 7.17003 8.18916 7.37003 7.34916 7.21003C6.50916 7.41003 5.70916 7.10003 4.94916 7.17003C4.56916 7.10003 4.18916 7.10003 3.82916 7.11003C3.64916 7.11003 3.46916 7.12003 3.28916 7.13003C3.20916 7.13003 3.09916 7.13003 2.99916 7.13003C2.89916 7.13003 2.79916 7.11003 2.70916 7.09003C2.31916 7.05003 1.93916 6.93003 1.60916 6.75003C1.28916 6.56003 1.00916 6.31003 0.80916 6.03003C0.57916 5.77003 0.39916 5.49003 0.27916 5.19003C0.14916 4.90003 0.0691598 4.60003 0.0391598 4.30003C-0.0708402 3.41003 0.21916 2.63003 0.60916 2.09003C0.80916 1.82003 1.02916 1.61003 1.24916 1.44003C1.36916 1.36003 1.46916 1.28003 1.57916 1.23003C1.62916 1.20003 1.68916 1.17003 1.73916 1.14003C1.79916 1.12003 1.84916 1.09003 1.89916 1.07003C2.30916 0.900029 2.64916 0.87003 2.86916 0.87003C3.08916 0.87003 3.19916 0.90003 3.19916 0.93003L3.18916 0.900029Z" fill="#0061EF"/>
<path d="M6.63994 6.68984C6.68994 6.68984 6.73994 7.26984 6.78994 8.36984C6.83994 9.46984 6.88994 11.1098 6.93994 13.2198C6.94994 13.9298 6.96994 14.6798 6.98994 15.4898C7.01994 16.2998 7.04994 17.1598 7.02995 18.0698C6.88995 18.9798 7.28995 19.9398 7.06994 20.9498C7.00995 21.9598 7.06994 23.0098 7.10994 24.1098C7.15994 25.2098 7.01994 26.3598 7.14994 27.5498C7.41994 28.7398 6.84994 29.9798 7.18994 31.2498C7.25994 32.5298 7.23994 33.8498 7.22994 35.2098C7.01994 36.5698 7.22994 37.9698 7.26994 39.4098C7.01994 40.8498 7.12995 42.3298 7.29994 43.8398C7.14995 44.4998 7.07994 45.1598 7.06994 45.8298C7.06994 46.1598 7.06994 46.4998 7.09994 46.8398C7.09994 46.8598 7.09994 46.8798 7.09994 46.8898V46.9198L7.11994 46.9898C7.11994 47.0298 7.13994 47.0698 7.14994 47.1098C7.16994 47.1898 7.18994 47.2498 7.21994 47.2998C7.33994 47.2698 7.44994 47.2298 7.53994 47.1898H7.62994H7.88994C8.08994 47.1898 8.28994 47.1898 8.48994 47.1998C8.88994 47.1998 9.28994 47.2198 9.69994 47.2298C10.5099 47.2398 11.3299 47.2298 12.1599 47.1598C13.8099 47.1398 15.4999 47.0698 17.2199 47.1298C18.9399 46.8998 20.6899 46.9098 22.4699 47.1098C24.2499 46.8598 26.0599 46.9598 27.8999 47.0898C29.7399 47.2298 31.5999 46.8698 33.4899 47.0698C35.3799 47.0898 37.2999 47.0198 39.2399 47.0498C41.1799 47.1498 43.1499 47.2598 45.1299 47.0398C47.1199 46.9798 49.1299 46.8998 51.1599 47.0298C53.1899 46.7698 55.2399 46.8798 57.3099 47.0298C59.3799 46.9898 61.4699 47.1698 63.5699 47.0298C64.6199 47.0498 65.6799 47.0298 66.7399 46.9998C67.2699 46.9898 67.7999 46.9798 68.3299 46.9798H68.7299H68.9299C68.9499 46.9798 68.9499 46.9798 68.9599 46.9798C68.9899 46.9798 69.0299 46.9998 69.0799 47.0098C69.0799 47.0098 69.0999 46.9398 69.1099 46.8998C69.1099 46.8798 69.1099 46.8898 69.1099 46.8598V46.6598L69.1299 46.2598C69.1499 45.7298 69.16 45.1998 69.16 44.6698C69.1699 43.6098 69.1599 42.5498 69.0699 41.4998C68.8999 39.3998 69.1399 37.3098 69.0699 35.2398C69.3199 33.1698 68.9899 31.1198 69.0699 29.0898C69.0499 27.0598 69.2099 25.0498 69.0699 23.0598C69.0299 21.0698 68.9799 19.1098 69.0799 17.1698C68.6999 15.2298 69.1799 13.3098 69.0999 11.4198C69.1699 10.6198 69.1699 9.82984 69.16 9.03984C69.16 8.64984 69.1399 8.24984 69.1299 7.85984V7.70984V7.67984V7.64984V7.58984C69.1299 7.58984 69.1199 7.50984 69.1099 7.46984C69.0499 7.46984 68.9899 7.46984 68.9299 7.46984C68.9399 7.46984 68.7899 7.46984 68.6799 7.47984H68.3399C68.1099 7.47984 67.8799 7.47984 67.6499 7.47984C67.1899 7.46984 66.7399 7.44984 66.2899 7.42984C65.3899 7.39984 64.4899 7.36984 63.5999 7.44984C61.8199 7.41984 60.0699 7.56984 58.3499 7.42984C56.6299 7.61984 54.9399 7.26984 53.2899 7.39984C51.6399 7.39984 50.0199 7.40984 48.4299 7.36984C46.8399 7.07984 45.2899 7.31984 43.7799 7.33984C42.2699 7.30984 40.7899 7.50984 39.3499 7.30984C37.9099 7.28984 36.5099 7.15984 35.1499 7.27984C33.7899 7.31984 32.4699 6.84984 31.1999 7.23984C29.9199 7.30984 28.6899 6.93984 27.4999 7.19984C26.3099 7.43984 25.1599 7.16984 24.0599 7.15984C22.9599 7.14984 21.8999 7.12984 20.8999 7.11984C16.3699 7.05984 12.8099 6.98984 10.3799 6.90984C7.94994 6.83984 6.64994 6.75984 6.64994 6.67984C6.64994 6.63984 7.04995 6.58984 7.81995 6.54984C8.58995 6.50984 9.73994 6.46984 11.2299 6.42984C14.2099 6.34984 18.5599 6.26984 24.0699 6.20984C25.1699 6.19984 26.3199 5.98984 27.5099 6.16984C28.6999 6.16984 29.9299 6.00984 31.2099 6.12984C32.4899 5.85984 33.8099 6.07984 35.1599 6.08984C36.5199 6.07984 37.9199 6.15984 39.3599 6.04984C40.7999 5.88984 42.2799 6.12984 43.7899 6.01984C45.2999 6.18984 46.8499 6.14984 48.4399 5.98984C50.0299 6.14984 51.6499 5.95984 53.2999 5.95984C54.9499 6.20984 56.6399 6.03984 58.3599 5.92984C60.0799 5.83984 61.8299 5.96984 63.6099 5.90984C64.4999 5.92984 65.3999 5.90984 66.2999 5.90984C66.75 5.90984 67.2099 5.89984 67.66 5.88984C67.8899 5.88984 68.1199 5.88984 68.3499 5.88984C68.6099 5.88984 68.8699 5.88984 69.1299 5.88984C69.6699 5.86984 70.2099 5.85984 70.7599 5.83984C70.7799 6.50984 70.7899 7.17984 70.8099 7.85984C70.8099 8.24984 70.8299 8.63984 70.8199 9.03984C70.8199 9.82984 70.7899 10.6198 70.7299 11.4198C70.81 13.3098 70.7499 15.2298 70.7499 17.1698C70.8499 19.1098 70.74 21.0798 70.7599 23.0598C70.81 25.0498 70.4899 27.0598 70.7699 29.0898C70.8099 31.1198 70.7299 33.1698 70.7699 35.2398C70.7299 37.3098 70.6999 39.3998 70.7699 41.4998C70.6299 42.5498 70.6099 43.6098 70.6299 44.6698C70.6399 45.1998 70.66 45.7298 70.6899 46.2598L70.7099 46.6598V46.8598L70.7299 47.2198C70.74 47.7198 70.7599 48.2298 70.7699 48.7398C69.9399 48.7498 69.1199 48.7698 68.2999 48.7798C67.77 48.7798 67.2399 48.7798 66.7099 48.7798C65.6499 48.7798 64.5899 48.7498 63.5399 48.7298C61.4399 48.7598 59.3499 48.7398 57.2799 48.7298C55.2099 48.8098 53.1599 48.6098 51.1299 48.7298C49.0999 48.8498 47.0899 48.5998 45.0999 48.7298C43.1099 48.8098 41.1499 48.8498 39.2099 48.7198C37.2699 48.7198 35.3499 48.4698 33.4599 48.6998C31.5699 48.7498 29.6999 49.0598 27.8699 48.6798C26.0299 48.7798 24.2199 48.4998 22.4399 48.6598C20.6599 48.3798 18.9099 48.6498 17.1899 48.6398C15.4699 48.5898 13.7799 48.4898 12.1299 48.6098C11.2999 48.6798 10.4799 48.6598 9.66995 48.6298C9.25994 48.6198 8.85995 48.5998 8.45994 48.5898C8.25994 48.5898 8.05995 48.5898 7.85995 48.5798H7.51994H7.00995C6.63995 48.5998 6.24994 48.6098 5.87994 48.6198C5.87994 48.3298 5.87994 48.0298 5.87994 47.7298V47.2798L5.89994 46.8598C5.91994 46.5198 5.93994 46.1898 5.95994 45.8498C5.99994 45.1798 6.02994 44.5198 5.94994 43.8598C5.98994 42.3498 5.92994 40.8698 5.97994 39.4298C5.59994 37.9898 5.97994 36.5898 6.01994 35.2298C6.06994 33.8698 5.76994 32.5498 6.05994 31.2698C5.76994 29.9898 6.01994 28.7598 6.09994 27.5698C6.17994 26.3798 5.97994 25.2298 6.13994 24.1298C5.93994 23.0298 6.24994 21.9798 6.17994 20.9698C6.30994 19.9598 6.17994 18.9998 6.21994 18.0898C6.17994 17.1798 6.18994 16.3198 6.26994 15.5098C6.28994 14.6998 6.29994 13.9398 6.30994 13.2398C6.35994 11.1298 6.40994 9.49984 6.45994 8.38984C6.50994 7.27984 6.55994 6.70984 6.61994 6.70984L6.63994 6.68984Z" fill="#0061EF"/>
<path d="M33.7491 12.2299C33.7491 12.3399 33.5391 12.4399 33.1591 12.5299C33.0991 12.5499 33.0291 12.56 32.9491 12.58C32.8791 12.61 32.7991 12.64 32.7191 12.62C32.6391 12.48 32.5491 12.88 32.4591 12.66C32.3691 12.6 32.2691 12.66 32.1691 12.6999C32.0691 12.7499 31.9691 12.6099 31.8591 12.7399C31.7491 13.0099 31.6391 12.4399 31.5191 12.7799C31.3991 12.8499 31.2791 12.8299 31.1591 12.8199C31.0391 12.6099 30.9091 12.82 30.7791 12.85C30.6491 12.6 30.5191 12.71 30.3791 12.88C30.2391 12.54 30.0991 12.59 29.9591 12.91C29.8191 12.92 29.6691 12.7899 29.5191 12.9399C29.3691 12.9599 29.2191 13.03 29.0591 12.97C28.8991 13.2 28.7491 13.1899 28.5791 12.9899C28.4191 13.2399 28.2591 13.14 28.0891 13.01C27.9191 12.87 27.7491 13.2299 27.5791 13.0299C27.4091 13.0099 27.2291 13.09 27.0591 13.05C26.8791 12.95 26.7091 12.84 26.5291 13.06C26.3491 13.12 26.1691 13.1999 25.9791 13.0699C25.7891 13.3299 25.6091 13.2199 25.4191 13.0699C25.2291 13.1099 25.0391 12.9299 24.8491 13.0699C24.6591 13.0299 24.4691 13.1899 24.2691 13.0699C24.0791 12.9899 23.8791 12.9199 23.6891 13.0699C23.4991 13.2399 23.3091 12.9999 23.1191 13.0699C22.9291 12.8299 22.7491 13.1499 22.5591 13.0699C22.3791 13.0899 22.1891 12.93 22.0091 13.06C21.8291 13.1 21.6491 13.15 21.4791 13.05C21.2991 13.43 21.1291 12.9499 20.9591 13.0299C20.7891 12.8699 20.6191 13.05 20.4491 13.01C20.2791 13.08 20.1191 12.8399 19.9591 12.9899C19.7991 12.9599 19.6391 13.11 19.4791 12.97C19.3191 13.16 19.1691 12.8099 19.0191 12.9399C18.8691 12.9399 18.7191 12.9499 18.5791 12.91C18.4391 12.62 18.2891 12.86 18.1591 12.88C18.0191 12.85 17.8891 13.05 17.7591 12.85C17.6291 12.83 17.4991 12.6999 17.3791 12.8199C17.2591 12.8599 17.1391 12.3899 17.0191 12.7799C16.8991 12.8499 16.7891 12.4799 16.6791 12.7399C16.5691 12.9799 16.4691 12.7099 16.3691 12.6999C16.2691 12.6899 16.1791 12.67 16.0791 12.66C15.2591 12.53 14.7891 12.38 14.7891 12.22C14.7891 12.04 15.3691 11.8799 16.3691 11.74C16.4691 11.73 16.5691 11.52 16.6791 11.7C16.7891 11.7 16.8991 11.54 17.0191 11.66C17.1391 11.39 17.2591 11.61 17.3791 11.62C17.4991 11.61 17.6291 11.69 17.7591 11.58C17.8891 11.42 18.0191 11.66 18.1591 11.55C18.2991 11.72 18.4391 11.68 18.5791 11.52C18.7191 11.68 18.8691 11.4899 19.0191 11.4899C19.1691 11.7399 19.3191 11.57 19.4791 11.46C19.6391 11.37 19.7991 11.4999 19.9591 11.4399C20.1191 11.4899 20.2891 11.38 20.4491 11.42C20.6191 11.3 20.7891 11.2599 20.9591 11.3999C21.1291 11.3199 21.3091 11.38 21.4791 11.38C21.6591 11.28 21.8291 11.39 22.0091 11.37C22.1891 11.32 22.3691 11.6399 22.5591 11.3599C22.7391 11.3199 22.9291 11.3999 23.1191 11.3599C23.3091 11.3999 23.4991 11.4299 23.6891 11.3599C23.8791 11.6399 24.0691 11.4699 24.2691 11.3599C24.4591 11.2799 24.6591 11.3199 24.8491 11.3599C25.0391 11.3299 25.2291 11.3499 25.4191 11.3599C25.6091 11.2799 25.7891 11.4799 25.9791 11.3599C26.1591 11.2399 26.3491 11.48 26.5291 11.37C26.7091 11.29 26.8891 11.25 27.0591 11.38C27.2391 11.38 27.4091 11.6299 27.5791 11.3999C27.7491 11.3499 27.9191 11.03 28.0891 11.42C28.2591 11.33 28.4191 11.6099 28.5791 11.4399C28.7391 11.7199 28.8991 11.45 29.0591 11.46C29.2191 11.51 29.3691 11.6099 29.5191 11.4899C29.6691 11.3599 29.8191 11.56 29.9591 11.52C30.0991 11.36 30.2391 11.73 30.3791 11.55C30.5191 11.59 30.6491 11.53 30.7791 11.58C30.9091 11.2 31.0391 11.58 31.1591 11.62C31.2791 11.67 31.3991 11.37 31.5191 11.66C31.6391 11.37 31.7491 11.6199 31.8591 11.7C31.9691 11.78 32.0691 11.58 32.1691 11.74C32.2691 11.54 32.3691 11.8499 32.4591 11.7799C32.5491 11.9099 32.6391 11.7799 32.7191 11.8199C32.7991 11.7799 32.8791 11.79 32.9491 11.87C33.0191 11.89 33.0891 11.9 33.1591 11.92C33.5391 12.01 33.7491 12.11 33.7491 12.22V12.2299Z" fill="#0061EF"/>
<path d="M33.7491 19.7202C33.7491 19.8302 33.5391 19.9302 33.1591 20.0202C33.0991 20.0402 33.0291 20.0502 32.9491 20.0702C32.8791 20.1002 32.7991 20.1302 32.7191 20.1102C32.6391 19.9702 32.5491 20.3702 32.4591 20.1502C32.3691 20.0902 32.2691 20.1502 32.1691 20.1902C32.0691 20.2402 31.9691 20.1002 31.8591 20.2302C31.7491 20.5002 31.6391 19.9302 31.5191 20.2702C31.3991 20.3402 31.2791 20.3202 31.1591 20.3102C31.0391 20.1002 30.9091 20.3102 30.7791 20.3402C30.6491 20.0902 30.5191 20.2002 30.3791 20.3702C30.2391 20.0302 30.0991 20.0802 29.9591 20.4002C29.8191 20.4102 29.6691 20.2802 29.5191 20.4302C29.3691 20.4502 29.2191 20.5202 29.0591 20.4602C28.8991 20.6902 28.7491 20.6802 28.5791 20.4802C28.4191 20.7302 28.2591 20.6302 28.0891 20.5002C27.9191 20.3602 27.7491 20.7102 27.5791 20.5202C27.4091 20.5002 27.2291 20.5802 27.0591 20.5402C26.8791 20.4402 26.7091 20.3302 26.5291 20.5502C26.3491 20.6102 26.1691 20.6902 25.9791 20.5602C25.7891 20.8202 25.6091 20.7102 25.4191 20.5602C25.2291 20.6002 25.0391 20.4202 24.8491 20.5602C24.6591 20.5202 24.4691 20.6702 24.2691 20.5602C24.0791 20.4802 23.8791 20.4102 23.6891 20.5602C23.4991 20.7302 23.3091 20.4902 23.1191 20.5602C22.9291 20.3102 22.7491 20.6402 22.5591 20.5602C22.3791 20.5802 22.1891 20.4202 22.0091 20.5502C21.8291 20.6002 21.6491 20.6402 21.4791 20.5402C21.2991 20.9202 21.1291 20.4402 20.9591 20.5202C20.7891 20.3602 20.6191 20.5402 20.4491 20.5002C20.2791 20.5702 20.1191 20.3202 19.9591 20.4802C19.7991 20.4502 19.6391 20.6002 19.4791 20.4602C19.3191 20.6502 19.1691 20.3002 19.0191 20.4302C18.8691 20.4302 18.7191 20.4402 18.5791 20.4002C18.4391 20.1102 18.2891 20.3502 18.1591 20.3702C18.0191 20.3402 17.8891 20.5402 17.7591 20.3402C17.6291 20.3202 17.4991 20.1902 17.3791 20.3102C17.2591 20.3502 17.1391 19.8802 17.0191 20.2702C16.8991 20.3402 16.7891 19.9702 16.6791 20.2302C16.5691 20.4702 16.4691 20.2002 16.3691 20.1902C16.2691 20.1702 16.1791 20.1602 16.0791 20.1502C15.2591 20.0202 14.7891 19.8702 14.7891 19.7102C14.7891 19.5302 15.3691 19.3702 16.3691 19.2302C16.4691 19.2202 16.5691 19.0102 16.6791 19.1902C16.7891 19.1902 16.8991 19.0302 17.0191 19.1502C17.1391 18.8802 17.2591 19.1002 17.3791 19.1102C17.4991 19.1002 17.6291 19.1802 17.7591 19.0702C17.8891 18.9102 18.0191 19.1502 18.1591 19.0402C18.2991 19.2102 18.4391 19.1602 18.5791 19.0102C18.7191 19.1702 18.8691 18.9702 19.0191 18.9802C19.1691 19.2302 19.3191 19.0602 19.4791 18.9502C19.6391 18.8602 19.7991 18.9902 19.9591 18.9302C20.1191 18.9802 20.2891 18.8702 20.4491 18.9102C20.6191 18.7902 20.7891 18.7502 20.9591 18.8902C21.1291 18.8102 21.3091 18.8702 21.4791 18.8702C21.6591 18.7702 21.8291 18.8802 22.0091 18.8602C22.1891 18.8102 22.3691 19.1302 22.5591 18.8502C22.7391 18.8102 22.9291 18.8902 23.1191 18.8502C23.3091 18.8802 23.4991 18.9202 23.6891 18.8502C23.8791 19.1302 24.0691 18.9602 24.2691 18.8502C24.4591 18.7702 24.6591 18.8102 24.8491 18.8502C25.0391 18.8202 25.2291 18.8402 25.4191 18.8502C25.6091 18.7702 25.7891 18.9702 25.9791 18.8502C26.1591 18.7302 26.3491 18.9802 26.5291 18.8602C26.7091 18.7802 26.8891 18.7402 27.0591 18.8702C27.2391 18.8702 27.4091 19.1202 27.5791 18.8902C27.7491 18.8402 27.9191 18.5302 28.0891 18.9102C28.2591 18.8102 28.4191 19.0902 28.5791 18.9302C28.7391 19.2102 28.8991 18.9502 29.0591 18.9502C29.2191 19.0002 29.3691 19.1002 29.5191 18.9802C29.6691 18.8502 29.8191 19.0502 29.9591 19.0102C30.0991 18.8502 30.2391 19.2202 30.3791 19.0402C30.5191 19.0802 30.6491 19.0202 30.7791 19.0702C30.9091 18.6902 31.0391 19.0702 31.1591 19.1102C31.2791 19.1602 31.3991 18.8602 31.5191 19.1502C31.6391 18.8602 31.7491 19.1102 31.8591 19.1902C31.9691 19.2702 32.0691 19.0702 32.1691 19.2302C32.2691 19.0302 32.3691 19.3402 32.4591 19.2702C32.5491 19.4002 32.6391 19.2702 32.7191 19.3102C32.7991 19.2602 32.8791 19.2802 32.9491 19.3502C33.0191 19.3702 33.0891 19.3802 33.1591 19.4002C33.5391 19.4902 33.7491 19.6002 33.7491 19.7002V19.7202Z" fill="#0061EF"/>
<path d="M33.7491 27.1999C33.7491 27.3099 33.5391 27.4099 33.1591 27.4999C33.0991 27.5199 33.0291 27.5299 32.9491 27.5499C32.8791 27.5799 32.7991 27.6099 32.7191 27.5999C32.6391 27.4599 32.5491 27.8599 32.4591 27.6399C32.3691 27.5799 32.2691 27.6399 32.1691 27.6799C32.0691 27.7299 31.9691 27.5899 31.8591 27.7199C31.7491 27.9899 31.6391 27.4199 31.5191 27.7599C31.3991 27.8299 31.2791 27.8099 31.1591 27.7999C31.0391 27.5899 30.9091 27.7999 30.7791 27.8399C30.6491 27.5899 30.5191 27.6999 30.3791 27.8699C30.2391 27.5299 30.0991 27.5799 29.9591 27.8999C29.8191 27.9099 29.6691 27.7799 29.5191 27.9299C29.3691 27.9499 29.2191 28.0199 29.0591 27.9599C28.8991 28.1899 28.7491 28.1799 28.5791 27.9799C28.4191 28.2299 28.2591 28.1299 28.0891 27.9999C27.9191 27.8599 27.7491 28.2199 27.5791 28.0199C27.4091 27.9999 27.2291 28.0799 27.0591 28.0399C26.8791 27.9399 26.7091 27.8299 26.5291 28.0499C26.3491 28.1099 26.1691 28.1899 25.9791 28.0499C25.7891 28.3099 25.6091 28.1999 25.4191 28.0499C25.2291 28.0899 25.0391 27.9099 24.8491 28.0499C24.6591 28.0099 24.4691 28.1699 24.2691 28.0499C24.0791 27.9699 23.8791 27.8899 23.6891 28.0499C23.4991 28.2199 23.3091 27.9799 23.1191 28.0499C22.9291 27.8099 22.7491 28.1299 22.5591 28.0499C22.3791 28.0699 22.1891 27.9099 22.0091 28.0499C21.8291 28.0899 21.6491 28.1399 21.4791 28.0399C21.2991 28.4199 21.1291 27.9399 20.9591 28.0199C20.7891 27.8599 20.6191 28.0399 20.4491 27.9999C20.2791 28.0699 20.1191 27.8299 19.9591 27.9799C19.7991 27.9499 19.6391 28.0999 19.4791 27.9599C19.3191 28.1499 19.1691 27.7999 19.0191 27.9299C18.8691 27.9299 18.7191 27.9399 18.5791 27.8999C18.4391 27.5999 18.2891 27.8499 18.1591 27.8699C18.0191 27.8399 17.8891 28.0399 17.7591 27.8399C17.6291 27.8199 17.4991 27.6899 17.3791 27.7999C17.2591 27.8399 17.1391 27.3699 17.0191 27.7599C16.8991 27.8299 16.7891 27.4599 16.6791 27.7199C16.5691 27.9599 16.4691 27.6899 16.3691 27.6799C16.2691 27.6699 16.1791 27.6499 16.0791 27.6399C15.2591 27.5099 14.7891 27.3599 14.7891 27.2099C14.7891 27.0299 15.3691 26.8699 16.3691 26.7299C16.4691 26.7199 16.5691 26.5099 16.6791 26.6899C16.7891 26.6899 16.8991 26.5299 17.0191 26.6499C17.1391 26.3799 17.2591 26.5999 17.3791 26.6099C17.4991 26.5999 17.6291 26.6799 17.7591 26.5799C17.8891 26.4199 18.0191 26.6599 18.1591 26.5499C18.2991 26.7199 18.4391 26.6699 18.5791 26.5199C18.7191 26.6899 18.8691 26.4899 19.0191 26.4899C19.1691 26.7399 19.3191 26.5699 19.4791 26.4599C19.6391 26.3699 19.7991 26.4999 19.9591 26.4399C20.1191 26.4899 20.2891 26.3799 20.4491 26.4199C20.6191 26.2999 20.7891 26.2599 20.9591 26.3999C21.1291 26.3199 21.3091 26.3799 21.4791 26.3799C21.6591 26.2799 21.8291 26.3899 22.0091 26.3699C22.1891 26.3199 22.3691 26.6399 22.5591 26.3599C22.7391 26.3199 22.9291 26.3999 23.1191 26.3599C23.3091 26.3999 23.4991 26.4299 23.6891 26.3599C23.8791 26.6299 24.0691 26.4599 24.2691 26.3599C24.4591 26.2799 24.6591 26.3199 24.8491 26.3599C25.0391 26.3299 25.2291 26.3499 25.4191 26.3599C25.6091 26.2799 25.7891 26.4799 25.9791 26.3599C26.1591 26.2399 26.3491 26.4799 26.5291 26.3699C26.7091 26.2899 26.8891 26.2499 27.0591 26.3799C27.2391 26.3799 27.4091 26.6299 27.5791 26.3999C27.7491 26.3499 27.9191 26.0399 28.0891 26.4199C28.2591 26.3199 28.4191 26.6099 28.5791 26.4399C28.7391 26.7199 28.8991 26.4499 29.0591 26.4599C29.2191 26.5099 29.3691 26.6099 29.5191 26.4899C29.6691 26.3599 29.8191 26.5599 29.9591 26.5199C30.0991 26.3599 30.2391 26.7299 30.3791 26.5499C30.5191 26.5899 30.6491 26.5299 30.7791 26.5799C30.9091 26.1999 31.0391 26.5799 31.1591 26.6099C31.2791 26.6599 31.3991 26.3599 31.5191 26.6499C31.6391 26.3599 31.7491 26.6099 31.8591 26.6899C31.9691 26.7699 32.0691 26.5699 32.1691 26.7299C32.2691 26.5299 32.3691 26.8399 32.4591 26.7699C32.5491 26.8999 32.6391 26.7699 32.7191 26.8099C32.7991 26.7699 32.8791 26.7799 32.9491 26.8599C33.0191 26.8699 33.0891 26.8899 33.1591 26.9099C33.5391 26.9999 33.7491 27.0999 33.7491 27.2099V27.1999Z" fill="#0061EF"/>
<path d="M52.7998 11.67C52.7998 11.72 52.6298 11.78 52.3298 11.85C52.1798 11.89 51.9798 11.91 51.7598 11.96C51.5398 12.02 51.2798 12.08 50.9998 12.15C50.8098 12.2 50.6098 12.28 50.3998 12.35C50.2998 12.39 50.1898 12.43 50.0798 12.47C49.9698 12.52 49.8598 12.56 49.7398 12.6C49.4498 12.56 49.3498 13 49.0298 12.93C48.8898 12.96 48.7598 13.02 48.6398 13.1C48.5798 13.14 48.5198 13.17 48.4598 13.22C48.3998 13.27 48.3498 13.32 48.2898 13.37C48.0598 13.57 47.7098 13.6 47.5298 13.91C47.4798 14.12 47.3098 14.15 47.1298 14.2C46.9598 14.25 46.7898 14.33 46.7798 14.57C46.7298 14.64 46.6698 14.71 46.6098 14.77C46.5498 14.83 46.4898 14.9 46.4298 14.96C46.3098 15.09 46.1898 15.22 46.0598 15.35C45.8498 15.41 45.7398 15.57 45.6498 15.74C45.5598 15.91 45.4898 16.09 45.3998 16.27C44.9998 16.47 44.8498 16.87 44.8498 17.32C44.7298 17.37 44.6298 17.44 44.5498 17.52C44.5098 17.56 44.4798 17.6 44.4398 17.65C44.4098 17.7 44.3898 17.74 44.3798 17.8C44.3198 18 44.3298 18.24 44.4098 18.49C44.3698 18.59 44.3498 18.69 44.3098 18.79C44.2798 18.89 44.2398 18.99 44.2098 19.1C44.1798 19.2 44.1498 19.31 44.1298 19.42C44.1198 19.53 44.1298 19.64 44.1498 19.76C44.1298 19.98 44.1098 20.2 44.0998 20.42C44.0998 20.64 44.0998 20.87 44.0498 21.09C44.0998 21.2 44.1498 21.32 44.1798 21.43C44.2098 21.54 44.2298 21.66 44.2398 21.77C44.2398 21.88 44.2398 22 44.2198 22.11C44.2198 22.23 44.1898 22.35 44.1598 22.47C44.2398 22.58 44.2998 22.68 44.3398 22.8C44.3598 22.85 44.3798 22.91 44.3898 22.97C44.4098 23.03 44.4298 23.08 44.4398 23.14C44.4898 23.37 44.4898 23.61 44.4998 23.86C44.5198 24.11 44.6498 24.32 44.7798 24.53C44.9098 24.74 45.0698 24.93 45.0798 25.2L45.1598 25.37C45.1898 25.42 45.2298 25.47 45.2598 25.53C45.3298 25.63 45.3998 25.74 45.4698 25.84C45.5398 25.94 45.5998 26.06 45.6798 26.15C45.7598 26.25 45.8298 26.35 45.8998 26.46C45.9598 26.58 46.0098 26.7 46.0698 26.81C46.1398 26.92 46.2198 27.03 46.2998 27.13C46.3798 27.23 46.4698 27.32 46.5798 27.41C46.6798 27.49 46.8098 27.55 46.9398 27.6C47.1498 27.75 47.3598 27.91 47.5898 28.04C47.8098 28.18 47.9998 28.37 48.1998 28.55C48.7798 28.61 49.1798 28.94 49.6298 29.27C49.7598 29.31 49.8898 29.36 50.0098 29.41C50.1398 29.46 50.2598 29.53 50.3898 29.57C50.6498 29.65 50.9098 29.75 51.1998 29.72C51.4698 29.78 51.7498 29.8 52.0198 29.81C52.2998 29.81 52.5698 29.81 52.8498 29.88C53.1298 29.91 53.4098 29.93 53.6898 29.93C53.9698 29.91 54.2398 29.84 54.4998 29.72C54.5298 29.7 54.5598 29.69 54.5998 29.68C54.6298 29.66 54.6598 29.65 54.6998 29.64C54.7598 29.61 54.8298 29.59 54.8898 29.57C55.0198 29.53 55.1498 29.51 55.2898 29.49C55.4298 29.48 55.5598 29.44 55.6898 29.4C55.8198 29.36 55.9498 29.32 56.0698 29.26C56.1498 29.26 56.2198 29.26 56.2898 29.25C56.3598 29.23 56.4198 29.21 56.4798 29.18C56.5998 29.13 56.7198 29.05 56.8298 28.98L56.9998 28.86L57.1598 28.73C57.2698 28.65 57.3798 28.58 57.4998 28.53C57.7298 28.39 57.9498 28.25 58.1798 28.11C58.4098 27.98 58.6098 27.8 58.7598 27.58C58.8498 27.48 58.9398 27.39 59.0198 27.29C59.0998 27.19 59.1798 27.09 59.2698 26.99C59.3498 26.9 59.4398 26.8 59.5398 26.71C59.6298 26.62 59.7098 26.52 59.8098 26.44C59.8098 26.12 59.9798 25.95 60.1498 25.76C60.2398 25.67 60.3398 25.58 60.4298 25.49C60.4698 25.44 60.5198 25.4 60.5498 25.34C60.5798 25.29 60.6098 25.23 60.6198 25.17C60.7998 24.98 60.9098 24.76 60.9798 24.52C61.0398 24.28 61.0898 24.04 61.1998 23.82C61.2298 23.58 61.3298 23.36 61.4198 23.13C61.4398 23.07 61.4698 23.02 61.4898 22.96C61.5098 22.9 61.5198 22.84 61.5298 22.78C61.5498 22.66 61.5498 22.54 61.5298 22.42C61.5598 22.31 61.5698 22.19 61.5798 22.07C61.5798 21.95 61.5798 21.84 61.5798 21.72C61.5798 21.6 61.5798 21.49 61.5898 21.38C61.5998 21.27 61.6298 21.15 61.6498 21.04C61.5498 20.82 61.5698 20.59 61.6098 20.37C61.6298 20.26 61.6298 20.14 61.6298 20.03C61.6298 19.92 61.5998 19.81 61.5498 19.71C61.5298 19.6 61.5198 19.49 61.4998 19.39C61.4698 19.28 61.4498 19.18 61.4198 19.08C61.3598 18.87 61.3298 18.66 61.2798 18.46C61.3498 18.22 61.2798 18.01 61.1898 17.82C61.1698 17.77 61.1398 17.73 61.1098 17.68L61.0098 17.55C60.9498 17.47 60.8798 17.38 60.8398 17.29C60.7098 16.9 60.3098 16.68 60.2898 16.24C60.1998 16.07 60.0998 15.9 60.0098 15.74C59.9098 15.58 59.8098 15.42 59.6298 15.33C59.4898 15.21 59.4498 15 59.3698 14.83C59.3298 14.74 59.2798 14.66 59.2098 14.61C59.1398 14.56 59.0398 14.53 58.9098 14.55C58.7598 14.46 58.6898 14.29 58.5898 14.14C58.4898 14 58.3698 13.88 58.1598 13.89C57.7698 13.89 57.6498 13.52 57.3998 13.35C57.3398 13.31 57.2798 13.27 57.2098 13.23C57.1498 13.19 57.0798 13.16 57.0198 13.12C56.8898 13.05 56.7698 12.98 56.6498 12.92C55.5498 12.34 54.5698 12.11 53.9098 11.94C53.2398 11.82 52.8698 11.73 52.8698 11.65C52.8698 11.61 52.9798 11.57 53.2098 11.54C53.3198 11.52 53.4598 11.51 53.6298 11.5C53.7098 11.5 53.8098 11.48 53.8998 11.49C53.9998 11.49 54.0998 11.5 54.2098 11.51C55.0798 11.54 56.3998 11.75 57.8698 12.53C58.1498 12.69 58.5798 12.69 58.7598 13.06C58.8998 13.17 59.0698 13.25 59.2398 13.34C59.3998 13.44 59.5498 13.57 59.6498 13.74C59.7698 13.75 59.8698 13.79 59.9498 13.85C60.0398 13.91 60.1098 13.97 60.1698 14.06C60.2898 14.23 60.3798 14.42 60.5198 14.58C60.6698 14.72 60.7798 14.91 60.8998 15.08C61.0198 15.26 61.1598 15.42 61.3298 15.57C61.6898 15.87 61.7398 16.36 62.0298 16.73C62.0398 16.85 62.0698 16.97 62.0998 17.08C62.1198 17.14 62.1398 17.19 62.1598 17.25C62.1798 17.3 62.1998 17.36 62.2198 17.42C62.3098 17.64 62.4398 17.84 62.5998 18.05C62.5998 18.31 62.6598 18.54 62.7498 18.78C62.7998 18.9 62.8398 19.01 62.8898 19.13C62.9298 19.25 62.9598 19.37 62.9698 19.5C62.9298 19.64 62.9098 19.77 62.9098 19.9C62.9098 20.03 62.9398 20.15 62.9498 20.28C62.9898 20.53 63.0698 20.79 63.1398 21.05C63.1698 21.18 63.1698 21.32 63.1698 21.45C63.1698 21.58 63.1498 21.72 63.1398 21.85C63.1298 21.99 63.1098 22.12 63.0998 22.26C63.0798 22.39 63.0598 22.53 63.0598 22.67C63.0298 22.81 62.9998 22.94 62.9898 23.08L62.9598 23.29L62.9198 23.5C62.8598 23.77 62.8198 24.06 62.7198 24.32C62.6798 24.61 62.6198 24.89 62.5198 25.17C62.4198 25.44 62.2598 25.7 62.0698 25.93C62.0498 26 62.0198 26.07 61.9998 26.14C61.9698 26.21 61.9298 26.27 61.8998 26.34C61.8298 26.47 61.7498 26.6 61.6698 26.72C61.5198 26.98 61.3198 27.21 61.1398 27.45C61.0698 27.59 60.9898 27.72 60.8998 27.84C60.7998 27.96 60.6898 28.07 60.5898 28.18C60.4798 28.29 60.3698 28.4 60.2598 28.51C60.1498 28.62 60.0298 28.72 59.9198 28.83C59.7098 29.06 59.4398 29.22 59.1598 29.37C58.8798 29.52 58.6398 29.71 58.4398 29.98C57.9198 30.36 57.3098 30.57 56.7398 30.86C56.5898 30.91 56.4298 30.96 56.2798 31C56.1198 31.05 55.9698 31.1 55.8098 31.14C55.6498 31.18 55.4998 31.22 55.3398 31.27L55.1098 31.34L54.9898 31.38L54.8698 31.41C54.5198 31.32 54.1998 31.35 53.8798 31.41C53.5598 31.45 53.2298 31.54 52.8998 31.6C52.5698 31.62 52.2298 31.62 51.8998 31.6C51.5698 31.56 51.2498 31.48 50.9198 31.41C50.5898 31.36 50.2798 31.27 49.9598 31.19C49.7998 31.15 49.6498 31.09 49.4998 31.03C49.3498 30.97 49.1998 30.91 49.0498 30.85C48.9698 30.83 48.8898 30.81 48.8198 30.78C48.7498 30.75 48.6698 30.71 48.5998 30.68C48.4598 30.6 48.3198 30.52 48.1798 30.44L47.9698 30.32C47.8998 30.28 47.8398 30.23 47.7698 30.19C47.6398 30.11 47.4998 30.03 47.3498 29.97C47.0398 29.86 46.8098 29.63 46.5798 29.42C46.3398 29.22 46.1398 28.98 45.8698 28.81C45.7398 28.72 45.6098 28.63 45.4898 28.53C45.3798 28.43 45.2698 28.32 45.1598 28.2C45.0598 28.09 44.9598 27.97 44.8598 27.85C44.7798 27.72 44.6998 27.58 44.6398 27.44C44.5498 27.32 44.4698 27.19 44.3998 27.06C44.3198 26.93 44.2798 26.78 44.2098 26.65C44.1498 26.52 44.0798 26.38 43.9998 26.26C43.9598 26.2 43.9098 26.14 43.8598 26.09C43.8098 26.03 43.7598 25.98 43.6998 25.92C43.5498 25.67 43.3298 25.44 43.1898 25.18C43.0498 24.92 42.9698 24.63 43.0498 24.3C42.9198 24.04 42.8998 23.75 42.8698 23.47C42.8698 23.4 42.8498 23.33 42.8398 23.26C42.8398 23.19 42.8398 23.12 42.8198 23.05C42.7998 22.91 42.7698 22.78 42.7098 22.65C42.7598 22.5 42.7698 22.37 42.7698 22.23C42.7698 22.09 42.7698 21.96 42.7398 21.83C42.7198 21.7 42.6898 21.57 42.6598 21.43C42.6298 21.3 42.6098 21.16 42.6198 21.03C42.6598 20.77 42.7098 20.51 42.7398 20.25C42.7698 19.99 42.8198 19.74 42.7898 19.48C42.7798 19.35 42.7898 19.22 42.8098 19.09C42.8398 18.97 42.8798 18.85 42.9298 18.73C42.9798 18.61 43.0198 18.5 43.0698 18.38C43.1098 18.26 43.1398 18.14 43.1798 18.03C43.1798 17.77 43.3198 17.56 43.4498 17.36C43.4798 17.31 43.5098 17.26 43.5498 17.21C43.5798 17.16 43.6198 17.11 43.6498 17.06C43.7098 16.96 43.7498 16.85 43.7598 16.72C43.9798 16.31 44.1798 15.91 44.4598 15.56C44.4198 15.27 44.5698 15.1 44.7398 14.95C44.9098 14.81 45.1098 14.7 45.2698 14.56C45.4298 14.43 45.5198 14.23 45.6298 14.06C45.6798 13.97 45.7498 13.9 45.8298 13.84C45.9098 13.78 46.0098 13.74 46.1298 13.73C46.1798 13.5 46.3098 13.35 46.4798 13.26C46.6498 13.17 46.8498 13.13 47.0198 13.05C47.3398 12.89 47.5398 12.56 47.9098 12.52C47.9598 12.43 48.0198 12.37 48.0898 12.33C48.1598 12.29 48.2398 12.27 48.3298 12.26C48.4898 12.23 48.6598 12.22 48.7798 12.12C49.0998 12.1 49.3298 11.9 49.5898 11.84C49.7098 11.77 49.8298 11.72 49.9598 11.68C50.0898 11.65 50.2098 11.64 50.3398 11.65C50.5798 11.61 50.7998 11.56 50.9998 11.53C51.3098 11.51 51.5898 11.49 51.8298 11.48C52.0698 11.48 52.2698 11.5 52.4298 11.51C52.7498 11.54 52.9198 11.59 52.9198 11.64L52.7998 11.67Z" fill="#0061EF"/>
<path d="M52.8015 15.0699C52.8015 15.1199 52.6915 15.1799 52.5015 15.2399C52.4015 15.2699 52.2815 15.2999 52.1415 15.3399C52.0015 15.3899 51.8415 15.4299 51.6615 15.4899C51.5415 15.5299 51.4215 15.5799 51.2915 15.6299C51.2315 15.6599 51.1615 15.6899 51.0915 15.7199C51.0215 15.7499 50.9515 15.7799 50.8815 15.8099C50.6815 15.7399 50.6715 16.1499 50.4415 16.0299C50.2615 16.0499 50.1115 16.1699 49.9815 16.3099C49.8515 16.4499 49.6015 16.4299 49.5115 16.6599C49.5115 16.8299 49.3915 16.8299 49.2615 16.8399C49.1415 16.8499 49.0215 16.8899 49.0515 17.0799C49.0015 17.1799 48.9215 17.2599 48.8515 17.3399C48.7815 17.4199 48.7015 17.4999 48.6115 17.5799C48.4515 17.5899 48.3815 17.6899 48.3315 17.7999C48.2815 17.9099 48.2615 18.0399 48.2115 18.1499C47.8815 18.2199 47.8215 18.4999 47.8815 18.7999C47.6815 18.8399 47.5415 18.9299 47.5115 19.0599C47.4715 19.1899 47.5115 19.3499 47.6215 19.5199C47.5815 19.6399 47.5315 19.7599 47.4815 19.8899C47.4615 19.9499 47.4415 20.0199 47.4315 20.0799C47.4315 20.1499 47.4315 20.2199 47.4615 20.2899C47.4615 20.4299 47.4515 20.5599 47.4515 20.6999C47.4515 20.8399 47.4515 20.9699 47.4115 21.1099C47.5115 21.2499 47.5915 21.3799 47.6015 21.5199C47.6015 21.5899 47.6015 21.6599 47.5715 21.7299C47.5615 21.7999 47.5315 21.8799 47.4915 21.9499C47.7615 22.1999 47.7415 22.4699 47.7015 22.7999C47.6915 22.9599 47.7915 23.0899 47.8815 23.2099C47.9815 23.3299 48.0915 23.4399 48.0615 23.6199C48.1115 23.7599 48.2215 23.8799 48.3015 24.0099C48.3815 24.1399 48.4915 24.2499 48.5615 24.3899C48.5915 24.4699 48.6115 24.5499 48.6415 24.6199C48.6815 24.6899 48.7215 24.7599 48.7715 24.8299C48.8215 24.8899 48.8815 24.9499 48.9415 24.9999C49.0115 25.0399 49.1015 25.0699 49.1915 25.0799C49.3315 25.1599 49.4615 25.2499 49.6015 25.3299C49.7415 25.4099 49.8515 25.5299 49.9515 25.6599C50.3615 25.6099 50.5615 25.8399 50.8215 26.0999C50.9815 26.1299 51.1215 26.2299 51.2815 26.2999C51.4415 26.3599 51.6015 26.4199 51.7815 26.3799C51.9415 26.4199 52.1115 26.4199 52.2815 26.4199C52.4515 26.4099 52.6115 26.4099 52.7815 26.4699C52.9515 26.4999 53.1215 26.5299 53.2915 26.5299C53.4615 26.5299 53.6315 26.4699 53.7815 26.3699C53.9315 26.2599 54.0815 26.2299 54.2515 26.2199C54.4215 26.2199 54.5815 26.1799 54.7315 26.0999C54.8315 26.1299 54.9215 26.1199 54.9915 26.0899C55.0715 26.0599 55.1415 26.0099 55.2015 25.9599L55.3015 25.8799C55.3015 25.8799 55.3615 25.8199 55.3915 25.7899C55.4515 25.7399 55.5215 25.6899 55.6015 25.6699C55.7415 25.5799 55.8815 25.5099 56.0215 25.4299C56.1715 25.3599 56.2915 25.2499 56.3615 25.0899C56.4115 25.0299 56.4615 24.9699 56.5115 24.9099C56.5615 24.8499 56.6015 24.7799 56.6515 24.7199C56.7015 24.6599 56.7515 24.6099 56.8115 24.5499C56.8715 24.4899 56.9215 24.4399 56.9915 24.3999C56.9315 24.1599 57.0415 24.0699 57.1715 23.9699C57.2315 23.9199 57.3115 23.8799 57.3715 23.8299C57.4015 23.7999 57.4315 23.7799 57.4515 23.7499C57.4715 23.7199 57.4915 23.6799 57.4915 23.6399C57.6215 23.5399 57.6915 23.3999 57.7315 23.2499C57.7615 23.0999 57.7815 22.9499 57.8515 22.8199C57.8515 22.6699 57.9315 22.5399 58.0015 22.4099C58.0815 22.2799 58.1115 22.1299 58.0615 21.9799C58.0815 21.9099 58.0915 21.8399 58.0915 21.7699C58.0915 21.6999 58.0815 21.6299 58.0715 21.5599C58.0615 21.4199 58.0715 21.2799 58.1415 21.1399C58.0415 20.9999 58.0715 20.8699 58.1115 20.7299C58.1515 20.5899 58.1715 20.4499 58.0915 20.3199C58.0915 20.2499 58.0715 20.1899 58.0615 20.1199C58.0415 20.0599 58.0315 19.9899 58.0115 19.9299C57.9815 19.7999 57.9615 19.6699 57.9315 19.5399C58.0215 19.3699 57.9915 19.2399 57.9315 19.1299C57.8715 19.0199 57.7415 18.9299 57.6815 18.8199C57.6115 18.5699 57.3015 18.4799 57.3515 18.1699C57.3015 18.0599 57.2515 17.9499 57.2015 17.8399C57.1515 17.7299 57.0815 17.6399 56.9615 17.5899C56.8715 17.5199 56.8715 17.3699 56.8415 17.2399C56.8115 17.1099 56.7315 17.0199 56.5215 17.0899C56.4215 17.0499 56.3915 16.9099 56.3415 16.8099C56.2915 16.7099 56.2215 16.6199 56.0615 16.6699C55.7715 16.7399 55.7515 16.4299 55.5915 16.3199C55.4415 16.1999 55.2815 16.1299 55.1315 16.0299C54.4515 15.6499 53.8415 15.4699 53.4215 15.3399C53.0015 15.2299 52.7615 15.1499 52.7615 15.0699C52.7615 15.0299 52.8315 14.9899 52.9815 14.9499C53.0515 14.9299 53.1515 14.9199 53.2515 14.8999C53.3115 14.8999 53.3615 14.8799 53.4315 14.8799H53.6315C54.2015 14.8799 55.0815 14.9899 56.0615 15.4799C56.2515 15.5799 56.5715 15.5199 56.6515 15.8199C56.7515 15.8899 56.8715 15.9299 56.9815 15.9899C57.0915 16.0499 57.1915 16.1299 57.2515 16.2599C57.4415 16.2499 57.5515 16.3199 57.6315 16.4399C57.7015 16.5599 57.7515 16.6999 57.8415 16.7999C57.9415 16.8899 58.0115 17.0199 58.0915 17.1399C58.1715 17.2599 58.2615 17.3699 58.3915 17.4599C58.6815 17.6299 58.6415 17.9999 58.8615 18.2299C58.8515 18.4099 58.9015 18.5499 58.9515 18.6999C59.0115 18.8399 59.1115 18.9699 59.2415 19.0999C59.2215 19.2799 59.2615 19.4299 59.3315 19.5899C59.3715 19.6699 59.4015 19.7399 59.4415 19.8199C59.4715 19.8999 59.4915 19.9799 59.5015 20.0699C59.4015 20.2599 59.4115 20.4199 59.4515 20.5899C59.4915 20.7599 59.5615 20.9299 59.6215 21.0999C59.6815 21.2799 59.6515 21.4599 59.6215 21.6399C59.6115 21.7299 59.6015 21.8199 59.5915 21.9099C59.5715 21.9999 59.5615 22.0899 59.5715 22.1799C59.4815 22.5399 59.4915 22.9299 59.3515 23.2799C59.3515 23.4799 59.3115 23.6799 59.2515 23.8599C59.1815 24.0499 59.0715 24.2099 58.9215 24.3599C58.9115 24.4099 58.8915 24.4599 58.8815 24.5099C58.8615 24.5499 58.8415 24.5999 58.8115 24.6399C58.7615 24.7299 58.7115 24.8099 58.6615 24.8999C58.5615 25.0699 58.4215 25.2199 58.3015 25.3799C58.2615 25.4799 58.2115 25.5699 58.1515 25.6499C58.0815 25.7299 58.0115 25.7999 57.9415 25.8799L57.7215 26.0899C57.6415 26.1599 57.5615 26.2299 57.4915 26.2999C57.3515 26.4599 57.1615 26.5499 56.9615 26.6399C56.7715 26.7299 56.6115 26.8599 56.4915 27.0799C56.1515 27.3399 55.7315 27.4699 55.3515 27.6699C55.1415 27.7299 54.9315 27.7999 54.7215 27.8499C54.5115 27.8999 54.3015 27.9699 54.0915 28.0499C53.8515 27.9499 53.6315 27.9599 53.4215 27.9999C53.2015 28.0299 52.9915 28.1099 52.7615 28.1799C52.5415 28.2099 52.3115 28.2099 52.0915 28.1799C51.8715 28.1499 51.6515 28.0899 51.4315 28.0399C51.2115 28.0099 51.0015 27.9499 50.7815 27.8999C50.5715 27.8399 50.3715 27.7499 50.1715 27.6699C50.0615 27.6499 49.9615 27.6099 49.8615 27.5599C49.7615 27.5099 49.6715 27.4499 49.5815 27.3899L49.4415 27.2999C49.4415 27.2999 49.3515 27.2399 49.3115 27.2099C49.2215 27.1499 49.1215 27.0999 49.0215 27.0699C48.8015 27.0099 48.6515 26.8499 48.5015 26.6999C48.3515 26.5499 48.2215 26.3899 48.0215 26.2899C47.9315 26.2299 47.8415 26.1799 47.7615 26.1099C47.6815 26.0399 47.6015 25.9699 47.5315 25.8999C47.4615 25.8199 47.3915 25.7399 47.3315 25.6599C47.2815 25.5699 47.2315 25.4699 47.2015 25.3699C47.0815 25.2099 47.0115 25.0099 46.9415 24.8199C46.9015 24.7299 46.8615 24.6399 46.8015 24.5599C46.7715 24.5199 46.7415 24.4799 46.7015 24.4499C46.6615 24.4099 46.6215 24.3799 46.5815 24.3499C46.4715 24.1799 46.3015 24.0499 46.1915 23.8799C46.0915 23.7099 46.0315 23.5099 46.1515 23.2699C46.0515 23.0999 46.0515 22.8999 46.0415 22.7099C46.0415 22.6599 46.0415 22.6199 46.0315 22.5699C46.0315 22.5199 46.0315 22.4799 46.0315 22.4299C46.0215 22.3399 45.9915 22.2499 45.9415 22.1599C46.0015 22.0599 46.0215 21.9699 46.0215 21.8699C46.0215 21.7799 46.0215 21.6899 46.0015 21.5999C45.9615 21.4199 45.8815 21.2499 45.8915 21.0699C45.9315 20.8899 45.9715 20.7199 46.0015 20.5499C46.0315 20.3799 46.0515 20.2099 46.0215 20.0299C46.0015 19.9399 46.0015 19.8499 46.0215 19.7699C46.0415 19.6899 46.0715 19.6099 46.1115 19.5299C46.1815 19.3799 46.2515 19.2299 46.2915 19.0699C46.2715 18.8899 46.3815 18.7599 46.4815 18.6199C46.5815 18.4899 46.7015 18.3799 46.6815 18.1999C46.8415 17.9299 46.9615 17.6499 47.1515 17.4299C47.0715 17.1999 47.1715 17.0799 47.3015 16.9999C47.4315 16.9199 47.5915 16.8699 47.7015 16.7799C47.8115 16.6999 47.8615 16.5499 47.9215 16.4299C47.9915 16.3099 48.0915 16.2199 48.2815 16.2399C48.2815 16.0499 48.3715 15.9499 48.4915 15.8999C48.6115 15.8499 48.7615 15.8399 48.8815 15.7999C49.1115 15.7199 49.2115 15.4399 49.4815 15.4599C49.5215 15.3099 49.6315 15.2799 49.7515 15.2799C49.8715 15.2799 49.9815 15.2799 50.0615 15.2099C50.2915 15.2399 50.4215 15.0699 50.6015 15.0399C50.6815 14.9899 50.7615 14.9499 50.8415 14.9299C50.9215 14.9099 51.0115 14.9199 51.1015 14.9299C51.2615 14.9099 51.4015 14.8799 51.5415 14.8699C51.7515 14.8699 51.9315 14.8599 52.0815 14.8599C52.2415 14.8599 52.3715 14.8899 52.4715 14.9099C52.6815 14.9499 52.7915 14.9999 52.7915 15.0499L52.8015 15.0699Z" fill="#0061EF"/>
<path d="M52.8146 15.1099C52.7046 15.1099 52.6045 15.0699 52.5145 14.9999C52.4945 14.9899 52.4845 14.9799 52.4645 14.9599C52.4345 14.9499 52.4045 14.9299 52.4245 14.9199C52.5645 14.9099 52.1646 14.8899 52.3846 14.8699C52.4446 14.8499 52.3846 14.8399 52.3446 14.8199C52.2946 14.7999 52.4345 14.7799 52.3045 14.7599C52.0345 14.7399 52.6045 14.7199 52.2645 14.6999C52.1945 14.6799 52.2146 14.6599 52.2246 14.6399C52.4346 14.6199 52.2245 14.5899 52.1945 14.5699C52.4445 14.5499 52.3345 14.5199 52.1645 14.4999C52.5045 14.4799 52.4546 14.4499 52.1346 14.4199C52.1346 14.3899 52.2545 14.3699 52.1045 14.3399C52.0845 14.3099 52.0145 14.2899 52.0745 14.2599C51.8445 14.2299 51.8545 14.1999 52.0545 14.1699C51.8045 14.1399 51.9045 14.1099 52.0345 14.0799C52.1745 14.0499 51.8145 14.0199 52.0145 13.9899C52.0345 13.9599 51.9546 13.9299 51.9946 13.8999C52.0946 13.8699 52.2045 13.8399 51.9845 13.7999C51.9245 13.7699 51.8445 13.7299 51.9845 13.6999C51.7245 13.6699 51.8345 13.6299 51.9845 13.5999C51.9445 13.5699 52.1245 13.5299 51.9845 13.4999C52.0245 13.4599 51.8645 13.4299 51.9845 13.3999C52.0645 13.3599 52.1445 13.3299 51.9845 13.2999C51.8145 13.2699 52.0545 13.2299 51.9845 13.1999C52.2345 13.1599 51.9045 13.1299 51.9845 13.0999C51.9645 13.0699 52.1245 13.0299 51.9845 12.9999C51.9445 12.9699 51.8946 12.9399 51.9946 12.8999C51.6146 12.8699 52.0945 12.8399 52.0145 12.8099C52.1745 12.7799 51.9945 12.7499 52.0345 12.7199C51.9645 12.6899 52.2045 12.6599 52.0545 12.6299C52.0845 12.5999 51.9345 12.5699 52.0745 12.5399C51.8845 12.5099 52.2345 12.4799 52.1045 12.4599C52.1045 12.4299 52.0946 12.4099 52.1346 12.3799C52.4346 12.3499 52.1845 12.3299 52.1645 12.2999C52.1945 12.2799 51.9945 12.2499 52.1945 12.2299C52.2145 12.2099 52.3446 12.1799 52.2246 12.1599C52.1846 12.1399 52.6545 12.1199 52.2645 12.0899C52.1945 12.0699 52.5645 12.0499 52.3045 12.0299C52.0645 12.0099 52.3346 11.9899 52.3446 11.9699C52.3546 11.9499 52.3746 11.9299 52.3846 11.9199C52.5146 11.7699 52.6646 11.6899 52.8146 11.6899C52.9946 11.6899 53.1546 11.7999 53.2946 11.9799C53.3046 11.9999 53.5146 12.0199 53.3346 12.0399C53.3346 12.0599 53.4945 12.0799 53.3745 12.0999C53.6445 12.1199 53.4245 12.1399 53.4145 12.1699C53.4245 12.1899 53.3445 12.2099 53.4445 12.2399C53.6045 12.2599 53.3646 12.2899 53.4746 12.3099C53.3046 12.3299 53.3546 12.3599 53.5045 12.3899C53.3446 12.4199 53.5345 12.4399 53.5345 12.4699C53.2845 12.4999 53.4546 12.5199 53.5646 12.5499C53.6546 12.5799 53.5246 12.6099 53.5846 12.6399C53.5346 12.6699 53.6445 12.6999 53.6045 12.7299C53.7245 12.7599 53.7645 12.7899 53.6245 12.8199C53.7045 12.8499 53.6445 12.8799 53.6445 12.9099C53.7445 12.9399 53.6346 12.9699 53.6546 13.0099C53.7046 13.0399 53.3846 13.0799 53.6546 13.1099C53.6946 13.1399 53.6146 13.1799 53.6546 13.2099C53.6246 13.2399 53.5846 13.2799 53.6546 13.3099C53.3846 13.3499 53.5546 13.3799 53.6546 13.4099C53.7346 13.4399 53.6946 13.4799 53.6546 13.5099C53.6846 13.5399 53.6646 13.5799 53.6546 13.6099C53.7346 13.6399 53.5346 13.6799 53.6546 13.7099C53.7746 13.7399 53.5246 13.7799 53.6546 13.8099C53.7346 13.8399 53.7745 13.8699 53.6445 13.9099C53.6445 13.9399 53.3945 13.9699 53.6245 13.9999C53.6745 14.0299 53.9845 14.0599 53.6045 14.0899C53.7045 14.1199 53.4146 14.1499 53.5846 14.1799C53.3046 14.2099 53.5746 14.2399 53.5646 14.2699C53.5146 14.2999 53.4145 14.3299 53.5345 14.3499C53.6645 14.3799 53.4646 14.4099 53.5045 14.4299C53.6645 14.4499 53.2946 14.4799 53.4746 14.5099C53.4346 14.5299 53.4945 14.5599 53.4445 14.5799C53.8245 14.5999 53.4445 14.6299 53.4145 14.6499C53.3645 14.6699 53.6645 14.6899 53.3745 14.7099C53.6645 14.7299 53.4146 14.7499 53.3346 14.7699C53.2546 14.7899 53.4546 14.8099 53.2946 14.8299C53.4946 14.8499 53.1845 14.8699 53.2545 14.8799C53.1245 14.8999 53.2545 14.9099 53.2145 14.9299C53.2545 14.9499 53.2445 14.9599 53.1745 14.9699C53.1545 14.9799 53.1445 14.9999 53.1245 15.0099C53.0345 15.0799 52.9245 15.1199 52.8245 15.1199L52.8146 15.1099Z" fill="#0061EF"/>
<path d="M58.0726 18.1699C58.0226 18.0799 58.0026 17.9699 58.0126 17.8599C58.0126 17.8399 58.0126 17.8199 58.0126 17.7999C58.0126 17.7699 58.0126 17.7399 58.0226 17.7399C58.1026 17.8499 57.9226 17.4999 58.0426 17.6799C58.0926 17.7299 58.0726 17.6699 58.0626 17.6199C58.0626 17.5699 58.1426 17.6799 58.0926 17.5599C57.9726 17.3099 58.2726 17.7999 58.1226 17.4999C58.1026 17.4299 58.1326 17.4299 58.1626 17.4399C58.2826 17.6099 58.2026 17.4199 58.2026 17.3799C58.3526 17.5899 58.3126 17.4799 58.2526 17.3199C58.4426 17.6099 58.4426 17.5499 58.3026 17.2599C58.3226 17.2399 58.4126 17.3399 58.3526 17.1999C58.3626 17.1699 58.3526 17.0999 58.4126 17.1399C58.3226 16.9299 58.3526 16.9199 58.4726 17.0799C58.3726 16.8499 58.4526 16.9199 58.5426 17.0199C58.6326 17.1199 58.4826 16.7999 58.6126 16.9599C58.6426 16.9599 58.6426 16.8799 58.6826 16.8999C58.7626 16.9699 58.8426 17.0499 58.7626 16.8399C58.7626 16.7699 58.7526 16.6799 58.8426 16.7799C58.7426 16.5399 58.8226 16.6199 58.9226 16.7199C58.9226 16.6699 59.0526 16.8099 59.0126 16.6599C59.0626 16.6799 59.0126 16.5299 59.1026 16.6099C59.1726 16.6599 59.2426 16.7099 59.1926 16.5599C59.1426 16.3999 59.2826 16.5899 59.2826 16.5099C59.4326 16.7099 59.3026 16.4099 59.3726 16.4699C59.3926 16.4299 59.5026 16.5599 59.4626 16.4299C59.4626 16.3799 59.4726 16.3199 59.5526 16.3899C59.3926 16.0499 59.6526 16.4399 59.6426 16.3599C59.7526 16.4799 59.6826 16.3099 59.7326 16.3299C59.7326 16.2499 59.8726 16.4499 59.8226 16.2999C59.8626 16.3099 59.8126 16.1699 59.9126 16.2799C59.8426 16.0999 60.0426 16.3899 59.9926 16.2599C60.0126 16.2499 60.0326 16.2199 60.0726 16.2499C60.2426 16.4899 60.1426 16.2699 60.1526 16.2399C60.1926 16.2599 60.1126 16.0699 60.2326 16.2399C60.2626 16.2399 60.3526 16.3499 60.3126 16.2399C60.3126 16.1899 60.5626 16.5899 60.3926 16.2399C60.3726 16.1699 60.5826 16.4799 60.4626 16.2399C60.3626 16.0199 60.5126 16.2399 60.5326 16.2399C60.5526 16.2399 60.5726 16.2399 60.6026 16.2399C60.7926 16.2799 60.9426 16.3599 61.0226 16.4999C61.1126 16.6499 61.1026 16.8499 61.0226 17.0599C61.0226 17.0799 61.1026 17.2699 60.9926 17.1199C60.9726 17.1199 61.0326 17.2799 60.9626 17.1799C61.0826 17.4299 60.9526 17.2399 60.9226 17.2399C60.9126 17.2599 60.8426 17.1999 60.8826 17.2999C60.9426 17.4499 60.8026 17.2599 60.8326 17.3599C60.7226 17.2299 60.7226 17.2799 60.7826 17.4199C60.6826 17.2899 60.7526 17.4799 60.7226 17.4799C60.5726 17.2699 60.6426 17.4399 60.6626 17.5399C60.6826 17.6299 60.5926 17.5399 60.6026 17.5999C60.5526 17.5699 60.5826 17.6799 60.5326 17.6599C60.5626 17.7799 60.5626 17.8299 60.4626 17.7199C60.4726 17.8099 60.4126 17.7599 60.3926 17.7799C60.4126 17.8799 60.3326 17.7999 60.3126 17.8399C60.3126 17.8999 60.1226 17.6399 60.2326 17.8999C60.2226 17.9499 60.1526 17.8999 60.1526 17.9599C60.1026 17.9499 60.0626 17.9299 60.0626 18.0199C59.8926 17.7999 59.9526 17.9599 59.9726 18.0699C59.9726 18.1599 59.9326 18.1399 59.8826 18.1199C59.8626 18.1599 59.8326 18.1599 59.7926 18.1699C59.8026 18.2599 59.6726 18.0999 59.7026 18.2099C59.7326 18.3299 59.5826 18.1299 59.6126 18.2499C59.6226 18.3299 59.6126 18.3899 59.5226 18.2899C59.4926 18.3099 59.3426 18.0999 59.4326 18.3199C59.4326 18.3799 59.5626 18.6699 59.3426 18.3499C59.3626 18.4499 59.2026 18.2199 59.2526 18.3799C59.0926 18.1499 59.1926 18.3999 59.1626 18.3999C59.1126 18.3699 59.0426 18.2999 59.0826 18.4199C59.1226 18.5499 59.0026 18.3799 59.0026 18.4399C59.0626 18.5899 58.8526 18.2799 58.9226 18.4499C58.8826 18.4299 58.8926 18.4999 58.8426 18.4499C59.0126 18.7899 58.8026 18.4699 58.7626 18.4499C58.7126 18.4099 58.8526 18.6899 58.6926 18.4499C58.8126 18.7099 58.6726 18.5099 58.6226 18.4499C58.5626 18.3899 58.6526 18.5699 58.5526 18.4499C58.6326 18.6299 58.4626 18.3699 58.4826 18.4399C58.4026 18.3299 58.4526 18.4399 58.4226 18.4299C58.4226 18.4799 58.4126 18.4699 58.3626 18.4099C58.3426 18.4099 58.3226 18.3999 58.3026 18.3899C58.1926 18.3399 58.1126 18.2699 58.0626 18.1799L58.0726 18.1699Z" fill="#0061EF"/>
<path d="M54.3549 27.0901C54.4549 27.0601 54.5649 27.0701 54.6749 27.1201C54.6949 27.1201 54.7149 27.1301 54.7249 27.1401C54.7549 27.1401 54.7849 27.1501 54.7749 27.1701C54.6449 27.2201 55.0349 27.1301 54.8249 27.2001C54.7649 27.2301 54.8249 27.2301 54.8749 27.2401C54.9249 27.2401 54.7949 27.3001 54.9249 27.2801C55.1949 27.2301 54.6449 27.4001 54.9749 27.3301C55.0549 27.3301 55.0349 27.3601 55.0249 27.3801C54.8349 27.4501 55.0349 27.4201 55.0749 27.4401C54.8349 27.5301 54.9549 27.5201 55.1249 27.5001C54.7949 27.6101 54.8549 27.6201 55.1749 27.5701C55.1949 27.5901 55.0749 27.6501 55.2249 27.6401C55.2549 27.6601 55.3249 27.6701 55.2749 27.7101C55.5049 27.6801 55.5049 27.7101 55.3249 27.7901C55.5649 27.7501 55.4849 27.8101 55.3649 27.8701C55.2449 27.9301 55.5849 27.8701 55.4049 27.9501C55.4049 27.9801 55.4749 27.9901 55.4449 28.0401C55.3549 28.1001 55.2549 28.1601 55.4849 28.1301C55.5549 28.1501 55.6449 28.1601 55.5249 28.2201C55.7849 28.1801 55.6849 28.2501 55.5549 28.3201C55.6049 28.3401 55.4349 28.4201 55.5849 28.4201C55.5549 28.4601 55.7149 28.4601 55.6149 28.5201C55.5449 28.5701 55.4849 28.6301 55.6449 28.6201C55.8149 28.6101 55.5949 28.7001 55.6649 28.7201C55.4349 28.8201 55.7649 28.7601 55.6849 28.8201C55.7149 28.8501 55.5649 28.9201 55.7049 28.9201C55.7549 28.9401 55.8149 28.9601 55.7149 29.0201C56.0849 28.9501 55.6349 29.1101 55.7149 29.1201C55.5649 29.1901 55.7549 29.1701 55.7149 29.2101C55.7949 29.2201 55.5649 29.3101 55.7149 29.3001C55.6949 29.3401 55.8449 29.3201 55.7149 29.3901C55.9049 29.3701 55.5749 29.4801 55.7149 29.4801C55.7149 29.5101 55.7449 29.5301 55.7149 29.5701C55.4349 29.6701 55.6749 29.6301 55.7049 29.6501C55.6849 29.6801 55.8749 29.6501 55.6949 29.7301C55.6749 29.7601 55.5549 29.8201 55.6749 29.8101C55.7249 29.8101 55.2749 29.9601 55.6549 29.8801C55.7249 29.8801 55.3749 30.0001 55.6349 29.9501C55.8749 29.9101 55.6149 29.9901 55.6149 30.0201C55.6149 30.0401 55.5949 30.0601 55.5849 30.0801C55.5049 30.2601 55.3749 30.3801 55.2249 30.4201C55.0549 30.4701 54.8649 30.4101 54.6849 30.2701C54.6649 30.2601 54.4649 30.2901 54.6349 30.2301C54.6349 30.2101 54.4749 30.2301 54.5849 30.1801C54.3149 30.2301 54.5249 30.1501 54.5349 30.1301C54.5149 30.1101 54.5949 30.0701 54.4849 30.0701C54.3249 30.0901 54.5449 30.0001 54.4349 30.0101C54.5949 29.9401 54.5449 29.9301 54.3849 29.9501C54.5349 29.8801 54.3349 29.9101 54.3349 29.8801C54.5749 29.7901 54.3949 29.8101 54.2849 29.8101C54.1849 29.8101 54.3049 29.7501 54.2349 29.7301C54.2749 29.6901 54.1549 29.6901 54.1949 29.6501C54.0749 29.6501 54.0249 29.6301 54.1549 29.5701C54.0649 29.5701 54.1249 29.5101 54.1149 29.4801C54.0149 29.4801 54.1149 29.4201 54.0749 29.3901C54.0149 29.3701 54.3149 29.2601 54.0349 29.3001C53.9949 29.2801 54.0649 29.2201 54.0049 29.2101C54.0249 29.1701 54.0549 29.1301 53.9749 29.1101C54.2349 29.0101 54.0549 29.0201 53.9449 29.0101C53.8649 29.0001 53.8949 28.9501 53.9149 28.9101C53.8749 28.8801 53.8849 28.8501 53.8949 28.8101C53.8049 28.8001 53.9949 28.7201 53.8749 28.7101C53.7549 28.7101 53.9749 28.6101 53.8549 28.6101C53.7649 28.6001 53.7149 28.5801 53.8449 28.5101C53.8449 28.4801 54.0649 28.3801 53.8349 28.4201C53.7749 28.4001 53.4649 28.4601 53.8349 28.3301C53.7349 28.3301 53.9949 28.2201 53.8349 28.2401C54.0949 28.1401 53.8349 28.1801 53.8349 28.1501C53.8849 28.1101 53.9649 28.0601 53.8349 28.0601C53.6949 28.0601 53.8949 27.9901 53.8349 27.9801C53.6749 28.0001 54.0249 27.8801 53.8349 27.9001C53.8649 27.8701 53.7949 27.8601 53.8449 27.8201C53.4749 27.9001 53.8349 27.7701 53.8649 27.7501C53.9149 27.7101 53.6149 27.7701 53.8849 27.6801C53.6049 27.7301 53.8349 27.6501 53.9049 27.6101C53.9749 27.5701 53.7749 27.6101 53.9249 27.5501C53.7249 27.5801 54.0249 27.4901 53.9549 27.4901C54.0749 27.4401 53.9549 27.4601 53.9849 27.4301C53.9349 27.4301 53.9449 27.4101 54.0149 27.3801C54.0249 27.3601 54.0349 27.3501 54.0549 27.3301C54.1249 27.2401 54.2149 27.1801 54.3149 27.1501L54.3549 27.0901Z" fill="#0061EF"/>
<path d="M46.9068 22.7702C46.9368 22.8702 46.9268 22.9802 46.8768 23.0902C46.8768 23.1102 46.8568 23.1302 46.8568 23.1502C46.8568 23.1802 46.8468 23.2102 46.8268 23.2002C46.7768 23.0702 46.8668 23.4602 46.7968 23.2502C46.7668 23.1902 46.7668 23.2502 46.7568 23.3002C46.7568 23.3502 46.6968 23.2202 46.7168 23.3502C46.7668 23.6202 46.5968 23.0702 46.6668 23.4002C46.6668 23.4802 46.6368 23.4602 46.6168 23.4502C46.5368 23.2602 46.5768 23.4602 46.5568 23.5002C46.4668 23.2702 46.4768 23.3802 46.4968 23.5502C46.3868 23.2302 46.3768 23.2802 46.4368 23.6002C46.4168 23.6202 46.3568 23.5002 46.3668 23.6502C46.3468 23.6802 46.3368 23.7502 46.2968 23.7002C46.3268 23.9302 46.2968 23.9302 46.2168 23.7502C46.2568 23.9902 46.1968 23.9102 46.1368 23.7902C46.0768 23.6602 46.1368 24.0102 46.0568 23.8302C46.0268 23.8302 46.0168 23.9002 45.9668 23.8702C45.9068 23.7802 45.8468 23.6802 45.8768 23.9102C45.8568 23.9802 45.8468 24.0702 45.7868 23.9502C45.8268 24.2102 45.7568 24.1102 45.6968 23.9802C45.6768 24.0302 45.5968 23.8602 45.5968 24.0102C45.5568 23.9802 45.5568 24.1402 45.4968 24.0402C45.4468 23.9702 45.3868 23.9102 45.3968 24.0702C45.4068 24.2402 45.3168 24.0202 45.2968 24.0902C45.1968 23.8602 45.2568 24.1802 45.1968 24.1102C45.1668 24.1402 45.0968 23.9902 45.0968 24.1302C45.0768 24.1802 45.0568 24.2402 44.9968 24.1402C45.0668 24.5102 44.9068 24.0602 44.9068 24.1402C44.8368 23.9902 44.8568 24.1802 44.8168 24.1402C44.8068 24.2202 44.7168 23.9902 44.7268 24.1402C44.6868 24.1202 44.7068 24.2702 44.6368 24.1402C44.6568 24.3302 44.5368 24.0002 44.5468 24.1402C44.5168 24.1402 44.4968 24.1702 44.4668 24.1402C44.3668 23.8602 44.4068 24.1002 44.3868 24.1302C44.3568 24.1102 44.3868 24.3102 44.3068 24.1202C44.2768 24.1002 44.2268 23.9802 44.2268 24.1002C44.2168 24.1502 44.0768 23.7002 44.1568 24.0802C44.1568 24.1502 44.0368 23.8002 44.0868 24.0602C44.1268 24.3002 44.0368 24.0402 44.0268 24.0402C44.0068 24.0302 43.9868 24.0202 43.9668 24.0102C43.7868 23.9302 43.6668 23.8002 43.6268 23.6502C43.5768 23.4802 43.6368 23.3002 43.7768 23.1202C43.7868 23.1002 43.7568 22.9002 43.8168 23.0702C43.8368 23.0702 43.8168 22.9102 43.8668 23.0202C43.8168 22.7502 43.8968 22.9602 43.9168 22.9702C43.9368 22.9502 43.9768 23.0302 43.9768 22.9202C43.9568 22.7602 44.0468 22.9802 44.0368 22.8702C44.1068 23.0302 44.1168 22.9802 44.1068 22.8202C44.1768 22.9702 44.1468 22.7702 44.1768 22.7702C44.2668 23.0102 44.2468 22.8302 44.2468 22.7202C44.2468 22.6202 44.3068 22.7402 44.3268 22.6702C44.3668 22.7102 44.3668 22.5902 44.4068 22.6302C44.4068 22.5102 44.4268 22.4602 44.4868 22.5902C44.4868 22.5002 44.5468 22.5602 44.5768 22.5502C44.5768 22.4502 44.6368 22.5502 44.6668 22.5102C44.6868 22.4502 44.7968 22.7502 44.7568 22.4702C44.7768 22.4302 44.8368 22.5002 44.8468 22.4402C44.8868 22.4602 44.9268 22.4902 44.9468 22.4102C45.0468 22.6702 45.0368 22.4902 45.0468 22.3802C45.0568 22.2902 45.1068 22.3202 45.1468 22.3502C45.1768 22.3102 45.2068 22.3202 45.2468 22.3302C45.2568 22.2402 45.3368 22.4302 45.3468 22.3102C45.3468 22.1902 45.4468 22.4102 45.4468 22.2902C45.4568 22.2002 45.4768 22.1502 45.5468 22.2802C45.5768 22.2802 45.6768 22.5102 45.6368 22.2802C45.6568 22.2202 45.5968 21.9102 45.7268 22.2802C45.7268 22.1802 45.8368 22.4402 45.8168 22.2802C45.9168 22.5402 45.8768 22.2802 45.9068 22.2802C45.9468 22.3302 45.9968 22.4102 45.9968 22.2802C45.9968 22.1402 46.0668 22.3402 46.0768 22.2802C46.0568 22.1202 46.1768 22.4702 46.1568 22.2802C46.1868 22.3102 46.1968 22.2402 46.2368 22.2902C46.1668 21.9202 46.2868 22.2902 46.3168 22.3102C46.3568 22.3602 46.2968 22.0602 46.3868 22.3302C46.3368 22.0502 46.4168 22.2802 46.4568 22.3502C46.4968 22.4302 46.4568 22.2202 46.5268 22.3702C46.4868 22.1702 46.5868 22.4702 46.5868 22.4002C46.6368 22.5202 46.6168 22.4002 46.6468 22.4302C46.6468 22.3802 46.6668 22.3902 46.6968 22.4602C46.7168 22.4702 46.7268 22.4802 46.7468 22.5002C46.8368 22.5702 46.8968 22.6602 46.9268 22.7602L46.9068 22.7702Z" fill="#0061EF"/>
<path d="M15.5912 39.9701C15.7012 39.9701 15.8012 40.16 15.8912 40.52C15.9112 40.58 15.9212 40.64 15.9412 40.71C15.9712 40.78 16.0012 40.85 15.9812 40.93C15.8412 41.01 16.2412 41.09 16.0212 41.17C15.9612 41.25 16.0212 41.34 16.0612 41.44C16.1112 41.53 15.9712 41.63 16.1012 41.73C16.3712 41.83 15.8012 41.9301 16.1412 42.0401C16.2112 42.1501 16.1912 42.26 16.1812 42.37C15.9712 42.48 16.1812 42.6001 16.2212 42.7201C15.9712 42.8401 16.0812 42.96 16.2512 43.09C15.9112 43.22 15.9612 43.35 16.2812 43.48C16.2812 43.54 16.2512 43.62 16.2412 43.68C16.2312 43.7 16.2412 43.7301 16.3112 43.7401C16.3312 43.7801 16.4012 43.77 16.3412 43.85C16.5212 43.76 16.5512 43.7101 16.4612 43.8301C16.4412 43.8501 16.4212 43.89 16.3912 43.92C16.5212 43.8 16.5512 43.76 16.5512 43.7701C16.5512 43.7701 16.5212 43.8401 16.5112 43.9001C16.5012 43.9701 16.5512 43.91 16.5712 43.87C16.5812 43.85 16.5912 43.82 16.6012 43.82C16.6012 43.82 16.6012 43.8201 16.6012 43.8301C16.6012 43.8301 16.6012 43.84 16.6012 43.85C16.6012 43.85 16.6212 43.8701 16.6312 43.8801C16.7912 43.9001 16.9512 43.8201 17.1112 43.8601C17.2712 43.9601 17.4412 44.07 17.6112 43.85C17.7812 43.79 17.9512 43.71 18.1212 43.84C18.2912 43.58 18.4612 43.69 18.6412 43.84C18.6612 43.84 18.6812 43.84 18.7012 43.84C18.7112 43.84 18.7012 43.84 18.7212 43.84C18.7212 43.84 18.7412 43.86 18.7512 43.87C18.7712 43.89 18.8012 43.9001 18.7812 43.8301C18.8012 43.8501 18.8012 43.83 18.8012 43.8C18.8012 43.78 18.7912 43.7701 18.8612 43.8301C18.8612 43.8301 18.9412 43.8701 18.9512 43.8601C18.9512 43.85 18.9512 43.81 18.8612 43.76C18.7812 43.71 18.7912 43.7201 18.8212 43.7201C18.8312 43.7201 18.8512 43.72 18.8612 43.71C18.8612 43.71 18.8612 43.7101 18.8612 43.7001C18.8612 43.6801 18.8612 43.66 18.8512 43.64C19.1012 43.47 18.7712 43.29 18.8512 43.12C18.8312 42.95 18.9912 42.7801 18.8512 42.61C18.8012 42.44 18.7612 42.2801 18.8612 42.11C18.4812 41.95 18.9612 41.7901 18.8812 41.6301C19.0412 41.4701 18.8612 41.31 18.9012 41.16C18.8812 41.12 18.8812 41.0801 18.9012 41.0401C18.9012 41.0201 18.9112 41 18.9212 40.98C18.9212 40.97 18.9412 40.97 18.9412 40.96C18.9712 40.94 19.0012 40.9 18.9212 40.91C18.9412 40.89 18.9112 40.88 18.8912 40.87C18.8712 40.87 18.8712 40.86 18.9512 40.78C18.8312 40.85 18.9312 40.76 18.9812 40.68C19.0012 40.65 18.9912 40.63 18.9312 40.68C18.8912 40.68 18.8512 40.6901 18.8212 40.6501C18.8612 40.5001 18.8212 40.49 18.7912 40.52C18.7512 40.55 18.7212 40.61 18.7012 40.62C18.7012 40.62 18.6612 40.62 18.6312 40.62C18.6012 40.63 18.5712 40.65 18.5412 40.66C18.4812 40.68 18.4212 40.6801 18.3612 40.5801C18.2412 40.5601 18.1212 40.43 18.0112 40.55C17.9012 40.59 17.7812 40.12 17.6812 40.51C17.5712 40.58 17.4712 40.2101 17.3712 40.4701C17.2712 40.7101 17.1712 40.44 17.0812 40.43C16.9912 40.42 16.9012 40.4 16.8112 40.39C16.0512 40.26 15.6112 40.1101 15.6112 39.9501C15.6112 39.7701 16.1512 39.6101 17.0812 39.4701C17.1712 39.4601 17.2712 39.25 17.3712 39.43C17.4712 39.43 17.5712 39.27 17.6812 39.39C17.7912 39.12 17.9012 39.34 18.0112 39.35C18.1212 39.34 18.2412 39.4301 18.3612 39.3101C18.4212 39.2301 18.4812 39.25 18.5412 39.28C18.5712 39.29 18.6012 39.3101 18.6312 39.3101C18.6612 39.3101 18.6812 39.31 18.7512 39.28C18.9612 39.45 19.1212 39.4 19.4212 39.25C19.5012 39.33 19.6012 39.3201 19.7412 39.2901C19.8712 39.2601 20.0312 39.2101 20.1512 39.2201C20.1512 39.3101 20.2112 39.35 20.2912 39.35C20.2912 39.49 20.3812 39.55 20.4512 39.67C20.5012 39.76 20.4912 39.9101 20.4712 40.0401C20.4612 40.1801 20.4412 40.31 20.4712 40.44C20.4412 40.58 20.4712 40.71 20.4712 40.84V40.94C20.4712 40.94 20.4912 40.98 20.4912 41C20.4912 41.04 20.4912 41.08 20.4912 41.12C20.6112 41.27 20.6512 41.43 20.5112 41.59C20.5912 41.75 20.5312 41.91 20.5312 42.07C20.6312 42.23 20.5212 42.4 20.5412 42.57C20.5912 42.74 20.2712 42.9101 20.5512 43.0801C20.5912 43.2501 20.5112 43.42 20.5512 43.6V43.66L20.5212 43.78C20.5212 43.86 20.5112 43.9401 20.5112 44.0201C20.5112 44.18 20.5112 44.34 20.5512 44.53C20.4112 44.63 20.3912 44.76 20.4112 44.93C20.4312 45.1 20.5012 45.3201 20.5512 45.5401C20.2912 45.6201 19.8912 45.5801 19.5412 45.5401C19.3812 45.5501 19.2112 45.56 19.0412 45.55H18.7912L18.6712 45.5401H18.6112C18.4412 45.6101 18.2612 45.42 18.0912 45.53C17.9212 45.65 17.7512 45.4001 17.5812 45.5201C17.4112 45.6 17.2512 45.64 17.0812 45.51C16.9212 45.51 16.7612 45.2601 16.6012 45.4901C16.5912 45.4901 16.5812 45.49 16.5712 45.5C16.5512 45.5 16.5312 45.51 16.5112 45.5201C16.4712 45.5301 16.4312 45.5501 16.4012 45.5601C16.3212 45.5901 16.2412 45.62 16.1612 45.64C16.0012 45.68 15.8312 45.6601 15.7712 45.4701C15.6112 45.5201 15.4912 45.47 15.3812 45.43C15.2712 45.39 15.1712 45.36 14.9612 45.44C14.9612 45.38 14.9412 45.3501 14.9112 45.3301C14.9512 45.1901 14.9312 45.1201 14.8912 45.0401C14.8612 44.9701 14.8212 44.8901 14.8212 44.7901C14.8812 44.4901 14.9712 44.24 14.8512 44.03C14.7812 43.92 14.8012 43.79 14.8312 43.67C14.8612 43.59 14.9012 43.53 14.8812 43.46C14.7212 43.33 15.0912 43.2 14.9112 43.07C14.9512 42.94 14.8912 42.8201 14.9412 42.7001C14.5612 42.5801 14.9412 42.46 14.9712 42.35C15.0212 42.24 14.7212 42.12 15.0112 42.02C14.7212 41.91 14.9712 41.81 15.0512 41.71C15.1312 41.61 14.9312 41.51 15.0912 41.42C14.8912 41.33 15.2012 41.2401 15.1312 41.1501C15.2612 41.0601 15.1312 40.98 15.1712 40.91C15.1312 40.83 15.1412 40.76 15.2112 40.69C15.2312 40.62 15.2412 40.56 15.2612 40.5C15.3512 40.14 15.4512 39.9501 15.5612 39.9501L15.5912 39.9701Z" fill="#0061EF"/>
<path d="M24.8865 36.5701C24.9965 36.5701 25.0965 36.8401 25.1865 37.3301C25.1965 37.4101 25.2165 37.5001 25.2365 37.5901C25.2665 37.6801 25.2965 37.7801 25.2765 37.8901C25.1365 38.0001 25.5365 38.1101 25.3165 38.2301C25.2565 38.3501 25.3165 38.4701 25.3565 38.6001C25.4065 38.7301 25.2665 38.8601 25.3965 39.0001C25.6665 39.1401 25.0965 39.2801 25.4365 39.4301C25.5065 39.5801 25.4865 39.7301 25.4765 39.8901C25.2665 40.0501 25.4765 40.2101 25.5165 40.3801C25.2665 40.5501 25.3765 40.7201 25.5465 40.9001C25.2065 41.0801 25.2565 41.2601 25.5765 41.4401C25.5865 41.6301 25.4565 41.8201 25.6065 42.0101C25.6265 42.2001 25.6965 42.4001 25.6365 42.6001C25.8665 42.8001 25.8565 43.0101 25.6565 43.2101C25.7765 43.3101 25.8165 43.4201 25.8065 43.5201C25.8065 43.5701 25.7865 43.6301 25.7665 43.6701C25.7465 43.6701 25.7165 43.6901 25.6865 43.7101C25.6165 43.7501 25.6765 43.7701 25.7165 43.7701C25.7665 43.7701 25.8065 43.7401 25.7065 43.8401C25.7065 43.8501 25.7065 43.8601 25.7065 43.8701C25.7565 43.8601 25.7965 43.8301 25.8065 43.8601C25.8065 43.9101 25.8165 43.9601 25.8465 43.9801C25.8465 43.9801 25.8665 43.9801 25.8765 43.9801C25.8765 43.9801 25.8765 43.9801 25.8865 43.9801H25.9065C25.9665 43.9501 26.0265 43.9201 26.0765 43.8601C26.3065 43.8001 26.5465 43.7201 26.7765 43.8501C27.0165 43.5901 27.2565 43.7001 27.4965 43.8501C27.7165 43.8101 28.0765 43.9901 28.0165 43.8501C28.0465 43.8701 28.0565 43.8501 28.0565 43.8201C28.0565 43.8001 28.0565 43.7901 28.1265 43.8501C28.1265 43.8501 28.2065 43.8701 28.2165 43.8501C28.2165 43.8301 28.2065 43.7801 28.1265 43.7401C28.0465 43.6901 28.0565 43.7601 28.0865 43.5801C28.1165 43.4601 28.1565 43.3401 28.1265 43.2201C28.3765 42.9801 28.0465 42.7401 28.1265 42.5001C28.1065 42.2601 28.2665 42.0301 28.1365 41.8001C28.0865 41.5701 28.0465 41.3401 28.1465 41.1101C27.7665 40.8801 28.2465 40.6601 28.1665 40.4401C28.3265 40.2201 28.1465 40.0001 28.1865 39.7901C28.1165 39.5801 28.3565 39.3601 28.2065 39.1601C28.2365 38.9501 28.0865 38.7501 28.2265 38.5501C28.0365 38.3501 28.3865 38.1501 28.2565 37.9601V37.6001V37.5801V37.5601C28.2565 37.5401 28.2665 37.5301 28.2765 37.5101C28.4265 37.4501 28.4365 37.3901 28.4065 37.3601C28.3765 37.3301 28.3165 37.3401 28.3065 37.3101C28.3265 37.2701 28.2865 37.2701 28.2565 37.2701C28.2065 37.2901 28.1865 37.2901 28.2365 37.1901C28.2165 37.1801 28.2065 37.1401 28.1765 37.1201C28.1465 37.1001 28.1065 37.1001 28.0565 37.1601C28.0165 37.1801 28.0065 37.0701 27.9565 37.0101C27.8865 36.9501 27.8065 36.9301 27.7265 37.1201C27.5765 37.1901 27.4365 36.8201 27.2965 37.0801C27.1565 37.3201 27.0265 37.0501 26.8965 37.0401C26.7665 37.0301 26.6465 37.0101 26.5265 37.0001C25.4665 36.8701 24.8665 36.7201 24.8665 36.5601C24.8665 36.3801 25.6165 36.2201 26.8965 36.0801C27.0265 36.0701 27.1565 35.8601 27.2965 36.0401C27.4365 36.0401 27.5765 35.8801 27.7265 36.0001C27.8065 35.8601 27.8765 35.8501 27.9565 35.8701C28.0865 35.8901 28.2065 35.9501 28.3365 35.9601C28.4665 35.9601 28.5865 35.9701 28.7165 35.9801C28.8465 35.9801 28.9765 35.9801 29.1565 35.9301C29.3565 35.8501 29.4965 35.8701 29.6165 35.9001C29.5965 36.0701 29.5665 36.2201 29.6165 36.3301C29.4465 36.7501 29.4865 36.9501 29.6465 37.2401C29.4865 37.6201 29.6765 37.7401 29.6765 37.9501C29.4265 38.1401 29.5965 38.3401 29.7065 38.5401C29.7965 38.7401 29.6665 38.9401 29.7265 39.1501C29.6765 39.3601 29.7865 39.5701 29.7465 39.7801C29.8665 39.9901 29.9065 40.2101 29.7665 40.4301C29.8465 40.6501 29.7865 40.8701 29.7865 41.1001C29.8865 41.3301 29.7765 41.5601 29.7965 41.7901C29.8465 42.0201 29.5265 42.2601 29.7965 42.4901C29.8365 42.7301 29.7565 42.9701 29.7965 43.2101C29.7565 43.4801 29.7265 43.6001 29.7965 44.1601C29.6565 44.3501 29.6365 44.5401 29.6565 44.7701C29.6765 45.0001 29.7465 45.2701 29.7965 45.5601C29.3965 45.6401 28.8665 45.6001 28.3965 45.5601C28.1865 45.5701 27.8865 45.5801 27.8065 45.5701C27.6865 45.5701 27.5665 45.5601 27.4465 45.5501C27.2065 45.6301 26.9665 45.4301 26.7265 45.5501C26.4865 45.6701 26.2565 45.4201 26.0265 45.5401C25.9665 45.5601 25.9165 45.5801 25.8565 45.5901H25.8365H25.7965H25.7165C25.6565 45.6001 25.6065 45.6001 25.5465 45.6001C25.3265 45.6001 25.1065 45.5801 24.9265 45.5101C24.7665 45.5101 24.6365 45.4801 24.5165 45.4401C24.3865 45.4101 24.2765 45.3801 24.1265 45.3901C24.1265 45.3001 24.0865 45.2301 24.0265 45.1701C23.9965 44.9901 23.9065 44.8501 23.8765 44.6501C23.8365 44.4601 23.8565 44.2101 24.0465 43.9801C24.0265 43.8901 24.0265 43.7901 24.0365 43.6901C24.0465 43.6301 24.0665 43.5801 24.0865 43.5301C24.1265 43.4201 24.1565 43.3201 24.0665 43.2201C24.3465 43.0101 24.0865 42.8101 24.0865 42.6101C24.1365 42.4101 24.2365 42.2101 24.1165 42.0201C23.9865 41.8301 24.1865 41.6401 24.1465 41.4501C23.9865 41.2601 24.3565 41.0801 24.1765 40.9101C24.2165 40.7301 24.1565 40.5601 24.2065 40.3901C23.8265 40.2201 24.2065 40.0601 24.2365 39.9001C24.2965 39.7401 23.9865 39.5901 24.2765 39.4401C23.9865 39.2901 24.2365 39.1501 24.3165 39.0101C24.3965 38.8701 24.1965 38.7401 24.3565 38.6101C24.1565 38.4801 24.4665 38.3601 24.3965 38.2401C24.5265 38.1201 24.3965 38.0101 24.4365 37.9001C24.3865 37.7901 24.4065 37.6901 24.4765 37.6001C24.4965 37.5101 24.5065 37.4201 24.5265 37.3301C24.6165 36.8401 24.7265 36.5701 24.8265 36.5701H24.8865Z" fill="#0061EF"/>
<path d="M34.1862 32.3101C34.2962 32.3101 34.3962 32.6701 34.4862 33.3401C34.5062 33.4501 34.5162 33.5701 34.5362 33.7001C34.5662 33.8301 34.5962 33.9601 34.5762 34.1101C34.4362 34.2501 34.8362 34.4101 34.6162 34.5601C34.5562 34.7201 34.6162 34.8801 34.6562 35.0601C34.7062 35.2301 34.5662 35.4101 34.6962 35.6001C34.9662 35.7901 34.3962 35.9801 34.7362 36.1801C34.8062 36.3801 34.7862 36.5901 34.7762 36.8001C34.5662 37.0101 34.7762 37.2401 34.8162 37.4601C34.5662 37.6901 34.6762 37.9201 34.8462 38.1601C34.5062 38.4001 34.5562 38.6401 34.8762 38.8901C34.8862 39.1401 34.7562 39.4001 34.9062 39.6601C34.9262 39.9201 34.9962 40.1901 34.9362 40.4601C35.1662 40.7301 35.1562 41.0101 34.9562 41.2901C35.2062 41.5701 35.1062 41.8501 34.9762 42.1401C34.8362 42.4301 35.1962 42.7201 34.9962 43.0201C34.9962 43.1701 34.9962 43.3201 35.0162 43.4701V43.5801L35.0262 43.6801C35.0262 43.6901 35.0262 43.7101 35.0162 43.7201C34.9762 43.7501 34.9362 43.8001 34.9062 43.8501C34.8862 43.9001 34.8862 43.9501 34.9262 43.9401C34.9662 43.9201 35.0062 43.8901 35.0562 43.8401C35.1062 43.8101 35.1462 43.7701 35.1662 43.7601C35.1662 43.7601 35.1762 43.7601 35.1862 43.7601C35.1862 43.7601 35.1862 43.7801 35.2062 43.7801C35.2462 43.7801 35.2862 43.8001 35.3262 43.8201C35.6462 43.5601 35.9662 43.6701 36.2962 43.8201C36.6262 43.7801 36.9562 43.9601 37.2862 43.8201C37.3362 43.8401 37.3462 43.8201 37.3562 43.7901C37.3662 43.7701 37.3562 43.7601 37.4462 43.8201C37.4462 43.8201 37.5262 43.8201 37.5362 43.7901C37.5362 43.7501 37.5362 43.7101 37.4462 43.6701C37.2762 43.3401 37.5162 43.0101 37.4462 42.6801C37.6862 42.3501 37.3662 42.0301 37.4462 41.7101C37.4262 41.3901 37.5862 41.0701 37.4562 40.7601C37.4062 40.4501 37.3662 40.1401 37.4662 39.8301C37.0862 39.5201 37.5662 39.2201 37.4862 38.9201C37.6462 38.6201 37.4662 38.3301 37.5062 38.0401C37.4362 37.7501 37.6762 37.4701 37.5262 37.1901C37.5562 36.9101 37.4062 36.6301 37.5462 36.3601C37.3562 36.0901 37.7062 35.8201 37.5762 35.5601C37.5762 35.3001 37.5662 35.0401 37.6062 34.8001C37.9062 34.5501 37.6562 34.3101 37.6362 34.0701C37.6662 33.8301 37.4662 33.6001 37.6662 33.3701C37.6662 33.3401 37.6662 33.3101 37.6762 33.2901L37.6962 33.2501C37.6962 33.2501 37.7262 33.2001 37.7362 33.1701C37.7562 33.1101 37.7562 33.0501 37.6962 33.0401C37.6862 33.0201 37.7262 32.9701 37.7662 32.9001C37.8162 32.8301 37.8662 32.7401 37.8862 32.6801C37.8562 32.6601 37.7762 32.6901 37.6362 32.8301C37.5662 32.8601 37.5762 32.7901 37.5462 32.7401C37.5162 32.6901 37.4562 32.6601 37.3762 32.7901C37.3062 32.9101 37.3162 32.9001 37.1962 32.8701C37.1062 32.8301 37.0162 32.7601 36.9262 32.7601C36.7562 32.7401 36.5862 32.7301 36.4262 32.7201C34.9962 32.5901 34.1762 32.4401 34.1762 32.2901C34.1762 32.1101 35.1862 31.9501 36.9162 31.8101C37.0062 31.8101 37.0962 31.7501 37.1862 31.7201C37.2462 31.6901 37.4462 31.6801 37.5662 31.7701C37.7062 31.7701 37.8662 31.7301 38.0362 31.7101C38.2062 31.6901 38.3762 31.6801 38.4962 31.7401C38.6862 31.6401 38.8462 31.6101 38.9762 31.6001C38.9762 31.8301 38.8862 32.1301 38.8762 32.3501C38.8762 32.5201 38.8662 32.7001 38.8562 32.8801C38.8562 32.9701 38.8562 33.0601 38.8562 33.1401C38.8562 33.1901 38.8562 33.2301 38.8762 33.2701C38.8762 33.3101 38.8962 33.3301 38.9062 33.3601C39.0662 33.5901 38.8262 33.8201 38.9362 34.0601C38.7662 34.3001 38.8162 34.5401 38.9662 34.7901C38.8062 35.0401 39.0062 35.2901 38.9962 35.5501C38.7462 35.8101 38.9262 36.0801 39.0262 36.3501C39.1162 36.6201 38.9862 36.9001 39.0462 37.1801C38.9962 37.4601 39.1062 37.7501 39.0662 38.0301C39.1862 38.3201 39.2262 38.6101 39.0862 38.9101C39.1662 39.2101 39.1062 39.5101 39.1062 39.8201C39.2062 40.1301 39.0962 40.4301 39.1162 40.7501C39.1662 41.0601 38.8462 41.3801 39.1262 41.7001C39.1662 42.0201 39.0862 42.3401 39.1262 42.6701C39.0862 43.0001 39.0562 43.3301 39.1262 43.6601C38.9862 43.9501 38.9662 44.2201 38.9862 44.5201C39.0062 44.8201 39.0762 45.1701 39.1262 45.5401C38.5662 45.6201 37.8462 45.5801 37.2462 45.5401C36.9162 45.5701 36.5862 45.5501 36.2562 45.5401C35.9362 45.6201 35.6062 45.4201 35.2862 45.5401C35.2462 45.5501 35.2062 45.5601 35.1662 45.5701C35.1562 45.5701 35.1062 45.5701 35.0662 45.5701H34.9562C34.8062 45.5701 34.6562 45.5501 34.5162 45.5301C34.2262 45.5001 33.9762 45.4701 33.6462 45.5301C33.5162 45.5501 33.3962 45.5601 33.2662 45.5701C33.2162 45.1401 33.2062 44.6201 33.3162 44.1401C33.3162 44.0001 33.3362 43.8601 33.3562 43.7201C33.3562 43.6801 33.3662 43.6701 33.3762 43.6501L33.3962 43.5901C33.3962 43.5901 33.4162 43.5101 33.4262 43.4801C33.4562 43.3301 33.4662 43.1801 33.3462 43.0301C33.2962 42.7301 32.9862 42.4401 33.3662 42.1501C33.2662 41.8601 33.5562 41.5801 33.3862 41.3001C33.6662 41.0201 33.3962 40.7401 33.4062 40.4701C33.4562 40.2001 33.5562 39.9301 33.4362 39.6701C33.3062 39.4101 33.5062 39.1501 33.4662 38.9001C33.3062 38.6501 33.6762 38.4101 33.4962 38.1701C33.5362 37.9301 33.4762 37.7001 33.5262 37.4701C33.1462 37.2401 33.5262 37.0201 33.5562 36.8101C33.6062 36.6001 33.3062 36.3901 33.5962 36.1901C33.3062 35.9901 33.5562 35.8001 33.6362 35.6101C33.7162 35.4201 33.5162 35.2401 33.6762 35.0701C33.4762 34.9001 33.7862 34.7301 33.7162 34.5701C33.8462 34.4101 33.7162 34.2601 33.7562 34.1201C33.7162 33.9801 33.7262 33.8401 33.7962 33.7101C33.8162 33.5801 33.8262 33.4601 33.8462 33.3501C33.9362 32.6901 34.0462 32.3201 34.1462 32.3201L34.1862 32.3101Z" fill="#0061EF"/>
<path d="M3.18916 47.8298C3.18916 47.8298 3.07916 47.8898 2.86916 47.9298C2.66916 47.9798 2.35916 48.0598 2.00916 48.2598C1.96916 48.2798 1.91916 48.3098 1.87916 48.3398C1.83916 48.3698 1.78916 48.3998 1.74916 48.4298C1.65916 48.4898 1.56916 48.5698 1.47916 48.6498C1.29916 48.8198 1.12916 49.0198 0.96916 49.2598C0.67916 49.7398 0.48916 50.4098 0.61916 51.1298C0.65916 51.3698 0.73916 51.6098 0.84916 51.8298C0.95916 52.0598 1.11916 52.2798 1.30916 52.4698C1.49916 52.6598 1.72916 52.8298 1.97916 52.9598C2.22916 53.0898 2.50916 53.1798 2.80916 53.2298C2.87916 53.2598 2.95916 53.2798 3.02916 53.2798C3.10916 53.2798 3.17916 53.2798 3.26916 53.2798C3.44916 53.2698 3.62916 53.2398 3.80916 53.2098C4.16916 53.1498 4.54916 53.1098 4.92916 53.2098C5.68916 53.2698 6.48916 53.2098 7.32916 53.1698C8.16916 53.1198 9.03916 53.2598 9.93916 53.1298C10.8392 52.8598 11.7792 53.4298 12.7492 53.0898C13.7192 53.0198 14.7192 53.0398 15.7492 53.0498C16.7792 53.2598 17.8392 53.0498 18.9392 53.0198C20.0292 53.2698 21.1492 53.1598 22.2992 52.9898C23.4492 53.3298 24.6292 53.2798 25.8292 52.9598C27.0292 52.9498 28.2692 53.0798 29.5192 52.9298C30.7792 52.9098 32.0592 52.8398 33.3592 52.8998C34.6592 52.6698 35.9892 52.6798 37.3392 52.8798C38.6892 52.6298 40.0692 52.7298 41.4592 52.8598C42.8492 52.9998 44.2692 52.6398 45.7092 52.8398C47.1392 52.8598 48.5992 52.7798 50.0692 52.8198C51.5392 52.9198 53.0292 53.0298 54.5392 52.8098C56.0492 52.7498 57.5692 52.6698 59.1092 52.8098C60.6492 52.5498 62.2092 52.6598 63.7792 52.8098C65.3492 52.7698 66.9292 52.9498 68.5292 52.8098C70.1292 52.8498 71.7392 52.6898 73.3592 52.8098C73.9292 52.8498 74.5292 52.6298 74.9392 52.1898C75.3492 51.7598 75.5292 51.1198 75.3892 50.5698C75.2492 50.0198 74.9792 49.5298 74.5592 49.1698C74.3492 48.9898 74.0992 48.8498 73.8292 48.7798C73.6992 48.7398 73.5592 48.7198 73.4192 48.7198H73.3692H73.2992H73.1492L72.8492 48.7298C71.2792 48.4798 69.7192 48.8098 68.1792 48.7298C66.6392 48.7498 65.1092 48.5898 63.6092 48.7298C62.0992 48.7698 60.6092 48.8198 59.1392 48.7198C57.6692 49.0998 56.2092 48.6198 54.7792 48.6998C53.3392 48.5398 51.9292 48.7198 50.5392 48.6798C49.1492 48.7498 47.7692 48.5098 46.4192 48.6598C45.0692 48.6298 43.7392 48.7798 42.4392 48.6398C41.1392 48.8298 39.8592 48.4798 38.5992 48.6098C37.3392 48.6098 36.1092 48.6198 34.9092 48.5798C33.7092 48.2898 32.5292 48.5298 31.3792 48.5498C30.2292 48.5198 29.1092 48.7198 28.0192 48.5198C26.9292 48.4998 25.8692 48.3698 24.8292 48.4898C23.7992 48.5298 22.7992 48.0598 21.8292 48.4498C20.8592 48.5198 19.9192 48.1498 19.0192 48.4098C18.1192 48.6498 17.2492 48.3798 16.4092 48.3698C15.5692 48.3498 14.7692 48.3398 14.0092 48.3298C10.5692 48.2698 7.86916 48.1998 6.01916 48.1198C4.16916 48.0498 3.18916 47.9698 3.18916 47.8898C3.18916 47.7998 4.40916 47.7198 6.66916 47.6398C8.92916 47.5598 12.2392 47.4798 16.4092 47.4198C17.2492 47.4098 18.1192 47.1998 19.0192 47.3798C19.9192 47.3798 20.8592 47.2198 21.8292 47.3398C22.7992 47.0698 23.7992 47.2898 24.8292 47.2998C25.8592 47.2898 26.9292 47.3798 28.0192 47.2698C29.1092 47.1098 30.2292 47.3498 31.3792 47.2398C32.5292 47.4098 33.7092 47.3598 34.9092 47.2098C36.1092 47.3698 37.3492 47.1698 38.5992 47.1798C39.8592 47.4298 41.1392 47.2598 42.4392 47.1498C43.7492 47.0598 45.0692 47.1898 46.4192 47.1298C47.7692 47.1798 49.1392 47.0598 50.5392 47.1098C51.9292 46.9898 53.3492 46.9498 54.7792 47.0898C56.2192 47.0098 57.6692 47.0698 59.1392 47.0698C60.6092 46.9698 62.0992 47.0798 63.6092 47.0598C65.1192 47.0098 66.6392 47.3298 68.1792 47.0498C69.7192 47.0098 71.2792 47.0898 72.8492 47.0498H73.1492H73.2992H73.3792H73.4792C73.7292 47.0598 73.9892 47.0998 74.2392 47.1598C74.7292 47.2898 75.1992 47.5098 75.6092 47.8198C76.4192 48.4298 76.9792 49.3698 77.1192 50.4098C77.0892 51.4498 76.7192 52.4398 76.0692 53.1998C75.7392 53.5798 75.3392 53.9098 74.8792 54.1398C74.4192 54.3798 73.9092 54.5198 73.3792 54.5498C71.7592 54.6298 70.1492 54.5898 68.5492 54.5498C66.9492 54.5798 65.3692 54.5598 63.7992 54.5498C62.2292 54.6298 60.6692 54.4298 59.1292 54.5498C57.5892 54.6698 56.0692 54.4198 54.5592 54.5398C53.0492 54.6198 51.5592 54.6598 50.0892 54.5298C48.6192 54.5298 47.1592 54.2798 45.7292 54.5098C44.2892 54.5598 42.8792 54.8698 41.4792 54.4898C40.0892 54.5898 38.7092 54.2998 37.3592 54.4698C36.0092 54.1898 34.6792 54.4598 33.3792 54.4498C32.0792 54.3998 30.7992 54.2998 29.5392 54.4198C28.2792 54.5498 27.0492 54.3498 25.8492 54.3898C24.6492 54.5498 23.4692 54.1798 22.3192 54.3598C21.1692 54.3198 20.0492 54.3798 18.9592 54.3298C17.8692 54.7098 16.8092 54.3298 15.7692 54.2998C14.7392 54.2398 13.7392 54.5498 12.7692 54.2598C11.7992 54.5498 10.8592 54.2998 9.95916 54.2198C9.05916 54.1398 8.18916 54.3398 7.34916 54.1798C6.50916 54.3798 5.70916 54.0698 4.94916 54.1398C4.56916 54.0698 4.18916 54.0698 3.82916 54.0798C3.64916 54.0798 3.46916 54.0898 3.28916 54.0998C3.20916 54.0998 3.09916 54.0998 2.99916 54.0998C2.89916 54.0998 2.79916 54.0798 2.69916 54.0598C2.30916 54.0198 1.92916 53.8998 1.60916 53.7198C1.27916 53.5298 1.01916 53.2798 0.80916 52.9998C0.57916 52.7398 0.39916 52.4598 0.27916 52.1598C0.14916 51.8698 0.0691598 51.5598 0.0391598 51.2698C-0.0708402 50.3798 0.21916 49.5998 0.60916 49.0598C0.80916 48.7898 1.02916 48.5798 1.24916 48.4098C1.36916 48.3298 1.46916 48.2498 1.57916 48.1998C1.62916 48.1698 1.68916 48.1398 1.73916 48.1098C1.79916 48.0898 1.84916 48.0598 1.89916 48.0398C2.30916 47.8698 2.64916 47.8398 2.86916 47.8398C3.08916 47.8398 3.19916 47.8698 3.19916 47.8998L3.18916 47.8298Z" fill="#0061EF"/>
<path d="M12.1928 53.6299C12.2928 53.6299 12.4028 54.3199 12.4928 55.5699C12.5028 55.7799 12.5228 55.9999 12.5428 56.2499C12.5728 56.4899 12.6028 56.7499 12.5828 57.0199C12.4428 57.2899 12.8428 57.5799 12.6228 57.8699C12.5628 58.1699 12.6228 58.4799 12.6628 58.8099C12.7128 59.1399 12.5728 59.4799 12.7028 59.8299C12.9728 60.1799 12.4028 60.5499 12.7428 60.9299C12.8228 61.3099 12.7928 61.6999 12.7828 62.1099C12.5728 62.5099 12.7828 62.9299 12.8128 63.3599C12.5628 63.7899 12.6728 64.2299 12.8428 64.6799C12.5028 65.1299 12.5528 65.5899 12.8728 66.0599C12.8828 66.5299 12.7528 67.0099 12.9028 67.5099C12.9228 67.9999 12.9928 68.4999 12.9328 69.0099C13.1628 69.5199 13.1528 70.0399 12.9528 70.5699C13.1928 71.0999 13.1028 71.6399 12.9728 72.1799C12.8328 72.7299 13.1928 73.2799 12.9928 73.8399C12.9728 74.3999 13.0528 74.9699 13.0128 75.5499C12.9128 76.1299 12.8028 76.7099 13.0228 77.2999C13.0228 77.3599 13.0228 77.3399 13.0328 77.3499V77.3699C13.0328 77.3699 13.0628 77.3899 13.0728 77.3899C13.0928 77.3999 13.1028 77.4099 13.1028 77.4199C13.1328 77.4199 13.1228 77.4399 13.1528 77.4899C13.1728 77.4599 13.1828 77.4299 13.1928 77.4099C13.2628 77.3899 13.3428 77.3699 13.4228 77.3599C13.5728 77.3399 13.7228 77.3299 13.8828 77.3399C14.1928 77.3499 14.4928 77.4199 14.8028 77.4899C15.4228 77.4499 16.0428 77.6299 16.6628 77.4899C16.8228 77.4999 16.9728 77.4899 17.1328 77.4899H17.3728L17.4928 77.4699C17.5328 77.4699 17.5828 77.4699 17.5728 77.4699C17.6128 77.4499 17.6128 77.4399 17.7128 77.4999C17.7128 77.4999 17.7928 77.4399 17.8028 77.3699C17.8028 77.3699 17.8028 77.3199 17.8028 77.2799V77.1599C17.8028 77.0799 17.8028 76.9999 17.7928 76.9199C17.7828 76.7599 17.7528 76.6099 17.7128 76.4499C17.5428 75.8199 17.7828 75.1999 17.7128 74.5899C17.9628 73.9699 17.6328 73.3599 17.7128 72.7599C17.6928 72.1599 17.8528 71.5599 17.7128 70.9699C17.6728 70.3799 17.6228 69.7899 17.7228 69.2199C17.3428 68.6399 17.8228 68.0699 17.7428 67.5099C17.9028 66.9499 17.7228 66.3899 17.7628 65.8499C17.6928 65.2999 17.9328 64.7699 17.7828 64.2399C17.8128 63.7099 17.6628 63.1899 17.8028 62.6799C17.6128 62.1699 17.9628 61.6699 17.8328 61.1799C17.8328 60.6899 17.8228 60.2099 17.8628 59.7299C18.1528 59.2599 17.9128 58.7999 17.8928 58.3499C17.9228 57.8999 17.7228 57.4599 17.9228 57.0299C17.9428 56.5999 18.0728 56.1899 17.9628 55.7799C17.9428 55.5799 18.0528 55.3799 18.1128 55.1799C18.1428 55.0799 18.1628 54.9799 18.1528 54.8899C18.1528 54.8399 18.1328 54.7899 18.1028 54.7499C18.0928 54.7299 18.0728 54.6999 18.0628 54.6799C18.0428 54.6499 18.0228 54.6299 18.0028 54.6199C17.9728 54.5499 18.0228 54.4699 18.0728 54.3599C18.1228 54.2499 18.1628 54.1099 18.1128 54.0699C18.0728 54.0799 18.0228 54.1099 17.9728 54.1399C17.6128 54.3799 17.7728 54.1099 17.3828 54.0999C17.0528 54.0899 16.7428 54.0699 16.4428 54.0599C13.7528 53.9299 12.2028 53.7799 12.2028 53.6299C12.2028 53.4499 14.1128 53.2899 17.3828 53.1499C17.4228 53.1499 17.4628 53.1499 17.5028 53.1399C17.5228 53.1399 17.5428 53.1399 17.5728 53.1299H17.6728C17.8028 53.0999 17.9328 53.0799 18.0828 53.0599C18.3628 53.0299 18.6728 53.0199 18.8628 53.1099C18.9328 53.1099 19.0128 53.1099 19.0928 53.1099C19.1028 53.3299 19.1428 53.5599 19.1628 53.8099C19.1828 54.0599 19.1828 54.3299 19.1228 54.5899C19.1228 54.6099 19.1428 54.6299 19.1428 54.6399L19.1628 54.6799C19.1628 54.6799 19.1828 54.7299 19.2028 54.7499C19.2228 54.7999 19.2328 54.8499 19.2428 54.8899C19.2628 54.9899 19.2628 55.0799 19.2428 55.1799C19.2228 55.3799 19.1628 55.5799 19.1528 55.7799C19.1628 56.1799 19.0728 56.5999 19.1828 57.0299C19.3428 57.4599 19.1028 57.8999 19.2128 58.3499C19.0428 58.7999 19.0928 59.2599 19.2428 59.7299C19.0828 60.1999 19.2828 60.6799 19.2728 61.1799C19.0228 61.6699 19.1928 62.1699 19.3028 62.6799C19.3928 63.1899 19.2628 63.7099 19.3228 64.2399C19.2728 64.7699 19.3828 65.3099 19.3428 65.8499C19.4628 66.3999 19.5028 66.9499 19.3628 67.5099C19.4428 68.0699 19.3828 68.6399 19.3828 69.2199C19.4828 69.7999 19.3728 70.3799 19.3928 70.9699C19.4428 71.5599 19.1228 72.1599 19.4028 72.7599C19.4428 73.3599 19.3628 73.9699 19.4028 74.5899C19.3628 75.2099 19.3328 75.8299 19.4028 76.4499C19.3328 76.6099 19.2928 76.7599 19.2728 76.9199C19.2728 76.9999 19.2528 77.0799 19.2528 77.1599V77.2799V77.4299C19.2728 77.9699 19.3428 78.5699 19.3928 79.2199C18.8328 79.2599 18.2128 79.2699 17.6028 79.2599H17.4428H17.3228H17.0828L16.6128 79.2199C15.9828 79.2499 15.3628 79.2299 14.7528 79.2199C14.4428 79.2599 14.1428 79.2299 13.8328 79.2099C13.6828 79.1999 13.5228 79.1899 13.3728 79.1799C13.2928 79.1799 13.2228 79.1799 13.1428 79.1799C13.0028 79.1799 12.8628 79.1899 12.7228 79.2099C12.2328 79.2599 11.7328 79.2499 11.2928 79.2099C11.3128 78.8699 11.3328 78.5299 11.3428 78.2199C11.3428 78.0599 11.3428 77.8999 11.3428 77.7499C11.3428 77.6699 11.3428 77.5899 11.3328 77.5199C11.3328 77.4499 11.3228 77.3399 11.3128 77.3199C11.2328 76.7299 11.1928 76.1399 11.3228 75.5699C11.3228 74.9899 11.5728 74.4199 11.3428 73.8599C11.2928 73.2999 10.9728 72.7399 11.3628 72.1999C11.2628 71.6499 11.5428 71.1199 11.3828 70.5899C11.6628 70.0599 11.3928 69.5399 11.4028 69.0299C11.4528 68.5199 11.5528 68.0199 11.4328 67.5299C11.3028 67.0399 11.5028 66.5499 11.4628 66.0799C11.3028 65.6099 11.6728 65.1499 11.4928 64.6999C11.5328 64.2499 11.4728 63.8099 11.5228 63.3799C11.1428 62.9499 11.5228 62.5299 11.5628 62.1299C11.6228 61.7299 11.3128 61.3299 11.6028 60.9499C11.3128 60.5699 11.5628 60.1999 11.6428 59.8499C11.7228 59.4999 11.5228 59.1599 11.6828 58.8299C11.4828 58.4999 11.7928 58.1899 11.7228 57.8899C11.8528 57.5899 11.7228 57.2999 11.7628 57.0399C11.7128 56.7699 11.7328 56.5099 11.8028 56.2699C11.8228 56.0299 11.8328 55.7999 11.8528 55.5899C11.9428 54.3299 12.0428 53.6499 12.1528 53.6499L12.1928 53.6299Z" fill="#0061EF"/>
<path d="M57.9965 53.6299C58.0965 53.6299 58.2065 54.3199 58.2965 55.5699C58.3065 55.7799 58.3265 55.9999 58.3465 56.2499C58.3765 56.4899 58.4065 56.7499 58.3965 57.0199C58.2565 57.2899 58.6565 57.5799 58.4365 57.8699C58.3765 58.1699 58.4365 58.4799 58.4765 58.8099C58.5265 59.1399 58.3865 59.4799 58.5165 59.8299C58.7865 60.1799 58.2165 60.5499 58.5565 60.9299C58.6265 61.3099 58.6065 61.6999 58.5965 62.1099C58.3865 62.5099 58.5965 62.9299 58.6365 63.3599C58.3865 63.7899 58.4965 64.2299 58.6665 64.6799C58.3265 65.1299 58.3765 65.5899 58.6965 66.0599C58.7065 66.5299 58.5765 67.0099 58.7265 67.5099C58.7465 67.9999 58.8165 68.4999 58.7565 69.0099C58.9865 69.5199 58.9765 70.0399 58.7765 70.5699C59.0265 71.0999 58.9265 71.6399 58.7965 72.1799C58.6565 72.7299 59.0165 73.2799 58.8165 73.8399C58.7965 74.3999 58.8765 74.9699 58.8365 75.5499C58.7365 76.1299 58.6265 76.7099 58.8465 77.2999C58.8465 77.3599 58.8465 77.3399 58.8565 77.3499V77.3699C58.8565 77.3699 58.8865 77.3899 58.8965 77.3899C58.9165 77.3999 58.9265 77.4099 58.9265 77.4199C58.9565 77.4199 58.9465 77.4399 58.9765 77.4899C58.9965 77.4599 59.0065 77.4299 59.0165 77.4099C59.0865 77.3899 59.1665 77.3699 59.2365 77.3599C59.3865 77.3399 59.5365 77.3299 59.6965 77.3399C60.0065 77.3499 60.3065 77.4199 60.6165 77.4899C61.2365 77.4499 61.8565 77.6299 62.4765 77.4899C62.6365 77.4999 62.7865 77.4899 62.9465 77.4899H63.1865L63.3065 77.4699C63.3465 77.4699 63.3965 77.4699 63.3865 77.4699C63.4265 77.4499 63.4265 77.4399 63.5265 77.4999C63.5265 77.4999 63.6065 77.4399 63.6165 77.3699C63.6165 77.3699 63.6165 77.3199 63.6165 77.2799V77.1599C63.6165 77.0799 63.6165 76.9999 63.6065 76.9199C63.5965 76.7599 63.5665 76.6099 63.5265 76.4499C63.3565 75.8199 63.5965 75.1999 63.5265 74.5899C63.7765 73.9699 63.4465 73.3599 63.5265 72.7599C63.5065 72.1599 63.6665 71.5599 63.5265 70.9699C63.4865 70.3799 63.4365 69.7899 63.5365 69.2199C63.1565 68.6399 63.6365 68.0699 63.5565 67.5099C63.7165 66.9499 63.5365 66.3899 63.5765 65.8499C63.5065 65.2999 63.7465 64.7699 63.5965 64.2399C63.6265 63.7099 63.4765 63.1899 63.6165 62.6799C63.4265 62.1699 63.7765 61.6699 63.6465 61.1699C63.6465 60.6799 63.6365 60.1999 63.6765 59.7199C63.9665 59.2499 63.7265 58.7899 63.7065 58.3399C63.7365 57.8899 63.5365 57.4499 63.7365 57.0199C63.7565 56.5899 63.8865 56.1799 63.7665 55.7699C63.7465 55.5699 63.8565 55.3699 63.9165 55.1699C63.9465 55.0699 63.9665 54.9699 63.9565 54.8799C63.9565 54.8299 63.9365 54.7799 63.9165 54.7399C63.9065 54.7199 63.8865 54.6899 63.8665 54.6699C63.8465 54.6499 63.8265 54.6199 63.8065 54.6199C63.7765 54.5499 63.8265 54.4699 63.8765 54.3599C63.9265 54.2499 63.9665 54.1099 63.9165 54.0699C63.8765 54.0799 63.8265 54.1099 63.7765 54.1399C63.4165 54.3799 63.5865 54.1099 63.1865 54.0999C62.8565 54.0899 62.5465 54.0699 62.2465 54.0599C59.5465 53.9299 58.0065 53.7799 58.0065 53.6299C58.0065 53.4499 59.9165 53.2899 63.1865 53.1499C63.2265 53.1499 63.2665 53.1499 63.3065 53.1399C63.3265 53.1399 63.3365 53.1399 63.3765 53.1299H63.4765C63.6065 53.0999 63.7465 53.0799 63.8865 53.0599C64.1665 53.0299 64.4665 53.0199 64.6665 53.1099C64.7365 53.1099 64.8165 53.1099 64.8865 53.1099C64.8965 53.3299 64.9365 53.5599 64.9565 53.7999C64.9765 54.0499 64.9765 54.3199 64.9265 54.5899C64.9265 54.6099 64.9465 54.6299 64.9465 54.6399L64.9665 54.6799C64.9665 54.6799 64.9965 54.7299 65.0065 54.7499C65.0265 54.7999 65.0365 54.8499 65.0465 54.8899C65.0665 54.9899 65.0665 55.0799 65.0465 55.1799C65.0265 55.3799 64.9665 55.5799 64.9565 55.7799C64.9665 56.1799 64.8765 56.5999 64.9865 57.0299C65.1465 57.4599 64.9065 57.8999 65.0165 58.3499C64.8465 58.7999 64.8965 59.2599 65.0465 59.7299C64.8865 60.1999 65.0765 60.6799 65.0765 61.1799C64.8265 61.6699 64.9965 62.1699 65.1065 62.6899C65.1965 63.1999 65.0665 63.7199 65.1265 64.2499C65.0765 64.7799 65.1865 65.3199 65.1465 65.8599C65.2665 66.4099 65.3065 66.9599 65.1665 67.5199C65.2465 68.0799 65.1865 68.6499 65.1865 69.2299C65.2865 69.8099 65.1765 70.3899 65.1965 70.9799C65.2465 71.5699 64.9265 72.1699 65.2065 72.7699C65.2465 73.3699 65.1665 73.9799 65.2065 74.5999C65.1665 75.2199 65.1365 75.8399 65.2065 76.4599C65.1365 76.6199 65.0965 76.7699 65.0765 76.9299C65.0665 77.0099 65.0565 77.0899 65.0565 77.1699V77.4399C65.0865 77.9799 65.1565 78.5799 65.2065 79.2299C64.6465 79.2699 64.0265 79.2799 63.4165 79.2699H63.2565H63.1365H62.8965L62.4265 79.2299C61.7965 79.2599 61.1765 79.2399 60.5665 79.2299C60.2565 79.2699 59.9565 79.2399 59.6465 79.2199C59.4965 79.2099 59.3465 79.1999 59.1865 79.1899C59.1065 79.1899 59.0365 79.1899 58.9565 79.1899C58.8165 79.1899 58.6765 79.1999 58.5365 79.2199C58.0465 79.2699 57.5465 79.2599 57.1065 79.2199C57.1265 78.8799 57.1465 78.5399 57.1565 78.2299C57.1565 78.0699 57.1565 77.9099 57.1565 77.7599C57.1565 77.6799 57.1565 77.5999 57.1565 77.5299C57.1565 77.4599 57.1465 77.3499 57.1365 77.3299C57.0565 76.7399 57.0165 76.1499 57.1465 75.5799C57.1465 74.9999 57.3965 74.4299 57.1665 73.8699C57.1165 73.3099 56.8065 72.7499 57.1865 72.2099C57.0865 71.6599 57.3665 71.1299 57.2065 70.5999C57.4865 70.0699 57.2165 69.5499 57.2265 69.0399C57.2765 68.5299 57.3765 68.0299 57.2565 67.5399C57.1265 67.0499 57.3265 66.5599 57.2865 66.0899C57.1265 65.6199 57.4965 65.1599 57.3165 64.7099C57.3565 64.2599 57.2965 63.8199 57.3465 63.3899C56.9665 62.9599 57.3465 62.5399 57.3865 62.1399C57.4365 61.7399 57.1365 61.3399 57.4265 60.9599C57.1365 60.5799 57.3865 60.2099 57.4665 59.8599C57.5465 59.5099 57.3465 59.1699 57.5065 58.8399C57.3065 58.5099 57.6165 58.1999 57.5465 57.8999C57.6765 57.5999 57.5465 57.3099 57.5865 57.0499C57.5465 56.7799 57.5565 56.5199 57.6365 56.2799C57.6565 56.0399 57.6665 55.8099 57.6865 55.5999C57.7765 54.3399 57.8765 53.6599 57.9865 53.6599L57.9965 53.6299Z" fill="#0061EF"/>
<path d="M73.9869 78.3301C73.9869 78.4401 73.1969 78.5401 71.7569 78.6301C71.5169 78.6401 71.2569 78.6601 70.9769 78.6801C70.6969 78.7101 70.4069 78.7401 70.0969 78.7301C69.7869 78.5901 69.4569 78.9901 69.1169 78.7701C68.7769 78.7101 68.4169 78.7701 68.0369 78.8101C67.6569 78.8601 67.2669 78.7201 66.8569 78.8501C66.4469 79.1201 66.0269 78.5501 65.5869 78.8901C65.1469 78.9601 64.6969 78.9401 64.2369 78.9301C63.7669 78.7201 63.2969 78.9301 62.7969 78.9701C62.3069 78.7201 61.7969 78.8301 61.2869 79.0001C60.7669 78.6601 60.2369 78.7101 59.6969 79.0301C59.1569 79.0401 58.5969 78.9101 58.0369 79.0601C57.4769 79.0801 56.8969 79.1501 56.3069 79.0901C55.7169 79.3201 55.1169 79.3101 54.5169 79.1101C53.9069 79.3601 53.2869 79.2601 52.6569 79.1301C52.0269 78.9901 51.3869 79.3501 50.7469 79.1501C50.0969 79.1301 49.4469 79.2101 48.7769 79.1701C48.1169 79.0701 47.4469 78.9601 46.7569 79.1801C46.0769 79.2401 45.3869 79.3201 44.6969 79.1901C44.0069 79.4501 43.3069 79.3401 42.5969 79.1901C41.8869 79.2301 41.1769 79.0501 40.4569 79.1901C39.7369 79.1501 39.0169 79.3101 38.2769 79.1901C37.5469 79.1101 36.8169 79.0301 36.1069 79.1901C35.3869 79.3601 34.6769 79.1201 33.9669 79.1901C33.2569 78.9401 32.5569 79.2701 31.8669 79.1901C31.1769 79.2101 30.4869 79.0501 29.8069 79.1801C29.1269 79.2301 28.4569 79.2701 27.7869 79.1701C27.1269 79.5501 26.4669 79.0701 25.8169 79.1501C25.1669 78.9901 24.5369 79.1701 23.9069 79.1301C23.2769 79.2001 22.6569 78.9601 22.0469 79.1101C21.4369 79.0801 20.8369 79.2301 20.2469 79.0901C19.6569 79.2801 19.0869 78.9301 18.5169 79.0601C17.9469 79.0601 17.3969 79.0701 16.8569 79.0301C16.3169 78.7401 15.7869 78.9801 15.2669 79.0001C14.7469 78.9701 14.2469 79.1701 13.7469 78.9701C13.2569 78.9501 12.7769 78.8201 12.3069 78.9301C11.8469 78.9701 11.3869 78.5001 10.9569 78.8901C10.5169 78.9601 10.0969 78.5901 9.68687 78.8501C9.27687 79.0901 8.88688 78.8201 8.50688 78.8101C8.12687 78.8001 7.76688 78.7801 7.42688 78.7701C4.32688 78.6401 2.54688 78.4901 2.54688 78.3401C2.54688 78.1601 4.73688 78.0001 8.50688 77.8601C8.88688 77.8501 9.27687 77.6401 9.68687 77.8201C10.0969 77.8201 10.5169 77.6601 10.9569 77.7801C11.3969 77.5101 11.8469 77.7301 12.3069 77.7401C12.7669 77.7301 13.2469 77.8201 13.7469 77.7001C14.2369 77.5401 14.7469 77.7801 15.2669 77.6701C15.7869 77.8401 16.3169 77.7901 16.8569 77.6401C17.3969 77.8001 17.9569 77.6101 18.5169 77.6101C19.0869 77.8601 19.6569 77.6901 20.2469 77.5801C20.8369 77.4901 21.4369 77.6201 22.0369 77.5601C22.6469 77.6101 23.2669 77.5001 23.8969 77.5401C24.5269 77.4201 25.1669 77.3801 25.8069 77.5201C26.4569 77.4401 27.1069 77.5001 27.7769 77.5001C28.4369 77.4001 29.1169 77.5101 29.7969 77.4901C30.4769 77.4401 31.1669 77.7601 31.8569 77.4901C32.5469 77.4501 33.2469 77.5301 33.9569 77.4901C34.6669 77.5201 35.3769 77.5601 36.0969 77.4901C36.8169 77.7701 37.5369 77.6001 38.2669 77.4901C38.9969 77.4101 39.7269 77.4501 40.4469 77.4901C41.1669 77.4601 41.8769 77.4801 42.5869 77.4901C43.2969 77.4101 43.9969 77.6101 44.6869 77.4901C45.3769 77.3701 46.0669 77.6101 46.7469 77.4901C47.4269 77.4101 48.0969 77.3701 48.7669 77.5001C49.4269 77.5001 50.0869 77.7501 50.7369 77.5201C51.3869 77.4701 52.0169 77.1601 52.6469 77.5401C53.2769 77.4401 53.8969 77.7301 54.5069 77.5601C55.1169 77.8401 55.7169 77.5701 56.2969 77.5801C56.8869 77.6301 57.4669 77.7301 58.0269 77.6101C58.5969 77.4801 59.1469 77.6801 59.6869 77.6401C60.2269 77.4801 60.7569 77.8501 61.2769 77.6701C61.7969 77.7101 62.2969 77.6501 62.7869 77.7001C63.2769 77.3201 63.7569 77.7001 64.2269 77.7401C64.6869 77.7901 65.1469 77.4901 65.5769 77.7801C66.0169 77.4901 66.4369 77.7401 66.8469 77.8201C67.2569 77.9001 67.6469 77.7001 68.0269 77.8601C68.4069 77.6601 68.7669 77.9701 69.1069 77.9001C69.4469 78.0301 69.7769 77.9001 70.0869 77.9401C70.3969 77.8901 70.6869 77.9101 70.9669 77.9801C71.2469 78.0001 71.5069 78.0101 71.7469 78.0301C73.1869 78.1201 73.9769 78.2201 73.9769 78.3301H73.9869Z" fill="#0061EF"/>
<path d="M61.9837 84.4602C61.9837 84.5702 61.4637 84.6702 60.5037 84.7602C60.3438 84.7702 60.1737 84.7902 59.9837 84.8102C59.8037 84.8402 59.6038 84.8702 59.4038 84.8602C59.1938 84.7202 58.9837 85.1202 58.7537 84.9002C58.5238 84.8402 58.2837 84.9002 58.0337 84.9402C57.7837 84.9902 57.5238 84.8502 57.2537 84.9802C56.9837 85.2502 56.7038 84.6802 56.4137 85.0202C56.1237 85.0902 55.8237 85.0702 55.5137 85.0602C55.2037 84.8502 54.8838 85.0602 54.5638 85.1002C54.2337 84.8502 53.9037 84.9602 53.5537 85.1302C53.2137 84.7902 52.8638 84.8402 52.4938 85.1602C52.1338 85.1702 51.7637 85.0402 51.3937 85.1902C51.0137 85.2102 50.6338 85.2802 50.2438 85.2202C49.8538 85.4502 49.4538 85.4402 49.0537 85.2402C48.6537 85.4902 48.2437 85.3902 47.8237 85.2602C47.4038 85.1202 46.9837 85.4802 46.5537 85.2802C46.1237 85.2602 45.6938 85.3402 45.2537 85.3002C44.8137 85.2002 44.3638 85.0902 43.9137 85.3102C43.4637 85.3702 43.0037 85.4502 42.5438 85.3102C42.0838 85.5702 41.6137 85.4602 41.1437 85.3102C40.6737 85.3502 40.2038 85.1702 39.7238 85.3102C39.2438 85.2702 38.7637 85.4202 38.2837 85.3102C37.8037 85.2302 37.3137 85.1602 36.8438 85.3102C36.3638 85.4802 35.8937 85.2402 35.4237 85.3102C34.9537 85.0602 34.4937 85.3902 34.0238 85.3102C33.5638 85.3302 33.1038 85.1702 32.6538 85.3102C32.2038 85.3602 31.7537 85.4002 31.3137 85.3002C30.8737 85.6802 30.4338 85.2002 30.0138 85.2802C29.5837 85.1202 29.1637 85.3002 28.7437 85.2602C28.3237 85.3302 27.9137 85.0902 27.5138 85.2402C27.1138 85.2102 26.7137 85.3602 26.3237 85.2202C25.9337 85.4102 25.5538 85.0602 25.1737 85.1902C24.7937 85.1902 24.4337 85.2002 24.0737 85.1602C23.7137 84.8702 23.3638 85.1102 23.0138 85.1302C22.6737 85.1002 22.3338 85.3002 22.0138 85.1002C21.6838 85.0802 21.3737 84.9502 21.0637 85.0602C20.7537 85.1002 20.4537 84.6302 20.1637 85.0202C19.8737 85.0902 19.5937 84.7202 19.3237 84.9802C19.0537 85.2202 18.7938 84.9502 18.5438 84.9402C18.2938 84.9302 18.0537 84.9102 17.8237 84.9002C15.7637 84.7702 14.5938 84.6202 14.5938 84.4602C14.5938 84.2902 16.0438 84.1202 18.5438 83.9802C18.7938 83.9702 19.0537 83.7602 19.3237 83.9402C19.5937 83.9402 19.8737 83.7802 20.1637 83.9002C20.4537 83.6302 20.7537 83.8502 21.0637 83.8602C21.3737 83.8502 21.6937 83.9302 22.0138 83.8202C22.3438 83.6602 22.6737 83.9002 23.0138 83.7902C23.3538 83.9602 23.7137 83.9102 24.0737 83.7602C24.4337 83.9202 24.8038 83.7202 25.1737 83.7302C25.5437 83.9802 25.9337 83.8002 26.3237 83.7002C26.7137 83.6102 27.1138 83.7402 27.5138 83.6802C27.9137 83.7302 28.3237 83.6202 28.7437 83.6602C29.1637 83.5402 29.5837 83.5002 30.0138 83.6402C30.4438 83.5602 30.8737 83.6202 31.3137 83.6202C31.7537 83.5202 32.2038 83.6302 32.6538 83.6102C33.1038 83.5602 33.5638 83.8802 34.0238 83.6002C34.4837 83.5602 34.9537 83.6402 35.4237 83.6002C35.8937 83.6402 36.3638 83.6702 36.8438 83.6002C37.3237 83.8802 37.8037 83.7102 38.2837 83.6002C38.7637 83.5202 39.2538 83.5602 39.7238 83.6002C40.2038 83.5702 40.6737 83.5902 41.1437 83.6002C41.6137 83.5202 42.0738 83.7202 42.5438 83.6002C43.0037 83.4802 43.4637 83.7302 43.9137 83.6102C44.3638 83.5302 44.8137 83.4902 45.2537 83.6202C45.6938 83.6202 46.1237 83.8702 46.5537 83.6402C46.9837 83.5902 47.4038 83.2702 47.8237 83.6602C48.2437 83.5602 48.6537 83.8402 49.0537 83.6802C49.4538 83.9602 49.8538 83.6902 50.2438 83.7002C50.6338 83.7602 51.0137 83.8502 51.3937 83.7302C51.7637 83.6002 52.1338 83.8002 52.4938 83.7602C52.8538 83.6002 53.2038 83.9702 53.5537 83.7902C53.8937 83.8302 54.2337 83.7702 54.5638 83.8202C54.8938 83.4402 55.2037 83.8202 55.5137 83.8602C55.8237 83.9102 56.1237 83.6102 56.4137 83.9002C56.7038 83.6102 56.9837 83.8602 57.2537 83.9402C57.5238 84.0202 57.7837 83.8202 58.0337 83.9802C58.2837 83.7802 58.5238 84.0902 58.7537 84.0202C58.9837 84.1502 59.2038 84.0202 59.4038 84.0602C59.6138 84.0102 59.8037 84.0302 59.9837 84.1102C60.1637 84.1302 60.3338 84.1402 60.5037 84.1602C61.4637 84.2502 61.9837 84.3502 61.9837 84.4602Z" fill="#0061EF"/>
</g>
<defs>
<clipPath id="clip0_926_41022">
<rect width="77.12" height="85.46" fill="white"/>
</clipPath>
</defs>
</svg>
