<svg width="117" height="79" viewBox="0 0 117 79" fill="none" xmlns="http://www.w3.org/2000/svg">
<g clip-path="url(#clip0_926_40994)">
<path d="M48.4893 23.817C48.4202 23.8583 48.0747 23.3486 47.4805 22.3706C46.8586 21.4063 45.9879 19.9462 44.6612 18.2518C44.2189 17.6871 43.7076 17.1085 43.141 16.5162C42.8369 16.2407 42.5329 15.9376 42.2012 15.6621C42.0354 15.5244 41.8696 15.3866 41.6899 15.2489C41.607 15.18 41.524 15.0974 41.4411 15.0285C41.3582 14.9596 41.2615 14.8907 41.1647 14.8218C41.0127 14.6428 40.8192 14.505 40.6258 14.3948L40.4737 14.3122L40.3079 14.2433C40.1973 14.202 40.0868 14.1606 39.9762 14.1055C39.7551 14.0229 39.534 13.9127 39.3129 13.8163C39.0917 13.7198 38.8844 13.5959 38.691 13.4168C38.5804 13.3479 38.4698 13.2928 38.3593 13.2377C38.2487 13.1826 38.1243 13.1413 38 13.1C37.765 13.0035 37.5163 12.9209 37.2675 12.8382C37.0049 12.7831 36.7562 12.728 36.4798 12.6729C36.3554 12.6454 36.2172 12.6178 36.079 12.5903C35.9408 12.5765 35.8026 12.5627 35.6644 12.5352C35.388 12.5076 35.1254 12.4525 34.849 12.3974C34.5726 12.3561 34.2824 12.3148 34.006 12.2735C33.4394 12.177 32.8451 12.177 32.237 12.2459C31.6428 12.425 31.0485 12.3423 30.4266 12.301C30.1087 12.2872 29.8047 12.2872 29.4868 12.3148C29.1828 12.3699 28.8649 12.4525 28.5885 12.6454C27.3724 13.0311 26.1424 13.403 24.9262 13.9953C24.2491 14.1606 23.6548 14.5188 23.102 14.932C22.5492 15.3591 22.0517 15.855 21.5404 16.3509C20.2413 17.0259 19.343 18.3069 18.7764 19.6982C17.5602 20.69 16.9383 22.2466 16.9936 23.8583C16.6066 25.346 16.2197 26.9301 16.5099 28.5694C16.5928 30.2224 16.883 31.8754 17.1871 33.5697C17.8919 35.1676 18.4032 36.8069 18.804 38.5838C19.7852 40.1129 20.4624 41.7934 21.1949 43.5291C21.9273 45.2647 23.3508 46.6285 24.2076 48.3779C25.2717 49.9896 26.5155 51.5186 27.6902 53.1303C28.8097 54.7971 29.9705 56.4639 31.5598 57.8C32.9695 59.2878 34.4344 60.7617 35.7197 62.4285C37.4195 63.7096 38.7601 65.3626 40.1006 67.0431C41.6346 68.5308 42.9613 70.2665 44.6612 71.6715C45.4075 72.4705 46.209 73.2143 47.0106 73.972C47.4114 74.3577 47.8121 74.7296 48.1991 75.1291L48.3511 75.2806L48.3649 75.2944C48.3649 75.2944 48.3788 75.3219 48.3926 75.3357C48.4064 75.3633 48.434 75.4046 48.4617 75.4597C48.4617 75.4597 48.5308 75.4321 48.5584 75.4184L48.6275 75.377H48.6413V75.3633C48.6413 75.3633 48.6413 75.3633 48.6552 75.3495L48.8072 75.2117C49.2218 74.8398 49.6226 74.4679 50.0095 74.0822C50.7973 73.3108 51.5574 72.5118 52.2484 71.6715C53.6165 69.9497 55.3855 68.6548 56.7951 67.0431C58.5364 65.7483 59.6559 63.8886 61.1761 62.4285C62.5719 60.8581 64.1335 59.4806 65.3359 57.8C66.6211 56.2021 67.8511 54.6042 69.1917 53.1303C69.9794 51.2293 71.6793 50.0585 72.6743 48.3779C73.9596 46.904 74.7335 45.1408 75.687 43.5291C76.4886 41.8485 77.6357 40.347 78.0779 38.5838C78.7827 36.9171 79.1006 35.1814 79.6948 33.5697C79.7087 33.1289 79.7916 32.7157 79.8745 32.3024C79.9436 31.8892 80.0403 31.4759 80.1371 31.0626C80.2891 30.2361 80.4688 29.4096 80.372 28.5831C80.4411 26.9439 80.2338 25.3873 79.8883 23.8721C79.8883 23.0593 79.6396 22.3155 79.2941 21.6405C78.9486 20.9518 78.5063 20.3319 78.1055 19.712C77.7324 19.0646 77.2349 18.5136 76.7512 17.9901C76.2675 17.4529 75.7561 16.957 75.3415 16.3784C74.8302 15.8963 74.305 15.428 73.7523 15.0009C73.1856 14.6014 72.6052 14.2295 71.9557 14.0091C71.6516 13.8576 71.3614 13.7198 71.0712 13.527C70.781 13.3617 70.5046 13.1688 70.2005 13.0311C69.9103 12.8796 69.6063 12.7418 69.2746 12.6729C68.9567 12.5903 68.625 12.5903 68.2795 12.6592C67.9617 12.6041 67.6576 12.549 67.3536 12.4663C67.0496 12.3974 66.7455 12.301 66.4415 12.2321C65.8334 12.1082 65.2253 12.0393 64.6172 12.2321C64.023 12.425 63.4425 12.4112 62.8759 12.4388C62.5857 12.4388 62.2955 12.425 62.0191 12.4388C61.7427 12.4525 61.4663 12.4801 61.1899 12.5214C61.0517 12.549 60.9135 12.5627 60.7891 12.5903C60.6647 12.6178 60.5265 12.6592 60.4021 12.6867C60.1396 12.7556 59.8908 12.8107 59.6282 12.8796C59.3795 12.9622 59.1307 13.0449 58.8958 13.1275C58.7714 13.1688 58.6608 13.2102 58.5364 13.2515C58.4259 13.2928 58.3015 13.3479 58.1909 13.403C57.9284 13.5132 57.6796 13.6372 57.4309 13.7474C57.1959 13.8851 56.961 14.0229 56.726 14.1469C56.6155 14.2157 56.4911 14.2708 56.3805 14.3397C56.27 14.4086 56.1594 14.4912 56.0627 14.5601C55.8554 14.7116 55.6343 14.8494 55.427 15.0009C54.6392 15.6346 53.9206 16.2682 53.3263 16.9432C52.124 18.2656 51.2257 19.5191 50.5347 20.5661C50.1754 21.0895 49.899 21.5579 49.6364 21.9573C49.3738 22.3568 49.1665 22.7012 48.9868 22.9905C48.6413 23.5415 48.434 23.817 48.3788 23.7894C48.3235 23.7619 48.4617 23.3624 48.7795 22.6185C49.0974 21.8747 49.6226 20.8002 50.3965 19.4365C50.6038 19.1059 50.8249 18.7477 51.0598 18.3758C51.2948 18.0039 51.5712 17.632 51.8476 17.2325C51.9858 17.0259 52.1378 16.833 52.3036 16.6402C52.4695 16.4473 52.6215 16.2407 52.7873 16.0341C52.9532 15.8274 53.1467 15.6346 53.3401 15.428C53.5336 15.2351 53.7133 15.0147 53.9344 14.8218C54.7636 14.0229 55.7725 13.2515 56.9333 12.5903C58.108 11.9429 59.4624 11.447 60.9135 11.1301C61.2037 11.075 61.4939 10.9924 61.798 10.9097C62.102 10.8409 62.406 10.7858 62.7101 10.7307C63.332 10.6067 63.9539 10.5929 64.6034 10.7031C65.8749 10.6756 67.2845 10.5654 68.6112 11.0475C68.9705 11.0337 69.3299 11.0475 69.6892 11.1301C70.0485 11.199 70.3802 11.323 70.7257 11.447C71.0712 11.5709 71.389 11.75 71.7207 11.9015C72.0386 12.0806 72.3841 12.2459 72.7019 12.425C73.3791 12.7418 74.0148 13.1688 74.6367 13.5959C75.2586 14.0367 75.8805 14.505 76.5162 14.9734C77.1796 15.4142 77.7324 16.0065 78.2299 16.6539C78.7274 17.3014 79.1835 17.9763 79.681 18.6375C80.3582 20.1666 81.1045 21.6543 81.7817 23.2935C81.8922 24.1751 82.0857 25.0154 82.2239 25.897C82.2654 26.1174 82.293 26.3378 82.3206 26.5582C82.3483 26.7786 82.3759 26.999 82.3897 27.2332C82.4036 27.4536 82.4174 27.6878 82.4312 27.9082C82.4312 28.1286 82.4312 28.349 82.4312 28.5694C82.2377 29.4647 82.1133 30.3463 82.0581 31.2417C82.0028 31.6963 81.9751 32.1371 81.9475 32.6055C81.8922 33.06 81.8369 33.5146 81.7817 33.983C81.5053 35.8288 80.7452 37.5645 80.1233 39.3552C79.3632 41.0909 78.6583 42.8954 77.6633 44.576C76.8756 46.3667 75.8943 48.1024 74.5953 49.6314C73.5726 51.3533 72.315 52.9375 71.0574 54.5354C69.9103 56.2297 68.473 57.7312 67.1463 59.3291C65.8472 60.9545 64.0921 62.2081 62.9588 64.0402C61.5492 65.6381 60.0014 67.112 58.5503 68.7099C57.0163 70.2252 55.4408 71.7404 53.9759 73.3659C53.0637 73.9995 52.2622 74.7572 51.5021 75.5561C51.1289 75.9556 50.7558 76.3688 50.3965 76.7821L50.2583 76.9336L50.0095 77.1953L49.4844 77.7601L48.3926 78.931C48.0194 78.5728 47.6463 78.2147 47.2732 77.8565L46.2781 76.8923C45.8773 76.5066 45.4904 76.1209 45.1034 75.7214C44.3295 74.9362 43.5694 74.1373 42.8231 73.3383C41.2477 71.8093 39.7413 70.2527 38.2487 68.6824C36.6594 67.2084 35.4018 65.459 33.8401 64.0126C32.2785 62.5662 31.1314 60.7617 29.6527 59.3015C28.2016 57.8 26.8472 56.2435 25.7416 54.5078C24.484 52.8961 23.5995 51.064 22.2037 49.6039C21.029 48.006 19.5917 46.532 19.1357 44.5484C18.0715 42.8954 17.5878 40.9945 16.6757 39.3277C16.579 38.8593 16.4822 38.391 16.344 37.9364C16.2749 37.716 16.192 37.4956 16.1229 37.2752C16.0538 37.0548 15.9709 36.8344 15.888 36.614C15.7221 36.1732 15.5563 35.7462 15.4181 35.2916C15.2799 34.8508 15.1279 34.41 15.0311 33.9554C14.6856 32.1371 14.6027 30.3188 14.3816 28.5418C14.354 28.3214 14.3263 28.101 14.3125 27.8668C14.3125 27.6464 14.3125 27.4123 14.3125 27.1919C14.3125 26.9577 14.3401 26.7373 14.3678 26.5169C14.3954 26.2965 14.4092 26.0623 14.4507 25.8419C14.5889 24.9603 14.8238 24.1062 15.0173 23.2522C15.1279 22.3706 15.5148 21.5716 15.9156 20.8278C16.3164 20.0701 16.7863 19.3814 17.118 18.5962C18.0439 17.2187 19.0528 15.9239 20.2827 14.9183C20.6835 14.1882 21.3331 13.6923 22.0102 13.3204C22.7012 12.9484 23.4199 12.6867 24.1109 12.3837C24.4425 12.2321 24.788 12.0806 25.1059 11.9015C25.4376 11.75 25.7693 11.5709 26.1009 11.4332C26.4326 11.2954 26.7781 11.1577 27.1236 11.0888C27.4691 11.0062 27.8284 10.9786 28.1878 10.9924C28.5056 10.8133 28.8373 10.7031 29.1828 10.6205C29.5283 10.5516 29.86 10.5103 30.2055 10.5103C30.8827 10.5103 31.5598 10.5929 32.1956 10.6618C32.8313 10.7444 33.467 10.7031 34.0889 10.7582C34.4068 10.7858 34.7108 10.7858 35.0148 10.8409C35.3189 10.896 35.6091 10.9786 35.8993 11.0888C36.0513 11.0888 36.2034 11.0888 36.3554 11.0888C36.5074 11.1164 36.6456 11.1439 36.7976 11.1852C37.0878 11.2541 37.3642 11.3643 37.6268 11.4745C37.8894 11.5985 38.1382 11.7362 38.4007 11.8602C38.5251 11.9153 38.6495 11.9704 38.7877 12.0255C38.9121 12.0806 39.0365 12.1357 39.1747 12.1908C39.3958 12.3561 39.6307 12.4939 39.8657 12.6178C40.1006 12.7418 40.3217 12.8933 40.5428 13.0173C40.6534 13.0724 40.7639 13.1413 40.8883 13.2102L41.0542 13.3066L41.2062 13.4168C41.4135 13.5545 41.6208 13.7061 41.8143 13.8576C41.9248 13.9265 42.0216 13.9953 42.1183 14.0642C42.215 14.1331 42.3118 14.2157 42.3947 14.2984C42.5744 14.4499 42.754 14.6014 42.9337 14.7667C43.2792 15.0836 43.5556 15.4417 43.8182 15.7861C44.3848 16.4335 44.8823 17.0672 45.3107 17.6871C46.5822 19.5191 47.3284 21.0757 47.826 22.1089C48.2958 23.1695 48.5031 23.7343 48.434 23.7619L48.4893 23.817Z" fill="#0061EF"/>
<path d="M63.9036 46.9453C63.9036 47.0968 62.6322 47.2483 60.3242 47.3861C59.9373 47.3998 59.5227 47.4274 59.0804 47.4549C58.6382 47.4963 58.1683 47.5376 57.6708 47.5238C57.1733 47.3172 56.6481 47.8957 56.0953 47.5789C55.8189 47.5376 55.5425 47.5376 55.2523 47.5514C55.1141 47.5514 54.9621 47.5789 54.8101 47.5927C54.741 47.5927 54.658 47.6065 54.5889 47.6202H54.5337H54.4507H54.2849C53.9256 47.6616 53.5663 47.6478 53.2069 47.6202C53.0964 47.3585 52.9858 47.1106 52.8614 46.8626C52.8062 46.7386 52.7371 46.6147 52.6541 46.4907C52.6127 46.4218 52.5989 46.3943 52.5574 46.3529C52.5298 46.3116 52.4883 46.2703 52.4607 46.2427C51.8249 45.8295 52.2672 44.8652 51.5209 44.452C51.1201 43.8734 50.8299 43.2122 50.512 42.5372C50.4844 42.1378 50.3186 41.7934 50.1113 41.4766C50.0145 41.3113 49.8901 41.1597 49.7796 40.9944L49.6138 40.7465L49.5308 40.6225V40.595H49.5032V40.5674C49.5723 40.3332 49.5032 40.0577 49.3926 39.8924C49.2821 39.7271 49.1577 39.6996 49.0748 39.8235C49.0748 39.6307 49.0471 39.4378 49.0195 39.2725C48.8675 38.9695 48.5496 39.8649 48.7155 40.4159C48.6878 40.4848 48.6463 40.5399 48.6049 40.595C48.6049 40.595 48.522 40.7327 48.4667 40.8154L48.3008 41.1046C48.0936 41.4903 47.9001 41.9036 47.7895 42.3582C47.6099 42.7714 47.4302 43.1984 47.2367 43.6117L47.0985 43.9285L46.8774 44.3693C46.6977 44.7412 46.5042 45.0994 46.3108 45.4438C45.91 46.8351 45.2052 48.3779 44.5971 49.3421C44.4451 48.8875 44.2931 48.4054 44.1549 47.9371C43.7679 47.4963 43.3533 46.656 42.9802 45.7744C42.8005 45.3336 42.6208 44.879 42.4688 44.4244C42.2753 43.8872 42.2753 43.7632 42.2062 43.4877C41.9851 42.4821 41.1145 41.7521 40.9624 40.6914C40.5755 39.7271 40.0641 38.8042 39.691 37.8124C39.4008 36.7793 39.1244 35.7324 38.3919 34.8645L38.2952 34.6854L38.2537 34.6166C38.2537 34.6166 38.2261 34.589 38.2123 34.5752C38.1846 34.5615 38.157 34.5477 38.1432 34.5477C38.1155 34.5201 38.1155 34.4926 38.0879 34.2309V34.2033C38.0326 34.6854 38.0879 34.713 38.0602 34.6992C38.0602 34.6992 38.0326 34.6579 38.005 34.6441C38.0188 34.5339 37.77 34.8921 37.6042 35.0849C37.1067 36.1043 36.3051 36.9721 35.932 38.0741C35.3101 39.0521 34.9507 40.1679 34.2321 41.1046C33.9004 41.5868 33.5687 42.0689 33.2647 42.5648L33.1541 42.7576L33.0298 42.9918C32.9054 43.2122 32.781 43.4464 32.6704 43.6806C32.4355 44.1489 32.2006 44.631 31.9656 45.1683C31.6339 45.9259 31.2608 46.6284 30.8877 47.2621C30.5145 47.8957 30.1552 48.4467 29.8235 48.9977C29.6853 48.2814 29.5471 47.634 29.3813 47.0555C29.3122 46.3667 29.2293 45.8295 29.1325 45.3336C29.022 44.8377 28.8976 44.3969 28.7732 43.9285C28.635 43.4739 28.4968 42.9918 28.3586 42.4959C28.2757 42.1929 28.2619 42.1378 28.2204 41.9725C28.1928 41.8347 28.1651 41.697 28.1513 41.5592C27.8749 40.4848 27.8611 39.369 27.4327 38.3496C27.1286 37.3027 26.8246 36.2696 26.7279 35.2089C26.6311 35.0987 26.5482 34.9747 26.4929 34.8507C26.4376 34.7405 26.3685 34.5477 26.3685 34.6028C26.3547 34.6028 26.3685 34.589 26.41 34.5201C26.4376 34.465 26.4791 34.3686 26.4929 34.2584C26.5067 34.162 26.5067 34.0656 26.4929 34.0656C26.5344 33.735 26.4929 33.5697 26.4515 33.5421C26.3824 33.7487 26.3409 33.9554 26.2856 33.9829C26.2442 34.1758 26.2027 34.1344 26.106 34.2033C26.0645 34.2309 26.023 34.286 25.9816 34.3411C25.9816 34.3548 25.9678 34.3686 25.9539 34.3962V34.4237V34.4375V34.4788C25.8987 34.589 25.8572 34.713 25.8296 34.837C25.3597 35.691 25.1386 36.6415 24.5305 37.3991C24.3646 38.3634 23.494 38.9695 23.2729 39.8649C22.8721 40.6776 22.4989 41.4766 22.0567 42.2342C21.6697 42.5235 21.4624 42.9092 21.3104 43.3086C21.2275 43.5015 21.1722 43.7081 21.1031 43.9147C21.0617 44.0112 21.034 44.1214 21.0064 44.2178C20.9511 44.3555 20.882 44.5346 20.7991 44.6724C20.6471 44.9616 20.5089 45.2647 20.3707 45.5815C20.1219 45.5815 19.8593 45.6091 19.6106 45.6229C19.4862 45.6229 19.348 45.6229 19.2236 45.6366C19.0992 45.6366 18.9748 45.6366 18.8505 45.6366C18.5464 45.6366 18.2424 45.6229 17.9522 45.5127C17.1644 45.4851 16.3905 45.2922 15.6442 45.4576C14.8979 45.5264 14.1793 44.8377 13.4745 45.4025C12.7697 45.4989 12.0925 44.9616 11.4429 45.3473C10.7934 45.6917 10.1577 45.306 9.56343 45.2923C8.95535 45.2785 8.37491 45.2509 7.82211 45.2372C2.84692 45.0581 0 44.8377 0 44.6035C0 44.3418 3.51028 44.1076 9.54961 43.9147C10.1577 43.901 10.7796 43.5979 11.4291 43.8596C12.0787 43.8596 12.7558 43.6255 13.4607 43.8045C14.1655 43.4051 14.8841 43.7357 15.6304 43.7494C16.3767 43.7357 17.1506 43.8596 17.9383 43.6943C18.2424 43.6117 18.5326 43.5979 18.8366 43.6255C18.8643 43.6255 18.8643 43.6255 18.8643 43.6255H18.8781L18.9196 43.6392L19.0025 43.6668C19.0025 43.6668 19.113 43.6943 19.1821 43.6943C19.2098 43.6392 19.2374 43.5566 19.2374 43.4739C19.2789 43.4602 19.3065 43.4602 19.3618 43.4051C19.4309 43.3224 19.4862 43.2398 19.5415 43.1433C19.652 42.9643 19.7626 42.7852 19.8455 42.5923C20.0252 42.2066 20.1495 41.7934 20.2325 41.3526C20.8267 40.6776 20.9649 39.7547 21.3657 38.9419C22.0982 38.2945 22.264 37.344 22.5542 36.4349C22.8444 35.5395 23.4387 34.7543 23.798 33.8452C23.8671 33.735 23.9224 33.6385 23.9777 33.5283L24.2541 32.9636C24.4476 32.5641 24.6272 32.1646 24.8207 31.7514C25.1938 30.9249 25.5946 30.057 26.0092 29.2994C26.3962 28.3351 26.8246 27.3158 27.253 26.4204C27.4741 27.3433 27.6952 28.4591 27.8473 29.6024C28.096 30.4152 28.3172 31.3794 28.5244 32.3437C28.6903 33.1151 28.8561 33.8865 29.022 34.6717C29.3951 35.6773 29.478 36.7517 29.7544 37.8124C30.0723 38.8593 29.865 40.0302 30.5007 41.022C30.5422 41.1597 30.5698 41.2975 30.6113 41.4215C30.6389 41.5454 30.6942 41.7521 30.6804 41.7107C30.6804 41.7521 30.6804 41.7796 30.6804 41.8209C30.6804 41.9036 30.708 42.0138 30.7356 42.0138C30.7356 42.0827 30.7356 42.1791 30.7356 42.2617C30.7771 42.2342 30.8738 42.0689 30.8877 41.876C30.9429 41.9725 31.012 41.9725 31.0673 41.9311C31.095 41.9174 31.1226 41.876 31.1502 41.8485C31.1502 41.8485 31.2055 41.7521 31.2332 41.697L31.3299 41.5041C31.5925 40.9807 31.786 40.4297 32.0071 39.8787C32.477 38.8042 33.0989 37.8262 33.7208 36.8481C34.2459 35.8288 34.8264 34.837 35.4068 33.8589C35.5174 33.5421 36.2222 32.3712 36.7335 31.5447C37.2725 30.6769 37.7562 29.878 38.2675 28.8035L38.3643 28.5969C38.7789 29.382 39.1797 30.4427 39.539 31.3932C39.7186 31.8753 39.8983 32.3437 40.0918 32.7845C40.1885 33.0049 40.2853 33.2253 40.382 33.4457L40.4649 33.611C40.4649 33.611 40.4926 33.6799 40.5202 33.7074C40.5478 33.7625 40.5893 33.8176 40.6169 33.8865C41.1559 34.837 41.6396 35.8012 41.8746 36.8481C42.2892 37.8262 42.3721 38.9282 43.1045 39.7409C43.5882 40.6638 44.4036 41.4215 44.2931 42.5648C44.6247 43.1709 44.5004 43.0469 44.528 43.2535C44.528 43.4051 44.5971 43.653 44.6662 43.5153C44.6662 43.7357 44.68 43.9147 44.7076 44.0387C44.7629 44.0387 44.832 43.8183 44.8597 43.6392C44.9011 43.4602 44.915 43.3086 44.9426 43.2398C44.9841 43.2122 45.0255 43.1709 45.067 43.1296L45.1084 43.0882C45.1084 43.0882 45.1637 42.9918 45.1914 42.9505L45.371 42.6474C45.5921 42.248 45.7856 41.8347 45.91 41.3801C46.0206 40.9256 46.2417 40.5399 46.4766 40.1679L46.6563 39.8787C46.7254 39.7822 46.753 39.7271 46.8636 39.5205C47.0432 39.1899 47.2091 38.8731 47.3611 38.5149C47.5822 37.8537 47.9001 37.2889 48.1903 36.8481C48.4805 36.3798 48.7431 36.0216 48.9918 35.4706C49.0886 35.6359 49.1715 35.7875 49.2821 35.8977C49.5861 36.5726 49.8763 37.165 50.1804 37.7573C50.4844 38.3496 50.7884 38.9695 51.0372 39.5618C51.0648 39.5894 51.1063 39.6169 51.1339 39.6445L51.1754 39.6858C51.1754 39.6858 51.203 39.6996 51.2169 39.7133C51.2583 39.7409 51.2998 39.7822 51.3412 39.8098C51.4242 39.8786 51.4794 39.9613 51.5347 40.044C51.6453 40.2093 51.7144 40.3883 51.7558 40.5812C51.8526 40.9531 51.894 41.3664 52.0322 41.7107C52.281 42.4133 52.9996 42.8678 52.9444 43.6806C53.6215 44.1214 53.6077 44.8928 53.7874 45.5264C53.8012 45.5678 53.815 45.6229 53.8288 45.6642L53.8841 45.7744C53.8841 45.7744 53.9256 45.857 53.9532 45.8984C54.0085 45.9672 54.0638 46.0361 54.1052 46.0912C54.2296 46.0774 54.3125 46.0912 54.4231 46.1739C54.4507 46.1601 54.4646 46.1463 54.4784 46.1325C54.4784 46.1325 54.4922 46.1325 54.506 46.1188H54.5613C54.6304 46.0912 54.7133 46.0774 54.7824 46.0774C54.9344 46.0774 55.0726 46.105 55.2247 46.1325C55.5149 46.2014 55.7913 46.2841 56.0677 46.229C56.6205 46.4218 57.1456 46.229 57.6432 46.2841C58.1407 46.2152 58.6106 46.2427 59.0528 46.3529C59.495 46.3805 59.9096 46.3943 60.2966 46.4218C62.6184 46.5596 63.876 46.7111 63.876 46.8626L63.9036 46.9453Z" fill="#0061EF"/>
<path d="M99.1593 6.25407C99.1593 6.25407 98.9106 6.08877 98.6203 5.68929C98.3163 5.30359 97.9155 4.69749 97.3213 4.00873C97.1278 3.77456 96.8928 3.54038 96.6579 3.3062C96.3953 3.0858 96.1051 2.87918 95.8287 2.63123C95.7458 2.43837 95.5247 2.39705 95.3174 2.3695C95.2206 2.3695 95.1101 2.32817 95.0271 2.30062C94.9442 2.2593 94.8613 2.2042 94.806 2.094C94.6402 1.95625 94.4467 1.90115 94.2394 1.84605C94.0183 1.8185 93.811 1.77717 93.5899 1.77717C93.4793 1.77717 93.3687 1.74962 93.2582 1.72207C93.1476 1.69452 93.0232 1.68075 92.9127 1.6532C92.6777 1.5981 92.429 1.5981 92.1802 1.68075C91.9315 1.8736 91.7103 1.79095 91.4478 1.69452C91.199 1.63942 90.9088 1.58432 90.7153 1.8736C90.4804 1.99757 90.2316 2.05267 89.9967 2.16287C89.8723 2.21797 89.7479 2.24552 89.6235 2.28685C89.4991 2.34195 89.3748 2.39705 89.2504 2.45215C89.1675 2.45215 89.0984 2.45215 89.0293 2.45215C88.9602 2.46593 88.8911 2.49348 88.8358 2.52103C88.7114 2.5899 88.587 2.65878 88.4903 2.7552C88.2968 2.96183 88.1033 3.18223 87.9237 3.40263C87.7578 3.43018 87.6058 3.48528 87.4814 3.56793C87.357 3.65058 87.2603 3.76078 87.1636 3.88476C87.0668 4.00873 87.0115 4.14648 86.9563 4.29801C86.9286 4.36688 86.901 4.44953 86.8872 4.51841C86.8733 4.60106 86.8595 4.66994 86.8457 4.75259C86.0994 4.98676 85.8783 5.70307 86.1685 6.40559C86.1409 6.55712 86.0718 6.69487 86.0441 6.8464C86.0027 6.99792 85.975 7.14945 85.9336 7.30097C85.9059 7.4525 85.9059 7.6178 85.9059 7.76932C85.9059 7.85197 85.9059 7.93463 85.9336 8.0035C85.9474 8.08615 85.975 8.1688 86.0027 8.25145C86.058 8.92643 86.2238 9.58763 86.3067 10.2902C86.7904 10.91 86.9839 11.5575 86.9977 12.3564C87.6058 12.9074 87.7993 13.6375 88.0066 14.4089C88.2139 15.1941 89.0707 15.6073 89.278 16.4338C89.7203 17.1226 90.2869 17.7287 90.7706 18.4312C91.1714 19.1889 91.5998 19.9603 92.4152 20.4148C93.0509 21.0209 93.7281 21.5995 94.1979 22.3847C95.0824 22.7841 95.5799 23.5555 96.0775 24.3545C96.7546 24.9744 97.2245 25.8147 98.0399 26.3381C98.3439 26.6825 98.7171 26.9993 99.0626 27.3024C99.1317 27.3299 99.1317 27.3024 99.1869 27.4677C99.1869 27.4677 99.339 27.4814 99.4219 27.4126C99.7674 27.0957 100.085 26.7376 100.334 26.3243C100.818 25.4841 101.716 25.0708 102.296 24.3407C103.195 23.9275 103.471 22.9494 104.176 22.3709C104.756 21.6959 105.53 21.1862 105.959 20.4011C106.484 19.6985 106.968 18.996 107.603 18.4174C107.686 17.4256 108.723 17.1639 109.096 16.4201C109.745 15.8691 109.939 15.0426 110.367 14.3951C110.644 13.6651 111.307 13.1278 111.376 12.3426C111.694 11.6539 111.694 10.91 112.067 10.2764C112.04 10.0835 112.067 9.91823 112.095 9.75293C112.122 9.58763 112.178 9.42233 112.247 9.25703C112.344 8.92643 112.468 8.58205 112.371 8.25145V8.0035V7.76932C112.371 7.6178 112.371 7.4525 112.344 7.30097C112.316 7.14945 112.302 6.99792 112.288 6.8464C112.274 6.69487 112.233 6.54334 112.205 6.39182C112.233 6.30917 112.261 6.21274 112.274 6.13009C112.274 6.04744 112.274 5.96479 112.261 5.89592C112.233 5.74439 112.178 5.59286 112.095 5.46889C112.012 5.34491 111.915 5.22094 111.818 5.09696C111.722 4.97299 111.611 4.86279 111.528 4.75259C111.501 4.68371 111.459 4.62861 111.418 4.55973C111.376 4.50463 111.321 4.44953 111.279 4.39443C111.183 4.28423 111.086 4.18781 110.975 4.09138C110.865 3.99496 110.768 3.89853 110.685 3.78833C110.602 3.66436 110.519 3.56793 110.464 3.4164C110.271 3.20978 110.077 3.01693 109.87 2.8103C109.759 2.72765 109.649 2.645 109.524 2.57613C109.469 2.54858 109.4 2.50725 109.345 2.4797C109.276 2.46593 109.206 2.43837 109.137 2.43837C109.013 2.39705 108.902 2.3144 108.806 2.2042C108.695 2.10777 108.598 2.01135 108.488 1.91492C108.267 1.72207 107.99 1.63942 107.686 1.85982C107.424 1.85982 107.203 1.72207 106.954 1.61187C106.705 1.52922 106.456 1.46035 106.208 1.66697C105.959 1.84605 105.738 1.84605 105.503 1.8185C105.392 1.80472 105.268 1.77717 105.143 1.74962C105.033 1.74962 104.908 1.73585 104.798 1.74962C104.577 1.77717 104.369 1.84605 104.162 1.8736C103.969 1.94247 103.761 1.9838 103.582 2.06645C103.153 2.21797 102.794 2.45215 102.435 2.68633C102.103 2.93428 101.799 3.18223 101.536 3.45773C101.011 3.98118 100.61 4.50463 100.293 4.93166C99.6568 5.79949 99.3113 6.28162 99.2008 6.22652C99.104 6.17142 99.2699 5.46889 99.8918 4.24291C100.223 3.63681 100.652 2.89295 101.384 2.1491C101.744 1.77717 102.2 1.41902 102.725 1.10219C103.25 0.799142 103.872 0.551191 104.535 0.399665C104.673 0.372115 104.798 0.33079 104.936 0.27569C105.074 0.234365 105.199 0.193039 105.337 0.151714C105.613 0.0690639 105.903 0.0552888 106.194 0.179264C106.484 0.179264 106.788 0.137939 107.106 0.124164C107.41 0.124164 107.742 0.151714 108.032 0.30324C108.377 0.193039 108.723 0.234365 109.027 0.399665C109.179 0.468541 109.331 0.551191 109.483 0.647617C109.621 0.744042 109.773 0.840468 109.925 0.923118C110.008 0.964443 110.077 0.991993 110.16 1.03332L110.381 1.17107C110.519 1.26749 110.671 1.36392 110.81 1.46035C111.086 1.68075 111.39 1.8736 111.694 2.06645C111.86 2.1491 112.026 2.24552 112.15 2.38327C112.274 2.52103 112.385 2.67255 112.509 2.82408C112.62 2.9756 112.703 3.1409 112.827 3.29243C112.883 3.37508 112.938 3.44395 113.007 3.51283C113.062 3.59548 113.118 3.66436 113.187 3.73323C113.394 4.50463 113.739 5.15206 114.182 5.88214C114.182 6.08877 114.209 6.29539 114.237 6.48824C114.265 6.69487 114.306 6.88772 114.361 7.09435C114.417 7.30097 114.444 7.5076 114.472 7.71422C114.486 7.82443 114.499 7.92085 114.513 8.03105C114.513 8.12748 114.513 8.23768 114.513 8.3341C114.126 9.11928 114.292 9.93201 114.237 10.7861C114.182 11.6401 113.739 12.384 113.518 13.1967C113.145 13.9543 112.91 14.7946 112.44 15.5247C112.178 16.365 111.763 17.1501 111.1 17.7562C110.699 18.5552 110.105 19.2164 109.552 19.9189C109.124 20.7179 108.419 21.3102 107.852 22.0127C107.313 22.7566 106.36 23.1147 106.042 24.0652C105.447 24.7678 104.729 25.3739 104.135 26.0902C103.444 26.7238 102.753 27.3575 102.158 28.1013C101.688 28.2942 101.329 28.5972 101.011 28.9554C100.458 29.5477 99.8918 30.2502 99.2561 31.0079C98.6203 30.4569 97.9432 29.8094 97.3074 29.162C96.9619 28.8038 96.6579 28.4595 96.34 28.1013C95.649 27.4539 94.9995 26.7789 94.3638 26.0902C93.6313 25.4978 93.2029 24.63 92.4566 24.0652C91.7103 23.5004 91.3648 22.5913 90.6462 22.0127C89.969 21.4066 89.3471 20.7454 88.9463 19.9189C88.3935 19.2164 88.1724 18.2935 87.3985 17.7562C86.8457 17.0813 85.9889 16.544 86.058 15.5247C85.519 14.8222 85.5052 13.8855 84.98 13.1967C85.0215 12.7283 84.8694 12.3426 84.7174 11.9569C84.5516 11.5712 84.3581 11.1993 84.2614 10.7861C84.1508 9.95956 84.1923 9.13306 83.985 8.3341C83.9573 8.23768 83.9435 8.12748 83.9297 8.03105C83.9297 7.93463 83.9297 7.82443 83.9297 7.71422C83.9297 7.5076 83.9573 7.2872 84.0126 7.08057C84.0679 6.87395 84.1232 6.68109 84.1646 6.47447C84.2061 6.26784 84.2752 6.08877 84.3166 5.88214C84.3166 5.77194 84.3166 5.67552 84.3443 5.56531C84.3719 5.46889 84.4134 5.37246 84.4548 5.27604C84.5378 5.09696 84.6345 4.91789 84.7589 4.75259C84.8833 4.58729 84.9938 4.43576 85.0906 4.25668C85.1873 4.09138 85.284 3.92608 85.3255 3.71946L85.4913 3.48528L85.671 3.26488C85.7816 3.11335 85.8921 2.96183 86.0165 2.8103C86.1409 2.67255 86.2653 2.5348 86.3896 2.39705C86.514 2.2593 86.666 2.1491 86.8181 2.05267C86.901 1.5981 87.2188 1.3777 87.5505 1.22617C87.7302 1.15729 87.9098 1.11597 88.0895 1.06087C88.1724 1.03332 88.2692 1.00577 88.3521 0.978218C88.435 0.950668 88.5179 0.923118 88.6008 0.895568C88.7667 0.840468 88.9049 0.757817 89.0569 0.661392C89.2089 0.578741 89.3471 0.482316 89.4991 0.413441C89.7894 0.24814 90.1349 0.165489 90.4804 0.289465C90.7429 0.0139636 91.0746 -0.0411366 91.3925 -0.0273615C91.7103 0.0139637 92.0282 0.096614 92.3184 0.165489C92.6086 0.234365 92.885 0.193039 93.1753 0.193039C93.3135 0.193039 93.4517 0.193039 93.5899 0.22059C93.7281 0.24814 93.8663 0.30324 93.9768 0.38589C94.267 0.27569 94.5296 0.41344 94.7646 0.537416C94.9995 0.688942 95.2068 0.840468 95.4556 0.909343C95.5523 1.00577 95.649 1.08842 95.7458 1.14352C95.8425 1.21239 95.9531 1.26749 96.0498 1.32259C96.2709 1.41902 96.4644 1.543 96.6303 1.69452C97.031 1.91492 97.3213 2.23175 97.5147 2.57613C97.7635 2.87918 97.9708 3.16845 98.1504 3.44395C98.6756 4.27046 98.9658 4.95921 99.1455 5.44134C99.3113 5.92347 99.3666 6.18519 99.2975 6.21274L99.1593 6.25407Z" fill="#0061EF"/>
<path d="M95.8414 53.6676C95.8414 53.6676 95.5926 53.5023 95.3024 53.1029C94.9984 52.7172 94.5976 52.1111 94.0033 51.4223C93.8099 51.1881 93.5749 50.954 93.34 50.7198C93.0774 50.4994 92.7872 50.2928 92.5108 50.0448C92.4279 49.8519 92.2067 49.8106 91.9994 49.7831C91.8889 49.7693 91.7921 49.7417 91.7092 49.7142C91.6125 49.6729 91.5434 49.6178 91.4881 49.5076C91.3223 49.3698 91.115 49.3147 90.9215 49.2596C90.7004 49.2321 90.4931 49.1907 90.2581 49.1907C90.1476 49.1907 90.037 49.1632 89.9264 49.1356C89.8159 49.1081 89.6915 49.0943 89.5809 49.0668C89.346 49.0117 89.0972 49.0117 88.8485 49.0943C88.5997 49.2872 88.3786 49.2045 88.116 49.1081C87.8673 49.053 87.577 48.9979 87.3836 49.2872C87.1486 49.4111 86.8999 49.4662 86.6649 49.5764C86.5405 49.6178 86.4162 49.6591 86.2918 49.7004C86.1674 49.7555 86.043 49.8106 85.9186 49.8657C85.8357 49.8657 85.7666 49.8657 85.6975 49.8657C85.6284 49.8795 85.5593 49.907 85.504 49.9346C85.3797 49.9897 85.2553 50.0723 85.1585 50.1688C84.9651 50.3754 84.7716 50.5958 84.5919 50.8162C84.4261 50.8438 84.2741 50.8988 84.1497 50.9815C84.0253 51.0642 83.9286 51.1744 83.8318 51.2846C83.7351 51.3948 83.6798 51.5463 83.6245 51.6978C83.5969 51.7667 83.5692 51.8493 83.5554 51.9182C83.5416 52.0009 83.5278 52.0697 83.514 52.1524C82.7677 52.3728 82.5466 53.1029 82.8368 53.8054C82.8091 53.9569 82.7539 54.0947 82.7124 54.2462C82.6709 54.3977 82.6433 54.5492 82.6019 54.7008C82.5742 54.8523 82.5742 55.0176 82.5742 55.1691C82.5742 55.2518 82.5742 55.3344 82.6019 55.4033C82.6157 55.486 82.6433 55.5686 82.671 55.6513C82.7262 56.3262 82.8921 56.9874 82.975 57.69C83.4587 58.3098 83.6522 58.9573 83.666 59.7562C84.2741 60.3072 84.4676 61.0235 84.6748 61.8087C84.8821 62.5939 85.739 63.0071 85.9463 63.8336C86.3885 64.5224 86.9551 65.1285 87.4388 65.831C87.8396 66.5887 88.268 67.3601 89.0834 67.8146C89.7191 68.4207 90.3963 68.9993 90.8662 69.7845C91.7507 70.1839 92.2482 70.9553 92.7457 71.7543C93.4367 72.3742 93.8928 73.2145 94.7082 73.7379C95.0122 74.0823 95.3853 74.3991 95.7308 74.7022C95.7999 74.7297 95.7999 74.7022 95.8552 74.8675C95.8552 74.8675 96.0072 74.8812 96.0902 74.8124C96.4357 74.4955 96.7535 74.1374 97.0023 73.7241C97.486 72.8839 98.3843 72.4706 98.9647 71.7405C99.863 71.3273 100.139 70.3355 100.844 69.7707C101.425 69.0957 102.199 68.586 102.627 67.8009C103.152 67.0983 103.636 66.3958 104.272 65.8172C104.355 64.8254 105.391 64.5637 105.764 63.8199C106.414 63.2689 106.607 62.4424 107.036 61.7949C107.312 61.0649 107.975 60.5276 108.044 59.7424C108.362 59.0537 108.362 58.3098 108.735 57.6762C108.708 57.4971 108.722 57.318 108.763 57.1527C108.791 56.9874 108.846 56.8221 108.915 56.6568C109.026 56.3262 109.136 55.9819 109.039 55.6513V55.4033V55.1691C109.039 55.0176 109.039 54.8523 109.012 54.7008C108.984 54.5492 108.97 54.3977 108.957 54.2462C108.943 54.0947 108.901 53.9431 108.874 53.7916C108.901 53.709 108.929 53.6125 108.943 53.5299C108.943 53.4472 108.943 53.3646 108.929 53.2957C108.901 53.1442 108.846 52.9927 108.763 52.8687C108.68 52.7447 108.583 52.6207 108.487 52.4968C108.39 52.3728 108.279 52.2764 108.196 52.1524C108.155 52.0835 108.127 52.0284 108.086 51.9595C108.044 51.9044 107.989 51.8493 107.934 51.7942C107.837 51.684 107.74 51.5876 107.63 51.4912C107.519 51.3948 107.423 51.2983 107.34 51.1881C107.257 51.0779 107.174 50.9677 107.119 50.8162C106.925 50.6096 106.732 50.4167 106.524 50.2101C106.414 50.1274 106.303 50.0448 106.179 49.9759C106.123 49.9484 106.054 49.907 105.999 49.8795C105.93 49.8657 105.861 49.8519 105.792 49.8382C105.667 49.7968 105.557 49.7142 105.46 49.604C105.35 49.5076 105.253 49.4111 105.142 49.3147C104.921 49.1219 104.659 49.053 104.341 49.2596C104.078 49.2596 103.857 49.1219 103.608 49.0117C103.359 48.929 103.111 48.8601 102.862 49.0668C102.613 49.2596 102.378 49.2458 102.157 49.2183C102.033 49.2045 101.922 49.177 101.798 49.1494C101.687 49.1494 101.563 49.1356 101.452 49.1494C101.231 49.177 101.024 49.2458 100.817 49.2734C100.623 49.3423 100.416 49.3836 100.236 49.4662C99.8077 49.6178 99.4346 49.8519 99.0891 50.0861C98.7574 50.3341 98.4534 50.582 98.1908 50.8575C97.6656 51.381 97.2649 51.9044 96.947 52.3315C96.3113 53.1993 95.9658 53.6814 95.8552 53.6263C95.7585 53.5712 95.9243 52.8687 96.5462 51.6427C96.8779 51.0366 97.3063 50.2928 98.0388 49.5489C98.3981 49.177 98.8542 48.8188 99.3793 48.502C99.9045 48.1989 100.526 47.951 101.19 47.7995C101.328 47.7719 101.452 47.7306 101.591 47.6755C101.729 47.6342 101.853 47.5928 101.991 47.5515C102.268 47.4689 102.558 47.4551 102.848 47.5791C103.138 47.5791 103.442 47.5515 103.76 47.524C104.064 47.524 104.396 47.5515 104.686 47.703C105.032 47.5928 105.377 47.6342 105.681 47.7995C105.833 47.8683 105.985 47.951 106.137 48.0474C106.275 48.1438 106.428 48.2403 106.58 48.3229C106.662 48.3642 106.732 48.3918 106.814 48.4331L107.036 48.5709C107.174 48.6673 107.326 48.7637 107.464 48.8601C107.74 49.0805 108.044 49.2734 108.348 49.4662C108.514 49.5489 108.68 49.6453 108.805 49.7831C108.929 49.9208 109.053 50.0723 109.164 50.2239C109.274 50.3754 109.371 50.5407 109.482 50.6922C109.537 50.7749 109.592 50.8438 109.661 50.9126C109.717 50.9815 109.772 51.0642 109.841 51.133C110.048 51.9044 110.394 52.5519 110.836 53.2819C110.836 53.4886 110.864 53.6952 110.891 53.9018C110.919 54.1084 110.96 54.3013 111.016 54.5079C111.071 54.7008 111.099 54.9074 111.126 55.1278C111.14 55.238 111.154 55.3344 111.168 55.4446C111.168 55.541 111.168 55.6513 111.168 55.7477C110.781 56.5329 110.947 57.3456 110.891 58.1996C110.836 59.0537 110.394 59.7975 110.173 60.6103C109.8 61.3679 109.565 62.2082 109.095 62.9383C108.832 63.7785 108.418 64.5637 107.754 65.1698C107.353 65.9688 106.759 66.63 106.206 67.3325C105.764 68.1315 105.073 68.7238 104.507 69.4263C103.968 70.1702 103.014 70.5283 102.696 71.4788C102.102 72.1813 101.383 72.7874 100.789 73.5037C100.098 74.1374 99.407 74.771 98.8127 75.5149C98.3428 75.7077 97.9835 76.0108 97.6518 76.3689C97.099 76.975 96.5324 77.6638 95.8967 78.4214C95.261 77.8704 94.5838 77.223 93.9481 76.5756C93.6026 76.2174 93.2985 75.873 92.9807 75.5149C92.2897 74.8675 91.6401 74.1925 91.0044 73.5037C90.2719 72.9114 89.8435 72.0436 89.0972 71.4788C88.351 70.914 88.0055 70.0049 87.2868 69.4263C86.6096 68.8202 85.9877 68.159 85.587 67.3325C85.0342 66.63 84.8131 65.707 84.0391 65.1698C83.4863 64.4948 82.6295 63.9576 82.6986 62.9383C82.1596 62.2357 82.1458 61.299 81.6206 60.6103C81.6621 60.1419 81.5101 59.7562 81.3581 59.3705C81.1922 58.9848 80.9987 58.6129 80.902 58.1996C80.7914 57.3594 80.8329 56.5466 80.6256 55.7477C80.598 55.6513 80.5841 55.541 80.5703 55.4446C80.5703 55.3344 80.5703 55.238 80.5703 55.1278C80.5703 54.9212 80.598 54.7008 80.6532 54.4941C80.7085 54.2875 80.7638 54.0947 80.8053 53.888C80.8467 53.6814 80.9158 53.4886 80.9573 53.2957C80.9573 53.1855 80.9573 53.0891 80.9849 52.9789C81.0126 52.8825 81.0402 52.786 81.0817 52.6896C81.1646 52.5105 81.2613 52.3315 81.3857 52.1662C81.5101 52.0009 81.6206 51.8493 81.7174 51.6703C81.8141 51.505 81.9109 51.3397 81.9523 51.133C82.4084 50.5131 82.823 49.8795 83.431 49.4525C83.514 48.9979 83.8318 48.7775 84.1635 48.626C84.3432 48.5571 84.5228 48.5158 84.7025 48.4607C84.7854 48.4331 84.8821 48.4056 84.9651 48.3918C85.048 48.3642 85.1309 48.3367 85.2138 48.3091C85.3797 48.254 85.5179 48.1714 85.6699 48.075C85.8219 47.9923 85.9601 47.8959 86.1121 47.827C86.4023 47.6479 86.7478 47.5791 87.0933 47.703C87.3559 47.4275 87.6876 47.3724 88.0055 47.3862C88.3233 47.4275 88.6412 47.5102 88.9314 47.5791C89.2216 47.6479 89.498 47.6066 89.7882 47.6204C89.9264 47.6204 90.0646 47.6204 90.2028 47.6479C90.341 47.6755 90.4654 47.7306 90.5898 47.8132C90.88 47.703 91.1426 47.8408 91.3775 47.9648C91.6125 48.1163 91.8198 48.2678 92.0685 48.3367C92.1653 48.4331 92.262 48.5158 92.3588 48.5709C92.4555 48.6397 92.5661 48.6948 92.6628 48.7499C92.8839 48.8464 93.0774 48.9703 93.2432 49.1219C93.644 49.3423 93.9342 49.6591 94.1277 50.0035C94.3765 50.3065 94.5838 50.5958 94.7634 50.8713C95.2886 51.6978 95.5788 52.4003 95.7585 52.8687C95.9243 53.3508 95.9796 53.6125 95.9105 53.6401L95.8414 53.6676Z" fill="#0061EF"/>
<path d="M117 77.1957C117 77.3472 115.784 77.4987 113.559 77.6365C113.186 77.664 112.785 77.6778 112.37 77.7054C111.942 77.7467 111.5 77.788 111.016 77.7742C110.532 77.5676 110.035 78.1462 109.509 77.8431C108.984 77.7467 108.432 77.8431 107.851 77.8982C107.271 77.9671 106.663 77.7742 106.041 77.9533C105.419 78.3528 104.769 77.5125 104.092 78.0084C103.415 78.1186 102.724 78.0911 102.005 78.0635C101.287 77.7604 100.554 78.0635 99.794 78.1186C99.0339 77.7605 98.26 77.912 97.4584 78.1599C96.6569 77.664 95.8415 77.7329 95.0123 78.2013C94.1831 78.215 93.3263 78.0222 92.4556 78.2426C91.5849 78.2701 90.7005 78.3666 89.7883 78.2839C88.89 78.6145 87.9641 78.6007 87.0243 78.3252C86.0846 78.6834 85.131 78.5456 84.1636 78.3528C83.1962 78.1599 82.215 78.6696 81.2199 78.3803C80.2249 78.3528 79.216 78.463 78.1934 78.4079C77.1707 78.2564 76.1342 78.1048 75.0977 78.4217C74.0474 78.5043 72.9971 78.6283 71.9329 78.4354C70.8688 78.8211 69.7908 78.6421 68.699 78.4354C67.6073 78.5043 66.5155 78.2288 65.4099 78.4354C64.3043 78.3803 63.1849 78.6007 62.0654 78.4354C60.946 78.3252 59.8266 78.215 58.721 78.4354C57.6154 78.6834 56.5098 78.339 55.4319 78.4354C54.3401 78.0773 53.2621 78.5456 52.198 78.4354C51.1338 78.4768 50.0697 78.2288 49.0332 78.4217C47.9829 78.4905 46.9602 78.5594 45.9375 78.4079C44.9149 78.9589 43.906 78.2701 42.9109 78.3803C41.9159 78.1462 40.9347 78.4079 39.9673 78.3528C38.9999 78.4492 38.0463 78.1048 37.1066 78.3252C36.1668 78.2839 35.2547 78.5043 34.3426 78.2839C33.4443 78.5594 32.546 78.0497 31.6753 78.2426C30.8046 78.2426 29.9478 78.2564 29.1186 78.2013C28.2894 77.7742 27.474 78.1324 26.6725 78.1599C25.8709 78.1186 25.097 78.4079 24.3369 78.1186C23.5768 78.0773 22.8443 77.8982 22.1257 78.0635C21.4071 78.1186 20.7161 77.4436 20.0389 78.0084C19.3617 78.1048 18.7122 77.5676 18.0903 77.9533C17.4684 78.3115 16.8603 77.912 16.2798 77.8982C15.6994 77.8707 15.1466 77.8569 14.6214 77.8431C9.85354 77.664 7.11719 77.4436 7.11719 77.2094C7.11719 76.9615 10.4893 76.7135 16.2798 76.5207C16.8603 76.5069 17.4684 76.2039 18.0903 76.4656C18.7122 76.4656 19.3617 76.2314 20.0389 76.4105C20.7161 76.011 21.4071 76.3416 22.1257 76.3554C22.8443 76.3416 23.5768 76.4656 24.3369 76.3003C25.097 76.0661 25.8709 76.4105 26.6725 76.2452C27.474 76.4931 28.2894 76.4243 29.1186 76.2039C29.9478 76.438 30.8046 76.1488 31.6753 76.1625C32.546 76.5345 33.4304 76.2727 34.3426 76.1212C35.2547 75.9835 36.1668 76.1763 37.1066 76.0937C38.0463 76.1625 38.9999 75.9972 39.9673 76.0661C40.9347 75.9008 41.9159 75.8319 42.9109 76.0386C43.906 75.9146 44.9149 76.011 45.9375 76.011C46.9602 75.8733 47.9967 76.0248 49.0332 75.9972C50.0835 75.9284 51.1338 76.3829 52.198 75.9835C53.2621 75.9284 54.3401 76.0523 55.4319 75.9835C56.5236 76.0386 57.6154 76.0937 58.721 75.9835C59.8266 76.3829 60.946 76.135 62.0654 75.9835C63.1849 75.8733 64.3043 75.9284 65.4099 75.9835C66.5155 75.9421 67.6211 75.9697 68.699 75.9835C69.7908 75.8733 70.8688 76.1488 71.9329 75.9835C72.9971 75.8182 74.0612 76.1625 75.0977 75.9972C76.148 75.887 77.1707 75.8182 78.1934 76.011C79.216 76.011 80.2249 76.3692 81.2199 76.0386C82.215 75.9559 83.1962 75.5151 84.1636 76.0661C85.131 75.9284 86.0846 76.3416 87.0243 76.0937C87.9641 76.4931 88.8762 76.1074 89.7883 76.1212C90.6866 76.2039 91.5849 76.3416 92.4556 76.1625C93.3263 75.9697 94.1831 76.2727 95.0123 76.2039C95.8415 75.9697 96.6569 76.5069 97.4584 76.2452C98.26 76.3003 99.0339 76.2039 99.794 76.3003C100.554 75.7493 101.287 76.3003 102.005 76.3554C102.724 76.438 103.415 75.9972 104.092 76.4105C104.769 75.9972 105.419 76.3554 106.041 76.4656C106.663 76.5896 107.271 76.2865 107.851 76.5207C108.432 76.2314 108.984 76.686 109.509 76.5758C110.035 76.7686 110.546 76.5758 111.016 76.6447C111.5 76.5758 111.942 76.6033 112.37 76.7135C112.799 76.7411 113.199 76.7549 113.559 76.7824C115.784 76.9202 117 77.0717 117 77.2232V77.1957Z" fill="#0061EF"/>
</g>
<defs>
<clipPath id="clip0_926_40994">
<rect width="117" height="79" fill="white"/>
</clipPath>
</defs>
</svg>
