<svg width="24" height="24" viewBox="0 0 24 24" fill="none" xmlns="http://www.w3.org/2000/svg">
<path d="M14.8037 3.1998C18.1172 3.20001 20.8036 5.88631 20.8037 9.1998V14.8004C20.8035 18.1138 18.1171 20.8002 14.8037 20.8004H9.20312C5.88964 20.8003 3.20334 18.1138 3.20312 14.8004V9.1998C3.20323 5.88624 5.88957 3.1999 9.20312 3.1998H14.8037ZM10.8438 15.6002V17.6002H12.75V15.6002H10.8438ZM12.0713 6.39999C10.2661 6.4001 8.9601 7.06708 8.00391 8.00253L9.2041 9.60019C9.9463 8.96039 11.1299 8.39999 11.8721 8.39999C12.6214 8.39999 14.0037 8.39987 14.0039 9.83261C14.0039 10.7994 12.4851 11.3111 10.6582 11.4625L10.5303 11.6002L10.8438 14.4H12.75L12.8037 12.7994C14.5521 12.3935 16.0038 11.5253 16.0039 9.61288C16.0039 7.61092 14.3835 6.39999 12.0713 6.39999Z" fill="#0061EF"/>
</svg>
