<svg width="17" height="23" viewBox="0 0 17 23" fill="none" xmlns="http://www.w3.org/2000/svg">
<g clip-path="url(#clip0_1340_57082)">
<path fill-rule="evenodd" clip-rule="evenodd" d="M15.7223 0.712389H11.6551V0.472503C11.6551 0.232617 11.4138 0 11.1795 0H5.82756C5.58622 0 5.36618 0.239886 5.36618 0.472503V0.712389H1.27766C0.582046 0.712389 0 1.30847 0 2.02086V21.6843C0 22.3967 0.582046 22.9927 1.27766 22.9927H15.7223C16.4251 22.9927 17 22.3967 17 21.6843V2.02813C17 1.31574 16.4251 0.719659 15.7223 0.719659V0.712389ZM12.2301 6.06985H7.9215C7.5666 6.06985 7.21879 6.43331 7.21879 6.78951C7.21879 7.1457 7.5737 7.5019 7.9215 7.5019H12.2301C12.585 7.5019 12.9328 7.13843 12.9328 6.78951C12.9328 6.44058 12.5779 6.06985 12.2301 6.06985ZM12.2301 17.1555H7.9215C7.5666 17.1555 7.21879 17.519 7.21879 17.8752C7.21879 18.3477 7.5737 18.5875 7.9215 18.5875H12.2301C12.585 18.5875 12.9328 18.3477 12.9328 17.8752C12.9328 17.5117 12.5779 17.1555 12.2301 17.1555ZM6.40251 17.8824C6.40251 17.1628 5.82756 16.683 5.12484 16.683C4.5499 16.683 3.96785 17.1555 3.96785 17.8824C3.96785 18.6094 4.5499 19.1836 5.12484 19.1836C5.82756 19.1836 6.40251 18.5948 6.40251 17.8824ZM6.40251 6.79678C6.40251 6.07712 5.82756 5.59735 5.12484 5.59735C4.5499 5.59735 3.96785 6.06985 3.96785 6.79678C3.96785 7.52371 4.5499 8.10525 5.12484 8.10525C5.82756 8.10525 6.40251 7.50917 6.40251 6.79678ZM12.2301 13.47H7.9215C7.5666 13.47 7.21879 13.8189 7.21879 14.1824C7.21879 14.5458 7.5737 14.8948 7.9215 14.8948H12.2301C12.585 14.8948 12.9328 14.5458 12.9328 14.1824C12.9328 13.8189 12.5779 13.47 12.2301 13.47ZM6.40251 14.1824C6.40251 13.47 5.82756 12.9975 5.12484 12.9975C4.5499 12.9975 3.96785 13.47 3.96785 14.1824C3.96785 14.8948 4.5499 15.4908 5.12484 15.4908C5.82756 15.4908 6.40251 14.8948 6.40251 14.1824ZM12.2301 9.6536H7.9215C7.5666 9.6536 7.21879 10.0025 7.21879 10.366C7.21879 10.7295 7.5737 11.0784 7.9215 11.0784H12.2301C12.585 11.0784 12.9328 10.7149 12.9328 10.366C12.9328 10.0171 12.5779 9.6536 12.2301 9.6536ZM6.40251 10.3733C6.40251 9.66087 5.82756 9.17383 5.12484 9.17383C4.5499 9.17383 3.96785 9.66087 3.96785 10.3733C3.96785 11.0857 4.5499 11.6817 5.12484 11.6817C5.82756 11.6817 6.40251 11.0857 6.40251 10.3733ZM15.6088 21.568H1.39833V2.14444H5.35908V2.26075C5.35908 2.62421 5.57912 2.85683 5.82046 2.85683H11.1724C11.4067 2.85683 11.648 2.61694 11.648 2.26075V2.14444H15.6017V21.5607L15.6088 21.568Z" fill="#FF7300"/>
</g>
<defs>
<clipPath id="clip0_1340_57082">
<rect width="17" height="23" fill="white"/>
</clipPath>
</defs>
</svg>
