<svg width="32" height="32" viewBox="0 0 32 32" fill="none" xmlns="http://www.w3.org/2000/svg">
<path d="M9.78223 12C9.96048 10.4064 10.5089 8.87656 11.3836 7.53263C12.2583 6.18869 13.4351 5.06788 14.82 4.25968C16.205 3.45148 17.7597 2.97828 19.36 2.87786C20.9604 2.77744 22.5621 3.05258 24.0372 3.68131C25.5123 4.31005 26.82 5.27496 27.8558 6.49901C28.8917 7.72306 29.627 9.17234 30.003 10.7311C30.3791 12.2899 30.3855 13.9151 30.0217 15.4768C29.658 17.0385 28.9341 18.4935 27.9079 19.7257" stroke="#F31155" stroke-width="1.5" stroke-linecap="round" stroke-linejoin="round"/>
<path d="M20 8.57141V13.1428H23.4286" stroke="#F31155" stroke-width="1.5" stroke-linecap="round" stroke-linejoin="round"/>
<path d="M1.71387 17.7142H10.8567C11.6071 17.7142 12.3502 17.862 13.0435 18.1492C13.7368 18.4364 14.3667 18.8573 14.8973 19.3879C15.428 19.9185 15.8489 20.5485 16.136 21.2418C16.4232 21.935 16.571 22.6781 16.571 23.4285V23.4285" stroke="#F31155" stroke-width="1.5" stroke-linecap="round" stroke-linejoin="round"/>
<path d="M9.71387 23.4285H21.1424C22.3549 23.4285 23.5176 23.9102 24.3749 24.7675C25.2322 25.6248 25.7139 26.7875 25.7139 28C25.7139 28.3031 25.5935 28.5938 25.3791 28.8081C25.1648 29.0224 24.8741 29.1428 24.571 29.1428H1.71387" stroke="#F31155" stroke-width="1.5" stroke-linecap="round" stroke-linejoin="round"/>
</svg>
