<svg width="23" height="22" viewBox="0 0 23 22" fill="none" xmlns="http://www.w3.org/2000/svg">
<g clip-path="url(#clip0_1340_57080)">
<path fill-rule="evenodd" clip-rule="evenodd" d="M11.4915 13.5345C14.3581 13.5345 16.7539 12.5567 16.8969 11.2444C16.4765 10.0351 16.0142 8.71423 15.5602 7.39337C15.2324 8.32827 13.4922 8.98012 11.4915 8.98012C9.49078 8.98012 7.75065 8.32827 7.43961 7.39337C6.98567 8.70565 6.52331 10.0351 6.09458 11.2444C6.2459 12.5481 8.63333 13.5345 11.4915 13.5345ZM11.4915 6.6729C12.8365 6.6729 14.0975 6.24405 14.459 5.58363C13.9546 4.13411 13.5175 1.57817 13.2485 0.797661C13.0635 0.274464 12.2397 0 11.4915 0C10.7433 0 9.92792 0.274464 9.75138 0.797661C9.47397 1.57817 9.04524 4.13411 8.53245 5.58363C8.90233 6.25263 10.1465 6.6729 11.4915 6.6729ZM22.008 14.7439L17.5105 12.8998L18.0317 14.3836C18.0065 15.9446 15.0306 17.1883 11.4915 17.1883C7.95241 17.1883 4.98493 15.9532 4.95972 14.3836L5.47251 12.8998L0.983473 14.7439C-0.285899 15.2671 -0.327931 16.2277 0.865783 16.8795L9.32265 21.5111C10.5164 22.163 12.4751 22.163 13.6688 21.5111L22.1341 16.8795C23.3362 16.2277 23.2689 15.2671 22.008 14.7439Z" fill="#F31155"/>
</g>
<defs>
<clipPath id="clip0_1340_57080">
<rect width="23" height="22" fill="white"/>
</clipPath>
</defs>
</svg>
