<svg width="95" height="11" viewBox="0 0 95 11" fill="none" xmlns="http://www.w3.org/2000/svg">
<mask id="mask0_3037_6309" style="mask-type:luminance" maskUnits="userSpaceOnUse" x="0" y="0" width="95" height="11">
<path d="M95 0H0V10.4437H95V0Z" fill="white"/>
</mask>
<g mask="url(#mask0_3037_6309)">
<path fill-rule="evenodd" clip-rule="evenodd" d="M23.457 1.63462L19.9863 9.19029H20.5627L21.5 7.08762H25.9017L26.8517 9.18395H27.4597L23.989 1.62829H23.4697L23.457 1.63462ZM21.7407 6.58096L23.7167 2.24262L25.6737 6.58096H21.7407ZM37.6817 3.81329C37.6817 3.55362 37.6373 3.29395 37.5423 3.05329C37.4473 2.81262 37.3017 2.59095 37.1243 2.40095C36.6747 1.95129 35.9463 1.67262 35.028 1.67262H31.9057V9.15862H32.4567V6.05529H34.8887L37.2573 9.15862H37.9603L35.503 5.96029C36.757 5.78929 37.6753 5.07362 37.6753 3.81962L37.6817 3.81329ZM32.4503 5.54862V2.19195H34.99C36.339 2.19195 37.1307 2.82529 37.1307 3.82595C37.1307 4.92795 36.206 5.56129 34.9583 5.56129L32.4567 5.54862H32.4503ZM48.4357 1.67262H47.682L42.9383 6.58729V1.67262H42.3873V9.15862H42.9383V7.25229L44.7877 5.36495L47.8467 9.15229H48.5687L45.1867 4.97229L48.4293 1.67262H48.4357ZM62.7427 2.19195H65.3393V9.16495H65.8903V2.19195H68.4807V1.66629H62.7427V2.19195ZM72.933 9.16495H73.484V1.67262H72.933V9.17129V9.16495ZM83.5857 8.18962L78.4493 1.66629H77.93V9.15229H78.462V2.50229L83.706 9.15862H84.124V1.67262H83.592V8.19595L83.5857 8.18962ZM92.0787 5.26362V5.75129H94.4917V7.84129C93.8393 8.37329 93.035 8.66462 92.199 8.67095C90.2673 8.67095 89.1147 7.27129 89.1147 5.38395C89.1147 3.60429 90.337 2.10962 92.0913 2.10962C92.9463 2.07795 93.776 2.39462 94.403 2.98362L94.7513 2.57829C94.0293 1.93229 93.0857 1.58395 92.1167 1.62195C89.9633 1.62195 88.5573 3.42062 88.5573 5.38395C88.5573 7.44862 89.9063 9.14595 92.18 9.14595C93.225 9.13962 94.2257 8.74695 95.011 8.05662V5.25729H92.0787V5.26362ZM53.002 2.20462H58.3157V1.66629H53.002V2.20462ZM56.6943 5.16229H53.0083V5.69429H56.6943V5.16229ZM53.002 9.15862H58.3157V8.62662H53.002V9.15862Z" fill="#323232"/>
<path fill-rule="evenodd" clip-rule="evenodd" d="M12.3176 0L9.86031 4.24967L7.40931 0H4.44531V6.31433C5.36365 7.13133 6.35798 7.866 7.40931 8.493V5.358L9.72098 9.25933H9.98698L12.3113 5.358V10.4373H15.2626V0H12.3113H12.3176Z" fill="#323232"/>
<path fill-rule="evenodd" clip-rule="evenodd" d="M2.964 4.81333V0H0C0.709333 1.76067 1.71633 3.39467 2.964 4.81333Z" fill="#323232"/>
<path fill-rule="evenodd" clip-rule="evenodd" d="M0 6.06104V10.45H2.964V8.1257C1.92533 7.5177 0.931 6.82737 0 6.06104Z" fill="#323232"/>
<path fill-rule="evenodd" clip-rule="evenodd" d="M4.44531 8.91748V10.4438H7.40931V10.1145C6.39598 9.78515 5.40165 9.38615 4.44531 8.91748Z" fill="#323232"/>
</g>
</svg>
