<svg width="24" height="24" viewBox="0 0 24 24" fill="none" xmlns="http://www.w3.org/2000/svg">
<path d="M12.1187 12.78C12.0487 12.77 11.9587 12.77 11.8787 12.78C10.1187 12.72 8.71875 11.28 8.71875 9.50998C8.71875 7.69998 10.1787 6.22998 11.9987 6.22998C13.8087 6.22998 15.2787 7.69998 15.2787 9.50998C15.2687 11.28 13.8787 12.72 12.1187 12.78Z" stroke="#5B5B5B" stroke-width="1.5" stroke-linecap="round" stroke-linejoin="round"/>
<path d="M18.7378 19.38C16.9578 21.01 14.5978 22 11.9978 22C9.39781 22 7.03781 21.01 5.25781 19.38C5.35781 18.44 5.95781 17.52 7.02781 16.8C9.76781 14.98 14.2478 14.98 16.9678 16.8C18.0378 17.52 18.6378 18.44 18.7378 19.38Z" stroke="#5B5B5B" stroke-width="1.5" stroke-linecap="round" stroke-linejoin="round"/>
<path d="M12 22C17.5228 22 22 17.5228 22 12C22 6.47715 17.5228 2 12 2C6.47715 2 2 6.47715 2 12C2 17.5228 6.47715 22 12 22Z" stroke="#5B5B5B" stroke-width="1.5" stroke-linecap="round" stroke-linejoin="round"/>
</svg>
