<svg width="146" height="36" viewBox="0 0 146 36" fill="none" xmlns="http://www.w3.org/2000/svg">
<path d="M20.9817 6.42951L15.5174 32.1446L23.9774 12.6984L24.0327 12.6567L24.5482 12.7856C24.6022 12.8187 24.5804 12.8948 24.5804 12.9488C24.5778 13.8754 24.2911 14.9812 24.2422 15.9237L23.8591 20.202H34.0214C34.0175 20.3591 33.7668 20.8168 33.6125 20.8414C33.3232 20.888 32.9594 20.7898 32.6572 20.8905L23.1404 21.0721L23.3564 16.5422C23.2329 16.6674 23.1584 16.8577 23.0838 17.0147C20.2758 22.9302 17.8779 29.0383 15.0957 34.9673L14.8719 35.2569H14.1288L18.8744 11.6467L11.8737 26.4009C11.6975 26.4905 11.4712 26.5028 11.3002 26.3936L10.4876 21.4587L5.23422 21.4403L5.06836 21.3691V20.7052H11.1794L11.9225 24.182L12.0588 24.1059L20.1189 6.42828H20.9817V6.42951Z" fill="white"/>
<path d="M24.5782 32.5557C24.555 32.4256 24.6373 32.379 24.726 32.3078C25.5052 31.6794 26.607 31.1419 27.4697 30.5798C33.5062 26.6464 40.3719 19.6976 41.9559 12.6997C42.4368 10.5752 42.4715 8.29743 41.2976 6.36938C38.9602 2.53047 32.9096 1.9782 28.7863 2.8287C27.8606 3.02015 27.0583 3.40429 26.1686 3.6252C25.7739 3.72338 25.6042 3.73197 25.9925 3.41042C30.1157 -0.00139728 38.028 0.812285 41.7142 4.50638C46.4135 9.21543 42.8932 16.0906 39.8396 20.6548C37.9162 23.5303 35.5466 25.7468 32.7476 27.8405C30.4192 29.582 28.1949 31.1726 25.4383 32.2563C25.3303 32.2992 24.6103 32.5864 24.5769 32.5545L24.5782 32.5557Z" fill="white"/>
<path d="M19.592 3.4104C19.4994 3.49631 18.8566 3.14163 18.7138 3.08272C15.7528 1.85176 13.6906 1.15713 10.3773 1.68485C6.0084 2.38072 3.2184 4.79722 1.75911 8.73922C-0.688889 15.3567 2.16154 22.4675 6.06369 27.9682C6.24626 28.2259 6.69883 28.7107 6.80426 28.9549C6.8364 29.0285 6.85312 29.0899 6.84155 29.1709C6.80426 29.1709 6.7644 29.177 6.7284 29.1647C6.65769 29.1402 5.98783 28.3989 5.88369 28.2774C4.7934 27.0011 3.6864 25.1 2.90211 23.6199C-0.296745 17.5805 -1.79846 9.48541 3.4614 4.04981C7.71455 -0.345057 14.6921 -0.0775107 19.5431 3.25208L19.592 3.4104Z" fill="white"/>
<path d="M6.50615 14.9406L6.20786 15.2732L5.88258 16.6551C6.07801 16.7312 6.27601 16.6527 6.43415 16.541C6.62701 16.406 7.49615 15.5469 7.55015 15.3641C7.59386 15.2168 7.40486 14.9406 7.53729 14.9406H8.56844L6.74529 16.6588C6.73243 16.7411 6.77101 16.8122 6.79286 16.8871C6.88415 17.1964 7.38301 18.3525 7.58358 18.5574C7.67358 18.6495 7.85486 18.6851 7.84972 18.8299H6.79543C6.84301 18.6863 6.89958 18.6544 6.89443 18.4862C6.88929 18.2972 6.43543 17.232 6.30815 17.0749C6.20786 16.9509 5.98029 16.8282 5.83243 16.9276C5.74115 16.9902 5.45443 18.4016 5.50843 18.5697C5.54958 18.6961 5.74758 18.6519 5.691 18.8299H4.63672L4.85143 18.6004C5.07129 17.6701 5.49172 16.5398 5.58943 15.5985C5.60101 15.4929 5.61772 15.2401 5.58815 15.153C5.55858 15.0658 5.37858 15.0707 5.40429 14.9406H6.50615Z" fill="white"/>
<path d="M31.528 14.7578C31.4355 15.4978 31.1899 16.2244 31.024 16.9534C30.9315 17.3621 30.7348 18.0125 30.7155 18.4016C30.6988 18.7477 30.9276 18.5844 30.9996 18.8299H30.232L30.3272 18.1892C29.9582 18.4985 29.4529 19.1404 28.8923 18.8053C28.3318 18.4703 28.5478 17.3154 28.8345 16.8319C29.26 16.1139 29.9492 15.9016 30.7579 16.1753C30.8132 15.9188 30.9186 15.6279 30.9456 15.3702C30.9726 15.1125 31.0048 14.8989 30.664 14.894V14.7578H31.5268H31.528ZM29.9325 16.2771C29.2498 16.4146 28.9823 17.5572 29.0338 18.1217C29.0685 18.501 29.2999 18.7071 29.6843 18.5096C30.0983 18.2972 30.3915 17.7388 30.4982 17.3191C30.6306 16.7938 30.7579 16.1102 29.9325 16.2759V16.2771Z" fill="white"/>
<path d="M9.90985 18.8299L9.98185 18.1892C9.89442 18.1905 9.66299 18.5132 9.54985 18.6004C9.19371 18.8765 8.73214 19.052 8.40428 18.6433C7.99671 18.1352 8.30142 17.0651 8.69228 16.5926C9.03556 16.1765 9.43542 16.0354 9.98442 16.0832C10.1683 16.0992 10.3406 16.2207 10.4627 16.2195C10.5977 16.217 10.7031 16.0354 10.869 16.0857C10.986 16.2072 10.2686 18.2666 10.4126 18.6028C10.4691 18.7084 10.698 18.674 10.6774 18.8311H9.90985V18.8299ZM9.60642 18.3561C10.041 17.9634 10.3663 17.0417 10.2364 16.4821C10.212 16.3753 10.1323 16.2992 10.0204 16.2759C8.98414 16.0562 8.62156 17.4688 8.71671 18.2076C8.78485 18.7366 9.28114 18.6507 9.60771 18.3561H9.60642Z" fill="white"/>
<path d="M27.3019 16.0489C27.4806 16.0391 27.8805 16.0955 28.0039 16.2244C28.5593 17.3387 27.1206 17.6443 26.2541 17.6149C26.1769 17.9352 26.0998 18.5047 26.5678 18.5574C27.0358 18.6102 27.3713 18.4568 27.6773 18.1475L27.8355 18.2985C27.1399 19.1539 25.5868 19.1698 25.6819 17.8014C25.7385 17.0012 26.4109 16.098 27.3019 16.0489ZM26.3042 17.3657C26.7876 17.3829 27.6233 17.3338 27.6838 16.7374C27.6979 16.5987 27.6259 16.3201 27.4691 16.2772C26.8725 16.1115 26.3376 16.8687 26.3042 17.3657Z" fill="white"/>
<path d="M12.7621 18.647C13.2571 18.5697 13.1273 18.053 13.5528 18.0518L13.3857 18.8299H11.2771L11.209 18.7206C11.2591 18.6617 11.3003 18.5942 11.3504 18.5341C11.8981 17.8701 12.6027 17.2283 13.1697 16.5643C13.2263 16.498 13.3124 16.4023 13.315 16.314H12.3803C12.2671 16.314 11.9688 16.6944 11.9148 16.8073L11.6847 16.8171C11.6731 16.6821 11.7747 16.1765 11.9071 16.1372C12.0833 16.152 12.253 16.093 12.4253 16.082C12.7377 16.0636 13.0038 16.1176 13.2918 16.1323C13.405 16.1385 14.0221 16.0513 13.981 16.2403L11.8763 18.5341L11.9483 18.6482C12.199 18.6212 12.5243 18.6863 12.7634 18.6482L12.7621 18.647Z" fill="white"/>
<path d="M60 9.7627H64.2073V24.7627H60V9.7627ZM68.5487 24.7627L64.4318 17.364L68.9759 9.7627H71.0904L67.8064 15.2719L73.071 24.7627H68.5487Z" fill="white"/>
<path d="M72.7773 24.7627L78.1759 9.7627H82.405L87.8959 24.7627H83.3735L81.7315 20.3105H76.5556L74.9371 24.7627H72.7773ZM77.2327 18.4445H81.0562L79.0992 13.0928L77.2309 18.4445H77.2327Z" fill="white"/>
<path d="M87.6699 24.7627L95.0255 11.8549H88.0736V9.7627H100.875L93.4976 22.6723H100.402V24.7627H87.6699Z" fill="white"/>
<path d="M102.135 24.7627V9.7627H106.273L109.603 17.7695L112.91 9.7627H117.005V24.7627H112.798V15.0257L108.748 24.7627H108.321L104.226 14.9588V24.7627H102.135Z" fill="white"/>
<path d="M119.703 24.7627V9.7627H129.175V11.7879H123.91V16.1732H128.905V18.1966H123.91V22.7393H129.356V24.7627H119.703Z" fill="white"/>
<path d="M131.443 24.7627V9.7627H137.249C139.557 9.7627 141.478 10.3473 143.006 11.5164C145.001 13.0458 145.999 15.0094 145.999 17.4093C145.999 18.6834 145.691 19.8725 145.075 20.9729C144.46 22.0751 143.605 22.9709 142.51 23.6605C141.326 24.3953 139.563 24.7627 137.224 24.7627H131.441H131.443ZM135.651 22.8063H136.438C137.879 22.8063 139.003 22.4316 139.813 21.6823C140.997 20.5874 141.59 19.0725 141.59 17.1396C141.59 15.5198 141.14 14.2131 140.242 13.2141C139.34 12.2168 138.113 11.7191 136.552 11.7191H135.652V22.8063H135.651Z" fill="white"/>
</svg>
