<svg width="80" height="80" viewBox="0 0 80 80" fill="none" xmlns="http://www.w3.org/2000/svg">
<rect x="15" y="7" width="46" height="66" rx="5" fill="#DEFCFF"/>
<rect y="49" width="20" height="24" rx="5" fill="#FFDEF7"/>
<rect x="60" y="28" width="20" height="45" rx="5" fill="#FFDEF7"/>
<g clip-path="url(#clip0_3256_38428)">
<path d="M19.599 16.6798C19.6537 16.6798 19.6993 17.1943 19.7449 18.1864C19.7904 19.1786 19.836 20.6392 19.8816 22.5317C19.8998 23.1655 19.909 23.8361 19.9272 24.5619C19.9545 25.2876 19.9819 26.0593 19.9728 26.8677C19.836 27.6853 20.2189 28.5397 20.0092 29.44C19.9545 30.3402 20.0092 31.2865 20.0457 32.2694C20.0913 33.2524 19.9637 34.2813 20.0822 35.3469C20.3465 36.4126 19.7904 37.5149 20.1186 38.6633C20.1916 39.8116 20.1642 40.9875 20.1551 42.2093C19.9545 43.4311 20.1551 44.6805 20.1916 45.9666C19.9545 47.2527 20.0548 48.5756 20.2189 49.9352C19.8907 51.2948 19.9454 52.682 20.2462 54.1059C20.2554 55.5298 20.1277 56.9813 20.2736 58.4603C20.2918 59.9394 20.3556 61.4552 20.3009 62.9893C20.5197 64.5327 20.5106 66.0944 20.3192 67.6928C20.3739 68.0787 20.4103 68.4645 20.4377 68.8595V69.0065L20.4468 69.08C20.4468 69.08 20.4468 69.1076 20.4468 69.1168C20.4468 69.1351 20.4468 69.1443 20.4468 69.1627C20.465 69.1627 20.4742 69.1627 20.4924 69.1811H20.5197L20.8206 69.2086C21.2399 69.2362 21.6592 69.2637 22.0786 69.2913C23.7104 69.4291 25.3695 69.08 27.0468 69.2729C28.7242 69.2913 30.4289 69.2178 32.1519 69.2546C33.8748 69.3556 35.6251 69.4658 37.3936 69.2454C39.1621 69.1902 40.9489 69.1076 42.7447 69.2362C44.5497 68.979 46.3729 69.0984 48.2144 69.2362C50.0558 69.1994 51.9064 69.374 53.7752 69.2362C54.7142 69.2546 55.644 69.2362 56.5921 69.2086C57.0661 69.1994 57.531 69.1902 58.0051 69.1902C58.6706 69.1902 58.47 69.1994 58.6159 69.227C58.6341 69.1351 58.6523 69.2637 58.6705 68.6115C58.6888 68.1338 58.6979 67.6561 58.6979 67.1876C58.6979 66.2414 58.6888 65.2951 58.6159 64.3489C58.4518 62.4657 58.6797 60.5916 58.6159 58.7451C58.8529 56.8894 58.5429 55.0521 58.6159 53.2332C58.5976 51.4142 58.7526 49.6137 58.625 47.8315C58.5794 46.0493 58.5338 44.2946 58.6341 42.5492C58.2694 40.8129 58.7252 39.095 58.6523 37.4047C58.8073 35.7144 58.6341 34.0424 58.6705 32.398C58.6067 30.7536 58.8346 29.1368 58.6888 27.5383C58.7161 25.9491 58.5703 24.3782 58.707 22.8348C58.5247 21.3007 58.862 19.7849 58.7344 18.3058C58.7344 17.9843 58.7344 17.672 58.7344 17.3596C58.5065 17.3596 58.2694 17.3596 58.0415 17.3596C57.5948 17.3596 57.139 17.3504 56.7015 17.3321C55.2885 17.0473 53.912 17.2861 52.5628 17.3045C51.2136 17.2769 49.9009 17.4699 48.6246 17.2769C47.3484 17.2494 46.0995 17.1299 44.8961 17.2402C43.6837 17.2861 42.5168 16.8268 41.3773 17.2034C40.2378 17.2677 39.1439 16.9095 38.0864 17.1667C37.029 17.3964 36.008 17.1391 35.0325 17.1299C34.0571 17.1116 33.1182 17.1024 32.2248 17.0932C28.1955 17.0289 25.0322 16.9646 22.8717 16.8911C20.7112 16.8176 19.5534 16.7441 19.5534 16.6706C19.5534 16.5879 20.9755 16.5053 23.6283 16.4226C26.272 16.3491 30.1463 16.2756 35.0417 16.2113C36.0171 16.2021 37.0381 16 38.0955 16.1745C39.153 16.1745 40.2469 16.0184 41.3865 16.1378C42.5168 15.8714 43.6928 16.0919 44.9053 16.1011C46.1177 16.0919 47.3575 16.1745 48.6337 16.0643C49.91 15.9081 51.2227 16.1378 52.5719 16.0276C53.9211 16.1929 55.2976 16.147 56.7106 16C57.1573 16.0459 57.604 16.0643 58.0598 16.0643C58.3424 16.0643 58.625 16.0551 58.9167 16.0459C59.2996 16.0367 59.6916 16.0276 60.0835 16.0184C60.0927 16.4685 60.1018 16.9278 60.12 17.378C60.12 17.5525 60.12 17.7179 60.1291 17.8924V18.3058C59.8921 19.7849 60.0562 21.3007 60.1565 22.8348C60.2476 24.3782 60.12 25.9399 60.1747 27.5383C60.1291 29.1368 60.2385 30.7536 60.1929 32.398C60.3023 34.0424 60.3479 35.7144 60.2112 37.4047C60.2841 39.095 60.2294 40.8129 60.2294 42.5492C60.3206 44.2855 60.2203 46.0493 60.2385 47.8315C60.2932 49.6137 59.9833 51.4142 60.2476 53.2332C60.2841 55.0521 60.202 56.8894 60.2476 58.7451C60.2112 60.6008 60.1747 62.4657 60.2476 64.3489C60.12 65.2951 60.0927 66.2414 60.1109 67.1876C60.12 67.6653 60.1382 68.1338 60.1656 68.6115C60.1747 68.8687 60.1929 68.9973 60.2021 69.5302C60.2112 69.9803 60.2294 70.4396 60.2385 70.8898C59.4819 70.8989 58.7344 70.9173 57.9777 70.9265C57.5037 70.9265 57.0297 70.9265 56.5647 70.9265C55.6258 70.9265 54.6868 70.899 53.7479 70.8806C51.8791 70.9081 50.0194 70.8898 48.1871 70.8806C46.3456 70.9541 44.5224 70.7703 42.7174 70.8806C40.9124 70.9908 39.1257 70.7612 37.3663 70.8714C35.5977 70.9449 33.8566 70.9908 32.1245 70.8622C30.4016 70.8622 28.6969 70.6234 27.0195 70.8438C25.3421 70.899 23.683 71.1929 22.0512 70.8255C21.6319 70.853 21.2126 70.853 20.7932 70.8346C20.1277 70.8163 19.4714 70.7979 18.815 70.7795C18.815 70.4304 18.8333 70.0813 18.8333 69.7323C18.8333 69.4475 18.8333 69.1627 18.8424 68.8687C18.8424 68.4829 18.8333 68.0879 18.7877 67.702C19.0612 66.1036 18.8059 64.5418 18.815 62.9985C18.8697 61.4552 18.9609 59.9486 18.8424 58.4695C18.7147 56.9905 18.9153 55.539 18.8697 54.1151C18.7147 52.6912 19.0703 51.304 18.8971 49.9444C18.9335 48.5848 18.8697 47.2619 18.9244 45.9758C18.5598 44.6897 18.9244 43.4311 18.9609 42.2185C19.0156 40.9967 18.7239 39.8208 18.9973 38.6725C18.7239 37.5333 18.9609 36.4217 19.0338 35.3561C19.1159 34.2905 18.9153 33.2616 19.0703 32.2786C18.8788 31.2956 19.1797 30.3494 19.1067 29.4491C19.2344 28.5489 19.1067 27.6853 19.1523 26.8769C19.1067 26.0593 19.125 25.2876 19.1979 24.5711C19.2161 23.8453 19.2252 23.1655 19.2435 22.5408C19.2891 20.6484 19.3346 19.1877 19.3802 18.1956C19.4258 17.2034 19.4805 16.689 19.5261 16.689L19.599 16.6798Z" fill="black"/>
<path d="M27.5489 45.9115C27.6491 45.9115 27.7494 46.9771 27.8406 48.9338C27.8497 49.2554 27.8679 49.6137 27.8862 49.9811C27.9135 50.3578 27.9409 50.7528 27.9317 51.1754C27.795 51.598 28.1779 52.0389 27.9773 52.5074C27.9135 52.9759 27.9773 53.4628 28.0138 53.9681C28.0594 54.4734 27.9317 55.0062 28.0502 55.5574C28.3055 56.1086 27.7585 56.6781 28.0867 57.2661C28.1596 57.854 28.1414 58.4695 28.1232 59.0942C27.9226 59.7189 28.1232 60.3711 28.1596 61.0326C27.9226 61.694 28.0229 62.383 28.187 63.0812C27.8588 63.7793 27.9044 64.4959 28.2143 65.2308C28.2235 65.9658 28.0958 66.7099 28.2417 67.4815C28.2508 67.8674 28.269 68.2532 28.2873 68.639V68.933V69.08V69.1167C28.2873 69.1627 28.2781 69.2086 28.2599 69.2729C28.2781 69.2729 28.2964 69.2729 28.3146 69.2729C28.3967 69.2362 28.4331 69.2086 28.4605 69.1902C28.4787 69.1902 28.4878 69.1719 28.4969 69.1719C28.4969 69.1719 28.4969 69.1719 28.5061 69.1719H28.6428C29.0074 69.1719 29.3721 69.227 29.7458 69.3188C30.5663 69.08 31.3959 69.1719 32.2345 69.3005C33.0732 69.4383 33.9301 69.0892 34.7961 69.2821C35.6622 69.3005 36.5464 69.227 37.4307 69.2637C38.3241 69.3648 39.2266 69.475 40.1382 69.2545C41.0498 69.1994 41.9705 69.1167 42.9004 69.2454C43.8302 68.9881 44.7692 69.1076 45.7172 69.2454C46.6653 69.2086 47.6225 69.3832 48.5888 69.2454C49.0719 69.2637 49.5551 69.2454 50.0382 69.2178H50.4029L50.5579 69.1994H50.5761C50.5761 69.1994 50.6308 69.2086 50.6946 69.2362C50.6946 69.2362 50.7311 69.1902 50.7493 69.1443V69.1076C50.7493 69.1076 50.7675 69.0708 50.7675 69.0433V68.9514L50.7858 68.5839C50.7949 68.097 50.7858 67.6101 50.7037 67.1233C50.5396 66.1495 50.7675 65.1849 50.7037 64.2295C50.9407 63.2741 50.6308 62.3279 50.7037 61.3908C50.6764 60.4538 50.8405 59.526 50.7128 58.6073C50.6673 57.6887 50.6217 56.7792 50.722 55.8789C50.3573 54.9786 50.8131 54.0967 50.7402 53.224C50.8952 52.3513 50.7128 51.4877 50.7584 50.6425C50.6946 49.7974 50.9225 48.9614 50.7767 48.1346C50.7949 47.7672 50.7675 47.3905 50.7493 47.0322V46.9036V46.8761C50.7493 46.8577 50.7493 46.8393 50.7493 46.8209C50.7493 46.7842 50.7493 46.7474 50.7767 46.6831C50.7675 46.6831 50.7584 46.6648 50.7493 46.6464C50.6673 46.6923 50.6308 46.7015 50.5852 46.7015H50.567H50.5487H50.4029L50.1112 46.6648C49.7283 46.6188 49.3454 46.5729 48.9625 46.628C48.2059 46.628 47.4584 46.6372 46.7291 46.6005C45.9998 46.3157 45.2888 46.5545 44.5959 46.5729C43.9031 46.5453 43.2194 46.7383 42.5631 46.5453C41.9067 46.527 41.2595 46.3984 40.6396 46.5086C40.0197 46.5545 39.4089 46.0952 38.8255 46.4718C38.242 46.5362 37.6768 46.1779 37.1299 46.4351C36.5829 46.6648 36.0542 46.4075 35.5528 46.3984C35.0514 46.3892 34.5682 46.3708 34.1033 46.3616C29.9464 46.2422 27.5671 46.0952 27.5671 45.939C27.5671 45.7645 30.5116 45.6083 35.5528 45.4797C36.0542 45.4705 36.5829 45.2684 37.1299 45.443C37.6768 45.443 38.242 45.296 38.8255 45.4062C39.4089 45.1398 40.0197 45.3603 40.6396 45.3695C41.2595 45.3603 41.9067 45.443 42.5631 45.3327C43.2194 45.1765 43.9031 45.4062 44.5959 45.3052C45.2888 45.4705 45.9998 45.4246 46.7291 45.2776C47.4584 45.4338 48.1968 45.2408 48.9625 45.25C49.3454 45.3695 49.7283 45.3878 50.1112 45.3695C50.2115 45.3695 50.3026 45.3511 50.4029 45.3419L50.5487 45.3235L50.7858 45.3052C51.1322 45.2776 51.4877 45.25 51.8341 45.2225C51.98 45.2225 52.1167 45.2041 52.2626 45.2041C52.2717 45.5164 52.2808 45.838 52.2717 46.1687C52.2717 46.334 52.2717 46.4994 52.2717 46.6556V46.9036V47.0414C52.2626 47.4089 52.2443 47.7763 52.2717 48.1438C52.2261 48.9706 52.3355 49.8066 52.2899 50.6517C52.3993 51.4969 52.4449 52.3604 52.3082 53.2332C52.3902 54.1059 52.3264 54.997 52.3264 55.8881C52.4267 56.7884 52.3173 57.6978 52.3355 58.6165C52.3811 59.5352 52.0802 60.463 52.3446 61.4C52.3811 62.3371 52.299 63.2833 52.3446 64.2387C52.3082 65.1941 52.2717 66.1587 52.3446 67.1324C52.217 67.6193 52.1896 68.1062 52.2079 68.5931C52.2079 68.7125 52.217 68.8411 52.2352 68.9606V69.0524C52.2352 69.0524 52.2443 69.1076 52.2535 69.1719L52.2717 69.5026C52.299 69.9711 52.3264 70.4396 52.3537 70.9173C51.9162 70.9357 51.4512 70.9449 50.9772 70.9541H50.412H50.0474C49.5642 70.9541 49.0811 70.9265 48.5979 70.9081C47.6316 70.9357 46.6744 70.9173 45.7263 70.9081C44.7783 70.9816 43.8393 70.7979 42.9095 70.9081C41.9796 71.0184 41.0589 70.7887 40.1473 70.8989C39.2357 70.9724 38.3332 71.0184 37.4398 70.8898C36.5464 70.8898 35.6713 70.6509 34.8053 70.8714C33.9392 70.9265 33.0823 71.2205 32.2436 70.853C31.3958 70.9449 30.5663 70.6785 29.755 70.8346C29.3812 70.7152 29.0166 70.6968 28.6519 70.7152H28.5152L28.2873 70.7336L27.8132 70.7611C27.4942 70.7795 27.166 70.7979 26.8469 70.8071C26.8469 70.6785 26.8469 70.5499 26.8469 70.4212C26.8652 70.0721 26.8743 69.7139 26.8925 69.3648V69.1167L26.9107 68.9698C26.9107 68.8687 26.9199 68.7768 26.929 68.6758C26.9472 68.2808 26.929 67.9041 26.8743 67.5183C26.7466 66.7558 26.9472 66.0025 26.9016 65.2676C26.7466 64.5326 27.1022 63.8161 26.929 63.1179C26.9654 62.4197 26.9107 61.7399 26.9654 61.0693C26.6008 60.4079 26.9654 59.7556 27.0019 59.1309C27.0566 58.5063 26.7649 57.8908 27.0384 57.3028C26.7649 56.7149 27.0019 56.1453 27.0748 55.5941C27.1569 55.0429 26.9563 54.5101 27.1113 54.0048C26.9199 53.4996 27.2207 53.0035 27.1478 52.5442C27.2754 52.0757 27.1478 51.6347 27.1933 51.2121C27.1478 50.7895 27.166 50.3945 27.2389 50.0179C27.2571 49.6412 27.2663 49.2921 27.2845 48.9706C27.3757 47.0139 27.4759 45.9482 27.5762 45.9482L27.5489 45.9115Z" fill="black"/>
<path d="M59.4557 32.9216C59.556 32.9216 59.6562 34.1618 59.7383 36.4217C59.7565 36.7984 59.7656 37.2026 59.7839 37.6343C59.8112 38.0661 59.8386 38.5254 59.8294 39.0123C59.6927 39.4992 60.0756 40.0137 59.875 40.5557C59.8112 41.0977 59.875 41.6581 59.9115 42.246C59.9571 42.8339 59.8295 43.4494 59.948 44.0833C60.2123 44.7172 59.6562 45.3786 59.9844 46.0676C60.0574 46.7566 60.0391 47.4548 60.0209 48.1897C59.8203 48.9155 60.0209 49.6688 60.0573 50.4404C59.8203 51.2121 59.9206 52.0021 60.0847 52.8106C59.7565 53.619 59.8021 54.455 60.1121 55.3001C60.1212 56.1453 59.9935 57.018 60.1394 57.8999C60.1576 58.7818 60.2214 59.6913 60.1667 60.61C60.3855 61.5286 60.3764 62.4656 60.1941 63.421C60.4311 64.3765 60.34 65.341 60.2123 66.324C60.1485 66.8201 60.1941 67.3162 60.2397 67.8122C60.2579 68.0603 60.2853 68.3083 60.2853 68.5655C60.2853 68.7952 60.2761 69.1627 60.2306 69.1259C60.2306 69.1718 60.2306 69.227 60.2306 69.2637H60.3491L60.4038 69.2453H60.422H60.4949H60.6408C61.0328 69.2453 61.4248 69.2361 61.8259 69.2453C62.856 69.3464 63.9043 69.4566 64.9618 69.2361C66.0193 69.181 67.0859 69.0983 68.1615 69.227C69.2372 68.9697 70.3312 69.0892 71.4251 69.227C72.5282 69.1902 73.6312 69.3648 74.7525 69.227C75.3086 69.2453 75.8738 69.227 76.439 69.1994H76.8583L77.1956 69.181C77.2229 69.181 77.2503 69.1902 77.3232 69.2178C77.3232 69.2178 77.3597 69.1535 77.3779 69.0983C77.3779 69.0892 77.3779 69.0984 77.3779 69.0708V68.9606L77.3961 68.7493V68.3267C77.4144 67.7571 77.3961 67.1967 77.3232 66.6272C77.1591 65.4972 77.387 64.3856 77.3232 63.2741C77.5602 62.1625 77.2503 61.0693 77.3232 59.9853C77.305 58.9013 77.46 57.8172 77.3323 56.7608C77.2868 55.6951 77.2412 54.6479 77.3414 53.6098C76.9768 52.5717 77.4326 51.5428 77.3597 50.5323C77.5147 49.5218 77.3414 48.5204 77.3779 47.5375C77.3141 46.5545 77.542 45.5807 77.3961 44.6345C77.4235 43.6791 77.2776 42.7421 77.4144 41.8234C77.2321 40.9048 77.5693 39.9953 77.4417 39.1134C77.4417 38.2315 77.4326 37.3588 77.4691 36.5136C77.7517 35.6684 77.5147 34.8324 77.4964 34.024V33.8862V33.8403C77.4964 33.8035 77.4964 33.776 77.4964 33.7484C77.4964 33.6933 77.4782 33.6382 77.46 33.5923C77.3779 33.6014 77.3141 33.6106 77.2594 33.6106C77.2229 33.6106 77.2047 33.6014 77.1591 33.5831C77.0497 33.5647 76.9495 33.5463 76.8401 33.528C76.0743 33.5004 75.3359 33.381 74.6066 33.4912C73.8865 33.5371 73.1845 33.0778 72.5008 33.4545C71.8262 33.5188 71.1699 33.1605 70.5317 33.4177C69.9027 33.6566 69.2919 33.3902 68.7085 33.381C68.1251 33.3626 67.5599 33.3534 67.0312 33.3442C62.2179 33.2248 59.4557 33.0778 59.4557 32.9216C59.4557 32.839 60.3035 32.7563 61.8897 32.6736C63.4759 32.6001 65.7914 32.5266 68.7085 32.4623C69.2919 32.4439 69.9027 32.251 70.5317 32.4256C71.1607 32.4256 71.8171 32.2694 72.5008 32.3888C73.1754 32.1224 73.8773 32.3429 74.6066 32.3521C75.3268 32.3429 76.0743 32.4256 76.8401 32.3153C76.9403 32.297 77.0497 32.2786 77.1591 32.2694C77.3232 32.2694 77.5147 32.2602 77.6879 32.2602C78.0525 32.2602 78.408 32.2786 78.7544 32.2878C78.7453 32.6001 78.7362 32.9033 78.7271 33.2064C78.7271 33.3534 78.7271 33.5096 78.7271 33.6566V33.8862C78.7362 33.9413 78.7453 33.9781 78.7544 34.024C78.5904 34.8324 78.6359 35.6684 78.7818 36.5136C78.6268 37.3679 78.8183 38.2315 78.8091 39.1134C78.563 39.9953 78.7362 40.9048 78.8365 41.8234C78.9277 42.7421 78.8 43.6791 78.8547 44.6345C78.8091 45.5899 78.9185 46.5545 78.8729 47.5375C78.9823 48.5204 79.0279 49.5218 78.8912 50.5323C78.9641 51.5428 78.9094 52.5717 78.9094 53.6098C79.0097 54.6479 78.9003 55.7043 78.9185 56.7608C78.9732 57.8264 78.6633 58.9013 78.9277 59.9853C78.9641 61.0693 78.8821 62.1717 78.9277 63.2741C78.8912 64.3856 78.8547 65.4972 78.9277 66.6272C78.8 67.1875 78.7727 67.7571 78.7909 68.3267C78.7909 68.4645 78.8 68.6115 78.8183 68.7493L78.8365 68.9606V69.0708L78.8547 69.2545C78.8821 69.7965 78.9094 70.3385 78.9368 70.8714C78.4171 70.8897 77.8793 70.8989 77.3414 70.9081H76.8309H76.4116C75.8464 70.9081 75.2903 70.8805 74.7251 70.8622C73.6039 70.8897 72.5008 70.8714 71.3978 70.8622C70.2947 70.9357 69.2099 70.7519 68.1342 70.8622C67.0585 70.9724 65.9919 70.7427 64.9345 70.853C63.877 70.9265 62.8378 70.9724 61.7985 70.8438C61.4065 70.8438 61.0054 70.8071 60.6134 70.7795H60.4676L60.3946 70.7611H60.267C60.0938 70.7519 59.9297 70.7427 59.7565 70.7427C59.4192 70.7427 59.091 70.7336 58.7446 70.7427C58.7355 70.3385 58.7082 69.9527 58.6535 69.5393V69.1902L58.6352 69.1075C58.6352 69.0708 58.6352 69.0708 58.6352 69.0524V68.9606L58.5805 68.5839C58.5532 68.3359 58.5167 68.0786 58.5076 67.8306C58.4712 67.3345 58.4894 66.8385 58.6717 66.3424C58.5805 65.3594 58.8449 64.3856 58.6899 63.4394C58.9543 62.484 58.7082 61.547 58.7082 60.6283C58.7629 59.7097 58.854 58.8002 58.7355 57.9183C58.6079 57.0364 58.8084 56.1637 58.7629 55.3185C58.6079 54.4641 58.9634 53.6374 58.7902 52.8289C58.8267 52.0205 58.7629 51.2305 58.8176 50.4588C58.4529 49.6871 58.8176 48.943 58.854 48.2081C58.9087 47.4824 58.617 46.775 58.8905 46.086C58.617 45.4062 58.854 44.7448 58.927 44.1017C59.009 43.4678 58.8084 42.8523 58.9634 42.2644C58.772 41.6764 59.0728 41.1069 58.9999 40.574C59.1275 40.032 58.9999 39.5176 59.0455 39.0307C58.9999 38.5438 59.0181 38.0845 59.091 37.6527C59.1093 37.221 59.1184 36.8167 59.1366 36.4401C59.2278 34.1802 59.319 32.94 59.4283 32.94L59.4557 32.9216Z" fill="black"/>
<path d="M0.938767 32.9216C1.03904 32.9216 1.13932 34.1618 1.23048 36.4217C1.24871 36.7984 1.25783 37.2026 1.27606 37.6343C1.30341 38.0661 1.33076 38.5254 1.32164 39.0123C1.1849 39.4992 1.56778 40.0137 1.36722 40.5557C1.30341 41.0977 1.36722 41.6581 1.40369 42.246C1.44927 42.8339 1.32164 43.4494 1.44015 44.0833C1.6954 44.7172 1.14844 45.3786 1.47662 46.0676C1.54954 46.7566 1.53131 47.4548 1.51308 48.1897C1.31253 48.9155 1.51308 49.6688 1.54954 50.4404C1.31253 51.2121 1.4128 52.0021 1.57689 52.8106C1.24871 53.619 1.29429 54.455 1.60424 55.3001C1.61336 56.1453 1.48573 57.018 1.63159 57.8999C1.64982 58.7818 1.71363 59.6913 1.65894 60.61C1.87772 61.5286 1.86861 62.4656 1.68629 63.421C1.9233 64.3765 1.83214 65.341 1.70452 66.324C1.64071 66.8201 1.68629 67.3162 1.73187 67.8122C1.7501 68.0603 1.77745 68.3083 1.77745 68.5655C1.77745 68.7952 1.76833 69.1627 1.72275 69.1259C1.72275 69.1718 1.72275 69.227 1.72275 69.2637H1.84126L1.89596 69.2453H1.90507H1.978H2.12386C2.51585 69.2453 2.90784 69.2361 3.30895 69.2453C4.33907 69.3464 5.38742 69.4566 6.43577 69.2361C7.49323 69.181 8.55981 69.0983 9.63551 69.227C10.7112 68.9697 11.8051 69.0892 12.8991 69.227C14.0021 69.1902 15.1052 69.3648 16.2264 69.227C16.7825 69.2453 17.3477 69.227 17.9129 69.1994H18.3323L18.6696 69.181C18.6969 69.181 18.7243 69.1902 18.7972 69.2178C18.7972 69.2178 18.8336 69.1535 18.8519 69.0983C18.8519 69.0892 18.8519 69.0984 18.8519 69.0708V68.9606L18.8701 68.7493V68.3267C18.8883 67.7571 18.8701 67.1967 18.7972 66.6272C18.6331 65.4972 18.861 64.3856 18.7972 63.2741C19.0342 62.1625 18.7243 61.0693 18.7972 59.9853C18.7698 58.9013 18.9339 57.8172 18.8063 56.7608C18.7607 55.6951 18.7151 54.6479 18.8154 53.6098C18.4508 52.5717 18.9066 51.5428 18.8336 50.5323C18.9886 49.5218 18.8063 48.5204 18.8519 47.5375C18.7881 46.5545 19.016 45.5807 18.8701 44.6345C18.8975 43.6791 18.7516 42.7421 18.8883 41.8234C18.706 40.9048 19.0433 39.9953 18.9157 39.1134C18.9157 38.2315 18.9066 37.3588 18.943 36.5136C19.2256 35.6684 18.9886 34.8324 18.9704 34.024V33.8862V33.8403C18.9704 33.8035 18.9704 33.776 18.9704 33.7484C18.9704 33.6933 18.9522 33.6382 18.9339 33.5923C18.8519 33.6014 18.7881 33.6106 18.7334 33.6106C18.6969 33.6106 18.6787 33.6014 18.6331 33.5831C18.5237 33.5647 18.4234 33.5463 18.314 33.528C17.5483 33.5004 16.8099 33.381 16.0806 33.4912C15.3604 33.5371 14.6585 33.0778 13.9748 33.4545C13.2911 33.5188 12.6438 33.1605 12.0057 33.4177C11.3767 33.6566 10.7659 33.3902 10.1825 33.381C9.59905 33.3626 9.03385 33.3534 8.50512 33.3442C3.69182 33.2248 0.929651 33.0778 0.929651 32.9216C0.929651 32.839 1.77745 32.7563 3.36365 32.6736C4.94984 32.6001 7.26533 32.5266 10.1825 32.4623C10.7659 32.4439 11.3767 32.251 12.0057 32.4256C12.6347 32.4256 13.2911 32.2694 13.9748 32.3888C14.6494 32.1224 15.3513 32.3429 16.0806 32.3521C16.8008 32.3429 17.5483 32.4256 18.314 32.3153C18.4143 32.297 18.5237 32.2786 18.6331 32.2694C18.7972 32.2694 18.9886 32.2602 19.1618 32.2602C19.5265 32.2602 19.882 32.2786 20.2284 32.2878C20.2193 32.6001 20.2102 32.9033 20.2011 33.2064C20.2011 33.3534 20.2011 33.5096 20.2011 33.6566V33.8862C20.2102 33.9413 20.2193 33.9781 20.2284 34.024C20.0643 34.8324 20.1099 35.6684 20.2558 36.5136C20.1008 37.3679 20.2922 38.2315 20.2831 39.1134C20.037 39.9953 20.2102 40.9048 20.3104 41.8234C20.4016 42.7421 20.274 43.6791 20.3378 44.6345C20.2922 45.5899 20.4016 46.5545 20.356 47.5375C20.4654 48.5204 20.511 49.5218 20.3743 50.5323C20.4563 51.5428 20.3925 52.5717 20.3925 53.6098C20.4837 54.6479 20.3834 55.7043 20.4016 56.7608C20.4563 57.8264 20.1464 58.9013 20.4107 59.9853C20.4472 61.0693 20.3651 62.1717 20.4107 63.2741C20.3743 64.3856 20.3378 65.4972 20.4107 66.6272C20.274 67.1875 20.2558 67.7571 20.274 68.3267C20.274 68.4645 20.2831 68.6115 20.2922 68.7493L20.3104 68.9606V69.0708L20.3287 69.2545C20.356 69.7965 20.3834 70.3385 20.4107 70.8714C19.8911 70.8897 19.3533 70.8989 18.8154 70.9081H18.2958H17.8765C17.3113 70.9081 16.7552 70.8805 16.19 70.8622C15.0687 70.8897 13.9657 70.8714 12.8626 70.8622C11.7596 70.9357 10.6747 70.7519 9.59905 70.8622C8.52335 70.9724 7.44765 70.7427 6.3993 70.853C5.34184 70.9265 4.3026 70.9724 3.27248 70.8438C2.88049 70.8438 2.47939 70.8071 2.08739 70.7795H1.94154L1.86861 70.7611H1.74098C1.56778 70.7519 1.40369 70.7427 1.23048 70.7427C0.893186 70.7427 0.565007 70.7336 0.218596 70.7427C0.20948 70.3385 0.182132 69.9527 0.127435 69.5393V69.1902L0.109203 69.0983C0.109203 69.0708 0.109203 69.0616 0.109203 69.0432V68.9514L0.0545066 68.5747C0.0271583 68.3267 -0.00930599 68.0695 -0.0275382 67.8214C-0.0640025 67.3253 -0.0457703 66.8293 0.136551 66.3332C0.0453905 65.3502 0.309757 64.3765 0.154784 63.4302C0.41915 62.4748 0.173016 61.5378 0.173016 60.6191C0.227712 59.7005 0.318873 58.791 0.200364 57.9091C0.0727388 57.0272 0.273293 56.1545 0.227712 55.3093C0.0727388 54.455 0.428266 53.6282 0.25506 52.8198C0.291525 52.0113 0.227712 51.2213 0.282409 50.4496C-0.0822347 49.6779 0.282409 48.9338 0.318873 48.1989C0.37357 47.4732 0.0818548 46.7658 0.355337 46.0768C0.0818548 45.397 0.318873 44.7356 0.391802 44.0925C0.473847 43.4586 0.273293 42.8431 0.428266 42.2552C0.236828 41.6673 0.537659 41.0977 0.46473 40.5649C0.592356 40.0229 0.46473 39.5084 0.510311 39.0215C0.46473 38.5346 0.482963 38.0753 0.555891 37.6435C0.574123 37.2118 0.58324 36.8076 0.601472 36.4309C0.692633 34.171 0.783793 32.9308 0.893186 32.9308L0.938767 32.9216Z" fill="black"/>
<path d="M37.4494 24.1025C37.5496 24.1025 37.6499 24.8191 37.7319 26.1328C37.7502 26.3533 37.7593 26.5829 37.7775 26.8401C37.8049 27.0882 37.8322 27.3638 37.8231 27.6394C37.6864 27.9242 38.0692 28.2181 37.8596 28.5305C37.8049 28.8612 37.8596 29.1 37.896 29.6696C37.9234 29.9819 37.896 30.2667 37.8778 30.5607C37.659 30.5607 37.4494 30.5607 37.2488 30.6158C37.1394 30.6801 36.9935 30.6985 36.8477 30.6893C36.7748 30.6893 36.6927 30.6709 36.6198 30.6618C36.5833 30.6618 36.5469 30.6434 36.5104 30.6434C36.483 30.6434 36.4648 30.625 36.4375 30.6158C36.246 30.5515 36.0546 30.4964 35.854 30.6618C35.462 30.7352 35.0518 30.7077 34.6325 30.6985C34.2131 30.4964 33.7756 30.6985 33.338 30.7352C33.1192 30.6158 32.8913 30.5791 32.6634 30.5974C32.6087 30.5974 32.5449 30.6066 32.4902 30.6158C32.4629 30.6158 32.4264 30.625 32.4082 30.6342C32.3899 30.6342 32.3808 30.6434 32.3717 30.6526C32.3261 30.6801 32.2805 30.7169 32.2623 30.7628C32.1529 30.6434 31.9979 30.5699 31.8703 30.5515C31.8247 30.6801 31.9159 30.9925 32.1164 31.0935V31.2681L32.1073 31.4518C32.1073 31.5804 32.0891 31.6998 32.08 31.8284C32.0709 32.0765 32.0709 32.3337 32.1438 32.5909C32.162 32.8482 32.1711 33.1054 32.1894 33.3626C32.1985 33.4269 32.1985 33.482 32.1711 33.5739C32.1894 33.5739 32.2076 33.5647 32.2258 33.5555C32.3535 33.4728 32.3808 33.4361 32.399 33.4453C32.399 33.4453 32.4082 33.4453 32.4173 33.4637C32.4173 33.4637 32.4537 33.4637 32.4811 33.4728L32.5722 33.4912C32.6999 33.5188 32.8184 33.5463 32.946 33.5923C33.493 33.3534 34.0582 33.4453 34.6234 33.5739C35.1886 33.7117 35.7629 33.3626 36.3463 33.5555H36.483H36.7109C36.875 33.5555 37.0482 33.5555 37.2123 33.5555C37.5496 33.5555 37.896 33.5463 38.2425 33.5372C38.2425 33.9322 38.2425 34.3456 38.2425 34.759L38.206 35.1724V35.2734C38.206 35.2734 38.1878 35.3102 38.1878 35.3377L38.1695 35.448C38.1513 35.6041 38.1331 35.7511 38.1239 35.9073C38.1148 36.2104 38.1422 36.5228 38.2516 36.8259C38.3063 37.4414 38.3883 38.0661 38.2607 38.7C38.3154 38.8378 38.3518 38.9756 38.3792 39.1134C38.3883 39.1777 38.3974 39.2512 38.4065 39.3155V39.3706V39.4074C38.4065 39.4074 38.4065 39.4074 38.3792 39.4257C38.361 39.4349 38.3427 39.4625 38.3154 39.5084C38.3154 39.5268 38.3063 39.5452 38.3063 39.5635C38.3336 39.5544 38.3518 39.5635 38.3792 39.5635H38.3974L38.4065 39.5727C38.4065 39.5727 38.4065 39.5727 38.4339 39.5727L38.68 39.5911C38.9991 39.6095 39.3273 39.6187 39.6463 39.5544C39.9745 39.5727 40.2936 39.5544 40.6218 39.5268H40.6491H40.6582C40.6582 39.5268 40.6764 39.5268 40.6856 39.5268C40.7038 39.5268 40.722 39.536 40.7767 39.5635C40.7767 39.5635 40.8132 39.5452 40.8314 39.5176C40.8314 39.5084 40.8497 39.4901 40.8497 39.4717V39.4441C40.8497 39.4441 40.8588 39.4441 40.8588 39.389C40.8679 39.0583 40.8497 38.7276 40.7767 38.406C40.6126 37.7538 40.8405 37.1015 40.7767 36.4585C40.8952 36.137 40.877 35.8154 40.8405 35.4939L40.8223 35.3745V35.3102L40.8041 35.2091C40.8041 35.0621 40.7858 34.9151 40.7767 34.7682C40.7676 34.4742 40.7585 34.171 40.7767 33.8954C40.7767 33.776 40.7767 33.6566 40.7767 33.5372C41.3055 33.5372 41.8342 33.5739 42.3265 33.5923H42.6182C42.6911 33.6015 42.7549 33.6015 42.8278 33.5923C42.9646 33.5923 43.1013 33.5739 43.2381 33.5463C43.8488 33.5004 44.4596 33.4545 45.0613 33.5555C45.3621 33.3718 45.6629 33.3994 45.9547 33.4545C46.1005 33.482 46.2464 33.5188 46.4013 33.5463C46.4743 33.5555 46.5472 33.5739 46.6201 33.5739C46.6384 33.5739 46.6475 33.5739 46.6657 33.5739C46.7295 33.6382 46.8207 33.6474 46.8663 33.6382C46.8663 33.5831 46.8389 33.528 46.8298 33.4912C46.8298 33.4728 46.8207 33.4545 46.8207 33.4361V33.4085V33.335C46.7569 32.7655 46.9848 32.2051 46.8389 31.6447C46.8389 31.5161 46.8389 31.3967 46.8389 31.2681V31.1762V31.1303C46.8389 31.1119 46.8389 31.1211 46.8389 31.1119V31.0752C46.8116 31.02 46.8025 31.0017 46.8389 30.9098C46.8389 30.9098 46.8389 30.8914 46.8389 30.873C46.7022 30.9649 46.7022 30.9282 46.6293 30.873C46.374 30.8271 46.1096 30.7812 45.8635 30.8363C45.353 30.8363 44.8516 30.8455 44.3593 30.8087C43.8671 30.524 43.393 30.7628 42.919 30.7812C42.8096 30.7812 42.6911 30.7812 42.5817 30.7812C42.3994 30.7904 42.2262 30.8087 42.0439 30.8179C41.661 30.8363 41.2599 30.8363 40.9864 30.7536L41.0046 30.6801C41.0137 30.3035 41.0502 29.9268 41.0684 29.5869C41.0684 29.5042 41.0684 29.4124 41.0776 29.3297V29.2011V29.1092C41.0776 28.999 41.0593 28.8979 41.032 28.7877C40.9864 28.3651 41.4422 27.9517 41.0684 27.5567C41.0046 27.1617 41.3602 26.7758 41.1049 26.4084C40.877 26.0409 41.1323 25.6826 41.1414 25.3427C41.1414 25.2601 41.1414 25.1682 41.1505 25.0855C41.1505 25.0304 41.1505 24.9845 41.1596 24.9385C41.1596 24.8375 41.1778 24.7456 41.1778 24.6537C41.1778 24.5986 41.1778 24.5435 41.1869 24.4976C40.9955 24.4792 40.8132 24.47 40.64 24.4516C40.3483 24.4333 40.0748 24.4149 39.8195 24.4057C39.309 24.369 38.8715 24.3414 38.5159 24.3046C37.8049 24.2403 37.4311 24.1669 37.4311 24.0934C37.4311 24.0199 37.8049 23.9464 38.5159 23.8821C38.8715 23.8453 39.309 23.8178 39.8195 23.781C40.0748 23.7626 40.3574 23.7535 40.6491 23.7351C41.0684 23.7167 41.5242 23.7075 41.9983 23.6891C42.0165 24.2128 42.0347 24.764 42.053 25.3519C42.0621 25.6918 42.2626 26.0501 42.0894 26.4176C42.0894 26.785 42.2444 27.1709 42.1259 27.5659C42.3903 27.9609 42.1715 28.3743 42.1624 28.7969C42.1624 28.8979 42.1624 29.0082 42.1624 29.1184V29.1919V29.2287V29.293C42.1533 29.3848 42.1624 29.4859 42.2079 29.5134H42.2171C42.3538 29.4491 42.3812 29.4675 42.445 29.4951C42.4632 29.4951 42.4814 29.5042 42.4997 29.5134H42.527C42.527 29.5134 42.527 29.5134 42.5452 29.5134H42.5908C42.7002 29.5134 42.8187 29.5134 42.9281 29.4859C43.393 29.6512 43.8762 29.6053 44.3685 29.4583C44.8607 29.6145 45.3621 29.4216 45.8726 29.4308C46.1279 29.5502 46.3831 29.5686 46.6475 29.5502C47.0668 29.5226 47.5226 29.4583 48.0422 29.4124C48.1425 29.4124 48.2337 29.394 48.334 29.394C48.3613 29.8074 48.3431 30.2667 48.334 30.6985C48.334 30.8822 48.334 31.066 48.3248 31.2405C48.3248 31.3691 48.3248 31.4885 48.3431 31.6172C48.2975 32.1684 48.4069 32.7379 48.3613 33.3075C48.3613 33.335 48.3613 33.3442 48.3704 33.381V33.5004L48.4069 33.7393C48.416 33.8954 48.4342 34.0608 48.4434 34.2261C48.4616 34.5569 48.4707 34.8876 48.4707 35.2091C48.0058 35.2091 47.5135 35.1815 47.0577 35.1264C46.9301 35.1356 46.7933 35.1448 46.6566 35.154C46.5746 35.154 46.5107 35.1632 46.4378 35.1632C46.292 35.1632 46.1461 35.1632 45.9911 35.1632C45.6994 35.1632 45.3986 35.1448 45.0977 35.1448C44.4961 35.2459 43.8944 35.1356 43.2745 35.154C43.1378 35.1632 43.001 35.154 42.8643 35.154L42.6546 35.1264C42.6546 35.1264 42.5817 35.1172 42.5544 35.1081L42.5361 35.0897C42.4814 35.0529 42.3629 35.0254 42.372 35.0989C42.3903 35.1264 42.4085 35.1632 42.4358 35.1907C42.4358 35.2183 42.445 35.2367 42.4358 35.255C42.4358 35.255 42.4358 35.2734 42.4358 35.2826C42.4358 35.2826 42.4358 35.2826 42.4358 35.301V35.3653V35.4847C42.4358 35.8062 42.4176 36.1278 42.4358 36.4493C42.3994 37.0924 42.3629 37.7446 42.4358 38.3968C42.3082 38.7276 42.2809 39.0491 42.2991 39.3798C42.2991 39.5176 42.3173 39.6462 42.3265 39.784C42.3356 39.931 42.3538 40.0872 42.3629 40.2342C42.3903 40.5557 42.4176 40.8864 42.445 41.2079C42.1533 41.2263 41.8433 41.2355 41.5334 41.2447H41.0593H40.6218C40.2936 41.2447 39.9654 41.2171 39.6463 41.1988C39.3182 41.2079 38.9991 41.2171 38.68 41.2171C38.1513 41.2171 37.6317 41.2079 37.1029 41.1988C36.9389 41.2079 36.7748 41.2171 36.6107 41.2171C36.6107 40.6935 36.6289 40.1423 36.6563 39.6278V39.3155C36.6745 39.242 36.6745 39.1777 36.6745 39.1134C36.6745 38.9756 36.6654 38.8378 36.638 38.7C36.5286 38.0661 36.7565 37.4414 36.6471 36.8259C36.6107 36.5136 36.5742 36.2104 36.5742 35.9073C36.5742 35.7511 36.5742 35.6041 36.5924 35.448V35.3377C36.5924 35.3377 36.6107 35.2918 36.6107 35.2826C36.6107 35.2826 36.638 35.255 36.6471 35.2367C36.6471 35.1999 36.6836 35.154 36.7109 35.0713C36.6927 35.0438 36.6563 35.0254 36.6107 35.0254C36.5833 35.0254 36.556 35.0254 36.5286 35.0437C36.5286 35.0437 36.5195 35.0438 36.5104 35.0621C36.5104 35.0621 36.5104 35.0713 36.4739 35.0805C36.4283 35.0897 36.3828 35.1081 36.3372 35.1264C35.7538 35.1815 35.1794 35.4755 34.6142 35.1081C34.0491 35.1999 33.493 34.9335 32.9369 35.0897C32.8093 35.0254 32.6908 34.9978 32.5631 34.9794C32.5358 34.9794 32.4993 34.9794 32.472 34.9703C32.4446 34.9703 32.4173 34.9703 32.3535 34.9703C32.2532 34.9703 32.1529 34.9703 32.0435 34.9703C31.6333 34.9886 31.1775 35.0438 30.7399 35.0621C30.7399 34.9794 30.7399 34.8876 30.7399 34.8049C30.7673 34.3088 30.8037 33.8403 30.8128 33.3994C30.8311 33.1238 30.8128 32.8757 30.7581 32.6093C30.6943 32.3521 30.7126 32.0949 30.7399 31.8468C30.7581 31.7182 30.7673 31.5988 30.7855 31.4702C30.7855 31.4059 30.7855 31.3416 30.7946 31.2864V31.1946V31.0843C30.749 30.8087 30.749 30.524 30.7673 30.2667C30.7855 30.0095 30.8311 29.7707 30.8493 29.541C31.1593 29.5686 31.4236 29.5777 31.6698 29.5134C31.8703 29.5134 32.0617 29.5226 32.2532 29.5226C32.3899 29.5226 32.5267 29.5226 32.6634 29.5226C32.8913 29.5226 33.1192 29.5226 33.338 29.5502C33.7847 29.1827 34.2131 29.5502 34.6325 29.5869C35.0518 29.642 35.462 29.3481 35.854 29.6237C36.0546 29.4859 36.246 29.4767 36.4375 29.5134C36.4557 29.5134 36.4922 29.5134 36.5104 29.5318L36.5377 29.5502L36.5924 29.5869C36.5924 29.5869 36.6836 29.642 36.7383 29.6604C36.8295 29.6972 36.9024 29.6788 36.948 29.6604C36.9206 29.5318 36.8933 29.4491 36.9844 29.3848C36.8933 29.2562 36.9115 29.2654 36.9571 29.0541C37.0027 28.8887 37.0574 28.7326 37.0209 28.5764C37.1485 28.2641 37.0209 27.9609 37.0574 27.6853C37.0118 27.4005 37.03 27.1341 37.1029 26.8861C37.1212 26.638 37.1303 26.3992 37.1485 26.1787C37.2397 24.865 37.3308 24.1485 37.4402 24.1485L37.4494 24.1025Z" fill="black"/>
<path d="M7.90435 39.2972C8.00462 39.2972 8.1049 39.4993 8.18694 39.8575C8.20518 39.9218 8.21429 39.9862 8.23252 40.0505C8.25987 40.1239 8.28722 40.1974 8.2781 40.2709C8.14136 40.3444 8.52424 40.4271 8.32369 40.519C8.26899 40.6017 8.32368 40.6935 8.36015 40.7946C8.40573 40.8864 8.2781 40.9875 8.39661 41.0885C8.66098 41.1896 8.1049 41.2998 8.43308 41.4101C8.50601 41.5203 8.48777 41.6305 8.46954 41.75C8.26899 41.8694 8.46954 41.9888 8.50601 42.1082C8.26899 42.2277 8.36927 42.3563 8.53335 42.4849C8.49689 42.5033 8.46043 42.5216 8.42396 42.5308C8.39661 42.5308 8.36927 42.5492 8.35103 42.5584C8.31457 42.5768 8.29634 42.5951 8.30545 42.6227C8.31457 42.6594 8.40573 42.687 8.5607 42.6503C8.5607 42.6686 8.53336 42.7054 8.52424 42.7329C8.51512 42.7605 8.52424 42.7972 8.58805 42.7605C8.59717 42.7697 8.6154 42.7697 8.62452 42.7789C8.66098 42.7605 8.67921 42.7605 8.67921 42.7881C8.87977 42.5676 8.81595 42.5768 8.79772 42.7605C8.85242 42.6411 8.85242 42.6043 8.85242 42.6135C8.85242 42.6135 8.87065 42.6135 8.87977 42.6227C8.898 42.6227 8.91623 42.6411 8.93446 42.6503C8.97093 42.6686 9.01651 42.6962 9.05297 42.7329C9.20795 42.8707 9.37203 42.5216 9.52701 42.7146C9.6911 42.7329 9.84607 42.6594 10.0193 42.6962C10.1834 42.7972 10.3475 42.9075 10.5207 42.687C10.6939 42.6319 10.858 42.5492 11.0312 42.6778C11.2044 42.4206 11.3776 42.54 11.5508 42.6778C11.5964 42.6686 11.6419 42.6778 11.6784 42.6778C11.6784 42.687 11.6966 42.7054 11.7058 42.7146C11.724 42.7329 11.7513 42.7421 11.7422 42.6778C11.7696 42.6962 11.7696 42.6778 11.7604 42.6503C11.7604 42.6319 11.7604 42.6227 11.8151 42.6778C11.8151 42.6778 11.8881 42.7146 11.8972 42.6962C11.8972 42.6778 11.8972 42.6411 11.8151 42.5951C11.7331 42.5492 11.7513 42.5584 11.7787 42.5492C11.7969 42.5492 11.8151 42.5492 11.8243 42.5308C11.8334 42.5033 11.8334 42.4482 11.8243 42.4022C12.0613 42.2277 11.7513 42.0531 11.8243 41.8786C11.806 41.704 11.961 41.5295 11.8334 41.3641C11.7878 41.1988 11.7422 41.0242 11.8516 40.8589C11.487 40.6935 11.9428 40.5282 11.8698 40.3628C11.8881 40.3444 11.9063 40.3261 11.9154 40.2985C11.9245 40.2801 11.9337 40.2434 11.9337 40.2526C11.9337 40.2434 11.9337 40.2342 11.9245 40.225C11.9063 40.2066 11.8698 40.1974 11.8881 40.1791C11.8516 40.1791 11.8881 40.1423 11.9245 40.1056C11.961 40.0688 11.9792 40.0137 11.9063 40.0596C11.9063 40.0413 11.9063 40.0321 11.9063 40.0321C11.8516 40.0505 11.806 40.1056 11.8516 40.0045C11.7787 40.0964 11.7969 40.0596 11.7878 40.0045C11.7878 39.9586 11.7696 39.9035 11.7422 39.9678H11.7149H11.6966H11.6693C11.5964 39.9678 11.5325 39.9586 11.4687 39.9402C11.332 39.6554 11.2044 39.8943 11.0767 39.9127C10.9491 39.8851 10.8215 40.078 10.703 39.8851C10.5845 39.8575 10.466 39.7381 10.3475 39.8484C10.2289 39.8851 10.1196 39.435 10.0102 39.8116C9.90077 39.8759 9.80049 39.5176 9.70021 39.7749C9.59994 40.0137 9.49966 39.7473 9.4085 39.7381C9.31734 39.7197 9.22618 39.7106 9.14413 39.7014C8.36927 39.5819 7.93169 39.435 7.93169 39.2788C7.93169 39.1042 8.47866 38.9481 9.4085 38.8195C9.49966 38.8103 9.59994 38.6082 9.70021 38.7827C9.80049 38.7827 9.90077 38.6265 10.0102 38.746C10.1196 38.4796 10.2289 38.7 10.3475 38.7092C10.466 38.7 10.5845 38.7827 10.703 38.6725C10.8215 38.5163 10.9491 38.746 11.0767 38.6449C11.2044 38.8103 11.3411 38.7643 11.4687 38.6174C11.5325 38.7 11.6055 38.6908 11.6693 38.6633C11.6784 38.6633 11.7149 38.6449 11.7422 38.6357C11.7696 38.6357 11.806 38.6174 11.8334 38.6082C11.8972 38.5898 11.961 38.5806 12.0157 38.5806C12.116 38.7 12.2071 38.7184 12.3348 38.7C12.4624 38.6725 12.6174 38.6082 12.7723 38.5622C13.0094 38.4979 13.1734 38.5439 13.3558 38.5622C13.3558 38.6357 13.3558 38.7 13.374 38.7551C13.3558 38.9113 13.374 39.0307 13.374 39.1594C13.3922 39.288 13.4105 39.4258 13.3831 39.5728C13.4378 39.6922 13.4743 39.8392 13.4834 39.9862C13.4834 40.0596 13.4834 40.1423 13.4652 40.2158V40.2434C13.4652 40.2434 13.456 40.2526 13.456 40.2617C13.456 40.2709 13.4469 40.2801 13.4378 40.2893C13.4287 40.3077 13.4105 40.3261 13.3922 40.3536C13.4743 40.519 13.4105 40.6843 13.4105 40.8497C13.5107 41.015 13.4013 41.1804 13.4196 41.3549C13.4743 41.5295 13.1643 41.6949 13.4287 41.8694C13.4652 42.0439 13.3831 42.2185 13.4287 42.393C13.4287 42.439 13.4105 42.4757 13.4013 42.5308C13.4013 42.6135 13.3922 42.6962 13.3831 42.7789C13.3831 42.9442 13.3831 43.1096 13.4287 43.2933C13.3011 43.4036 13.2737 43.5322 13.292 43.7067C13.3102 43.8813 13.374 44.0925 13.4287 44.3222C13.1552 44.3957 12.7632 44.359 12.4077 44.3222C12.2436 44.3406 12.0795 44.3406 11.9063 44.3406H11.6511C11.5872 44.3314 11.5599 44.3222 11.5143 44.3222C11.3411 44.4049 11.1679 44.212 10.9947 44.3222C10.8215 44.4325 10.6483 44.2028 10.4842 44.313C10.311 44.3865 10.1469 44.4324 9.98281 44.3038C9.81872 44.3038 9.65463 44.065 9.49054 44.2855C9.32645 44.3406 9.17148 44.6346 9.01651 44.2671C8.98004 44.2947 8.93446 44.2947 8.898 44.2763C8.87977 44.2763 8.86153 44.2671 8.8433 44.2579H8.81595L8.76126 44.2303C8.62452 44.1936 8.50601 44.166 8.35103 44.2487C8.25076 44.1109 8.14136 44.1109 8.00462 44.1385C7.86788 44.166 7.69468 44.2303 7.56705 44.2212C7.43942 44.1936 7.33915 44.1477 7.21152 44.1385C7.21152 44.0282 7.21152 43.9364 7.15683 43.8721C7.09301 43.7986 7.11125 43.6516 7.13859 43.5138C7.16594 43.376 7.20241 43.2382 7.18417 43.1371C7.11125 43.0453 7.15683 42.9075 7.20241 42.7881C7.22975 42.7329 7.24799 42.6686 7.2571 42.6227C7.2571 42.5951 7.2571 42.5676 7.2571 42.54C7.2571 42.5216 7.23887 42.5033 7.21152 42.4849C7.24799 42.3563 7.18417 42.2277 7.23887 42.1082C6.87423 41.9888 7.23887 41.8694 7.27534 41.75C7.33003 41.6305 7.03832 41.5203 7.3118 41.4101C7.03832 41.2998 7.27534 41.1988 7.34826 41.0885C7.43031 40.9875 7.22975 40.8864 7.38473 40.7946C7.19329 40.7027 7.49412 40.6108 7.42119 40.519C7.54882 40.4363 7.42119 40.3536 7.46677 40.2709C7.42119 40.1883 7.43942 40.1239 7.51235 40.0505C7.53059 39.977 7.5397 39.9127 7.55793 39.8575C7.64909 39.4993 7.74026 39.2972 7.84965 39.2972H7.90435Z" fill="black"/>
<path d="M7.90304 49.3932C8.00331 49.3932 8.10359 49.5861 8.18564 49.9536C8.20387 50.0179 8.21298 50.0822 8.23122 50.1465C8.25856 50.22 8.28591 50.2935 8.2768 50.367C8.14005 50.4497 8.52293 50.5231 8.32238 50.615C8.26768 50.6977 8.32238 50.7896 8.35884 50.8814C8.40442 50.9733 8.2768 51.0743 8.39531 51.1754C8.65967 51.2764 8.10359 51.3867 8.43177 51.4877C8.5047 51.598 8.48647 51.7082 8.46823 51.8276C8.26768 51.9471 8.46823 52.0665 8.5047 52.1859C8.26768 52.3053 8.36796 52.434 8.53205 52.5626C8.49558 52.5809 8.45912 52.5993 8.42265 52.6085C8.39531 52.6085 8.36796 52.6269 8.34972 52.6361C8.31326 52.6544 8.29503 52.682 8.30414 52.7004C8.31326 52.7371 8.40442 52.7555 8.5594 52.7187C8.5594 52.7371 8.53205 52.7739 8.52293 52.8014C8.51381 52.829 8.52293 52.8657 8.58674 52.8198C8.59586 52.829 8.61409 52.829 8.62321 52.8382C8.65967 52.8198 8.6779 52.8198 8.6779 52.8473C8.87846 52.6269 8.81465 52.6361 8.80553 52.8198C8.85111 52.7004 8.86023 52.6636 8.86934 52.6728C8.87846 52.6728 8.88757 52.6728 8.89669 52.6728C8.91492 52.6728 8.93315 52.6912 8.95139 52.7004C8.98785 52.7187 9.03343 52.7555 9.0699 52.783C9.22487 52.9117 9.37984 52.5718 9.54393 52.7647C9.70802 52.783 9.863 52.7095 10.0362 52.7463C10.2003 52.8473 10.3644 52.9576 10.5376 52.7371C10.7108 52.682 10.8749 52.5993 11.0481 52.7279C11.2213 52.4707 11.3945 52.5901 11.5677 52.7279C11.6042 52.7187 11.668 52.7279 11.6953 52.7279C11.6953 52.7279 11.7136 52.7463 11.7227 52.7647C11.7409 52.783 11.7683 52.7922 11.7591 52.7279C11.7865 52.7463 11.7865 52.7279 11.7774 52.7004C11.7774 52.682 11.7774 52.6728 11.8321 52.7279C11.8321 52.7279 11.905 52.7647 11.9141 52.7463C11.9141 52.7371 11.9141 52.6912 11.8321 52.6452C11.75 52.5993 11.7683 52.6085 11.7956 52.5993C11.8138 52.5993 11.8321 52.5993 11.8412 52.5809C11.8503 52.5534 11.8503 52.4983 11.8412 52.4523C12.0782 52.2778 11.7683 52.1032 11.8412 51.9287C11.823 51.7541 11.9779 51.5796 11.8503 51.4142C11.8047 51.2397 11.7591 51.0743 11.8685 50.909C11.5039 50.7436 11.9597 50.5783 11.8868 50.4129C11.905 50.3945 11.9232 50.3762 11.9323 50.3486C11.9415 50.3302 11.9506 50.3027 11.9506 50.3027C11.9506 50.2935 11.9506 50.2843 11.9415 50.2751C11.9232 50.2567 11.8868 50.2567 11.905 50.2292C11.8685 50.2292 11.905 50.1924 11.9415 50.1557C11.9779 50.1189 11.9962 50.073 11.9232 50.1097C11.9232 50.0914 11.9232 50.0914 11.9232 50.0822C11.8685 50.1006 11.8138 50.1649 11.8594 50.0546C11.7865 50.1465 11.8047 50.1097 11.7956 50.0546C11.7956 50.0087 11.7865 49.9628 11.75 50.0179H11.7227H11.7044H11.6771C11.6042 50.0179 11.5404 50.0179 11.4765 49.9903C11.3398 49.7055 11.2122 49.9444 11.0846 49.9628C10.9569 49.9352 10.8293 50.1281 10.7108 49.9352C10.5923 49.9076 10.4738 49.7882 10.3553 49.8985C10.2368 49.9444 10.1274 49.4851 10.018 49.8617C9.90858 49.926 9.8083 49.5677 9.70802 49.825C9.60774 50.0638 9.50747 49.7974 9.41631 49.7882C9.32515 49.7698 9.23399 49.7607 9.15194 49.7515C8.38619 49.632 7.9395 49.4851 7.9395 49.3289C7.9395 49.1543 8.48647 48.9982 9.41631 48.8696C9.50747 48.8604 9.60774 48.6583 9.70802 48.8328C9.8083 48.8328 9.91769 48.6858 10.018 48.7961C10.1274 48.5297 10.2368 48.7501 10.3553 48.7593C10.4738 48.7501 10.5923 48.8328 10.7108 48.7226C10.8293 48.5664 10.9569 48.7961 11.0846 48.695C11.2122 48.8604 11.3489 48.8144 11.4765 48.6675C11.5404 48.7501 11.6133 48.741 11.6771 48.7134C11.6862 48.7134 11.7227 48.695 11.75 48.6858C11.7774 48.6858 11.8138 48.6675 11.8412 48.6583C11.905 48.6399 11.9597 48.6307 12.0235 48.6307C12.1238 48.7501 12.2149 48.7685 12.3426 48.7501C12.4702 48.7226 12.6252 48.6583 12.7801 48.6123C13.0172 48.548 13.1813 48.6032 13.3727 48.6123C13.3727 48.6858 13.3727 48.7501 13.3909 48.8053C13.3727 48.9614 13.3909 49.0809 13.3909 49.2095C13.4092 49.3381 13.4274 49.4759 13.4 49.6229C13.4547 49.7423 13.4912 49.8893 13.5003 50.0363C13.5003 50.1097 13.5003 50.1924 13.4821 50.2659C13.4821 50.3119 13.4638 50.321 13.4547 50.3486C13.4456 50.367 13.4274 50.3853 13.4092 50.4129C13.4912 50.5783 13.4274 50.7344 13.4274 50.909C13.5277 51.0743 13.4183 51.2397 13.4365 51.4142C13.4912 51.5888 13.1813 51.7541 13.4456 51.9287C13.4821 52.1032 13.4 52.2778 13.4456 52.4523C13.4456 52.4983 13.4274 52.535 13.4183 52.5901C13.4183 52.6728 13.4092 52.7555 13.4 52.8382C13.4 53.0035 13.4 53.1689 13.4456 53.3526C13.318 53.4628 13.2906 53.5915 13.3089 53.766C13.3271 53.9405 13.3909 54.1518 13.4456 54.3815C13.1721 54.455 12.7801 54.4182 12.4246 54.3815C12.2605 54.3907 12.0964 54.3999 11.9232 54.3999H11.668C11.6042 54.3907 11.5768 54.3815 11.5312 54.3815C11.358 54.4642 11.1848 54.2713 11.0116 54.3815C10.8384 54.4917 10.6652 54.2621 10.5011 54.3723C10.3279 54.4458 10.1638 54.4917 9.99974 54.3631C9.83565 54.3631 9.67156 54.1243 9.50747 54.3448C9.34338 54.3999 9.1884 54.6938 9.03343 54.3264C8.99697 54.3539 8.95139 54.3539 8.91492 54.3356C8.89669 54.3356 8.87846 54.3264 8.86023 54.3172L8.83288 54.2988C8.83288 54.2988 8.79641 54.2988 8.7873 54.2896C8.65056 54.2529 8.53205 54.2253 8.37707 54.308C8.2768 54.1702 8.1674 54.1702 8.03066 54.1978C7.89392 54.2253 7.72072 54.2896 7.60221 54.2805C7.47458 54.2529 7.3743 54.207 7.24668 54.1978C7.24668 54.0875 7.24668 54.0049 7.19198 53.9405C7.12817 53.8671 7.1464 53.7201 7.17375 53.5823C7.2011 53.4445 7.23756 53.3067 7.21933 53.2056C7.1464 53.1138 7.19198 52.976 7.23756 52.8565C7.26491 52.7922 7.28314 52.7371 7.29226 52.682C7.29226 52.6544 7.29226 52.6269 7.29226 52.5993C7.29226 52.5717 7.27403 52.5626 7.24668 52.5442C7.28314 52.4156 7.21933 52.287 7.27403 52.1675C6.90938 52.0481 7.27403 51.9287 7.31049 51.8093C7.36519 51.6898 7.07347 51.5796 7.34696 51.4694C7.07347 51.3591 7.31049 51.2581 7.38342 51.157C7.46547 51.056 7.26491 50.9549 7.41988 50.863C7.22845 50.7712 7.52928 50.6793 7.45635 50.5966C7.58397 50.514 7.45635 50.4313 7.50193 50.3486C7.45635 50.2751 7.47458 50.2016 7.54751 50.1281C7.56574 50.0546 7.57486 49.9903 7.59309 49.9352C7.68425 49.5769 7.77541 49.3748 7.8848 49.3748L7.90304 49.3932Z" fill="black"/>
<path d="M7.90304 59.4892C8.00331 59.4892 8.10359 59.6822 8.18564 60.0496C8.20387 60.1139 8.21298 60.1782 8.23122 60.2425C8.25856 60.316 8.28591 60.3895 8.2768 60.463C8.14005 60.5457 8.52293 60.6192 8.32238 60.711C8.26768 60.7937 8.32238 60.8856 8.35884 60.9775C8.40442 61.0693 8.2768 61.1704 8.39531 61.2714C8.65967 61.3725 8.10359 61.4827 8.43177 61.593C8.5047 61.7032 8.48647 61.8134 8.46823 61.9329C8.26768 62.0523 8.46823 62.1717 8.5047 62.2911C8.26768 62.4106 8.36796 62.5392 8.53205 62.6678C8.49558 62.6862 8.45912 62.7045 8.42265 62.7137C8.39531 62.7137 8.36796 62.7321 8.34972 62.7413C8.31326 62.7597 8.29503 62.7872 8.30414 62.8056C8.31326 62.8423 8.40442 62.8607 8.5594 62.824C8.5594 62.8423 8.53205 62.8791 8.52293 62.9066C8.51381 62.9342 8.52293 62.9709 8.58674 62.9342C8.59586 62.9434 8.61409 62.9434 8.62321 62.9526C8.65967 62.9342 8.6779 62.9342 8.6779 62.9618C8.87846 62.7413 8.81465 62.7505 8.80553 62.9342C8.85111 62.8148 8.86023 62.778 8.86934 62.7872C8.87846 62.7872 8.88757 62.7872 8.89669 62.7872C8.91492 62.7872 8.93315 62.8056 8.95139 62.8148C8.98785 62.8331 9.03343 62.8699 9.0699 62.8974C9.22487 63.0261 9.37984 62.6862 9.54393 62.8791C9.70802 62.8974 9.863 62.824 10.0362 62.8607C10.2003 62.9618 10.3644 63.072 10.5376 62.8515C10.7108 62.7964 10.8749 62.7137 11.0481 62.8423C11.2213 62.5851 11.3945 62.7045 11.5677 62.8423C11.6042 62.8331 11.668 62.8423 11.6953 62.8423C11.6953 62.8423 11.7136 62.8699 11.7227 62.8791C11.7409 62.8974 11.7683 62.9066 11.7591 62.8423C11.7865 62.8607 11.7865 62.8423 11.7774 62.8148C11.7774 62.7964 11.7774 62.7872 11.8321 62.8423C11.8321 62.8423 11.905 62.8791 11.9141 62.8607C11.9141 62.8423 11.9141 62.8056 11.8321 62.7597C11.75 62.7137 11.7683 62.7229 11.7956 62.7137C11.8138 62.7137 11.8321 62.7137 11.8412 62.6953C11.8503 62.6678 11.8503 62.6127 11.8412 62.5667C12.0782 62.3922 11.7683 62.2176 11.8412 62.0431C11.823 61.8686 11.9779 61.694 11.8503 61.5287C11.8047 61.3633 11.7591 61.1887 11.8685 61.0234C11.5039 60.858 11.9597 60.6927 11.8868 60.5273C11.905 60.5089 11.9232 60.4906 11.9323 60.463C11.9415 60.4446 11.9506 60.4171 11.9506 60.4171C11.9506 60.4079 11.9506 60.3987 11.9415 60.3895C11.9232 60.3711 11.8868 60.362 11.905 60.3436C11.8685 60.3436 11.905 60.3068 11.9415 60.2701C11.9779 60.2333 11.9962 60.1782 11.9232 60.2242C11.9232 60.2058 11.9232 60.2058 11.9232 60.1966C11.8685 60.215 11.8138 60.2793 11.8594 60.169C11.7865 60.2609 11.8047 60.2242 11.7956 60.169C11.7956 60.1231 11.7865 60.068 11.75 60.1323H11.7227H11.7044H11.6771C11.6042 60.1323 11.5404 60.1323 11.4765 60.1047C11.3398 59.8199 11.2122 60.0588 11.0846 60.0772C10.9569 60.0496 10.8293 60.2425 10.7108 60.0496C10.5923 60.0221 10.4738 59.9026 10.3553 60.0129C10.2368 60.0496 10.1274 59.5995 10.018 59.9761C9.90858 60.0404 9.8083 59.6822 9.70802 59.9394C9.60774 60.169 9.50747 59.9118 9.41631 59.9026C9.32515 59.8934 9.23399 59.8751 9.15194 59.8659C8.38619 59.7465 7.9395 59.5995 7.9395 59.4433C7.9395 59.2688 8.48647 59.1126 9.41631 58.984C9.50747 58.9748 9.60774 58.7727 9.70802 58.9472C9.8083 58.9472 9.91769 58.8002 10.018 58.9105C10.1274 58.6441 10.2368 58.8645 10.3553 58.8737C10.4738 58.8645 10.5923 58.9472 10.7108 58.837C10.8293 58.6808 10.9569 58.9105 11.0846 58.8094C11.2122 58.9748 11.3489 58.9289 11.4765 58.7819C11.5404 58.8645 11.6133 58.8554 11.6771 58.8278C11.6862 58.8278 11.7227 58.8094 11.75 58.8094C11.7774 58.8094 11.8138 58.7911 11.8412 58.7819C11.905 58.7635 11.9597 58.7543 12.0235 58.7543C12.1238 58.8737 12.2149 58.8921 12.3426 58.8737C12.4702 58.8462 12.6252 58.7819 12.7801 58.7359C13.0172 58.6716 13.1813 58.7267 13.3727 58.7359C13.3727 58.8094 13.3727 58.8737 13.3909 58.9289C13.3727 59.085 13.3909 59.2044 13.3909 59.3331C13.4092 59.4617 13.4274 59.5995 13.4 59.7465C13.4547 59.8659 13.4912 60.0129 13.5003 60.1599C13.5003 60.2333 13.5003 60.316 13.4821 60.3895C13.4821 60.4354 13.4638 60.4446 13.4547 60.463C13.4456 60.4814 13.4274 60.4998 13.4092 60.5273C13.4912 60.6927 13.4274 60.8488 13.4274 61.0234C13.5277 61.1887 13.4183 61.3541 13.4365 61.5287C13.4912 61.7032 13.1813 61.8686 13.4456 62.0431C13.4821 62.2176 13.4 62.3922 13.4456 62.5667C13.4456 62.6127 13.4274 62.6494 13.4183 62.7045C13.4183 62.7872 13.4092 62.8699 13.4 62.9526C13.4 63.1179 13.4 63.2833 13.4456 63.467C13.318 63.5773 13.2906 63.7059 13.3089 63.8804C13.3271 64.055 13.3909 64.2663 13.4456 64.4959C13.1721 64.5694 12.7801 64.5327 12.4246 64.4959C12.2605 64.5051 12.0964 64.5143 11.9232 64.5143H11.668C11.6042 64.5051 11.5768 64.4959 11.5312 64.4959C11.358 64.5694 11.1848 64.3857 11.0116 64.4959C10.8384 64.6062 10.6652 64.3765 10.5011 64.4867C10.3279 64.5602 10.1638 64.6062 9.99974 64.4775C9.83565 64.4775 9.67156 64.2387 9.50747 64.4592C9.34338 64.5143 9.1884 64.8083 9.03343 64.4408C8.99697 64.4592 8.95139 64.4684 8.91492 64.45C8.89669 64.45 8.87846 64.4408 8.86023 64.4316H8.83288C8.83288 64.4316 8.79641 64.4132 8.7873 64.404C8.65056 64.3673 8.53205 64.3397 8.37707 64.4224C8.2768 64.2846 8.1674 64.2846 8.03066 64.3122C7.89392 64.3397 7.72072 64.404 7.60221 64.3949C7.47458 64.3673 7.3743 64.3214 7.24668 64.3122C7.24668 64.2019 7.24668 64.1193 7.19198 64.055C7.12817 63.9815 7.1464 63.8345 7.17375 63.6967C7.2011 63.5589 7.23756 63.4211 7.21933 63.32C7.1464 63.2282 7.19198 63.0904 7.23756 62.9709C7.26491 62.9158 7.28314 62.8515 7.29226 62.7964C7.29226 62.7688 7.29226 62.7413 7.29226 62.7137C7.29226 62.6862 7.27403 62.677 7.24668 62.6586C7.28314 62.53 7.21933 62.4014 7.27403 62.282C6.90938 62.1625 7.27403 62.0431 7.31049 61.9237C7.36519 61.8042 7.07347 61.694 7.34696 61.5838C7.07347 61.4735 7.31049 61.3725 7.38342 61.2622C7.46547 61.1612 7.26491 61.0601 7.41988 60.9683C7.22845 60.8764 7.52928 60.7845 7.45635 60.7019C7.58397 60.6192 7.45635 60.5365 7.50193 60.4538C7.45635 60.3803 7.47458 60.3068 7.54751 60.2333C7.56574 60.169 7.57486 60.1047 7.59309 60.0404C7.68425 59.6821 7.77541 59.48 7.8848 59.48L7.90304 59.4892Z" fill="black"/>
<path d="M66.4193 39.2971C66.5196 39.2971 66.6199 39.4992 66.7019 39.8575C66.7201 39.9218 66.7293 39.9861 66.7475 40.0504C66.7748 40.1239 66.8022 40.1882 66.7931 40.2709C66.6563 40.3444 67.0392 40.4271 66.8387 40.5189C66.784 40.6016 66.8387 40.6935 66.8751 40.7945C66.9207 40.8864 66.7931 40.9875 66.9116 41.0885C67.176 41.1896 66.6199 41.2998 66.948 41.41C67.021 41.5203 67.0027 41.6305 66.9845 41.7499C66.784 41.8694 66.9845 41.9888 67.021 42.1082C66.784 42.2276 66.8842 42.3563 67.0483 42.4849C67.0119 42.5032 66.9754 42.5216 66.9389 42.5308C66.9116 42.5308 66.8842 42.5492 66.866 42.5584C66.8295 42.5767 66.8113 42.5951 66.8204 42.6227C66.8295 42.6594 66.9207 42.687 67.0757 42.6502C67.0757 42.6686 67.0483 42.7053 67.0392 42.7329C67.0301 42.7605 67.0392 42.7972 67.103 42.7605C67.1121 42.7696 67.1304 42.7696 67.1395 42.7788C67.176 42.7605 67.1942 42.7605 67.1942 42.788C67.3947 42.5675 67.3309 42.5767 67.3218 42.7605C67.3674 42.641 67.3765 42.6043 67.3765 42.6135C67.3765 42.6135 67.3947 42.6227 67.4039 42.6319C67.4221 42.6319 67.4403 42.6502 67.4585 42.6594C67.495 42.6778 67.5315 42.7053 67.5771 42.7421C67.732 42.8799 67.887 42.5308 68.0511 42.7237C68.2152 42.7421 68.3702 42.6686 68.5434 42.7053C68.7075 42.8064 68.8715 42.9166 69.0447 42.6962C69.218 42.641 69.382 42.5584 69.5553 42.687C69.7285 42.4297 69.9017 42.5492 70.0749 42.687C70.1204 42.6778 70.166 42.687 70.2025 42.687C70.2025 42.6962 70.2207 42.7145 70.2298 42.7237C70.2481 42.7421 70.2754 42.7513 70.2663 42.687C70.2937 42.7053 70.2936 42.687 70.2845 42.6594C70.2845 42.641 70.2754 42.6319 70.3392 42.687C70.3392 42.687 70.4122 42.7237 70.4213 42.7053C70.4213 42.687 70.4213 42.6502 70.3392 42.6043C70.2572 42.5584 70.2754 42.5675 70.3028 42.5584C70.321 42.5584 70.3392 42.5584 70.3483 42.54C70.3575 42.5124 70.3575 42.4573 70.3483 42.4114C70.5854 42.2368 70.2754 42.0623 70.3483 41.8877C70.3301 41.7132 70.4851 41.5386 70.3575 41.3733C70.3119 41.2079 70.2663 41.0334 70.3666 40.868C70.0019 40.7027 70.4577 40.5373 70.3848 40.372C70.403 40.3536 70.4213 40.3352 70.4304 40.3076C70.4395 40.2893 70.4486 40.2525 70.4486 40.2617C70.4486 40.2525 70.4486 40.2433 70.4395 40.2342C70.4213 40.2158 70.3848 40.2066 70.403 40.1882C70.3666 40.1882 70.403 40.1515 70.4395 40.1147C70.476 40.078 70.4942 40.0229 70.4213 40.0688C70.4213 40.0504 70.4213 40.0412 70.4213 40.0412C70.3666 40.0596 70.321 40.1147 70.3575 40.0137C70.2845 40.1055 70.3028 40.0688 70.2937 40.0137C70.2937 39.9677 70.2845 39.9126 70.2481 39.9769H70.2207H70.2025H70.1751C70.1022 39.9769 70.0384 39.9677 69.9746 39.9494C69.8378 39.6646 69.7102 39.9034 69.5826 39.9218C69.455 39.8943 69.3273 40.0872 69.2088 39.8943C69.0903 39.8667 68.9718 39.7473 68.8533 39.8575C68.7348 39.8943 68.6254 39.4441 68.516 39.8208C68.4066 39.8851 68.3063 39.5268 68.2061 39.784C68.1058 40.0229 68.0055 39.7565 67.9144 39.7473C67.8232 39.7289 67.732 39.7197 67.65 39.7105C66.8751 39.5911 66.4375 39.4441 66.4375 39.2879C66.4375 39.1134 66.9845 38.9572 67.9144 38.8286C68.0055 38.8194 68.1058 38.6173 68.2061 38.7919C68.3063 38.7919 68.4157 38.6357 68.516 38.7551C68.6254 38.4887 68.7348 38.7092 68.8533 38.7184C68.9718 38.7092 69.0903 38.7919 69.2088 38.6816C69.3273 38.5255 69.455 38.7551 69.5826 38.6541C69.7102 38.8194 69.847 38.7735 69.9746 38.6265C70.0384 38.7092 70.1113 38.7 70.1751 38.6724C70.1843 38.6724 70.2207 38.6541 70.2481 38.6449C70.2754 38.6449 70.3119 38.6265 70.3392 38.6173C70.403 38.5989 70.4669 38.5898 70.5216 38.5898C70.6218 38.7092 70.713 38.7276 70.8406 38.7092C70.9682 38.6816 71.1232 38.6173 71.2873 38.5714C71.5243 38.5071 71.6884 38.553 71.8707 38.5714C71.8707 38.6449 71.8707 38.7092 71.889 38.7643C71.8616 38.9205 71.889 39.0399 71.8981 39.1685C71.9163 39.2971 71.9345 39.4349 71.9072 39.5819C71.9619 39.7013 71.9984 39.8483 72.0075 39.9953C72.0075 40.0688 72.0075 40.1515 71.9892 40.225V40.2525C71.9892 40.2525 71.9801 40.2617 71.9801 40.2709C71.9801 40.2801 71.971 40.2893 71.9619 40.2985C71.9528 40.3168 71.9345 40.3352 71.9163 40.3628C71.9892 40.5281 71.9345 40.6843 71.9345 40.8588C72.0348 41.0242 71.9254 41.1896 71.9437 41.3641C71.9984 41.5386 71.6884 41.704 71.9528 41.8786C71.9892 42.0531 71.9072 42.2276 71.9528 42.4022C71.9528 42.4481 71.9345 42.4849 71.9254 42.54C71.9254 42.6227 71.9163 42.7053 71.9072 42.788C71.9072 42.9534 71.9072 43.1187 71.9528 43.3025C71.8252 43.4127 71.7978 43.5413 71.816 43.7159C71.8343 43.8904 71.8981 44.1017 71.9528 44.3314C71.6793 44.4049 71.2873 44.3681 70.9318 44.3314C70.7677 44.3497 70.6036 44.3497 70.4304 44.3497H70.1751C70.1204 44.3406 70.084 44.3314 70.0384 44.3314C69.8652 44.414 69.692 44.2211 69.5188 44.3314C69.3456 44.4416 69.1724 44.2119 69.0083 44.3222C68.8351 44.3957 68.671 44.4416 68.5069 44.313C68.3428 44.313 68.1787 44.0741 68.0146 44.2946C67.8505 44.3497 67.6956 44.6437 67.5406 44.2762C67.5041 44.3038 67.4677 44.3038 67.4221 44.2854C67.4039 44.2854 67.3856 44.2762 67.3674 44.2671H67.34L67.2853 44.2395C67.1486 44.2028 67.0301 44.1752 66.8751 44.2579C66.7748 44.1201 66.6655 44.1201 66.5287 44.1476C66.392 44.1752 66.2188 44.2395 66.0911 44.2303C65.9635 44.2028 65.8632 44.1568 65.7356 44.1476C65.7356 44.0374 65.7356 43.9455 65.6809 43.8812C65.6171 43.8077 65.6353 43.6607 65.6627 43.5229C65.69 43.3851 65.7265 43.2474 65.7083 43.1463C65.6353 43.0544 65.6809 42.9166 65.7265 42.7972C65.7538 42.7421 65.7721 42.6778 65.7812 42.6319C65.7812 42.6043 65.7812 42.5767 65.7812 42.5492C65.7812 42.5308 65.763 42.5124 65.7447 42.4941C65.7812 42.3654 65.7174 42.2368 65.7721 42.1174C65.4074 41.998 65.7721 41.8786 65.8085 41.7591C65.8632 41.6397 65.5715 41.5295 65.845 41.4192C65.5715 41.309 65.8085 41.2079 65.8815 41.0977C65.9635 40.9966 65.763 40.8956 65.9179 40.8037C65.7265 40.7119 66.0273 40.62 65.9544 40.5281C66.082 40.4454 65.9544 40.3628 66 40.2801C65.9544 40.1974 65.9726 40.1331 66.0456 40.0596C66.0638 39.9861 66.0729 39.9218 66.0911 39.8667C66.1823 39.5084 66.2826 39.3063 66.3828 39.3063L66.4193 39.2971Z" fill="black"/>
<path d="M66.4206 49.3932C66.5209 49.3932 66.6212 49.5861 66.7032 49.9536C66.7214 50.0179 66.7306 50.0822 66.7488 50.1465C66.7761 50.22 66.8035 50.2935 66.7944 50.367C66.6576 50.4497 67.0405 50.5231 66.84 50.615C66.7853 50.6977 66.84 50.7896 66.8764 50.8814C66.922 50.9733 66.7944 51.0743 66.9129 51.1754C67.1773 51.2764 66.6212 51.3867 66.9494 51.4877C67.0223 51.598 67.004 51.7082 66.9858 51.8276C66.7853 51.9471 66.9858 52.0665 67.0223 52.1859C66.7853 52.3053 66.8855 52.434 67.0496 52.5626C67.0132 52.5809 66.9767 52.5993 66.9402 52.6085C66.9129 52.6085 66.8855 52.6269 66.8673 52.6361C66.8308 52.6544 66.8126 52.682 66.8217 52.7004C66.8308 52.7371 66.922 52.7555 67.077 52.7187C67.077 52.7371 67.0496 52.7739 67.0405 52.8014C67.0314 52.829 67.0405 52.8657 67.1043 52.8198C67.1043 52.829 67.1317 52.829 67.1408 52.8382C67.1773 52.8198 67.1955 52.8198 67.1955 52.8473C67.396 52.6269 67.3322 52.6361 67.3231 52.8198C67.3687 52.7004 67.3778 52.6636 67.3778 52.6728C67.3869 52.6728 67.396 52.6728 67.4052 52.6728C67.4234 52.6728 67.4416 52.6912 67.4599 52.7004C67.4963 52.7187 67.5328 52.7555 67.5784 52.783C67.7333 52.9117 67.8974 52.5718 68.0524 52.7647C68.2165 52.783 68.3806 52.7095 68.5447 52.7463C68.7088 52.8473 68.8728 52.9576 69.046 52.7371C69.2101 52.682 69.3833 52.5993 69.5566 52.7279C69.7298 52.4707 69.903 52.5901 70.0762 52.7279C70.1126 52.7187 70.1673 52.7279 70.2038 52.7279C70.2038 52.7279 70.222 52.7463 70.2311 52.7647C70.2494 52.783 70.2767 52.7922 70.2676 52.7279C70.295 52.7463 70.295 52.7279 70.2858 52.7004C70.2858 52.682 70.2767 52.6728 70.3405 52.7279C70.3405 52.7279 70.4135 52.7647 70.4226 52.7463C70.4226 52.7371 70.4226 52.6912 70.3405 52.6452C70.2585 52.5993 70.2767 52.6085 70.3041 52.5993C70.3223 52.5993 70.3405 52.5993 70.3496 52.5809C70.3588 52.5534 70.3588 52.4983 70.3496 52.4523C70.5867 52.2778 70.2767 52.1032 70.3496 51.9287C70.3314 51.7541 70.4864 51.5796 70.3588 51.4142C70.3132 51.2397 70.2676 51.0743 70.3679 50.909C70.0032 50.7436 70.459 50.5783 70.3861 50.4129C70.4043 50.3945 70.4226 50.3762 70.4317 50.3486C70.4408 50.3302 70.4499 50.3027 70.4499 50.3027C70.4499 50.2935 70.4499 50.2843 70.4408 50.2751C70.4226 50.2567 70.3861 50.2475 70.4043 50.2292C70.3679 50.2292 70.4043 50.1924 70.4408 50.1557C70.4773 50.1189 70.4955 50.0638 70.4226 50.1097C70.4226 50.0914 70.4226 50.0914 70.4226 50.0822C70.3679 50.1006 70.3223 50.1649 70.3588 50.0546C70.2858 50.1465 70.3041 50.1097 70.3041 50.0546C70.3041 50.0087 70.2858 49.9628 70.2585 50.0179H70.2311H70.2129H70.1856C70.1217 50.0179 70.0488 50.0179 69.985 49.9903C69.8483 49.7055 69.7206 49.9444 69.593 49.9628C69.4654 49.9352 69.3378 50.1281 69.2193 49.9352C69.1007 49.9076 68.9822 49.7882 68.8637 49.8985C68.7452 49.9444 68.6358 49.4851 68.5264 49.8617C68.417 49.926 68.3168 49.5677 68.2165 49.825C68.1162 50.0638 68.0159 49.7974 67.9248 49.7882C67.8336 49.7698 67.7425 49.7607 67.6604 49.7515C66.8947 49.632 66.448 49.4851 66.448 49.3289C66.448 49.1543 66.9949 48.9982 67.9248 48.8696C68.0159 48.8604 68.1162 48.6583 68.2165 48.8328C68.3168 48.8328 68.4262 48.6858 68.5264 48.7961C68.6358 48.5297 68.7452 48.7501 68.8637 48.7593C68.9822 48.7501 69.1007 48.8328 69.2193 48.7226C69.3378 48.5664 69.4654 48.7961 69.593 48.695C69.7206 48.8604 69.8574 48.8144 69.985 48.6675C70.0488 48.7501 70.1217 48.741 70.1856 48.7134C70.1947 48.7134 70.2311 48.695 70.2585 48.6858C70.2858 48.6858 70.3223 48.6675 70.3496 48.6583C70.4135 48.6399 70.4773 48.6307 70.532 48.6307C70.6323 48.7501 70.7234 48.7685 70.851 48.7501C70.9787 48.7226 71.1336 48.6583 71.2886 48.6123C71.5256 48.548 71.6897 48.6032 71.8812 48.6123C71.8812 48.6858 71.8812 48.7501 71.8994 48.7961C71.872 48.9522 71.8994 49.0717 71.9085 49.2003C71.9267 49.3289 71.945 49.4667 71.9176 49.6137C71.9723 49.7331 72.0088 49.8801 72.0179 50.0271C72.0179 50.1006 72.0179 50.1832 71.9997 50.2567C71.9997 50.3027 71.9814 50.3119 71.9723 50.3394C71.9632 50.3578 71.945 50.3762 71.9267 50.4037C71.9997 50.5691 71.945 50.7253 71.945 50.8998C72.0452 51.0652 71.9358 51.2305 71.9541 51.4051C72.0088 51.5796 71.6988 51.745 71.9632 51.9195C71.9997 52.094 71.9176 52.2686 71.9632 52.4431C71.9632 52.4891 71.945 52.5258 71.9359 52.5809C71.9359 52.6636 71.9267 52.7463 71.9176 52.829C71.9176 52.9943 71.9176 53.1597 71.9632 53.3434C71.8356 53.4537 71.8082 53.5823 71.8265 53.7568C71.8447 53.9314 71.9085 54.1427 71.9632 54.3723C71.6897 54.4458 71.2977 54.4091 70.9422 54.3723C70.7781 54.3815 70.614 54.3907 70.4408 54.3907H70.1856C70.1217 54.3815 70.0944 54.3723 70.0488 54.3723C69.8756 54.455 69.7024 54.2621 69.5292 54.3723C69.356 54.4826 69.1828 54.2529 69.0187 54.3631C68.8455 54.4366 68.6814 54.4826 68.5173 54.3539C68.3532 54.3539 68.1891 54.1151 68.0251 54.3356C67.8701 54.3907 67.706 54.6847 67.551 54.3172C67.5145 54.3448 67.469 54.3448 67.4325 54.3264C67.4143 54.3264 67.396 54.3172 67.3778 54.308L67.3505 54.2896C67.3505 54.2896 67.314 54.2896 67.3049 54.2805C67.1681 54.2437 67.0496 54.2161 66.8947 54.2988C66.7944 54.161 66.685 54.161 66.5482 54.1886C66.4115 54.2161 66.2383 54.2805 66.1107 54.2713C65.983 54.2437 65.8828 54.1978 65.7551 54.1886C65.7551 54.0783 65.7551 53.9957 65.7004 53.9314C65.6366 53.8579 65.6549 53.7109 65.6822 53.5731C65.7096 53.4353 65.746 53.2975 65.7278 53.1964C65.6549 53.1046 65.7004 52.9668 65.746 52.8473C65.7734 52.7922 65.7916 52.7279 65.8007 52.6728C65.8007 52.6452 65.8007 52.6177 65.8007 52.5901C65.8007 52.5626 65.7825 52.5534 65.7643 52.535C65.8007 52.4064 65.7369 52.2778 65.7916 52.1584C65.427 52.0389 65.7916 51.9195 65.8281 51.8001C65.8828 51.6807 65.5911 51.5704 65.8645 51.4602C65.5911 51.3499 65.8281 51.2489 65.901 51.1478C65.983 51.0468 65.7825 50.9457 65.9375 50.8539C65.746 50.762 66.0469 50.6701 65.9739 50.5875C66.1016 50.5048 65.9739 50.4221 66.0195 50.3394C65.9739 50.2659 65.9922 50.1924 66.0651 50.1189C66.0833 50.0454 66.0924 49.9811 66.1107 49.926C66.2018 49.5677 66.3021 49.3656 66.4024 49.3656L66.4206 49.3932Z" fill="black"/>
<path d="M66.4206 59.4892C66.5209 59.4892 66.6212 59.6822 66.7032 60.0496C66.7214 60.1139 66.7306 60.1782 66.7488 60.2425C66.7761 60.316 66.8035 60.3895 66.7944 60.463C66.6576 60.5457 67.0405 60.6192 66.84 60.711C66.7853 60.7937 66.84 60.8856 66.8764 60.9775C66.922 61.0693 66.7944 61.1704 66.9129 61.2714C67.1773 61.3725 66.6212 61.4827 66.9494 61.593C67.0223 61.7032 67.004 61.8134 66.9858 61.9329C66.7853 62.0523 66.9858 62.1717 67.0223 62.2911C66.7853 62.4106 66.8855 62.5392 67.0496 62.6678C67.0132 62.6862 66.9767 62.7045 66.9402 62.7137C66.9129 62.7137 66.8855 62.7321 66.8673 62.7413C66.8308 62.7597 66.8126 62.7872 66.8217 62.8056C66.8308 62.8423 66.922 62.8607 67.077 62.824C67.077 62.8423 67.0496 62.8791 67.0405 62.9066C67.0314 62.9342 67.0405 62.9709 67.1043 62.9342C67.1043 62.9434 67.1317 62.9434 67.1408 62.9526C67.1773 62.9342 67.1955 62.9342 67.1955 62.9618C67.396 62.7413 67.3322 62.7505 67.3231 62.9342C67.3687 62.8148 67.3778 62.778 67.3778 62.7872C67.3869 62.7872 67.396 62.7872 67.4052 62.7872C67.4234 62.7872 67.4416 62.8056 67.4599 62.8148C67.4963 62.8331 67.5328 62.8699 67.5784 62.8974C67.7333 63.0261 67.8974 62.6862 68.0524 62.8791C68.2165 62.8974 68.3806 62.824 68.5447 62.8607C68.7088 62.9618 68.8728 63.072 69.046 62.8515C69.2101 62.7964 69.3833 62.7137 69.5566 62.8423C69.7298 62.5851 69.903 62.7045 70.0762 62.8423C70.1126 62.8331 70.1673 62.8423 70.2038 62.8423C70.2038 62.8423 70.222 62.8699 70.2311 62.8791C70.2494 62.8974 70.2767 62.9066 70.2676 62.8423C70.295 62.8607 70.295 62.8423 70.2858 62.8148C70.2858 62.7964 70.2767 62.7872 70.3405 62.8423C70.3405 62.8423 70.4135 62.8791 70.4226 62.8607C70.4226 62.8423 70.4226 62.8056 70.3405 62.7597C70.2585 62.7137 70.2767 62.7229 70.3041 62.7137C70.3223 62.7137 70.3405 62.7137 70.3496 62.6953C70.3588 62.6678 70.3588 62.6127 70.3496 62.5667C70.5867 62.3922 70.2767 62.2176 70.3496 62.0431C70.3314 61.8686 70.4864 61.694 70.3588 61.5287C70.3132 61.3633 70.2676 61.1887 70.3679 61.0234C70.0032 60.858 70.459 60.6927 70.3861 60.5273C70.4043 60.5089 70.4226 60.4906 70.4317 60.463C70.4408 60.4446 70.4499 60.4171 70.4499 60.4171C70.4499 60.4079 70.4499 60.3987 70.4408 60.3895C70.4226 60.3711 70.3861 60.362 70.4043 60.3436C70.3679 60.3436 70.4043 60.3068 70.4408 60.2701C70.4773 60.2333 70.4955 60.1782 70.4226 60.2242C70.4226 60.2058 70.4226 60.1966 70.4226 60.1966C70.3679 60.215 70.3223 60.2793 70.3588 60.169C70.2858 60.2609 70.3041 60.2242 70.3041 60.169C70.3041 60.1231 70.2858 60.068 70.2585 60.1323H70.2311H70.2129H70.1856C70.1217 60.1323 70.0488 60.1323 69.985 60.1047C69.8483 59.8199 69.7206 60.0588 69.593 60.0772C69.4654 60.0496 69.3378 60.2425 69.2193 60.0496C69.1007 60.0221 68.9822 59.9026 68.8637 60.0129C68.7452 60.0496 68.6358 59.5995 68.5264 59.9761C68.417 60.0404 68.3168 59.6822 68.2165 59.9394C68.1162 60.169 68.0159 59.9118 67.9248 59.9026C67.8336 59.8934 67.7425 59.8751 67.6604 59.8659C66.8947 59.7465 66.448 59.5995 66.448 59.4433C66.448 59.2688 66.9949 59.1126 67.9248 58.984C68.0159 58.9748 68.1162 58.7727 68.2165 58.9472C68.3168 58.9472 68.4262 58.8002 68.5264 58.9105C68.6358 58.6441 68.7452 58.8645 68.8637 58.8737C68.9822 58.8645 69.1007 58.9472 69.2193 58.837C69.3378 58.6808 69.4654 58.9105 69.593 58.8094C69.7206 58.9748 69.8574 58.9289 69.985 58.7819C70.0488 58.8645 70.1217 58.8554 70.1856 58.8278C70.1947 58.8278 70.2311 58.8094 70.2585 58.8094C70.2858 58.8094 70.3223 58.7911 70.3496 58.7819C70.4135 58.7635 70.4773 58.7543 70.532 58.7543C70.6323 58.8737 70.7234 58.8921 70.851 58.8737C70.9787 58.8462 71.1336 58.7819 71.2886 58.7359C71.5256 58.6716 71.6897 58.7267 71.8812 58.7359C71.8812 58.8002 71.8812 58.8645 71.8994 58.9289C71.872 59.085 71.8994 59.2044 71.9085 59.3331C71.9267 59.4617 71.945 59.5995 71.9176 59.7465C71.9723 59.8659 72.0088 60.0129 72.0179 60.1599C72.0179 60.2333 72.0179 60.316 71.9997 60.3895C71.9997 60.4354 71.9814 60.4446 71.9723 60.463C71.9632 60.4814 71.945 60.4998 71.9267 60.5273C71.9997 60.6927 71.945 60.8488 71.945 61.0234C72.0452 61.1887 71.9358 61.3541 71.9541 61.5287C72.0088 61.7032 71.6988 61.8686 71.9632 62.0431C71.9997 62.2176 71.9176 62.3922 71.9632 62.5667C71.9632 62.6127 71.945 62.6494 71.9359 62.7045C71.9359 62.7872 71.9267 62.8699 71.9176 62.9526C71.9176 63.1179 71.9176 63.2833 71.9632 63.467C71.8356 63.5773 71.8082 63.7059 71.8265 63.8804C71.8447 64.055 71.9085 64.2663 71.9632 64.4959C71.6897 64.5694 71.2977 64.5327 70.9422 64.4959C70.7781 64.5051 70.614 64.5143 70.4408 64.5143H70.1856C70.1217 64.5051 70.0944 64.4959 70.0488 64.4959C69.8756 64.5694 69.7024 64.3857 69.5292 64.4959C69.356 64.6062 69.1828 64.3765 69.0187 64.4867C68.8455 64.5602 68.6814 64.6062 68.5173 64.4775C68.3532 64.4775 68.1891 64.2387 68.0251 64.4592C67.8701 64.5143 67.706 64.8083 67.551 64.4408C67.5145 64.4592 67.469 64.4684 67.4325 64.45C67.4143 64.45 67.396 64.4408 67.3778 64.4316H67.3505C67.3505 64.4316 67.314 64.4132 67.3049 64.404C67.1681 64.3673 67.0496 64.3397 66.8947 64.4224C66.7944 64.2846 66.685 64.2846 66.5482 64.3122C66.4115 64.3397 66.2383 64.404 66.1107 64.3949C65.983 64.3673 65.8828 64.3214 65.7551 64.3122C65.7551 64.2019 65.7551 64.1193 65.7004 64.055C65.6366 63.9815 65.6549 63.8345 65.6822 63.6967C65.7096 63.5589 65.746 63.4211 65.7278 63.32C65.6549 63.2282 65.7004 63.0904 65.746 62.9709C65.7734 62.9066 65.7916 62.8515 65.8007 62.7964C65.8007 62.7688 65.8007 62.7413 65.8007 62.7137C65.8007 62.6862 65.7825 62.677 65.7643 62.6586C65.8007 62.53 65.7369 62.4014 65.7916 62.282C65.427 62.1625 65.7916 62.0431 65.8281 61.9237C65.8828 61.8042 65.5911 61.694 65.8645 61.5838C65.5911 61.4735 65.8281 61.3725 65.901 61.2622C65.983 61.1612 65.7825 61.0601 65.9375 60.9683C65.746 60.8764 66.0469 60.7845 65.9739 60.7019C66.1016 60.6192 65.9739 60.5365 66.0195 60.4538C65.9739 60.3803 65.9922 60.3068 66.0651 60.2333C66.0833 60.169 66.0924 60.1047 66.1107 60.0404C66.2018 59.6821 66.3021 59.48 66.4024 59.48L66.4206 59.4892Z" fill="black"/>
<path d="M39.5273 45.9115C39.6276 45.9115 39.7279 46.7107 39.819 48.1806C39.8373 48.4286 39.8464 48.6858 39.8646 48.9706C39.8919 49.2554 39.9193 49.5494 39.9102 49.8617C39.7734 50.1741 40.1563 50.514 39.9558 50.8631C39.892 51.2122 39.9558 51.5796 39.9922 51.9563C40.0378 52.3329 39.9102 52.7371 40.0287 53.1505C40.2931 53.5639 39.737 53.9957 40.0652 54.4366C40.1381 54.8776 40.1199 55.3369 40.1016 55.8054C39.9011 56.274 40.1016 56.7608 40.1381 57.2569C39.9011 57.753 40.0013 58.2674 40.1654 58.7911C39.8373 59.3147 39.8828 59.8567 40.1928 60.3987C40.2019 60.9499 40.0743 61.5103 40.2201 62.0891C40.2384 62.6586 40.3022 63.2466 40.2475 63.8437C40.4663 64.4408 40.4571 65.0471 40.2657 65.6626C40.5027 66.2781 40.4116 66.9028 40.2839 67.5459C40.2201 67.8674 40.2657 68.1889 40.3113 68.5105C40.3295 68.6666 40.3569 68.832 40.3569 68.9974V69.0892C40.3569 69.0892 40.3569 69.0984 40.3569 69.1076C40.3478 69.1168 40.3295 69.1352 40.3113 69.1627C40.3113 69.1995 40.3113 69.2362 40.3113 69.273L40.4571 69.2546H40.4845H40.6121C40.7306 69.2546 40.8491 69.2546 40.9676 69.2638C41.6331 69.3648 42.3077 69.4751 42.9914 69.2546C43.6751 69.1995 44.3679 69.1168 45.0608 69.2454C45.7627 68.9882 46.4646 69.1076 47.1757 69.2454C47.8868 69.2086 48.6069 69.3832 49.3271 69.2454C49.6917 69.2638 50.0564 69.2454 50.421 69.2178H50.5578H50.5669C50.576 69.2178 50.5851 69.2178 50.5942 69.2178C50.6125 69.2178 50.6398 69.227 50.6854 69.2546C50.6854 69.2546 50.7219 69.227 50.7401 69.1995C50.7401 69.1811 50.7583 69.1627 50.7583 69.1443C50.7583 69.126 50.7583 69.1352 50.7583 69.1076V68.9698C50.7766 68.6023 50.7583 68.2349 50.6763 67.8674C50.5122 67.1417 50.7401 66.4159 50.6763 65.6994C50.9133 64.9828 50.6033 64.2755 50.6763 63.5681C50.6489 62.8607 50.813 62.1717 50.6854 61.4827C50.6398 60.7937 50.5942 60.1139 50.6945 59.4433C50.3299 58.7727 50.7857 58.1021 50.7127 57.4498C50.8677 56.7976 50.6854 56.1453 50.731 55.5115C50.6672 54.8776 50.8951 54.2437 50.7492 53.6282C50.7766 53.0127 50.6307 52.4064 50.7766 51.8093C50.5942 51.2122 50.9315 50.6242 50.8039 50.0546C50.8039 49.4851 50.7948 48.9155 50.8312 48.3735C50.968 48.0979 50.9862 47.8315 50.9589 47.5559C50.9498 47.4181 50.9224 47.2895 50.9042 47.1517C50.9042 47.0874 50.8859 47.0231 50.8768 46.9496V46.9037L50.8677 46.8853C50.8677 46.8761 50.8677 46.8577 50.8677 46.8485C50.8859 46.7475 50.8404 46.674 50.8221 46.6189C50.731 46.6372 50.6854 46.6372 50.6216 46.5362C50.5942 46.5362 50.576 46.5362 50.5487 46.527C50.5487 46.527 50.5487 46.527 50.5304 46.527H50.4848L50.3937 46.5178C50.2752 46.4994 50.1475 46.4903 50.029 46.4811C49.792 46.4627 49.555 46.4535 49.318 46.5178C48.8531 46.5637 48.3973 46.1044 47.9597 46.4811C47.5221 46.5454 47.0937 46.1871 46.6834 46.4443C46.2732 46.674 45.8812 46.4168 45.4983 46.4076C45.1246 46.3984 44.7599 46.38 44.4135 46.3708C41.2958 46.2514 39.5091 46.1044 39.5091 45.9482C39.5091 45.7737 41.7152 45.6175 45.4983 45.4889C45.8812 45.4797 46.2732 45.2776 46.6834 45.4522C47.0937 45.4522 47.513 45.3052 47.9597 45.4154C48.3973 45.149 48.8531 45.3695 49.318 45.3787C49.555 45.3787 49.792 45.3879 50.029 45.3971C50.1475 45.3971 50.2752 45.3971 50.3937 45.3971C50.4666 45.3971 50.5304 45.3879 50.6033 45.3787C50.7036 45.3787 50.8039 45.3603 50.9133 45.3511C51.3235 45.2776 51.752 45.296 52.144 45.3144C52.1166 45.7921 52.0893 46.233 52.144 46.674C52.144 46.7291 52.1257 46.7842 52.1166 46.8393V46.922L52.0893 46.9771C52.071 47.0415 52.0619 47.1058 52.0528 47.1792C52.0346 47.3079 52.0346 47.4457 52.0346 47.5835C52.0346 47.8499 52.0893 48.1255 52.1622 48.4011C52.0072 48.9523 52.1987 49.5126 52.1895 50.0822C51.9434 50.6518 52.1166 51.2397 52.2169 51.8368C52.3081 52.434 52.1804 53.0403 52.2442 53.6558C52.1987 54.2713 52.3081 54.896 52.2625 55.539C52.3719 56.1729 52.4174 56.8251 52.2807 57.4774C52.3628 58.1296 52.2989 58.8003 52.2989 59.4709C52.3992 60.1415 52.2898 60.8213 52.3081 61.5103C52.3536 62.1993 52.0528 62.8975 52.3172 63.5957C52.3536 64.303 52.2716 65.0104 52.3172 65.7269C52.2807 66.4435 52.2442 67.1692 52.3172 67.895C52.1895 68.2624 52.1622 68.6299 52.1804 68.9974C52.1987 69.2821 52.2169 69.5761 52.2351 69.8701C52.2625 70.2284 52.2898 70.5866 52.3172 70.9449C51.989 70.9633 51.6426 70.9725 51.2962 70.9817H50.7674H50.3754C50.0108 70.9817 49.6462 70.9541 49.2815 70.9357C48.5613 70.9633 47.8412 70.9449 47.1301 70.9357C46.4191 71.0092 45.7171 70.8255 45.0152 70.9357C44.3133 71.046 43.6295 70.8163 42.9458 70.9265C42.2621 71 41.5875 71.046 40.9221 70.9173C40.8036 70.9173 40.685 70.9173 40.5665 70.899H40.4754L40.4571 70.8898H40.4207H40.3386L40.0196 70.8714C39.6002 70.8439 39.2174 70.8163 38.8071 70.8163C38.8071 70.4948 38.7798 70.2008 38.716 69.8885C38.716 69.7415 38.6977 69.5945 38.6886 69.4475L38.6704 69.2178V69.1627L38.6613 69.1352V69.0708C38.6248 68.9055 38.5884 68.7493 38.5701 68.584C38.5337 68.2624 38.5519 67.9409 38.7342 67.6194C38.643 66.9855 38.9074 66.3516 38.7524 65.7361C39.0168 65.1206 38.7707 64.5143 38.7798 63.9172C38.8345 63.3201 38.9256 62.7321 38.8071 62.1625C38.6795 61.593 38.8801 61.0234 38.8345 60.4722C38.6795 59.921 39.035 59.3882 38.8618 58.8646C38.8983 58.3409 38.8345 57.8265 38.8983 57.3304C38.5337 56.8343 38.8983 56.3474 38.9348 55.8789C38.9895 55.4104 38.6977 54.9511 38.9712 54.5101C38.6977 54.0692 38.9348 53.6374 39.0077 53.224C39.0897 52.8106 38.8892 52.4156 39.0442 52.0298C38.8527 51.6439 39.1535 51.2856 39.0806 50.9366C39.2082 50.5875 39.0806 50.2567 39.1262 49.9352C39.0806 49.6229 39.0989 49.3197 39.1718 49.0441C39.19 48.7593 39.1991 48.5021 39.2174 48.2541C39.3085 46.7934 39.4088 45.985 39.5 45.985L39.5273 45.9115Z" fill="black"/>
</g>
<defs>
<clipPath id="clip0_3256_38428">
<rect width="79" height="55" fill="white" transform="translate(0 16)"/>
</clipPath>
</defs>
</svg>
