<svg width="71" height="80" viewBox="0 0 71 80" fill="none" xmlns="http://www.w3.org/2000/svg">
<rect x="11" y="26" width="60" height="52" rx="5" fill="#FFFF66"/>
<g clip-path="url(#clip0_3267_38689)">
<path d="M38.8204 25.3447C38.9045 25.3447 38.9887 26.7579 39.0652 29.3399C39.0729 29.7677 39.0882 30.2336 39.1035 30.7302C39.1264 31.2267 39.1494 31.7538 39.1417 32.3038C39.027 32.8614 39.3484 33.4496 39.18 34.0608C39.1264 34.6795 39.18 35.3212 39.2106 35.9934C39.2489 36.6656 39.1417 37.3684 39.2412 38.0941C39.4631 38.8198 38.9964 39.5761 39.2718 40.3553C39.3331 41.1344 39.3177 41.9442 39.3024 42.7768C39.1341 43.6095 39.3024 44.465 39.3331 45.3435C39.1341 46.222 39.2183 47.1234 39.356 48.0553C39.0805 48.9797 39.1264 49.9269 39.379 50.897C39.3866 51.8672 39.2795 52.8603 39.4019 53.8686C39.4172 54.877 39.4708 55.9082 39.4249 56.9624C39.6085 58.0166 39.6009 59.086 39.4478 60.1708C39.6468 61.2555 39.5703 62.3631 39.4631 63.4861C39.4172 63.9444 39.4402 64.4027 39.4631 64.8687L39.4861 65.2201V65.3958L39.5014 65.4798V65.4951C39.5014 65.4951 39.5244 65.5562 39.5244 65.5944C39.5473 65.5944 39.5626 65.6097 39.6009 65.6403H39.6238H39.6927H39.907C40.0524 65.6403 40.1977 65.6403 40.3431 65.6403C40.6339 65.6403 40.9247 65.6326 41.2231 65.625C41.8124 65.6173 42.4016 65.6097 42.9908 65.625C44.1769 65.709 45.3783 65.793 46.595 65.6173C47.8117 65.5715 49.0437 65.5028 50.2833 65.6097C51.523 65.3958 52.7779 65.4951 54.0482 65.6097C55.3108 65.5715 56.5887 65.7243 57.8819 65.6097C58.5247 65.625 59.1751 65.6097 59.8179 65.5868C60.1393 65.5868 60.4684 65.5715 60.7898 65.5715H60.9122H60.9734C60.9734 65.5715 60.9887 65.5715 61.004 65.5715C61.027 65.5715 61.0499 65.5868 61.0805 65.5944C61.0805 65.5944 61.0958 65.5562 61.1035 65.5333V65.4875L61.1188 65.4798V65.4187L61.1264 65.2965C61.1417 64.968 61.1494 64.6472 61.1494 64.3264C61.1494 63.677 61.1417 63.0354 61.0805 62.3937C60.9428 61.1103 61.1341 59.8346 61.0805 58.5666C61.2795 57.3061 61.0193 56.0533 61.0805 54.8082C61.0652 53.5707 61.1953 52.3408 61.0882 51.1262C61.0499 49.9116 61.0117 48.7123 61.0958 47.5283C60.7897 46.3442 61.1724 45.1678 61.1111 44.0143C61.2412 42.8608 61.0958 41.7226 61.1264 40.5997C61.0729 39.4768 61.2642 38.3691 61.1417 37.2844C61.1647 36.1997 61.0423 35.1302 61.1647 34.076C61.0117 33.0219 61.2948 31.9982 61.1877 30.9822C61.1877 29.9739 61.18 28.9808 61.2106 28.0107C61.3177 27.56 61.3407 27.1169 61.3254 26.6739C61.3254 26.5669 61.3178 26.4523 61.3101 26.3454V26.185C61.3101 26.185 61.2948 26.1621 61.2948 26.1544V26.1391L61.2871 26.1086C61.2718 26.0246 61.2565 25.9558 61.2489 25.8871C61.2183 25.8871 61.1953 25.8871 61.1724 25.8871C61.1341 25.8871 61.0958 25.8871 61.0499 25.8871H60.9887H60.9734H60.9504H60.8663C60.6367 25.8947 60.4071 25.91 60.1852 25.9176C59.7337 25.9329 59.2899 25.9329 58.8461 25.8565C57.9661 25.8336 57.1091 25.7343 56.275 25.8259C55.4409 25.8641 54.6374 25.4822 53.8569 25.7954C53.0764 25.8489 52.3188 25.5509 51.5918 25.7648C50.8649 25.9634 50.1609 25.7419 49.4875 25.7343C48.8141 25.719 48.1637 25.7114 47.5515 25.7037C44.7814 25.6502 42.5929 25.5968 41.1084 25.5357C39.6162 25.4746 38.828 25.4134 38.828 25.3523C38.828 25.2836 39.8075 25.2148 41.6364 25.1461C43.4576 25.085 46.1282 25.0239 49.4951 24.9704C50.1685 24.9551 50.8725 24.7947 51.5995 24.9398C52.3264 24.9398 53.084 24.8176 53.8645 24.9093C54.6451 24.6877 55.4562 24.8711 56.2826 24.8787C57.1167 24.8711 57.9738 24.9398 58.8538 24.8482C59.2899 24.787 59.7414 24.8023 60.1929 24.8176C60.4148 24.8252 60.6444 24.8405 60.8739 24.8405H61.0958H61.379C61.5703 24.8405 61.7616 24.8329 61.9682 24.8176C62.0753 24.8252 62.1824 24.8329 62.2819 24.8482C62.259 25.2301 62.236 25.5815 62.2284 25.9252C62.2284 26.0628 62.2284 26.2003 62.2284 26.3378C62.2284 26.4447 62.2284 26.5593 62.2284 26.6662C62.2437 27.1093 62.2743 27.5524 62.3355 28.0031C62.2054 28.9732 62.3661 29.9586 62.3584 30.9746C62.1518 31.983 62.2972 33.0142 62.3814 34.0684C62.4579 35.1226 62.3508 36.192 62.3967 37.2768C62.3584 38.3615 62.4503 39.4691 62.412 40.5921C62.5038 41.715 62.5421 42.8532 62.4273 44.0067C62.4962 45.1602 62.4426 46.3366 62.4426 47.5206C62.5191 48.7047 62.435 49.904 62.4503 51.1186C62.4962 52.3332 62.236 53.563 62.4579 54.8006C62.4885 56.0381 62.4197 57.2909 62.4579 58.5589C62.4273 59.827 62.3967 61.1027 62.4579 62.3861C62.3508 63.0277 62.3278 63.677 62.3431 64.3187C62.3508 64.6396 62.3661 64.968 62.3891 65.2889V65.4111L62.4044 65.4722V65.5868L62.4273 66.0375C62.435 66.3507 62.4503 66.6639 62.4579 66.9694C62.1518 66.9694 61.8457 66.9847 61.5397 66.9924C61.2871 66.9924 61.027 66.9924 60.7744 67.0076C60.4454 67.0076 60.124 67.0076 59.8026 67.0076C59.1522 67.0076 58.5094 66.9847 57.8666 66.9694C56.5811 66.9924 55.3031 66.9771 54.0329 66.9694C52.7703 67.0306 51.5153 66.8778 50.268 66.9694C49.0284 67.0611 47.7964 66.8701 46.5797 66.9618C45.363 67.0229 44.1616 67.0611 42.9755 66.9542C42.3786 66.9542 41.7894 66.9007 41.2078 66.8778C40.9171 66.8625 40.6263 66.8549 40.3278 66.8625C40.1824 66.8625 40.0371 66.8778 39.8917 66.8854C39.8228 66.8854 39.7463 66.9007 39.6774 66.9083H39.6238L39.532 66.9236L39.3331 66.9389C38.9428 66.9465 38.5449 66.9618 38.124 66.9771C38.1011 66.5417 38.0858 66.0986 38.0628 65.6632V65.4951L38.0475 65.4035V65.2278C38.0322 65.1132 38.0245 64.9986 38.0245 64.8764C38.0169 64.4104 38.0475 63.952 38.1776 63.4937C38.1011 62.3708 38.323 61.2631 38.1929 60.1784C38.4224 59.0937 38.2082 58.0242 38.2158 56.97C38.2617 55.9158 38.3383 54.8922 38.2388 53.8762C38.1317 52.8679 38.3 51.8748 38.2617 50.9047C38.1317 49.9345 38.4301 48.9873 38.2847 48.063C38.3153 47.1387 38.2617 46.2373 38.3077 45.3512C38.0016 44.4727 38.3077 43.6171 38.3383 42.7845C38.3842 41.9518 38.1393 41.1497 38.3689 40.3629C38.1393 39.5837 38.3383 38.8275 38.3995 38.1018C38.4684 37.3761 38.3 36.6733 38.4301 36.0011C38.2694 35.3288 38.5219 34.6871 38.4607 34.0684C38.5678 33.4496 38.4607 32.8691 38.4913 32.3114C38.4531 31.7538 38.4684 31.2267 38.5296 30.7378C38.5449 30.2413 38.5525 29.7829 38.5678 29.3475C38.6444 26.7655 38.7209 25.3523 38.8127 25.3523L38.8204 25.3447Z" fill="black"/>
<path d="M4.04887 25.3447C4.13305 25.3447 4.21722 26.7579 4.29374 29.3399C4.30139 29.7677 4.3167 30.2336 4.332 30.7302C4.35496 31.2267 4.37792 31.7538 4.37026 32.3038C4.25548 32.8614 4.57687 33.4496 4.40852 34.0608C4.35496 34.6795 4.40852 35.3212 4.43913 35.9934C4.47739 36.6657 4.37026 37.3684 4.46974 38.0941C4.684 38.8198 4.22487 39.5761 4.50035 40.3553C4.56157 41.1344 4.54626 41.9442 4.53096 42.7692C4.36261 43.6018 4.53096 44.4574 4.56157 45.3359C4.36261 46.2144 4.44679 47.1158 4.58452 48.0401C4.30905 48.9644 4.34731 49.9116 4.60748 50.8818C4.61513 51.8519 4.508 52.845 4.63044 53.8533C4.64574 54.8617 4.69931 55.8929 4.65339 56.9471C4.83705 58.0013 4.82939 59.0708 4.6687 60.1555C4.86765 61.2402 4.79113 62.3479 4.684 63.4708C4.63809 63.9291 4.66105 64.3875 4.684 64.8535L4.70696 65.2048V65.3805L4.72226 65.4646V65.4798C4.72226 65.4798 4.74522 65.541 4.74522 65.5792C4.76818 65.5792 4.79113 65.5944 4.82174 65.625H4.8447H4.91357H5.12783C5.27322 65.625 5.41861 65.625 5.564 65.625C5.85479 65.625 6.14557 65.6173 6.444 65.6097C7.03322 65.6021 7.62244 65.5944 8.21165 65.6097C9.39774 65.6937 10.6068 65.7778 11.8158 65.6021C13.0325 65.5562 14.2645 65.4875 15.5042 65.5944C16.7438 65.3805 17.9988 65.4798 19.269 65.5944C20.5317 65.5562 21.8096 65.709 23.1028 65.5944C23.7456 65.6097 24.396 65.5944 25.0388 65.5715C25.3602 65.5715 25.6892 65.5562 26.0106 65.5562H26.133H26.1943C26.1943 65.5562 26.2096 65.5562 26.2249 65.5562C26.2478 65.5562 26.2708 65.5715 26.309 65.5792C26.309 65.5792 26.3244 65.541 26.332 65.518V65.4722L26.3473 65.4646V65.4035V65.2812C26.3626 64.9528 26.3703 64.6319 26.3779 64.3111C26.3779 63.6618 26.3703 63.0201 26.309 62.3784C26.1713 61.0951 26.3626 59.8194 26.309 58.5513C26.508 57.2909 26.2478 56.0381 26.309 54.7929C26.2861 53.5554 26.4238 52.3255 26.3167 51.1109C26.2784 49.8963 26.2402 48.697 26.3244 47.513C26.0183 46.329 26.4009 45.1525 26.3397 43.9991C26.4697 42.8456 26.3167 41.6997 26.355 40.5768C26.3014 39.4539 26.4927 38.3462 26.3703 37.2615C26.3932 36.1768 26.2708 35.1073 26.3932 34.0531C26.2402 33.0066 26.5157 31.9677 26.4162 30.9593C26.4162 29.951 26.4085 28.9579 26.4391 27.9878C26.5463 27.5371 26.5692 27.094 26.5539 26.6586C26.5539 26.5517 26.5463 26.4371 26.5386 26.3301V26.1697L26.5233 26.1468V26.1315L26.5157 26.101C26.5004 26.0169 26.485 25.9482 26.4774 25.8794C26.4468 25.8794 26.4238 25.8794 26.4009 25.8794C26.3626 25.8794 26.3244 25.8794 26.2784 25.8794H26.2172H26.2019C26.2019 25.8794 26.2019 25.8794 26.179 25.8794H26.0948C25.8652 25.8947 25.6357 25.9023 25.4137 25.91C24.9623 25.9253 24.5184 25.9253 24.0746 25.8489C23.1946 25.826 22.3376 25.7266 21.5035 25.8183C20.6694 25.8565 19.8659 25.4746 19.0854 25.7878C18.3049 25.8412 17.5473 25.5433 16.8204 25.7572C16.0934 25.9558 15.3894 25.7343 14.716 25.7266C14.0426 25.7114 13.3922 25.7037 12.78 25.6961C10.0023 25.6426 7.82139 25.5891 6.33687 25.528C4.8447 25.4669 4.05652 25.4058 4.05652 25.3447C4.05652 25.2759 5.036 25.2072 6.86487 25.1384C8.68609 25.0773 11.3567 25.0162 14.7237 24.9627C15.397 24.9475 16.101 24.7871 16.828 24.9322C17.555 24.9322 18.3125 24.81 19.093 24.9016C19.8736 24.6801 20.6847 24.8634 21.5111 24.8711C22.3452 24.8634 23.2023 24.9322 24.0823 24.8405C24.5261 24.7794 24.9699 24.7947 25.4214 24.81C25.651 24.8176 25.8729 24.8329 26.1024 24.8329H26.3167H26.5998C26.7911 24.8329 26.9824 24.8252 27.189 24.81C27.2962 24.8176 27.4033 24.8252 27.5104 24.8405C27.4875 25.2225 27.4645 25.5739 27.4569 25.9176C27.4569 26.0551 27.4569 26.1926 27.4492 26.3301C27.4492 26.4371 27.4492 26.5517 27.4492 26.6586C27.4569 27.094 27.4951 27.5447 27.5564 27.9878C27.4263 28.9579 27.587 29.951 27.5793 30.9593C27.3727 31.9677 27.5181 32.9989 27.6023 34.0531C27.6788 35.1073 27.5717 36.1768 27.6252 37.2615C27.587 38.3462 27.6788 39.4539 27.6405 40.5768C27.7324 41.6997 27.7706 42.8379 27.6558 43.9991C27.717 45.1525 27.6711 46.329 27.6711 47.513C27.7553 48.697 27.6635 49.8963 27.6788 51.1109C27.7247 52.3255 27.4645 53.5554 27.6864 54.7929C27.717 56.0304 27.6482 57.2832 27.6864 58.5513C27.6558 59.8194 27.6329 61.0874 27.6864 62.3784C27.5793 63.0201 27.5564 63.6694 27.5717 64.3111C27.5793 64.6319 27.6023 64.9604 27.6176 65.2812V65.4035L27.6329 65.4646V65.5715L27.6558 66.0222C27.6711 66.3354 27.6788 66.6486 27.6864 66.9542C27.3804 66.9542 27.0743 66.9694 26.7682 66.9771C26.5157 66.9771 26.2555 66.9771 26.003 66.9924C25.6739 66.9924 25.3525 66.9924 25.0311 66.9924C24.3807 66.9924 23.7379 66.9694 23.0951 66.9542C21.8096 66.9771 20.5317 66.9618 19.2614 66.9542C17.9988 67.0153 16.7438 66.8625 15.4965 66.9542C14.2569 67.0458 13.0249 66.8549 11.8082 66.9465C10.5915 67.0076 9.39009 67.0458 8.204 66.9389C7.60713 66.9389 7.01792 66.8854 6.43635 66.8625C6.14557 66.8472 5.85479 66.8396 5.55635 66.8472C5.41096 66.8472 5.26557 66.8625 5.12018 66.8701C5.05131 66.8701 4.97479 66.8854 4.90592 66.8931H4.85235L4.76052 66.9083L4.56157 66.9236C4.17131 66.9313 3.76574 66.9465 3.35252 66.9618C3.32957 66.5264 3.31426 66.0833 3.29131 65.6479V65.4798L3.276 65.3882V65.2125C3.2607 65.0979 3.25305 64.9833 3.25305 64.8611C3.24539 64.3951 3.276 63.9368 3.40609 63.4784C3.32957 62.3555 3.55148 61.2479 3.42139 60.1631C3.64331 59.0784 3.42905 58.0089 3.44435 56.9548C3.49026 55.9006 3.56679 54.8693 3.46731 53.861C3.36018 52.8526 3.52852 51.8596 3.49026 50.8894C3.36018 49.9193 3.65861 48.972 3.51322 48.0477C3.54383 47.1234 3.49026 46.222 3.54383 45.3435C3.23774 44.465 3.54383 43.6095 3.57444 42.7768C3.62035 41.9442 3.37548 41.1421 3.60505 40.3629C3.37548 39.5837 3.57444 38.8275 3.63565 38.1018C3.70452 37.3761 3.53618 36.6733 3.66626 36.0011C3.50557 35.3288 3.75809 34.6872 3.69687 34.0684C3.804 33.4496 3.69687 32.8691 3.73513 32.3114C3.69687 31.7538 3.71218 31.2267 3.77339 30.7378C3.7887 30.2413 3.79635 29.7829 3.81165 29.3475C3.88818 26.7655 3.9647 25.3523 4.04887 25.3523V25.3447Z" fill="black"/>
<path d="M26.9971 18.1106C27.0812 18.1106 27.1654 19.4398 27.2343 21.8613C27.2496 22.2662 27.2572 22.7016 27.2725 23.1676C27.2955 23.6336 27.3184 24.1225 27.3108 24.6495C27.196 25.169 27.5174 25.719 27.3491 26.2996C27.2955 26.8801 27.3491 27.4836 27.3797 28.1176C27.4179 28.7517 27.3108 29.4086 27.4103 30.0885C27.6322 30.776 27.1654 31.4788 27.4409 32.2121C27.5021 32.9455 27.4868 33.7017 27.4715 34.4809C27.3031 35.2601 27.4715 36.0622 27.5021 36.8948C27.3031 37.7198 27.3873 38.5678 27.5327 39.4386C27.2572 40.3094 27.2955 41.1956 27.5557 42.1122C27.5633 43.0213 27.4562 43.9532 27.5786 44.9081C27.5939 45.8553 27.6475 46.8255 27.6016 47.8109C27.7852 48.7963 27.7776 49.8047 27.6245 50.8283C27.8235 51.8519 27.747 52.8908 27.6398 53.945C27.5251 54.9992 27.8158 56.0686 27.6551 57.1534C27.6398 58.2381 27.7011 59.3381 27.6704 60.4534C27.5863 61.5687 27.5021 62.6993 27.6858 63.8375C27.7011 64.2423 27.7164 64.6472 27.7317 65.0521V65.3576L27.7393 65.434V65.4722C27.7393 65.4722 27.7393 65.4722 27.7393 65.4798V65.4951C27.7393 65.4951 27.7393 65.5257 27.7393 65.5486C27.7546 65.5486 27.7623 65.5562 27.7776 65.5639L27.8082 65.5792C27.8082 65.5792 27.8311 65.5792 27.8541 65.5792H27.9153L28.0454 65.5944C29.2162 65.3805 30.3946 65.4798 31.5807 65.5944C32.7668 65.5562 33.9682 65.709 35.1849 65.5944C35.7894 65.6097 36.4016 65.5944 37.0061 65.5715C37.3122 65.5715 37.6183 65.5562 37.9244 65.5562H38.0391C38.0391 65.5562 38.0544 65.5562 38.0621 65.5562C38.0621 65.5562 38.0774 65.5562 38.0851 65.5562C38.1004 65.5562 38.131 65.5715 38.1616 65.5792C38.1616 65.5792 38.1769 65.5486 38.1845 65.5257V65.4875C38.1845 65.4875 38.1998 65.4875 38.1998 65.4569V65.3423C38.2151 65.0368 38.2304 64.7312 38.2304 64.4257C38.2381 63.8146 38.2304 63.2111 38.1616 62.6076C38.0238 61.4006 38.2151 60.2013 38.1616 59.0096C38.3605 57.818 38.1004 56.6416 38.1616 55.4804C38.1386 54.3117 38.2764 53.1582 38.1692 52.02C38.131 50.8818 38.0927 49.7512 38.1769 48.6359C37.8708 47.5206 38.2534 46.4206 38.1922 45.3359C38.3223 44.2511 38.1692 43.1817 38.2075 42.1275C38.1463 41.0733 38.3452 40.0344 38.2228 39.0108C38.2458 37.9872 38.1233 36.9865 38.2381 35.9934C38.0851 35.008 38.3682 34.0378 38.2611 33.0906C38.2611 32.1434 38.2534 31.2114 38.284 30.3024C38.5212 29.3933 38.3223 28.4996 38.307 27.6287C38.3299 26.7579 38.1769 25.91 38.3376 25.085C38.3529 24.26 38.46 23.4579 38.3682 22.6711C38.3299 21.8919 38.7125 21.1356 38.3988 20.4023C38.3682 20.0356 38.4294 19.6766 38.4753 19.3175C38.483 19.2335 38.4983 19.1419 38.4983 19.0502V18.9203L38.5059 18.8745V18.8363C38.5059 18.737 38.483 18.6377 38.4294 18.5918C38.4141 18.5766 38.3988 18.5613 38.3911 18.546C38.2917 18.5766 38.2304 18.5842 38.1692 18.5842C38.1386 18.5842 38.108 18.5842 38.0774 18.5766C38.0621 18.5766 38.0544 18.5766 38.0238 18.5689H37.9091C37.6106 18.5231 37.3122 18.4773 37.0214 18.4773C36.3863 18.462 35.7818 18.4543 35.2002 18.4467C32.5908 18.3932 30.5477 18.3398 29.1473 18.2786C27.747 18.2175 27.0047 18.1564 27.0047 18.0953C27.0047 18.0266 27.9306 17.9578 29.6371 17.8891C31.3511 17.8279 33.8534 17.7668 37.0214 17.7134C37.3122 17.7134 37.6106 17.6675 37.9091 17.6446H38.0238L38.1998 17.6293C38.3223 17.6293 38.4447 17.6293 38.5671 17.6293C38.812 17.6293 39.0645 17.6293 39.2864 17.6599C39.2788 17.7592 39.2711 17.8509 39.2558 17.9502C39.2558 18.2099 39.2635 18.4696 39.2711 18.7446V18.9356L39.2864 19.0655C39.2864 19.1495 39.2941 19.2412 39.3018 19.3328C39.3247 19.6842 39.3324 20.0509 39.2788 20.4176C39.5007 21.1509 39.3171 21.9072 39.3094 22.6863C39.3171 23.4655 39.2482 24.2676 39.34 25.1002C39.4701 25.9253 39.2788 26.7732 39.363 27.644C39.2252 28.5149 39.2635 29.401 39.3859 30.3177C39.2558 31.2267 39.4165 32.1587 39.4089 33.1059C39.2023 34.0531 39.3477 35.0233 39.4318 36.0087C39.5084 36.9941 39.4012 38.0025 39.4548 39.0185C39.4165 40.0421 39.5084 41.081 39.4701 42.1352C39.5619 43.1893 39.6002 44.2588 39.4854 45.3435C39.5466 46.4283 39.5007 47.5283 39.5007 48.6436C39.5849 49.7588 39.4931 50.8894 39.5084 52.0276C39.5543 53.1658 39.2941 54.3193 39.516 55.4881C39.5466 56.6568 39.4778 57.8332 39.516 59.0173C39.4854 60.2013 39.4548 61.4006 39.516 62.6152C39.4089 63.2187 39.3859 63.8298 39.4012 64.4333C39.4089 64.7389 39.4318 65.0444 39.4471 65.35V65.4646L39.4624 65.6632L39.4778 66.091C39.4854 66.3812 39.5007 66.6792 39.5084 66.9694C39.2252 66.9694 38.9344 66.9847 38.6513 66.9924C38.3988 66.9924 38.1386 66.9924 37.8861 67.0076C37.58 67.0076 37.2739 67.0076 36.9678 67.0076C36.3557 67.0076 35.7511 66.9847 35.1466 66.9694C33.9376 66.9924 32.7362 66.9771 31.5424 66.9694C30.3487 67.0306 29.1703 66.8778 28.0071 66.9694H27.8771L27.8158 66.9847H27.7317L27.2419 66.9924C26.9129 66.9924 26.5838 66.9924 26.2624 66.9924C26.2701 66.6028 26.2777 66.2132 26.2854 65.8312V65.5486L26.3007 65.3729L26.316 65.0673C26.3313 64.6625 26.3313 64.2576 26.3007 63.8527C26.2395 62.7145 26.2012 61.584 26.3084 60.4687C26.3084 59.3534 26.5073 58.2534 26.3237 57.1686C26.2778 56.0839 26.0329 55.0145 26.339 53.9603C26.2624 52.9061 26.492 51.8672 26.3543 50.8436C26.5762 49.82 26.3619 48.8193 26.3696 47.8262C26.4155 46.8408 26.492 45.8706 26.3925 44.9234C26.2854 43.9761 26.4538 43.0442 26.4155 42.1275C26.2854 41.2185 26.5838 40.3247 26.4384 39.4539C26.4691 38.583 26.4155 37.7351 26.4614 36.9101C26.1553 36.0851 26.4614 35.283 26.492 34.4962C26.5379 33.717 26.2931 32.9607 26.5226 32.2274C26.2931 31.4941 26.492 30.7836 26.5532 30.1038C26.6221 29.4239 26.4538 28.7593 26.5838 28.1329C26.4231 27.4989 26.6757 26.8954 26.6144 26.3148C26.7216 25.7343 26.6144 25.1843 26.6451 24.6648C26.6068 24.1454 26.6221 23.6488 26.6833 23.1829C26.6986 22.7169 26.7063 22.2815 26.7216 21.8766C26.7981 19.455 26.8746 18.1259 26.9664 18.1259L26.9971 18.1106Z" fill="black"/>
<path d="M38.82 18.1106C38.9042 18.1106 38.9884 18.8516 39.0649 20.2189C39.0725 20.4481 39.0878 20.6926 39.1031 20.9523C39.1261 21.212 39.1491 21.487 39.1414 21.7849C39.0266 22.0752 39.348 22.3884 39.1797 22.7092C39.1261 23.0377 39.1797 23.3738 39.2103 23.7252C39.2332 23.9009 39.2103 24.0843 39.2026 24.2676C39.2026 24.3593 39.195 24.4509 39.2026 24.5502C39.2026 24.6037 39.2179 24.6572 39.2485 24.6954C39.348 24.7412 39.3097 24.8023 39.2638 24.9322C39.2868 24.9627 39.3251 24.9933 39.3863 25.0009C39.4475 25.0009 39.5317 24.9857 39.5929 24.9169H39.6311L39.6464 24.9016H39.6847L39.8377 24.8863C39.9449 24.8863 40.052 24.8787 40.1515 24.8787C40.3657 24.8787 40.58 24.8787 40.8019 24.894C41.2381 25.062 41.6896 24.894 42.1564 24.8634C42.6231 25.062 43.0976 24.978 43.5873 24.8405C44.077 25.1155 44.5744 25.0773 45.0871 24.8176C45.5998 24.81 46.1202 24.9169 46.6558 24.7947C47.1915 24.7794 47.7348 24.7259 48.2934 24.7718C48.8444 24.5884 49.4106 24.5961 49.9922 24.7565C50.5661 24.5579 51.1477 24.6343 51.7445 24.7412C52.3414 24.8482 52.9383 24.5655 53.5504 24.7259C54.1626 24.7412 54.7824 24.6801 55.4023 24.7107C56.0297 24.7947 56.6649 24.8787 57.3077 24.703C57.9504 24.6572 58.6009 24.5884 59.2513 24.703C59.9094 24.4891 60.5675 24.5884 61.2409 24.703C61.9066 24.6648 62.58 24.8176 63.261 24.703C63.5977 24.7183 63.9421 24.703 64.2864 24.6801H64.5237C64.5237 24.6801 64.539 24.6648 64.5466 24.6648C64.5619 24.6648 64.5849 24.6725 64.6308 24.6954C64.6308 24.6954 64.6614 24.6648 64.6767 24.6343C64.6767 24.619 64.692 24.6037 64.692 24.5808C64.692 24.5808 64.692 24.5502 64.692 24.535V24.4738V24.344C64.6997 24.0002 64.692 23.6641 64.6231 23.3204C64.4854 22.6405 64.6767 21.9683 64.6231 21.3037C64.8221 20.6391 64.5619 19.9745 64.6231 19.3252C64.6231 19.2259 64.6231 19.1266 64.6231 19.0273V18.9509V18.9356L64.6308 18.905C64.6384 18.8668 64.6537 18.821 64.6614 18.7675C64.6155 18.7599 64.539 18.7675 64.493 18.8057C64.5007 18.8057 64.4471 18.8057 64.4089 18.8057H64.2864L64.0492 18.821C63.8885 18.821 63.7278 18.8363 63.5748 18.8363C63.2611 18.8363 62.9397 18.8286 62.6259 18.7828C61.9984 19.0884 61.3786 18.7064 60.7741 18.7675C60.1619 18.6377 59.5574 18.7828 58.9682 18.7523C58.3713 18.8057 57.7897 18.6148 57.2158 18.737C56.6419 18.7141 56.0757 18.8363 55.5171 18.7217C54.9661 18.8745 54.4151 18.5918 53.8871 18.6988C53.3515 18.6988 52.8311 18.7064 52.3184 18.6759C51.8057 18.4391 51.3084 18.6377 50.8186 18.6529C50.3289 18.63 49.8544 18.7904 49.3877 18.63C48.9209 18.6071 48.4694 18.5078 48.0332 18.5995C47.5971 18.6377 47.1685 18.2557 46.7553 18.5689C46.3421 18.6224 45.9442 18.3245 45.5616 18.5384C45.179 18.737 44.804 18.5154 44.452 18.5078C44.1 18.4925 43.7557 18.4849 43.4343 18.4773C40.5111 18.3779 38.8277 18.2557 38.8277 18.1259C38.8277 17.9807 40.9014 17.8509 44.452 17.7439C44.804 17.7363 45.179 17.5682 45.5616 17.7134C45.9442 17.7134 46.3421 17.5835 46.7553 17.6828C47.1685 17.4613 47.5894 17.6446 48.0332 17.6522C48.4694 17.6446 48.9209 17.7134 49.3877 17.6217C49.8544 17.4918 50.3289 17.6828 50.8186 17.5988C51.3084 17.7363 51.8057 17.6981 52.3184 17.5759C52.8311 17.7057 53.3515 17.5453 53.8871 17.5529C54.4228 17.7515 54.9661 17.614 55.5171 17.53C56.0757 17.4536 56.6343 17.5606 57.2082 17.5147C57.7821 17.5529 58.3713 17.4613 58.9605 17.4995C59.5497 17.4002 60.1543 17.3696 60.7664 17.4842C61.3786 17.4154 61.9984 17.4689 62.6183 17.4689C62.932 17.4307 63.2457 17.4307 63.5671 17.4384C63.7278 17.4384 63.8809 17.446 64.0416 17.4536H64.2788H64.5543C65.0211 17.4384 65.4878 17.4689 65.9164 17.4918C65.8934 17.8738 65.8704 18.2252 65.8704 18.5766C65.8704 18.6606 65.8704 18.7523 65.8704 18.8363V18.8974V18.928V18.9432L65.8857 19.0196C65.901 19.1189 65.924 19.2182 65.9546 19.3175C65.9852 19.9745 65.9164 20.6314 65.9546 21.296C65.924 21.9606 65.8934 22.6329 65.9546 23.3127C65.8475 23.6488 65.8245 23.9926 65.8398 24.3363C65.8781 24.9093 65.9164 25.4898 65.9546 26.0704C65.6485 26.0857 65.3195 26.1009 64.9904 26.1009H64.493H64.2176C63.8732 26.1009 63.5365 26.078 63.1922 26.0627C62.5111 26.0857 61.8377 26.0704 61.172 26.0627C60.5063 26.1315 59.8405 25.9711 59.1824 26.0627C58.5244 26.1544 57.8816 25.9634 57.2388 26.0551C56.596 26.1162 55.9609 26.1544 55.3334 26.0398C54.7059 26.0398 54.0861 25.8412 53.4816 26.0246C52.8694 26.0704 52.2725 26.3148 51.6757 26.0093C51.0788 26.0857 50.4972 25.8641 49.9233 25.994C49.3494 25.7725 48.7831 25.9864 48.2245 25.9711C47.6659 25.9252 47.1226 25.8489 46.587 25.9482C46.0513 26.0551 45.531 25.8871 45.0183 25.9252C44.5056 26.0551 44.0082 25.7572 43.5184 25.9023C43.0287 25.8718 42.5543 25.9252 42.0875 25.8718C41.6207 26.1773 41.1692 25.8718 40.7331 25.8412C40.5111 25.8183 40.2969 25.8718 40.0826 25.8947C39.9755 25.91 39.8684 25.9176 39.7689 25.9023C39.7153 25.9023 39.6617 25.8871 39.6158 25.8718L39.5776 25.8565L39.5164 25.8412C39.4781 25.8259 39.4322 25.8183 39.3939 25.803C39.0037 25.9329 38.5675 25.9252 38.2461 25.8871C38.2767 25.5586 38.3303 25.253 38.3609 24.978C38.3762 24.8252 38.3762 24.6801 38.3762 24.5426C38.3762 24.4509 38.3609 24.3593 38.3532 24.26C38.3379 24.0766 38.3303 23.8933 38.3915 23.7176C38.2308 23.3662 38.4833 23.0224 38.4221 22.7016C38.5292 22.3808 38.4221 22.0676 38.4527 21.7773C38.4144 21.487 38.4297 21.2044 38.491 20.9446C38.5063 20.6849 38.5139 20.4405 38.5292 20.2113C38.6057 18.8516 38.6823 18.1029 38.7741 18.1029L38.82 18.1106Z" fill="black"/>
<path d="M0.527038 18.1106C0.611212 18.1106 0.695386 18.8516 0.771908 20.2189C0.787212 20.4481 0.794864 20.6926 0.810168 20.9523C0.833125 21.212 0.856082 21.487 0.848429 21.7849C0.733647 22.0752 1.05504 22.3884 0.879038 22.7092C0.833125 23.0377 0.879038 23.3738 0.909647 23.7252C0.932603 23.9009 0.909647 24.0843 0.909647 24.2676C0.909647 24.3593 0.909647 24.4509 0.909647 24.5502C0.909647 24.6037 0.924951 24.6572 0.95556 24.6954C1.05504 24.7412 1.01678 24.8023 0.970864 24.9322C0.993821 24.9627 1.03208 24.9933 1.0933 25.0009C1.14686 25.0009 1.23104 24.9857 1.29991 24.9169H1.33817L1.35347 24.9016H1.39173L1.54478 24.8863C1.65191 24.8863 1.75139 24.8787 1.85852 24.8787C2.07278 24.8787 2.28704 24.8787 2.50895 24.894C2.94513 25.062 3.40426 24.894 3.86339 24.8634C4.33017 25.062 4.8046 24.978 5.29434 24.8405C5.78408 25.1155 6.28147 25.0773 6.79417 24.8176C7.30686 24.81 7.82721 24.9169 8.36287 24.7947C8.89852 24.7794 9.44182 24.7259 9.99278 24.7718C10.5514 24.5884 11.11 24.5961 11.6839 24.7565C12.2578 24.5579 12.8394 24.6343 13.4363 24.7412C14.0331 24.8482 14.63 24.5655 15.2422 24.7259C15.8543 24.7412 16.4742 24.6801 17.1016 24.7107C17.7291 24.7947 18.3643 24.8787 19.007 24.703C19.6498 24.6572 20.3003 24.5884 20.9507 24.703C21.6088 24.4891 22.2669 24.5884 22.9326 24.703C23.5983 24.6648 24.2717 24.8176 24.9528 24.703C25.2895 24.7183 25.6338 24.703 25.9782 24.6801H26.2154C26.2154 24.6801 26.2307 24.6648 26.2383 24.6648C26.2536 24.6648 26.2766 24.6725 26.3225 24.6954C26.3225 24.6954 26.3531 24.6648 26.3684 24.6343C26.3684 24.619 26.3837 24.6037 26.3837 24.5808C26.3837 24.5808 26.3837 24.5502 26.3837 24.535V24.4738V24.344C26.3837 24.0002 26.3761 23.6641 26.3149 23.3204C26.1771 22.6405 26.3684 21.9683 26.3149 21.3037C26.5138 20.6391 26.2536 19.9745 26.3149 19.3252C26.3149 19.2259 26.3149 19.1266 26.3149 19.0273V18.9509V18.9356L26.3225 18.905C26.3302 18.8668 26.3455 18.821 26.3531 18.7675C26.3072 18.7599 26.2307 18.7675 26.1848 18.8057C26.1848 18.8057 26.1389 18.8057 26.1006 18.8057H25.9782L25.741 18.821C25.5803 18.821 25.4196 18.8363 25.2665 18.8363C24.9528 18.8363 24.6314 18.8286 24.3176 18.7828C23.6902 19.0884 23.0703 18.7064 22.4582 18.7675C21.846 18.6377 21.2491 18.7828 20.6523 18.7523C20.063 18.8057 19.4738 18.6148 18.8999 18.737C18.326 18.7141 17.7597 18.8363 17.2088 18.7217C16.6502 18.8745 16.1069 18.5918 15.5712 18.6988C15.0356 18.6988 14.5152 18.7064 14.0025 18.6759C13.4898 18.4391 12.9924 18.6377 12.5027 18.6529C12.013 18.63 11.5385 18.7904 11.0717 18.63C10.605 18.6071 10.1535 18.5078 9.7173 18.5995C9.28113 18.6377 8.8526 18.2557 8.43939 18.5689C8.02617 18.6224 7.62826 18.3245 7.24565 18.5384C6.86304 18.737 6.48808 18.5154 6.13608 18.5078C5.78408 18.4925 5.43973 18.4849 5.11834 18.4773C2.19521 18.3779 0.511734 18.2557 0.511734 18.1259C0.511734 17.9807 2.58547 17.8509 6.13608 17.7439C6.49573 17.7363 6.86304 17.5682 7.24565 17.7134C7.62826 17.7134 8.02617 17.5835 8.43939 17.6828C8.8526 17.4613 9.28113 17.6446 9.7173 17.6522C10.1535 17.6446 10.6126 17.7134 11.0717 17.6217C11.5385 17.4918 12.013 17.6828 12.5027 17.5988C12.9924 17.7363 13.4898 17.6981 14.0025 17.5759C14.5152 17.7057 15.0356 17.5453 15.5712 17.5529C16.1069 17.7515 16.6502 17.614 17.2088 17.53C17.7597 17.4536 18.326 17.5606 18.8999 17.5147C19.4738 17.5529 20.0554 17.4613 20.6523 17.4995C21.2491 17.4002 21.846 17.3696 22.4582 17.4842C23.0703 17.4154 23.6902 17.4689 24.3176 17.4689C24.6314 17.4307 24.9451 17.4307 25.2665 17.4384C25.4272 17.4384 25.5803 17.446 25.741 17.4536H25.9782H26.2536C26.7204 17.4384 27.1872 17.4689 27.6157 17.4918C27.5928 17.8738 27.5698 18.2252 27.5698 18.5766C27.5698 18.6606 27.5698 18.7523 27.5698 18.8363V18.8974V18.928V18.9432L27.5775 19.0196C27.5928 19.1189 27.6157 19.2182 27.6463 19.3175C27.677 19.9669 27.6081 20.6314 27.6463 21.296C27.6157 21.9606 27.5928 22.6329 27.6463 23.3127C27.5392 23.6488 27.5163 23.9926 27.5316 24.3363C27.5698 24.9093 27.6081 25.4898 27.6463 26.0704C27.3403 26.0857 27.0112 26.1009 26.6822 26.1009H26.1848H25.9093C25.565 26.1009 25.2283 26.078 24.8839 26.0627C24.2029 26.0857 23.5295 26.0704 22.8637 26.0627C22.198 26.1315 21.5323 25.9711 20.8818 26.0627C20.2237 26.1544 19.581 25.9634 18.9382 26.0551C18.2954 26.1162 17.6603 26.1544 17.0328 26.0398C16.4053 26.0398 15.7855 25.8412 15.1733 26.0246C14.5611 26.0704 13.9643 26.3148 13.3674 26.0093C12.7782 26.0857 12.189 25.8641 11.615 25.994C11.0411 25.7725 10.4749 25.9864 9.92391 25.9711C9.37295 25.9252 8.822 25.8489 8.294 25.9482C7.75834 26.0551 7.238 25.8871 6.7253 25.9252C6.2126 26.0551 5.71521 25.7572 5.22547 25.9023C4.73573 25.8718 4.2613 25.9252 3.79452 25.8718C3.32773 26.1773 2.87626 25.8718 2.44008 25.8412C2.21817 25.8183 2.00391 25.8718 1.78965 25.8947C1.68252 25.91 1.57539 25.9176 1.47591 25.9023C1.42234 25.9023 1.36878 25.8871 1.32286 25.8718L1.2846 25.8565L1.22339 25.8412C1.18513 25.8259 1.13921 25.8183 1.10095 25.803C0.71069 25.9329 0.274516 25.9252 -0.046875 25.8871C-0.0162663 25.5586 0.0372989 25.253 0.0679076 24.978C0.083212 24.8252 0.083212 24.6801 0.083212 24.5426C0.083212 24.4509 0.0679076 24.3593 0.0602554 24.26C0.0449511 24.0766 0.0372989 23.8933 0.0985163 23.7176C-0.0621793 23.3662 0.190342 23.0224 0.129125 22.7016C0.236255 22.3808 0.129125 22.0676 0.159734 21.7773C0.121473 21.487 0.136777 21.2044 0.197995 20.9446C0.213299 20.6849 0.220951 20.4405 0.236255 20.2113C0.312777 18.8516 0.389299 18.1029 0.473473 18.1029L0.527038 18.1106Z" fill="black"/>
<path d="M40.3194 18.0953C40.3194 18.1793 39.7379 18.2634 38.6742 18.3321C38.4982 18.3474 38.3069 18.355 38.1003 18.3703C37.8937 18.3932 37.6794 18.4162 37.4499 18.4085C37.2203 18.2939 36.9831 18.6148 36.7229 18.4467C36.4704 18.4009 36.2026 18.4467 35.9271 18.4773C35.6516 18.5155 35.3608 18.4085 35.0624 18.5078C34.9094 18.6148 34.7563 18.5537 34.6033 18.5078C34.4961 18.4773 34.3814 18.4544 34.2742 18.4544C34.1594 18.4544 34.0447 18.4773 33.8763 18.546C33.6085 18.5766 33.333 18.5842 33.0652 18.5919C32.9963 18.5919 32.9351 18.5919 32.8662 18.5919H32.8203V18.5766V18.5537L32.8662 18.4544C32.9121 18.3245 32.9581 18.1946 33.0116 18.0648C33.2029 17.7592 33.2794 17.5377 33.3407 17.2856C33.356 17.2245 33.3713 17.1557 33.3866 17.0946L33.4095 16.9953C33.4095 16.9953 33.4248 16.9189 33.4248 16.9036C33.4401 16.812 33.4554 16.7203 33.4707 16.6363C33.7845 16.3613 33.8381 15.987 33.8457 15.5745C34.236 15.3147 34.3507 14.9404 34.2666 14.4668C34.3431 14.2758 34.4426 14.1001 34.5344 13.9168C34.6339 13.7335 34.7181 13.5425 34.7487 13.3286C34.8252 13.13 34.9017 12.9314 34.9859 12.7328C35.0701 12.5341 35.1695 12.3432 35.292 12.1522C35.3073 11.9154 35.3685 11.6939 35.4756 11.4952C35.5827 11.2966 35.7281 11.1209 35.9118 10.9605C35.9577 10.464 36.2714 10.0973 36.6081 9.75356C36.7765 9.57787 36.876 9.36397 36.9754 9.14244C37.0826 8.92091 37.1821 8.69938 37.3887 8.5466C37.6871 8.16466 37.932 7.7216 38.2763 7.35492C38.6513 7.01117 39.0568 6.69797 39.2711 6.1938C39.4318 5.99519 39.6001 5.78894 39.7761 5.59032C39.9598 5.39935 40.1664 5.23129 40.396 5.09379C40.6561 4.58198 41.1459 4.30698 41.6586 4.08545C41.7121 4.03961 41.7657 4.00142 41.8193 3.95558C41.8805 3.91739 41.9341 3.88683 41.9953 3.84864C42.1177 3.77989 42.2401 3.71114 42.3626 3.65002C42.485 3.58127 42.6074 3.52016 42.7299 3.45141C42.8523 3.38266 42.9671 3.29863 43.0742 3.20696C43.3344 3.09238 43.5793 2.94724 43.8318 2.81738C43.9619 2.75626 44.092 2.69515 44.2297 2.64168C44.2986 2.61876 44.3674 2.58821 44.4363 2.57293C44.5052 2.55765 44.5817 2.54237 44.6506 2.5271C44.7883 2.49654 44.9337 2.46598 45.0791 2.43543C45.2245 2.41251 45.3622 2.38959 45.5076 2.35904C45.5765 2.34376 45.6454 2.32848 45.7142 2.30557C45.7831 2.29029 45.852 2.27501 45.9285 2.25973C46.0662 2.22918 46.204 2.1757 46.3494 2.12987C46.6325 2.0382 46.9233 2.01528 47.2141 2.04584C47.3594 2.05348 47.5048 2.06876 47.6502 2.09167C47.7956 2.11459 47.941 2.12223 48.0864 2.12223C48.2241 2.19098 48.3619 2.23681 48.5073 2.26737C48.645 2.29793 48.7904 2.32848 48.9358 2.34376C49.0812 2.35904 49.2266 2.39723 49.3643 2.43543C49.4332 2.45834 49.5021 2.48126 49.5709 2.50418C49.6398 2.53473 49.701 2.57293 49.7699 2.61112C50.0454 2.71807 50.2826 2.9014 50.5121 3.08474C50.6269 3.18405 50.734 3.26808 50.8488 3.36738C50.956 3.46669 51.0784 3.566 51.2008 3.65002C51.308 3.75697 51.4074 3.87155 51.5069 3.98614C51.5911 4.10072 51.6753 4.22295 51.7594 4.34517C51.8283 4.47503 51.8895 4.6049 51.9507 4.73476C51.9967 4.87226 52.0426 5.00976 52.0732 5.14726C52.188 5.25421 52.2645 5.38407 52.3104 5.51393C52.3563 5.65143 52.364 5.78894 52.3716 5.93408C52.3716 6.21672 52.3257 6.49172 52.3716 6.75145C52.3563 6.8202 52.3487 6.88895 52.341 6.95006C52.3334 7.01881 52.3257 7.07992 52.3181 7.14867C52.3104 7.27853 52.3181 7.4084 52.3104 7.53826C52.3104 7.66812 52.3027 7.79799 52.2951 7.92021C52.2798 8.05007 52.2645 8.17229 52.2339 8.29452C52.2339 8.42438 52.1956 8.5466 52.1574 8.66119C52.1191 8.78341 52.0808 8.898 52.0273 9.01258C51.9278 9.24175 51.8436 9.46328 51.8054 9.70773C51.614 10.1431 51.5069 10.6244 51.1855 10.9682C51.1396 11.205 50.9866 11.3807 50.8412 11.5487C50.6805 11.7091 50.5274 11.8696 50.4433 12.0758C50.3055 12.2439 50.1754 12.4196 50.0454 12.5876C49.9076 12.748 49.7622 12.9008 49.6168 13.046C49.1654 13.1911 49.0276 13.6112 48.7521 13.8939C48.6756 13.955 48.6067 14.0314 48.5455 14.1001C48.4767 14.1689 48.4154 14.2453 48.3466 14.314C48.2088 14.4515 48.0711 14.5814 47.8721 14.6349C47.5661 14.8488 47.2294 14.9939 46.9921 15.2689C46.8621 15.3835 46.6707 15.414 46.5024 15.4752C46.3341 15.5286 46.1887 15.605 46.1351 15.8265C45.8902 16.0634 45.4617 15.964 45.3087 16.3002C45.148 16.6286 44.773 16.5752 44.5281 16.705C44.2756 16.8349 44.0307 16.9418 43.7935 17.0488C43.5334 17.171 43.2808 17.2779 43.0436 17.3696C42.8064 17.4613 42.5845 17.553 42.3702 17.6293C41.9417 17.7745 41.5897 17.8967 41.2913 17.9807C40.6944 18.1412 40.3654 18.2023 40.3501 18.1412C40.3271 18.0724 40.6791 17.8738 41.3525 17.5453C42.0182 17.2016 42.9977 16.7356 44.1685 16.0328C44.4057 15.8877 44.5741 15.6203 44.8954 15.5897C45.148 15.437 45.3469 15.1772 45.653 15.0856C45.7219 14.9099 45.852 14.8106 45.9974 14.7418C46.1427 14.6654 46.3034 14.6043 46.4412 14.5126C46.709 14.314 47.0151 14.1536 47.237 13.871C47.3365 13.7105 47.4742 13.6036 47.6273 13.5043C47.7038 13.4508 47.7803 13.405 47.8492 13.3439C47.9181 13.2828 47.9793 13.214 48.0328 13.1376C48.4001 12.9848 48.6374 12.6793 48.8057 12.3203C48.9817 12.2209 49.1041 12.0682 49.2113 11.9078C49.3107 11.7397 49.4026 11.564 49.525 11.4036C49.7163 11.3043 49.8464 11.1439 49.9459 10.9682C50.03 10.7848 50.0989 10.5862 50.1601 10.3876C50.1907 10.2883 50.2367 10.1966 50.2826 10.105C50.3055 10.0591 50.3285 10.0133 50.3591 9.96745L50.428 9.82995C50.4739 9.73828 50.5274 9.64662 50.5734 9.55495C50.6193 9.46328 50.6499 9.36397 50.6728 9.26467C50.7723 9.08133 50.8182 8.87508 50.8718 8.67647C50.8947 8.57716 50.91 8.47021 50.933 8.37091C50.956 8.2716 50.9789 8.16466 51.0095 8.06535C51.0019 7.63757 50.9866 7.24034 51.0861 6.8202C51.0019 6.40769 50.9866 5.99519 50.8488 5.6056C50.7876 5.52157 50.7417 5.4299 50.7034 5.3306C50.6499 5.24657 50.6116 5.1549 50.5657 5.05559C50.5198 4.97157 50.4662 4.8799 50.4127 4.78823C50.3514 4.71184 50.2979 4.62781 50.229 4.55906C50.1525 4.49795 50.0836 4.4292 50.0224 4.34517C49.9535 4.26878 49.877 4.19239 49.8081 4.10836C49.6474 3.96322 49.4638 3.83336 49.2189 3.84864C48.821 3.69586 48.4078 3.51252 47.941 3.49724C47.4895 3.42086 47.0151 3.3903 46.5407 3.51252C46.4182 3.47433 46.2881 3.46669 46.1657 3.46669C46.1045 3.46669 46.0433 3.46669 45.9821 3.48197C45.9208 3.49724 45.8596 3.51252 45.8061 3.5278C45.6913 3.566 45.5688 3.61183 45.4617 3.6653C45.3469 3.72641 45.2398 3.78753 45.125 3.84864C45.0714 3.87919 45.0102 3.90211 44.9567 3.92503L44.7883 4.00142C44.6735 4.05489 44.5587 4.10072 44.444 4.14656C44.2144 4.24586 43.9848 4.33753 43.7629 4.43684C43.3344 4.69656 42.9135 4.94101 42.5003 5.21601C42.1407 5.55213 41.6586 5.73546 41.3448 6.12505C41.1994 6.32366 41.0005 6.4688 40.8092 6.61394C40.6179 6.76672 40.4342 6.92714 40.2965 7.12576C40.021 7.53062 39.7226 7.89729 39.3476 8.19521C39.0415 8.55424 38.613 8.82161 38.4906 9.30286C38.3758 9.50148 38.3069 9.73828 38.2074 9.94454C38.108 10.1508 37.9702 10.3265 37.7177 10.4411C37.5494 10.8689 37.1208 11.1286 37.0214 11.5793C36.8147 11.7168 36.7076 11.9078 36.6234 12.1064C36.5469 12.3126 36.4934 12.5265 36.3939 12.7098C36.2791 12.8855 36.1567 13.0612 36.0495 13.2446C35.9501 13.4279 35.8735 13.6189 35.8276 13.8251C35.7894 14.0314 35.6899 14.2071 35.5904 14.3828C35.4909 14.5585 35.3838 14.7265 35.3226 14.9175C35.292 15.33 34.8634 15.5668 34.8711 15.9793C34.7104 16.3231 34.6262 16.6821 34.4579 17.0029C34.5038 17.1099 34.5038 17.2092 34.4961 17.2932C34.4961 17.3238 34.4961 17.3161 34.4961 17.3238C34.4961 17.3238 34.4961 17.3314 34.4961 17.3391C34.4961 17.3391 34.4808 17.3543 34.4655 17.362C34.412 17.3925 34.2972 17.4689 34.2589 17.5453C34.213 17.6217 34.2207 17.6752 34.3431 17.6141C34.4349 17.5835 34.4502 17.5835 34.4502 17.6981C34.588 17.5835 34.588 17.5759 34.6568 17.6064C34.8099 17.637 34.9629 17.6981 35.116 17.7286C35.4144 17.7974 35.7052 17.6293 35.9807 17.7592C36.2561 17.5988 36.524 17.8509 36.7765 17.7898C37.029 17.8967 37.2739 17.7898 37.5034 17.8203C37.733 17.7821 37.9473 17.7974 38.1539 17.8585C38.3605 17.8738 38.5518 17.8814 38.7278 17.8967C39.7914 17.9731 40.373 18.0571 40.373 18.1412L40.3194 18.0953Z" fill="black"/>
<path d="M25.5133 18.1182C25.5133 18.0342 26.0948 17.9502 27.1585 17.8738C27.3345 17.8661 27.5258 17.8509 27.7324 17.8356C27.939 17.8127 28.1533 17.7898 28.3828 17.7974C28.6124 17.912 28.8496 17.5911 29.1098 17.7592C29.3623 17.8127 29.6301 17.7592 29.9056 17.7286C30.1811 17.6904 30.4719 17.7974 30.7703 17.6981C30.9234 17.5911 31.0764 17.6523 31.2294 17.6981C31.283 17.7286 31.3213 17.7516 31.3672 17.7516C31.4131 17.7516 31.4514 17.7286 31.4514 17.6599C31.5049 17.6293 31.5585 17.6217 31.6274 17.6141C31.7345 17.6446 31.6656 17.5453 31.6656 17.4918C31.7498 17.4689 31.7115 17.362 31.658 17.2856C31.6427 17.2627 31.6274 17.2474 31.6121 17.2321L31.5891 17.2092V17.1939H31.5738V17.1786C31.5202 17.1022 31.4743 17.0182 31.4437 16.9418C31.5126 16.537 31.2907 16.2238 31.0305 15.9182C31.1606 15.4675 30.9616 15.1238 30.5714 14.8564C30.4872 14.6731 30.4413 14.4821 30.3724 14.2911C30.2959 14.1078 30.2117 13.9244 30.0663 13.764C29.9668 13.5807 29.875 13.3973 29.7755 13.214C29.6761 13.0307 29.5766 12.8473 29.5077 12.6411C29.3317 12.4959 29.194 12.3203 29.0945 12.1369C28.9874 11.9536 28.9185 11.7397 28.8802 11.5105C28.5053 11.2202 28.3369 10.8154 28.1839 10.3723C28.115 10.1508 27.9467 9.98273 27.7936 9.81467C27.6329 9.64661 27.4875 9.47091 27.4187 9.24175C27.1508 8.86744 26.8371 8.51604 26.5616 8.1341C26.3397 7.71395 26.0719 7.29381 25.6127 7.057C25.4291 6.90422 25.2378 6.75144 25.0618 6.58338C24.8781 6.42297 24.7098 6.25491 24.5644 6.04866C24.0594 5.88824 23.7456 5.51393 23.4089 5.13962C23.3554 5.10906 23.3094 5.07087 23.2559 5.03267C23.2023 4.99448 23.1564 4.96392 23.1028 4.92573C23.0034 4.84934 22.9039 4.77295 22.8044 4.69656C22.7049 4.62017 22.5978 4.55142 22.4907 4.49795C22.3835 4.43683 22.2687 4.391 22.1463 4.3528C21.9321 4.22294 21.6948 4.13891 21.4653 4.04725C21.3505 4.00905 21.2281 3.97086 21.1133 3.91738C21.0597 3.89447 20.9985 3.86391 20.9449 3.84099C20.8914 3.81808 20.8301 3.78752 20.7766 3.75696C20.6618 3.70349 20.547 3.65002 20.4322 3.59655C20.3174 3.55071 20.195 3.51252 20.0802 3.48196C20.019 3.46668 19.9578 3.45141 19.9042 3.43613C19.843 3.42849 19.7818 3.42085 19.7206 3.41321C19.5981 3.40557 19.4757 3.39793 19.3533 3.41321C19.1084 3.45905 18.8788 3.41321 18.6416 3.39793C18.5268 3.38266 18.4044 3.36738 18.2896 3.36738C18.1748 3.36738 18.0601 3.36738 17.9453 3.39793C17.8228 3.36738 17.7081 3.36738 17.5933 3.38266C17.4785 3.39793 17.3714 3.44377 17.2642 3.48196C17.1571 3.52016 17.0653 3.58127 16.9658 3.6271C16.9199 3.65002 16.8663 3.67294 16.8127 3.68821C16.7668 3.71113 16.7133 3.73405 16.6597 3.74169C16.4684 3.83335 16.2694 3.92502 16.0858 4.03197C16.0016 4.09308 15.9098 4.14655 15.8256 4.2153C15.7567 4.28405 15.6879 4.36808 15.6343 4.45211C15.5807 4.53614 15.5272 4.61253 15.4736 4.69656C15.4277 4.78823 15.3741 4.87225 15.3206 4.96392C15.2747 5.05559 15.2287 5.14726 15.1752 5.23129C15.1293 5.32295 15.0757 5.41462 15.0221 5.49865C15.0604 5.62087 15.0681 5.72782 15.0451 5.82713C15.0221 5.92643 14.9915 6.02574 14.9456 6.11741C14.8997 6.20907 14.8614 6.30838 14.8232 6.41533C14.7849 6.51463 14.7696 6.62158 14.7849 6.72852C14.7696 6.782 14.7543 6.83547 14.739 6.8813C14.7314 6.93478 14.7314 6.98825 14.7237 7.04172C14.7237 7.14867 14.7237 7.25561 14.7467 7.35492C14.7696 7.46187 14.7849 7.56117 14.8079 7.66812C14.8308 7.76742 14.8538 7.87437 14.8614 7.98132C14.8921 8.08062 14.915 8.18757 14.9303 8.28687C14.9456 8.38618 14.9533 8.49313 14.9762 8.60007C15.0145 8.80632 15.0527 9.01258 15.1981 9.18827C15.2287 9.28758 15.267 9.38689 15.3129 9.47091C15.3665 9.56258 15.4124 9.65425 15.466 9.73828L15.5348 9.87578C15.5578 9.92161 15.5807 9.96745 15.6037 10.0133C15.6496 10.1049 15.6802 10.2043 15.7032 10.3036C15.8715 10.4411 15.9481 10.6244 16.0246 10.8154C16.1087 10.9987 16.1853 11.1897 16.346 11.3195C16.4684 11.4723 16.5908 11.6327 16.7056 11.7855C16.8281 11.9383 16.9505 12.0834 17.0653 12.2362C17.1494 12.6793 17.555 12.8168 17.8381 13.0536C17.8994 13.1223 17.9682 13.1835 18.0447 13.2369C18.1213 13.2904 18.1978 13.3439 18.2667 13.3973C18.4121 13.4967 18.5421 13.6189 18.6263 13.7946C18.8865 14.0237 19.0931 14.3293 19.4221 14.4439C19.5675 14.5279 19.6517 14.696 19.7512 14.8258C19.8583 14.9557 19.9884 15.0626 20.2027 15.0168C20.4934 15.1467 20.6006 15.5515 20.9602 15.521C21.3046 15.5057 21.45 15.8265 21.6872 15.9717C21.9167 16.1168 22.1463 16.239 22.3682 16.3613C22.6131 16.4988 22.8427 16.6286 23.0722 16.7432C23.2941 16.8578 23.5007 16.9724 23.6997 17.0717C24.0976 17.2627 24.4267 17.4384 24.7021 17.5759C25.2531 17.8432 25.5362 18.0189 25.5133 18.08C25.4903 18.1488 25.0847 18.0724 24.3578 17.8585C23.6385 17.6293 22.5901 17.2627 21.3275 16.6439C21.075 16.514 20.7307 16.5293 20.547 16.239C20.2868 16.0786 19.9425 16.0328 19.7206 15.7654C19.5216 15.7654 19.3762 15.6814 19.2461 15.5745C19.1161 15.4599 19.0013 15.3224 18.8635 15.2154C18.5651 15.0244 18.3355 14.7342 17.9835 14.5737C17.7999 14.505 17.6698 14.3675 17.5321 14.2224C17.4632 14.1536 17.402 14.0772 17.3331 14.0161C17.2642 13.9474 17.1877 13.8862 17.1035 13.8328C16.9046 13.4661 16.6061 13.2064 16.2312 12.9848C16.147 12.7862 16.0016 12.6334 15.8486 12.4883C15.7032 12.3355 15.5348 12.1904 15.4047 12.0147C15.3588 11.7779 15.2517 11.5869 15.1063 11.4189C14.9762 11.2432 14.8079 11.0827 14.6548 10.8994C14.3641 10.5327 14.2493 10.0668 14.035 9.63897C13.9585 9.4098 13.882 9.18063 13.7901 8.95147C13.7442 8.83688 13.7136 8.71466 13.683 8.59243C13.6524 8.47021 13.6218 8.34799 13.6065 8.22576C13.4152 7.75215 13.3387 7.20978 13.4764 6.68269C13.4381 6.14796 13.5835 5.59796 13.7672 5.07087C13.7978 4.93337 13.8437 4.79586 13.8973 4.666C13.9585 4.53614 14.0274 4.40628 14.1039 4.28405C14.1881 4.16183 14.2722 4.04725 14.3564 3.92502C14.4482 3.81044 14.5477 3.68821 14.6395 3.57363C14.739 3.45904 14.8538 3.35974 14.9762 3.26807C15.0987 3.18404 15.2287 3.11529 15.3588 3.0389C15.619 2.9014 15.8639 2.75626 16.0858 2.53473C16.6138 2.25973 17.203 2.16042 17.7769 2.05347C18.3661 2.01528 18.9401 2.05347 19.5216 2.05347C19.6594 2.12986 19.7971 2.19098 19.9348 2.22917C20.0037 2.25209 20.0726 2.26737 20.1414 2.28264C20.2103 2.29792 20.2792 2.3132 20.3481 2.32848C20.4858 2.35903 20.6312 2.37431 20.7766 2.38959C20.922 2.41251 21.0674 2.43542 21.2051 2.45834C21.274 2.47362 21.3505 2.4889 21.4194 2.51181C21.4882 2.53473 21.5571 2.55765 21.626 2.58056C21.7637 2.6264 21.8938 2.67987 22.0239 2.74098C22.2841 2.86321 22.5366 3.00071 22.7738 3.14585C23.2788 3.39793 23.7456 3.69585 24.1894 4.02433C24.6792 4.29169 25.0006 4.75767 25.4521 5.04031C25.6816 5.18545 25.8653 5.38407 26.0336 5.58268C26.202 5.78893 26.3627 5.98754 26.5769 6.14032C26.9672 6.47644 27.3498 6.83547 27.5717 7.30145C27.9007 7.69103 28.0155 8.21048 28.4594 8.49313C28.6201 8.67646 28.8114 8.84452 28.9721 9.02785C29.1327 9.21119 29.2552 9.41744 29.2475 9.70772C29.5613 10.0744 29.6148 10.5786 29.9439 10.9147C29.9592 11.1668 30.0663 11.3654 30.1964 11.5487C30.3188 11.7321 30.4642 11.9077 30.5637 12.1064C30.6402 12.3126 30.7167 12.5189 30.8009 12.7175C30.8774 12.9161 30.9769 13.1071 31.107 13.2828C31.2447 13.4508 31.3213 13.6494 31.3825 13.848C31.4437 14.0467 31.4896 14.2453 31.5814 14.4286C31.8569 14.7571 31.7345 15.2307 32.0023 15.5363C32.1094 15.9106 32.2931 16.239 32.3696 16.5981C32.4691 16.6592 32.538 16.7356 32.5762 16.812V16.8272L32.5992 16.8578L32.6221 16.9113C32.6374 16.9495 32.6451 16.9877 32.6604 17.0259C32.6834 17.1022 32.6987 17.1786 32.714 17.255C32.7752 17.5606 32.7675 17.805 32.8441 18.0571C32.8747 18.1793 32.9282 18.3092 32.9894 18.4543L33.0354 18.5613L33.0507 18.5918V18.6071H33.0047C32.9435 18.6224 32.8823 18.63 32.8287 18.6377C32.5839 18.6682 32.2778 18.6682 31.9564 18.5537C31.7727 18.6682 31.459 18.6759 31.2218 18.6453C31.0687 18.6148 30.9157 18.5537 30.7627 18.5231C30.4642 18.4543 30.1734 18.6224 29.898 18.4925C29.6225 18.653 29.3547 18.4009 29.1021 18.462C28.8496 18.355 28.6047 18.462 28.3752 18.4238C28.1456 18.462 27.9314 18.4467 27.7247 18.3856C27.5181 18.3703 27.3345 18.3627 27.1508 18.3474C26.0872 18.271 25.5056 18.187 25.5056 18.103L25.5133 18.1182Z" fill="black"/>
</g>
<defs>
<clipPath id="clip0_3267_38689">
<rect width="66" height="65" fill="white" transform="translate(0 2)"/>
</clipPath>
</defs>
</svg>
