<svg width="66" height="80" viewBox="0 0 66 80" fill="none" xmlns="http://www.w3.org/2000/svg">
<g clip-path="url(#clip0_3267_38714)">
<path d="M33.6582 0C45.7815 0 55.6093 9.82787 55.6094 21.9512C55.6094 25.039 54.97 27.9771 53.8193 30.6426C60.989 32.2686 66.3418 38.6802 66.3418 46.3418C66.3416 55.232 59.1344 62.4393 50.2441 62.4395C47.6091 62.4395 45.1222 61.805 42.9268 60.6826V75C42.9268 77.7614 40.6882 80 37.9268 80H5C2.23858 80 0 77.7614 0 75V54.1465C0 44.5697 6.73139 36.566 15.7207 34.6064C13.1927 31.0298 11.707 26.6641 11.707 21.9512C11.7071 9.82789 21.5349 2.60296e-05 33.6582 0Z" fill="#E0E6FF"/>
<g clip-path="url(#clip1_3267_38714)">
<path d="M50.6196 40.4199C50.7016 40.4199 50.7835 40.5531 50.8506 40.7972C50.8655 40.8416 50.873 40.8785 50.8879 40.9303C50.9102 40.9747 50.9326 41.0265 50.9251 41.0783C50.8133 41.13 51.1264 41.1892 50.9624 41.2484C50.9102 41.3076 50.9624 41.3667 50.9922 41.4333C51.0295 41.4999 50.9251 41.5665 51.022 41.633C51.2381 41.6996 50.7835 41.7736 51.0518 41.8475C51.1114 41.9215 51.0965 41.9955 51.0816 42.0769C50.9177 42.1582 51.0816 42.2396 51.1114 42.321C50.9177 42.4023 50.9997 42.4911 51.1338 42.5799C50.8655 42.6686 50.9028 42.7574 51.1562 42.8461C51.1636 42.9349 51.0593 43.0311 51.1785 43.1272C51.1934 43.2234 51.2456 43.3196 51.2009 43.4231C51.3797 43.5193 51.3723 43.6228 51.2232 43.7264C51.417 43.8299 51.3425 43.9335 51.2381 44.0371C51.1338 44.1406 51.4095 44.2516 51.253 44.3625C51.2381 44.4735 51.2978 44.5844 51.2679 44.6954C51.186 44.8064 51.104 44.9247 51.2754 45.0357C51.3201 45.154 51.3872 45.265 51.2829 45.3833C51.4915 45.5017 51.3946 45.62 51.2829 45.7384C51.3127 45.8567 51.1711 45.9751 51.2829 46.1008C51.253 46.2192 51.3723 46.3449 51.2829 46.4707C51.2232 46.5964 51.1636 46.7148 51.2829 46.8405C51.417 46.9589 51.2307 47.0846 51.2829 47.203C51.0891 47.3213 51.3425 47.4397 51.2829 47.558C51.3052 47.6764 51.1711 47.7874 51.2754 47.9057C51.3127 48.0241 51.3499 48.135 51.2679 48.246C51.566 48.3569 51.1934 48.4679 51.253 48.5788C51.1264 48.6898 51.2754 48.7933 51.2381 48.9043C51.2903 49.0079 51.104 49.1188 51.2232 49.215C51.2009 49.3185 51.3201 49.4221 51.2009 49.5183C51.3499 49.6144 51.0742 49.718 51.1785 49.8141C51.1785 49.9103 51.186 50.0065 51.1562 50.0952C50.9251 50.184 51.1189 50.2801 51.1338 50.3615C51.1115 50.4503 51.268 50.5316 51.1114 50.6204C51.0891 50.7018 50.9922 50.7831 51.0816 50.8645C51.1114 50.9459 50.7463 51.0198 51.0518 51.0938C51.104 51.1678 50.8133 51.2418 51.022 51.3083C51.2083 51.3749 50.9997 51.4415 50.9922 51.5081C50.9773 51.5746 50.9699 51.6338 50.9624 51.693C50.8655 52.2182 50.7463 52.514 50.6196 52.514C50.478 52.514 50.3513 52.1442 50.247 51.5081C50.2395 51.4415 50.0756 51.3823 50.2171 51.3083C50.2171 51.2418 50.0979 51.1678 50.1873 51.0938C49.9712 51.0198 50.1501 50.9459 50.1575 50.8645C50.1501 50.7831 50.2172 50.7092 50.1277 50.6204C50.001 50.539 50.1873 50.4503 50.1054 50.3615C50.2395 50.2727 50.2022 50.184 50.083 50.0952C50.2097 50.0065 50.0532 49.9103 50.0606 49.8141C50.2544 49.718 50.1203 49.6218 50.0383 49.5183C49.9638 49.4221 50.0681 49.3185 50.0159 49.215C50.0532 49.1114 49.9638 49.0079 50.001 48.9043C49.9116 48.8007 49.8743 48.6898 49.9861 48.5788C49.9191 48.4679 49.9712 48.3569 49.9712 48.246C49.8892 48.135 49.9787 48.0167 49.9638 47.9057C49.9265 47.7874 50.1724 47.6764 49.9563 47.558C49.9265 47.4397 49.9936 47.3213 49.9563 47.203C49.9861 47.0846 50.0159 46.9589 49.9563 46.8405C50.1724 46.7222 50.0383 46.5964 49.9563 46.4707C49.8967 46.3449 49.9265 46.2266 49.9563 46.1008C49.934 45.9825 49.9489 45.8567 49.9563 45.7384C49.8892 45.62 50.0457 45.5017 49.9563 45.3833C49.8669 45.265 50.0532 45.1466 49.9638 45.0357C49.9041 44.9173 49.8669 44.8064 49.9712 44.6954C49.9712 44.5844 50.165 44.4735 49.9861 44.3625C49.9414 44.2516 49.7029 44.148 50.001 44.0371C49.9265 43.9335 50.1426 43.8226 50.0159 43.7264C50.2321 43.6228 50.0308 43.5193 50.0383 43.4231C50.083 43.327 50.1575 43.2234 50.0606 43.1272C49.9563 43.0311 50.1203 42.9349 50.083 42.8461C49.9563 42.7574 50.247 42.6686 50.1054 42.5799C50.1352 42.4911 50.083 42.4097 50.1277 42.321C49.8296 42.2396 50.1277 42.1582 50.1575 42.0769C50.2022 41.9955 49.9638 41.9215 50.1873 41.8475C49.9638 41.7736 50.1575 41.6996 50.2171 41.633C50.2842 41.5665 50.1203 41.4999 50.247 41.4333C50.0905 41.3667 50.3364 41.3076 50.2768 41.2484C50.3811 41.1892 50.2768 41.1374 50.314 41.0783C50.2768 41.0265 50.2917 40.9747 50.3513 40.9303C50.3662 40.8859 50.3737 40.8416 50.3886 40.7972C50.4631 40.5531 50.5451 40.4199 50.627 40.4199H50.6196Z" fill="black"/>
<path d="M56.7157 46.4411C56.7157 46.5225 56.5816 46.6038 56.3356 46.6704C56.2909 46.6852 56.2536 46.6926 56.2015 46.7074C56.1568 46.7296 56.1046 46.7518 56.0524 46.7444C56.0003 46.6334 55.9406 46.9441 55.8885 46.7814C55.8289 46.737 55.7692 46.7814 55.7022 46.8109C55.6351 46.8479 55.568 46.7444 55.5009 46.8405C55.4339 47.055 55.3593 46.6038 55.2848 46.8701C55.2103 46.9293 55.1358 46.9145 55.0538 46.8997C54.9718 46.737 54.8898 46.8997 54.8079 46.9293C54.7259 46.737 54.6365 46.8183 54.547 46.9515C54.4576 46.6852 54.3682 46.7222 54.2787 46.9737C54.1893 46.9811 54.0924 46.8775 53.9955 46.9959C53.8987 47.0107 53.8018 47.0624 53.6974 47.0181C53.6006 47.1956 53.4962 47.1882 53.3919 47.0403C53.2876 47.2326 53.1832 47.1586 53.0789 47.055C52.9746 46.9515 52.8628 47.2252 52.751 47.0698C52.6392 47.055 52.5274 47.1142 52.4156 47.0846C52.3038 47.0033 52.1846 46.9145 52.0728 47.092C51.9536 47.1364 51.8418 47.203 51.7225 47.0994C51.6033 47.3065 51.4841 47.2104 51.3648 47.0994C51.2456 47.1364 51.1189 46.9885 50.9996 47.0994C50.8804 47.0698 50.7537 47.1882 50.627 47.0994C50.5003 47.0403 50.3811 46.9811 50.2544 47.0994C50.1277 47.2326 50.0085 47.0476 49.8892 47.0994C49.77 46.9071 49.6507 47.1586 49.5315 47.0994C49.4123 47.1216 49.293 46.9885 49.1812 47.092C49.062 47.129 48.9502 47.166 48.8384 47.0846C48.7266 47.3805 48.6149 47.0107 48.5031 47.0698C48.3913 46.9441 48.2869 47.0846 48.1752 47.055C48.0708 47.1068 47.959 46.9219 47.8621 47.0403C47.7578 47.0181 47.6535 47.1364 47.5566 47.0181C47.4597 47.166 47.3554 46.8923 47.2585 46.9959C47.1616 46.9959 47.0647 47.0033 46.9753 46.9737C46.8859 46.7444 46.789 46.9367 46.6996 46.9515C46.6101 46.9293 46.5282 47.0846 46.4387 46.9293C46.3567 46.9071 46.2748 46.8109 46.1928 46.8997C46.1108 46.9367 46.0363 46.5668 45.9618 46.8701C45.8872 46.9219 45.8127 46.6334 45.7456 46.8405C45.6786 47.0329 45.6115 46.8183 45.5444 46.8109C45.4774 46.7961 45.4177 46.7888 45.3581 46.7814C44.829 46.6852 44.5234 46.5668 44.5234 46.4411C44.5234 46.3005 44.8961 46.1748 45.537 46.0712C45.604 46.0638 45.6711 45.9011 45.7382 46.0417C45.8053 46.0417 45.8798 45.9233 45.9543 46.0121C46.0288 45.7976 46.1034 45.9751 46.1853 45.9825C46.2673 45.9751 46.3493 46.0417 46.4313 45.9529C46.5133 45.8271 46.6027 46.0121 46.6921 45.9307C46.7815 46.0638 46.871 46.0269 46.9679 45.9085C47.0573 46.0343 47.1542 45.8789 47.251 45.8863C47.3479 46.0786 47.4448 45.9455 47.5491 45.8641C47.646 45.7902 47.7504 45.8937 47.8547 45.8419C47.959 45.8789 48.0634 45.7902 48.1677 45.8271C48.272 45.7384 48.3838 45.7014 48.4956 45.8123C48.6074 45.7458 48.7192 45.7976 48.831 45.7976C48.9428 45.7236 49.062 45.805 49.1738 45.7902C49.293 45.7458 49.4048 45.9973 49.5241 45.7828C49.6433 45.7532 49.7625 45.8123 49.8818 45.7828C50.001 45.8123 50.1203 45.8419 50.2469 45.7828C50.3662 45.9973 50.4929 45.8641 50.6196 45.7828C50.7463 45.7236 50.8655 45.7532 50.9922 45.7828C51.1114 45.7606 51.2381 45.7754 51.3574 45.7828C51.4766 45.7162 51.5958 45.8715 51.7151 45.7828C51.8343 45.694 51.9536 45.8789 52.0654 45.7902C52.1846 45.731 52.2964 45.694 52.4082 45.7976C52.52 45.7976 52.6317 45.9899 52.7435 45.8123C52.8553 45.768 52.9596 45.5313 53.0714 45.8271C53.1758 45.7532 53.2876 45.9677 53.3844 45.8419C53.4888 46.0564 53.5931 45.8567 53.69 45.8641C53.7869 45.9085 53.8912 45.9825 53.9881 45.8863C54.085 45.7828 54.1819 45.9455 54.2713 45.9085C54.3607 45.7828 54.4576 46.0712 54.5396 45.9307C54.629 45.9603 54.7184 45.9085 54.8004 45.9529C54.8824 45.657 54.9644 45.9529 55.0463 45.9825C55.1283 46.0269 55.2028 45.7902 55.2774 46.0121C55.3519 45.7902 55.4264 45.9825 55.4935 46.0417C55.5606 46.1082 55.6276 45.9455 55.6947 46.0712C55.7618 45.9159 55.8214 46.16 55.881 46.1008C55.9406 46.2044 55.9928 46.1008 56.045 46.1378C56.0971 46.1008 56.1493 46.1156 56.194 46.1748C56.2387 46.1896 56.2835 46.197 56.3282 46.2118C56.5741 46.2858 56.7082 46.3671 56.7082 46.4485L56.7157 46.4411Z" fill="black"/>
<path d="M19.4238 12.7772C19.4238 12.7772 19.5356 12.7625 19.6622 12.8142C19.7964 12.866 19.9678 12.9696 20.1988 13.0953C20.2734 13.1397 20.3553 13.1841 20.4448 13.2359C20.5416 13.2728 20.6385 13.3172 20.7205 13.3838C20.7503 13.5391 21.0186 13.3394 21.0261 13.5465C21.108 13.6501 21.2347 13.6871 21.3689 13.7167C21.503 13.7463 21.5701 13.9164 21.7415 13.8868C21.8533 13.8276 21.8905 13.909 21.9353 13.9904C21.98 14.0717 22.0321 14.1457 22.1514 14.0495C22.2334 14.0495 22.3079 14.0717 22.375 14.1013C22.442 14.1309 22.5165 14.1605 22.5911 14.1901C22.688 14.4046 22.8966 14.2936 23.0606 14.3158C23.1724 14.5451 23.3661 14.5082 23.5599 14.3972C23.6866 14.6931 23.8878 14.6709 24.089 14.4416C24.1785 14.4416 24.2679 14.4712 24.3573 14.486C24.4467 14.4934 24.5436 14.486 24.6331 14.4342C24.7225 14.4194 24.8194 14.3972 24.9088 14.3824C25.0057 14.3676 25.0951 14.3528 25.1994 14.3602C25.2814 14.2567 25.3708 14.1975 25.4677 14.1827C25.5646 14.1605 25.6689 14.1827 25.7882 14.2271C25.8627 14.1087 25.9521 14.0569 26.0565 14.0347C26.1608 14.0126 26.2726 14.0199 26.3844 14.0347C26.6229 14.0643 26.7347 13.7315 26.9955 13.7906C27.2116 13.7167 27.3905 13.5761 27.6215 13.5022C27.8674 13.4726 28.1208 13.4504 28.2624 13.1841C28.4562 13.0361 28.6499 12.866 28.9257 12.8438C29.0598 12.5479 29.3281 12.511 29.6188 12.4888C29.8423 12.3408 30.1404 12.3556 30.3417 12.1411C30.6025 12.0597 30.8112 11.8378 31.1093 11.823C31.3999 11.7787 31.6756 11.7417 31.9141 11.5567C32.1526 11.3496 32.4731 11.468 32.7414 11.3644C32.8979 11.431 33.032 11.4014 33.1661 11.3496C33.3003 11.3052 33.4344 11.2387 33.576 11.2683C33.8592 11.2313 34.1275 11.357 34.4033 11.2683C34.679 11.2461 34.9547 11.2387 35.2081 11.3644C35.3646 11.2461 35.4988 11.2831 35.6106 11.3644C35.7298 11.4458 35.8341 11.5419 35.9683 11.5493C36.0726 11.6455 36.1993 11.6751 36.3185 11.6973C36.4378 11.7269 36.5645 11.7417 36.6763 11.8008C36.9296 11.8452 37.0712 12.1041 37.3321 12.1041C37.5333 12.2225 37.7941 12.2299 37.9357 12.437C38.204 12.4222 38.2562 12.7699 38.4947 12.792C38.6735 12.9104 38.8598 13.014 39.0014 13.1619C39.0312 13.4652 39.307 13.4282 39.4709 13.5391C39.6051 13.6797 39.8585 13.6723 39.8957 13.909C40.0224 14.0421 40.097 14.2345 40.2907 14.2714C40.4398 14.3602 40.3205 14.7449 40.6484 14.6265C40.8049 14.6931 40.7155 15.0111 40.9689 14.9668C41.2074 14.9372 41.1701 15.1887 41.2595 15.2922C41.349 15.3958 41.4309 15.4994 41.5129 15.5955C42.2358 16.4832 42.5637 17.0527 42.4743 17.1267C42.3625 17.2229 41.7589 16.6903 40.7304 15.81C40.6261 15.7213 40.41 15.7435 40.41 15.5363C40.3056 15.4402 40.1119 15.418 40.0597 15.2479C39.7989 15.2996 39.7989 15.0703 39.6871 14.9446C39.5529 14.841 39.4709 14.6857 39.2772 14.6339C39.0685 14.6117 39.0387 14.3676 38.8449 14.3232C38.7853 14.1013 38.6065 14.0273 38.3829 14.0126C38.3084 13.7906 38.0475 13.8202 37.891 13.7093C37.8314 13.4356 37.578 13.4504 37.3693 13.4208C37.1607 13.3912 37.0265 13.1989 36.8179 13.1545C36.6465 13.0287 36.4154 13.0287 36.2366 12.9178C36.1248 12.9178 36.013 12.9178 35.9087 12.8882C35.8043 12.8586 35.7149 12.8142 35.6255 12.7329C35.4019 12.7329 35.2081 12.6367 34.992 12.6071C34.7684 12.6441 34.5598 12.5331 34.3362 12.5479C34.2244 12.5553 34.1126 12.511 34.0008 12.4814C33.889 12.4518 33.7698 12.4518 33.6655 12.5627C33.5537 12.5849 33.4419 12.5923 33.3226 12.5923C33.2109 12.6071 33.0916 12.6145 32.9798 12.6589C32.7488 12.6737 32.5029 12.7033 32.2868 12.829C31.9887 12.6885 31.7874 12.903 31.5862 13.0657C31.3776 13.2137 31.1316 13.2802 30.8931 13.3542C30.6696 13.48 30.4385 13.5761 30.2075 13.6723C30.0063 13.8424 29.7156 13.8128 29.5293 14.0052C29.343 14.1975 29.0375 14.1457 28.8512 14.338C28.6574 14.5082 28.4413 14.6487 28.1655 14.6561C27.9345 14.7596 27.6364 14.6857 27.4799 14.9446C27.2712 15.0777 27.1147 15.3884 26.7794 15.1887C26.675 15.2626 26.5483 15.2626 26.4216 15.27C26.295 15.27 26.1757 15.2848 26.0788 15.3736C25.9372 15.2922 25.818 15.3144 25.7137 15.3662C25.6019 15.4106 25.4975 15.4772 25.3783 15.492C25.2591 15.492 25.1398 15.4698 25.028 15.4698C24.9162 15.4698 24.8045 15.4772 24.6927 15.5363C24.5809 15.5881 24.4691 15.5733 24.3573 15.5511C24.2455 15.5215 24.1412 15.4846 24.0294 15.4994C23.9176 15.5585 23.8133 15.4994 23.7089 15.4476C23.6046 15.3958 23.5152 15.344 23.4034 15.3958C23.2022 15.3366 23.001 15.3292 22.8221 15.2405C22.5538 15.4698 22.4495 15.1295 22.293 15.0407C22.2184 14.989 22.1141 15.0038 22.0247 14.9964C21.9353 14.989 21.8533 14.952 21.816 14.8188C21.5626 14.9594 21.503 14.7005 21.3912 14.5821C21.2794 14.4564 21.0782 14.5155 21.0111 14.3454C20.8025 14.412 20.8174 14.1309 20.6758 14.1087C20.6236 13.9534 20.4671 13.9682 20.3851 13.8794C20.2659 13.8424 20.1839 13.7684 20.1318 13.6649C20.0572 13.5983 19.9902 13.5243 19.9231 13.4652C19.7293 13.2802 19.5952 13.1175 19.5132 12.9992C19.4312 12.8808 19.4014 12.8068 19.4312 12.7772H19.4238Z" fill="black"/>
<path d="M30.0803 5.96459C30.0803 5.90542 30.9523 5.74268 32.5546 5.97199C32.6887 5.98679 32.8229 6.01637 32.9645 6.04596C33.1061 6.07555 33.2551 6.09774 33.4042 6.13473C33.5532 6.16431 33.7097 6.2013 33.8737 6.23828C34.0302 6.28267 34.1941 6.33445 34.3581 6.39362C34.5071 6.49718 34.686 6.52677 34.8723 6.54896C35.0586 6.57115 35.2524 6.62293 35.394 6.77827C35.5579 6.87443 35.7368 6.96319 35.9231 7.05196C36.02 7.08894 36.1094 7.13332 36.2063 7.17031C36.3032 7.21469 36.3926 7.25907 36.4895 7.30345C36.6832 7.38482 36.8621 7.51797 37.041 7.64372C37.2273 7.76947 37.4061 7.90261 37.6223 7.99138C37.8756 8.03576 38.0247 8.23548 38.1812 8.4204C38.3377 8.61273 38.4793 8.80505 38.755 8.86423C39.1575 9.16011 39.5152 9.52996 39.8431 9.93679C40.0667 10.4324 40.5138 10.7579 40.8566 11.2017C41.0057 11.7713 41.356 12.2077 41.736 12.6737C41.7435 13.3172 42.0118 13.8202 42.4366 14.3306C42.6303 14.915 42.6899 15.5437 42.9061 16.1577C43.0253 16.7864 43.1446 17.4374 43.1073 18.1105C43.2936 18.7762 43.2563 19.4789 42.9955 20.1447C43.0849 20.8622 42.8465 21.5575 42.5409 22.2084C42.4589 22.3712 42.3993 22.5339 42.3471 22.7114C42.2875 22.8816 42.2428 23.0591 42.1906 23.2366C42.1459 23.4142 42.0714 23.5843 42.0043 23.7544C41.9298 23.9246 41.8329 24.0799 41.7137 24.2278C41.3634 24.8788 41.0057 25.5445 40.5213 26.1289C39.9996 26.691 39.4258 27.1866 38.9712 27.8376C38.4271 28.3997 37.8309 28.9397 37.0931 29.2726C36.5267 29.8718 35.7368 30.175 34.9394 30.3748C34.1867 30.7076 33.3594 30.7964 32.5769 31.0627C31.7572 31.1884 30.9299 31.3881 30.0878 31.2994C29.2457 31.2328 28.4333 31.0997 27.5987 31.0627C27.1813 31.0479 26.7714 30.9369 26.3839 30.7964C26.1902 30.7298 25.9964 30.6484 25.8101 30.5745C25.6163 30.5079 25.43 30.4265 25.2362 30.3674C25.1543 30.3082 25.0648 30.2564 24.9754 30.2046C24.886 30.1528 24.7965 30.1085 24.7071 30.0641C24.6177 30.0197 24.5208 29.9827 24.4314 29.9457C24.3419 29.9013 24.2451 29.8644 24.1556 29.8274L23.8799 29.709C23.7905 29.6646 23.701 29.6277 23.6041 29.5759C23.4253 29.4871 23.2464 29.3909 23.0899 29.2652C22.3968 28.851 21.8603 28.274 21.2119 27.8302C20.6157 27.3346 20.0568 26.7798 19.6618 26.1215C19.319 25.907 19.1028 25.5815 18.9463 25.2338C18.8644 25.0637 18.7973 24.8862 18.7228 24.716C18.6855 24.6273 18.6482 24.5459 18.6035 24.4645C18.5663 24.3832 18.5215 24.3018 18.4694 24.2204C18.2458 23.5103 17.8285 22.9038 17.6422 22.201C17.5155 21.8682 17.4409 21.5131 17.3962 21.1655C17.3813 21.0767 17.3664 20.9953 17.3515 20.9066C17.3366 20.8178 17.3292 20.7364 17.3142 20.6477C17.2844 20.4775 17.2397 20.3074 17.1876 20.1373C17.1056 19.4494 16.9565 18.7688 17.0758 18.1031C17.046 17.933 17.0385 17.7702 17.046 17.6001C17.0609 17.4374 17.0907 17.2746 17.1205 17.1119C17.1503 16.9492 17.195 16.7938 17.2248 16.6311C17.2546 16.4758 17.2695 16.313 17.277 16.1503C17.3739 15.5141 17.5304 14.9002 17.7465 14.3232C17.8508 14.1975 17.9328 14.0643 17.9924 13.9238C18.0595 13.7832 18.1117 13.6501 18.1564 13.5022C18.2011 13.3616 18.2458 13.2137 18.2905 13.0731C18.3352 12.9326 18.38 12.792 18.447 12.6589C18.5961 12.4074 18.693 12.1337 18.8271 11.8748C18.9538 11.6159 19.1103 11.3792 19.3264 11.1869C19.6618 10.7357 20.0568 10.3732 20.34 9.922C20.4965 9.70748 20.7424 9.58174 20.9511 9.4338C21.1597 9.28586 21.3535 9.13791 21.428 8.84943C21.5994 8.6719 21.8155 8.55355 22.0242 8.4352C22.2403 8.32424 22.4266 8.1911 22.5533 7.97658C22.6875 7.76947 22.8738 7.63632 23.0825 7.54756C23.2837 7.45139 23.4998 7.38482 23.6861 7.28866C23.7755 7.23688 23.8724 7.1925 23.9619 7.14072C24.0513 7.09634 24.1482 7.05196 24.2376 7.00757C24.4165 6.91881 24.5953 6.83744 24.7816 6.76347C25.5865 6.42321 26.3317 6.2087 26.9876 6.07555C27.1515 6.04596 27.308 6.01637 27.4645 5.98679C27.621 5.9572 27.7701 5.9424 27.9042 5.92761C28.1874 5.88323 28.4483 5.87583 28.6718 5.86104C29.1339 5.84624 29.4841 5.84624 29.7226 5.87583C29.9611 5.89802 30.0803 5.92761 30.0803 5.9572C30.0803 6.03856 29.4767 6.06815 28.3961 6.26787C27.8595 6.37143 27.2037 6.52677 26.4584 6.78566C25.7206 7.04456 24.8934 7.41441 24.0438 7.9322C23.8724 8.03576 23.7234 8.1763 23.5594 8.30945C23.3955 8.4352 23.2315 8.56095 23.0154 8.62752C22.8365 8.74587 22.6875 8.916 22.5235 9.06394C22.3596 9.21928 22.2031 9.37462 21.9944 9.48557C21.8081 9.95159 21.346 10.1513 21.0181 10.5212C20.7051 10.891 20.3474 11.2535 20.1238 11.7269C20.0344 11.9784 19.8779 12.1855 19.7363 12.4C19.5798 12.6145 19.4382 12.8438 19.3562 13.1027C19.006 13.5317 18.8122 14.0717 18.7526 14.6413C18.4619 15.1443 18.4545 15.7435 18.365 16.3204C18.0744 16.8752 18.1489 17.5039 18.2234 18.1031C18.2905 18.7097 18.2234 19.331 18.3576 19.9524C18.4098 20.5811 18.6408 21.1877 18.8047 21.8164C19.0879 22.4082 19.3711 22.9851 19.5798 23.6287C19.945 24.1908 20.258 24.79 20.6753 25.33C21.1523 25.8256 21.5547 26.3952 22.0838 26.8538C22.3596 27.0757 22.5906 27.342 22.8589 27.5787C22.9856 27.7044 23.1346 27.808 23.2837 27.9041C23.4327 28.0077 23.6041 28.0817 23.783 28.1261C24.4016 28.4811 25.0201 28.8658 25.7206 29.1025C26.3914 29.3983 27.0994 29.635 27.8446 29.7164C28.5377 30.0715 29.3351 30.0123 30.0803 29.9309C30.833 29.8718 31.5783 29.8274 32.3161 29.7164C33.039 29.5537 33.7544 29.3614 34.4401 29.1025C35.0884 28.777 35.8113 28.5847 36.3777 28.1261C36.5193 28.0077 36.6683 27.9115 36.8099 27.808C36.959 27.7044 37.1155 27.6231 37.2571 27.5195C37.5552 27.3272 37.8458 27.1127 38.0694 26.8464C38.5464 26.3286 38.9786 25.8034 39.4779 25.3226C39.6866 25.0489 39.9251 24.7974 40.1263 24.5237C40.2306 24.3906 40.3201 24.2426 40.402 24.0947C40.4393 24.0207 40.4766 23.9467 40.5064 23.8654C40.5362 23.784 40.5585 23.7026 40.5734 23.6213C40.6405 23.4659 40.7001 23.3106 40.7449 23.1479C40.7896 22.9925 40.8417 22.8298 40.8864 22.6745C40.9312 22.5191 40.9908 22.3638 41.0653 22.2232C41.1324 22.0753 41.2218 21.9348 41.3485 21.809C41.4081 21.4909 41.5348 21.1877 41.6317 20.8844C41.6541 20.8104 41.6839 20.729 41.7062 20.6551C41.7286 20.5737 41.7435 20.4997 41.7584 20.4184C41.7882 20.263 41.8106 20.1077 41.7957 19.945C41.8702 19.797 41.9149 19.6417 41.9522 19.4863C41.9745 19.331 41.982 19.1757 41.982 19.0203C41.982 18.865 41.9671 18.7097 41.9522 18.5543C41.9372 18.399 41.9372 18.251 41.9298 18.0957C41.9745 17.4891 41.9745 16.8752 41.7882 16.3056C41.5944 15.7508 41.6019 15.1591 41.4007 14.6265C41.3261 14.5008 41.274 14.375 41.2367 14.2419C41.192 14.1087 41.1622 13.9756 41.1249 13.835C41.0951 13.7019 41.0579 13.5687 41.0057 13.4356C40.9535 13.3098 40.8939 13.1841 40.797 13.0805C40.5809 12.5849 40.2753 12.1559 40.0294 11.7047C39.9027 11.6381 39.7909 11.5567 39.709 11.4606C39.627 11.3644 39.5599 11.2535 39.5003 11.1499C39.381 10.928 39.2916 10.6839 39.1351 10.499C38.9935 10.2992 38.7923 10.1587 38.606 10.0108C38.4271 9.85543 38.2483 9.70748 38.1588 9.47078C37.9055 9.40421 37.7415 9.26366 37.585 9.10093C37.4285 8.94559 37.3018 8.75327 37.1378 8.61273C36.9813 8.46479 36.795 8.35383 36.6087 8.26507C36.4224 8.16891 36.251 8.06535 36.1094 7.91741C36.0051 7.90261 35.9082 7.86563 35.8262 7.82125C35.7442 7.77686 35.6623 7.71769 35.5803 7.65851C35.4312 7.54016 35.2822 7.41441 35.1033 7.37003C34.8127 7.11853 34.4475 7.08154 34.1494 6.9484C33.9854 6.91141 33.8289 6.86703 33.6873 6.80785C33.5383 6.75607 33.3967 6.7043 33.2626 6.63033C33.121 6.57855 32.9868 6.54896 32.8527 6.51197C32.7185 6.47499 32.5918 6.438 32.4651 6.40842C30.9523 6.04596 30.0803 6.04596 30.0803 5.9424V5.96459Z" fill="black"/>
<path d="M34.6787 30.6485C34.6787 30.6485 34.7831 30.6115 34.9917 30.5967C35.2004 30.5819 35.5134 30.5671 35.9233 30.5819C36.7431 30.6041 37.9578 30.7224 39.4781 31.1367C39.7315 31.218 39.9924 31.2994 40.2606 31.3808C40.5215 31.4843 40.8047 31.5731 41.0804 31.6914C41.222 31.7506 41.3636 31.8098 41.5052 31.869C41.5797 31.8985 41.6468 31.9281 41.7213 31.9577C41.7959 31.9947 41.8629 32.0243 41.9374 32.0613C42.079 32.1279 42.2281 32.2018 42.3771 32.2758C42.5262 32.3498 42.6678 32.4385 42.8094 32.5273C43.0777 32.7344 43.3907 32.8897 43.726 33.0451C43.89 33.1265 44.0465 33.2226 44.203 33.3188C44.2775 33.3706 44.3521 33.4297 44.4266 33.4889C44.4937 33.5481 44.5607 33.6221 44.6203 33.696C44.7619 33.8218 44.911 33.9401 45.0526 34.0659C45.224 34.2138 45.3954 34.3618 45.5668 34.5097C45.7755 34.6798 45.9767 34.8722 46.1928 35.0645C46.3046 35.1606 46.4089 35.2642 46.5207 35.3604L46.5431 35.3825C46.5431 35.3825 46.5654 35.3973 46.5505 35.3973L46.5058 35.4195L46.4164 35.4639L46.2301 35.5601C45.9767 35.6858 45.7084 35.819 45.4327 35.9447C45.306 36.0039 45.1867 36.0705 45.06 36.1296C44.9706 36.174 44.8812 36.2258 44.7917 36.2702C44.7023 36.322 44.6054 36.359 44.5235 36.4181C44.434 36.4699 44.3521 36.5291 44.2626 36.5883C44.1732 36.6474 44.0912 36.7066 44.0092 36.7658C43.9273 36.825 43.8378 36.8915 43.7633 36.9655C43.6292 37.1356 43.4652 37.2688 43.2863 37.3945C43.1149 37.5203 42.9361 37.646 42.7498 37.7718C42.6603 37.8384 42.5635 37.8901 42.4815 37.9641C42.3995 38.0381 42.3175 38.112 42.2355 38.186C42.079 38.3487 41.93 38.5115 41.8331 38.7334C41.2667 39.4361 40.7301 40.198 40.2681 41.0339C40.1936 41.13 40.119 41.2262 40.0594 41.3297C39.9924 41.4333 39.9402 41.5443 39.888 41.6552C39.8358 41.7662 39.7837 41.8771 39.739 41.9881C39.7166 42.0473 39.6868 42.099 39.6719 42.1582L39.6197 42.3357C39.5527 42.5724 39.4707 42.8092 39.4185 43.0533C39.3663 43.2974 39.3142 43.5415 39.2546 43.7856C39.1577 44.0223 39.0757 44.2664 39.0086 44.5179C38.9714 44.6436 38.9565 44.7694 38.9416 44.9025C38.9266 45.0283 38.9117 45.1614 38.8968 45.2945C38.867 45.5534 38.8819 45.8197 38.8968 46.086C38.9043 46.2192 38.9117 46.3523 38.9266 46.4855C38.949 46.6186 38.9639 46.7518 38.9863 46.8849C38.9565 47.0181 38.9341 47.1512 38.9192 47.2917C38.9043 47.4249 38.8968 47.5654 38.8968 47.6986C38.8968 47.9723 38.9192 48.246 38.9788 48.5196C39.0757 49.0596 39.2918 49.5848 39.5825 50.073C39.7539 50.5982 39.9551 51.1234 40.201 51.6338C40.447 52.1442 40.7525 52.6398 41.1326 53.0762C41.2965 53.3129 41.4903 53.5348 41.6766 53.7567C41.8704 53.9713 42.0641 54.1932 42.2803 54.4003C42.6976 54.8145 43.1373 55.214 43.5994 55.5986C44.1285 55.8871 44.6576 56.1756 45.1867 56.464C45.7233 56.7451 46.2599 57.0262 46.8263 57.3073C47.4374 57.4257 48.0485 57.544 48.667 57.6624L48.8981 57.7067L49.1291 57.7437C49.2856 57.7659 49.4421 57.8029 49.5986 57.8177L49.8371 57.8473L49.9563 57.8621C49.9563 57.8621 49.9861 57.8621 50.0085 57.8621H50.0681L50.1873 57.8769C50.4854 57.8991 50.7835 57.9213 51.0816 57.9361H51.1934L51.2456 57.9508V57.973V58.0026L51.2381 58.2319V58.6758C51.2307 58.9568 51.2307 59.3267 51.2381 59.4376C51.2456 59.7779 51.268 60.1108 51.2829 60.451C51.3201 61.1316 51.3499 61.8195 51.2754 62.5074C51.2605 63.8906 51.3201 65.2887 51.2903 66.7015C51.2754 66.9974 51.2605 67.3007 51.2456 67.5966V67.7075L51.2381 67.885V68.2771C51.2232 68.5286 51.2158 68.7875 51.2158 69.039C50.8506 69.039 50.5004 69.0316 50.1426 69.0316H49.7253L49.4123 69.039C48.9949 69.0538 48.5702 69.0834 48.1454 69.1351C46.6847 69.1795 45.2091 69.2461 43.7111 69.1425C42.2206 69.3496 40.7078 69.2535 39.1875 69.1425C37.6672 69.1795 36.132 69.0316 34.5818 69.1425C33.0317 69.1129 31.4742 69.2313 29.9017 69.1425C28.3292 69.0834 26.7716 69.0242 25.2215 69.1425C23.6714 69.2757 22.1362 69.0908 20.6159 69.1425C19.0956 68.9502 17.5902 69.2017 16.0922 69.1425C14.6017 69.1647 13.1262 69.0316 11.658 69.1351C11.3077 69.1425 10.95 69.1499 10.5998 69.1573H10.3389L9.85451 69.1647C9.5266 69.1647 9.19124 69.1647 8.86333 69.1647V67.6557V67.382C8.87078 67.0122 8.88569 66.6497 8.90805 66.2799C8.60995 64.8597 8.98257 63.4616 8.92295 62.0858C9.04964 60.7025 8.90059 59.3415 8.93786 58.0026C8.88569 56.6638 9.072 55.3397 8.95276 54.0452C8.97512 52.7433 8.85588 51.4711 8.97512 50.2136C8.82607 48.9561 9.10181 47.7282 8.99748 46.5225C8.99748 45.2798 9.12417 44.0445 9.42227 42.8905C9.48189 42.75 9.54151 42.6094 9.58622 42.4689C9.63839 42.3283 9.69056 42.1878 9.74272 42.0547C9.78744 41.9141 9.83215 41.7736 9.87687 41.633C9.92158 41.4925 9.9663 41.3519 10.011 41.2188C10.0557 41.0783 10.093 40.9377 10.1377 40.8046C10.1824 40.664 10.2271 40.5309 10.2719 40.3903C10.3613 40.1166 10.4731 39.8503 10.5849 39.5914C10.8382 39.0811 11.0767 38.5707 11.3525 38.0825C11.4866 37.8384 11.6431 37.609 11.7996 37.3797C11.9636 37.1578 12.1424 36.9433 12.3287 36.751C12.9995 35.8929 13.782 35.1902 14.4825 34.4357C14.6688 34.2582 14.8775 34.1103 15.0787 33.9623C15.2874 33.8218 15.5109 33.696 15.7196 33.5629C15.9357 33.4371 16.1444 33.3114 16.3382 33.1634C16.5319 33.0155 16.7182 32.8676 16.8822 32.6678C17.076 32.5199 17.2921 32.4237 17.5008 32.3128C17.7094 32.2018 17.933 32.1279 18.1491 32.0391C18.2609 31.9947 18.3652 31.9503 18.4696 31.9059C18.5739 31.8616 18.6857 31.8172 18.7826 31.7728C18.9913 31.6766 19.185 31.5657 19.3713 31.4399C19.5651 31.3142 19.7589 31.2106 19.9675 31.1293C20.1762 31.0553 20.3849 30.9887 20.5935 30.9369C21.0183 30.8482 21.4357 30.7742 21.8456 30.6928C22.248 30.5967 22.6504 30.5449 23.038 30.4783C23.4329 30.4339 23.813 30.3822 24.1931 30.3674C24.6179 30.3304 25.0278 30.3378 25.4302 30.3304C25.8252 30.3304 26.2053 30.3452 26.5779 30.3452C27.3231 30.36 28.0162 30.3748 28.6646 30.3822C29.9613 30.4118 31.0643 30.4339 31.9586 30.4635C33.7472 30.5227 34.7011 30.5819 34.7011 30.6411C34.7011 30.7076 33.5236 30.7742 31.3326 30.8408C30.2371 30.8704 28.8882 30.9 27.3082 30.9295C26.9132 30.9295 26.5034 30.9443 26.0786 30.9517C25.8699 30.9517 25.6538 30.9591 25.4377 30.9665C25.2215 30.9739 25.0054 30.9813 24.7818 30.9961C23.9024 31.0553 22.9709 31.181 22.0095 31.4177C21.622 31.5065 21.2494 31.6618 20.8618 31.795C20.6755 31.869 20.4818 31.9429 20.2805 32.0095C20.0793 32.0761 19.8856 32.1427 19.6694 32.187C18.8795 32.5051 18.1491 33.0081 17.3294 33.4075C17.1654 33.5777 16.9865 33.7182 16.8077 33.8588C16.6288 34.0067 16.4351 34.1325 16.2413 34.2656C16.055 34.4061 15.8538 34.5319 15.66 34.6724C15.4737 34.813 15.2799 34.9609 15.0936 35.1163C14.3856 35.7672 13.6478 36.4625 13.1038 37.3354C12.9771 37.5647 12.8355 37.7718 12.6939 37.9863C12.5598 38.2008 12.4033 38.4153 12.2617 38.6298C11.9785 39.0663 11.7027 39.5249 11.5164 40.0279C10.9426 40.9451 10.5998 42.0177 10.4731 43.1346C10.2868 43.6672 10.2048 44.2294 10.1601 44.799C10.1377 45.0874 10.1377 45.3759 10.1228 45.657C10.1228 45.9455 10.1228 46.234 10.1228 46.5299C9.92158 47.7356 10.0632 48.9709 10.1452 50.221C10.2197 51.4785 10.1153 52.7507 10.1675 54.0526C10.1303 55.3545 10.2197 56.6712 10.1824 58.01C10.2719 59.3489 10.3091 60.7099 10.1973 62.0932C10.2569 63.4764 10.2122 64.8745 10.2122 66.2873C10.2346 66.6497 10.242 67.0196 10.242 67.3894V67.8185L10.2942 67.8259H10.3091H10.3166C10.3166 67.8259 10.3166 67.8259 10.3315 67.8259H10.5923C10.9426 67.8333 11.3003 67.8333 11.6506 67.8259C13.1112 67.7889 14.5868 68.033 16.0848 67.8185C17.5753 67.7889 19.0881 67.8555 20.6084 67.8185C22.1288 67.8481 23.664 67.8776 25.2141 67.8185C26.7642 68.033 28.3218 67.8998 29.8942 67.8185C31.4667 67.7593 33.0243 67.7889 34.5744 67.8185C36.1245 67.7963 37.6597 67.8111 39.18 67.8185C40.7003 67.7519 42.2057 67.9072 43.7037 67.8185C45.1942 67.7297 46.6698 67.9146 48.1379 67.8259C48.5627 67.8111 48.98 67.7963 49.4048 67.7815H49.7178L49.8743 67.7741C49.8967 67.7741 49.8892 67.7741 49.8967 67.7741C49.9116 67.7741 49.9265 67.7741 49.934 67.7741C49.934 67.7667 49.934 67.7593 49.934 67.7445V67.7297C49.934 67.7297 49.934 67.7297 49.934 67.7075V67.5966C49.9489 67.2933 49.9638 66.9974 49.9861 66.7015C49.9861 65.2887 50.1799 63.8833 50.001 62.5074C49.9787 61.8195 49.9116 61.1316 49.8818 60.451C49.8669 60.1108 49.8669 59.7705 49.8818 59.4376C49.8818 59.3563 49.8967 59.2379 49.9042 59.2675C49.9042 59.2675 49.9191 59.2601 49.934 59.2453C49.9414 59.2305 49.9563 59.2157 49.9712 59.1935C49.9861 59.1714 50.0085 59.1418 50.001 59.127C49.9638 59.1344 49.934 59.1418 49.9042 59.1418H49.8818L49.7477 59.127L49.4868 59.1048C49.308 59.09 49.1365 59.053 48.9651 59.0308L48.7043 58.9864L48.4509 58.9273C47.7653 58.7793 47.1095 58.587 46.4387 58.4243C45.8276 58.0914 45.2165 57.8251 44.6129 57.5292C44.0167 57.2333 43.4205 56.9079 42.8988 56.5084C42.3846 56.0942 41.9151 55.6356 41.4754 55.1622C41.0357 54.6888 40.6258 54.208 40.2234 53.7124C39.8135 53.2242 39.493 52.6768 39.2396 52.1072C38.9863 51.5376 38.7701 50.9681 38.5689 50.3985C38.323 49.8437 38.2038 49.2446 38.1441 48.6528C38.1069 48.3569 38.092 48.0684 38.0622 47.7799C38.0473 47.632 38.0398 47.4915 38.0249 47.3435L37.9653 46.9145C37.9653 45.768 38.0174 44.6288 38.3155 43.571C38.3155 43.29 38.3528 43.0163 38.4124 42.75C38.4795 42.4837 38.5913 42.2322 38.6956 41.9881L38.7776 41.8032C38.8074 41.744 38.8447 41.6848 38.8745 41.6256C38.9416 41.5073 39.0086 41.3963 39.0757 41.278C39.1428 41.167 39.2024 41.0487 39.2695 40.9377C39.3365 40.8268 39.4036 40.7158 39.4707 40.6048C39.6048 40.3829 39.7092 40.1536 39.8433 39.9317C39.9029 39.8208 39.97 39.7098 40.0296 39.5988C40.0892 39.4879 40.1489 39.3769 40.2234 39.2734C40.365 39.0663 40.5066 38.8591 40.6631 38.6668C40.827 38.4819 41.0133 38.3118 41.2146 38.1638C41.3263 37.9419 41.4828 37.757 41.6393 37.5721C41.7213 37.4833 41.8033 37.3945 41.8853 37.3132C41.9747 37.2318 42.0716 37.1578 42.161 37.0839C42.3473 36.9433 42.5336 36.7954 42.7349 36.677C42.9361 36.5587 43.1298 36.4403 43.3162 36.3146C43.4056 36.248 43.5099 36.1962 43.5994 36.137C43.6962 36.0779 43.7857 36.0187 43.8825 35.9595C43.972 35.8929 44.0614 35.8338 44.1583 35.7746C44.2477 35.7154 44.3446 35.6636 44.4415 35.6045C44.5309 35.5527 44.6278 35.4935 44.7172 35.4417L44.829 35.3825C44.829 35.3825 44.8663 35.3604 44.8812 35.353C44.9706 35.316 45.06 35.2938 45.2016 35.2642C45.2091 35.2494 45.2165 35.2346 45.2314 35.2272L45.2464 35.2124H45.2538C45.2538 35.2124 45.2463 35.1976 45.2389 35.1902C45.1942 35.1606 45.1569 35.131 45.1271 35.0941C45.0675 35.0349 45.0228 34.9683 44.9706 34.9017L44.9259 34.85L44.9035 34.8204C44.9035 34.8204 44.9035 34.813 44.8886 34.8056L44.8663 34.7834C44.7992 34.7168 44.7396 34.6502 44.6725 34.5837C44.5384 34.4579 44.3968 34.3396 44.2477 34.2434C44.1881 34.1768 44.121 34.1103 44.054 34.0511C43.9869 33.9919 43.9198 33.9401 43.8453 33.8883C43.7037 33.7848 43.5621 33.6812 43.413 33.5851C43.1149 33.4075 42.8317 33.23 42.5486 33.0673C42.2579 32.9193 41.9747 32.7714 41.699 32.6309C41.6319 32.5939 41.5648 32.5569 41.4978 32.5199C41.4307 32.4829 41.3636 32.4533 41.2965 32.4163C41.1624 32.3498 41.0357 32.2758 40.909 32.2018C40.6407 32.0835 40.3799 31.9799 40.1265 31.869C39.8731 31.7728 39.6197 31.684 39.3812 31.5953C37.928 31.1219 36.7505 30.9295 35.9457 30.8334C35.5432 30.7742 35.2377 30.7594 35.029 30.7298C34.8203 30.7002 34.716 30.678 34.716 30.6632L34.6787 30.6485Z" fill="black"/>
<path d="M50.626 34.3692C50.626 34.4727 49.7764 34.4801 48.2934 34.8278C48.1667 34.8574 48.0474 34.8944 47.9133 34.9313C47.7791 34.9683 47.645 34.9979 47.5108 35.0497C47.3767 35.1015 47.2351 35.1532 47.086 35.1976C46.9445 35.2494 46.7954 35.3086 46.6389 35.353C46.4675 35.353 46.3259 35.4639 46.1843 35.5675C46.0427 35.6636 45.9011 35.7746 45.6999 35.7672C45.5285 35.8116 45.3571 35.9003 45.2006 35.9891C45.1186 36.0335 45.0366 36.0853 44.9546 36.1371C44.8801 36.1962 44.7981 36.248 44.7162 36.3072C44.5522 36.4181 44.3808 36.5069 44.2019 36.6105C44.0231 36.7066 43.8517 36.8324 43.7101 36.9951C43.5983 37.1948 43.4045 37.291 43.1959 37.3797C42.9946 37.4759 42.7934 37.5943 42.7114 37.8384C42.4208 38.186 42.078 38.4967 41.7575 38.8518C41.3178 39.1033 41.139 39.6063 40.8856 40.0353C40.4384 40.346 40.2447 40.8563 40.1329 41.3889C39.6634 41.7514 39.4696 42.2914 39.5441 42.8979C39.3876 43.4231 39.1342 43.9483 39.1641 44.5401C39.0895 45.1096 39.0746 45.694 39.0225 46.2858C39.2013 46.8849 39.2162 47.4693 39.1566 48.098C39.4398 48.675 39.492 49.2816 39.5888 49.9177C39.6112 50.073 39.6634 50.2284 39.723 50.3763C39.7901 50.5242 39.8646 50.6648 39.9466 50.8053C40.0211 50.9459 40.1105 51.0864 40.1776 51.2344C40.2447 51.3823 40.3117 51.5302 40.349 51.693C40.6397 52.2773 41.0421 52.8099 41.4222 53.3573C41.765 53.9343 42.1749 54.5186 42.8009 54.8515C43.3449 55.2805 43.9262 55.6504 44.4628 56.109C45.1633 56.3087 45.7297 56.7008 46.3557 57.0632C47.0264 57.2925 47.6897 57.6402 48.4349 57.6624C49.1504 57.8325 49.8882 57.7807 50.626 57.8695C51.3638 57.9287 52.1239 57.9139 52.817 57.6624C53.1598 57.5292 53.5175 57.4627 53.8678 57.3813C54.0467 57.3443 54.2181 57.2999 54.3895 57.2481C54.5609 57.2038 54.7323 57.1372 54.8888 57.0558C55.0751 57.041 55.2465 56.9818 55.4105 56.9153C55.4924 56.8783 55.5744 56.8413 55.6564 56.8043C55.7309 56.7599 55.8129 56.7156 55.8874 56.6638L56.111 56.5232L56.3271 56.3753C56.4762 56.2791 56.6252 56.1904 56.7817 56.109C57.363 55.7244 58.0039 55.3989 58.4436 54.8515C58.928 54.3633 59.3528 53.8381 59.8223 53.3573C59.9043 53.0023 60.1055 52.7508 60.3217 52.4919C60.4334 52.3661 60.5378 52.2404 60.6421 52.1072C60.6943 52.0406 60.739 51.9741 60.7837 51.9075C60.821 51.8335 60.8582 51.7596 60.888 51.6856C61.2979 51.1604 61.4246 50.5021 61.6407 49.9103C61.7078 49.5996 61.8271 49.3111 61.9165 49.0079L61.9836 48.786C62.0059 48.712 62.0208 48.638 62.0357 48.5566C62.0581 48.4013 62.0879 48.246 62.073 48.0906C62.0953 47.9427 62.1177 47.7874 62.1326 47.632C62.1326 47.4767 62.1401 47.3287 62.1475 47.1734C62.155 47.0255 62.1475 46.8701 62.1624 46.7222C62.1699 46.5742 62.1922 46.4263 62.2146 46.271C62.1773 46.123 62.1624 45.9751 62.155 45.8271C62.1475 45.6792 62.155 45.5313 62.155 45.3833C62.1699 45.2354 62.155 45.0874 62.155 44.9469C62.1475 44.799 62.1252 44.6584 62.073 44.5179C61.9836 43.9483 61.8271 43.4083 61.6929 42.8757C61.7004 42.7278 61.6929 42.5873 61.6556 42.4541C61.6184 42.321 61.5662 42.1952 61.5066 42.0695C61.447 41.9437 61.3799 41.8328 61.3054 41.7144C61.2309 41.5961 61.1712 41.4851 61.1042 41.3667C60.9924 41.13 60.8508 40.9081 60.7017 40.6936C60.5676 40.4791 60.426 40.2646 60.3515 40.0131C60.0832 39.5915 59.8671 39.1254 59.4721 38.8296C59.3081 38.6594 59.2038 38.4375 59.0771 38.2304C58.9504 38.0233 58.7864 37.8606 58.5182 37.8162C58.3318 37.6904 58.2052 37.4981 58.0561 37.328C57.9071 37.1652 57.7506 37.0025 57.5195 36.9729C57.2885 36.9285 57.132 36.8028 56.9755 36.677C56.8264 36.5439 56.6848 36.3886 56.5134 36.2924C56.4315 36.2406 56.3495 36.1888 56.2675 36.1444C56.1855 36.1001 56.1036 36.0557 56.0216 36.0039C55.8576 35.9151 55.7011 35.8264 55.5372 35.7524C54.8143 35.3973 54.1286 35.1459 53.525 34.9683C53.3759 34.9239 53.2269 34.887 53.0853 34.85C52.9437 34.813 52.8096 34.7834 52.6754 34.7538C52.4146 34.6872 52.1761 34.6503 51.96 34.6059C51.5277 34.5319 51.1924 34.4801 50.9613 34.4505C50.7378 34.4135 50.6185 34.384 50.6185 34.3544C50.6185 34.3174 50.7676 34.2878 51.0508 34.2656C51.1924 34.2508 51.3712 34.2434 51.5799 34.2434C51.6842 34.2434 51.8035 34.2434 51.9227 34.2434C52.0419 34.2508 52.1761 34.2582 52.3102 34.273C52.8617 34.3174 53.5474 34.4135 54.3224 34.6207C55.0975 34.8278 55.9769 35.1532 56.8861 35.6488C57.0724 35.745 57.2736 35.819 57.4674 35.9151C57.6686 36.0113 57.8474 36.1371 57.989 36.322C58.1753 36.4477 58.3691 36.5735 58.5703 36.6992C58.7641 36.8324 58.9504 36.9877 59.0994 37.1726C59.5988 37.3502 59.8447 37.8236 60.1652 38.223C60.5154 38.6003 60.7763 39.0663 61.1563 39.4657C61.3576 39.658 61.4992 39.9021 61.6184 40.1536C61.7451 40.4051 61.8494 40.664 62.0208 40.9007C62.1475 41.4777 62.4084 41.9881 62.7065 42.5281C62.7288 42.676 62.7512 42.8314 62.7884 42.9793C62.8257 43.1272 62.8779 43.2678 62.9226 43.4157C62.9673 43.5637 63.0195 43.7116 63.0642 43.8595C63.1089 44.0075 63.1387 44.1628 63.1685 44.3182C63.0716 44.9691 63.2803 45.5756 63.3623 46.234C63.4368 46.8923 63.3101 47.558 63.2505 48.2312C63.1163 48.8969 63.0493 49.5922 62.8033 50.2506C62.6841 50.9459 62.4307 51.6412 61.991 52.233C61.7153 52.9061 61.2756 53.5052 60.821 54.097C60.4334 54.7406 59.8522 55.2435 59.3007 55.7687C59.0324 56.0424 58.7045 56.2495 58.3766 56.4567C58.2201 56.5676 58.0487 56.6638 57.8996 56.7821C57.7506 56.9005 57.594 57.0262 57.4599 57.1742C56.8115 57.618 56.0737 57.9213 55.3509 58.2541C54.5982 58.5204 53.8156 58.7201 53.0331 58.9347C52.1985 58.8755 51.4234 59.0826 50.5887 59.1714C49.7615 59.2305 48.9343 59.1196 48.1443 58.9347C47.3394 58.8015 46.5644 58.5648 45.8266 58.2541C45.0515 58.0174 44.4181 57.5218 43.7175 57.1742C43.5387 57.0854 43.3673 56.9892 43.2182 56.8709C43.0617 56.7525 42.9052 56.6342 42.7636 56.5084C42.473 56.2569 42.1972 55.9906 41.8842 55.7687C41.2806 55.3027 40.7291 54.7479 40.3639 54.0896C40.1403 53.7937 39.9615 53.4609 39.7901 53.1354C39.7006 52.9801 39.6187 52.8173 39.5218 52.662C39.4771 52.588 39.4174 52.514 39.3653 52.4401C39.3131 52.3661 39.2535 52.2921 39.1939 52.2256C39.1044 52.0702 38.9926 51.9223 38.9032 51.7669C38.8063 51.6116 38.702 51.4637 38.6275 51.3009C38.5455 51.1382 38.4784 50.9755 38.4337 50.7979C38.3965 50.6204 38.3741 50.4429 38.389 50.2506C38.2549 49.9251 38.1878 49.5774 38.1431 49.2372C38.1207 49.067 38.0909 48.8969 38.0685 48.7268C38.0387 48.5566 37.994 48.3939 37.9419 48.2312C37.9717 48.0536 37.9791 47.8835 37.9717 47.7208C37.9717 47.5506 37.9493 47.3879 37.9269 47.2252C37.8971 47.0624 37.8822 46.8997 37.8599 46.7296C37.8375 46.5668 37.8226 46.4041 37.8301 46.234C37.8748 45.5756 38.0164 44.9543 38.0238 44.3182C38.0238 44.1554 38.0462 44.0001 38.076 43.8521C38.1133 43.6968 38.158 43.5489 38.2027 43.4009C38.2474 43.253 38.307 43.1124 38.3517 42.9645C38.4039 42.824 38.4412 42.676 38.4859 42.5281C38.5082 42.3727 38.5455 42.2322 38.6051 42.0917C38.6647 41.9511 38.7393 41.8254 38.8138 41.6922C38.8809 41.5591 38.9628 41.4333 39.0299 41.3076C39.097 41.1744 39.1417 41.0413 39.179 40.9007C39.4622 40.3977 39.7006 39.8873 40.0435 39.4583C40.0584 39.303 40.1105 39.1698 40.1776 39.0515C40.2447 38.9331 40.3341 38.8296 40.431 38.7334C40.6322 38.5485 40.8558 38.3931 41.0346 38.2082C41.3998 37.8458 41.5936 37.328 42.1003 37.1578C42.2047 36.9211 42.3835 36.751 42.5847 36.6253C42.7934 36.5069 43.0021 36.4033 43.2108 36.3072C43.412 36.2036 43.5759 36.0557 43.7548 35.9299C43.9262 35.7968 44.1051 35.6784 44.3212 35.6341C44.3882 35.5453 44.4702 35.4861 44.5597 35.4343C44.6491 35.3826 44.746 35.353 44.8428 35.3234C45.0366 35.2642 45.2304 35.2198 45.3943 35.1163C45.7819 35.0497 46.0725 34.8352 46.4079 34.7464C46.5644 34.6724 46.7209 34.6207 46.8774 34.5689C47.0339 34.5319 47.1904 34.5023 47.3469 34.4949C47.4959 34.4579 47.6375 34.4357 47.7791 34.4061C47.9207 34.384 48.0549 34.3544 48.1816 34.3396C49.7466 34.1177 50.6111 34.273 50.6036 34.3396L50.626 34.3692Z" fill="black"/>
</g>
</g>
<defs>
<clipPath id="clip0_3267_38714">
<rect width="66" height="80" fill="white"/>
</clipPath>
<clipPath id="clip1_3267_38714">
<rect width="54.6341" height="63.4146" fill="white" transform="translate(8.78125 5.85364)"/>
</clipPath>
</defs>
</svg>
