<svg width="61" height="80" viewBox="0 0 61 80" fill="none" xmlns="http://www.w3.org/2000/svg">
<g clip-path="url(#clip0_3267_38739)">
<ellipse cx="30" cy="31" rx="30" ry="31" fill="#CCF4FF"/>
<g clip-path="url(#clip1_3267_38739)">
<path d="M3.74848 31.6276C3.83257 31.6276 3.90902 32.9845 3.97782 35.4682C3.98547 35.8822 4.00076 36.3268 4.01605 36.8021C4.03898 37.2774 4.06191 37.7834 4.05427 38.32C3.94724 38.8566 4.25303 39.4162 4.08485 40.0065C4.03898 40.5968 4.08485 41.2177 4.11543 41.8617C4.15365 42.5056 4.04662 43.1802 4.146 43.8778C4.35241 44.5754 3.91667 45.3037 4.17658 46.055C4.2301 46.8062 4.21481 47.5805 4.20716 48.3778C4.04662 49.175 4.20716 49.9953 4.23774 50.8462C4.04662 51.6895 4.13072 52.5634 4.26067 53.445C4.00076 54.3343 4.03898 55.2465 4.28361 56.1818C4.29125 57.117 4.19187 58.0676 4.30654 59.0412C4.32183 60.0148 4.37534 61.0037 4.32948 62.0156C4.5053 63.0275 4.49766 64.0547 4.34477 65.0973C4.53588 66.1399 4.45944 67.2055 4.36006 68.2864C4.25303 69.3673 4.52059 70.4635 4.37534 71.5751C4.37534 71.8357 4.37534 72.104 4.37534 72.3724V72.5717V72.6177V72.6483V72.7173L4.45944 72.7327H4.47472L4.57411 72.771L4.78816 72.8323C5.07101 72.9243 5.35386 73.0086 5.63671 73.1083C6.69932 73.5223 7.76957 73.9516 8.93156 74.1279C10.0553 74.4345 11.202 74.7258 12.3029 75.1781C13.4954 75.3391 14.6192 75.7837 15.7429 76.2514C16.9126 76.581 18.0363 77.0869 19.2442 77.3476C19.8252 77.5469 20.4215 77.7079 21.0254 77.8842L21.4688 78.0145L21.8357 78.1295C21.8357 78.1295 21.8969 78.1602 21.958 78.1985C21.958 78.1985 21.9886 78.1295 22.0039 78.0682V78.0529V78.0299V77.9149V77.6772L22.0192 77.2096C22.0192 76.5887 22.0192 75.9677 21.9504 75.3468C21.8204 74.1125 22.0039 72.886 21.9504 71.6671C22.1339 70.4559 21.8892 69.2446 21.9504 68.0564C21.9351 66.8682 22.0574 65.6799 21.958 64.5147C21.9198 63.3495 21.8892 62.1919 21.9657 61.0497C21.6752 59.9074 22.0421 58.7805 21.981 57.669C22.1033 56.5574 21.9657 55.4612 21.9963 54.3803C21.9428 53.2994 22.1262 52.2338 22.0116 51.1912C22.0345 50.1486 21.9198 49.1137 22.0269 48.1095C21.8816 47.0976 22.1492 46.1086 22.0498 45.1351C22.0498 44.1615 22.0421 43.2109 22.0727 42.2756C22.3021 41.3481 22.1109 40.4358 22.0957 39.5466C22.1033 39.2016 22.0957 38.8643 22.0727 38.527C22.0727 38.3737 22.0574 38.2203 22.0574 38.067C22.0574 38.021 22.0574 37.975 22.0574 37.9214C22.0345 37.906 22.0116 37.8984 21.9886 37.8754L21.9504 37.8447L21.9275 37.8294H21.9198C21.9198 37.8294 21.8969 37.8064 21.8892 37.8064C21.0942 37.5381 20.3374 37.1931 19.55 37.0474C18.7779 36.8405 18.151 36.2655 17.3483 36.3268C16.6144 36.1505 16.0105 35.6676 15.2843 35.6446C14.5657 35.6139 13.9847 35.2153 13.3731 35.0159C12.7615 34.809 12.1729 34.6173 11.6148 34.4333C9.09974 33.5901 7.11978 32.9155 5.77432 32.4325C4.42886 31.9495 3.72555 31.6659 3.74084 31.6122C3.76377 31.5509 4.67349 31.7656 6.36295 32.2332C8.04478 32.7008 10.4987 33.4061 13.5948 34.326C14.214 34.51 14.902 34.556 15.5289 34.901C16.194 35.1079 16.9202 35.2153 17.6082 35.5219C18.388 35.5449 19.0684 35.9435 19.8252 36.1888C20.5897 36.4188 21.3541 36.7255 22.1797 36.9018C22.195 36.9018 22.2027 36.9018 22.218 36.9018L22.2791 36.9171L22.4014 36.9478L22.6384 37.0091C22.799 37.0551 22.9595 37.1011 23.12 37.1471C23.12 37.4231 23.12 37.7144 23.12 37.9904V38.0977V38.159V38.2817L23.1047 38.5346C23.0895 38.8719 23.0818 39.2092 23.12 39.5542C22.9901 40.4435 23.0283 41.3557 23.143 42.2833C23.0207 43.2186 23.1659 44.1691 23.1659 45.1427C22.9748 46.1163 23.1124 47.1052 23.1888 48.1171C23.2576 49.129 23.1583 50.1563 23.2041 51.1989C23.1659 52.2414 23.25 53.307 23.2194 54.3879C23.3112 55.4688 23.3417 56.5651 23.2347 57.6766C23.2959 58.7882 23.25 59.9151 23.25 61.0573C23.3264 62.1996 23.2424 63.3495 23.2576 64.5224C23.2959 65.6876 23.0512 66.8682 23.2653 68.0641C23.2959 69.2523 23.2347 70.4635 23.2653 71.6748C23.2347 72.8936 23.2118 74.1125 23.2653 75.3544C23.1583 75.9754 23.143 76.5963 23.1583 77.2173C23.1583 77.3706 23.1659 77.5316 23.1735 77.6849L23.1888 77.9225V78.0375L23.2041 78.2292C23.2271 78.8195 23.25 79.4097 23.2653 80.0077C22.7149 79.8544 22.1492 79.6857 21.5758 79.5094L21.0483 79.3484L20.6049 79.2104C20.0163 79.0188 19.4277 78.8195 18.8467 78.6201C17.6618 78.2675 16.4998 77.8919 15.3454 77.5162C14.1681 77.2096 13.0673 76.7036 11.913 76.4353C10.751 76.167 9.68073 75.6381 8.54933 75.3698C7.41792 75.0785 6.30944 74.7641 5.25448 74.3272C4.97163 74.2352 4.68878 74.1355 4.41357 74.0359L4.20716 73.9592L4.10014 73.9209L3.91667 73.8596C3.67204 73.7752 3.43505 73.6909 3.19042 73.6066C3.19042 73.3689 3.19042 73.139 3.19807 72.9013V72.587V72.3877C3.19042 72.1194 3.16749 71.8511 3.12927 71.5904C3.09104 70.4789 2.85406 69.3826 3.14455 68.3017C3.06811 67.2208 3.28216 66.1552 3.15984 65.1127C3.37389 64.0701 3.16749 63.0352 3.17513 62.0309C3.221 61.019 3.2898 60.0301 3.19807 59.0565C3.09869 58.0829 3.25158 57.1324 3.221 56.1971C3.09869 55.2695 3.38154 54.3573 3.24394 53.4603C3.27451 52.5711 3.22865 51.7048 3.26687 50.8616C2.97637 50.0183 3.26687 49.1904 3.2898 48.3931C3.33567 47.5959 3.09869 46.8216 3.32038 46.0703C3.09869 45.319 3.2898 44.5984 3.35096 43.8932C3.41212 43.1956 3.25922 42.521 3.38154 41.877C3.22865 41.2331 3.46563 40.6121 3.41212 40.0218C3.5115 39.4316 3.41212 38.8643 3.4427 38.3353C3.40447 37.7987 3.41976 37.2927 3.47328 36.8175C3.48856 36.3422 3.49621 35.8975 3.5115 35.4836C3.5803 32.9998 3.65675 31.6429 3.74084 31.6429L3.74848 31.6276Z" fill="black"/>
<path d="M41.4442 31.6276C41.4824 31.6276 41.5206 32.0032 41.5665 32.7238C41.6047 33.4444 41.6429 34.5023 41.6811 35.8745C41.6888 36.3345 41.7041 36.8251 41.7194 37.3464C41.7423 37.8754 41.7652 38.4273 41.7576 39.0253C41.6506 39.6155 41.9563 40.2442 41.7882 40.8958C41.7423 41.5474 41.7882 42.2373 41.8187 42.9503C41.857 43.6632 41.7499 44.4145 41.8493 45.1811C42.0557 45.9553 41.62 46.7603 41.8799 47.5882C41.9334 48.4161 41.9181 49.2747 41.9105 50.164C41.7499 51.0455 41.9105 51.9578 41.9411 52.8931C41.7499 53.8283 41.834 54.7866 41.964 55.7755C41.7041 56.7567 41.7423 57.7686 41.9869 58.8035C41.9946 59.8308 41.8952 60.8887 42.0099 61.9619C42.0251 63.0352 42.0787 64.1314 42.0328 65.2506C42.2086 66.3699 42.201 67.5044 42.0481 68.662C42.2392 69.8196 42.1627 70.9925 42.0634 72.1884C42.0634 72.265 42.0481 72.3494 42.0481 72.4337V72.5563V72.7327C42.0481 73.0163 42.0481 73.2999 42.0481 73.5913C41.8646 73.6526 41.6888 73.7139 41.5053 73.7752L41.2301 73.8672L41.1078 73.9132L41.0313 73.9439C40.8249 74.0205 40.6185 74.1049 40.4121 74.1739C39.9917 74.3272 39.5712 74.4575 39.1278 74.5418C37.9582 74.8945 36.7886 75.3238 35.5731 75.6687C34.3499 75.9754 33.1038 76.2744 31.9266 76.8263C30.7111 77.2556 29.4879 77.7079 28.2036 78.0069C27.0034 78.5895 25.7115 78.9038 24.4042 79.2104C24.2743 79.2564 24.1443 79.2948 24.0143 79.3408L23.4563 79.5094C22.9747 79.6551 22.4931 79.8007 22.0114 79.9387C22.0114 79.5707 22.0191 79.2028 22.0267 78.8348C22.0267 78.5205 22.0267 78.1985 22.0267 77.8842C22.0267 77.4856 22.0191 77.0793 21.9809 76.673C22.0114 75.3008 21.8891 73.9286 21.9809 72.5333C22.042 71.1458 22.0955 69.7659 21.9809 68.4014C21.8509 67.0292 22.0344 65.6723 21.9809 64.3307C22.1643 62.9815 21.9197 61.6553 21.9809 60.3291C21.9656 59.0105 22.0879 57.6996 21.9885 56.4117C21.9503 55.1239 21.9197 53.8436 21.9961 52.5787C21.7057 51.3139 22.0726 50.072 22.0114 48.8377C22.1338 47.6112 21.9961 46.3923 22.0267 45.1964C21.9732 44.0005 22.1567 42.8276 22.042 41.67C22.0649 40.5125 21.9503 39.3779 22.0573 38.2587V38.1667L22.042 38.1207C22.042 38.1053 22.042 38.09 22.042 38.0593C22.042 37.952 22.0344 37.8447 22.0267 37.7374C22.0191 37.5227 22.0191 37.3081 22.0191 37.0858C22.2026 37.0244 22.3937 36.9708 22.5771 36.9171L22.86 36.8328L22.99 36.7945L23.0664 36.7715C23.2728 36.7178 23.4869 36.6718 23.6933 36.6181C23.8614 36.5721 24.0296 36.5261 24.1978 36.4802L24.4501 36.4035L24.58 36.3652L24.6412 36.3498H24.6565C24.6565 36.3498 24.6641 36.3422 24.6718 36.3498L24.6871 36.3805C24.7788 36.5338 24.8705 36.6871 24.9699 36.8328L25.1152 37.0551L25.1916 37.1701L25.2222 37.2084L25.2451 37.2391C25.8032 38.1513 26.3536 39.0483 26.8734 39.9375C27.2327 40.9264 27.9284 41.6777 28.4635 42.5056C28.9681 43.3566 29.6102 44.0772 29.9772 44.9587C30.0995 45.1657 30.2065 45.365 30.3212 45.572C30.367 45.6717 30.4206 45.7713 30.4664 45.871C30.4894 45.917 30.5199 45.9707 30.5429 46.0167L30.5811 46.0856L30.604 46.1163C30.604 46.1163 30.604 46.1163 30.6117 46.1086L30.627 46.0856C30.6881 45.9783 30.7493 45.848 30.8028 45.7253C30.8563 45.618 30.9175 45.549 31.0016 45.457C31.0092 45.4417 31.0168 45.4417 31.0321 45.4187L31.0856 45.3574L31.1927 45.2347C31.2615 45.1504 31.3303 45.0661 31.3991 44.9817C31.6666 44.6444 31.9036 44.2918 31.9954 43.8625C32.3929 43.1342 33.0656 42.6053 33.3026 41.8464C33.5549 41.0951 34.1359 40.5738 34.5181 39.9758C34.9003 39.3779 35.2749 38.7953 35.6266 38.251C36.0164 37.6301 36.3834 37.0398 36.7274 36.4802C37.0714 35.9282 37.3848 35.3992 37.683 34.9086C37.8282 34.6633 37.9735 34.4257 38.1111 34.2034C38.241 33.9734 38.3634 33.7511 38.4857 33.5441C38.7303 33.1224 38.952 32.7315 39.1508 32.3865C39.1813 32.3328 39.2119 32.2869 39.2348 32.2332C39.2654 32.1872 39.2807 32.1182 39.3495 32.1182C39.4565 32.0875 39.5636 32.0569 39.6629 32.0339C39.8311 31.9879 39.9917 31.9495 40.1369 31.9112C40.4274 31.8346 40.672 31.7732 40.8708 31.7272C41.2683 31.6352 41.4747 31.5969 41.49 31.6276C41.4977 31.6582 41.2607 31.7732 40.7944 31.9495C40.5574 32.0415 40.2669 32.1489 39.9229 32.2715C39.8464 32.3022 39.7623 32.3328 39.6782 32.3635C39.6094 32.3942 39.5177 32.4018 39.5024 32.4938C39.4642 32.5782 39.4183 32.6625 39.3801 32.7468C39.3266 32.8465 39.2807 32.9538 39.2272 33.0611C38.3939 34.8166 37.0026 37.3004 35.1602 40.3668C34.7933 40.9801 34.5257 41.693 33.9983 42.2756C33.5854 42.9273 33.2567 43.6709 32.7369 44.3225C32.6069 44.7288 32.3929 45.0891 32.1483 45.4417C32.0871 45.5337 32.0259 45.618 31.9648 45.7023L31.873 45.8327L31.8272 45.9017L31.7584 46.0013C31.5749 46.285 31.3914 46.5533 31.2232 46.8369C31.0551 47.1282 30.8792 47.4119 30.7034 47.6955L30.6728 47.7492L30.6575 47.7798C30.6575 47.7798 30.6575 47.7952 30.6499 47.7875V47.7722L30.5735 47.6572L30.4358 47.4195C30.3441 47.2662 30.2524 47.1052 30.153 46.9519C30.0613 46.7986 29.9695 46.6376 29.8701 46.4843C29.7784 46.3386 29.6867 46.1853 29.5949 46.0397C29.4726 45.848 29.3427 45.6564 29.2051 45.4647C28.6088 44.7364 28.2495 43.8318 27.6532 43.0422C27.2404 42.1377 26.6747 41.3021 26.0249 40.4971C25.5815 39.5542 24.9088 38.7263 24.3507 37.8064L24.3354 37.768C24.3354 37.768 24.3201 37.7374 24.3278 37.7374V37.7144C24.3278 37.7144 24.3278 37.676 24.3201 37.6607C24.3125 37.6224 24.2972 37.5841 24.2819 37.5381C24.2819 37.5227 24.2666 37.5381 24.259 37.5381H24.2284C24.2284 37.5381 24.1902 37.5457 24.1749 37.5534L24.1137 37.5687L24.0449 37.5917C23.8385 37.653 23.6397 37.7297 23.4333 37.8064L23.3569 37.837C23.3569 37.837 23.334 37.8447 23.3263 37.8524L23.2805 37.8754C23.2805 37.8754 23.2193 37.9137 23.1964 37.929C23.204 37.975 23.2116 38.0134 23.2269 38.044L23.2422 38.09C23.2422 38.09 23.2422 38.1053 23.2422 38.1207V38.1667L23.2499 38.2587C23.3187 39.3779 23.2193 40.5125 23.2652 41.67C23.2269 42.8276 23.311 44.0005 23.2805 45.1964C23.3722 46.3923 23.4028 47.6035 23.2957 48.8377C23.3569 50.0643 23.311 51.3139 23.311 52.5787C23.3875 53.8436 23.3034 55.1162 23.3187 56.4117C23.3569 57.7073 23.1123 59.0105 23.3263 60.3291C23.3569 61.6476 23.2957 62.9815 23.3263 64.3307C23.2957 65.6723 23.2728 67.0292 23.3263 68.4014C23.1123 69.7736 23.2422 71.1458 23.3263 72.5333C23.3875 73.9209 23.3569 75.3008 23.3263 76.673C23.3263 77.0793 23.334 77.4779 23.334 77.8842V78.0989V78.1602L23.4181 78.1372H23.441L23.6397 78.0682L24.0373 77.9455C25.2986 77.4856 26.6135 77.2326 27.8443 76.7573C29.0751 76.2743 30.3747 76.0674 31.5749 75.5921C32.7828 75.1475 33.9906 74.7335 35.2214 74.4575C36.4216 74.0819 37.6677 73.8902 38.7838 73.3536C39.2043 73.208 39.6171 73.0316 40.0299 72.8706C40.2363 72.7863 40.4427 72.7097 40.6491 72.633L40.7256 72.61H40.7408V72.6023C40.7408 72.6023 40.7408 72.6023 40.7485 72.6023C40.7561 72.6023 40.7714 72.6023 40.7944 72.6023H40.802C40.802 72.6023 40.802 72.587 40.802 72.5793V72.5487L40.8249 72.426C40.8402 72.3417 40.8555 72.265 40.8784 72.1807C40.8096 70.9848 41.0237 69.8119 40.8937 68.6543C41.1078 67.4968 40.9014 66.3622 40.909 65.243C40.9549 64.1237 41.0237 63.0275 40.932 61.9543C40.8326 60.881 40.9855 59.8231 40.9549 58.7959C40.8326 57.761 41.1154 56.7567 40.9778 55.7678C41.0084 54.7866 40.9625 53.8206 41.0008 52.8854C40.7103 51.9501 41.0008 51.0379 41.0313 50.1563C41.0696 49.2747 40.8402 48.4161 41.0619 47.5805C40.8402 46.7526 41.0313 45.9477 41.0925 45.1734C41.1537 44.3991 41.0008 43.6555 41.1231 42.9426C40.9702 42.2297 41.2072 41.5397 41.1537 40.8881C41.253 40.2365 41.1537 39.6079 41.1842 39.0176C41.146 38.4273 41.1613 37.8677 41.2148 37.3387C41.2301 36.8098 41.2377 36.3192 41.253 35.8592C41.2913 34.487 41.3218 33.4214 41.3677 32.7085C41.4059 31.9879 41.4442 31.6122 41.4824 31.6122L41.4442 31.6276Z" fill="black"/>
<path d="M41.4456 31.6275C41.5297 31.6275 41.6061 32.9844 41.6749 35.4682C41.6826 35.8822 41.6979 36.3268 41.7131 36.8021C41.7361 37.2774 41.759 37.7833 41.7514 38.32C41.6443 38.8566 41.9501 39.4162 41.7819 40.0065C41.7361 40.5968 41.7819 41.2177 41.8125 41.8616C41.8507 42.5056 41.7437 43.1802 41.8431 43.8778C42.0495 44.5754 41.6138 45.3037 41.8737 46.0549C41.9272 46.8062 41.9119 47.5805 41.9043 48.3777C41.7437 49.175 41.9043 49.9953 41.9348 50.8462C41.7437 51.6895 41.8278 52.5634 41.9578 53.445C41.6979 54.3342 41.7361 55.2465 41.9807 56.1817C41.9884 57.1093 41.889 58.0676 42.0036 59.0411C42.0189 60.0147 42.0724 61.0036 42.0266 62.0156C42.2024 63.0275 42.1948 64.0547 42.0419 65.0973C42.233 66.1399 42.1565 67.2054 42.0572 68.2863C41.9501 69.3672 42.2253 70.4635 42.0724 71.5751C42.0724 71.8434 42.0724 72.104 42.0724 72.3723V72.5716V72.6176V72.6483V72.7173L42.1565 72.7326H42.1718L42.2712 72.771L42.4853 72.8323C42.7681 72.9243 43.051 73.0086 43.3262 73.1083C44.3888 73.5222 45.459 73.9515 46.621 74.1355C47.7448 74.4421 48.8915 74.7334 49.9923 75.1857C51.1849 75.3467 52.3086 75.7914 53.4324 76.259C54.602 76.5886 55.7258 77.0946 56.9337 77.3552C57.5146 77.5545 58.1109 77.7155 58.7149 77.8918L59.1659 78.0222L59.5328 78.1372C59.5328 78.1372 59.594 78.1678 59.6551 78.2061C59.6551 78.2061 59.6857 78.1371 59.701 78.0758V78.0605V78.0375V77.9225V77.6849L59.7163 77.2172C59.7163 76.5963 59.7087 75.9753 59.6475 75.3544C59.5175 74.1202 59.701 72.8936 59.6475 71.6747C59.8386 70.4635 59.5863 69.2523 59.6475 68.064C59.6322 66.8758 59.7545 65.6876 59.6551 64.5223C59.6169 63.3571 59.5863 62.1995 59.6628 61.0573C59.3723 59.9151 59.7392 58.7882 59.6781 57.6843C59.8004 56.5727 59.6628 55.4765 59.6934 54.3956C59.6399 53.3146 59.8233 52.2491 59.7087 51.2065C59.7316 50.1639 59.6169 49.1367 59.7239 48.1248C59.5787 47.1129 59.8463 46.1239 59.7469 45.1504C59.7469 44.1768 59.7392 43.2262 59.7698 42.2909C59.9992 41.3557 59.808 40.4434 59.7928 39.5542C59.8004 39.2092 59.7928 38.8719 59.7698 38.5346C59.7698 38.3813 59.7545 38.228 59.7469 38.0746C59.7469 38.0286 59.7469 37.9827 59.7469 37.929C59.724 37.9137 59.701 37.906 59.6781 37.883L59.6399 37.8523L59.6169 37.837H59.6093C59.6093 37.837 59.5863 37.814 59.5787 37.814C58.776 37.5457 58.0268 37.2007 57.2394 37.0551C56.4673 36.8481 55.8405 36.2731 55.0378 36.3345C54.3115 36.1581 53.7 35.6752 52.9737 35.6522C52.2551 35.6215 51.6741 35.2229 51.0626 35.0236C50.451 34.8166 49.8623 34.6249 49.3043 34.441C46.7892 33.5977 44.8092 32.9231 43.4638 32.4401C42.1183 31.9572 41.415 31.6735 41.4303 31.6199C41.4532 31.5585 42.3629 31.7732 44.0524 32.2408C45.7342 32.7084 48.1882 33.4137 51.2843 34.3336C51.9035 34.5176 52.5915 34.5636 53.2184 34.9086C53.8834 35.1156 54.6097 35.2229 55.2977 35.5295C56.0775 35.5525 56.7578 35.9512 57.5146 36.1965C58.2791 36.4265 59.0436 36.7331 59.8692 36.9094C59.8845 36.9094 59.8921 36.9094 59.9074 36.9094L59.9686 36.9247L60.0909 36.9554L60.3355 37.0167C60.4961 37.0627 60.6566 37.1087 60.8171 37.1547C60.8171 37.4307 60.8171 37.722 60.8095 37.998V38.1053V38.1666V38.2893L60.7942 38.5423C60.7789 38.8796 60.7713 39.2169 60.8095 39.5618C60.6795 40.4511 60.7178 41.3634 60.8324 42.2986C60.7101 43.2262 60.863 44.1844 60.8554 45.158C60.6642 46.1316 60.8018 47.1205 60.8783 48.1324C60.9471 49.1443 60.8477 50.1716 60.8936 51.2142C60.8554 52.2567 60.9395 53.3223 60.9089 54.4032C61.0006 55.4841 61.0312 56.5804 60.9242 57.6919C60.9853 58.8035 60.9395 59.9304 60.9395 61.065C61.0159 62.2072 60.9318 63.3571 60.9471 64.53C60.9853 65.6952 60.7407 66.8758 60.9547 68.0717C60.9853 69.2676 60.9242 70.4712 60.9547 71.6824C60.9242 72.9013 60.9012 74.1202 60.9547 75.3621C60.8477 75.983 60.8324 76.6039 60.8477 77.2249C60.8477 77.3782 60.8554 77.5392 60.863 77.6925L60.8783 77.9302V78.0452L60.8936 78.2368C60.9165 78.8271 60.9394 79.4174 60.9547 80.0153C60.4043 79.862 59.8386 79.6934 59.2653 79.517L58.7378 79.356L58.2944 79.2181C57.7058 79.0264 57.1171 78.8271 56.5361 78.6278C55.3512 78.2751 54.1892 77.8995 53.0349 77.5239C51.8576 77.2172 50.7568 76.7113 49.6024 76.443C48.4404 76.1747 47.3702 75.6457 46.2388 75.3774C45.1074 75.0861 43.9989 74.7718 42.9439 74.3348C42.6611 74.2428 42.3782 74.1432 42.103 74.0435L41.8966 73.9668L41.7896 73.9285L41.6061 73.8672C41.3691 73.7829 41.1245 73.6985 40.8875 73.6142C40.8875 73.3766 40.8875 73.1466 40.8952 72.9089V72.5946V72.3953C40.8875 72.127 40.8646 71.8587 40.8187 71.5981C40.7805 70.4865 40.5435 69.3902 40.834 68.3093C40.7652 67.2284 40.9793 66.1705 40.8493 65.1203C41.0633 64.0777 40.8569 63.0428 40.8646 62.0386C40.9105 61.0266 40.9793 60.0377 40.8875 59.0641C40.7881 58.0906 40.941 57.14 40.9105 56.2047C40.7881 55.2771 41.071 54.3572 40.9334 53.468C40.964 52.5787 40.9181 51.7125 40.9563 50.8692C40.6658 50.0259 40.9563 49.198 40.9869 48.4007C41.0251 47.6035 40.7958 46.8292 41.0175 46.0779C40.7958 45.3267 40.9869 44.6061 41.0481 43.9008C41.1092 43.2032 40.9563 42.5286 41.0786 41.8846C40.9257 41.2407 41.1627 40.6198 41.1092 40.0295C41.2086 39.4392 41.1092 38.8719 41.1398 38.343C41.1016 37.8063 41.1169 37.3004 41.1704 36.8251C41.1857 36.3498 41.1933 35.9052 41.2086 35.4912C41.2774 33.0074 41.3538 31.6505 41.4379 31.6505L41.4456 31.6275Z" fill="black"/>
<path d="M30.5898 15.0997C30.5898 15.1457 30.3605 15.184 29.94 15.2377C29.5119 15.299 28.8927 15.3987 28.1129 15.621C28.0518 15.6363 27.983 15.6593 27.9142 15.6746C27.8454 15.6976 27.7766 15.7206 27.7154 15.7436C27.5778 15.7896 27.4325 15.8279 27.2873 15.8893C26.9968 16.0043 26.6987 16.1423 26.3776 16.2649C26.2018 16.2879 26.0489 16.4029 25.9113 16.5256C25.766 16.6482 25.6208 16.7555 25.4144 16.7785C25.2385 16.8552 25.0627 16.9472 24.9022 17.0698C24.8181 17.1312 24.7416 17.1925 24.6575 17.2538C24.5811 17.3228 24.497 17.3841 24.4206 17.4531C24.1071 17.7214 23.702 17.9208 23.4344 18.2964C23.3427 18.5264 23.1363 18.6414 22.9451 18.7794C22.7464 18.9097 22.5553 19.0707 22.4941 19.3313C22.2342 19.7376 21.9284 20.1286 21.6532 20.5579C21.248 20.9182 21.141 21.4625 20.9499 21.9684C20.5676 22.39 20.4606 22.9727 20.453 23.5476C20.0555 24.0382 20.0019 24.6592 20.2007 25.2648C20.1931 25.4104 20.1701 25.5638 20.1625 25.7094L20.1472 25.9394C20.1472 26.0161 20.1319 26.0927 20.1395 26.1617C20.1395 26.4377 20.1778 26.7367 20.2924 27.0203C20.43 27.6106 20.667 28.2009 20.8581 28.8295C21.0493 29.1055 21.2251 29.3891 21.3474 29.7034C21.485 30.01 21.5767 30.332 21.6608 30.677C22.1195 31.2213 22.3641 31.8729 22.6088 32.5475C22.8458 33.2298 23.4268 33.7357 23.6637 34.4487C24.0154 35.0926 24.4358 35.7135 24.7951 36.3805C25.1162 37.0704 25.4373 37.7757 25.9877 38.343C26.4311 38.9793 26.8974 39.6155 27.2338 40.3361C27.8224 40.9034 28.1741 41.624 28.5257 42.3676C28.9844 43.0346 29.3055 43.8012 29.8406 44.4451C30.047 44.8054 30.284 45.1504 30.5133 45.4877C30.5516 45.526 30.5592 45.5184 30.5898 45.6564C30.5898 45.6564 30.6815 45.618 30.735 45.5414C30.9491 45.1964 31.1631 44.8284 31.3313 44.4528C31.66 43.6862 32.2563 43.0882 32.6462 42.3753C33.2348 41.7927 33.4565 40.9801 33.9382 40.3438C34.3433 39.6615 34.8708 39.0636 35.1842 38.3507C35.5588 37.6684 35.9258 36.9938 36.3768 36.3882C36.5144 35.5909 37.2024 35.1309 37.5082 34.4563C37.9745 33.8737 38.1962 33.1684 38.5632 32.5552C38.8384 31.9035 39.3276 31.3593 39.5111 30.6847C39.6716 30.378 39.7787 30.056 39.9086 29.7494C40.0233 29.4351 40.1533 29.1285 40.3138 28.8448C40.3673 28.5152 40.4896 28.2239 40.6272 27.9326C40.6884 27.7869 40.7495 27.6413 40.7954 27.4956C40.8413 27.3499 40.8719 27.1966 40.8795 27.0433C40.9407 26.752 40.9789 26.4607 40.9865 26.1847C40.9865 26.1157 40.9865 26.0391 40.9865 25.9701V25.7477C40.9865 25.5944 40.9865 25.4488 40.9789 25.3031C41.0247 25.1498 41.0477 24.9965 41.04 24.8508C41.04 24.7052 41.0171 24.5595 40.9789 24.4139C40.9407 24.2682 40.9024 24.1302 40.8566 23.9922C40.8107 23.8542 40.7648 23.7163 40.7266 23.5783C40.6119 23.0187 40.2909 22.551 40.2297 21.9991C40.0386 21.5008 39.878 20.9795 39.5264 20.5885C39.4499 20.4889 39.3964 20.3662 39.3506 20.2512C39.3047 20.1286 39.2512 20.0136 39.2053 19.8986C39.1824 19.8373 39.1518 19.7836 39.1212 19.7299C39.0906 19.6763 39.0524 19.6303 39.0066 19.5843C38.9225 19.4923 38.8231 19.4156 38.6855 19.3696C38.5097 19.2087 38.4026 18.9863 38.265 18.7947C38.1351 18.5954 37.9822 18.4191 37.7452 18.3424C37.5158 18.2581 37.3553 18.1124 37.2101 17.9514C37.0572 17.7981 36.9272 17.6141 36.759 17.4991C36.6749 17.4378 36.5908 17.3765 36.5144 17.3152C36.4303 17.2538 36.3462 17.2002 36.2621 17.1465C36.1016 17.0315 35.9258 16.9319 35.7652 16.8322C35.0313 16.3876 34.3127 16.0809 33.6782 15.8586C33.0437 15.6363 32.478 15.506 32.0193 15.414C31.0943 15.2377 30.5898 15.207 30.5898 15.138C30.5898 15.1073 30.7503 15.0767 31.0561 15.0537C31.3619 15.0307 31.8206 15.0307 32.4092 15.0997C32.9979 15.161 33.7241 15.299 34.5421 15.5826C35.3601 15.8663 36.2698 16.2802 37.1871 16.9089C37.3706 17.0315 37.577 17.1465 37.7758 17.2692C37.9669 17.3995 38.158 17.5528 38.288 17.7674C38.6396 18.0894 39.0754 18.3807 39.3429 18.8407C39.8322 19.1167 40.0233 19.6609 40.3061 20.1362C40.6043 20.6115 40.8107 21.1405 41.1165 21.6464C41.2847 21.8994 41.384 22.1831 41.4528 22.4744C41.4911 22.62 41.5293 22.7657 41.5675 22.919C41.6057 23.0723 41.6593 23.2103 41.7128 23.3636C41.7433 23.9999 41.8657 24.6055 42.0338 25.2418C42.0186 25.4028 42.0109 25.5714 42.0109 25.7324C42.0109 25.8167 42.0109 25.8934 42.0186 25.9777C42.0186 26.0621 42.0338 26.1387 42.0262 26.2307C42.0415 26.591 42.0262 26.9436 41.9574 27.2886C41.8733 27.4496 41.8121 27.6106 41.751 27.7716C41.6898 27.9326 41.644 28.1012 41.6134 28.2622C41.5293 28.5918 41.4681 28.9368 41.384 29.2741C41.3 29.6114 41.1547 29.9334 41.0095 30.2554C40.8566 30.5697 40.7113 30.8916 40.5737 31.2213C40.245 31.8499 39.9927 32.5245 39.6334 33.1608C39.3735 33.843 39.0524 34.5177 38.5861 35.1079C38.2727 35.7902 37.8522 36.4188 37.4623 37.0781C37.1413 37.7757 36.6673 38.3966 36.2774 39.0713C35.9028 39.7612 35.276 40.2978 35.039 41.0874C34.6415 41.7774 34.1598 42.429 33.7547 43.1342C33.296 43.8088 32.8373 44.4758 32.4474 45.2041C32.1417 45.4954 31.9123 45.8327 31.7059 46.2006C31.3466 46.8216 30.995 47.5345 30.5898 48.3011C30.1846 47.6725 29.7642 46.9596 29.3514 46.2696C29.1373 45.9093 28.9309 45.5567 28.7245 45.1964C28.2735 44.5141 27.8454 43.8165 27.4173 43.1266C26.928 42.475 26.6299 41.716 26.133 41.0797C25.6361 40.4511 25.3761 39.6845 24.8945 39.0636C24.4358 38.4273 24.0077 37.7834 23.702 37.0704C23.3121 36.4112 23.098 35.6676 22.5782 35.1003C22.173 34.4717 21.615 33.935 21.5309 33.1531C21.1334 32.5398 20.9958 31.8039 20.5906 31.2136C20.5371 30.8456 20.3995 30.5237 20.2389 30.217C20.086 29.9027 19.9026 29.6037 19.7879 29.2741C19.5815 28.6072 19.4362 27.9402 19.2145 27.2809C19.0999 26.9513 19.0617 26.591 19.0693 26.2307C19.0693 26.1387 19.0769 26.0544 19.0846 25.9701C19.0846 25.8857 19.0999 25.8091 19.1075 25.7248C19.1152 25.5638 19.1381 25.3951 19.1381 25.2341C19.1228 25.0731 19.1228 24.9045 19.1534 24.7435C19.184 24.5825 19.2145 24.4292 19.2681 24.2759C19.3139 24.1226 19.3598 23.9692 19.3904 23.8159C19.4286 23.6626 19.4592 23.5093 19.4592 23.3483C19.635 22.7503 19.7879 22.1601 20.0555 21.6311C20.0402 21.3015 20.1625 21.0332 20.3383 20.7955C20.3765 20.7342 20.4224 20.6805 20.4683 20.6192C20.5141 20.5655 20.56 20.5042 20.6059 20.4505C20.6976 20.3432 20.7817 20.2282 20.8658 20.1132C20.9499 19.9983 21.0187 19.8833 21.0798 19.7606C21.141 19.6379 21.2098 19.523 21.2786 19.4003C21.3092 19.339 21.3474 19.2853 21.3856 19.224C21.4239 19.1703 21.4697 19.1167 21.5079 19.0707C21.5997 18.971 21.6991 18.8867 21.8214 18.8177C21.9055 18.5494 22.066 18.3424 22.2648 18.1814C22.4559 18.0128 22.6776 17.8901 22.8763 17.7444C23.0751 17.6065 23.2356 17.4301 23.4038 17.2692C23.5796 17.1158 23.7478 16.9625 23.9695 16.8859C24.0383 16.7862 24.1224 16.7095 24.2065 16.6482C24.2982 16.5869 24.3976 16.5409 24.497 16.4949C24.6958 16.4029 24.8945 16.3416 25.0627 16.2189C25.4679 16.1116 25.766 15.8586 26.1177 15.736C26.4387 15.5596 26.7751 15.4523 27.0962 15.4063C27.2491 15.3527 27.402 15.322 27.5549 15.2913C27.6313 15.276 27.7001 15.253 27.7689 15.2377C27.8377 15.2223 27.9142 15.2147 27.983 15.1993C28.8162 15.0383 29.466 15.0154 29.9018 15.0307C30.3375 15.046 30.5669 15.092 30.5669 15.1303L30.5898 15.0997Z" fill="black"/>
<path d="M30.5902 18.6644C30.5902 18.7027 30.4756 18.7487 30.2539 18.8023C30.1469 18.833 30.0093 18.8483 29.8564 18.8867C29.7035 18.9327 29.52 18.9787 29.3212 19.0247C29.1913 19.063 29.0537 19.1166 28.9008 19.1626C28.8243 19.1933 28.7555 19.224 28.6714 19.2546C28.595 19.293 28.5185 19.3236 28.4345 19.3466C28.228 19.3083 28.1669 19.6456 27.9376 19.5843C27.8382 19.6073 27.7464 19.6456 27.6623 19.6993C27.6165 19.7299 27.5783 19.7529 27.5324 19.7836C27.4942 19.8143 27.4559 19.8526 27.4101 19.8909C27.2495 20.0366 26.9973 20.0519 26.8749 20.2742C26.8444 20.4275 26.7221 20.4505 26.5921 20.4812C26.4698 20.5119 26.3551 20.5655 26.3475 20.7418C26.2787 20.8492 26.1869 20.9258 26.1105 21.0255C26.0264 21.1175 25.9347 21.2095 25.8429 21.3015C25.69 21.3398 25.6136 21.4471 25.5524 21.5698C25.4913 21.6924 25.4454 21.8227 25.3842 21.9454C25.0861 22.0757 24.9867 22.3594 25.002 22.6813C24.9103 22.7197 24.8415 22.7657 24.7803 22.8193C24.7192 22.873 24.6809 22.9343 24.658 23.011C24.6121 23.1566 24.6274 23.3253 24.6962 23.5016C24.6503 23.6396 24.6045 23.7852 24.551 23.9232C24.528 23.9922 24.5051 24.0689 24.4975 24.1455C24.4975 24.2222 24.4975 24.2989 24.5127 24.3832C24.4975 24.5365 24.4822 24.6898 24.4822 24.8508C24.4822 25.0118 24.4822 25.1651 24.4439 25.3261C24.4822 25.4104 24.5204 25.4871 24.5433 25.5638C24.5663 25.6404 24.5815 25.7247 24.5892 25.8014C24.5892 25.8781 24.5892 25.9624 24.5739 26.039C24.5739 26.1234 24.551 26.2 24.528 26.292C24.5892 26.3687 24.6274 26.4453 24.658 26.522C24.6733 26.5603 24.6886 26.5987 24.6962 26.637C24.7115 26.6753 24.7192 26.7137 24.7268 26.752C24.765 26.913 24.7574 27.0816 24.7574 27.2579C24.765 27.4343 24.8644 27.5799 24.9561 27.7256C25.0555 27.8712 25.1625 28.0092 25.1625 28.2009L25.2161 28.3158C25.2161 28.3158 25.2619 28.3925 25.2849 28.4232C25.3307 28.4922 25.3842 28.5688 25.4301 28.6455C25.4836 28.7145 25.5218 28.7988 25.5754 28.8601C25.6289 28.9291 25.6824 28.9981 25.7282 29.0748C25.7665 29.1591 25.8047 29.2434 25.8429 29.3278C25.8888 29.4044 25.9423 29.4811 26.0035 29.5501C26.057 29.6191 26.1258 29.6881 26.1946 29.7417C26.271 29.7954 26.3628 29.8337 26.4545 29.8644C26.6074 29.9717 26.7526 30.079 26.9055 30.171C27.0584 30.2707 27.1884 30.401 27.326 30.5313C27.7388 30.562 28.014 30.792 28.3198 31.0373C28.4115 31.0603 28.4956 31.0986 28.5873 31.1369C28.6714 31.1753 28.7555 31.2213 28.8473 31.2519C29.0307 31.3133 29.2142 31.3822 29.413 31.3592C29.6041 31.3976 29.7952 31.4129 29.9863 31.4206C30.1774 31.4206 30.3686 31.4206 30.5673 31.4742C30.7584 31.4972 30.9572 31.5126 31.156 31.5126C31.3471 31.4972 31.5382 31.4436 31.7217 31.3669C31.8975 31.2673 32.081 31.2213 32.2721 31.2059C32.3715 31.2059 32.4632 31.1753 32.5549 31.1523C32.6467 31.1293 32.7384 31.0986 32.8225 31.0526C32.876 31.0526 32.9295 31.0526 32.9754 31.0526C33.0212 31.0449 33.0671 31.0296 33.113 31.0066C33.1971 30.9683 33.2812 30.9146 33.3576 30.861L33.4723 30.7766L33.5793 30.6846C33.6558 30.6233 33.7322 30.5773 33.8163 30.539C33.9768 30.4393 34.1297 30.3473 34.2903 30.2477C34.4508 30.1557 34.5884 30.033 34.6878 29.872C34.7489 29.803 34.8101 29.7417 34.8713 29.6727C34.9248 29.6037 34.9859 29.5271 35.0394 29.4657C35.1006 29.3968 35.1618 29.3354 35.2229 29.2741C35.2841 29.2128 35.3452 29.1438 35.414 29.0824C35.4064 28.8525 35.5287 28.7298 35.651 28.6072C35.7122 28.5458 35.7886 28.4845 35.8498 28.4232C35.8803 28.3925 35.9109 28.3542 35.9339 28.3235C35.9568 28.2852 35.9721 28.2469 35.9874 28.2009C36.1173 28.0705 36.1938 27.9172 36.2473 27.7486C36.2932 27.5799 36.3237 27.4113 36.4002 27.2579C36.4231 27.0893 36.4919 26.936 36.5607 26.7826C36.576 26.7443 36.5913 26.706 36.6066 26.6677C36.6219 26.6293 36.6295 26.5833 36.6295 26.545C36.6448 26.4607 36.6448 26.3763 36.6295 26.292C36.6448 26.2154 36.6601 26.131 36.6677 26.0467C36.6677 25.9624 36.6677 25.8857 36.6601 25.8014C36.6601 25.7247 36.6601 25.6404 36.6677 25.5638C36.6754 25.4871 36.6983 25.4028 36.7136 25.3261C36.6372 25.1651 36.6525 25.0118 36.683 24.8508C36.706 24.6898 36.7136 24.5288 36.6448 24.3832C36.6295 24.3065 36.6219 24.2299 36.6066 24.1532C36.5913 24.0765 36.5684 24.0076 36.5531 23.9309C36.5149 23.7852 36.4919 23.6396 36.4537 23.4939C36.5072 23.3176 36.469 23.172 36.4002 23.0416C36.3696 22.9726 36.3237 22.919 36.2702 22.8577C36.2244 22.7963 36.1785 22.7427 36.1479 22.6813C36.0562 22.4054 35.7657 22.2597 35.7657 21.9454C35.7045 21.8227 35.6357 21.7078 35.5746 21.5928C35.5058 21.4778 35.4293 21.3705 35.307 21.3015C35.2076 21.2171 35.1847 21.0715 35.1312 20.9412C35.0853 20.8108 34.9936 20.7188 34.8025 20.7495C34.6954 20.6882 34.6496 20.5579 34.5808 20.4582C34.512 20.3585 34.4279 20.2665 34.275 20.2819C33.9921 20.2895 33.9233 20.0212 33.7475 19.8986C33.7016 19.8679 33.6634 19.8373 33.6175 19.8066C33.5717 19.7759 33.5258 19.7606 33.4876 19.7299C33.3958 19.6839 33.3117 19.6303 33.2277 19.5843C32.4555 19.178 31.7752 19.0017 31.3088 18.8867C30.8425 18.7947 30.575 18.7333 30.575 18.6644C30.575 18.6337 30.6591 18.603 30.8119 18.58C30.8884 18.5647 30.9878 18.557 31.1101 18.5494C31.1712 18.5494 31.2324 18.534 31.3012 18.5417C31.37 18.5417 31.4388 18.5417 31.5229 18.5494C32.1421 18.5647 33.0748 18.7103 34.1144 19.2623C34.3132 19.3773 34.6266 19.362 34.7489 19.6379C34.8483 19.7146 34.9706 19.7683 35.0929 19.8296C35.2076 19.8986 35.3146 19.9906 35.3834 20.1132C35.5516 20.1286 35.6739 20.2129 35.758 20.3355C35.8421 20.4505 35.9033 20.5885 36.0027 20.7035C36.1097 20.8032 36.1861 20.9335 36.2702 21.0638C36.3543 21.1865 36.4537 21.3015 36.576 21.4088C36.8359 21.6158 36.8665 21.9684 37.0729 22.2367C37.0729 22.321 37.0958 22.4054 37.1188 22.4897C37.1417 22.5663 37.1723 22.643 37.2029 22.7273C37.264 22.8807 37.3634 23.0263 37.4781 23.172C37.4781 23.3559 37.5163 23.5246 37.5851 23.6856C37.6157 23.7699 37.6539 23.8542 37.6845 23.9386C37.7151 24.0229 37.7304 24.1149 37.7456 24.1992C37.6768 24.3909 37.6998 24.5672 37.7304 24.7512C37.7609 24.9351 37.8221 25.1115 37.868 25.3031C37.8909 25.3951 37.8909 25.4948 37.8909 25.5868C37.8909 25.6787 37.8756 25.7784 37.868 25.8704C37.8603 25.9624 37.8527 26.062 37.8374 26.1617C37.8221 26.2537 37.8068 26.3533 37.8068 26.453C37.7839 26.545 37.7686 26.6447 37.7533 26.7443L37.738 26.89L37.7074 27.0356C37.6692 27.2273 37.6386 27.4343 37.5622 27.6182C37.5392 27.8252 37.4934 28.0322 37.4246 28.2239C37.3558 28.4155 37.2335 28.5995 37.0958 28.7605C37.0806 28.8141 37.0653 28.8601 37.0423 28.9138C37.0194 28.9598 36.9965 29.0058 36.9735 29.0518C36.92 29.1438 36.8665 29.2358 36.813 29.3278C36.706 29.5117 36.5607 29.6727 36.4384 29.8414C36.3925 29.941 36.3314 30.033 36.2702 30.1174C36.2014 30.2017 36.125 30.2783 36.0485 30.355C35.9721 30.4317 35.8956 30.5083 35.8192 30.585C35.7427 30.6616 35.6587 30.7306 35.5822 30.8073C35.437 30.9683 35.2382 31.0833 35.0394 31.1906C34.8407 31.2979 34.6725 31.4282 34.5349 31.6276C34.1679 31.8959 33.7322 32.0415 33.327 32.2562L32.9983 32.3558C32.8913 32.3865 32.7766 32.4325 32.6696 32.4555C32.4479 32.5091 32.2262 32.5858 32.0045 32.6548C31.7522 32.5858 31.5305 32.6088 31.3012 32.6471C31.0719 32.6778 30.8425 32.7391 30.6055 32.7928C30.3686 32.8158 30.1316 32.8081 29.8946 32.7928C29.6576 32.7621 29.4283 32.7085 29.2066 32.6548C28.9772 32.6241 28.7479 32.5551 28.5262 32.5015C28.4115 32.4785 28.3045 32.4325 28.1975 32.3865C28.0904 32.3482 27.9834 32.3022 27.8764 32.2562C27.7617 32.2332 27.6547 32.1872 27.5553 32.1335C27.4559 32.0798 27.3566 32.0185 27.2572 31.9649L27.1119 31.8805C27.0661 31.8499 27.0202 31.8192 26.9667 31.7885C26.8749 31.7272 26.7756 31.6736 26.6685 31.6352C26.4468 31.5662 26.2863 31.3976 26.1258 31.2443C25.9576 31.0986 25.8123 30.9223 25.6212 30.815C25.5295 30.7536 25.4377 30.6923 25.3537 30.6156C25.2696 30.539 25.1931 30.4623 25.1167 30.3857C25.0402 30.309 24.9714 30.2247 24.9026 30.1327C24.8415 30.0407 24.7956 29.941 24.7497 29.8414C24.6886 29.7571 24.6274 29.6651 24.5815 29.5731C24.528 29.4811 24.4975 29.3738 24.4516 29.2818C24.4057 29.1821 24.3599 29.0901 24.2987 29.0058C24.2681 28.9675 24.2375 28.9215 24.1993 28.8831C24.1687 28.8448 24.1305 28.8065 24.0846 28.7681C23.9776 28.5918 23.8171 28.4308 23.7101 28.2469C23.6107 28.0629 23.5495 27.8559 23.626 27.6182C23.5342 27.4343 23.5189 27.2273 23.496 27.028C23.496 26.9743 23.4884 26.9283 23.4807 26.8823C23.4807 26.8363 23.4807 26.7826 23.4654 26.7366C23.4501 26.637 23.4272 26.545 23.3813 26.453C23.4196 26.3457 23.4348 26.2537 23.4272 26.154C23.4272 26.062 23.4272 25.9624 23.4043 25.8704C23.389 25.7784 23.366 25.6787 23.3431 25.5868C23.3202 25.4948 23.3049 25.3951 23.3125 25.3031C23.3431 25.1191 23.3813 24.9351 23.3966 24.7512C23.4196 24.5672 23.4501 24.3909 23.4348 24.2069C23.4196 24.1149 23.4272 24.0229 23.4425 23.9309C23.4654 23.8389 23.496 23.7546 23.5266 23.6779C23.5954 23.5093 23.6565 23.3483 23.7024 23.1796C23.7024 22.9956 23.8018 22.85 23.8935 22.7043C23.9394 22.6277 23.9929 22.5663 24.0311 22.4897C24.0694 22.4207 24.0999 22.3364 24.1076 22.252C24.2605 21.9607 24.4057 21.6771 24.6045 21.4241C24.5739 21.2171 24.6733 21.0868 24.7956 20.9872C24.9179 20.8875 25.0708 20.8185 25.1778 20.7188C25.2925 20.6268 25.3537 20.4889 25.4301 20.3585C25.5066 20.2359 25.6212 20.1439 25.7894 20.1286C25.82 19.9599 25.9117 19.8526 26.034 19.7913C26.1563 19.7299 26.3016 19.6993 26.4163 19.6533C26.6456 19.5459 26.7832 19.3006 27.0508 19.2776C27.0813 19.2163 27.1272 19.1703 27.1731 19.1396C27.2266 19.109 27.2801 19.1013 27.3413 19.0936C27.4559 19.0707 27.5783 19.0707 27.6623 19.0017C27.8917 19.0017 28.0446 18.8483 28.2357 18.8023C28.3198 18.7563 28.4115 18.718 28.4956 18.6874C28.5873 18.672 28.6714 18.6644 28.7632 18.672C28.9314 18.6414 29.0843 18.6107 29.2295 18.5954C29.4512 18.58 29.6423 18.5647 29.8105 18.5647C29.9787 18.5647 30.1239 18.58 30.2386 18.5954C30.4679 18.626 30.5826 18.6567 30.5826 18.695L30.5902 18.6644Z" fill="black"/>
<path d="M31.2086 45.8633C31.2774 45.9017 31.2086 46.17 31.0328 46.6069C31.0022 46.6836 30.9716 46.7603 30.9334 46.8446C30.9104 46.9212 30.8875 46.9979 30.8416 47.0746L30.5817 47.5039L30.3371 47.0822C30.3371 47.0822 30.3218 47.0592 30.3142 47.0439C30.3524 46.9059 30.039 46.9672 30.123 46.7833C30.1078 46.6606 30.0084 46.5839 29.9166 46.4996C29.8631 46.446 29.8708 46.423 29.8555 46.3846C29.8478 46.3463 29.8249 46.3156 29.779 46.3233C29.6949 46.3923 29.7332 46.308 29.7102 46.262C29.7026 46.2083 29.6567 46.17 29.5956 46.3003C29.5803 46.3156 29.5573 46.3233 29.5421 46.331C29.5268 46.331 29.5191 46.3386 29.4809 46.3463C29.4121 46.3463 29.3356 46.3463 29.2592 46.3463C29.0987 46.2006 28.9611 46.3693 28.8082 46.4153C28.6323 46.239 28.4794 46.3463 28.3342 46.4996C28.1354 46.262 27.9673 46.331 27.8449 46.5993C27.6844 46.6376 27.4933 46.5763 27.348 46.7296C27.1799 46.7833 27.0346 46.8829 26.8511 46.8906C26.7441 47.1129 26.5989 47.1589 26.3925 47.0976C26.3619 47.1666 26.3925 47.1896 26.3925 47.2049C26.3925 47.2202 26.3925 47.2279 26.3925 47.2279C26.3772 47.2279 26.3313 47.2049 26.2625 47.1972C26.1861 47.1972 26.2166 47.2356 26.2625 47.2586C26.3084 47.2815 26.3389 47.2815 26.2625 47.3199C26.2625 47.3429 26.2931 47.3505 26.316 47.3582C26.3389 47.3582 26.3542 47.3659 26.3619 47.3889C26.3619 47.3965 26.3619 47.4119 26.3619 47.4195C26.3772 47.4349 26.3925 47.4579 26.4077 47.4732C26.4383 47.5039 26.4765 47.5345 26.5224 47.5575C26.6065 47.6035 26.7059 47.6189 26.8282 47.5652C27.027 47.5882 27.241 47.5805 27.4168 47.7262C27.6691 47.5805 27.8526 47.7032 28.0513 47.8488C28.273 47.8488 28.4718 48.0252 28.7088 47.9408C28.9305 48.0022 29.1675 47.9025 29.3892 48.0022C29.6109 48.0788 29.8402 48.1478 30.0695 48.0328C30.2989 47.9102 30.5206 48.0941 30.7423 48.0405C30.9716 48.2245 31.1857 47.9715 31.3997 48.0252C31.6138 47.9945 31.8431 48.1095 32.0495 47.9868C32.2559 47.9332 32.4623 47.8718 32.6764 47.9255C32.8369 47.6112 33.0892 47.9408 33.2803 47.8412C33.502 47.9255 33.6625 47.7492 33.8536 47.7262C34.0218 47.6265 34.2512 47.7568 34.3888 47.5805C34.4729 47.5652 34.5493 47.5115 34.6181 47.4655C34.6563 47.4425 34.6869 47.4272 34.7251 47.4119C34.7404 47.4119 34.771 47.3965 34.7786 47.4042C34.7863 47.4042 34.7939 47.4119 34.8092 47.4272C34.7863 47.3582 34.8092 47.3735 34.8704 47.3812C34.9162 47.3889 34.9927 47.3812 34.9468 47.3429C34.9774 47.2969 34.9774 47.2432 34.985 47.1896C35.1074 47.1282 35.0768 47.0822 35.0309 47.0669C34.9851 47.0516 34.9086 47.0669 34.8857 47.0592C34.878 47.0439 34.8627 47.0439 34.8474 47.0439C34.8398 47.0439 34.8322 47.0439 34.8245 47.0439C34.8092 47.0439 34.7939 47.0439 34.7786 47.0362C34.7098 47.0209 34.6487 46.9902 34.6105 46.8982C34.4881 46.8293 34.3811 46.6836 34.2129 46.7296C34.0753 46.7219 34.0295 46.331 33.8231 46.5916C33.6778 46.6146 33.609 46.308 33.4408 46.4766C33.2803 46.6376 33.1962 46.4076 33.0815 46.377C32.9669 46.3463 32.8522 46.3233 32.7452 46.2926C31.7743 46.0703 31.2009 45.963 31.2086 45.8327C31.2086 45.7637 31.3921 45.7024 31.7284 45.664C32.0724 45.6257 32.5693 45.6027 33.1962 45.6564C33.3185 45.664 33.4867 45.5337 33.5937 45.6947C33.7313 45.7254 33.8995 45.6334 34.0218 45.756C34.2206 45.5874 34.3276 45.7943 34.4805 45.8557C34.641 45.894 34.7786 46.009 34.9698 46.0013C35.0768 45.9783 35.1532 46.032 35.2373 46.0933L35.2985 46.1393C35.2985 46.1393 35.3596 46.1776 35.3902 46.2006C35.4514 46.239 35.5049 46.2696 35.5813 46.2926C35.6501 46.423 35.7266 46.5149 35.8183 46.6069C35.9101 46.6989 36.0247 46.7833 36.1317 46.8982C36.1165 47.0362 36.1547 47.1666 36.1623 47.3045C36.1776 47.4425 36.1776 47.5882 36.1012 47.7185C35.9406 47.8105 35.8413 47.9025 35.7495 48.0175C35.6578 48.1248 35.566 48.2551 35.4437 48.3701C35.4131 48.4008 35.3749 48.4238 35.3443 48.4468C35.3138 48.4698 35.2908 48.4774 35.2679 48.4928C35.2144 48.5234 35.1609 48.5388 35.1074 48.5541C35.0003 48.5924 34.8933 48.6154 34.7939 48.6768C34.5722 48.7151 34.3888 48.8607 34.1671 48.8837C33.976 49.0294 33.7619 49.1061 33.5173 49.0371C33.3109 49.1367 33.0815 49.1214 32.8522 49.1521C32.6381 49.2594 32.4012 49.198 32.1718 49.2364C31.9425 49.2977 31.6978 49.0677 31.4762 49.29C31.2392 49.3284 31.0022 49.2747 30.7652 49.313C30.5282 49.29 30.2836 49.2594 30.039 49.313C29.802 49.0907 29.5573 49.2134 29.3051 49.2747C29.0528 49.3207 28.8082 49.267 28.5712 49.2057C28.3266 49.2057 28.0819 49.1521 27.8449 49.0984C27.5927 49.1214 27.3863 48.9221 27.134 48.9451C26.8741 48.9757 26.6906 48.7304 26.4307 48.7381C26.3084 48.7304 26.1784 48.7074 26.0561 48.6538C25.9949 48.6308 25.9414 48.6001 25.8803 48.5618C25.8497 48.5388 25.8268 48.5234 25.7962 48.5004C25.758 48.4698 25.7197 48.4314 25.6815 48.4008C25.5898 48.3548 25.521 48.2858 25.4522 48.2245C25.391 48.1555 25.3299 48.0865 25.284 48.0098C25.177 47.8718 25.0929 47.7415 24.94 47.6035C24.917 47.5652 24.9018 47.5269 24.8788 47.4809C24.8635 47.4425 24.8406 47.3965 24.8253 47.3505C24.81 47.3045 24.7947 47.2585 24.7794 47.2202C24.7794 47.1742 24.7641 47.1282 24.7641 47.0822C24.7565 46.8982 24.8406 46.7066 25.0776 46.6299C25.1387 46.469 25.2993 46.354 25.4598 46.2773C25.5363 46.2313 25.6203 46.2006 25.6968 46.1546C25.7732 46.1163 25.8573 46.055 25.8879 46.009C26.0408 46.055 26.1402 46.009 26.2319 45.9477C26.3237 45.8863 26.4077 45.802 26.5071 45.7713C26.7212 45.7407 26.9352 45.7637 27.1034 45.6257C27.2716 45.48 27.4933 45.595 27.6691 45.526C27.8297 45.3727 28.0513 45.618 28.2042 45.4647C28.3801 45.4647 28.5482 45.4034 28.7164 45.4264C28.854 45.1197 29.0452 45.3957 29.198 45.411C29.2745 45.4264 29.3509 45.3727 29.4274 45.3421C29.4503 45.3267 29.5268 45.3191 29.5879 45.3267C29.6491 45.3267 29.7102 45.3574 29.7561 45.411C29.8861 45.2961 30.0237 45.2807 30.123 45.3037C30.146 45.3037 30.1766 45.3191 30.1995 45.3267C30.2071 45.3267 30.2224 45.3267 30.2301 45.3421L30.2454 45.3957C30.2607 45.4647 30.2759 45.5337 30.2912 45.5874C30.3218 45.7024 30.3906 45.7637 30.4518 45.8403C30.5129 45.9093 30.5817 46.009 30.5512 46.078C30.7499 46.1087 30.6047 46.331 30.704 46.4C30.6735 46.5533 30.8111 46.5916 30.8416 46.6913C30.8569 46.6989 30.8646 46.7143 30.8722 46.7219C30.6811 46.7219 30.4976 46.7219 30.3142 46.7219C30.3447 46.6376 30.3983 46.5763 30.4823 46.5303C30.5435 46.4613 30.5894 46.3923 30.6429 46.331C30.9487 45.9553 31.1398 45.779 31.2162 45.8173L31.2086 45.8633Z" fill="black"/>
</g>
</g>
<defs>
<clipPath id="clip0_3267_38739">
<rect width="61" height="80" fill="white"/>
</clipPath>
<clipPath id="clip1_3267_38739">
<rect width="58" height="65" fill="white" transform="translate(3 15)"/>
</clipPath>
</defs>
</svg>
