<svg width="80" height="80" viewBox="0 0 80 80" fill="none" xmlns="http://www.w3.org/2000/svg">
<g clip-path="url(#clip0_3266_38448)">
<circle cx="43.8363" cy="40.1644" r="36.1644" fill="#E4FBBF"/>
<g clip-path="url(#clip1_3266_38448)">
<path d="M31.5251 12.619C31.5251 12.6689 30.9849 12.7271 29.9709 12.7936C28.9569 12.9182 27.4442 13.0346 25.5491 13.4668C25.3912 13.5 25.225 13.5333 25.0671 13.5749C24.9008 13.6164 24.7346 13.658 24.5684 13.6995C24.2276 13.791 23.8785 13.8658 23.5294 13.9821C23.172 14.0902 22.8063 14.2065 22.4323 14.3312C22.0583 14.4642 21.676 14.5972 21.277 14.7302C21.0692 14.7634 20.8697 14.8382 20.6786 14.9379C20.4791 15.0294 20.2879 15.1291 20.0968 15.2372C19.6978 15.4366 19.3155 15.661 18.85 15.7691C18.6339 15.8522 18.4178 15.9353 18.2017 16.0434C17.9856 16.1514 17.7779 16.2595 17.5618 16.3758C17.3457 16.4922 17.1296 16.6086 16.9218 16.7332C16.714 16.8662 16.4979 16.9992 16.2901 17.1322C16.0823 17.2652 15.8496 17.3898 15.6335 17.5228C15.4174 17.6558 15.193 17.7971 14.9686 17.9301C14.5114 18.1961 14.0792 18.5119 13.672 18.8693C13.5805 18.969 13.4808 19.0688 13.3728 19.1519C13.273 19.2433 13.165 19.3264 13.0486 19.4095C12.8242 19.5758 12.5832 19.7254 12.3421 19.875C12.0928 20.0246 11.8684 20.1991 11.6523 20.382C11.4362 20.5732 11.2284 20.7809 11.0622 21.022C10.2559 21.8697 9.38323 22.6926 8.5687 23.6318C8.45234 23.7315 8.33598 23.8396 8.21961 23.9476C8.10325 24.0557 7.9952 24.172 7.89546 24.2967C7.69599 24.5377 7.50482 24.7954 7.31366 25.0531C7.12249 25.3107 6.95626 25.5933 6.78172 25.8593C6.69861 25.9923 6.60718 26.1336 6.52406 26.2749C6.43264 26.4078 6.34121 26.5491 6.26641 26.6904C5.8259 27.1808 5.42694 27.7294 5.11111 28.3278C4.77033 28.9179 4.5293 29.5579 4.27995 30.2062C4.05554 30.4805 3.87269 30.7797 3.69815 31.0872C3.60672 31.2368 3.52361 31.3947 3.4488 31.5527C3.374 31.7106 3.30751 31.8768 3.24101 32.043C3.11634 32.3755 2.99998 32.7163 2.90855 33.0654C2.83375 33.4144 2.76726 33.7802 2.71739 34.1375C2.59272 34.4783 2.50129 34.8274 2.39324 35.1765C2.28519 35.5256 2.16883 35.8747 2.08571 36.2321C1.99429 36.5894 1.91117 36.9552 1.83637 37.3126C1.77819 37.6783 1.72832 38.0523 1.69507 38.4263C1.62858 38.792 1.58702 39.1743 1.54546 39.5483C1.52884 39.7395 1.50391 39.9307 1.48728 40.1135C1.47897 40.2133 1.46235 40.3047 1.45404 40.3961L1.43741 40.6787C1.41248 41.061 1.38755 41.4434 1.3543 41.834C1.33768 42.2247 1.32105 42.607 1.29612 42.9976C1.32936 43.3883 1.37923 43.7789 1.41248 44.1696C1.45404 44.5602 1.46235 44.9591 1.49559 45.3498C1.52884 45.7404 1.54546 46.1394 1.55378 46.5383C1.57871 46.9373 1.60364 47.3362 1.61196 47.7435C2.06078 49.3061 2.32675 50.9102 2.71739 52.5393C2.82544 52.9465 2.95011 53.3455 3.09972 53.7361C3.25764 54.1268 3.44049 54.5091 3.60672 54.8914L3.73971 55.1823L3.881 55.4649C3.97243 55.6561 4.06385 55.8472 4.15528 56.0384C4.32982 56.429 4.51268 56.8114 4.6706 57.2103C5.44357 58.7396 6.42433 60.1858 7.45495 61.6071C8.44403 63.0616 9.59101 64.4746 11.0538 65.5468C12.4169 66.727 13.8964 67.7826 15.3841 68.8631C17.0548 69.6527 18.6423 70.5752 20.3378 71.3898C22.0832 72.0464 23.8702 72.7446 25.7735 72.9773C27.6436 73.3762 29.5719 73.4261 31.5002 73.5258C33.4368 73.5923 35.3817 73.4677 37.2268 72.9773L37.5759 72.8942L37.9167 72.7944C38.1494 72.7362 38.3738 72.6781 38.6065 72.6199C39.072 72.5201 39.5208 72.3872 39.9779 72.2708C40.4434 72.1627 40.8839 72.0214 41.3327 71.8802C41.5571 71.8053 41.7815 71.7472 41.9976 71.6557C42.2137 71.5726 42.4381 71.4812 42.6459 71.3898C42.8703 71.3233 43.1031 71.2651 43.3192 71.182C43.5353 71.0989 43.7514 71.0074 43.9675 70.916C44.1836 70.8246 44.3913 70.7249 44.6074 70.6251L45.2225 70.2843L45.8292 69.9436C46.0287 69.8189 46.2199 69.7025 46.4194 69.5779C46.6188 69.4615 46.8183 69.3368 47.0178 69.2288C47.2173 69.1124 47.4084 68.9877 47.6079 68.8714C49.1455 67.874 50.6915 66.8683 51.9382 65.5551C53.2348 64.3084 54.4067 62.9619 55.5371 61.6154C55.9277 60.8092 56.4514 60.1194 56.95 59.4129C57.216 59.0638 57.4571 58.7064 57.6898 58.3407C57.8061 58.1578 57.9225 57.975 58.0305 57.7921C58.1303 57.601 58.23 57.4098 58.3214 57.2186C58.5459 56.8529 58.762 56.4789 58.9365 56.0883C59.0279 55.8971 59.111 55.6976 59.2025 55.5065L59.3271 55.2156C59.3687 55.1158 59.4019 55.0161 59.4435 54.9163C59.5848 54.5174 59.7344 54.1268 59.8757 53.7278C60.0004 53.3288 60.1334 52.9299 60.2747 52.5393C60.4824 51.733 60.7567 50.9517 60.9562 50.1538C61.0061 49.9544 61.0642 49.7549 61.1141 49.5554C61.1557 49.3559 61.1972 49.1565 61.2305 48.957C61.2637 48.7575 61.297 48.558 61.3302 48.3502L61.3718 48.051C61.3801 47.9513 61.3884 47.8516 61.3884 47.7435C61.4466 47.3446 61.4964 46.9456 61.538 46.5466C61.5629 46.1477 61.5796 45.7487 61.6045 45.3498C61.6377 44.9508 61.6294 44.5602 61.6461 44.1612C61.6627 43.7706 61.6876 43.38 61.7042 42.9893C61.6544 42.5987 61.6377 42.208 61.6211 41.8257C61.5962 41.4434 61.5879 41.0527 61.5796 40.6704C61.5796 40.2881 61.538 39.9057 61.5048 39.5234C61.4632 39.1411 61.4216 38.7671 61.3219 38.4014C61.2554 38.0273 61.1889 37.6616 61.1224 37.2959C61.0393 36.9302 60.9562 36.5728 60.8731 36.2154C60.7983 35.8497 60.6902 35.5006 60.5988 35.1516C60.4991 34.8025 60.416 34.4451 60.2996 34.1043C60.2414 33.7386 60.1583 33.3895 60.0586 33.0404C59.9505 32.6997 59.8092 32.3755 59.6679 32.043C59.5931 31.8768 59.5266 31.7189 59.4518 31.561C59.3687 31.4031 59.2939 31.2451 59.2108 31.0955C59.0529 30.7797 58.8949 30.4722 58.737 30.1646C58.4295 29.5413 58.1053 28.9512 57.7396 28.386C57.3989 27.8042 57.0332 27.2556 56.7506 26.6572C56.0275 25.5601 55.3542 24.4629 54.4483 23.5985C54.2322 23.3741 54.0576 23.1165 53.8665 22.8838C53.6753 22.6427 53.4925 22.4017 53.3013 22.1607C53.1184 21.9196 52.9107 21.7035 52.6862 21.504C52.4618 21.3046 52.2208 21.13 51.9548 20.9887C51.7304 20.8059 51.5143 20.6147 51.3065 20.4069C51.0987 20.2074 50.9076 19.9913 50.6998 19.8085C50.492 19.6173 50.2842 19.4262 50.0598 19.2599C49.9518 19.1768 49.8354 19.0937 49.719 19.0189C49.6027 18.9524 49.478 18.8859 49.345 18.8277C48.838 18.6033 48.4141 18.2792 47.9902 17.98C47.7824 17.822 47.5747 17.6641 47.3669 17.5062C47.1591 17.3483 46.943 17.2153 46.7269 17.0906C46.5108 16.966 46.2947 16.833 46.0786 16.7083C45.8625 16.5836 45.6464 16.4756 45.4303 16.3675C45.2142 16.2512 45.0064 16.1431 44.7986 16.0351C44.5908 15.927 44.3747 15.8356 44.1669 15.7358C42.2885 14.8465 40.5265 14.2398 38.9639 13.8159C38.5733 13.7161 38.191 13.6247 37.8252 13.5333C37.4595 13.4419 37.1105 13.3837 36.7697 13.3172C36.0965 13.1676 35.4731 13.0928 34.9245 13.0014C33.8108 12.8601 32.9547 12.7686 32.3729 12.7271C31.7911 12.6772 31.4919 12.6357 31.4919 12.6024C31.4919 12.5608 31.8659 12.5359 32.589 12.5193C32.7718 12.5193 32.9713 12.5027 33.1957 12.5193C33.4201 12.5276 33.6612 12.5359 33.9271 12.5442C34.1931 12.5608 34.4757 12.5608 34.7832 12.5858C35.0908 12.619 35.4149 12.6523 35.764 12.6855C37.1437 12.8434 38.8476 13.126 40.7841 13.6912C42.7207 14.2564 44.89 15.1125 47.1425 16.3841C47.3669 16.5171 47.6079 16.6252 47.8406 16.7499C48.0733 16.8828 48.3061 17.0075 48.5388 17.1405C49.0126 17.3982 49.4614 17.7223 49.8769 18.1129C49.9933 18.1961 50.1097 18.2709 50.226 18.354C50.3424 18.4371 50.4588 18.5202 50.5668 18.6033C50.7995 18.7696 51.0322 18.9441 51.2733 19.1103C51.5143 19.2766 51.7304 19.476 51.9548 19.6672C52.1792 19.8667 52.3953 20.0661 52.6031 20.2822C53.6421 20.9305 54.4067 21.9529 55.2213 22.9336C56.0857 23.8894 56.8088 24.9949 57.6482 26.0671C58.0721 26.599 58.4378 27.1891 58.762 27.8125C59.1027 28.4192 59.3936 29.0675 59.7593 29.6826C59.8923 30.015 60.0004 30.3641 60.1417 30.6966C60.2082 30.8628 60.2747 31.029 60.3495 31.1953C60.416 31.3615 60.4824 31.536 60.5489 31.7023C60.6902 32.043 60.8398 32.3755 60.9894 32.7163C61.1307 33.0571 61.272 33.4061 61.43 33.7469C61.5214 34.1126 61.6045 34.4783 61.7042 34.844C61.804 35.2097 61.9286 35.5754 62.0118 35.9411C62.1115 36.3152 62.2112 36.6809 62.311 37.0549C62.3941 37.4289 62.4689 37.8196 62.5437 38.2019C62.5686 38.5925 62.5769 38.9915 62.6102 39.3821C62.6434 39.7728 62.7099 40.1634 62.7432 40.5624C62.7847 40.9613 62.8346 41.3519 62.8928 41.7592C62.9343 42.1582 62.9676 42.5654 63.0008 42.9727C63.0424 43.38 63.0341 43.7872 63.0258 44.2028C63.0091 44.6101 63.0091 45.0256 62.9676 45.4412C62.9343 45.8568 62.8928 46.2724 62.8595 46.6879C62.8014 47.1035 62.7598 47.5191 62.7182 47.943C62.4273 49.6053 62.1531 51.3091 61.5962 52.9631C61.1723 54.6587 60.5157 56.3293 59.5848 57.8669C58.8201 59.496 57.8061 61.0253 56.6924 62.4881C55.6534 64.0175 54.3153 65.339 52.9439 66.6356C52.2624 67.2922 51.4977 67.8657 50.7247 68.4143C50.3424 68.7052 49.9434 68.9545 49.5611 69.2454C49.1788 69.5363 48.7881 69.8106 48.4141 70.1264C46.8017 71.182 45.023 72.0131 43.2194 72.7861C41.3826 73.4843 39.4626 74.0162 37.5177 74.4567C35.5146 74.598 33.5448 74.9388 31.5085 75.0385C29.4805 75.105 27.4525 74.8723 25.4993 74.4567C23.5294 74.0993 21.6178 73.5258 19.7976 72.7861C17.9358 72.1212 16.2735 71.0739 14.6029 70.1264C14.179 69.8854 13.7717 69.636 13.3894 69.3451C12.9987 69.0626 12.6081 68.7883 12.2507 68.4724C11.511 67.874 10.8045 67.234 10.0731 66.6356C8.63519 65.4055 7.33859 64.0341 6.32459 62.4881C5.77603 61.7484 5.28565 60.9671 4.83683 60.1858C4.59579 59.8035 4.388 59.3963 4.15528 59.0139C4.03892 58.8228 3.92256 58.6316 3.79789 58.4404C3.68152 58.2493 3.56516 58.0581 3.44049 57.8669C3.22439 57.4763 2.99167 57.0857 2.79219 56.6867C2.68414 56.4872 2.5844 56.2877 2.48467 56.0966L2.33506 55.7974C2.28519 55.6976 2.24363 55.5979 2.19376 55.4898C2.01922 55.0826 1.84468 54.6753 1.71169 54.2514C1.58702 53.8275 1.48728 53.3953 1.4291 52.9548C1.1382 52.132 0.930412 51.2925 0.789116 50.4447C0.747558 50.237 0.706001 50.0209 0.664443 49.8131C0.631197 49.6053 0.597951 49.3892 0.564705 49.1814C0.531459 48.9736 0.489901 48.7658 0.440032 48.558L0.37354 48.2505L0.315359 47.943C0.315359 47.5191 0.298736 47.0952 0.257179 46.6796C0.232244 46.2641 0.198998 45.8485 0.15744 45.4412C0.107571 45.0256 0.0909481 44.6184 0.0577021 44.2111C0.0327675 43.8038 -0.000478568 43.3966 0.024456 42.9893C0.0493905 42.5821 0.0660136 42.1748 0.0992597 41.7758C0.140817 41.3769 0.182375 40.9779 0.223932 40.579L0.248867 40.2798C0.257179 40.18 0.273802 40.0803 0.282113 39.9889C0.307048 39.7894 0.331982 39.5982 0.356917 39.3987C0.398474 39.0081 0.43172 38.6091 0.481589 38.2268C0.523147 37.8362 0.581328 37.4455 0.64782 37.0632C0.730935 36.6892 0.830673 36.3069 0.930412 35.9411C1.02184 35.5671 1.15482 35.2097 1.26287 34.844C1.37923 34.4866 1.47897 34.1209 1.59533 33.7635C1.67845 33.3978 1.79481 33.0404 1.91948 32.6913C2.06078 32.3506 2.2187 32.0098 2.37662 31.6773C2.45142 31.5111 2.52622 31.3449 2.60934 31.1786C2.69245 31.0124 2.77557 30.8545 2.85037 30.6883C3.00829 30.3641 3.14128 30.0233 3.26595 29.6909C3.60672 29.0592 3.91425 28.4275 4.27164 27.8208C4.6041 27.2057 4.98643 26.6322 5.37707 26.0754C5.43525 25.9091 5.51006 25.7512 5.58486 25.6016C5.66798 25.452 5.75109 25.3024 5.84252 25.1611C6.02537 24.8785 6.22485 24.6042 6.44926 24.3632C6.67367 24.1139 6.90639 23.8811 7.1308 23.6401C7.23885 23.5237 7.35522 23.4074 7.47158 23.291C7.58794 23.1747 7.69599 23.0583 7.80404 22.9419C8.66844 22.0027 9.37492 20.9305 10.4305 20.2906C10.6133 20.0412 10.8211 19.8251 11.0372 19.6173C11.2533 19.4179 11.4777 19.2184 11.7188 19.0521C11.9598 18.8859 12.2008 18.728 12.4419 18.5701C12.5665 18.4953 12.6829 18.4122 12.7993 18.3374C12.9239 18.2625 13.0403 18.1877 13.165 18.1213C13.647 17.8303 14.0709 17.4813 14.5197 17.1821C14.7442 17.0324 14.9603 16.8828 15.193 16.7415C15.4174 16.6002 15.6584 16.4922 15.8995 16.3925C16.0989 16.2262 16.315 16.0849 16.5394 15.9603C16.7639 15.8356 16.9966 15.7442 17.2293 15.6444C17.462 15.553 17.6864 15.4616 17.9108 15.3618C18.1353 15.2621 18.3597 15.179 18.5675 15.0626C19.0246 14.9213 19.4402 14.7218 19.8557 14.5639C20.0635 14.4808 20.2713 14.3894 20.4708 14.3063C20.6703 14.2232 20.8781 14.14 21.0775 14.0819C21.4765 13.9239 21.8671 13.791 22.2495 13.6663C22.6401 13.5582 23.0224 13.4751 23.3964 13.4003C23.7622 13.2923 24.1196 13.2258 24.4686 13.151C24.6432 13.1177 24.8094 13.0762 24.9839 13.0429C25.1502 13.0097 25.3164 12.9681 25.4743 12.9515C27.4192 12.5941 28.9569 12.5525 29.9875 12.5193C31.0181 12.5359 31.5584 12.5692 31.5584 12.619H31.5251Z" fill="black"/>
<path d="M31.525 26.3413C31.525 26.4577 30.3198 26.4494 28.2336 26.9315C28.0591 26.9647 27.8762 27.0229 27.6934 27.0728C27.5105 27.1226 27.311 27.1725 27.1199 27.239C26.9287 27.3055 26.7292 27.372 26.5214 27.4468C26.322 27.5216 26.1059 27.5964 25.8898 27.6712C25.6487 27.6878 25.4576 27.8374 25.2498 27.9621C25.042 28.0868 24.8342 28.2364 24.5682 28.253C24.4519 28.2946 24.3272 28.3361 24.2108 28.3943C24.0945 28.4525 23.9781 28.5107 23.8617 28.5771C23.7454 28.6436 23.629 28.7101 23.5127 28.7849C23.3963 28.8597 23.2883 28.9345 23.1719 29.0177C23.0555 29.0925 22.9309 29.159 22.8145 29.2338C22.6898 29.3086 22.5735 29.3751 22.4488 29.4499C22.1994 29.5912 21.9584 29.7657 21.7506 29.9818C21.5761 30.2394 21.3018 30.3891 21.0192 30.5304C20.7449 30.68 20.4706 30.8545 20.3294 31.1787C19.9055 31.6607 19.4234 32.1095 18.9746 32.6165C18.3845 33.0072 18.1019 33.6887 17.7278 34.2955C17.4453 34.5365 17.2125 34.8274 17.0463 35.1599C16.8718 35.484 16.7554 35.8497 16.6557 36.2237C16.0655 36.7723 15.783 37.537 15.8162 38.3764C15.5918 39.1245 15.2676 39.8891 15.2676 40.7286C15.1596 41.5431 15.118 42.3743 15.0682 43.2304C15.2676 44.0864 15.2843 44.9259 15.251 45.8235C15.5918 46.663 15.6998 47.5274 15.8661 48.4334C15.9076 48.6578 15.9824 48.8739 16.0655 49.09C16.157 49.2978 16.265 49.5055 16.3648 49.7133C16.4645 49.9211 16.5892 50.1206 16.6806 50.3284C16.772 50.5362 16.8718 50.7523 16.9383 50.9767C17.3538 51.8161 17.9107 52.5808 18.4593 53.3704C18.9663 54.1849 19.5647 54.9911 20.4208 55.5148C21.1771 56.1381 22 56.6867 22.7813 57.3184C23.7454 57.6591 24.5765 58.1994 25.4825 58.6898C26.4383 59.0305 27.3858 59.4794 28.4414 59.5542C29.4554 59.7869 30.511 59.7536 31.5582 59.8534C32.6055 59.9199 33.6777 59.8866 34.675 59.5542C35.1654 59.3796 35.6724 59.2799 36.1711 59.1635C36.4205 59.1137 36.6698 59.0389 36.9191 58.9641C37.1685 58.8976 37.4012 58.7978 37.6339 58.6898C37.7586 58.6648 37.8916 58.6399 38.008 58.5983C38.1326 58.5568 38.249 58.5069 38.3653 58.457C38.4817 58.4072 38.5981 58.3573 38.7144 58.2991C38.8225 58.2326 38.9305 58.1745 39.0469 58.108L39.371 57.9085L39.6869 57.7007C39.7949 57.6342 39.903 57.5677 40.011 57.5012C40.1191 57.4347 40.2271 57.3682 40.3352 57.3101C41.1663 56.7615 42.0473 56.2628 42.6956 55.5065C43.3938 54.8166 44.0089 54.0769 44.6572 53.3621C44.8151 52.88 45.0977 52.5143 45.3886 52.1403C45.5465 51.9574 45.6878 51.7746 45.8208 51.5751C45.8873 51.4837 45.9538 51.3839 46.0203 51.2842C46.0784 51.1845 46.1283 51.0764 46.1699 50.9684C46.7267 50.1954 46.9345 49.2728 47.242 48.425C47.3418 47.9845 47.508 47.5607 47.6244 47.1285C47.6576 47.0204 47.6909 46.9124 47.7158 46.8043C47.7407 46.6963 47.7657 46.5882 47.7823 46.4802C47.8155 46.2641 47.8571 46.0396 47.8488 45.8152C47.882 45.5991 47.907 45.3747 47.9319 45.1586C47.9319 44.9425 47.9485 44.7264 47.9568 44.5103C47.9735 44.2942 47.9568 44.0781 47.9818 43.862C47.9901 43.6459 48.015 43.4381 48.04 43.222C47.9901 43.0143 47.9735 42.7982 47.9735 42.5904C47.9568 42.3826 47.9652 42.1665 47.9735 41.9587C47.9818 41.7509 47.9735 41.5431 47.9568 41.3353C47.9402 41.1275 47.9153 40.9197 47.8488 40.7286C47.7241 39.9141 47.4997 39.1411 47.3002 38.3764C47.3002 38.1686 47.267 37.9692 47.2171 37.778C47.1672 37.5868 47.0841 37.4123 47.0093 37.2294C46.9678 37.138 46.9262 37.0549 46.8847 36.9718L46.7434 36.7224C46.6436 36.5562 46.5605 36.39 46.4691 36.2237C46.3112 35.883 46.1117 35.5671 45.9039 35.2596C45.7127 34.9438 45.5133 34.6446 45.3886 34.2955C45.0063 33.697 44.6738 33.0571 44.1419 32.6082C44.0172 32.4919 43.9341 32.3423 43.8343 32.201C43.7429 32.0597 43.6515 31.9184 43.56 31.7771C43.4686 31.6358 43.3606 31.5111 43.2359 31.4031C43.1112 31.295 42.9699 31.2119 42.7954 31.162C42.5294 30.9792 42.3466 30.7132 42.1305 30.4888C42.0224 30.3807 41.9144 30.2644 41.7897 30.173C41.7315 30.1231 41.665 30.0815 41.5985 30.0483C41.532 30.015 41.4572 29.9901 41.3741 29.9652C41.0666 29.8821 40.8422 29.6992 40.6178 29.5247C40.5097 29.4332 40.4017 29.3335 40.2936 29.2421C40.1856 29.1506 40.0692 29.0675 39.9528 28.9927C39.8365 28.9179 39.7201 28.8514 39.6038 28.7849C39.4874 28.7184 39.3627 28.6519 39.2547 28.5938C39.1383 28.5356 39.022 28.4691 38.9056 28.4109C38.7892 28.3527 38.6729 28.2946 38.5648 28.2447C37.5342 27.746 36.5701 27.3969 35.714 27.1476C35.4979 27.0894 35.2901 27.0312 35.0906 26.9813C34.8911 26.9315 34.6917 26.8899 34.5088 26.8484C34.1431 26.7569 33.794 26.7154 33.4948 26.6572C32.8797 26.5658 32.406 26.4993 32.0902 26.466C31.766 26.4245 31.5998 26.3912 31.5998 26.3497C31.5998 26.3081 31.8076 26.2749 32.2065 26.2499C32.3063 26.2499 32.4226 26.2333 32.5473 26.2333C32.672 26.2333 32.8049 26.2333 32.9546 26.2333C33.1042 26.2333 33.2621 26.2333 33.4366 26.2499C33.6112 26.2665 33.794 26.2749 33.9852 26.2915C34.7581 26.3663 35.714 26.5076 36.8028 26.8068C37.8916 27.1143 39.1134 27.5798 40.385 28.2779C40.5097 28.3527 40.651 28.4109 40.784 28.4691C40.917 28.5356 41.05 28.6021 41.1913 28.6686C41.4655 28.8016 41.7232 28.9844 41.931 29.2338C42.064 29.3252 42.1886 29.4083 42.3216 29.4997C42.4546 29.5912 42.5876 29.6826 42.7289 29.774C42.9949 29.9652 43.2525 30.1813 43.4769 30.4389C44.1335 30.7298 44.5076 31.3615 44.9564 31.9184C45.4468 32.4503 45.8291 33.0903 46.3361 33.6721C46.6021 33.9547 46.8015 34.2955 46.9761 34.6446C47.1589 34.9936 47.3085 35.3593 47.5413 35.7001C47.5994 35.8996 47.6576 36.0908 47.7241 36.2819C47.7574 36.3817 47.7989 36.4731 47.8322 36.5645C47.8737 36.6559 47.907 36.7557 47.9485 36.8471C48.0233 37.0383 48.1148 37.2211 48.2145 37.4123C48.2976 37.6035 48.3973 37.7946 48.4971 37.9858C48.5303 38.1936 48.5719 38.4097 48.6301 38.6091C48.6799 38.8169 48.7547 39.0164 48.8129 39.2242C48.8711 39.432 48.9376 39.6398 49.0041 39.8476C49.054 40.0554 49.1038 40.2715 49.1454 40.4959C49.1371 40.7203 49.1288 40.9447 49.1454 41.1691C49.1537 41.3935 49.1953 41.6096 49.2202 41.834C49.2451 42.0584 49.2867 42.2828 49.3282 42.5073C49.3615 42.7317 49.3864 42.9561 49.4197 43.1888C49.5028 44.1114 49.3532 45.0423 49.2617 45.9898C49.0789 46.9207 48.9625 47.8931 48.6384 48.824C48.4389 49.7964 48.0815 50.7523 47.508 51.6C47.1008 52.5393 46.5023 53.387 45.879 54.2182C45.3221 55.1075 44.5325 55.8306 43.7595 56.562C43.3772 56.936 42.9367 57.2436 42.4879 57.5428C42.2718 57.7007 42.039 57.842 41.8229 58.0082C41.6068 58.1745 41.3991 58.3407 41.1996 58.5402C40.2936 59.1552 39.2796 59.5957 38.2656 60.0446C37.2184 60.4269 36.1379 60.7178 35.0407 60.9921C33.8938 60.9671 32.7966 61.2248 31.6413 61.3162C30.4943 61.3827 29.3474 61.2331 28.2419 60.9837C27.1282 60.7926 26.0477 60.4601 25.017 60.0362C23.9532 59.6872 23.0472 59.0305 22.0831 58.5319C21.842 58.4072 21.6093 58.2659 21.3932 58.0997C21.1771 57.9417 20.961 57.7755 20.7532 57.5927C20.3377 57.2436 19.9553 56.8696 19.5231 56.5537C18.692 55.8805 17.9356 55.1158 17.4037 54.2099C17.0962 53.7943 16.8385 53.3372 16.5975 52.8883C16.4645 52.6639 16.3481 52.4395 16.2152 52.2234C16.1487 52.1154 16.0739 52.0073 15.9991 51.9076C15.9326 51.7995 15.8578 51.6998 15.7746 51.6C15.65 51.3839 15.5087 51.1678 15.384 50.9434C15.2593 50.719 15.118 50.5112 15.0183 50.2785C14.9102 50.0458 14.8105 49.8214 14.744 49.5804C14.6858 49.3393 14.6443 49.09 14.6443 48.824C14.4614 48.3669 14.3617 47.8848 14.2952 47.4027C14.2786 47.2864 14.2536 47.1617 14.237 47.0453C14.2204 46.929 14.2038 46.8043 14.1871 46.6879C14.1539 46.4552 14.0874 46.2225 14.0209 45.9898C14.0542 45.7487 14.0542 45.5077 14.0375 45.275C14.0375 45.0423 14.0043 44.8095 13.9794 44.5768C13.9461 44.3441 13.9295 44.1114 13.9045 43.887C13.8796 43.6542 13.863 43.4215 13.8713 43.1971C13.9212 42.2745 14.104 41.3935 14.1373 40.5125C14.1456 40.2881 14.1788 40.072 14.2121 39.8559C14.2619 39.6398 14.3201 39.432 14.3783 39.2242C14.4365 39.0164 14.5196 38.8169 14.5778 38.6091C14.6443 38.4097 14.7025 38.2019 14.7689 38.0024C14.8022 37.7946 14.8687 37.5868 14.9435 37.3957C15.0266 37.2045 15.1263 37.0133 15.2178 36.8305C15.3092 36.6476 15.4172 36.4648 15.5004 36.2819C15.5918 36.0991 15.6583 35.9079 15.7165 35.7084C15.9159 35.3593 16.0822 35.0019 16.29 34.6612C16.4811 34.3121 16.6889 33.9879 16.9216 33.6804C16.9549 33.4726 17.038 33.2981 17.1377 33.1319C17.2375 32.9656 17.3538 32.816 17.4868 32.683C17.7528 32.4171 18.052 32.1843 18.3013 31.9184C18.8 31.4031 19.1159 30.7215 19.7891 30.4389C19.9636 30.1231 20.2047 29.8904 20.479 29.7075C20.7616 29.533 21.0441 29.3751 21.3267 29.2254C21.601 29.0758 21.8337 28.868 22.0831 28.6935C22.2078 28.6021 22.3324 28.519 22.4571 28.4442C22.5818 28.3694 22.7231 28.3112 22.8644 28.2696C22.9641 28.1616 23.0888 28.0701 23.2135 28.0037C23.3381 27.9372 23.4711 27.8873 23.6041 27.8374C23.7371 27.7959 23.8701 27.746 23.9947 27.6961C24.1194 27.6463 24.2524 27.6047 24.3604 27.5299C24.6264 27.4717 24.8591 27.3637 25.0919 27.2722C25.3246 27.1725 25.5407 27.0561 25.7734 26.998C25.9895 26.9065 26.2139 26.8234 26.43 26.7569C26.6461 26.6987 26.8622 26.6572 27.0783 26.6323C27.2861 26.5741 27.4856 26.5408 27.6767 26.4993C27.8679 26.466 28.0591 26.4162 28.2419 26.3995C29.3307 26.2167 30.1951 26.2167 30.7686 26.2167C31.3421 26.2499 31.6413 26.2832 31.6413 26.333L31.525 26.3413Z" fill="black"/>
<path d="M31.526 38.8502C31.526 38.9 31.4429 38.9499 31.3016 38.9998C31.2268 39.0247 31.1354 39.0496 31.0357 39.0829C30.9276 39.1244 30.8112 39.1577 30.6783 39.1993C30.5951 39.2325 30.5037 39.2741 30.404 39.3073C30.3541 39.3322 30.3042 39.3572 30.2544 39.3821C30.2045 39.407 30.1546 39.432 30.0965 39.4486C29.9385 39.3821 29.9552 39.7312 29.7723 39.6231C29.6393 39.6315 29.5313 39.7229 29.4315 39.8392C29.3401 39.9473 29.1406 39.914 29.0908 40.1052C29.0991 40.2465 29.0076 40.2382 28.9079 40.2382C28.8082 40.2382 28.7167 40.2631 28.7583 40.421C28.725 40.4958 28.6669 40.554 28.617 40.6205C28.5671 40.6787 28.5006 40.7369 28.4425 40.7951C28.3178 40.7951 28.2596 40.8699 28.2347 40.953C28.2014 41.0361 28.1931 41.1358 28.1599 41.219C27.8856 41.2522 27.8523 41.4683 27.9188 41.701C27.7443 41.7176 27.6362 41.7841 27.6113 41.8756C27.5864 41.9753 27.6279 42.1 27.7277 42.2246C27.6944 42.3161 27.6529 42.4075 27.6196 42.4989C27.603 42.5488 27.5864 42.5904 27.5864 42.6402C27.5864 42.6901 27.5947 42.74 27.6196 42.7981C27.6196 42.8979 27.6196 42.9976 27.6196 43.0974C27.6196 43.1971 27.6196 43.2968 27.5864 43.3966C27.6778 43.5046 27.7443 43.596 27.7443 43.6958C27.7443 43.7457 27.7443 43.7955 27.7194 43.8537C27.7027 43.9036 27.6778 43.9618 27.6446 44.0199C27.8773 44.1945 27.8523 44.394 27.8025 44.6433C27.7858 44.7597 27.869 44.8511 27.9438 44.9425C28.0186 45.0256 28.1017 45.1087 28.0768 45.25C28.11 45.3581 28.1931 45.4412 28.2596 45.5326C28.3261 45.6241 28.4009 45.7072 28.4508 45.8069C28.4674 45.8651 28.484 45.9233 28.5006 45.9814C28.5256 46.0396 28.5588 46.0895 28.5921 46.1394C28.6253 46.1892 28.6669 46.2308 28.7251 46.264C28.7749 46.2973 28.8497 46.3056 28.9245 46.3139C29.0243 46.3721 29.1323 46.4303 29.2321 46.4885C29.3318 46.5466 29.4149 46.6297 29.4814 46.7378C29.7972 46.6713 29.9385 46.8542 30.1214 47.0536C30.2461 47.0703 30.3375 47.1534 30.4538 47.2032C30.5702 47.2531 30.6866 47.2947 30.8196 47.2531C30.9359 47.2864 31.0606 47.2864 31.1853 47.278C31.3099 47.2697 31.4263 47.2614 31.551 47.3196C31.6756 47.3445 31.8003 47.3778 31.9333 47.3778C32.058 47.3778 32.1826 47.3362 32.2907 47.2531C32.3987 47.1617 32.5151 47.1368 32.6315 47.1368C32.7561 47.1368 32.8808 47.1201 32.9805 47.0536C33.1385 47.1201 33.2382 47.0287 33.3296 46.9539C33.4294 46.8791 33.4959 46.7627 33.6122 46.7378C33.712 46.6713 33.82 46.6214 33.9281 46.5633C34.0361 46.5134 34.1275 46.4303 34.1774 46.3139C34.2107 46.264 34.2522 46.2225 34.2855 46.1726C34.3187 46.1227 34.3519 46.0812 34.3852 46.0313C34.4184 45.9898 34.46 45.9482 34.5099 45.915C34.5514 45.8734 34.593 45.8402 34.6512 45.8069C34.5847 45.6157 34.6678 45.5493 34.7675 45.4828C34.8673 45.4163 35.0086 45.3664 35.0252 45.25C35.1332 45.1835 35.1831 45.0755 35.208 44.9674C35.233 44.8594 35.2413 44.743 35.2912 44.6516C35.2912 44.5352 35.3493 44.4438 35.4075 44.3441C35.4657 44.2443 35.4906 44.1363 35.4491 44.0282C35.4657 43.9784 35.4657 43.9285 35.474 43.8703C35.474 43.8205 35.4574 43.7623 35.4574 43.7124C35.4408 43.6127 35.4574 43.5046 35.5156 43.4049C35.4324 43.3051 35.4574 43.2054 35.4906 43.0974C35.5239 42.9976 35.5488 42.8896 35.4823 42.7981L35.4574 42.6485L35.4241 42.5072C35.3992 42.4158 35.3909 42.3161 35.3743 42.2246C35.4657 42.0917 35.4408 42.0002 35.3826 41.9171C35.3327 41.834 35.233 41.7758 35.1831 41.701C35.1332 41.5182 34.8839 41.46 34.9421 41.219C34.9005 41.1441 34.8756 41.0527 34.834 40.9696C34.8008 40.8865 34.7509 40.82 34.6512 40.7868C34.5847 40.7369 34.593 40.6122 34.5764 40.5125C34.5597 40.4127 34.5016 40.3462 34.327 40.4127C34.2439 40.3878 34.2356 40.2797 34.2023 40.1966C34.1691 40.1135 34.1192 40.047 33.9862 40.0969C33.7535 40.18 33.7618 39.914 33.6455 39.8309C33.5374 39.7395 33.4127 39.6813 33.3047 39.6148C32.806 39.3239 32.3489 39.1826 32.0413 39.0746C31.7255 38.9832 31.551 38.9167 31.551 38.8419C31.551 38.8003 31.6091 38.7671 31.7172 38.7421C31.7754 38.7255 31.8419 38.7089 31.925 38.7006C32.0081 38.6839 32.1078 38.6756 32.2159 38.6756C32.6481 38.659 33.313 38.7421 34.0694 39.1078C34.2107 39.1826 34.4683 39.1161 34.5265 39.3655C34.6013 39.4154 34.6927 39.4486 34.7841 39.4902C34.8756 39.5317 34.9504 39.5899 34.9836 39.6979C35.1332 39.6813 35.2247 39.7395 35.2828 39.8226C35.341 39.914 35.366 40.0221 35.4324 40.1052C35.5073 40.18 35.5571 40.2714 35.6153 40.3629C35.6735 40.4543 35.7483 40.5374 35.848 40.6039C36.0807 40.7203 36.0309 41.0195 36.2137 41.1857C36.1971 41.327 36.2304 41.435 36.2719 41.5431C36.3218 41.6511 36.4049 41.7509 36.5129 41.8423C36.488 41.9836 36.5129 42.1 36.5711 42.2163C36.5961 42.2745 36.6293 42.3327 36.6626 42.3909C36.6875 42.4491 36.7041 42.5155 36.7124 42.582C36.621 42.7316 36.6293 42.8563 36.6626 42.981C36.6958 43.1057 36.7623 43.2386 36.8122 43.3716C36.862 43.5046 36.8371 43.6459 36.8122 43.7872C36.8038 43.8537 36.7955 43.9285 36.7872 43.995C36.7789 44.0615 36.7706 44.1363 36.7706 44.2028C36.6958 44.4771 36.7124 44.7763 36.5961 45.0506C36.5961 45.2085 36.5794 45.3581 36.5296 45.4994C36.4797 45.6407 36.3883 45.7737 36.2636 45.8817C36.2304 46.0396 36.1472 46.1643 36.0641 46.2973C35.981 46.4303 35.873 46.5466 35.7815 46.6713C35.7483 46.7461 35.715 46.8126 35.6652 46.8791C35.6153 46.9373 35.5571 46.9955 35.5073 47.0536L35.3327 47.2199C35.2745 47.2697 35.2163 47.3196 35.1582 47.3861C35.0584 47.5108 34.9005 47.5773 34.7509 47.6438C34.6013 47.7102 34.4766 47.8017 34.4018 47.9845C34.1442 48.1923 33.8117 48.2754 33.5291 48.4417C33.3629 48.4832 33.205 48.5331 33.047 48.5746C32.8808 48.6079 32.7229 48.6661 32.565 48.7326C32.3738 48.6411 32.2159 48.6411 32.0497 48.6827C31.8834 48.7076 31.7172 48.7824 31.551 48.8323C31.3764 48.8572 31.2019 48.8572 31.0357 48.8489C30.8611 48.824 30.6949 48.7824 30.537 48.7326C30.3707 48.7159 30.2045 48.6661 30.0383 48.6245C29.872 48.583 29.7224 48.5082 29.5728 48.4417C29.3983 48.4167 29.2653 48.3087 29.124 48.2256C28.9827 48.1424 28.858 48.0261 28.6918 47.9845C28.5173 47.9513 28.4092 47.8183 28.2929 47.7019C28.1765 47.5856 28.0768 47.4609 27.9271 47.3861C27.8607 47.3445 27.7858 47.303 27.7194 47.2531C27.6529 47.2032 27.5947 47.1534 27.5448 47.0869C27.4866 47.0287 27.4368 46.9705 27.3952 46.904C27.3536 46.8375 27.3287 46.7627 27.3038 46.6796C27.2124 46.5549 27.1625 46.397 27.1126 46.2557C27.0627 46.1061 26.9796 45.9898 26.83 45.8983C26.7469 45.7737 26.5973 45.6739 26.5142 45.5409C26.4311 45.408 26.3895 45.2583 26.4976 45.0672C26.4144 44.9425 26.4228 44.7846 26.4144 44.635C26.4061 44.4854 26.4144 44.3441 26.323 44.2194C26.3729 44.1446 26.3978 44.0698 26.3978 44.0033C26.4061 43.9368 26.3978 43.862 26.3812 43.7955C26.348 43.6625 26.2815 43.5212 26.2898 43.3883C26.323 43.2553 26.3563 43.1223 26.3812 42.9893C26.4061 42.8563 26.4228 42.7316 26.3812 42.5904C26.3646 42.5239 26.3646 42.4574 26.3729 42.3909C26.3895 42.3244 26.4144 42.2662 26.4394 42.208C26.4976 42.0917 26.5557 41.9753 26.5807 41.8506C26.5557 41.7093 26.6472 41.6096 26.7303 41.5099C26.8134 41.4101 26.9048 41.327 26.8882 41.1857C27.0129 40.9862 27.096 40.7701 27.2539 40.6039C27.1791 40.421 27.2539 40.3296 27.3536 40.2631C27.4534 40.2049 27.5864 40.1717 27.6695 40.1052C27.7609 40.047 27.7859 39.9307 27.8357 39.8309C27.8856 39.7312 27.9604 39.6647 28.1183 39.6896C28.11 39.5317 28.1765 39.4569 28.2679 39.4154C28.3677 39.3821 28.484 39.3821 28.5754 39.3572C28.7583 39.3073 28.8165 39.0746 29.0326 39.0995C29.0575 38.9748 29.1406 38.9582 29.2321 38.9582C29.3235 38.9582 29.4149 38.9748 29.4731 38.9167C29.6559 38.9499 29.7474 38.8086 29.8887 38.792C29.9468 38.7504 30.005 38.7255 30.0715 38.7089C30.138 38.7006 30.2045 38.7089 30.271 38.7172C30.3874 38.7006 30.5037 38.6839 30.6035 38.6756C30.7614 38.6756 30.8944 38.6756 31.019 38.6756C31.1354 38.6756 31.2351 38.7089 31.3182 38.7172C31.4762 38.7504 31.5593 38.792 31.5593 38.8419L31.526 38.8502Z" fill="black"/>
<path d="M31.5427 38.8668C31.4513 38.8668 31.3598 38.5759 31.285 38.044C31.2684 37.9526 31.2601 37.8611 31.2435 37.7614C31.2185 37.6617 31.1936 37.5536 31.2019 37.4373C31.3266 37.3209 30.9775 37.2045 31.1604 37.0716C31.2186 36.9469 31.1604 36.8139 31.1271 36.6726C31.0856 36.5313 31.2019 36.39 31.0939 36.2404C30.8528 36.0908 31.3598 35.9329 31.0606 35.775C30.9941 35.617 31.0108 35.4508 31.0274 35.2763C31.2102 35.1017 31.0274 34.9272 30.9941 34.7526C31.2102 34.5698 31.1188 34.3869 30.9692 34.1958C31.2684 34.0046 31.2185 33.8134 30.9443 33.614C30.936 33.4145 31.0523 33.215 30.9193 32.9989C30.9027 32.7911 30.8445 32.5833 30.8944 32.3672C30.6949 32.1511 30.7032 31.935 30.8695 31.7106C30.6534 31.4862 30.7365 31.2618 30.8528 31.0291C30.9692 30.7964 30.6617 30.5636 30.8362 30.3226C30.8528 30.0816 30.7864 29.8405 30.8196 29.5995C30.911 29.3585 31.0108 29.1091 30.8113 28.8598C30.7614 28.6104 30.6866 28.3611 30.803 28.1034C30.5703 27.8458 30.6783 27.5881 30.803 27.3305C30.7697 27.0728 30.9276 26.8068 30.803 26.5409C30.8362 26.2749 30.7032 26.0089 30.803 25.743C30.8695 25.477 30.936 25.211 30.803 24.9451C30.6534 24.6791 30.8612 24.4214 30.803 24.1555C31.0191 23.8978 30.7365 23.6401 30.803 23.3825C30.7864 23.1248 30.9276 22.8755 30.8113 22.6261C30.7697 22.3768 30.7282 22.1274 30.8196 21.8864C30.4871 21.6454 30.9027 21.4043 30.8362 21.1633C30.9775 20.9223 30.8196 20.6896 30.8528 20.4651C30.7947 20.2324 31.0024 20.008 30.8695 19.7836C30.8944 19.5592 30.7614 19.3431 30.8944 19.127C30.7282 18.9109 31.0357 18.7031 30.9193 18.4953C30.9193 18.2875 30.911 18.0797 30.9443 17.8886C31.2019 17.6891 30.9858 17.4979 30.9692 17.3068C30.9941 17.1156 30.8196 16.9327 30.9941 16.7499C31.0108 16.567 31.1271 16.3925 31.0274 16.218C30.9858 16.0434 31.4014 15.8855 31.0606 15.7193C31.0024 15.5613 31.3266 15.4034 31.0939 15.2538C30.8778 15.1042 31.1188 14.9629 31.1271 14.8216C31.1437 14.6803 31.1521 14.5473 31.1604 14.4227C31.2684 13.284 31.4014 12.6274 31.5427 12.6274C31.6923 12.6274 31.8419 13.4336 31.9583 14.8133C31.9749 14.9546 32.1494 15.0959 31.9915 15.2455C31.9915 15.3951 32.1328 15.553 32.0248 15.711C32.2658 15.8689 32.0663 16.0351 32.058 16.2096C32.0663 16.3842 31.9915 16.5587 32.0913 16.7333C32.2326 16.9161 32.0248 17.099 32.1162 17.2901C31.9666 17.4813 32.0081 17.6725 32.1411 17.8719C31.9998 18.0714 32.1744 18.2709 32.1661 18.4787C31.95 18.6865 32.0996 18.8943 32.191 19.1104C32.2741 19.3265 32.1578 19.5426 32.2076 19.767C32.1661 19.9914 32.2658 20.2158 32.2242 20.4485C32.3323 20.6812 32.3655 20.914 32.2409 21.1467C32.3157 21.3877 32.2575 21.6288 32.2575 21.8698C32.3406 22.1108 32.2492 22.3602 32.2658 22.6095C32.3157 22.8589 32.0331 23.1082 32.2741 23.3659C32.3074 23.6235 32.2326 23.8812 32.2741 24.1388C32.2409 24.3965 32.2076 24.6625 32.2741 24.9284C32.0331 25.1944 32.1827 25.4604 32.2741 25.7263C32.3406 25.9923 32.3074 26.2583 32.2741 26.5242C32.299 26.7902 32.2824 27.0479 32.2741 27.3138C32.3406 27.5715 32.1744 27.8291 32.2741 28.0868C32.3739 28.3445 32.1661 28.5938 32.2658 28.8432C32.3323 29.0925 32.3739 29.3418 32.2575 29.5829C32.2575 29.8239 32.0414 30.0649 32.2409 30.306C32.2907 30.547 32.5567 30.7797 32.2242 31.0125C32.3074 31.2452 32.0663 31.4696 32.2076 31.694C31.9583 31.9184 32.191 32.1345 32.191 32.3506C32.1411 32.5667 32.058 32.7828 32.1661 32.9823C32.2824 33.1901 32.0996 33.3979 32.1411 33.5973C32.2824 33.7968 31.9583 33.988 32.1162 34.1791C32.0829 34.3703 32.1411 34.5532 32.0913 34.736C32.4237 34.9189 32.0913 35.0934 32.058 35.2596C32.0081 35.4259 32.2741 35.6004 32.0248 35.7583C32.2741 35.9163 32.058 36.0742 31.9915 36.2238C31.9167 36.3734 32.0996 36.5147 31.9583 36.656C32.1328 36.7973 31.8585 36.9219 31.925 37.0549C31.8087 37.1796 31.925 37.3043 31.8918 37.4206C31.9333 37.537 31.9167 37.645 31.8502 37.7448C31.8336 37.8445 31.8253 37.9443 31.8087 38.0274C31.7256 38.5593 31.6341 38.8502 31.5427 38.8502V38.8668Z" fill="black"/>
<path d="M31.5347 43.4797C31.4682 43.4132 31.7591 42.9977 32.3492 42.2995C32.449 42.1831 32.557 42.0585 32.6651 41.9255C32.7731 41.7842 32.8812 41.6346 33.0308 41.5016C33.2552 41.4517 33.1555 41.0611 33.4464 41.0362C33.6375 40.9198 33.7622 40.7286 33.9035 40.5292C34.0448 40.3297 34.3025 40.2382 34.4022 39.9806C34.4188 39.6315 34.9591 39.7977 34.9424 39.3905C35.092 39.1494 35.3081 38.9583 35.5242 38.7671C35.8567 38.6923 35.9481 38.3515 36.1393 38.1022C36.5133 38.0357 36.6712 37.7448 36.7959 37.4123C37.2364 37.3957 37.4442 37.1214 37.4858 36.6892C37.7185 36.4399 38.0509 36.2737 38.2089 35.9329C38.4499 35.6669 38.666 35.3677 38.9652 35.1433C39.0899 34.736 39.3559 34.4784 39.7548 34.3288C39.8712 33.9049 40.2119 33.6888 40.5693 33.4893C40.935 33.2981 41.0015 32.7911 41.4088 32.6249C41.708 32.3423 41.9574 32.0098 42.2732 31.7439C42.6306 31.5112 42.9963 31.2784 43.1625 30.8379C43.4285 30.4971 43.6862 30.1398 44.0768 29.9153C44.2264 29.4416 44.6087 29.2089 45.0077 28.9761C45.2986 28.6354 45.7308 28.4276 45.9552 28.0203C46.3043 27.7211 46.5287 27.3055 46.9193 27.0479C47.2934 26.7736 47.6674 26.4993 47.8918 26.0837C48.1079 25.6598 48.5733 25.4853 48.8476 25.1362C49.3131 24.97 49.4294 24.463 49.7868 24.2053C50.0777 23.8812 50.485 23.6817 50.7094 23.2911C50.9837 22.9586 51.2579 22.6345 51.6153 22.4017C51.6818 21.8698 52.2636 21.8781 52.5047 21.5373C52.887 21.3462 53.0615 20.9472 53.3691 20.6979C53.6018 20.3737 54.034 20.249 54.2085 19.8833C54.4994 19.634 54.674 19.2683 55.0231 19.1021C55.1644 18.728 55.6381 18.6782 55.8127 18.3457C56.062 18.0964 56.303 17.8387 56.569 17.6226C56.9929 17.5644 57.076 17.1738 57.3004 16.9328C57.5498 16.725 57.6495 16.3759 57.9986 16.2761C58.2313 16.0684 58.5222 15.9354 58.6635 15.6611C58.8464 15.4284 59.3367 15.5198 59.2869 15.0793C59.4365 14.8382 59.8521 14.8798 59.877 14.539C59.9102 14.2066 60.251 14.1983 60.4256 14.0403C60.6001 13.8824 60.7746 13.7328 60.9326 13.5832C62.3954 12.2783 63.2764 11.5884 63.3761 11.6799C63.4842 11.7879 62.6115 12.8684 61.0157 14.6305C60.8578 14.805 60.8079 15.1125 60.517 15.179C60.3341 15.3619 60.2427 15.6445 59.9767 15.7691C59.9518 16.1348 59.611 16.193 59.3949 16.3925C59.1955 16.6086 58.9295 16.7665 58.7799 17.0491C58.6552 17.3649 58.2895 17.4481 58.1233 17.7473C57.7908 17.872 57.583 18.1379 57.4334 18.4787C57.0926 18.62 56.968 18.9857 56.7103 19.235C56.303 19.3348 56.1534 19.7005 55.954 20.0246C55.7462 20.3405 55.4054 20.5316 55.1727 20.8392C54.8735 21.0802 54.6657 21.4293 54.3581 21.6786C54.1504 22.0277 53.8927 22.3435 53.5187 22.543C53.2776 22.8838 52.9535 23.1331 52.6543 23.4324C52.4216 23.7898 52.0559 24.0225 51.765 24.3383C51.4907 24.6708 50.992 24.7788 50.8507 25.2609C50.5598 25.5934 50.2024 25.851 49.9198 26.2001C49.579 26.491 49.2383 26.7902 48.9723 27.1559C48.4819 27.3055 48.2658 27.7377 47.9998 28.1284C47.7256 28.5024 47.3765 28.8016 47.0274 29.0925C46.7199 29.4333 46.3957 29.7408 46.0716 30.04C45.8056 30.4057 45.3734 30.5969 45.1324 30.9709C44.8913 31.3532 44.4425 31.5112 44.2098 31.8769C43.9521 32.2259 43.6862 32.5584 43.3038 32.7662C43.0046 33.0654 42.5641 33.1984 42.4145 33.6306C42.1568 33.9547 42.0654 34.4285 41.5501 34.4701C41.334 34.8108 40.8852 34.9106 40.7106 35.2846C40.2701 35.3843 40.1621 35.8165 39.8961 36.0659C39.5969 36.2903 39.2894 36.4898 39.1065 36.8222C38.9403 37.1547 38.5663 37.2793 38.3502 37.5453C38.2089 37.8861 37.7434 37.8944 37.6271 38.2352C37.3777 38.443 37.1866 38.7089 36.9289 38.8918C36.9455 39.3406 36.4967 39.324 36.2723 39.5068C36.0312 39.6814 36.0146 40.072 35.6489 40.0886C35.6323 40.4627 35.2915 40.4959 35.0588 40.6289C34.8261 40.7619 34.7762 41.0611 34.5102 41.1276C34.4687 41.4185 34.1113 41.3852 34.0032 41.5847C33.7705 41.6595 33.6957 41.8756 33.5378 42.0003C33.4297 42.1665 33.2884 42.2912 33.1139 42.366C32.9809 42.4824 32.8562 42.5821 32.7399 42.6818C32.0417 43.2636 31.6261 43.5545 31.5597 43.488L31.5347 43.4797Z" fill="black"/>
<path d="M36.1309 43.4797C36.1309 43.3883 36.4218 43.2969 36.9537 43.2137C37.0451 43.1971 37.1366 43.1888 37.2363 43.1722C37.336 43.1473 37.4441 43.1223 37.5604 43.1306C37.6768 43.2553 37.7932 42.9062 37.9261 43.0974C38.0508 43.1473 38.1838 43.0974 38.3251 43.0641C38.4664 43.0226 38.6077 43.1389 38.7573 43.0309C38.9069 42.7899 39.0648 43.2969 39.2227 42.9976C39.3807 42.9311 39.5469 42.9478 39.7214 42.9644C39.896 43.1473 40.0705 42.9644 40.2534 42.9312C40.4362 43.1472 40.6191 43.0558 40.8102 42.8979C41.0014 43.1971 41.1926 43.1556 41.392 42.873C41.5915 42.8647 41.7993 42.981 42.0071 42.848C42.2149 42.8314 42.431 42.7732 42.6471 42.8231C42.8632 42.6236 43.0793 42.6319 43.3037 42.8065C43.5281 42.5904 43.7525 42.6735 43.9852 42.7899C44.218 42.9062 44.4507 42.5987 44.6917 42.7732C44.9328 42.7899 45.1738 42.7234 45.4148 42.7566C45.6559 42.848 45.9052 42.9478 46.1545 42.7483C46.4039 42.6984 46.6532 42.6236 46.9109 42.74C47.1686 42.5073 47.4262 42.6153 47.6839 42.74C47.9415 42.7067 48.2075 42.8647 48.4735 42.74C48.7394 42.7732 49.0054 42.6402 49.2714 42.74C49.5373 42.8065 49.8033 42.873 50.0693 42.74C50.3352 42.5904 50.5929 42.7982 50.8589 42.74C51.1165 42.9561 51.3742 42.6735 51.6318 42.74C51.8895 42.7151 52.1388 42.8647 52.3882 42.7483C52.6375 42.7067 52.8869 42.6652 53.1279 42.7566C53.3689 42.4241 53.61 42.8397 53.851 42.7732C54.0921 42.9145 54.3248 42.7483 54.5575 42.7899C54.7902 42.7234 55.0146 42.9395 55.239 42.8065C55.4634 42.8314 55.6796 42.6984 55.904 42.8231C56.1201 42.6569 56.3278 42.9644 56.5439 42.848C56.7517 42.848 56.9595 42.8397 57.1507 42.873C57.3502 43.1306 57.5413 42.9145 57.7408 42.8979C57.932 42.9228 58.1148 42.7566 58.2977 42.9312C58.4805 42.9478 58.6551 43.0641 58.8296 42.9644C59.0042 42.9228 59.1704 43.3384 59.3283 42.9976C59.4862 42.9395 59.6441 43.2636 59.7938 43.0309C59.9434 42.8231 60.0847 43.0558 60.2259 43.0641C60.3672 43.0724 60.5002 43.0891 60.6249 43.0974C61.7636 43.2054 62.4202 43.3384 62.4202 43.4797C62.4202 43.6293 61.614 43.7789 60.2259 43.8953C60.0847 43.9036 59.9434 44.0865 59.7938 43.9285C59.6441 43.9285 59.4862 44.0698 59.3283 43.9618C59.1704 44.2028 59.0042 44.0033 58.8296 43.995C58.6551 44.0033 58.4805 43.9285 58.2977 44.0283C58.1148 44.1696 57.932 43.9618 57.7408 44.0532C57.5496 43.9036 57.3585 43.9452 57.1507 44.0781C56.9512 43.9368 56.7517 44.1114 56.5439 44.1031C56.3362 43.8787 56.1201 44.0366 55.904 44.128C55.6879 44.2111 55.4635 44.0948 55.2474 44.1446C55.0229 44.1031 54.7985 44.2028 54.5658 44.1613C54.3331 44.261 54.1004 44.3026 53.8593 44.1779C53.6183 44.2444 53.3773 44.1945 53.1362 44.1945C52.8952 44.2859 52.6458 44.1862 52.3965 44.2028C52.1472 44.2527 51.8895 43.9701 51.6402 44.2111C51.3825 44.2444 51.1248 44.1696 50.8672 44.2111C50.6095 44.1779 50.3436 44.1446 50.0776 44.2111C49.8116 43.9701 49.5456 44.1197 49.2797 44.2111C49.0137 44.2776 48.7477 44.2444 48.4818 44.2111C48.2158 44.2361 47.9581 44.2194 47.6922 44.2111C47.4345 44.2859 47.1769 44.1114 46.9192 44.2111C46.6616 44.3109 46.4122 44.1031 46.1629 44.2028C45.9135 44.2693 45.6642 44.3109 45.4231 44.1945C45.1821 44.1945 44.9411 43.9784 44.7 44.1779C44.459 44.2277 44.2263 44.4937 43.9936 44.1613C43.7608 44.2444 43.5364 44.0033 43.312 44.1446C43.0876 43.9036 42.8715 44.1363 42.6554 44.128C42.4393 44.0781 42.2232 43.995 42.0154 44.1031C41.8076 44.2194 41.5998 44.0366 41.4004 44.0781C41.2009 44.2194 41.0097 43.8953 40.8186 44.0532C40.6274 44.02 40.4445 44.0781 40.2617 44.0283C40.0788 44.3607 39.9043 44.0283 39.7297 43.995C39.5552 43.9452 39.389 44.2111 39.2311 43.9618C39.0731 44.2111 38.9152 43.995 38.7656 43.9285C38.616 43.8537 38.4747 44.0366 38.3334 43.8953C38.1921 44.0698 38.0591 43.7955 37.9345 43.862C37.8098 43.7457 37.6851 43.862 37.5688 43.8288C37.4524 43.8704 37.3443 43.8537 37.2446 43.7872C37.1449 43.7706 37.0451 43.7623 36.962 43.7457C36.4301 43.6626 36.1392 43.5794 36.1392 43.4797H36.1309Z" fill="black"/>
<path d="M34.7755 46.7212C34.842 46.6547 35.108 46.796 35.5402 47.1118C35.615 47.17 35.6898 47.2199 35.7729 47.2864C35.8643 47.3445 35.9558 47.4027 36.0306 47.4858C36.0306 47.6521 36.3547 47.4858 36.3132 47.7186C36.363 47.8432 36.496 47.9014 36.6207 47.9762C36.7454 48.0427 36.7703 48.2339 36.9531 48.2588C37.2274 48.2006 36.9864 48.6578 37.3022 48.5663C37.4601 48.6328 37.5682 48.7658 37.6762 48.8988C37.6762 49.1481 37.9173 49.1481 38.0752 49.2479C38.0503 49.5305 38.2497 49.597 38.4908 49.6219C38.416 49.971 38.5822 50.0707 38.923 50.0125C39.0726 50.1455 39.1308 50.3699 39.3718 50.4281C39.5297 50.5611 39.7209 50.6691 39.8372 50.8603C40.1281 50.8686 40.2777 51.0349 40.3193 51.3174C40.6268 51.3174 40.7349 51.5419 40.818 51.7829C40.8928 52.0322 41.2834 51.9824 41.325 52.265C41.4829 52.4395 41.699 52.5725 41.8486 52.7636C41.9567 52.9964 42.0647 53.2457 42.3806 53.279C42.5967 53.4203 42.8294 53.5449 42.9208 53.8109C43.2616 53.8275 43.3779 54.0852 43.4694 54.3511C43.6772 54.5091 43.752 54.8083 44.0262 54.908C44.1842 55.1158 44.4751 55.2155 44.5914 55.4732C44.7327 55.7142 44.874 55.947 45.1566 56.0384C45.4475 56.1215 45.4891 56.454 45.7135 56.5953C45.7467 56.9277 46.1291 56.9111 46.2537 57.1438C46.4532 57.31 46.528 57.5926 46.7857 57.6841C46.9935 57.8337 47.1929 57.975 47.301 58.216C47.7082 58.1578 47.5836 58.615 47.7997 58.7396C47.8662 59.0056 48.1488 59.0555 48.2817 59.2466C48.4895 59.363 48.4978 59.6788 48.7472 59.7453C48.8885 59.9199 49.1378 59.9864 49.196 60.2274C49.462 60.2689 49.4038 60.6263 49.6282 60.6928C49.7778 60.8424 49.9274 60.9754 50.0438 61.1417C50.0022 61.4658 50.2931 61.4492 50.4427 61.5739C50.5591 61.7318 50.8084 61.7401 50.8168 61.9894C50.9331 62.1307 50.9747 62.3385 51.1658 62.3801C51.3154 62.4715 51.1409 62.8871 51.4983 62.7541C51.6562 62.8206 51.5315 63.1614 51.8058 63.1115C52.0635 63.0699 51.997 63.3359 52.0884 63.4439C52.1798 63.552 52.263 63.6517 52.3461 63.7515C53.0692 64.6325 53.4432 65.1894 53.3435 65.2891C53.2354 65.3972 52.5622 64.9317 51.4983 64.0341C51.3902 63.9426 51.1658 63.9676 51.1658 63.7515C51.0578 63.6434 50.85 63.6351 50.8084 63.4439C50.5259 63.5021 50.5508 63.2445 50.4344 63.1115C50.3014 63.0034 50.2349 62.8206 50.0355 62.7624C49.8111 62.7292 49.8277 62.4549 49.6199 62.3884C49.5867 62.1474 49.4204 62.0393 49.1877 61.9977C49.1461 61.7567 48.8802 61.7318 48.7389 61.5822C48.7472 61.2746 48.4895 61.2414 48.2734 61.15C48.0656 61.0502 47.9908 60.8175 47.7914 60.7011C47.6667 60.51 47.434 60.4186 47.2927 60.2357C47.0516 60.1443 46.8605 60.0113 46.7857 59.7536C46.5696 59.6373 46.4366 59.4212 46.262 59.2549C46.0293 59.1469 45.9213 58.8975 45.7301 58.7396C45.5223 58.5983 45.5389 58.216 45.1899 58.2077C44.9904 58.0498 44.8574 57.8171 44.6413 57.6674C44.4751 57.4597 44.3171 57.2519 44.0844 57.1106C44.0678 56.7532 43.7769 56.6701 43.5192 56.5454C43.2782 56.4041 43.1203 56.188 42.9541 55.9802C42.7463 55.8057 42.5717 55.6145 42.3972 55.4233C42.1645 55.2903 42.1063 54.9828 41.8569 54.8748C41.6076 54.7667 41.5743 54.4426 41.325 54.3345C41.1006 54.2099 40.9011 54.0602 40.8097 53.8026C40.6351 53.628 40.6185 53.3039 40.311 53.2873C40.1115 53.1543 39.7541 53.1792 39.8289 52.7803C39.6045 52.6805 39.6211 52.3398 39.3635 52.2816C39.3801 51.9491 39.056 51.9574 38.9147 51.7995C38.7983 51.6167 38.7069 51.4089 38.4825 51.3341C38.2497 51.2676 38.2331 51.0016 38.0669 50.8852C37.8258 50.8437 37.9173 50.478 37.6679 50.453C37.5599 50.2951 37.3853 50.2037 37.2939 50.0375C36.9365 50.1455 37.0446 49.7881 36.9448 49.6468C36.8617 49.4972 36.5542 49.5637 36.6124 49.2728C36.3215 49.3393 36.363 49.0733 36.3048 48.9237C36.255 48.7658 36.0223 48.7907 36.0223 48.5913C35.7978 48.6162 35.8976 48.3336 35.7646 48.2837C35.7646 48.1092 35.5984 48.1009 35.5319 48.0011C35.4238 47.9513 35.3573 47.8599 35.3324 47.7435C35.2742 47.6604 35.216 47.5856 35.1579 47.5108C34.842 47.0786 34.7007 46.8126 34.7589 46.7461L34.7755 46.7212Z" fill="black"/>
<path d="M31.5168 48.0677C31.6082 48.0677 31.6996 48.3586 31.7828 48.8905C31.7994 48.982 31.8077 49.0734 31.8243 49.1731C31.8492 49.2729 31.8742 49.3809 31.8659 49.4973C31.7412 49.6136 32.0903 49.73 31.8991 49.8547C31.8492 49.9793 31.8991 50.1123 31.9324 50.2536C31.9739 50.3949 31.8576 50.5362 31.9656 50.6858C32.2066 50.8354 31.6996 50.9933 31.9989 51.1513C32.0653 51.3092 32.0487 51.4754 32.0321 51.65C31.8492 51.8245 32.0321 51.999 32.0653 52.1736C31.8492 52.3564 31.9407 52.5393 32.0903 52.7305C31.7911 52.9216 31.8326 53.1128 32.1152 53.3123C32.1235 53.5117 32.0072 53.7112 32.1401 53.919C32.1568 54.1268 32.215 54.3429 32.1651 54.5507C32.3646 54.7668 32.3563 54.9829 32.1817 55.2073C32.3978 55.4317 32.3147 55.6561 32.1983 55.8888C32.082 56.1215 32.3895 56.3543 32.215 56.587C32.1983 56.828 32.2648 57.0691 32.2316 57.3101C32.1401 57.5511 32.0487 57.8005 32.2399 58.0498C32.2898 58.2992 32.3646 58.5485 32.2482 58.8062C32.4809 59.0638 32.3729 59.3215 32.2482 59.5791C32.2898 59.8368 32.1235 60.1028 32.2482 60.3687C32.215 60.6347 32.3479 60.9007 32.2482 61.1666C32.1817 61.4326 32.1152 61.6986 32.2482 61.9645C32.3978 62.2305 32.19 62.4882 32.2482 62.7541C32.0321 63.0118 32.3147 63.2695 32.2482 63.5271C32.2731 63.7848 32.1235 64.0341 32.2399 64.2835C32.2814 64.5328 32.323 64.7821 32.2316 65.0232C32.564 65.2642 32.1485 65.5053 32.215 65.7463C32.0737 65.9873 32.2399 66.22 32.1983 66.4528C32.2565 66.6855 32.0487 66.9099 32.1817 67.1343C32.1568 67.3587 32.2898 67.5748 32.1651 67.7909C32.3313 68.007 32.0238 68.2148 32.1401 68.4226C32.1401 68.6304 32.1485 68.8382 32.1152 69.0376C31.8576 69.2371 32.0737 69.4283 32.0903 69.6195C32.0653 69.8106 32.2399 69.9935 32.0653 70.1763C32.0404 70.3592 31.9324 70.5337 32.0321 70.7C32.0737 70.8745 31.6581 71.0407 31.9989 71.1986C32.057 71.3566 31.7329 71.5145 31.9656 71.6641C32.1734 71.8137 31.9407 71.955 31.9324 72.0963C31.9157 72.2376 31.9074 72.3706 31.8991 72.4952C31.7911 73.6339 31.6581 74.2822 31.5168 74.2822C31.3589 74.2822 31.2176 73.476 31.1012 72.0963C31.0929 71.955 30.91 71.8137 31.068 71.6641C31.068 71.5145 30.9267 71.3566 31.0347 71.1986C30.7937 71.0407 30.9932 70.8745 31.0015 70.7C30.9932 70.5254 31.068 70.3509 30.9682 70.1763C30.8269 69.9935 31.0347 69.8106 30.935 69.6195C31.0846 69.4283 31.043 69.2371 30.91 69.0376C31.0513 68.8382 30.8768 68.6387 30.8851 68.4226C31.1095 68.2148 30.9516 68.007 30.8602 67.7909C30.7771 67.5748 30.8934 67.3587 30.8352 67.1343C30.8768 66.9099 30.7771 66.6855 30.8186 66.4528C30.7189 66.22 30.6773 65.9873 30.802 65.7463C30.7355 65.5053 30.7854 65.2642 30.7854 65.0232C30.7023 64.7821 30.7937 64.5328 30.7771 64.2835C30.7355 64.0341 31.0098 63.7848 30.7688 63.5271C30.7355 63.2695 30.8103 63.0118 30.7688 62.7541C30.802 62.4965 30.8352 62.2305 30.7688 61.9645C31.0098 61.6986 30.8602 61.4326 30.7688 61.1666C30.7023 60.9007 30.7355 60.6347 30.7688 60.3687C30.7438 60.1028 30.7604 59.8451 30.7688 59.5791C30.7023 59.3215 30.8685 59.0638 30.7688 58.8062C30.669 58.5485 30.8768 58.2992 30.7771 58.0498C30.7106 57.8005 30.669 57.5511 30.7854 57.3101C30.7854 57.0691 31.0015 56.828 30.802 56.587C30.7604 56.346 30.4862 56.1132 30.8186 55.8888C30.7355 55.6561 30.9765 55.4317 30.8352 55.2073C31.0763 54.9829 30.8436 54.7668 30.8602 54.5507C30.91 54.3346 30.9932 54.1268 30.8851 53.919C30.7688 53.7112 30.9516 53.5117 30.91 53.3123C30.7687 53.1128 31.0929 52.9216 30.935 52.7305C30.9682 52.5393 30.91 52.3564 30.9682 52.1736C30.6358 51.9907 30.9682 51.8162 31.0015 51.65C31.0513 51.4754 30.7854 51.3175 31.0347 51.1513C30.7854 50.9933 31.0015 50.8354 31.068 50.6858C31.1428 50.5362 30.9599 50.3949 31.1012 50.2536C30.9267 50.1123 31.2009 49.9793 31.1345 49.8547C31.2508 49.73 31.1345 49.6053 31.176 49.4973C31.1345 49.3809 31.1511 49.2729 31.2176 49.1731C31.2342 49.0734 31.2425 48.9736 31.2591 48.8905C31.3422 48.3586 31.4337 48.0677 31.5251 48.0677H31.5168Z" fill="black"/>
<path d="M28.2591 46.7046C28.3256 46.7711 28.1843 47.037 27.8602 47.4692C27.8103 47.544 27.7521 47.6188 27.6856 47.702C27.6274 47.7934 27.5692 47.8848 27.4861 47.9596C27.3199 47.9596 27.4861 48.2838 27.2534 48.2422C27.1287 48.2921 27.0622 48.4251 26.9958 48.5497C26.9293 48.6744 26.7381 48.691 26.7132 48.8822C26.7713 49.1565 26.3142 48.9154 26.4056 49.2396C26.3391 49.3975 26.2062 49.5056 26.0732 49.6136C25.8238 49.6136 25.8238 49.8546 25.7241 50.0042C25.4415 49.9793 25.375 50.1788 25.3501 50.4198C25.001 50.345 24.9013 50.5113 24.9511 50.852C24.8181 51.0016 24.5937 51.0598 24.5355 51.3008C24.4026 51.4588 24.2945 51.6499 24.1033 51.7663C24.095 52.0572 23.9288 52.2068 23.6545 52.2484C23.6545 52.5559 23.4301 52.6556 23.1891 52.7471C22.9397 52.8219 22.9896 53.2125 22.707 53.2541C22.5325 53.412 22.3995 53.6281 22.2083 53.7777C21.9756 53.8857 21.7262 53.9938 21.693 54.3096C21.5517 54.5257 21.427 54.7584 21.1611 54.8499C21.1444 55.1906 20.8868 55.307 20.6208 55.3984C20.4629 55.6062 20.1637 55.681 20.0639 55.9553C19.8562 56.1132 19.7564 56.4041 19.4988 56.5205C19.2577 56.6618 19.025 56.8031 18.9336 57.0857C18.8505 57.3766 18.518 57.4181 18.3767 57.6425C18.0442 57.6758 18.0609 58.0581 17.8281 58.1828C17.6619 58.3739 17.3793 58.4571 17.2879 58.7147C17.1383 58.9225 16.997 59.122 16.756 59.23C16.8141 59.6373 16.357 59.5126 16.2323 59.7287C15.9664 59.7952 15.9165 60.0778 15.7253 60.2108C15.609 60.4186 15.2931 60.4269 15.2266 60.6762C15.0521 60.8175 14.9856 61.0669 14.7446 61.1251C14.7113 61.391 14.3456 61.3328 14.2791 61.5573C14.1295 61.7069 13.9965 61.8565 13.8303 61.9728C13.5062 61.9313 13.5228 62.2222 13.3981 62.3718C13.2402 62.4882 13.2319 62.7375 12.9825 62.7458C12.8412 62.8622 12.6334 62.9037 12.5919 63.0949C12.5005 63.2445 12.0849 63.07 12.2179 63.4274C12.1514 63.5853 11.8106 63.4606 11.8688 63.7349C11.9103 63.9925 11.6444 63.926 11.5363 64.0175C11.4283 64.1089 11.3285 64.192 11.2288 64.2751C10.3478 64.9982 9.79091 65.3722 9.69117 65.2725C9.58312 65.1645 10.0486 64.4912 10.9462 63.4274C11.0376 63.3193 11.0127 63.0949 11.2288 63.0949C11.3369 62.9868 11.3452 62.7791 11.5363 62.7375C11.4781 62.4549 11.7358 62.4798 11.8688 62.3635C11.9851 62.2305 12.1597 62.164 12.2179 61.9728C12.2511 61.7484 12.5254 61.765 12.5919 61.5573C12.8329 61.524 12.941 61.3578 12.9825 61.1251C13.2236 61.0835 13.2485 60.8175 13.3981 60.6762C13.6973 60.6846 13.7389 60.4269 13.8303 60.2108C13.93 60.003 14.1628 59.9282 14.2791 59.7287C14.4703 59.6041 14.5617 59.3713 14.7446 59.23C14.836 58.9973 14.9773 58.7978 15.2266 58.723C15.343 58.5069 15.5591 58.3739 15.7253 58.1994C15.8334 57.9667 16.0827 57.8586 16.2406 57.6675C16.3819 57.4597 16.7643 57.4763 16.7726 57.1272C16.9305 56.9277 17.1632 56.7948 17.3128 56.5787C17.5206 56.4207 17.7284 56.2545 17.8697 56.0218C18.2271 56.0052 18.3102 55.7143 18.4349 55.4566C18.5762 55.2156 18.7923 55.0577 19.0001 54.8914C19.1663 54.6836 19.3658 54.5091 19.5569 54.3346C19.6899 54.1018 19.9975 54.0436 20.1055 53.7943C20.2136 53.545 20.546 53.5117 20.6458 53.2624C20.7704 53.038 20.92 52.8385 21.1777 52.7471C21.3522 52.5725 21.6764 52.5559 21.7013 52.2484C21.8343 52.0489 21.8094 51.6915 22.2083 51.7663C22.3164 51.5419 22.6488 51.5585 22.707 51.3008C23.0395 51.3175 23.0312 50.9933 23.1891 50.852C23.3719 50.7357 23.588 50.6442 23.6545 50.4198C23.721 50.1871 23.987 50.1705 24.1033 50.0042C24.1449 49.7632 24.5106 49.8546 24.5355 49.6136C24.6935 49.5056 24.7849 49.331 24.9511 49.2396C24.8431 48.8822 25.2088 48.9902 25.3501 48.8905C25.508 48.8074 25.4332 48.4999 25.7241 48.558C25.6576 48.2671 25.9236 48.3087 26.0815 48.2505C26.2394 48.1923 26.2145 47.9679 26.4139 47.9679C26.389 47.7435 26.6716 47.8433 26.7215 47.7103C26.896 47.7103 26.9043 47.5357 27.0041 47.4775C27.0539 47.3695 27.1454 47.303 27.2617 47.2781C27.3448 47.2199 27.4196 47.1617 27.4944 47.1035C27.9266 46.7877 28.1926 46.6464 28.2591 46.7046Z" fill="black"/>
<path d="M26.9216 43.4548C26.9216 43.5462 26.6307 43.6376 26.0988 43.7207C26.0074 43.729 25.916 43.7457 25.8162 43.7623C25.7165 43.7872 25.6084 43.8122 25.4921 43.8038C25.3757 43.6792 25.2593 44.0283 25.1264 43.8454C25.0017 43.7872 24.8687 43.8454 24.7274 43.8787C24.5861 43.9202 24.4448 43.8038 24.2952 43.9119C24.1456 44.1529 23.9877 43.6459 23.8298 43.9451C23.6718 44.0116 23.5056 43.995 23.3311 43.9784C23.1565 43.7955 22.982 43.9784 22.7991 44.0116C22.6163 43.7955 22.4334 43.887 22.2423 44.0366C22.0511 43.7374 21.8599 43.7872 21.6521 44.0615C21.4527 44.0698 21.2532 43.9535 21.0454 44.0864C20.8376 44.1031 20.6215 44.1612 20.4054 44.1114C20.1893 44.3108 19.9649 44.3025 19.7405 44.1363C19.5161 44.3524 19.2917 44.2693 19.059 44.1529C18.8262 44.0366 18.5935 44.3441 18.3525 44.1696C18.1114 44.1529 17.8704 44.2194 17.6294 44.1862C17.3883 44.0948 17.139 44.0033 16.8896 44.1945C16.6403 44.2444 16.391 44.3192 16.1333 44.2028C15.8756 44.4355 15.618 44.3275 15.3603 44.2028C15.1027 44.236 14.8367 44.0781 14.5707 44.2028C14.3048 44.1696 14.0388 44.3025 13.7728 44.2028C13.5069 44.1363 13.2409 44.0698 12.9749 44.2028C12.709 44.3524 12.4513 44.1446 12.1853 44.2028C11.9277 43.9867 11.67 44.2693 11.4124 44.2028C11.1547 44.2277 10.9054 44.0781 10.656 44.1945C10.4067 44.236 10.1573 44.2776 9.91628 44.1862C9.67525 44.5186 9.43421 44.1031 9.19318 44.1696C8.95214 44.0283 8.71942 44.1945 8.4867 44.1529C8.25398 44.2111 8.02957 44.0033 7.80516 44.1363C7.58074 44.1114 7.36464 44.2444 7.14854 44.1114C6.93245 44.2776 6.71635 43.9701 6.50856 44.0864C6.30077 44.0864 6.10129 44.0948 5.90182 44.0615C5.70234 43.8038 5.51118 44.0199 5.32001 44.0366C5.12885 44.0116 4.94599 44.1862 4.76314 44.0116C4.58029 43.995 4.40574 43.8787 4.2312 43.9784C4.05666 44.0199 3.89043 43.6044 3.73251 43.9451C3.57459 44.0116 3.41667 43.6792 3.26707 43.9119C3.11746 44.1197 2.97616 43.887 2.83487 43.8787C2.69357 43.862 2.56059 43.8537 2.43591 43.8454C1.29724 43.7374 0.640625 43.6044 0.640625 43.4631C0.640625 43.3052 1.44684 43.1639 2.83487 43.0475C2.97616 43.0392 3.11746 42.8563 3.26707 43.0143C3.41667 43.0143 3.57459 42.873 3.73251 42.981C3.89043 42.74 4.05666 42.9395 4.2312 42.9478C4.40574 42.9395 4.58029 43.0143 4.76314 42.9145C4.94599 42.7732 5.12885 42.981 5.32001 42.8896C5.51118 43.0392 5.70234 42.9976 5.90182 42.8646C6.10129 43.0059 6.30908 42.8314 6.50856 42.8397C6.71635 43.0641 6.93245 42.9062 7.14854 42.8148C7.36464 42.7317 7.58074 42.848 7.80516 42.7898C8.02957 42.8314 8.25398 42.7317 8.4867 42.7732C8.71942 42.6735 8.95214 42.6319 9.19318 42.7566C9.43421 42.6818 9.67525 42.74 9.91628 42.74C10.1573 42.6485 10.4067 42.7483 10.656 42.7317C10.9054 42.6901 11.1547 42.9644 11.4124 42.7234C11.67 42.6901 11.9277 42.7649 12.1853 42.7234C12.443 42.7566 12.709 42.7898 12.9749 42.7234C13.2409 42.9644 13.5069 42.8148 13.7728 42.7234C14.0388 42.6569 14.3048 42.6901 14.5707 42.7234C14.8367 42.6984 15.0944 42.715 15.3603 42.7234C15.618 42.6485 15.8756 42.8231 16.1333 42.7234C16.391 42.6236 16.6403 42.8314 16.8896 42.7317C17.139 42.6652 17.3883 42.6236 17.6294 42.74C17.8704 42.74 18.1114 42.9561 18.3525 42.7566C18.5935 42.7067 18.8262 42.4408 19.059 42.7732C19.2917 42.6901 19.5161 42.9311 19.7405 42.7898C19.9649 43.0309 20.1893 42.8065 20.4054 42.8148C20.6215 42.8646 20.8376 42.9478 21.0454 42.8397C21.2532 42.7234 21.461 42.9062 21.6521 42.8646C21.8516 42.7234 22.0511 43.0475 22.2423 42.8896C22.4334 42.9228 22.6163 42.8646 22.7991 42.9145C22.982 42.5821 23.1565 42.9145 23.3311 42.9478C23.5056 42.9976 23.6718 42.7317 23.8298 42.981C23.9877 42.7317 24.1456 42.9478 24.2952 43.0143C24.4448 43.0891 24.5861 42.9062 24.7274 43.0475C24.8604 42.873 25.0017 43.1472 25.1264 43.0807C25.251 43.1971 25.3757 43.0807 25.4921 43.1223C25.6084 43.0807 25.7165 43.0974 25.8162 43.1639C25.916 43.1805 26.0157 43.1888 26.0988 43.2054C26.6307 43.2885 26.9216 43.3717 26.9216 43.4714V43.4548Z" fill="black"/>
<path d="M28.2752 40.205C28.2087 40.2714 27.9428 40.1301 27.5106 39.806C27.4358 39.7561 27.361 39.6979 27.2779 39.6315C27.1864 39.5733 27.095 39.5151 27.0202 39.432C27.0202 39.2658 26.696 39.432 26.7376 39.1993C26.6877 39.0746 26.5548 39.0164 26.4301 38.9416C26.3054 38.8751 26.2888 38.6839 26.0976 38.659C25.8233 38.7172 26.0644 38.2601 25.7402 38.3515C25.5823 38.285 25.4743 38.152 25.3662 38.019C25.3662 37.7697 25.1252 37.7697 24.9756 37.6699C25.0005 37.3873 24.801 37.3209 24.56 37.2959C24.6348 36.9468 24.4686 36.8471 24.1278 36.9053C23.9782 36.7723 23.92 36.5479 23.679 36.4897C23.521 36.3567 23.3299 36.2487 23.2135 36.0575C22.9226 36.0492 22.773 35.883 22.7315 35.6087C22.4239 35.6087 22.3242 35.3843 22.2328 35.1432C22.158 34.8939 21.7673 34.9521 21.7258 34.6612C21.5678 34.4866 21.3517 34.3536 21.2021 34.1625C21.0941 33.9298 20.986 33.6804 20.6702 33.6472C20.4541 33.5059 20.2214 33.3812 20.1299 33.1152C19.7892 33.0986 19.6811 32.8409 19.5814 32.575C19.3736 32.4171 19.2988 32.1178 19.0245 32.0181C18.8583 31.802 18.5757 31.7106 18.4593 31.4529C18.318 31.2119 18.1767 30.9792 17.8941 30.8877C17.6032 30.8046 17.5617 30.4722 17.3373 30.3309C17.304 29.9984 16.9217 30.015 16.797 29.7823C16.6059 29.6161 16.5227 29.3335 16.2651 29.2421C16.0573 29.0925 15.8578 28.9512 15.7498 28.7101C15.3425 28.7683 15.4672 28.3112 15.2511 28.1865C15.1846 27.9205 14.902 27.8707 14.769 27.6795C14.5612 27.5548 14.5529 27.2473 14.3036 27.1808C14.1623 27.0063 13.9129 26.9398 13.8548 26.6987C13.5888 26.6572 13.647 26.2998 13.4226 26.2333C13.2729 26.0837 13.1233 25.9507 13.007 25.7845C13.0485 25.4603 12.7576 25.4769 12.608 25.3523C12.4917 25.2027 12.2423 25.186 12.234 24.9367C12.1176 24.7954 12.0761 24.5876 11.8849 24.5461C11.7353 24.4546 11.9099 24.0474 11.5525 24.172C11.3945 24.1055 11.5192 23.7648 11.2449 23.823C10.9873 23.8645 11.0538 23.5985 10.9623 23.4905C10.8709 23.3824 10.7878 23.2827 10.7047 23.183C9.98158 22.3019 9.60756 21.7451 9.7073 21.6453C9.81535 21.5373 10.4886 22.0027 11.5525 22.9004C11.6605 22.9918 11.8849 22.9669 11.8849 23.183C11.993 23.291 12.2008 23.2993 12.234 23.4905C12.5166 23.4323 12.5 23.69 12.608 23.823C12.7327 23.9393 12.8075 24.1139 12.9987 24.172C13.2231 24.2053 13.2065 24.4796 13.4142 24.5461C13.4475 24.7871 13.6137 24.8951 13.8464 24.945C13.888 25.186 14.154 25.211 14.2953 25.3606C14.2953 25.6598 14.5446 25.7014 14.7607 25.7928C14.9685 25.8925 15.0433 26.1252 15.2428 26.2416C15.3674 26.4328 15.6002 26.5242 15.7415 26.707C15.9742 26.7985 16.1737 26.9315 16.2485 27.1891C16.4646 27.3055 16.5976 27.5216 16.7721 27.6878C17.0048 27.7959 17.1129 28.0452 17.304 28.2031C17.5118 28.3444 17.4952 28.7267 17.8443 28.7351C18.0438 28.893 18.1767 29.1257 18.3928 29.2753C18.5591 29.4831 18.717 29.6909 18.9497 29.8322C18.9663 30.1896 19.2572 30.2727 19.5149 30.3974C19.7559 30.5387 19.9138 30.7464 20.0801 30.9625C20.2879 31.1371 20.4624 31.3283 20.637 31.5194C20.8697 31.6524 20.9279 31.9599 21.1772 32.068C21.4265 32.176 21.4598 32.5002 21.7091 32.6082C21.9335 32.7329 22.133 32.8825 22.2245 33.1402C22.399 33.3147 22.4156 33.6389 22.7231 33.6638C22.9226 33.7968 23.28 33.7718 23.2052 34.1708C23.4296 34.2705 23.413 34.6113 23.6707 34.6695C23.654 35.0019 23.9782 34.9936 24.1195 35.1515C24.2358 35.3344 24.3273 35.5422 24.5517 35.617C24.7844 35.6835 24.801 35.9495 24.9673 36.0658C25.2083 36.1074 25.1169 36.4731 25.3662 36.498C25.4743 36.6559 25.6488 36.7474 25.7402 36.9136C26.0976 36.8055 25.9896 37.1629 26.0893 37.3042C26.1807 37.4622 26.4799 37.3873 26.4218 37.6783C26.7127 37.6118 26.6711 37.8777 26.7293 38.0273C26.7792 38.1853 27.0119 38.1603 27.0119 38.3598C27.2363 38.3349 27.1366 38.6175 27.2695 38.6673C27.2695 38.8419 27.4441 38.8419 27.5023 38.9499C27.6103 38.9998 27.6768 39.0912 27.7017 39.2076C27.7599 39.2907 27.8181 39.3655 27.8763 39.4403C28.1921 39.8725 28.3334 40.1385 28.2752 40.205Z" fill="black"/>
<path d="M62.6853 4C62.7518 4.06649 62.4027 4.54025 61.7046 5.34647C61.5882 5.47945 61.4635 5.62075 61.3305 5.77867C61.2059 5.93658 61.0646 6.11113 60.8983 6.26904C60.649 6.34385 60.7238 6.75942 60.4163 6.80929C60.2002 6.95059 60.0423 7.175 59.876 7.39941C59.7098 7.62382 59.4189 7.74849 59.2859 8.0394C59.2444 8.42173 58.6709 8.28874 58.6542 8.72094C58.4714 8.99522 58.222 9.21963 57.9727 9.45236C57.5987 9.56872 57.4823 9.94274 57.2496 10.217C56.834 10.3168 56.6428 10.6492 56.4766 11.0232C55.9945 11.0814 55.7535 11.3889 55.6704 11.871C55.6372 11.9043 55.6039 11.9375 55.5707 11.9707C55.5457 11.9957 55.554 11.9874 55.5457 11.9957L55.5291 12.0123C55.5291 12.0123 55.4709 12.0455 55.4377 12.0705C55.4377 12.1037 55.4377 12.1453 55.4377 12.1868C55.4377 12.2035 55.4377 12.2035 55.446 12.2201C55.446 12.245 55.4543 12.2783 55.4626 12.3032C55.4792 12.3614 55.4959 12.4113 55.5208 12.4694C55.579 12.885 55.6704 13.3006 55.6538 13.7411C55.8865 14.1567 55.9198 14.5972 55.7868 15.0543C56.0361 15.4865 55.9946 15.9437 55.9197 16.4174C55.8366 16.8912 56.1857 17.3317 56.0527 17.8221C56.0694 18.0631 56.1026 18.2958 56.1275 18.5368C56.1442 18.7031 56.1442 18.6615 56.1525 18.6948C56.1525 18.7114 56.1525 18.7363 56.1525 18.7613L56.1358 18.8028C56.1358 18.8444 56.194 18.8859 56.2688 18.8942H56.2855H56.3187H56.4018C56.46 18.8942 56.5182 18.8942 56.5764 18.8942C56.6927 18.8942 56.8091 18.8693 56.9254 18.8277C57.4324 18.8194 57.9394 18.7862 58.4381 18.9441C58.9701 18.7613 59.4771 18.9026 59.9841 19.0688C60.5077 19.0688 61.0147 19.2849 61.555 19.1935C61.8126 19.235 62.0869 19.2267 62.3529 19.235C62.4858 19.235 62.6188 19.235 62.7518 19.2599C62.7684 19.2599 62.7768 19.2766 62.81 19.3015C62.81 19.3015 62.8516 19.3015 62.8848 19.3015C62.9929 19.2184 63.0926 19.127 63.1923 19.0355C63.3835 18.8527 63.5663 18.6532 63.7076 18.4205C63.9819 17.9384 64.4972 17.714 64.8297 17.3067C65.345 17.0906 65.5112 16.5255 65.9351 16.2179C66.2842 15.8439 66.7413 15.5863 67.0156 15.1541C67.3398 14.7717 67.6639 14.3894 68.0712 14.1151C68.1876 13.5333 68.8192 13.4918 69.1101 13.1011L69.1517 13.0762C69.1517 13.0762 69.16 13.0762 69.1683 13.0762C69.1766 13.0762 69.1849 13.0762 69.1932 13.0762C69.2099 13.0762 69.2265 13.0596 69.2431 13.0512C69.268 13.0346 69.2847 13.0014 69.3013 12.9848C69.3262 12.9349 69.3013 12.9099 69.3678 12.8767C69.3512 12.8601 69.401 12.8351 69.4675 12.7936C69.4675 12.777 69.4841 12.752 69.4509 12.7437C69.426 12.7354 69.3595 12.7437 69.2764 12.7687C69.2348 12.752 69.1517 12.7687 69.1018 12.7853C69.0769 12.7853 69.0519 12.7853 69.0353 12.7853C68.9273 12.7687 68.8192 12.7437 68.7112 12.7022C68.2624 12.8268 67.8717 12.4944 67.4395 12.5692C67.0239 12.5359 66.6167 12.511 66.2177 12.4445C65.8437 12.1536 65.4364 12.3365 65.0541 12.3198C64.8629 12.2866 64.6718 12.3115 64.4889 12.3198C64.3975 12.3198 64.3061 12.3198 64.2146 12.3032C64.1149 12.2866 64.0567 12.2616 63.8905 12.2035C63.5414 12.1619 63.2339 12.0871 62.9264 12.0539C62.918 11.8295 62.8931 11.63 62.8349 11.4305C62.8183 11.2975 62.8183 11.1562 62.8349 11.0232C62.8349 10.99 62.8432 10.9484 62.8516 10.9318L62.8682 10.8653C62.8765 10.8238 62.8931 10.7822 62.9014 10.7323C62.943 10.5661 62.943 10.3999 62.7601 10.2503C62.6687 9.93442 62.9679 9.59365 62.7186 9.31937C62.4858 9.03678 62.6936 8.72925 62.677 8.45497C62.6687 8.18069 62.6521 7.91473 62.6438 7.65707C62.5607 5.3714 62.5773 4.05818 62.7186 4.04156C62.8765 4.02493 63.1508 5.62906 63.5082 8.38017C63.5414 8.65445 63.7492 8.92873 63.6162 9.24457C63.6412 9.54378 63.8074 9.843 63.7243 10.1755C63.8572 10.3251 63.8822 10.4913 63.8739 10.6575C63.8739 10.6991 63.8739 10.7406 63.8656 10.7822V10.8487C63.8656 10.8487 63.8489 10.8653 63.8489 10.8736C63.8323 10.9069 63.824 10.9401 63.824 10.9817C63.8323 11.0315 63.824 11.0897 63.824 11.1562C63.8988 11.1728 63.9985 11.1895 64.09 11.1396C64.0983 11.1063 64.223 11.1063 64.3061 11.1063C64.3975 11.1063 64.4889 11.1313 64.5803 11.1479C64.7632 11.1895 64.9461 11.231 65.1455 11.1978C65.5112 11.3723 65.9102 11.3723 66.3175 11.2726C66.6998 11.4471 67.1237 11.3141 67.5393 11.3474C67.9382 11.605 68.3704 11.4887 68.8109 11.4305C68.919 11.4222 69.027 11.4222 69.1351 11.4305C69.3262 11.4471 69.5257 11.4637 69.7169 11.4887C70.1075 11.5302 70.4732 11.5801 70.9054 11.5884C71.3792 11.6549 71.9277 11.6715 72.4929 11.7048C72.3018 11.9043 72.094 12.1204 71.8529 12.3448C71.6535 12.619 71.3875 12.9349 71.0717 13.259C70.9137 13.417 70.7475 13.5832 70.5813 13.7328C70.4982 13.8076 70.4067 13.8824 70.3236 13.9572L70.1906 14.0652L70.1241 14.1151L70.0826 14.1401C69.7917 14.5224 69.4177 14.8299 69.0686 15.1707C68.786 15.5779 68.3621 15.8605 68.0296 16.2262C67.7055 16.6086 67.1486 16.7748 66.9658 17.3067C66.625 17.6891 66.2094 18.0049 65.877 18.4039C65.4863 18.7529 65.0874 19.102 64.7632 19.5176C64.4889 19.6173 64.2894 19.7919 64.1066 19.9914C64.0152 20.0911 63.9404 20.1991 63.8573 20.3155C63.6993 20.5067 63.5331 20.7062 63.3752 20.9056C63.1341 20.9056 62.8682 20.889 62.6188 20.8724C62.4858 20.8724 62.3529 20.8558 62.2199 20.8391C61.9539 20.8142 61.6879 20.7726 61.4303 20.7311C60.8984 20.7145 60.3747 20.6563 59.8594 20.5981C59.3358 20.623 58.8371 20.4069 58.3135 20.4651C57.7982 20.5233 57.3078 20.274 56.8008 20.3238C56.6844 20.3238 56.568 20.3321 56.4517 20.3321H56.194L56.061 20.3238C55.6205 20.2906 55.18 20.2407 54.7977 20.1659V19.9249C54.7811 19.7005 54.7811 19.4677 54.7728 19.2433C54.7728 19.0272 54.7728 18.7613 54.7728 18.6781C54.7728 18.4371 54.7728 18.1961 54.6398 17.9634C54.5483 17.4896 54.2408 17.0491 54.54 16.5587C54.4154 16.1016 54.6232 15.6278 54.4403 15.1956C54.6481 14.7302 54.3738 14.3063 54.3489 13.8741C54.3572 13.4419 54.4071 13.0097 54.2658 12.6024C54.2491 12.5526 54.2325 12.4944 54.2159 12.4362C54.2159 12.4113 54.2076 12.378 54.1993 12.3531L54.1826 12.2118C54.166 12.0123 54.166 11.8211 54.166 11.6383C54.299 11.5219 54.4237 11.4139 54.54 11.3058L54.6315 11.2227L54.7063 11.1479C54.7063 11.1479 54.7728 11.0814 54.7977 11.0482C54.9805 10.6658 55.4875 10.616 55.6455 10.242C55.9364 9.9926 56.1608 9.69339 56.46 9.46898C56.4849 8.9786 56.967 8.96198 57.233 8.73757C57.5072 8.52978 57.5571 8.10589 57.9561 8.05602C58.0059 7.64876 58.38 7.58226 58.6376 7.41603C58.9036 7.25812 58.9784 6.92565 59.2776 6.82592C59.3524 6.50177 59.7264 6.51008 59.8677 6.28567C60.1337 6.18593 60.2251 5.93658 60.408 5.8036C60.541 5.61243 60.7072 5.47114 60.8983 5.3714C61.0563 5.23842 61.1976 5.11374 61.3305 4.99738C62.1451 4.30753 62.6105 3.95844 62.677 4.01662L62.6853 4Z" fill="black"/>
</g>
</g>
<defs>
<clipPath id="clip0_3266_38448">
<rect width="80" height="80" fill="white"/>
</clipPath>
<clipPath id="clip1_3266_38448">
<rect width="72.4931" height="71.0718" fill="white" transform="translate(0 4)"/>
</clipPath>
</defs>
</svg>
