<svg width="100" height="80" viewBox="0 0 100 80" fill="none" xmlns="http://www.w3.org/2000/svg">
<g clip-path="url(#clip0_3267_38465)">
<ellipse cx="59.7538" cy="40" rx="39.9998" ry="40" fill="#E6FAFF"/>
<g clip-path="url(#clip1_3267_38465)">
<path d="M14.2429 23.6642C14.1935 23.6642 14.1441 23.5852 14.1046 23.4272C14.0849 23.3482 14.0651 23.2494 14.0454 23.1408C14.0454 23.0815 14.0256 23.0223 14.0157 22.9531C14.0157 22.884 14.0157 22.8148 14.0157 22.7358C14.0157 22.6371 14.0157 22.5284 14.0157 22.4099C14.0157 22.3507 14.0059 22.2914 14.0059 22.2223C14.0059 22.163 14.0256 22.0939 14.0454 22.0346C14.2133 21.9358 13.8577 21.7087 14.0947 21.6099C14.1836 21.4815 14.1935 21.3235 14.1935 21.1556C14.1935 21.0667 14.2429 20.9976 14.2824 20.9186C14.3219 20.8494 14.3614 20.7704 14.3417 20.6618C14.2528 20.5235 14.3614 20.4741 14.4602 20.4148C14.5589 20.3556 14.6478 20.3062 14.5589 20.1482C14.5787 20.0494 14.6182 19.9507 14.6676 19.8716C14.717 19.7827 14.7762 19.7037 14.8454 19.6247C14.9935 19.5951 15.0528 19.5161 15.0923 19.4173C15.112 19.3679 15.1219 19.3087 15.1417 19.2494C15.1614 19.2 15.1812 19.1408 15.2108 19.0914C15.5466 19.0914 15.6059 18.8642 15.675 18.5877C15.8725 18.6371 16.0009 18.6173 16.0898 18.5383C16.1787 18.4593 16.2182 18.321 16.2281 18.1235C16.2775 18.084 16.3268 18.0544 16.3861 18.0247C16.4454 18.005 16.5046 17.9753 16.5639 17.9556C16.6824 17.9062 16.7812 17.8371 16.8602 17.7087C16.9688 17.6395 17.0775 17.5704 17.196 17.5111C17.2552 17.4815 17.3145 17.4519 17.3737 17.4223C17.433 17.4025 17.5021 17.3827 17.5713 17.3827C17.6602 17.2346 17.7787 17.1358 17.9071 17.0963C18.0453 17.0667 18.1935 17.0766 18.3515 17.1457C18.4602 16.9877 18.5984 16.9383 18.7466 16.9284C18.8947 16.9284 19.0429 16.9482 19.191 17.0074C19.3392 17.0667 19.4774 17.0074 19.6256 16.9581C19.7737 16.9186 19.9219 16.8889 20.07 16.9877C20.2182 16.9976 20.3663 17.0074 20.5145 17.0173C20.6626 17.0173 20.8206 17.0371 20.9589 17.0963C21.0972 17.1852 21.2355 17.2642 21.3737 17.3235C21.512 17.3827 21.67 17.4025 21.8577 17.3531C22.1639 17.4223 22.5095 17.4716 22.7268 17.7581C22.8256 17.7383 22.9243 17.7581 23.0034 17.7679C23.0824 17.7877 23.1614 17.8371 23.2206 17.8865C23.349 17.9951 23.4577 18.1334 23.5367 18.3013C23.675 18.3902 23.7737 18.5284 23.8824 18.6568C23.9811 18.7951 24.0799 18.9235 24.2577 18.9926C24.2774 19.0223 24.3071 19.0618 24.3367 19.0914C24.3663 19.1309 24.3861 19.1605 24.4157 19.1902C24.475 19.2494 24.5342 19.3186 24.5935 19.3778C24.6527 19.4371 24.712 19.5062 24.7614 19.5753C24.8009 19.6544 24.8404 19.7334 24.8601 19.8124C24.9095 19.9803 24.9688 20.1383 25.028 20.2963C25.0873 20.4544 25.1762 20.5926 25.3145 20.7111C25.4527 20.8297 25.4922 20.9976 25.512 21.1655C25.5219 21.2445 25.5317 21.3334 25.5515 21.4124C25.5614 21.4914 25.5811 21.5704 25.6108 21.6494C25.5317 21.8371 25.5811 21.9753 25.6601 22.1235C25.6898 22.1926 25.7293 22.2716 25.749 22.3408C25.7589 22.3803 25.7688 22.4099 25.7787 22.4593C25.7787 22.5186 25.7787 22.5877 25.7787 22.6568C25.8182 22.9136 25.8083 23.1605 25.7984 23.3976C25.7885 23.6346 25.7885 23.8618 25.8675 24.1581L25.8972 24.3556V24.4544L25.9169 24.484C25.9169 24.484 25.907 24.484 25.8972 24.484H25.8577C25.7391 24.5037 25.6206 24.5037 25.5021 24.5136C25.2552 24.5136 24.9885 24.5136 24.7317 24.4642C24.5638 24.6519 24.2675 24.6321 24.0206 24.5729C23.8725 24.5136 23.754 24.4148 23.6157 24.4544C23.3589 24.2963 23.1021 24.4741 22.8453 24.4346C22.5885 24.5037 22.3416 24.2667 22.0947 24.4148C21.8478 24.3852 21.6108 24.5334 21.3737 24.3951C21.1367 24.5827 20.9095 24.2371 20.6725 24.3655C20.4453 24.3655 20.2182 24.3753 20.0009 24.3358C19.7836 24.0494 19.5663 24.2865 19.3589 24.3062C19.1515 24.2766 18.9441 24.4741 18.7466 24.2766C18.5491 24.2568 18.3515 24.1284 18.1639 24.2469C17.9762 24.2865 17.7984 23.8223 17.6207 24.2074C17.4429 24.2766 17.275 23.9111 17.1071 24.1679C16.9392 24.405 16.7812 24.1383 16.633 24.1284C16.4849 24.1186 16.3367 24.0988 16.1984 24.0889C14.954 23.9605 14.233 23.8124 14.233 23.6544C14.233 23.4766 15.112 23.3186 16.633 23.1803C16.7812 23.1704 16.9392 22.963 17.1071 23.1408C17.275 23.1408 17.4429 22.9827 17.6207 23.1013C17.7984 22.8346 17.9762 23.0519 18.1639 23.0618C18.3515 23.0519 18.5392 23.1309 18.7466 23.0223C18.9441 22.8642 19.1515 23.1013 19.3589 22.9926C19.5663 23.1605 19.7836 23.1111 20.0009 22.963C20.2182 23.121 20.4453 22.9334 20.6725 22.9334C20.8997 23.1803 21.1367 23.0124 21.3737 22.9037C21.6108 22.8148 21.8478 22.9432 22.0947 22.884C22.3416 22.9334 22.5885 22.8247 22.8453 22.8642C23.1021 22.7457 23.3589 22.7062 23.6157 22.8445C23.7441 22.805 23.8824 22.805 24.0009 22.805C24.0206 22.805 24.0404 22.8247 24.0601 22.8247C24.0601 22.7753 24.0601 22.7753 24.0898 22.7852C24.0996 22.7852 24.1194 22.805 24.1392 22.805C24.1589 22.805 24.1392 22.805 24.1392 22.7852C24.1095 22.7457 24.1787 22.7852 24.2182 22.7556C24.2577 22.7457 24.2577 22.6865 24.1194 22.6667C24.1194 22.6667 24.1194 22.6667 24.1095 22.6667C24.1095 22.6568 24.1095 22.6074 24.0996 22.5877C24.0996 22.5284 24.0996 22.4593 24.0799 22.4C24.0601 22.2815 24.0404 22.1531 23.9811 22.0445C23.9811 21.9852 23.9811 21.9161 23.9614 21.8568C23.9515 21.7976 23.9317 21.7383 23.912 21.679C23.8725 21.5605 23.833 21.442 23.7441 21.3432C23.8132 21.1753 23.7836 21.0469 23.7145 20.9482C23.6453 20.8395 23.5071 20.7704 23.4083 20.6914C23.3589 20.6519 23.3194 20.6025 23.2799 20.5531C23.2404 20.5037 23.2009 20.4642 23.1713 20.4148C23.1416 20.3655 23.1021 20.3161 23.0725 20.2568L23.033 20.1778L22.9836 20.0988C22.8947 20.0198 22.8058 19.9309 22.7268 19.842C22.6379 19.763 22.5589 19.684 22.47 19.5951C22.3614 19.5457 22.2725 19.4667 22.1935 19.3679C22.154 19.3284 22.1145 19.279 22.0651 19.2395C22.0157 19.2099 21.9564 19.1902 21.8972 19.1803C21.7688 19.1803 21.6898 19.0815 21.591 19.0124C21.5021 18.9432 21.4034 18.8544 21.275 18.8642C21.1564 18.8642 21.0379 18.8642 20.9293 18.8247C20.8206 18.7951 20.7219 18.7556 20.6231 18.6568C20.5145 18.6272 20.4157 18.5482 20.3071 18.5087C20.1984 18.4593 20.0799 18.4395 19.9614 18.5482C19.8527 18.5679 19.7342 18.6568 19.6355 18.6865C19.5268 18.726 19.4281 18.7161 19.3095 18.5284C19.2009 18.5778 19.0923 18.5482 18.9836 18.5284C18.875 18.5087 18.7565 18.4889 18.6676 18.5976C18.5392 18.4889 18.4305 18.5087 18.3318 18.5581C18.2429 18.6173 18.1639 18.7161 18.0651 18.7457H17.9071C17.8577 18.7655 17.8083 18.7655 17.7589 18.7852C17.6602 18.8148 17.5713 18.8642 17.512 18.9531C17.4528 19.0618 17.3639 19.0914 17.2651 19.1111C17.2157 19.121 17.1663 19.1309 17.117 19.1507C17.0676 19.1704 17.0281 19.1902 16.9984 19.2297C16.9688 19.3482 16.8602 19.3581 16.7515 19.3778C16.6528 19.3976 16.554 19.4272 16.5441 19.5556C16.3762 19.6445 16.3071 19.8223 16.1491 19.9111C16.1886 20 16.1984 20.0692 16.1787 20.1087C16.1688 20.1482 16.1293 20.1778 16.0898 20.1976C16.0009 20.2371 15.8725 20.2371 15.8034 20.2963C15.7244 20.3457 15.7342 20.4544 15.7244 20.5334C15.7145 20.6223 15.675 20.6914 15.517 20.6815C15.675 20.9482 15.4182 20.9679 15.2799 21.0766C15.2108 21.126 15.2108 21.205 15.2009 21.2741C15.2009 21.3531 15.1812 21.4223 15.0923 21.4618C15.2404 21.6593 14.8947 21.679 14.9343 21.8371C14.7762 21.926 14.8651 22.084 14.8059 22.1827C14.8059 22.242 14.8059 22.3013 14.7861 22.3507C14.7664 22.4 14.7466 22.4593 14.6972 22.4988C14.6676 22.5976 14.638 22.6963 14.6083 22.7852C14.5886 22.8544 14.5688 22.9136 14.5491 22.9827C14.5293 23.042 14.5194 23.1013 14.5096 23.1507C14.4799 23.2593 14.4503 23.3482 14.4207 23.4173C14.3614 23.5655 14.312 23.6445 14.2626 23.6445L14.2429 23.6642Z" fill="black"/>
<path d="M37.906 49.5507C37.906 49.6593 37.8269 49.7581 37.6887 49.847C37.6689 49.8667 37.6393 49.8766 37.6097 49.8963C37.58 49.926 37.5504 49.9556 37.5208 49.9358C37.4912 49.7976 37.4615 50.1926 37.422 49.9753C37.3924 49.9161 37.3529 49.9753 37.3134 50.0149C37.2739 50.0642 37.2344 49.926 37.2047 50.0544C37.1652 50.321 37.1257 49.7581 37.0862 50.0939C37.0467 50.163 36.9973 50.1432 36.9578 50.1334C36.9084 49.926 36.8689 50.1334 36.8195 50.1729C36.7702 49.926 36.7208 50.0346 36.6714 50.2025C36.622 49.8667 36.5726 49.9161 36.5134 50.2321C36.464 50.242 36.4047 50.1136 36.3554 50.2618C36.2961 50.2815 36.2467 50.3507 36.1874 50.2914C36.1282 50.5186 36.0689 50.5087 36.0097 50.3111C35.9504 50.5581 35.8912 50.4593 35.8319 50.3309C35.7726 50.1926 35.7134 50.5482 35.6442 50.3507C35.585 50.3309 35.5158 50.4099 35.4566 50.3704C35.3875 50.2716 35.3282 50.163 35.2591 50.3803C35.1899 50.4395 35.1307 50.5186 35.0615 50.3803C34.9924 50.6371 34.9233 50.5284 34.8541 50.3803C34.785 50.4198 34.7159 50.242 34.6467 50.3803C34.5776 50.3408 34.5084 50.4889 34.4393 50.3803C34.3702 50.3013 34.301 50.2223 34.2319 50.3803C34.1628 50.5482 34.0936 50.3111 34.0245 50.3803C33.9554 50.1334 33.8862 50.4593 33.8171 50.3803C33.748 50.4 33.6788 50.242 33.6196 50.3803C33.5504 50.4198 33.4912 50.4692 33.422 50.3704C33.3529 50.7457 33.2936 50.2716 33.2344 50.3507C33.1751 50.1926 33.106 50.3704 33.0467 50.3309C32.9875 50.4 32.9282 50.163 32.8689 50.3111C32.8097 50.2815 32.7504 50.4297 32.6912 50.2914C32.6319 50.479 32.5825 50.1334 32.5233 50.2618C32.464 50.2618 32.4146 50.2716 32.3652 50.2321C32.3159 49.9457 32.2566 50.1828 32.2072 50.2025C32.1578 50.1729 32.1085 50.3704 32.0591 50.1729C32.0097 50.1531 31.9603 50.0247 31.9208 50.1334C31.8714 50.1729 31.8319 49.7087 31.7924 50.0939C31.7529 50.163 31.7134 49.7976 31.6739 50.0544C31.6344 50.2914 31.5949 50.0247 31.5554 50.0149C31.5159 49.9951 31.4862 49.9852 31.4467 49.9753C31.1504 49.8469 30.9727 49.6988 30.9727 49.5408C30.9727 49.363 31.1801 49.205 31.5455 49.0667C31.585 49.0568 31.6245 48.8494 31.664 49.0272C31.7035 49.0272 31.743 48.8692 31.7825 48.9877C31.822 48.721 31.8714 48.9383 31.9109 48.9482C31.9603 48.9383 31.9998 49.0272 32.0492 48.9186C32.0986 48.7605 32.148 48.9976 32.1973 48.8889C32.2467 49.0568 32.2961 49.0074 32.3554 48.8593C32.4047 49.0173 32.464 48.8198 32.5134 48.8297C32.5726 49.0766 32.622 48.9087 32.6813 48.8C32.7406 48.7111 32.7998 48.8395 32.8591 48.7803C32.9183 48.8297 32.9776 48.721 33.0368 48.7605C33.0961 48.642 33.1554 48.6025 33.2245 48.7408C33.2838 48.6618 33.3529 48.721 33.4122 48.721C33.4714 48.6223 33.5405 48.7309 33.6097 48.7111C33.6788 48.6618 33.7381 48.9778 33.8072 48.7013C33.8763 48.6618 33.9455 48.7408 34.0146 48.7013C34.0838 48.7408 34.1529 48.7704 34.222 48.7013C34.2912 48.9679 34.3603 48.8099 34.4294 48.7013C34.4986 48.6223 34.5677 48.6618 34.6368 48.7013C34.706 48.6716 34.7751 48.6914 34.8442 48.7013C34.9134 48.6223 34.9825 48.8198 35.0517 48.7013C35.1208 48.5828 35.1899 48.8297 35.2492 48.7111C35.3183 48.6321 35.3776 48.5926 35.4467 48.721C35.506 48.721 35.5751 48.9679 35.6344 48.7408C35.6936 48.6914 35.7628 48.3852 35.822 48.7605C35.8813 48.6716 35.9405 48.9482 35.9998 48.7803C36.0591 49.0568 36.1183 48.7902 36.1776 48.8C36.2368 48.8494 36.2862 48.9482 36.3455 48.8297C36.4047 48.7013 36.4541 48.8988 36.5035 48.8593C36.5529 48.7013 36.6121 49.0667 36.6615 48.8889C36.7109 48.9284 36.7603 48.8692 36.8097 48.9186C36.8591 48.5432 36.9084 48.9186 36.9479 48.9482C36.9973 49.0074 37.0368 48.7013 37.0763 48.9877C37.1158 48.7013 37.1553 48.9482 37.1949 49.0272C37.2344 49.1062 37.2739 48.9087 37.3035 49.0667C37.343 48.8692 37.3726 49.1753 37.4121 49.1062C37.4418 49.2346 37.4813 49.1062 37.5109 49.1457C37.5405 49.0963 37.5702 49.1161 37.5998 49.1852C37.6294 49.1951 37.6492 49.2148 37.6788 49.2346C37.8171 49.3235 37.8961 49.4223 37.8961 49.5309L37.906 49.5507Z" fill="black"/>
<path d="M53.9939 39.9408C53.9939 40.0494 53.747 40.1482 53.2927 40.2371C53.2136 40.247 53.1346 40.2667 53.0457 40.2865C52.9569 40.3161 52.868 40.3457 52.7692 40.326C52.6704 40.1877 52.5717 40.5828 52.463 40.3655C52.3544 40.3062 52.2457 40.3655 52.1272 40.405C52.0087 40.4544 51.8902 40.3161 51.7618 40.4445C51.6334 40.7112 51.505 40.1482 51.3667 40.484C51.2285 40.5531 51.0902 40.5334 50.942 40.5235C50.7939 40.3161 50.6457 40.5235 50.4877 40.5531C50.3297 40.3062 50.1717 40.4149 50.0137 40.5828C49.8556 40.247 49.6877 40.2963 49.51 40.6124C49.3421 40.6223 49.1643 40.4939 48.9865 40.642C48.8087 40.6618 48.6309 40.7309 48.4433 40.6717C48.2556 40.8988 48.068 40.8889 47.8803 40.6914C47.6927 40.9383 47.4951 40.8396 47.2976 40.7112C47.1001 40.5729 46.9026 40.9284 46.6951 40.7309C46.4877 40.7112 46.2902 40.7902 46.0828 40.7507C45.8754 40.6519 45.668 40.5433 45.4507 40.7605C45.2334 40.8198 45.0161 40.8988 44.7989 40.7605C44.5816 41.0173 44.3643 40.9087 44.1371 40.7605C43.9198 40.8 43.6927 40.6223 43.4655 40.7605C43.2384 40.721 43.0112 40.8791 42.7841 40.7605C42.5569 40.6815 42.3297 40.6025 42.1026 40.7605C41.8754 40.9284 41.6483 40.6914 41.431 40.7605C41.2038 40.5136 40.9865 40.8396 40.7692 40.7605C40.552 40.7803 40.3347 40.6223 40.1174 40.7605C39.9001 40.8099 39.6927 40.8494 39.4853 40.7507C39.2779 41.126 39.0705 40.6519 38.873 40.7309C38.6656 40.5729 38.468 40.7507 38.2705 40.7112C38.073 40.7803 37.8754 40.5433 37.6878 40.6914C37.5001 40.6618 37.3125 40.8099 37.1248 40.6717C36.9372 40.8593 36.7594 40.5136 36.5816 40.642C36.4038 40.642 36.2261 40.6519 36.0582 40.6124C35.8903 40.3161 35.7224 40.563 35.5545 40.5828C35.3964 40.5531 35.2285 40.7507 35.0804 40.5531C34.9224 40.5334 34.7742 40.405 34.6261 40.5235C34.4779 40.563 34.3396 40.0988 34.2014 40.484C34.0631 40.5531 33.9347 40.1877 33.8063 40.4445C33.6779 40.6815 33.5594 40.4149 33.4409 40.405C33.3224 40.3951 33.2137 40.3754 33.1051 40.3655C32.1273 40.2371 31.5742 40.0889 31.5742 39.9309C31.5742 39.7531 32.2656 39.5951 33.4409 39.4568C33.5594 39.447 33.6779 39.2396 33.8063 39.4173C33.9347 39.4173 34.0631 39.2593 34.2014 39.3778C34.3396 39.1112 34.4779 39.3284 34.6261 39.3383C34.7742 39.3284 34.9224 39.4075 35.0804 39.3087C35.2384 39.1507 35.3964 39.3877 35.5545 39.2791C35.7224 39.447 35.8804 39.3976 36.0582 39.2494C36.2261 39.4075 36.4038 39.2198 36.5816 39.2198C36.7594 39.4667 36.9372 39.2889 37.1248 39.1902C37.3125 39.1013 37.5001 39.2297 37.6878 39.1704C37.8754 39.2198 38.073 39.1112 38.2705 39.1507C38.468 39.0321 38.6656 38.9926 38.873 39.1309C39.0804 39.0519 39.2779 39.1112 39.4853 39.1112C39.6927 39.0124 39.9001 39.121 40.1174 39.1013C40.3347 39.0519 40.5421 39.3679 40.7692 39.0914C40.9865 39.0519 41.2038 39.1309 41.431 39.0914C41.6483 39.121 41.8754 39.1605 42.1026 39.0914C42.3297 39.3581 42.5569 39.1902 42.7841 39.0914C43.0112 39.0124 43.2384 39.0519 43.4655 39.0914C43.6927 39.0618 43.9198 39.0815 44.1371 39.0914C44.3643 39.0124 44.5816 39.2099 44.7989 39.0914C45.0161 38.9729 45.2334 39.2198 45.4507 39.1013C45.668 39.0223 45.8754 38.9828 46.0828 39.1112C46.2902 39.1112 46.4976 39.3581 46.6951 39.1309C46.8927 39.0815 47.1001 38.7754 47.2976 39.1507C47.4951 39.0519 47.6927 39.3284 47.8803 39.1704C48.068 39.447 48.2556 39.1803 48.4433 39.1902C48.6309 39.2396 48.8087 39.3383 48.9865 39.2198C49.1643 39.0914 49.3421 39.2889 49.51 39.2494C49.6779 39.0914 49.8458 39.4568 50.0137 39.2791C50.1816 39.3186 50.3396 39.2593 50.4877 39.3087C50.6457 38.9334 50.7939 39.3087 50.942 39.3383C51.0902 39.3976 51.2285 39.0914 51.3667 39.3778C51.505 39.0914 51.6334 39.3383 51.7618 39.4173C51.8902 39.4963 52.0087 39.2988 52.1272 39.4568C52.2457 39.2593 52.3544 39.5655 52.463 39.4963C52.5717 39.6247 52.6704 39.4963 52.7692 39.5359C52.868 39.4865 52.9569 39.5062 53.0457 39.5754C53.1346 39.5951 53.2136 39.605 53.2927 39.6247C53.747 39.7136 53.9939 39.8124 53.9939 39.921V39.9408Z" fill="black"/>
<path d="M44.7891 30.3309C44.7891 30.4395 44.6409 30.5383 44.3743 30.6272C44.3348 30.6469 44.2854 30.6568 44.2261 30.6766C44.1767 30.7062 44.1175 30.7358 44.0582 30.7259C43.999 30.5877 43.9397 30.9827 43.8805 30.7655C43.8212 30.7062 43.7521 30.7655 43.6829 30.805C43.6138 30.8543 43.5447 30.7161 43.4656 30.8445C43.3866 31.1111 43.3076 30.5482 43.2286 30.884C43.1496 30.9531 43.0607 30.9334 42.9817 30.9235C42.8928 30.7161 42.8039 30.9235 42.715 30.963C42.6261 30.7161 42.5274 30.8247 42.4385 30.9926C42.3397 30.6568 42.241 30.7062 42.1422 31.0222C42.0434 31.0321 41.9348 30.9037 41.836 31.0519C41.7274 31.0716 41.6286 31.1408 41.52 31.0815C41.4113 31.3087 41.3027 31.2988 41.1842 31.1013C41.0755 31.3482 40.957 31.2494 40.8385 31.121C40.72 30.9827 40.6015 31.3383 40.4829 31.1408C40.3644 31.121 40.2459 31.2 40.1175 31.1605C39.999 31.0618 39.8706 30.9531 39.7422 31.1704C39.6138 31.2297 39.4854 31.3087 39.357 31.1704C39.2286 31.4272 39.1002 31.3185 38.9718 31.1704C38.8434 31.2099 38.7052 31.0321 38.5768 31.1704C38.4484 31.1309 38.3101 31.2889 38.1718 31.1704C38.0336 31.0914 37.9052 31.0124 37.7669 31.1704C37.6385 31.3383 37.5002 31.1013 37.3718 31.1704C37.2434 30.9334 37.1151 31.2494 36.9867 31.1704C36.8583 31.1901 36.7299 31.0321 36.6015 31.1704C36.4731 31.2099 36.3546 31.2593 36.2262 31.1605C36.1076 31.5358 35.9793 31.0618 35.8607 31.1408C35.7422 30.9827 35.6237 31.1605 35.5052 31.121C35.3867 31.1901 35.278 30.9531 35.1595 31.1013C35.0509 31.0716 34.9323 31.2198 34.8237 31.0815C34.7151 31.2692 34.6064 30.9235 34.5077 31.0519C34.399 31.0519 34.3002 31.0618 34.2015 31.0222C34.1027 30.7259 34.004 30.9729 33.9052 30.9926C33.8064 30.963 33.7175 31.1605 33.6286 30.963C33.5398 30.9432 33.4509 30.8148 33.362 30.9235C33.2731 30.963 33.1941 30.4988 33.1151 30.884C33.0361 30.9531 32.957 30.5877 32.878 30.8445C32.799 31.0815 32.7299 30.8148 32.6607 30.805C32.5916 30.7951 32.5225 30.7753 32.4632 30.7655C31.8904 30.6371 31.5645 30.4889 31.5645 30.3408C31.5645 30.163 31.9694 30.005 32.6706 29.8667C32.7398 29.8568 32.8089 29.6494 32.8879 29.8272C32.9669 29.8272 33.0459 29.6692 33.1249 29.7877C33.204 29.521 33.2928 29.7383 33.3719 29.7482C33.4607 29.7383 33.5496 29.8173 33.6385 29.7185C33.7274 29.5605 33.8262 29.7976 33.9151 29.6889C34.0138 29.8568 34.1126 29.8074 34.2114 29.6593C34.3101 29.8173 34.4188 29.6297 34.5175 29.6297C34.6262 29.8766 34.7249 29.7087 34.8336 29.6C34.9422 29.5111 35.0509 29.6395 35.1694 29.5803C35.278 29.6297 35.3965 29.521 35.5151 29.5605C35.6336 29.442 35.7521 29.4025 35.8706 29.5408C35.9891 29.4618 36.1076 29.521 36.236 29.521C36.3546 29.4222 36.483 29.5309 36.6113 29.5111C36.7397 29.4618 36.8681 29.7778 36.9965 29.5013C37.1249 29.4618 37.2533 29.5408 37.3817 29.5013C37.5101 29.5408 37.6484 29.5704 37.7768 29.5013C37.915 29.7679 38.0434 29.6 38.1817 29.5013C38.32 29.4222 38.4484 29.4618 38.5866 29.5013C38.7249 29.4716 38.8533 29.4914 38.9817 29.5013C39.1101 29.4222 39.2385 29.6198 39.3669 29.5013C39.4953 29.3827 39.6237 29.6198 39.7521 29.5111C39.8805 29.4321 39.999 29.3926 40.1274 29.521C40.2459 29.521 40.3743 29.7679 40.4928 29.5408C40.6113 29.4914 40.7299 29.1852 40.8484 29.5605C40.9669 29.4618 41.0755 29.7383 41.194 29.5803C41.3027 29.8568 41.4212 29.5901 41.5298 29.6C41.6385 29.6494 41.7471 29.7482 41.8459 29.6297C41.9545 29.5013 42.0533 29.6988 42.1521 29.6593C42.2508 29.5013 42.3496 29.8667 42.4484 29.6889C42.5471 29.7284 42.636 29.6692 42.7249 29.7185C42.8138 29.3432 42.9027 29.7185 42.9916 29.7482C43.0805 29.7976 43.1595 29.5013 43.2385 29.7877C43.3175 29.5013 43.3965 29.7482 43.4755 29.8272C43.5545 29.9062 43.6237 29.7087 43.6928 29.8667C43.7619 29.6692 43.8311 29.9753 43.8903 29.9062C43.9496 30.0346 44.0187 29.9062 44.0681 29.9457C44.1274 29.9062 44.1768 29.9161 44.236 29.9951C44.2854 30.005 44.3348 30.0247 44.3842 30.0445C44.6508 30.1334 44.799 30.2321 44.799 30.3408L44.7891 30.3309Z" fill="black"/>
<path d="M51.3473 47.7235C51.3473 47.7729 51.1991 47.8322 50.9226 47.9013C50.7843 47.9408 50.6164 47.9606 50.4189 48.0099C50.2213 48.0692 49.9942 48.1186 49.7473 48.1877C49.5794 48.2371 49.4016 48.3062 49.2139 48.3655C49.1251 48.405 49.0263 48.4445 48.9275 48.4741C48.8288 48.5136 48.73 48.563 48.6312 48.5927C48.3744 48.5433 48.2954 48.9778 47.9991 48.8889C47.8806 48.9186 47.7621 48.968 47.6535 49.0371C47.5942 49.0667 47.5448 49.1062 47.4954 49.1457C47.446 49.1852 47.3967 49.2346 47.3473 49.2741C47.1498 49.4519 46.8238 49.4717 46.6757 49.7581C46.6461 49.9556 46.488 49.9754 46.3201 50.0149C46.1621 50.0544 46.014 50.1235 46.014 50.3507C45.9251 50.4791 45.8164 50.5877 45.7177 50.7062C45.6189 50.8248 45.5004 50.9334 45.3819 51.0519C45.1942 51.1013 45.0954 51.2396 45.0164 51.3877C44.9374 51.5457 44.8782 51.7038 44.809 51.8618C44.4337 52.0198 44.3053 52.3852 44.3251 52.7902C44.2066 52.8297 44.1177 52.8889 44.0387 52.9581C43.9991 52.9877 43.9695 53.0272 43.9399 53.0667C43.9103 53.1062 43.9004 53.1457 43.8806 53.1951C43.8312 53.3729 43.851 53.5902 43.93 53.8075C43.8708 53.9852 43.8115 54.163 43.7424 54.3408C43.7127 54.4297 43.6831 54.5285 43.6732 54.6173C43.6732 54.7161 43.6732 54.8149 43.693 54.9136C43.6831 55.1112 43.6535 55.2988 43.6535 55.4964C43.6535 55.6939 43.6535 55.8914 43.6041 56.089C43.6535 56.1877 43.7029 56.2865 43.7325 56.3852C43.7621 56.484 43.7819 56.5828 43.7917 56.6815C43.7917 56.7803 43.7917 56.8791 43.772 56.9877C43.772 57.0865 43.7424 57.1951 43.7127 57.3038C43.9991 57.6791 44.009 58.0741 43.9991 58.5186C43.9991 58.7359 44.1374 58.9235 44.2461 59.1112C44.3646 59.2889 44.5029 59.4569 44.5127 59.7038L44.5819 59.8519L44.6708 59.9902C44.73 60.0791 44.7893 60.1778 44.8584 60.2667C44.9769 60.4544 45.1152 60.6223 45.2337 60.8099C45.2831 60.9186 45.3226 61.0173 45.3819 61.126C45.4411 61.2248 45.5103 61.3235 45.5794 61.4124C45.6485 61.5013 45.7275 61.5803 45.8263 61.6593C45.9152 61.7285 46.0337 61.7778 46.1522 61.8173C46.3399 61.9457 46.5275 62.084 46.7251 62.2025C46.9226 62.3309 47.0806 62.4889 47.2485 62.6568C47.772 62.6865 48.1078 62.9828 48.5028 63.289C48.6214 63.3186 48.73 63.368 48.8386 63.4173C48.9473 63.4667 49.0559 63.526 49.1646 63.5655C49.3917 63.6445 49.6189 63.7235 49.8757 63.6939C50.1127 63.7433 50.3497 63.763 50.5967 63.7729C50.8436 63.7729 51.0806 63.7729 51.3275 63.8322C51.5744 63.8618 51.8213 63.8815 52.0683 63.8815C52.3152 63.8618 52.5522 63.8025 52.7794 63.6939C52.9966 63.5655 53.2238 63.5161 53.4707 63.4865C53.5892 63.4766 53.7078 63.447 53.8263 63.4173C53.9448 63.3877 54.0534 63.3482 54.1621 63.289C54.3003 63.3087 54.4189 63.2791 54.5275 63.2297C54.6361 63.1803 54.7349 63.121 54.8337 63.0519L54.9818 62.9531C54.9818 62.9531 55.0707 62.8741 55.1201 62.8346C55.209 62.7655 55.3077 62.6964 55.4164 62.6568C55.6139 62.5383 55.8114 62.4099 56.009 62.2914C56.2164 62.1828 56.3843 62.0248 56.5127 61.8173C56.5917 61.7285 56.6707 61.6494 56.7398 61.5606C56.809 61.4717 56.8781 61.3828 56.9571 61.2939C57.0263 61.205 57.1053 61.126 57.1942 61.0569C57.2732 60.9778 57.3522 60.8988 57.4411 60.8198C57.4213 60.5334 57.5793 60.3754 57.7374 60.2173C57.8164 60.1383 57.9053 60.0692 57.9942 59.9902C58.0337 59.9507 58.0732 59.9112 58.1028 59.8618C58.1324 59.8124 58.1522 59.763 58.1719 59.7136C58.33 59.5556 58.4386 59.3581 58.4979 59.1507C58.5571 58.9433 58.5966 58.726 58.6855 58.5383C58.7151 58.321 58.804 58.1334 58.883 57.9359C58.9028 57.8865 58.9225 57.8371 58.9423 57.7877C58.9522 57.7383 58.9621 57.6889 58.9719 57.6297C58.9917 57.5309 58.9917 57.4223 58.9719 57.3136C58.9917 57.2149 59.0114 57.1062 59.0114 57.0075C59.0114 56.9087 59.0114 56.8001 59.0016 56.7013C59.0016 56.6025 59.0016 56.5038 59.0016 56.3951C59.0114 56.2964 59.0411 56.1976 59.0608 56.0988C58.9522 55.9013 58.9818 55.7038 59.0213 55.5062C59.0509 55.3087 59.0608 55.1013 58.9719 54.9235C58.9522 54.8248 58.9423 54.7359 58.9324 54.6371C58.9127 54.5482 58.883 54.4494 58.8633 54.3606C58.8139 54.1828 58.7843 53.9951 58.7448 53.8075C58.8139 53.5902 58.7645 53.4025 58.6756 53.2445C58.6361 53.1655 58.5769 53.0865 58.5176 53.0173C58.4584 52.9482 58.3991 52.8692 58.3596 52.7902C58.2411 52.4445 57.8756 52.2667 57.8756 51.8618C57.7966 51.7136 57.7176 51.5655 57.6386 51.4173C57.5596 51.2692 57.4608 51.1309 57.3028 51.0618C57.1744 50.9531 57.1547 50.7655 57.0855 50.6075C57.0263 50.4396 56.9077 50.3309 56.6707 50.3704C56.5324 50.3013 56.4831 50.1334 56.3942 50.005C56.3053 49.8766 56.2065 49.768 56.009 49.7877C55.6534 49.8075 55.5645 49.4618 55.3374 49.3038C55.2781 49.2643 55.2287 49.2248 55.1794 49.1951C55.1201 49.1556 55.0707 49.1359 55.0115 49.0964C54.9028 49.0371 54.7942 48.9778 54.6855 48.9186C53.7176 48.405 52.8584 48.1877 52.2658 48.0396C51.6732 47.921 51.3473 47.842 51.3473 47.763C51.3473 47.7235 51.446 47.684 51.6534 47.6544C51.7522 47.6346 51.8806 47.6248 52.0287 47.6149C52.1078 47.6149 52.1868 47.5951 52.2757 47.605C52.3645 47.605 52.4534 47.605 52.5522 47.6149C53.3324 47.6346 54.5078 47.8124 55.8213 48.5038C56.0781 48.642 56.4732 48.6223 56.6213 48.9778C56.7497 49.0766 56.9077 49.1457 57.0559 49.2248C57.204 49.3038 57.3324 49.4223 57.4213 49.5803C57.6386 49.6001 57.7867 49.7087 57.8954 49.8569C58.004 50.005 58.083 50.1828 58.2016 50.321C58.3398 50.4494 58.4287 50.6173 58.5374 50.7754C58.646 50.9334 58.7645 51.0815 58.9225 51.2099C59.2583 51.4667 59.288 51.921 59.5448 52.247C59.5448 52.3556 59.5744 52.4643 59.604 52.563C59.6337 52.6618 59.6732 52.7606 59.7127 52.8593C59.7917 53.0569 59.9102 53.2346 60.0583 53.4124C60.0583 53.6396 60.1077 53.8569 60.1867 54.0643C60.2262 54.1729 60.2756 54.2717 60.3151 54.3803C60.3448 54.489 60.3744 54.5976 60.3941 54.7161C60.3053 54.963 60.325 55.1803 60.3744 55.4075C60.4139 55.6346 60.4929 55.8618 60.5522 56.0988C60.5818 56.2173 60.5818 56.3359 60.5818 56.4544C60.5818 56.5729 60.562 56.6914 60.5522 56.8198C60.5423 56.9383 60.5324 57.0569 60.5127 57.1852C60.4929 57.3038 60.4732 57.4322 60.4732 57.5507C60.4435 57.6692 60.4238 57.7877 60.404 57.9161L60.3843 58.1038L60.3448 58.2914C60.2954 58.5383 60.2559 58.7852 60.167 59.0322C60.1374 59.2889 60.088 59.5457 59.9991 59.8025C59.9102 60.0494 59.7621 60.2766 59.5843 60.4741C59.5645 60.5433 59.5448 60.6025 59.5151 60.6618C59.4855 60.721 59.4559 60.7803 59.4262 60.8396C59.3571 60.9581 59.288 61.0667 59.2188 61.1852C59.0806 61.4124 58.9028 61.6198 58.7448 61.8371C58.6855 61.9556 58.6164 62.0741 58.5275 62.1828C58.4386 62.2914 58.3398 62.3902 58.2509 62.4889C58.1522 62.5877 58.0534 62.6865 57.9547 62.7852C57.8559 62.884 57.7472 62.963 57.6485 63.0717C57.4608 63.2791 57.2139 63.4173 56.967 63.5457C56.7201 63.684 56.5028 63.8519 56.325 64.0988C55.8608 64.4346 55.3176 64.6223 54.804 64.889L54.3892 65.0173C54.251 65.0569 54.1127 65.1062 53.9744 65.1359C53.688 65.205 53.4115 65.2939 53.1349 65.3828C52.8189 65.2939 52.5325 65.3136 52.246 65.3729C51.9596 65.4124 51.6633 65.4914 51.367 65.5606C51.0707 65.5902 50.7646 65.5803 50.4683 65.5606C50.172 65.521 49.8855 65.4519 49.5991 65.3828C49.3028 65.3433 49.0263 65.2643 48.7399 65.1852C48.6016 65.1556 48.4633 65.0964 48.3251 65.047C48.1868 64.9976 48.0584 64.9383 47.9201 64.889C47.851 64.8692 47.7819 64.8593 47.7127 64.8297C47.6436 64.8001 47.5843 64.7704 47.5152 64.7309C47.3868 64.6618 47.2683 64.5927 47.1399 64.5136L46.9522 64.405L46.7744 64.2865C46.6559 64.2075 46.5275 64.1482 46.3893 64.0889C46.1127 64.0001 45.9053 63.7927 45.6979 63.5951C45.4905 63.4075 45.3028 63.2001 45.0658 63.0519C44.9473 62.9729 44.8288 62.8939 44.73 62.805C44.6312 62.7161 44.5226 62.6173 44.4337 62.5186C44.335 62.4198 44.2461 62.3112 44.1671 62.2025C44.088 62.084 44.0288 61.9655 43.9794 61.8371C43.8214 61.6198 43.7029 61.3729 43.6041 61.126C43.5448 61.0075 43.4856 60.889 43.4164 60.7803C43.3769 60.721 43.3374 60.6717 43.288 60.6223C43.2485 60.5729 43.1992 60.5235 43.1399 60.4741C43.0016 60.247 42.7942 60.0494 42.6658 59.8223C42.5374 59.5852 42.4683 59.3285 42.5572 59.0322C42.4387 58.805 42.4288 58.5383 42.3992 58.2914C42.3992 58.2322 42.3893 58.163 42.3794 58.1038C42.3794 58.0445 42.3794 57.9754 42.3596 57.9161C42.3399 57.7976 42.3103 57.6791 42.251 57.5606C42.3004 57.4322 42.3201 57.3038 42.3103 57.1852C42.3103 57.0667 42.3103 56.9482 42.2806 56.8297C42.2609 56.7112 42.2313 56.5927 42.2016 56.4741C42.1819 56.3556 42.1522 56.2371 42.1621 56.1186C42.2016 55.8815 42.251 55.6544 42.2806 55.4173C42.3103 55.1902 42.3498 54.963 42.3201 54.726C42.3103 54.6075 42.3103 54.489 42.3201 54.3803C42.3498 54.2717 42.3893 54.163 42.4288 54.0544C42.5177 53.847 42.5967 53.6396 42.6461 53.4322C42.6461 53.205 42.7646 53.0173 42.893 52.8297C42.9226 52.7803 42.9522 52.7408 42.9819 52.6914C43.0115 52.642 43.0411 52.6025 43.0708 52.5531C43.1201 52.4643 43.1596 52.3655 43.1596 52.247C43.3572 51.8815 43.535 51.5161 43.7819 51.2099C43.7325 50.9433 43.8609 50.7852 44.0189 50.6569C44.1769 50.5285 44.3646 50.4396 44.5029 50.321C44.651 50.2025 44.7201 50.0248 44.8189 49.8667C44.9177 49.7087 45.0559 49.5902 45.2732 49.5803C45.3127 49.363 45.4312 49.2346 45.5794 49.1556C45.7374 49.0766 45.9152 49.047 46.0732 48.9778C46.3695 48.8396 46.5374 48.5235 46.8732 48.5038C46.9127 48.4248 46.9621 48.3655 47.0312 48.326C47.0905 48.2865 47.1695 48.2766 47.2386 48.2667C47.3868 48.247 47.5349 48.2371 47.6436 48.1482C47.93 48.1482 48.1275 47.9507 48.3744 47.9013C48.4831 47.842 48.5917 47.7927 48.7004 47.763C48.809 47.7433 48.9275 47.7334 49.0362 47.7433C49.2436 47.7038 49.4411 47.6643 49.6288 47.6445C49.9053 47.6248 50.1522 47.6149 50.3695 47.605C50.5868 47.605 50.7646 47.6248 50.9028 47.6445C51.1892 47.684 51.3374 47.7235 51.3374 47.7729L51.3473 47.7235Z" fill="black"/>
<path d="M51.3482 50.5383C51.3482 50.5877 51.2494 50.6469 51.0717 50.7062C50.9828 50.7358 50.8741 50.7556 50.7457 50.805C50.6173 50.8445 50.4692 50.8939 50.3112 50.9432C50.2025 50.9828 50.0939 51.0321 49.9655 51.0716C49.9062 51.1013 49.847 51.1309 49.7877 51.1605C49.7285 51.1902 49.6593 51.2198 49.5902 51.2395C49.4025 51.1605 49.4124 51.5655 49.1852 51.4469C49.0173 51.4667 48.8889 51.5753 48.7704 51.7136C48.6519 51.842 48.4149 51.8124 48.3457 52.0395C48.3457 52.1976 48.2371 52.1976 48.1186 52.1976C48.0001 52.1976 47.8914 52.2371 47.9309 52.4247C47.8815 52.5235 47.8124 52.5926 47.7531 52.6618C47.684 52.7408 47.6149 52.8099 47.5359 52.879C47.3877 52.879 47.3186 52.9778 47.2791 53.0766C47.2396 53.1852 47.2198 53.3037 47.1704 53.4025C46.8544 53.4519 46.805 53.7186 46.8741 53.9951C46.6766 54.0247 46.5482 54.1037 46.5186 54.2223C46.489 54.3408 46.5285 54.4889 46.6371 54.647C46.5976 54.7556 46.5482 54.8642 46.5087 54.9827C46.489 55.042 46.4692 55.1013 46.4593 55.1605C46.4593 55.2198 46.4593 55.2889 46.4988 55.3581C46.4988 55.4766 46.489 55.605 46.4988 55.7334C46.4988 55.8618 46.4988 55.9803 46.4593 56.1087C46.568 56.2371 46.6371 56.3556 46.6371 56.484C46.6371 56.5432 46.6371 56.6124 46.6075 56.6716C46.5877 56.7408 46.568 56.8 46.5285 56.879C46.7951 57.1062 46.7655 57.3531 46.7161 57.6494C46.6964 57.7976 46.7951 57.9062 46.884 58.0149C46.9729 58.1235 47.0717 58.2223 47.042 58.3902C47.0914 58.5186 47.1902 58.6272 47.2593 58.7358C47.3383 58.8544 47.4272 58.9531 47.4964 59.0815C47.5161 59.1507 47.5359 59.2297 47.5655 59.2988C47.5951 59.3679 47.6346 59.4272 47.684 59.4865C47.7235 59.5457 47.7828 59.5951 47.842 59.6346C47.9013 59.6741 47.9902 59.6939 48.0791 59.7037C48.2075 59.7828 48.3359 59.8519 48.4544 59.921C48.5729 60 48.6815 60.0988 48.7704 60.2272C49.1556 60.1679 49.3334 60.3852 49.5606 60.6223C49.7087 60.6519 49.8371 60.7507 49.9754 60.8C50.1136 60.8593 50.2618 60.9087 50.4297 60.8692C50.5778 60.9087 50.7359 60.9087 50.884 60.9087C51.042 60.8988 51.1902 60.8889 51.3383 60.9581C51.4963 60.9877 51.6544 61.0173 51.8025 61.0173C51.9605 61.0173 52.1087 60.9581 52.247 60.8692C52.3754 60.7605 52.5235 60.7309 52.6717 60.7309C52.8198 60.7309 52.9778 60.7013 53.1062 60.6223C53.205 60.6519 53.284 60.642 53.3531 60.6223C53.4223 60.5926 53.4815 60.5531 53.5408 60.4939L53.6297 60.4148C53.6297 60.4148 53.6791 60.3556 53.7087 60.3358C53.7679 60.2865 53.8272 60.2469 53.8963 60.2272C54.0149 60.1482 54.1531 60.079 54.2815 60.0099C54.4198 59.9507 54.5284 59.8519 54.5877 59.7037C54.6371 59.6445 54.6766 59.5951 54.726 59.5358C54.7655 59.4766 54.8149 59.4173 54.8544 59.3679C54.9037 59.3186 54.9531 59.2692 55.0025 59.2198C55.0519 59.1704 55.1111 59.121 55.1704 59.0815C55.1013 58.8544 55.2099 58.7753 55.3186 58.6766C55.4371 58.5877 55.605 58.5284 55.6247 58.3803C55.7531 58.2914 55.8124 58.163 55.8519 58.0247C55.8815 57.8865 55.8914 57.7482 55.9605 57.6297C55.9605 57.4914 56.0297 57.3729 56.0988 57.2544C56.1679 57.1358 56.1976 56.9976 56.1482 56.8593C56.1679 56.8 56.1679 56.7309 56.1778 56.6716C56.1778 56.6025 56.1679 56.5432 56.1581 56.4741C56.1482 56.3457 56.1581 56.2173 56.2272 56.0889C56.1284 55.9605 56.1581 55.842 56.1976 55.7136C56.2371 55.5852 56.2568 55.4568 56.1778 55.3383C56.1778 55.279 56.1581 55.2198 56.1482 55.1605C56.1284 55.1013 56.1185 55.042 56.0988 54.9827C56.0692 54.8642 56.0494 54.7457 56.0297 54.6272C56.1284 54.4692 56.0988 54.3507 56.0297 54.2519C55.9704 54.1531 55.842 54.0741 55.7926 53.9753C55.7334 53.7482 55.4371 53.6692 55.4963 53.3827C55.4469 53.284 55.4074 53.1753 55.3581 53.0766C55.3087 52.9778 55.2494 52.8889 55.1309 52.8494C55.042 52.7902 55.0519 52.642 55.0321 52.5235C55.0124 52.405 54.9334 52.326 54.7358 52.3951C54.6371 52.3556 54.6173 52.2272 54.5778 52.1284C54.5383 52.0297 54.4692 51.9507 54.321 52C54.0445 52.079 54.0445 51.7828 53.8963 51.6741C53.7581 51.5655 53.6099 51.4963 53.4815 51.4074C52.8593 51.0519 52.3062 50.884 51.921 50.7655C51.5359 50.6667 51.3186 50.5877 51.3186 50.5087C51.3186 50.4692 51.3877 50.4198 51.526 50.3902C51.5951 50.3704 51.6741 50.3605 51.7828 50.3408C51.8321 50.3408 51.8914 50.321 51.9507 50.321C52.0099 50.321 52.0692 50.321 52.1383 50.321C52.6717 50.3111 53.4716 50.4099 54.3902 50.8642C54.5679 50.9531 54.8741 50.8939 54.9432 51.1803C55.0321 51.2494 55.1408 51.279 55.2494 51.3284C55.3581 51.3778 55.4469 51.4568 55.4963 51.5753C55.6741 51.5556 55.7827 51.6247 55.8519 51.7334C55.921 51.842 55.9605 51.9704 56.0395 52.0692C56.1383 52.1581 56.1976 52.2766 56.2667 52.3852C56.3358 52.4939 56.4247 52.5926 56.5432 52.6716C56.8198 52.8198 56.7704 53.1753 56.9877 53.3827C56.9679 53.5507 57.0173 53.6889 57.0667 53.8173C57.126 53.9457 57.2247 54.0642 57.3432 54.1828C57.3136 54.3507 57.3531 54.4889 57.4222 54.6371C57.4519 54.7062 57.4914 54.7753 57.5309 54.8544C57.5605 54.9235 57.5803 55.0025 57.5902 55.0815C57.4914 55.2593 57.5013 55.4074 57.5408 55.5655C57.5704 55.7235 57.6494 55.8815 57.7087 56.0395C57.7679 56.2074 57.7383 56.3753 57.7087 56.5432C57.6988 56.6321 57.6889 56.7111 57.679 56.7902C57.6692 56.8692 57.6593 56.9581 57.6593 57.0469C57.5704 57.3729 57.5901 57.7383 57.4519 58.0741C57.4519 58.2618 57.4223 58.4395 57.363 58.6173C57.3037 58.7951 57.1951 58.9432 57.0469 59.0815C57.0074 59.2692 56.8988 59.4272 56.8099 59.5852C56.7111 59.7432 56.5827 59.8815 56.4741 60.0395C56.4346 60.1284 56.3852 60.2173 56.3358 60.2865C56.2766 60.3556 56.2074 60.4247 56.1383 60.4939L55.9309 60.6914C55.8618 60.7605 55.7827 60.8198 55.7235 60.8889C55.5951 61.0371 55.4173 61.126 55.2297 61.205C55.0519 61.284 54.9037 61.4025 54.805 61.6099C54.4889 61.8568 54.0939 61.9655 53.7383 62.163C53.5408 62.2124 53.3531 62.2815 53.1556 62.321C52.9581 62.3605 52.7704 62.4297 52.5729 62.5087C52.3457 62.4099 52.1482 62.4198 51.9507 62.4593C51.7531 62.4889 51.5556 62.5679 51.3383 62.6272C51.1309 62.6568 50.9235 62.6568 50.7161 62.6371C50.5087 62.6074 50.3112 62.5581 50.1038 62.4988C49.8964 62.479 49.6988 62.4198 49.5013 62.3704C49.3038 62.3111 49.1161 62.2223 48.9285 62.1531C48.8297 62.1432 48.7309 62.0939 48.642 62.0445C48.5531 61.9951 48.4643 61.9358 48.3852 61.8865L48.2569 61.8074C48.2569 61.8074 48.1778 61.7482 48.1383 61.7186C48.0593 61.6692 47.9704 61.6198 47.8717 61.5902C47.6643 61.5408 47.526 61.3926 47.3877 61.2445C47.2494 61.1062 47.1309 60.9482 46.9433 60.8593C46.8544 60.8099 46.7754 60.7605 46.6964 60.7013C46.6174 60.642 46.5482 60.5729 46.4791 60.5037C46.4099 60.4346 46.3507 60.3556 46.3013 60.2766C46.2519 60.1877 46.2124 60.0988 46.1828 60.0099C46.0643 59.8618 46.005 59.6741 45.9458 59.4963C45.8865 59.3186 45.7778 59.1704 45.6001 59.0618C45.5013 58.9037 45.3334 58.7852 45.2248 58.6272C45.126 58.4692 45.0766 58.2815 45.1951 58.0544C45.0964 57.8963 45.1062 57.7087 45.0964 57.5309C45.0865 57.3531 45.0964 57.1852 44.9877 57.0272C45.047 56.9284 45.0667 56.8494 45.0667 56.7605C45.0667 56.6716 45.0667 56.5926 45.047 56.5136C45.0075 56.3556 44.9285 56.1877 44.9383 56.0198C44.968 55.8519 45.0174 55.6939 45.0371 55.5358C45.0667 55.3778 45.0865 55.2198 45.047 55.0618C45.0272 54.9828 45.0272 54.8939 45.047 54.8247C45.0667 54.7457 45.0964 54.6766 45.126 54.6074C45.1951 54.4593 45.2643 54.321 45.2939 54.1729C45.2741 54.005 45.3729 53.8766 45.4717 53.7581C45.5606 53.6395 45.6791 53.5309 45.6593 53.363C45.8075 53.1161 45.9161 52.8593 46.1038 52.6519C46.0248 52.4346 46.1038 52.326 46.2322 52.2469C46.3507 52.1679 46.5087 52.1284 46.6075 52.0494C46.7161 51.9704 46.7556 51.842 46.8149 51.7235C46.8741 51.605 46.9729 51.526 47.1507 51.5457C47.1507 51.3581 47.2297 51.2692 47.3383 51.2297C47.4569 51.1902 47.5951 51.1803 47.7038 51.1507C47.9211 51.0815 48.0001 50.8149 48.2569 50.8346C48.2964 50.6963 48.3951 50.6667 48.5038 50.6667C48.6124 50.6667 48.721 50.6667 48.7902 50.6074C49.0075 50.6469 49.126 50.479 49.2939 50.4494C49.363 50.4 49.442 50.3704 49.5112 50.3507C49.5902 50.3408 49.6692 50.3408 49.7482 50.3507C49.8964 50.3309 50.0247 50.3013 50.1531 50.3013C50.3408 50.3013 50.5087 50.3013 50.6568 50.3013C50.805 50.3013 50.9235 50.3309 51.0223 50.3507C51.2198 50.3902 51.3186 50.4395 51.3186 50.4889L51.3482 50.5383Z" fill="black"/>
<path d="M82.0929 73.4618C82.0929 73.5704 81.372 73.6692 80.0683 73.7581C79.851 73.768 79.6139 73.7877 79.367 73.8075C79.1201 73.8371 78.8535 73.8667 78.567 73.847C78.2806 73.7087 77.9843 74.1038 77.6782 73.8865C77.3621 73.8272 77.0362 73.8865 76.7004 73.926C76.3547 73.9754 75.9991 73.8371 75.6337 73.9655C75.2584 74.2322 74.8831 73.6692 74.488 74.005C74.093 74.0741 73.6782 74.0544 73.2535 74.0445C72.8288 73.8371 72.3942 74.0445 71.9498 74.0741C71.5053 73.8272 71.0411 73.9359 70.5769 74.1038C70.1029 73.768 69.6288 73.8173 69.135 74.1334C68.6411 74.1433 68.1374 74.0149 67.6239 74.163C67.1103 74.1828 66.5868 74.2519 66.0535 74.1926C65.5202 74.4198 64.977 74.4099 64.4239 74.2124C63.8708 74.4593 63.3078 74.3605 62.735 74.2322C62.1622 74.0939 61.5893 74.4494 60.9967 74.2519C60.414 74.2322 59.8115 74.3112 59.2091 74.2717C58.6066 74.1729 57.9943 74.0643 57.3819 74.2815C56.7597 74.3408 56.1375 74.4198 55.5054 74.2815C54.8733 74.5383 54.2412 74.4297 53.5992 74.2815C52.9573 74.321 52.3054 74.1433 51.6536 74.2815C51.0017 74.242 50.34 74.3902 49.6783 74.2815C49.0165 74.2025 48.3548 74.1235 47.703 74.2815C47.0511 74.4494 46.3993 74.2124 45.7573 74.2815C45.1153 74.0346 44.4733 74.3605 43.8511 74.2815C43.219 74.3013 42.5968 74.1433 41.9845 74.2815C41.3622 74.3309 40.7598 74.3704 40.1573 74.2717C39.5548 74.647 38.9622 74.1729 38.3697 74.2519C37.7869 74.0939 37.2042 74.2717 36.6314 74.2322C36.0586 74.3013 35.4956 74.0643 34.9425 74.2124C34.3894 74.1828 33.8462 74.3309 33.3129 74.1926C32.7796 74.3803 32.2561 74.0346 31.7425 74.163C31.2289 74.163 30.7252 74.1729 30.2314 74.1334C29.7376 73.847 29.2536 74.084 28.7894 74.1038C28.3154 74.0741 27.8611 74.2717 27.4166 74.0741C26.9722 74.0544 26.5376 73.926 26.1129 74.0445C25.6882 74.084 25.2833 73.6198 24.8882 74.005C24.4932 74.0741 24.108 73.7087 23.7425 73.9655C23.3771 74.2025 23.0117 73.9359 22.6759 73.926C22.3302 73.9062 22.0043 73.8964 21.6981 73.8865C18.8833 73.7581 17.2734 73.6099 17.2734 73.4519C17.2734 73.2741 19.2685 73.1161 22.6858 72.9778C23.0314 72.968 23.387 72.7605 23.7524 72.9383C24.1179 72.9383 24.503 72.7803 24.8981 72.8988C25.2932 72.6322 25.708 72.8494 26.1228 72.8593C26.5475 72.8494 26.982 72.9383 27.4265 72.8297C27.8709 72.6717 28.3351 72.9087 28.7993 72.8001C29.2734 72.968 29.7475 72.9186 30.2413 72.7704C30.7351 72.9285 31.2388 72.7309 31.7524 72.7408C32.266 72.9877 32.7894 72.8198 33.3228 72.7112C33.8561 72.6223 34.3993 72.7507 34.9524 72.6914C35.5055 72.7408 36.0684 72.6223 36.6413 72.6717C37.2141 72.5531 37.7869 72.5136 38.3795 72.6519C38.9721 72.5729 39.5647 72.6322 40.1672 72.6322C40.7696 72.5334 41.382 72.642 41.9943 72.6223C42.6067 72.5729 43.2388 72.8889 43.861 72.6124C44.4931 72.5729 45.1252 72.6519 45.7672 72.6124C46.4091 72.6519 47.061 72.6815 47.7128 72.6124C48.3647 72.8791 49.0264 72.7112 49.6881 72.6124C50.3499 72.5334 51.0116 72.5729 51.6634 72.6124C52.3153 72.5828 52.9671 72.6025 53.6091 72.6124C54.2511 72.5334 54.893 72.7309 55.5153 72.6124C56.1474 72.4939 56.7696 72.7408 57.3918 72.6223C58.0041 72.5433 58.6165 72.5038 59.219 72.6322C59.8214 72.6322 60.414 72.8791 61.0066 72.6519C61.5893 72.6025 62.172 72.2964 62.7449 72.6717C63.3177 72.5729 63.8807 72.8494 64.4338 72.6914C64.9868 72.968 65.53 72.7013 66.0634 72.7112C66.5967 72.7605 67.1202 72.8593 67.6337 72.7408C68.1473 72.6124 68.651 72.8099 69.1448 72.7704C69.6387 72.6124 70.1226 72.9778 70.5868 72.8001C71.0609 72.8396 71.5152 72.7803 71.9597 72.8297C72.4041 72.4544 72.8387 72.8297 73.2634 72.8593C73.688 72.9186 74.093 72.6124 74.4979 72.8988C74.893 72.6124 75.2782 72.8593 75.6436 72.9383C76.009 73.0173 76.3646 72.8198 76.7102 72.9778C77.0559 72.7803 77.3819 73.0865 77.688 73.0173C78.0041 73.1457 78.3004 73.0173 78.5769 73.0568C78.8633 73.0075 79.13 73.0272 79.3769 73.1062C79.6238 73.126 79.8609 73.1359 80.0781 73.1556C81.3917 73.2445 82.1028 73.3433 82.1028 73.4519L82.0929 73.4618Z" fill="black"/>
<path d="M67.3586 78.5482C67.3586 78.6568 66.9635 78.7556 66.2524 78.8445C66.1339 78.8543 66.0055 78.8741 65.8672 78.8939C65.7289 78.9235 65.5808 78.9531 65.4326 78.9432C65.2746 78.805 65.1166 79.2 64.9487 78.9827C64.7808 78.9235 64.603 78.9827 64.4154 79.0222C64.2277 79.0716 64.0302 78.9334 63.8326 79.0618C63.6351 79.3284 63.4178 78.7655 63.2005 79.1013C62.9833 79.1704 62.7561 79.1506 62.5289 79.1408C62.3018 78.9334 62.0647 79.1408 61.8178 79.1704C61.5709 78.9235 61.324 79.0321 61.0672 79.2C60.8104 78.8642 60.5438 78.9136 60.2771 79.2297C60.0104 79.2297 59.7339 79.1111 59.4574 79.2593C59.1808 79.279 58.8944 79.3482 58.5981 79.2889C58.3018 79.5161 58.0055 79.5062 57.7092 79.3087C57.403 79.5556 57.0969 79.4568 56.7907 79.3284C56.4746 79.1901 56.1586 79.5457 55.8425 79.3482C55.5265 79.3284 55.2006 79.4074 54.8648 79.3679C54.5388 79.2692 54.203 79.1605 53.8672 79.3778C53.5314 79.4371 53.1858 79.5161 52.85 79.3877C52.5043 79.6445 52.1586 79.5358 51.8031 79.3877C51.4574 79.4272 51.1018 79.2494 50.7364 79.3877C50.3808 79.3482 50.0253 79.5062 49.6599 79.3877C49.2944 79.3087 48.9389 79.2297 48.5833 79.3877C48.2278 79.5556 47.8722 79.3185 47.5167 79.3877C47.171 79.1408 46.8154 79.4667 46.4697 79.3877C46.1241 79.4074 45.7883 79.2494 45.4426 79.3778C45.1068 79.4173 44.771 79.4667 44.4451 79.3679C44.1191 79.7432 43.7932 79.2692 43.4673 79.3482C43.1414 79.1901 42.8253 79.3679 42.5191 79.3284C42.2031 79.3976 41.8969 79.1506 41.6006 79.3087C41.2945 79.279 40.9982 79.4272 40.7117 79.2889C40.4253 79.4766 40.129 79.1309 39.8525 79.2593C39.5759 79.2593 39.2994 79.2692 39.0327 79.2297C38.7661 78.9334 38.4994 79.1803 38.2426 79.2C37.9858 79.1704 37.7389 79.3679 37.492 79.1704C37.2451 79.1506 37.0081 79.0222 36.7809 79.1408C36.5537 79.1803 36.3266 78.7161 36.1093 79.1013C35.892 79.1704 35.6846 78.805 35.4772 79.0618C35.2797 79.2988 35.0821 79.0321 34.8945 79.0222C34.7068 79.0124 34.5291 78.9926 34.3612 78.9827C32.8204 78.8543 31.9414 78.7062 31.9414 78.558C31.9414 78.3803 33.0278 78.2222 34.8945 78.084C35.0821 78.0741 35.2797 77.8667 35.4772 78.0445C35.6747 78.0445 35.892 77.8864 36.1093 78.005C36.3266 77.7383 36.5537 77.9556 36.7809 77.9655C37.0081 77.9556 37.2451 78.0346 37.492 77.9358C37.7389 77.7778 37.9858 78.0148 38.2426 77.9062C38.4994 78.0741 38.7661 78.0247 39.0327 77.8766C39.2994 78.0346 39.5759 77.8469 39.8525 77.8469C40.129 78.0939 40.4154 77.9161 40.7117 77.8173C41.008 77.7284 41.3043 77.8568 41.6006 77.7976C41.9068 77.8469 42.213 77.7383 42.5191 77.7778C42.8352 77.6593 43.1512 77.6198 43.4673 77.758C43.7833 77.679 44.1093 77.7383 44.4451 77.7383C44.771 77.6395 45.1068 77.7482 45.4426 77.7284C45.7784 77.679 46.1241 77.9951 46.4697 77.7185C46.8154 77.679 47.1611 77.758 47.5167 77.7185C47.8623 77.7482 48.2179 77.7877 48.5833 77.7185C48.9389 77.9852 49.3043 77.8173 49.6599 77.7185C50.0253 77.6395 50.3808 77.679 50.7364 77.7185C51.0919 77.6889 51.4475 77.7087 51.8031 77.7185C52.1586 77.6395 52.5043 77.8371 52.85 77.7185C53.1956 77.6 53.5314 77.8469 53.8672 77.7284C54.203 77.6494 54.5388 77.6099 54.8648 77.7383C55.1907 77.7383 55.5166 77.9852 55.8425 77.758C56.1685 77.7087 56.4746 77.4025 56.7907 77.7778C57.0969 77.679 57.4129 77.9655 57.7092 77.7976C58.0154 78.0741 58.3117 77.8074 58.5981 77.8173C58.8944 77.8667 59.1709 77.9655 59.4574 77.8469C59.7339 77.7185 60.0104 77.9161 60.2771 77.8766C60.5438 77.7185 60.8104 78.084 61.0672 77.9062C61.324 77.9457 61.5709 77.8864 61.8178 77.9358C62.0647 77.5605 62.3018 77.9358 62.5289 77.9655C62.7561 78.0148 62.9833 77.7185 63.2005 78.005C63.4178 77.7185 63.6252 77.9655 63.8326 78.0445C64.04 78.1235 64.2277 77.926 64.4154 78.084C64.603 77.8864 64.7808 78.1926 64.9487 78.1235C65.1166 78.2519 65.2845 78.1235 65.4326 78.163C65.5907 78.1235 65.7289 78.1334 65.8672 78.2025C66.0055 78.2222 66.1339 78.2321 66.2524 78.2519C66.9734 78.3408 67.3586 78.4395 67.3586 78.5482Z" fill="black"/>
<path d="M20.0996 17.7877C20.0996 17.679 21.1268 17.5803 23.0033 17.4914C23.3194 17.4815 23.6552 17.4618 24.0107 17.4519C24.3663 17.4223 24.7514 17.3926 25.1564 17.4025C25.5613 17.5408 25.986 17.1457 26.4403 17.363C26.8848 17.4223 27.3588 17.363 27.8428 17.3235C28.3366 17.2741 28.8403 17.4124 29.3736 17.284C29.907 17.0173 30.4502 17.5803 31.023 17.2445C31.5959 17.1753 32.1786 17.1951 32.781 17.205C33.3835 17.4124 34.0057 17.205 34.6477 17.1655C35.2897 17.4124 35.9415 17.3037 36.623 17.1358C37.2946 17.4716 37.986 17.4223 38.6971 17.1062C39.3983 17.0963 40.1193 17.2247 40.86 17.0766C41.5909 17.0568 42.3415 16.9877 43.1119 17.0469C43.8724 16.8198 44.6526 16.8297 45.4427 17.0272C46.2328 16.7803 47.0427 16.879 47.8526 17.0074C48.6723 17.1457 49.502 16.7902 50.3415 16.9877C51.181 17.0074 52.0303 16.9284 52.8995 16.9679C53.7587 17.0667 54.6377 17.1753 55.5168 16.9581C56.3958 16.8988 57.2945 16.8198 58.1933 16.9482C58.6476 16.8198 59.1019 16.7803 59.5562 16.8C59.6649 16.8 59.7834 16.8099 59.9019 16.8198H59.9908L60.0896 16.8395L60.297 16.8692C60.4353 16.8889 60.5735 16.9087 60.7019 16.9482C60.8402 16.9877 60.9686 17.0173 61.097 17.0667C61.6402 17.1655 62.1439 17.4025 62.6081 17.6889C63.0723 17.9753 63.4871 18.3309 63.9118 18.6865C64.2673 19.1111 64.613 19.5556 64.8599 20.0593C65.1068 20.563 65.2747 21.126 65.2846 21.6889C65.2846 22.2914 65.2352 22.7161 65.2254 23.2C65.2254 23.6741 65.2254 24.1383 65.3142 24.6124C65.4821 25.5507 65.2451 26.479 65.3142 27.3976C65.0673 28.3161 65.3933 29.2247 65.3142 30.1334C65.334 31.0321 65.176 31.9309 65.3044 32.8099C65.3439 33.6988 65.3933 34.5679 65.2945 35.4272C65.6698 36.2865 65.1957 37.1457 65.2747 37.9852C65.1167 38.8247 65.2945 39.6544 65.255 40.4741C65.3241 41.2939 65.0871 42.0939 65.2352 42.884C65.2056 43.6741 65.3538 44.4544 65.2155 45.2149C65.4031 45.9753 65.0575 46.726 65.1859 47.4667C65.1859 48.1976 65.1957 48.9284 65.1562 49.6297C64.8698 50.3309 65.1068 51.0223 65.1266 51.7037C65.097 52.3753 65.2945 53.0371 65.097 53.679C65.0772 54.321 64.9488 54.9432 65.0575 55.5457C65.097 56.1482 64.6328 56.7408 65.018 57.3037C65.0871 57.8766 64.7217 58.4198 64.9785 58.9531C65.2155 59.4865 64.9488 59.9902 64.9389 60.484C64.9291 60.9778 64.9093 61.442 64.8994 61.8865C64.771 65.9161 64.6229 68.2272 64.4747 68.2272C64.297 68.2272 64.139 65.3729 64.0007 60.4741C63.9908 59.9902 63.7834 59.4766 63.9612 58.9432C63.9612 58.4099 63.8031 57.8667 63.9217 57.2939C63.655 56.7309 63.8723 56.1383 63.8822 55.5358C63.8723 54.9334 63.9513 54.3111 63.8427 53.6692C63.6846 53.0272 63.9217 52.3753 63.813 51.6939C63.9809 51.0223 63.9315 50.3309 63.7834 49.6198C63.9414 48.9186 63.7538 48.1877 63.7538 47.4568C64.0007 46.726 63.8328 45.9753 63.7241 45.205C63.6352 44.4445 63.7636 43.6642 63.7044 42.8741C63.7538 42.084 63.6451 41.2741 63.6846 40.4642C63.5661 39.6445 63.5266 38.8149 63.6649 37.9753C63.5859 37.1358 63.6451 36.2766 63.6451 35.4173C63.5464 34.5581 63.655 33.679 63.6352 32.8C63.5859 31.921 63.9019 31.0223 63.6254 30.1235C63.5859 29.2247 63.6649 28.3062 63.6254 27.3877C63.655 26.4692 63.6945 25.5408 63.6254 24.6025C63.7636 24.1383 63.7834 23.6642 63.7636 23.1902C63.7439 22.7358 63.6846 22.2025 63.5957 21.8667C63.5167 21.4914 63.3982 21.1358 63.2501 20.7902C63.1019 20.4445 62.9044 20.1186 62.6673 19.8223C62.1439 19.2692 61.4723 18.884 60.7513 18.7062C60.6624 18.7062 60.5636 18.6963 60.4748 18.6766C60.3859 18.6568 60.2871 18.6568 60.1982 18.6469H60.0599L59.9908 18.6272H59.9019L59.5562 18.6074C59.1019 18.5778 58.6476 18.5581 58.1933 18.6074C57.2945 18.726 56.3958 18.479 55.5168 18.6074C54.6279 18.6865 53.7587 18.726 52.8995 18.5976C52.0303 18.5976 51.181 18.3507 50.3415 18.5778C49.502 18.6272 48.6723 18.9432 47.8526 18.5581C47.0328 18.6469 46.2328 18.3704 45.4427 18.5383C44.6526 18.2618 43.8724 18.5284 43.1119 18.5186C42.3514 18.4692 41.6008 18.3704 40.86 18.4889C40.1193 18.6173 39.3983 18.4198 38.6971 18.4593C37.9958 18.6173 37.3045 18.2519 36.623 18.4297C35.9514 18.3902 35.2897 18.4494 34.6477 18.4C34.0057 18.7753 33.3835 18.4 32.781 18.3605C32.1786 18.3013 31.586 18.6074 31.023 18.321C30.4502 18.6074 29.907 18.3605 29.3736 18.2815C28.8403 18.2025 28.3366 18.4 27.8428 18.242C27.349 18.4395 26.8848 18.1334 26.4403 18.2025C25.9959 18.0741 25.5613 18.2025 25.1564 18.163C24.7514 18.2025 24.3663 18.1926 24.0107 18.1136C23.6552 18.0939 23.3194 18.084 23.0033 18.0642C21.1268 17.9753 20.0996 17.8766 20.0996 17.7679V17.7877Z" fill="black"/>
<path d="M24.9771 22.963C25.0858 22.963 25.1845 24.6025 25.2734 27.5951C25.2833 28.0889 25.303 28.6321 25.3228 29.205C25.3524 29.7778 25.3821 30.3902 25.3623 31.0321C25.224 31.6741 25.6191 32.3556 25.4018 33.0667C25.3426 33.7778 25.4018 34.5284 25.4413 35.3087C25.4907 36.0889 25.3524 36.8988 25.4808 37.7482C25.7475 38.5877 25.1845 39.4667 25.5203 40.3754C25.5895 41.284 25.5697 42.2124 25.5598 43.1803C25.3524 44.1482 25.5598 45.1359 25.5895 46.1531C25.3426 47.1704 25.4512 48.2173 25.6191 49.2939C25.2833 50.3704 25.3327 51.4667 25.6487 52.5828C25.6586 53.7087 25.5302 54.8544 25.6784 56.0297C25.6981 57.205 25.7672 58.4001 25.708 59.6149C25.9351 60.8297 25.9253 62.0741 25.7277 63.3284C25.9746 64.5926 25.8759 65.8667 25.7475 67.1704C25.6784 67.8223 25.7277 68.484 25.787 69.1161C25.8463 69.7581 25.9253 70.3704 25.9549 70.9334C26.0142 71.2 26.1129 71.447 26.2314 71.6346C26.35 71.8223 26.508 71.9704 26.7055 72.0889C27.1006 72.326 27.6932 72.4642 28.3055 72.5531C28.6117 72.6124 28.9376 72.6618 29.2734 72.6914C29.4413 72.7112 29.6092 72.721 29.7771 72.7309C29.9549 72.7309 30.1228 72.7408 30.3006 72.7507C31.0018 72.7704 31.6931 72.7408 32.4043 72.6321C33.8166 72.5828 35.2388 72.5038 36.6709 72.6321C38.1129 72.3754 39.5647 72.4939 41.0264 72.6321C42.4882 72.5926 43.9696 72.7803 45.461 72.6321C46.9523 72.6717 48.4536 72.5235 49.9647 72.6321C51.4758 72.7112 52.977 72.7902 54.4684 72.6321C55.9597 72.4741 57.4412 72.7013 58.9029 72.6321C60.3646 72.8692 61.8165 72.5531 63.2585 72.6321C64.6906 72.6025 66.1226 72.7605 67.5152 72.6124C68.2066 72.5729 68.8979 72.5433 69.5794 72.5235C69.6189 72.5235 69.6683 72.5235 69.6979 72.5235H69.7967C69.856 72.5136 69.9251 72.5038 69.9844 72.484C70.1128 72.4642 70.2313 72.4346 70.3597 72.3951C70.6066 72.3161 70.8535 72.2075 71.0905 72.0692C71.4263 71.5951 71.8115 71.2001 72.2164 70.726C72.414 70.4988 72.6115 70.2519 72.7794 69.9951C72.8683 69.8667 72.9473 69.7284 73.0164 69.5902L73.0461 69.5408C73.0461 69.5408 73.0461 69.521 73.0559 69.521C73.0559 69.5013 73.0658 69.4914 73.0658 69.4717C73.135 69.4124 73.1942 69.3136 73.2238 69.2247V69.205H73.1251C73.1251 69.205 73.0362 69.205 72.9868 69.2247L72.8584 69.2445C72.7004 69.2445 72.5424 69.2544 72.3843 69.2642C72.0584 69.2741 71.7325 69.284 71.4066 69.2741C70.1029 69.3531 68.8189 69.126 67.5646 69.2939C66.3004 69.2741 65.0659 69.442 63.851 69.3038C62.6362 69.5013 61.4412 69.1754 60.2659 69.3038C59.0906 69.3038 57.9449 69.3334 56.819 69.3038C55.6931 69.0272 54.5968 69.2741 53.5202 69.3038C52.4437 69.284 51.4066 69.4914 50.3795 69.3038C49.3622 69.2939 48.3647 69.1754 47.4067 69.3038C46.4388 69.3531 45.5005 68.8988 44.6017 69.3038C43.6931 69.3828 42.824 69.0173 41.9845 69.2939C41.145 69.5408 40.3252 69.284 39.545 69.2741C38.7647 69.2741 38.0141 69.2642 37.303 69.2544C36.6314 69.2544 35.9993 69.2445 35.387 69.2346C35.0907 69.2346 34.7944 69.2346 34.5178 69.2247C34.4289 69.2247 34.3302 69.2247 34.2413 69.2247C34.1919 69.2247 34.1524 69.2247 34.103 69.2247H34.0339H33.9944V69.2445C33.9746 69.4124 33.9549 69.5704 33.9055 69.7383C33.8462 69.9951 33.7672 70.2321 33.6882 70.4593C33.6487 70.5778 33.5993 70.6865 33.5499 70.7852C33.5005 70.8939 33.4512 70.9926 33.3919 71.0914C33.3326 71.1902 33.2833 71.2889 33.224 71.3778C33.1647 71.4667 33.0956 71.5556 33.0364 71.6445C32.5326 72.326 31.9302 72.7408 31.4265 72.9877C31.2981 73.047 31.1796 73.1161 31.061 73.1556C30.9425 73.1951 30.8339 73.2247 30.7351 73.2642C30.6364 73.2939 30.5376 73.3334 30.4487 73.3433C30.3598 73.3531 30.2808 73.3729 30.2117 73.3828C29.9253 73.4223 29.787 73.4321 29.7771 73.4025C29.7771 73.3729 29.9055 73.3038 30.1623 73.205C30.2314 73.1852 30.3006 73.1556 30.3796 73.126C30.4586 73.0963 30.5376 73.047 30.6364 73.0075C30.7252 72.9679 30.824 72.9186 30.9327 72.8692C31.0413 72.8198 31.1401 72.7408 31.2487 72.6815C31.6931 72.405 32.2067 71.9902 32.6018 71.3482C32.6512 71.2692 32.7005 71.1902 32.7499 71.1013C32.7894 71.0124 32.8388 70.9235 32.8783 70.8346C32.9277 70.7457 32.9573 70.647 32.9968 70.5482C33.0364 70.4494 33.0759 70.3507 33.1055 70.2519C33.1746 70.0445 33.224 69.8272 33.2635 69.6001C33.2734 69.521 33.2931 69.442 33.303 69.3531C33.303 69.2642 33.3129 69.1754 33.3228 69.0865C33.3326 68.9087 33.3425 68.721 33.3524 68.5433L33.382 68.5136H33.4314H33.5401C33.6092 68.5136 33.6882 68.5136 33.7573 68.5136C33.9055 68.5136 34.0536 68.5136 34.2018 68.5038C34.4487 68.5038 34.7055 68.484 34.9623 68.484C35.4166 68.4741 35.8907 68.4544 36.3845 68.4346C37.3623 68.405 38.419 68.3754 39.5351 68.3457C40.3153 68.326 41.1252 68.1087 41.9647 68.2865C42.8042 68.2865 43.6832 68.1186 44.582 68.2272C45.4807 67.9507 46.419 68.1581 47.3869 68.168C48.3548 68.1482 49.3425 68.2272 50.3597 68.1087C51.377 67.9408 52.4239 68.168 53.5005 68.0494C54.577 68.2075 55.6733 68.1482 56.7893 67.9902C57.9153 68.1383 59.0609 67.9309 60.2362 67.9309C61.4116 68.168 62.6066 67.9803 63.8214 67.8717C65.0362 67.763 66.2807 67.8815 67.535 67.8124C68.7992 67.8519 70.0732 67.7235 71.3769 67.7531C71.7029 67.7235 72.0288 67.6939 72.3547 67.6741L72.6016 67.6544H72.7201H72.7794C72.7992 67.6544 72.8189 67.6544 72.8584 67.6544C73.1547 67.6544 73.4609 67.6544 73.7572 67.6642C74.0535 67.6642 74.3596 67.684 74.6559 67.6939L75.1004 67.7136H75.3177L75.4263 67.7235C75.4263 67.763 75.4066 67.7926 75.3967 67.8321C75.209 68.405 75.0411 68.9581 74.7745 69.521C74.7251 69.6593 74.6757 69.7976 74.6164 69.9457C74.5868 70.0149 74.5572 70.084 74.5275 70.163L74.4485 70.3408C74.3794 70.5087 74.3004 70.6667 74.2115 70.8346C74.0436 71.1605 73.8559 71.4766 73.6387 71.7828C73.2041 72.3951 72.6806 72.9778 72.0189 73.4519C71.7029 73.7087 71.3276 73.926 70.9127 74.0741C70.7053 74.1433 70.4979 74.2124 70.2807 74.242L70.1226 74.2717L69.9547 74.2914H69.7868C69.7276 74.3112 69.6979 74.3112 69.6486 74.3112C68.9473 74.3112 68.2362 74.3112 67.5152 74.3309C66.093 74.4 64.6807 74.084 63.2387 74.3704C61.7967 74.4198 60.3449 74.3309 58.8832 74.3803C57.4214 74.3408 55.94 74.3112 54.4486 74.3803C52.9573 74.1038 51.456 74.2717 49.9449 74.3803C48.4338 74.4593 46.9326 74.4099 45.4412 74.3704C43.9499 74.3902 42.4684 74.3704 41.0067 74.3507C39.545 74.4297 38.0931 74.2223 36.6512 74.3309C35.2092 74.4396 33.787 74.1926 32.3845 74.3013C31.6833 74.3408 30.982 74.3605 30.2907 74.3704H29.7672C29.5894 74.3605 29.4117 74.3605 29.224 74.3408C28.8586 74.321 28.4932 74.2717 28.1277 74.2025C27.7524 74.163 27.3771 74.084 27.0018 73.9556C26.6265 73.8272 26.2413 73.6593 25.8759 73.4124C25.5203 73.1655 25.1845 72.8297 24.9574 72.4544C24.7203 72.0889 24.5524 71.7038 24.4043 71.3383C24.1969 70.5778 24.0882 69.8766 24.029 69.1951C23.9796 68.5038 23.9993 67.8618 24.187 67.2099C24.0882 65.9062 24.3747 64.6321 24.2068 63.368C24.4833 62.1038 24.2166 60.8692 24.2265 59.6544C24.2759 58.4396 24.3747 57.2445 24.2561 56.0692C24.1277 54.8939 24.3253 53.7482 24.2858 52.6223C24.1277 51.4963 24.4932 50.4001 24.3154 49.3334C24.3549 48.2568 24.2956 47.2099 24.345 46.1926C23.9697 45.1754 24.345 44.1778 24.3747 43.2198C24.424 42.2519 24.1277 41.3235 24.4142 40.4149C24.1277 39.5062 24.3747 38.6371 24.4537 37.7877C24.5327 36.9482 24.3351 36.1284 24.4932 35.3482C24.2956 34.568 24.6018 33.8272 24.5327 33.1062C24.6611 32.3951 24.5327 31.7136 24.5722 31.0717C24.5228 30.4297 24.5426 29.8173 24.6117 29.2445C24.6314 28.6717 24.6413 28.1383 24.6611 27.6346C24.75 24.642 24.8487 23.0025 24.9574 23.0025L24.9771 22.963Z" fill="black"/>
<path d="M10.9435 36.8791C11.0423 36.9087 10.9633 37.5112 10.7361 38.5778C10.6966 38.7556 10.6571 38.9433 10.6077 39.1507C10.5682 39.3581 10.5386 39.5852 10.4596 39.8025C10.262 39.9902 10.5583 40.3359 10.2818 40.5235C10.1435 40.7507 10.1238 41.0272 10.0842 41.3136C10.0447 41.6001 9.82745 41.847 9.85708 42.1729C9.9361 42.3606 9.81758 42.489 9.70894 42.6173C9.64968 42.6865 9.6003 42.7556 9.58054 42.8248C9.57067 42.8643 9.56079 42.9038 9.57067 42.9532C9.57067 43.0124 9.57067 43.0815 9.6003 43.1606C9.57067 43.368 9.51141 43.5853 9.46202 43.7927C9.31388 43.842 9.15585 43.8914 8.98795 43.9408C8.8398 43.9803 8.64227 44.0396 8.56326 44.0593C8.1682 43.9704 7.88178 44.2667 7.53611 44.405C7.11142 44.2766 6.77562 44.4939 6.44969 44.7704C6.21265 44.6618 6.00525 44.6519 5.81759 44.7211C5.79784 44.7211 5.76821 44.7408 5.74846 44.7507C5.72871 44.7606 5.69908 44.7704 5.6892 44.7803C5.66945 44.8001 5.64969 44.8297 5.62994 44.8494C5.60031 44.9087 5.59043 44.968 5.62994 45.047C5.57068 45.0667 5.48179 45.0667 5.3929 45.0865C5.30402 45.0964 5.225 45.126 5.30402 45.1853C5.26451 45.205 5.26451 45.2346 5.23488 45.2544C5.21513 45.2741 5.17562 45.284 5.0176 45.3038C5.07686 45.3038 5.13612 45.3038 5.1855 45.3136C5.81759 45.3334 5.62994 45.3136 5.34352 45.4025C5.65957 45.3729 5.71883 45.3532 5.72871 45.363C5.72871 45.3729 5.67932 45.4223 5.67932 45.4815C5.67932 45.5211 5.70895 45.5309 5.73858 45.5309C5.75834 45.5309 5.76821 45.5309 5.78796 45.5309C5.78796 45.5309 5.79784 45.5309 5.81759 45.5309H5.86698L5.95587 45.5408C6.20278 45.5704 6.43981 45.6001 6.64722 45.768C7.11142 45.926 7.60524 46.005 8.06944 46.1927C8.24721 46.2815 8.42499 46.3803 8.60277 46.4593L8.6719 46.489L8.79042 46.5285C8.86943 46.5581 8.94845 46.5778 9.02746 46.6075C9.19536 46.6569 9.35338 46.6964 9.53116 46.7359C9.60029 46.9038 9.68918 47.0717 9.79783 47.2396L9.92622 47.5655L10.0052 47.7433C10.0546 47.8618 10.104 47.9803 10.1534 48.1087C10.2423 48.3556 10.3015 48.6025 10.3213 48.8791C10.7262 49.3038 10.7657 49.847 10.7954 50.4001L10.8151 50.4495V50.4692C10.8151 50.4692 10.8151 50.4692 10.825 50.4692C10.825 50.4692 10.825 50.4692 10.825 50.4791C10.825 50.4791 10.825 50.4988 10.825 50.5087C10.825 50.5285 10.825 50.568 10.825 50.5976C10.825 50.6667 10.8447 50.7556 10.8941 50.6667C10.8941 50.7457 10.9237 50.726 10.9336 50.7062C10.9534 50.6865 10.9534 50.6667 10.9633 50.884C10.9731 50.9828 11.0028 51.0322 11.0225 50.9927C11.0423 50.9532 11.062 50.8346 11.0324 50.6569C11.0028 50.4692 11.0126 50.5087 11.0324 50.5087C11.0521 50.5087 11.0719 50.5087 11.0818 50.489C11.0818 50.489 11.0916 50.4692 11.1015 50.4593C11.1015 50.4593 11.1015 50.4494 11.1015 50.4396V50.4099V50.3606C11.4966 49.9161 11.3484 49.3235 11.5855 48.8396C11.6546 48.5828 11.7633 48.3457 11.862 48.0988C11.9114 47.9803 11.9608 47.8618 11.9904 47.7334C12.0102 47.6741 12.02 47.605 12.0299 47.5457C12.0497 47.4569 12.0793 47.3186 12.0991 47.2099C12.1484 47.0025 12.2077 46.7951 12.2571 46.5976C12.4349 46.5383 12.6028 46.4791 12.7805 46.4198L13.0472 46.3309L13.2447 46.2717C13.4324 46.2223 13.6299 46.1729 13.8274 46.163C14.1929 45.6593 14.8052 45.9655 15.2497 45.7383C15.5064 45.7383 15.7336 45.6692 15.9608 45.5704L16.0398 45.5408L16.0793 45.5211L16.1089 45.5112L16.1385 45.4815C16.1385 45.4815 16.178 45.4618 16.2077 45.4618C16.2274 45.4223 16.3064 45.442 16.4151 45.442C16.5139 45.442 16.6521 45.4223 16.5435 45.3828C16.6225 45.3729 16.6225 45.3532 16.6126 45.3334C16.6126 45.3136 16.6126 45.3136 16.7904 45.2939C16.82 45.2939 16.8497 45.2939 16.8694 45.284C16.5138 45.2741 16.6225 45.2643 16.6817 45.2346C16.7509 45.205 16.7805 45.1655 16.5929 45.1754C16.4743 45.1359 16.3558 45.1161 16.2669 45.047C16.2966 44.9778 16.2669 44.9285 16.2373 44.8988C16.2176 44.8791 16.1978 44.8692 16.178 44.8692H16.1188L16.0398 44.8396C15.8422 44.8001 15.6348 44.8099 15.4373 44.7606C15.0719 44.6124 14.6472 44.6914 14.3509 44.3951C14.0052 44.2667 13.6892 44.0396 13.3237 44.0494C13.2447 44.0396 13.0571 43.9507 12.9386 43.8618C12.8102 43.7828 12.7015 43.6939 12.583 43.6346C12.5534 43.4272 12.4941 43.2791 12.2867 43.1507C12.2571 43.0914 12.2373 43.0322 12.2274 42.9729C12.2274 42.9334 12.2176 42.8939 12.2077 42.8445C12.2077 42.7655 12.2077 42.6766 12.2077 42.5976C12.2077 42.4297 12.1879 42.2717 12.02 42.163C11.704 41.9359 11.8719 41.5803 11.7929 41.3038C11.7237 41.0272 11.6546 40.7606 11.5953 40.5136C11.0324 38.242 10.7756 36.9087 10.9237 36.8692C11.0916 36.8198 11.7336 38.3507 12.6916 41.0371C12.7904 41.3038 13.0669 41.5309 12.9879 41.8766C13.0373 42.0248 13.1163 42.163 13.1855 42.3112C13.225 42.3803 13.2546 42.4593 13.2744 42.5383C13.2842 42.5778 13.2941 42.6173 13.2941 42.6569C13.2941 42.6865 13.2941 42.6964 13.2842 42.7161C13.4027 42.7161 13.4324 42.726 13.4423 42.7754C13.4719 42.7852 13.4818 42.8149 13.5015 42.8445C13.5311 42.8741 13.5213 42.8939 13.6497 42.9433C13.9855 43.0322 14.3114 43.2198 14.6966 43.2297C15.1015 43.1902 15.3978 43.526 15.8027 43.5359C15.9706 43.6741 16.1484 43.763 16.3361 43.8124L16.4052 43.8322L16.4941 43.8519C16.5731 43.8717 16.6521 43.8815 16.741 43.9013C16.9089 43.9309 17.0867 43.9507 17.2842 43.9704C17.5509 44.1383 17.8669 44.2272 18.2422 44.3062C18.6077 44.3951 19.0422 44.4741 19.3978 44.5828C19.4966 44.7408 19.7533 44.8396 20.1583 44.9383C20.5533 45.0371 21.1064 45.1359 21.6496 45.2445C21.7484 45.2643 21.8472 45.284 21.9361 45.3136C21.6694 45.4223 21.2743 45.5309 20.8891 45.6297C20.504 45.7383 20.1385 45.8371 19.8422 45.9556C19.3978 46.0643 19.0422 46.1927 18.6669 46.3309C18.2916 46.4593 17.8966 46.6075 17.462 46.7161C17.2842 46.805 17.0867 46.884 16.8793 46.9729C16.7706 47.0124 16.6719 47.0519 16.5632 47.0914L16.4645 47.1309L16.3756 47.1606C16.1484 47.2396 15.9114 47.289 15.6546 47.289C15.2102 47.5062 14.7163 47.5951 14.2423 47.7433C14.0645 47.842 13.8768 47.9013 13.6892 47.9507L13.62 47.9704H13.5904C13.5904 47.9704 13.5608 47.9704 13.541 47.9704C13.541 47.9803 13.5311 48.0001 13.5311 48.0198C13.5311 48.0198 13.5311 48.0297 13.5311 48.0396C13.5311 48.0396 13.5311 48.0396 13.5311 48.0593C13.5114 48.1186 13.4818 48.1778 13.462 48.2371C13.4027 48.3556 13.3435 48.4741 13.2842 48.5927C13.1756 48.8297 13.0867 49.0766 13.1361 49.363C13.0176 49.8766 12.7904 50.3606 12.6818 50.884L12.662 50.9334L12.6423 51.0025L12.583 51.1803L12.4645 51.5359C12.3855 51.7729 12.3065 52.0001 12.2373 52.2371C12.0892 52.7112 11.9509 53.1852 11.8225 53.7482C11.6052 53.9852 11.4768 54.3408 11.3386 54.8544C11.2003 55.3581 11.0719 56.0297 10.9139 56.7112C10.7657 56.3457 10.5978 55.8519 10.4497 55.3383C10.2917 54.8248 10.1435 54.2717 10.0052 53.7482C9.84721 53.284 9.68918 52.7902 9.54104 52.3062C9.4719 52.0593 9.39289 51.8124 9.32375 51.5655C9.26449 51.3482 9.19536 51.1211 9.1361 50.9038C8.89906 50.4198 8.93857 49.847 8.68178 49.3828C8.55339 49.1457 8.504 48.889 8.45462 48.6322C8.43487 48.5038 8.40524 48.3754 8.37561 48.247C8.35586 48.1877 8.3361 48.1186 8.31635 48.0593C8.30647 48.0297 8.2966 48.0396 8.27684 48.0297C8.25709 48.0297 8.23734 48.0297 8.22746 48.0297H8.18796C8.18796 48.0297 8.18795 48.0396 8.17808 48.0396L8.10894 48.0198C7.92129 47.9507 7.74351 47.8717 7.56574 47.763C7.09166 47.6149 6.68673 47.2297 6.1534 47.3087C5.90648 47.2593 5.64969 47.2791 5.41266 47.2396C5.38303 47.2396 5.3534 47.2297 5.32377 47.2198H5.28426L5.225 47.1902C5.10649 47.1507 4.99784 47.1112 4.8892 47.0717C4.67192 46.9828 4.48427 46.8643 4.35587 46.726C3.90155 46.6371 3.52624 46.4692 3.19044 46.3309C2.84477 46.1828 2.54847 46.0643 1.97563 45.9754C1.89662 45.8173 1.63983 45.7285 1.25465 45.6297C0.879342 45.5309 0.365763 45.442 -0.0292969 45.3334C0.0299622 45.3136 0.0990977 45.284 0.17811 45.2643C0.642305 45.1457 1.1065 45.047 1.50156 44.9383C1.89662 44.8297 2.20279 44.7309 2.43983 44.5927C2.66699 44.4544 3.0818 44.3457 3.46699 44.2569C3.86205 44.168 4.23735 44.0988 4.54353 43.9704C4.6818 43.8914 4.8497 43.8322 5.02747 43.7828C5.11636 43.763 5.20525 43.7433 5.28426 43.7235C5.30402 43.7235 5.33365 43.7235 5.34352 43.7235H5.38303H5.46204C5.66945 43.7136 5.86698 43.7038 6.03488 43.5556C6.42006 43.4766 6.76574 43.3087 7.14105 43.2494C7.38796 42.7853 7.84228 43.0322 8.18796 42.963C8.31635 42.9433 8.31635 42.9235 8.35586 42.884C8.38549 42.8544 8.39536 42.8149 8.41512 42.805C8.41512 42.7556 8.44474 42.7457 8.56326 42.7359C8.53363 42.7062 8.51388 42.6865 8.504 42.6569C8.504 42.6075 8.504 42.568 8.504 42.5285C8.504 42.4494 8.54351 42.3704 8.58301 42.3013C8.66203 42.163 8.78054 42.0346 8.86943 41.8964C9.03733 41.6297 8.92869 41.284 9.16573 41.0569C9.05709 40.7309 9.4324 40.5532 9.44227 40.2865C9.6398 40.0791 9.6003 39.8025 9.69906 39.5853C9.72869 39.3482 9.8077 39.1408 9.9361 38.963C10.0151 38.7655 10.0842 38.5877 10.1534 38.4198C10.5583 37.4025 10.8349 36.8593 10.9336 36.889L10.9435 36.8791Z" fill="black"/>
<path d="M87.6148 33.3926C87.6346 33.4914 87.0617 33.6889 85.9951 33.9556C85.8173 33.9951 85.6296 34.0445 85.4222 34.0939C85.2247 34.1531 85.0074 34.2223 84.7704 34.242C84.5136 34.1433 84.3358 34.5679 84.0395 34.4C83.7729 34.3803 83.5161 34.4791 83.2395 34.5679C82.963 34.6568 82.6568 34.5679 82.3704 34.7457C82.242 34.9037 82.0741 34.8544 81.9062 34.8149C81.8173 34.7951 81.7383 34.7753 81.6593 34.7852C81.6198 34.7852 81.5803 34.805 81.5408 34.8247C81.4914 34.8544 81.4321 34.884 81.3729 34.9433C81.1753 35.0025 80.9581 35.0519 80.7507 35.0914C80.6321 34.9828 80.5235 34.8544 80.4149 34.7358C80.3062 34.6173 80.1679 34.4692 80.1186 34.4099C80.0297 34.0149 79.6346 33.8865 79.3482 33.6395C79.2692 33.1951 78.9334 32.9976 78.5383 32.8297C78.5284 32.5729 78.4396 32.3754 78.3013 32.2371C78.2815 32.2173 78.2618 32.2074 78.242 32.1877L78.2124 32.1679C78.2124 32.1679 78.2025 32.1679 78.1926 32.1581C78.163 32.1482 78.1334 32.1383 78.1038 32.1383C78.0445 32.1383 77.9852 32.1581 77.926 32.2173C77.8865 32.1778 77.847 32.0988 77.7877 32.0198C77.7383 31.9507 77.6692 31.8815 77.6692 31.9803C77.6297 31.9605 77.6099 31.9605 77.5803 31.9507C77.5507 31.9408 77.521 31.9112 77.442 31.7828C77.4618 31.8321 77.4815 31.8815 77.5112 31.9408C77.768 32.5235 77.7186 32.3358 77.5112 32.1284C77.6791 32.405 77.7186 32.4445 77.7186 32.4544C77.7186 32.4544 77.6494 32.4346 77.5902 32.4544C77.5605 32.4642 77.5605 32.5037 77.5803 32.5334C77.5803 32.5531 77.6001 32.563 77.6099 32.5729C77.6099 32.5729 77.6099 32.5926 77.6198 32.6025L77.6396 32.642L77.6692 32.7309C77.7482 32.9581 77.8272 33.1951 77.7679 33.4519C77.8272 33.9358 77.9754 34.4099 78.0149 34.9136C78.0149 35.1112 77.9951 35.3186 78.0149 35.5161V35.5951L78.0346 35.7136C78.0445 35.7926 78.0544 35.8815 78.0741 35.9605C78.1038 36.1284 78.1334 36.2963 78.1828 36.4741C78.0642 36.6124 77.9556 36.7605 77.847 36.9284L77.6099 37.1852L77.4815 37.3334C77.4025 37.4321 77.3136 37.5309 77.2247 37.6198C77.047 37.8074 76.8494 37.9754 76.6124 38.1136C76.405 38.6568 75.9408 38.9433 75.4568 39.2099L75.4173 39.2494C75.4173 39.2494 75.3877 39.2791 75.3976 39.2692C75.3976 39.2692 75.3976 39.2692 75.3976 39.2791C75.3976 39.2791 75.3778 39.2889 75.368 39.2988C75.3482 39.2988 75.3186 39.3186 75.2791 39.3383C75.2198 39.3679 75.1408 39.4272 75.2396 39.4272C75.1704 39.4667 75.1902 39.4766 75.2198 39.4865C75.2396 39.4865 75.2692 39.4865 75.0717 39.5951C74.9927 39.6445 74.9531 39.6939 74.9927 39.6939C75.0322 39.6939 75.1507 39.6544 75.2988 39.5556C75.447 39.447 75.4173 39.4667 75.4371 39.4963C75.4371 39.5062 75.4568 39.526 75.4766 39.5358C75.4766 39.5358 75.4964 39.5358 75.5062 39.5358C75.5062 39.5358 75.5161 39.5358 75.526 39.5358H75.5556L75.605 39.5161C76.168 39.6741 76.642 39.2692 77.1754 39.2692C77.4321 39.2198 77.6988 39.2099 77.9556 39.1902C78.084 39.1803 78.2124 39.1704 78.3408 39.1408C78.4099 39.1309 78.4692 39.1112 78.5284 39.0914L78.6865 39.0519C78.7457 39.0321 78.805 39.0223 78.8642 39.0025C79.0716 38.963 79.2791 38.9136 79.4865 38.8741C79.6149 39.0025 79.7433 39.1309 79.8716 39.2593L80.0692 39.4568L80.2173 39.6149C80.3457 39.763 80.4741 39.9112 80.5729 40.0889C81.1852 40.1976 81.1852 40.8791 81.5803 41.1754C81.6889 41.4124 81.8568 41.5803 82.0445 41.7383L82.1136 41.7976L82.1531 41.8272L82.1827 41.847L82.2223 41.8667C82.2223 41.8667 82.2618 41.8963 82.2716 41.926C82.3111 41.926 82.3309 42.005 82.3803 42.1037C82.4198 42.1926 82.4988 42.3112 82.4889 42.1926C82.5284 42.2618 82.5482 42.242 82.5581 42.2321C82.5679 42.2321 82.5778 42.2124 82.6667 42.3704C82.6766 42.3902 82.6963 42.4198 82.7161 42.4395C82.5679 42.1136 82.6272 42.2124 82.6766 42.2519C82.7358 42.3013 82.7852 42.3112 82.6963 42.1433C82.6766 42.0149 82.6469 41.9062 82.6667 41.7976C82.7358 41.7976 82.7753 41.7482 82.7852 41.7087C82.7852 41.6889 82.7852 41.6593 82.7852 41.6395V41.5803L82.7556 41.5112C82.6963 41.3235 82.5976 41.1358 82.5581 40.9383C82.5284 40.5433 82.2716 40.1976 82.4099 39.8025C82.3704 39.4272 82.4395 39.0519 82.2716 38.726C82.242 38.647 82.2519 38.4395 82.2716 38.3013C82.2914 38.1433 82.321 38.0149 82.321 37.8865C82.4889 37.7679 82.5877 37.6494 82.6173 37.4124C82.6568 37.363 82.7062 37.3136 82.7457 37.2741C82.7753 37.2445 82.8148 37.2247 82.8445 37.205C82.9136 37.1655 82.9926 37.1358 83.0716 37.0963C83.2198 37.0272 83.358 36.9383 83.3778 36.7309C83.4371 36.3457 83.842 36.3358 84.0494 36.1482C84.2667 35.9605 84.4741 35.7828 84.6716 35.6149C86.4593 34.1037 87.5358 33.284 87.6445 33.4025C87.763 33.5309 86.6667 34.7852 84.6914 36.8297C84.4938 37.0371 84.4148 37.3828 84.0692 37.4716C83.9605 37.5803 83.8716 37.7087 83.7729 37.8371C83.7235 37.9062 83.6741 37.9655 83.6148 38.0149C83.5852 38.0445 83.5556 38.0642 83.5161 38.0939C83.4963 38.1037 83.4766 38.1037 83.4568 38.1037C83.4963 38.2124 83.5062 38.242 83.4766 38.2716C83.4766 38.3013 83.4568 38.321 83.4371 38.3605C83.4173 38.4 83.3976 38.4099 83.4173 38.5383C83.4864 38.884 83.4568 39.2494 83.6247 39.605C83.842 39.9507 83.6642 40.3655 83.842 40.7309C83.7926 40.9383 83.7926 41.1358 83.842 41.3334L83.8618 41.4124L83.8815 41.5013C83.9013 41.5803 83.921 41.6593 83.9506 41.7383C84 41.8963 84.0593 42.0741 84.1284 42.2519C84.0988 42.5679 84.1581 42.884 84.2469 43.2593C84.3358 43.6247 84.4543 44.0494 84.5037 44.4149C84.405 44.5828 84.4247 44.8494 84.5235 45.2642C84.6124 45.6692 84.7704 46.2025 84.9087 46.7358C84.9383 46.8346 84.958 46.9334 84.9778 47.0223C84.7704 46.8346 84.4938 46.5284 84.2272 46.2223C83.9605 45.926 83.7136 45.6395 83.4766 45.4321C83.1803 45.0865 82.9136 44.8198 82.6272 44.5433C82.3408 44.2667 82.0445 43.9704 81.7482 43.6346C81.5902 43.5062 81.4223 43.3679 81.2642 43.2198C81.1852 43.1507 81.0963 43.0716 81.0173 42.9926L80.9383 42.9235L80.8692 42.8642C80.7013 42.6963 80.5531 42.4988 80.4346 42.2716C80.0395 41.9754 79.7433 41.5704 79.4075 41.205C79.2494 41.0865 79.1013 40.9482 78.9729 40.8099L78.9235 40.7507V40.7309C78.9235 40.7309 78.9037 40.7013 78.8939 40.6914C78.884 40.6914 78.8642 40.6914 78.8445 40.6914C78.8445 40.6914 78.8445 40.6914 78.8346 40.6914C78.8346 40.6914 78.8346 40.6914 78.8149 40.6914C78.7457 40.6914 78.6865 40.6914 78.6173 40.7013C78.4889 40.7013 78.3507 40.7013 78.2223 40.7013C77.9556 40.7013 77.6988 40.7309 77.4618 40.9087C76.9482 41.0272 76.4149 41.0371 75.8914 41.1655H75.842L75.7729 41.1754L75.5852 41.1951L75.2198 41.2445C74.9729 41.2741 74.7359 41.3136 74.4889 41.3433C74.005 41.4124 73.5112 41.5013 72.9581 41.6297C72.642 41.5408 72.2667 41.5704 71.7532 41.6791C71.2396 41.7778 70.5779 41.9556 69.9062 42.1136C70.163 41.8173 70.5383 41.4519 70.9334 41.0865C71.3285 40.721 71.7532 40.3457 72.168 39.9902C72.5136 39.6445 72.889 39.2889 73.2643 38.9433C73.4519 38.7655 73.6396 38.5976 73.8272 38.4198C73.9951 38.2618 74.163 38.1136 74.3309 37.9556C74.6667 37.5309 75.1902 37.3136 75.4964 36.8692C75.6445 36.6519 75.8618 36.4939 76.0692 36.3358C76.1778 36.2568 76.2766 36.1778 76.3754 36.0988C76.4247 36.0593 76.4741 36.0099 76.5136 35.9704C76.5334 35.9507 76.5136 35.9408 76.5136 35.921C76.5136 35.9013 76.5136 35.8815 76.5038 35.8716L76.4741 35.842C76.4741 35.842 76.4741 35.842 76.4741 35.8321V35.763C76.4346 35.5655 76.4346 35.3679 76.4544 35.1704C76.3754 34.6766 76.5433 34.1433 76.2371 33.6988C76.168 33.4618 76.0494 33.2346 75.9704 33.0074C75.9704 32.9778 75.9507 32.9482 75.9408 32.9186V32.8791L75.921 32.8198C75.9013 32.7013 75.8914 32.5828 75.8815 32.4642C75.8717 32.2272 75.8815 32.0099 75.9507 31.8321C75.8322 31.3877 75.8124 30.9729 75.7926 30.6074C75.7729 30.2321 75.7531 29.9062 75.5754 29.363C75.684 29.2247 75.6544 28.9482 75.5754 28.563C75.4963 28.1778 75.3581 27.684 75.2791 27.2791C75.3285 27.3284 75.3778 27.3778 75.4272 27.4272C75.7334 27.7926 76.0396 28.1679 76.2964 28.4642C76.563 28.7704 76.7902 29.0074 77.0173 29.1556C77.2445 29.2939 77.521 29.6198 77.7679 29.926C78.0247 30.242 78.2519 30.5383 78.4988 30.7753C78.6371 30.8642 78.7655 30.9926 78.8741 31.121C78.9334 31.1902 78.9926 31.2593 79.042 31.3284L79.0815 31.3778L79.1013 31.4074L79.1408 31.4766C79.2395 31.6544 79.3482 31.8321 79.5457 31.9112C79.7926 32.2173 80.0889 32.4544 80.3062 32.7704C80.8297 32.7803 80.8099 33.3037 81.0272 33.5803C81.1062 33.6889 81.126 33.6889 81.1655 33.6988C81.205 33.6988 81.2445 33.6988 81.2642 33.7186C81.3136 33.6988 81.3334 33.7186 81.3828 33.8173C81.4025 33.7778 81.4124 33.7482 81.4223 33.7284C81.4618 33.6988 81.5013 33.6791 81.5408 33.6692C81.6198 33.6395 81.6988 33.6297 81.7778 33.6395C81.9358 33.6395 82.1037 33.6988 82.2618 33.7186C82.5778 33.7482 82.8346 33.5013 83.1408 33.6198C83.3877 33.3828 83.7136 33.6395 83.9506 33.5309C84.2272 33.6198 84.4543 33.4519 84.6914 33.4519C84.9185 33.3729 85.1358 33.3531 85.3531 33.3926C85.5605 33.3729 85.758 33.363 85.9358 33.3433C87.0321 33.2642 87.6346 33.2642 87.6543 33.3729L87.6148 33.3926Z" fill="black"/>
</g>
</g>
<defs>
<clipPath id="clip0_3267_38465">
<rect width="100" height="80" fill="white"/>
</clipPath>
<clipPath id="clip1_3267_38465">
<rect width="87.6342" height="62.7556" fill="white" transform="translate(0 16.7902)"/>
</clipPath>
</defs>
</svg>
