<svg width="80" height="80" viewBox="0 0 80 80" fill="none" xmlns="http://www.w3.org/2000/svg">
<rect x="20" y="11" width="49" height="53" rx="5" fill="#D4FFFF"/>
<g clip-path="url(#clip0_3267_38480)">
<path d="M18.3799 11.3964C18.415 11.3964 18.4571 11.913 18.4922 12.8975C18.5273 13.8819 18.5624 15.3341 18.5975 17.2192C18.6046 17.8476 18.6186 18.5178 18.6326 19.2369C18.6537 19.9561 18.6748 20.7241 18.6677 21.534C18.5694 22.3439 18.8503 23.1956 18.6958 24.0963C18.6537 24.99 18.6958 25.9325 18.7239 26.9099C18.759 27.8874 18.6607 28.9137 18.752 29.968C18.9416 31.0292 18.5414 32.1254 18.7801 33.2634C18.8293 34.4014 18.8152 35.5744 18.8082 36.7892C18.6607 37.997 18.8082 39.2468 18.8293 40.5245C18.6537 41.8091 18.7309 43.1217 18.8503 44.4692C18.6116 45.8167 18.6467 47.1991 18.8714 48.6094C18.8784 50.0197 18.7871 51.4649 18.8924 52.9381C18.9065 54.4113 18.9556 55.9123 18.9135 57.4414C19.075 58.9704 19.068 60.5343 18.9276 62.1192C18.9767 62.566 19.0048 63.0198 19.0188 63.4736V63.8158L19.0329 64.1509C19.0329 64.1718 19.0329 64.1928 19.0329 64.2137L19.075 64.2277H19.0891H19.1171H19.1803H19.4472C19.7983 64.2556 20.1564 64.2696 20.5145 64.2905C22.1576 64.3883 23.8288 64.1369 25.5211 64.2765C27.2134 64.2905 28.9338 64.2347 30.6682 64.2626C32.4096 64.3324 34.1651 64.4092 35.9486 64.2556C37.7252 64.2137 39.5298 64.1579 41.3485 64.2486C43.1671 64.0671 44.9998 64.1439 46.8536 64.2486C48.7074 64.2207 50.5752 64.3464 52.4571 64.2486C54.339 64.2765 56.2419 64.1648 58.1518 64.2486C58.6855 64.2626 59.2192 64.2766 59.7599 64.2905C60.118 64.2905 60.4691 64.3045 60.8202 64.3115C60.8202 64.2626 60.8202 64.2137 60.8202 64.1648L60.8061 63.5993C60.7991 63.1874 60.778 62.7755 60.757 62.3635C60.6376 60.4924 60.8061 58.6283 60.757 56.7921C60.9325 54.9489 60.7008 53.1266 60.757 51.3183C60.7429 49.51 60.8553 47.7227 60.757 45.9493C60.7289 44.1829 60.6938 42.4305 60.764 40.699C60.4972 38.9745 60.8342 37.264 60.778 35.5813C60.8904 33.8987 60.764 32.2371 60.7921 30.6033C60.7429 28.9696 60.9114 27.3568 60.8061 25.7719C60.8131 25.1785 60.8061 24.592 60.7921 24.0125C60.7921 23.7193 60.7851 23.426 60.778 23.1398C60.778 22.8745 60.778 22.4556 60.778 22.5044L60.7359 22.4556L60.5323 22.2391C60.3988 22.0925 60.2654 21.9529 60.139 21.8063C58.9594 20.8148 58.0606 19.586 56.9511 18.6086C55.9048 17.5683 54.8726 16.549 53.8896 15.5296C53.0329 14.3846 51.9304 13.5258 50.9614 12.5833C50.821 12.4367 50.6735 12.2901 50.5261 12.1504L50.3014 11.941L50.2873 11.927H50.2803L50.2592 11.8991L50.2241 11.8642H50.168C50.168 11.8642 50.1469 11.8711 50.0696 11.8711C49.9503 11.8711 49.8379 11.8711 49.7256 11.8781C49.4939 11.8781 49.2691 11.8851 49.0374 11.8851C48.581 11.8851 48.1316 11.8711 47.6822 11.8223C46.3972 11.8083 45.1403 11.7175 43.9185 11.7943C42.7037 11.8223 41.517 11.4941 40.3794 11.7664C39.2349 11.8153 38.1324 11.557 37.0651 11.7385C35.9978 11.9061 34.9726 11.7175 33.9895 11.7106C33.0065 11.7036 32.0585 11.6896 31.1597 11.6826C27.101 11.6407 23.9131 11.5919 21.7293 11.536C20.6409 11.5081 19.8053 11.4802 19.2435 11.4592C18.6818 11.4313 18.3869 11.4034 18.3869 11.3754C18.3869 11.3475 18.745 11.3126 19.4402 11.2847C20.1353 11.2567 21.1605 11.2288 22.4947 11.2009C25.163 11.145 29.0601 11.0892 33.9895 11.0473C34.9726 11.0403 36.0048 10.8937 37.0651 11.0194C38.1324 11.0194 39.2349 10.9077 40.3794 10.9914C41.524 10.8029 42.7037 10.9565 43.9185 10.9635C45.1403 10.9565 46.3902 11.0194 47.6822 10.9356C48.1316 10.8937 48.581 10.8937 49.0374 10.9007C49.2691 10.9007 49.4939 10.9077 49.7256 10.9146C49.8379 10.9146 49.9573 10.9146 50.0696 10.9216C50.2452 10.9216 50.4278 10.9216 50.6033 10.9286C50.7157 11.0473 50.835 11.159 50.9474 11.2777L51.1651 11.4941C51.3125 11.6338 51.46 11.7734 51.6145 11.913C52.4922 12.9533 53.4963 13.9029 54.5777 14.8314C55.4976 15.9136 56.6281 16.8352 57.6673 17.8755C58.5872 19.0415 59.7458 20.0189 60.8834 21.0522C61.0308 21.1849 61.1713 21.3175 61.3117 21.4502L61.5223 21.6527L61.8945 22.0227C61.8945 22.6441 61.8945 22.8047 61.8945 23.1188C61.8945 23.4121 61.8945 23.6983 61.8875 23.9916C61.8875 24.571 61.8805 25.1645 61.8875 25.751C61.8524 27.3358 61.9296 28.9486 61.9015 30.5824C61.9858 32.2161 62.0139 33.8778 61.9156 35.5604C61.9718 37.243 61.9296 38.9536 61.9296 40.6781C61.9998 42.4026 61.9226 44.155 61.9366 45.9284C61.9718 47.6948 61.7471 49.4891 61.9437 51.2974C61.9718 53.1057 61.9156 54.9279 61.9437 56.7711C61.9156 58.6143 61.8945 60.4715 61.9437 62.3426C61.9015 62.7545 61.8734 63.1664 61.8594 63.5784V63.8856L61.8454 64.2486C61.8454 64.6047 61.8454 64.9677 61.8454 65.3238H61.1572L60.8131 65.3308H60.5393C60.2725 65.3448 60.0056 65.3517 59.7388 65.3587C59.2051 65.3797 58.6715 65.4006 58.1308 65.4216C56.2208 65.4774 54.3179 65.4495 52.436 65.4216C50.5542 65.4425 48.6793 65.4285 46.8326 65.4216C44.9788 65.4774 43.1461 65.3378 41.3274 65.4216C39.5087 65.5053 37.7111 65.3378 35.9276 65.4216C34.144 65.4774 32.3885 65.5053 30.6471 65.4146C28.9127 65.4146 27.1923 65.24 25.5 65.4006C23.8078 65.4355 22.1366 65.6589 20.4934 65.3867C19.721 65.4146 19.3138 65.3936 17.8181 65.3727C17.8321 64.7304 17.8392 64.095 17.8532 63.4597C17.8532 63.0059 17.8532 62.559 17.8181 62.1052C18.0147 60.5203 17.8251 58.9634 17.8321 57.4274C17.8673 55.8984 17.9375 54.3973 17.8532 52.9241C17.7619 51.451 17.9024 50.0057 17.8743 48.5954C17.7619 47.1851 18.0217 45.8027 17.8953 44.4552C17.9234 43.1077 17.8813 41.7882 17.9164 40.5105C17.6496 39.2328 17.9164 37.9831 17.9445 36.7752C17.9796 35.5604 17.7689 34.3875 17.9726 33.2494C17.7689 32.1114 17.9445 31.0152 18.0007 29.954C18.0568 28.8928 17.9164 27.8734 18.0288 26.896C17.8883 25.9185 18.106 24.976 18.0568 24.0823C18.1481 23.1817 18.0568 22.3299 18.0849 21.52C18.0498 20.7101 18.0639 19.9421 18.113 19.223C18.1271 18.5039 18.1341 17.8266 18.1481 17.1983C18.1832 15.3202 18.2183 13.861 18.2535 12.8765C18.2886 11.8921 18.3237 11.3754 18.3588 11.3754L18.3799 11.3964Z" fill="black"/>
<path d="M52.7309 32.2999C52.7309 32.3767 52.422 32.4465 51.8532 32.5093C51.7619 32.5163 51.6566 32.5303 51.5513 32.5443C51.4459 32.5652 51.3266 32.5861 51.2072 32.5792C51.0878 32.4814 50.9544 32.7607 50.821 32.6071C50.6876 32.5652 50.5471 32.6071 50.3926 32.635C50.2452 32.6699 50.0907 32.5722 49.9292 32.6629C49.7677 32.8515 49.6062 32.4535 49.4306 32.6909C49.2551 32.7397 49.0796 32.7258 48.897 32.7188C48.7144 32.5722 48.5248 32.7188 48.3352 32.7467C48.1386 32.5722 47.942 32.649 47.7384 32.7677C47.5347 32.5303 47.3241 32.5652 47.1134 32.7886C46.9028 32.7886 46.6851 32.7048 46.4604 32.8096C46.2357 32.8235 46.011 32.8724 45.7793 32.8305C45.5475 32.9911 45.3158 32.9841 45.0771 32.8445C44.8383 33.019 44.5926 32.9492 44.3468 32.8584C44.101 32.7607 43.8482 33.012 43.5955 32.8724C43.3427 32.8584 43.0829 32.9143 42.823 32.8864C42.5632 32.8165 42.2964 32.7397 42.0296 32.8933C41.7627 32.9352 41.4959 32.9911 41.2221 32.9003C40.9482 33.0819 40.6743 32.9981 40.3935 32.9003C40.1126 32.9283 39.8387 32.8026 39.5508 32.9003C39.27 32.8724 38.9821 32.9841 38.6942 32.9003C38.4063 32.8445 38.1254 32.7886 37.8375 32.9003C37.5566 33.019 37.2758 32.8515 36.9949 32.9003C36.714 32.7258 36.4401 32.9562 36.1663 32.9003C35.8924 32.9143 35.6256 32.8026 35.3588 32.8933C35.0919 32.9283 34.8251 32.9562 34.5653 32.8864C34.3055 33.1517 34.0457 32.8165 33.7929 32.8724C33.5401 32.7607 33.2873 32.8864 33.0416 32.8584C32.7958 32.9073 32.55 32.7328 32.3113 32.8445C32.0725 32.8235 31.8338 32.9283 31.6091 32.8305C31.3774 32.9632 31.1527 32.7188 30.928 32.8096C30.7033 32.8096 30.4856 32.8165 30.2749 32.7886C30.0643 32.5792 29.8536 32.7537 29.65 32.7677C29.4463 32.7467 29.2497 32.8864 29.0531 32.7467C28.8565 32.7328 28.6739 32.642 28.4914 32.7188C28.3088 32.7467 28.1332 32.4186 27.9577 32.6909C27.7892 32.7397 27.6207 32.4814 27.4591 32.6629C27.2976 32.8305 27.1432 32.642 26.9957 32.635C26.8482 32.628 26.7078 32.6141 26.5674 32.6071C25.3456 32.5163 24.6504 32.4116 24.6504 32.2999C24.6504 32.1742 25.5141 32.0625 26.9957 31.9648C27.1432 31.9578 27.2976 31.8112 27.4591 31.9368C27.6207 31.9368 27.7822 31.8251 27.9577 31.9089C28.1262 31.7204 28.3088 31.874 28.4914 31.881C28.6739 31.874 28.8635 31.9299 29.0531 31.8531C29.2497 31.7413 29.4463 31.9089 29.65 31.8321C29.8536 31.9508 30.0643 31.9159 30.2749 31.8112C30.4856 31.9229 30.7033 31.7832 30.928 31.7902C31.1527 31.9648 31.3774 31.8461 31.6091 31.7693C31.8408 31.7064 32.0725 31.7972 32.3113 31.7553C32.55 31.7902 32.7958 31.7134 33.0416 31.7413C33.2873 31.6576 33.5401 31.6296 33.7929 31.7274C34.0457 31.6715 34.3055 31.7204 34.5653 31.7204C34.8251 31.6506 35.0919 31.7274 35.3588 31.7134C35.6256 31.6785 35.8924 31.9019 36.1663 31.7134C36.4401 31.6855 36.714 31.7413 36.9949 31.7134C37.2687 31.7413 37.5566 31.7623 37.8375 31.7134C38.1184 31.9089 38.4063 31.7902 38.6942 31.7134C38.9821 31.6576 39.27 31.6855 39.5508 31.7134C39.8317 31.6925 40.1126 31.7064 40.3935 31.7134C40.6743 31.6576 40.9482 31.7972 41.2221 31.7134C41.4959 31.6296 41.7627 31.7972 42.0296 31.7134C42.2964 31.6576 42.5632 31.6296 42.823 31.7204C43.0829 31.7204 43.3427 31.8949 43.5955 31.7274C43.8482 31.6925 44.101 31.4691 44.3468 31.7413C44.5926 31.6715 44.8383 31.867 45.0771 31.7553C45.3158 31.9508 45.5475 31.7623 45.7793 31.7693C46.011 31.8042 46.2357 31.874 46.4604 31.7902C46.6851 31.6995 46.9028 31.8391 47.1134 31.8112C47.3241 31.6995 47.5347 31.9578 47.7384 31.8321C47.942 31.86 48.1386 31.8112 48.3352 31.8531C48.5318 31.5877 48.7144 31.8531 48.897 31.881C49.0796 31.9159 49.2551 31.7064 49.4306 31.9089C49.5992 31.7064 49.7677 31.881 49.9292 31.9368C50.0907 31.9927 50.2452 31.8531 50.3926 31.9648C50.5401 31.8251 50.6805 32.0416 50.821 31.9927C50.9544 32.0835 51.0878 31.9927 51.2072 32.0206C51.3266 31.9927 51.4459 31.9997 51.5513 32.0485C51.6566 32.0625 51.7619 32.0695 51.8532 32.0835C52.422 32.1463 52.7309 32.2161 52.7309 32.2929V32.2999Z" fill="black"/>
<path d="M52.7309 40.9294C52.7309 41.0062 52.422 41.076 51.8532 41.1388C51.7619 41.1458 51.6566 41.1598 51.5513 41.1737C51.4459 41.1947 51.3266 41.2156 51.2072 41.2017C51.0878 41.1039 50.9544 41.3832 50.821 41.2296C50.6876 41.1877 50.5471 41.2296 50.3926 41.2575C50.2452 41.2924 50.0907 41.1947 49.9292 41.2854C49.7677 41.474 49.6062 41.076 49.4306 41.3134C49.2551 41.3622 49.0796 41.3483 48.897 41.3413C48.7144 41.1947 48.5248 41.3413 48.3352 41.3692C48.1386 41.1947 47.942 41.2715 47.7384 41.3902C47.5347 41.1458 47.3241 41.1877 47.1134 41.4111C46.9028 41.4181 46.6851 41.3273 46.4604 41.4321C46.2357 41.446 46.011 41.4949 45.7793 41.453C45.5475 41.6136 45.3158 41.6066 45.0771 41.467C44.8383 41.6415 44.5926 41.5717 44.3468 41.4809C44.101 41.3832 43.8482 41.6345 43.5955 41.4949C43.3427 41.4879 43.0829 41.5368 42.823 41.5089C42.5632 41.439 42.2964 41.3622 42.0296 41.5158C41.7627 41.5577 41.4959 41.6136 41.2221 41.5228C40.9482 41.7044 40.6743 41.6276 40.3935 41.5228C40.1126 41.5508 39.8387 41.4251 39.5508 41.5228C39.27 41.4949 38.9821 41.6066 38.6942 41.5228C38.4063 41.467 38.1254 41.4111 37.8375 41.5228C37.5566 41.6415 37.2758 41.474 36.9949 41.5228C36.714 41.3483 36.4401 41.5787 36.1663 41.5228C35.8924 41.5368 35.6256 41.4251 35.3588 41.5158C35.0919 41.5507 34.8251 41.5787 34.5653 41.5089C34.3055 41.7742 34.0457 41.439 33.7929 41.4949C33.5401 41.3832 33.2873 41.5089 33.0416 41.4809C32.7958 41.5298 32.55 41.3553 32.3113 41.467C32.0725 41.446 31.8338 41.5507 31.6091 41.453C31.3774 41.5857 31.1527 41.3413 30.928 41.4321C30.7033 41.4321 30.4856 41.439 30.2749 41.4111C30.0643 41.2017 29.8536 41.3762 29.65 41.3902C29.4463 41.3692 29.2497 41.5089 29.0531 41.3692C28.8565 41.3553 28.6739 41.2645 28.4914 41.3413C28.3088 41.3692 28.1332 41.0411 27.9577 41.3134C27.7892 41.3622 27.6207 41.1039 27.4591 41.2854C27.2976 41.453 27.1432 41.2645 26.9957 41.2575C26.8482 41.2505 26.7078 41.2366 26.5674 41.2296C25.3456 41.1388 24.6504 41.0341 24.6504 40.9224C24.6504 40.7967 25.5141 40.685 26.9957 40.5873C27.1432 40.5803 27.2976 40.4337 27.4591 40.5593C27.6207 40.5593 27.7822 40.4476 27.9577 40.5314C28.1262 40.3429 28.3088 40.4965 28.4914 40.5035C28.6739 40.4965 28.8635 40.5524 29.0531 40.4756C29.2497 40.3638 29.4463 40.5314 29.65 40.4546C29.8536 40.5733 30.0643 40.5384 30.2749 40.4337C30.4856 40.5454 30.7033 40.4057 30.928 40.4127C31.1527 40.5873 31.3774 40.4686 31.6091 40.3918C31.8408 40.3289 32.0725 40.4197 32.3113 40.3778C32.55 40.4127 32.7958 40.3359 33.0416 40.3638C33.2873 40.2801 33.5401 40.2521 33.7929 40.3499C34.0457 40.294 34.3055 40.3429 34.5653 40.3429C34.8251 40.2731 35.0919 40.3499 35.3588 40.3359C35.6256 40.301 35.8924 40.5244 36.1663 40.3359C36.4401 40.308 36.714 40.3638 36.9949 40.3359C37.2687 40.3638 37.5566 40.3848 37.8375 40.3359C38.1184 40.5314 38.4063 40.4127 38.6942 40.3359C38.9821 40.2801 39.27 40.308 39.5508 40.3359C39.8317 40.315 40.1126 40.3289 40.3935 40.3359C40.6743 40.2801 40.9482 40.4197 41.2221 40.3359C41.4959 40.2521 41.7627 40.4197 42.0296 40.3359C42.2964 40.2801 42.5632 40.2521 42.823 40.3429C43.0829 40.3429 43.3427 40.5174 43.5955 40.3499C43.8482 40.315 44.101 40.0916 44.3468 40.3638C44.5926 40.294 44.8383 40.4965 45.0771 40.3778C45.3158 40.5733 45.5475 40.3848 45.7793 40.3918C46.011 40.4267 46.2357 40.4965 46.4604 40.4127C46.6851 40.322 46.9028 40.4616 47.1134 40.4337C47.3241 40.322 47.5347 40.5803 47.7384 40.4546C47.942 40.4825 48.1386 40.4406 48.3352 40.4756C48.5318 40.2102 48.7144 40.4756 48.897 40.5035C49.0796 40.5384 49.2551 40.3289 49.4306 40.5314C49.5992 40.3289 49.7677 40.5035 49.9292 40.5593C50.0907 40.6152 50.2452 40.4756 50.3926 40.5873C50.5401 40.4476 50.6805 40.6641 50.821 40.6152C50.9544 40.706 51.0878 40.6152 51.2072 40.6431C51.3266 40.6082 51.4459 40.6222 51.5513 40.671C51.6566 40.685 51.7619 40.692 51.8532 40.706C52.422 40.7688 52.7309 40.8386 52.7309 40.9154V40.9294Z" fill="black"/>
<path d="M52.7309 49.5519C52.7309 49.6287 52.422 49.6985 51.8532 49.7614C51.7619 49.7683 51.6566 49.7823 51.5513 49.7963C51.4459 49.8172 51.3266 49.8382 51.2072 49.8312C51.0878 49.7334 50.9544 50.0127 50.821 49.8591C50.6876 49.8172 50.5471 49.8591 50.3926 49.887C50.2452 49.9219 50.0907 49.8242 49.9292 49.915C49.7677 50.1035 49.6062 49.7055 49.4306 49.9429C49.2551 49.9918 49.0796 49.9778 48.897 49.9708C48.7144 49.8242 48.5248 49.9708 48.3352 49.9987C48.1386 49.8242 47.942 49.901 47.7384 50.0197C47.5347 49.7823 47.3241 49.8172 47.1134 50.0406C46.9028 50.0476 46.6851 49.9569 46.4604 50.0616C46.2357 50.0755 46.011 50.1244 45.7793 50.0825C45.5475 50.2431 45.3158 50.2361 45.0771 50.0965C44.8383 50.271 44.5926 50.2012 44.3468 50.1105C44.101 50.0127 43.8482 50.2641 43.5955 50.1244C43.3427 50.1105 43.0829 50.1663 42.823 50.1384C42.5632 50.0686 42.2964 49.9918 42.0296 50.1454C41.7627 50.1872 41.4959 50.2431 41.2221 50.1454C40.9482 50.3269 40.6743 50.2501 40.3935 50.1454C40.1126 50.1733 39.8387 50.0476 39.5508 50.1454C39.27 50.1174 38.9821 50.2291 38.6942 50.1454C38.4063 50.0895 38.1254 50.0336 37.8375 50.1454C37.5566 50.264 37.2758 50.0965 36.9949 50.1454C36.714 49.9708 36.4401 50.2012 36.1663 50.1454C35.8924 50.1593 35.6256 50.0476 35.3588 50.1454C35.0919 50.1733 34.8251 50.2082 34.5653 50.1384C34.3055 50.4037 34.0457 50.0686 33.7929 50.1244C33.5401 50.0127 33.2873 50.1384 33.0416 50.1105C32.7958 50.1593 32.55 49.9918 32.3113 50.0965C32.0725 50.0755 31.8338 50.1803 31.6091 50.0825C31.3774 50.2152 31.1527 49.9708 30.928 50.0616C30.7033 50.0616 30.4856 50.0686 30.2749 50.0406C30.0643 49.8312 29.8536 50.0057 29.65 50.0197C29.4463 49.9987 29.2497 50.1384 29.0531 49.9987C28.8565 49.9848 28.6739 49.887 28.4914 49.9708C28.3088 49.9987 28.1332 49.6706 27.9577 49.9429C27.7892 49.9918 27.6207 49.7334 27.4591 49.915C27.2976 50.0825 27.1432 49.894 26.9957 49.887C26.8482 49.8801 26.7078 49.8661 26.5674 49.8591C25.3456 49.7683 24.6504 49.6636 24.6504 49.5519C24.6504 49.4262 25.5141 49.3145 26.9957 49.2168C27.1432 49.2098 27.2976 49.0632 27.4591 49.1889C27.6207 49.1889 27.7822 49.0771 27.9577 49.1609C28.1262 48.9724 28.3088 49.126 28.4914 49.133C28.6739 49.126 28.8635 49.1889 29.0531 49.1051C29.2497 48.9934 29.4463 49.1609 29.65 49.0841C29.8536 49.2028 30.0643 49.1679 30.2749 49.0632C30.4856 49.1749 30.7033 49.0422 30.928 49.0422C31.1527 49.2168 31.3774 49.0981 31.6091 49.0213C31.8408 48.9585 32.0725 49.0492 32.3113 49.0073C32.55 49.0422 32.7958 48.9654 33.0416 48.9934C33.2873 48.9096 33.5401 48.8817 33.7929 48.9794C34.0457 48.9235 34.3055 48.9654 34.5653 48.9654C34.8251 48.8956 35.0919 48.9724 35.3588 48.9585C35.6256 48.9235 35.8924 49.147 36.1663 48.9515C36.4401 48.9235 36.714 48.9794 36.9949 48.9515C37.2687 48.9794 37.5566 49.0003 37.8375 48.9515C38.1184 49.147 38.4063 49.0283 38.6942 48.9515C38.9821 48.8956 39.27 48.9235 39.5508 48.9515C39.8317 48.9305 40.1126 48.9445 40.3935 48.9515C40.6743 48.8956 40.9482 49.0353 41.2221 48.9515C41.4959 48.8677 41.7627 49.0422 42.0296 48.9585C42.2964 48.9026 42.5632 48.8747 42.823 48.9654C43.0829 48.9654 43.3427 49.14 43.5955 48.9794C43.8482 48.9445 44.101 48.7211 44.3468 48.9934C44.5926 48.9235 44.8383 49.126 45.0771 49.0073C45.3158 49.2028 45.5475 49.0143 45.7793 49.0213C46.011 49.0562 46.2357 49.126 46.4604 49.0422C46.6851 48.9515 46.9028 49.0911 47.1134 49.0632C47.3241 48.9515 47.5347 49.2098 47.7384 49.0841C47.942 49.1121 48.1386 49.0702 48.3352 49.1051C48.5318 48.8398 48.7144 49.1051 48.897 49.133C49.0796 49.1679 49.2551 48.9585 49.4306 49.1609C49.5992 48.9585 49.7677 49.133 49.9292 49.1889C50.0907 49.2447 50.2452 49.1051 50.3926 49.2168C50.5401 49.0771 50.6805 49.2936 50.821 49.2447C50.9544 49.3355 51.0878 49.2447 51.2072 49.2726C51.3266 49.2377 51.4459 49.2517 51.5513 49.3075C51.6566 49.3215 51.7619 49.3285 51.8532 49.3425C52.422 49.4053 52.7309 49.4821 52.7309 49.5519Z" fill="black"/>
<path d="M52.7309 58.1814C52.7309 58.2582 52.422 58.328 51.8532 58.3909C51.7619 58.3979 51.6566 58.4118 51.5513 58.4258C51.4459 58.4467 51.3266 58.4677 51.2072 58.4607C51.0878 58.363 50.9544 58.6422 50.821 58.4886C50.6876 58.4467 50.5471 58.4886 50.3926 58.5165C50.2452 58.5515 50.0907 58.4537 49.9292 58.5445C49.7677 58.733 49.6062 58.335 49.4306 58.5724C49.2551 58.6213 49.0796 58.6073 48.897 58.6003C48.7144 58.4537 48.5248 58.6003 48.3352 58.6283C48.1386 58.4537 47.942 58.5305 47.7384 58.6492C47.5347 58.4118 47.3241 58.4467 47.1134 58.6701C46.9028 58.6771 46.6851 58.5864 46.4604 58.6911C46.2357 58.7051 46.011 58.7539 45.7793 58.712C45.5475 58.8726 45.3158 58.8656 45.0771 58.726C44.8383 58.9005 44.5926 58.8307 44.3468 58.74C44.101 58.6422 43.8482 58.8936 43.5955 58.7539C43.3427 58.7469 43.0829 58.7958 42.823 58.7679C42.5632 58.6981 42.2964 58.6213 42.0296 58.7749C41.7627 58.8168 41.4959 58.8726 41.2221 58.7749C40.9482 58.9564 40.6743 58.8796 40.3935 58.7749C40.1126 58.8028 39.8387 58.6771 39.5508 58.7749C39.27 58.7469 38.9821 58.8587 38.6942 58.7749C38.4063 58.719 38.1254 58.6632 37.8375 58.7749C37.5566 58.8936 37.2758 58.726 36.9949 58.7749C36.714 58.6003 36.4401 58.8307 36.1663 58.7749C35.8924 58.7888 35.6256 58.6771 35.3588 58.7749C35.0919 58.8098 34.8251 58.8377 34.5653 58.7679C34.3055 59.0332 34.0457 58.6981 33.7929 58.7539C33.5401 58.6422 33.2873 58.7679 33.0416 58.74C32.7958 58.7888 32.55 58.6213 32.3113 58.726C32.0725 58.7051 31.8338 58.8098 31.6091 58.712C31.3774 58.8447 31.1527 58.6003 30.928 58.6911C30.7033 58.6911 30.4856 58.6981 30.2749 58.6701C30.0643 58.4607 29.8536 58.6352 29.65 58.6492C29.4463 58.6283 29.2497 58.7679 29.0531 58.6283C28.8565 58.6143 28.6739 58.5235 28.4914 58.6003C28.3088 58.6283 28.1332 58.3001 27.9577 58.5724C27.7892 58.6213 27.6207 58.3629 27.4591 58.5445C27.2976 58.712 27.1432 58.5235 26.9957 58.5165C26.8482 58.5096 26.7078 58.4956 26.5674 58.4886C25.3456 58.3979 24.6504 58.2931 24.6504 58.1814C24.6504 58.0558 25.5141 57.944 26.9957 57.8463C27.1432 57.8393 27.2976 57.6927 27.4591 57.8184C27.6207 57.8184 27.7822 57.7067 27.9577 57.7904C28.1262 57.6019 28.3088 57.7555 28.4914 57.7625C28.6739 57.7555 28.8635 57.8184 29.0531 57.7346C29.2497 57.6229 29.4463 57.7904 29.65 57.7136C29.8536 57.8323 30.0643 57.8044 30.2749 57.6927C30.4856 57.8044 30.7033 57.6717 30.928 57.6717C31.1527 57.8463 31.3774 57.7276 31.6091 57.6508C31.8408 57.588 32.0725 57.6787 32.3113 57.6368C32.55 57.6718 32.7958 57.5949 33.0416 57.6229C33.2873 57.5391 33.5401 57.5112 33.7929 57.6089C34.0457 57.5531 34.3055 57.5949 34.5653 57.5949C34.8251 57.5251 35.0919 57.6019 35.3588 57.588C35.6256 57.5531 35.8924 57.7765 36.1663 57.581C36.4401 57.5531 36.714 57.6089 36.9949 57.581C37.2687 57.6019 37.5566 57.6299 37.8375 57.581C38.1184 57.7765 38.4063 57.6578 38.6942 57.581C38.9821 57.5251 39.27 57.5531 39.5508 57.581C39.8317 57.56 40.1126 57.574 40.3935 57.581C40.6743 57.5251 40.9482 57.6648 41.2221 57.581C41.4959 57.4972 41.7627 57.6718 42.0296 57.588C42.2964 57.5321 42.5632 57.5042 42.823 57.5949C43.0829 57.5949 43.3427 57.7695 43.5955 57.6089C43.8482 57.574 44.101 57.3506 44.3468 57.6229C44.5926 57.5531 44.8383 57.7555 45.0771 57.6368C45.3158 57.8323 45.5475 57.6438 45.7793 57.6508C46.011 57.6857 46.2357 57.7555 46.4604 57.6717C46.6851 57.581 46.9028 57.7206 47.1134 57.6927C47.3241 57.581 47.5347 57.8393 47.7384 57.7136C47.942 57.7416 48.1386 57.6997 48.3352 57.7346C48.5318 57.4693 48.7144 57.7346 48.897 57.7625C49.0796 57.7974 49.2551 57.588 49.4306 57.7904C49.5992 57.588 49.7677 57.7625 49.9292 57.8184C50.0907 57.8742 50.2452 57.7346 50.3926 57.8463C50.5401 57.7067 50.6805 57.9231 50.821 57.8742C50.9544 57.965 51.0878 57.8742 51.2072 57.9022C51.3266 57.8672 51.4459 57.8812 51.5513 57.9371C51.6566 57.951 51.7619 57.958 51.8532 57.972C52.422 58.0348 52.7309 58.1116 52.7309 58.1814Z" fill="black"/>
<path d="M50.4359 22.4555C50.3586 22.4555 50.2884 22.0436 50.2252 21.2826C50.2112 21.1569 50.2041 21.0173 50.1901 20.8776C50.169 20.731 50.148 20.5774 50.155 20.4168C50.2533 20.2562 49.9724 20.0817 50.1269 19.9002C50.169 19.7186 50.1269 19.5301 50.0988 19.3346C50.0637 19.1392 50.162 18.9297 50.0707 18.7202C49.8811 18.5038 50.2814 18.2874 50.0426 18.057C49.9935 17.8266 50.0075 17.5892 50.0146 17.3448C50.162 17.1005 50.0146 16.8491 49.9935 16.5908C50.169 16.3325 50.0918 16.0672 49.9724 15.7949C50.2112 15.5226 50.1761 15.2433 49.9514 14.9571C49.9443 14.6708 50.0356 14.3776 49.9303 14.0843C49.9162 13.7841 49.8671 13.4839 49.9092 13.1767C49.9022 13.1558 49.8882 13.1418 49.8811 13.1208L49.8671 13.0929C49.8671 13.0929 49.8671 13.0859 49.8671 13.079V13.051C49.846 12.9812 49.832 12.9044 49.825 12.8346C49.8039 12.688 49.7969 12.5344 49.7969 12.3808C49.7969 12.0806 49.832 11.7943 49.9022 11.5988C49.825 11.2707 49.7969 10.9495 49.7969 10.6772C49.7969 10.4049 49.8179 10.1815 49.8531 10.007C49.9233 10.0907 49.9935 10.1815 50.0637 10.2723C50.3095 10.5864 50.478 10.6982 50.6887 10.8587C50.8923 11.0123 51.131 11.2148 51.3417 11.522C51.5594 11.7454 51.777 11.9479 52.0088 12.1643L52.1141 12.2621L52.2054 12.3528C52.2686 12.4157 52.3248 12.4785 52.3809 12.5414C52.5775 12.8346 52.7742 13.1418 53.1393 13.2814C53.4202 13.5048 53.7221 13.7143 53.9117 14.0424C54.3049 14.1681 54.5015 14.4893 54.6982 14.8174C54.9861 15.0618 55.1546 15.4179 55.4987 15.6133C55.7444 15.8996 56.0955 16.0951 56.3132 16.4163C56.5449 16.7304 56.7766 17.0307 57.1207 17.2261C57.4718 17.4077 57.6193 17.7917 57.9142 18.0221C58.0546 18.4061 58.483 18.5038 58.6936 18.804C58.9604 19.0484 59.136 19.3835 59.459 19.572C59.7329 19.8024 60.0067 20.0258 60.2033 20.3261C60.421 20.354 60.5333 20.4866 60.6246 20.6402C60.6738 20.717 60.7089 20.7938 60.758 20.8706C60.8142 20.9823 60.8774 21.0801 60.9617 21.1639C61.06 21.3803 61.1934 21.5549 61.3479 21.7364C61.4953 21.9179 61.6569 22.1064 61.7832 22.2879C61.8254 22.3368 61.8605 22.3787 61.8956 22.4276C61.9237 22.4485 61.9096 22.4765 61.9096 22.5044V22.5882L61.8956 22.6719V22.6929C61.8956 22.6929 61.8956 22.7069 61.8816 22.7069H61.8394L61.6569 22.7278C61.4111 22.7487 61.1934 22.7557 61.0108 22.8255C60.7861 22.8465 60.5825 22.8954 60.3648 22.9373C60.2595 22.9582 60.1471 22.9791 60.0418 22.9861C59.9856 22.9861 59.9365 22.9931 59.8803 22.9931C59.8522 22.9931 59.8312 22.9931 59.8171 22.9861C59.796 22.9861 59.782 22.9791 59.7609 22.9722C59.452 23.1048 59.143 22.8605 58.8481 22.9512C58.5532 22.9512 58.2583 22.9582 57.9704 22.9303C57.6825 22.7208 57.4016 22.8954 57.1277 22.9093C56.8539 22.8884 56.587 23.028 56.3272 22.8884C56.0674 22.8744 55.8146 22.7837 55.5689 22.8605C55.3231 22.8884 55.0844 22.5602 54.8526 22.8325C54.6209 22.8814 54.3962 22.6231 54.1856 22.8046C53.9679 22.9722 53.7642 22.7837 53.5676 22.7767C53.371 22.7697 53.1814 22.7557 52.9989 22.7487C51.3628 22.658 50.4218 22.5533 50.4218 22.4415C50.4218 22.3159 51.5804 22.2042 53.5676 22.1064C53.7642 22.0994 53.9749 21.9528 54.1856 22.0785C54.4032 22.0785 54.6209 21.9668 54.8526 22.0506C55.0844 21.8621 55.3231 22.0157 55.5689 22.0226C55.8146 22.0157 56.0674 22.0785 56.3272 21.9947C56.587 21.883 56.8539 22.0506 57.1277 21.9738C57.4016 22.0925 57.6825 22.0575 57.9704 21.9528C58.2583 22.0645 58.5462 21.9249 58.8481 21.9319C59.15 22.1064 59.452 21.9877 59.7609 21.9109C59.782 21.9109 59.8031 21.9039 59.8171 21.897C59.8382 21.897 59.8663 21.897 59.8592 21.897C59.8663 21.897 59.8733 21.897 59.8803 21.897C59.8944 21.897 59.9154 21.897 59.9295 21.9039C59.9646 21.9109 60.0207 21.9249 60.0278 21.9039C60.0839 21.9179 60.112 21.9039 60.1191 21.9039C60.1191 21.9039 60.1331 21.9039 60.1191 21.876C60.1191 21.869 60.1191 21.8551 60.1191 21.8551C60.1191 21.8551 60.1191 21.8481 60.1191 21.8411C60.0137 21.7922 59.9576 21.7783 59.9365 21.7713C59.9154 21.7643 59.9365 21.7573 59.9646 21.7154C59.9435 21.7154 59.9224 21.7154 59.9154 21.7015C59.8592 21.6526 59.7961 21.5828 59.7329 21.5269C59.6135 21.4013 59.5011 21.2686 59.3747 21.1499C59.0798 20.9544 58.8832 20.6472 58.6164 20.4098C58.3355 20.1864 58.2372 19.7675 57.844 19.6488C57.5701 19.4114 57.3454 19.1112 57.0575 18.8738C56.8117 18.5946 56.566 18.3083 56.257 18.0849C56.1236 17.68 55.7725 17.4984 55.4425 17.275C55.1335 17.0446 54.8807 16.7514 54.635 16.4651C54.3541 16.2138 54.0943 15.9415 53.8415 15.6692C53.5395 15.4458 53.371 15.0897 53.0621 14.8872C52.7461 14.6848 52.6056 14.3147 52.2967 14.1192C52.0018 13.9098 51.7279 13.6794 51.5523 13.3652C51.4892 13.3024 51.44 13.2326 51.3838 13.1627L51.3066 13.058L51.2715 13.0022C51.2715 13.0022 51.2364 12.9603 51.2434 12.9603C51.2293 12.9184 51.1802 12.8625 51.1451 12.9393C51.117 12.9393 51.11 13.0231 51.124 13.072C51.124 13.1139 51.1521 13.1139 51.0117 12.7927C51.0117 12.8067 51.0117 12.8136 51.0117 12.8067C51.0117 12.8346 50.9836 12.7857 50.9625 12.7857C50.9414 12.7857 50.9344 12.8206 50.9836 12.9114C50.8853 12.8276 50.8853 12.9114 50.8993 12.9672C50.9134 12.9952 50.9274 13.0301 50.9414 13.051C50.9414 13.065 50.9555 13.072 50.9555 13.079V13.0929V13.1208C50.9555 13.1208 50.9555 13.1558 50.9555 13.1767C50.9204 13.4839 50.8502 13.7911 50.9344 14.0843C51.0257 14.3776 50.8853 14.6708 50.9134 14.9571C51.0257 15.2433 50.7659 15.5226 50.8923 15.7949C50.8642 16.0672 50.9134 16.3325 50.8712 16.5908C51.1381 16.8491 50.8712 17.1005 50.8431 17.3448C50.808 17.5892 51.0187 17.8266 50.815 18.057C51.0187 18.2874 50.8431 18.5108 50.787 18.7202C50.7308 18.9367 50.8712 19.1392 50.7589 19.3346C50.8993 19.5301 50.6816 19.7186 50.7308 19.9002C50.6395 20.0817 50.7308 20.2562 50.7027 20.4168C50.7308 20.5774 50.7238 20.738 50.6746 20.8776C50.6606 21.0242 50.6535 21.1569 50.6395 21.2826C50.5763 22.0436 50.5061 22.4555 50.4288 22.4555H50.4359Z" fill="black"/>
<path d="M34.3696 15.9276C34.4468 15.9276 34.5171 16.4023 34.5802 17.2611C34.5873 17.4077 34.6013 17.5613 34.6154 17.7289C34.6364 17.8964 34.6575 18.071 34.6434 18.2595C34.5451 18.448 34.826 18.6435 34.6715 18.846C34.6575 18.8948 34.6575 18.9507 34.6505 18.9996C34.6505 19.0275 34.6505 19.0554 34.6505 19.0764C34.6505 19.1113 34.6505 19.1532 34.6505 19.1881C34.6575 19.3417 34.6786 19.5022 34.6926 19.6768C34.7066 19.8234 34.6926 19.963 34.6926 20.0957C34.4819 20.0817 34.2853 20.0748 34.0957 20.1236C34.0255 20.1725 33.9202 20.1795 33.8219 20.1725C33.7727 20.1725 33.7236 20.1585 33.6744 20.1516C33.6393 20.1446 33.6112 20.1306 33.5761 20.1166C33.4497 20.0678 33.3233 20.0259 33.1899 20.1446C32.9301 20.1934 32.6562 20.1795 32.3754 20.1725C32.0945 20.0259 31.8066 20.1725 31.5117 20.1934C31.4415 20.1516 31.3642 20.1236 31.287 20.1097C31.2659 20.1097 31.2519 20.1027 31.2308 20.1027H31.1817C31.1817 20.1027 31.1395 20.1027 31.1255 20.1027C31.0482 20.1166 30.9921 20.1655 30.985 20.2283C30.9499 20.2004 30.9148 20.1795 30.8797 20.1585C30.7954 20.1376 30.7674 20.2214 30.7884 20.3121C30.8025 20.4099 30.8657 20.4518 30.971 20.6263C30.978 20.9475 30.8867 21.2826 30.9921 21.6177C30.9921 21.7015 31.0061 21.7853 31.0061 21.8761V22.0017L31.0201 22.0646V22.0785C31.0342 22.1204 31.0342 22.1553 31.0131 22.2182C31.0272 22.2182 31.0412 22.2112 31.0553 22.2042C31.1465 22.1483 31.1676 22.1204 31.1746 22.1274C31.1746 22.1274 31.1746 22.1274 31.1817 22.1344V22.1483H31.2097C31.294 22.1763 31.3712 22.1972 31.4555 22.2251C31.8206 22.0506 32.1928 22.1204 32.572 22.2112C32.7616 22.2601 32.9512 22.2251 33.1408 22.1902C33.2391 22.1763 33.3304 22.1623 33.4287 22.1553C33.4778 22.1553 33.527 22.1553 33.5761 22.1553C33.5972 22.1553 33.6253 22.1623 33.6463 22.1693C33.6885 22.1693 33.7376 22.1833 33.7798 22.1902C34.1519 22.1902 34.5311 22.1902 34.9173 22.1763C34.9243 22.5044 34.9313 22.8465 34.9173 23.1886L34.8892 23.4539L34.8611 23.6006C34.8471 23.6983 34.833 23.803 34.833 23.9008C34.826 24.1032 34.8471 24.3057 34.9243 24.5082C34.9665 24.9131 35.0226 25.3251 34.9313 25.744C34.9454 25.7789 34.9594 25.8138 34.9735 25.8487L34.9875 25.9046C34.9875 25.9046 34.9945 25.9046 35.0016 25.9115C35.0226 25.9115 35.0296 25.9115 35.0367 25.9115C35.0507 25.9115 35.0367 25.9115 35.0156 25.9325C35.0016 25.9534 34.9875 25.9814 34.9945 26.0093C35.0016 26.0093 35.0086 26.0093 35.0226 26.0093C35.0226 26.0093 35.0296 26.0093 35.0367 26.0093H35.0577C35.1631 26.0163 35.2684 26.0302 35.3807 26.0372C35.5984 26.0512 35.8091 26.0582 36.0268 26.0093C36.1321 26.0093 36.2444 26.0093 36.3498 26.0093H36.5113L36.5955 25.9953H36.6377C36.6657 25.9814 36.6658 25.9744 36.736 26.0163C36.736 26.0163 36.7921 25.9744 36.7992 25.9255V25.7928C36.7992 25.737 36.7992 25.6811 36.7921 25.6323C36.7851 25.5206 36.7641 25.4158 36.743 25.3111C36.6236 24.8782 36.7921 24.4523 36.743 24.0334C36.7851 23.9287 36.8062 23.824 36.8062 23.7193C36.8062 23.6634 36.8062 23.6145 36.8062 23.5587V23.4819L36.7992 23.4609V23.426V23.3562C36.7711 22.9862 36.7289 22.5603 36.757 22.1972V22.1763C37.1362 22.1763 37.5294 22.1972 37.8946 22.2112H38.1123C38.1614 22.2251 38.2176 22.2251 38.2667 22.2182C38.365 22.2182 38.4704 22.2042 38.5687 22.1833C38.976 22.1553 39.3832 22.1204 39.7835 22.1902C39.9801 22.0576 40.1837 22.0785 40.3803 22.1204L40.4505 22.1414H40.4857C40.4857 22.1414 40.5137 22.1553 40.5137 22.1623C40.5137 22.1763 40.5278 22.1833 40.5418 22.1972C40.5629 22.2182 40.591 22.2251 40.605 22.2112C40.6401 22.2321 40.6682 22.2461 40.6963 22.2531C40.7033 22.2251 40.6963 22.1693 40.6823 22.1344C40.6823 22.1134 40.6682 22.0995 40.6682 22.0785C40.6682 22.0785 40.6682 22.0506 40.6682 22.0366V21.9808C40.6682 21.9459 40.6682 21.904 40.6682 21.8691C40.6191 21.4921 40.7876 21.122 40.6823 20.759C40.6823 20.6752 40.6823 20.5914 40.6823 20.5146V20.4867C40.6823 20.4867 40.6823 20.4867 40.6823 20.4797V20.4657L40.6682 20.4378C40.6542 20.4029 40.6472 20.3889 40.6823 20.3261C40.6823 20.3261 40.6823 20.3121 40.6823 20.3052C40.584 20.368 40.591 20.347 40.5418 20.3052L40.5278 20.2912C40.5278 20.2912 40.4857 20.2842 40.4716 20.2772C40.4295 20.2772 40.3874 20.2633 40.3452 20.2633C40.261 20.2563 40.1697 20.2633 40.0854 20.2842C39.7484 20.2842 39.4113 20.2912 39.0883 20.2633C38.7653 20.0608 38.4423 20.2284 38.1333 20.2423H38.0842H38.021C37.9648 20.2423 37.9156 20.2423 37.8595 20.2423C37.7471 20.2423 37.6348 20.2563 37.5294 20.2633C37.3047 20.2772 37.073 20.2912 36.8904 20.2633C36.8975 20.1725 36.9185 20.0817 36.9396 19.991C36.9466 19.7466 36.9747 19.5022 36.9888 19.2788C36.9888 19.223 36.9888 19.1671 36.9958 19.1113C36.9958 19.0624 36.9958 19.0345 36.9958 18.9996C36.9958 18.9297 36.9817 18.8599 36.9607 18.7901C36.9326 18.5108 37.2626 18.2385 36.9888 17.9802C36.9396 17.7219 37.1994 17.4636 37.0168 17.2262C36.9326 17.1075 36.9396 16.9818 36.9607 16.8701C36.9888 16.7584 37.0379 16.6118 37.0449 16.5769C37.052 16.4652 37.066 16.3535 37.066 16.2487L37.0379 16.2348C36.8975 16.2208 36.7711 16.2138 36.6447 16.1999C36.441 16.1859 36.2444 16.1719 36.0619 16.1649C35.6967 16.137 35.3878 16.1161 35.142 16.0881C34.6434 16.0393 34.3766 15.9834 34.3766 15.9276C34.3766 15.8717 34.6505 15.8159 35.1631 15.767C35.4159 15.7391 35.7318 15.7181 36.104 15.6902C36.2936 15.6762 36.4972 15.6692 36.7079 15.6553C37.0168 15.6413 37.3469 15.6343 37.6909 15.6204C37.698 15.8927 37.705 16.1719 37.719 16.4652C37.719 16.6606 37.7612 16.7444 37.7822 16.8631C37.8033 16.9818 37.8103 17.1005 37.7471 17.2192C37.7471 17.4636 37.8595 17.7149 37.7752 17.9732C37.9718 18.2316 37.8103 18.5038 37.8033 18.7831C37.8033 18.8529 37.8033 18.9228 37.8033 18.9926V19.0903L37.7893 19.1322C37.7893 19.1881 37.7893 19.2579 37.8244 19.2788C37.8384 19.2788 37.8524 19.2788 37.8595 19.2928C37.9086 19.2788 37.9297 19.2928 37.9648 19.3137C37.9859 19.3137 38.0069 19.3277 38.028 19.3277C38.042 19.3277 38.0491 19.3277 38.0631 19.3277H38.0701H38.0912C38.1052 19.3277 38.1263 19.3277 38.1403 19.3207C38.4493 19.4394 38.7723 19.4045 39.0953 19.2998C39.4183 19.4185 39.7554 19.2788 40.0924 19.2788C40.1767 19.3207 40.261 19.3486 40.3522 19.3626C40.3944 19.3626 40.4365 19.3696 40.4786 19.3696H40.5489H40.6542C40.9351 19.3486 41.244 19.3068 41.5881 19.2649C41.6513 19.2649 41.7145 19.2509 41.7777 19.2509C41.7917 19.5232 41.7847 19.8234 41.7777 20.1166C41.7777 20.2563 41.7777 20.3889 41.7707 20.5286C41.7707 20.6123 41.7707 20.6891 41.7847 20.7729C41.7496 21.136 41.8339 21.506 41.7988 21.883L41.8198 21.9947V22.0506C41.8198 22.0506 41.8339 22.0785 41.8409 22.1204C41.8549 22.2601 41.8619 22.4067 41.869 22.5463C41.883 22.8395 41.883 23.1328 41.862 23.3981C41.6934 23.3911 41.5319 23.3702 41.3634 23.3492C41.1949 23.3632 41.0193 23.3702 40.8368 23.3771H40.5629H40.4084C40.2118 23.3771 40.0152 23.3632 39.8116 23.3632C39.4113 23.433 39.0111 23.3562 38.5968 23.3702C38.4985 23.3771 38.3931 23.3702 38.2948 23.3562L38.1403 23.3353L38.0701 23.3213C38.0701 23.3213 38.0561 23.3143 38.0561 23.3073C38.014 23.2794 37.9156 23.2724 37.9788 23.3632C37.9929 23.4051 37.9788 23.419 37.9788 23.4539C37.9788 23.4539 37.9788 23.4539 37.9788 23.4609V23.5587V23.7193C37.9788 23.824 37.9788 23.9287 37.9929 24.0334C37.9648 24.4593 37.9437 24.8852 37.9929 25.3111C37.9437 25.4158 37.9156 25.5275 37.9016 25.6323C37.9016 25.6881 37.8876 25.737 37.8876 25.7928V25.9883C37.9086 26.3654 37.9578 26.7703 37.9929 27.2241C37.6067 27.252 37.1783 27.259 36.757 27.252H36.6377H36.5534H36.3919L36.0689 27.2241C35.8512 27.2311 35.6406 27.2381 35.4229 27.2311C35.1209 27.2311 34.819 27.2241 34.5241 27.2171C34.2643 27.2381 34.0045 27.2311 33.7657 27.2241C33.7798 26.9448 33.7868 26.6726 33.8008 26.4003C33.8008 26.2676 33.8008 26.135 33.8008 26.0023V25.9046L33.7938 25.8487C33.7938 25.8138 33.7868 25.7789 33.7798 25.744C33.6955 25.332 33.871 24.9201 33.7868 24.5082C33.7587 24.3057 33.7376 24.1032 33.7306 23.9008C33.7306 23.803 33.7306 23.6983 33.7446 23.6006C33.7446 23.5517 33.7587 23.5028 33.7657 23.4539C33.7657 23.447 33.7657 23.44 33.7657 23.447L33.7727 23.44L33.7868 23.426C33.7868 23.426 33.8289 23.3492 33.85 23.2794C33.8289 23.2515 33.7446 23.2445 33.6885 23.3283C33.6885 23.3283 33.6814 23.3283 33.6744 23.3353L33.6042 23.3492L33.4567 23.3771C33.3584 23.3981 33.2601 23.419 33.1688 23.433C32.9793 23.4609 32.7897 23.447 32.6001 23.3143C32.2209 23.3841 31.8487 23.1886 31.4836 23.3003C31.3993 23.2585 31.3151 23.2305 31.2378 23.2166H31.2097H31.1606H31.0623C30.9921 23.2166 30.9289 23.2166 30.8586 23.2166C30.5848 23.2305 30.2829 23.2724 29.9879 23.2794C29.9879 23.2235 29.9879 23.1607 29.9879 23.1049C30.009 22.7767 30.0301 22.4695 30.0441 22.1763C30.0441 22.1204 30.0441 22.0576 30.0441 22.0017C30.0441 21.9598 30.0441 21.9179 30.0441 21.8761C30.0441 21.7923 30.023 21.7015 30.002 21.6177C29.9107 21.2826 30.0511 20.9475 30.023 20.6263C30.009 20.5914 30.002 20.5565 29.995 20.5216C29.995 20.5006 29.995 20.4867 29.995 20.4657V20.375C29.995 20.2493 30.009 20.1306 30.0301 20.0119C30.0581 19.7815 30.1003 19.586 30.0722 19.3417C30.1213 19.3417 30.1705 19.3277 30.2126 19.3137C30.4865 19.3277 30.7322 19.3207 30.985 19.3137C31.0482 19.3137 31.1114 19.3137 31.1746 19.3137H31.301C31.3783 19.3137 31.4485 19.3207 31.5257 19.3347C31.8206 19.0694 32.1085 19.3347 32.3894 19.3556C32.6703 19.3975 32.9371 19.1811 33.204 19.3836C33.3374 19.2858 33.4638 19.2788 33.5902 19.2998C33.6182 19.2998 33.6534 19.3137 33.6814 19.3207L33.7166 19.3486C33.7166 19.3486 33.7798 19.3905 33.8078 19.4045C33.8921 19.4394 33.9483 19.4045 33.9904 19.3905C33.9834 19.3347 33.9904 19.3068 34.0325 19.2858C33.9623 19.1881 33.9834 19.1671 34.0115 19.1182C34.0185 19.1043 34.0255 19.0973 34.0325 19.0764C34.0396 19.0484 34.0466 19.0205 34.0536 18.9996C34.0677 18.9437 34.0677 18.8948 34.0536 18.846C34.1449 18.6435 34.0536 18.448 34.0817 18.2595C34.0536 18.071 34.0606 17.8964 34.1168 17.7289C34.1308 17.5613 34.1379 17.4077 34.1519 17.2611C34.2151 16.3953 34.2853 15.9276 34.3626 15.9276H34.3696Z" fill="black"/>
<path d="M11.5553 16.8561C11.5904 16.8561 11.6325 17.3867 11.6676 18.4061C11.7027 19.4254 11.7378 20.9265 11.7729 22.8744C11.78 23.5237 11.794 24.2219 11.808 24.962C11.8291 25.709 11.8502 26.498 11.8432 27.3358C11.7449 28.1736 12.0257 29.0603 11.8712 29.9819C11.8291 30.9105 11.8712 31.8809 11.8993 32.8933C11.9344 33.9057 11.8361 34.9599 11.9274 36.0561C12.117 37.1522 11.7168 38.2902 11.9555 39.4632C12.0047 40.6431 11.9906 41.851 11.9836 43.1077C11.8361 44.3574 11.9836 45.6491 12.0047 46.9756C11.8291 48.3021 11.9064 49.6636 12.0257 51.053C11.787 52.4493 11.8221 53.8736 12.0468 55.3398C12.0538 56.799 11.9625 58.2931 12.0679 59.8151C12.0819 61.3372 12.1311 62.8941 12.0889 64.472C12.2504 66.0569 12.2434 67.6697 12.103 69.3034L12.124 69.5478V69.5966V69.6106L12.1381 69.6315C12.1521 69.6595 12.1591 69.6734 12.1662 69.6874L12.2364 69.6665H12.2504H12.2996H12.5524C12.8894 69.6665 13.2194 69.6665 13.5565 69.6734C14.2306 69.6874 14.9047 69.7223 15.5858 69.7572C17.2851 69.855 19.0125 69.6036 20.768 69.7433C22.5164 69.7502 24.293 69.7014 26.0906 69.7293C27.8882 69.7991 29.7068 69.8759 31.5466 69.7223C33.3863 69.6804 35.2471 69.6246 37.129 69.7153C39.0109 69.5338 40.9068 69.6106 42.8237 69.7153C44.7407 69.6874 46.6717 69.8131 48.6238 69.7153C49.5999 69.7293 50.5759 69.7153 51.559 69.6944C52.0505 69.6944 52.542 69.6804 53.0336 69.6804C53.2793 69.6804 53.5251 69.6804 53.7709 69.6874H53.813H53.827H53.8551L53.9113 69.7014C53.9113 69.7014 53.9254 69.6385 53.9324 69.6036C53.9324 69.3732 53.9464 69.1498 53.9534 68.9264C53.9675 68.4726 53.9745 68.0118 53.9745 67.558C53.9745 67.1041 53.9745 66.6503 53.9745 66.1965L53.9605 65.5262C53.9605 65.4774 53.9464 65.4355 53.9394 65.4076C53.9113 65.4076 53.8832 65.4215 53.8622 65.4285H53.8341L53.82 65.4425H53.799H53.7568L53.3917 65.4564C53.1459 65.4564 52.9072 65.4634 52.6614 65.4704C52.1769 65.4704 51.6924 65.4704 51.2079 65.4494C50.2389 65.4285 49.2769 65.4006 48.3219 65.4215C46.4049 65.247 44.509 65.4774 42.6271 65.4215C40.7453 65.4355 38.8845 65.3238 37.0447 65.4145C35.205 65.4494 33.3863 65.4774 31.5887 65.4076C29.7911 65.6729 28.0146 65.3377 26.2661 65.4006C24.5177 65.2889 22.7903 65.4145 21.084 65.3866C20.6275 65.4006 20.1781 65.4006 19.7217 65.3866C19.49 65.3866 19.2583 65.3726 19.0266 65.3726C18.6403 65.3726 18.2471 65.3587 17.8609 65.3517C17.8609 65.0166 17.8679 64.6814 17.875 64.3463C17.875 64.1229 17.875 63.9065 17.875 63.69C17.875 63.306 17.8609 62.922 17.8399 62.545C17.8609 60.9043 17.7556 59.2915 17.8539 57.7136C17.7205 56.1287 17.9662 54.5788 17.875 53.0567C17.875 51.5347 17.8679 50.0406 17.896 48.5814C18.1067 47.1222 17.9311 45.6909 17.9171 44.2946C17.9382 42.8982 17.7977 41.5368 17.9382 40.2172C17.9522 38.8907 18.0435 37.606 17.9662 36.3493C17.9382 35.0996 18.2682 33.8847 17.9943 32.7048C17.9452 31.5319 18.205 30.3938 18.0224 29.2977C17.8539 28.2015 18.0435 27.1473 18.0505 26.1349C18.0646 25.1226 18.0716 24.1521 18.0786 23.2235C18.0926 22.0087 18.1067 20.8706 18.1207 19.8094C18.1278 19.2788 18.1348 18.7691 18.1418 18.2804C18.1418 18.036 18.1418 17.7987 18.1488 17.5613C18.1488 17.4007 18.1488 17.2401 18.1629 17.0865C17.1447 17.0656 16.2389 17.0516 15.4524 17.0307C14.6028 17.0097 13.8936 16.9957 13.3178 16.9748C12.1591 16.9399 11.5553 16.898 11.5553 16.8561C11.5553 16.8142 12.1591 16.7793 13.3178 16.7444C13.8936 16.7235 14.6098 16.7095 15.4594 16.6885C15.8807 16.6816 16.3372 16.6746 16.8287 16.6606C17.3905 16.6536 17.9873 16.6467 18.6193 16.6327C18.6333 17.9383 18.6544 19.4184 18.6755 21.0452C18.6895 22.5951 18.7106 24.2847 18.7316 26.121C18.7387 27.1333 18.8861 28.1876 18.7597 29.2837C18.7597 30.3799 18.8721 31.5179 18.7878 32.6908C18.9774 33.8638 18.8229 35.0786 18.8159 36.3353C18.8229 37.5851 18.7597 38.8767 18.837 40.2033C18.9493 41.5298 18.7808 42.8912 18.858 44.2806C18.7387 45.677 18.7738 47.1013 18.8791 48.5675C18.7667 50.0266 18.9072 51.5208 18.9002 53.0428C18.7246 54.5648 18.851 56.1218 18.9212 57.6996C18.9844 59.2845 18.8931 60.8973 18.9353 62.5311C18.9282 62.9151 18.9282 63.2921 18.9282 63.6761V63.9623V64.1089V64.1508V64.1648V64.2835L19.0757 64.2765C19.2934 64.2765 19.5111 64.2765 19.7287 64.2695C20.1781 64.2695 20.6346 64.2695 21.091 64.2695C22.7903 64.1857 24.5177 64.1578 26.2731 64.2556C28.0216 64.1997 29.7981 64.2416 31.5957 64.2416C33.3933 64.1718 35.212 64.2486 37.0517 64.2346C38.8915 64.1997 40.7523 64.4231 42.6342 64.2276C44.516 64.1997 46.4119 64.2556 48.3289 64.2276C49.2839 64.2416 50.2459 64.2556 51.2149 64.2556C51.6994 64.2556 52.1839 64.2556 52.6684 64.2556C53.2442 64.2486 53.813 64.2346 54.3888 64.2276L55.105 64.2625C55.091 64.6954 55.0769 65.1073 55.0629 65.5053L55.0489 65.8544V66.1965C55.0278 66.6503 55.0348 67.1041 55.0489 67.558C55.0559 68.0118 55.0769 68.4726 55.091 68.9264C55.098 69.1568 55.1121 69.3872 55.1191 69.6176C55.1261 70.0505 55.1401 70.4763 55.1472 70.9092C54.445 70.9162 53.7498 70.9302 53.0476 70.9371C52.5561 70.9371 52.0646 70.9371 51.573 70.9371C50.59 70.9371 49.6139 70.9162 48.6379 70.9092C46.6858 70.9302 44.7548 70.9162 42.8378 70.9092C40.9208 70.9651 39.0249 70.8254 37.143 70.9092C35.2612 70.993 33.4004 70.8185 31.5606 70.9022C29.7209 70.9581 27.9022 70.986 26.1046 70.8953C24.307 70.8953 22.5305 70.7207 20.782 70.8813C19.0336 70.9162 17.3062 71.1396 15.5999 70.8673C14.9187 70.8953 14.2446 70.8813 13.5705 70.8603C13.2335 70.8464 12.8964 70.8394 12.5664 70.8324H12.3136L11.9134 70.8254C11.6255 70.8254 11.3376 70.8254 11.0497 70.8254C11.0497 70.5392 11.0497 70.2599 11.0356 69.9737V69.7572C11.0356 69.6874 11.0286 69.6036 11.0216 69.5757L11.0076 69.3313C11.2042 67.6906 11.0146 66.0778 11.0216 64.4999C11.0567 62.9151 11.1269 61.3651 11.0427 59.8431C10.9514 58.321 11.0918 56.8269 11.0637 55.3677C10.9514 53.9085 11.2112 52.4773 11.0848 51.0809C11.1129 49.6845 11.0707 48.3231 11.1059 47.0035C10.839 45.677 11.1059 44.3854 11.1339 43.1356C11.1691 41.8859 10.9584 40.671 11.162 39.4911C10.9584 38.3182 11.1339 37.1801 11.1901 36.084C11.2463 34.9878 11.1059 33.9336 11.2182 32.9212C11.0778 31.9089 11.2955 30.9384 11.2463 30.0098C11.3376 29.0812 11.2463 28.2015 11.2744 27.3637C11.2393 26.5259 11.2533 25.737 11.3025 24.9899C11.3165 24.2429 11.3235 23.5447 11.3376 22.9023C11.3727 20.9544 11.4078 19.4533 11.4429 18.434C11.478 17.4147 11.5131 16.884 11.5482 16.884L11.5553 16.8561Z" fill="black"/>
</g>
<defs>
<clipPath id="clip0_3267_38480">
<rect width="51" height="61" fill="white" transform="translate(11 10)"/>
</clipPath>
</defs>
</svg>
