<svg width="110" height="80" viewBox="0 0 110 80" fill="none" xmlns="http://www.w3.org/2000/svg">
<rect x="18" y="3" width="71" height="66" rx="5" fill="#DEFCFF"/>
<rect y="32" width="74" height="35" rx="5" fill="#F2D3FF"/>
<g clip-path="url(#clip0_3267_38506)">
<path d="M27.0194 21.83C27.0794 21.83 27.1294 22.38 27.1794 23.44C27.2294 24.5 27.2794 26.07 27.3294 28.09C27.3494 28.77 27.3594 29.49 27.3794 30.27C27.4094 31.05 27.4394 31.87 27.4294 32.74C27.2794 33.61 27.6994 34.53 27.4794 35.5C27.4194 36.46 27.4794 37.48 27.5194 38.53C27.5694 39.59 27.4294 40.69 27.5594 41.83C27.8494 42.97 27.2394 44.16 27.5994 45.38C27.6794 46.61 27.6594 47.87 27.6394 49.18C27.4194 50.48 27.6394 51.83 27.6794 53.21C27.4194 54.59 27.5294 56.01 27.7094 57.46C27.3494 58.91 27.3994 60.4 27.7394 61.92C27.7394 62.68 27.7094 63.45 27.6994 64.23C27.6994 64.62 27.6994 65.01 27.6994 65.4C27.6994 65.6 27.7094 65.79 27.7194 65.99C27.7294 66.07 27.7494 66.12 27.7694 66.17C27.7694 66.21 27.7694 66.25 27.7694 66.29H27.9294L28.0094 66.27H28.0494C28.0494 66.27 28.0494 66.27 28.1194 66.27C28.4794 66.27 28.8494 66.26 29.2194 66.25C29.9494 66.25 30.6894 66.25 31.4394 66.27C31.8494 66.21 32.2694 66.17 32.6794 66.14H32.8394L32.8594 66.13L32.8894 66.11C32.9094 66.11 32.9094 66.08 32.9194 66.07C32.9194 66.08 32.9194 66.06 32.9294 66.05L32.9494 66.01L33.1094 65.69C33.2194 65.48 33.3594 65.28 33.4894 65.09C33.6394 64.9 33.7794 64.71 33.9394 64.53L34.1894 64.27L34.3194 64.14L34.4594 64.02C35.0094 63.24 35.7794 62.59 36.6594 62.15C37.5394 61.72 38.5294 61.49 39.5094 61.45C40.4894 61.42 41.4694 61.42 42.4494 61.64C43.4194 61.85 44.3994 62.26 45.1494 62.94C45.9594 63.55 46.6794 64.29 47.2294 65.15C47.3594 65.37 47.5094 65.59 47.6094 65.82L47.7394 66.09L47.7594 66.14C47.7594 66.19 47.8194 66.17 47.8494 66.18H47.8794H48.0194H48.3694C50.2294 66.29 52.1194 66.41 54.0194 66.18C55.9294 66.12 57.8494 66.03 59.7994 66.17C61.7494 65.9 63.7094 66.02 65.6994 66.17C67.6794 66.13 69.6894 66.32 71.7094 66.17C73.7294 66.21 75.7594 66.05 77.8094 66.17C78.1594 66.18 78.4994 66.2 78.8494 66.21C78.9094 66.22 78.9894 66.23 79.0694 66.24C79.0694 66.18 79.0794 66.1 79.0894 66.02V65.54V65.04C79.0894 64.37 79.0494 63.7 78.9994 63.04C78.8194 61.02 79.0694 59.02 78.9994 57.03C79.2594 55.05 78.9194 53.08 78.9994 51.13C78.9694 49.18 79.1494 47.25 79.0094 45.35C78.9594 43.44 78.9094 41.56 79.0194 39.7C78.6194 37.84 79.1194 36 79.0394 34.19C79.2094 32.38 79.0094 30.59 79.0594 28.82C78.9794 27.06 79.2394 25.32 79.0794 23.61V23.17V22.95V22.87V22.84C79.0794 22.77 79.0694 22.7 79.0594 22.64L78.8694 22.66H78.8294H78.6294H78.2194C77.6794 22.66 77.1394 22.65 76.5994 22.6C74.9494 22.8 73.3294 22.43 71.7394 22.57C70.1494 22.57 68.5994 22.58 67.0794 22.54C65.5594 22.23 64.0694 22.49 62.6194 22.51C61.1694 22.48 59.7494 22.69 58.3694 22.47C56.9894 22.45 55.6494 22.31 54.3394 22.43C53.0394 22.47 51.7694 21.98 50.5494 22.39C49.3194 22.46 48.1394 22.07 46.9994 22.35C45.8594 22.6 44.7594 22.32 43.6994 22.31C42.6394 22.29 41.6294 22.28 40.6694 22.27C36.3194 22.2 32.8994 22.13 30.5694 22.05C28.2394 21.97 26.9894 21.89 26.9894 21.81C26.9894 21.72 28.5294 21.63 31.3894 21.54C34.2494 21.46 38.4294 21.38 43.7094 21.3C44.7694 21.29 45.8594 21.07 47.0094 21.26C48.1494 21.26 49.3394 21.09 50.5594 21.22C51.7794 20.93 53.0494 21.17 54.3494 21.18C55.6494 21.17 56.9994 21.26 58.3794 21.14C59.7594 20.97 61.1794 21.22 62.6294 21.1C64.0794 21.28 65.5694 21.23 67.0894 21.07C68.6094 21.24 70.1694 21.03 71.7494 21.04C73.3394 21.31 74.9594 21.12 76.6094 21.01C77.1494 20.98 77.6894 20.97 78.2294 20.97C79.0394 20.97 79.8594 20.99 80.6794 20.99C80.6794 21.51 80.6794 22.04 80.6794 22.56V23.12L80.6994 23.56C80.6494 25.27 80.7694 27 80.7194 28.77C80.8394 30.53 80.8894 32.32 80.7394 34.14C80.8194 35.95 80.7594 37.79 80.7594 39.65C80.8694 41.51 80.7494 43.4 80.7694 45.3C80.8294 47.21 80.4894 49.13 80.7794 51.08C80.8194 53.03 80.7294 54.99 80.7794 56.98C80.7394 58.97 80.6994 60.97 80.7794 62.99C80.6794 63.66 80.6394 64.33 80.6294 64.99V65.49V66.02C80.6294 66.6 80.6494 67.2 80.6694 67.81C80.0594 67.83 79.4394 67.85 78.8294 67.87C78.4794 67.89 78.1294 67.91 77.7894 67.93C75.7394 68.01 73.7094 67.97 71.6894 67.93C69.6694 67.96 67.6694 67.94 65.6794 67.93C63.6994 68.02 61.7294 67.81 59.7794 67.93C57.8294 68.05 55.9094 67.8 53.9994 67.92C52.0894 68 50.2094 68.05 48.3494 67.91C48.0594 67.91 47.7694 67.91 47.4694 67.9H46.8394L46.6794 67.88H46.5994C46.5994 67.88 46.5794 67.83 46.5694 67.81L46.4594 67.51L46.2394 66.92L46.0894 66.56C46.0194 66.37 45.9094 66.19 45.8194 66.01C45.4194 65.3 44.8294 64.68 44.1094 64.3C43.4494 63.85 42.6794 63.6 41.9294 63.44C41.1794 63.28 40.4294 63.21 39.6394 63.09C38.8694 63.22 38.1194 63.4 37.4094 63.71C36.7094 64.03 36.0594 64.49 35.5994 65.11L35.4794 65.19L35.3694 65.29C35.2994 65.35 35.2294 65.42 35.1594 65.49C35.0294 65.63 34.9094 65.78 34.7994 65.93C34.6994 66.09 34.5894 66.25 34.5094 66.42L34.3894 66.68L34.3594 66.76C34.3594 66.76 34.3194 66.86 34.2994 66.9L34.2094 67.15L34.0194 67.65L33.9994 67.71C33.9994 67.71 33.9994 67.76 33.9594 67.76H33.8294L33.5694 67.77L33.0394 67.79H32.7894L32.6294 67.81C32.2094 67.83 31.7994 67.85 31.3894 67.84C30.6394 67.81 29.9094 67.78 29.1694 67.76C28.7994 67.76 28.4394 67.75 28.0694 67.75C27.7694 67.75 27.4794 67.75 27.1794 67.75C26.8694 67.75 26.5594 67.76 26.2394 67.77C26.2294 67.52 26.2194 67.26 26.2094 67.01C26.1894 66.68 26.1794 66.32 26.1694 65.98C26.1694 65.78 26.1594 65.59 26.1594 65.39C26.1594 65 26.1694 64.61 26.1894 64.22C26.2194 63.44 26.2594 62.67 26.2394 61.91C26.0694 60.39 26.4594 58.9 26.2694 57.45C26.3094 56 26.2394 54.58 26.2994 53.2C25.8994 51.82 26.2994 50.48 26.3394 49.17C26.3994 47.87 26.0794 46.6 26.3794 45.37C26.0794 44.14 26.3394 42.96 26.4194 41.82C26.5094 40.68 26.2894 39.58 26.4594 38.52C26.2494 37.46 26.5794 36.45 26.4994 35.49C26.6394 34.52 26.4994 33.6 26.5494 32.73C26.4994 31.86 26.5194 31.03 26.5994 30.26C26.6194 29.48 26.6294 28.76 26.6494 28.08C26.6994 26.05 26.7494 24.49 26.7994 23.43C26.8494 22.37 26.9094 21.82 26.9594 21.82L27.0194 21.83Z" fill="black"/>
<path d="M79.9003 37.07C80.0103 37.07 80.1203 38.31 80.2203 40.57C80.2303 40.95 80.2503 41.35 80.2703 41.79C80.3003 42.22 80.3303 42.68 80.3203 43.17C80.1703 43.66 80.5903 44.17 80.3603 44.71C80.2903 45.25 80.3603 45.81 80.4003 46.4C80.4503 46.99 80.3103 47.6 80.4403 48.24C80.7303 48.88 80.1203 49.54 80.4803 50.22C80.5603 50.9 80.5403 51.61 80.5203 52.34C80.3003 53.07 80.5203 53.82 80.5603 54.59C80.3003 55.36 80.4103 56.15 80.5903 56.96C80.2303 57.77 80.2903 58.6 80.6203 59.45C80.6303 60.3 80.4903 61.17 80.6503 62.05C80.6703 62.94 80.7403 63.84 80.6803 64.76C80.7803 65.14 80.8303 65.51 80.8503 65.9V65.97V66.01C80.8503 66.01 80.8503 66.01 80.8503 66.02C80.8503 66.02 80.8503 66.04 80.8503 66.05C80.8503 66.07 80.8203 66.1 80.7903 66.16C80.7903 66.18 80.7903 66.22 80.8203 66.25C80.8603 66.22 80.9003 66.19 80.9203 66.17H80.9403V66.15C80.9403 66.15 80.9403 66.15 80.9603 66.15L81.1403 66.13C81.3803 66.11 81.6203 66.1 81.8603 66.1C82.3403 66.1 82.8303 66.17 83.3203 66.24C84.3003 66.39 85.3003 66.01 86.3103 66.22H86.6903H86.7403H86.7603H86.8003C86.8203 66.22 86.8503 66.22 86.8703 66.21L86.8903 66.14C86.8903 66.14 86.9003 66.1 86.8903 66.12L86.9703 65.95C87.0303 65.82 87.0903 65.69 87.1603 65.56C87.3003 65.31 87.4503 65.06 87.6303 64.83C87.8103 64.6 88.0303 64.4 88.2203 64.19C88.4403 64 88.6403 63.79 88.8603 63.61C89.2903 63.22 89.7403 62.86 90.1903 62.46C90.6903 62.13 91.2303 61.86 91.8103 61.66C92.3903 61.46 93.0003 61.37 93.6103 61.38C94.2103 61.21 94.8403 61.18 95.4603 61.29C96.0803 61.4 96.6803 61.62 97.2303 61.92C97.8103 62.13 98.3603 62.45 98.8603 62.83C99.3603 63.21 99.8203 63.62 100.3 64.04C100.7 64.53 101.1 65.02 101.42 65.58C101.5 65.72 101.57 65.86 101.65 66L101.68 66.05C101.68 66.05 101.7 66.09 101.7 66.08C101.7 66.08 101.7 66.08 101.7 66.07V66.09C101.7 66.13 101.73 66.13 101.76 66.16H101.77C101.77 66.16 101.79 66.17 101.81 66.17H101.86L102.07 66.19L102.5 66.22C102.78 66.24 103.07 66.25 103.35 66.25C103.92 66.25 104.48 66.25 105.05 66.16C105.48 66.09 105.9 66.09 106.32 66.1H106.48H106.52C106.53 66.1 106.55 66.1 106.55 66.1L106.59 66.12C106.62 66.13 106.66 66.15 106.7 66.15C106.7 66.12 106.71 66.07 106.7 66.02C106.72 66.02 106.73 66 106.74 65.99C106.74 65.99 106.74 65.97 106.74 65.95V65.9L106.76 65.8C106.77 65.66 106.78 65.52 106.79 65.39C106.79 65.11 106.79 64.84 106.76 64.56C106.72 64.01 106.66 63.47 106.7 62.92C106.67 61.83 106.85 60.76 106.71 59.69C106.66 58.63 106.61 57.57 106.72 56.54C106.32 55.5 106.82 54.48 106.74 53.46C106.82 53 106.82 52.55 106.8 52.1C106.8 51.87 106.78 51.65 106.77 51.43V51.26L106.76 51.18C106.76 51.16 106.76 51.16 106.76 51.16C106.76 51.14 106.76 51.11 106.76 51.09C106.75 51.07 106.73 51.06 106.72 51.04H106.7C106.7 51.04 106.69 51.02 106.68 51.01L106.65 50.98L106.52 50.85C106.44 50.76 106.36 50.67 106.28 50.57C106.12 50.38 105.97 50.19 105.82 50C105.52 49.62 105.21 49.25 104.83 48.96C104.21 48.24 103.45 47.66 102.94 46.88C102.17 46.34 101.82 45.43 101.12 44.87C100.52 44.22 99.9203 43.59 99.3703 42.94C99.0203 42.11 98.2703 41.67 97.7003 41.09C97.1703 40.47 96.4803 40.03 96.1103 39.33C95.8603 39.04 95.6303 38.73 95.3903 38.44C95.2703 38.29 95.1503 38.15 95.0203 38.02C94.9003 37.9 94.7203 37.73 94.6803 37.73C94.6503 37.71 94.6303 37.68 94.6103 37.64C94.5503 37.62 94.5003 37.59 94.4003 37.56C94.2403 37.53 94.0903 37.49 93.9303 37.47C93.6203 37.42 93.3203 37.43 93.0203 37.61C92.3403 37.68 91.6803 37.29 91.0403 37.57C90.4003 37.82 89.7903 37.54 89.2003 37.53C88.6103 37.52 88.0503 37.5 87.5103 37.49C82.6603 37.36 79.8803 37.2 79.8803 37.03C79.8803 36.94 80.7403 36.85 82.3303 36.76C83.9203 36.67 86.2603 36.6 89.2003 36.53C89.7903 36.52 90.4003 36.3 91.0403 36.49C91.6803 36.49 92.3403 36.32 93.0203 36.45C93.3203 36.32 93.6203 36.3 93.9303 36.31C94.0803 36.31 94.2403 36.33 94.4003 36.35C94.5203 36.35 94.6503 36.37 94.7803 36.38L95.1603 36.4C95.2503 36.51 95.3503 36.62 95.4503 36.73C95.6803 36.98 95.7703 37.08 95.9003 37.22C96.0203 37.36 96.1403 37.5 96.2703 37.64C96.5203 37.92 96.7803 38.2 97.0803 38.44C97.7303 38.89 98.0803 39.64 98.7203 40.16C99.1403 40.87 99.7403 41.45 100.44 41.96C100.89 42.7 101.63 43.19 102.23 43.85C102.64 44.68 103.39 45.22 104.09 45.82C104.79 46.43 105.32 47.21 106.02 47.86C106.33 48.23 106.66 48.57 107.01 48.91C107.18 49.08 107.35 49.25 107.52 49.43L107.77 49.7L108.07 50.04C108.2 50.17 108.34 50.29 108.47 50.42L108.5 51.03V51.18L108.51 51.26V51.43C108.53 51.65 108.54 51.88 108.54 52.1C108.54 52.55 108.51 53 108.45 53.46C108.53 54.47 108.47 55.5 108.47 56.54C108.58 57.58 108.46 58.63 108.48 59.69C108.54 60.75 108.2 61.83 108.49 62.92C108.51 63.46 108.49 64.01 108.49 64.56C108.49 64.83 108.49 65.11 108.49 65.39V65.8C108.49 66 108.5 66.21 108.51 66.41C108.51 66.91 108.49 67.41 108.48 67.91C108.09 67.91 107.7 67.91 107.31 67.9C106.98 67.9 106.66 67.9 106.33 67.9C105.91 67.9 105.48 67.92 105.06 67.95C104.5 67.8 103.93 67.78 103.36 67.8C103.08 67.81 102.79 67.83 102.51 67.86L102.08 67.9L101.87 67.92H101.82C101.82 67.92 101.79 67.93 101.75 67.93H101.55C101.28 67.95 101 67.96 100.73 67.97H100.52H100.47C100.45 67.97 100.46 67.94 100.44 67.93L100.4 67.84L100.24 67.47L100.08 67.09L100.04 67L99.9903 66.89C99.9903 66.89 99.9703 66.84 99.9603 66.82L99.9403 66.78L99.7803 66.45C99.5503 66.02 99.2803 65.6 98.9703 65.22C98.2903 64.51 97.4803 63.93 96.5903 63.56C96.1303 63.41 95.6703 63.28 95.2003 63.17C94.7303 63.07 94.2403 63.04 93.7703 63.13C93.3003 63.24 92.8403 63.28 92.3803 63.39C91.9303 63.51 91.4603 63.65 91.0903 63.95C90.7103 64.22 90.3503 64.51 90.0303 64.83C89.8603 64.98 89.7103 65.15 89.5403 65.3C89.3903 65.47 89.2203 65.62 89.0603 65.79C88.9203 65.97 88.8003 66.16 88.6603 66.35C88.5903 66.44 88.5403 66.54 88.4803 66.64L88.4403 66.71L88.4203 66.75V66.77C88.4203 66.77 88.4003 66.8 88.3903 66.81C88.3303 66.94 88.2903 67.02 88.2403 67.13C88.1503 67.33 88.0603 67.53 87.9803 67.73L87.9603 67.77V67.79H87.9303H87.8503H87.3503L87.0203 67.81H86.8503C86.8003 67.82 86.7303 67.83 86.7103 67.83C86.5803 67.85 86.4603 67.87 86.3303 67.9C85.3203 67.96 84.3203 68.28 83.3403 67.88C82.8503 67.93 82.3603 67.88 81.8803 67.84C81.6403 67.82 81.4003 67.8 81.1603 67.8H80.9803H80.6803C80.4703 67.8 80.2603 67.82 80.0303 67.84C79.7503 67.79 79.4803 67.75 79.2103 67.73C79.2303 67.38 79.2403 67.06 79.2303 66.75C79.2303 66.59 79.2303 66.43 79.2203 66.27V66.03L79.2103 65.97V65.93V65.86C79.1803 65.48 79.1303 65.1 79.1403 64.72C79.2003 63.8 79.3003 62.9 79.1703 62.01C79.0303 61.12 79.2503 60.26 79.2003 59.41C79.0303 58.56 79.4203 57.73 79.2303 56.92C79.2703 56.11 79.2003 55.32 79.2603 54.55C78.8603 53.78 79.2603 53.03 79.3003 52.3C79.3603 51.57 79.0403 50.87 79.3403 50.18C79.0403 49.5 79.3003 48.84 79.3803 48.2C79.4703 47.56 79.2503 46.95 79.4203 46.36C79.2103 45.77 79.5403 45.21 79.4603 44.67C79.6003 44.13 79.4603 43.62 79.5003 43.13C79.4503 42.64 79.4703 42.18 79.5503 41.75C79.5703 41.32 79.5803 40.91 79.6003 40.53C79.7003 38.27 79.8003 37.03 79.9203 37.03L79.9003 37.07Z" fill="black"/>
<path d="M86.2609 37.07C86.3709 37.07 86.4809 37.84 86.5809 39.26C86.5909 39.5 86.6109 39.75 86.6309 40.02C86.6609 40.29 86.6909 40.58 86.6809 40.89C86.5309 41.19 86.9509 41.52 86.7209 41.85C86.6509 42.19 86.7209 42.54 86.7609 42.91C86.8109 43.28 86.6709 43.66 86.8009 44.06C87.0909 44.46 86.4809 44.87 86.8409 45.3C86.9209 45.73 86.9009 46.17 86.8809 46.63C86.6609 47.09 86.8809 47.56 86.9209 48.04C86.6609 48.52 86.7709 49.02 86.9509 49.52C86.5909 50.03 86.6509 50.55 86.9809 51.08C86.9909 51.61 86.8509 52.16 87.0109 52.71C87.0209 52.99 87.0409 53.27 87.0609 53.55C87.0709 53.62 87.0709 53.67 87.0409 53.78C87.0709 53.78 87.0909 53.77 87.1109 53.76C87.2509 53.68 87.2709 53.64 87.2909 53.65C87.2909 53.65 87.2909 53.65 87.3109 53.66C87.3109 53.66 87.3409 53.67 87.3509 53.67L87.4509 53.69C87.5809 53.72 87.7209 53.75 87.8509 53.8C88.4509 53.54 89.0509 53.64 89.6709 53.78C90.2909 53.92 90.9109 53.55 91.5409 53.76C92.1709 53.78 92.8209 53.7 93.4709 53.74C94.1209 53.85 94.7809 53.96 95.4409 53.73C96.1109 53.67 96.7809 53.58 97.4609 53.72C98.1409 53.44 98.8309 53.57 99.5209 53.72C100.211 53.67 100.911 53.87 101.621 53.72C102.331 53.76 103.041 53.6 103.751 53.72C104.471 53.8 105.181 53.88 105.881 53.72C106.031 53.68 106.171 53.67 106.321 53.66C106.391 53.66 106.461 53.66 106.541 53.66C106.591 53.66 106.581 53.66 106.581 53.66H106.601C106.601 53.66 106.691 53.73 106.751 53.74C106.751 53.72 106.751 53.7 106.741 53.67C106.811 53.69 106.831 53.65 106.841 53.61C106.841 53.61 106.841 53.59 106.841 53.58V53.47C106.831 53.38 106.821 53.3 106.811 53.21C106.771 52.87 106.711 52.52 106.751 52.18C106.751 51.95 106.751 51.72 106.771 51.49V51.32L106.791 51.23V51.21C106.791 51.21 106.801 51.15 106.811 51.13C106.801 51.11 106.781 51.09 106.761 51.08C106.761 51.08 106.751 51.08 106.741 51.08L106.681 51.03C106.681 51.03 106.601 50.96 106.551 50.93C106.061 50.47 105.581 50.02 105.221 49.47C104.491 49.26 104.421 48.45 103.921 48.04C103.611 47.46 103.051 47.13 102.661 46.65C102.191 46.25 101.961 45.63 101.441 45.3C101.061 44.84 100.541 44.52 100.261 43.99C99.7209 43.7 99.6009 43.04 99.1309 42.73C98.7509 42.32 98.3709 41.93 98.0409 41.51C97.9109 40.91 97.3609 40.7 97.0009 40.34C96.6809 39.94 96.1909 39.72 96.0109 39.23C95.7009 38.86 95.4809 38.42 95.0809 38.17C94.9609 38.07 94.8909 37.92 94.8309 37.77C94.8209 37.68 94.7909 37.56 94.7309 37.49C94.6509 37.49 94.5409 37.53 94.4709 37.65C94.4609 37.65 94.3809 37.66 94.3409 37.65C94.2909 37.65 94.2309 37.64 94.1809 37.63C94.0809 37.61 93.9709 37.57 93.8709 37.55C93.6609 37.5 93.4609 37.47 93.2609 37.61C92.8609 37.86 92.4809 37.58 92.1109 37.57C91.7409 37.56 91.3909 37.54 91.0509 37.53C88.0109 37.4 86.2709 37.24 86.2709 37.07C86.2709 36.89 88.4209 36.71 92.1109 36.57C92.4809 36.56 92.8609 36.34 93.2609 36.53C93.4609 36.53 93.6609 36.49 93.8709 36.46C93.9709 36.45 94.0809 36.44 94.1809 36.44C94.2309 36.44 94.2909 36.44 94.3409 36.45C94.4009 36.45 94.4309 36.47 94.5309 36.48C94.7409 36.39 94.9909 36.35 95.2309 36.34C95.4109 36.52 95.5809 36.73 95.7309 36.94C95.8109 37.07 95.9009 37.2 96.0009 37.32C96.3209 37.64 96.5709 38.05 96.9809 38.33C97.4309 38.57 97.5809 39.1 98.0209 39.4C98.2309 39.89 98.6209 40.24 99.1009 40.52C99.3309 41.03 99.8609 41.28 100.231 41.7C100.411 42.29 100.931 42.58 101.401 42.93C101.861 43.29 102.161 43.81 102.611 44.2C102.981 44.67 103.481 45.04 103.861 45.52C104.371 45.89 104.831 46.31 105.151 46.88C105.641 47.29 106.031 47.81 106.471 48.28C106.991 48.69 107.351 49.25 107.821 49.72C107.861 49.76 107.901 49.79 107.931 49.83L108.081 50.01C108.211 50.16 108.331 50.31 108.451 50.46C108.431 50.67 108.421 50.88 108.401 51.09V51.17V51.21V51.23L108.391 51.32C108.391 51.38 108.391 51.44 108.381 51.49C108.381 51.72 108.401 51.95 108.501 52.18C108.521 52.52 108.501 52.86 108.501 53.21V53.47V53.86C108.501 54.18 108.501 54.5 108.521 54.84C108.521 55.06 108.511 55.29 108.501 55.51C107.951 55.5 107.421 55.49 106.891 55.49H106.521L106.301 55.5C106.161 55.5 106.011 55.52 105.861 55.54C105.151 55.25 104.441 55.43 103.731 55.54C103.011 55.62 102.301 55.58 101.601 55.54C100.891 55.57 100.191 55.55 99.5009 55.54C98.8109 55.63 98.1209 55.42 97.4409 55.54C96.7609 55.66 96.0909 55.41 95.4209 55.53C94.7509 55.61 94.1009 55.66 93.4509 55.52C92.8009 55.52 92.1609 55.26 91.5209 55.5C90.8909 55.56 90.2609 55.88 89.6509 55.48C89.0309 55.58 88.4309 55.29 87.8309 55.46C87.5409 55.33 87.3809 55.31 86.8609 55.33C86.4209 55.35 85.9409 55.41 85.4609 55.43C85.4609 55.33 85.4609 55.22 85.4609 55.11C85.4909 54.58 85.5309 54.07 85.5409 53.6C85.5609 53.32 85.5409 53.04 85.4809 52.76C85.3409 52.21 85.5609 51.66 85.5109 51.13C85.3409 50.6 85.7309 50.08 85.5409 49.57C85.5809 49.06 85.5109 48.57 85.5709 48.09C85.1709 47.61 85.5709 47.14 85.6109 46.68C85.6709 46.22 85.3509 45.78 85.6509 45.35C85.3509 44.92 85.6109 44.51 85.6909 44.11C85.7809 43.71 85.5609 43.33 85.7309 42.96C85.5209 42.59 85.8509 42.24 85.7709 41.9C85.9109 41.56 85.7709 41.24 85.8209 40.94C85.7709 40.63 85.7909 40.35 85.8709 40.08C85.8909 39.81 85.9009 39.55 85.9209 39.32C86.0209 37.9 86.1309 37.13 86.2409 37.13L86.2609 37.07Z" fill="black"/>
<path d="M40.3808 62.21C40.3808 62.27 40.2508 62.33 40.0208 62.39C39.9008 62.43 39.7608 62.45 39.5908 62.5C39.4208 62.55 39.2308 62.61 39.0208 62.66C38.8808 62.7 38.7308 62.77 38.5708 62.82C38.4908 62.86 38.4108 62.89 38.3308 62.92C38.2508 62.96 38.1608 62.99 38.0808 63.02C37.8508 62.95 37.8208 63.39 37.5508 63.28C37.4408 63.3 37.3508 63.34 37.2608 63.4C37.2108 63.43 37.1708 63.46 37.1308 63.5C37.0908 63.54 37.0508 63.58 37.0108 63.62C36.8508 63.78 36.5608 63.77 36.4508 64.03C36.4408 64.22 36.3008 64.22 36.1508 64.24C36.0108 64.26 35.8708 64.31 35.9008 64.53C35.8308 64.65 35.7408 64.74 35.6508 64.84C35.5608 64.94 35.4708 65.03 35.3708 65.13C35.1908 65.16 35.1108 65.27 35.0508 65.4C34.9908 65.53 34.9508 65.68 34.8908 65.81C34.5308 65.91 34.4408 66.24 34.4908 66.59C34.2708 66.65 34.1108 66.76 34.0708 66.91C34.0308 67.06 34.0708 67.25 34.1708 67.45C34.1208 67.6 34.0608 67.74 34.0108 67.9C33.9808 67.98 33.9608 68.05 33.9508 68.13C33.9508 68.21 33.9508 68.3 33.9808 68.38C33.9808 68.54 33.9608 68.71 33.9608 68.87C33.9608 69.04 33.9608 69.2 33.9208 69.37C34.0308 69.54 34.1108 69.7 34.1208 69.87C34.1208 69.95 34.1208 70.04 34.0908 70.12C34.0808 70.2 34.0508 70.29 34.0108 70.39C34.3008 70.69 34.2908 71.02 34.2608 71.41C34.2608 71.6 34.3708 71.75 34.4708 71.9C34.5808 72.05 34.7008 72.18 34.6908 72.4C34.7108 72.44 34.7308 72.48 34.7508 72.52C34.7708 72.56 34.8008 72.6 34.8308 72.64L34.9908 72.87C35.0908 73.03 35.2108 73.16 35.3008 73.33C35.3408 73.42 35.3708 73.52 35.4108 73.6C35.4608 73.68 35.5108 73.77 35.5708 73.84C35.6308 73.92 35.7008 73.98 35.7808 74.04C35.8608 74.09 35.9608 74.13 36.0708 74.15C36.2308 74.25 36.3908 74.36 36.5608 74.46C36.7208 74.56 36.8608 74.7 36.9908 74.85C37.4608 74.82 37.7208 75.09 38.0408 75.38C38.1408 75.4 38.2308 75.44 38.3208 75.48C38.4108 75.52 38.5008 75.58 38.5908 75.61C38.7808 75.68 38.9708 75.75 39.1808 75.71C39.3808 75.76 39.5808 75.77 39.7808 75.77C39.9908 75.76 40.1808 75.76 40.3908 75.83C40.5908 75.86 40.8008 75.89 41.0108 75.89C41.2208 75.88 41.4208 75.82 41.6008 75.71C41.7808 75.59 41.9708 75.55 42.1708 75.53C42.2708 75.53 42.3708 75.5 42.4708 75.48C42.5708 75.46 42.6608 75.42 42.7508 75.37C42.8708 75.4 42.9708 75.38 43.0608 75.34C43.1508 75.3 43.2308 75.24 43.3108 75.18L43.4308 75.09C43.4308 75.09 43.5008 75.02 43.5408 74.99C43.6208 74.93 43.7008 74.87 43.7908 74.84C43.9508 74.74 44.1208 74.64 44.2908 74.54C44.4708 74.45 44.6108 74.32 44.7108 74.14C44.7708 74.07 44.8408 74 44.9008 73.92C44.9608 73.84 45.0108 73.77 45.0708 73.7C45.1308 73.63 45.2008 73.56 45.2708 73.5C45.3308 73.43 45.4008 73.37 45.4808 73.31C45.4308 73.04 45.5608 72.92 45.7008 72.8C45.7708 72.74 45.8608 72.68 45.9308 72.62C45.9708 72.59 46.0008 72.55 46.0308 72.52C46.0508 72.48 46.0708 72.44 46.0808 72.39C46.2308 72.26 46.3108 72.1 46.3608 71.92C46.4008 71.74 46.4308 71.56 46.5108 71.4C46.5208 71.22 46.6108 71.06 46.6908 70.9C46.7108 70.86 46.7308 70.82 46.7508 70.78C46.7608 70.74 46.7708 70.7 46.7808 70.65C46.7908 70.56 46.7908 70.47 46.7708 70.38C46.7908 70.3 46.8008 70.21 46.8108 70.12C46.8108 70.03 46.8008 69.95 46.7908 69.86C46.7808 69.69 46.7908 69.53 46.8608 69.36C46.7508 69.2 46.7808 69.03 46.8308 68.86C46.8708 68.69 46.8908 68.52 46.8008 68.37C46.7908 68.29 46.7808 68.21 46.7608 68.13C46.7408 68.05 46.7208 67.98 46.7008 67.9C46.6608 67.75 46.6408 67.59 46.6108 67.44C46.7008 67.25 46.6608 67.09 46.5808 66.95C46.5108 66.81 46.3608 66.71 46.2908 66.58C46.2008 66.28 45.8508 66.16 45.8908 65.8C45.8208 65.67 45.7608 65.54 45.7008 65.41C45.6308 65.28 45.5508 65.17 45.4108 65.11C45.3008 65.03 45.3008 64.85 45.2508 64.7C45.2108 64.55 45.1108 64.45 44.8808 64.51C44.7608 64.45 44.7208 64.3 44.6608 64.18C44.5908 64.06 44.5108 63.96 44.3308 64C44.0008 64.06 43.9608 63.72 43.7708 63.59C43.7208 63.56 43.6808 63.53 43.6308 63.49C43.5908 63.46 43.5408 63.44 43.4908 63.41C43.4008 63.36 43.3008 63.3 43.2208 63.25C42.4008 62.8 41.6808 62.6 41.1808 62.46C40.6808 62.35 40.3908 62.26 40.3908 62.17C40.3908 62.12 40.4808 62.08 40.6508 62.05C40.7408 62.03 40.8408 62.02 40.9708 62C41.0308 62 41.1008 61.98 41.1808 61.98C41.2508 61.98 41.3308 61.98 41.4208 61.98C42.0908 61.98 43.1208 62.12 44.2708 62.71C44.4908 62.83 44.8608 62.78 44.9708 63.11C45.0808 63.19 45.2208 63.25 45.3508 63.31C45.4808 63.38 45.5908 63.48 45.6608 63.63C45.8708 63.63 46.0008 63.72 46.0908 63.85C46.1808 63.98 46.2408 64.14 46.3408 64.27C46.4608 64.38 46.5408 64.53 46.6308 64.66C46.7208 64.8 46.8308 64.92 46.9708 65.03C47.2908 65.24 47.2708 65.66 47.5208 65.93C47.5208 66.13 47.5808 66.3 47.6408 66.47C47.7108 66.64 47.8308 66.79 47.9708 66.95C47.9508 67.15 48.0008 67.34 48.0808 67.52C48.1208 67.61 48.1608 67.7 48.2008 67.79C48.2308 67.88 48.2608 67.98 48.2708 68.08C48.1708 68.3 48.1908 68.49 48.2308 68.69C48.2708 68.89 48.3508 69.09 48.4108 69.29C48.4708 69.5 48.4408 69.71 48.4108 69.92C48.4008 70.03 48.3808 70.13 48.3808 70.24C48.3608 70.34 48.3508 70.45 48.3508 70.56C48.3208 70.66 48.3008 70.77 48.2908 70.88L48.2708 71.04L48.2408 71.2C48.2008 71.42 48.1708 71.64 48.0808 71.85C48.0608 72.08 48.0208 72.31 47.9508 72.53C47.8708 72.75 47.7408 72.94 47.5708 73.12C47.5508 73.18 47.5408 73.23 47.5208 73.29C47.5008 73.34 47.4708 73.39 47.4408 73.45C47.3808 73.55 47.3208 73.65 47.2608 73.75C47.1408 73.95 46.9808 74.13 46.8408 74.32C46.7908 74.43 46.7308 74.53 46.6608 74.63C46.5808 74.72 46.5008 74.81 46.4108 74.89L46.1508 75.14C46.0608 75.22 45.9708 75.3 45.8808 75.39C45.7208 75.57 45.4908 75.69 45.2708 75.8C45.0508 75.91 44.8608 76.06 44.7208 76.3C44.3208 76.6 43.8308 76.75 43.3808 76.99L43.0108 77.1C42.8908 77.14 42.7708 77.18 42.6408 77.2C42.3908 77.26 42.1508 77.34 41.9008 77.43C41.6208 77.32 41.3708 77.34 41.1208 77.39C40.8708 77.43 40.6208 77.51 40.3508 77.58C40.0908 77.61 39.8208 77.61 39.5608 77.58C39.3008 77.55 39.0508 77.48 38.8008 77.42C38.5408 77.39 38.2908 77.31 38.0508 77.25C37.9308 77.22 37.8108 77.17 37.6908 77.12L37.3408 76.98C37.2108 76.96 37.1008 76.91 36.9808 76.85C36.8708 76.79 36.7608 76.72 36.6508 76.66L36.4908 76.56C36.4408 76.52 36.3908 76.49 36.3308 76.45C36.2208 76.38 36.1108 76.33 35.9908 76.29C35.7408 76.22 35.5608 76.03 35.3908 75.86C35.2108 75.69 35.0608 75.5 34.8308 75.38C34.7308 75.31 34.6208 75.25 34.5308 75.17C34.4408 75.09 34.3508 75.01 34.2708 74.92C34.1908 74.83 34.1108 74.74 34.0408 74.64C33.9808 74.54 33.9308 74.43 33.8808 74.31C33.7408 74.12 33.6508 73.9 33.5608 73.68C33.5208 73.57 33.4608 73.47 33.4008 73.38C33.3708 73.33 33.3308 73.29 33.2808 73.25C33.2408 73.21 33.2008 73.16 33.1408 73.13C33.0208 72.93 32.8208 72.77 32.7008 72.57C32.5808 72.37 32.5208 72.14 32.6408 71.87C32.5308 71.67 32.5208 71.44 32.5108 71.22C32.5108 71.16 32.5108 71.11 32.5008 71.06C32.5008 71 32.5008 70.95 32.4908 70.9C32.4708 70.79 32.4408 70.69 32.3908 70.59C32.4508 70.47 32.4708 70.36 32.4708 70.26C32.4708 70.15 32.4708 70.05 32.4508 69.95C32.4108 69.74 32.3208 69.54 32.3408 69.33C32.3808 69.12 32.4308 68.92 32.4508 68.72C32.4808 68.52 32.5108 68.33 32.4808 68.12C32.4608 68.02 32.4608 67.91 32.4808 67.82C32.5008 67.72 32.5408 67.63 32.5808 67.54C32.6608 67.36 32.7408 67.18 32.7808 66.99C32.7608 66.78 32.8808 66.62 33.0008 66.47C33.1108 66.31 33.2508 66.18 33.2408 65.97C33.4208 65.66 33.5608 65.33 33.7908 65.07C33.7208 64.82 33.8308 64.68 33.9808 64.57C34.1208 64.47 34.3008 64.4 34.4308 64.3C34.5608 64.2 34.6208 64.04 34.7008 63.9C34.7808 63.76 34.9008 63.65 35.1108 63.66C35.1208 63.45 35.2308 63.33 35.3608 63.27C35.5008 63.21 35.6708 63.19 35.8008 63.14C36.0608 63.04 36.1908 62.73 36.5008 62.74C36.5308 62.66 36.5808 62.61 36.6308 62.58C36.6908 62.55 36.7508 62.54 36.8208 62.53C36.9508 62.52 37.0908 62.53 37.1808 62.44C37.4408 62.46 37.6008 62.27 37.8108 62.23C37.9008 62.17 37.9908 62.13 38.0908 62.1C38.1908 62.08 38.2908 62.08 38.3908 62.1C38.5708 62.07 38.7408 62.04 38.9108 62.02C39.1508 62.01 39.3708 62 39.5508 62C39.7308 62 39.8908 62.03 40.0108 62.05C40.2608 62.09 40.3808 62.14 40.3808 62.19V62.21Z" fill="black"/>
<path d="M40.3798 65.26C40.3798 65.32 40.3098 65.37 40.1798 65.43C40.1098 65.46 40.0298 65.49 39.9398 65.52C39.8498 65.56 39.7398 65.6 39.6298 65.64C39.5498 65.67 39.4698 65.71 39.3898 65.75C39.3498 65.78 39.3098 65.8 39.2598 65.82C39.2198 65.85 39.1698 65.87 39.1198 65.88C38.9698 65.78 39.0198 66.2 38.8398 66.04C38.7098 66.04 38.6198 66.13 38.5498 66.24C38.4698 66.35 38.2798 66.29 38.2498 66.48C38.2798 66.63 38.1798 66.61 38.0798 66.59C37.9798 66.58 37.8898 66.59 37.9598 66.76C37.9098 66.91 37.7998 66.99 37.6898 67.09C37.5498 67.07 37.5098 67.14 37.4898 67.22C37.4698 67.3 37.4698 67.4 37.4498 67.47C37.1498 67.46 37.1498 67.67 37.2498 67.9C36.8498 67.88 36.8298 68.11 37.0898 68.36C37.0698 68.44 37.0198 68.51 36.9898 68.59C36.9698 68.63 36.9598 68.67 36.9598 68.71C36.9598 68.75 36.9798 68.8 37.0098 68.85C37.0098 68.94 37.0098 69.02 37.0098 69.11C37.0098 69.2 37.0098 69.28 36.9798 69.37C37.0898 69.46 37.1598 69.54 37.1698 69.63C37.1698 69.67 37.1698 69.72 37.1398 69.76C37.1198 69.81 37.0898 69.85 37.0498 69.91C37.3298 70.05 37.2698 70.22 37.1898 70.44C37.1498 70.55 37.2398 70.62 37.3198 70.69C37.3998 70.76 37.4798 70.82 37.4298 70.95C37.4598 71.04 37.5298 71.11 37.5898 71.19C37.6498 71.27 37.7098 71.34 37.7498 71.43C37.7498 71.49 37.7698 71.54 37.7798 71.6C37.7998 71.65 37.8198 71.7 37.8498 71.74C37.8798 71.78 37.9198 71.82 37.9698 71.84C38.0198 71.86 38.0898 71.87 38.1598 71.86C38.2598 71.9 38.3498 71.94 38.4398 71.99C38.5298 72.04 38.5898 72.11 38.6398 72.22C38.9498 72.09 39.0498 72.28 39.1898 72.49C39.2998 72.49 39.3798 72.58 39.4698 72.63C39.5698 72.68 39.6698 72.72 39.7798 72.66C39.8798 72.69 39.9898 72.68 40.0898 72.68C40.1998 72.66 40.2998 72.66 40.3998 72.72C40.5098 72.75 40.6198 72.79 40.7298 72.79C40.8398 72.79 40.9398 72.75 41.0298 72.65C41.1098 72.55 41.2098 72.53 41.3198 72.54C41.4298 72.54 41.5398 72.54 41.6198 72.48C41.7698 72.57 41.8498 72.48 41.9298 72.41C42.0098 72.33 42.0598 72.22 42.1698 72.21C42.2498 72.15 42.3498 72.12 42.4498 72.07C42.5498 72.03 42.6298 71.97 42.6598 71.85C42.6898 71.81 42.7198 71.77 42.7498 71.73C42.7798 71.69 42.7998 71.65 42.8298 71.61C42.8598 71.57 42.8998 71.54 42.9398 71.51C42.9798 71.48 43.0198 71.45 43.0698 71.43C42.9698 71.23 43.0398 71.18 43.1398 71.13C43.2398 71.08 43.3898 71.06 43.3898 70.95C43.4998 70.9 43.5498 70.81 43.5598 70.71C43.5698 70.61 43.5598 70.51 43.6198 70.43C43.6098 70.33 43.6698 70.25 43.7298 70.17C43.7898 70.09 43.8198 70 43.7598 69.89C43.7798 69.85 43.7798 69.8 43.7798 69.76C43.7798 69.71 43.7598 69.67 43.7598 69.62C43.7398 69.53 43.7598 69.44 43.8298 69.36C43.7298 69.27 43.7598 69.19 43.8098 69.1C43.8498 69.01 43.8898 68.91 43.8098 68.84L43.7898 68.71L43.7598 68.59C43.7398 68.51 43.7298 68.42 43.7198 68.34C43.8398 68.21 43.8198 68.13 43.7598 68.06C43.7098 67.99 43.5998 67.95 43.5598 67.88C43.5198 67.71 43.2598 67.7 43.3598 67.45C43.3298 67.38 43.3098 67.3 43.2798 67.22C43.2498 67.15 43.2098 67.08 43.1098 67.07C43.0398 67.03 43.0798 66.9 43.0798 66.8C43.0798 66.7 43.0298 66.63 42.8398 66.74C42.7598 66.72 42.7698 66.61 42.7498 66.53C42.7298 66.45 42.6898 66.38 42.5498 66.45C42.2998 66.58 42.3598 66.28 42.2498 66.21C42.1598 66.13 42.0498 66.07 41.9598 66.01C41.5198 65.74 41.1298 65.59 40.8498 65.48C40.5698 65.38 40.4098 65.3 40.4098 65.21C40.4098 65.16 40.4598 65.12 40.5598 65.08C40.6598 65.05 40.8198 64.99 41.0198 64.99C41.4298 64.96 42.0498 65.01 42.7598 65.34C42.8998 65.41 43.1698 65.31 43.1898 65.57C43.2598 65.62 43.3498 65.64 43.4398 65.67C43.5298 65.71 43.5998 65.76 43.6298 65.87C43.7898 65.83 43.8798 65.88 43.9298 65.97C43.9798 66.06 43.9998 66.17 44.0598 66.25C44.1298 66.32 44.1798 66.41 44.2298 66.49C44.2798 66.58 44.3498 66.65 44.4598 66.71C44.7098 66.8 44.6198 67.11 44.8098 67.26C44.7498 67.53 44.8698 67.71 45.0998 67.88C45.0598 68.02 45.0898 68.13 45.1498 68.24C45.1798 68.29 45.2098 68.35 45.2398 68.4C45.2698 68.46 45.2898 68.51 45.2898 68.58C45.1798 68.72 45.1798 68.84 45.2198 68.96C45.2498 69.08 45.3298 69.2 45.3898 69.33C45.4498 69.46 45.4198 69.59 45.3998 69.72C45.3898 69.79 45.3798 69.85 45.3698 69.92C45.3598 69.99 45.3498 70.05 45.3598 70.12C45.2798 70.38 45.3198 70.67 45.1998 70.93C45.2098 71.08 45.1998 71.23 45.1598 71.37C45.1098 71.51 45.0198 71.63 44.8898 71.72C44.8698 71.87 44.7898 71.99 44.7098 72.12C44.6298 72.24 44.5298 72.35 44.4398 72.47C44.4198 72.55 44.3798 72.61 44.3398 72.67C44.2898 72.73 44.2398 72.78 44.1798 72.83L44.0098 72.98C43.9498 73.03 43.8898 73.08 43.8398 73.13C43.7498 73.25 43.5898 73.31 43.4398 73.36C43.2898 73.42 43.1698 73.5 43.1198 73.7C42.8698 73.9 42.5598 73.97 42.2798 74.14L41.8198 74.26C41.6598 74.29 41.5098 74.35 41.3598 74.42C41.1698 74.3 41.0198 74.3 40.8598 74.34C40.6998 74.37 40.5498 74.45 40.3798 74.52C40.2198 74.55 40.0498 74.56 39.8898 74.54C39.7298 74.52 39.5698 74.47 39.4098 74.42C39.2498 74.41 39.0898 74.36 38.9398 74.32C38.7898 74.28 38.6398 74.2 38.4898 74.14C38.3198 74.13 38.1998 74.02 38.0698 73.93C37.9398 73.84 37.8198 73.73 37.6598 73.7C37.4898 73.67 37.3898 73.55 37.2798 73.43C37.1698 73.32 37.0898 73.19 36.9398 73.13C36.8698 73.09 36.7998 73.06 36.7298 73.01C36.6698 72.96 36.6098 72.91 36.5598 72.86C36.5098 72.81 36.4598 72.75 36.4198 72.68C36.3798 72.61 36.3598 72.54 36.3398 72.46C36.2498 72.34 36.2198 72.19 36.1698 72.04C36.1298 71.9 36.0498 71.78 35.8798 71.71C35.7898 71.59 35.6398 71.51 35.5498 71.38C35.4598 71.26 35.4298 71.11 35.5698 70.92C35.4798 70.8 35.4998 70.65 35.4998 70.51C35.4998 70.37 35.5198 70.23 35.4098 70.11C35.4698 70.03 35.4998 69.96 35.5098 69.9C35.5198 69.83 35.5098 69.77 35.4898 69.71C35.4498 69.58 35.3698 69.46 35.3798 69.33C35.4098 69.2 35.4598 69.08 35.4798 68.96C35.5098 68.84 35.5198 68.72 35.4798 68.58C35.4598 68.51 35.4498 68.45 35.4598 68.39C35.4798 68.33 35.4998 68.27 35.5298 68.22C35.5898 68.11 35.6598 68.01 35.6698 67.89C35.6298 67.75 35.7198 67.66 35.8098 67.57C35.8998 67.48 35.9998 67.41 35.9598 67.26C36.0798 67.07 36.1498 66.86 36.3098 66.71C36.1998 66.51 36.2698 66.42 36.3798 66.37C36.4898 66.32 36.6298 66.3 36.7098 66.25C36.7998 66.2 36.8098 66.08 36.8498 65.98C36.8898 65.88 36.9598 65.82 37.1298 65.87C37.0998 65.7 37.1598 65.62 37.2598 65.59C37.3598 65.56 37.4798 65.58 37.5698 65.56C37.7498 65.53 37.7798 65.27 37.9998 65.33C38.0298 65.06 38.3298 65.29 38.4198 65.16C38.5998 65.22 38.6798 65.06 38.8098 65.05C38.8598 65.01 38.9198 64.98 38.9798 64.96C39.0398 64.96 39.0998 64.96 39.1698 64.98C39.2798 64.97 39.3898 64.95 39.4798 64.95C39.6298 64.95 39.7598 64.95 39.8698 64.97C39.9798 64.98 40.0698 65.01 40.1498 65.03C40.2998 65.08 40.3698 65.13 40.3698 65.18L40.3798 65.26Z" fill="black"/>
<path d="M94.2802 62.21C94.2802 62.27 94.1502 62.33 93.9202 62.39C93.8002 62.43 93.6602 62.45 93.4902 62.5C93.3202 62.55 93.1302 62.61 92.9202 62.66C92.7802 62.7 92.6302 62.77 92.4702 62.82C92.3902 62.86 92.3102 62.89 92.2302 62.92C92.1502 62.96 92.0702 62.99 91.9802 63.02C91.7502 62.95 91.7202 63.39 91.4502 63.28C91.3402 63.3 91.2502 63.34 91.1602 63.4C91.1102 63.43 91.0702 63.46 91.0302 63.5C90.9902 63.54 90.9502 63.58 90.9102 63.62C90.7502 63.78 90.4602 63.77 90.3502 64.03C90.3402 64.22 90.2002 64.22 90.0502 64.24C89.9102 64.26 89.7702 64.31 89.8002 64.53C89.7302 64.65 89.6402 64.74 89.5602 64.84C89.4702 64.94 89.3802 65.03 89.2802 65.13C89.1002 65.16 89.0202 65.27 88.9602 65.4C88.9002 65.53 88.8602 65.68 88.8002 65.81C88.4302 65.91 88.3502 66.24 88.4002 66.59C88.1802 66.65 88.0202 66.76 87.9902 66.91C87.9502 67.06 87.9902 67.25 88.0902 67.45C88.0402 67.6 87.9802 67.74 87.9302 67.89C87.9002 67.97 87.8802 68.04 87.8702 68.12C87.8702 68.2 87.8702 68.29 87.9002 68.37C87.9002 68.53 87.8802 68.7 87.8802 68.86C87.8802 69.03 87.8802 69.19 87.8402 69.36C87.9502 69.53 88.0302 69.69 88.0402 69.85C88.0402 69.93 88.0402 70.02 88.0102 70.1C88.0002 70.19 87.9702 70.27 87.9302 70.37C88.2202 70.67 88.2102 71 88.1802 71.39C88.1802 71.58 88.2902 71.73 88.4002 71.88C88.5102 72.03 88.6302 72.16 88.6202 72.38C88.6402 72.42 88.6602 72.46 88.6802 72.5L88.7602 72.62L88.9202 72.85C89.0202 73.01 89.1402 73.14 89.2402 73.31C89.2802 73.4 89.3102 73.5 89.3502 73.58C89.4002 73.66 89.4502 73.75 89.5102 73.82C89.5702 73.9 89.6402 73.96 89.7202 74.02C89.8002 74.08 89.9002 74.11 90.0102 74.13C90.1702 74.24 90.3302 74.34 90.5002 74.44C90.6602 74.54 90.8002 74.68 90.9302 74.83C91.4002 74.81 91.6602 75.07 91.9802 75.36C92.0802 75.38 92.1702 75.42 92.2602 75.46C92.3502 75.5 92.4402 75.56 92.5302 75.59C92.7202 75.66 92.9102 75.73 93.1202 75.69C93.3202 75.74 93.5202 75.75 93.7202 75.75C93.9202 75.74 94.1202 75.74 94.3302 75.81C94.5302 75.84 94.7402 75.87 94.9502 75.87C95.1602 75.86 95.3602 75.8 95.5402 75.69C95.7202 75.57 95.9102 75.53 96.1102 75.51C96.2102 75.51 96.3102 75.48 96.4102 75.46C96.5102 75.44 96.6002 75.4 96.6902 75.36C96.8102 75.39 96.9102 75.37 97.0002 75.33C97.0902 75.29 97.1702 75.23 97.2502 75.17L97.3702 75.08C97.3702 75.08 97.4402 75.01 97.4802 74.98C97.5602 74.92 97.6402 74.86 97.7302 74.83C97.8902 74.73 98.0602 74.63 98.2302 74.53C98.4002 74.44 98.5502 74.31 98.6502 74.13C98.7102 74.06 98.7802 73.99 98.8402 73.91C98.9002 73.83 98.9502 73.76 99.0102 73.69C99.0702 73.62 99.1402 73.55 99.2102 73.49C99.2802 73.42 99.3402 73.36 99.4202 73.3C99.3702 73.03 99.5002 72.91 99.6402 72.79C99.7102 72.73 99.8002 72.67 99.8702 72.61C99.9102 72.58 99.9402 72.55 99.9702 72.51C99.9902 72.47 100.01 72.43 100.02 72.38C100.17 72.25 100.26 72.09 100.3 71.91C100.34 71.73 100.37 71.55 100.45 71.39C100.46 71.21 100.55 71.05 100.63 70.89C100.65 70.85 100.67 70.81 100.69 70.77C100.7 70.73 100.71 70.68 100.72 70.64C100.73 70.55 100.73 70.46 100.71 70.37C100.73 70.29 100.74 70.2 100.75 70.12C100.75 70.03 100.74 69.95 100.73 69.86C100.72 69.69 100.73 69.52 100.8 69.36C100.69 69.2 100.72 69.03 100.77 68.86C100.81 68.69 100.83 68.52 100.74 68.37C100.73 68.29 100.72 68.21 100.7 68.13C100.68 68.05 100.66 67.98 100.64 67.9C100.6 67.75 100.58 67.59 100.55 67.44C100.64 67.25 100.6 67.09 100.52 66.95C100.45 66.81 100.3 66.71 100.23 66.58C100.14 66.28 99.7902 66.16 99.8302 65.8C99.7602 65.67 99.7002 65.54 99.6402 65.41C99.5702 65.28 99.4902 65.17 99.3502 65.11C99.2402 65.02 99.2402 64.85 99.1902 64.7C99.1502 64.55 99.0502 64.45 98.8202 64.51C98.7002 64.45 98.6602 64.3 98.6002 64.18C98.5302 64.06 98.4502 63.97 98.2702 64C97.9402 64.06 97.9002 63.72 97.7102 63.59C97.6702 63.56 97.6202 63.53 97.5702 63.49C97.5302 63.46 97.4802 63.44 97.4302 63.41C97.3402 63.36 97.2402 63.3 97.1602 63.25C96.3402 62.8 95.6202 62.6 95.1202 62.46C94.6202 62.35 94.3302 62.26 94.3302 62.17C94.3302 62.12 94.4202 62.08 94.5902 62.05C94.6802 62.03 94.7802 62.02 94.9102 62C94.9802 62 95.0402 61.98 95.1202 61.98C95.2002 61.98 95.2702 61.98 95.3602 61.98C96.0302 61.98 97.0602 62.12 98.2102 62.71C98.4302 62.83 98.8002 62.78 98.9102 63.11C99.0202 63.19 99.1602 63.25 99.2902 63.31C99.4202 63.38 99.5402 63.48 99.6102 63.62C99.8202 63.62 99.9502 63.71 100.04 63.84C100.13 63.97 100.19 64.13 100.29 64.26C100.41 64.37 100.49 64.52 100.58 64.65C100.67 64.79 100.78 64.91 100.92 65.02C101.24 65.23 101.22 65.65 101.47 65.92C101.47 66.12 101.53 66.29 101.59 66.46C101.66 66.63 101.77 66.78 101.92 66.94C101.9 67.15 101.95 67.33 102.03 67.51C102.07 67.6 102.11 67.69 102.15 67.78C102.18 67.87 102.21 67.97 102.22 68.07C102.12 68.29 102.14 68.48 102.18 68.68C102.22 68.88 102.3 69.08 102.36 69.28C102.42 69.49 102.39 69.7 102.36 69.91C102.35 70.01 102.33 70.12 102.33 70.23C102.31 70.33 102.3 70.44 102.3 70.55C102.27 70.66 102.25 70.76 102.24 70.87L102.22 71.03L102.19 71.19C102.15 71.41 102.12 71.63 102.03 71.84C102.01 72.07 101.98 72.3 101.9 72.52C101.82 72.74 101.69 72.93 101.52 73.11C101.51 73.17 101.49 73.22 101.47 73.28C101.45 73.33 101.42 73.39 101.39 73.44C101.34 73.54 101.27 73.64 101.21 73.74C101.09 73.94 100.93 74.12 100.79 74.31C100.74 74.42 100.68 74.52 100.61 74.62C100.53 74.71 100.45 74.8 100.36 74.88L100.1 75.13C100.01 75.21 99.9202 75.29 99.8302 75.38C99.6702 75.56 99.4402 75.68 99.2202 75.79C99.0002 75.9 98.8102 76.05 98.6702 76.29C98.2702 76.59 97.7802 76.75 97.3302 76.98L96.9602 77.09C96.8402 77.13 96.7202 77.17 96.5902 77.2C96.3402 77.26 96.1002 77.34 95.8502 77.43C95.5702 77.33 95.3202 77.34 95.0702 77.39C94.8202 77.43 94.5702 77.51 94.3002 77.58C94.0402 77.61 93.7702 77.61 93.5102 77.58C93.2502 77.55 93.0002 77.48 92.7502 77.42C92.4902 77.39 92.2502 77.31 92.0002 77.25C91.8802 77.22 91.7602 77.17 91.6402 77.12L91.2902 76.98C91.1602 76.96 91.0402 76.91 90.9302 76.85C90.8202 76.79 90.7102 76.72 90.6002 76.66L90.4402 76.56C90.3902 76.52 90.3402 76.49 90.2802 76.46C90.1802 76.39 90.0602 76.34 89.9402 76.3C89.6902 76.23 89.5102 76.04 89.3402 75.87C89.1602 75.7 89.0002 75.51 88.7802 75.39C88.6802 75.32 88.5702 75.26 88.4802 75.18C88.3902 75.1 88.3002 75.02 88.2202 74.93C88.1402 74.84 88.0602 74.75 87.9902 74.65C87.9302 74.55 87.8702 74.43 87.8302 74.32C87.6902 74.13 87.6002 73.91 87.5102 73.69C87.4702 73.58 87.4102 73.48 87.3502 73.39C87.3202 73.34 87.2802 73.3 87.2302 73.26C87.1902 73.22 87.1502 73.18 87.0902 73.14C86.9702 72.94 86.7702 72.78 86.6502 72.58C86.5302 72.38 86.4702 72.15 86.5902 71.88C86.4802 71.68 86.4702 71.45 86.4602 71.23C86.4602 71.17 86.4602 71.12 86.4502 71.06C86.4502 71.01 86.4502 70.95 86.4402 70.9C86.4302 70.79 86.4002 70.69 86.3402 70.59C86.4002 70.47 86.4202 70.36 86.4202 70.26C86.4202 70.15 86.4202 70.05 86.3902 69.95C86.3502 69.74 86.2602 69.54 86.2802 69.33C86.3202 69.12 86.3702 68.92 86.3902 68.72C86.4202 68.52 86.4502 68.32 86.4202 68.12C86.4002 68.02 86.4002 67.91 86.4202 67.82C86.4402 67.72 86.4802 67.63 86.5202 67.54C86.6002 67.36 86.6802 67.18 86.7202 66.99C86.7102 66.78 86.8202 66.62 86.9402 66.47C86.9902 66.39 87.0502 66.32 87.1002 66.24C87.1502 66.16 87.1802 66.08 87.1702 65.97C87.3502 65.66 87.4902 65.33 87.7202 65.07C87.6502 64.82 87.7602 64.68 87.9002 64.57C88.0502 64.47 88.2302 64.4 88.3502 64.3C88.4802 64.2 88.5402 64.04 88.6202 63.9C88.7002 63.76 88.8202 63.66 89.0302 63.66C89.0402 63.45 89.1502 63.33 89.2902 63.27C89.4302 63.21 89.6002 63.19 89.7302 63.14C89.9902 63.04 90.1202 62.73 90.4302 62.74C90.4602 62.66 90.5102 62.61 90.5602 62.58C90.6202 62.55 90.6802 62.54 90.7502 62.53C90.8802 62.52 91.0202 62.53 91.1102 62.44C91.3702 62.46 91.5302 62.27 91.7402 62.23C91.8302 62.17 91.9302 62.13 92.0202 62.1C92.1202 62.08 92.2202 62.08 92.3202 62.1C92.5002 62.07 92.6702 62.04 92.8402 62.02C93.0802 62.01 93.3002 62 93.4802 62C93.6602 62 93.8202 62.03 93.9402 62.05C94.1902 62.09 94.3202 62.14 94.3202 62.19L94.2802 62.21Z" fill="black"/>
<path d="M94.2802 65.26C94.2802 65.32 94.2102 65.37 94.0702 65.43C94.0002 65.46 93.9202 65.49 93.8302 65.52C93.7402 65.56 93.6302 65.6 93.5102 65.64C93.4302 65.67 93.3502 65.71 93.2702 65.75C93.2302 65.78 93.1902 65.8 93.1402 65.82C93.1002 65.85 93.0502 65.87 93.0002 65.88C92.8502 65.78 92.9002 66.2 92.7102 66.04C92.5802 66.04 92.4902 66.13 92.4202 66.24C92.3402 66.35 92.1502 66.29 92.1202 66.48C92.1502 66.63 92.0502 66.61 91.9502 66.59C91.8502 66.58 91.7602 66.59 91.8302 66.76C91.7802 66.91 91.6702 66.99 91.5602 67.09C91.4302 67.07 91.3802 67.13 91.3602 67.22C91.3402 67.3 91.3402 67.4 91.3202 67.47C91.0202 67.46 91.0102 67.67 91.1202 67.9C90.7202 67.88 90.7002 68.11 90.9602 68.36C90.9402 68.44 90.8902 68.51 90.8602 68.59C90.8402 68.63 90.8302 68.67 90.8302 68.72C90.8302 68.76 90.8502 68.81 90.8802 68.86C90.8802 68.95 90.8802 69.03 90.8802 69.12C90.8802 69.21 90.8802 69.29 90.8502 69.38C90.9602 69.47 91.0402 69.55 91.0402 69.64C91.0402 69.68 91.0402 69.73 91.0102 69.77C90.9902 69.82 90.9602 69.86 90.9202 69.92C91.2002 70.06 91.1402 70.23 91.0602 70.45C91.0202 70.56 91.1102 70.63 91.1902 70.7C91.2702 70.77 91.3502 70.83 91.3002 70.96C91.3302 71.05 91.4002 71.12 91.4602 71.2C91.5102 71.28 91.5802 71.35 91.6202 71.44C91.6202 71.5 91.6402 71.55 91.6502 71.61C91.6702 71.66 91.6902 71.71 91.7202 71.75C91.7502 71.79 91.7902 71.83 91.8402 71.85C91.8902 71.87 91.9602 71.88 92.0302 71.87C92.1202 71.91 92.2202 71.95 92.3102 72C92.4002 72.05 92.4602 72.12 92.5102 72.23C92.8202 72.1 92.9202 72.29 93.0602 72.5C93.1702 72.51 93.2502 72.59 93.3402 72.64C93.4402 72.69 93.5402 72.73 93.6502 72.67C93.7502 72.7 93.8602 72.69 93.9702 72.69C94.0802 72.67 94.1802 72.67 94.2902 72.73C94.4002 72.76 94.5102 72.8 94.6202 72.8C94.7302 72.8 94.8302 72.76 94.9202 72.66C95.0102 72.56 95.1002 72.54 95.2102 72.55C95.3202 72.55 95.4302 72.55 95.5102 72.49C95.6602 72.58 95.7402 72.49 95.8202 72.42C95.9002 72.34 95.9402 72.23 96.0602 72.22C96.1402 72.16 96.2402 72.13 96.3402 72.08C96.4402 72.04 96.5202 71.97 96.5502 71.86L96.6402 71.74C96.6402 71.74 96.6902 71.65 96.7202 71.62C96.7502 71.58 96.7902 71.55 96.8302 71.52C96.8702 71.49 96.9102 71.46 96.9602 71.44C96.8602 71.24 96.9302 71.19 97.0302 71.14C97.1302 71.09 97.2802 71.07 97.2802 70.96C97.3902 70.91 97.4402 70.82 97.4502 70.72C97.4602 70.62 97.4502 70.52 97.5102 70.44C97.5002 70.34 97.5602 70.26 97.6202 70.18C97.6802 70.1 97.7102 70.01 97.6502 69.91C97.6702 69.87 97.6702 69.82 97.6702 69.77C97.6702 69.72 97.6502 69.68 97.6502 69.63C97.6302 69.54 97.6502 69.45 97.7202 69.37C97.6202 69.28 97.6502 69.2 97.7002 69.11C97.7402 69.02 97.7802 68.92 97.7002 68.85L97.6802 68.72L97.6502 68.6C97.6302 68.52 97.6202 68.43 97.6102 68.35C97.7302 68.22 97.7102 68.13 97.6502 68.07C97.6002 68 97.4902 67.96 97.4502 67.89C97.4102 67.72 97.1502 67.71 97.2502 67.46C97.2202 67.39 97.2002 67.31 97.1702 67.23C97.1402 67.16 97.1002 67.09 97.0002 67.08C96.9302 67.04 96.9702 66.91 96.9702 66.81C96.9702 66.71 96.9202 66.64 96.7302 66.75C96.6502 66.73 96.6602 66.62 96.6402 66.54C96.6202 66.46 96.5802 66.39 96.4402 66.46C96.1902 66.59 96.2502 66.3 96.1402 66.22C96.0502 66.14 95.9402 66.08 95.8502 66.02C95.4102 65.75 95.0202 65.6 94.7402 65.49C94.4602 65.39 94.3002 65.31 94.3002 65.22C94.3002 65.17 94.3502 65.13 94.4502 65.09C94.5502 65.06 94.7102 65 94.9102 65C95.3202 64.97 95.9402 65.02 96.6502 65.35C96.7902 65.42 97.0602 65.32 97.0802 65.58C97.1502 65.63 97.2402 65.65 97.3302 65.68C97.4202 65.72 97.4902 65.77 97.5202 65.88C97.6802 65.84 97.7702 65.88 97.8202 65.98C97.8702 66.07 97.8902 66.18 97.9502 66.26C98.0302 66.33 98.0702 66.42 98.1202 66.51C98.1702 66.6 98.2402 66.67 98.3502 66.73C98.6002 66.82 98.5102 67.13 98.7002 67.28C98.6502 67.56 98.7602 67.73 98.9902 67.9C98.9502 68.04 98.9802 68.15 99.0402 68.26C99.0702 68.31 99.1002 68.37 99.1302 68.42C99.1602 68.48 99.1802 68.53 99.1802 68.6C99.0702 68.74 99.0702 68.86 99.1002 68.98C99.1302 69.1 99.2102 69.22 99.2702 69.35C99.3302 69.48 99.3002 69.61 99.2802 69.74C99.2702 69.81 99.2602 69.87 99.2502 69.94C99.2402 70.01 99.2302 70.07 99.2402 70.14C99.1602 70.4 99.2002 70.69 99.0802 70.95C99.0902 71.1 99.0802 71.25 99.0402 71.39C98.9902 71.53 98.9002 71.65 98.7702 71.74C98.7502 71.89 98.6702 72.01 98.5902 72.14C98.5102 72.26 98.4102 72.37 98.3202 72.49C98.3002 72.57 98.2602 72.63 98.2202 72.7C98.1702 72.76 98.1202 72.81 98.0602 72.86L97.8902 73.01C97.8302 73.06 97.7702 73.11 97.7202 73.16C97.6302 73.28 97.4702 73.34 97.3202 73.39C97.1702 73.45 97.0502 73.53 97.0002 73.73C96.7502 73.93 96.4402 74 96.1702 74.17L95.7102 74.29C95.5502 74.32 95.4002 74.38 95.2502 74.45C95.0602 74.33 94.9102 74.33 94.7502 74.37C94.5902 74.4 94.4402 74.48 94.2802 74.55C94.1102 74.58 93.9502 74.59 93.7902 74.57C93.6302 74.55 93.4702 74.5 93.3102 74.45C93.1502 74.43 92.9902 74.39 92.8402 74.35C92.6802 74.31 92.5402 74.24 92.3902 74.17C92.2202 74.16 92.0902 74.05 91.9602 73.96C91.8302 73.87 91.7202 73.76 91.5502 73.73C91.3802 73.7 91.2802 73.58 91.1702 73.46C91.0602 73.35 90.9802 73.22 90.8202 73.16C90.7502 73.12 90.6802 73.09 90.6202 73.04C90.5602 72.99 90.5002 72.94 90.4502 72.89C90.4002 72.84 90.3502 72.78 90.3102 72.71C90.2702 72.64 90.2502 72.57 90.2302 72.49C90.1402 72.37 90.1102 72.22 90.0702 72.07C90.0302 71.93 89.9502 71.81 89.7802 71.74C89.6902 71.62 89.5402 71.54 89.4502 71.41C89.3602 71.29 89.3302 71.14 89.4702 70.95C89.3802 70.83 89.4002 70.68 89.4002 70.54C89.4002 70.4 89.4202 70.26 89.3102 70.14C89.3702 70.06 89.4002 69.99 89.4102 69.93C89.4202 69.86 89.4102 69.8 89.3902 69.74C89.3502 69.61 89.2702 69.49 89.2802 69.36C89.3102 69.23 89.3602 69.11 89.3802 68.99C89.4102 68.87 89.4202 68.75 89.3802 68.61C89.3502 68.54 89.3502 68.48 89.3602 68.42C89.3702 68.36 89.4002 68.3 89.4302 68.25C89.4902 68.14 89.5602 68.04 89.5702 67.92C89.5302 67.78 89.6202 67.69 89.7102 67.6C89.8002 67.51 89.9002 67.44 89.8602 67.29C89.9802 67.1 90.0502 66.89 90.2102 66.74C90.1002 66.54 90.1702 66.45 90.2802 66.4C90.3902 66.35 90.5302 66.34 90.6102 66.28C90.7002 66.23 90.7102 66.11 90.7502 66.01C90.7902 65.91 90.8602 65.85 91.0302 65.89C91.0002 65.72 91.0602 65.64 91.1502 65.62C91.2502 65.59 91.3702 65.61 91.4602 65.59C91.6402 65.56 91.6702 65.3 91.8902 65.36C91.9202 65.09 92.2202 65.32 92.3102 65.2C92.4902 65.26 92.5702 65.1 92.7002 65.09C92.7502 65.05 92.8102 65.02 92.8702 65C92.9302 65 92.9902 65 93.0602 65.02C93.1702 65.01 93.2702 65 93.3702 64.99C93.5202 64.99 93.6502 64.99 93.7602 65.01C93.8702 65.02 93.9602 65.05 94.0402 65.07C94.1902 65.12 94.2602 65.17 94.2602 65.22L94.2802 65.26Z" fill="black"/>
<path d="M49.3899 31.86C49.4999 31.86 49.6099 32.97 49.7099 35.01C49.7299 35.35 49.7399 35.71 49.7599 36.1C49.7899 36.49 49.8199 36.9 49.8099 37.34C49.7399 37.56 49.8099 37.79 49.8599 38.02C49.9199 38.31 49.9699 38.74 49.8599 39.02C49.8399 39.18 49.8299 39.35 49.8299 39.52C49.5699 39.52 49.3099 39.52 49.0499 39.54C48.9099 39.54 48.7799 39.56 48.6399 39.56H48.4299L48.3399 39.58H48.2699C47.7399 39.64 47.1899 39.49 46.6099 39.63C46.0399 39.92 45.4399 39.31 44.8299 39.67C44.5199 39.71 44.2099 39.72 43.8899 39.73C43.7299 39.73 43.5699 39.73 43.4099 39.73H43.2899H43.1999H43.0999C42.9699 39.64 42.8099 39.62 42.6999 39.63C42.6999 39.74 42.7299 39.87 42.7599 39.98L42.7999 40.13V40.16L42.8199 40.24V40.4C42.5699 41.09 42.6799 41.81 42.8699 42.54C42.5099 43.27 42.5599 44.02 42.8999 44.78C42.9099 45.54 42.7699 46.33 42.9299 47.12C42.9499 47.52 42.9599 47.92 42.9799 48.33V48.64V48.77V48.81C42.9799 48.81 42.9699 48.91 42.9499 48.98C42.9699 48.98 42.9899 48.98 43.0099 48.98C43.0899 48.94 43.1399 48.9 43.1699 48.89C43.1899 48.88 43.1999 48.87 43.2099 48.87C43.2299 48.87 43.1899 48.87 43.3299 48.87C43.7099 48.87 44.0999 48.93 44.4899 49.02C45.3499 48.76 46.2199 48.86 47.1099 49C47.4899 49.06 47.8799 49.03 48.2699 48.99L48.4299 48.97L48.6999 48.95L49.2499 48.92C49.6199 48.91 49.9899 48.9 50.3399 48.92C50.3299 49.15 50.3099 49.39 50.2799 49.62C50.2799 50.03 50.2799 50.45 50.2799 50.85C50.2799 51.08 50.2899 51.31 50.2999 51.54C50.3099 52 50.3199 52.47 50.2999 52.93C50.1899 53.87 50.0799 54.81 50.3099 55.77V55.93L50.3299 56C50.3299 56 50.3499 56.04 50.3499 56.05C50.3599 56.07 50.3799 56.09 50.3799 56.1C50.4199 56.1 50.4399 56.09 50.4599 56.1C50.4599 56.1 50.4699 56.1 50.4799 56.1H50.6699C50.8099 56.13 50.9399 56.14 51.0799 56.16C52.0599 55.88 53.0499 56.01 54.0399 56.16C55.0399 56.12 56.0399 56.31 57.0599 56.16C57.5699 56.18 58.0799 56.16 58.5899 56.13L59.1199 56.11C59.1199 56.11 59.1699 56.12 59.2399 56.15C59.2399 56.15 59.2799 56.1 59.2999 56.05V56.01H59.3099C59.3099 56.01 59.3099 56.01 59.3099 55.99V55.89L59.3299 55.51C59.3399 55 59.3299 54.49 59.2399 53.98C59.0599 52.97 59.3099 51.96 59.2399 50.96L59.2599 50.89C59.2599 50.89 59.2599 50.85 59.2799 50.79C59.2799 50.7 59.2999 50.62 59.3099 50.53C59.3299 50.36 59.3299 50.19 59.3399 50.02C59.3499 49.68 59.3499 49.35 59.3399 49C59.8599 48.98 60.3799 48.95 60.9299 48.93L61.2699 48.91C61.3499 48.91 61.4199 48.91 61.4899 48.91C61.6399 48.91 61.7899 48.91 61.9399 48.93C62.9199 48.9 63.8899 49.08 64.8399 48.94C65.2699 48.92 65.6899 48.9 66.1199 48.89H66.3499C66.3499 48.89 66.3699 48.89 66.3899 48.89C66.4199 48.89 66.4499 48.91 66.4999 48.92L66.5299 48.9C66.4299 48.79 66.3899 48.78 66.3799 48.77V48.64C66.3799 48.58 66.3799 48.52 66.3799 48.47C66.3799 48.36 66.3999 48.24 66.4199 48.12C66.4799 47.66 66.5899 47.2 66.5499 46.74C66.7199 45.83 66.5199 44.93 66.5699 44.05C66.4899 43.16 66.7499 42.29 66.5899 41.43C66.6099 41.04 66.5899 40.66 66.5599 40.28C66.5599 40.15 66.5599 40.17 66.5599 40.15C66.5599 40.13 66.5599 40.11 66.5599 40.09C66.5599 40.05 66.5599 40.01 66.5899 39.95C66.5899 39.95 66.5699 39.93 66.5599 39.91C66.4699 39.96 66.4299 39.97 66.3899 39.97C66.3799 39.97 66.3699 39.97 66.3599 39.97C66.3599 39.97 66.3299 39.97 66.2999 39.97H66.2199L65.9099 39.93C65.4999 39.88 65.0999 39.83 64.6999 39.89C63.8999 39.89 63.1199 39.9 62.3599 39.86C61.9799 39.71 61.6099 39.69 61.2399 39.72C60.9499 39.74 60.6699 39.76 60.3899 39.78C60.0899 39.8 59.7699 39.82 59.4599 39.83V39.8C59.4599 39.49 59.4599 39.2 59.4599 38.91C59.4499 38.62 59.4299 38.34 59.4199 38.06C59.3999 37.7 59.3999 37.35 59.4999 37.01C59.5299 36.32 59.6599 35.64 59.5399 34.99C59.4899 34.34 59.9899 33.7 59.5799 33.08V33.01V32.95C59.5799 32.93 59.5799 32.91 59.5799 32.88C59.5799 32.84 59.5999 32.79 59.6199 32.73C59.6599 32.62 59.6999 32.48 59.7199 32.35C59.6199 32.33 59.4599 32.35 59.3199 32.44C59.2199 32.5 59.1799 32.53 59.0999 32.54C58.9599 32.54 58.8199 32.54 58.6799 32.52C58.3999 32.48 58.1299 32.4 57.8699 32.4C57.3399 32.38 56.8299 32.37 56.3499 32.36C51.9799 32.23 49.4799 32.07 49.4799 31.9C49.4799 31.71 52.5699 31.54 57.8699 31.4C58.1299 31.4 58.4099 31.34 58.6799 31.3C58.8199 31.28 58.9599 31.27 59.0999 31.28C59.3099 31.28 59.5499 31.31 59.7499 31.35C60.0699 31.35 60.3999 31.33 60.7599 31.31C60.7799 31.59 60.7999 31.88 60.7999 32.19C60.7999 32.34 60.7999 32.5 60.7999 32.66C60.7999 32.74 60.7999 32.82 60.7799 32.9V32.96L60.7699 33V33.07C61.0399 33.68 60.8099 34.32 60.7899 34.98C60.7999 35.64 60.7099 36.31 60.8299 37C60.9099 37.35 60.8899 37.7 60.8699 38.05V38.11L60.8599 38.13V38.18C60.8599 38.18 60.8399 38.24 60.8399 38.28C60.8399 38.34 60.8399 38.41 60.8699 38.44C60.8899 38.49 60.9399 38.52 61.0099 38.54C61.0399 38.54 61.0799 38.55 61.1199 38.56C61.1399 38.56 61.1599 38.56 61.1799 38.56H61.2699C61.6399 38.55 62.0199 38.5 62.3899 38.41C63.1499 38.58 63.9299 38.37 64.7299 38.38C65.1299 38.51 65.5299 38.53 65.9399 38.51C66.0399 38.51 66.1399 38.49 66.2499 38.48H66.3299C66.3299 38.48 66.3699 38.46 66.4199 38.46L66.6799 38.44C67.0499 38.41 67.4199 38.38 67.7899 38.35C67.9399 38.35 68.0899 38.33 68.2399 38.33C68.2499 38.65 68.2499 38.99 68.2499 39.33C68.2499 39.5 68.2499 39.67 68.2499 39.84V40.28C68.2299 40.66 68.2199 41.05 68.2499 41.43C68.1999 42.29 68.3199 43.16 68.2699 44.05C68.3899 44.94 68.4399 45.83 68.2899 46.74C68.3299 47.2 68.3399 47.65 68.3299 48.12C68.3299 48.36 68.3199 48.6 68.3099 48.85C68.3099 49.28 68.3099 49.71 68.3099 50.14C68.3199 50.33 68.3299 50.53 68.3399 50.73C67.9599 50.74 67.5699 50.75 67.1699 50.75C66.9699 50.75 66.7699 50.75 66.5699 50.75H66.3299H66.1699C65.7499 50.74 65.3199 50.72 64.8899 50.73C63.9299 50.79 62.9599 50.45 61.9899 50.74C61.8399 50.74 61.6899 50.74 61.5399 50.74H61.2199H61.2099L61.0799 50.72C61.0799 50.72 61.0799 50.77 61.0799 50.8C61.0799 50.81 61.0799 50.83 61.0799 50.84V50.86C61.0799 50.86 61.0799 50.88 61.0799 50.91V50.98C61.0499 51.98 61.0099 52.98 61.0799 54C60.9399 54.51 60.9099 55.02 60.9299 55.53C60.9799 56.34 61.0299 57.16 61.0799 57.99C60.6199 58.01 60.1299 58.02 59.6399 58.03H59.0099H58.6299C58.1199 58.03 57.6099 58 57.0999 57.98C56.0899 58.01 55.0799 57.99 54.0799 57.98C53.0799 58.06 52.0899 57.86 51.1199 57.98C50.9799 58 50.8499 58.01 50.7099 58.01H50.6099H50.4899H50.0999C49.5799 58 49.0799 57.98 48.5999 57.96C48.6099 57.55 48.6199 57.16 48.6299 56.77C48.6299 56.58 48.6299 56.38 48.6299 56.19V56.04V55.96L48.6099 55.8C48.5299 54.84 48.4799 53.9 48.6199 52.96C48.6199 52.49 48.6899 52.03 48.7199 51.57C48.7399 51.34 48.7499 51.11 48.7399 50.88C48.7399 50.81 48.6999 50.76 48.6399 50.76C48.6399 50.74 48.6199 50.73 48.6099 50.73C48.5599 50.75 48.5199 50.78 48.4899 50.81C48.4799 50.82 48.4699 50.84 48.4699 50.85C48.4699 50.85 48.4699 50.85 48.4699 50.86C48.4699 50.86 48.4599 50.86 48.4399 50.86H48.3999H48.3299C47.9399 50.88 47.5499 50.84 47.1699 50.67C46.2799 50.77 45.4099 50.48 44.5499 50.65C44.1599 50.52 43.7699 50.5 43.3899 50.52C43.0899 50.54 42.7799 50.55 42.4799 50.57C42.1499 50.59 41.7999 50.61 41.4599 50.62C41.4599 50.49 41.4599 50.35 41.4599 50.21C41.4799 49.84 41.4899 49.47 41.5099 49.11V48.84L41.5299 48.74V48.66L41.5499 48.35C41.5699 47.94 41.5499 47.54 41.4899 47.14C41.3499 46.34 41.5699 45.56 41.5199 44.8C41.3499 44.04 41.7399 43.29 41.5499 42.56C41.5899 41.83 41.5299 41.12 41.5899 40.42C41.5599 40.36 41.5299 40.31 41.5099 40.26C41.4999 40.23 41.4899 40.21 41.4799 40.18C41.4799 40.13 41.4599 40.08 41.4599 40.04C41.4299 39.85 41.4199 39.65 41.4199 39.45C41.4199 39.06 41.4499 38.7 41.4999 38.38C41.9899 38.43 42.4299 38.5 42.8299 38.51C42.9599 38.51 43.0899 38.51 43.2299 38.51H43.3199H43.3799H43.4999C43.6599 38.48 43.8199 38.46 43.9799 38.44C44.2999 38.4 44.6099 38.4 44.9199 38.55C45.5399 38.25 46.1299 38.51 46.6999 38.59C47.2699 38.68 47.8299 38.46 48.3599 38.63C48.3799 38.62 48.4099 38.61 48.4299 38.6H48.4699L48.4899 38.58C48.5099 38.57 48.5299 38.56 48.5499 38.56C48.5899 38.56 48.6299 38.56 48.6799 38.56C48.7699 38.58 48.8999 38.63 49.0299 38.66C49.0499 38.61 49.0499 38.54 49.0299 38.46C49.0699 38.42 49.0799 38.35 49.0899 38.28C49.0899 38.25 49.0899 38.21 49.0899 38.17V38.05C49.0699 37.82 49.0499 37.59 49.0699 37.37C49.0199 36.93 49.0399 36.52 49.1199 36.13C49.1399 35.74 49.1499 35.38 49.1699 35.04C49.2699 33 49.3799 31.89 49.4799 31.89L49.3899 31.86Z" fill="black"/>
<path d="M109.66 76.69C109.66 76.8 108.72 76.91 107.01 77.01C106.72 77.02 106.42 77.04 106.09 77.06C105.76 77.09 105.41 77.12 105.04 77.11C104.67 76.96 104.28 77.38 103.87 77.15C103.46 77.08 103.03 77.15 102.59 77.19C102.14 77.24 101.68 77.1 101.2 77.23C100.72 77.52 100.22 76.91 99.7002 77.27C99.1802 77.35 98.6502 77.33 98.1002 77.31C97.5502 77.09 96.9802 77.31 96.4002 77.35C95.8202 77.09 95.2202 77.2 94.6002 77.38C93.9902 77.02 93.3602 77.08 92.7102 77.41C92.0702 77.42 91.4102 77.28 90.7402 77.44C90.0702 77.46 89.3902 77.53 88.6902 77.47C87.9902 77.71 87.2802 77.7 86.5602 77.49C85.8402 77.75 85.1002 77.65 84.3602 77.51C83.6202 77.37 82.8602 77.74 82.0902 77.53C81.3202 77.51 80.5502 77.59 79.7602 77.55C78.9702 77.44 78.1802 77.32 77.3702 77.56C76.5602 77.62 75.7502 77.71 74.9302 77.57C74.1102 77.85 73.2802 77.72 72.4402 77.57C71.6002 77.61 70.7602 77.42 69.9002 77.57C69.0502 77.53 68.1902 77.69 67.3202 77.57C66.4502 77.49 65.5902 77.41 64.7402 77.57C63.8902 77.75 63.0402 77.5 62.2002 77.57C61.3602 77.31 60.5302 77.65 59.7102 77.57C58.8902 77.6 58.0702 77.42 57.2702 77.56C56.4602 77.61 55.6702 77.66 54.8802 77.55C54.0902 77.95 53.3202 77.45 52.5502 77.53C51.7802 77.36 51.0302 77.56 50.2802 77.51C49.5402 77.58 48.8002 77.33 48.0802 77.49C47.3602 77.46 46.6502 77.62 45.9502 77.47C45.2502 77.67 44.5702 77.3 43.9002 77.44C43.2302 77.44 42.5702 77.45 41.9302 77.41C41.2902 77.1 40.6602 77.36 40.0402 77.38C39.4302 77.35 38.8302 77.56 38.2402 77.34C37.6602 77.32 37.0902 77.18 36.5402 77.3C35.9902 77.35 35.4502 76.85 34.9402 77.26C34.4202 77.33 33.9202 76.94 33.4402 77.22C32.9602 77.47 32.4902 77.19 32.0502 77.18C31.6002 77.16 31.1802 77.15 30.7702 77.14C27.1002 77.01 24.9902 76.85 24.9902 76.68C24.9902 76.49 27.5902 76.32 32.0502 76.18C32.4902 76.17 32.9602 75.95 33.4402 76.14C33.9202 76.14 34.4202 75.97 34.9402 76.1C35.4602 75.81 35.9902 76.05 36.5402 76.06C37.0902 76.05 37.6602 76.14 38.2402 76.02C38.8202 75.85 39.4202 76.1 40.0402 75.99C40.6502 76.17 41.2802 76.12 41.9302 75.96C42.5702 76.13 43.2302 75.92 43.9002 75.93C44.5702 76.2 45.2502 76.01 45.9502 75.9C46.6502 75.8 47.3602 75.94 48.0802 75.87C48.8002 75.92 49.5302 75.8 50.2802 75.85C51.0202 75.73 51.7802 75.68 52.5502 75.83C53.3202 75.75 54.0902 75.81 54.8802 75.81C55.6702 75.7 56.4602 75.82 57.2702 75.8C58.0802 75.74 58.8902 76.08 59.7102 75.79C60.5302 75.75 61.3602 75.84 62.2002 75.79C63.0402 75.83 63.8802 75.87 64.7402 75.79C65.5902 76.08 66.4502 75.9 67.3202 75.79C68.1902 75.71 69.0502 75.75 69.9002 75.79C70.7502 75.76 71.6002 75.78 72.4402 75.79C73.2802 75.7 74.1102 75.91 74.9302 75.79C75.7502 75.67 76.5702 75.92 77.3702 75.8C78.1802 75.72 78.9702 75.67 79.7602 75.81C80.5502 75.81 81.3202 76.07 82.0902 75.83C82.8602 75.77 83.6102 75.45 84.3602 75.85C85.1102 75.75 85.8402 76.04 86.5602 75.87C87.2802 76.17 87.9902 75.89 88.6902 75.9C89.3902 75.96 90.0702 76.06 90.7402 75.93C91.4102 75.79 92.0702 76.01 92.7102 75.96C93.3502 75.79 93.9802 76.18 94.6002 75.99C95.2102 76.03 95.8102 75.96 96.4002 76.02C96.9802 75.62 97.5502 76.02 98.1002 76.06C98.6502 76.12 99.1902 75.8 99.7002 76.1C100.22 75.8 100.72 76.06 101.2 76.14C101.68 76.23 102.15 76.01 102.59 76.18C103.04 75.97 103.46 76.3 103.87 76.22C104.28 76.36 104.67 76.22 105.04 76.27C105.41 76.22 105.76 76.24 106.09 76.32C106.42 76.34 106.72 76.35 107.01 76.37C108.72 76.47 109.66 76.57 109.66 76.68V76.69Z" fill="black"/>
</g>
<defs>
<clipPath id="clip0_3267_38506">
<rect width="84.66" height="56.74" fill="white" transform="translate(25 21)"/>
</clipPath>
</defs>
</svg>
