<svg width="59" height="80" viewBox="0 0 59 80" fill="none" xmlns="http://www.w3.org/2000/svg">
<circle cx="25" cy="47" r="25" fill="#FFD8E4"/>
<g clip-path="url(#clip0_3267_38581)">
<path d="M31.6702 34.3457C31.6325 34.3457 31.5948 33.8934 31.5572 33.0265C31.5195 32.1596 31.4818 30.8782 31.4441 29.2198C31.4365 28.6695 31.4215 28.074 31.4064 27.4408C31.3838 26.8076 31.3612 26.1292 31.3762 25.413C31.4818 24.6969 31.1803 23.9431 31.3461 23.1591C31.3913 22.3676 31.3461 21.5385 31.3159 20.6791C31.2782 19.8122 31.3838 18.9152 31.2858 17.9805C31.0823 17.0457 31.5119 16.0733 31.2556 15.0708C31.233 14.6939 31.2255 14.3094 31.2179 13.925C31.2179 13.7591 31.2179 13.6008 31.2179 13.435C31.2179 13.3521 31.2179 13.2767 31.2179 13.1938C31.1049 13.1938 30.9918 13.1938 30.8712 13.1862C29.8008 13.0279 28.7078 13.1862 27.577 13.2164C26.4463 13.0279 25.2855 13.1109 24.0944 13.239C22.9034 12.9827 21.6898 13.0204 20.446 13.2616C20.0842 13.2616 19.7223 13.2616 19.353 13.2465H19.0816H19.0138H18.9836H18.9308C18.863 13.2465 18.7951 13.2465 18.7273 13.239C18.7273 13.2842 18.7273 13.337 18.7273 13.3822V13.5707C18.7424 13.8421 18.7575 14.1134 18.7801 14.3848C18.7952 15.6814 18.8479 17.0081 18.8027 18.3574C18.9761 19.7067 18.9685 21.0786 18.8178 22.4732C19.0062 23.8677 18.9308 25.2924 18.8328 26.7322C18.7273 28.172 18.9987 29.6419 18.8479 31.1194C18.8479 31.6546 18.8479 32.1898 18.8479 32.725C18.8479 32.9964 18.8479 33.2602 18.8555 33.5316C18.8555 33.9386 18.8555 34.3532 18.8555 34.7678C18.5313 34.896 18.1996 35.0241 17.8755 35.1523C17.6795 35.2277 17.4911 35.3106 17.3026 35.3935C16.6166 35.6649 15.9307 35.9664 15.2899 36.3508C14.6417 36.7353 14.0311 37.18 13.4883 37.7077C12.9079 38.1901 12.3576 38.7178 11.8224 39.253C11.2872 39.7957 10.7746 40.3611 10.262 40.934C9.87004 41.6049 9.45544 42.2532 9.04838 42.909C8.64133 43.5648 8.24181 44.2357 7.87998 44.9367C7.57846 45.6604 7.28447 46.3916 7.04325 47.1529C6.80203 47.9067 6.62112 48.6907 6.54574 49.4897C6.41005 50.2737 6.35728 51.0803 6.34974 51.8869C6.33467 52.6934 6.38744 53.4925 6.41759 54.3066C6.48543 55.1132 6.56835 55.9197 6.7568 56.7112C6.83218 57.1108 6.96033 57.4877 7.0734 57.8796C7.13371 58.0681 7.20909 58.2565 7.28447 58.445C7.35985 58.6335 7.42769 58.8219 7.51815 58.9953C7.60861 59.1762 7.69153 59.3571 7.76691 59.538C7.84229 59.7189 7.94028 59.8999 8.01567 60.0808C8.17397 60.4426 8.35488 60.7969 8.52072 61.1587C8.60364 61.3396 8.70163 61.5055 8.79209 61.6864C8.89009 61.8598 8.973 62.0407 9.07854 62.2065C9.2896 62.5457 9.49313 62.8774 9.73435 63.1865C10.1037 63.8875 10.6314 64.483 11.1666 65.0408C11.453 65.3122 11.7244 65.5911 12.0184 65.8399L12.4481 66.2319C12.5913 66.36 12.7345 66.4882 12.8777 66.6163L13.0963 66.8048L13.3225 66.9857L13.7672 67.3475L14.2271 67.6943C14.3778 67.8073 14.5361 67.9279 14.6944 68.0259C14.8527 68.1315 15.011 68.237 15.1693 68.3425C15.3276 68.4481 15.4935 68.5385 15.6593 68.6365C15.9834 68.8325 16.3302 68.9908 16.6769 69.1416C16.8428 69.2245 17.0162 69.2999 17.1895 69.3752C17.3629 69.4506 17.5363 69.5185 17.7097 69.5939C17.883 69.6617 18.0564 69.7295 18.2373 69.7898L18.5012 69.8878C18.5916 69.918 18.6745 69.9481 18.765 69.9783C18.9384 70.0386 19.1193 70.0989 19.2927 70.1592C19.466 70.2195 19.647 70.2647 19.8279 70.3251C20.0088 70.3778 20.1822 70.4381 20.3555 70.4909L20.8907 70.6416C20.9812 70.6416 21.0792 70.6492 21.1697 70.6567C21.2601 70.6567 21.3581 70.6643 21.4486 70.6718C21.6295 70.6869 21.8104 70.7095 21.9913 70.7396C22.1722 70.7698 22.3531 70.7849 22.534 70.8226C22.715 70.8527 22.8883 70.8829 23.0693 70.913C23.2502 70.9356 23.4311 70.9658 23.6045 70.9884C23.7854 71.011 23.9663 71.0487 24.1472 71.0562C24.3281 71.0713 24.509 71.0864 24.6899 71.0939C24.7804 71.0939 24.8709 71.1015 24.9613 71.1015C25.0518 71.1015 25.1422 71.0939 25.2327 71.0864C25.5945 71.109 25.9563 71.1166 26.3106 71.0864C26.4916 71.0713 26.6649 71.0638 26.8458 71.0487C27.0192 71.0261 27.2001 70.9959 27.3735 70.9733C27.5469 70.9432 27.7278 70.9281 27.9012 70.8904C28.0746 70.8527 28.2479 70.8226 28.4213 70.7849L28.6776 70.7321C28.7681 70.717 28.851 70.6944 28.9339 70.6718C29.1073 70.6341 29.2731 70.5964 29.4465 70.5587C29.6123 70.5135 29.7857 70.4607 29.9515 70.4155C30.1174 70.3703 30.2832 70.3251 30.4566 70.2798C30.7883 70.1818 31.1199 70.0838 31.4516 69.9783C32.1074 69.7597 32.7482 69.5034 33.3211 69.1416C34.5498 68.5536 35.6051 67.7244 36.6906 66.9932C36.8112 66.8801 36.9243 66.7671 37.0449 66.654C37.1655 66.5409 37.2861 66.4354 37.4067 66.3299C37.6479 66.1188 37.8892 65.9002 38.1379 65.6967C38.3716 65.4781 38.6053 65.2594 38.8314 65.0333C39.0425 64.7996 39.2536 64.5584 39.442 64.3021C40.241 63.3222 40.9195 62.2819 41.515 61.2266C41.6054 61.106 41.6959 60.9778 41.7788 60.8497C41.8617 60.7215 41.9447 60.5934 42.0125 60.4577C42.1482 60.1863 42.2763 59.9149 42.3743 59.636C42.4723 59.3571 42.5703 59.0782 42.6532 58.7918C42.7286 58.5053 42.8115 58.2264 42.902 57.9475C42.9849 57.6686 43.0603 57.3897 43.1281 57.1183C43.1809 56.8394 43.2412 56.5605 43.294 56.2816C43.3467 56.0027 43.3844 55.7237 43.4447 55.4524C43.4749 55.3167 43.4975 55.181 43.5277 55.0453C43.5578 54.9096 43.588 54.7739 43.6181 54.6383C43.6633 54.3669 43.686 54.0955 43.7161 53.8241C43.7312 53.6885 43.7463 53.5528 43.7613 53.4171C43.7689 53.2814 43.7764 53.1457 43.784 53.01C43.8216 52.4748 43.8141 51.9396 43.7387 51.4195C43.7161 51.1632 43.7237 50.8994 43.7161 50.6431C43.7161 50.3868 43.7161 50.1305 43.7161 49.8742C43.7086 49.6179 43.686 49.3691 43.6332 49.1204C43.603 48.9998 43.5729 48.8791 43.5352 48.7585C43.4975 48.6379 43.4372 48.5249 43.3769 48.4118C43.3467 48.2912 43.3166 48.1781 43.294 48.0575C43.2714 47.9369 43.2412 47.8238 43.2186 47.7032C43.196 47.5826 43.1734 47.462 43.1583 47.3489C43.1357 47.2283 43.1131 47.1152 43.0829 46.9946C43.0377 46.7609 42.9774 46.5273 42.8945 46.3087C42.8191 46.0901 42.7211 45.8714 42.5929 45.683C42.0954 44.899 41.9145 44.0246 41.5074 43.2708C41.1079 42.5245 40.6632 41.8386 40.2184 41.2054C39.7058 40.4968 39.1782 39.856 38.6505 39.2831C38.1153 38.7103 37.5801 38.2127 37.0675 37.7605C36.0272 36.8785 35.0624 36.2227 34.2483 35.7327C32.6125 34.7754 31.6476 34.4286 31.6778 34.3532C31.6853 34.3231 31.9944 34.3985 32.5748 34.6095C33.1477 34.8131 33.9844 35.1749 35.0171 35.7553C36.0423 36.3433 37.256 37.1649 38.5148 38.3258C39.7661 39.4942 41.0552 41.0018 42.1482 42.9165C42.5779 43.6779 43.1206 44.4543 43.3317 45.3965C43.6709 46.286 44.0779 47.2057 44.2061 48.2309C44.6282 49.1957 44.6056 50.2888 44.6508 51.3743C44.6885 51.917 44.681 52.4748 44.6508 53.0326C44.6508 53.1759 44.6433 53.3116 44.6358 53.4548C44.6282 53.598 44.6207 53.7412 44.6056 53.8769C44.5905 54.1634 44.583 54.4498 44.5604 54.7363C44.5604 54.8795 44.5453 55.0302 44.5378 55.1735C44.5302 55.3167 44.5152 55.4674 44.485 55.6107C44.4322 55.8971 44.3795 56.1911 44.3116 56.4776C44.2362 56.764 44.1609 57.058 44.0855 57.3444C44.0026 57.6309 43.9196 57.9249 43.8593 58.2264C43.3769 59.3571 42.9397 60.5104 42.4422 61.6939C41.7336 62.7568 41.1456 63.9327 40.2863 64.9655C39.2988 65.8776 38.4394 66.9178 37.3992 67.8526C36.3589 68.7797 35.1076 69.4732 33.8487 70.1592C32.5522 70.7698 31.2029 71.3728 29.7405 71.697C28.3158 72.1417 26.7931 72.3754 25.2628 72.285L24.9764 72.3C24.8784 72.3 24.7879 72.3 24.6899 72.3C24.5015 72.3 24.3055 72.3 24.1095 72.3C23.9211 72.3 23.7251 72.285 23.5291 72.2699C23.3331 72.2548 23.1446 72.2397 22.9486 72.2246C22.7527 72.202 22.5642 72.1719 22.3682 72.1493C22.1798 72.1191 21.9838 72.104 21.7878 72.0588C21.5993 72.0211 21.4033 71.9834 21.2073 71.9533L20.9209 71.9005L20.6344 71.8327C20.4385 71.795 20.25 71.7573 20.054 71.7196C19.858 71.6819 19.6696 71.6216 19.4811 71.5688C19.2927 71.5161 19.0967 71.4708 18.9082 71.403C18.7198 71.3352 18.5313 71.2748 18.3429 71.207C18.2524 71.1693 18.1544 71.1467 18.064 71.109L17.785 70.9959C17.5966 70.9206 17.4157 70.8452 17.2272 70.7698C17.0463 70.6869 16.8579 70.604 16.6769 70.521C16.496 70.4381 16.3076 70.3627 16.1342 70.2647C15.7724 70.0914 15.4105 69.9029 15.0713 69.6843C14.898 69.5788 14.7246 69.4732 14.5587 69.3526L14.0612 69.0059C13.8954 68.8928 13.7295 68.7722 13.5637 68.6516C13.3979 68.531 13.232 68.4104 13.0662 68.2973C12.9004 68.1767 12.7345 68.0561 12.5687 67.9355C12.4858 67.8752 12.3953 67.8224 12.3124 67.7621C12.2295 67.7018 12.139 67.6415 12.0561 67.5887L11.5887 67.1892C11.438 67.0535 11.2872 66.9027 11.1364 66.7595C10.8349 66.4806 10.556 66.164 10.2696 65.87C9.71928 65.2444 9.18407 64.6036 8.69409 63.9252C7.73676 62.5457 6.96787 61.0306 6.30452 59.4551C6.24421 59.2516 6.20652 59.0405 6.14622 58.8294C6.09345 58.6184 6.03314 58.4148 5.98038 58.2113C5.88238 57.7967 5.75423 57.3897 5.65624 56.9675C5.4301 56.1383 5.26426 55.2941 5.12103 54.4423C5.0155 53.5829 4.96273 52.716 5.00042 51.8567C5.03058 50.9974 5.12103 50.138 5.26426 49.3013C5.52055 47.6127 6.00299 45.9694 6.6965 44.4392C7.00556 43.6552 7.41262 42.924 7.84983 42.2155C8.29457 41.5144 8.77701 40.8435 9.25191 40.1726C9.71928 39.4942 10.2922 38.8912 10.8801 38.3409C11.4757 37.7831 12.0938 37.2629 12.7044 36.7353C13.3225 36.2151 13.9708 35.7402 14.6567 35.3256C15.3427 34.911 16.0588 34.5643 16.7976 34.2854C17.0011 34.1949 17.2046 34.1045 17.4081 34.0291L17.4835 33.9989C17.4835 33.9989 17.5438 33.9763 17.5363 33.9763H17.5664L17.6343 33.9537L17.6494 33.8783V33.8557L17.6569 33.7577V33.5542C17.672 33.2828 17.687 33.0114 17.687 32.7476C17.687 32.2124 17.6795 31.6697 17.6117 31.142C17.574 29.657 17.3403 28.1946 17.6267 26.7548C17.5514 25.315 17.7624 23.8903 17.6418 22.4958C17.8529 21.1012 17.6494 19.7218 17.6569 18.38C17.6946 17.0307 17.77 15.704 17.6795 14.4074C17.6569 14.136 17.6494 13.8647 17.6494 13.5933C17.6494 13.3672 17.6494 13.141 17.6494 12.9224C17.6494 12.6887 17.6494 12.4475 17.6569 12.2138C19.2248 12.2364 19.6394 12.2817 20.4234 12.2591C21.6672 12.1384 22.8883 12.4174 24.0718 12.2817C25.2628 12.3118 26.4237 12.2666 27.5544 12.3043C28.6851 12.0178 29.7857 12.3043 30.8486 12.3269H30.9843H31.1426H31.4592C31.6702 12.3269 31.8888 12.3269 32.0999 12.3118C32.115 12.8621 32.1376 13.4124 32.1602 13.9476C32.1602 14.332 32.1451 14.7165 32.0697 15.0934C32.2884 16.0959 32.0999 17.0684 32.0396 18.0031C31.9793 18.9378 32.1301 19.8348 32.0094 20.7017C32.1602 21.5686 31.9265 22.3903 31.9793 23.1818C31.8813 23.9733 31.9793 24.7271 31.9491 25.4357C31.9793 26.1518 31.9718 26.8227 31.9114 27.4559C31.8964 28.0891 31.8888 28.6846 31.8813 29.2349C31.8436 30.8932 31.8059 32.1747 31.7682 33.0416C31.7305 33.9085 31.6928 34.3608 31.6476 34.3608L31.6702 34.3457Z" fill="black"/>
<path d="M43.7527 48.1856C43.7904 48.2534 43.4361 48.57 42.7576 49.1279C42.6446 49.2183 42.524 49.3163 42.3883 49.4218C42.2601 49.5349 42.1244 49.6555 41.9661 49.7535C41.7475 49.7761 41.7551 50.1304 41.4912 50.1153C41.2877 50.1907 41.137 50.349 40.9636 50.5073C40.7902 50.6656 40.5339 50.7109 40.3831 50.9219C40.2852 51.231 39.8329 51.0048 39.7499 51.3591C39.554 51.5476 39.3127 51.6833 39.064 51.819C38.7398 51.834 38.5665 52.1129 38.3177 52.2863C37.9634 52.2712 37.7373 52.4974 37.5187 52.7612C37.1116 52.6858 36.8553 52.8667 36.6593 53.2361C36.3653 53.3944 36.011 53.4547 35.7397 53.6959C35.4306 53.8542 35.114 54.0427 34.7522 54.1332C34.4733 54.4271 34.1039 54.5477 33.6893 54.5176C33.3727 54.8116 32.9657 54.8417 32.5511 54.8267C32.4455 54.8267 32.3475 54.8342 32.2495 54.8643C32.1515 54.887 32.0535 54.9247 31.948 54.9548C31.7445 55.0151 31.5334 55.0679 31.3223 55.0076C30.9002 55.0151 30.4479 55.0603 30.0032 54.9548L29.679 54.8342C29.5735 54.789 29.468 54.7513 29.3549 54.7136C29.1363 54.6307 28.9177 54.5704 28.6614 54.5327C28.2167 54.3593 27.7568 54.0955 27.493 53.6658C27.3724 53.613 27.2744 53.5376 27.1764 53.4547C27.0859 53.3643 27.0106 53.2663 26.9427 53.1683C26.8824 53.0627 26.8221 52.9497 26.7769 52.8366C26.7316 52.7235 26.694 52.6029 26.6638 52.4823C26.6035 52.3768 26.5583 52.2712 26.513 52.1582C26.4754 52.0451 26.4377 51.932 26.4 51.819C26.3774 51.7586 26.3698 51.721 26.3472 51.6757C26.3321 51.6305 26.3095 51.5853 26.2944 51.54C26.2567 51.4496 26.204 51.3667 26.1361 51.2988C26.0984 51.2084 26.0532 51.1254 26.008 51.0501L25.8346 50.8315C25.8045 50.7938 25.7743 50.7636 25.7442 50.7335C25.714 50.7033 25.6839 50.6656 25.6537 50.6355C25.6009 50.5601 25.5406 50.4998 25.4954 50.4244L25.4125 50.3189L25.322 50.2284L25.224 50.138C25.224 50.138 25.1486 50.0927 25.1185 50.0701C25.0431 50.0249 24.9677 49.9872 24.8848 49.9646C24.8019 49.942 24.719 49.9269 24.621 49.9344C24.4401 49.9495 24.2742 49.9118 24.1009 49.8741C24.0104 49.859 23.9199 49.844 23.8295 49.8289C23.739 49.8289 23.641 49.8289 23.5506 49.844C23.4526 49.7987 23.3546 49.7987 23.2566 49.8063C23.1586 49.8063 23.0681 49.844 22.9701 49.8741C22.7817 49.9344 22.6083 50.0324 22.4048 50.0475C22.0354 50.1681 21.6133 50.1756 21.2741 50.4093C20.9122 50.5827 20.5655 50.7712 20.1735 50.8541C19.9323 51.2762 19.4348 51.1179 19.1106 51.3441C18.7111 51.4044 18.4322 51.7059 18.0779 51.8491C17.7688 52.0677 17.3467 52.0753 17.0753 52.3466C16.7361 52.4974 16.4723 52.7688 16.1029 52.8366C15.8542 53.1306 15.417 53.0552 15.1607 53.304C14.8516 53.4623 14.5576 53.6206 14.2486 53.7412C13.8566 53.6959 13.6455 53.9975 13.3666 54.1482C13.2083 54.2085 13.0726 54.299 12.9294 54.3819C12.7862 54.4648 12.6279 54.5101 12.462 54.495C12.3113 54.5477 12.153 54.5553 12.0022 54.5854C11.9268 54.6005 11.8514 54.6156 11.7836 54.6382C11.7158 54.6608 11.6404 54.6834 11.5725 54.7211C11.4293 54.7664 11.271 54.7211 11.1202 54.6985C10.9695 54.6759 10.8338 54.6759 10.7132 54.8493C10.5775 54.887 10.4343 54.8493 10.2986 54.8191C10.1629 54.7965 10.0348 54.7663 9.90661 54.8794C9.8463 54.9246 9.77846 54.9473 9.71062 54.9548C9.65031 54.9548 9.58247 54.9548 9.52217 54.9322C9.40156 54.8945 9.28095 54.8417 9.16034 54.8342C8.92666 54.804 8.70051 54.7739 8.48945 54.7287C8.24823 54.691 8.02962 54.6231 7.81855 54.5704C7.61503 54.5101 7.41904 54.4497 7.24566 54.3819C6.89137 54.2538 6.60492 54.1256 6.37124 54.005C6.25817 53.9447 6.16017 53.8919 6.06972 53.8467C5.9868 53.7939 5.91895 53.7487 5.85865 53.711C5.75311 53.6356 5.70035 53.5753 5.71542 53.5527C5.74558 53.4849 6.06972 53.5753 6.65769 53.7336C7.24566 53.8769 8.11254 54.0955 9.20556 54.1181C9.3111 54.1181 9.42417 54.0804 9.53724 54.0578C9.59755 54.0502 9.65031 54.0427 9.70308 54.0502C9.76338 54.0502 9.81615 54.0653 9.87646 54.0955C9.99707 54.0955 10.1101 54.0653 10.2307 54.0352C10.3514 54.005 10.472 53.9899 10.6001 54.0201C10.7132 53.8995 10.8338 53.8693 10.9619 53.8693C11.0901 53.8693 11.2258 53.8769 11.3539 53.8542C11.4142 53.8392 11.4821 53.8241 11.5499 53.8165C11.6178 53.8015 11.6856 53.7864 11.7459 53.7713C11.8741 53.7412 12.0097 53.6959 12.1303 53.6055C12.2434 53.4999 12.3791 53.4698 12.5148 53.4321C12.6505 53.3944 12.7937 53.3567 12.9143 53.2587C13.246 53.2361 13.5249 53.0627 13.7586 52.814C14.1053 52.7763 14.339 52.4898 14.6405 52.3391C15.0325 52.3542 15.2813 52.0752 15.5602 51.8416C15.8466 51.6154 16.2085 51.5325 16.5175 51.3214C16.8643 51.1858 17.1583 50.937 17.5126 50.7862C17.8141 50.5299 18.1458 50.3264 18.5528 50.251C18.8845 50.0249 19.2689 49.8967 19.6458 49.7234C19.9926 49.4897 20.4072 49.3992 20.7992 49.2334C21.1911 49.0374 21.6736 49.1354 22.043 48.8113C22.4726 48.668 22.94 48.6379 23.4149 48.555C23.8973 48.5399 24.4024 48.5926 24.9225 48.668C25.0356 48.7434 25.1486 48.8263 25.2693 48.8866C25.3899 48.9469 25.5029 49.0072 25.6235 49.0675C25.6839 49.0977 25.7442 49.1203 25.8045 49.1505C25.8648 49.1806 25.9251 49.2108 25.9854 49.2409L26.1663 49.3314L26.3397 49.4445C26.7769 49.7686 27.0709 50.236 27.2518 50.6882C27.3196 50.7938 27.3648 50.9068 27.4176 51.0199L27.493 51.1858L27.5608 51.3441L27.6664 51.6154L27.7794 51.8793C27.8397 51.9546 27.885 52.0376 27.9227 52.1205C27.9679 52.2034 28.0131 52.2788 28.0508 52.3617C28.096 52.4446 28.1413 52.52 28.194 52.5954C28.2543 52.6632 28.3147 52.7311 28.39 52.7763C28.5408 52.8668 28.6463 53.0024 28.7745 53.123C28.8348 53.1833 28.8951 53.2437 28.9705 53.2889C29.0082 53.3115 29.0383 53.3341 29.0835 53.3567C29.1212 53.3718 29.1665 53.3869 29.2041 53.3944C29.5358 53.4924 29.8524 53.5603 30.1766 53.7186C30.267 53.7261 30.3499 53.7562 30.4329 53.7789C30.5158 53.8015 30.6062 53.8316 30.6967 53.8467C30.8701 53.8769 31.0585 53.8844 31.2319 53.7864C31.4053 53.7562 31.5786 53.6733 31.7445 53.6206C31.8274 53.5904 31.9179 53.5753 32.0008 53.5829C32.0912 53.5829 32.1817 53.6055 32.2872 53.6658C32.6189 53.5226 33.0184 53.6356 33.3199 53.417C33.7195 53.515 33.9908 53.206 34.315 53.0854C34.6542 53.0024 34.9934 52.9346 35.2648 52.7085C35.5286 52.4823 35.8904 52.4823 36.1618 52.3014C36.3955 52.0526 36.8026 52.1506 37.0136 51.8793C37.3001 51.7586 37.5413 51.5702 37.8127 51.4571C37.9257 51.0651 38.3177 51.1631 38.5665 51.0425C38.8303 50.9295 38.9358 50.5978 39.275 50.6355C39.3806 50.3113 39.6972 50.3339 39.9309 50.251C40.1721 50.1681 40.2852 49.9118 40.5414 49.8892C40.647 49.6404 40.956 49.7158 41.0993 49.55C41.3254 49.5198 41.4385 49.3238 41.6119 49.2409C41.7475 49.1052 41.8983 49.0148 42.0717 48.9696C42.2149 48.8866 42.3506 48.8037 42.4787 48.7283C43.2401 48.2911 43.6924 48.0951 43.7301 48.163L43.7527 48.1856Z" fill="black"/>
<path d="M15.411 8.68599C15.494 8.68599 15.5693 9.19858 15.6372 10.1333C15.6447 10.2916 15.6598 10.4574 15.6673 10.6384C15.6899 10.8193 15.7126 11.0077 15.705 11.2113C15.5995 11.4148 15.901 11.6259 15.7352 11.8445C15.7276 11.8972 15.7201 11.9651 15.7201 12.0103C15.7201 12.048 15.7201 12.0781 15.7201 12.1158C15.7276 12.1837 15.7502 12.244 15.7653 12.2967C15.7729 12.3269 15.7729 12.357 15.7653 12.4023C15.8106 12.4023 15.8482 12.4174 15.901 12.4174C15.9538 12.4174 16.0141 12.4174 16.0668 12.3797C16.1121 12.3269 16.1272 12.3194 16.1724 12.3269C16.2402 12.3269 16.3081 12.357 16.3759 12.3872C16.5116 12.44 16.6548 12.4777 16.7905 12.3495C17.077 12.2967 17.3634 12.3118 17.6649 12.3194C17.9664 12.4777 18.2755 12.3194 18.5921 12.2892C18.9087 12.4777 19.2404 12.3947 19.5721 12.2666C19.9113 12.5229 20.2505 12.4852 20.6048 12.244C20.9591 12.2364 21.3134 12.3344 21.6827 12.2214C22.0521 12.2063 22.4215 12.1535 22.8059 12.1987C23.1828 12.0254 23.5748 12.0329 23.9668 12.1837C24.3588 11.9952 24.7583 12.0706 25.1653 12.1686C25.5724 12.2741 25.987 12.0028 26.4016 12.1535C26.8237 12.1611 27.2458 12.1083 27.6755 12.1384C28.1052 12.2138 28.5424 12.2967 28.9796 12.1309C29.4168 12.0857 29.8616 12.0254 30.3139 12.1309C30.7661 11.9349 31.2184 12.0178 31.6783 12.1309C32.1381 12.1008 32.5979 12.2364 33.0653 12.1309C33.1783 12.1309 33.2989 12.1309 33.412 12.1309H33.5854L33.6758 12.1158H33.7211C33.7211 12.1158 33.7211 12.1158 33.7286 12.1158C33.7588 12.1008 33.7588 12.0932 33.8266 12.1384C33.8266 12.1384 33.8869 12.0932 33.8945 12.0404C33.8945 12.0404 33.8945 12.0404 33.8945 12.0254V11.9801V11.8897C33.8945 11.8294 33.8945 11.7766 33.8869 11.7163C33.8794 11.5957 33.8568 11.4826 33.8341 11.3696C33.706 10.9022 33.8869 10.4424 33.8341 9.98254C33.8794 9.87701 33.8945 9.77148 33.902 9.66594C33.902 9.61318 33.902 9.56041 33.902 9.50764V9.46995V9.46242C33.902 9.46242 33.902 9.44734 33.8945 9.44734C33.8718 9.40211 33.8266 9.40211 33.8341 9.36442C33.8341 9.36442 33.8341 9.36442 33.8341 9.35688C33.8115 9.35688 33.7965 9.35688 33.7814 9.35688L33.7588 9.34181H33.7437L33.7362 9.33427H33.7135C33.4874 9.31919 33.2688 9.31165 33.0502 9.36442C32.613 9.39457 32.1758 9.43226 31.7461 9.35688C31.3164 9.64333 30.8943 9.2815 30.4722 9.34181C30.0576 9.2212 29.643 9.35688 29.2359 9.32673C28.8289 9.3795 28.4293 9.19858 28.0373 9.31165C27.6454 9.28904 27.2534 9.40211 26.8765 9.29658C26.4996 9.4398 26.1227 9.17597 25.7533 9.27396C25.3839 9.27396 25.0296 9.2815 24.6754 9.25135C24.3211 9.03274 23.9819 9.21366 23.6426 9.22873C23.311 9.20612 22.9793 9.35688 22.6627 9.20612C22.3461 9.19104 22.037 9.09305 21.7355 9.17597C21.434 9.20612 21.14 8.85183 20.8611 9.14582C20.5746 9.19858 20.3033 8.91967 20.0394 9.11566C19.7756 9.29658 19.5193 9.09305 19.2781 9.08551C19.0369 9.07043 18.8032 9.0629 18.577 9.05536C16.5719 8.95736 15.4186 8.84429 15.4186 8.73122C15.4186 8.59553 16.8357 8.47492 19.2781 8.36939C19.5193 8.36185 19.7756 8.20355 20.0394 8.33924C20.3033 8.33924 20.5746 8.21863 20.8611 8.30909C21.14 8.10556 21.434 8.2714 21.7355 8.27893C22.037 8.2714 22.3461 8.3317 22.6627 8.25632C22.9793 8.13571 23.311 8.31662 23.6426 8.23371C23.9743 8.36185 24.3211 8.32416 24.6754 8.21109C25.0221 8.3317 25.3839 8.18094 25.7533 8.18848C26.1227 8.37693 26.492 8.24878 26.8765 8.16586C27.2534 8.09802 27.6454 8.19601 28.0373 8.15079C28.4293 8.18848 28.8364 8.10556 29.2359 8.13571C29.643 8.04525 30.0576 8.0151 30.4722 8.12063C30.8943 8.06033 31.3164 8.10556 31.7461 8.10556C32.1758 8.03018 32.613 8.1131 33.0502 8.09802C33.2688 8.07541 33.4949 8.12817 33.7135 8.15832H33.7362H33.7738H33.8492L33.9924 8.1734C34.0904 8.1734 34.1884 8.1734 34.2864 8.1734C34.49 8.16586 34.6935 8.14325 34.9498 8.09048C35.0101 8.09048 35.0704 8.09048 35.1382 8.09048C35.1382 8.47492 35.1382 8.88198 35.1307 9.27396C35.1307 9.40965 35.1307 9.55287 35.1307 9.68856C35.1307 9.79409 35.1307 9.89963 35.1458 10.0052C35.1232 10.465 35.093 10.9248 35.1458 11.3922C35.093 11.5128 35.0629 11.6259 35.0478 11.7389C35.0402 11.7992 35.0327 11.8595 35.0327 11.9123V12.1158C35.0553 12.5229 35.1081 12.9601 35.1458 13.4501C34.7312 13.4802 34.2714 13.4878 33.8191 13.4802H33.6909H33.6005H33.4271L33.0803 13.4501C32.613 13.4727 32.1532 13.4576 31.6933 13.4501C31.2335 13.5104 30.7812 13.3596 30.3289 13.4501C29.8766 13.5405 29.4319 13.3521 28.9947 13.4425C28.5575 13.5028 28.1203 13.533 27.6906 13.435C27.2609 13.435 26.8388 13.2465 26.4167 13.4199C25.9945 13.4576 25.5875 13.6913 25.1804 13.4048C24.7734 13.4802 24.3738 13.2616 23.9819 13.3898C23.5899 13.1787 23.1979 13.3822 22.821 13.3747C22.4365 13.337 22.0672 13.2616 21.6978 13.3521C21.3284 13.4501 20.9741 13.2993 20.6199 13.3295C20.2656 13.4501 19.9264 13.1712 19.5871 13.3068C19.2555 13.2767 18.9238 13.3219 18.6072 13.2842C18.2906 13.5707 17.9815 13.2842 17.68 13.2616C17.3785 13.2239 17.0845 13.4501 16.8056 13.2315C16.6624 13.337 16.5267 13.3445 16.391 13.3219C16.3231 13.3068 16.2553 13.2842 16.1875 13.2616C16.0895 13.239 15.9839 13.2164 15.8859 13.2013C15.7427 13.1787 15.607 13.1862 15.4563 13.2013C15.3055 13.2089 15.1472 13.2315 15.0115 13.2239C15.0115 13.1184 15.0266 12.9978 15.0567 12.8772C14.9814 12.749 15.004 12.5304 15.0341 12.3495C15.0492 12.2591 15.0718 12.1686 15.0794 12.0857C15.0944 12.0178 15.0944 11.9651 15.0794 11.9123C15.1774 11.6937 15.0794 11.4751 15.1095 11.2791C15.0794 11.0756 15.0869 10.8871 15.1472 10.7062C15.1623 10.5253 15.1698 10.3594 15.1849 10.2011C15.2527 9.26643 15.3281 8.75383 15.411 8.75383V8.68599Z" fill="black"/>
<path d="M33.6767 43.1874C33.6767 43.2251 33.639 43.2703 33.5787 43.308C33.5485 43.3306 33.5033 43.3457 33.4581 43.3683C33.4128 43.3909 33.3601 43.4211 33.3073 43.4437C33.2696 43.4663 33.2319 43.4889 33.1867 43.5115C33.149 43.5417 33.1113 43.5794 33.0585 43.5869C32.9681 43.5115 33.0359 43.798 32.9229 43.6774C32.855 43.6623 32.8173 43.7226 32.7872 43.7829C32.757 43.8432 32.644 43.7829 32.6515 43.911C32.6892 44.009 32.6289 43.9864 32.5686 43.9638C32.5083 43.9412 32.4555 43.9412 32.5158 44.0543C32.5007 44.1372 32.448 44.1749 32.3952 44.2201C32.2294 44.1749 32.3047 44.3332 32.2897 44.401C32.1012 44.3633 32.1163 44.4764 32.2067 44.6045C31.9354 44.5593 31.9354 44.6799 32.1389 44.8231C32.1314 44.8608 32.1012 44.891 32.0786 44.9287C32.056 44.9664 32.0484 45.0041 32.1012 45.0568C32.1012 45.0945 32.1163 45.1397 32.1163 45.1774C32.1163 45.2151 32.1163 45.2528 32.0937 45.298C32.1766 45.3433 32.2218 45.3734 32.2294 45.4111C32.2294 45.4488 32.1992 45.494 32.1314 45.5393C32.3198 45.592 32.267 45.6674 32.1992 45.7805C32.1691 45.8332 32.2218 45.8634 32.267 45.8936C32.3123 45.9237 32.365 45.9388 32.3123 46.0142C32.3198 46.0594 32.3575 46.0895 32.3877 46.1197C32.4178 46.1499 32.448 46.1875 32.463 46.2252C32.463 46.2554 32.463 46.2855 32.463 46.3157C32.463 46.3458 32.4706 46.3685 32.4857 46.3911C32.5083 46.4363 32.561 46.4589 32.6515 46.4212C32.7495 46.4514 32.8475 46.4514 32.8701 46.5795C33.051 46.4589 33.0661 46.5644 33.1189 46.7001C33.1716 46.7001 33.2018 46.7454 33.247 46.7755C33.2847 46.8057 33.3375 46.8207 33.3902 46.7755C33.4355 46.7981 33.4882 46.7831 33.5334 46.7755C33.5787 46.7604 33.6239 46.7529 33.6767 46.8057C33.7219 46.8358 33.7747 46.8584 33.8274 46.866C33.8802 46.866 33.9254 46.8434 33.9631 46.783C33.9933 46.7152 34.0385 46.7152 34.0913 46.7227C34.144 46.7378 34.1968 46.7454 34.2345 46.7077C34.3174 46.783 34.3551 46.7378 34.3853 46.6926C34.4154 46.6474 34.4305 46.5795 34.4833 46.5871C34.5209 46.5569 34.5662 46.5494 34.6189 46.5343C34.6642 46.5268 34.7094 46.4966 34.7094 46.4288C34.732 46.3835 34.7471 46.3458 34.7772 46.3082C34.8074 46.278 34.8451 46.2478 34.8978 46.2403C34.8074 46.1197 34.8451 46.1046 34.9054 46.0895C34.9657 46.0745 35.0561 46.082 35.0486 46.0217C35.1165 46.0066 35.1391 45.9689 35.1391 45.9237C35.1391 45.8785 35.1315 45.8257 35.1617 45.7956C35.1466 45.7503 35.1843 45.7126 35.222 45.6825C35.2597 45.6448 35.2748 45.6071 35.222 45.5543C35.2446 45.5166 35.222 45.4714 35.2144 45.4337C35.1994 45.3885 35.2144 45.3508 35.2597 45.3131C35.1843 45.2754 35.2144 45.2377 35.2446 45.1925C35.2748 45.1473 35.3049 45.1021 35.2521 45.0719C35.2521 45.0342 35.2371 44.9965 35.2295 44.9588C35.222 44.9211 35.222 44.8834 35.222 44.8382C35.3124 44.7704 35.3049 44.7251 35.2748 44.695C35.2446 44.6648 35.1768 44.6498 35.1541 44.6196C35.1466 44.5367 34.9732 44.5593 35.0712 44.4161C35.0411 44.3482 35.0788 44.2276 34.9657 44.2352C34.928 44.2201 34.9657 44.1447 34.9808 44.0769C34.9883 44.0166 34.9732 43.9789 34.8451 44.0693C34.8074 44.0693 34.8149 44.0015 34.8149 43.9487C34.8149 43.896 34.7999 43.8583 34.7169 43.9261C34.5662 44.0392 34.634 43.8432 34.5812 43.798C34.536 43.7527 34.4908 43.7301 34.4456 43.6924C34.0385 43.3984 33.6917 43.3306 33.6917 43.2025C33.6917 43.1421 33.7973 43.0668 34.0083 43.0366C34.2194 43.0065 34.5511 43.014 34.9355 43.1798C35.0109 43.21 35.1768 43.1271 35.1692 43.3004C35.2371 43.3532 35.3954 43.3231 35.4029 43.4587C35.6215 43.3758 35.5763 43.5794 35.6366 43.6547C35.7195 43.7301 35.7195 43.8507 35.8552 43.896C36.0135 43.9336 35.923 44.1221 36.0436 44.1899C35.9833 44.3482 36.0436 44.4387 36.2019 44.5216C36.1642 44.597 36.1793 44.6573 36.217 44.7176C36.2547 44.7704 36.2999 44.8307 36.3075 44.8985C36.2246 44.9814 36.2246 45.0417 36.2472 45.1096C36.2698 45.1699 36.3225 45.2377 36.3678 45.3056C36.4055 45.3734 36.3904 45.4488 36.3829 45.5167C36.3678 45.5845 36.3527 45.6599 36.3602 45.7277C36.3075 45.8634 36.3527 46.0292 36.2773 46.1649C36.2924 46.2478 36.2999 46.3308 36.2773 46.4061C36.2547 46.4815 36.1944 46.5494 36.119 46.5946C36.1039 46.7604 35.9758 46.881 35.8778 47.0017C35.8627 47.0921 35.8024 47.1524 35.7421 47.2052C35.6818 47.258 35.614 47.3107 35.5537 47.371C35.5084 47.4389 35.4104 47.4615 35.3275 47.4841C35.2446 47.5067 35.1768 47.5519 35.1617 47.6801C35.0335 47.7932 34.8526 47.8158 34.7094 47.9213C34.536 47.959 34.3702 47.9816 34.2119 48.0721C34.1063 47.9816 34.0234 47.9816 33.9405 48.0042C33.8576 48.0268 33.7747 48.0796 33.6842 48.1248C33.5938 48.155 33.5033 48.155 33.4128 48.1474C33.3224 48.1324 33.2395 48.1022 33.1565 48.0721C33.0661 48.0721 32.9832 48.0419 32.9002 48.0193C32.8173 47.9967 32.7344 47.9515 32.659 47.9213C32.5686 47.9213 32.5007 47.861 32.4329 47.8007C32.365 47.7479 32.3047 47.6876 32.2067 47.6801C32.1087 47.6801 32.056 47.5972 32.0032 47.5293C31.9504 47.4615 31.9052 47.3861 31.8148 47.3635C31.7318 47.3333 31.6565 47.2881 31.6037 47.2278C31.5735 47.1976 31.5509 47.1675 31.5283 47.1298C31.5132 47.0921 31.4982 47.0469 31.4982 47.0017C31.4529 46.9413 31.4379 46.8434 31.4228 46.768C31.4077 46.6851 31.3625 46.6247 31.2569 46.5946C31.2042 46.5343 31.1062 46.4966 31.0534 46.4288C31.0006 46.3609 30.9856 46.278 31.0986 46.1649C31.0459 46.1046 31.061 46.0142 31.0685 45.9388C31.0685 45.8634 31.0911 45.788 31.0157 45.7277C31.1062 45.6373 31.1062 45.577 31.076 45.5091C31.0534 45.4413 30.9931 45.3734 31.0006 45.3056C31.0233 45.2377 31.0534 45.1699 31.0685 45.1021C31.0836 45.0342 31.0911 44.9739 31.0534 44.8985C31.0157 44.8231 31.0383 44.7628 31.0836 44.7025C31.1213 44.6422 31.1665 44.5895 31.174 44.5292C31.1363 44.4538 31.1966 44.401 31.2569 44.3558C31.3172 44.3106 31.3776 44.2729 31.3399 44.1899C31.4152 44.0919 31.4379 43.9713 31.5359 43.896C31.4454 43.7678 31.4906 43.7226 31.5509 43.7C31.6188 43.6774 31.7092 43.6849 31.7545 43.6547C31.8072 43.6321 31.8072 43.5567 31.8223 43.504C31.8374 43.4512 31.8826 43.4135 31.9881 43.4587C31.9504 43.3457 31.9881 43.3004 32.0409 43.2929C32.1012 43.2854 32.1691 43.3004 32.2294 43.2929C32.3349 43.2929 32.3274 43.1195 32.463 43.1798C32.463 42.9989 32.644 43.1798 32.6892 43.0969C32.7947 43.1572 32.8249 43.0442 32.9002 43.0517C32.953 42.9914 33.0209 42.9838 33.0887 43.0291C33.149 43.0291 33.2018 43.0291 33.2545 43.0291C33.3299 43.0291 33.3978 43.0442 33.4581 43.0517C33.5184 43.0592 33.5636 43.0818 33.6013 43.0969C33.6767 43.1271 33.7144 43.1648 33.7144 43.21L33.6767 43.1874Z" fill="black"/>
<path d="M30.765 62.3422C30.765 62.4251 30.6821 62.4929 30.5766 62.5909C30.5615 62.606 30.5389 62.6211 30.5163 62.6437C30.5012 62.6663 30.4861 62.6964 30.456 62.6964C30.3956 62.606 30.4786 62.8924 30.3956 62.7567C30.3504 62.7266 30.3429 62.7794 30.3353 62.8246C30.3353 62.8698 30.2449 62.7944 30.275 62.9C30.3278 62.9904 30.275 62.9527 30.2373 62.9226C30.1921 62.8924 30.1544 62.8774 30.2223 62.9754C30.2373 63.0357 30.2072 63.0432 30.177 63.0583C30.0338 62.9829 30.1394 63.111 30.1394 63.1487C29.966 63.0734 30.0037 63.1563 30.1167 63.2467C29.868 63.1638 29.8831 63.2467 30.1017 63.3447C30.1017 63.3749 29.9886 63.39 30.1017 63.4427C30.1092 63.4804 30.162 63.5106 30.1092 63.5483C30.2826 63.5859 30.275 63.5935 30.1318 63.6462C30.3203 63.6462 30.2524 63.6764 30.1695 63.7442C30.1243 63.7744 30.1695 63.7819 30.2072 63.7819C30.2449 63.7819 30.2826 63.7819 30.2223 63.8272C30.2223 63.8648 30.2901 63.8648 30.2901 63.9101C30.2675 63.9478 30.2524 63.9855 30.26 64.0081C30.26 64.0307 30.2977 64.0307 30.373 63.9779C30.4333 63.9704 30.4861 63.9327 30.456 64.0382C30.5841 63.8875 30.5539 63.9704 30.5464 64.0835C30.569 64.0759 30.5766 64.1061 30.5916 64.1287C30.6067 64.1513 30.6218 64.1588 30.6519 64.1136C30.667 64.1287 30.6896 64.1136 30.7047 64.0985C30.7273 64.0835 30.7424 64.0759 30.7575 64.1211C30.7726 64.1513 30.7952 64.1739 30.8178 64.1815C30.8404 64.1815 30.8555 64.1664 30.863 64.1061C30.863 64.0382 30.8856 64.0458 30.9082 64.0684C30.9309 64.091 30.961 64.1061 30.9685 64.0835C31.0213 64.1664 31.0364 64.1362 31.0364 64.1061C31.0364 64.0759 31.0364 64.0231 31.0665 64.0458C31.0816 64.0156 31.1947 64.091 31.157 63.9855C31.157 63.9628 31.157 63.9402 31.1645 63.9252C31.1721 63.9101 31.1947 63.9101 31.2324 63.9252C31.1268 63.8272 31.1495 63.8272 31.1947 63.8422C31.2399 63.8573 31.3153 63.8799 31.2927 63.8422C31.353 63.8498 31.3605 63.8347 31.353 63.8121C31.3454 63.7895 31.3228 63.7669 31.353 63.7518C31.3304 63.7292 31.3681 63.7216 31.3982 63.7141C31.4284 63.7066 31.4434 63.6839 31.3982 63.6613C31.4284 63.6236 31.3078 63.5935 31.4208 63.5633C31.353 63.5482 31.3756 63.5332 31.4133 63.5181C31.451 63.4955 31.4811 63.4729 31.4359 63.4653C31.4359 63.4276 31.4133 63.405 31.4359 63.3673C31.6319 63.2618 31.451 63.2844 31.4208 63.2693C31.4284 63.2241 31.2851 63.2844 31.3982 63.1713C31.3982 63.1412 31.451 63.0432 31.3605 63.0809C31.3379 63.0809 31.3907 63.013 31.4058 62.9678C31.4284 62.9226 31.4208 62.9 31.3153 62.998C31.2851 63.0055 31.3153 62.9527 31.3228 62.915C31.3304 62.8774 31.3304 62.8472 31.2625 62.915C31.1344 63.0432 31.2324 62.8698 31.2098 62.8397C31.1947 62.8171 31.1721 62.7944 31.1495 62.7718C30.9761 62.5834 30.7876 62.4854 30.7876 62.3648C30.7876 62.3045 30.8479 62.2291 30.9761 62.1914C31.1042 62.1462 31.3153 62.1311 31.5641 62.2215C31.6093 62.2366 31.7525 62.1386 31.7148 62.2894C31.76 62.3195 31.8807 62.2668 31.8731 62.3798C32.0616 62.2743 31.9937 62.4477 32.0314 62.5005C32.0842 62.5457 32.0691 62.6437 32.1822 62.6512C32.3254 62.6512 32.2123 62.802 32.3179 62.8321C32.2425 62.9603 32.2877 63.0055 32.4309 63.0432C32.3329 63.1563 32.5063 63.194 32.5139 63.2844C32.3405 63.3975 32.4762 63.4578 32.5591 63.5483C32.6269 63.6387 32.5289 63.7292 32.5591 63.8272C32.5139 63.9176 32.5666 64.0307 32.5139 64.1136C32.5666 64.2342 32.5515 64.3548 32.4083 64.4001C32.4083 64.5207 32.3179 64.5885 32.25 64.6714C32.25 64.7393 32.2123 64.777 32.1671 64.8147C32.1219 64.8523 32.0766 64.875 32.039 64.9202C32.0088 64.973 31.9334 64.9729 31.8731 64.9805C31.8128 64.988 31.7676 65.0106 31.7751 65.1313C31.6922 65.2142 31.5641 65.2142 31.4736 65.2896C31.353 65.3122 31.2399 65.3122 31.1419 65.3875C31.0665 65.2971 31.0138 65.282 30.9535 65.3046C30.9007 65.3272 30.8479 65.38 30.7876 65.4177C30.7273 65.4479 30.667 65.4478 30.6067 65.4403C30.5464 65.4328 30.4936 65.4026 30.4333 65.38C30.3127 65.38 30.1997 65.3348 30.1017 65.2745C30.0338 65.282 29.9886 65.2368 29.9509 65.1916C29.9057 65.1463 29.8755 65.1086 29.8001 65.1086C29.7248 65.1162 29.6946 65.0634 29.6645 65.0106C29.6343 64.9579 29.6117 64.9051 29.5438 64.8976C29.4835 64.8825 29.4308 64.8599 29.3855 64.8222C29.3479 64.7845 29.3252 64.7317 29.3328 64.6564C29.3026 64.6111 29.3102 64.5433 29.3026 64.4905C29.3026 64.4302 29.2725 64.3925 29.1745 64.385C29.1368 64.3473 29.0463 64.3322 29.0011 64.287C28.9559 64.2493 28.9483 64.189 29.0689 64.0985C29.0162 64.0608 29.0388 64.0005 29.0614 63.9478C29.0765 63.895 29.0916 63.8422 29.0237 63.8045C29.1217 63.7442 29.1217 63.699 29.0916 63.6613C29.0689 63.6161 29.0162 63.5709 29.0237 63.5256C29.0689 63.4352 29.1443 63.3598 29.0689 63.2618C29.0237 63.209 29.0463 63.1713 29.084 63.1337C29.1142 63.096 29.1519 63.0658 29.1519 63.0206C29.1066 62.9603 29.1594 62.9377 29.2122 62.9075C29.2574 62.8849 29.3102 62.8698 29.2649 62.802C29.3177 62.7417 29.3252 62.6588 29.4006 62.6211C29.3026 62.508 29.3328 62.4778 29.3855 62.4703C29.4383 62.4628 29.5212 62.4854 29.5514 62.4703C29.5891 62.4628 29.574 62.4025 29.5815 62.3572C29.5815 62.3195 29.6117 62.2894 29.7097 62.3497C29.6117 62.1462 29.7926 62.2442 29.868 62.2592C29.9434 62.2743 29.9132 62.1236 30.0187 62.1989C29.9886 62.0406 30.1469 62.2291 30.162 62.1612C30.2449 62.2291 30.2449 62.1311 30.2977 62.1462C30.3278 62.1009 30.3655 62.1009 30.4183 62.1462C30.456 62.1462 30.4936 62.1462 30.5238 62.1537C30.7198 62.1914 30.8027 62.2743 30.8027 62.3497L30.765 62.3422Z" fill="black"/>
<path d="M18.8101 58.9199C18.8101 58.9576 18.7724 59.0028 18.7121 59.0405C18.6819 59.0631 18.6367 59.0782 18.5915 59.1008C18.5462 59.1234 18.4935 59.1536 18.4407 59.1762C18.403 59.1988 18.3653 59.2139 18.3201 59.244C18.2824 59.2742 18.2447 59.3119 18.1919 59.3194C18.1015 59.2365 18.1693 59.5305 18.0563 59.4099C17.9884 59.3948 17.9507 59.4551 17.9206 59.5154C17.8904 59.5757 17.7773 59.5154 17.7849 59.6435C17.8226 59.7415 17.7623 59.7189 17.702 59.6963C17.6417 59.6737 17.5889 59.6662 17.6492 59.7868C17.6341 59.8697 17.5814 59.9074 17.5286 59.9526C17.3628 59.9074 17.4381 60.0657 17.4231 60.1335C17.2271 60.0958 17.2497 60.2089 17.3326 60.3371C17.0612 60.2918 17.0688 60.4124 17.2723 60.5557C17.2648 60.5933 17.2346 60.6235 17.212 60.6612C17.1894 60.6989 17.1818 60.7366 17.2346 60.7893C17.2346 60.827 17.2421 60.8723 17.2497 60.91C17.2497 60.9476 17.2497 60.9929 17.2271 61.0306C17.31 61.0758 17.3552 61.1059 17.3628 61.1436C17.3628 61.1813 17.3326 61.219 17.2648 61.2718C17.4532 61.3245 17.4004 61.3999 17.3326 61.513C17.3024 61.5733 17.3552 61.5959 17.4004 61.6261C17.4532 61.6562 17.4984 61.6713 17.4457 61.7467C17.4758 61.8296 17.5663 61.8748 17.5964 61.9653C17.5964 62.0256 17.5964 62.0859 17.619 62.1236C17.6417 62.1688 17.6944 62.1839 17.7849 62.1537C17.8377 62.1688 17.8829 62.1763 17.9281 62.1914C17.9658 62.2065 17.996 62.2442 18.011 62.312C18.1919 62.1914 18.207 62.297 18.2598 62.4326C18.3126 62.4326 18.3427 62.4779 18.3804 62.508C18.4181 62.5306 18.4709 62.5608 18.5236 62.508C18.5688 62.5306 18.6141 62.5156 18.6668 62.508C18.7196 62.4929 18.7648 62.4929 18.8101 62.5382C18.8553 62.5683 18.9081 62.5909 18.9608 62.5985C19.0136 62.5985 19.0588 62.5759 19.0965 62.5156C19.1267 62.4477 19.1719 62.4402 19.2247 62.4553C19.2774 62.4628 19.3302 62.4779 19.3679 62.4402C19.4508 62.508 19.4885 62.4703 19.5186 62.4251C19.5488 62.3799 19.5639 62.312 19.6166 62.3196C19.6543 62.2894 19.6996 62.2819 19.7448 62.2668C19.7976 62.2517 19.8352 62.2291 19.8352 62.1613C19.8579 62.1236 19.8729 62.0784 19.9031 62.0407C19.9182 62.0256 19.9332 62.0105 19.9559 61.9954C19.9709 61.9804 19.9935 61.9728 20.0237 61.9653C19.9332 61.8447 19.9709 61.8296 20.0312 61.8145C20.0915 61.807 20.182 61.807 20.1745 61.7467C20.2423 61.7316 20.2649 61.6939 20.2649 61.6487C20.2649 61.6035 20.2574 61.5507 20.2875 61.5205C20.2725 61.4753 20.3177 61.4376 20.3478 61.4075C20.3855 61.3698 20.4081 61.3321 20.3554 61.2793C20.3629 61.2567 20.3629 61.2416 20.3554 61.219L20.3403 61.1587C20.3252 61.121 20.3403 61.0758 20.3855 61.0381C20.3101 61.0004 20.3403 60.9627 20.3705 60.9175C20.4006 60.8723 20.4308 60.827 20.378 60.7969C20.378 60.7592 20.3629 60.7215 20.3554 60.6838C20.3478 60.6461 20.3478 60.6084 20.3478 60.5632C20.4383 60.4954 20.4308 60.4501 20.4006 60.42C20.3705 60.3898 20.3026 60.3747 20.28 60.3446C20.2725 60.2617 20.0991 60.2843 20.1971 60.1411C20.1669 60.0732 20.2046 59.9526 20.084 59.9601C20.0463 59.9451 20.084 59.8697 20.0991 59.8094C20.1066 59.7491 20.0915 59.7114 19.9634 59.8018C19.9182 59.8018 19.9332 59.734 19.9332 59.6812C19.9332 59.6285 19.9182 59.5908 19.8277 59.6586C19.6769 59.7717 19.7373 59.5757 19.692 59.5305C19.6468 59.4852 19.6016 59.4626 19.5563 59.4249C19.1417 59.1385 18.8025 59.0631 18.8025 58.935C18.8025 58.8747 18.9081 58.7993 19.1191 58.7691C19.3302 58.7314 19.6619 58.7465 20.0463 58.9124C20.1217 58.9425 20.2875 58.8596 20.28 59.0254C20.3478 59.0782 20.5061 59.048 20.5137 59.1837C20.7323 59.1008 20.6871 59.2968 20.7474 59.3797C20.8303 59.4551 20.8303 59.5832 20.966 59.6209C21.1243 59.6586 21.0413 59.8471 21.162 59.9149C21.1017 60.0732 21.162 60.1637 21.3203 60.2466C21.2826 60.322 21.2976 60.3823 21.3353 60.4426C21.373 60.5029 21.4258 60.5557 21.4258 60.6235C21.3429 60.7064 21.3429 60.7667 21.3655 60.8346C21.3881 60.8949 21.4409 60.9627 21.4861 61.0306C21.5238 61.0984 21.5087 61.1738 21.4936 61.2416C21.4936 61.2793 21.4786 61.3095 21.4786 61.3472C21.4786 61.3848 21.471 61.415 21.4786 61.4527C21.4258 61.5884 21.471 61.7542 21.3956 61.8899C21.4107 61.9728 21.4183 62.0557 21.3956 62.1387C21.373 62.214 21.3203 62.2819 21.2373 62.3271C21.2373 62.41 21.1921 62.4779 21.1469 62.5457C21.1016 62.6136 21.0489 62.6663 20.9961 62.7342C20.9886 62.7794 20.966 62.8171 20.9433 62.8472C20.9207 62.8774 20.8906 62.9075 20.8604 62.9377C20.8001 62.9905 20.7323 63.0432 20.6795 63.1035C20.6343 63.1714 20.5363 63.194 20.4534 63.2166C20.3705 63.2392 20.3026 63.2845 20.2875 63.4126C20.1594 63.5257 19.9785 63.5558 19.8352 63.6538C19.7523 63.6689 19.6619 63.6915 19.579 63.7141C19.496 63.7292 19.4131 63.7669 19.3302 63.8121C19.2247 63.7217 19.1417 63.7141 19.0588 63.7443C18.9759 63.7669 18.893 63.8197 18.8025 63.8649C18.7121 63.895 18.6216 63.895 18.5312 63.8875C18.4407 63.8724 18.3578 63.8423 18.2749 63.8121C18.1015 63.797 17.9281 63.7367 17.7698 63.6614C17.6794 63.6614 17.6115 63.6011 17.5361 63.5483C17.4683 63.4955 17.408 63.4352 17.31 63.4277C17.212 63.4277 17.1592 63.3448 17.1065 63.2769C17.0537 63.2091 17.0085 63.1337 16.918 63.1111C16.8351 63.0809 16.7597 63.0357 16.6994 62.9754C16.6391 62.9151 16.6014 62.8397 16.5939 62.7417C16.5486 62.6739 16.5336 62.5834 16.5185 62.508C16.5034 62.4251 16.4582 62.3648 16.3526 62.3347C16.2999 62.2743 16.2019 62.2291 16.1491 62.1688C16.0964 62.1085 16.0813 62.0181 16.1943 61.905C16.134 61.8447 16.1567 61.7618 16.1642 61.6788C16.1642 61.6035 16.1868 61.5281 16.1114 61.4678C16.2019 61.3848 16.2019 61.317 16.1717 61.2492C16.1491 61.1813 16.0888 61.1135 16.0964 61.0456C16.119 60.9778 16.1491 60.9099 16.1642 60.8421C16.1793 60.7743 16.1868 60.714 16.1491 60.6386C16.1039 60.5632 16.134 60.4954 16.1717 60.4426C16.2094 60.3823 16.2547 60.3295 16.2547 60.2692C16.217 60.1938 16.2773 60.1411 16.3376 60.0958C16.3903 60.0506 16.4582 60.0129 16.4205 59.93C16.4959 59.832 16.5185 59.7114 16.6165 59.636C16.526 59.5079 16.5713 59.4626 16.6316 59.44C16.6994 59.4174 16.7899 59.4249 16.8351 59.3948C16.8879 59.3722 16.8879 59.2968 16.9029 59.244C16.918 59.1913 16.9557 59.1536 17.0688 59.1988C17.0311 59.0857 17.0688 59.0405 17.1215 59.033C17.1743 59.0254 17.2497 59.0405 17.31 59.033C17.4155 59.033 17.408 58.8596 17.5437 58.9199C17.5437 58.739 17.7246 58.9199 17.7698 58.837C17.8753 58.8973 17.9055 58.7842 17.9809 58.7917C18.0336 58.7314 18.1015 58.7239 18.1693 58.7691C18.2296 58.7691 18.2824 58.7691 18.3352 58.7691C18.4105 58.7691 18.4784 58.7842 18.5387 58.7917C18.599 58.7993 18.6442 58.8219 18.6819 58.837C18.7573 58.8747 18.795 58.9048 18.795 58.95L18.8101 58.9199Z" fill="black"/>
<path d="M54.9693 22.2169C54.9693 22.2998 54.3437 22.3752 53.2054 22.443C53.017 22.4581 52.8134 22.4656 52.5948 22.4807C52.3762 22.5033 52.1426 22.5259 51.9013 22.5109C51.6526 22.4053 51.3963 22.7068 51.1249 22.541C50.8535 22.4958 50.5671 22.541 50.2731 22.5712C49.9791 22.6088 49.6701 22.5033 49.3459 22.6013C49.0218 22.8048 48.6901 22.3752 48.3434 22.6315C47.9966 22.6842 47.6423 22.6692 47.2729 22.6616C46.9036 22.5033 46.5267 22.6616 46.1422 22.6918C45.7578 22.5033 45.3583 22.5862 44.9512 22.7144L44.8984 22.6842C44.8984 22.6842 44.8834 22.6692 44.8758 22.6541C44.8608 22.639 44.8457 22.6239 44.8231 22.6088C44.7854 22.5787 44.7401 22.5636 44.7025 22.5485C44.612 22.5259 44.5291 22.5259 44.4838 22.5485C44.514 22.6616 44.5743 22.7898 44.6572 22.8727C44.6572 22.8878 44.6572 22.9104 44.6572 22.9254V22.9481C44.6572 22.9481 44.6572 22.9556 44.6572 22.9933C44.6572 23.0988 44.6421 23.2119 44.6346 23.3174C44.6271 23.536 44.6346 23.7546 44.6874 23.9808C44.7025 24.4255 44.7552 24.8854 44.71 25.3452C44.8834 25.8125 44.8758 26.2799 44.7251 26.7623C44.9135 27.2448 44.8381 27.7348 44.7401 28.2247C44.6346 28.7222 44.906 29.2198 44.7552 29.7324C44.7401 30.2449 44.8004 30.7575 44.7628 31.2852C44.6874 31.8053 44.6045 32.3405 44.7703 32.8757C44.8155 33.4109 44.8758 33.9537 44.7778 34.504C44.9738 35.0543 44.8909 35.6045 44.7778 36.1624C44.7778 36.2302 44.7778 36.298 44.7778 36.3734V36.479V36.5769C44.7778 36.6976 44.7778 36.8257 44.7778 36.9539C44.8004 37.2026 44.8155 37.4589 44.9437 37.6851C44.9663 37.8057 44.9964 37.9338 45.0492 38.0469C45.102 38.16 45.1397 38.2806 45.2075 38.3936C45.2678 38.5067 45.3281 38.6122 45.3809 38.7253C45.4412 38.8384 45.5015 38.9439 45.5467 39.0645C45.7729 39.5243 46.0895 39.9616 46.5493 40.1952C46.6699 40.248 46.7754 40.3083 46.8734 40.3837C46.9714 40.4591 47.077 40.5194 47.175 40.5948C47.2729 40.6701 47.3785 40.738 47.484 40.7983C47.5895 40.8586 47.7026 40.9189 47.8232 40.949C47.9212 41.032 48.0343 41.0998 48.1474 41.1375C48.268 41.1752 48.3886 41.1903 48.5092 41.2053C48.6298 41.2204 48.758 41.2053 48.8786 41.2204C48.9389 41.2204 48.9992 41.228 49.0595 41.243C49.1198 41.243 49.1801 41.2506 49.2404 41.2656C49.361 41.2656 49.4816 41.2883 49.6022 41.2883C49.7228 41.2883 49.8434 41.2883 49.964 41.2958C50.0244 41.2958 50.0847 41.2958 50.145 41.2883C50.2053 41.2883 50.2656 41.2732 50.3259 41.2656C50.3862 41.2581 50.4465 41.243 50.4993 41.228C50.5596 41.2129 50.6123 41.1827 50.6651 41.1601C51.1249 41.0244 51.5244 40.8058 51.9692 40.64C52.0295 40.5194 52.1124 40.4365 52.2029 40.3686C52.2858 40.2932 52.3913 40.2405 52.4893 40.1877C52.5948 40.1425 52.6928 40.0746 52.7908 40.0219C52.8436 39.9917 52.8888 39.9616 52.9341 39.9239C52.9793 39.8862 53.0094 39.8409 53.0471 39.7957C53.1451 39.7279 53.2356 39.66 53.311 39.5696C53.3788 39.4791 53.4466 39.3887 53.507 39.2907C53.5748 39.2002 53.6125 39.0947 53.6653 38.9967C53.718 38.8987 53.7783 38.8082 53.8311 38.7102C53.8688 38.6047 53.914 38.5067 53.9743 38.4087C54.0271 38.3107 54.0723 38.2127 54.1251 38.1147L54.2005 37.964C54.2231 37.9112 54.2382 37.8584 54.2457 37.8057C54.2758 37.7001 54.2909 37.5946 54.2909 37.4815C54.3135 37.376 54.3286 37.2705 54.3361 37.1649L54.3512 37.0066C54.3512 36.9539 54.3512 36.9011 54.3512 36.8483C54.3512 36.7428 54.3512 36.6373 54.3588 36.5317C54.3663 36.4262 54.3814 36.298 54.404 36.185C54.2608 35.7176 54.5246 35.2653 54.4266 34.8206C54.4266 34.3758 54.4191 33.9386 54.4492 33.5089C54.6678 33.0793 54.4869 32.6647 54.4718 32.2501C54.4944 31.843 54.3437 31.4435 54.4944 31.0515C54.5095 30.6671 54.6075 30.2826 54.5171 29.9208C54.4869 29.5514 54.8412 29.1971 54.5472 28.8504C54.4944 28.5036 54.7734 28.172 54.5774 27.8478C54.3964 27.5312 54.6 27.2146 54.6075 26.9206C54.6151 26.6267 54.6301 26.3402 54.6377 26.0688C54.7357 23.6265 54.8487 22.2244 54.9618 22.2244C55.0975 22.2244 55.2181 23.9582 55.3236 26.9282C55.3312 27.2222 55.4895 27.5312 55.3538 27.8554C55.3538 28.1795 55.4744 28.5112 55.3839 28.8579C55.5875 29.2047 55.4216 29.559 55.4141 29.9283C55.4216 30.2977 55.3538 30.6746 55.4367 31.0591C55.5573 31.451 55.3764 31.843 55.4593 32.2576C55.3312 32.6647 55.3689 33.0868 55.4819 33.5165C55.3613 33.9462 55.5046 34.3834 55.5046 34.8281C55.3161 35.2729 55.4442 35.7327 55.5272 36.1925C55.5422 36.3131 55.5573 36.4186 55.5498 36.5468C55.5498 36.6749 55.5347 36.8106 55.5196 36.9388C55.5196 37.0066 55.5121 37.0669 55.497 37.1348L55.4669 37.3308C55.4442 37.4589 55.4292 37.5946 55.4141 37.7227C55.3689 37.8509 55.3387 37.979 55.3086 38.1072C55.2935 38.175 55.2784 38.2353 55.2633 38.3032L55.203 38.4992C55.1578 38.6273 55.1276 38.763 55.0749 38.8836C55.0146 39.0118 54.9543 39.1324 54.8864 39.253C54.7055 39.7806 54.4115 40.2932 53.9291 40.6249C53.5823 41.0772 53.0999 41.4239 52.5948 41.7104C52.1275 42.0722 51.532 42.2381 50.9591 42.3813C50.8912 42.4039 50.8159 42.4265 50.7405 42.4416C50.6651 42.4491 50.5897 42.4567 50.5143 42.4642C50.4389 42.4642 50.3636 42.4642 50.2882 42.4717C50.2128 42.4717 50.1374 42.4717 50.062 42.4717C49.9113 42.4717 49.7605 42.4642 49.6098 42.4717C49.459 42.4868 49.3082 42.4944 49.1499 42.5396C48.5318 42.5245 47.9288 42.3436 47.3408 42.1476C46.7679 41.8913 46.2402 41.5596 45.7126 41.2053C45.5392 40.9189 45.3206 40.7003 45.102 40.4666C45.0492 40.4138 44.9889 40.3535 44.9286 40.3008L44.7628 40.1274C44.6572 40.0143 44.5291 39.9013 44.4311 39.7731C44.024 39.2681 43.7903 38.6349 43.6622 38.0167C43.5642 37.7152 43.519 37.3986 43.4813 37.082C43.4813 36.9237 43.4662 36.7654 43.4587 36.6071V36.4865V36.381V36.1699C43.3984 35.6121 43.5491 35.0618 43.4662 34.5115C43.3757 33.9612 43.5642 33.4185 43.4662 32.8833C43.4059 32.3481 43.3757 31.8204 43.4737 31.2927C43.4737 30.7726 43.6622 30.2525 43.4888 29.7399C43.4511 29.2273 43.2174 28.7298 43.5039 28.2323C43.4285 27.7348 43.6471 27.2448 43.519 26.7699C43.73 26.2874 43.5265 25.8201 43.534 25.3527C43.5717 24.8854 43.6471 24.4331 43.5567 23.9883C43.5039 23.7622 43.519 23.5436 43.5416 23.325C43.5567 23.2194 43.5642 23.1064 43.5717 23.0008C43.5717 22.9858 43.5717 22.9254 43.5717 22.8802V22.7445C43.5717 22.6541 43.5717 22.5636 43.5717 22.4656C43.5265 22.1867 43.534 21.9153 43.5567 21.6817C43.813 21.7043 44.0617 21.7344 44.2879 21.7495C44.4009 21.757 44.5065 21.757 44.6195 21.757C44.6723 21.757 44.7251 21.757 44.7778 21.742C44.8004 21.742 44.8381 21.742 44.8532 21.7344C44.8683 21.7344 44.8834 21.7269 44.906 21.7194C45.313 21.7495 45.7126 21.7043 46.097 21.742C46.489 21.4555 46.8659 21.742 47.2277 21.7646C47.5971 21.8023 47.9514 21.5761 48.2981 21.7947C48.6449 21.5761 48.9766 21.7646 49.3007 21.8249C49.6173 21.8852 49.9339 21.7344 50.2279 21.855C50.5219 21.7043 50.8083 21.938 51.0797 21.8852C51.3511 21.9832 51.6074 21.8852 51.8561 21.9153C52.1049 21.8852 52.331 21.8927 52.5496 21.953C52.7682 21.9681 52.9717 21.9756 53.1602 21.9907C54.2985 22.0586 54.9241 22.1339 54.9241 22.2169H54.9693Z" fill="black"/>
<path d="M41.0993 17.302C41.1822 17.302 41.2576 17.7845 41.3254 18.6664C41.333 18.8172 41.3481 18.9755 41.3631 19.1413C41.3858 19.3072 41.4084 19.4881 41.3933 19.6765C41.2878 19.865 41.5893 20.0685 41.4234 20.2796C41.3782 20.4906 41.4234 20.7092 41.4536 20.9429C41.4687 21.056 41.4536 21.1766 41.4536 21.2972C41.4536 21.3575 41.4536 21.4178 41.4536 21.4781C41.4536 21.5083 41.4687 21.546 41.4913 21.5686C41.5667 21.5912 41.5591 21.6214 41.5214 21.6817C41.4913 21.742 41.4385 21.8324 41.431 21.9003C41.4687 21.9003 41.529 21.8852 41.6119 21.8173C41.6948 21.7872 41.7476 21.7797 41.8003 21.7797H41.838H41.9285C41.9963 21.7797 42.0717 21.7797 42.1396 21.7872C42.426 21.9455 42.7125 21.7872 43.014 21.757C43.3155 21.9455 43.6246 21.8626 43.9412 21.7344C44.2578 21.9907 44.5819 21.953 44.9136 21.7118C45.2453 21.7043 45.5845 21.8023 45.9312 21.6892C46.278 21.6741 46.6247 21.6214 46.9866 21.6666C47.3484 21.4932 47.7102 21.5007 48.0796 21.6515C48.449 21.4631 48.8259 21.5384 49.2103 21.6364C49.5947 21.742 49.9867 21.4706 50.3787 21.6214C50.7707 21.6364 51.1702 21.5761 51.5773 21.6063C51.9843 21.6817 52.3914 21.7646 52.806 21.5987C53.2206 21.5535 53.6427 21.4932 54.0648 21.5987C54.487 21.4027 54.9166 21.4857 55.3463 21.5987C55.776 21.5686 56.2132 21.7043 56.6579 21.5987C56.771 21.5987 56.8765 21.5987 56.9896 21.5987H57.1555L57.2384 21.5837C57.2459 21.5837 57.2459 21.5837 57.2535 21.5837C57.2836 21.5686 57.2761 21.561 57.3514 21.6063C57.3514 21.6063 57.4118 21.5686 57.4193 21.5158C57.4193 21.5158 57.4193 21.5083 57.4193 21.4932V21.4103C57.4193 21.3575 57.4193 21.2972 57.4118 21.2444C57.4042 21.1314 57.3816 21.0258 57.3514 20.9128C57.2233 20.4756 57.4042 20.0384 57.3514 19.6011C57.5399 19.1715 57.2911 18.7418 57.3514 18.3197C57.3514 18.2367 57.3514 18.1538 57.3514 18.0709C57.3514 18.0558 57.3665 18.0408 57.3741 18.0257C57.3891 17.988 57.4042 17.9428 57.3967 17.9126C57.3741 17.9126 57.3439 17.9277 57.3138 17.9503C57.2911 17.9578 57.2685 17.9654 57.2535 17.9729H57.2308V17.9804H57.1781H57.1027C56.8992 17.9804 56.6956 17.9729 56.4921 17.9352C56.085 18.2217 55.6855 17.8598 55.2935 17.9277C54.9016 17.8071 54.5096 17.9428 54.1251 17.9126C53.7407 17.9654 53.3638 17.7845 52.9944 17.8975C52.6251 17.8749 52.2557 17.988 51.8939 17.8825C51.532 18.0257 51.1853 17.7618 50.8385 17.8598C50.4918 17.8598 50.1526 17.8674 49.8209 17.8372C49.4892 17.6186 49.1651 17.7995 48.8485 17.8146C48.5319 17.792 48.2228 17.9428 47.9213 17.792C47.6198 17.7769 47.3258 17.6789 47.0469 17.7618C46.7604 17.792 46.489 17.4377 46.2177 17.7317C45.9463 17.7845 45.69 17.5055 45.4412 17.7015C45.1925 17.8825 44.9513 17.6789 44.7251 17.6714C44.4914 17.6563 44.2728 17.6488 44.0618 17.6412C42.1697 17.5432 41.0842 17.4302 41.0842 17.3171C41.0842 17.1814 42.426 17.0608 44.7251 16.9553C44.9513 16.9477 45.1925 16.7894 45.4412 16.9251C45.69 16.9251 45.9463 16.8045 46.2177 16.895C46.4815 16.6914 46.7604 16.8573 47.0469 16.8648C47.3333 16.8573 47.6198 16.9251 47.9213 16.8422C48.2228 16.7216 48.5319 16.9025 48.8485 16.8196C49.1651 16.9477 49.4892 16.91 49.8209 16.797C50.1526 16.9176 50.4918 16.7668 50.8385 16.7744C51.1853 16.9628 51.5396 16.8347 51.8939 16.7517C52.2557 16.6839 52.6175 16.7819 52.9944 16.7367C53.3638 16.7744 53.7407 16.6914 54.1251 16.7216C54.5096 16.6311 54.9016 16.601 55.2935 16.7065C55.6855 16.6462 56.085 16.6914 56.4921 16.6914C56.6956 16.6537 56.8992 16.6537 57.1027 16.6613H57.2761L57.5625 16.6764C57.751 16.6764 57.947 16.6764 58.1429 16.6764C58.3088 16.6688 58.4671 16.6764 58.6178 16.6764C58.6028 17.0005 58.5575 17.3246 58.55 17.6186C58.55 17.7694 58.55 17.9126 58.55 18.0558C58.5651 18.1387 58.5877 18.2217 58.6254 18.3046C58.6555 18.7267 58.5952 19.1564 58.6254 19.5861C58.5952 20.0157 58.5726 20.4529 58.6254 20.8977C58.5726 21.0108 58.5425 21.1163 58.5274 21.2294C58.5274 21.2821 58.5123 21.3424 58.5123 21.3952C58.5123 21.4254 58.5123 21.448 58.5123 21.4781V21.6214C58.5349 22.0058 58.5877 22.4279 58.6254 22.8878C58.2334 22.9179 57.7962 22.9254 57.3741 22.9179H57.2158H57.1328H56.967L56.6353 22.8878C56.1981 22.9104 55.7609 22.8953 55.3237 22.8878C54.894 22.9481 54.4644 22.7973 54.0422 22.8878C53.6201 22.9782 53.198 22.7973 52.7834 22.8878C52.3688 22.9481 51.9617 22.9782 51.5546 22.8802C51.1476 22.8802 50.7481 22.6918 50.3561 22.8651C49.9641 22.9028 49.5721 23.1365 49.1877 22.8501C48.8032 22.9254 48.4263 22.7144 48.057 22.835C47.6876 22.6239 47.3182 22.8274 46.9639 22.8199C46.6021 22.7822 46.2554 22.7068 45.9086 22.7973C45.5619 22.8953 45.2226 22.7445 44.891 22.7747C44.5593 22.8953 44.2352 22.6164 43.9186 22.7521C43.602 22.7219 43.2929 22.7671 42.9914 22.7295C42.6898 23.0159 42.3959 22.7295 42.1169 22.7068C42.0491 22.6993 41.9737 22.7068 41.9059 22.7144H41.8531L41.8305 22.7295H41.7853C41.725 22.7445 41.6647 22.7521 41.6119 22.7596C41.3782 22.7822 41.1219 22.7898 40.9862 22.6767C40.8355 22.737 40.6847 22.7596 40.5566 22.7747C40.5415 22.6239 40.5566 22.4355 40.5943 22.2696C40.6244 22.0963 40.6621 21.9304 40.6847 21.7872C40.6998 21.6892 40.6998 21.5987 40.6998 21.5007C40.6998 21.4404 40.6847 21.3801 40.6772 21.3198C40.6621 21.1992 40.6546 21.0861 40.7149 20.9655C40.5641 20.7394 40.7978 20.5133 40.745 20.3022C40.843 20.0911 40.745 19.8876 40.7752 19.6991C40.745 19.5107 40.7525 19.3298 40.8129 19.1639C40.8204 18.9981 40.8355 18.8398 40.843 18.689C40.9108 17.8071 40.9862 17.3246 41.0691 17.3246L41.0993 17.302Z" fill="black"/>
</g>
<defs>
<clipPath id="clip0_3267_38581">
<rect width="53.6637" height="64.3" fill="white" transform="translate(5 8)"/>
</clipPath>
</defs>
</svg>
