<svg width="149" height="80" viewBox="0 0 149 80" fill="none" xmlns="http://www.w3.org/2000/svg">
<rect x="75" y="1" width="74" height="35" rx="5" fill="#D3FFD4"/>
<rect y="56" width="74" height="22" rx="5" fill="#D3FEFF"/>
<g clip-path="url(#clip0_3267_38608)">
<path d="M116.43 11.68C116.54 11.68 116.65 13.29 116.75 16.24C116.76 16.73 116.78 17.26 116.8 17.83C116.83 18.4 116.86 19 116.85 19.63C116.7 20.27 117.12 20.94 116.9 21.64C116.83 22.34 116.9 23.08 116.94 23.85C116.99 24.62 116.85 25.42 116.98 26.25C117.27 27.08 116.66 27.94 117.02 28.84C117.06 29.26 117.07 29.7 117.07 30.14C117.07 30.43 117.07 30.73 117.07 31.02C117.07 31.37 117.07 31.73 117.06 32.09C116.99 32.09 116.92 32.09 116.85 32.09C116.43 32.04 116.06 32.01 115.7 32H115.43H115.24C115.12 32 115 32 114.87 32.02C114.38 32.05 113.88 32.11 113.38 32.13C112.37 31.87 111.34 31.98 110.28 32.16C109.22 31.8 108.14 31.86 107.03 32.19C105.92 32.2 104.79 32.06 103.63 32.22C102.47 32.24 101.3 32.31 100.09 32.25C98.8902 32.49 97.6702 32.48 96.4202 32.27C95.1802 32.53 93.9102 32.43 92.6302 32.29C91.3502 32.15 90.0402 32.52 88.7202 32.31C87.4002 32.29 86.0602 32.37 84.7002 32.33C83.3402 32.22 81.9702 32.11 80.5802 32.34C79.1902 32.4 77.7902 32.49 76.3702 32.35C74.9502 32.63 73.5202 32.5 72.0702 32.35C70.6302 32.4 69.1702 32.2 67.7002 32.35H67.2602H66.6802C66.1302 32.35 65.5902 32.36 65.0402 32.37C65.0402 31.62 65.0202 30.87 65.0102 30.12C65.0102 29.67 65.0102 29.22 65.0502 28.77C65.1302 27.28 65.2102 25.8 65.0502 24.33C64.9802 23.74 64.9802 23.15 64.9902 22.57C65.0002 22.28 65.0102 21.98 65.0302 21.69L65.0502 21.27C65.0502 21.27 65.0602 21.23 65.0602 21.2C65.0502 21.18 65.0302 21.17 65.0102 21.15L64.8702 21.02L64.7102 20.88C64.2602 20.3 63.7202 19.83 63.1602 19.38C62.8802 19.15 62.6002 18.93 62.3302 18.7L62.1302 18.53L61.8002 18.23C61.5602 18.01 61.3202 17.78 61.0902 17.56C60.6002 17.12 60.1202 16.67 59.6602 16.24C60.5902 15.96 61.5202 15.69 62.4502 15.42L62.9902 15.25L63.3602 15.13C63.6102 15.05 63.8502 14.95 64.0902 14.85C64.3502 14.76 64.6102 14.66 64.8802 14.57C64.9702 14.54 64.9402 14.55 64.9602 14.54H64.9802L65.0202 14.5C65.0202 14.47 65.0202 14.45 65.0202 14.42V13.93C65.0302 13.52 65.0502 13.12 65.0902 12.71C64.9902 12.08 64.9502 11.35 64.9402 10.66C65.4302 10.66 65.9302 10.66 66.4202 10.69L66.7802 10.71H66.9602C66.9602 10.71 67.0002 10.72 67.0202 10.72H67.0702L67.4402 10.77C67.9302 10.82 68.4302 10.87 68.9202 10.84C70.2402 11.01 71.5402 10.81 72.8302 10.86C74.1102 10.79 75.3802 11.04 76.6202 10.88C77.8602 10.91 79.0802 10.75 80.2902 10.9C81.4902 10.7 82.6702 11.07 83.8302 10.93C84.9902 10.93 86.1202 10.92 87.2302 10.96C88.3402 11.27 89.4202 11.01 90.4802 10.99C91.5402 11.02 92.5702 10.82 93.5802 11.02C94.5802 11.05 95.5602 11.18 96.5102 11.06C97.4602 11.01 98.3802 11.51 99.2702 11.1C100.16 11.03 101.02 11.42 101.86 11.14C102.69 10.89 103.49 11.17 104.26 11.18C105.03 11.2 105.77 11.21 106.47 11.23C109.63 11.3 112.12 11.37 113.82 11.45C115.52 11.53 116.43 11.61 116.43 11.69C116.43 11.78 115.31 11.87 113.23 11.96C111.15 12.04 108.11 12.12 104.26 12.19C103.49 12.2 102.69 12.42 101.86 12.23C101.03 12.23 100.17 12.4 99.2702 12.27C98.3802 12.56 97.4602 12.32 96.5102 12.31C95.5602 12.32 94.5802 12.23 93.5802 12.35C92.5702 12.52 91.5402 12.27 90.4802 12.39C89.4202 12.21 88.3402 12.26 87.2302 12.42C86.1202 12.25 84.9902 12.46 83.8302 12.45C82.6702 12.18 81.5002 12.37 80.2902 12.48C79.0902 12.58 77.8702 12.44 76.6202 12.51C75.3802 12.46 74.1102 12.58 72.8302 12.53C71.5502 12.65 70.2402 12.7 68.9202 12.55C68.4302 12.58 67.9402 12.59 67.4402 12.59H66.9902H66.9802H66.9602L66.8502 12.58C66.8502 12.63 66.8502 12.67 66.8502 12.74C66.8802 13.15 66.8902 13.55 66.8902 13.96C66.8902 14.59 66.8802 15.22 66.8702 15.86C66.3902 16 65.9202 16.15 65.4402 16.29C65.1702 16.37 64.9102 16.45 64.6402 16.54C64.4002 16.63 64.1502 16.7 63.8902 16.77L63.5102 16.87L63.4202 16.89C63.4202 16.89 63.3402 16.91 63.3502 16.91H63.3102C63.2002 16.91 63.0102 16.93 62.9102 16.97C62.9902 17.03 63.1202 17.1 63.2402 17.12C63.2602 17.14 63.2802 17.15 63.3002 17.16H63.3102L63.3602 17.22L63.5602 17.4C63.8202 17.64 64.0802 17.89 64.3402 18.13C64.8602 18.62 65.3902 19.11 65.9402 19.58L66.2702 19.89L66.8502 20.44C66.8502 20.86 66.8402 21.28 66.8302 21.71C66.8302 22 66.8302 22.29 66.8302 22.59C66.8302 23.18 66.8502 23.76 66.8802 24.35C66.5902 25.82 66.7702 27.3 66.8802 28.79C66.9102 29.24 66.9202 29.69 66.9302 30.14V30.47C66.9302 30.47 66.9302 30.5 66.9302 30.53L67.0002 30.55H67.0502H67.2702H67.7102C69.1802 30.53 70.6402 30.55 72.0802 30.57C73.5302 30.49 74.9602 30.69 76.3802 30.57C77.8002 30.45 79.2002 30.7 80.5902 30.58C81.9802 30.5 83.3502 30.45 84.7102 30.59C86.0702 30.59 87.4002 30.85 88.7302 30.61C90.0502 30.55 91.3502 30.23 92.6402 30.63C93.9202 30.53 95.1902 30.82 96.4302 30.65C97.6702 30.94 98.9002 30.67 100.1 30.68C101.3 30.74 102.48 30.84 103.64 30.71C104.8 30.57 105.93 30.79 107.04 30.74C108.15 30.57 109.23 30.96 110.29 30.77C111.35 30.81 112.38 30.74 113.39 30.81C113.89 30.61 114.39 30.61 114.88 30.67C115 30.68 115.12 30.7 115.25 30.72C115.31 30.72 115.38 30.74 115.42 30.75C115.44 30.75 115.46 30.77 115.48 30.78C115.56 30.82 115.67 30.85 115.77 30.85H115.83C115.83 30.77 115.83 30.67 115.8 30.58C115.8 30.54 115.78 30.49 115.77 30.46C115.77 30.46 115.77 30.46 115.77 30.44V30.4L115.76 30.32V30.16C115.72 29.72 115.72 29.29 115.86 28.86C115.56 27.97 115.82 27.11 115.9 26.27C115.99 25.44 115.77 24.64 115.94 23.87C115.73 23.1 116.06 22.36 115.98 21.66C116.12 20.96 115.98 20.29 116.02 19.65C115.97 19.02 115.99 18.41 116.07 17.85C116.09 17.28 116.1 16.76 116.12 16.26C116.22 13.31 116.33 11.7 116.44 11.7L116.43 11.68Z" fill="black"/>
<path d="M77.0405 18.51C77.0405 18.56 76.9905 18.62 76.8905 18.68C76.8405 18.71 76.7905 18.74 76.7205 18.77C76.6505 18.81 76.5805 18.84 76.5005 18.88C76.4505 18.91 76.3905 18.94 76.3305 18.97C76.3005 18.99 76.2705 19.01 76.2405 19.03C76.2105 19.05 76.1805 19.07 76.1405 19.07C76.0205 18.96 76.1005 19.37 75.9505 19.2C75.8505 19.18 75.8005 19.26 75.7505 19.35C75.7105 19.44 75.5505 19.35 75.5505 19.53C75.6005 19.67 75.5205 19.63 75.4305 19.61C75.3505 19.58 75.2705 19.57 75.3605 19.74C75.3405 19.86 75.2605 19.91 75.1805 19.98C75.0605 19.94 75.0305 19.98 75.0205 20.05C75.0205 20.11 75.0305 20.19 75.0205 20.24C74.7505 20.19 74.7705 20.36 74.8905 20.53C74.5105 20.47 74.5105 20.64 74.8005 20.85C74.7905 20.9 74.7505 20.95 74.7205 21C74.6905 21.05 74.6805 21.11 74.7505 21.18C74.7505 21.24 74.7605 21.3 74.7705 21.36C74.7705 21.42 74.7705 21.47 74.7405 21.53C74.8605 21.59 74.9205 21.64 74.9305 21.7C74.9305 21.73 74.9305 21.76 74.9005 21.79C74.8805 21.82 74.8505 21.85 74.8005 21.89C75.0705 21.97 75.0005 22.08 74.9005 22.24C74.8505 22.32 74.9305 22.36 75.0005 22.4C75.0705 22.44 75.1305 22.47 75.0705 22.57C75.1205 22.69 75.2405 22.76 75.2905 22.88C75.2905 22.97 75.2905 23.05 75.3205 23.11C75.3605 23.17 75.4305 23.2 75.5605 23.16C75.6305 23.18 75.7005 23.2 75.7605 23.22C75.8205 23.25 75.8605 23.3 75.8805 23.39C76.1305 23.23 76.1705 23.38 76.2405 23.57C76.3105 23.57 76.3605 23.63 76.4205 23.67C76.4805 23.71 76.5505 23.74 76.6305 23.67C76.6905 23.7 76.7705 23.68 76.8405 23.67C76.9105 23.65 76.9805 23.64 77.0505 23.71C77.1205 23.75 77.1905 23.79 77.2705 23.79C77.3405 23.79 77.4105 23.76 77.4705 23.67C77.5205 23.57 77.5805 23.57 77.6605 23.58C77.7305 23.59 77.8105 23.61 77.8605 23.55C77.9705 23.65 78.0305 23.59 78.0705 23.53C78.1205 23.47 78.1305 23.37 78.2205 23.38C78.2705 23.34 78.3405 23.33 78.4105 23.3C78.4805 23.28 78.5405 23.24 78.5405 23.14C78.5705 23.08 78.6005 23.02 78.6405 22.97C78.6805 22.92 78.7305 22.89 78.8105 22.87C78.6905 22.7 78.7505 22.67 78.8305 22.65C78.9105 22.63 79.0505 22.63 79.0305 22.55C79.1305 22.53 79.1605 22.47 79.1605 22.4C79.1605 22.33 79.1505 22.26 79.1905 22.21C79.1705 22.14 79.2305 22.1 79.2805 22.04C79.3305 21.99 79.3605 21.93 79.2905 21.86C79.3005 21.83 79.3005 21.8 79.3005 21.77C79.3005 21.74 79.2805 21.71 79.2705 21.68C79.2505 21.62 79.2705 21.56 79.3305 21.51C79.2305 21.45 79.2705 21.4 79.3105 21.34C79.3605 21.28 79.4005 21.21 79.3105 21.16C79.3105 21.1 79.2905 21.05 79.2805 20.99C79.2705 20.94 79.2705 20.88 79.2705 20.82C79.4005 20.72 79.3905 20.65 79.3405 20.61C79.3005 20.56 79.2005 20.55 79.1705 20.5C79.1605 20.38 78.9205 20.41 79.0405 20.21C79.0005 20.12 79.0405 19.94 78.8805 19.95C78.8305 19.93 78.8805 19.82 78.8905 19.73C78.9105 19.64 78.8705 19.59 78.7005 19.71C78.6405 19.71 78.6605 19.61 78.6605 19.54C78.6605 19.47 78.6305 19.42 78.5105 19.5C78.3005 19.65 78.3805 19.38 78.3105 19.32C78.2505 19.26 78.1805 19.22 78.1105 19.17C77.5105 18.76 77.0205 18.66 77.0305 18.48C77.0305 18.43 77.0705 18.39 77.1405 18.35C77.2205 18.31 77.3305 18.26 77.4805 18.25C77.7805 18.2 78.2605 18.22 78.8105 18.46C78.9105 18.51 79.1505 18.39 79.1405 18.63C79.2405 18.7 79.4605 18.66 79.4805 18.85C79.7905 18.73 79.7305 19.02 79.8105 19.14C79.9205 19.24 79.9305 19.42 80.1205 19.49C80.3505 19.54 80.2205 19.81 80.4005 19.91C80.3205 20.14 80.4105 20.26 80.6305 20.39C80.5805 20.5 80.6005 20.59 80.6605 20.67C80.7105 20.75 80.7805 20.83 80.7905 20.93C80.6705 21.05 80.6705 21.14 80.7005 21.23C80.7305 21.32 80.8105 21.41 80.8705 21.51C80.9205 21.61 80.9005 21.71 80.8905 21.81C80.8905 21.86 80.8705 21.91 80.8605 21.96C80.8605 22.01 80.8505 22.06 80.8605 22.12C80.7805 22.32 80.8505 22.55 80.7405 22.74C80.7605 22.86 80.7705 22.98 80.7405 23.09C80.7105 23.2 80.6305 23.29 80.5105 23.35C80.4805 23.59 80.3005 23.75 80.1605 23.93C80.1305 24.06 80.0605 24.14 79.9705 24.22C79.8805 24.3 79.7905 24.37 79.7105 24.45C79.6405 24.55 79.5105 24.58 79.3905 24.61C79.2705 24.65 79.1805 24.71 79.1505 24.89C78.9605 25.05 78.7105 25.09 78.5005 25.23C78.2505 25.29 78.0105 25.32 77.7805 25.45C77.6305 25.33 77.5105 25.32 77.3905 25.36C77.2705 25.39 77.1505 25.47 77.0205 25.53C76.8905 25.57 76.7605 25.57 76.6405 25.56C76.5105 25.54 76.3905 25.5 76.2705 25.46C76.0205 25.44 75.7805 25.35 75.5605 25.24C75.4305 25.24 75.3305 25.15 75.2305 25.07C75.1305 25 75.0505 24.91 74.9105 24.9C74.7705 24.9 74.6905 24.79 74.6205 24.69C74.5405 24.59 74.4805 24.49 74.3505 24.45C74.2305 24.4 74.1305 24.34 74.0405 24.25C73.9605 24.17 73.9005 24.06 73.8905 23.92C73.8205 23.83 73.8105 23.7 73.7805 23.59C73.7505 23.48 73.7005 23.39 73.5405 23.34C73.4705 23.25 73.3305 23.19 73.2505 23.1C73.1705 23.01 73.1505 22.89 73.3105 22.72C73.2305 22.63 73.2505 22.51 73.2705 22.4C73.2705 22.29 73.3005 22.18 73.2005 22.1C73.2605 22.04 73.2905 21.99 73.3005 21.93C73.3105 21.88 73.3005 21.83 73.2805 21.78C73.2505 21.68 73.1705 21.58 73.1805 21.49C73.2105 21.39 73.2605 21.3 73.2805 21.2C73.3005 21.11 73.3105 21.01 73.2605 20.91C73.2005 20.8 73.2405 20.71 73.3005 20.63C73.3605 20.55 73.4105 20.47 73.4205 20.38C73.3705 20.27 73.4505 20.2 73.5305 20.14C73.6105 20.07 73.6905 20.02 73.6505 19.91C73.7505 19.77 73.7905 19.6 73.9205 19.49C73.8005 19.31 73.8505 19.24 73.9505 19.21C74.0405 19.18 74.1705 19.18 74.2405 19.14C74.3105 19.1 74.3105 19 74.3405 18.93C74.3605 18.85 74.4205 18.8 74.5705 18.86C74.5205 18.7 74.5705 18.64 74.6505 18.63C74.7305 18.62 74.8405 18.64 74.9105 18.63C75.0605 18.63 75.0505 18.38 75.2405 18.46C75.2405 18.21 75.5005 18.46 75.5605 18.35C75.7105 18.43 75.7505 18.28 75.8605 18.28C75.9005 18.24 75.9405 18.22 75.9805 18.21C76.0205 18.21 76.0705 18.21 76.1305 18.25C76.2105 18.25 76.2905 18.24 76.3705 18.25C76.4805 18.25 76.5805 18.27 76.6605 18.28C76.7405 18.3 76.8105 18.32 76.8705 18.35C76.9805 18.4 77.0305 18.45 77.0305 18.5L77.0405 18.51Z" fill="black"/>
<path d="M91.3496 18.51C91.3496 18.56 91.2996 18.62 91.1996 18.68C91.1496 18.71 91.0996 18.74 91.0296 18.77C90.9596 18.81 90.8896 18.84 90.8096 18.88C90.7596 18.91 90.6996 18.94 90.6396 18.97C90.5796 19.01 90.5296 19.06 90.4596 19.08C90.3396 18.97 90.4196 19.38 90.2696 19.21C90.1696 19.19 90.1196 19.27 90.0696 19.36C90.0296 19.45 89.8696 19.36 89.8696 19.54C89.9196 19.68 89.8396 19.64 89.7596 19.62C89.6796 19.59 89.5996 19.59 89.6796 19.75C89.6596 19.87 89.5796 19.92 89.4996 19.99C89.2596 19.92 89.3696 20.16 89.3396 20.25C89.0696 20.2 89.0896 20.37 89.2096 20.54C88.8296 20.48 88.8296 20.65 89.1096 20.86C89.0996 20.91 89.0596 20.96 89.0296 21.01C88.9996 21.06 88.9896 21.12 89.0596 21.19C89.0596 21.25 89.0696 21.31 89.0796 21.37C89.0796 21.43 89.0796 21.48 89.0496 21.54C89.1696 21.6 89.2296 21.65 89.2396 21.71C89.2396 21.74 89.2296 21.77 89.1996 21.8C89.1796 21.83 89.1496 21.86 89.0996 21.9C89.3696 21.98 89.2996 22.09 89.1996 22.25C89.1496 22.33 89.2296 22.37 89.2896 22.41C89.3596 22.45 89.4196 22.48 89.3596 22.58C89.4096 22.7 89.5296 22.77 89.5796 22.89C89.5796 22.97 89.5796 23.06 89.6096 23.12C89.6496 23.18 89.7196 23.21 89.8496 23.17C89.9196 23.19 89.9896 23.21 90.0496 23.23C90.1096 23.26 90.1496 23.31 90.1696 23.4C90.4296 23.24 90.4596 23.39 90.5296 23.58C90.5996 23.58 90.6496 23.64 90.7096 23.68C90.7696 23.72 90.8396 23.75 90.9196 23.68C90.9896 23.71 91.0596 23.69 91.1296 23.68C91.1996 23.66 91.2696 23.65 91.3396 23.72C91.4096 23.76 91.4796 23.8 91.5596 23.8C91.6296 23.8 91.6996 23.77 91.7596 23.68C91.8096 23.58 91.8696 23.58 91.9496 23.59C92.0196 23.6 92.0996 23.62 92.1496 23.56C92.2596 23.66 92.3196 23.6 92.3596 23.54C92.4096 23.48 92.4196 23.38 92.5096 23.39C92.5596 23.35 92.6296 23.34 92.6996 23.31C92.7696 23.29 92.8296 23.25 92.8296 23.15C92.8696 23.09 92.8896 23.03 92.9296 22.98C92.9696 22.93 93.0196 22.9 93.0996 22.88C92.9796 22.71 93.0296 22.68 93.1196 22.66C93.1996 22.64 93.3396 22.64 93.3196 22.56C93.4196 22.54 93.4496 22.48 93.4496 22.41C93.4496 22.34 93.4396 22.27 93.4796 22.22C93.4596 22.15 93.5196 22.1 93.5696 22.05C93.6196 22 93.6496 21.94 93.5796 21.86C93.5896 21.83 93.5896 21.8 93.5896 21.77C93.5896 21.74 93.5696 21.71 93.5596 21.68C93.5396 21.62 93.5596 21.57 93.6196 21.51C93.5196 21.45 93.5596 21.4 93.5996 21.33C93.6396 21.27 93.6896 21.2 93.6096 21.16C93.6096 21.1 93.5896 21.05 93.5796 20.99C93.5696 20.94 93.5596 20.88 93.5596 20.82C93.6896 20.72 93.6796 20.65 93.6296 20.61C93.5896 20.56 93.4896 20.55 93.4596 20.5C93.4496 20.38 93.2096 20.41 93.3296 20.21C93.2896 20.12 93.3296 19.94 93.1696 19.95C93.1196 19.93 93.1696 19.82 93.1796 19.73C93.1996 19.65 93.1596 19.59 92.9896 19.71C92.9296 19.71 92.9496 19.61 92.9496 19.54C92.9496 19.47 92.9196 19.42 92.7996 19.5C92.5896 19.65 92.6696 19.38 92.5996 19.32C92.5396 19.26 92.4696 19.22 92.3996 19.17C91.7996 18.76 91.3096 18.66 91.3196 18.48C91.3196 18.43 91.3596 18.39 91.4296 18.35C91.5096 18.31 91.6196 18.26 91.7696 18.25C92.0696 18.2 92.5496 18.22 93.0996 18.46C93.1996 18.51 93.4396 18.39 93.4296 18.63C93.5296 18.7 93.7496 18.66 93.7696 18.85C94.0796 18.73 94.0196 19.02 94.0996 19.14C94.2096 19.24 94.2196 19.42 94.4096 19.49C94.6396 19.54 94.5096 19.81 94.6896 19.91C94.6096 20.14 94.6996 20.26 94.9196 20.39C94.8696 20.5 94.8896 20.59 94.9496 20.67C94.9996 20.75 95.0696 20.83 95.0796 20.93C94.9596 21.05 94.9596 21.14 94.9896 21.23C95.0196 21.32 95.0996 21.41 95.1596 21.51C95.2096 21.61 95.1896 21.71 95.1796 21.81C95.1796 21.86 95.1596 21.91 95.1496 21.96C95.1496 22.01 95.1396 22.06 95.1496 22.11C95.0696 22.31 95.1396 22.54 95.0296 22.73C95.0496 22.85 95.0496 22.97 95.0296 23.08C94.9996 23.19 94.9196 23.28 94.7996 23.34C94.7696 23.58 94.5896 23.74 94.4496 23.92C94.4296 24.05 94.3496 24.13 94.2596 24.21C94.1696 24.29 94.0796 24.36 93.9996 24.44C93.9296 24.54 93.7996 24.57 93.6796 24.6C93.5596 24.64 93.4696 24.7 93.4396 24.88C93.2496 25.04 92.9996 25.08 92.7896 25.22C92.5396 25.28 92.2996 25.31 92.0696 25.44C91.9196 25.32 91.7996 25.31 91.6796 25.35C91.5596 25.38 91.4396 25.46 91.3096 25.52C91.1796 25.56 91.0496 25.56 90.9296 25.55C90.7996 25.53 90.6796 25.49 90.5596 25.45C90.3096 25.43 90.0696 25.34 89.8496 25.23C89.7196 25.23 89.6196 25.14 89.5196 25.06C89.4196 24.98 89.3396 24.9 89.1996 24.89C89.0596 24.89 88.9796 24.78 88.9096 24.68C88.8296 24.58 88.7696 24.48 88.6396 24.45C88.5196 24.4 88.4196 24.34 88.3396 24.25C88.2596 24.17 88.1996 24.06 88.1896 23.92C88.1196 23.83 88.1096 23.7 88.0796 23.59C88.0496 23.47 87.9996 23.39 87.8396 23.34C87.7696 23.25 87.6296 23.19 87.5496 23.1C87.4696 23.01 87.4496 22.89 87.6096 22.72C87.5296 22.63 87.5496 22.51 87.5596 22.4C87.5596 22.29 87.5896 22.18 87.4896 22.09C87.5496 22.03 87.5796 21.98 87.5896 21.92C87.5996 21.87 87.5896 21.82 87.5696 21.77C87.5396 21.67 87.4596 21.58 87.4696 21.48C87.4996 21.38 87.5496 21.29 87.5696 21.19C87.5896 21.1 87.5996 21 87.5496 20.9C87.4896 20.79 87.5296 20.7 87.5896 20.62C87.6396 20.54 87.6996 20.46 87.7096 20.37C87.6596 20.26 87.7396 20.19 87.8196 20.13C87.8996 20.07 87.9796 20.02 87.9396 19.9C88.0396 19.76 88.0796 19.59 88.2196 19.48C88.0996 19.3 88.1596 19.23 88.2496 19.2C88.3396 19.17 88.4696 19.17 88.5396 19.13C88.6096 19.09 88.6096 18.99 88.6396 18.91C88.6596 18.83 88.7196 18.78 88.8696 18.84C88.8196 18.68 88.8696 18.62 88.9496 18.61C89.0296 18.6 89.1396 18.62 89.2096 18.61C89.3596 18.61 89.3496 18.36 89.5396 18.44C89.5396 18.19 89.7996 18.44 89.8596 18.32C90.0096 18.4 90.0496 18.25 90.1596 18.25C90.2296 18.17 90.3296 18.16 90.4296 18.21C90.5096 18.21 90.5896 18.2 90.6696 18.21C90.7796 18.21 90.8796 18.23 90.9596 18.24C91.0396 18.25 91.1096 18.28 91.1696 18.31C91.2796 18.36 91.3296 18.41 91.3296 18.46L91.3496 18.51Z" fill="black"/>
<path d="M105.66 18.51C105.66 18.56 105.61 18.62 105.51 18.68C105.46 18.71 105.41 18.74 105.34 18.77C105.27 18.81 105.2 18.84 105.12 18.88C105.07 18.91 105.01 18.94 104.95 18.97C104.89 19.01 104.84 19.06 104.77 19.08C104.65 18.97 104.73 19.38 104.58 19.21C104.48 19.19 104.43 19.27 104.38 19.36C104.34 19.45 104.18 19.36 104.18 19.54C104.23 19.68 104.15 19.64 104.07 19.62C103.99 19.59 103.91 19.59 103.99 19.75C103.97 19.87 103.89 19.92 103.81 19.99C103.57 19.92 103.68 20.16 103.65 20.25C103.38 20.2 103.4 20.37 103.52 20.54C103.14 20.48 103.14 20.65 103.42 20.86C103.41 20.91 103.37 20.96 103.34 21.01C103.31 21.06 103.3 21.12 103.37 21.19C103.37 21.25 103.38 21.31 103.39 21.37C103.39 21.43 103.39 21.48 103.36 21.54C103.48 21.6 103.54 21.65 103.54 21.71C103.54 21.74 103.54 21.77 103.51 21.8C103.49 21.83 103.46 21.86 103.41 21.9C103.68 21.98 103.61 22.09 103.51 22.25C103.46 22.33 103.54 22.37 103.61 22.41C103.68 22.45 103.74 22.48 103.68 22.58C103.73 22.7 103.85 22.77 103.9 22.89C103.9 22.97 103.9 23.06 103.93 23.12C103.97 23.18 104.04 23.21 104.17 23.17C104.24 23.19 104.31 23.21 104.37 23.23C104.43 23.26 104.47 23.31 104.49 23.4C104.74 23.24 104.78 23.39 104.85 23.58C104.92 23.58 104.97 23.64 105.03 23.68C105.09 23.72 105.16 23.75 105.24 23.68C105.31 23.71 105.38 23.69 105.45 23.68C105.52 23.66 105.59 23.65 105.66 23.72C105.73 23.76 105.8 23.8 105.88 23.8C105.95 23.8 106.02 23.77 106.08 23.68C106.13 23.58 106.19 23.58 106.27 23.59C106.34 23.6 106.42 23.62 106.47 23.56C106.58 23.66 106.64 23.6 106.68 23.54C106.73 23.48 106.74 23.38 106.83 23.39C106.88 23.35 106.95 23.34 107.02 23.31C107.09 23.29 107.15 23.25 107.15 23.15C107.18 23.09 107.21 23.03 107.25 22.98C107.29 22.93 107.34 22.9 107.42 22.88C107.3 22.71 107.35 22.68 107.44 22.66C107.52 22.64 107.66 22.64 107.64 22.56C107.74 22.54 107.77 22.48 107.77 22.41C107.77 22.34 107.76 22.27 107.8 22.22C107.78 22.15 107.84 22.1 107.89 22.05C107.94 22 107.97 21.94 107.9 21.86C107.91 21.83 107.91 21.8 107.91 21.77C107.91 21.74 107.89 21.71 107.88 21.68C107.86 21.62 107.88 21.56 107.94 21.51C107.84 21.45 107.88 21.4 107.92 21.33C107.97 21.27 108.01 21.2 107.93 21.16C107.93 21.1 107.91 21.05 107.9 20.99C107.89 20.94 107.88 20.88 107.88 20.82C108.01 20.72 108 20.65 107.95 20.61C107.91 20.56 107.81 20.55 107.78 20.5C107.77 20.38 107.53 20.41 107.65 20.21C107.61 20.12 107.65 19.94 107.49 19.95C107.44 19.93 107.49 19.82 107.5 19.73C107.52 19.65 107.48 19.59 107.31 19.71C107.25 19.71 107.27 19.61 107.27 19.54C107.27 19.47 107.24 19.42 107.12 19.5C106.91 19.65 106.99 19.38 106.92 19.32C106.86 19.26 106.79 19.22 106.72 19.17C106.12 18.76 105.63 18.66 105.64 18.48C105.64 18.43 105.68 18.39 105.75 18.35C105.83 18.31 105.94 18.26 106.09 18.25C106.39 18.2 106.87 18.22 107.42 18.46C107.52 18.51 107.76 18.39 107.75 18.63C107.85 18.7 108.07 18.66 108.09 18.85C108.4 18.73 108.34 19.02 108.42 19.14C108.53 19.24 108.54 19.42 108.73 19.49C108.96 19.54 108.84 19.81 109.01 19.91C108.93 20.14 109.02 20.26 109.24 20.39C109.19 20.5 109.21 20.59 109.27 20.67C109.32 20.75 109.39 20.83 109.4 20.93C109.28 21.05 109.28 21.14 109.31 21.23C109.34 21.32 109.42 21.41 109.48 21.51C109.53 21.61 109.51 21.71 109.5 21.81C109.5 21.86 109.48 21.91 109.47 21.96C109.47 22.01 109.46 22.06 109.47 22.11C109.39 22.31 109.46 22.54 109.35 22.73C109.37 22.85 109.37 22.97 109.35 23.08C109.32 23.19 109.24 23.28 109.12 23.34C109.09 23.58 108.91 23.74 108.77 23.92C108.75 24.05 108.67 24.13 108.58 24.21C108.49 24.29 108.4 24.36 108.32 24.44C108.25 24.54 108.12 24.57 108 24.6C107.88 24.64 107.79 24.7 107.76 24.88C107.57 25.04 107.32 25.08 107.11 25.22C106.86 25.28 106.62 25.31 106.4 25.44C106.25 25.32 106.13 25.31 106.01 25.35C105.89 25.38 105.77 25.46 105.64 25.52C105.51 25.56 105.38 25.56 105.26 25.55C105.13 25.53 105.01 25.49 104.89 25.45C104.64 25.43 104.4 25.34 104.18 25.23C104.05 25.23 103.95 25.14 103.85 25.06C103.75 24.98 103.67 24.9 103.53 24.89C103.39 24.89 103.31 24.78 103.24 24.68C103.16 24.58 103.1 24.48 102.97 24.45C102.85 24.4 102.75 24.34 102.67 24.25C102.59 24.17 102.53 24.06 102.52 23.92C102.45 23.83 102.44 23.7 102.41 23.59C102.38 23.47 102.33 23.39 102.17 23.34C102.1 23.25 101.96 23.19 101.88 23.1C101.8 23.01 101.78 22.89 101.94 22.72C101.86 22.63 101.88 22.51 101.89 22.4C101.89 22.29 101.92 22.18 101.82 22.09C101.88 22.03 101.91 21.98 101.92 21.92C101.93 21.87 101.92 21.82 101.9 21.77C101.86 21.67 101.79 21.58 101.8 21.48C101.83 21.38 101.88 21.29 101.9 21.19C101.92 21.1 101.93 21 101.88 20.9C101.82 20.79 101.86 20.7 101.92 20.62C101.97 20.54 102.03 20.46 102.04 20.37C101.99 20.26 102.07 20.19 102.15 20.13C102.23 20.07 102.31 20.02 102.27 19.9C102.37 19.76 102.41 19.59 102.55 19.48C102.43 19.3 102.49 19.23 102.58 19.2C102.67 19.17 102.8 19.17 102.87 19.13C102.94 19.09 102.94 18.99 102.97 18.91C102.99 18.83 103.05 18.78 103.21 18.84C103.16 18.68 103.21 18.62 103.29 18.61C103.37 18.6 103.47 18.62 103.55 18.61C103.7 18.61 103.69 18.36 103.88 18.44C103.88 18.19 104.14 18.44 104.2 18.32C104.35 18.4 104.39 18.25 104.5 18.25C104.57 18.17 104.67 18.16 104.77 18.21C104.85 18.21 104.93 18.2 105.01 18.21C105.12 18.21 105.22 18.23 105.3 18.24C105.38 18.25 105.45 18.28 105.51 18.31C105.62 18.36 105.67 18.41 105.67 18.46L105.66 18.51Z" fill="black"/>
<path d="M43.191 10.17C43.191 10.3 42.391 10.34 41.021 10.7C40.791 10.77 40.551 10.83 40.291 10.92C40.161 10.97 40.041 11.02 39.901 11.07C39.771 11.13 39.631 11.18 39.491 11.22C39.321 11.2 39.201 11.32 39.081 11.43C38.951 11.54 38.831 11.65 38.631 11.62C38.471 11.66 38.311 11.73 38.161 11.82C38.011 11.91 37.871 12.02 37.731 12.13C37.581 12.24 37.421 12.32 37.251 12.41C37.081 12.5 36.931 12.61 36.811 12.78C36.731 13 36.541 13.07 36.331 13.14C36.131 13.21 35.931 13.31 35.891 13.58C35.641 13.92 35.321 14.2 35.021 14.53C34.561 14.72 34.451 15.23 34.221 15.63C33.741 15.88 33.591 16.37 33.541 16.89C33.011 17.17 32.841 17.7 33.011 18.29C32.871 18.77 32.591 19.26 32.671 19.81C32.611 20.34 32.621 20.88 32.551 21.43C32.791 21.98 32.801 22.51 32.681 23.1C33.021 23.62 33.041 24.18 33.081 24.78C33.091 24.93 33.141 25.07 33.191 25.21C33.251 25.34 33.331 25.47 33.411 25.6C33.571 25.85 33.721 26.1 33.771 26.42C34.031 26.96 34.421 27.44 34.751 27.95C35.031 28.5 35.391 29.07 36.021 29.32C36.531 29.7 37.071 30.01 37.541 30.47C38.231 30.58 38.721 30.97 39.271 31.35C39.881 31.55 40.481 31.93 41.161 31.9C41.811 32.07 42.491 31.97 43.161 32.09C43.831 32.17 44.531 32.18 45.161 31.9C45.471 31.75 45.791 31.69 46.111 31.63C46.271 31.6 46.431 31.56 46.591 31.52C46.751 31.48 46.901 31.42 47.051 31.35C47.231 31.35 47.391 31.31 47.541 31.25C47.691 31.19 47.831 31.1 47.971 31.01C48.111 30.92 48.241 30.82 48.371 30.72C48.501 30.63 48.641 30.54 48.791 30.47C49.311 30.11 49.931 29.85 50.311 29.32C50.741 28.86 51.121 28.37 51.581 27.95C51.601 27.58 51.791 27.36 52.011 27.14C52.121 27.03 52.231 26.92 52.331 26.81C52.431 26.69 52.521 26.57 52.561 26.42C52.991 25.96 53.041 25.32 53.261 24.79C53.311 24.5 53.431 24.23 53.531 23.96C53.581 23.82 53.631 23.68 53.651 23.54C53.671 23.4 53.691 23.26 53.671 23.11C53.791 22.55 53.651 21.99 53.801 21.44C53.751 21.3 53.731 21.17 53.731 21.03C53.731 20.9 53.731 20.76 53.751 20.62C53.771 20.48 53.771 20.35 53.771 20.21C53.771 20.08 53.751 19.94 53.691 19.82C53.611 19.3 53.461 18.8 53.351 18.3C53.381 18.15 53.381 18.02 53.351 17.89C53.321 17.77 53.271 17.65 53.211 17.54C53.151 17.43 53.081 17.32 53.011 17.22C52.941 17.12 52.871 17.01 52.811 16.9C52.621 16.44 52.211 16.14 52.131 15.64C51.891 15.24 51.721 14.79 51.331 14.54C51.171 14.39 51.111 14.15 51.001 13.95C50.901 13.75 50.751 13.59 50.461 13.59C50.281 13.48 50.181 13.29 50.051 13.12C49.921 12.96 49.791 12.8 49.541 12.8C49.311 12.8 49.161 12.68 49.021 12.54C48.891 12.41 48.771 12.24 48.611 12.15C48.461 12.05 48.311 11.96 48.161 11.88C48.011 11.79 47.861 11.71 47.711 11.64C47.051 11.3 46.421 11.06 45.861 10.88C45.301 10.7 44.811 10.59 44.411 10.51C44.001 10.43 43.691 10.37 43.481 10.33C43.271 10.29 43.161 10.24 43.161 10.2C43.161 10.12 43.711 10 44.761 10.05C45.281 10.08 45.931 10.16 46.671 10.35C47.411 10.54 48.241 10.84 49.121 11.3C49.301 11.39 49.501 11.45 49.691 11.53C49.881 11.61 50.061 11.73 50.181 11.93C50.521 12.18 50.981 12.34 51.241 12.74C51.771 12.85 51.961 13.36 52.261 13.74C52.601 14.1 52.821 14.56 53.211 14.93C53.421 15.1 53.551 15.34 53.661 15.59C53.771 15.84 53.861 16.09 54.041 16.31C54.121 16.89 54.371 17.37 54.701 17.87C54.701 18.47 55.061 18.98 55.151 19.59C54.981 20.22 55.231 20.8 55.341 21.43C55.441 22.06 55.281 22.7 55.241 23.35C55.101 23.99 55.071 24.66 54.821 25.3C54.741 25.98 54.511 26.66 54.051 27.21C53.811 27.87 53.371 28.44 52.941 29.01C52.591 29.65 52.011 30.11 51.491 30.63C51.241 30.9 50.911 31.09 50.591 31.28C50.431 31.38 50.271 31.47 50.131 31.59C49.991 31.71 49.851 31.84 49.731 32C49.111 32.43 48.401 32.71 47.711 33.04C46.981 33.29 46.241 33.47 45.491 33.7C44.681 33.56 43.951 33.81 43.151 33.93C42.361 34.01 41.571 33.89 40.811 33.7C40.041 33.58 39.291 33.35 38.591 33.04C37.841 32.83 37.261 32.3 36.571 32C36.221 31.85 35.931 31.61 35.651 31.35C35.371 31.1 35.121 30.83 34.811 30.63C34.211 30.2 33.681 29.67 33.361 29.01C33.151 28.72 32.991 28.39 32.841 28.08C32.761 27.92 32.681 27.77 32.591 27.62C32.491 27.48 32.381 27.34 32.251 27.21C32.061 26.91 31.831 26.64 31.661 26.33C31.581 26.17 31.511 26.01 31.471 25.84C31.441 25.67 31.431 25.49 31.471 25.3C31.321 24.99 31.281 24.65 31.251 24.32C31.231 24.15 31.211 23.99 31.191 23.83C31.171 23.67 31.121 23.51 31.061 23.35C31.111 23.18 31.131 23.01 31.121 22.85C31.121 22.69 31.101 22.53 31.081 22.37C31.051 22.21 31.031 22.05 31.001 21.9C30.981 21.74 30.951 21.58 30.961 21.43C31.021 20.8 31.191 20.2 31.151 19.59C31.111 18.96 31.471 18.43 31.601 17.87C31.601 17.72 31.651 17.58 31.701 17.45C31.761 17.32 31.841 17.2 31.911 17.07C31.981 16.95 32.061 16.83 32.131 16.71C32.191 16.59 32.241 16.46 32.261 16.31C32.541 15.83 32.751 15.33 33.091 14.93C33.071 14.6 33.231 14.38 33.421 14.21C33.621 14.04 33.861 13.91 34.041 13.74C34.401 13.41 34.521 12.84 35.061 12.74C35.131 12.48 35.301 12.32 35.501 12.2C35.701 12.09 35.921 12.02 36.121 11.93C36.321 11.84 36.471 11.69 36.631 11.57C36.791 11.44 36.961 11.32 37.171 11.3C37.291 11.11 37.471 11.04 37.661 11C37.851 10.95 38.041 10.93 38.191 10.83C38.571 10.81 38.841 10.56 39.161 10.48C39.311 10.41 39.451 10.35 39.601 10.31C39.751 10.28 39.901 10.26 40.051 10.26C40.331 10.2 40.601 10.16 40.841 10.12C42.331 9.94002 43.131 10.12 43.131 10.21L43.191 10.17Z" fill="black"/>
<path d="M52.5498 28.08C52.5498 28.08 52.3898 28.05 52.1998 27.91C52.0198 27.76 51.7598 27.54 51.4398 27.26C51.3298 27.17 51.2098 27.07 51.0798 26.97C50.9498 26.87 50.7898 26.79 50.6698 26.65C50.6498 26.54 50.5298 26.52 50.4198 26.5C50.3098 26.48 50.1998 26.46 50.1898 26.31C50.1298 26.22 50.0498 26.16 49.9598 26.1C49.8698 26.05 49.7598 26.01 49.6598 25.96C49.5498 25.92 49.4798 25.83 49.3898 25.76C49.2998 25.69 49.1998 25.62 49.0598 25.62C48.8798 25.68 48.8298 25.55 48.7498 25.43C48.6798 25.31 48.5898 25.19 48.3998 25.29C48.3398 25.28 48.2698 25.26 48.2098 25.23C48.1498 25.21 48.0898 25.19 48.0298 25.16C47.9098 25.11 47.7998 25.04 47.6798 24.97C47.5998 24.81 47.4698 24.77 47.3298 24.74C47.1898 24.72 47.0398 24.72 46.8998 24.7C46.8098 24.53 46.6798 24.45 46.5398 24.42C46.3898 24.39 46.2298 24.42 46.0598 24.48C45.8698 24.04 45.5298 24.04 45.1598 24.31C44.8498 24.28 44.5498 24.08 44.2098 24.22C43.8798 24.21 43.5598 24.27 43.2198 24.2C42.8798 24.45 42.5598 24.44 42.1998 24.27C41.8798 24.55 41.5398 24.51 41.1598 24.43C40.9698 24.4 40.8098 24.49 40.6398 24.57C40.4798 24.66 40.3198 24.75 40.1098 24.7C39.7498 24.79 39.4298 24.98 39.0698 25.08C38.9698 25.09 38.8698 25.1 38.7798 25.12C38.6898 25.14 38.5898 25.17 38.4998 25.2C38.3198 25.27 38.1598 25.38 38.0498 25.58C37.8998 25.7 37.7498 25.82 37.5898 25.94C37.4298 26.06 37.2598 26.14 37.0598 26.2C36.8998 26.65 36.5298 26.78 36.1298 26.93C35.8598 27.22 35.4298 27.37 35.2698 27.77C35.1898 27.84 35.1298 27.92 35.0698 28C35.0498 28.03 35.0498 28.05 35.0498 28.06C35.0498 28.08 35.0498 28.08 35.0498 28.09C35.0498 28.09 35.0098 28.11 34.9898 28.12C34.9598 28.15 34.9398 28.2 34.9798 28.25C34.9798 28.25 34.9798 28.26 34.9898 28.27L35.0398 28.33C35.0398 28.33 35.1098 28.41 35.1498 28.44C35.2298 28.51 35.3098 28.57 35.4098 28.62C35.6198 28.71 35.7298 28.87 35.8598 29.03C35.9798 29.19 36.0998 29.36 36.2698 29.47C36.3398 29.69 36.5098 29.81 36.6898 29.9C36.8798 29.99 37.0698 30.05 37.1998 30.21C37.3698 30.31 37.5098 30.44 37.6598 30.57C37.8098 30.69 37.9798 30.79 38.1798 30.83C38.5398 30.97 38.8998 31.09 39.1998 31.33C39.4498 31.22 39.6098 31.3 39.7598 31.42C39.8398 31.48 39.9098 31.55 39.9898 31.61C40.0698 31.66 40.1498 31.7 40.2498 31.71C40.5598 31.98 40.9598 31.87 41.2998 31.98C41.4798 31.98 41.6498 32.04 41.8198 32.11C41.9898 32.17 42.1598 32.2 42.3398 32.14C42.5098 32.18 42.6898 32.14 42.8598 32.14C43.0298 32.13 43.1998 32.14 43.3598 32.2C43.5198 32.1 43.6898 32.13 43.8598 32.18C44.0298 32.22 44.1898 32.25 44.3498 32.18C44.5098 32.18 44.6698 32.14 44.8298 32.12C44.9898 32.1 45.1398 32.09 45.2998 32.07C45.4798 32.19 45.6398 32.17 45.7798 32.11C45.9198 32.05 46.0498 31.93 46.1898 31.89C46.4898 31.85 46.6898 31.54 47.0298 31.65C47.1698 31.62 47.3098 31.59 47.4498 31.56C47.5798 31.52 47.7198 31.48 47.8098 31.36C48.0198 31.2 48.4998 31.53 48.5198 31.03C48.6098 30.94 48.7598 30.94 48.8898 30.93C49.0198 30.91 49.1398 30.87 49.1698 30.68C49.1998 30.51 49.2998 30.46 49.4098 30.42C49.5198 30.39 49.6598 30.38 49.7498 30.32C49.9398 30.21 50.1098 30.08 50.2698 29.96C51.7398 28.88 52.4198 28 52.5698 28.12C52.6098 28.15 52.5998 28.24 52.5298 28.4C52.4698 28.56 52.3698 28.78 52.1898 29.05C51.8498 29.59 51.2698 30.35 50.3498 31.13C50.2598 31.21 50.1898 31.33 50.1098 31.43C50.0298 31.53 49.9198 31.6 49.7598 31.6C49.6498 31.67 49.5598 31.78 49.4598 31.87C49.3598 31.96 49.2398 32.04 49.0898 32.05C48.9898 32.45 48.6098 32.37 48.3298 32.49C48.1998 32.57 48.0498 32.6 47.9098 32.66C47.7598 32.71 47.6298 32.78 47.4998 32.89C47.2498 33.15 46.8698 33.03 46.5798 33.23C46.2098 33.16 45.8998 33.27 45.5898 33.51C45.3998 33.47 45.2298 33.49 45.0498 33.55C44.8798 33.61 44.6998 33.69 44.5198 33.7C44.3198 33.58 44.1398 33.58 43.9598 33.62C43.7798 33.65 43.5898 33.73 43.3998 33.79C43.2098 33.85 43.0098 33.83 42.8198 33.81C42.6198 33.79 42.4298 33.77 42.2298 33.78C42.0398 33.73 41.8298 33.74 41.6298 33.73C41.4298 33.72 41.2198 33.7 41.0198 33.65C40.5898 33.69 40.1598 33.65 39.7998 33.38C39.6898 33.38 39.5898 33.35 39.4798 33.33C39.3798 33.3 39.2798 33.26 39.1798 33.23C38.9798 33.15 38.7798 33.07 38.5798 32.98C38.1298 32.91 37.7798 32.61 37.3798 32.43C37.1698 32.34 37.0098 32.17 36.8398 32.02C36.6698 31.86 36.4898 31.73 36.2198 31.73C36.0198 31.61 35.8498 31.46 35.6698 31.32C35.4998 31.17 35.3198 31.01 35.1298 30.88C34.9698 30.71 34.8098 30.53 34.6398 30.37C34.4798 30.2 34.3098 30.04 34.1198 29.89C34.0898 29.76 34.0498 29.64 33.9898 29.53C33.9598 29.48 33.9298 29.43 33.8898 29.38C33.8698 29.36 33.8498 29.34 33.8298 29.31L33.7398 29.21C33.4898 28.93 33.1898 28.63 32.8698 28.3L32.7598 28.17L32.7298 28.14C32.7298 28.14 32.6998 28.12 32.7198 28.11L32.7598 28.05C32.8198 27.97 32.8798 27.88 32.9398 27.8C33.0598 27.63 33.1998 27.46 33.3298 27.3C33.4598 27.13 33.6098 26.97 33.7398 26.84L33.9998 26.59C34.2998 26.22 34.6498 25.9 35.0198 25.62C35.3198 25.25 35.8098 25.13 36.1198 24.78C36.2698 24.59 36.4898 24.51 36.6898 24.41C36.8998 24.31 37.1098 24.24 37.2798 24.08C37.4498 23.93 37.6398 23.8 37.8398 23.71C37.9398 23.66 38.0398 23.62 38.1498 23.58C38.2598 23.55 38.3698 23.53 38.4798 23.52C38.6798 23.44 38.8998 23.41 39.1198 23.38C39.3298 23.35 39.5298 23.27 39.6998 23.1C39.8998 23.02 40.0698 22.87 40.2698 22.78C40.4698 22.7 40.6798 22.67 40.9198 22.83C41.3098 22.66 41.7498 22.89 42.1198 22.69C42.5398 22.94 42.8998 22.66 43.2898 22.66C43.6798 22.73 44.0398 22.83 44.4098 22.75C44.7898 22.63 45.1198 22.92 45.4798 22.92C45.8598 22.83 46.1098 23.27 46.4798 23.18C46.6398 23.24 46.7998 23.28 46.9598 23.32C47.1198 23.37 47.2698 23.42 47.4098 23.5C47.6298 23.36 47.7798 23.43 47.8998 23.54C48.0198 23.65 48.1198 23.8 48.2498 23.88C48.3698 23.97 48.5298 23.97 48.6798 24C48.7498 24.02 48.8198 24.04 48.8798 24.08C48.9398 24.13 48.9798 24.19 49.0098 24.29C49.3998 24.16 49.5198 24.52 49.6898 24.73C49.7798 24.84 49.8998 24.88 50.0198 24.93C50.1298 24.98 50.2398 25.05 50.2898 25.18C50.4498 25.16 50.5298 25.25 50.5898 25.36C50.6498 25.47 50.6998 25.59 50.8098 25.63C50.8498 25.75 50.9298 25.82 51.0198 25.88C51.0998 25.94 51.1998 25.99 51.2598 26.07C51.4398 26.17 51.5698 26.3 51.6398 26.48C51.7498 26.62 51.8498 26.74 51.9498 26.86C52.2198 27.23 52.4098 27.52 52.5098 27.74C52.6098 27.96 52.6498 28.08 52.5998 28.12L52.5498 28.08Z" fill="black"/>
<path d="M43.1909 14.04C43.1909 14.1 43.1309 14.15 43.0409 14.21C42.9909 14.24 42.9309 14.27 42.8609 14.3C42.7909 14.34 42.7109 14.37 42.6209 14.41C42.5609 14.44 42.5009 14.47 42.4409 14.5C42.4109 14.52 42.3809 14.54 42.3509 14.56C42.3209 14.58 42.2909 14.6 42.2509 14.61C42.1209 14.5 42.2009 14.91 42.0409 14.74C41.9409 14.72 41.8809 14.81 41.8309 14.9C41.7809 14.99 41.6209 14.91 41.6209 15.09C41.6709 15.23 41.5809 15.2 41.5009 15.17C41.4209 15.15 41.3409 15.14 41.4209 15.31C41.3909 15.43 41.3109 15.49 41.2309 15.56C41.1109 15.53 41.0709 15.58 41.0709 15.64C41.0709 15.71 41.0709 15.79 41.0709 15.84C40.7909 15.79 40.8109 15.97 40.9309 16.15C40.5509 16.1 40.5509 16.27 40.8309 16.49C40.8209 16.55 40.7709 16.6 40.7409 16.66C40.7309 16.69 40.7209 16.72 40.7209 16.75C40.7209 16.78 40.7409 16.82 40.7809 16.86C40.7809 16.92 40.7909 16.99 40.8009 17.05C40.8009 17.11 40.8009 17.17 40.7709 17.24C40.8909 17.31 40.9509 17.36 40.9609 17.42C40.9609 17.48 40.9109 17.54 40.8209 17.62C41.0909 17.71 41.0209 17.83 40.9309 18C40.8909 18.08 40.9609 18.13 41.0309 18.17C41.1009 18.21 41.1709 18.25 41.1009 18.36C41.1509 18.49 41.2809 18.57 41.3309 18.7C41.3309 18.79 41.3309 18.88 41.3709 18.94C41.4109 19 41.4809 19.04 41.6209 19C41.6909 19.02 41.7709 19.04 41.8309 19.07C41.8909 19.1 41.9409 19.16 41.9609 19.25C42.2209 19.09 42.2609 19.25 42.3509 19.44C42.4309 19.44 42.4809 19.51 42.5409 19.55C42.6109 19.59 42.6809 19.62 42.7709 19.55C42.8409 19.58 42.9209 19.57 42.9909 19.55C43.0609 19.53 43.1409 19.52 43.2109 19.59C43.2909 19.63 43.3709 19.66 43.4409 19.67C43.5209 19.67 43.5909 19.64 43.6509 19.55C43.7109 19.45 43.7709 19.45 43.8509 19.46C43.9309 19.47 44.0109 19.48 44.0709 19.43C44.1909 19.53 44.2509 19.47 44.3009 19.4C44.3509 19.34 44.3709 19.24 44.4609 19.24C44.5209 19.2 44.5909 19.18 44.6609 19.15C44.7309 19.13 44.7909 19.08 44.8009 18.98C44.8409 18.92 44.8709 18.85 44.9109 18.79C44.9309 18.76 44.9609 18.74 44.9909 18.72C45.0209 18.7 45.0509 18.68 45.1009 18.67C44.9809 18.5 45.0409 18.47 45.1209 18.44C45.2109 18.42 45.3409 18.41 45.3309 18.33C45.4309 18.31 45.4609 18.24 45.4709 18.17C45.4709 18.1 45.4709 18.02 45.5109 17.97C45.4909 17.9 45.5509 17.85 45.6009 17.79C45.6609 17.74 45.6809 17.67 45.6109 17.59C45.6209 17.56 45.6309 17.53 45.6209 17.49C45.6209 17.46 45.6009 17.42 45.5909 17.39C45.5709 17.33 45.5909 17.27 45.6509 17.2C45.5509 17.14 45.5909 17.08 45.6309 17.01C45.6809 16.94 45.7209 16.87 45.6309 16.82C45.6309 16.76 45.6109 16.7 45.5909 16.64C45.5709 16.58 45.5709 16.52 45.5709 16.46C45.7009 16.36 45.6909 16.29 45.6409 16.24C45.5909 16.19 45.5009 16.17 45.4709 16.12C45.4509 15.99 45.2109 16.01 45.3309 15.81C45.2909 15.71 45.3309 15.53 45.1609 15.53C45.1109 15.51 45.1609 15.39 45.1609 15.3C45.1709 15.21 45.1409 15.16 44.9609 15.28C44.9009 15.28 44.9109 15.18 44.9109 15.1C44.9109 15.03 44.8809 14.97 44.7609 15.06C44.5409 15.21 44.6209 14.94 44.5509 14.87C44.4809 14.81 44.4109 14.76 44.3409 14.71C43.7009 14.28 43.1809 14.18 43.1809 14C43.1809 13.95 43.2209 13.91 43.3009 13.87C43.3809 13.83 43.5009 13.78 43.6609 13.77C43.9809 13.73 44.4809 13.75 45.0509 14C45.1609 14.05 45.4009 13.94 45.4009 14.18C45.5109 14.26 45.7309 14.22 45.7509 14.42C45.9009 14.36 45.9709 14.41 46.0109 14.48C46.0509 14.56 46.0509 14.66 46.1009 14.72C46.2209 14.83 46.2309 15.02 46.4309 15.09C46.6609 15.15 46.5409 15.42 46.7209 15.53C46.6409 15.77 46.7409 15.9 46.9609 16.03C46.9109 16.15 46.9409 16.23 46.9909 16.32C47.0409 16.4 47.1109 16.49 47.1209 16.59C47.0009 16.71 47.0009 16.8 47.0309 16.9C47.0609 16.99 47.1409 17.09 47.2009 17.19C47.2509 17.29 47.2309 17.4 47.2109 17.51C47.2109 17.56 47.1909 17.62 47.1809 17.67C47.1809 17.72 47.1709 17.78 47.1809 17.83C47.1009 18.03 47.1609 18.27 47.0609 18.48C47.0809 18.61 47.0809 18.73 47.0509 18.84C47.0109 18.95 46.9309 19.05 46.8209 19.12C46.8209 19.25 46.7509 19.35 46.6809 19.45C46.6209 19.55 46.5309 19.63 46.4609 19.73C46.4409 19.79 46.4209 19.85 46.3809 19.9C46.3409 19.95 46.3009 19.99 46.2509 20.03C46.1609 20.11 46.0609 20.18 45.9809 20.27C45.9109 20.37 45.7709 20.41 45.6509 20.44C45.5309 20.48 45.4309 20.54 45.4009 20.73C45.2109 20.9 44.9409 20.94 44.7309 21.08C44.6009 21.11 44.4809 21.14 44.3509 21.17C44.2209 21.2 44.1009 21.24 43.9809 21.31C43.8209 21.19 43.7009 21.18 43.5709 21.22C43.4509 21.25 43.3209 21.33 43.1909 21.39C43.0609 21.43 42.9209 21.43 42.7909 21.42C42.6609 21.4 42.5309 21.36 42.4009 21.32C42.1409 21.3 41.8909 21.21 41.6509 21.1C41.5109 21.1 41.4109 21 41.3109 20.93C41.2109 20.85 41.1209 20.76 40.9809 20.75C40.8409 20.75 40.7509 20.63 40.6709 20.53C40.5909 20.43 40.5209 20.32 40.3909 20.29C40.2709 20.24 40.1609 20.17 40.0709 20.08C39.9809 19.99 39.9209 19.88 39.9109 19.74C39.8409 19.64 39.8209 19.51 39.7909 19.39C39.7609 19.27 39.7009 19.18 39.5509 19.13C39.4809 19.04 39.3309 18.97 39.2509 18.88C39.1709 18.79 39.1509 18.66 39.3009 18.49C39.2209 18.4 39.2409 18.27 39.2509 18.16C39.2509 18.04 39.2809 17.94 39.1809 17.84C39.3109 17.71 39.3009 17.62 39.2709 17.51C39.2309 17.41 39.1609 17.31 39.1709 17.2C39.2009 17.1 39.2509 17 39.2709 16.9C39.2909 16.8 39.3109 16.71 39.2509 16.6C39.2209 16.54 39.2209 16.49 39.2309 16.44C39.2409 16.39 39.2709 16.34 39.2909 16.3C39.3509 16.21 39.4109 16.13 39.4209 16.04C39.3709 15.92 39.4609 15.85 39.5409 15.79C39.6209 15.72 39.7109 15.67 39.6609 15.55C39.7709 15.4 39.8109 15.23 39.9509 15.11C39.8309 14.93 39.8909 14.86 39.9809 14.82C40.0709 14.78 40.2109 14.79 40.2709 14.74C40.3509 14.7 40.3509 14.6 40.3809 14.52C40.4109 14.44 40.4709 14.38 40.6209 14.44C40.5709 14.28 40.6209 14.22 40.7109 14.2C40.7909 14.18 40.9009 14.2 40.9809 14.2C41.1309 14.19 41.1309 13.95 41.3309 14.02C41.3309 13.77 41.6009 14.02 41.6609 13.9C41.8109 13.98 41.8609 13.83 41.9709 13.82C42.0109 13.78 42.0509 13.76 42.1009 13.75C42.1509 13.75 42.2009 13.75 42.2509 13.78C42.3409 13.78 42.4209 13.77 42.5009 13.77C42.6209 13.77 42.7209 13.79 42.8009 13.8C42.8909 13.81 42.9609 13.84 43.0209 13.86C43.1409 13.91 43.1909 13.96 43.1909 14.01V14.04Z" fill="black"/>
<path d="M31.7795 51.15C31.8895 51.15 31.9995 52.76 32.0995 55.71C32.1195 56.2 32.1295 56.73 32.1495 57.3C32.1795 57.86 32.2095 58.47 32.1995 59.1C32.0495 59.74 32.4695 60.41 32.2395 61.11C32.1795 61.81 32.2395 62.55 32.2795 63.32C32.3295 64.09 32.1895 64.89 32.3195 65.72C32.6095 66.55 32.0095 67.41 32.3595 68.31C32.3995 68.74 32.4095 69.17 32.4095 69.61V70.05C32.4095 70.14 32.3995 70.24 32.3995 70.33H32.4495C32.4995 70.39 32.6095 70.42 32.7295 70.42C32.7595 70.42 32.7895 70.42 32.8195 70.42H32.9995C33.1195 70.42 33.2395 70.42 33.3595 70.4C33.8495 70.37 34.3395 70.31 34.8495 70.29C35.8595 70.55 36.8895 70.44 37.9495 70.26C39.0095 70.62 40.0895 70.57 41.1995 70.23C42.3095 70.22 43.4395 70.36 44.5995 70.2C45.7595 70.18 46.9295 70.11 48.1395 70.17C49.3395 69.93 50.5595 69.94 51.8095 70.14C53.0495 69.88 54.3195 69.98 55.5995 70.12C56.8795 70.26 58.1895 69.89 59.5095 70.1C60.8295 70.12 62.1695 70.04 63.5195 70.08C64.8795 70.19 66.2495 70.3 67.6395 70.07C69.0295 70.01 70.4295 69.92 71.8495 70.06C73.2695 69.78 74.6995 69.91 76.1495 70.06C77.5995 70.01 79.0495 70.21 80.5195 70.06H80.9595H81.1795H81.2395H81.2595C81.2995 70.06 81.3395 70.05 81.3695 70.04L81.3495 69.95V69.91L81.3395 69.6C81.3395 69.15 81.3395 68.7 81.3795 68.25C81.4595 66.76 81.5395 65.28 81.3795 63.81C81.3095 63.22 81.3095 62.63 81.3195 62.05C81.3295 61.76 81.3395 61.46 81.3595 61.17L81.3795 60.71C81.3795 60.44 81.3795 60.17 81.3895 59.91L81.9795 59.37L82.1495 59.21L82.2995 59.06C82.9195 58.67 83.4395 58.17 83.9395 57.65C84.1895 57.39 84.4395 57.13 84.6895 56.88L84.9395 56.63C84.9395 56.63 84.9795 56.6 85.0195 56.58C85.0495 56.54 85.0995 56.51 85.1595 56.46C85.1095 56.43 85.0395 56.38 84.9295 56.33H84.8895L84.7195 56.26L84.3395 56.15C84.0895 56.08 83.8395 56.02 83.5795 55.96C83.3095 55.88 83.0395 55.81 82.7695 55.73C82.2895 55.59 81.8095 55.44 81.3295 55.3C81.3295 54.91 81.3295 54.53 81.3295 54.15V53.71V53.4C81.3295 52.99 81.3595 52.58 81.3895 52.18C81.2895 52.1 81.2395 52.14 81.2395 52.14C81.2295 52.14 81.2395 52.14 81.2195 52.11C81.2195 52.11 81.2195 52.1 81.2195 52.09C81.2195 52.09 81.1995 52.08 81.1895 52.08H81.1395L80.7695 52.04C80.2695 51.99 79.7795 51.94 79.2895 51.97C77.9695 51.8 76.6695 51.99 75.3795 51.95C74.0995 52.02 72.8295 51.77 71.5895 51.93C70.3495 51.9 69.1195 52.06 67.9195 51.9C66.7195 52.1 65.5395 51.73 64.3795 51.87C63.2195 51.87 62.0895 51.88 60.9795 51.84C59.8695 51.53 58.7895 51.79 57.7295 51.81C56.6695 51.78 55.6395 51.99 54.6295 51.78C53.6295 51.75 52.6495 51.62 51.6995 51.74C50.7495 51.79 49.8295 51.29 48.9395 51.7C48.0495 51.77 47.1895 51.38 46.3495 51.66C45.5195 51.92 44.7195 51.63 43.9495 51.62C43.1795 51.6 42.4395 51.59 41.7395 51.58C38.5795 51.51 36.0795 51.44 34.3895 51.36C32.6895 51.28 31.7795 51.2 31.7795 51.12C31.7795 51.03 32.8995 50.94 34.9795 50.85C37.0595 50.77 40.0995 50.69 43.9495 50.62C44.7195 50.61 45.5195 50.39 46.3495 50.58C47.1795 50.58 48.0395 50.41 48.9395 50.54C49.8295 50.25 50.7495 50.49 51.6995 50.5C52.6495 50.49 53.6295 50.58 54.6295 50.46C55.6295 50.29 56.6695 50.54 57.7295 50.43C58.7895 50.61 59.8695 50.56 60.9795 50.4C62.0895 50.57 63.2195 50.36 64.3795 50.37C65.5395 50.64 66.7195 50.45 67.9195 50.34C69.1195 50.24 70.3395 50.38 71.5895 50.31C72.8295 50.36 74.0995 50.24 75.3795 50.29C76.6595 50.17 77.9695 50.12 79.2895 50.27C79.7795 50.24 80.2695 50.23 80.7695 50.23C81.5595 50.23 82.3495 50.24 83.1495 50.24C83.1495 50.88 83.1495 51.53 83.1495 52.18C83.1795 52.59 83.1895 52.99 83.1895 53.4V53.86C83.1895 53.86 83.1895 53.87 83.1895 53.88V53.96L83.2195 53.98H83.2495C83.2495 53.98 83.2495 53.99 83.3295 54.02C83.5895 54.11 83.8595 54.19 84.1295 54.27C84.3795 54.34 84.6295 54.42 84.8795 54.51L85.2495 54.65L85.4595 54.73L85.7895 54.85C86.6795 55.17 87.4995 55.46 88.4095 55.73C87.9695 56.15 87.5795 56.55 87.1695 57.02L86.4395 57.7L85.9095 58.18C85.6395 58.42 85.3795 58.66 85.1095 58.89C84.5695 59.37 84.0395 59.85 83.5195 60.35L83.2095 60.62L83.1595 60.65V60.71L83.1395 61.13C83.1395 61.42 83.1395 61.71 83.1395 62.01C83.1395 62.6 83.1495 63.18 83.1895 63.77C82.8995 65.24 83.0795 66.72 83.1895 68.21C83.2195 68.66 83.2295 69.11 83.2295 69.56C83.2295 69.9 83.2295 70.24 83.2295 70.58C83.2295 71.01 83.2295 71.44 83.2295 71.87C82.6695 71.87 82.1095 71.86 81.5495 71.85H81.1795L80.9595 71.84H80.5195C79.0495 71.86 77.5895 71.84 76.1495 71.82C74.6995 71.9 73.2695 71.7 71.8495 71.82C70.4295 71.94 69.0295 71.69 67.6395 71.81C66.2495 71.89 64.8795 71.94 63.5195 71.8C62.1695 71.8 60.8295 71.54 59.5095 71.78C58.1895 71.84 56.8895 72.16 55.5995 71.76C54.3195 71.86 53.0495 71.56 51.8095 71.74C50.5695 71.45 49.3395 71.73 48.1395 71.72C46.9395 71.66 45.7595 71.56 44.5995 71.69C43.4395 71.83 42.3095 71.61 41.1995 71.66C40.0895 71.83 39.0095 71.44 37.9495 71.63C36.8895 71.59 35.8595 71.66 34.8495 71.59C34.3495 71.79 33.8495 71.79 33.3595 71.73C33.2395 71.72 33.1195 71.7 32.9995 71.68C32.9295 71.68 32.8895 71.66 32.8095 71.65L32.5095 71.62C32.1095 71.58 31.7395 71.55 31.3695 71.54H31.1695C31.1695 71.17 31.1695 70.82 31.1395 70.46C31.1395 70.28 31.1195 70.1 31.1095 69.92C31.0995 69.8 31.0895 69.68 31.0795 69.57C31.0495 69.13 31.0495 68.7 31.1995 68.27C30.8995 67.38 31.1595 66.52 31.2395 65.68C31.3295 64.85 31.1095 64.05 31.2795 63.28C31.0695 62.51 31.3995 61.77 31.3195 61.07C31.4595 60.37 31.3195 59.69 31.3695 59.06C31.3195 58.43 31.3395 57.82 31.4195 57.26C31.4395 56.69 31.4495 56.17 31.4695 55.67C31.5695 52.72 31.6695 51.11 31.7795 51.11V51.15Z" fill="black"/>
<path d="M71.2003 58C71.2003 57.95 71.2503 57.89 71.3603 57.85C71.4103 57.83 71.4803 57.8 71.5703 57.79C71.6503 57.78 71.7503 57.77 71.8603 57.76C71.9303 57.76 72.0103 57.76 72.0903 57.76C72.1303 57.76 72.1803 57.76 72.2303 57.76C72.2803 57.76 72.3203 57.78 72.3603 57.8C72.3903 57.97 72.6503 57.61 72.6603 57.87C72.7303 57.98 72.8503 57.96 72.9803 57.98C73.1103 58 73.1303 58.18 73.3103 58.15C73.4503 58.07 73.4603 58.18 73.4603 58.27C73.4603 58.37 73.4703 58.46 73.6403 58.37C73.8003 58.4 73.8903 58.53 73.9703 58.65C73.9403 58.78 73.9803 58.83 74.0503 58.87C74.1203 58.91 74.2203 58.94 74.2803 58.99C74.1403 59.27 74.3203 59.32 74.5503 59.4C74.3103 59.71 74.4003 59.81 74.7803 59.87C74.8203 59.95 74.8003 60.05 74.8103 60.14C74.8203 60.23 74.8503 60.32 74.9303 60.4C74.9503 60.49 75.0003 60.58 75.0103 60.68C75.0303 60.78 75.0303 60.88 75.0103 60.98C75.1303 61.08 75.1803 61.18 75.1803 61.29C75.1803 61.4 75.1103 61.5 74.9903 61.58C75.2203 61.83 75.0603 62.04 74.8703 62.2C74.7703 62.28 74.7803 62.39 74.7903 62.52C74.7903 62.64 74.7803 62.76 74.6403 62.81C74.5203 62.99 74.4703 63.23 74.3003 63.39C74.1903 63.45 74.0803 63.5 73.9903 63.57C73.9103 63.65 73.8503 63.74 73.8503 63.91C73.7903 64.01 73.7203 64.12 73.6303 64.2C73.5403 64.28 73.4403 64.35 73.3003 64.35C73.2403 64.72 72.9303 64.73 72.6603 64.69C72.5503 64.75 72.4303 64.77 72.3003 64.77C72.1703 64.77 72.0603 64.8 71.9503 64.9C71.8203 64.9 71.7103 64.95 71.5803 64.98C71.4603 65.01 71.3303 65.03 71.2003 64.98C71.0703 64.93 70.9503 64.89 70.8303 64.87C70.7103 64.85 70.5903 64.85 70.4503 64.91C70.3103 64.97 70.1903 64.91 70.0803 64.86C69.9703 64.8 69.8703 64.71 69.7403 64.7C69.6703 64.54 69.5603 64.5 69.4403 64.49C69.3103 64.48 69.1803 64.46 69.1003 64.36C68.9903 64.31 68.9203 64.2 68.8403 64.12C68.7603 64.03 68.6803 63.95 68.5503 63.92C68.4403 63.86 68.3503 63.79 68.2703 63.71C68.1903 63.63 68.1203 63.53 68.1003 63.4C67.8703 63.43 67.8203 63.31 67.8103 63.18C67.8103 63.05 67.8303 62.9 67.7503 62.82C67.7803 62.68 67.7203 62.59 67.6603 62.5C67.6003 62.41 67.5303 62.32 67.5203 62.21C67.4503 62.12 67.4703 62 67.4803 61.89C67.4803 61.78 67.5003 61.68 67.4003 61.59C67.4003 61.49 67.3603 61.39 67.3403 61.29C67.3203 61.19 67.3103 61.08 67.3903 60.99C67.3003 60.89 67.3403 60.79 67.3903 60.7C67.4503 60.61 67.5203 60.52 67.4603 60.42C67.4703 60.33 67.4903 60.23 67.5203 60.14C67.5503 60.05 67.5703 59.96 67.6203 59.89C67.8003 59.85 67.8403 59.78 67.8403 59.69C67.8403 59.6 67.8203 59.5 67.8403 59.41C67.9303 59.27 67.8503 59.02 68.1103 59C68.2303 58.88 68.4203 58.84 68.4203 58.65C68.4503 58.58 68.5903 58.6 68.6803 58.6C68.7703 58.6 68.8403 58.57 68.7503 58.37C68.7803 58.3 68.8803 58.31 68.9603 58.31C69.0503 58.31 69.1103 58.3 69.0803 58.15C69.0403 57.86 69.3103 58.03 69.4103 57.98C69.5203 57.93 69.6303 57.9 69.7303 57.87C70.1903 57.73 70.5703 57.74 70.8203 57.79C71.0703 57.85 71.1903 57.93 71.1903 58.01C71.1903 58.11 71.0403 58.19 70.8103 58.31C70.5803 58.42 70.2503 58.58 69.9203 58.86C69.8503 58.92 69.9003 59.14 69.7303 59.04C69.6503 59.09 69.6903 59.27 69.5403 59.25C69.6703 59.52 69.4503 59.41 69.3603 59.48C69.3003 59.56 69.1703 59.59 69.2003 59.74C69.2903 59.92 69.0103 59.87 69.0703 60.03C68.8603 60.05 68.8603 60.19 68.9803 60.34C68.8803 60.37 68.8803 60.43 68.8903 60.49C68.9003 60.55 68.9403 60.62 68.9303 60.67C68.7903 60.71 68.7603 60.77 68.7803 60.83C68.8003 60.89 68.8703 60.96 68.9203 61.02C68.9703 61.08 68.9603 61.14 68.9503 61.2C68.9403 61.26 68.9303 61.32 68.9703 61.38C68.9303 61.51 69.0803 61.6 69.0703 61.73C69.1503 61.77 69.2103 61.81 69.2403 61.86C69.2703 61.91 69.2803 61.97 69.2403 62.06C69.3703 62.13 69.3703 62.27 69.4603 62.37C69.5403 62.39 69.5703 62.44 69.6103 62.49C69.6403 62.55 69.6703 62.61 69.7303 62.64C69.7903 62.66 69.7903 62.76 69.8303 62.83C69.8603 62.9 69.9103 62.96 70.0503 62.87C70.1803 62.91 70.2603 63.04 70.4003 63.04C70.5103 63.12 70.6403 63.2 70.7903 63.15C70.8303 63.3 70.9003 63.34 70.9803 63.33C71.0603 63.31 71.1303 63.24 71.2003 63.19C71.2703 63.14 71.3303 63.13 71.4003 63.13C71.4703 63.13 71.5303 63.13 71.6103 63.15C71.6703 63.12 71.7403 63.1 71.8003 63.09C71.8703 63.08 71.9303 63.05 71.9903 63.04C72.0703 62.91 72.2903 63.04 72.3403 62.87C72.3703 62.79 72.4303 62.77 72.5003 62.76C72.5703 62.75 72.6503 62.73 72.6503 62.64C72.6703 62.57 72.6903 62.5 72.7303 62.45C72.7703 62.4 72.8303 62.37 72.9203 62.36C72.9603 62.31 73.0503 62.3 73.1103 62.26C73.1703 62.22 73.2203 62.17 73.1303 62.05C73.1303 61.98 73.0703 61.89 73.0603 61.82C73.0403 61.75 73.0803 61.71 73.2903 61.72C73.2603 61.65 73.3203 61.6 73.3703 61.55C73.4303 61.5 73.4603 61.44 73.3903 61.37C73.4703 61.35 73.5103 61.33 73.5303 61.29C73.5503 61.26 73.5403 61.23 73.5303 61.2C73.5003 61.13 73.4403 61.07 73.4403 61.02C73.4703 60.96 73.5003 60.9 73.5103 60.84C73.5203 60.78 73.5103 60.72 73.4303 60.68C73.3503 60.64 73.3603 60.58 73.3803 60.52C73.3903 60.46 73.4303 60.39 73.3803 60.35C73.2803 60.32 73.3103 60.26 73.3403 60.19C73.3703 60.12 73.3903 60.05 73.2803 60.04C73.2803 59.92 73.1503 59.87 73.1503 59.75C72.9603 59.82 72.9303 59.79 72.9403 59.71C72.9603 59.64 73.0103 59.53 72.9903 59.48C72.9803 59.42 72.9003 59.43 72.8403 59.42C72.7803 59.41 72.7503 59.39 72.8103 59.24C72.6703 59.32 72.6403 59.3 72.6303 59.24C72.6203 59.19 72.6303 59.09 72.6303 59.03C72.6103 58.9 72.4203 59.04 72.4403 58.85C72.2703 58.99 72.3503 58.67 72.2403 58.7C72.2303 58.53 72.1003 58.63 72.0503 58.57C72.0103 58.58 71.9703 58.57 71.9503 58.56C71.9203 58.54 71.9003 58.51 71.8703 58.47C71.8103 58.44 71.7603 58.41 71.7003 58.38C71.6203 58.34 71.5503 58.31 71.4803 58.27C71.4203 58.23 71.3603 58.21 71.3103 58.18C71.2203 58.12 71.1603 58.07 71.1603 58.01L71.2003 58Z" fill="black"/>
<path d="M56.8892 58C56.8892 57.95 56.9392 57.89 57.0492 57.85C57.0992 57.83 57.1692 57.8 57.2592 57.79C57.3392 57.78 57.4392 57.77 57.5492 57.76C57.6192 57.76 57.6992 57.76 57.7792 57.76C57.8192 57.76 57.8692 57.76 57.9192 57.76C57.9592 57.76 58.0092 57.78 58.0492 57.8C58.0792 57.97 58.3392 57.61 58.3492 57.87C58.4192 57.98 58.5392 57.96 58.6692 57.98C58.7992 58 58.8192 58.18 58.9992 58.15C59.1392 58.07 59.1492 58.18 59.1492 58.27C59.1492 58.37 59.1592 58.46 59.3292 58.37C59.4892 58.4 59.5692 58.53 59.6592 58.65C59.6292 58.78 59.6692 58.83 59.7392 58.87C59.8092 58.91 59.9092 58.94 59.9692 58.99C59.8292 59.27 60.0092 59.32 60.2392 59.4C59.9992 59.71 60.0892 59.81 60.4692 59.87C60.5092 59.95 60.4892 60.05 60.4992 60.14C60.5092 60.23 60.5292 60.32 60.6192 60.4C60.6492 60.49 60.6892 60.58 60.7092 60.68C60.7292 60.78 60.7292 60.87 60.7092 60.97C60.8392 61.07 60.8792 61.17 60.8792 61.28C60.8792 61.38 60.8092 61.49 60.6992 61.57C60.9292 61.82 60.7692 62.03 60.5792 62.19C60.4792 62.27 60.4892 62.38 60.4992 62.51C60.4992 62.63 60.4892 62.75 60.3492 62.8C60.2292 62.99 60.1792 63.22 60.0092 63.38C59.8992 63.44 59.7892 63.49 59.6992 63.56C59.6192 63.64 59.5592 63.73 59.5592 63.9C59.4892 64 59.4292 64.11 59.3392 64.19C59.2492 64.27 59.1492 64.34 59.0092 64.34C58.9492 64.71 58.6392 64.72 58.3692 64.68C58.2592 64.74 58.1292 64.76 58.0092 64.76C57.8792 64.76 57.7692 64.79 57.6592 64.89C57.5292 64.89 57.4092 64.94 57.2892 64.97C57.1692 65 57.0392 65.02 56.9092 64.97C56.7792 64.92 56.6592 64.88 56.5392 64.86C56.4192 64.84 56.2992 64.84 56.1592 64.9C56.0192 64.96 55.8992 64.9 55.7892 64.85C55.6792 64.79 55.5792 64.7 55.4492 64.69C55.3792 64.53 55.2692 64.49 55.1492 64.48C55.0192 64.47 54.8892 64.45 54.8092 64.35C54.6992 64.3 54.6292 64.19 54.5492 64.11C54.4692 64.02 54.3892 63.94 54.2592 63.91C54.1592 63.85 54.0592 63.78 53.9792 63.7C53.8992 63.62 53.8292 63.52 53.8092 63.39C53.5792 63.42 53.5292 63.3 53.5192 63.17C53.5192 63.03 53.5392 62.89 53.4592 62.81C53.4892 62.67 53.4292 62.58 53.3692 62.49C53.3092 62.4 53.2392 62.31 53.2292 62.2C53.1592 62.11 53.1792 61.99 53.1892 61.88C53.1892 61.77 53.2092 61.67 53.1092 61.58C53.1092 61.48 53.0692 61.38 53.0492 61.28C53.0292 61.18 53.0192 61.08 53.0992 60.98C53.0092 60.88 53.0492 60.78 53.0992 60.69C53.1492 60.6 53.2292 60.51 53.1692 60.41C53.1792 60.32 53.1992 60.22 53.2292 60.13C53.2592 60.04 53.2792 59.95 53.3292 59.87C53.5092 59.83 53.5492 59.76 53.5492 59.67C53.5492 59.58 53.5292 59.48 53.5492 59.39C53.6392 59.25 53.5592 59 53.8192 58.98C53.9392 58.86 54.1292 58.82 54.1292 58.63C54.1592 58.56 54.2992 58.58 54.3892 58.58C54.4792 58.58 54.5492 58.55 54.4592 58.35C54.4892 58.28 54.5892 58.29 54.6692 58.29C54.7592 58.29 54.8192 58.28 54.7892 58.13C54.7492 57.84 55.0192 58.01 55.1192 57.96C55.2292 57.91 55.3392 57.88 55.4392 57.85C55.8992 57.71 56.2792 57.72 56.5292 57.77C56.7792 57.83 56.8992 57.91 56.8992 57.99C56.8992 58.09 56.7492 58.17 56.5192 58.29C56.2892 58.4 55.9592 58.56 55.6292 58.84C55.5592 58.9 55.6092 59.12 55.4392 59.02C55.3592 59.07 55.3992 59.25 55.2492 59.23C55.3692 59.5 55.1592 59.39 55.0692 59.46C55.0092 59.54 54.8792 59.57 54.9092 59.72C54.9992 59.9 54.7192 59.85 54.7792 60.01C54.5692 60.03 54.5692 60.17 54.6892 60.32C54.5892 60.35 54.5892 60.41 54.5992 60.47C54.6092 60.53 54.6492 60.6 54.6392 60.65C54.4992 60.68 54.4692 60.74 54.4892 60.81C54.5092 60.87 54.5792 60.94 54.6292 61C54.6792 61.06 54.6692 61.12 54.6592 61.18C54.6492 61.24 54.6392 61.3 54.6792 61.36C54.6392 61.49 54.7892 61.58 54.7792 61.71C54.8592 61.75 54.9192 61.79 54.9492 61.84C54.9792 61.89 54.9892 61.95 54.9492 62.04C55.0792 62.11 55.0892 62.25 55.1692 62.35C55.2492 62.37 55.2792 62.42 55.3192 62.47C55.3492 62.53 55.3792 62.59 55.4392 62.62C55.5092 62.64 55.5092 62.74 55.5392 62.81C55.5692 62.88 55.6192 62.94 55.7592 62.85C55.8892 62.89 55.9692 63.02 56.1092 63.02C56.2192 63.1 56.3492 63.18 56.4892 63.13C56.5292 63.28 56.5992 63.32 56.6792 63.31C56.7492 63.29 56.8292 63.22 56.8992 63.17C56.9692 63.12 57.0292 63.11 57.0992 63.11C57.1692 63.11 57.2292 63.11 57.2992 63.13C57.4292 63.07 57.5592 63.05 57.6892 63.02C57.7692 62.89 57.9892 63.02 58.0392 62.85C58.0692 62.77 58.1292 62.75 58.1992 62.74C58.2792 62.74 58.3492 62.71 58.3492 62.62C58.3692 62.55 58.3892 62.48 58.4292 62.43C58.4692 62.38 58.5292 62.35 58.6192 62.34C58.6592 62.29 58.7492 62.28 58.8092 62.24C58.8692 62.2 58.9192 62.15 58.8292 62.03C58.8292 61.96 58.7692 61.87 58.7592 61.8C58.7392 61.73 58.7792 61.69 58.9892 61.7C58.9592 61.63 59.0192 61.58 59.0692 61.53C59.1292 61.48 59.1592 61.42 59.0892 61.35C59.2492 61.31 59.2592 61.25 59.2292 61.18C59.1992 61.11 59.1392 61.05 59.1392 61C59.1592 60.94 59.1992 60.88 59.2092 60.82C59.2192 60.76 59.2092 60.7 59.1292 60.65C59.0492 60.61 59.0592 60.55 59.0792 60.49C59.0992 60.43 59.1292 60.36 59.0792 60.32C58.9792 60.3 59.0192 60.23 59.0492 60.16C59.0792 60.09 59.0992 60.02 58.9892 60.01C58.9892 59.89 58.8592 59.84 58.8592 59.72C58.6692 59.79 58.6392 59.76 58.6492 59.68C58.6692 59.61 58.7192 59.5 58.6992 59.45C58.6892 59.39 58.6092 59.4 58.5492 59.39C58.4892 59.38 58.4592 59.36 58.5192 59.21C58.3792 59.29 58.3492 59.27 58.3392 59.21C58.3292 59.16 58.3392 59.06 58.3392 59C58.3192 58.87 58.1292 59.01 58.1492 58.82C57.9792 58.96 58.0592 58.64 57.9492 58.67C57.9392 58.5 57.8092 58.6 57.7592 58.54C57.7192 58.55 57.6792 58.54 57.6592 58.53C57.6292 58.51 57.5992 58.48 57.5792 58.44C57.5192 58.41 57.4692 58.38 57.4092 58.35C57.3292 58.31 57.2592 58.28 57.1892 58.24C57.1292 58.2 57.0692 58.18 57.0192 58.15C56.9292 58.09 56.8792 58.04 56.8792 57.98L56.8892 58Z" fill="black"/>
<path d="M42.5794 58C42.5794 57.95 42.6294 57.89 42.7394 57.85C42.7894 57.83 42.8594 57.8 42.9494 57.79C43.0294 57.78 43.1294 57.77 43.2394 57.76C43.3094 57.76 43.3894 57.76 43.4694 57.76C43.5094 57.76 43.5594 57.76 43.6094 57.76C43.6494 57.76 43.6994 57.78 43.7394 57.8C43.7694 57.97 44.0294 57.61 44.0294 57.87C44.0994 57.98 44.2194 57.96 44.3494 57.98C44.4794 58 44.4994 58.18 44.6794 58.15C44.8194 58.07 44.8294 58.18 44.8294 58.27C44.8294 58.37 44.8394 58.45 45.0094 58.37C45.1694 58.4 45.2494 58.53 45.3394 58.65C45.3094 58.77 45.3494 58.83 45.4194 58.87C45.4894 58.91 45.5894 58.94 45.6494 58.99C45.5094 59.27 45.6894 59.32 45.9194 59.4C45.6794 59.71 45.7694 59.81 46.1494 59.87C46.1894 59.95 46.1694 60.05 46.1794 60.14C46.1894 60.23 46.2094 60.32 46.2994 60.4C46.3194 60.49 46.3694 60.58 46.3794 60.68C46.3994 60.78 46.3994 60.88 46.3794 60.97C46.5094 61.07 46.5494 61.17 46.5494 61.28C46.5494 61.39 46.4794 61.49 46.3594 61.57C46.5894 61.81 46.4294 62.03 46.2494 62.19C46.1394 62.27 46.1594 62.38 46.1694 62.51C46.1694 62.63 46.1594 62.75 46.0194 62.8C45.8994 62.98 45.8494 63.22 45.6794 63.38C45.5694 63.44 45.4594 63.49 45.3694 63.56C45.2894 63.64 45.2294 63.73 45.2294 63.9C45.1694 64 45.0994 64.11 45.0094 64.19C44.9194 64.27 44.8194 64.34 44.6694 64.34C44.6094 64.7 44.2994 64.72 44.0294 64.68C43.9194 64.74 43.7994 64.76 43.6694 64.76C43.5394 64.76 43.4294 64.79 43.3194 64.89C43.1894 64.89 43.0794 64.94 42.9494 64.97C42.8294 65 42.6994 65.02 42.5694 64.97C42.4394 64.92 42.3194 64.88 42.1994 64.86C42.0794 64.84 41.9594 64.84 41.8194 64.9C41.6794 64.96 41.5594 64.9 41.4494 64.85C41.3394 64.79 41.2394 64.7 41.1094 64.69C41.0394 64.53 40.9294 64.49 40.8094 64.48C40.6794 64.47 40.5494 64.45 40.4694 64.35C40.3594 64.3 40.2894 64.19 40.2094 64.11C40.1294 64.02 40.0494 63.94 39.9194 63.91C39.8194 63.85 39.7194 63.78 39.6394 63.7C39.5594 63.62 39.4894 63.52 39.4694 63.39C39.2394 63.42 39.1894 63.3 39.1794 63.17C39.1794 63.03 39.1994 62.89 39.1194 62.81C39.1494 62.67 39.0894 62.58 39.0294 62.49C38.9694 62.4 38.8994 62.31 38.8894 62.2C38.8194 62.11 38.8394 61.99 38.8494 61.88C38.8494 61.77 38.8694 61.67 38.7694 61.58C38.7694 61.48 38.7194 61.38 38.7094 61.28C38.6894 61.18 38.6794 61.08 38.7594 60.98C38.6694 60.88 38.7094 60.78 38.7594 60.69C38.8194 60.6 38.8894 60.51 38.8394 60.41C38.8494 60.32 38.8694 60.22 38.8994 60.14C38.9294 60.05 38.9494 59.96 38.9994 59.89C39.1794 59.85 39.2194 59.78 39.2194 59.69C39.2194 59.6 39.1994 59.5 39.2194 59.41C39.3094 59.27 39.2294 59.02 39.4894 59C39.6094 58.88 39.7994 58.84 39.7994 58.65C39.8294 58.58 39.9694 58.6 40.0594 58.6C40.1494 58.6 40.2194 58.57 40.1294 58.37C40.1594 58.3 40.2594 58.31 40.3394 58.31C40.4294 58.31 40.4894 58.3 40.4594 58.15C40.4194 57.86 40.6894 58.03 40.7894 57.98C40.8994 57.93 41.0094 57.9 41.1094 57.87C41.5694 57.73 41.9494 57.74 42.1994 57.79C42.4494 57.85 42.5694 57.93 42.5694 58.01C42.5694 58.11 42.4194 58.19 42.1894 58.31C41.9594 58.42 41.6294 58.58 41.2994 58.86C41.2294 58.92 41.2794 59.14 41.1094 59.04C41.0294 59.09 41.0694 59.27 40.9194 59.25C41.0394 59.52 40.8294 59.41 40.7394 59.48C40.6794 59.56 40.5494 59.59 40.5794 59.74C40.6694 59.92 40.3894 59.87 40.4594 60.03C40.2494 60.05 40.2494 60.19 40.3694 60.34C40.2694 60.37 40.2694 60.43 40.2794 60.49C40.2894 60.55 40.3294 60.62 40.3194 60.67C40.1794 60.7 40.1494 60.77 40.1694 60.83C40.1894 60.89 40.2594 60.96 40.3094 61.02C40.3594 61.08 40.3494 61.14 40.3394 61.2C40.3294 61.26 40.3194 61.32 40.3594 61.38C40.3194 61.51 40.4694 61.6 40.4594 61.73C40.5394 61.77 40.5994 61.81 40.6294 61.86C40.6594 61.91 40.6694 61.97 40.6294 62.06C40.7594 62.13 40.7594 62.27 40.8494 62.37C40.9294 62.39 40.9594 62.44 40.9994 62.49C41.0294 62.55 41.0594 62.61 41.1194 62.64C41.1894 62.66 41.1794 62.76 41.2194 62.83C41.2494 62.9 41.2994 62.96 41.4394 62.87C41.5694 62.91 41.6494 63.04 41.7994 63.04C41.9094 63.12 42.0394 63.2 42.1794 63.15C42.2194 63.3 42.2894 63.34 42.3694 63.33C42.4494 63.31 42.5194 63.24 42.5894 63.19C42.6594 63.14 42.7194 63.13 42.7894 63.13C42.8594 63.13 42.9194 63.13 42.9994 63.15C43.1294 63.09 43.2494 63.07 43.3794 63.04C43.4594 62.91 43.6794 63.04 43.7294 62.87C43.7594 62.79 43.8194 62.77 43.8894 62.76C43.9694 62.76 44.0394 62.73 44.0394 62.64C44.0594 62.57 44.0794 62.5 44.1194 62.45C44.1594 62.4 44.2194 62.37 44.3094 62.37C44.3494 62.32 44.4394 62.31 44.4994 62.27C44.5594 62.23 44.6094 62.18 44.5194 62.06C44.5194 61.99 44.4594 61.9 44.4494 61.83C44.4294 61.76 44.4694 61.72 44.6794 61.73C44.6494 61.66 44.7094 61.61 44.7594 61.56C44.8194 61.51 44.8494 61.45 44.7794 61.38C44.9394 61.34 44.9494 61.27 44.9194 61.21C44.8894 61.15 44.8294 61.09 44.8294 61.03C44.8494 60.97 44.8894 60.91 44.8994 60.85C44.9094 60.79 44.8994 60.73 44.8194 60.68C44.7394 60.64 44.7494 60.58 44.7694 60.52C44.7894 60.46 44.8194 60.39 44.7694 60.35C44.6694 60.32 44.7094 60.26 44.7394 60.19C44.7694 60.12 44.7894 60.05 44.6794 60.04C44.6794 59.92 44.5494 59.87 44.5494 59.75C44.3594 59.82 44.3294 59.79 44.3494 59.71C44.3694 59.64 44.4194 59.53 44.3994 59.48C44.3894 59.42 44.3094 59.43 44.2494 59.42C44.1894 59.41 44.1594 59.39 44.2294 59.24C44.0894 59.32 44.0594 59.3 44.0494 59.24C44.0394 59.19 44.0494 59.09 44.0494 59.03C44.0294 58.9 43.8394 59.04 43.8494 58.85C43.6794 58.99 43.7594 58.67 43.6494 58.7C43.6394 58.53 43.5094 58.63 43.4594 58.57C43.4194 58.58 43.3794 58.57 43.3594 58.56C43.3294 58.54 43.2994 58.51 43.2794 58.47C43.2194 58.44 43.1694 58.41 43.1094 58.38C43.0294 58.34 42.9594 58.31 42.8894 58.27C42.8194 58.23 42.7694 58.21 42.7194 58.18C42.6294 58.12 42.5794 58.07 42.5794 58.01V58Z" fill="black"/>
<path d="M105.05 49.66C105.05 49.57 105.85 49.39 107.33 49.57C107.58 49.61 107.84 49.64 108.12 49.71C108.26 49.74 108.41 49.76 108.56 49.79C108.71 49.83 108.86 49.88 109.01 49.93C109.14 50.05 109.31 50.05 109.49 50.06C109.67 50.06 109.85 50.1 109.97 50.27C110.12 50.37 110.28 50.45 110.46 50.53C110.63 50.6 110.81 50.67 111 50.75C111.19 50.82 111.34 50.95 111.51 51.07C111.68 51.19 111.84 51.31 112.06 51.38C112.32 51.38 112.44 51.59 112.57 51.78C112.7 51.97 112.82 52.17 113.11 52.18C113.5 52.44 113.83 52.79 114.13 53.18C114.29 53.69 114.75 53.95 115.08 54.36C115.15 54.94 115.5 55.32 115.91 55.74C115.82 56.39 116.08 56.85 116.57 57.3C116.75 57.85 116.77 58.45 117.02 59.01C117.14 59.6 117.27 60.22 117.21 60.85C117.46 61.47 117.42 62.15 117.11 62.77C117.27 63.46 117.02 64.12 116.69 64.72C116.6 64.87 116.54 65.03 116.5 65.19C116.45 65.35 116.41 65.52 116.37 65.69C116.28 66.02 116.18 66.36 115.92 66.62C115.59 67.23 115.28 67.87 114.81 68.42C114.29 68.93 113.74 69.37 113.36 70.04C112.87 70.58 112.32 71.12 111.61 71.4C111.12 72.04 110.36 72.29 109.6 72.44C108.9 72.77 108.11 72.8 107.39 73.1C106.63 73.2 105.85 73.44 105.05 73.33C104.26 73.24 103.51 73.09 102.72 73.1C102.32 73.11 101.94 73 101.58 72.86C101.4 72.8 101.22 72.71 101.04 72.64C100.86 72.57 100.68 72.5 100.5 72.44C100.34 72.31 100.18 72.21 100.01 72.13C99.8403 72.05 99.6603 71.98 99.4903 71.91C99.3103 71.84 99.1303 71.78 98.9603 71.7C98.7903 71.62 98.6203 71.53 98.4803 71.41C97.8303 71.03 97.3503 70.44 96.7303 70.05C96.1603 69.59 95.6303 69.07 95.2803 68.43C94.9103 68.26 94.7103 67.95 94.5803 67.61C94.5103 67.45 94.4603 67.27 94.4003 67.1C94.3403 66.93 94.2703 66.77 94.1703 66.63C94.0103 65.94 93.5703 65.39 93.4003 64.72C93.2703 64.41 93.2203 64.07 93.1803 63.74C93.1603 63.58 93.1403 63.41 93.1103 63.25C93.0803 63.09 93.0303 62.93 92.9803 62.78C92.9103 62.14 92.7303 61.49 92.8803 60.86C92.8403 60.7 92.8203 60.54 92.8403 60.39C92.8603 60.23 92.8903 60.08 92.9303 59.93C92.9603 59.78 93.0103 59.63 93.0403 59.48C93.0703 59.33 93.0903 59.18 93.0803 59.03C93.1703 58.43 93.3103 57.85 93.5303 57.32C93.6503 57.21 93.7403 57.09 93.8003 56.96C93.8703 56.83 93.9203 56.7 93.9503 56.57C93.9903 56.43 94.0203 56.3 94.0603 56.16C94.1003 56.03 94.1303 55.89 94.1903 55.76C94.4603 55.29 94.5503 54.71 95.0203 54.38C95.3403 53.96 95.7403 53.64 95.9703 53.2C96.1103 53 96.3603 52.9 96.5703 52.78C96.7803 52.66 96.9603 52.52 96.9903 52.21C97.1403 52.03 97.3603 51.94 97.5703 51.84C97.7803 51.75 97.9603 51.63 98.0503 51.4C98.1503 51.17 98.3303 51.05 98.5303 50.98C98.7303 50.9 98.9403 50.86 99.1103 50.77C99.2803 50.68 99.4503 50.59 99.6303 50.51C99.8003 50.43 99.9703 50.35 100.14 50.29C100.89 49.99 101.58 49.8 102.19 49.68C102.8 49.56 103.33 49.52 103.76 49.51C104.19 49.51 104.51 49.52 104.73 49.56C104.95 49.6 105.06 49.63 105.06 49.68C105.06 49.78 104.51 49.84 103.53 50.05C102.56 50.27 101.14 50.67 99.6103 51.64C99.4603 51.73 99.3303 51.88 99.1903 52.01C99.0503 52.13 98.9003 52.25 98.6903 52.29C98.3703 52.52 98.1703 52.9 97.7803 53.08C97.6803 53.57 97.2103 53.69 96.9103 54.03C96.6303 54.37 96.2803 54.68 96.1203 55.13C96.0603 55.37 95.9203 55.55 95.7803 55.75C95.6303 55.94 95.5003 56.14 95.4403 56.38C95.0703 56.74 94.9103 57.24 94.9103 57.77C94.5903 58.21 94.6603 58.77 94.5703 59.29C94.2303 59.77 94.3503 60.36 94.4503 60.9C94.5403 61.44 94.4303 62.01 94.5803 62.57C94.6103 63.14 94.8503 63.68 94.9803 64.24C95.2703 64.76 95.5403 65.27 95.6803 65.87C96.0303 66.36 96.2903 66.91 96.6603 67.4C97.1103 67.82 97.4403 68.36 97.9203 68.77C98.1703 68.96 98.3603 69.22 98.5903 69.45C98.8203 69.68 99.0803 69.88 99.4303 69.92C99.9903 70.23 100.53 70.6 101.16 70.8C101.75 71.08 102.38 71.3 103.05 71.35C103.65 71.76 104.38 71.65 105.04 71.54C105.71 71.46 106.37 71.43 107.03 71.35C107.67 71.2 108.31 71.02 108.92 70.8C109.49 70.48 110.16 70.37 110.65 69.92C110.89 69.7 111.16 69.54 111.44 69.38C111.71 69.21 111.98 69.03 112.17 68.78C112.58 68.29 112.95 67.81 113.43 67.41C113.61 67.16 113.84 66.95 114.03 66.71C114.13 66.59 114.21 66.46 114.28 66.33C114.35 66.2 114.4 66.05 114.41 65.88C114.53 65.6 114.56 65.29 114.63 65.01C114.67 64.87 114.72 64.73 114.79 64.61C114.86 64.48 114.96 64.36 115.1 64.26C115.13 63.97 115.26 63.71 115.36 63.43C115.41 63.29 115.46 63.16 115.49 63.02C115.52 62.88 115.53 62.74 115.51 62.59C115.6 62.46 115.66 62.32 115.69 62.18C115.72 62.04 115.72 61.9 115.72 61.76C115.72 61.62 115.69 61.48 115.68 61.34C115.66 61.2 115.65 61.06 115.65 60.93C115.71 60.38 115.74 59.82 115.53 59.32C115.31 58.83 115.39 58.28 115.19 57.8C115.11 57.69 115.06 57.58 115.03 57.46C115 57.34 114.97 57.21 114.95 57.09C114.93 56.96 114.9 56.84 114.86 56.72C114.81 56.6 114.76 56.5 114.66 56.41C114.48 55.95 114.19 55.58 113.98 55.16C113.68 55.08 113.56 54.9 113.47 54.69C113.38 54.48 113.32 54.24 113.19 54.06C113.07 53.87 112.87 53.76 112.7 53.63C112.53 53.5 112.37 53.37 112.33 53.11C112.07 53.09 111.92 52.96 111.79 52.81C111.66 52.66 111.56 52.46 111.42 52.32C111.29 52.17 111.11 52.08 110.94 52C110.77 51.92 110.61 51.83 110.5 51.67C110.29 51.67 110.16 51.56 110.02 51.44C109.89 51.32 109.77 51.19 109.6 51.15C109.36 50.88 109.01 50.89 108.74 50.75C108.59 50.72 108.45 50.69 108.32 50.63C108.19 50.58 108.06 50.52 107.94 50.45C107.69 50.36 107.44 50.3 107.22 50.23C105.86 49.87 105.06 49.83 105.06 49.7L105.05 49.66Z" fill="black"/>
<path d="M95.719 67.57C95.719 67.57 95.709 67.41 95.809 67.19C95.909 66.97 96.099 66.68 96.369 66.31C96.469 66.19 96.569 66.06 96.679 65.93C96.779 65.78 96.899 65.64 97.059 65.52C97.179 65.52 97.209 65.39 97.249 65.28C97.289 65.17 97.349 65.07 97.499 65.09C97.609 65.05 97.689 64.98 97.769 64.9C97.849 64.82 97.929 64.73 98.019 64.64C98.099 64.55 98.219 64.5 98.319 64.44C98.429 64.38 98.539 64.32 98.619 64.19C98.659 64 98.809 63.99 98.959 63.99C99.109 63.99 99.259 63.98 99.299 63.75C99.349 63.7 99.409 63.65 99.469 63.61C99.529 63.57 99.589 63.54 99.659 63.5C99.789 63.44 99.929 63.38 100.069 63.33C100.249 63.37 100.389 63.32 100.519 63.23C100.649 63.14 100.769 63.02 100.919 62.96C101.109 63.03 101.279 63.02 101.419 62.95C101.569 62.88 101.699 62.77 101.839 62.64C102.249 62.89 102.549 62.79 102.829 62.38C103.179 62.32 103.549 62.38 103.899 62.21C104.259 62.14 104.639 62.07 105.019 62.12C105.399 61.89 105.809 61.9 106.189 62.15C106.609 61.92 107.019 62.09 107.389 62.29C107.579 62.4 107.789 62.39 108.009 62.39C108.219 62.39 108.439 62.41 108.609 62.57C109.009 62.71 109.439 62.77 109.829 62.98C109.919 63.04 110.009 63.11 110.099 63.17C110.189 63.24 110.279 63.3 110.379 63.35C110.569 63.45 110.779 63.52 111.029 63.53C111.239 63.61 111.459 63.68 111.659 63.8C111.859 63.91 112.049 64.04 112.189 64.23C112.719 64.26 113.029 64.66 113.289 65.07C113.669 65.34 113.869 65.81 114.299 66.04C114.369 66.13 114.449 66.22 114.539 66.31C114.659 66.44 114.809 66.59 114.949 66.75C115.089 66.91 115.229 67.07 115.359 67.23C115.419 67.31 115.489 67.39 115.539 67.48L115.579 67.54C115.579 67.54 115.579 67.54 115.579 67.56V67.58L115.539 67.61C115.499 67.65 115.459 67.69 115.419 67.73C115.119 68.06 114.849 68.37 114.609 68.66L114.459 68.84C114.459 68.84 114.389 68.93 114.359 68.98C114.289 69.08 114.239 69.19 114.189 69.3C114.089 69.53 113.919 69.7 113.729 69.84C113.529 69.98 113.339 70.11 113.189 70.29C112.929 70.34 112.769 70.51 112.609 70.68C112.449 70.85 112.299 71.04 112.089 71.14C111.909 71.28 111.699 71.37 111.499 71.47C111.289 71.57 111.099 71.67 110.939 71.84C110.569 72.09 110.189 72.33 109.739 72.39C109.619 72.66 109.389 72.71 109.169 72.72C109.059 72.72 108.939 72.72 108.829 72.72C108.719 72.72 108.609 72.74 108.519 72.79C108.069 72.75 107.709 73.02 107.299 73.06C107.099 73.13 106.889 73.12 106.689 73.11C106.489 73.11 106.289 73.09 106.099 73.19C105.899 73.19 105.709 73.23 105.509 73.25C105.309 73.27 105.119 73.29 104.929 73.2C104.739 73.29 104.549 73.25 104.359 73.2C104.169 73.14 103.999 73.06 103.809 73.11C103.629 73.1 103.439 73.07 103.269 73.04C103.089 73.01 102.919 72.98 102.749 72.92C102.609 72.73 102.449 72.68 102.269 72.67C102.099 72.67 101.919 72.67 101.749 72.64C101.439 72.53 101.059 72.6 100.829 72.3C100.679 72.23 100.559 72.13 100.419 72.05C100.289 71.97 100.149 71.91 99.989 71.9C99.699 71.8 99.669 71.25 99.239 71.47C99.099 71.43 99.019 71.3 98.929 71.18C98.839 71.06 98.749 70.97 98.569 71.01C98.389 71.04 98.279 70.97 98.209 70.86C98.129 70.75 98.079 70.62 97.979 70.54C97.789 70.39 97.629 70.23 97.469 70.08C96.759 69.39 96.309 68.76 96.039 68.32C95.779 67.86 95.689 67.59 95.759 67.55C95.799 67.52 95.879 67.56 96.019 67.67C96.149 67.77 96.319 67.94 96.549 68.14C96.999 68.55 97.659 69.15 98.579 69.75C98.669 69.81 98.799 69.83 98.909 69.87C99.019 69.91 99.119 69.96 99.169 70.11C99.269 70.18 99.389 70.21 99.509 70.25C99.629 70.29 99.739 70.34 99.819 70.46C100.169 70.34 100.289 70.65 100.529 70.79C100.649 70.85 100.769 70.91 100.899 70.97C101.029 71.03 101.159 71.09 101.309 71.08C101.629 71.01 101.819 71.36 102.149 71.32C102.379 71.58 102.709 71.6 103.039 71.5C103.169 71.62 103.329 71.63 103.499 71.62C103.659 71.62 103.819 71.59 103.989 71.61C104.139 71.76 104.299 71.79 104.469 71.78C104.639 71.76 104.809 71.69 104.979 71.64C105.149 71.6 105.309 71.6 105.479 71.61C105.649 71.61 105.819 71.63 105.989 71.58C106.159 71.58 106.339 71.56 106.509 71.52C106.679 71.48 106.849 71.43 107.029 71.43C107.359 71.24 107.689 71.12 108.069 71.16C108.149 71.11 108.239 71.08 108.319 71.05C108.399 71.01 108.489 70.98 108.579 70.96C108.749 70.91 108.939 70.86 109.109 70.79C109.409 70.56 109.799 70.5 110.129 70.29C110.279 70.17 110.489 70.14 110.669 70.07C110.849 70 111.029 69.9 111.109 69.67C111.259 69.54 111.419 69.43 111.579 69.32C111.739 69.2 111.889 69.08 112.029 68.93C112.189 68.81 112.349 68.68 112.499 68.55C112.649 68.41 112.769 68.25 112.889 68.08C113.019 68.06 113.109 68 113.189 67.94C113.229 67.91 113.269 67.87 113.299 67.83C113.319 67.81 113.329 67.79 113.349 67.77C113.349 67.77 113.349 67.76 113.359 67.75C113.389 67.68 113.339 67.62 113.289 67.6C113.279 67.59 113.249 67.58 113.239 67.58C113.229 67.58 113.219 67.57 113.219 67.56C113.219 67.56 113.219 67.56 113.219 67.54V67.52C113.219 67.52 113.219 67.52 113.219 67.5L113.039 67.25C112.739 66.97 112.469 66.69 112.179 66.41C111.829 66.22 111.639 65.81 111.249 65.68C111.059 65.61 110.909 65.49 110.759 65.36C110.619 65.22 110.459 65.11 110.259 65.07C110.069 65.01 109.889 64.96 109.719 64.88C109.629 64.84 109.549 64.8 109.469 64.74C109.389 64.69 109.309 64.63 109.239 64.57C109.069 64.5 108.919 64.36 108.749 64.27C108.579 64.18 108.409 64.11 108.199 64.18C108.019 64.16 107.819 64.2 107.639 64.19C107.459 64.19 107.289 64.14 107.159 63.9C106.799 63.94 106.489 63.59 106.119 63.74C105.799 63.41 105.429 63.69 105.099 63.67C104.769 63.62 104.429 63.53 104.109 63.69C103.809 63.85 103.469 63.69 103.169 63.79C102.909 64.02 102.519 63.69 102.279 63.96C102.129 63.98 101.989 64.02 101.849 64.07C101.709 64.12 101.579 64.17 101.439 64.18C101.369 64.41 101.249 64.46 101.099 64.46C100.949 64.46 100.779 64.41 100.659 64.45C100.529 64.48 100.429 64.6 100.329 64.69C100.279 64.73 100.229 64.77 100.159 64.79C100.099 64.81 100.029 64.81 99.939 64.77C99.859 65.15 99.529 65.04 99.279 65.1C99.159 65.13 99.069 65.21 98.989 65.29C98.909 65.37 98.819 65.45 98.689 65.44C98.659 65.59 98.559 65.63 98.439 65.65C98.329 65.68 98.209 65.69 98.149 65.78C98.029 65.78 97.949 65.85 97.879 65.92C97.809 65.99 97.759 66.07 97.679 66.12C97.579 66.28 97.429 66.38 97.269 66.44C97.139 66.54 97.019 66.64 96.909 66.73C96.589 67.01 96.329 67.23 96.149 67.38C95.969 67.53 95.849 67.59 95.799 67.55L95.719 67.57Z" fill="black"/>
<path d="M105.049 53.53C105.049 53.47 105.109 53.42 105.219 53.38C105.279 53.36 105.349 53.33 105.439 53.32C105.519 53.31 105.629 53.3 105.739 53.29C105.819 53.29 105.899 53.29 105.989 53.3C106.039 53.3 106.079 53.3 106.129 53.3C106.179 53.3 106.219 53.32 106.269 53.34C106.309 53.51 106.569 53.15 106.579 53.42C106.649 53.53 106.779 53.52 106.909 53.54C107.039 53.56 107.069 53.74 107.249 53.71C107.389 53.64 107.399 53.74 107.409 53.84C107.419 53.94 107.429 54.03 107.599 53.95C107.759 53.99 107.849 54.12 107.939 54.25C107.909 54.38 107.949 54.44 108.029 54.48C108.099 54.52 108.199 54.55 108.269 54.61C108.129 54.9 108.319 54.96 108.549 55.04C108.309 55.35 108.399 55.46 108.789 55.54C108.829 55.63 108.819 55.73 108.829 55.82C108.839 55.92 108.869 56.01 108.959 56.09C108.989 56.18 109.029 56.28 109.049 56.38C109.069 56.48 109.069 56.58 109.049 56.69C109.179 56.79 109.219 56.9 109.219 57.01C109.219 57.07 109.199 57.12 109.169 57.17C109.139 57.22 109.089 57.27 109.029 57.32C109.259 57.57 109.099 57.8 108.909 57.97C108.799 58.05 108.819 58.17 108.829 58.3C108.829 58.42 108.809 58.55 108.669 58.61C108.549 58.8 108.489 59.05 108.309 59.21C108.249 59.24 108.199 59.27 108.139 59.3C108.079 59.33 108.029 59.36 107.989 59.4C107.899 59.48 107.849 59.58 107.839 59.75C107.769 59.85 107.699 59.97 107.609 60.05C107.519 60.13 107.409 60.21 107.259 60.21C107.189 60.58 106.879 60.61 106.589 60.56C106.479 60.62 106.339 60.64 106.219 60.65C106.089 60.65 105.969 60.69 105.849 60.78C105.719 60.78 105.589 60.83 105.459 60.87C105.329 60.9 105.199 60.92 105.059 60.87C104.929 60.82 104.799 60.78 104.679 60.76C104.549 60.74 104.429 60.73 104.279 60.79C104.129 60.85 104.009 60.79 103.889 60.73C103.769 60.67 103.669 60.57 103.539 60.56C103.469 60.4 103.359 60.36 103.219 60.34C103.089 60.33 102.949 60.31 102.869 60.2C102.749 60.15 102.679 60.04 102.589 59.95C102.499 59.86 102.419 59.77 102.289 59.74C102.179 59.68 102.079 59.61 101.999 59.52C101.959 59.48 101.919 59.43 101.889 59.38C101.859 59.33 101.839 59.27 101.829 59.2C101.599 59.22 101.539 59.11 101.539 58.97C101.539 58.83 101.559 58.69 101.469 58.6C101.499 58.46 101.439 58.36 101.379 58.27C101.319 58.17 101.249 58.08 101.229 57.97C101.159 57.87 101.179 57.75 101.189 57.64C101.189 57.53 101.209 57.42 101.109 57.32C101.109 57.27 101.099 57.21 101.079 57.16C101.069 57.11 101.049 57.05 101.039 57C101.019 56.9 101.009 56.79 101.089 56.69C100.999 56.59 101.039 56.48 101.089 56.38C101.149 56.28 101.219 56.2 101.169 56.09C101.179 55.99 101.199 55.9 101.229 55.8C101.259 55.71 101.279 55.61 101.339 55.53C101.519 55.49 101.559 55.41 101.559 55.32C101.559 55.23 101.549 55.12 101.569 55.03C101.669 54.89 101.589 54.63 101.849 54.6C101.969 54.48 102.169 54.43 102.169 54.24C102.209 54.17 102.339 54.18 102.439 54.18C102.539 54.18 102.599 54.15 102.519 53.94C102.549 53.86 102.649 53.87 102.739 53.87C102.829 53.87 102.899 53.86 102.869 53.7C102.829 53.41 103.109 53.58 103.209 53.53C103.319 53.47 103.439 53.45 103.539 53.41C104.019 53.26 104.419 53.27 104.679 53.32C104.939 53.38 105.069 53.45 105.069 53.54C105.069 53.64 104.919 53.72 104.669 53.84C104.419 53.96 104.069 54.12 103.719 54.41C103.649 54.47 103.689 54.69 103.509 54.6C103.429 54.66 103.459 54.84 103.309 54.82C103.429 55.09 103.209 55 103.119 55.07C103.059 55.16 102.919 55.2 102.949 55.35C103.039 55.53 102.759 55.5 102.819 55.66C102.609 55.68 102.599 55.83 102.719 55.99C102.619 56.02 102.619 56.09 102.629 56.15C102.639 56.22 102.679 56.28 102.669 56.34C102.529 56.38 102.499 56.44 102.519 56.51C102.539 56.58 102.609 56.65 102.659 56.71C102.699 56.77 102.699 56.83 102.689 56.9C102.689 56.93 102.679 56.97 102.679 57C102.679 57.03 102.689 57.06 102.709 57.09C102.669 57.23 102.829 57.33 102.809 57.46C102.889 57.5 102.949 57.55 102.979 57.6C103.009 57.65 103.019 57.72 102.979 57.82C103.119 57.9 103.119 58.04 103.209 58.15C103.249 58.16 103.279 58.18 103.299 58.2C103.329 58.22 103.349 58.25 103.359 58.28C103.399 58.34 103.429 58.41 103.489 58.44C103.559 58.47 103.559 58.57 103.599 58.64C103.629 58.71 103.689 58.78 103.829 58.69C103.969 58.73 104.059 58.87 104.209 58.88C104.269 58.92 104.329 58.97 104.399 58.99C104.469 59.01 104.539 59.02 104.619 58.99C104.659 59.14 104.739 59.18 104.819 59.17C104.899 59.15 104.979 59.08 105.059 59.03C105.129 58.98 105.199 58.97 105.279 58.97C105.349 58.97 105.419 58.97 105.499 58.99C105.639 58.93 105.769 58.91 105.909 58.87C105.999 58.74 106.229 58.87 106.289 58.68C106.319 58.6 106.389 58.58 106.469 58.56C106.549 58.55 106.619 58.52 106.629 58.43C106.659 58.36 106.679 58.28 106.719 58.23C106.739 58.2 106.769 58.18 106.799 58.17C106.829 58.15 106.869 58.14 106.919 58.13C106.959 58.07 107.059 58.06 107.119 58.02C107.179 57.98 107.229 57.92 107.149 57.8C107.149 57.72 107.099 57.63 107.079 57.56C107.059 57.49 107.099 57.44 107.319 57.44C107.289 57.36 107.349 57.31 107.409 57.26C107.469 57.21 107.499 57.14 107.429 57.07C107.509 57.05 107.549 57.02 107.569 56.99C107.589 56.96 107.579 56.92 107.569 56.89C107.539 56.82 107.479 56.76 107.479 56.69C107.499 56.63 107.539 56.56 107.549 56.49C107.559 56.43 107.539 56.36 107.469 56.31C107.389 56.26 107.399 56.2 107.409 56.14C107.419 56.08 107.449 56 107.409 55.96C107.309 55.93 107.339 55.86 107.369 55.79C107.399 55.71 107.409 55.64 107.309 55.63C107.299 55.5 107.179 55.45 107.169 55.32C106.969 55.38 106.949 55.35 106.959 55.27C106.969 55.2 107.029 55.08 106.999 55.03C106.989 54.97 106.899 54.98 106.839 54.97C106.779 54.96 106.739 54.93 106.809 54.79C106.669 54.87 106.639 54.84 106.619 54.79C106.609 54.73 106.619 54.64 106.609 54.58C106.579 54.45 106.389 54.58 106.399 54.39C106.229 54.52 106.299 54.21 106.189 54.23C106.169 54.06 106.039 54.16 105.979 54.1C105.939 54.1 105.899 54.1 105.869 54.08C105.839 54.06 105.809 54.03 105.789 53.99C105.729 53.96 105.669 53.92 105.609 53.9C105.519 53.86 105.449 53.82 105.379 53.79C105.309 53.75 105.249 53.73 105.199 53.7C105.099 53.64 105.049 53.58 105.049 53.53Z" fill="black"/>
</g>
<defs>
<clipPath id="clip0_3267_38608">
<rect width="86.37" height="63.35" fill="white" transform="translate(31 10)"/>
</clipPath>
</defs>
</svg>
