<svg width="73" height="80" viewBox="0 0 73 80" fill="none" xmlns="http://www.w3.org/2000/svg">
<path d="M42.5 15C54.9264 15 65 25.0736 65 37.5C65 42.1256 63.6034 46.4246 61.21 50H68C70.7614 50 73 52.2386 73 55V68C73 70.7614 70.7614 73 68 73H13C10.2386 73 8 70.7614 8 68V55C8 52.2386 10.2386 50 13 50H23.79C21.3966 46.4246 20 42.1256 20 37.5C20 25.0736 30.0736 15 42.5 15Z" fill="#FFEDDE"/>
<g clip-path="url(#clip0_3267_38656)">
<path d="M51.2266 59.6786C51.2266 59.7625 50.8132 59.8387 50.0477 59.9073C49.9176 59.915 49.7875 59.9302 49.642 59.9455C49.4966 59.9683 49.3435 59.9912 49.1751 59.9836C49.0143 59.8768 48.8383 60.1818 48.6545 60.0141C48.4708 59.9683 48.2795 60.0141 48.0804 60.0446C47.8814 60.0827 47.6747 59.976 47.4604 60.0751C47.246 60.2809 47.0241 59.8463 46.7944 60.1056C46.5648 60.1589 46.3275 60.1437 46.0825 60.1361C45.8376 59.976 45.5849 60.1361 45.3247 60.1666C45.0644 59.976 44.7965 60.0598 44.5286 60.1894C44.253 59.9302 43.9774 59.9683 43.6942 60.2123C43.411 60.2199 43.1124 60.1208 42.8215 60.2352C42.523 60.2504 42.2168 60.3038 41.9106 60.2581C41.6044 60.4334 41.2829 60.4258 40.9614 60.2733C40.6399 60.4639 40.3184 60.3877 39.9816 60.2886C39.6524 60.1818 39.3156 60.4563 38.9712 60.3038C38.6267 60.2886 38.2822 60.3496 37.9378 60.3191C37.5856 60.2428 37.2335 60.1589 36.8737 60.3267C36.514 60.3724 36.1542 60.4334 35.7868 60.3267C35.4193 60.5249 35.0519 60.4411 34.6768 60.3267C34.3017 60.3572 33.9266 60.2199 33.5515 60.3267C33.1688 60.2962 32.7937 60.4106 32.4033 60.3267C32.0206 60.2657 31.6378 60.2047 31.2551 60.3267C30.88 60.4563 30.4973 60.2733 30.1298 60.3267C29.7547 60.1437 29.3873 60.3877 29.0199 60.3267C28.6525 60.3419 28.2927 60.2199 27.9329 60.3267C27.5731 60.3648 27.221 60.3953 26.8689 60.3191C26.5168 60.6088 26.1723 60.2428 25.8355 60.3038C25.491 60.1818 25.1618 60.3191 24.825 60.2886C24.4959 60.3419 24.1667 60.1589 23.8452 60.2733C23.5237 60.2504 23.2099 60.3648 22.896 60.2581C22.5898 60.4029 22.2836 60.1361 21.9851 60.2352C21.6865 60.2352 21.3957 60.2428 21.1124 60.2123C20.8292 59.9912 20.546 60.1742 20.2781 60.1894C20.0025 60.1666 19.7422 60.3191 19.482 60.1666C19.2217 60.1513 18.9691 60.0522 18.7241 60.1361C18.4792 60.1666 18.2419 59.8082 18.0122 60.1056C17.7826 60.1589 17.5606 59.8768 17.3463 60.0751C17.1319 60.2581 16.9252 60.0522 16.7262 60.0446C16.5272 60.0369 16.3358 60.0217 16.1521 60.0141C14.5216 59.915 13.5801 59.8006 13.5801 59.6786C13.5801 59.5413 14.736 59.4194 16.7186 59.3126C16.9176 59.305 17.1243 59.1449 17.3386 59.2821C17.5529 59.2821 17.7749 59.1601 18.0046 59.2516C18.2342 59.0457 18.4715 59.2135 18.7165 59.2211C18.9614 59.2135 19.214 59.2745 19.4743 59.1906C19.7346 59.0686 20.0025 59.2516 20.2704 59.1677C20.546 59.2974 20.8216 59.2592 21.1048 59.1449C21.388 59.2669 21.6789 59.1144 21.9774 59.122C22.276 59.3126 22.5822 59.1754 22.8884 59.0991C23.2022 59.0305 23.5161 59.1296 23.8376 59.0839C24.1591 59.122 24.4806 59.0381 24.8174 59.0686C25.1465 58.9771 25.4833 58.9466 25.8278 59.0534C26.1723 58.9924 26.5168 59.0381 26.8612 59.0381C27.2133 58.9619 27.5655 59.0457 27.9252 59.0305C28.285 58.9924 28.6448 59.2364 29.0122 59.0229C29.3797 58.9924 29.7471 59.0534 30.1222 59.0229C30.4973 59.0534 30.8724 59.0762 31.2474 59.0229C31.6302 59.2287 32.0129 59.1067 32.3957 59.0229C32.7784 58.9619 33.1611 58.9924 33.5439 59.0229C33.9266 59 34.3017 59.0153 34.6692 59.0229C35.0442 58.9619 35.4117 59.1144 35.7791 59.0229C36.1465 58.9314 36.5063 59.122 36.8661 59.0305C37.2259 58.9695 37.578 58.939 37.9301 59.0381C38.2822 59.0381 38.6267 59.2287 38.9635 59.0534C39.308 59.0152 39.6371 58.7789 39.974 59.0686C40.3031 59 40.6323 59.2135 40.9538 59.0839C41.2753 59.2974 41.5891 59.0915 41.903 59.0991C42.2168 59.1372 42.5154 59.2135 42.8139 59.122C43.1124 59.0229 43.4033 59.1754 43.6866 59.1449C43.9698 59.0229 44.253 59.305 44.5209 59.1677C44.7965 59.1982 45.0568 59.1525 45.317 59.1906C45.5773 58.9009 45.8299 59.1906 46.0749 59.2211C46.3198 59.2592 46.5571 59.0305 46.7868 59.2516C47.0164 59.0305 47.2384 59.2211 47.4527 59.2821C47.6671 59.3431 47.8737 59.1906 48.0728 59.3126C48.2718 59.1601 48.4632 59.3965 48.6469 59.3431C48.8306 59.4422 48.999 59.3431 49.1674 59.3736C49.3282 59.3431 49.4889 59.3507 49.6344 59.4117C49.7798 59.427 49.9176 59.4346 50.0401 59.4499C50.8056 59.5185 51.2189 59.5947 51.2189 59.6786H51.2266Z" fill="black"/>
<path d="M51.2266 65.1607C51.2266 65.2446 50.8132 65.3208 50.0477 65.3894C49.9176 65.3971 49.7875 65.4123 49.642 65.4276C49.4966 65.4504 49.3435 65.4733 49.1751 65.4657C49.0143 65.3589 48.8383 65.6639 48.6545 65.4962C48.4708 65.4504 48.2795 65.4962 48.0804 65.5267C47.8814 65.5648 47.6747 65.4581 47.4604 65.5572C47.246 65.7631 47.0241 65.3284 46.7944 65.5877C46.5648 65.6411 46.3275 65.6258 46.0825 65.6182C45.8376 65.4581 45.5849 65.6182 45.3247 65.6487C45.0644 65.4581 44.7965 65.5419 44.5286 65.6716C44.253 65.4123 43.9774 65.4504 43.6942 65.6944C43.411 65.7021 43.1124 65.6029 42.8215 65.7173C42.523 65.7326 42.2168 65.7859 41.9106 65.7326C41.6044 65.9079 41.2829 65.9003 40.9614 65.7478C40.6399 65.9384 40.3184 65.8622 39.9816 65.7631C39.6524 65.6563 39.3156 65.9308 38.9712 65.7783C38.6267 65.763 38.2822 65.824 37.9378 65.7936C37.5856 65.7173 37.2335 65.6334 36.8737 65.8012C36.514 65.8469 36.1542 65.9079 35.7868 65.8088C35.4193 66.007 35.0519 65.9232 34.6768 65.8088C34.3017 65.8393 33.9266 65.7021 33.5515 65.8088C33.1688 65.7783 32.7937 65.8927 32.4033 65.8088C32.0206 65.7478 31.6378 65.6868 31.2551 65.8088C30.88 65.9384 30.4973 65.7554 30.1298 65.8088C29.7547 65.6258 29.3873 65.8698 29.0199 65.8088C28.6525 65.824 28.2927 65.7021 27.9329 65.8012C27.5731 65.8393 27.221 65.8698 26.8689 65.7936C26.5168 66.0833 26.1723 65.7173 25.8355 65.7783C25.491 65.6563 25.1618 65.7936 24.825 65.7631C24.4959 65.8164 24.1667 65.6334 23.8452 65.7478C23.5237 65.7249 23.2099 65.8393 22.896 65.7326C22.5898 65.8774 22.2836 65.6106 21.9851 65.7173C21.6865 65.7173 21.3957 65.7249 21.1124 65.6944C20.8292 65.4657 20.546 65.6563 20.2781 65.6716C20.0025 65.6487 19.7422 65.8012 19.482 65.6487C19.2217 65.6334 18.9691 65.5343 18.7241 65.6182C18.4792 65.6487 18.2419 65.2903 18.0122 65.5877C17.7826 65.6411 17.5606 65.3589 17.3463 65.5572C17.1319 65.7402 16.9252 65.5343 16.7262 65.5267C16.5272 65.5191 16.3358 65.5038 16.1521 65.4962C14.5216 65.3971 13.5801 65.2827 13.5801 65.1607C13.5801 65.0235 14.736 64.9015 16.7186 64.7947C16.9176 64.7871 17.1243 64.627 17.3386 64.7642C17.5529 64.7642 17.7749 64.6422 18.0046 64.7337C18.2342 64.5279 18.4715 64.6956 18.7165 64.7032C18.9614 64.6956 19.214 64.7566 19.4743 64.6727C19.7346 64.5507 20.0025 64.7337 20.2704 64.6499C20.546 64.7795 20.8216 64.7414 21.1048 64.627C21.388 64.749 21.6789 64.5965 21.9774 64.6041C22.276 64.7947 22.5822 64.6575 22.8884 64.5812C23.2022 64.5126 23.5161 64.6117 23.8376 64.566C24.1591 64.6041 24.4806 64.5202 24.8174 64.5507C25.1465 64.4592 25.4833 64.4287 25.8278 64.5355C26.1723 64.4745 26.5168 64.5202 26.8612 64.5202C27.2133 64.444 27.5655 64.5279 27.9252 64.5126C28.285 64.4745 28.6448 64.7185 29.0122 64.505C29.3797 64.4745 29.7471 64.5355 30.1222 64.505C30.4973 64.5355 30.8724 64.5584 31.2474 64.505C31.6302 64.7109 32.0129 64.5889 32.3957 64.505C32.7784 64.444 33.1611 64.4745 33.5439 64.505C33.9266 64.4821 34.3017 64.4974 34.6692 64.505C35.0442 64.444 35.4117 64.5965 35.7791 64.505C36.1465 64.4135 36.5063 64.6041 36.8661 64.5126C37.2259 64.4516 37.578 64.4211 37.9301 64.5202C38.2822 64.5202 38.6267 64.7109 38.9635 64.5355C39.308 64.4974 39.6371 64.261 39.974 64.5507C40.3031 64.4821 40.6323 64.6956 40.9538 64.566C41.2753 64.7795 41.5891 64.5736 41.903 64.5812C42.2168 64.6194 42.5154 64.6956 42.8139 64.6041C43.1124 64.505 43.4033 64.6575 43.6866 64.627C43.9698 64.505 44.253 64.7871 44.5209 64.6499C44.7965 64.6804 45.0568 64.6346 45.317 64.6727C45.5773 64.383 45.8299 64.6727 46.0749 64.7032C46.3198 64.7414 46.5571 64.5126 46.7868 64.7337C47.0164 64.5126 47.2384 64.7032 47.4527 64.7642C47.6671 64.8252 47.8737 64.6727 48.0728 64.7947C48.2718 64.6422 48.4632 64.8786 48.6469 64.8252C48.8306 64.9243 48.999 64.8252 49.1674 64.8557C49.3282 64.8176 49.4889 64.8328 49.6344 64.8862C49.7798 64.9015 49.9176 64.9091 50.0401 64.9243C50.8056 64.993 51.2189 65.0692 51.2189 65.1531L51.2266 65.1607Z" fill="black"/>
<path d="M32.3952 51.2763C32.3952 51.2763 32.487 51.2839 32.6401 51.3525C32.7932 51.4211 33.0152 51.5202 33.3137 51.6422C33.6123 51.7566 33.9874 51.8939 34.439 52.0158C34.8906 52.1378 35.4188 52.237 36.0236 52.2903C36.4293 52.3208 36.8579 52.3361 37.3249 52.3132C37.7842 52.2827 38.2741 52.2141 38.7869 52.1302C39.0549 52.1378 39.3075 52.0311 39.5601 51.932C39.8127 51.8252 40.073 51.7185 40.3715 51.7032C40.938 51.5736 41.4891 51.3068 42.0403 51.0018C42.5914 50.6968 43.2191 50.468 43.7396 50.0106C43.8544 49.8733 43.9922 49.7742 44.1377 49.6751C44.2831 49.5836 44.4439 49.5073 44.6046 49.4235C44.9185 49.2557 45.2323 49.0651 45.439 48.7296C45.9672 48.2188 46.526 47.7156 47.0771 47.159C47.7355 46.7015 48.1412 45.9771 48.6081 45.3062C49.2588 44.7572 49.6645 43.9947 49.9783 43.1789C50.6366 42.5537 51.0041 41.7073 51.1112 40.7771C51.272 40.3578 51.448 39.9384 51.5935 39.4962C51.7389 39.0616 51.8614 38.6041 51.8997 38.139C52.0834 37.2164 52.1599 36.271 52.2365 35.3103C52.2135 35.1883 52.1982 35.0663 52.1829 34.9443C52.1676 34.8223 52.1446 34.7003 52.1293 34.5783C52.0987 34.3343 52.091 34.0903 52.0681 33.8463C52.0451 33.6024 52.0298 33.3584 52.0298 33.1068C52.0298 32.8551 52.0069 32.6112 52.0069 32.3519C51.9609 32.2299 51.9303 32.1079 51.892 31.9859C51.8538 31.8639 51.8155 31.7419 51.7772 31.62C51.7083 31.376 51.6547 31.132 51.5858 30.8804C51.5246 30.6364 51.471 30.3848 51.4174 30.1332C51.3562 29.8815 51.2949 29.6299 51.2337 29.3783C51.1725 29.1267 51.073 28.8827 50.9734 28.6387C50.8739 28.3947 50.7438 28.166 50.6213 27.9296L50.4376 27.5789L50.2462 27.2282C50.185 27.1138 50.1238 26.9918 50.0702 26.8698C50.0166 26.7478 49.963 26.6258 49.9094 26.5038C49.3889 25.566 48.7229 24.7044 48.0416 23.8428C47.3986 22.9584 46.6485 22.0892 45.661 21.5173C44.7577 20.8463 43.7856 20.2821 42.8134 19.6798C41.7034 19.3519 40.6853 18.8868 39.5677 18.5437C39.2845 18.5056 38.9936 18.4522 38.7104 18.3988C38.4272 18.3607 38.1363 18.3226 37.8454 18.2845C37.5545 18.2692 37.2636 18.254 36.9727 18.254C36.6819 18.2768 36.391 18.2921 36.1001 18.3455C35.8092 18.376 35.5183 18.4141 35.2274 18.4598C34.9442 18.5285 34.6533 18.5895 34.3701 18.6657C34.0869 18.7572 33.8036 18.8411 33.5281 18.9249C33.3903 18.9783 33.2525 19.0241 33.1071 19.0774C32.8851 19.1537 32.6707 19.2223 32.4487 19.2985C32.4181 19.3214 32.3798 19.2985 32.3416 19.2833L32.2344 19.2452L32.0277 19.1613L31.867 19.0927L31.7675 19.0469L31.3541 18.8716C31.0785 18.7648 30.7876 18.681 30.5044 18.5971C30.3666 18.5513 30.2135 18.5285 30.0757 18.498C29.9303 18.4675 29.7849 18.4446 29.6394 18.4217C29.494 18.3912 29.3485 18.3912 29.2031 18.376C29.0577 18.376 28.9122 18.3607 28.7591 18.3607C28.6137 18.3607 28.4682 18.3607 28.3228 18.3607C28.1773 18.3607 28.0319 18.3607 27.8865 18.3607C27.741 18.3531 27.5956 18.3607 27.4501 18.3607H27.0138C26.8684 18.3607 26.7229 18.3683 26.5775 18.376L26.1412 18.4065C25.9957 18.4065 25.8503 18.437 25.7125 18.4675C25.567 18.498 25.4293 18.5208 25.2915 18.559C25.146 18.559 25.0006 18.5818 24.8551 18.6047C24.7174 18.6276 24.5719 18.6581 24.4341 18.6962C24.3652 18.7114 24.2963 18.7267 24.2274 18.7496L24.0208 18.8258L23.6151 18.9783C23.0869 19.1994 22.574 19.4663 22.0535 19.695C21.0507 20.2211 20.0249 20.7549 19.2135 21.5478C18.3638 22.2874 17.606 23.0956 16.8329 23.881C16.7181 24.1402 16.5726 24.3766 16.4042 24.59C16.2511 24.8112 16.075 25.0246 15.899 25.2305C15.8071 25.3296 15.7229 25.4364 15.6387 25.5431C15.5545 25.6499 15.4703 25.7566 15.3861 25.8634C15.2177 26.0768 15.0723 26.3056 14.9574 26.5419C14.3144 27.4112 13.9776 28.4405 13.5949 29.4012C13.4494 29.9044 13.2504 30.3771 13.0973 30.8651C13.059 30.9871 13.0208 31.1091 12.9825 31.2311C12.9519 31.3531 12.9213 31.4827 12.8983 31.6047C12.8753 31.7267 12.8447 31.8563 12.8294 31.9783L12.7988 32.1689C12.7988 32.2299 12.7911 32.2985 12.7911 32.3595C12.7452 32.6035 12.7146 32.8551 12.684 33.0991C12.6686 33.3507 12.6533 33.5947 12.638 33.8387C12.638 33.8997 12.6304 33.9607 12.6227 34.0217V34.2047C12.6227 34.3267 12.6151 34.4487 12.6074 34.5707C12.6074 34.6927 12.5921 34.8147 12.5844 34.9367C12.5844 35.0587 12.5691 35.1807 12.5615 35.3027C12.6533 35.783 12.6533 36.2634 12.6763 36.7361C12.7069 37.2088 12.7375 37.6892 12.8983 38.139C12.9978 38.5965 13.1203 39.0463 13.2581 39.4809C13.3882 39.9232 13.5413 40.3502 13.6944 40.7771C13.7556 41.2422 13.9317 41.654 14.1384 42.0505C14.3527 42.4393 14.5977 42.8053 14.8197 43.1789C15.2254 43.949 15.8224 44.559 16.1899 45.3062C16.6645 45.9771 17.1161 46.6557 17.7208 47.159C17.9964 47.4334 18.2184 47.7537 18.4634 48.051C18.5858 48.2035 18.716 48.3332 18.8614 48.4551C19.0069 48.5695 19.1753 48.6686 19.359 48.7296C19.6575 48.9431 19.9025 49.21 20.1704 49.4463C20.3005 49.5683 20.4383 49.6827 20.5837 49.7742C20.7292 49.8733 20.8823 49.9496 21.0583 50.0029C21.732 50.2164 22.1913 50.712 22.7654 50.9941C23.3318 51.2763 23.8906 51.5126 24.4341 51.6956C25.6589 52.1226 26.8224 52.298 27.8252 52.3132C28.8357 52.3285 29.693 52.1836 30.3666 52.0006C31.0403 51.8176 31.5455 51.6041 31.8823 51.4593C32.2191 51.3144 32.3952 51.2381 32.4105 51.261C32.4181 51.2763 32.3798 51.322 32.288 51.3906C32.1961 51.4593 32.0583 51.566 31.8593 51.6804C31.4689 51.9167 30.8489 52.2293 29.9915 52.481C29.1342 52.7249 28.0166 52.8927 26.7229 52.7936C25.4293 52.7021 23.9595 52.3361 22.4592 51.6422C21.8621 51.3678 21.1732 51.1619 20.645 50.6587C20.0479 50.2698 19.3666 49.9267 18.8384 49.3701C18.1112 49.0422 17.6366 48.3637 17.0855 47.7689C16.5114 47.1895 16.0215 46.5032 15.4397 45.8704C14.8197 45.2452 14.4828 44.4065 13.9623 43.6669C13.6255 42.8129 13.1892 42.0047 12.7299 41.1584C12.6151 40.6933 12.4467 40.2434 12.2783 39.7859C12.1098 39.3285 11.9491 38.8557 11.8419 38.3678C11.8113 37.3537 11.551 36.3777 11.4439 35.3331C11.3597 34.281 11.5128 33.2211 11.6659 32.1613C11.8879 31.1091 12.0869 30.0264 12.5002 28.9895C12.7911 27.9144 13.2581 26.8622 13.924 25.932C14.4446 24.9103 15.1488 23.9724 15.899 23.0804C16.6032 22.1273 17.5142 21.3419 18.4327 20.5642C18.5476 20.4651 18.6624 20.366 18.7849 20.2745C18.9073 20.183 19.0375 20.0991 19.1599 20.0153L19.5427 19.7636C19.6728 19.6798 19.8106 19.6112 19.9407 19.5349C20.2087 19.3824 20.4613 19.2147 20.7292 19.0622C20.9971 18.9097 21.2421 18.7191 21.5023 18.5437C22.6046 17.9566 23.8141 17.5754 25.0542 17.278C26.3096 17.0417 27.6109 16.9883 28.9122 17.0493C29.073 17.095 29.2337 17.1332 29.3868 17.1713C29.5476 17.2094 29.7083 17.2323 29.8614 17.278C30.0222 17.3161 30.1753 17.3543 30.336 17.3848C30.4968 17.4229 30.6575 17.4458 30.8106 17.4915C31.1245 17.5754 31.446 17.644 31.7598 17.7279L32.2344 17.8727L32.3492 17.9109H32.3798L32.4028 17.9261C32.4028 17.9261 32.4181 17.9261 32.4258 17.9109L32.4411 17.8956L32.4717 17.8804L32.5329 17.8575L32.6478 17.8117L33.1071 17.6288C33.4209 17.5296 33.7424 17.4381 34.0563 17.3466C34.3778 17.278 34.6993 17.217 35.0208 17.156C35.3499 17.1103 35.6714 17.0874 36.0006 17.0493C37.3019 16.912 38.6109 17.0035 39.8586 17.2856C40.1725 17.3466 40.4787 17.4229 40.7925 17.4991C41.0911 17.5983 41.3896 17.705 41.6881 17.8117C41.979 17.9337 42.2622 18.0557 42.5531 18.1701C42.8364 18.2997 43.1196 18.4293 43.4105 18.5361C43.6937 18.6581 43.9693 18.8029 44.2372 18.9554C44.5051 19.1079 44.7577 19.2909 45.0103 19.4587C45.5079 19.817 45.9901 20.1906 46.4801 20.5337C47.4599 21.2428 48.3402 22.0739 49.0215 23.0422C49.1133 23.1566 49.2052 23.271 49.297 23.3853L49.4272 23.5607C49.4731 23.6217 49.5114 23.6827 49.5496 23.7437C49.7104 23.9877 49.8711 24.2317 50.0242 24.4757C50.1773 24.7197 50.3304 24.9636 50.4912 25.2C50.6519 25.4364 50.805 25.6804 50.9964 25.9015L51.1112 26.0845L51.2261 26.2675L51.4557 26.6334C51.5322 26.7554 51.6088 26.8774 51.6853 26.9994C51.7542 27.1214 51.8231 27.251 51.8844 27.373C52.0145 27.6246 52.1446 27.8763 52.2212 28.1507C52.3054 28.4176 52.3819 28.6921 52.3972 28.9818C52.5044 29.2411 52.5886 29.5003 52.6728 29.7672C52.7417 30.034 52.7953 30.3085 52.8565 30.5754C52.9178 30.8422 52.956 31.1091 53.0096 31.376C53.0403 31.5056 53.0709 31.6428 53.1015 31.7724C53.1321 31.9021 53.1627 32.0393 53.201 32.1689C53.1857 32.4434 53.201 32.7103 53.224 32.9771C53.2393 33.244 53.2699 33.5032 53.3005 33.7701C53.3388 34.0293 53.3541 34.2962 53.3771 34.5554C53.3847 34.6851 53.4 34.8147 53.4077 34.9443C53.4077 35.0739 53.4077 35.2035 53.4077 35.3408C53.3388 36.3853 53.1321 37.3842 53.0096 38.3754C52.9484 38.8786 52.8106 39.3513 52.6422 39.8164C52.4814 40.2815 52.2824 40.7238 52.1217 41.1736C52.0068 41.6387 51.7695 42.0581 51.5322 42.4622C51.2949 42.8663 51.05 43.2551 50.8816 43.6821C50.407 44.4598 49.9554 45.2223 49.4042 45.8856C49.2588 46.3202 48.9908 46.6557 48.6923 46.9531C48.3861 47.2505 48.057 47.5021 47.7661 47.7918C47.1766 48.3484 46.748 49.0651 46.0131 49.393C45.5615 50.0487 44.8343 50.3461 44.2066 50.6815C43.5712 51.0094 43.043 51.4898 42.3924 51.6651C42.1245 51.8786 41.8183 51.9853 41.5121 52.0768C41.2059 52.1607 40.8997 52.2217 40.6165 52.3437C40.0117 52.4352 39.4759 52.6563 38.9247 52.7249C38.3889 52.8546 37.8607 52.8851 37.3708 52.8469C36.8809 52.8469 36.4216 52.8088 36.0006 52.7478C35.3729 52.6563 34.8217 52.5115 34.3625 52.3513C33.9032 52.1836 33.5357 52.0082 33.2448 51.8557C32.954 51.6956 32.7473 51.566 32.6095 51.4593C32.4717 51.3601 32.4105 51.2991 32.4181 51.2839L32.3952 51.2763Z" fill="black"/>
<path d="M26.2417 24.1325C26.2111 24.2088 26.0656 24.2393 25.8513 24.2317C25.813 24.2317 25.7747 24.2317 25.7288 24.2317C25.6829 24.2393 25.637 24.2545 25.5987 24.2317C25.5834 24.1173 25.4609 24.3918 25.4532 24.2317C25.415 24.1783 25.3537 24.2088 25.2925 24.2317C25.2312 24.2545 25.193 24.1402 25.1241 24.2317C25.0399 24.4299 25.0399 23.9877 24.948 24.2393C24.8791 24.285 24.8255 24.2698 24.7566 24.2545C24.7031 24.0944 24.6265 24.2469 24.5576 24.2698C24.4887 24.0792 24.4122 24.163 24.3509 24.3003C24.2667 24.041 24.1825 24.0944 24.1366 24.3384C24.0677 24.3537 23.9759 24.2622 23.9146 24.3918C23.8381 24.4223 23.7768 24.4833 23.685 24.4528C23.6467 24.6434 23.5778 24.651 23.4553 24.529C23.4324 24.7349 23.3328 24.6891 23.218 24.6205C23.1032 24.5519 23.1185 24.834 22.9807 24.7273C22.8965 24.7425 22.8353 24.8416 22.7434 24.8493C22.6286 24.8111 22.5061 24.7883 22.5061 24.9865C22.4449 25.0704 22.399 25.1695 22.2688 25.139C22.2918 25.3525 22.1693 25.3296 22.0315 25.2991C22.0009 25.3372 21.9473 25.3449 21.8937 25.3601C21.8478 25.3754 21.8019 25.4059 21.7942 25.4745C21.6947 25.5126 21.6947 25.6651 21.5646 25.6651C21.4498 25.688 21.3273 25.7108 21.3426 25.871C21.3656 26.0311 21.1589 25.9701 21.1359 26.0844C20.9292 26.0311 21.0441 26.2674 20.9369 26.2979C20.891 26.3818 20.7225 26.3742 20.7532 26.519C20.7225 26.6182 20.6996 26.7097 20.5771 26.7402C20.7685 26.9765 20.4164 26.8545 20.4164 26.9613C20.2633 26.9765 20.3398 27.129 20.2709 27.1824C20.2709 27.2815 20.0719 27.2739 20.1331 27.4035C20.0719 27.4645 20.1331 27.5941 20.003 27.6246C20.1025 27.7619 19.8193 27.7237 19.8882 27.8381C19.8576 27.9144 19.8422 27.9906 19.781 28.0516C19.5437 28.0516 19.6968 28.1812 19.6891 28.2575C19.6432 28.3185 19.7657 28.4328 19.5973 28.4557C19.559 28.5167 19.4518 28.5624 19.5207 28.6463C19.536 28.7149 19.1686 28.6997 19.4518 28.8293C19.4901 28.8979 19.1992 28.9056 19.383 29.0047C19.559 29.0962 19.3447 29.1114 19.3294 29.1648C19.3141 29.2182 19.2911 29.2639 19.2758 29.3173C19.1303 29.7519 19.0232 30.0188 18.9007 30.0188C18.7706 30.0188 18.6251 29.6756 18.6175 29.0504C18.6175 28.9894 18.472 28.8979 18.6175 28.8598C18.6328 28.7912 18.5256 28.6997 18.6328 28.6539C18.4414 28.5396 18.6251 28.5015 18.6557 28.4328C18.6634 28.3566 18.7553 28.2956 18.694 28.1965C18.5945 28.0821 18.8012 28.0592 18.7476 27.9525C18.9007 27.9144 18.8854 27.8229 18.8088 27.6932C18.9619 27.6551 18.8471 27.5179 18.893 27.4264C19.1074 27.4111 19.0232 27.2815 18.9926 27.1595C18.9696 27.0375 19.0997 26.9918 19.1074 26.885C19.1916 26.8164 19.1533 26.6792 19.2375 26.6029C19.2145 26.4657 19.2375 26.3513 19.3906 26.3208C19.3906 26.1988 19.4978 26.1302 19.559 26.0387C19.559 25.9015 19.6968 25.8633 19.7504 25.7566C19.7887 25.6346 20.0566 25.7032 19.9647 25.4821C20.0183 25.3754 20.1408 25.3296 20.1944 25.2152C20.2939 25.1466 20.401 25.078 20.447 24.956C20.6766 25.017 20.6766 24.8493 20.7149 24.7044C20.7685 24.5748 20.8833 24.5214 20.9981 24.468C21.0364 24.4223 21.09 24.3841 21.1359 24.346C21.1895 24.3155 21.2431 24.285 21.2967 24.2545C21.3579 24.1325 21.5416 24.1935 21.6029 24.0563C21.6564 23.919 21.8478 24.0105 21.909 23.8885C21.9856 23.7818 22.0698 23.6903 22.2229 23.7361C22.3301 23.6903 22.4985 23.8123 22.5367 23.6064C22.6209 23.5302 22.6439 23.2633 22.8506 23.4997C22.9348 23.4006 23.0955 23.5683 23.1644 23.4158C23.3252 23.5988 23.3635 23.3777 23.4706 23.3624C23.5778 23.3777 23.685 23.4387 23.7692 23.3243C23.8534 23.2023 23.9682 23.3548 24.0524 23.3091C24.1366 23.1795 24.2438 23.4463 24.328 23.3091C24.4198 23.3319 24.504 23.2862 24.5882 23.3243C24.6801 23.0346 24.7566 23.3319 24.8332 23.3624C24.9097 23.4082 25.0093 23.1795 25.0552 23.4082C25.1547 23.2023 25.2083 23.4006 25.2619 23.4616C25.3231 23.5302 25.4073 23.3929 25.4532 23.5226C25.5451 23.3853 25.5528 23.6293 25.6216 23.5912C25.6523 23.6979 25.7288 23.6217 25.7671 23.6598C25.8283 23.6369 25.8666 23.6598 25.8972 23.7361C25.9355 23.7589 25.9738 23.7818 26.0044 23.8047C26.2034 23.9572 26.2876 24.0715 26.257 24.1402L26.2417 24.1325Z" fill="black"/>
<path d="M32.4556 14.2205C32.3714 14.2281 32.2796 13.9689 32.1265 13.5114C32.0958 13.4352 32.0652 13.3589 32.0346 13.2674C31.9963 13.1836 31.9427 13.0997 31.9274 13.0006C31.9657 12.9396 31.9045 12.9015 31.8509 12.8633C31.7896 12.8252 31.7437 12.7871 31.805 12.7032C31.8126 12.5812 31.7361 12.4821 31.6595 12.383C31.6212 12.3296 31.6136 12.2686 31.5983 12.2076C31.583 12.1466 31.56 12.0856 31.4835 12.0475C31.361 12.0323 31.3916 11.9484 31.4069 11.8645C31.4222 11.7806 31.4299 11.6968 31.2844 11.6968C31.1773 11.5976 31.1084 11.468 31.0471 11.3384C31.1007 11.1249 30.8864 11.0792 30.7716 10.9724C30.8328 10.7361 30.672 10.6446 30.4577 10.6064C30.5572 10.3091 30.3965 10.2023 30.1056 10.2481C30.0443 10.1871 29.9984 10.1108 29.9448 10.0422C29.8912 9.9736 29.8224 9.9126 29.7152 9.89735C29.6463 9.84398 29.5697 9.79823 29.4932 9.74486C29.4166 9.69911 29.3478 9.63812 29.2865 9.56187C29.164 9.57712 29.0569 9.56187 28.988 9.5085C28.9497 9.48562 28.9191 9.4475 28.8885 9.40938C28.8578 9.37125 28.8349 9.31788 28.8119 9.26451C28.5516 9.31788 28.4292 9.17301 28.299 8.99002C28.2378 8.89853 28.123 8.89853 28.0235 8.88328C27.9163 8.86803 27.8168 8.86803 27.7555 8.75366C27.6637 8.70791 27.5642 8.68504 27.4647 8.66216C27.4187 8.64691 27.3651 8.63166 27.3192 8.61642C27.2733 8.60117 27.2197 8.58592 27.1738 8.56304C27.0896 8.49442 26.9977 8.4258 26.8982 8.3953C26.7987 8.3648 26.6915 8.35718 26.569 8.4258C26.3547 8.4258 26.1404 8.46392 25.9337 8.34193C25.8189 8.43342 25.7117 8.44867 25.6045 8.43342C25.4974 8.41817 25.3902 8.37243 25.283 8.31143C25.1759 8.3343 25.061 8.31143 24.9539 8.29618C24.9003 8.29618 24.8391 8.29618 24.7855 8.29618C24.7319 8.29618 24.663 8.31905 24.663 8.34955C24.64 8.3343 24.6247 8.35718 24.6247 8.38005C24.6247 8.3953 24.6247 8.40293 24.5558 8.37243C24.5252 8.3648 24.4946 8.37243 24.4869 8.40293C24.4869 8.4258 24.5022 8.47155 24.5635 8.47917C24.5941 8.47917 24.6247 8.54779 24.64 8.59354C24.6553 8.64691 24.6553 8.70029 24.6553 8.76128C24.6553 8.87565 24.6553 8.99002 24.7089 9.08914C24.6477 9.21876 24.7089 9.31788 24.7625 9.417C24.8314 9.5085 24.9156 9.59237 24.9156 9.70674C25.0151 9.89735 24.9922 10.149 25.1835 10.2862C25.2448 10.3701 25.3137 10.454 25.3672 10.5378C25.4208 10.6293 25.4667 10.7208 25.4897 10.8276C25.5816 10.8276 25.6352 10.8581 25.6658 10.8962C25.704 10.9343 25.7194 10.9801 25.727 11.0334C25.75 11.1402 25.75 11.2698 25.8418 11.3308C25.8571 11.4452 25.926 11.5214 26.0026 11.5824C26.0791 11.6434 26.171 11.6968 26.2246 11.7806C26.4006 11.8798 26.4083 12.1542 26.6379 12.1847C26.6686 12.2229 26.7068 12.2534 26.7451 12.2762C26.7834 12.2991 26.8293 12.322 26.8676 12.3449C26.9518 12.3906 27.0207 12.4516 27.059 12.5507C27.1738 12.5507 27.235 12.6193 27.2886 12.7032C27.3422 12.7871 27.4034 12.8633 27.5029 12.871C27.5795 12.9167 27.656 12.9625 27.7326 13.0006C27.8091 13.0463 27.878 13.0921 27.9469 13.1454C28.0005 13.4199 28.2378 13.3284 28.3909 13.3742C28.5363 13.4657 28.7354 13.3742 28.8349 13.5648C28.9803 13.6334 29.0951 13.7707 29.2635 13.7173C29.409 13.7173 29.4779 14.1062 29.6769 13.8393C29.8224 13.8088 29.9142 14.1138 30.075 13.9308C30.1515 13.8469 30.2127 13.8622 30.274 13.9003C30.3352 13.9384 30.3888 13.9918 30.45 13.9994C30.5725 14.0223 30.6873 14.0375 30.8022 14.0452C31.8126 14.1595 32.425 14.0985 32.448 14.2281C32.448 14.2586 32.4173 14.3044 32.3331 14.3501C32.2489 14.3959 32.1188 14.4569 31.9504 14.5103C31.6059 14.617 31.0854 14.7237 30.4041 14.7237C30.3352 14.7237 30.2663 14.7619 30.1898 14.7771C30.1209 14.7924 30.0443 14.7847 29.9831 14.7085C29.8377 14.6932 29.6693 14.7847 29.5238 14.6627C29.3248 14.8457 29.2023 14.6323 29.0416 14.5865C28.8732 14.556 28.7277 14.4416 28.5363 14.4645C28.3297 14.5179 28.2148 14.2891 28.0082 14.2968C27.878 14.1138 27.702 14.0604 27.4723 14.0757C27.4111 13.9765 27.3269 13.9308 27.2274 13.9003C27.1278 13.8698 27.0207 13.8545 26.9365 13.7935C26.8982 13.6563 26.8217 13.5953 26.7221 13.5496C26.6303 13.5038 26.5078 13.4886 26.4006 13.4581C26.2935 13.4276 26.2093 13.3513 26.1327 13.2751C26.0944 13.2369 26.0562 13.1988 26.0102 13.1607C25.972 13.1226 25.926 13.0921 25.8725 13.0616C25.727 12.8938 25.505 12.7947 25.3596 12.6041C25.1376 12.4974 24.9462 12.3372 24.885 12.0856C24.7855 12.017 24.7089 11.9179 24.64 11.8188L24.5405 11.6663C24.5099 11.6129 24.4793 11.5595 24.4487 11.5062C24.3491 11.4223 24.2802 11.3232 24.2267 11.2088C24.1731 11.0944 24.1195 10.9801 24.0583 10.8733C23.8975 10.6674 24.02 10.3396 23.7291 10.1871C23.6679 10.0727 23.6296 9.95073 23.5913 9.82111C23.5607 9.69911 23.5224 9.56949 23.4612 9.45512C23.4382 9.32551 23.4153 9.19589 23.3846 9.06627C23.3693 9.00527 23.354 8.93665 23.3387 8.87565C23.3157 8.80703 23.3004 8.76128 23.2622 8.64691C23.3387 8.41055 23.331 8.21993 23.2851 8.00644C23.2468 7.79295 23.1626 7.54897 23.0938 7.2821C23.2851 7.21348 23.5224 7.16773 23.7521 7.12199C23.9894 7.09149 24.2267 7.06861 24.4487 7.05337C24.5711 7.03049 24.6171 7.03049 24.686 7.02287C24.7548 7.02287 24.8161 7.00762 24.885 7.00762C25.0151 7.00762 25.1529 7.00762 25.283 7.00762C25.4132 6.97712 25.5433 7.00762 25.6734 7.02287C25.8036 7.05337 25.926 7.07624 26.0638 7.04574C26.3317 6.98474 26.5614 7.19823 26.8217 7.16773C27.0819 7.16011 27.3422 7.18298 27.5489 7.35835C27.6101 7.3736 27.6637 7.4041 27.7173 7.4346C27.7709 7.47272 27.8168 7.50322 27.8704 7.54134C27.9775 7.60996 28.0847 7.64809 28.2301 7.60996C28.345 7.64046 28.4904 7.60996 28.6052 7.64046C28.7277 7.67096 28.8272 7.73196 28.8655 7.91495C29.1028 7.9607 29.2023 8.25806 29.4473 8.26568C29.4702 8.34193 29.5008 8.3953 29.5391 8.43342C29.5774 8.47155 29.6233 8.50205 29.6769 8.52492C29.7764 8.57067 29.8989 8.58592 29.9831 8.66216C30.052 8.74603 30.1209 8.8299 30.1974 8.90615C30.274 8.9824 30.3505 9.05102 30.4577 9.08152C30.5725 9.11202 30.6414 9.18826 30.695 9.27976C30.7562 9.37125 30.8022 9.45512 30.8864 9.51612C31.1084 9.58474 31.0318 9.90498 31.2538 9.96598C31.3533 10.1261 31.4988 10.2481 31.5677 10.4158C31.9121 10.4006 31.7667 10.7132 31.8279 10.8657C31.8738 11.0334 32.1647 11.0563 32.0423 11.3079C32.3102 11.346 32.2107 11.5748 32.2107 11.7273C32.2107 11.8111 32.2642 11.8645 32.3025 11.9179C32.3408 11.9789 32.3714 12.0399 32.3408 12.1237C32.5322 12.1924 32.3484 12.3982 32.4403 12.4974C32.4097 12.5736 32.425 12.627 32.4556 12.6803C32.4786 12.7337 32.5092 12.7871 32.5092 12.8405C32.5704 12.9396 32.5934 13.0387 32.5551 13.1531C32.5628 13.2522 32.5704 13.3437 32.5781 13.4276C32.5857 13.6868 32.5781 13.8774 32.5551 14.0147C32.5322 14.1519 32.5015 14.2205 32.4556 14.2205Z" fill="black"/>
<path d="M32.4115 18.6352C32.3349 18.6504 32.2354 18.5361 32.1283 18.2997C32.1129 18.2616 32.09 18.2158 32.0747 18.1701C32.0517 18.1243 32.0211 18.0786 32.0287 18.0252C32.1282 17.9642 31.8221 17.9337 31.9828 17.8575C32.0287 17.7965 31.9752 17.7355 31.9369 17.6745C31.8986 17.6135 31.9981 17.5372 31.8986 17.4762C31.6919 17.4076 32.1282 17.3314 31.8603 17.2551C31.7991 17.1789 31.8221 17.1026 31.8374 17.0188C31.9981 16.9425 31.8374 16.8586 31.8221 16.7671C32.0134 16.6909 31.9445 16.607 31.8221 16.5003C32.09 16.4317 32.0594 16.3402 31.8221 16.2258C31.8221 16.1267 31.9369 16.0504 31.8374 15.9361C31.8374 15.8369 31.7991 15.7302 31.8603 15.6387C31.7072 15.5091 31.7302 15.4023 31.8986 15.3261C31.7302 15.1812 31.8297 15.0897 31.9522 15.0059C32.0823 14.922 31.8374 14.7542 32.0134 14.678C32.0517 14.5713 32.0287 14.4493 32.09 14.3501C32.1895 14.2586 32.312 14.1748 32.1818 14.0147C32.1742 13.8927 32.1436 13.7554 32.2813 13.6715C32.1282 13.4962 32.2507 13.4047 32.3962 13.3284C32.3962 13.1988 32.5799 13.1378 32.5186 12.9853C32.5875 12.8786 32.5186 12.7185 32.6564 12.6422C32.7636 12.5507 32.8555 12.4592 32.8019 12.2991C32.733 12.139 32.9473 12.1009 32.955 11.9636C33.177 11.9331 33.0009 11.7196 33.1157 11.6434C33.1463 11.529 33.3148 11.4757 33.2765 11.3308C33.2994 11.2088 33.3147 11.0944 33.4372 11.0334C33.2305 10.7971 33.6056 10.8733 33.6056 10.7437C33.7664 10.7056 33.6975 10.5454 33.774 10.4692C33.774 10.3472 33.996 10.3472 33.9424 10.2023C34.019 10.1261 33.9654 9.98122 34.1109 9.95072C34.042 9.79061 34.3175 9.84398 34.2793 9.71436C34.3328 9.63049 34.3711 9.54662 34.4477 9.48562C34.685 9.52375 34.5778 9.356 34.6084 9.27213C34.6773 9.21114 34.5931 9.05864 34.7692 9.07389C34.8304 9.01289 34.9605 9.00527 34.9223 8.8909C34.9376 8.80703 35.282 8.94427 35.0754 8.71553C35.0754 8.62404 35.3433 8.73078 35.2208 8.55542C35.106 8.3953 35.3203 8.4563 35.3586 8.41055C35.4045 8.3648 35.4504 8.32668 35.4887 8.28093C35.8715 7.91495 36.147 7.75483 36.2466 7.83108C36.3537 7.91495 36.2236 8.27331 35.9557 8.8299C35.925 8.88328 36.0246 9.02814 35.8715 9.00527C35.8332 9.05864 35.8944 9.18064 35.7796 9.18826C35.9097 9.36363 35.7337 9.3255 35.6801 9.3865C35.6495 9.45512 35.55 9.48562 35.5729 9.59237C35.6342 9.72199 35.4351 9.69149 35.4658 9.81348C35.3127 9.81348 35.2974 9.90498 35.3509 10.0422C35.1978 10.0498 35.282 10.2023 35.2285 10.2786C35.0141 10.2557 35.083 10.4082 35.106 10.5302C35.1213 10.6446 34.9835 10.6827 34.9758 10.7894C34.8916 10.8581 34.9223 10.9801 34.8457 11.0563C34.8763 11.1859 34.8534 11.2927 34.7079 11.3308C34.7079 11.4528 34.6237 11.5214 34.5701 11.6129C34.5931 11.7425 34.463 11.7959 34.4324 11.9026C34.417 12.017 34.1491 12.0094 34.2946 12.2C34.2716 12.3144 34.1644 12.383 34.1568 12.505C34.0879 12.5965 34.0113 12.688 34.019 12.8176C33.7817 12.8405 33.8582 13.0006 33.8889 13.1378C33.8965 13.2674 33.8276 13.3589 33.7587 13.4581C33.7358 13.5724 33.6822 13.6715 33.6363 13.7707C33.6592 13.8927 33.4755 13.9537 33.5214 14.0833C33.5674 14.2129 33.3607 14.2586 33.4143 14.3883C33.4372 14.5103 33.4449 14.617 33.3147 14.6856C33.2841 14.7847 33.0775 14.8381 33.2229 14.983C33.2382 15.0897 33.4525 15.2422 33.1387 15.2727C33.1846 15.3795 32.955 15.4328 33.0621 15.5548C32.8325 15.6082 33.0162 15.7378 32.9932 15.8293C32.932 15.9132 32.8555 15.9894 32.932 16.0962C33.0239 16.1953 32.8478 16.2639 32.8784 16.3478C32.9932 16.4469 32.7024 16.5003 32.8325 16.5918C32.8019 16.668 32.8325 16.7519 32.7866 16.8281C33.0698 16.9196 32.7866 16.9806 32.7559 17.0493C32.71 17.1179 32.9397 17.1941 32.7253 17.2627C32.9473 17.3314 32.7559 17.3924 32.7024 17.461C32.6411 17.5296 32.7942 17.583 32.6794 17.644C32.8325 17.6974 32.6028 17.766 32.6641 17.8117C32.5646 17.8727 32.6641 17.9185 32.6411 17.9718C32.6794 18.0176 32.6717 18.0633 32.6182 18.1167C32.6182 18.1625 32.6028 18.2006 32.6028 18.2463C32.5646 18.4827 32.511 18.6276 32.4344 18.6428L32.4115 18.6352Z" fill="black"/>
<path d="M9.78333 52.5648C9.78333 52.6106 9.33935 52.6258 8.51262 52.7707C8.09926 52.8469 7.59404 52.9613 7.01227 53.1672C6.43816 53.373 5.7875 53.6551 5.11388 54.0821C4.66989 54.3642 4.2106 54.6997 3.76662 55.1114C3.3303 55.5232 2.90163 56.0111 2.49592 56.5449C2.25097 56.7812 2.09787 57.1091 1.95243 57.437C1.81464 57.7648 1.68451 58.1003 1.45486 58.4053C1.11805 59.0686 0.934334 59.8463 0.857786 60.6545C0.819512 61.0587 0.773583 61.4704 0.758273 61.8897C0.750618 62.3091 0.773583 62.7437 0.880751 63.1707C1.04916 63.59 1.07978 64.0246 1.16398 64.4745C1.24818 64.9243 1.37831 65.3818 1.69982 65.7478C2.15911 66.5636 2.69495 67.3718 3.37623 68.0962C3.66711 68.5079 4.05751 68.851 4.48618 69.1331C4.91485 69.4229 5.38945 69.6516 5.86405 69.8727C6.29272 70.193 6.79028 70.4141 7.32612 70.5513C7.85431 70.6886 8.41311 70.7343 8.96426 70.7191C9.23218 70.8106 9.50775 70.8716 9.79864 70.8944C10.0895 70.9249 10.3881 70.9325 10.6866 70.9325C11.2837 70.9249 11.8884 70.8563 12.4931 70.7343C13.7103 70.7267 14.958 70.8258 16.2287 70.7114C17.4994 70.6962 18.8007 70.6428 20.1174 70.6886C21.4416 70.5132 22.7812 70.5208 24.1515 70.6733C25.5217 70.4827 26.9072 70.5589 28.3233 70.6581C29.7395 70.7648 31.1709 70.4903 32.6254 70.6428C34.0798 70.6581 35.5495 70.5971 37.0422 70.6276C38.5349 70.7038 40.0429 70.7877 41.5739 70.6199C43.1048 70.5742 44.6435 70.5132 46.205 70.6123C47.7666 70.4141 49.3435 70.4979 50.9357 70.6123C52.5279 70.5818 54.1278 70.7191 55.7506 70.6123C57.3658 70.6428 58.9963 70.5208 60.6421 70.6123C61.2315 70.6276 61.8209 70.6504 62.4103 70.6733C62.4792 70.6733 62.5634 70.6809 62.64 70.6809C62.6782 70.6809 62.7089 70.6809 62.7471 70.6809H62.7931C62.7931 70.6809 62.839 70.6809 62.8007 70.6581C62.7089 70.5971 62.617 70.5437 62.5405 70.5056L62.4409 70.4674H62.4256V70.4598L62.3644 70.3988C62.2879 70.3302 62.2113 70.254 62.1424 70.1777C61.8439 69.8804 61.5683 69.5677 61.308 69.2399C60.7875 68.5842 60.3206 67.8827 59.8995 67.1584C59.578 66.3806 59.2489 65.6106 59.0116 64.8023C58.7743 64.0018 58.6365 63.1478 58.6977 62.3167C58.713 61.478 58.8815 60.6622 59.1187 59.8845C59.356 59.1067 59.6622 58.3672 59.9684 57.6352C60.6421 56.1941 61.5147 54.8903 62.5481 53.7619C62.594 53.6856 62.6323 53.6094 62.6859 53.5331L62.7548 53.4188L62.7701 53.3883C62.7701 53.3883 62.7548 53.3501 62.7548 53.3425C62.7548 53.3349 62.7701 53.3273 62.8237 53.2968C62.8543 53.2739 62.8543 53.2434 62.8084 53.2129C62.8007 53.2129 62.7778 53.2053 62.7624 53.1977H62.7318C62.7318 53.1977 62.7318 53.19 62.6629 53.19C62.4639 53.19 62.2725 53.19 62.0735 53.19C60.6191 53.068 59.1876 53.2053 57.7715 53.1748C56.3554 53.2282 54.9698 53.0452 53.5996 53.1595C52.2294 53.1367 50.8898 53.251 49.5655 53.1443C48.2412 53.2891 46.9476 53.0223 45.6769 53.1214C44.4061 53.1214 43.1584 53.129 41.9413 53.0985C40.7242 52.8698 39.53 53.0604 38.3665 53.0757C37.2029 53.0528 36.07 53.2053 34.9601 53.0528C33.8501 53.0375 32.7785 52.9384 31.7297 53.0223C30.6887 53.0528 29.6706 52.6944 28.6908 52.9918C27.711 53.0452 26.7618 52.763 25.8432 52.9613C24.9246 53.1443 24.0443 52.9384 23.2023 52.9308C22.3526 52.9155 21.5412 52.9079 20.768 52.9003C17.2851 52.8545 14.5446 52.8012 12.6769 52.7402C10.8091 52.6868 9.80629 52.6258 9.80629 52.5648C9.80629 52.5343 10.1125 52.4962 10.7096 52.4657C11.3066 52.4352 12.1869 52.4047 13.3275 52.3742C15.6163 52.3132 18.9691 52.2598 23.1946 52.2065C24.0366 52.1988 24.9246 52.0387 25.8355 52.176C26.7541 52.176 27.7033 52.054 28.6831 52.1455C29.6629 51.9396 30.681 52.1073 31.7221 52.115C32.7708 52.1073 33.8425 52.1683 34.9524 52.0921C36.0624 51.9701 37.1953 52.1531 38.3588 52.0692C39.5224 52.1988 40.7165 52.1607 41.9336 52.0463C43.1508 52.1683 44.3985 52.0158 45.6692 52.0235C46.9399 52.2141 48.2412 52.0768 49.5579 52.0006C50.8821 51.932 52.2217 52.0311 53.592 51.9853C54.9622 52.0235 56.3477 51.9396 57.7638 51.9701C59.1723 51.8786 60.6114 51.8481 62.0659 51.9548C62.2572 51.9548 62.4563 51.9396 62.6553 51.932C63.0074 51.932 63.3595 51.932 63.7117 51.9243C64.4465 51.9243 65.1967 51.9243 65.9086 51.9243C65.457 52.4047 64.9977 52.885 64.5384 53.373C64.3164 53.6094 64.102 53.8534 63.8954 54.0897L63.6734 54.349L63.5126 54.5396C62.6553 55.7062 61.7444 56.8575 61.109 58.1765C60.8028 58.8399 60.489 59.4956 60.2593 60.1894C60.0373 60.8833 59.9072 61.6152 59.9914 62.3396C59.9837 63.0563 60.0526 63.773 60.221 64.4821C60.3894 65.1836 60.665 65.8774 61.0401 66.5179C61.3846 67.1736 61.8132 67.7988 62.3032 68.3859C62.5481 68.6757 62.8084 68.9654 63.084 69.2323L63.2906 69.4305L63.4361 69.5677L63.6428 69.7584C63.926 70.01 64.2169 70.2616 64.5537 70.5208C65.0436 70.9783 65.5258 71.4053 65.9928 71.8018H65.9086C65.9086 71.8018 65.8397 71.8018 65.8091 71.8018H65.5871L65.1584 71.7941H64.3317C63.7882 71.7941 63.2447 71.7941 62.6859 71.8094H62.4792L62.3108 71.817H62.0735L61.5989 71.8551C61.2774 71.8704 60.9636 71.8856 60.6421 71.9009C58.9963 71.9619 57.3658 71.9314 55.7506 71.9009C54.1355 71.9238 52.5279 71.9085 50.9357 71.9009C49.3435 71.9619 47.7666 71.8094 46.205 71.9009C44.6435 71.9924 43.0972 71.8018 41.5739 71.8933C40.0429 71.9543 38.5349 71.9847 37.0422 71.8856C35.5495 71.8856 34.0798 71.695 32.6254 71.8704C31.1709 71.9085 29.7395 72.1449 28.3233 71.8551C26.9148 71.9314 25.5217 71.7179 24.1515 71.8399C22.7812 71.6264 21.434 71.8323 20.1174 71.8246C18.7931 71.7865 17.4994 71.7103 16.2287 71.8094C14.958 71.9085 13.7103 71.756 12.4931 71.7865C11.8808 71.8475 11.2837 71.8094 10.6866 71.7713C10.3881 71.7484 10.0895 71.7331 9.79864 71.7255C9.49244 71.7255 9.18625 71.7179 8.8724 71.7255C7.65528 71.5883 6.46878 71.2909 5.44303 70.7343C4.85361 70.6047 4.34839 70.2997 3.91207 69.9261C3.47574 69.5601 3.10831 69.1331 2.73322 68.729C2.36579 68.3249 1.9907 67.9361 1.66154 67.5167C1.34004 67.0974 1.06447 66.6323 0.941989 66.1214C0.620486 65.7097 0.429115 65.2293 0.306638 64.7414C0.18416 64.2534 0.145886 63.7654 0.107612 63.285C0.0693379 62.8123 0.015754 62.3472 0.00809921 61.8897C-0.00721046 61.4323 0.0157541 60.9748 0.138231 60.5554C0.122922 60.1132 0.237744 59.6862 0.383186 59.2897C0.528628 58.8933 0.712344 58.5273 0.842476 58.146C1.24818 57.4522 1.55438 56.7584 2.00601 56.1941C2.41172 55.5918 2.89397 55.0962 3.4145 54.7226C3.90441 54.3108 4.39432 53.9754 4.87658 53.7009C5.60378 53.2891 6.29272 53.0223 6.90511 52.8469C7.51749 52.6716 8.04568 52.5877 8.47435 52.5496C9.33169 52.4733 9.78333 52.5496 9.78333 52.5801V52.5648Z" fill="black"/>
</g>
<defs>
<clipPath id="clip0_3267_38656">
<rect width="66" height="65" fill="white" transform="translate(0 7)"/>
</clipPath>
</defs>
</svg>
