<svg width="24" height="24" viewBox="0 0 24 24" fill="none" xmlns="http://www.w3.org/2000/svg">
<path d="M10.2891 22.7143H13.7176" stroke="#F31155" stroke-width="1.5" stroke-linecap="round" stroke-linejoin="round"/>
<path d="M18.856 9.85714C18.856 8.03852 18.1336 6.29437 16.8476 5.00841C15.5617 3.72245 13.8175 3 11.9989 3C10.1803 3 8.43611 3.72245 7.15015 5.00841C5.86419 6.29437 5.14174 8.03852 5.14174 9.85714V15.8571C5.14174 16.5391 4.87082 17.1932 4.38859 17.6754C3.90635 18.1577 3.2523 18.4286 2.57031 18.4286H21.4275C20.7455 18.4286 20.0914 18.1577 19.6092 17.6754C19.1269 17.1932 18.856 16.5391 18.856 15.8571V9.85714Z" stroke="#F31155" stroke-width="1.5" stroke-linecap="round" stroke-linejoin="round"/>
<path d="M0.859375 9.63429C0.860299 8.00253 1.24943 6.39441 1.99464 4.94275C2.73984 3.4911 3.81972 2.23757 5.14509 1.28572" stroke="#F31155" stroke-width="1.5" stroke-linecap="round" stroke-linejoin="round"/>
<path d="M23.1451 9.63429C23.1442 8.00253 22.755 6.39441 22.0098 4.94275C21.2646 3.4911 20.1847 2.23757 18.8594 1.28572" stroke="#F31155" stroke-width="1.5" stroke-linecap="round" stroke-linejoin="round"/>
</svg>
