<svg width="24" height="24" viewBox="0 0 24 24" fill="none" xmlns="http://www.w3.org/2000/svg">
<path d="M15.4247 0.857147V11.1429L21.579 18.9771C21.8788 19.3565 22.0655 19.8127 22.1178 20.2934C22.1701 20.7741 22.0858 21.2597 21.8746 21.6947C21.6634 22.1296 21.3338 22.4962 20.9237 22.7524C20.5136 23.0085 20.0396 23.1439 19.5561 23.1429H4.43612C3.95261 23.1439 3.47861 23.0085 3.06853 22.7524C2.65844 22.4962 2.32888 22.1296 2.11768 21.6947C1.90647 21.2597 1.82217 20.7741 1.87445 20.2934C1.92674 19.8127 2.11348 19.3565 2.41326 18.9771L8.56755 11.1429V0.857147" stroke="white" stroke-width="1.5" stroke-linecap="round" stroke-linejoin="round"/>
<path d="M6 0.857147H18" stroke="white" stroke-width="1.5" stroke-linecap="round" stroke-linejoin="round"/>
</svg>
