<svg width="24" height="24" viewBox="0 0 24 24" fill="none" xmlns="http://www.w3.org/2000/svg">
<g clip-path="url(#clip0_283_18115)">
<path d="M21.4308 5.14287H2.57366C1.62689 5.14287 0.859375 5.91038 0.859375 6.85715V12C0.859375 12.9468 1.62689 13.7143 2.57366 13.7143H21.4308C22.3776 13.7143 23.1451 12.9468 23.1451 12V6.85715C23.1451 5.91038 22.3776 5.14287 21.4308 5.14287Z" stroke="white" stroke-width="1.5" stroke-linecap="round" stroke-linejoin="round"/>
<path d="M21.4353 13.7143V21.4286C21.4353 21.8832 21.2547 22.3193 20.9332 22.6408C20.6117 22.9623 20.1756 23.1429 19.721 23.1429H4.29241C3.83775 23.1429 3.40172 22.9623 3.08023 22.6408C2.75874 22.3193 2.57813 21.8832 2.57812 21.4286V13.7143" stroke="white" stroke-width="1.5" stroke-linecap="round" stroke-linejoin="round"/>
<path d="M12 5.14285V23.1429" stroke="white" stroke-width="1.5" stroke-linecap="round" stroke-linejoin="round"/>
<path d="M17.1451 0.857147L12.0022 5.14286L6.85938 0.857147" stroke="white" stroke-width="1.5" stroke-linecap="round" stroke-linejoin="round"/>
</g>
<defs>
<clipPath id="clip0_283_18115">
<rect width="24" height="24" fill="white"/>
</clipPath>
</defs>
</svg>
