<svg width="24" height="24" viewBox="0 0 24 24" fill="none" xmlns="http://www.w3.org/2000/svg">
<path d="M7.32812 9C7.46182 7.80482 7.87309 6.65745 8.52912 5.6495C9.18515 4.64155 10.0677 3.80094 11.1065 3.19479C12.1452 2.58864 13.3112 2.23374 14.5115 2.15842C15.7118 2.08311 16.913 2.28946 18.0194 2.76102C19.1257 3.23257 20.1064 3.95625 20.8833 4.87429C21.6602 5.79233 22.2117 6.87929 22.4937 8.04838C22.7758 9.21748 22.7806 10.4363 22.5078 11.6076C22.2349 12.7789 21.692 13.8702 20.9224 14.7943" stroke="white" stroke-width="1.5" stroke-linecap="round" stroke-linejoin="round"/>
<path d="M15 6.42859V9.85716H17.5714" stroke="white" stroke-width="1.5" stroke-linecap="round" stroke-linejoin="round"/>
<path d="M1.28125 13.2857H8.13839C8.7012 13.2857 9.2585 13.3966 9.77846 13.612C10.2984 13.8273 10.7709 14.143 11.1688 14.541C11.5668 14.9389 11.8825 15.4114 12.0979 15.9314C12.3133 16.4513 12.4241 17.0086 12.4241 17.5714V17.5714" stroke="white" stroke-width="1.5" stroke-linecap="round" stroke-linejoin="round"/>
<path d="M7.28125 17.5714H15.8527C16.762 17.5714 17.6341 17.9327 18.277 18.5756C18.92 19.2186 19.2813 20.0907 19.2813 21C19.2813 21.2273 19.1909 21.4453 19.0302 21.6061C18.8695 21.7668 18.6514 21.8571 18.4241 21.8571H1.28125" stroke="white" stroke-width="1.5" stroke-linecap="round" stroke-linejoin="round"/>
</svg>
