<svg width="30" height="30" viewBox="0 0 30 30" fill="none" xmlns="http://www.w3.org/2000/svg">
<g clip-path="url(#clip0_1854_27103)">
<path d="M25.7132 16.0715V11.7857C25.7132 11.2174 25.4874 10.6724 25.0855 10.2705C24.6837 9.86865 24.1386 9.64288 23.5703 9.64288H3.21317C2.64485 9.64288 2.0998 9.86865 1.69794 10.2705C1.29608 10.6724 1.07031 11.2174 1.07031 11.7857V26.7857C1.07031 27.3541 1.29608 27.8991 1.69794 28.301C2.0998 28.7028 2.64485 28.9286 3.21317 28.9286H23.5703C24.1386 28.9286 24.6837 28.7028 25.0855 28.301C25.4874 27.8991 25.7132 27.3541 25.7132 26.7857V21.4286" stroke="#5B5B5B" stroke-width="1.5" stroke-linecap="round" stroke-linejoin="round"/>
<path d="M8.22656 4.28573L20.3766 1.1143C20.5131 1.07583 20.656 1.06543 20.7967 1.08371C20.9373 1.10199 21.0728 1.14859 21.195 1.22068C21.3171 1.29278 21.4234 1.38887 21.5074 1.50318C21.5914 1.61748 21.6514 1.74761 21.6837 1.88573L22.2837 4.28573" stroke="#5B5B5B" stroke-width="1.5" stroke-linecap="round" stroke-linejoin="round"/>
<path d="M27.8583 16.0715H22.5011C21.9094 16.0715 21.4297 16.5512 21.4297 17.1429V20.3572C21.4297 20.9489 21.9094 21.4286 22.5011 21.4286H27.8583C28.45 21.4286 28.9297 20.9489 28.9297 20.3572V17.1429C28.9297 16.5512 28.45 16.0715 27.8583 16.0715Z" stroke="#5B5B5B" stroke-width="1.5" stroke-linecap="round" stroke-linejoin="round"/>
</g>
<defs>
<clipPath id="clip0_1854_27103">
<rect width="30" height="30" fill="white"/>
</clipPath>
</defs>
</svg>
