<svg width="24" height="24" viewBox="0 0 24 24" fill="none" xmlns="http://www.w3.org/2000/svg">
<path d="M17 2.75C18.7949 2.75 20.25 4.20507 20.25 6V21.25H3.75V2.75H17Z" stroke="white" stroke-width="1.5"/>
<path d="M11.3812 13.4387C10.6114 14.9966 11.0733 16.0871 9.8416 17.3334C8.302 18.8913 7.5322 17.3334 8.302 16.5545C9.0718 15.7755 11.3812 14.9966 12.9208 14.9966C14.4604 14.9966 16 14.2177 16 14.9966C16 15.7755 15.6544 16.5666 14.4604 15.7755C13.2664 14.9844 11.3812 11.1019 10.6114 9.54401C9.8416 7.98613 11.3812 6.42825 12.151 7.20719C12.9208 7.98613 12.151 11.8808 11.3812 13.4387Z" stroke="white"/>
</svg>
