<svg width="74" height="56" viewBox="0 0 74 56" fill="none" xmlns="http://www.w3.org/2000/svg">
<rect x="9" width="56" height="56" rx="28" fill="#0061EF"/>
<path d="M42 17.75C43.7949 17.75 45.25 19.2051 45.25 21V36.25H28.75V17.75H42Z" stroke="white" stroke-width="1.5"/>
<path d="M36.3812 28.4387C35.6114 29.9966 36.0733 31.0871 34.8416 32.3334C33.302 33.8913 32.5322 32.3334 33.302 31.5545C34.0718 30.7755 36.3812 29.9966 37.9208 29.9966C39.4604 29.9966 41 29.2177 41 29.9966C41 30.7755 40.6544 31.5666 39.4604 30.7755C38.2664 29.9844 36.3812 26.1019 35.6114 24.544C34.8416 22.9861 36.3812 21.4282 37.151 22.2072C37.9208 22.9861 37.151 26.8808 36.3812 28.4387Z" stroke="white"/>
</svg>
