<svg width="1394" height="174" viewBox="0 0 1394 174" fill="none" xmlns="http://www.w3.org/2000/svg">
<g clip-path="url(#clip0_740_18905)">
<path d="M867.806 173.12C858.746 125.96 825.086 90.9399 784.946 90.9399C744.806 90.9399 711.146 125.96 702.086 173.12H867.806Z" fill="white"/>
<path d="M797.64 120.39C796.77 119.13 795.72 118.04 794.46 117.16C793.05 116.17 791.41 115.72 789.85 115.03C788.12 114.27 787.13 113.15 786.64 111.32C786.19 109.66 786.07 107.92 785.64 106.26C783.73 98.87 775.22 96.22 768.68 99.09C765.17 100.63 762.68 103.34 760.55 106.44C759.49 107.98 758.42 109.62 756.84 110.68C755.48 111.58 753.9 112.03 752.35 112.49C749.63 113.29 746.79 114.18 744.93 116.37C744.19 117.16 743.58 118.09 743.13 119.13C741.74 122.33 741.89 125.85 743.18 129.07C743.93 130.93 744.99 132.58 746.33 134.07C747.48 135.33 748.84 136.48 749.69 137.97C751.55 141.22 748.11 144.65 748.09 148C748.07 151.83 751.31 154.83 754.68 156.05C758.3 157.36 761.8 156.45 765.06 154.68C766.62 153.83 768.21 152.78 770 152.48C771.95 152.15 773.57 153.23 775.2 154.14C778.5 155.99 782.3 156.62 785.94 155.39C789.43 154.21 792.16 151.55 793.55 148.15C794.28 146.35 794.51 144.49 794.44 142.56C794.41 141.51 794.32 140.42 794.75 139.43C795.13 138.57 795.76 137.86 796.36 137.16C798.48 134.7 799.85 132.12 800.01 128.82C800.15 125.89 799.3 122.81 797.63 120.38L797.64 120.39Z" fill="#F089D5"/>
<path d="M821.676 101.44C821.146 102.23 820.636 103.03 820.176 103.86C817.286 109.1 815.576 115.57 817.426 121.45C819.026 126.5 823.106 130.62 828.446 131.43C829.866 131.65 831.436 131.67 832.766 132.29C833.956 132.84 834.616 133.94 835.156 135.07C836.226 137.32 836.906 139.72 838.836 141.44C843.206 145.35 849.446 144.69 854.466 142.57C855.366 142.19 856.256 141.77 857.136 141.34C848.576 124.16 836.276 110.26 821.666 101.44H821.676Z" fill="#F089D5"/>
<path d="M849.217 173.12C849.077 172.79 848.947 172.45 848.847 172.1C847.857 168.82 849.137 165.34 848.727 161.99C847.967 155.8 843.457 150.46 837.047 149.88C834.137 149.62 831.297 150.51 829.037 152.35C826.927 154.07 825.417 156.63 823.007 157.95C819.967 159.61 816.227 157.82 813.047 157.59C810.227 157.39 807.387 158.14 804.927 159.5C799.817 162.32 796.777 167.5 796.047 173.11H849.217V173.12Z" fill="#F089D5"/>
<path d="M742.498 173.12C743.118 172.4 743.678 171.63 744.098 170.74C745.448 167.87 745.358 164.51 744.218 161.59C743.058 158.63 740.938 156.29 738.348 154.48C737.028 153.56 735.598 152.82 734.118 152.18C732.568 151.52 730.918 151.1 729.378 150.4C725.548 148.66 726.058 144.59 726.478 141.06C726.948 137.15 726.608 133.58 723.968 130.49C723.008 129.37 721.888 128.51 720.668 127.88C711.838 140.66 705.348 156.09 702.078 173.12H742.488H742.498Z" fill="#F089D5"/>
<path d="M867.806 173.12C858.746 125.96 825.086 90.9399 784.946 90.9399C744.806 90.9399 711.146 125.96 702.086 173.12H867.806Z" stroke="black" stroke-width="0.75" stroke-linecap="round" stroke-linejoin="round"/>
<path d="M731.641 144.25V173.12H838.261V144.25" stroke="black" stroke-width="0.75" stroke-linecap="round" stroke-linejoin="round"/>
<path d="M754.961 102.81C763.501 108.89 773.831 112.45 784.951 112.45C796.071 112.45 806.391 108.89 814.941 102.81" stroke="black" stroke-width="0.75" stroke-linecap="round" stroke-linejoin="round"/>
<path d="M703.737 168.46C704.947 168.61 706.157 168.44 707.267 167.92C707.857 167.64 708.347 167.23 708.887 166.88C709.177 166.69 709.447 166.71 709.237 166.54C709.447 166.7 709.587 167.13 709.737 167.34C711.167 169.4 714.027 169.98 716.247 168.93C717.487 168.34 718.267 167.27 718.737 166.01C719.227 164.7 719.317 163.32 720.217 162.2C721.247 160.93 722.127 159.81 722.297 158.12C722.437 156.62 721.977 155.1 721.067 153.91C720.217 152.81 719.037 152.02 717.717 151.6C716.757 151.29 714.767 151.56 714.147 150.66C713.777 150.13 713.707 149.37 713.497 148.77C713.237 148.05 712.907 147.35 712.357 146.8C711.867 146.32 711.277 146 710.647 145.8C707.497 152.85 704.947 160.39 703.117 168.32C703.327 168.37 703.537 168.42 703.747 168.45L703.737 168.46Z" fill="black"/>
<path d="M782.04 124.23C781.43 123.87 780.761 123.57 780.081 123.35C779.341 123.11 778.421 123.06 777.781 122.59C776.711 121.8 776.321 120.28 775.281 119.41C772.721 117.26 768.811 118.64 766.521 120.51C765.271 121.53 764.27 122.93 763.86 124.49C763.63 125.37 763.621 126.25 763.711 127.15C763.761 127.71 763.791 128.12 763.701 128.51C761.731 129.76 760.581 132.1 760.821 134.48C761.141 137.6 763.54 140.08 766.35 141.23C767.87 141.85 769.631 142.09 771.201 141.46C771.601 141.3 772.28 140.7 772.66 140.7C773.18 140.7 773.92 141.54 774.36 141.81C777.31 143.66 780.781 141.57 781.511 138.4C781.601 138 781.661 137.58 781.691 137.17C781.711 136.92 781.631 136.47 781.761 136.25C782.011 135.78 782.91 135.59 783.35 135.29C784.54 134.49 785.371 133.2 785.681 131.8C786.361 128.7 784.711 125.8 782.061 124.22L782.04 124.23Z" fill="black"/>
<path d="M843.274 173.12C842.604 171.12 841.074 169.47 838.884 168.79C838.174 168.57 837.394 168.47 836.644 168.53C836.194 168.56 835.774 168.67 835.334 168.75C834.884 168.83 834.984 168.91 834.734 168.63C834.364 168.19 834.334 167.15 834.134 166.59C833.874 165.86 833.504 165.19 832.944 164.64C830.184 161.96 826.174 163.67 823.874 165.99C822.784 167.09 821.624 169.13 819.854 168.95C818.134 168.78 816.624 168.38 814.874 168.66C813.174 168.94 811.554 169.73 810.514 171.15C810.074 171.75 809.784 172.42 809.594 173.12H843.274Z" fill="black"/>
<path d="M835.177 119.77C836.067 120.12 836.797 120.43 836.897 121.47C837.047 123.03 836.727 124.44 837.597 125.87C838.257 126.96 839.377 127.82 840.597 128.18C841.207 128.36 841.847 128.42 842.477 128.35C843.207 128.28 843.627 127.99 844.247 128.47C845.217 129.22 845.967 130.03 847.237 130.28C848.347 130.5 849.497 130.28 850.547 129.84C845.317 121.9 839.207 114.92 832.397 109.15C831.057 110.87 830.247 113.11 830.487 115.24C830.797 117.98 832.907 118.89 835.177 119.77Z" fill="black"/>
<path d="M795.961 91.84L795.671 79.58C795.551 74.3 791.171 70.12 785.891 70.25L783.781 70.3C778.501 70.42 774.321 74.8 774.451 80.08L774.721 91.72C767.851 92.76 761.231 94.84 754.961 97.81C763.501 103.89 773.831 107.45 784.951 107.45C796.071 107.45 806.391 103.89 814.941 97.81C808.911 94.95 802.551 92.92 795.961 91.84Z" fill="white" stroke="black" stroke-width="0.75" stroke-linecap="round" stroke-linejoin="round"/>
<path d="M817.778 50.8699C817.488 49.7299 816.728 48.8499 815.768 48.3399C816.918 47.3699 817.488 45.8099 817.088 44.2599C816.878 43.4399 816.428 42.7599 815.838 42.2399C817.408 41.3699 818.258 39.5399 817.788 37.7299C817.488 36.5699 816.708 35.6799 815.718 35.1799C816.908 34.2199 817.498 32.6199 817.088 31.0499C816.758 29.7799 815.848 28.8199 814.718 28.3599C815.148 27.5199 815.288 26.5299 815.038 25.5499C814.608 23.8799 813.178 22.7399 811.558 22.5699C811.628 22.4699 811.708 22.3799 811.778 22.2699C812.888 20.3499 812.228 17.8899 810.308 16.7799C809.218 16.1499 807.958 16.1099 806.868 16.5199C806.968 15.0399 806.258 13.5499 804.878 12.7599C803.568 12.0099 802.028 12.0799 800.818 12.7999C800.618 11.6799 799.958 10.6499 798.888 10.0299C797.228 9.06994 795.168 9.43994 793.928 10.7899C793.588 10.1199 793.058 9.53994 792.358 9.12994C790.538 8.07994 788.238 8.62994 787.058 10.3299C786.618 9.67994 785.978 9.15994 785.188 8.85994C783.248 8.10994 781.098 8.98994 780.178 10.7999C779.748 9.93994 779.018 9.22994 778.048 8.85994C775.978 8.05994 773.648 9.09994 772.848 11.1699C772.808 11.2699 772.798 11.3799 772.768 11.4799C772.058 10.8599 771.148 10.4699 770.128 10.4699C767.908 10.4699 766.108 12.2699 766.108 14.4899C766.108 14.5499 766.128 14.6099 766.128 14.6699C765.768 14.5599 765.388 14.4899 764.998 14.4899C762.778 14.4899 760.978 16.2899 760.978 18.5099C758.758 18.5099 756.958 20.3099 756.958 22.5299C756.958 23.0799 757.068 23.5999 757.268 24.0799C755.318 24.3599 753.818 26.0199 753.818 28.0399C753.818 29.2699 754.378 30.3599 755.258 31.0999C753.888 31.7399 752.938 33.1199 752.938 34.7299C752.938 35.8199 753.378 36.7999 754.078 37.5199C752.578 38.0999 751.508 39.5499 751.508 41.2599C751.508 42.9699 752.608 44.4499 754.138 45.0199C753.408 45.7499 752.948 46.7599 752.948 47.8699C752.948 49.2399 753.638 50.4499 754.688 51.1699C753.638 51.8999 752.948 53.0999 752.948 54.4699C752.948 56.1899 754.028 57.6399 755.548 58.2199C755.148 58.8399 754.918 59.5799 754.918 60.3699C754.918 62.5899 756.718 64.3899 758.938 64.3899C759.128 64.3899 759.308 64.3599 759.488 64.3299C759.148 64.9199 758.938 65.5999 758.938 66.3299C758.938 68.5499 760.738 70.3499 762.958 70.3499C763.448 70.3499 763.918 70.2499 764.358 70.0899C764.328 70.2899 764.298 70.4899 764.298 70.6999C764.298 72.9199 766.098 74.7199 768.318 74.7199C769.708 74.7199 770.928 74.0199 771.658 72.9399C773.938 73.6799 776.368 74.0999 778.908 74.0999H790.558C794.238 74.0999 797.698 73.2299 800.798 71.7099C801.768 72.8399 803.318 73.3999 804.858 72.9999C806.788 72.4999 808.018 70.6699 807.838 68.7399C808.608 69.0399 809.468 69.1299 810.328 68.8999C812.478 68.3399 813.768 66.1499 813.208 63.9999C813.058 63.4299 812.788 62.9199 812.438 62.4899C812.738 62.4899 813.048 62.4499 813.358 62.3699C815.508 61.8099 816.798 59.6199 816.238 57.4699C816.058 56.7599 815.678 56.1599 815.198 55.6699C817.188 55.0099 818.358 52.9199 817.828 50.8599L817.778 50.8699Z" fill="white" stroke="black" stroke-width="0.75" stroke-linecap="round" stroke-linejoin="round"/>
<path d="M751.727 61.2402C751.677 64.9602 754.687 68.0102 758.427 68.0502C762.177 68.1002 765.247 65.1202 765.297 61.4002C765.347 57.6802 762.337 54.6302 758.597 54.5902C754.847 54.5402 751.777 57.5202 751.727 61.2402Z" fill="white" stroke="black" stroke-width="0.75" stroke-miterlimit="10"/>
<path d="M762.269 61.3701C762.299 59.3101 760.639 57.6301 758.559 57.6001" stroke="black" stroke-width="0.5" stroke-linecap="round" stroke-linejoin="round"/>
<path d="M818.398 60.0201C818.578 63.7301 815.688 66.8901 811.948 67.0701C808.208 67.2501 805.028 64.3901 804.848 60.6801C804.668 56.9701 807.558 53.8101 811.298 53.6301C815.038 53.4501 818.218 56.3101 818.398 60.0201Z" fill="white" stroke="black" stroke-width="0.75" stroke-miterlimit="10"/>
<path d="M807.879 60.5401C807.779 58.4901 809.379 56.7401 811.449 56.6401" stroke="black" stroke-width="0.5" stroke-linecap="round" stroke-linejoin="round"/>
<path d="M781.744 24.5646L787.734 24.5154C797.914 24.4319 806.241 32.6239 806.325 42.8035L806.488 62.7029C806.571 72.8825 798.379 81.21 788.2 81.2935L782.21 81.3426C772.03 81.4262 763.703 73.2342 763.619 63.0545L763.456 43.1552C763.372 32.9755 771.564 24.6481 781.744 24.5646Z" fill="white" stroke="black" stroke-width="0.75" stroke-miterlimit="10"/>
<path d="M791.318 65.1101C790.998 67.8401 788.718 69.9701 785.898 69.9901C783.078 70.0101 780.768 67.9201 780.398 65.2001" stroke="black" stroke-width="0.5" stroke-linecap="round" stroke-linejoin="round"/>
<path d="M773.547 52.6202C773.517 53.9902 772.377 55.0802 771.007 55.0402C769.637 55.0102 768.547 53.8702 768.587 52.5002C768.617 51.1302 769.757 50.0402 771.127 50.0802C772.497 50.1102 773.587 51.2502 773.547 52.6202Z" fill="black"/>
<path d="M799.828 52.1402C799.798 53.5102 798.658 54.6002 797.288 54.5602C795.918 54.5302 794.828 53.3902 794.868 52.0202C794.898 50.6502 796.038 49.5602 797.408 49.6002C798.778 49.6302 799.868 50.7702 799.828 52.1402Z" fill="black"/>
<path d="M794.766 46.7201C794.766 46.7201 798.266 45.8701 800.956 47.7601" stroke="black" stroke-linecap="round" stroke-linejoin="round"/>
<path d="M773.416 47.1101C773.416 47.1101 769.886 46.3901 767.266 48.3801" stroke="black" stroke-linecap="round" stroke-linejoin="round"/>
<path d="M787.242 58.3401L782.742 58.4201L784.712 48.5801" stroke="black" stroke-width="0.75" stroke-linecap="round" stroke-linejoin="round"/>
<path d="M809.315 40.7499C809.525 40.2699 809.655 39.7399 809.655 39.1799C809.655 37.8699 808.995 36.7099 807.995 36.0099C807.995 34.7899 807.935 33.5299 807.815 32.3999C807.415 28.5999 802.415 26.3799 798.365 24.0499C794.315 21.7199 786.825 21.4699 778.715 21.9599C770.615 22.4499 762.265 30.9699 762.265 30.9699L761.005 38.1299C759.495 38.6499 758.415 40.0699 758.415 41.7599C758.415 42.8299 758.855 43.7899 759.555 44.4899C758.455 45.1699 757.715 46.3699 757.715 47.7599C757.715 49.8899 759.445 51.6099 761.565 51.6099C763.685 51.6099 765.415 49.8799 765.415 47.7599C765.415 46.6899 764.975 45.7199 764.275 45.0299C765.375 44.3499 766.115 43.1499 766.115 41.7599C766.115 41.2899 766.015 40.8499 765.865 40.4299C766.295 40.5999 766.765 40.6999 767.255 40.6999C769.325 40.6999 771.005 39.0599 771.095 36.9999C771.765 37.5499 772.605 37.8999 773.545 37.8999C775.505 37.8999 777.105 36.4299 777.345 34.5399C778.045 35.4599 779.145 36.0599 780.395 36.0599C781.895 36.0599 783.185 35.1899 783.815 33.9399C784.455 35.1899 785.735 36.0599 787.235 36.0599C788.555 36.0599 789.715 35.3999 790.415 34.3799C790.975 35.8199 792.365 36.8399 793.995 36.8399C794.765 36.8399 795.475 36.6099 796.075 36.2199C796.485 37.9099 797.995 39.1699 799.815 39.1699C800.625 39.1699 801.375 38.9199 802.005 38.4899C801.965 38.7099 801.935 38.9399 801.935 39.1699C801.935 41.1399 803.425 42.7499 805.345 42.9799C805.135 43.4599 805.005 43.9899 805.005 44.5499C805.005 46.6799 806.735 48.3999 808.855 48.3999C810.975 48.3999 812.705 46.6699 812.705 44.5499C812.705 42.5699 811.215 40.9699 809.295 40.7399L809.315 40.7499ZM763.535 38.1399C763.535 38.1399 763.605 38.0999 763.635 38.0799C763.645 38.1099 763.655 38.1499 763.665 38.1799C763.625 38.1599 763.585 38.1599 763.545 38.1399H763.535Z" fill="white"/>
<path d="M761.562 51.6199C763.693 51.6199 765.412 49.89 765.412 47.77C765.412 46.7 764.973 45.73 764.273 45.04C765.373 44.36 766.112 43.16 766.112 41.77C766.112 41.3 766.012 40.8599 765.862 40.4399C766.292 40.6099 766.763 40.7099 767.253 40.7099C769.323 40.7099 771.002 39.0699 771.092 37.0099C771.762 37.5599 772.602 37.91 773.542 37.91C775.502 37.91 777.102 36.4399 777.342 34.5499C778.042 35.4699 779.143 36.07 780.393 36.07C781.893 36.07 783.183 35.2 783.812 33.95C784.452 35.2 785.732 36.07 787.232 36.07C788.552 36.07 789.712 35.4099 790.412 34.3899C790.972 35.8299 792.362 36.8499 793.992 36.8499C794.762 36.8499 795.473 36.6199 796.073 36.2299C796.483 37.92 797.992 39.18 799.812 39.18C800.623 39.18 801.373 38.93 802.003 38.5C801.963 38.72 801.932 38.95 801.932 39.18C801.932 41.15 803.422 42.76 805.342 42.99C805.132 43.47 805.003 44 805.003 44.56C805.003 46.69 806.732 48.41 808.852 48.41" stroke="black" stroke-width="0.75" stroke-linecap="round" stroke-linejoin="round"/>
<path d="M808.015 31.7498C808.195 31.8898 808.365 32.0498 808.515 32.2198C808.555 32.2598 808.585 32.3098 808.625 32.3498C808.625 32.3498 808.665 32.4098 808.645 32.3798C808.665 32.4098 808.685 32.4298 808.705 32.4598C808.775 32.5498 808.835 32.6498 808.895 32.7498C808.955 32.8498 809.005 32.9498 809.055 33.0498C809.065 33.0798 809.075 33.0998 809.095 33.1298C809.095 33.1398 809.125 33.2098 809.115 33.1698C809.135 33.2198 809.155 33.2798 809.175 33.3298C809.255 33.5498 809.315 33.7698 809.355 33.9898C809.355 34.0198 809.365 34.0498 809.375 34.0898C809.375 34.1098 809.375 34.1198 809.375 34.1398C809.375 34.2098 809.385 34.2698 809.395 34.3398C809.395 34.4698 809.395 34.5998 809.395 34.7298C809.395 34.8598 809.515 34.9898 809.645 34.9798C809.785 34.9798 809.885 34.8698 809.895 34.7298C809.945 33.7198 809.585 32.7298 808.955 31.9498C808.785 31.7398 808.585 31.5498 808.375 31.3798C808.275 31.2998 808.125 31.2698 808.025 31.3798C807.945 31.4698 807.915 31.6498 808.025 31.7298L808.015 31.7498Z" fill="black"/>
<path d="M796.056 15.1599C796.246 15.1899 796.436 15.2299 796.616 15.2899C796.706 15.3199 796.796 15.3499 796.886 15.3799C796.906 15.3799 796.926 15.3999 796.946 15.4099C796.906 15.3899 796.976 15.4199 796.946 15.4099C796.946 15.4099 796.966 15.4099 796.976 15.4199C797.026 15.4399 797.066 15.4599 797.116 15.4899C797.286 15.5699 797.446 15.6699 797.606 15.7799C797.646 15.8099 797.676 15.8299 797.716 15.8599C797.716 15.8599 797.786 15.9199 797.746 15.8799C797.766 15.8999 797.786 15.9099 797.806 15.9299C797.876 15.9899 797.946 16.0499 798.016 16.1199C798.096 16.1899 798.166 16.2699 798.236 16.3499C798.266 16.3899 798.306 16.4299 798.336 16.4699C798.336 16.4799 798.356 16.4899 798.356 16.4999C798.356 16.4999 798.396 16.5499 798.376 16.5199C798.386 16.5399 798.396 16.5499 798.406 16.5699C798.486 16.6799 798.626 16.7399 798.746 16.6599C798.846 16.5899 798.916 16.4299 798.836 16.3199C798.336 15.6399 797.646 15.1299 796.846 14.8499C796.626 14.7799 796.406 14.7199 796.186 14.6899C796.116 14.6799 796.056 14.6799 795.996 14.7199C795.946 14.7499 795.896 14.8099 795.886 14.8699C795.856 14.9899 795.926 15.1599 796.056 15.1799V15.1599Z" fill="black"/>
<path d="M798.815 26.51C798.815 26.51 798.895 26.51 798.925 26.51C798.945 26.51 798.965 26.51 798.985 26.51C798.995 26.51 799.045 26.51 798.995 26.51C799.075 26.52 799.145 26.53 799.215 26.55C799.365 26.58 799.505 26.62 799.655 26.68C799.695 26.69 799.725 26.71 799.765 26.72C799.835 26.75 799.735 26.71 799.775 26.72C799.795 26.72 799.805 26.74 799.825 26.74C799.895 26.77 799.965 26.81 800.035 26.85C800.165 26.92 800.295 27 800.425 27.09C800.455 27.11 800.485 27.13 800.505 27.15C800.565 27.19 800.465 27.12 800.525 27.17C800.535 27.17 800.545 27.19 800.565 27.2C800.625 27.25 800.685 27.3 800.745 27.36C800.855 27.46 800.965 27.57 801.065 27.69C801.085 27.72 801.105 27.74 801.135 27.77C801.135 27.77 801.185 27.83 801.155 27.79C801.155 27.8 801.175 27.81 801.185 27.83C801.235 27.89 801.275 27.96 801.325 28.03C801.405 28.16 801.485 28.3 801.555 28.44C801.575 28.47 801.585 28.51 801.605 28.54C801.585 28.49 801.605 28.56 801.605 28.56C801.605 28.58 801.625 28.6 801.625 28.62C801.655 28.7 801.685 28.78 801.705 28.86C801.725 28.94 801.745 29.02 801.765 29.1C801.765 29.14 801.785 29.19 801.785 29.23C801.785 29.25 801.785 29.26 801.785 29.28C801.785 29.31 801.785 29.31 801.785 29.28C801.785 29.3 801.785 29.31 801.785 29.33C801.795 29.46 801.885 29.59 802.035 29.58C802.155 29.58 802.305 29.47 802.285 29.33C802.125 27.95 801.175 26.77 799.905 26.25C799.555 26.11 799.185 26.02 798.805 26C798.675 26 798.545 26.12 798.555 26.25C798.555 26.39 798.665 26.49 798.805 26.5L798.815 26.51Z" fill="black"/>
<path d="M767.125 29.61C767.065 28.86 767.305 28.12 767.735 27.5C768.165 26.88 768.865 26.44 769.595 26.22C769.805 26.16 770.025 26.11 770.225 26.09C770.425 26.07 770.665 26.07 770.845 26.1C770.975 26.12 771.115 26.07 771.155 25.93C771.185 25.81 771.115 25.64 770.985 25.62C770.095 25.47 769.165 25.75 768.405 26.22C768.035 26.45 767.705 26.73 767.435 27.07C767.165 27.41 766.965 27.8 766.825 28.21C766.675 28.65 766.595 29.13 766.635 29.6C766.645 29.73 766.745 29.85 766.885 29.85C767.015 29.85 767.145 29.74 767.135 29.6L767.125 29.61Z" fill="black"/>
<path d="M774.095 16.6599C774.095 16.6099 774.095 16.5599 774.095 16.5099C774.095 16.4899 774.095 16.4699 774.095 16.5199C774.095 16.5199 774.095 16.4899 774.095 16.4799C774.095 16.4599 774.095 16.4299 774.115 16.4099C774.125 16.3599 774.135 16.3099 774.155 16.2599C774.155 16.2399 774.175 16.2099 774.185 16.1899C774.185 16.1899 774.185 16.1599 774.195 16.1499V16.1699C774.195 16.1699 774.195 16.1499 774.195 16.1399C774.235 16.0499 774.285 15.9599 774.345 15.8799C774.355 15.8599 774.375 15.8399 774.385 15.8199C774.355 15.8499 774.405 15.7899 774.385 15.8199C774.385 15.8199 774.405 15.7999 774.405 15.7899C774.435 15.7499 774.475 15.7099 774.515 15.6699C774.545 15.6399 774.585 15.5999 774.615 15.5699C774.635 15.5499 774.655 15.5399 774.675 15.5199C774.675 15.5199 774.685 15.5099 774.695 15.4999C774.655 15.5299 774.745 15.4599 774.695 15.4999C774.785 15.4399 774.875 15.3799 774.975 15.3299C775.025 15.2999 775.075 15.2799 775.125 15.2599C775.075 15.2799 775.135 15.2599 775.155 15.2499C775.185 15.2399 775.215 15.2299 775.245 15.2199C775.355 15.1799 775.465 15.1499 775.585 15.1299C775.615 15.1299 775.645 15.1199 775.675 15.1099C775.685 15.1099 775.705 15.1099 775.715 15.1099C775.715 15.1099 775.785 15.1099 775.745 15.1099C775.765 15.1099 775.785 15.1099 775.805 15.1099C775.835 15.1099 775.865 15.1099 775.905 15.1099C776.035 15.1099 776.165 15.0999 776.305 15.1099C776.445 15.1199 776.565 14.9899 776.555 14.8599C776.555 14.7199 776.445 14.6199 776.305 14.6099C775.775 14.5899 775.245 14.6699 774.775 14.8999C774.345 15.1099 773.965 15.4599 773.755 15.8899C773.635 16.1399 773.565 16.4099 773.555 16.6899C773.555 16.8199 773.675 16.9499 773.805 16.9399C773.935 16.9299 774.055 16.8299 774.055 16.6899L774.095 16.6599Z" fill="black"/>
<path d="M783.665 21.2099C784.285 20.2799 785.525 19.9199 786.535 20.3999C786.825 20.5399 787.085 20.7299 787.305 20.9699C787.395 21.0699 787.565 21.0599 787.655 20.9699C787.755 20.8699 787.745 20.7199 787.655 20.6199C787.205 20.1099 786.565 19.7999 785.895 19.7099C785.225 19.6199 784.575 19.7999 784.035 20.1599C783.715 20.3699 783.445 20.6399 783.235 20.9599C783.165 21.0699 783.215 21.2399 783.325 21.2999C783.445 21.3699 783.595 21.3199 783.665 21.2099Z" fill="black"/>
<path d="M757.956 41.2299C757.606 40.3199 757.676 39.2899 758.146 38.4399C758.286 38.1799 758.426 37.9899 758.626 37.7799C758.716 37.6799 758.726 37.5199 758.626 37.4299C758.526 37.3399 758.366 37.3299 758.276 37.4299C757.516 38.2199 757.136 39.3599 757.256 40.4399C757.286 40.7599 757.356 41.0599 757.476 41.3599C757.526 41.4899 757.646 41.5699 757.786 41.5299C757.906 41.4999 758.006 41.3499 757.956 41.2199V41.2299Z" fill="black"/>
<path d="M814.646 64.6701C814.646 65.5601 813.926 66.2801 813.036 66.2801C812.146 66.2801 811.426 65.5601 811.426 64.6701C811.426 63.7801 812.146 63.0601 813.036 63.0601C813.926 63.0601 814.646 63.7801 814.646 64.6701Z" fill="black"/>
<path d="M813.039 64.98V77.44" stroke="black" stroke-width="0.75" stroke-miterlimit="10"/>
<path d="M820.743 80.3139L813.035 72.6064L805.328 80.3139L813.035 88.0213L820.743 80.3139Z" fill="black"/>
<path d="M816.436 80.3209L813.035 76.9197L809.634 80.3209L813.035 83.722L816.436 80.3209Z" fill="white"/>
<path d="M516.087 172.7C507.027 125.54 473.367 90.52 433.227 90.52C393.087 90.52 359.427 125.54 350.367 172.7H516.087Z" fill="#5A87FE"/>
<path d="M379.918 143.84V172.7H486.538V143.84" stroke="black" stroke-width="0.75" stroke-linecap="round" stroke-linejoin="round"/>
<path d="M350.367 172.7H516.087" stroke="black" stroke-width="0.75" stroke-linecap="round" stroke-linejoin="round"/>
<path d="M390.097 119.42C392.577 122.18 394.957 125.04 397.207 127.99C397.597 128.49 398.457 127.99 398.067 127.49C395.757 124.47 393.337 121.55 390.797 118.72C390.367 118.24 389.657 118.95 390.087 119.43L390.097 119.42Z" fill="white"/>
<path d="M408.433 107.93C410.223 106.11 412.023 104.28 413.813 102.46C414.263 102 413.563 101.29 413.103 101.75C411.313 103.57 409.513 105.4 407.723 107.22C407.273 107.68 407.973 108.39 408.433 107.93Z" fill="white"/>
<path d="M420.478 120.37C422.308 122.77 424.018 125.25 425.618 127.81C425.958 128.35 426.828 127.85 426.478 127.31C424.878 124.75 423.168 122.27 421.338 119.87C421.178 119.65 420.908 119.55 420.658 119.69C420.448 119.81 420.318 120.16 420.478 120.37Z" fill="white"/>
<path d="M437.126 111.04C438.426 108.8 439.726 106.55 441.036 104.31C441.356 103.75 440.495 103.25 440.175 103.81C438.875 106.05 437.575 108.3 436.265 110.54C435.945 111.1 436.806 111.6 437.126 111.04Z" fill="white"/>
<path d="M457.257 101.35C459.117 103.04 460.847 104.87 462.427 106.82C462.597 107.03 462.957 107 463.137 106.82C463.347 106.61 463.307 106.32 463.137 106.11C461.557 104.16 459.827 102.33 457.967 100.64C457.487 100.21 456.787 100.91 457.257 101.35Z" fill="white"/>
<path d="M452.426 115.36C452.266 118.04 452.106 120.72 451.946 123.41C451.906 124.05 452.906 124.05 452.946 123.41C453.106 120.73 453.266 118.05 453.426 115.36C453.466 114.72 452.466 114.72 452.426 115.36Z" fill="white"/>
<path d="M439.267 134.45C440.527 137.39 441.747 140.35 442.927 143.32C443.157 143.91 444.127 143.65 443.887 143.05C442.677 139.99 441.427 136.96 440.127 133.94C439.877 133.35 439.007 133.86 439.267 134.44V134.45Z" fill="white"/>
<path d="M408.525 146.91C409.815 144.23 411.115 141.54 412.405 138.86C412.685 138.28 411.825 137.78 411.545 138.36C410.255 141.04 408.955 143.73 407.665 146.41C407.385 146.99 408.245 147.49 408.525 146.91Z" fill="white"/>
<path d="M386.178 154.41C388.208 156.29 390.238 158.17 392.268 160.05C392.738 160.49 393.448 159.78 392.978 159.34C390.948 157.46 388.918 155.58 386.888 153.7C386.418 153.26 385.708 153.97 386.178 154.41Z" fill="white"/>
<path d="M427.184 156.01C428.174 157.98 429.164 159.94 430.154 161.91C430.444 162.48 431.304 161.98 431.014 161.41C430.024 159.44 429.034 157.48 428.044 155.51C427.754 154.94 426.894 155.44 427.184 156.01Z" fill="white"/>
<path d="M463.727 151.71C465.967 148.3 468.207 144.9 470.437 141.49C470.787 140.95 469.927 140.45 469.577 140.99C467.337 144.4 465.097 147.8 462.867 151.21C462.517 151.75 463.377 152.25 463.727 151.71Z" fill="white"/>
<path d="M453.486 162.67C454.716 164.12 455.956 165.56 457.186 167.01C457.366 167.22 457.716 167.19 457.896 167.01C458.096 166.81 458.076 166.51 457.896 166.3C456.666 164.85 455.426 163.41 454.196 161.96C454.016 161.75 453.666 161.78 453.486 161.96C453.286 162.16 453.306 162.46 453.486 162.67Z" fill="white"/>
<path d="M470.035 123.48C472.995 124.5 475.965 125.53 478.925 126.55C479.535 126.76 479.795 125.79 479.195 125.59C476.235 124.57 473.265 123.54 470.305 122.52C469.695 122.31 469.435 123.28 470.035 123.48Z" fill="white"/>
<path d="M475.554 159.91C477.364 161.21 479.174 162.51 480.984 163.82C481.204 163.98 481.544 163.86 481.664 163.64C481.814 163.39 481.704 163.11 481.484 162.96C479.674 161.66 477.864 160.36 476.054 159.05C475.834 158.89 475.494 159.01 475.374 159.23C475.224 159.48 475.334 159.76 475.554 159.91Z" fill="white"/>
<path d="M405.535 167.59C407.045 165.53 408.475 163.42 409.835 161.26C410.175 160.71 409.315 160.21 408.975 160.76C407.615 162.92 406.185 165.03 404.675 167.09C404.515 167.31 404.635 167.65 404.855 167.77C405.105 167.92 405.375 167.81 405.535 167.59Z" fill="white"/>
<path d="M360.665 163.75C362.465 161.5 364.265 159.25 366.075 157C366.245 156.79 366.275 156.5 366.075 156.29C365.905 156.11 365.535 156.08 365.365 156.29C363.565 158.54 361.765 160.79 359.955 163.04C359.785 163.25 359.755 163.54 359.955 163.75C360.125 163.93 360.495 163.96 360.665 163.75Z" fill="white"/>
<path d="M370.625 133.32C371.515 136.07 372.395 138.81 373.285 141.56C373.485 142.17 374.445 141.91 374.245 141.29C373.355 138.54 372.475 135.8 371.585 133.05C371.385 132.44 370.425 132.7 370.625 133.32Z" fill="white"/>
<path d="M497.974 165.36C499.864 162.69 501.764 160.02 503.654 157.35C504.024 156.82 503.164 156.32 502.794 156.85C500.904 159.52 499.004 162.19 497.114 164.86C496.744 165.39 497.604 165.89 497.974 165.36Z" fill="white"/>
<path d="M494.215 136.22V144.91C494.215 145.55 495.215 145.55 495.215 144.91V136.22C495.215 135.58 494.215 135.58 494.215 136.22Z" fill="white"/>
<path d="M458.552 38.3899C458.552 36.6799 457.912 35.1299 456.862 33.9399C457.462 32.8699 457.812 31.6399 457.812 30.3299C457.812 27.8999 456.632 25.7499 454.812 24.3999C455.032 23.6999 455.152 22.9499 455.152 22.1799C455.152 18.1099 451.852 14.7999 447.772 14.7999C446.852 14.7999 445.982 14.9699 445.172 15.2799C444.332 12.1299 441.462 9.80992 438.052 9.80992C436.382 9.80992 434.842 10.3699 433.612 11.3099C432.362 8.99992 429.922 7.41992 427.112 7.41992C424.672 7.41992 422.522 8.60992 421.172 10.4299C418.942 8.80992 415.652 8.70992 412.912 10.4299C410.302 12.0599 408.952 14.8699 409.252 17.4799C406.722 17.5899 404.272 19.1899 403.092 21.8199C401.942 24.3899 402.322 27.2199 403.842 29.1799C401.652 30.4599 400.172 32.8299 400.172 35.5499C400.172 37.8899 401.262 39.9699 402.952 41.3199C401.592 42.3299 400.702 43.9399 400.702 45.7699C400.702 48.8299 403.182 51.3099 406.242 51.3099C409.302 51.3099 411.782 48.8299 411.782 45.7699C411.782 44.4499 411.322 43.2399 410.552 42.2899C413.132 41.1399 414.932 38.5599 414.932 35.5499C414.932 33.4799 414.082 31.6199 412.712 30.2799C413.742 29.5399 414.612 28.5199 415.172 27.2499C415.812 25.8199 415.972 24.3099 415.732 22.9099C417.142 22.9099 418.602 22.4999 419.932 21.6599C420.682 21.1899 421.312 20.6199 421.842 19.9999C423.182 21.3499 425.032 22.1899 427.092 22.1899C428.762 22.1899 430.302 21.6299 431.532 20.6899C432.782 22.9999 435.222 24.5799 438.032 24.5799C438.952 24.5799 439.822 24.3999 440.632 24.0999C441.072 25.7299 442.052 27.1399 443.372 28.1199C443.152 28.8199 443.032 29.5699 443.032 30.3399C443.032 32.5499 444.002 34.5199 445.542 35.8699C445.222 36.6499 445.042 37.5099 445.042 38.3999C445.042 39.6699 445.402 40.8499 446.002 41.8599C444.752 43.0499 443.982 44.7299 443.982 46.5899C443.982 50.2099 446.922 53.1499 450.542 53.1499C454.162 53.1499 457.102 50.2099 457.102 46.5899C457.102 45.4399 456.802 44.3599 456.282 43.4199C457.662 42.1899 458.532 40.3999 458.532 38.3999L458.552 38.3899Z" fill="black"/>
<path d="M404.154 29.1899C404.154 29.1899 398.074 30.4899 399.264 38.2599" stroke="black" stroke-width="0.75" stroke-linecap="round" stroke-linejoin="round"/>
<path d="M433.613 11.31C433.613 11.31 437.653 6.14999 445.063 10.46" stroke="black" stroke-width="0.75" stroke-linecap="round" stroke-linejoin="round"/>
<path d="M432.882 65.5921L427.873 65.7093C423.396 65.814 419.851 69.5289 419.955 74.0067L420.149 82.2944C420.254 86.7722 423.969 90.3173 428.447 90.2126L433.455 90.0954C437.933 89.9907 441.478 86.2758 441.373 81.798L441.179 73.5102C441.075 69.0324 437.36 65.4874 432.882 65.5921Z" fill="white" stroke="black" stroke-width="0.75" stroke-miterlimit="10"/>
<path d="M397.946 56.0001C397.916 59.5601 400.816 62.4701 404.406 62.5001C407.996 62.5301 410.926 59.6601 410.956 56.1001C410.986 52.5401 408.086 49.6301 404.496 49.6001C400.906 49.5701 397.976 52.4401 397.946 56.0001Z" fill="white" stroke="black" stroke-width="0.75" stroke-miterlimit="10"/>
<path d="M408.047 56.07C408.057 54.1 406.467 52.49 404.477 52.48" stroke="black" stroke-width="0.5" stroke-linecap="round" stroke-linejoin="round"/>
<path d="M461.843 54.51C462.033 58.07 459.283 61.11 455.693 61.3C452.103 61.49 449.043 58.77 448.853 55.21C448.663 51.65 451.413 48.61 455.003 48.42C458.593 48.23 461.653 50.95 461.843 54.51Z" fill="white" stroke="black" stroke-width="0.75" stroke-miterlimit="10"/>
<path d="M451.756 55.05C451.646 53.08 453.176 51.4 455.156 51.29" stroke="black" stroke-width="0.5" stroke-linecap="round" stroke-linejoin="round"/>
<path d="M426.53 20.7157L432.27 20.6395C442.029 20.5101 450.053 28.3243 450.182 38.0835L450.435 57.1518C450.565 66.911 442.751 74.9353 432.991 75.0648L427.252 75.1409C417.493 75.2704 409.468 67.4561 409.339 57.697L409.086 38.6286C408.957 28.8695 416.771 20.8451 426.53 20.7157Z" fill="white" stroke="black" stroke-width="0.75" stroke-miterlimit="10"/>
<path d="M446.754 57.6998C444.884 61.1298 437.334 56.9798 430.634 56.2098C430.094 56.1498 429.704 56.1598 429.084 56.2098C422.364 56.7698 414.834 61.1298 412.964 57.6998C410.964 54.0298 411.224 42.8398 411.224 42.8398H409.164L409.364 57.7098C409.494 67.4298 417.554 75.2798 427.274 75.1498L433.014 75.0698C442.734 74.9398 450.584 66.8798 450.454 57.1598L450.264 42.8398L448.864 40.5898C448.864 40.5898 448.774 54.0298 446.774 57.6898L446.754 57.6998Z" fill="black" stroke="black" stroke-width="0.75" stroke-miterlimit="10"/>
<path d="M435.913 59.5198C435.623 62.1298 433.443 64.1898 430.743 64.2298C428.043 64.2698 425.813 62.2698 425.453 59.6598L435.913 59.5198Z" fill="white" stroke="black" stroke-width="0.75" stroke-linecap="round" stroke-linejoin="round"/>
<path d="M418.825 47.63C418.805 48.94 417.715 49.99 416.405 49.97C415.095 49.95 414.045 48.86 414.075 47.55C414.095 46.24 415.185 45.19 416.495 45.21C417.805 45.23 418.855 46.32 418.835 47.64L418.825 47.63Z" fill="black"/>
<path d="M444.002 47.0399C443.982 48.3499 442.892 49.3999 441.582 49.3799C440.272 49.3599 439.222 48.2699 439.242 46.9599C439.262 45.6499 440.352 44.5999 441.662 44.6199C442.972 44.6399 444.022 45.7299 444.002 47.0399Z" fill="black"/>
<path d="M439.125 41.8698C439.125 41.8698 442.475 41.0398 445.065 42.8398" stroke="black" stroke-width="0.75" stroke-linecap="round" stroke-linejoin="round"/>
<path d="M418.663 42.3498C418.663 42.3498 415.273 41.6798 412.773 43.5998" stroke="black" stroke-width="0.75" stroke-linecap="round" stroke-linejoin="round"/>
<path d="M431.974 53.05L427.664 53.14L429.504 43.71" stroke="black" stroke-width="0.75" stroke-linecap="round" stroke-linejoin="round"/>
<path d="M408.044 44.6199C408.044 44.6199 415.124 42.5499 415.714 36.5199C415.714 36.5199 427.254 38.1999 431.974 29.6799C431.974 29.6799 434.804 35.5399 439.244 34.0799C439.244 34.0799 440.864 38.2099 445.524 38.1499C445.524 38.1499 446.784 43.4499 451.754 42.9199C456.714 42.3899 450.764 22.3499 444.774 19.4199C438.794 16.4899 424.214 13.5599 416.434 19.4199C408.654 25.2799 405.634 35.2899 408.044 44.6199Z" fill="black"/>
<path d="M446.51 78.8499H417.03C413.661 78.8499 410.93 81.5809 410.93 84.9499V90.1799C410.93 93.5488 413.661 96.2799 417.03 96.2799H446.51C449.879 96.2799 452.61 93.5488 452.61 90.1799V84.9499C452.61 81.5809 449.879 78.8499 446.51 78.8499Z" fill="#5A87FE"/>
<path d="M424.617 78.8499H423.867V96.2799H424.617V78.8499Z" fill="white"/>
<path d="M431.73 78.8499H430.98V96.2799H431.73V78.8499Z" fill="white"/>
<path d="M415.18 95.99C415.42 96.07 415.67 96.13 415.93 96.17V78.95C415.67 79 415.42 79.06 415.18 79.13V95.99Z" fill="white"/>
<path d="M439.449 78.8499H438.699L438.469 96.2799H439.219L439.449 78.8499Z" fill="white"/>
<path d="M447.531 78.9399C447.281 78.8999 447.031 78.8699 446.781 78.8599V96.2599C447.031 96.2499 447.281 96.2199 447.531 96.1799V78.9299V78.9399Z" fill="white"/>
<path d="M446.51 78.8499H417.03C413.661 78.8499 410.93 81.5809 410.93 84.9499V90.1799C410.93 93.5488 413.661 96.2799 417.03 96.2799H446.51C449.879 96.2799 452.61 93.5488 452.61 90.1799V84.9499C452.61 81.5809 449.879 78.8499 446.51 78.8499Z" stroke="black" stroke-width="0.75" stroke-linecap="round" stroke-linejoin="round"/>
<path d="M89.6943 15.16C89.6943 15.16 68.8043 9.72003 58.2743 18.01C47.7443 26.31 50.0643 44.43 54.7643 53.29C54.7643 53.29 42.9643 91.4 43.3943 107.29C43.8243 123.18 89.6843 119.92 89.6843 119.92C89.6843 119.92 117.454 119.38 121.144 117.7C124.834 116.02 115.284 62.52 109.854 53.29C109.854 53.29 115.474 40.89 113.864 28.82C112.244 16.75 98.4843 10.86 89.6943 15.15V15.16Z" fill="black"/>
<path d="M110.434 56.8601C110.434 56.8601 125.504 80.0201 123.264 110.23" stroke="black" stroke-width="0.75" stroke-miterlimit="10"/>
<path d="M166.093 172.7C157.033 125.54 123.373 90.52 83.2328 90.52C43.0928 90.52 9.43281 125.55 0.382812 172.7H166.103H166.093Z" fill="#59CC57"/>
<path d="M72.4734 86.3799H93.8534C93.5934 86.3399 93.3234 86.2899 93.0634 86.2499C93.2834 85.4799 93.3934 84.6699 93.3734 83.8199L93.1834 75.5399C93.0834 71.0599 89.3634 67.5099 84.8834 67.6199L79.8834 67.7399C75.4034 67.8399 71.8534 71.5599 71.9634 76.0399L72.1534 84.3199C72.1734 85.0399 72.2834 85.7199 72.4734 86.3799Z" fill="white" stroke="black" stroke-width="0.75" stroke-linecap="round" stroke-linejoin="round"/>
<path d="M49.9534 58.0001C49.9234 61.5601 52.8234 64.4701 56.4134 64.5001C60.0034 64.5301 62.9334 61.6601 62.9634 58.1001C62.9934 54.5401 60.0934 51.6301 56.5034 51.6001C52.9134 51.5701 49.9834 54.4401 49.9534 58.0001Z" fill="white" stroke="black" stroke-width="0.75" stroke-miterlimit="10"/>
<path d="M60.0544 58.07C60.0644 56.1 58.4744 54.49 56.4844 54.48" stroke="black" stroke-width="0.5" stroke-linecap="round" stroke-linejoin="round"/>
<path d="M113.851 56.51C114.041 60.07 111.291 63.11 107.701 63.3C104.111 63.49 101.051 60.77 100.861 57.21C100.671 53.65 103.421 50.61 107.011 50.42C110.601 50.23 113.661 52.95 113.851 56.51Z" fill="white" stroke="black" stroke-width="0.75" stroke-miterlimit="10"/>
<path d="M103.763 57.05C103.653 55.08 105.183 53.4 107.163 53.29" stroke="black" stroke-width="0.5" stroke-linecap="round" stroke-linejoin="round"/>
<path d="M78.5456 22.7316L84.2851 22.6554C94.0443 22.526 102.069 30.3402 102.198 40.0994L102.451 59.1677C102.58 68.9268 94.7662 76.9512 85.0071 77.0806L79.2676 77.1568C69.5085 77.2862 61.4841 69.472 61.3546 59.7128L61.1017 40.6445C60.9722 30.8854 68.7865 22.861 78.5456 22.7316Z" fill="white" stroke="black" stroke-width="0.75" stroke-miterlimit="10"/>
<path d="M87.9248 61.5203C87.6348 64.1303 85.4548 66.1903 82.7548 66.2303C80.0548 66.2703 77.8248 64.2703 77.4648 61.6603L87.9248 61.5203Z" stroke="black" stroke-width="0.5" stroke-linecap="round" stroke-linejoin="round"/>
<path d="M70.8345 49.6302C70.8145 50.9402 69.7245 51.9902 68.4145 51.9702C67.1045 51.9502 66.0545 50.8602 66.0745 49.5502C66.0945 48.2402 67.1845 47.1902 68.4945 47.2102C69.8045 47.2302 70.8545 48.3202 70.8345 49.6402V49.6302Z" fill="black"/>
<path d="M96.0142 49.0402C95.9942 50.3502 94.9042 51.4002 93.5942 51.3802C92.2842 51.3602 91.2342 50.2702 91.2542 48.9602C91.2742 47.6502 92.3642 46.6002 93.6742 46.6202C94.9842 46.6402 96.0342 47.7302 96.0142 49.0402Z" fill="black"/>
<path d="M91.1328 43.8702C91.1328 43.8702 94.4828 43.0402 97.0728 44.8402" stroke="black" stroke-width="0.75" stroke-linecap="round" stroke-linejoin="round"/>
<path d="M70.6752 44.3503C70.6752 44.3503 67.2852 43.6803 64.7852 45.6003" stroke="black" stroke-width="0.75" stroke-linecap="round" stroke-linejoin="round"/>
<path d="M83.9858 55.0502L79.6758 55.1402L81.5158 45.7102" stroke="black" stroke-width="0.75" stroke-linecap="round" stroke-linejoin="round"/>
<path d="M55.4433 47.5401C55.4433 47.5401 84.7133 47.0101 89.5733 29.7801C89.5733 29.7801 94.0133 41.3401 103.963 46.4101C103.963 46.4101 106.693 35.9501 102.623 28.5101C98.5633 21.0801 94.0933 18.8201 82.5333 19.3401C70.9733 19.8501 50.7833 26.7001 55.4333 47.5401H55.4433Z" fill="black"/>
<path d="M71.9531 46.62C71.9531 46.62 87.4031 44.96 89.5731 29.78" stroke="black" stroke-width="0.75" stroke-linecap="round" stroke-linejoin="round"/>
<path d="M31.3809 152.5C23.8309 149.23 15.4409 148.76 7.32094 149.15C7.11094 149.66 6.91094 150.16 6.71094 150.67C14.1109 150.24 21.7409 150.54 28.7609 153.06C36.2009 155.73 42.0809 161.14 47.0009 167.17C48.4609 168.96 49.8609 170.81 51.2109 172.69H53.0309C51.8009 170.95 50.5309 169.25 49.2209 167.57C44.4009 161.4 38.6709 155.65 31.3809 152.49V152.5Z" fill="white"/>
<path d="M81.9216 92.26C82.2116 97.37 83.1116 102.57 85.5616 107.11C87.6016 110.88 90.7916 114.19 94.7516 115.91C99.1316 117.81 103.952 117.38 108.292 115.61C114.482 113.09 119.552 108.6 124.252 103.8C123.832 103.51 123.392 103.22 122.962 102.94C120.442 105.46 117.842 107.87 114.972 110.01C110.962 113 106.202 115.61 101.082 115.69C96.4216 115.77 92.2616 113.42 89.2816 109.94C84.7816 104.68 83.4016 97.56 83.2216 90.53C82.7616 90.53 82.3116 90.56 81.8516 90.57C81.8716 91.14 81.8716 91.7 81.9016 92.27L81.9216 92.26Z" fill="white"/>
<path d="M113.991 158.03C119.251 155.62 125.481 154.31 130.881 157.03C131.501 157.34 132.121 157.72 132.721 158.15C132.461 158.45 132.191 158.74 131.951 159.05C130.351 161.12 129.311 163.85 130.711 166.3C131.851 168.29 134.421 169.46 136.411 167.9C138.111 166.56 138.201 163.98 137.591 162.07C137.081 160.46 136.131 159.09 134.931 157.97C136.381 156.49 137.981 155.13 139.591 153.85C143.791 150.53 148.511 147.81 153.481 145.79C154.681 145.3 155.891 144.87 157.121 144.47C156.911 144.01 156.701 143.55 156.481 143.09C155.581 143.39 154.681 143.71 153.801 144.06C148.311 146.2 143.161 149.13 138.541 152.79C136.901 154.09 135.241 155.49 133.761 157.02C131.171 155.14 127.811 154.14 124.811 154.03C118.161 153.77 111.821 157.12 106.341 160.54C101.311 163.68 96.6411 167.41 92.4511 171.61C92.0811 171.98 91.7311 172.36 91.3711 172.74H93.3211C99.3111 166.65 106.291 161.6 114.001 158.07L113.991 158.03ZM133.871 159.09C134.891 160.04 135.721 161.16 136.141 162.46C136.721 164.25 136.231 168.29 133.371 166.89C130.101 165.29 131.931 161.31 133.641 159.34C133.711 159.26 133.801 159.18 133.871 159.09Z" fill="white"/>
<path d="M20.6992 125.02C24.6292 127.58 28.8792 129.63 33.4292 130.85C40.8592 132.84 48.7792 132.26 55.6192 128.63C56.1792 128.33 56.7292 128 57.2692 127.67C60.6992 140.8 74.7692 149.93 88.2392 149.12C96.8092 148.6 104.509 144.31 111.249 139.27C118.569 133.79 125.179 127.44 132.519 121.98C134.769 120.31 137.069 118.72 139.429 117.24C139.079 116.86 138.729 116.48 138.379 116.1C132.839 119.64 127.659 123.74 122.639 127.96C116.329 133.26 110.189 138.91 102.959 142.95C96.0692 146.79 88.2692 148.73 80.4592 147.01C73.3392 145.44 66.7192 141.25 62.4992 135.27C60.7492 132.79 59.3692 129.86 58.6092 126.79C60.4992 125.43 62.2092 123.82 63.6192 121.97C65.6492 119.31 68.2192 114.94 66.9592 111.5C66.4092 110 64.9792 108.72 63.3192 108.75C61.5092 108.77 60.2692 110.38 59.3392 111.74C57.2092 114.87 56.3592 118.73 56.4992 122.47C56.5492 123.72 56.6992 124.94 56.9292 126.14C51.8292 129.51 45.4892 130.97 39.4292 130.43C33.0292 129.86 26.9792 127.32 21.5992 123.84C21.2992 124.24 20.9992 124.64 20.6992 125.04V125.02ZM59.6192 114.19C60.3392 112.75 61.9492 109.65 63.9492 110.33C66.4792 111.18 65.7592 114.49 65.0692 116.33C63.8492 119.57 61.6592 122.39 59.0092 124.59C58.7692 124.79 58.5092 124.98 58.2592 125.18C57.6092 121.45 57.9192 117.62 59.6192 114.2V114.19Z" fill="white"/>
<path d="M96.722 82.8901H69.462C67.1811 82.8901 65.332 84.7392 65.332 87.0201V93.8601C65.332 96.1411 67.1811 97.9901 69.462 97.9901H96.722C99.003 97.9901 100.852 96.1411 100.852 93.8601V87.0201C100.852 84.7392 99.003 82.8901 96.722 82.8901Z" fill="white" stroke="black" stroke-width="0.75" stroke-linecap="round" stroke-linejoin="round"/>
<path d="M0.382812 172.7H166.093" stroke="black" stroke-width="0.75" stroke-linecap="round" stroke-linejoin="round"/>
<path d="M29.9219 143.84V172.7H136.542V143.84" stroke="black" stroke-width="0.75" stroke-linecap="round" stroke-linejoin="round"/>
<path d="M691.087 172.7C682.027 125.54 648.367 90.52 608.227 90.52C568.087 90.52 534.427 125.54 525.367 172.7H691.087Z" fill="white"/>
<path d="M592.386 120.11H584.586V127.91H592.386V120.11Z" fill="#F089D5"/>
<path d="M569.847 142.76H562.047V150.56H569.847V142.76Z" fill="#F089D5"/>
<path d="M612.909 142.45H605.109V150.25H612.909V142.45Z" fill="#F089D5"/>
<path d="M592.386 157.11H584.586V164.91H592.386V157.11Z" fill="#F089D5"/>
<path d="M640.894 154.37H633.094V162.17H640.894V154.37Z" fill="#F089D5"/>
<path d="M658.534 134.71H650.734V142.51H658.534V134.71Z" fill="#F089D5"/>
<path d="M674.659 153.19H666.859V160.99H674.659V153.19Z" fill="#F089D5"/>
<path d="M549.816 157.09H542.016V164.89H549.816V157.09Z" fill="#F089D5"/>
<path d="M560.878 119.51H553.078V127.31H560.878V119.51Z" fill="#F089D5"/>
<path d="M636.995 122.17H629.195V129.97H636.995V122.17Z" fill="#F089D5"/>
<path d="M616.808 109.13H609.008V116.93H616.808V109.13Z" fill="#F089D5"/>
<path d="M577.648 99.6199H573.908C572.538 100.38 571.178 101.17 569.848 102.02V107.42H577.648V99.6199Z" fill="#F089D5"/>
<path d="M542.017 143.31V135.51H538.907C537.477 138.03 536.127 140.63 534.867 143.31H542.027H542.017Z" fill="#F089D5"/>
<path d="M530.227 168.8H526.187C525.897 170.09 525.617 171.39 525.367 172.7H530.227V168.8Z" fill="#F089D5"/>
<path d="M568.675 170.1H560.875V172.71H568.675V170.1Z" fill="#F089D5"/>
<path d="M625.378 167.34H617.578V172.7H625.378V167.34Z" fill="#F089D5"/>
<path d="M658.534 166.2H650.734V172.71H658.534V166.2Z" fill="#F089D5"/>
<path d="M686.355 167.34H678.555V172.7H686.355V167.34Z" fill="#F089D5"/>
<path d="M676.346 133.44H674.656V141.24H680.586C679.256 138.56 677.846 135.96 676.346 133.44Z" fill="#F089D5"/>
<path d="M665.441 118.39C664.141 116.91 662.821 115.46 661.451 114.08H657.641V121.88H665.441V118.39Z" fill="#F089D5"/>
<path d="M644.089 100.49C642.709 99.6799 641.319 98.9099 639.899 98.1899H636.289V105.99H644.089V100.49Z" fill="#F089D5"/>
<path d="M554.918 143.84V172.7H661.538V143.84" stroke="black" stroke-width="0.75" stroke-linecap="round" stroke-linejoin="round"/>
<path d="M691.087 172.7C682.027 125.54 648.367 90.52 608.227 90.52C568.087 90.52 534.427 125.54 525.367 172.7H691.087Z" stroke="black" stroke-width="0.75" stroke-linecap="round" stroke-linejoin="round"/>
<path d="M633.916 60.82C634.056 72.2 624.286 81.65 612.206 81.82L605.066 81.92C592.976 82.09 582.976 72.91 582.836 61.53L582.556 39.2C582.416 27.82 592.186 18.37 604.266 18.2L611.406 18.1C623.496 17.93 633.496 27.11 633.636 38.49L633.916 60.82Z" fill="white" stroke="black" stroke-width="0.75" stroke-miterlimit="10"/>
<path d="M609.008 103.73C618.96 103.73 627.028 99.723 627.028 94.7801C627.028 89.8371 618.96 85.8301 609.008 85.8301C599.056 85.8301 590.988 89.8371 590.988 94.7801C590.988 99.723 599.056 103.73 609.008 103.73Z" fill="#F089D5"/>
<path d="M611.202 73.5801L606.194 73.6973C601.716 73.8021 598.171 77.5169 598.276 81.9947L598.469 90.2825C598.574 94.7603 602.289 98.3054 606.767 98.2006L611.776 98.0834C616.253 97.9787 619.798 94.2638 619.694 89.786L619.5 81.4983C619.395 77.0205 615.68 73.4754 611.202 73.5801Z" fill="white" stroke="black" stroke-width="0.75" stroke-miterlimit="10"/>
<path d="M576.278 64.0003C576.248 67.5603 579.148 70.4703 582.738 70.5003C586.328 70.5303 589.258 67.6603 589.288 64.1003C589.318 60.5403 586.418 57.6303 582.828 57.6003C579.238 57.5703 576.308 60.4403 576.278 64.0003Z" fill="white" stroke="black" stroke-width="0.75" stroke-miterlimit="10"/>
<path d="M586.375 64.0702C586.385 62.1002 584.795 60.4902 582.805 60.4802" stroke="black" stroke-width="0.5" stroke-linecap="round" stroke-linejoin="round"/>
<path d="M640.179 62.5103C640.369 66.0703 637.619 69.1103 634.029 69.3003C630.439 69.4903 627.379 66.7703 627.189 63.2103C626.999 59.6503 629.749 56.6103 633.339 56.4203C636.929 56.2303 639.989 58.9503 640.179 62.5103Z" fill="white" stroke="black" stroke-width="0.75" stroke-miterlimit="10"/>
<path d="M630.088 63.0503C629.978 61.0803 631.508 59.4003 633.488 59.2903" stroke="black" stroke-width="0.5" stroke-linecap="round" stroke-linejoin="round"/>
<path d="M604.866 28.7098L610.605 28.6337C620.365 28.5042 628.389 36.3185 628.518 46.0776L628.771 65.1459C628.901 74.9051 621.087 82.9294 611.327 83.0589L605.588 83.135C595.829 83.2645 587.804 75.4502 587.675 65.6911L587.422 46.6228C587.293 36.8636 595.107 28.8393 604.866 28.7098Z" fill="white" stroke="black" stroke-width="0.75" stroke-miterlimit="10"/>
<path d="M614.249 67.5203C613.959 70.1303 611.779 72.1903 609.079 72.2303C606.379 72.2703 604.149 70.2703 603.789 67.6603L614.249 67.5203Z" stroke="black" stroke-width="0.5" stroke-linecap="round" stroke-linejoin="round"/>
<path d="M597.151 55.6302C597.131 56.9402 596.041 57.9902 594.731 57.9702C593.421 57.9502 592.371 56.8602 592.391 55.5502C592.411 54.2402 593.501 53.1902 594.811 53.2102C596.121 53.2302 597.171 54.3202 597.151 55.6402V55.6302Z" fill="black"/>
<path d="M622.338 55.0402C622.318 56.3502 621.228 57.4002 619.918 57.3802C618.608 57.3602 617.558 56.2702 617.578 54.9602C617.598 53.6502 618.688 52.6002 619.998 52.6202C621.308 52.6402 622.358 53.7302 622.338 55.0402Z" fill="black"/>
<path d="M617.461 49.8702C617.461 49.8702 620.811 49.0402 623.401 50.8402" stroke="black" stroke-width="0.75" stroke-linecap="round" stroke-linejoin="round"/>
<path d="M596.999 50.3503C596.999 50.3503 593.609 49.6803 591.109 51.6003" stroke="black" stroke-width="0.75" stroke-linecap="round" stroke-linejoin="round"/>
<path d="M610.312 61.0502L605.992 61.1402L607.842 51.7102" stroke="black" stroke-width="0.75" stroke-linecap="round" stroke-linejoin="round"/>
<path d="M636.947 42.4701C636.767 28.8701 625.497 17.8901 611.897 18.0701L603.867 18.1801C590.267 18.3601 579.287 29.6301 579.467 43.2301L579.527 47.6201L602.237 46.8501L608.387 36.3701L607.257 46.8501L613.717 46.8301L616.107 36.3701L618.697 46.2701H636.997L636.947 42.4701Z" fill="white" stroke="black" stroke-width="0.75" stroke-miterlimit="10"/>
<path d="M630.487 21.2301C630.487 21.2301 637.177 3.64006 652.977 1.68006C668.777 -0.269938 681.157 15.6901 681.157 15.6901L673.337 29.3701L668.937 27.5801L671.377 33.0701L665.997 42.2401C665.997 42.2401 653.437 10.4801 630.477 21.2301H630.487Z" fill="white" stroke="black" stroke-width="0.75" stroke-linecap="round" stroke-linejoin="round"/>
<path d="M629.386 21.5201C629.386 21.5201 619.756 6.12011 627.676 4.82011C635.596 3.52011 630.076 21.4501 630.076 21.4501C630.076 21.4501 647.046 20.0301 645.316 26.1701C643.846 31.3801 633.186 27.2201 629.376 21.5101L629.386 21.5201Z" stroke="black" stroke-linecap="round" stroke-linejoin="round"/>
<path d="M629.385 21.5201L615.945 12.0901" stroke="black" stroke-linecap="round" stroke-linejoin="round"/>
<path d="M982.648 94.82L975.978 83.71C975.378 82.24 972.568 81.5 970.978 81.57H948.618C947.028 81.49 944.168 84.01 943.558 85.49L937.228 94.83C907.558 105.16 884.358 135.21 877.078 173.13H1042.8C1035.52 135.21 1012.32 105.16 982.648 94.83V94.82Z" fill="white"/>
<path d="M983.658 95.1899C976.778 98.1299 968.508 99.8499 959.608 99.8499C950.708 99.8499 942.698 98.1799 935.888 95.3199C906.868 106.09 884.268 135.78 877.098 173.11H1042.82C1035.62 135.62 1012.86 105.83 983.668 95.1799L983.658 95.1899Z" fill="#F6CB4E"/>
<path d="M906.641 144.25V173.12H1013.26V144.25" stroke="black" stroke-width="0.75" stroke-linecap="round" stroke-linejoin="round"/>
<path d="M959.599 103.85C970.529 103.85 980.509 101.25 988.139 96.98C986.339 96.18 984.509 95.46 982.649 94.81L975.979 83.7C974.459 81.42 970.509 81.35 968.919 81.42H950.079C948.489 81.36 945.629 82.02 944.219 84.52L937.239 94.82C935.259 95.51 933.299 96.3 931.379 97.16C938.959 101.33 948.819 103.85 959.599 103.85Z" stroke="black" stroke-width="0.75" stroke-linecap="round" stroke-linejoin="round"/>
<path d="M983.658 95.1899C976.778 98.1299 968.508 99.8499 959.608 99.8499C950.708 99.8499 942.698 98.1799 935.888 95.3199C906.868 106.09 884.268 135.78 877.098 173.11H1042.82C1035.62 135.62 1012.86 105.83 983.668 95.1799L983.658 95.1899Z" stroke="black" stroke-width="0.75" stroke-linecap="round" stroke-linejoin="round"/>
<path d="M982.646 94.82L975.976 83.71C974.456 81.43 970.506 81.36 968.916 81.43H950.076C948.486 81.37 945.626 82.03 944.216 84.53L937.236 94.83C907.566 105.16 884.366 135.21 877.086 173.13H1042.81C1035.53 135.21 1012.33 105.16 982.656 94.83L982.646 94.82Z" stroke="black" stroke-width="0.75" stroke-linecap="round" stroke-linejoin="round"/>
<path d="M961.601 70.9766L956.592 71.0938C952.114 71.1985 948.569 74.9134 948.674 79.3912L948.868 87.679C948.973 92.1568 952.688 95.7018 957.165 95.5971L962.174 95.4799C966.652 95.3752 970.197 91.6603 970.092 87.1825L969.898 78.8948C969.793 74.417 966.079 70.8719 961.601 70.9766Z" fill="white" stroke="black" stroke-width="0.75" stroke-miterlimit="10"/>
<path d="M956.4 78.29C956.4 78.29 945.36 77.75 939.79 73.25C934.22 68.75 927.25 52.33 930.99 39.27C934.73 26.21 955.16 25.2 964.32 25.97C973.47 26.74 987.87 34.67 987.87 34.67C987.87 34.67 988.72 72.73 972.1 77.03C955.48 81.33 956.41 78.29 956.41 78.29H956.4Z" fill="black"/>
<path d="M925.678 58.7998C925.478 62.5098 928.358 65.6799 932.098 65.8699C935.838 66.0698 939.028 63.2198 939.228 59.5098C939.428 55.7998 936.548 52.6298 932.808 52.4398C929.068 52.2398 925.878 55.0898 925.688 58.7998H925.678Z" fill="white" stroke="black" stroke-width="0.75" stroke-miterlimit="10"/>
<path d="M936.191 59.3499C936.301 57.2999 934.711 55.5499 932.641 55.4399" stroke="black" stroke-width="0.5" stroke-linecap="round" stroke-linejoin="round"/>
<path d="M992.299 60.2698C992.329 63.9798 989.319 67.0198 985.579 67.0498C981.839 67.0798 978.769 64.0998 978.739 60.3798C978.709 56.6698 981.719 53.6298 985.459 53.5998C989.199 53.5698 992.269 56.5498 992.299 60.2698Z" fill="white" stroke="black" stroke-width="0.75" stroke-miterlimit="10"/>
<path d="M981.766 60.3599C981.746 58.3099 983.416 56.6299 985.486 56.6099" stroke="black" stroke-width="0.5" stroke-linecap="round" stroke-linejoin="round"/>
<path d="M937.486 61.1177L938.127 41.2481C938.456 31.0834 946.978 23.0943 957.143 23.4226L963.13 23.616C973.294 23.9443 981.283 32.4667 980.955 42.6314L980.313 62.501C979.985 72.6657 971.463 80.6548 961.298 80.3264L955.311 80.1331C945.146 79.8047 937.157 71.2824 937.486 61.1177Z" fill="white" stroke="black" stroke-width="0.75" stroke-miterlimit="10"/>
<path d="M965.047 64.2602C964.617 66.9702 962.247 69.0102 959.437 68.9202C956.627 68.8302 954.397 66.6402 954.137 63.9102L965.037 64.2602H965.047Z" stroke="black" stroke-width="0.5" stroke-linecap="round" stroke-linejoin="round"/>
<path d="M947.817 51.07C947.727 52.44 946.547 53.47 945.177 53.39C943.807 53.3 942.767 52.12 942.857 50.75C942.947 49.38 944.127 48.34 945.497 48.43C946.867 48.52 947.907 49.7 947.817 51.07Z" fill="black"/>
<path d="M974.075 51.6498C973.985 53.0198 972.805 54.0598 971.435 53.9698C970.065 53.8798 969.025 52.6998 969.115 51.3298C969.205 49.9598 970.385 48.9198 971.755 49.0098C973.125 49.0998 974.165 50.2798 974.075 51.6498Z" fill="black"/>
<path d="M969.234 46.04C969.234 46.04 972.764 45.34 975.374 47.33" stroke="black" stroke-width="0.75" stroke-linecap="round" stroke-linejoin="round"/>
<path d="M947.897 45.5601C947.897 45.5601 944.397 44.7001 941.707 46.5801" stroke="black" stroke-width="0.75" stroke-linecap="round" stroke-linejoin="round"/>
<path d="M961.258 57.33L956.758 57.23L959.128 47.49" stroke="black" stroke-width="0.75" stroke-linecap="round" stroke-linejoin="round"/>
<path d="M991.957 31.26C990.597 20.37 981.277 11.64 972.307 11.24C966.807 11 966.447 12.82 966.257 12.33C965.817 11.19 965.047 9.96996 959.597 9.02996C952.987 7.89996 933.777 8.80996 927.987 22.91C922.197 37 929.927 52.26 929.927 52.26L937.297 52.67L938.527 45.77C938.527 45.77 947.807 41.55 954.607 36.22C951.197 39.19 945.987 43.77 945.987 43.77C945.987 43.77 949.737 43.77 955.677 39.62C957.277 38.5 961.947 34.98 961.947 34.98C961.947 34.98 959.537 38.49 956.757 41.17C954.457 43.4 951.627 44.89 952.177 44.79C959.367 43.44 966.907 40.35 967.957 33.37C968.027 32.9 966.287 44.25 975.717 47.72C975.717 47.72 973.637 42.22 975.047 38.1C975.047 38.1 974.757 46.42 980.857 48.84L981.457 55.45L986.167 52.58C986.167 52.58 993.777 45.97 991.937 31.27L991.957 31.26Z" fill="black"/>
<path d="M966.258 12.3299C966.258 12.3299 972.528 6.54995 984.568 11.8699" stroke="black" stroke-width="0.75" stroke-linecap="round" stroke-linejoin="round"/>
<path d="M955.125 48.95C955.105 54.85 950.515 59.61 944.885 59.59C939.255 59.57 934.705 54.77 934.735 48.87C934.755 42.97 939.345 38.21 944.975 38.23C950.605 38.25 955.155 43.05 955.125 48.95Z" stroke="#5A87FE" stroke-width="0.75" stroke-miterlimit="10"/>
<path d="M984.566 49.0602C984.546 54.9602 979.956 59.7202 974.326 59.7002C968.696 59.6802 964.146 54.8802 964.176 48.9802C964.196 43.0802 968.786 38.3202 974.416 38.3402C980.046 38.3602 984.596 43.1602 984.566 49.0602Z" stroke="#5A87FE" stroke-width="0.75" stroke-miterlimit="10"/>
<path d="M954.555 52.1001C955.665 51.5701 957.335 50.9801 959.275 50.9901C961.555 50.9901 963.465 51.6901 964.655 52.2601" stroke="#5A87FE" stroke-width="0.75" stroke-miterlimit="10"/>
<path d="M974.128 86.79C971.358 89.37 966.348 91.1 960.628 91.1C954.318 91.1 948.878 89 946.348 85.97L942.258 97.01L951.318 105.97L960.628 96.85L972.478 105.97L977.728 97.04L974.128 86.79Z" fill="white"/>
<path d="M951.317 105.97L951.367 105.93L951.297 105.88L951.317 105.97Z" fill="#59CC57"/>
<path d="M974.128 86.79C971.358 89.37 966.348 91.1 960.628 91.1C954.318 91.1 948.878 89 946.348 85.97" stroke="black" stroke-width="0.75" stroke-linecap="round" stroke-linejoin="round"/>
<path d="M978.198 96.8499L972.478 105.97L960.628 96.8499L951.318 105.97L942.258 97.0099" stroke="black" stroke-width="0.75" stroke-linecap="round" stroke-linejoin="round"/>
<path d="M1155.62 94.15C1155.55 90.73 1152.76 87.98 1149.32 87.98H1120.59C1117.15 87.98 1114.36 90.73 1114.29 94.15C1083.64 103.79 1059.55 134.34 1052.1 173.12H1217.82C1210.37 134.34 1186.28 103.78 1155.63 94.15H1155.62Z" fill="white"/>
<path d="M1161.22 173.12H1217.8C1210.81 136.74 1189.17 107.59 1161.22 96.1702V173.12Z" fill="#F089D5"/>
<path d="M1108.98 96.0601C1080.88 107.4 1059.11 136.61 1052.09 173.12H1108.98V96.0601Z" fill="#F089D5"/>
<path d="M1081.64 144.25V173.12H1188.26V144.25" stroke="black" stroke-width="0.75" stroke-linecap="round" stroke-linejoin="round"/>
<path d="M1052.09 173.12H1217.81" stroke="black" stroke-width="0.75" stroke-linecap="round" stroke-linejoin="round"/>
<path d="M1108.98 125.05V173.12" stroke="black" stroke-width="0.75" stroke-linecap="round" stroke-linejoin="round"/>
<path d="M1161.22 124.62V173.12" stroke="black" stroke-width="0.75" stroke-linecap="round" stroke-linejoin="round"/>
<path d="M1084.17 111.62C1084.17 111.62 1110.25 132.93 1139.63 128.55C1169.01 124.18 1186.75 118.01 1188.25 114.59C1189.75 111.17 1175.36 98.85 1175.36 98.85C1175.36 98.85 1164.73 91.03 1159.31 90.02L1158.49 83.4C1158.49 83.4 1163.68 76.91 1165.87 70.21C1168.06 63.51 1167.34 42.68 1165.16 36.33C1162.97 29.98 1155.21 24.43 1148.79 20.06C1142.37 15.69 1128.02 13.91 1116.95 21.7C1105.88 29.49 1102.19 39.64 1102.6 48.25C1103.01 56.86 1103.62 64.2 1104.75 71.03C1105.88 77.86 1112.58 84.03 1112.58 84.03L1113.13 88.65C1113.13 88.65 1107.53 93.62 1107.12 95.47C1107.12 95.47 1086.67 103.28 1084.18 111.62H1084.17Z" fill="#59CC57"/>
<path d="M1118.97 85.17C1118.97 85.17 1136.86 90.37 1151.62 84.04" stroke="black" stroke-width="0.75" stroke-linecap="round" stroke-linejoin="round"/>
<path d="M1114.05 90.78C1114.05 90.78 1136.14 99.16 1156.18 87.79" stroke="black" stroke-width="0.75" stroke-linecap="round" stroke-linejoin="round"/>
<path d="M1114.05 98.3599C1114.05 98.3599 1134.44 106.53 1155.15 94.6599" stroke="black" stroke-width="0.75" stroke-linecap="round" stroke-linejoin="round"/>
<path d="M1110.08 43.0299C1110.08 43.0299 1111.64 31.0599 1117.78 24.6799" stroke="black" stroke-width="0.75" stroke-linecap="round" stroke-linejoin="round"/>
<path d="M1149.95 26.6799C1149.95 26.6799 1155.26 35.5699 1154.96 44.2299" stroke="black" stroke-width="0.75" stroke-linecap="round" stroke-linejoin="round"/>
<path d="M1104.77 109.31C1104.77 109.31 1127.6 117.92 1146.25 113.82" stroke="black" stroke-width="0.75" stroke-linecap="round" stroke-linejoin="round"/>
<path d="M1097.38 110.54C1097.38 110.54 1140.45 137.1 1173.08 102.89" stroke="black" stroke-width="0.75" stroke-linecap="round" stroke-linejoin="round"/>
<path d="M1114.27 46.5813L1114.08 65.5604C1113.98 75.2801 1121.78 83.2392 1131.5 83.3376L1137.21 83.3954C1146.93 83.4938 1154.89 75.6942 1154.98 65.9745L1155.18 46.9955C1155.28 37.2758 1147.48 29.3166 1137.76 29.2182L1132.05 29.1604C1122.33 29.062 1114.37 36.8616 1114.27 46.5813Z" fill="white" stroke="black" stroke-width="0.75" stroke-miterlimit="10"/>
<path d="M1114.27 46.5813L1114.08 65.5604C1113.98 75.2801 1121.78 83.2392 1131.5 83.3376L1137.21 83.3954C1146.93 83.4938 1154.89 75.6942 1154.98 65.9745L1155.18 46.9955C1155.28 37.2758 1147.48 29.3166 1137.76 29.2182L1132.05 29.1604C1122.33 29.062 1114.37 36.8616 1114.27 46.5813Z" stroke="black" stroke-width="0.75" stroke-miterlimit="10"/>
<path d="M1140.45 67.9899C1140.1 70.5899 1137.88 72.5799 1135.2 72.5499C1132.51 72.5199 1130.34 70.4799 1130.04 67.8799" stroke="black" stroke-width="0.5" stroke-linecap="round" stroke-linejoin="round"/>
<path d="M1123.71 55.7599C1123.65 57.0699 1122.55 58.0799 1121.24 58.0299C1119.93 57.9699 1118.92 56.8699 1118.97 55.5599C1119.03 54.2499 1120.13 53.2399 1121.44 53.2899C1122.75 53.3499 1123.76 54.4499 1123.71 55.7599Z" fill="black"/>
<path d="M1148.79 55.7599C1148.74 57.0699 1147.63 58.0799 1146.32 58.0299C1145.01 57.9699 1144 56.8699 1144.05 55.5599C1144.11 54.2499 1145.21 53.2399 1146.52 53.2899C1147.83 53.3499 1148.84 54.4499 1148.79 55.7599Z" fill="black"/>
<path d="M1144.05 50.5C1144.05 50.5 1147.41 49.75 1149.94 51.6" stroke="black" stroke-width="0.75" stroke-linecap="round" stroke-linejoin="round"/>
<path d="M1123.68 50.5C1123.68 50.5 1120.32 49.75 1117.79 51.6" stroke="black" stroke-width="0.75" stroke-linecap="round" stroke-linejoin="round"/>
<path d="M1136.68 61.4501H1132.38L1134.44 52.1001" stroke="black" stroke-width="0.75" stroke-linecap="round" stroke-linejoin="round"/>
<path d="M1137.73 29.2199L1132.02 29.1599C1122.34 29.0599 1114.34 36.8999 1114.25 46.5799V46.7799C1121.32 41.1499 1137.24 32.3699 1155.14 48.2499V46.9899C1155.25 37.3099 1147.41 29.3099 1137.73 29.2199Z" fill="white" stroke="black" stroke-width="0.75" stroke-miterlimit="10"/>
<path d="M1120.68 37.6698C1120.68 37.6698 1131.01 32.0498 1146.23 37.0998" stroke="black" stroke-width="0.75" stroke-linecap="round" stroke-linejoin="round"/>
<path d="M1306.99 25.7701C1306.99 25.7701 1299.52 24.9501 1299.28 20.8801C1299.04 16.8101 1303.87 18.1901 1307.21 18.2701C1310.55 18.3501 1313.32 16.4401 1314.54 17.0701C1315.76 17.7001 1317.13 19.9301 1315.58 21.9601C1314.03 24.0001 1306.99 25.7601 1306.99 25.7601V25.7701Z" fill="#F6CB4E"/>
<path d="M1309.28 17.15C1309.28 17.15 1299.28 18.38 1297.54 10.35C1295.81 2.32 1304.83 0 1304.83 0C1304.83 0 1300.49 4.45 1302.5 9.09C1302.5 9.09 1302.63 0.02 1312.33 0.95C1322.04 1.88 1321.78 14.7 1309.28 17.14V17.15Z" fill="black"/>
<path d="M1303.3 15.94C1303.3 15.94 1291.04 12.97 1296.84 3.19995" stroke="black" stroke-width="0.75" stroke-linecap="round" stroke-linejoin="round"/>
<path d="M1333.09 54.95C1333.19 64.05 1323.84 71.64 1312.31 71.81L1305.51 71.91C1293.99 72.09 1284.48 64.79 1284.38 55.69L1284.19 37.84C1284.09 28.74 1293.44 21.15 1304.97 20.98L1311.77 20.88C1323.29 20.7 1332.8 28 1332.9 37.1L1333.09 54.95Z" fill="black"/>
<path d="M1311.73 71.7384L1306.72 71.8555C1302.24 71.9603 1298.69 75.6751 1298.8 80.1529L1298.99 88.4407C1299.1 92.9185 1302.81 96.4636 1307.29 96.3588L1312.3 96.2417C1316.78 96.1369 1320.32 92.422 1320.22 87.9442L1320.02 79.6565C1319.92 75.1787 1316.2 71.6336 1311.73 71.7384Z" fill="white" stroke="black" stroke-width="0.75" stroke-miterlimit="10"/>
<path d="M1276.8 62.2C1276.77 65.76 1279.67 68.67 1283.26 68.7C1286.85 68.73 1289.78 65.86 1289.81 62.3C1289.84 58.74 1286.94 55.83 1283.35 55.8C1279.76 55.77 1276.83 58.64 1276.8 62.2Z" fill="white" stroke="black" stroke-width="0.75" stroke-miterlimit="10"/>
<path d="M1286.9 62.2799C1286.91 60.3099 1285.32 58.6999 1283.33 58.6899" stroke="black" stroke-width="0.5" stroke-linecap="round" stroke-linejoin="round"/>
<path d="M1340.69 60.71C1340.88 64.27 1338.13 67.31 1334.54 67.5C1330.95 67.69 1327.89 64.97 1327.7 61.41C1327.51 57.85 1330.26 54.81 1333.85 54.62C1337.44 54.43 1340.5 57.15 1340.69 60.71Z" fill="white" stroke="black" stroke-width="0.75" stroke-miterlimit="10"/>
<path d="M1330.61 61.26C1330.5 59.29 1332.03 57.61 1334.01 57.5" stroke="black" stroke-width="0.5" stroke-linecap="round" stroke-linejoin="round"/>
<path d="M1305.39 26.8981L1311.13 26.8219C1320.89 26.6925 1328.91 34.5067 1329.04 44.2659L1329.29 63.3342C1329.42 73.0933 1321.61 81.1177 1311.85 81.2471L1306.11 81.3233C1296.35 81.4527 1288.33 73.6385 1288.2 63.8793L1287.95 44.811C1287.82 35.0519 1295.63 27.0275 1305.39 26.8981Z" fill="white" stroke="black" stroke-width="0.75" stroke-miterlimit="10"/>
<path d="M1325.61 63.9C1323.74 67.33 1316.19 63.18 1309.49 62.41C1308.95 62.35 1308.56 62.36 1307.94 62.41C1301.22 62.97 1293.69 67.33 1291.82 63.9C1289.82 60.23 1290.08 49.04 1290.08 49.04H1288.02L1288.22 63.91C1288.35 73.63 1296.41 81.48 1306.13 81.35L1311.87 81.27C1321.59 81.14 1329.44 73.08 1329.31 63.36L1329.12 49.04L1327.72 46.79C1327.72 46.79 1327.63 60.23 1325.63 63.89L1325.61 63.9Z" fill="black" stroke="black" stroke-width="0.75" stroke-miterlimit="10"/>
<path d="M1314.76 65.72C1314.47 68.33 1312.29 70.39 1309.59 70.43C1306.89 70.47 1304.66 68.47 1304.3 65.86L1314.76 65.72Z" fill="white" stroke="black" stroke-width="0.75" stroke-linecap="round" stroke-linejoin="round"/>
<path d="M1297.67 53.8302C1297.65 55.1402 1296.56 56.1902 1295.25 56.1602C1293.94 56.1402 1292.89 55.0502 1292.91 53.7402C1292.93 52.4302 1294.02 51.3802 1295.33 51.4002C1296.64 51.4202 1297.69 52.5102 1297.67 53.8302Z" fill="black"/>
<path d="M1322.85 53.2501C1322.83 54.5601 1321.74 55.6101 1320.43 55.5901C1319.12 55.5701 1318.07 54.4801 1318.09 53.1701C1318.11 51.8601 1319.2 50.8101 1320.51 50.8301C1321.82 50.8501 1322.87 51.9401 1322.84 53.2501H1322.85Z" fill="black"/>
<path d="M1317.98 48.08C1317.98 48.08 1321.33 47.25 1323.92 49.05" stroke="black" stroke-width="2" stroke-linecap="round" stroke-linejoin="round"/>
<path d="M1297.52 48.5499C1297.52 48.5499 1294.12 47.8799 1291.62 49.7899" stroke="black" stroke-width="2" stroke-linecap="round" stroke-linejoin="round"/>
<path d="M1310.84 59.2502L1306.52 59.3502L1308.36 49.9102" stroke="black" stroke-width="0.75" stroke-linecap="round" stroke-linejoin="round"/>
<path d="M1392.81 173.12C1383.75 125.96 1350.09 90.9399 1309.95 90.9399C1269.81 90.9399 1236.15 125.96 1227.09 173.12H1392.81Z" fill="white"/>
<path d="M1256.64 144.25V173.12H1363.26V144.25" stroke="black" stroke-width="0.75" stroke-linecap="round" stroke-linejoin="round"/>
<path d="M1271.68 133.04C1270.45 133.95 1268.7 133.69 1267.79 132.46L1261.72 124.26C1260.81 123.03 1261.07 121.28 1262.3 120.37C1263.53 119.46 1265.28 119.72 1266.19 120.95L1272.26 129.15C1273.17 130.38 1272.91 132.13 1271.68 133.04Z" fill="#5A87FE"/>
<path d="M1277.12 154.7C1278.03 155.93 1277.77 157.68 1276.54 158.59L1268.34 164.66C1267.11 165.57 1265.36 165.32 1264.45 164.08C1263.54 162.85 1263.8 161.1 1265.03 160.19L1273.23 154.12C1274.46 153.21 1276.21 153.46 1277.12 154.7Z" fill="#5A87FE"/>
<path d="M1328.34 143.78C1329.52 144.76 1329.68 146.52 1328.69 147.7L1322.15 155.53C1321.17 156.71 1319.41 156.87 1318.23 155.88C1317.05 154.9 1316.89 153.14 1317.88 151.96L1324.42 144.13C1325.4 142.95 1327.16 142.79 1328.34 143.78Z" fill="#5A87FE"/>
<path d="M1344.63 138.35C1345.78 137.33 1347.54 137.44 1348.56 138.59L1355.32 146.23C1356.34 147.38 1356.23 149.14 1355.08 150.16C1353.93 151.18 1352.17 151.07 1351.15 149.92L1344.39 142.28C1343.37 141.13 1343.48 139.37 1344.63 138.35Z" fill="#5A87FE"/>
<path d="M1340.04 124.48C1339.13 123.25 1339.39 121.5 1340.62 120.59L1348.82 114.52C1350.05 113.61 1351.8 113.87 1352.71 115.1C1353.62 116.33 1353.36 118.08 1352.13 118.99L1343.93 125.06C1342.7 125.97 1340.95 125.72 1340.04 124.48Z" fill="#5A87FE"/>
<path d="M1380.61 152.92C1381.33 154.28 1380.81 155.96 1379.45 156.68L1370.43 161.44C1369.07 162.16 1367.39 161.64 1366.67 160.28C1365.95 158.92 1366.47 157.24 1367.83 156.52L1376.85 151.76C1378.21 151.04 1379.89 151.56 1380.61 152.92Z" fill="#5A87FE"/>
<path d="M1286.73 118.93C1285.36 118.24 1284.8 116.57 1285.49 115.2L1290.05 106.07C1290.74 104.7 1292.41 104.14 1293.78 104.83C1295.15 105.52 1295.71 107.19 1295.02 108.56L1290.46 117.69C1289.77 119.06 1288.1 119.62 1286.73 118.93Z" fill="#5A87FE"/>
<path d="M1297.64 151.02C1296.66 152.2 1294.9 152.36 1293.72 151.37L1285.89 144.83C1284.71 143.85 1284.55 142.09 1285.54 140.91C1286.52 139.73 1288.28 139.57 1289.46 140.56L1297.29 147.1C1298.47 148.08 1298.63 149.84 1297.64 151.02Z" fill="#5A87FE"/>
<path d="M1302.91 134.66C1301.82 133.57 1301.82 131.81 1302.91 130.73L1310.12 123.52C1311.21 122.43 1312.97 122.43 1314.05 123.52C1315.14 124.61 1315.14 126.37 1314.05 127.45L1306.84 134.66C1305.75 135.75 1303.99 135.75 1302.91 134.66Z" fill="#5A87FE"/>
<path d="M1315.77 106.36C1316.46 104.99 1318.13 104.43 1319.5 105.12L1328.63 109.68C1330 110.37 1330.56 112.04 1329.87 113.41C1329.18 114.78 1327.51 115.34 1326.14 114.65L1317.01 110.09C1315.64 109.4 1315.08 107.73 1315.77 106.36Z" fill="#5A87FE"/>
<path d="M1370.79 132.61L1377.9 133.59C1376.63 131.47 1375.29 129.42 1373.89 127.42L1371.54 127.1C1370.02 126.89 1368.61 127.96 1368.41 129.48C1368.2 131 1369.27 132.41 1370.79 132.61Z" fill="#5A87FE"/>
<path d="M1340.52 102.88L1344.32 100.07C1342.5 99.0598 1340.65 98.1098 1338.77 97.2598L1337.21 98.4098C1335.98 99.3198 1335.72 101.07 1336.63 102.3C1337.54 103.53 1339.29 103.79 1340.52 102.88Z" fill="#5A87FE"/>
<path d="M1388.37 167.31C1387.65 165.95 1385.97 165.43 1384.61 166.15C1383.25 166.87 1382.73 168.55 1383.45 169.91L1385.15 173.12H1391.44L1388.38 167.31H1388.37Z" fill="#5A87FE"/>
<path d="M1341.5 173.12L1346.22 167.47C1347.2 166.29 1347.05 164.54 1345.87 163.55C1344.69 162.57 1342.94 162.72 1341.95 163.9L1335.41 171.73C1335.07 172.14 1334.87 172.62 1334.8 173.12H1341.5Z" fill="#5A87FE"/>
<path d="M1308.03 171.58L1301.27 163.94C1300.25 162.79 1298.49 162.68 1297.34 163.7C1296.19 164.72 1296.08 166.48 1297.1 167.63L1301.96 173.13H1308.7C1308.64 172.58 1308.42 172.04 1308.02 171.59L1308.03 171.58Z" fill="#5A87FE"/>
<path d="M1246.7 173.12L1249 166.86C1249.53 165.42 1248.79 163.82 1247.35 163.29C1245.91 162.76 1244.31 163.5 1243.78 164.94L1240.77 173.12H1246.7Z" fill="#5A87FE"/>
<path d="M1271.86 107.71C1273.04 108.69 1274.79 108.54 1275.78 107.36C1276.76 106.18 1276.61 104.43 1275.43 103.44L1273.11 101.5C1271.46 102.5 1269.83 103.55 1268.24 104.68L1271.87 107.71H1271.86Z" fill="#5A87FE"/>
<path d="M1243.18 149.02C1244.55 149.71 1246.23 149.15 1246.91 147.78C1247.6 146.41 1247.04 144.73 1245.67 144.05L1238.25 140.34C1237.41 141.98 1236.62 143.66 1235.85 145.36L1243.18 149.03V149.02Z" fill="#5A87FE"/>
<path d="M1392.81 173.12C1383.75 125.96 1350.09 90.9399 1309.95 90.9399C1269.81 90.9399 1236.15 125.96 1227.09 173.12H1392.81Z" stroke="black" stroke-width="0.75" stroke-linecap="round" stroke-linejoin="round"/>
<path d="M1322.49 83.9399H1296.39C1293.74 83.9399 1291.59 86.089 1291.59 88.7399V91.8899C1291.59 94.5409 1293.74 96.6899 1296.39 96.6899H1322.49C1325.14 96.6899 1327.29 94.5409 1327.29 91.8899V88.7399C1327.29 86.089 1325.14 83.9399 1322.49 83.9399Z" fill="#5A87FE"/>
<path d="M1324.69 26.68C1320.25 23.57 1315.93 22.19 1312.48 21.6C1312.44 21.48 1305.17 21.48 1305.13 21.6C1301.68 22.18 1297.36 23.57 1292.92 26.68C1282.88 33.7 1286.31 53.79 1286.31 53.79L1290.06 50.82C1290.06 50.82 1290.92 32.61 1299.39 32.61C1301.7 32.61 1305.48 35.1 1306.77 35.45C1307.96 35.77 1309.59 35.71 1310.84 35.45C1312.15 35.18 1315.92 32.61 1318.22 32.61C1326.69 32.61 1327.55 50.82 1327.55 50.82L1331.3 53.79C1331.3 53.79 1334.73 33.7 1324.69 26.68Z" fill="black"/>
<path d="M341.087 172.7C332.027 125.54 298.367 90.52 258.227 90.52C218.087 90.52 184.427 125.54 175.367 172.7H341.087Z" fill="white"/>
<path d="M209.859 109.54H306.609C305.319 108.41 304.009 107.32 302.669 106.28H213.799C212.459 107.32 211.149 108.41 209.859 109.54Z" fill="#F6CB4E"/>
<path d="M199.398 120.28H317.058C316.138 119.17 315.198 118.08 314.238 117.02H202.218C201.258 118.08 200.318 119.17 199.398 120.28Z" fill="#F6CB4E"/>
<path d="M226.447 98.26H290.017C287.597 97.03 285.117 95.95 282.587 95H233.867C231.337 95.95 228.858 97.03 226.438 98.26H226.447Z" fill="#F6CB4E"/>
<path d="M180.657 153.51C180.267 154.59 179.887 155.67 179.527 156.77H336.937C336.577 155.67 336.197 154.59 335.807 153.51H180.657Z" fill="#F6CB4E"/>
<path d="M186.039 140.91C185.499 141.98 184.979 143.07 184.469 144.17H331.989C331.479 143.07 330.959 141.99 330.419 140.91H186.029H186.039Z" fill="#F6CB4E"/>
<path d="M192.928 128.97C192.218 130.04 191.528 131.13 190.848 132.23H325.608C324.928 131.13 324.238 130.04 323.528 128.97H192.928Z" fill="#F6CB4E"/>
<path d="M339.618 166.1H176.838C176.568 167.18 176.318 168.26 176.078 169.36H340.388C340.148 168.27 339.888 167.18 339.628 166.1H339.618Z" fill="#F6CB4E"/>
<path d="M204.918 143.84V172.7H311.538V143.84" stroke="black" stroke-width="0.75" stroke-linecap="round" stroke-linejoin="round"/>
<path d="M192.385 126.79C193.675 126.79 193.675 124.79 192.385 124.79C191.095 124.79 191.095 126.79 192.385 126.79Z" fill="white"/>
<path d="M341.087 172.7C332.027 125.54 298.367 90.52 258.227 90.52C218.087 90.52 184.427 125.54 175.367 172.7H341.087Z" stroke="black" stroke-width="0.75" stroke-linecap="round" stroke-linejoin="round"/>
<path d="M257.687 100.58C266.187 100.58 273.077 97.1145 273.077 92.8399C273.077 88.5652 266.187 85.0999 257.687 85.0999C249.187 85.0999 242.297 88.5652 242.297 92.8399C242.297 97.1145 249.187 100.58 257.687 100.58Z" fill="#F6CB4E" stroke="black" stroke-width="0.75" stroke-miterlimit="10"/>
<path d="M282.335 58.42C282.455 68.98 272.675 77.76 260.585 77.94L253.445 78.04C241.355 78.22 231.365 69.72 231.245 59.16L231.005 38.45C230.885 27.89 240.665 19.11 252.755 18.93L259.895 18.83C271.985 18.65 281.975 27.15 282.095 37.71L282.335 58.42Z" fill="black"/>
<path d="M259.882 71.6063L254.873 71.7234C250.396 71.8282 246.851 75.5431 246.955 80.0209L247.149 88.3086C247.254 92.7864 250.969 96.3315 255.447 96.2267L260.455 96.1096C264.933 96.0048 268.478 92.2899 268.373 87.8121L268.179 79.5244C268.075 75.0466 264.36 71.5015 259.882 71.6063Z" fill="white" stroke="black" stroke-width="0.75" stroke-miterlimit="10"/>
<path d="M224.946 62.0001C224.916 65.5601 227.816 68.4701 231.406 68.5001C234.996 68.5301 237.926 65.6601 237.956 62.1001C237.986 58.5401 235.086 55.6301 231.496 55.6001C227.906 55.5701 224.976 58.4401 224.946 62.0001Z" fill="white" stroke="black" stroke-width="0.75" stroke-miterlimit="10"/>
<path d="M235.047 62.07C235.057 60.1 233.467 58.49 231.477 58.48" stroke="black" stroke-width="0.5" stroke-linecap="round" stroke-linejoin="round"/>
<path d="M288.843 60.51C289.033 64.07 286.283 67.11 282.693 67.3C279.103 67.49 276.043 64.77 275.853 61.21C275.663 57.65 278.413 54.61 282.003 54.42C285.593 54.23 288.653 56.95 288.843 60.51Z" fill="white" stroke="black" stroke-width="0.75" stroke-miterlimit="10"/>
<path d="M278.756 61.05C278.646 59.08 280.176 57.4 282.156 57.29" stroke="black" stroke-width="0.5" stroke-linecap="round" stroke-linejoin="round"/>
<path d="M253.538 26.7198L259.277 26.6437C269.036 26.5142 277.061 34.3285 277.19 44.0876L277.443 63.156C277.573 72.9151 269.758 80.9395 259.999 81.0689L254.26 81.145C244.501 81.2745 236.476 73.4603 236.347 63.7011L236.094 44.6328C235.964 34.8736 243.779 26.8493 253.538 26.7198Z" fill="white" stroke="black" stroke-width="0.75" stroke-miterlimit="10"/>
<path d="M262.921 65.5198C262.631 68.1298 260.451 70.1898 257.751 70.2298C255.051 70.2698 252.821 68.2698 252.461 65.6598" stroke="black" stroke-width="0.75" stroke-linecap="round" stroke-linejoin="round"/>
<path d="M245.829 53.63C245.809 54.94 244.719 55.99 243.409 55.97C242.099 55.95 241.049 54.86 241.079 53.55C241.099 52.24 242.189 51.19 243.499 51.21C244.809 51.23 245.859 52.32 245.839 53.64L245.829 53.63Z" fill="black"/>
<path d="M271.01 53.0399C270.99 54.3499 269.9 55.3999 268.59 55.3799C267.28 55.3599 266.23 54.2699 266.25 52.9599C266.27 51.6499 267.36 50.5999 268.67 50.6199C269.98 50.6399 271.03 51.7299 271.01 53.0399Z" fill="black"/>
<path d="M272.077 49.8399C271.877 49.8399 271.677 49.7799 271.507 49.6599C269.337 48.1499 266.397 48.8299 266.367 48.8399C265.827 48.9699 265.287 48.6399 265.157 48.1099C265.027 47.5699 265.357 47.0299 265.887 46.8999C266.047 46.8599 269.717 45.9899 272.637 48.0199C273.087 48.3299 273.207 48.9599 272.887 49.4099C272.697 49.6899 272.377 49.8399 272.067 49.8399H272.077Z" fill="black"/>
<path d="M239.778 50.5999C239.478 50.5999 239.178 50.4699 238.988 50.2099C238.648 49.7699 238.738 49.1399 239.178 48.8099C242.008 46.6399 245.718 47.3499 245.868 47.3799C246.408 47.4899 246.758 48.0099 246.658 48.5599C246.548 49.0999 246.028 49.4499 245.488 49.3499C245.488 49.3499 242.498 48.7999 240.398 50.4099C240.218 50.5499 240.008 50.6199 239.788 50.6199L239.778 50.5999Z" fill="black"/>
<path d="M258.978 59.05L254.668 59.14L256.508 49.71" stroke="black" stroke-width="0.75" stroke-linecap="round" stroke-linejoin="round"/>
<path d="M278.494 29.91C278.264 29.77 268.524 24.3 258.274 24.29C247.084 24.29 235.304 29.76 235.044 29.91C234.244 30.4 231.064 40.46 236.114 46.68C236.114 46.68 239.314 36.26 245.814 34.47C251.034 33.03 252.254 36.38 256.764 36.38C261.274 36.38 262.494 33.04 267.714 34.47C274.224 36.26 277.414 46.68 277.414 46.68C282.464 40.46 279.284 30.4 278.484 29.91H278.494Z" fill="black"/>
</g>
<defs>
<clipPath id="clip0_740_18905">
<rect width="1393.18" height="173.5" fill="white"/>
</clipPath>
</defs>
</svg>
