<svg width="30" height="30" viewBox="0 0 30 30" fill="none" xmlns="http://www.w3.org/2000/svg">
<path d="M15 15C18.4518 15 21.25 12.2018 21.25 8.75C21.25 5.29822 18.4518 2.5 15 2.5C11.5482 2.5 8.75 5.29822 8.75 8.75C8.75 12.2018 11.5482 15 15 15Z" stroke="#5B5B5B" stroke-width="1.5" stroke-linecap="round" stroke-linejoin="round"/>
<path d="M24.0099 19.675L19.5848 24.1001C19.4098 24.2751 19.2474 24.6 19.2099 24.8375L18.9724 26.525C18.8849 27.1375 19.3099 27.5625 19.9224 27.475L21.6098 27.2375C21.8473 27.2 22.1849 27.0375 22.3474 26.8625L26.7723 22.4376C27.5348 21.6751 27.8973 20.7875 26.7723 19.6625C25.6598 18.55 24.7724 18.9125 24.0099 19.675Z" stroke="#5B5B5B" stroke-width="1.5" stroke-miterlimit="10" stroke-linecap="round" stroke-linejoin="round"/>
<path d="M23.375 20.3125C23.75 21.6625 24.8 22.7125 26.15 23.0875" stroke="#5B5B5B" stroke-width="1.5" stroke-miterlimit="10" stroke-linecap="round" stroke-linejoin="round"/>
<path d="M4.26562 27.5C4.26562 22.6625 9.07816 18.75 15.0032 18.75C16.3032 18.75 17.5531 18.9375 18.7156 19.2875" stroke="#5B5B5B" stroke-width="1.5" stroke-linecap="round" stroke-linejoin="round"/>
</svg>
