<svg width="308" height="283" viewBox="0 0 308 283" fill="none" xmlns="http://www.w3.org/2000/svg">
<path d="M255.802 262.385C255.802 272.182 248.097 279.887 238.299 279.887H79.858C70.0607 279.887 62.3555 272.182 62.3555 262.385V52.9668C62.3555 43.2205 70.0607 35.4643 79.858 35.4643H238.299C248.097 35.4643 255.802 43.1695 255.802 52.9668V262.334V262.385Z" fill="white"/>
<path d="M287.694 58.1206C296.42 58.1206 303.666 65.3155 303.666 74.0413C303.666 82.767 296.471 90.013 287.694 90.013C278.918 90.013 271.723 82.8181 271.723 74.0413C271.723 65.2645 278.918 58.1206 287.694 58.1206Z" fill="#FFA1CC"/>
<path d="M27.3512 215.592C34.5461 215.592 40.2102 221.256 40.2102 228.451C40.2102 235.646 34.5461 241.31 27.3512 241.31C20.1563 241.31 14.4922 235.646 14.4922 228.451C14.4922 221.256 20.1563 215.592 27.3512 215.592Z" fill="#FFA1CC"/>
<path d="M209.979 35.5153C209.979 36.5359 210.489 37.5564 210.489 38.577C210.489 47.3027 203.295 54.5487 194.518 54.5487H123.538C118.895 54.5487 115.323 53.0179 112.21 49.9052C109.148 46.7925 107.566 43.2205 107.566 38.577C107.566 37.5564 107.566 36.5359 108.077 35.5153C109.608 28.3204 115.782 22.6563 124.048 22.6563H134.356C137.418 11.3282 147.215 3.1127 159.053 3.1127C170.892 3.1127 181.148 11.3282 183.751 22.6563H194.058C198.702 22.6563 202.274 24.6974 205.387 27.2999C207.938 29.341 209.52 32.4537 210.03 35.5153H209.979Z" fill="#FFCE00"/>
<path d="M283.051 250.546C285.615 250.546 287.694 248.467 287.694 245.903C287.694 243.338 285.615 241.259 283.051 241.259C280.486 241.259 278.407 243.338 278.407 245.903C278.407 248.467 280.486 250.546 283.051 250.546Z" fill="#98C9B0"/>
<path d="M279.429 112.669C281.98 112.669 284.072 114.761 284.072 117.313C284.072 119.864 281.98 121.956 279.429 121.956C276.877 121.956 274.785 119.864 274.785 117.313C274.785 114.761 276.877 112.669 279.429 112.669Z" fill="#98C9B0"/>
<path d="M260.394 3.62297C262.945 3.62297 265.037 5.71511 265.037 8.26649C265.037 10.8179 262.945 12.91 260.394 12.91C257.842 12.91 255.75 10.8179 255.75 8.26649C255.75 5.71511 257.842 3.62297 260.394 3.62297Z" fill="#98C9B0"/>
<path d="M90.1142 6.68463C92.6656 6.68463 94.7578 8.77677 94.7578 11.3282C94.7578 13.8795 92.6656 15.9717 90.1142 15.9717C87.5628 15.9717 85.4707 13.8795 85.4707 11.3282C85.4707 8.77677 87.5628 6.68463 90.1142 6.68463Z" fill="#98C9B0"/>
<path d="M25.8193 80.777C28.3707 80.777 30.4628 82.8691 30.4628 85.4205C30.4628 87.9719 28.3707 90.064 25.8193 90.064C23.2679 90.064 21.1758 87.9719 21.1758 85.4205C21.1758 82.8691 23.2679 80.777 25.8193 80.777Z" fill="#98C9B0"/>
<path d="M22.1963 167.218C24.7477 167.218 26.8398 169.31 26.8398 171.862C26.8398 174.413 24.7477 176.505 22.1963 176.505C19.6449 176.505 17.5527 174.413 17.5527 171.862C17.5527 169.31 19.6449 167.218 22.1963 167.218Z" fill="#98C9B0"/>
<path d="M194.568 58.1206H123.589C118.435 58.1206 113.791 56.0795 109.709 52.4565C106.086 48.8336 104.045 44.2411 104.045 38.577C104.045 37.0462 104.045 36.0256 104.555 34.954C106.596 26.2283 114.353 19.5436 123.589 19.5436H131.804C135.937 8.21547 146.704 0 159.053 0C171.402 0 182.219 7.70519 186.302 19.5436H194.517C199.671 19.5436 204.315 21.5847 208.397 25.2077C210.948 27.7591 213.04 31.3821 213.551 35.0051C213.551 36.0256 214.061 37.5564 214.061 38.628C213.551 49.4459 204.825 58.1717 194.517 58.1717L194.568 58.1206ZM123.589 25.718C117.414 25.718 112.26 29.8512 110.73 36.0256V38.577C110.73 42.2 112.26 45.2616 114.353 47.864C116.904 50.4154 120.017 51.487 123.589 51.487H194.568C201.763 51.487 207.427 45.8229 207.427 38.628V36.0766C206.917 33.5252 205.896 31.4331 203.804 29.392C201.253 26.8406 198.14 25.769 194.568 25.769H184.261C182.73 25.769 181.709 24.7485 181.199 23.2176C178.648 13.4203 169.871 6.22539 159.614 6.22539C149.358 6.22539 140.581 12.91 138.029 23.2176C137.519 24.7485 136.499 25.769 134.968 25.769H123.64L123.589 25.718Z" fill="#98C9B0"/>
<path d="M238.298 282.949H79.8572C68.529 282.949 59.293 273.713 59.293 262.385V52.9668C59.293 41.6386 68.529 32.4026 79.8572 32.4026H107.616C109.147 32.4026 110.678 33.9335 110.678 35.4643C110.678 36.9951 109.657 38.526 108.127 38.526H80.3674C72.6622 38.526 65.9776 44.7003 65.9776 52.9158V262.844C65.9776 270.549 72.152 277.234 80.3674 277.234H238.809C246.514 277.234 253.199 271.059 253.199 262.844V52.9668C253.199 45.2616 247.024 38.577 238.809 38.577H211.05C209.519 38.577 207.988 37.0462 207.988 35.5153C207.988 33.9845 209.519 32.4537 211.05 32.4537H238.809C250.137 32.4537 259.373 41.6897 259.373 53.0178V262.946C258.863 273.764 249.576 283 238.298 283V282.949Z" fill="#98C9B0"/>
<path d="M27.3506 244.372C18.6248 244.372 11.3789 237.177 11.3789 228.451C11.3789 219.726 18.5738 212.48 27.3506 212.48C36.1274 212.48 43.3223 219.675 43.3223 228.451C43.3223 237.228 36.1274 244.372 27.3506 244.372ZM27.3506 218.654C22.1968 218.654 17.5533 222.787 17.5533 228.451C17.5533 234.115 21.6865 238.249 27.3506 238.249C33.0147 238.249 37.1479 234.115 37.1479 228.451C37.1479 222.787 32.5044 218.654 27.3506 218.654Z" fill="#98C9B0"/>
<path d="M287.694 93.1257C276.876 93.1257 268.15 84.3999 268.15 73.582C268.15 62.7641 276.876 54.0384 287.694 54.0384C298.512 54.0384 307.238 62.7641 307.238 73.582C307.238 84.3999 298.512 93.1257 287.694 93.1257ZM287.694 61.2333C280.499 61.2333 274.835 66.8974 274.835 74.0923C274.835 81.2872 280.499 86.9513 287.694 86.9513C294.889 86.9513 300.553 81.2872 300.553 74.0923C300.553 66.8974 294.889 61.2333 287.694 61.2333Z" fill="#98C9B0"/>
<path d="M230.084 257.231H88.5841C87.0533 257.231 85.5225 255.7 85.5225 254.169V83.8387C85.5225 82.3078 87.0533 80.726 88.5841 80.726C90.115 80.726 91.6458 82.2568 91.6458 83.8387V251.057H226.971V83.8387C226.971 82.3078 228.502 80.726 230.033 80.726C231.564 80.726 233.095 82.2568 233.095 83.8387V254.118C233.095 255.649 231.564 257.18 230.033 257.18L230.084 257.231Z" fill="#98C9B0"/>
<path d="M180.586 234.575H104.555C103.024 234.575 101.493 233.044 101.493 231.513C101.493 229.982 103.024 228.451 104.555 228.451H181.148C182.678 228.451 184.26 229.982 184.26 231.513C184.26 233.044 182.729 234.575 180.637 234.575H180.586Z" fill="#98C9B0"/>
<path d="M180.586 218.654H104.555C103.024 218.654 101.493 217.123 101.493 215.592C101.493 214.061 103.024 212.48 104.555 212.48H181.148C182.678 212.48 184.26 214.01 184.26 215.592C184.26 217.174 182.729 218.654 180.637 218.654H180.586Z" fill="#98C9B0"/>
<path d="M180.586 202.682H104.555C103.024 202.682 101.493 201.151 101.493 199.57C101.493 197.988 103.024 196.508 104.555 196.508H181.148C182.678 196.508 184.26 198.039 184.26 199.57C184.26 201.1 182.729 202.682 180.637 202.682H180.586Z" fill="#98C9B0"/>
<path d="M180.586 186.762H104.555C103.024 186.762 101.493 185.231 101.493 183.649C101.493 182.067 103.024 180.587 104.555 180.587H181.148C182.678 180.587 184.26 182.118 184.26 183.649C184.26 185.18 182.729 186.762 180.637 186.762H180.586Z" fill="#98C9B0"/>
<path d="M180.586 170.28H104.555C103.024 170.28 101.493 168.749 101.493 167.218C101.493 165.687 103.024 164.105 104.555 164.105H181.148C182.678 164.105 184.26 165.636 184.26 167.218C184.26 168.8 182.729 170.28 180.637 170.28H180.586Z" fill="#98C9B0"/>
<path d="M180.586 154.359H104.555C103.024 154.359 101.493 152.828 101.493 151.246C101.493 149.664 103.024 148.185 104.555 148.185H181.148C182.678 148.185 184.26 149.716 184.26 151.246C184.26 152.777 182.729 154.359 180.637 154.359H180.586Z" fill="#98C9B0"/>
<path d="M180.586 138.387H104.555C103.024 138.387 101.493 136.857 101.493 135.326C101.493 133.795 103.024 132.213 104.555 132.213H181.148C182.678 132.213 184.26 133.744 184.26 135.326C184.26 136.908 182.729 138.387 180.637 138.387H180.586Z" fill="#98C9B0"/>
<path d="M214.111 234.575H196.354C194.823 234.575 193.292 233.044 193.292 231.513C193.292 229.982 194.823 228.451 196.354 228.451H214.622C216.152 228.451 217.734 229.982 217.734 231.513C217.734 233.044 216.203 234.575 214.111 234.575Z" fill="#98C9B0"/>
<path d="M214.111 218.654H196.354C194.823 218.654 193.292 217.123 193.292 215.592C193.292 214.061 194.823 212.48 196.354 212.48H214.622C216.152 212.48 217.734 214.01 217.734 215.592C217.734 217.174 216.203 218.654 214.111 218.654Z" fill="#98C9B0"/>
<path d="M214.111 202.682H196.354C194.823 202.682 193.292 201.151 193.292 199.57C193.292 197.988 194.823 196.508 196.354 196.508H214.622C216.152 196.508 217.734 198.039 217.734 199.57C217.734 201.1 216.203 202.682 214.111 202.682Z" fill="#98C9B0"/>
<path d="M214.111 186.762H196.354C194.823 186.762 193.292 185.231 193.292 183.649C193.292 182.067 194.823 180.587 196.354 180.587H214.622C216.152 180.587 217.734 182.118 217.734 183.649C217.734 185.18 216.203 186.762 214.111 186.762Z" fill="#98C9B0"/>
<path d="M214.111 170.28H196.354C194.823 170.28 193.292 168.749 193.292 167.218C193.292 165.687 194.823 164.105 196.354 164.105H214.622C216.152 164.105 217.734 165.636 217.734 167.218C217.734 168.8 216.203 170.28 214.111 170.28Z" fill="#98C9B0"/>
<path d="M214.111 154.359H196.354C194.823 154.359 193.292 152.828 193.292 151.246C193.292 149.664 194.823 148.185 196.354 148.185H214.622C216.152 148.185 217.734 149.716 217.734 151.246C217.734 152.777 216.203 154.359 214.111 154.359Z" fill="#98C9B0"/>
<path d="M214.111 138.387H196.354C194.823 138.387 193.292 136.857 193.292 135.326C193.292 133.795 194.823 132.213 196.354 132.213H214.622C216.152 132.213 217.734 133.744 217.734 135.326C217.734 136.908 216.203 138.387 214.111 138.387Z" fill="#98C9B0"/>
<path d="M180.586 121.956H104.555C103.024 121.956 101.493 120.426 101.493 118.895C101.493 117.364 103.024 115.782 104.555 115.782H181.148C182.678 115.782 184.26 117.313 184.26 118.895C184.26 120.477 182.729 121.956 180.637 121.956H180.586Z" fill="#98C9B0"/>
<path d="M180.586 105.985H104.555C103.024 105.985 101.493 104.454 101.493 102.872C101.493 101.29 103.024 99.8103 104.555 99.8103H181.148C182.678 99.8103 184.26 101.341 184.26 102.872C184.26 104.403 182.729 105.985 180.637 105.985H180.586Z" fill="#98C9B0"/>
<path d="M214.111 121.956H196.354C194.823 121.956 193.292 120.426 193.292 118.895C193.292 117.364 194.823 115.782 196.354 115.782H214.622C216.152 115.782 217.734 117.313 217.734 118.895C217.734 120.477 216.203 121.956 214.111 121.956Z" fill="#98C9B0"/>
<path d="M214.111 105.985H196.354C194.823 105.985 193.292 104.454 193.292 102.872C193.292 101.29 194.823 99.8103 196.354 99.8103H214.622C216.152 99.8103 217.734 101.341 217.734 102.872C217.734 104.403 216.203 105.985 214.111 105.985Z" fill="#98C9B0"/>
<path d="M205.591 91.0846C205.182 91.0846 204.876 90.8805 204.723 90.6764L195.691 80.777C194.518 79.6033 193.905 78.1235 193.905 76.4906C193.905 74.8578 194.62 73.378 195.691 72.2043C196.865 71.0307 198.345 70.4183 200.029 70.4183C201.713 70.4183 203.192 71.0817 204.366 72.2043L205.438 73.2759L206.509 72.2043C207.683 71.0307 209.163 70.4183 210.846 70.4183C212.53 70.4183 214.01 71.0817 215.184 72.2043C216.357 73.378 216.97 74.8578 216.97 76.4906C216.97 78.1235 216.357 79.6033 215.184 80.777L206.356 90.6764C206.356 90.6764 205.744 91.0846 205.489 91.0846H205.591ZM201.406 74.6536C200.641 74.6536 199.978 74.9598 199.365 75.4701C198.855 75.9804 198.549 76.6437 198.549 77.4602C198.549 78.2256 198.855 78.8889 199.365 79.4503L205.489 86.1859L211.612 79.4503C212.122 78.94 212.428 78.2766 212.428 77.4602C212.428 76.6437 212.122 76.0314 211.612 75.4701C211.102 74.9598 210.336 74.6536 209.571 74.6536C208.805 74.6536 208.142 74.9598 207.53 75.4701L206.05 76.9499C205.693 77.3071 205.08 77.3071 204.723 76.9499L203.243 75.4701C202.784 74.9598 202.121 74.6536 201.355 74.6536H201.406Z" fill="#98C9B0"/>
<path d="M201.405 74.6537C200.64 74.6537 199.977 74.9598 199.364 75.4701C198.854 75.9804 198.548 76.6437 198.548 77.4602C198.548 78.2256 198.854 78.889 199.364 79.4503L205.488 86.1859L211.611 79.4503C212.121 78.94 212.427 78.2766 212.427 77.4602C212.427 76.6437 212.121 76.0314 211.611 75.4701C211.101 74.9598 210.335 74.6537 209.57 74.6537C208.804 74.6537 208.141 74.9598 207.529 75.4701L206.049 76.9499C205.692 77.3071 205.079 77.3071 204.722 76.9499L203.242 75.4701C202.783 74.9598 202.12 74.6537 201.354 74.6537H201.405Z" fill="#FFA1CC"/>
<path d="M32.506 18.8803C36.6393 22.9625 42.3033 25.5139 48.4777 25.5139C42.3033 25.5139 36.6393 28.0653 32.506 32.1475C28.3728 36.2297 25.8214 41.8428 25.8214 47.9661C25.8214 35.7194 15.5138 25.5139 3.16504 25.5139C9.3394 25.5139 15.0035 22.9625 19.1367 18.8803C23.27 14.798 25.8214 9.18499 25.8214 3.06166C25.8214 9.18499 28.4238 14.798 32.506 18.8803Z" fill="#FFA1CC"/>
<path d="M25.8201 51.0278C24.2892 51.0278 22.7074 49.4969 22.7074 47.9661C22.7074 37.2503 13.9306 28.5756 3.11269 28.5756C1.58186 28.5756 0 27.0447 0 25.5139C0 23.9831 1.53083 22.4522 3.11269 22.4522C8.2665 22.4522 12.91 20.4111 17.0433 16.8392C20.6662 13.2672 22.7074 8.67472 22.7074 3.06167C22.7074 1.53083 24.2382 0 25.8201 0C27.4019 0 28.9327 1.53083 28.9327 3.06167C28.9327 8.16444 30.9739 12.7569 34.5968 16.8392C38.2198 20.4111 43.3736 22.4522 48.5274 22.4522C50.0582 22.4522 51.6401 23.9831 51.6401 25.5139C51.6401 27.0447 50.1093 28.5756 48.5274 28.5756C43.3736 28.5756 38.7301 30.6167 34.5968 34.1886C30.9739 37.7605 28.9327 42.353 28.9327 47.9661C28.9327 49.4969 27.9122 51.0278 25.8201 51.0278ZM16.0227 25.5139C20.156 28.0653 23.7279 31.1269 26.3303 35.7194C27.3509 33.6783 28.8817 31.6372 30.4636 30.1064C31.9944 28.5756 34.0866 27.0447 36.1277 26.0242C34.0866 25.0036 31.9944 23.4728 30.4636 21.9419C28.9327 20.4111 27.3509 18.37 26.3303 16.3289C25.3098 18.37 23.7789 20.4111 22.1971 21.9419C19.5947 22.9625 18.0638 24.4933 16.0227 25.5139Z" fill="#98C9B0"/>
</svg>
