<svg width="42" height="52" viewBox="0 0 42 52" fill="none" xmlns="http://www.w3.org/2000/svg">
<path d="M21.1801 27.17C21.0751 27.155 20.9401 27.155 20.8201 27.17C18.1801 27.08 16.0801 24.92 16.0801 22.265C16.0801 19.55 18.2701 17.345 21.0001 17.345C23.7151 17.345 25.9201 19.55 25.9201 22.265C25.9051 24.92 23.8201 27.08 21.1801 27.17Z" stroke="#0061EF" stroke-width="1.5" stroke-linecap="round" stroke-linejoin="round"/>
<path d="M31.1106 37.07C28.4406 39.515 24.9006 41 21.0006 41C17.1006 41 13.5606 39.515 10.8906 37.07C11.0406 35.66 11.9406 34.28 13.5456 33.2C17.6556 30.47 24.3756 30.47 28.4556 33.2C30.0606 34.28 30.9606 35.66 31.1106 37.07Z" stroke="#0061EF" stroke-width="1.5" stroke-linecap="round" stroke-linejoin="round"/>
<path d="M21 41C29.2843 41 36 34.2843 36 26C36 17.7157 29.2843 11 21 11C12.7157 11 6 17.7157 6 26C6 34.2843 12.7157 41 21 41Z" stroke="#0061EF" stroke-width="1.5" stroke-linecap="round" stroke-linejoin="round"/>
</svg>
