<svg width="24" height="24" viewBox="0 0 24 24" fill="none" xmlns="http://www.w3.org/2000/svg">
<g clip-path="url(#clip0_3037_20252)">
<path d="M12.0003 23.1429C18.1543 23.1429 23.1431 18.1541 23.1431 12C23.1431 5.846 18.1543 0.857178 12.0003 0.857178C5.84625 0.857178 0.857422 5.846 0.857422 12C0.857422 18.1541 5.84625 23.1429 12.0003 23.1429Z" stroke="#000001" stroke-width="1.5" stroke-linecap="round" stroke-linejoin="round"/>
<path d="M9.42871 9.42861C9.42871 8.92003 9.57952 8.42287 9.86207 8C10.1446 7.57713 10.5462 7.24754 11.0161 7.05292C11.486 6.85829 12.003 6.80737 12.5018 6.90659C13.0006 7.00581 13.4588 7.25071 13.8184 7.61033C14.178 7.96995 14.4229 8.42814 14.5222 8.92695C14.6214 9.42576 14.5705 9.94278 14.3758 10.4127C14.1812 10.8825 13.8516 11.2841 13.4287 11.5667C13.0059 11.8492 12.5087 12 12.0001 12V13.7143" stroke="#000001" stroke-width="1.5" stroke-linecap="round" stroke-linejoin="round"/>
<path d="M11.9999 18.0001C11.7632 18.0001 11.5713 17.8082 11.5713 17.5715C11.5713 17.3348 11.7632 17.1429 11.9999 17.1429" stroke="#000001" stroke-width="1.5" stroke-linecap="round" stroke-linejoin="round"/>
<path d="M12 18.0001C12.2367 18.0001 12.4286 17.8082 12.4286 17.5715C12.4286 17.3348 12.2367 17.1429 12 17.1429" stroke="#000001" stroke-width="1.5" stroke-linecap="round" stroke-linejoin="round"/>
</g>
<defs>
<clipPath id="clip0_3037_20252">
<rect width="24" height="24" fill="white"/>
</clipPath>
</defs>
</svg>
