<svg width="24" height="24" viewBox="0 0 24 24" fill="none" xmlns="http://www.w3.org/2000/svg">
<path d="M16 2H8C4 2 2 4 2 8V21C2 21.55 2.45 22 3 22H16C20 22 22 20 22 16V8C22 4 20 2 16 2Z" stroke="#0DC143" stroke-width="1.5" stroke-linecap="round" stroke-linejoin="round"/>
<path d="M12.9088 7.84L7.71881 13.03C7.51881 13.23 7.32882 13.62 7.28882 13.9L7.00882 15.88C6.90882 16.6 7.40882 17.1 8.12882 17L10.1088 16.72C10.3888 16.68 10.7788 16.49 10.9788 16.29L16.1688 11.1C17.0588 10.21 17.4888 9.17 16.1688 7.85C14.8488 6.52 13.8088 6.94 12.9088 7.84Z" stroke="#0DC143" stroke-width="1.5" stroke-miterlimit="10" stroke-linecap="round" stroke-linejoin="round"/>
<path d="M12.168 8.58C12.608 10.15 13.838 11.39 15.418 11.83" stroke="#0DC143" stroke-width="1.5" stroke-miterlimit="10" stroke-linecap="round" stroke-linejoin="round"/>
</svg>
