<svg width="65" height="65" viewBox="0 0 65 65" fill="none" xmlns="http://www.w3.org/2000/svg">
<circle cx="29.5" cy="32.5" r="28.5" fill="#DEFCFF"/>
<g clip-path="url(#clip0_3484_38829)">
<path d="M32.493 0.0834822C32.493 0.121427 31.9429 0.182139 30.888 0.250441C29.8406 0.371865 28.2807 0.49329 26.314 0.933453C26.1482 0.963809 25.9825 1.00934 25.8167 1.04729C25.6434 1.09282 25.4776 1.13077 25.2967 1.1763C24.9501 1.26737 24.5884 1.34326 24.2192 1.46468C23.85 1.57852 23.4732 1.69994 23.0814 1.82137C22.697 1.95797 22.2977 2.10216 21.8908 2.23118C21.6722 2.26912 21.4688 2.3526 21.2653 2.44367C21.0619 2.53474 20.8584 2.64098 20.6625 2.74723C20.2481 2.94454 19.8487 3.1798 19.374 3.30123C19.1554 3.3923 18.9218 3.47578 18.7033 3.58961C18.4848 3.70345 18.2663 3.81728 18.0477 3.93871C17.8292 4.06013 17.6031 4.17397 17.3846 4.31057C17.1661 4.44717 16.9476 4.58377 16.729 4.72038C16.5105 4.86457 16.2769 4.98599 16.0509 5.13018C15.8248 5.27438 15.5987 5.41098 15.3651 5.55517C14.898 5.83596 14.4458 6.16229 14.0163 6.53415C13.9184 6.6404 13.8129 6.73147 13.6998 6.82254C13.5943 6.9136 13.4813 7.00467 13.3683 7.09574C13.1347 7.27029 12.8935 7.42966 12.6449 7.58903L12.4565 7.71045C12.3962 7.75599 12.3359 7.79393 12.2756 7.83947C12.1551 7.93053 12.0421 8.0216 11.929 8.12026C11.703 8.31757 11.492 8.53007 11.3111 8.7805C10.4747 9.66083 9.57045 10.5184 8.72649 11.505C8.60593 11.6112 8.48536 11.725 8.37233 11.8389L8.20655 12.0134C8.15381 12.0741 8.10106 12.1349 8.04831 12.2032C7.83732 12.4536 7.6414 12.7192 7.44548 12.9924C7.24203 13.258 7.07625 13.5464 6.88787 13.8348C6.79744 13.979 6.70702 14.1232 6.61659 14.2598C6.52617 14.404 6.42821 14.5406 6.34532 14.6924C6.11926 14.9504 5.90827 15.2236 5.70481 15.512L5.55411 15.7245C5.50889 15.8004 5.46368 15.8762 5.41847 15.9445C5.32805 16.0963 5.24516 16.2481 5.16227 16.3999C4.99649 16.711 4.82318 17.0222 4.68754 17.3485C4.54437 17.6748 4.41627 18.0088 4.28063 18.3427C4.05457 18.6311 3.87372 18.9498 3.69287 19.2685C3.60245 19.4279 3.51956 19.5873 3.43667 19.7542C3.36132 19.9212 3.2935 20.0957 3.22568 20.2627C3.09758 20.6118 2.97701 20.9609 2.87906 21.3252C2.79617 21.6894 2.72081 22.0613 2.66053 22.4408C2.53243 22.7974 2.43447 23.1617 2.32144 23.526C2.21594 23.8903 2.08784 24.2545 2.00495 24.634C1.91453 25.0058 1.82411 25.3853 1.74875 25.7647C1.68093 26.1518 1.63572 26.5388 1.59051 26.9259C1.51516 27.3129 1.48501 27.7075 1.4398 28.0946C1.4172 28.2919 1.39459 28.4892 1.37198 28.6865C1.36445 28.7852 1.34938 28.8838 1.34184 28.9825L1.31924 29.2785C1.29663 29.6807 1.26649 30.0753 1.23635 30.4775C1.22128 30.8797 1.20621 31.2896 1.1836 31.6918C1.20621 31.8967 1.20621 32.1016 1.23635 32.3065C1.25895 32.5114 1.27402 32.7163 1.29663 32.9212C1.33431 33.331 1.34184 33.7408 1.37952 34.1506C1.40966 34.5604 1.43227 34.9778 1.44734 35.3952C1.47748 35.8126 1.50008 36.23 1.51516 36.655C1.95221 38.2942 2.23855 39.9638 2.66053 41.6562C2.77356 42.0736 2.9092 42.491 3.0599 42.9008C3.21815 43.3106 3.40653 43.7128 3.57984 44.115L3.71548 44.4186L3.85865 44.7145C3.95661 44.9118 4.04704 45.1168 4.145 45.3141C4.24295 45.5114 4.31831 45.7239 4.41627 45.9212C4.50669 46.1261 4.59712 46.3234 4.68001 46.5359C5.48629 48.1372 6.48849 49.6474 7.56605 51.1273C8.59839 52.6451 9.79651 54.1022 11.2885 55.2405C12.6976 56.4851 14.2273 57.5855 15.7796 58.7011C17.4977 59.5511 19.1479 60.5073 20.9187 61.3421C22.7272 62.0327 24.5809 62.7385 26.5476 63.0041C28.4842 63.4139 30.4811 63.4822 32.4855 63.5808C34.4899 63.6416 36.5018 63.505 38.4233 63.0041L38.785 62.9206L39.1392 62.8219C39.3803 62.7612 39.6139 62.7005 39.8551 62.6398L40.2168 62.5563C40.3373 62.526 40.4504 62.4956 40.5709 62.4653L41.2792 62.2755C41.754 62.1617 42.2212 62.0099 42.6884 61.8581L43.035 61.7443C43.148 61.7064 43.2686 61.6684 43.3816 61.6229C43.6077 61.5318 43.8337 61.4407 44.0598 61.3421C44.2934 61.2738 44.527 61.2055 44.753 61.1144C44.9791 61.0233 45.2052 60.9323 45.4237 60.8336C45.6422 60.735 45.8683 60.6363 46.0793 60.5301L46.7122 60.181C46.9232 60.0595 47.1342 59.9457 47.3452 59.8319C47.5487 59.7029 47.7521 59.5814 47.9631 59.4524C48.1666 59.3234 48.37 59.202 48.581 59.0806C48.7845 58.9591 48.9879 58.8301 49.1914 58.7087C50.7889 57.669 52.3713 56.5989 53.6824 55.2481C55.0313 53.9504 56.2445 52.5464 57.4049 51.1273C57.8269 50.3001 58.3619 49.5715 58.8818 48.8278C59.1531 48.4635 59.3942 48.0841 59.6354 47.7046C59.7559 47.5149 59.8765 47.3252 59.9895 47.1278C60.095 46.9305 60.193 46.7256 60.291 46.5283C60.404 46.3386 60.517 46.1413 60.6225 45.9515C60.7355 45.7618 60.8184 45.5493 60.9164 45.352C61.0068 45.1471 61.0972 44.9498 61.1877 44.7449L61.3233 44.4413C61.361 44.3427 61.3986 44.2364 61.4439 44.1302C61.5946 43.7128 61.7528 43.303 61.896 42.8932C62.0316 42.4758 62.1673 42.0584 62.3104 41.6486C62.529 40.8062 62.8078 39.9866 63.0112 39.1518C63.064 38.9469 63.1167 38.7344 63.1695 38.5295C63.2147 38.317 63.2523 38.1121 63.29 37.8996C63.3277 37.6871 63.3578 37.4822 63.3955 37.2697L63.4407 36.951C63.4483 36.8447 63.4558 36.7385 63.4633 36.6322C63.5236 36.2148 63.5688 35.7974 63.6216 35.38C63.6442 34.9626 63.6743 34.5452 63.6969 34.1354C63.7346 33.7256 63.7271 33.3082 63.7421 32.8984C63.7421 32.6935 63.7572 32.4886 63.7723 32.2837C63.7874 32.0788 63.7874 31.8739 63.7949 31.669C63.7497 31.2592 63.7271 30.857 63.7195 30.4548C63.6894 30.0525 63.6819 29.6503 63.6668 29.2481V28.9521C63.6517 28.8535 63.6442 28.7548 63.6366 28.6562C63.6216 28.4588 63.599 28.2615 63.5839 28.0642C63.5613 27.8669 63.5387 27.6696 63.5161 27.4723C63.4935 27.275 63.4407 27.0852 63.3955 26.8955C63.3277 26.5085 63.2599 26.1214 63.1921 25.742C63.1016 25.3625 63.0187 24.9831 62.9359 24.6112C62.8605 24.2318 62.7475 23.8675 62.6495 23.5032C62.544 23.1389 62.4611 22.7671 62.3406 22.4104C62.2728 22.0309 62.1899 21.6667 62.0844 21.31C61.9638 20.9533 61.8282 20.6118 61.685 20.2703C61.6096 20.1033 61.5418 19.9288 61.4589 19.7618C61.376 19.6025 61.2932 19.4355 61.2103 19.2685C61.0445 18.9422 60.8938 18.6159 60.728 18.2971C60.5698 17.9708 60.404 17.6597 60.2382 17.3485L60.1101 17.1133C60.0649 17.0374 60.0197 16.9615 59.9745 16.8856C59.884 16.7338 59.7936 16.582 59.7032 16.4378C59.6128 16.2861 59.5223 16.1343 59.4395 15.9901L59.3114 15.7624L59.1757 15.5423C58.9949 15.2464 58.8291 14.9504 58.6784 14.6392C58.588 14.495 58.4975 14.3508 58.3996 14.2142C58.3092 14.0701 58.2112 13.9335 58.1208 13.7893C57.9324 13.5085 57.7591 13.2201 57.5556 12.9621C57.3597 12.6964 57.1562 12.4308 56.9528 12.1728C56.9 12.1121 56.8473 12.0438 56.7945 11.9831L56.6288 11.8009C56.5157 11.6795 56.4027 11.5657 56.2897 11.4518C56.1842 11.3304 56.0787 11.209 55.9807 11.08C55.8828 10.951 55.7848 10.822 55.6868 10.7005C55.4909 10.4501 55.2875 10.1997 55.0991 9.9568C55.0011 9.83538 54.9032 9.70637 54.7901 9.60012C54.6846 9.48628 54.5716 9.38004 54.4586 9.27379C54.2325 9.06889 53.9839 8.87916 53.7126 8.72738C53.479 8.53766 53.2529 8.33275 53.0419 8.12785C52.9364 8.0216 52.8309 7.91536 52.7255 7.80911L52.5672 7.64974L52.4014 7.49796C52.1829 7.30064 51.9644 7.10333 51.7383 6.92878C51.6253 6.83771 51.5123 6.75424 51.3917 6.67835C51.2711 6.60245 51.143 6.53415 51.0149 6.47344C50.5025 6.223 50.0579 5.88909 49.6133 5.57794C49.3948 5.41857 49.1763 5.25161 48.9653 5.09224C48.7468 4.93287 48.5283 4.79627 48.3022 4.65966C48.0761 4.52306 47.8576 4.39405 47.6315 4.26503C47.4055 4.13602 47.1794 4.02219 46.9609 3.90835C46.7424 3.78693 46.5238 3.67309 46.3053 3.55926C46.0868 3.44542 45.8683 3.34676 45.6497 3.24811C43.7056 2.32224 41.8745 1.69994 40.262 1.25219C39.8551 1.15353 39.4632 1.05488 39.0865 0.95622C38.8981 0.903097 38.7097 0.872741 38.5288 0.834796C38.348 0.796851 38.1671 0.758905 37.9938 0.728549C37.3006 0.576769 36.6525 0.500879 36.0798 0.40981C34.9269 0.265619 34.0453 0.17455 33.4425 0.136605C32.8396 0.0910712 32.5307 0.0531261 32.5307 0.02277C32.5307 -0.0151752 32.915 -0.0379422 33.661 -0.0531203C33.8494 -0.0531203 34.0528 -0.0682983 34.2864 -0.0531203C34.52 -0.0455313 34.7687 -0.0303532 35.04 -0.0227642C35.3112 -0.00758614 35.6127 2.88337e-06 35.9291 0.030359C36.2456 0.0607151 36.5847 0.0986602 36.9389 0.136605C38.3631 0.311153 40.1188 0.599536 42.1157 1.19907C44.1125 1.79101 46.343 2.68652 48.6714 4.0146C48.905 4.1512 49.1462 4.26504 49.3873 4.40164C49.6284 4.53824 49.862 4.67484 50.1107 4.81144C50.6005 5.08465 51.0601 5.41857 51.4897 5.8132C51.6102 5.89668 51.7308 5.98015 51.8513 6.06363C51.9719 6.14711 52.0849 6.23818 52.2055 6.32925C52.4466 6.5038 52.6878 6.67834 52.9289 6.86048L53.1098 6.99708L53.2831 7.14128C53.3961 7.23993 53.5167 7.33859 53.6297 7.43725C53.8633 7.64215 54.0894 7.84705 54.3079 8.07473C55.3628 8.77292 56.1616 9.81261 57.0055 10.8371C57.8947 11.8313 58.6482 12.9772 59.5073 14.0928C59.7258 14.3736 59.9217 14.6696 60.1176 14.9656L60.2608 15.1932C60.306 15.2691 60.3512 15.3526 60.3889 15.4285C60.4718 15.5879 60.5622 15.7472 60.6451 15.9066C60.728 16.066 60.8184 16.2253 60.9013 16.3847C60.9465 16.4682 60.9917 16.5441 61.0294 16.6276L61.15 16.8704C61.3158 17.1967 61.4815 17.5231 61.6699 17.8494C61.8056 18.1985 61.9261 18.5476 62.0693 18.8967C62.1371 19.0712 62.2125 19.2458 62.2878 19.4203C62.3556 19.5949 62.431 19.7694 62.4988 19.9515C62.642 20.3006 62.7927 20.6573 62.9434 21.0064C63.079 21.3631 63.2297 21.7198 63.3804 22.0841C63.4784 22.4635 63.5613 22.843 63.6668 23.2224C63.7647 23.6019 63.8929 23.9813 63.9833 24.3684C64.0812 24.7554 64.1867 25.1424 64.2922 25.5295C64.3827 25.9241 64.458 26.3187 64.5258 26.721C64.5334 26.9259 64.5635 27.1308 64.5635 27.3357C64.571 27.5406 64.5861 27.7455 64.6087 27.9504C64.6238 28.1553 64.6464 28.3602 64.6765 28.5651C64.6916 28.6713 64.7067 28.77 64.7142 28.8762L64.7443 29.1874C64.7896 29.5972 64.8348 30.0146 64.8875 30.4244C64.9252 30.8418 64.9553 31.2592 64.9855 31.6842C65.0005 31.8967 65.0156 32.1092 65.0156 32.3217C65.0156 32.5342 65.0156 32.7466 65.0081 32.9591C64.993 33.3841 64.993 33.8167 64.9478 34.2417C64.9101 34.6743 64.8725 35.0992 64.8348 35.5318C64.782 35.9644 64.7293 36.397 64.6841 36.8295C64.3902 38.5522 64.0963 40.3205 63.5236 42.0432C63.079 43.7963 62.3933 45.5266 61.4514 47.1354C60.6602 48.8202 59.6128 50.4063 58.4674 51.9317C57.3823 53.5102 56.0184 54.899 54.6018 56.2347C53.901 56.9101 53.1173 57.5096 52.3185 58.0864C51.9267 58.39 51.5123 58.6556 51.1204 58.9515C50.7286 59.2551 50.3217 59.5359 49.9374 59.8546C48.2721 60.9551 46.4485 61.8202 44.5873 62.617C42.6959 63.3456 40.7216 63.8996 38.7097 64.3549C36.6525 64.5295 34.6105 64.8634 32.5156 64.9545C30.4208 65.0152 28.341 64.7799 26.3216 64.3549C24.2945 63.9831 22.3203 63.3835 20.444 62.617C18.53 61.9189 16.8119 60.8488 15.0939 59.8546C14.6644 59.6042 14.2348 59.3462 13.843 59.0426C13.4436 58.7466 13.0367 58.4583 12.6675 58.1395C11.8989 57.5172 11.1755 56.857 10.4295 56.2347C8.96009 54.9521 7.6188 53.5254 6.56385 51.9317C5.99869 51.1652 5.49382 50.3608 5.0191 49.5412C4.77043 49.1389 4.5519 48.7291 4.31077 48.3269C4.19021 48.1296 4.06964 47.9247 3.94154 47.7274C3.82097 47.5225 3.70794 47.3252 3.57984 47.1278C3.46681 46.9229 3.35378 46.718 3.24075 46.5207C3.12019 46.3234 3.02976 46.1109 2.91673 45.906C2.81124 45.7011 2.70574 45.4962 2.60025 45.2913L2.442 44.9802C2.38926 44.8739 2.35158 44.7677 2.30637 44.6614C2.12552 44.2364 1.95221 43.8114 1.80903 43.3789C1.68093 42.9387 1.57544 42.491 1.50008 42.0432C1.20621 41.1856 0.98768 40.3129 0.836973 39.4326C0.791761 39.2125 0.754084 38.9924 0.708872 38.7799C0.671195 38.5598 0.633519 38.3398 0.603377 38.1273C0.5657 37.9072 0.528024 37.6947 0.482811 37.4746L0.414993 37.1559L0.35471 36.8371C0.35471 36.397 0.324569 35.9568 0.286892 35.5318C0.264286 35.0992 0.226609 34.6667 0.181397 34.2417C0.12865 33.8167 0.113579 33.3841 0.0834374 32.9591C0.0683667 32.7466 0.0608313 32.5342 0.0457606 32.3217C0.0306899 32.1092 0.0457606 31.8967 0.0457606 31.6842C0.0683667 31.2592 0.0834374 30.8418 0.113579 30.4244C0.151256 30.007 0.196468 29.5972 0.234145 29.1798L0.264286 28.8687C0.271821 28.7624 0.286892 28.6638 0.301963 28.5575C0.324569 28.3526 0.347175 28.1477 0.377316 27.9428C0.422529 27.533 0.45267 27.1232 0.512953 26.721C0.558165 26.3187 0.618448 25.9165 0.693801 25.5219C0.784226 25.1273 0.882185 24.7402 0.980145 24.3532C1.07057 23.9661 1.20621 23.5867 1.31924 23.2148C1.4398 22.8354 1.53776 22.4559 1.65833 22.0917C1.74875 21.7122 1.86932 21.3403 2.00495 20.9761C2.14813 20.6194 2.30637 20.2703 2.46461 19.9212C2.5475 19.7466 2.62285 19.5721 2.69821 19.4051C2.7811 19.2382 2.86398 19.0636 2.94687 18.8967C3.11265 18.5552 3.24075 18.2061 3.37639 17.8646C3.5497 17.5382 3.72302 17.2119 3.88879 16.8856C4.04704 16.5517 4.24296 16.2481 4.41627 15.9294C4.50669 15.77 4.59712 15.6182 4.68001 15.4588C4.72522 15.383 4.77043 15.2995 4.81564 15.2236L4.95881 14.9959C5.15473 14.6924 5.35065 14.3964 5.54657 14.108C5.60685 13.9335 5.68221 13.7741 5.77263 13.6223C5.85552 13.4705 5.94595 13.3187 6.04391 13.1746C6.23983 12.8862 6.43574 12.5978 6.66934 12.3473C6.8954 12.0893 7.129 11.8389 7.36259 11.5884L7.53591 11.3987L7.70922 11.2166C7.82978 11.0952 7.94282 10.9737 8.04831 10.8523C8.92995 9.86574 9.69102 8.78809 10.7535 8.0899C10.9494 7.83947 11.1604 7.61938 11.3865 7.3993C11.4995 7.29306 11.6125 7.1944 11.7256 7.09574C11.7858 7.05021 11.8386 6.99708 11.8989 6.95155L12.0797 6.81495C12.3284 6.6404 12.5771 6.47344 12.8182 6.30648C12.9388 6.223 13.0669 6.13952 13.1874 6.05604C13.3155 5.98015 13.4361 5.90426 13.5567 5.82079C14.0465 5.50963 14.491 5.15295 14.9582 4.8418C15.1918 4.68243 15.4179 4.53065 15.6515 4.37887C15.8851 4.23468 16.1337 4.12084 16.3749 4.00701C16.5859 3.84005 16.8119 3.69586 17.038 3.55926C17.2716 3.43024 17.5052 3.33158 17.7463 3.22534C17.9799 3.12668 18.2135 3.02802 18.4471 2.92178C18.6732 2.82312 18.9068 2.73205 19.1253 2.61063C19.5925 2.45885 20.022 2.25394 20.459 2.0794C20.67 1.98833 20.8886 1.89726 21.092 1.81378C21.303 1.72271 21.5065 1.63923 21.7174 1.57852C22.1319 1.41915 22.5313 1.27496 22.9306 1.14595C23.33 1.03211 23.7294 0.941042 24.1137 0.865152C24.4905 0.758905 24.8597 0.683015 25.2214 0.607125C25.4022 0.56918 25.5756 0.531235 25.7489 0.49329C25.9222 0.455344 26.088 0.417399 26.2613 0.394632C28.2732 0.0151809 29.8556 -0.0227642 30.9181 -0.0682983C31.9806 -0.0531203 32.5382 -0.0303532 32.5382 0.0151809L32.493 0.0834822Z" fill="#0061EF"/>
<path d="M32.4931 7.13368C32.4931 7.2551 30.7449 7.1868 27.678 7.84705C27.4218 7.90017 27.158 7.97606 26.8868 8.04436C26.6155 8.11266 26.3292 8.18096 26.0503 8.27203C25.764 8.3631 25.4701 8.46176 25.1687 8.55283C24.8673 8.66666 24.5583 8.77291 24.2419 8.87915C24.0685 8.90192 23.9103 8.96263 23.7596 9.03852C23.6014 9.11441 23.4506 9.19789 23.2924 9.28896C22.9759 9.45592 22.667 9.64565 22.2902 9.72154C22.1169 9.78984 21.936 9.85814 21.7703 9.94162C21.5969 10.0251 21.4312 10.1162 21.2579 10.2148C21.0845 10.3135 20.9112 10.4045 20.7455 10.5108C20.5797 10.617 20.4064 10.7233 20.233 10.8371C19.8864 11.0496 19.5323 11.2621 19.1706 11.4822C18.8089 11.6947 18.4547 11.9527 18.1307 12.2487C18.0553 12.3322 17.98 12.4081 17.8896 12.4839C17.8067 12.5598 17.7238 12.6281 17.6333 12.6964C17.4525 12.8254 17.2566 12.9469 17.0607 13.0683C16.8647 13.1821 16.6764 13.3263 16.503 13.4781C16.3297 13.6299 16.164 13.7968 16.0359 14.0093C15.3953 14.6999 14.687 15.3678 14.0314 16.1267C13.9335 16.2102 13.8431 16.2936 13.7526 16.3847C13.6622 16.4758 13.5718 16.5668 13.4964 16.6655C13.3307 16.8628 13.18 17.0677 13.0292 17.2802C12.871 17.4851 12.7504 17.7204 12.6073 17.9404C12.4716 18.1681 12.3209 18.3806 12.1853 18.6159C11.8161 19.0105 11.492 19.4507 11.2434 19.9364C10.9721 20.4145 10.7837 20.9381 10.5878 21.4693C10.3994 21.6894 10.2487 21.9323 10.1055 22.1751C10.0377 22.2966 9.96236 22.4256 9.90207 22.5546C9.84179 22.6836 9.78904 22.8202 9.7363 22.9492C9.63834 23.2224 9.54791 23.4956 9.48009 23.7764C9.41981 24.0648 9.3746 24.3608 9.34446 24.6567C9.2465 24.9299 9.17114 25.2183 9.08072 25.4991C8.99783 25.7799 8.89987 26.0607 8.83205 26.3567C8.7567 26.6451 8.68888 26.941 8.6286 27.237C8.57585 27.533 8.54571 27.8365 8.51557 28.1401C8.46282 28.4437 8.43268 28.7472 8.40254 29.0508C8.3724 29.3543 8.32718 29.6655 8.31965 29.9691C8.29704 30.2802 8.28197 30.5914 8.25183 30.9025C8.23676 31.2137 8.22922 31.5324 8.20662 31.8435C8.23676 32.1623 8.28197 32.4734 8.31211 32.7922C8.34225 33.1109 8.34979 33.4297 8.38747 33.7484C8.41007 34.0671 8.42514 34.3859 8.43268 34.7122C8.45528 35.0385 8.46282 35.3573 8.47036 35.6912C8.85466 36.9585 9.05811 38.2487 9.36706 39.5768C9.44995 39.9031 9.55545 40.2294 9.66848 40.5482C9.79658 40.8669 9.93975 41.1705 10.0829 41.4816L10.1884 41.7169L10.3014 41.9445C10.3768 42.0963 10.4522 42.2557 10.5275 42.4075C10.6631 42.7262 10.8139 43.0298 10.9344 43.3637C11.5599 44.6083 12.3511 45.7694 13.1724 46.9229C13.9561 48.1068 14.8754 49.2604 16.066 50.1179C17.1662 51.0741 18.3567 51.9165 19.5473 52.8044C20.9037 53.4191 22.1696 54.178 23.5335 54.8459C24.9426 55.3771 26.3668 55.9539 27.904 56.136C29.4111 56.4623 30.9559 56.4851 32.5081 56.5762C34.0604 56.6369 35.6278 56.5458 37.1122 56.136C37.8507 55.9235 38.5967 55.7566 39.3276 55.5668C39.6969 55.4834 40.0586 55.3619 40.4203 55.2557C40.6011 55.195 40.782 55.1494 40.9553 55.0736C41.1286 55.0052 41.3019 54.9294 41.4752 54.8535C41.6561 54.8079 41.8445 54.7548 42.0178 54.6941C42.1911 54.6258 42.3644 54.5575 42.5377 54.4816C42.711 54.4057 42.8843 54.3298 43.0501 54.2463L43.5399 53.9731L44.0297 53.6923C44.188 53.5937 44.3462 53.495 44.5044 53.3964C44.6627 53.2977 44.8209 53.2067 44.9792 53.108C45.1374 53.0169 45.2956 52.9107 45.4539 52.8196C46.6897 52.0076 47.9406 51.2031 48.9352 50.1331C49.9751 49.1162 50.9095 48.0233 51.8288 46.9381C52.1302 46.2779 52.5522 45.7163 52.9591 45.1471C53.1776 44.8663 53.366 44.5779 53.5619 44.2895C53.6599 44.1454 53.7503 43.9936 53.8407 43.8494C53.9236 43.6976 53.999 43.5382 54.0743 43.3789C54.2627 43.0829 54.436 42.7869 54.5717 42.4682C54.647 42.3088 54.7148 42.157 54.7827 41.9977L54.8882 41.7624C54.9183 41.6789 54.9484 41.603 54.9786 41.5196C55.0916 41.2008 55.2122 40.8745 55.3252 40.5557C55.4307 40.2294 55.5287 39.9107 55.6492 39.5919C55.815 38.9393 56.0335 38.3018 56.1993 37.6567C56.2445 37.4974 56.2822 37.338 56.3274 37.171C56.3651 37.0117 56.3952 36.8447 56.4254 36.6853C56.4555 36.526 56.4781 36.359 56.5007 36.1996L56.5309 35.9568C56.5309 35.8733 56.5384 35.7898 56.5459 35.7064C56.5911 35.38 56.6288 35.0613 56.6665 34.735C56.6816 34.4086 56.7042 34.0899 56.7192 33.7636C56.7419 33.4448 56.7343 33.1261 56.7569 32.7998C56.772 32.481 56.7946 32.1623 56.8097 31.8511C56.7645 31.5324 56.7494 31.2212 56.7419 30.9101C56.7193 30.5989 56.7117 30.2878 56.7117 29.9766C56.7117 29.6655 56.6816 29.3543 56.6514 29.0508C56.6213 28.7472 56.5836 28.4361 56.5007 28.1477C56.448 27.8441 56.3952 27.5482 56.3425 27.2522C56.2747 26.9562 56.2068 26.6678 56.139 26.3719C56.0787 26.0759 55.9883 25.7951 55.9205 25.5067C55.8451 25.2183 55.7773 24.9375 55.6869 24.6567C55.6492 24.3608 55.5889 24.0724 55.5061 23.7916C55.4156 23.5108 55.3101 23.2452 55.1971 22.9872C55.1368 22.8581 55.0841 22.7215 55.0163 22.6001C54.9484 22.4711 54.8806 22.3497 54.8203 22.2207C54.6847 21.9702 54.5641 21.7198 54.436 21.4693C54.1949 20.9685 53.9236 20.4828 53.6298 20.0274C53.3585 19.5569 53.0571 19.1092 52.8385 18.6235C52.2659 17.7355 51.7233 16.8325 50.9924 16.1419C50.8191 15.9597 50.6759 15.7548 50.5252 15.5575C50.3745 15.3602 50.2238 15.1629 50.0806 14.9656C49.9299 14.7682 49.7716 14.5861 49.5908 14.4267C49.41 14.2674 49.214 14.1308 48.9955 14.0245C48.8071 13.8803 48.6413 13.721 48.4756 13.554C48.3098 13.3946 48.1591 13.2125 47.9933 13.0607C47.8275 12.9013 47.6617 12.7496 47.4809 12.613C47.3905 12.5447 47.3001 12.4764 47.2096 12.4232C47.1117 12.3701 47.0137 12.317 46.9082 12.279C46.4938 12.1045 46.1547 11.8389 45.8081 11.596C45.6423 11.467 45.4765 11.338 45.3107 11.209C45.1449 11.08 44.9716 10.9737 44.7983 10.8675C44.625 10.7612 44.4517 10.6626 44.2784 10.5563C44.1051 10.4577 43.9317 10.3666 43.7584 10.2755C43.5851 10.1845 43.4193 10.0934 43.246 10.0023C43.0803 9.91126 42.9069 9.83537 42.7412 9.75948C41.2266 9.03852 39.8099 8.54524 38.5515 8.18855C38.235 8.10507 37.9336 8.02918 37.6397 7.95329C37.3458 7.8774 37.0595 7.83187 36.7882 7.77116C36.2457 7.64973 35.7484 7.58902 35.2962 7.51313C34.3995 7.3917 33.7063 7.31582 33.2391 7.28546C32.7719 7.23992 32.5308 7.20198 32.5308 7.17162C32.5308 7.13368 32.8322 7.11091 33.4124 7.08814C33.5556 7.08814 33.7213 7.07297 33.9022 7.08056C34.083 7.08056 34.279 7.09573 34.4975 7.10332C34.7085 7.11091 34.9421 7.1185 35.1907 7.13368C35.4394 7.15645 35.7031 7.1868 35.9819 7.20957C37.0972 7.33858 38.4762 7.55866 40.036 8.01401C41.5958 8.46935 43.3515 9.16754 45.1751 10.1996C45.3559 10.3059 45.5518 10.397 45.7402 10.4956C45.9286 10.6019 46.117 10.7081 46.3054 10.8144C46.6897 11.0268 47.0514 11.2849 47.3829 11.6112C47.4734 11.6795 47.5713 11.7402 47.6618 11.8085C47.7522 11.8768 47.8501 11.9451 47.9406 12.0134C48.1289 12.15 48.3173 12.2866 48.5132 12.4232C48.7092 12.5598 48.8825 12.7192 49.0709 12.871C49.2517 13.0304 49.425 13.1973 49.5908 13.3794C50.4498 13.8879 51.0527 14.7379 51.7082 15.5347C52.409 16.3088 52.9893 17.2195 53.675 18.0846C54.0216 18.5172 54.323 18.9953 54.5717 19.5038C54.8505 20.0047 55.0765 20.5283 55.378 21.0292C55.4759 21.3024 55.5663 21.5832 55.6794 21.8564C55.7321 21.993 55.7924 22.1296 55.8451 22.2662C55.8979 22.4028 55.9582 22.5394 56.0109 22.676C56.124 22.9492 56.2445 23.2224 56.3651 23.5032C56.4781 23.784 56.5987 24.0648 56.7268 24.338C56.8021 24.634 56.8624 24.9375 56.9453 25.2335C57.0207 25.5295 57.1262 25.8254 57.2015 26.129C57.2844 26.4326 57.3673 26.7361 57.4502 27.0397C57.518 27.3508 57.5783 27.662 57.6386 27.9731C57.6536 28.2919 57.6612 28.6182 57.6838 28.9369C57.7064 29.2557 57.7591 29.5744 57.7893 29.9008C57.8194 30.2271 57.8646 30.5458 57.9098 30.8722C57.9475 31.1985 57.9701 31.5248 58.0003 31.8587C58.0304 32.1926 58.0304 32.5266 58.0229 32.8605C58.0153 33.1944 58.0078 33.5359 57.9701 33.8698C57.94 34.2037 57.9098 34.5452 57.8797 34.8867C57.8345 35.2283 57.7968 35.5622 57.7667 35.9037C57.5331 37.2545 57.3145 38.6433 56.8624 39.9942C56.5309 41.3754 56.0034 42.7414 55.2348 43.9936C54.6244 45.3217 53.7955 46.5663 52.8988 47.7577C52.0624 49.0099 50.9773 50.08 49.8696 51.1348C49.3195 51.6661 48.7016 52.1366 48.0687 52.5768C47.7597 52.812 47.4357 53.0169 47.1267 53.2522C46.8178 53.4874 46.5013 53.7151 46.2074 53.9807C44.9038 54.8459 43.4646 55.5213 42.0027 56.1512C40.5107 56.7204 38.9659 57.1454 37.3911 57.5172C35.7634 57.6083 34.1735 57.8967 32.5308 57.9877C30.888 58.0485 29.2529 57.8587 27.6704 57.5172C26.073 57.2288 24.5282 56.7583 23.0588 56.1512C21.5517 55.6124 20.218 54.7472 18.8541 53.9807C18.515 53.791 18.1759 53.5861 17.8669 53.3508C17.558 53.1156 17.2415 52.8955 16.9476 52.6375C16.3448 52.1442 15.7872 51.6205 15.1919 51.1424C14.0239 50.1483 12.969 49.0327 12.1627 47.7653C11.7181 47.1658 11.3338 46.5283 10.9646 45.8832C10.7686 45.5721 10.6029 45.2458 10.4145 44.927C10.3241 44.7677 10.2261 44.6159 10.1206 44.4641C10.0226 44.3047 9.92468 44.1529 9.82672 44.0012C9.65341 43.6824 9.46502 43.3713 9.29924 43.0449C9.21636 42.8856 9.12593 42.7262 9.04304 42.5592L8.91494 42.3164C8.87726 42.2329 8.83959 42.1494 8.80191 42.066C8.65874 41.732 8.51557 41.3981 8.41007 41.0566C8.31211 40.7075 8.23676 40.3584 8.19908 39.9942C7.95795 39.3263 7.79971 38.6357 7.67914 37.9451C7.649 37.7706 7.61132 37.6036 7.58118 37.4291C7.55104 37.2545 7.52844 37.0876 7.49829 36.913C7.46815 36.7461 7.43801 36.5715 7.40033 36.4045L7.34005 36.1541L7.2873 35.9037C7.30237 35.5546 7.2873 35.2131 7.25716 34.8716C7.24209 34.5301 7.21195 34.1961 7.17427 33.8622C7.12906 33.5283 7.11399 33.1944 7.08385 32.8605C7.06124 32.5266 7.03864 32.1926 7.05371 31.8587C7.07631 31.5248 7.09138 31.1985 7.11399 30.8722C7.15167 30.5458 7.18181 30.2195 7.21195 29.9008C7.23456 29.5744 7.29484 29.2557 7.32498 28.9369C7.36266 28.6182 7.37773 28.2995 7.42294 27.9807C7.45308 27.662 7.49829 27.3433 7.55858 27.0397C7.6264 26.7285 7.70928 26.425 7.79217 26.1214C7.86753 25.8179 7.97302 25.5219 8.06345 25.2335C8.15387 24.9375 8.23676 24.6416 8.32718 24.3532C8.395 24.0572 8.48543 23.7612 8.59092 23.4804C8.70395 23.1996 8.83205 22.9264 8.96015 22.6608C9.02797 22.5242 9.08825 22.3876 9.14854 22.2586C9.21636 22.1296 9.28417 21.993 9.34446 21.864C9.47256 21.5984 9.57805 21.3252 9.67601 21.052C9.95482 20.5435 10.2035 20.0198 10.4898 19.5341C10.7611 19.0333 11.0701 18.5628 11.3865 18.115C11.4694 17.8418 11.6051 17.5989 11.7558 17.3637C11.9065 17.136 12.0647 16.9083 12.2531 16.7186C12.434 16.5213 12.6223 16.3316 12.8107 16.1343C12.9011 16.0356 12.9916 15.9445 13.0895 15.8535C13.18 15.7624 13.2704 15.6637 13.3608 15.5727C14.0616 14.8062 14.6192 13.9183 15.4782 13.4174C15.6214 13.2125 15.7872 13.0304 15.9605 12.8634C16.1338 12.6964 16.3147 12.5371 16.5106 12.4081C16.7065 12.2714 16.9024 12.1424 17.0983 12.021C17.1963 11.9603 17.2943 11.892 17.3922 11.8313C17.4902 11.7706 17.5881 11.7174 17.6861 11.6567C18.0779 11.4215 18.417 11.1331 18.7863 10.8902C18.9671 10.7612 19.1404 10.6398 19.3288 10.526C19.5097 10.4121 19.7056 10.3287 19.9015 10.2452C20.0597 10.1086 20.233 9.98715 20.4139 9.88849C20.5947 9.78984 20.7831 9.71395 20.9715 9.63806C21.1599 9.56217 21.3407 9.48628 21.5216 9.41039C21.7024 9.3345 21.8833 9.26619 22.0491 9.16754C22.4183 9.06129 22.7574 8.90192 23.0965 8.76532C23.2623 8.69702 23.428 8.62113 23.5938 8.55283C23.7596 8.48453 23.9178 8.41622 24.0836 8.37069C24.4001 8.24168 24.7241 8.12784 25.0331 8.02918C25.3496 7.9457 25.6585 7.8774 25.9599 7.81669C26.2538 7.73321 26.5477 7.68009 26.8265 7.61938C27.1053 7.56625 27.3766 7.49795 27.6403 7.46001C29.2152 7.17162 30.451 7.14886 31.2799 7.12609C32.1163 7.14127 32.5458 7.17162 32.5458 7.21716L32.4931 7.13368Z" fill="#0061EF"/>
<path d="M36.8621 18.4565C36.8847 18.373 37.2163 18.373 37.804 18.4792C37.902 18.4944 38.0075 18.5172 38.113 18.54C38.226 18.5551 38.3466 18.5703 38.4671 18.6234C38.55 18.7676 38.7836 18.5172 38.859 18.7221C38.972 18.8208 39.1303 18.8283 39.2885 18.8511C39.4467 18.8739 39.5522 19.0332 39.7482 19.0029C39.9893 18.8739 39.9667 19.3596 40.238 19.1926C40.4263 19.2154 40.5921 19.314 40.7579 19.4127C40.8559 19.648 41.1045 19.6024 41.3004 19.6783C41.3833 19.9515 41.6019 19.9895 41.8656 20.0046C41.8957 20.3537 42.0841 20.4448 42.4383 20.4144C42.5287 20.4903 42.6116 20.589 42.6869 20.6877C42.7698 20.7787 42.8603 20.8774 42.9884 20.9381C43.0336 20.9836 43.0788 21.0367 43.1315 21.0899C43.1767 21.143 43.222 21.1885 43.2672 21.2492L43.3275 21.3403L43.3802 21.4238C43.3802 21.4238 43.4179 21.4921 43.4329 21.5376C43.6816 21.5604 43.7494 21.6363 43.8097 21.864C43.87 21.8488 43.9227 21.8336 43.9604 21.8412C44.0056 21.8412 44.0433 21.8488 44.0735 21.8715C44.1111 21.8867 44.1413 21.9095 44.1789 21.9398C44.2166 21.9702 44.2468 22.0006 44.2844 22.0309C44.3221 22.0613 44.3673 22.0689 44.4125 22.0689C44.4578 22.0613 44.503 22.0461 44.5406 22.0233C44.6235 21.9778 44.6989 21.9398 44.7968 22.0006C44.9777 21.9702 45.1058 21.8412 45.264 21.7577C45.3093 21.7425 45.362 21.7349 45.4072 21.7122C45.4524 21.6894 45.4976 21.6666 45.5278 21.6287C45.5428 21.6135 45.5579 21.5907 45.573 21.5756C45.5805 21.5528 45.5956 21.53 45.6031 21.5073C45.6182 21.4617 45.6182 21.401 45.6031 21.3403C45.6483 21.1506 45.6257 20.9836 45.7388 20.8091C45.686 20.7635 45.6559 20.718 45.6333 20.6801C45.6107 20.6421 45.6031 20.5966 45.6031 20.5586C45.6031 20.4752 45.6257 20.3841 45.6408 20.2703C45.6182 20.2323 45.5956 20.1868 45.5805 20.1412C45.5579 20.0881 45.5353 20.0274 45.5052 19.9667C45.475 19.906 45.4524 19.8453 45.4147 19.7997C45.3771 19.7466 45.3243 19.7011 45.264 19.6707C45.1359 19.4355 44.8722 19.3216 44.7516 19.0636C44.6838 18.9422 44.6009 18.8283 44.5105 18.7297C44.4125 18.631 44.2995 18.5475 44.1639 18.5096C43.87 18.4413 43.7796 18.1226 43.5234 18.0087C43.4103 17.69 43.0411 17.7583 42.8527 17.5534C42.6191 17.432 42.4533 17.1815 42.167 17.1436C41.9183 17.0449 41.6697 16.9614 41.4738 16.7717C41.1121 16.9311 41.0442 16.4833 40.7805 16.4378C40.5997 16.2177 40.3058 16.2557 40.0948 16.1342C39.8461 16.0963 39.6879 15.8307 39.4166 15.861C39.1981 15.7548 38.9419 15.7927 38.7535 15.6182C38.4898 15.6865 38.3541 15.3602 38.113 15.3981C38.0075 15.3677 37.902 15.3374 37.7965 15.307C37.7438 15.2919 37.6985 15.2767 37.6458 15.2615C37.6081 15.2539 37.5704 15.2387 37.5328 15.2236C37.4725 15.1021 37.3821 15.0794 37.2992 15.1021C37.2615 15.1097 37.2163 15.1325 37.1786 15.1553C37.1409 15.178 37.1032 15.1932 37.0656 15.2084C36.9902 15.2084 36.9224 15.2615 36.8621 15.2994C36.832 15.3222 36.8018 15.3374 36.7642 15.345C36.7265 15.3526 36.6888 15.3526 36.6361 15.3374C36.5004 15.3905 36.312 15.4133 36.2744 15.5878C36.2442 15.6561 36.1312 15.6485 36.0483 15.6865C35.9654 15.7168 35.9127 15.7851 36.0182 15.9142C36.0182 15.99 35.9353 16.0204 35.875 16.0811C35.8147 16.1342 35.7695 16.2025 35.8674 16.286C35.9428 16.3695 35.9353 16.4226 35.8976 16.4833C35.8599 16.544 35.8072 16.6048 35.8072 16.6655C35.8072 16.7869 35.8072 16.9083 35.8373 17.0222C35.8901 17.2802 35.988 17.5003 36.1086 17.6748C36.2291 17.8494 36.3648 17.986 36.4778 18.0846C36.7189 18.2819 36.8847 18.373 36.8621 18.4413C36.8546 18.4792 36.7943 18.4944 36.6737 18.4868C36.5532 18.4868 36.3799 18.4489 36.1764 18.3502C35.9654 18.2516 35.7243 18.0846 35.5057 17.8114C35.3927 17.6824 35.3023 17.5154 35.2194 17.3333C35.1441 17.1436 35.0838 16.9387 35.0536 16.7034C35.0536 16.6123 35.0009 16.5137 34.9858 16.415C34.9707 16.3164 34.9707 16.2101 35.0687 16.1267C35.0988 15.9369 35.0612 15.6789 35.242 15.5195C35.1968 15.3753 35.242 15.2615 35.3324 15.178C35.4153 15.087 35.5284 15.0338 35.6112 14.9428C35.7695 14.7606 35.9955 14.6696 36.1689 14.4722C36.2065 14.4191 36.2593 14.3736 36.3196 14.3432C36.3799 14.3129 36.4401 14.2977 36.508 14.2825C36.6361 14.2597 36.7642 14.2446 36.8923 14.1763C37.1786 14.2598 37.4122 14.2142 37.7136 14.1307C37.7739 14.1763 37.8417 14.2066 37.9095 14.2218L37.9623 14.237C37.9623 14.237 37.9849 14.237 38 14.237C38.0226 14.237 38.0602 14.237 38.0828 14.2446C38.2034 14.2522 38.324 14.2446 38.437 14.2825C38.6103 14.5405 38.8741 14.4722 39.1303 14.4722C39.3865 14.4722 39.5899 14.6544 39.8386 14.6923C40.0646 14.8137 40.3359 14.8213 40.562 14.9504C40.8408 14.9579 41.097 15.0262 41.3004 15.2387C41.5717 15.2843 41.7978 15.4512 42.054 15.5727C42.3403 15.6258 42.5513 15.8307 42.8075 15.9521C43.0788 16.0508 43.1994 16.415 43.561 16.3847C43.8248 16.5137 44.0433 16.7338 44.307 16.878C44.5406 17.0753 44.7592 17.2878 45.038 17.4396C45.0907 17.6217 45.1887 17.7431 45.3168 17.8342C45.4374 17.9328 45.5956 18.0011 45.7312 18.0922C45.995 18.2895 46.1909 18.5551 46.3567 18.8359C46.4622 18.9649 46.5601 19.094 46.643 19.2382C46.6882 19.314 46.7259 19.3748 46.7636 19.4582C46.8088 19.5493 46.854 19.6328 46.8841 19.7314C46.9896 19.8984 47.0273 20.1033 47.0348 20.293C47.0424 20.3917 47.0424 20.4828 47.0499 20.5814C47.0575 20.6801 47.0575 20.7711 47.0801 20.8698C47.1027 20.9684 47.0876 21.0671 47.0801 21.1582C47.0575 21.2492 47.0273 21.3479 46.9896 21.4314C46.9143 21.6059 46.8239 21.7653 46.7786 21.955C46.6656 22.3117 46.4245 22.6532 46.0628 22.7898C45.9196 22.9037 45.7388 22.9568 45.573 23.0023C45.4072 23.0554 45.249 23.101 45.1058 23.2376C45.0229 23.2679 44.94 23.3059 44.8571 23.3438C44.7742 23.3818 44.6838 23.4121 44.5934 23.4273C44.503 23.4425 44.4125 23.4425 44.3221 23.4273C44.2317 23.3969 44.1488 23.3438 44.081 23.2603C43.9981 23.2603 43.9077 23.2452 43.8323 23.2148C43.757 23.1844 43.6816 23.1389 43.6063 23.101C43.5384 23.0554 43.4631 23.0099 43.3953 22.972C43.3275 22.934 43.2521 22.9036 43.1617 22.8885C43.124 22.7974 43.0712 22.7291 43.0185 22.6684C42.9658 22.6077 42.9055 22.5697 42.8377 22.5242C42.7774 22.4787 42.7096 22.4331 42.6417 22.3876C42.5815 22.3345 42.5212 22.2814 42.476 22.2206C42.4383 22.1523 42.4081 22.0764 42.378 22.0081C42.3705 21.9854 42.3629 21.9778 42.3629 21.9702L42.3479 21.9398C42.3479 21.9398 42.3328 21.8943 42.3177 21.8715C42.3026 21.826 42.2725 21.7881 42.2348 21.7577C42.1971 21.7198 42.167 21.697 42.1143 21.6742C41.9183 21.6059 41.8957 21.3555 41.7224 21.2492C41.6094 21.2341 41.5566 21.143 41.5039 21.0519C41.4511 20.9609 41.3909 20.8698 41.2703 20.8774C41.1271 20.7408 40.9387 20.6801 40.8031 20.5435C40.4942 20.7104 40.4866 20.3613 40.3284 20.2551C40.1852 20.1337 39.929 20.2778 39.8687 19.9971C39.6201 20.1337 39.5522 19.8832 39.4241 19.7694C39.3036 19.648 39.1001 19.739 39.0097 19.5645C38.8138 19.6631 38.7686 19.3748 38.6179 19.3823C38.5274 19.2382 38.3692 19.2837 38.2637 19.2154C38.1356 19.2154 38.0301 19.1623 37.9397 19.0712C37.8417 19.0257 37.7438 18.9801 37.6533 18.9422C37.1259 18.6993 36.8395 18.5475 36.8546 18.4641L36.8621 18.4565Z" fill="#0061EF"/>
<path d="M24.3929 21.5376C24.3929 21.5376 24.3929 21.5604 24.3854 21.568C24.3854 21.5832 24.3703 21.5908 24.3477 21.6059C24.3176 21.6363 24.2648 21.6666 24.197 21.7122C24.0614 21.7881 23.8579 21.8867 23.5942 22.0082C23.5037 22.0461 23.4133 22.0916 23.3078 22.1372C23.2099 22.1903 23.1044 22.251 22.9838 22.2814C22.8331 22.2206 22.8105 22.5622 22.6296 22.4483C22.4865 22.4483 22.3659 22.5394 22.2378 22.6305C22.1172 22.7215 21.9289 22.676 21.8158 22.8354C21.7555 23.0934 21.4165 22.7443 21.3712 23.063C21.2431 23.1845 21.0774 23.2528 20.9116 23.3211C20.678 23.2603 20.5876 23.4956 20.4369 23.6094C20.1731 23.5335 20.045 23.7157 19.9621 23.9434C19.6456 23.8295 19.4949 23.9965 19.51 24.3228C19.4422 24.3911 19.3518 24.4366 19.2764 24.5049C19.1935 24.5657 19.1332 24.6415 19.1182 24.7554C19.088 24.7933 19.073 24.8389 19.0428 24.8768C19.0202 24.9148 18.9976 24.9603 18.975 24.9982C18.9675 25.021 18.9524 25.0362 18.9449 25.0589L18.9298 25.0893L18.9072 25.1272C18.862 25.1955 18.8168 25.2563 18.764 25.3094C18.7339 25.6737 18.4475 25.9317 18.0858 25.9772C18.0406 26.0607 17.9879 26.129 17.92 26.1897C17.8522 26.2428 17.7769 26.2808 17.694 26.3111C17.6111 26.3415 17.5282 26.3491 17.4378 26.3567C17.3474 26.3567 17.2645 26.3567 17.174 26.3491C17.0836 26.3339 17.0083 26.3415 16.9254 26.3567C16.8425 26.3643 16.7596 26.3946 16.6692 26.4098C16.5863 26.425 16.4959 26.4326 16.4054 26.425C16.315 26.4098 16.2321 26.387 16.1568 26.3263C15.8252 26.2352 15.4711 26.129 15.1998 25.8786C15.1395 25.8027 15.0868 25.7344 15.034 25.6585C14.9813 25.5826 14.9285 25.5143 14.8833 25.4384C14.8532 25.4004 14.8306 25.3701 14.8004 25.3397C14.7703 25.3018 14.7477 25.2714 14.71 25.2411C14.6422 25.1804 14.5819 25.1121 14.4915 25.0514C14.386 24.8996 14.288 24.7326 14.2277 24.5505C14.1976 24.4594 14.1825 24.3608 14.1674 24.2697C14.1674 24.171 14.1674 24.0724 14.19 23.9813C14.077 23.7992 14.0544 23.5867 14.1072 23.3894C14.1524 23.192 14.2579 23.0099 14.386 22.8505C14.4161 22.7595 14.4613 22.6684 14.5141 22.5925C14.5668 22.5166 14.612 22.4635 14.6648 22.3952C14.7175 22.3345 14.7627 22.2662 14.8079 22.1979C14.8532 22.1296 14.8908 22.0613 14.9134 21.9778C15.1244 21.7349 15.245 21.4086 15.5313 21.2341C15.667 21.143 15.8026 21.0519 15.9156 20.9457C16.0362 20.847 16.1417 20.7332 16.2171 20.5814C16.3753 20.2779 16.7295 20.2323 16.948 20.0198C17.3021 20.0047 17.4076 19.6252 17.694 19.5265C17.9351 19.352 18.2516 19.3216 18.4475 19.094C18.6811 18.927 18.9147 18.7601 19.2011 18.7145C19.3216 18.3199 19.7361 18.5476 19.9546 18.3806C20.2485 18.3882 20.4369 18.1529 20.6931 18.0922C20.9191 17.9404 21.2205 18.0391 21.4165 17.8342C21.6651 17.7735 21.861 17.5762 22.1248 17.6141C22.3132 17.394 22.6221 17.5913 22.818 17.4244C22.9311 17.394 23.0441 17.3561 23.1571 17.3333L23.24 17.3105H23.2777L23.3078 17.2954H23.338C23.4058 17.2802 23.4811 17.2726 23.549 17.265C23.7072 17.3637 23.8278 17.3637 23.9634 17.3485C24.0312 17.3333 24.099 17.3257 24.1593 17.3181C24.2271 17.3105 24.295 17.303 24.3628 17.3181C24.4909 17.3561 24.6265 17.3637 24.7546 17.3864C24.8149 17.4016 24.8827 17.4244 24.9355 17.4547C24.9882 17.4927 25.041 17.5382 25.0711 17.6065C25.2821 17.7507 25.3951 17.9708 25.6212 18.077C25.7116 18.1529 25.7267 18.2971 25.7417 18.4185C25.7644 18.54 25.7945 18.6235 25.9829 18.6538C26.0507 18.7449 26.0432 18.8663 26.0356 18.9725C26.0281 19.0864 26.0356 19.1774 26.1562 19.2533C26.2692 19.3292 26.2768 19.4431 26.2542 19.5417C26.2315 19.6404 26.1713 19.739 26.1713 19.8301C26.1487 20.0122 26.111 20.1792 26.0507 20.3386C25.9226 20.6877 25.7267 20.9533 25.5232 21.143C25.3198 21.3327 25.1088 21.4466 24.943 21.5149C24.5964 21.6439 24.3929 21.6059 24.3778 21.5528C24.3552 21.4769 24.5662 21.3859 24.8375 21.1278C24.9731 20.9988 25.1163 20.8319 25.2369 20.6042C25.2972 20.4904 25.3424 20.3613 25.3801 20.2323C25.4102 20.0957 25.4253 19.9439 25.4253 19.7922C25.4253 19.7314 25.3801 19.6707 25.3499 19.61C25.3198 19.5493 25.3122 19.4962 25.365 19.4203C25.3574 19.352 25.3047 19.2989 25.267 19.2458C25.2293 19.1926 25.1917 19.1395 25.2067 19.056C25.0786 19.0484 25.041 19.0029 25.0184 18.9346C25.0033 18.8663 24.9882 18.7904 24.9505 18.7297C24.8526 18.6386 24.7697 18.4868 24.5964 18.4868C24.5512 18.502 24.5135 18.4868 24.4833 18.4793C24.4532 18.4641 24.4231 18.4413 24.3929 18.4185C24.3326 18.3806 24.2648 18.3275 24.1819 18.3578C24.0614 18.1985 23.8579 18.2288 23.7298 18.373C23.6846 18.3502 23.6469 18.3427 23.6017 18.3502H23.5866L23.5414 18.3654C23.5414 18.3654 23.4887 18.3882 23.4661 18.4034C23.3681 18.4489 23.2702 18.5172 23.1647 18.5476C22.8934 18.4185 22.7125 18.6159 22.5242 18.7676C22.3282 18.9118 22.072 18.8891 21.861 19.0105C21.6199 19.056 21.424 19.223 21.1829 19.2837C20.9869 19.4658 20.7759 19.5873 20.4971 19.5873C20.2937 19.7466 20.0375 19.8073 19.8039 19.9212C19.608 20.1033 19.3367 20.1413 19.1106 20.293C18.8996 20.4524 18.5379 20.3689 18.4249 20.7028C18.2139 20.8698 17.9577 20.9609 17.7618 21.1506C17.5282 21.2872 17.2946 21.4314 17.1288 21.6515C16.9555 21.6515 16.8425 21.735 16.7521 21.8412C16.6692 21.9474 16.6089 22.084 16.5411 22.2131C16.4054 22.4559 16.2095 22.6229 16.0362 22.8202C15.9684 22.9264 15.9006 23.0327 15.8328 23.1465L15.7348 23.2983C15.7122 23.3362 15.682 23.3742 15.667 23.4197C15.667 23.5184 15.6142 23.5867 15.5766 23.6777C15.5539 23.7157 15.5464 23.7688 15.5389 23.8143C15.5313 23.8599 15.5389 23.9054 15.5615 23.9509C15.5841 23.9965 15.5992 24.0344 15.5992 24.08C15.5992 24.1255 15.5992 24.171 15.5992 24.2166C15.5992 24.3076 15.6142 24.4063 15.6971 24.467C15.8403 24.596 15.9533 24.6871 16.0287 24.8768C16.0965 24.9299 16.1417 25.021 16.2171 25.0817C16.2849 25.1424 16.3828 25.1804 16.4883 25.1121C16.5335 25.1121 16.5788 25.0893 16.624 25.0817C16.6692 25.0665 16.7069 25.0362 16.7445 25.0286C16.7822 25.0134 16.8199 25.0058 16.8576 25.0286C16.8952 25.0438 16.9405 25.0817 16.9932 25.15C17.0309 25.1197 17.0686 25.1121 17.1138 25.1121C17.159 25.1121 17.2042 25.1121 17.2494 25.1121C17.2946 25.1121 17.3398 25.1121 17.3775 25.0893C17.4152 25.0665 17.4529 25.0438 17.4679 24.9906C17.5282 25.0134 17.5885 25.0134 17.6262 24.9906C17.6638 24.9679 17.7015 24.9375 17.7241 24.8996C17.7467 24.8616 17.7618 24.8161 17.7769 24.7782C17.7919 24.7326 17.807 24.6947 17.8372 24.6643C17.8673 24.634 17.8974 24.6036 17.9351 24.5808C17.9728 24.5353 18.0255 24.4746 18.0708 24.4215C18.116 24.3608 18.1536 24.3076 18.1913 24.2545C18.229 24.2014 18.2591 24.1331 18.2817 24.0648C18.3797 23.784 18.6811 23.7233 18.8394 23.5411C18.8921 23.4121 19.0127 23.3666 19.1257 23.3286C19.2463 23.2907 19.3518 23.2528 19.4045 23.1313C19.608 23.0251 19.7662 22.8657 19.9697 22.805C19.9998 22.4331 20.3314 22.6001 20.5122 22.5394C20.7006 22.4863 20.7684 22.1827 21.0321 22.3193C21.1 22.0309 21.3486 22.1448 21.5219 22.1296C21.7028 22.1296 21.7932 21.9171 21.9816 21.9778C22.072 21.7729 22.2981 21.9474 22.4111 21.8488C22.5769 21.9019 22.6749 21.7577 22.803 21.7425C22.9085 21.6666 23.029 21.6439 23.1571 21.6591C23.2702 21.6363 23.3756 21.6135 23.4736 21.5983C23.7675 21.5452 23.9935 21.5225 24.1518 21.5225C24.2271 21.5225 24.295 21.5225 24.3326 21.5376C24.3552 21.5376 24.3703 21.5452 24.3854 21.5528C24.3854 21.5528 24.3929 21.5604 24.4005 21.568V21.5756V21.5908L24.3929 21.5376Z" fill="#0061EF"/>
<path d="M32.606 35.7519C32.5231 35.7292 32.5231 35.3952 32.6286 34.8109C32.6437 34.7122 32.6663 34.606 32.6889 34.4921C32.7039 34.3783 32.719 34.2569 32.7718 34.1355C32.9149 34.052 32.6663 33.8167 32.8697 33.7408C32.9601 33.627 32.9752 33.4676 32.9978 33.3083C33.0204 33.1489 33.1787 33.0426 33.1485 32.8453C33.0204 32.6025 33.5027 32.6252 33.3294 32.352C33.352 32.1623 33.4499 31.9954 33.5479 31.8284C33.7815 31.7297 33.7363 31.4793 33.8116 31.282C34.0904 31.1985 34.1206 30.9784 34.1357 30.7128C34.4823 30.6825 34.5727 30.4927 34.5426 30.1436C34.6179 30.0526 34.7159 29.9691 34.8138 29.8932C34.9043 29.8097 35.0022 29.7262 35.0625 29.5896C35.1077 29.5441 35.1605 29.4986 35.2132 29.453C35.266 29.4075 35.3112 29.362 35.3715 29.3164L35.4619 29.2557L35.5448 29.2026C35.5448 29.2026 35.6126 29.1646 35.6578 29.1495C35.6804 28.899 35.7633 28.8307 35.9818 28.77C35.9667 28.7093 35.9517 28.6562 35.9517 28.6106C35.9517 28.5651 35.9592 28.5272 35.9818 28.4968C35.9969 28.4589 36.0195 28.4285 36.0496 28.3982C36.0798 28.3602 36.1099 28.3299 36.1401 28.2919C36.1702 28.254 36.1777 28.2084 36.1777 28.1629C36.1702 28.1174 36.1551 28.0718 36.1325 28.0339C36.0873 27.9504 36.0496 27.8745 36.1099 27.7759C36.0798 27.6013 35.9517 27.4647 35.8763 27.3053C35.8613 27.2598 35.8537 27.2067 35.8311 27.1611C35.8085 27.1156 35.7859 27.0701 35.7482 27.0397C35.7331 27.0245 35.7105 27.0094 35.6955 26.9942C35.6729 26.9866 35.6503 26.9714 35.6277 26.9638C35.5824 26.9487 35.5222 26.9487 35.4619 26.9638C35.2735 26.9183 35.1077 26.9411 34.9344 26.8272C34.8892 26.8803 34.844 26.9107 34.8063 26.9335C34.7686 26.9562 34.7234 26.9638 34.6857 26.9638C34.6028 26.9638 34.5124 26.9411 34.3994 26.9259C34.3617 26.9487 34.3165 26.9714 34.2713 26.9866C34.2185 27.0094 34.1583 27.0397 34.098 27.0625C34.0377 27.0928 33.9774 27.1156 33.9322 27.1536C33.8795 27.1991 33.8342 27.2446 33.8041 27.3053C33.5705 27.4343 33.4575 27.7 33.2013 27.8138C33.0807 27.8821 32.9677 27.9656 32.8697 28.0566C32.7718 28.1553 32.6889 28.2691 32.6512 28.4057C32.5834 28.7017 32.2669 28.7928 32.1539 29.0432C31.8374 29.1571 31.9052 29.5289 31.7017 29.7111C31.5812 29.9463 31.3325 30.1133 31.2948 30.4017C31.1969 30.6521 31.114 30.9025 30.9256 31.0998C31.0838 31.4641 30.6392 31.5324 30.594 31.798C30.3755 31.9802 30.4132 32.2686 30.2926 32.4886C30.2549 32.7391 29.9912 32.8984 30.0213 33.1717C29.9159 33.3917 29.9535 33.6498 29.7802 33.8395C29.848 34.1051 29.524 34.2417 29.5617 34.4921C29.5391 34.568 29.5165 34.6439 29.5014 34.7198L29.4713 34.8261L29.4261 34.9778C29.4261 34.9778 29.4336 34.9551 29.4411 34.9399C29.4261 34.9854 29.411 35.031 29.3959 35.0765C29.3356 35.1069 29.298 35.1448 29.2829 35.1903C29.2678 35.2359 29.2678 35.2738 29.2829 35.3118C29.2904 35.3497 29.3206 35.3952 29.3356 35.4332C29.3582 35.4711 29.3733 35.5091 29.3884 35.547C29.3884 35.6229 29.4411 35.6912 29.4863 35.7519C29.5089 35.7823 29.524 35.8126 29.5315 35.8506C29.5391 35.8885 29.5391 35.9265 29.524 35.9796C29.5768 36.1086 29.5994 36.3059 29.7727 36.3439C29.8405 36.3742 29.833 36.4881 29.8706 36.5715C29.9008 36.655 29.9686 36.7081 30.0967 36.6019C30.1721 36.6019 30.2022 36.6854 30.2625 36.7461C30.3152 36.8068 30.383 36.8523 30.4659 36.7537C30.5488 36.6778 30.6016 36.6854 30.6619 36.7233C30.7221 36.7613 30.7824 36.8144 30.8427 36.8144C30.9633 36.8144 31.0838 36.8144 31.1969 36.784C31.4531 36.7385 31.6716 36.6322 31.8449 36.5108C32.0182 36.3894 32.1539 36.2528 32.2518 36.139C32.4477 35.8961 32.5382 35.7292 32.606 35.7519C32.6361 35.7595 32.6587 35.8202 32.6512 35.9416C32.6512 36.0631 32.6135 36.2376 32.508 36.4425C32.4101 36.655 32.2443 36.8979 31.973 37.1104C31.8374 37.2242 31.6791 37.3153 31.4983 37.3987C31.3099 37.4746 31.1064 37.5353 30.8728 37.5657C30.7824 37.5657 30.6845 37.6188 30.5865 37.634C30.4885 37.6492 30.383 37.6492 30.3002 37.5505C30.2022 37.5353 30.0967 37.5353 29.9912 37.5202C29.8857 37.505 29.7802 37.467 29.6973 37.376C29.5542 37.4215 29.4411 37.376 29.3582 37.2849C29.2678 37.2014 29.2151 37.0876 29.1246 37.0117C28.9438 36.8523 28.8534 36.6247 28.6574 36.4501C28.5972 36.4122 28.5595 36.359 28.5293 36.2983C28.4992 36.2376 28.4841 36.1769 28.4691 36.1086C28.4465 35.9796 28.4314 35.8506 28.3636 35.7216C28.4465 35.4332 28.4012 35.1979 28.3184 34.8944C28.3711 34.8185 28.4012 34.7426 28.4163 34.6591V34.6212C28.4163 34.6212 28.4239 34.6212 28.4239 34.5984C28.4239 34.5756 28.4239 34.5604 28.4314 34.5377C28.4314 34.4921 28.4314 34.4542 28.4314 34.4087C28.4314 34.3252 28.4314 34.2417 28.4615 34.1582C28.7177 33.9837 28.6499 33.7181 28.6499 33.46C28.6499 33.202 28.8308 32.9971 28.8684 32.7467C28.989 32.519 28.9965 32.2458 29.1246 32.0181C29.1322 31.7373 29.2 31.4717 29.4185 31.2744C29.4637 31.0012 29.6295 30.7735 29.7501 30.5155C29.8028 30.2271 30.0063 30.0146 30.1268 29.7566C30.2248 29.4834 30.5865 29.362 30.5564 28.9977C30.6845 28.7321 30.903 28.5196 31.0462 28.2464C31.2421 28.0111 31.4531 27.791 31.6038 27.5102C31.7846 27.4647 31.9052 27.3585 31.9956 27.2294C32.0936 27.108 32.1614 26.9487 32.2518 26.8045C32.4477 26.5388 32.7115 26.3415 32.9903 26.1822C33.0506 26.129 33.1184 26.0835 33.1787 26.0304C33.2465 25.9848 33.3143 25.9393 33.3821 25.9014C33.4499 25.8558 33.5178 25.8179 33.6006 25.7724C33.6911 25.7268 33.774 25.6813 33.8644 25.6509C34.0302 25.5447 34.2336 25.5067 34.422 25.4991C34.52 25.4916 34.6104 25.4916 34.7083 25.484C34.8063 25.4764 34.8967 25.4764 34.9947 25.4536C35.0926 25.4308 35.1906 25.446 35.281 25.4536C35.3715 25.4764 35.4619 25.5067 35.5523 25.5447C35.7256 25.6206 35.8839 25.7116 36.0722 25.7572C36.4264 25.871 36.7655 26.1139 36.9011 26.4781C37.0142 26.6223 37.0594 26.8045 37.1121 26.9714C37.1649 27.1384 37.2101 27.2977 37.3457 27.4419C37.3759 27.5254 37.4135 27.6089 37.4512 27.6924C37.4889 27.7759 37.519 27.8669 37.5416 27.958C37.5567 28.0491 37.5567 28.1401 37.5416 28.2312C37.5115 28.3223 37.4587 28.4057 37.3759 28.474C37.3759 28.5575 37.3608 28.6486 37.3306 28.7245C37.3005 28.8004 37.2553 28.8763 37.2176 28.9522C37.1724 29.0205 37.1272 29.0963 37.0895 29.1646C37.0518 29.2329 37.0217 29.3088 37.0066 29.3999C36.9162 29.4379 36.8484 29.4834 36.7881 29.5365C36.7278 29.5896 36.6826 29.6503 36.6449 29.7186C36.5997 29.7794 36.5545 29.8477 36.5093 29.916C36.4565 29.9767 36.4038 30.0374 36.3435 30.0829C36.2757 30.1209 36.2003 30.1512 36.1325 30.1816C36.1099 30.1892 36.1024 30.1968 36.0948 30.1968L36.0647 30.2119C36.0647 30.2119 36.0195 30.2271 35.9969 30.2423C35.9517 30.2575 35.914 30.2878 35.8839 30.3258C35.8537 30.3637 35.816 30.3941 35.801 30.4472C35.7256 30.6445 35.4845 30.6673 35.379 30.8418C35.3639 30.9557 35.2735 31.0088 35.1831 31.0619C35.0926 31.115 35.0022 31.1757 35.0098 31.2972C34.8741 31.4414 34.8138 31.6311 34.6782 31.7677C34.844 32.0788 34.4974 32.0864 34.3919 32.2458C34.2713 32.39 34.4145 32.648 34.1357 32.7087C34.2713 32.9592 34.0226 33.0275 33.9096 33.1565C33.789 33.2779 33.8795 33.4828 33.7061 33.5739C33.8041 33.7712 33.5178 33.8167 33.5253 33.9685C33.3821 34.0596 33.4273 34.2189 33.3595 34.3252C33.3595 34.4542 33.3068 34.5604 33.2163 34.6515C33.1711 34.7502 33.1259 34.8488 33.0882 34.9399C32.8471 35.4711 32.6964 35.7595 32.6135 35.7443L32.606 35.7519Z" fill="#0061EF"/>
<path d="M45.8535 32.4431C45.9363 32.4279 46.0871 32.7163 46.3282 33.2475C46.3659 33.3386 46.4111 33.4297 46.4563 33.5359C46.509 33.6346 46.5693 33.7408 46.5995 33.8622C46.5392 34.014 46.8783 34.0368 46.7652 34.2189C46.7652 34.3631 46.8632 34.4845 46.9461 34.6136C47.0365 34.735 46.9913 34.9247 47.1495 35.031C47.4057 35.0917 47.0591 35.4332 47.3756 35.4787C47.4962 35.6077 47.564 35.7747 47.6318 35.9416C47.5715 36.1769 47.8051 36.268 47.9257 36.4197C47.8503 36.6854 48.0312 36.8144 48.2572 36.8903C48.1442 37.209 48.31 37.3608 48.634 37.3456C48.7018 37.4139 48.747 37.505 48.8149 37.5809C48.8751 37.6568 48.9505 37.7251 49.0635 37.7402C49.1012 37.7706 49.1464 37.7934 49.1841 37.8161C49.2218 37.8389 49.267 37.8617 49.3047 37.8844C49.3273 37.892 49.3423 37.9072 49.3649 37.9148L49.3951 37.93L49.4328 37.9527C49.493 37.9983 49.5609 38.0438 49.6136 38.0969C49.9753 38.1273 50.2315 38.4157 50.2692 38.7799C50.3521 38.8255 50.4199 38.8786 50.4802 38.9469C50.5329 39.0152 50.5706 39.0911 50.6007 39.1746C50.6309 39.258 50.6384 39.3415 50.6459 39.4326C50.6459 39.5237 50.6459 39.6071 50.6384 39.6982C50.6233 39.7893 50.6309 39.8652 50.6459 39.9486C50.6535 40.0321 50.6836 40.1156 50.6987 40.2067C50.7138 40.2977 50.7213 40.3812 50.7138 40.4723C50.6987 40.5634 50.6761 40.6468 50.6158 40.7227C50.5254 41.0566 50.4199 41.4133 50.1712 41.6789C50.0959 41.7397 50.028 41.7928 49.9527 41.8459C49.8773 41.899 49.8095 41.9521 49.7342 42.0053C49.6965 42.0356 49.6664 42.0584 49.6287 42.0887C49.591 42.1191 49.5609 42.1419 49.5307 42.1798C49.4704 42.2481 49.4026 42.3164 49.3423 42.3999C49.1916 42.5061 49.0258 42.6048 48.845 42.6655C48.7546 42.6959 48.6566 42.7186 48.5662 42.7262C48.4682 42.7262 48.3703 42.7262 48.2798 42.7035C48.1894 42.7566 48.0915 42.7945 47.9935 42.8021C47.8955 42.8173 47.79 42.8097 47.6996 42.7869C47.5037 42.7414 47.3229 42.6352 47.1646 42.5061C47.0742 42.4758 46.9838 42.4303 46.9009 42.3771C46.8255 42.324 46.7728 42.2785 46.705 42.2253C46.5769 42.1267 46.4488 42.028 46.283 41.9749C46.0418 41.7624 45.7178 41.641 45.5445 41.3526C45.4541 41.216 45.3637 41.0794 45.2582 40.9656C45.1602 40.8441 45.0396 40.7379 44.8965 40.662C44.5951 40.5026 44.5498 40.146 44.3389 39.9259C44.3238 39.5692 43.947 39.4629 43.8491 39.1746C43.6757 38.9317 43.6456 38.613 43.4195 38.4157C43.2538 38.1804 43.088 37.9451 43.0428 37.6568C42.6509 37.5353 42.877 37.1179 42.7112 36.8979C42.7187 36.6019 42.4852 36.4122 42.4249 36.1541C42.2742 35.9265 42.3721 35.6229 42.1687 35.4256C42.1084 35.1827 41.9125 34.9778 41.9501 34.7122C41.7316 34.5225 41.9275 34.2113 41.7618 34.014C41.7392 33.9305 41.7165 33.8547 41.6939 33.7712L41.6638 33.6498L41.6487 33.589L41.6261 33.4904C41.6261 33.4904 41.6261 33.5207 41.6337 33.5359C41.6186 33.4524 41.6111 33.369 41.6035 33.2855C41.7015 33.1261 41.7015 33.0047 41.6864 32.8681C41.6713 32.7998 41.6638 32.7315 41.6563 32.6632C41.6412 32.5949 41.6412 32.5266 41.6563 32.4583C41.6939 32.3293 41.7015 32.1927 41.7241 32.0636C41.7392 32.0029 41.7618 31.9346 41.7919 31.8815C41.8296 31.8284 41.8748 31.7753 41.9426 31.7449C42.0858 31.5324 42.3118 31.4186 42.4098 31.1909C42.4852 31.0998 42.6283 31.0847 42.7489 31.0695C42.8619 31.0467 42.9599 31.0164 42.9825 30.8266C43.0654 30.7583 43.1935 30.7659 43.299 30.7735C43.412 30.7735 43.5024 30.7735 43.5778 30.6521C43.6531 30.5307 43.7662 30.5307 43.8641 30.5534C43.9621 30.5762 44.06 30.6369 44.1505 30.6445C44.3313 30.6673 44.4971 30.7052 44.6553 30.7659C45.002 30.8949 45.2657 31.0923 45.4541 31.2972C45.6425 31.5021 45.7555 31.7145 45.8233 31.8815C45.9514 32.2306 45.9137 32.4355 45.861 32.4507C45.7856 32.4735 45.6952 32.261 45.439 31.9878C45.3109 31.8512 45.1451 31.6994 44.9191 31.5855C44.806 31.5248 44.6779 31.4793 44.5498 31.4413C44.4142 31.411 44.271 31.3958 44.1128 31.3958C44.0525 31.4034 43.9922 31.4413 43.9319 31.4717C43.8717 31.5021 43.8189 31.5096 43.7436 31.4565C43.6757 31.4641 43.623 31.5172 43.5702 31.5552C43.51 31.5931 43.4647 31.6235 43.3819 31.6159C43.3743 31.7449 43.3291 31.7829 43.2613 31.8056C43.1935 31.8208 43.1181 31.836 43.0578 31.8739C42.9674 31.9726 42.8167 32.0561 42.8167 32.2306C42.8242 32.2761 42.8167 32.3141 42.8092 32.3444C42.7941 32.3748 42.779 32.4052 42.7489 32.4355C42.7112 32.4962 42.6585 32.5645 42.6886 32.648C42.5304 32.7694 42.5605 32.9743 42.7037 33.1033C42.6735 33.1565 42.6735 33.202 42.6811 33.2551L42.1988 33.3841L42.5379 33.3234L42.6886 33.2931V33.2779V33.3007C42.6886 33.3007 42.7112 33.3386 42.7187 33.3538C42.7338 33.3841 42.7564 33.4221 42.7715 33.46C42.8092 33.5283 42.8468 33.5966 42.8695 33.6725C42.7338 33.9457 42.9373 34.1279 43.088 34.3176C43.2312 34.5149 43.2085 34.7729 43.3291 34.9854C43.3743 35.2283 43.5401 35.4256 43.6004 35.6684C43.7812 35.8657 43.9018 36.0782 43.9018 36.359C44.06 36.5639 44.1203 36.822 44.2334 37.0572C44.4142 37.2545 44.4519 37.5277 44.6026 37.7554C44.7608 37.9679 44.6779 38.3322 45.0095 38.446C45.1753 38.6585 45.2657 38.9165 45.4541 39.1138C45.5897 39.3491 45.7329 39.5844 45.9514 39.7513C45.9514 39.9259 46.0343 40.0397 46.1398 40.1308C46.2453 40.2143 46.3809 40.275 46.509 40.3433C46.7502 40.4799 46.9235 40.6772 47.1119 40.8517C47.2249 40.92 47.3229 40.9959 47.4283 41.0566L47.5791 41.1553C47.6167 41.1781 47.6544 41.2084 47.6996 41.2236C47.7976 41.2236 47.8729 41.2767 47.9558 41.3147C48.001 41.3374 48.0462 41.345 48.0915 41.3526C48.1367 41.3602 48.1819 41.3526 48.2271 41.3298C48.2723 41.3071 48.31 41.2919 48.3552 41.2919C48.4004 41.2919 48.4456 41.2919 48.4908 41.2919C48.5813 41.2919 48.6792 41.2843 48.7395 41.2008C48.8676 41.0566 48.958 40.9352 49.1464 40.8669C49.1992 40.7986 49.2896 40.7531 49.3499 40.6772C49.4101 40.6089 49.4478 40.5102 49.38 40.404C49.38 40.3585 49.3574 40.3129 49.3423 40.2674C49.3273 40.2218 49.2971 40.1839 49.2896 40.146C49.2745 40.108 49.267 40.0701 49.2896 40.0321C49.3047 39.9942 49.3423 39.9486 49.4101 39.8955C49.38 39.8576 49.3725 39.8196 49.3725 39.7741C49.3725 39.7286 49.3725 39.683 49.3725 39.6375C49.3725 39.592 49.3725 39.5464 49.3499 39.5085C49.3273 39.4705 49.3047 39.4326 49.2519 39.4174C49.2745 39.3567 49.2745 39.296 49.2519 39.258C49.2293 39.2201 49.1992 39.1821 49.1615 39.1594C49.1238 39.1366 49.0786 39.1214 49.0409 39.1063C48.9957 39.0911 48.958 39.0759 48.9279 39.0455L48.845 38.9469L48.8299 38.9317L48.8073 38.9165L48.7696 38.8786L48.6868 38.8103C48.6265 38.7648 48.5737 38.7268 48.521 38.6889C48.4682 38.6509 48.4004 38.6206 48.3326 38.5978C48.0538 38.4991 47.9935 38.1956 47.8051 38.0362C47.677 37.9831 47.6318 37.8617 47.5941 37.7478C47.5564 37.6264 47.5188 37.5202 47.3982 37.467C47.2927 37.2621 47.142 37.1028 47.0742 36.8979C46.705 36.8675 46.8707 36.5336 46.8104 36.3514C46.7577 36.1617 46.4563 36.0934 46.5844 35.8278C46.3056 35.7595 46.4111 35.5091 46.396 35.3345C46.396 35.1524 46.1775 35.0613 46.2453 34.8716C46.0418 34.7805 46.2152 34.5528 46.1172 34.439C46.1699 34.2721 46.0268 34.1734 46.0117 34.0444C45.9363 33.9381 45.9137 33.8167 45.9288 33.6877C45.9062 33.5739 45.8836 33.4676 45.8685 33.369C45.763 32.777 45.7706 32.4431 45.8535 32.4203V32.4431Z" fill="#0061EF"/>
<path d="M20.5636 49.3135C20.5636 49.3135 20.4656 49.2528 20.3978 49.1162C20.3224 48.9796 20.2245 48.7747 20.1039 48.5091C20.0662 48.418 20.021 48.3269 19.9758 48.2207C19.9231 48.122 19.8628 48.0158 19.8326 47.8944C19.8929 47.7426 19.5538 47.7198 19.6669 47.5377C19.6669 47.3935 19.5689 47.2721 19.486 47.143C19.3956 47.0216 19.4408 46.8319 19.2826 46.7256C19.0264 46.6649 19.373 46.3234 19.049 46.2779C18.9284 46.1489 18.8606 45.9819 18.7928 45.815C18.853 45.5797 18.627 45.4886 18.5064 45.3369C18.5818 45.0712 18.4009 44.9422 18.1749 44.8587C18.2879 44.54 18.1221 44.3882 17.7981 44.4034C17.7303 44.3351 17.6851 44.244 17.6172 44.1681C17.557 44.0923 17.4816 44.024 17.3686 44.0088C17.3309 43.9784 17.2857 43.9556 17.248 43.9329C17.2103 43.9101 17.1651 43.8873 17.1274 43.8646C17.1048 43.857 17.0898 43.8418 17.0672 43.8342L17.037 43.819L16.9993 43.7963C16.9391 43.7507 16.8712 43.7052 16.8185 43.6521C16.4568 43.6217 16.1931 43.3333 16.1554 42.9691C16.0725 42.9235 16.0047 42.8704 15.9444 42.8021C15.8917 42.7338 15.854 42.6579 15.8238 42.5744C15.8012 42.491 15.7862 42.4075 15.7786 42.3164C15.7786 42.2254 15.7786 42.1419 15.7862 42.0508C15.8012 41.9597 15.7862 41.8838 15.7786 41.8004C15.7711 41.7169 15.7409 41.6334 15.7259 41.5423C15.6957 41.3678 15.6882 41.1781 15.8088 41.0263C15.8992 40.6924 16.0047 40.3357 16.2533 40.0701C16.3212 40.0094 16.3965 39.9562 16.4719 39.9031C16.5472 39.85 16.615 39.7969 16.6904 39.7513C16.7281 39.721 16.7582 39.6982 16.7959 39.6679C16.826 39.6375 16.8637 39.6071 16.8939 39.5768C16.9541 39.5085 17.022 39.4402 17.0822 39.3567C17.2329 39.2505 17.3987 39.1518 17.5796 39.0911C17.67 39.0607 17.768 39.0456 17.8584 39.0304C17.9563 39.0304 18.0543 39.0304 18.1447 39.0531C18.2351 39 18.3331 38.9621 18.4386 38.9545C18.4913 38.9545 18.5366 38.9469 18.5893 38.9545C18.6345 38.9545 18.6873 38.9697 18.74 38.9772C18.9359 39.0228 19.1168 39.129 19.275 39.258C19.3655 39.2884 19.4483 39.3339 19.5312 39.3871C19.6066 39.4402 19.6593 39.4857 19.7271 39.5388C19.8552 39.6375 19.9833 39.7362 20.1416 39.7817C20.3827 39.9942 20.7067 40.1156 20.8801 40.404C20.9705 40.5406 21.0609 40.6772 21.1664 40.791C21.2644 40.9125 21.3849 41.0187 21.5281 41.0946C21.8295 41.254 21.8747 41.6106 22.0857 41.8307C22.1008 42.1874 22.4776 42.2937 22.5755 42.582C22.7488 42.8249 22.779 43.1436 23.005 43.3409C23.1708 43.5762 23.3366 43.8115 23.3818 44.0998C23.7736 44.2213 23.5476 44.6387 23.7134 44.8512C23.7058 45.1471 23.9394 45.3369 23.9997 45.5949C24.1504 45.8226 24.0524 46.1261 24.2559 46.3234C24.3162 46.5739 24.5121 46.7712 24.4744 47.0368C24.6929 47.2265 24.497 47.5377 24.6628 47.735C24.6929 47.8488 24.7306 47.9627 24.7532 48.0765L24.7758 48.16C24.7758 48.16 24.7834 48.2131 24.7909 48.251C24.7984 48.3193 24.8135 48.3952 24.8135 48.4635C24.7608 48.5394 24.7382 48.6153 24.7306 48.6836C24.7231 48.7519 24.7231 48.8126 24.7306 48.8809C24.7457 48.9492 24.7532 49.0175 24.7608 49.0858C24.7758 49.1541 24.7758 49.2224 24.7608 49.2907C24.7231 49.4197 24.7156 49.5564 24.6929 49.6854C24.6779 49.7461 24.6553 49.8144 24.6251 49.8675C24.5875 49.9206 24.5422 49.9737 24.4744 50.0041C24.3313 50.2166 24.1127 50.3304 24.0072 50.5581C23.9319 50.6492 23.7887 50.6568 23.6681 50.6795C23.5551 50.7023 23.4571 50.7326 23.4345 50.9224C23.3517 50.9907 23.2236 50.9831 23.1181 50.9755C23.005 50.9755 22.9146 50.9755 22.8393 51.0969C22.7639 51.2183 22.6509 51.2183 22.5529 51.1956C22.4549 51.1728 22.357 51.1121 22.2666 51.1045C22.0857 51.0817 21.9199 51.0438 21.7617 50.9831C21.4151 50.8541 21.1513 50.6568 20.9629 50.4519C20.7746 50.247 20.6615 50.0345 20.5937 49.8675C20.4656 49.5108 20.5033 49.3135 20.556 49.2983C20.6314 49.2756 20.7218 49.488 20.978 49.7613C21.1061 49.8979 21.2719 50.0496 21.498 50.1635C21.611 50.2242 21.7391 50.2697 21.8672 50.3077C22.0028 50.338 22.146 50.3532 22.2967 50.3532C22.357 50.3532 22.4173 50.3077 22.4776 50.2773C22.5378 50.247 22.5906 50.2394 22.6659 50.2925C22.7338 50.2849 22.7865 50.2318 22.8393 50.1938C22.892 50.1559 22.9447 50.1179 23.0276 50.1407C23.0352 50.0117 23.0879 49.9737 23.1482 49.951C23.216 49.9358 23.2914 49.9206 23.3517 49.8827C23.4421 49.784 23.5928 49.7005 23.5928 49.526C23.5853 49.4805 23.5928 49.4425 23.6079 49.4122C23.6229 49.3818 23.638 49.3514 23.6681 49.3211C23.7134 49.2604 23.7586 49.1921 23.7284 49.1086C23.8867 48.9872 23.8641 48.7823 23.7134 48.6533C23.736 48.6077 23.7435 48.5698 23.736 48.5242C23.736 48.5091 23.7284 48.4711 23.7134 48.4484C23.7058 48.4256 23.6907 48.4028 23.6832 48.3725C23.638 48.2738 23.5702 48.1751 23.54 48.0689C23.6681 47.7957 23.4647 47.6136 23.3215 47.4238C23.1859 47.2265 23.2009 46.9685 23.0804 46.756C23.0352 46.5132 22.8694 46.3158 22.8091 46.073C22.6283 45.8757 22.5077 45.6632 22.5077 45.3824C22.3495 45.1775 22.2892 44.9195 22.1761 44.6842C21.9953 44.4869 21.9576 44.2137 21.8069 43.986C21.6487 43.7735 21.7316 43.4092 21.4 43.2954C21.2342 43.0829 21.1438 42.8249 20.9554 42.6276C20.8198 42.3923 20.6766 42.1571 20.4581 41.9901C20.4581 41.8155 20.3752 41.7017 20.2772 41.6106C20.1717 41.5272 20.0361 41.4664 19.908 41.3981C19.6669 41.2615 19.5011 41.0642 19.3052 40.8897C19.1921 40.8214 19.0942 40.7531 18.9811 40.6848L18.8304 40.5785C18.7928 40.5558 18.7551 40.5254 18.7099 40.5102C18.6119 40.5102 18.5366 40.4571 18.4537 40.4192C18.4311 40.4116 18.4085 40.404 18.3859 40.3964C18.3632 40.3964 18.3406 40.3888 18.318 40.3812C18.2728 40.3736 18.2276 40.3812 18.1824 40.404C18.1372 40.4268 18.0995 40.4419 18.0543 40.4419C18.0091 40.4419 17.9639 40.4419 17.9187 40.4419C17.8282 40.4419 17.7303 40.4495 17.67 40.533C17.5419 40.6772 17.459 40.791 17.2631 40.8669C17.2103 40.9352 17.1199 40.9883 17.0596 41.0566C16.9918 41.1249 16.9617 41.2236 17.0295 41.3298C17.0295 41.4209 17.0898 41.512 17.1199 41.5879C17.135 41.6258 17.1425 41.6638 17.1199 41.7017C17.1048 41.7397 17.0672 41.7852 16.9993 41.8383C17.0295 41.8763 17.037 41.9142 17.037 41.9597C17.037 42.0053 17.037 42.0508 17.037 42.0963C17.037 42.1419 17.037 42.1874 17.0596 42.2254C17.0822 42.2633 17.1124 42.3012 17.1576 42.3164C17.135 42.3771 17.135 42.4378 17.1576 42.4758C17.1802 42.5137 17.2103 42.5517 17.248 42.5744C17.2857 42.5972 17.3309 42.6124 17.3686 42.6276C17.4138 42.6427 17.4515 42.6579 17.4816 42.6807L17.5645 42.7794L17.5796 42.7945L17.6022 42.8097L17.6399 42.8477L17.7227 42.916C17.783 42.9615 17.8358 42.9994 17.8885 43.0374C17.9413 43.0753 18.0091 43.1057 18.0769 43.1284C18.3557 43.2271 18.416 43.5307 18.5968 43.69C18.7249 43.7432 18.7702 43.8646 18.8078 43.9784C18.8455 44.0998 18.8832 44.2061 19.0038 44.2592C19.1092 44.4641 19.2675 44.6159 19.3278 44.8284C19.697 44.8587 19.5312 45.1927 19.599 45.3748C19.6518 45.5645 19.9457 45.6328 19.8176 45.8984C20.1039 45.9667 19.9909 46.2172 20.006 46.3917C20.006 46.5739 20.2245 46.6649 20.1567 46.8547C20.3601 46.9457 20.1868 47.1734 20.2848 47.2872C20.232 47.4542 20.3752 47.5528 20.3903 47.6819C20.4656 47.7881 20.4882 47.9095 20.4731 48.0385C20.4958 48.1524 20.5184 48.2586 20.5334 48.3573C20.5862 48.6533 20.6088 48.8809 20.6088 49.0403C20.6088 49.1997 20.6012 49.2907 20.541 49.2983L20.5636 49.3135Z" fill="#0061EF"/>
<path d="M23.4726 28.3602C23.4726 28.3981 23.4198 28.4437 23.3369 28.4892C23.2917 28.512 23.239 28.5272 23.1787 28.5575C23.1184 28.5879 23.043 28.6182 22.9677 28.6486C22.9149 28.6713 22.8622 28.7017 22.8019 28.7245C22.7718 28.7396 22.7492 28.7624 22.719 28.7776C22.6889 28.8004 22.6587 28.8079 22.6286 28.8231C22.5231 28.7472 22.5758 29.0584 22.4402 28.937C22.3498 28.9294 22.297 28.9977 22.2443 29.0736C22.1991 29.1495 22.0634 29.0963 22.0484 29.2405C22.0785 29.3544 22.0107 29.3316 21.9353 29.3164C21.8675 29.3012 21.7997 29.3012 21.8524 29.4378C21.8223 29.5441 21.747 29.5972 21.6716 29.6655C21.5736 29.6427 21.5435 29.6883 21.536 29.7414C21.5209 29.7945 21.536 29.8628 21.5134 29.9159C21.2948 29.8932 21.3024 30.045 21.3853 30.2043C21.0914 30.1816 21.0838 30.3333 21.2873 30.5155C21.2722 30.5686 21.2421 30.6141 21.2119 30.6673C21.1969 30.6976 21.1893 30.7204 21.1893 30.7507C21.1893 30.7811 21.2044 30.8115 21.227 30.8494C21.227 30.9025 21.227 30.9632 21.2345 31.0239C21.2345 31.0847 21.2345 31.1378 21.2119 31.1985C21.2948 31.2592 21.3476 31.3123 21.3551 31.3655C21.3551 31.3958 21.3551 31.4262 21.3325 31.4565C21.3174 31.4869 21.2948 31.5172 21.2572 31.5552C21.4606 31.6462 21.4154 31.7525 21.3551 31.9043C21.325 31.9802 21.3853 32.0257 21.438 32.0712C21.4983 32.1168 21.551 32.1547 21.5058 32.2458C21.5209 32.3065 21.5736 32.352 21.6113 32.4051C21.649 32.4583 21.6942 32.5038 21.7168 32.5645C21.7168 32.6025 21.7168 32.6404 21.7319 32.6784C21.7394 32.7163 21.7545 32.7467 21.7771 32.777C21.8148 32.8377 21.8751 32.8681 21.9881 32.8453C22.0559 32.8757 22.1162 32.8984 22.1765 32.9212C22.2368 32.9516 22.2744 33.0047 22.3046 33.0806C22.5231 32.9743 22.5758 33.1033 22.6663 33.2551C22.7341 33.2551 22.7868 33.3158 22.8471 33.3462C22.9074 33.3765 22.9752 33.4069 23.0506 33.3614C23.1184 33.3841 23.1862 33.3765 23.254 33.3614C23.3218 33.3462 23.3897 33.3462 23.4575 33.3917C23.5253 33.4221 23.6007 33.4448 23.676 33.4524C23.7438 33.4524 23.8192 33.4221 23.8719 33.3538C23.9247 33.2779 23.9925 33.2703 24.0603 33.2779C24.1281 33.2779 24.2035 33.2855 24.2638 33.2399C24.3617 33.3082 24.422 33.2551 24.4672 33.202C24.52 33.1489 24.5426 33.0654 24.6179 33.0654C24.6707 33.0274 24.7385 33.0047 24.7988 32.9819C24.8666 32.9591 24.9193 32.9136 24.9344 32.8301C24.9721 32.777 25.0022 32.7163 25.0399 32.6632C25.0625 32.6404 25.0851 32.6176 25.1077 32.5949C25.1303 32.5721 25.1605 32.5569 25.1981 32.5418C25.1153 32.3976 25.168 32.3672 25.2358 32.3368C25.3036 32.3065 25.4167 32.2989 25.4091 32.223C25.492 32.1927 25.5222 32.1319 25.5297 32.0712C25.5297 32.0029 25.5297 31.9346 25.5674 31.8815C25.5598 31.8132 25.6051 31.7677 25.6427 31.7145C25.6879 31.6614 25.703 31.6007 25.6578 31.5324C25.6729 31.5021 25.6729 31.4717 25.6729 31.4413C25.6729 31.411 25.6578 31.3806 25.6578 31.3503C25.6427 31.2896 25.6578 31.2364 25.703 31.1757C25.6277 31.115 25.6503 31.0619 25.6879 31.0012C25.7181 30.9405 25.7482 30.8798 25.6879 30.8266C25.6879 30.7963 25.6879 30.7659 25.6729 30.7432L25.6503 30.6597C25.6352 30.6066 25.6352 30.5534 25.6277 30.4927C25.7181 30.4016 25.7106 30.3409 25.6729 30.2954C25.6352 30.2499 25.5598 30.2271 25.5297 30.1816C25.5071 30.0677 25.3187 30.0677 25.4016 29.8932C25.379 29.8476 25.3715 29.7869 25.3564 29.7338C25.3413 29.6807 25.3112 29.6352 25.2434 29.6352C25.1981 29.6124 25.2283 29.5213 25.2283 29.4454C25.2283 29.3771 25.1981 29.3316 25.0625 29.4151C25.0098 29.4075 25.0173 29.324 25.0098 29.2633C24.9947 29.2026 24.9721 29.157 24.8741 29.2178C24.7008 29.324 24.746 29.1039 24.6782 29.0508C24.6179 28.9977 24.5501 28.9597 24.4823 28.9142C23.9021 28.5423 23.4424 28.474 23.4424 28.3374C23.4424 28.2995 23.4801 28.2691 23.5479 28.2388C23.6157 28.2084 23.7212 28.1705 23.8644 28.1705C24.1432 28.1401 24.5652 28.1705 25.055 28.3981C25.1454 28.4437 25.3413 28.3602 25.3489 28.5575C25.3941 28.5955 25.4619 28.603 25.5222 28.6258C25.5824 28.6486 25.6352 28.6865 25.6503 28.7624C25.7708 28.7245 25.8311 28.7624 25.8613 28.8231C25.8914 28.8838 25.9065 28.9673 25.9441 29.0204C25.9969 29.066 26.027 29.1343 26.0647 29.195C26.1024 29.2557 26.1476 29.3088 26.223 29.3392C26.4038 29.3999 26.3285 29.62 26.4641 29.7186C26.4189 29.9159 26.4942 30.0298 26.6675 30.1512C26.6374 30.2499 26.6525 30.3258 26.6977 30.3941C26.7203 30.432 26.7429 30.4699 26.7655 30.5079C26.7881 30.5458 26.7956 30.5838 26.8032 30.6293C26.7128 30.728 26.7203 30.8115 26.7429 30.8949C26.7655 30.9784 26.8258 31.0619 26.871 31.153C26.9162 31.244 26.8936 31.3351 26.8785 31.4262C26.871 31.4717 26.8635 31.5172 26.8559 31.5628C26.8484 31.6083 26.8409 31.6538 26.8559 31.6994C26.7956 31.8739 26.8333 32.0788 26.7504 32.261C26.7655 32.3672 26.758 32.4734 26.7278 32.5645C26.6977 32.6632 26.6299 32.7467 26.5394 32.8074C26.5244 32.9136 26.4716 32.9971 26.4189 33.0882C26.3661 33.1716 26.2908 33.2475 26.2305 33.331C26.2154 33.3841 26.1928 33.4297 26.1627 33.4752C26.1325 33.5131 26.0949 33.5511 26.0572 33.589C25.9818 33.6573 25.8989 33.7256 25.8236 33.8015C25.7633 33.885 25.6503 33.923 25.5448 33.9533C25.4393 33.9913 25.3639 34.0444 25.3262 34.1962C25.1605 34.3404 24.9344 34.3783 24.7536 34.4997L24.4295 34.5756C24.324 34.5984 24.2186 34.6363 24.1131 34.6894C23.985 34.5984 23.8795 34.5984 23.774 34.6211C23.6685 34.6439 23.563 34.7046 23.4499 34.7502C23.3369 34.7805 23.2239 34.7805 23.1109 34.7653C22.9978 34.7502 22.8923 34.7122 22.7793 34.6819C22.6663 34.6743 22.5608 34.6439 22.4553 34.6136C22.3498 34.5832 22.2443 34.5301 22.1463 34.4921C22.0333 34.4921 21.9429 34.4086 21.8524 34.3479C21.762 34.2872 21.6867 34.2113 21.5661 34.1886C21.4455 34.1734 21.3777 34.0823 21.3099 33.9988C21.2345 33.9154 21.1818 33.8243 21.0688 33.7864C20.9708 33.7408 20.8804 33.6801 20.805 33.6042C20.7674 33.5663 20.7372 33.5207 20.7071 33.4752C20.6845 33.4297 20.6619 33.3765 20.6543 33.3158C20.594 33.2324 20.5714 33.1261 20.5413 33.0274C20.5112 32.9288 20.4584 32.8453 20.3378 32.7998C20.2776 32.7163 20.1645 32.6632 20.0967 32.5797C20.0364 32.4962 20.0138 32.39 20.1269 32.2534C20.0666 32.1699 20.0741 32.0636 20.0816 31.9726C20.0816 31.8739 20.1042 31.7828 20.0214 31.6994C20.0666 31.6462 20.0892 31.6007 20.0967 31.5552C20.1042 31.5096 20.0967 31.4641 20.0816 31.4262C20.0515 31.3351 19.9912 31.2516 20.0063 31.1605C20.0289 31.0695 20.0666 30.986 20.0816 30.9025C20.0967 30.819 20.1118 30.7356 20.0816 30.6445C20.0666 30.599 20.059 30.5534 20.0666 30.5079C20.0741 30.4699 20.0967 30.4244 20.1193 30.3865C20.1645 30.3106 20.2097 30.2423 20.2248 30.1588C20.1947 30.0601 20.2625 29.9994 20.3228 29.9387C20.3831 29.878 20.4584 29.8249 20.4283 29.7262C20.5187 29.5972 20.5564 29.4454 20.6694 29.3468C20.5865 29.2026 20.6317 29.1419 20.7071 29.1039C20.7824 29.0736 20.8879 29.066 20.9407 29.028C21.001 28.9901 21.0085 28.9066 21.0386 28.8383C21.0612 28.77 21.114 28.7245 21.2345 28.7624C21.2044 28.641 21.2496 28.5803 21.3174 28.5651C21.3853 28.5499 21.4757 28.5651 21.536 28.5499C21.6641 28.5347 21.6716 28.3374 21.8298 28.3906C21.8449 28.1932 22.0559 28.3754 22.1162 28.2767C22.2443 28.3298 22.2895 28.2084 22.3799 28.2084C22.4176 28.1781 22.4553 28.1553 22.493 28.1477C22.5382 28.1477 22.5758 28.1477 22.6211 28.1705C22.6964 28.1705 22.7718 28.1553 22.832 28.1553C22.93 28.1553 23.0204 28.1629 23.0958 28.1705C23.1711 28.1781 23.2314 28.2008 23.2842 28.216C23.3821 28.254 23.4349 28.2919 23.4349 28.3298L23.4726 28.3602Z" fill="#0061EF"/>
<path d="M30.0275 11.5581C30.0275 11.6036 29.9822 11.6415 29.8918 11.6871C29.8466 11.7098 29.7939 11.7326 29.7336 11.7554C29.6733 11.7857 29.5979 11.8161 29.5226 11.8464C29.4698 11.8692 29.4171 11.8996 29.3568 11.9223C29.3267 11.9375 29.3041 11.9603 29.2739 11.9755C29.2438 11.9906 29.2136 12.0058 29.1835 12.0134C29.078 11.9375 29.1307 12.2487 28.9951 12.1272C28.9047 12.1197 28.8519 12.188 28.7992 12.2638C28.754 12.3397 28.6108 12.2866 28.6033 12.4308C28.6334 12.5446 28.5656 12.5219 28.4902 12.5067C28.4224 12.4915 28.3546 12.4915 28.4074 12.6281C28.3772 12.7344 28.3019 12.7875 28.2265 12.8482C28.1285 12.833 28.0984 12.871 28.0833 12.9317C28.0683 12.9848 28.0833 13.0531 28.0607 13.1062C27.8422 13.0835 27.8497 13.2352 27.9326 13.3946C27.6387 13.3643 27.6312 13.5236 27.8347 13.7058C27.8196 13.7589 27.7895 13.8044 27.7593 13.8575C27.7442 13.8879 27.7367 13.9107 27.7367 13.941C27.7367 13.9714 27.7518 14.0017 27.7744 14.0321C27.7744 14.0928 27.7744 14.1459 27.7895 14.2066C27.7895 14.2673 27.7895 14.3205 27.7668 14.3812C27.8497 14.4419 27.9025 14.495 27.91 14.5481C27.91 14.5785 27.91 14.6089 27.8874 14.6392C27.8723 14.6696 27.8497 14.6999 27.8121 14.7379C28.0155 14.8289 27.9703 14.9352 27.91 15.0945C27.8799 15.1704 27.9402 15.216 27.9929 15.2615C28.0532 15.307 28.1059 15.345 28.0607 15.4361C28.0758 15.4968 28.1285 15.5423 28.1662 15.5954C28.2039 15.6485 28.2491 15.6941 28.2717 15.7548C28.2717 15.7927 28.2717 15.8307 28.2868 15.8686C28.2943 15.9066 28.3094 15.9369 28.3245 15.9673C28.3621 16.028 28.4224 16.0584 28.5355 16.0356C28.6033 16.0584 28.6636 16.0887 28.7238 16.1115C28.7841 16.1418 28.8218 16.195 28.8519 16.2708C29.0705 16.1646 29.1232 16.2936 29.2136 16.4454C29.2815 16.4454 29.3342 16.5061 29.3945 16.5365C29.4548 16.5668 29.5226 16.5972 29.5979 16.5516C29.6658 16.5744 29.7336 16.5668 29.8014 16.5516C29.8692 16.5365 29.937 16.5365 30.0049 16.582C30.0727 16.6124 30.148 16.6351 30.2158 16.6427C30.2837 16.6427 30.359 16.6124 30.4118 16.5441C30.4645 16.4682 30.5323 16.4606 30.6001 16.4682C30.668 16.4758 30.7433 16.4758 30.8036 16.4302C30.9016 16.4985 30.9618 16.4454 31.0071 16.3923C31.0598 16.3391 31.0824 16.2557 31.1578 16.2557C31.2105 16.2177 31.2783 16.195 31.3386 16.1722C31.4064 16.1494 31.4592 16.1039 31.4742 16.0204L31.527 15.9369C31.527 15.9369 31.5647 15.8762 31.5797 15.8535C31.6023 15.8307 31.625 15.8079 31.6476 15.7927C31.6702 15.77 31.7003 15.7548 31.738 15.7396C31.6551 15.5954 31.7078 15.5651 31.7757 15.5423C31.8435 15.5119 31.9565 15.5044 31.949 15.4285C32.0319 15.3981 32.0545 15.3374 32.0695 15.2767C32.0695 15.2084 32.0695 15.1401 32.1072 15.0945C32.0997 15.0262 32.1449 14.9807 32.1826 14.9276C32.2278 14.8745 32.2504 14.8138 32.1976 14.7455C32.2052 14.7151 32.2127 14.6847 32.2127 14.6544C32.2127 14.624 32.1976 14.5937 32.1976 14.5633C32.1826 14.5026 32.1976 14.4495 32.2504 14.3888C32.175 14.3356 32.2052 14.2749 32.2353 14.2142C32.2655 14.1535 32.2956 14.0928 32.2353 14.0397L32.2202 13.9562L32.1976 13.8727C32.1826 13.8196 32.1826 13.7589 32.175 13.7058C32.2655 13.6147 32.2579 13.554 32.2202 13.516C32.1826 13.4705 32.1072 13.4477 32.0771 13.4022C32.0545 13.2884 31.8661 13.2884 31.949 13.1138C31.9264 13.0683 31.9188 13.0076 31.9038 12.962C31.8887 12.9089 31.8585 12.8634 31.7907 12.8634C31.7455 12.8406 31.7757 12.7495 31.7757 12.6737C31.7757 12.5978 31.7455 12.5598 31.6099 12.6433C31.5571 12.6357 31.5647 12.5522 31.5571 12.4915C31.5496 12.4308 31.5195 12.3853 31.4215 12.446C31.2482 12.5522 31.2934 12.3321 31.2256 12.279C31.1653 12.2259 31.0975 12.188 31.0297 12.1424C30.4494 11.7706 29.9898 11.7098 29.9898 11.5657C29.9898 11.5277 30.0275 11.4974 30.0953 11.467C30.1631 11.4366 30.2686 11.3987 30.4118 11.3987C30.6906 11.3683 31.1125 11.3987 31.6023 11.6264C31.6928 11.6719 31.8887 11.5884 31.8962 11.7857C31.9414 11.8237 32.0093 11.8313 32.0695 11.854C32.1298 11.8768 32.1826 11.9147 32.1976 11.9906C32.3182 11.9527 32.3785 11.9906 32.4086 12.0513C32.4388 12.1121 32.4538 12.1955 32.4915 12.2487C32.5443 12.2942 32.5744 12.3625 32.6121 12.4156C32.6498 12.4763 32.695 12.5295 32.7703 12.5598C32.9512 12.6205 32.8758 12.8406 33.0115 12.9393C32.9662 13.1366 33.0416 13.258 33.2149 13.3718C33.1772 13.4705 33.1998 13.5464 33.2451 13.6223C33.2677 13.6602 33.2903 13.6982 33.3129 13.7361C33.3279 13.7741 33.343 13.8196 33.3505 13.8575C33.2601 13.9562 33.2677 14.0397 33.2903 14.1232C33.3129 14.2066 33.3732 14.2901 33.4184 14.3736C33.456 14.4647 33.441 14.5557 33.4259 14.6468C33.4259 14.6923 33.4108 14.7379 33.4033 14.7834C33.3958 14.8289 33.3882 14.8745 33.4033 14.92C33.343 15.0945 33.3807 15.2995 33.2978 15.4816C33.3129 15.5878 33.3053 15.6941 33.2752 15.7927C33.2451 15.8838 33.1772 15.9673 33.0868 16.0356C33.0717 16.1418 33.019 16.2253 32.9662 16.3164C32.9135 16.4075 32.8381 16.4758 32.7779 16.5592C32.7628 16.6124 32.7402 16.6579 32.71 16.7034C32.6799 16.749 32.6422 16.7793 32.6046 16.8173L32.4915 16.9235C32.4538 16.9539 32.4086 16.9918 32.3785 17.0298C32.3182 17.1208 32.2052 17.1512 32.0997 17.1815C31.9942 17.2195 31.9188 17.2802 31.8812 17.4244C31.7154 17.5686 31.4893 17.6065 31.3085 17.7279L30.9844 17.8114C30.879 17.8342 30.7735 17.8721 30.668 17.9253C30.5399 17.8342 30.4344 17.8342 30.3213 17.8645C30.2158 17.8873 30.1103 17.948 29.9973 17.9936C29.8843 18.0239 29.7713 18.0239 29.6582 18.0087C29.5452 17.9936 29.4397 17.9556 29.3267 17.9253C29.2136 17.9177 29.1081 17.8873 29.0027 17.857C28.8972 17.8266 28.7917 17.7735 28.6937 17.7355C28.5807 17.7355 28.4902 17.6521 28.3998 17.5913C28.3094 17.5306 28.234 17.4547 28.1135 17.432C27.9929 17.4168 27.9251 17.3257 27.8573 17.2422C27.7819 17.1588 27.7292 17.0677 27.6161 17.0298C27.5182 16.9842 27.4278 16.9235 27.3524 16.8476C27.3147 16.8097 27.2846 16.7641 27.2544 16.7186C27.2318 16.6731 27.2168 16.6199 27.2017 16.5592C27.1414 16.4758 27.1188 16.3695 27.0962 16.2708C27.0661 16.1722 27.0133 16.0963 26.8927 16.0432C26.8325 15.9597 26.7194 15.9066 26.6592 15.8231C26.5989 15.7396 26.5763 15.6334 26.6893 15.4968C26.629 15.4133 26.6365 15.307 26.6441 15.2084C26.6441 15.1097 26.6667 15.0187 26.5838 14.9352C26.629 14.8821 26.6516 14.8365 26.6592 14.791C26.6667 14.7455 26.6592 14.6999 26.6441 14.6544C26.6139 14.5709 26.5537 14.4798 26.5612 14.3888C26.5838 14.2977 26.6215 14.2142 26.6365 14.1307C26.6516 14.0473 26.6667 13.9638 26.629 13.8727C26.6139 13.8272 26.6064 13.7816 26.6139 13.7437C26.6215 13.6982 26.6441 13.6602 26.6667 13.6223C26.7119 13.5464 26.7571 13.4781 26.7722 13.3946C26.742 13.2959 26.8099 13.2352 26.8701 13.1745C26.9304 13.1138 27.0058 13.0683 26.9756 12.962C27.0661 12.833 27.1037 12.6812 27.2168 12.5826C27.1339 12.4384 27.1791 12.3777 27.2544 12.3397C27.3298 12.3018 27.4353 12.3018 27.488 12.2638C27.5483 12.2259 27.5559 12.1424 27.586 12.0741C27.6086 12.0058 27.6614 11.9603 27.7819 11.9982C27.7518 11.8692 27.797 11.8161 27.8648 11.8009C27.9326 11.7857 28.0231 11.8009 28.0833 11.7933C28.2114 11.7781 28.219 11.5808 28.3772 11.634C28.3923 11.4366 28.6033 11.6188 28.6636 11.5201C28.7917 11.5732 28.8369 11.4518 28.9273 11.4518C28.965 11.4215 29.0026 11.3987 29.0403 11.3911C29.0855 11.3911 29.1232 11.3911 29.1684 11.4139C29.2438 11.4139 29.3116 11.3987 29.3794 11.3987C29.4774 11.3987 29.5678 11.4063 29.6432 11.4139C29.7185 11.4215 29.7788 11.4442 29.8315 11.4594C29.9295 11.4974 29.9822 11.5353 29.9822 11.5732L30.0275 11.5581Z" fill="#0061EF"/>
<path d="M35.9887 42.9084C35.9887 42.9539 35.936 42.9919 35.8531 43.0374C35.8079 43.0602 35.7551 43.0753 35.6948 43.1057C35.6346 43.136 35.5592 43.1664 35.4839 43.1968C35.4311 43.2195 35.3784 43.2499 35.3181 43.2726C35.2879 43.2878 35.2653 43.3106 35.2352 43.3258C35.2051 43.3409 35.1749 43.3561 35.1448 43.3637C35.0393 43.2878 35.0845 43.599 34.9564 43.4776C34.866 43.47 34.8132 43.5383 34.7605 43.6142C34.7153 43.69 34.5721 43.6369 34.5645 43.7811C34.5947 43.8949 34.5269 43.8722 34.4515 43.857C34.3837 43.8418 34.3159 43.8418 34.3762 43.9784C34.346 44.0771 34.2707 44.1378 34.1953 44.1985C34.0974 44.1833 34.0672 44.2213 34.0597 44.282C34.0446 44.3427 34.0597 44.4034 34.0371 44.4565C33.8185 44.4338 33.8261 44.5855 33.909 44.7449C33.6151 44.7222 33.6076 44.8739 33.811 45.0561C33.7959 45.1092 33.7658 45.1547 33.7357 45.2078C33.7206 45.2382 33.7131 45.261 33.7131 45.2913C33.7131 45.3217 33.7281 45.352 33.7507 45.3824C33.7507 45.4431 33.7507 45.4962 33.7583 45.5569C33.7583 45.6177 33.7583 45.6708 33.7357 45.7315C33.8185 45.7922 33.8713 45.8453 33.8788 45.8985C33.8788 45.9288 33.8788 45.9592 33.8562 45.9895C33.8412 46.0199 33.8185 46.0502 33.7809 46.0882C33.9843 46.1792 33.9391 46.2855 33.8713 46.4373C33.8412 46.5132 33.9014 46.5587 33.9617 46.6042C34.022 46.6498 34.0747 46.6877 34.0295 46.7788C34.0446 46.8395 34.0974 46.885 34.135 46.9381C34.1727 46.9913 34.2179 47.0368 34.2405 47.0975C34.2405 47.1355 34.2405 47.1734 34.2556 47.2114C34.2631 47.2493 34.2782 47.2797 34.2933 47.31C34.3309 47.3707 34.3912 47.4011 34.5043 47.3783C34.5721 47.4087 34.6324 47.4314 34.6926 47.4542C34.7529 47.4846 34.7906 47.5377 34.8207 47.6136C35.0393 47.5073 35.092 47.6363 35.1824 47.7881C35.2503 47.7881 35.303 47.8488 35.3633 47.8792C35.4236 47.9095 35.4914 47.9399 35.5743 47.8944C35.6421 47.9171 35.7099 47.9095 35.7777 47.8944C35.8456 47.8792 35.9134 47.8792 35.9812 47.9247C36.049 47.9551 36.1244 47.9778 36.1922 47.9854C36.26 47.9854 36.3354 47.9551 36.3881 47.8868C36.4409 47.8109 36.5087 47.8033 36.5765 47.8109C36.6443 47.8109 36.7197 47.8185 36.7799 47.7729C36.8779 47.8412 36.9382 47.7881 36.9834 47.735C37.0361 47.6819 37.0587 47.5984 37.1341 47.5984C37.1869 47.5604 37.2547 47.5377 37.315 47.5149C37.3828 47.4921 37.4355 47.4466 37.4506 47.3631C37.4883 47.31 37.5184 47.2493 37.5561 47.1962C37.5787 47.1734 37.6013 47.1506 37.6239 47.1355C37.6465 47.1127 37.6766 47.0975 37.7143 47.0823C37.6314 46.9381 37.6842 46.9078 37.752 46.8774C37.8198 46.8547 37.9329 46.8395 37.9253 46.7636C38.0082 46.7332 38.0383 46.6725 38.0459 46.6118C38.0459 46.5435 38.0459 46.4828 38.0836 46.4297C38.076 46.3614 38.1212 46.3158 38.1589 46.2627C38.2041 46.2096 38.2192 46.1489 38.174 46.0806C38.1815 46.0502 38.1891 46.0199 38.1815 45.9895C38.1815 45.9592 38.1664 45.9288 38.1664 45.8985C38.1514 45.8377 38.1664 45.7846 38.2192 45.7239C38.1438 45.6632 38.1664 45.6101 38.2041 45.5494C38.2343 45.4886 38.2644 45.4279 38.2041 45.3748C38.2041 45.3445 38.2041 45.3141 38.1891 45.2913L38.1664 45.2078C38.1514 45.1547 38.1514 45.1016 38.1438 45.0409C38.2343 44.9498 38.2267 44.8891 38.1891 44.8512C38.1514 44.8056 38.076 44.7829 38.0459 44.7373C38.0233 44.6235 37.8349 44.6235 37.9178 44.4489C37.8952 44.4034 37.8876 44.3427 37.8726 44.2896C37.8575 44.2365 37.8274 44.1909 37.7595 44.1909C37.7143 44.1682 37.7445 44.0771 37.7445 44.0012C37.7445 43.9253 37.7143 43.8798 37.5787 43.9632C37.5259 43.9557 37.5335 43.8722 37.5259 43.8191C37.5184 43.7583 37.4883 43.7128 37.3903 43.7735C37.217 43.8722 37.2622 43.6597 37.1944 43.6066C37.1341 43.5534 37.0587 43.5155 36.9985 43.47C36.4182 43.0981 35.9586 43.0374 35.9586 42.8932C35.9586 42.8553 35.9887 42.8249 36.0641 42.7945C36.1319 42.7642 36.2374 42.7262 36.373 42.7262C36.6518 42.6959 37.0738 42.7262 37.5636 42.9539C37.654 42.9994 37.85 42.916 37.8575 43.1133C37.9027 43.1512 37.9705 43.1588 38.0308 43.1816C38.0911 43.2043 38.1438 43.2423 38.1589 43.3182C38.2795 43.2802 38.3398 43.3182 38.3699 43.3789C38.4 43.4396 38.4151 43.5231 38.4528 43.5762C38.5055 43.6217 38.5357 43.69 38.5734 43.7432C38.611 43.8039 38.6562 43.857 38.7316 43.8949C38.9124 43.9557 38.8371 44.1757 38.9727 44.2744C38.92 44.4717 39.0029 44.5931 39.1762 44.707C39.1385 44.8056 39.1611 44.8815 39.2063 44.9574C39.2289 44.9954 39.2515 45.0333 39.2741 45.0712C39.2968 45.1092 39.3043 45.1471 39.3118 45.1927C39.2214 45.2913 39.2289 45.3748 39.2515 45.4583C39.2741 45.5418 39.3344 45.6252 39.3796 45.7087C39.4249 45.7998 39.4022 45.8909 39.3872 45.9819C39.3872 46.0275 39.3721 46.073 39.3646 46.1185C39.3646 46.1641 39.3495 46.2096 39.3646 46.2551C39.3043 46.4297 39.342 46.6346 39.2591 46.8167C39.2741 46.923 39.2666 47.0292 39.2365 47.1203C39.2063 47.2189 39.1385 47.3024 39.0481 47.3631C39.033 47.4694 38.9803 47.5529 38.9275 47.6439C38.8748 47.7274 38.7994 47.8033 38.7391 47.8868C38.7241 47.9399 38.7015 47.9854 38.6713 48.031C38.6412 48.0689 38.6035 48.1069 38.5658 48.1448C38.4905 48.2131 38.4076 48.2814 38.3322 48.3573C38.2719 48.4408 38.1589 48.4787 38.0534 48.5091C37.9479 48.547 37.8726 48.6077 37.8349 48.7519C37.6691 48.8961 37.4431 48.9341 37.2622 49.0555L36.9382 49.1314C36.8327 49.1541 36.7272 49.1921 36.6217 49.2452C36.4936 49.1541 36.3881 49.1541 36.2826 49.1845C36.1771 49.2073 36.0716 49.268 35.9586 49.3135C35.8456 49.3439 35.7325 49.3439 35.6195 49.3287C35.5065 49.3135 35.401 49.2756 35.2879 49.2452C35.1749 49.2376 35.0694 49.2073 34.9639 49.1769C34.8584 49.1466 34.7605 49.0934 34.655 49.0555C34.5419 49.0555 34.4515 48.972 34.3611 48.9113C34.2707 48.8506 34.1953 48.7747 34.0823 48.7519C33.9617 48.7367 33.8939 48.6457 33.8261 48.5622C33.7507 48.4787 33.698 48.3877 33.5849 48.3497C33.487 48.3042 33.3966 48.2435 33.3212 48.1676C33.2835 48.1296 33.2534 48.0841 33.2233 48.0386C33.2006 47.993 33.1856 47.9399 33.1705 47.8792C33.1102 47.7957 33.0876 47.6895 33.065 47.5908C33.0349 47.4921 32.9821 47.4087 32.8616 47.3631C32.8013 47.2872 32.6882 47.2265 32.628 47.1431C32.5677 47.0596 32.5451 46.9533 32.6581 46.8167C32.5978 46.7332 32.6054 46.627 32.6129 46.5283C32.6129 46.4297 32.6355 46.3386 32.5526 46.2551C32.5978 46.202 32.6204 46.1565 32.628 46.1034C32.6355 46.0578 32.628 46.0123 32.6129 45.9743C32.5827 45.8909 32.5225 45.7998 32.5375 45.7087C32.5601 45.6177 32.5978 45.5342 32.6129 45.4507C32.628 45.3672 32.643 45.2837 32.6129 45.1927C32.5903 45.1471 32.5903 45.1016 32.5978 45.0637C32.6054 45.0181 32.628 44.9802 32.6506 44.9422C32.6958 44.8663 32.741 44.798 32.7485 44.7146C32.7184 44.6159 32.7862 44.5552 32.8465 44.4945C32.9068 44.4338 32.9821 44.3882 32.9444 44.282C33.0349 44.153 33.0725 44.0088 33.1856 43.9025C33.1027 43.7583 33.1479 43.6976 33.2233 43.6597C33.2986 43.6293 33.4041 43.6217 33.4644 43.5838C33.5247 43.5459 33.5322 43.4624 33.5623 43.3941C33.585 43.3258 33.6377 43.2802 33.7583 43.3182C33.7281 43.1892 33.7733 43.136 33.8412 43.1209C33.909 43.1057 33.9994 43.1209 34.0597 43.1133C34.1878 43.0981 34.2028 42.9008 34.3536 42.9539C34.3686 42.7566 34.5796 42.9311 34.6399 42.8401C34.768 42.8932 34.8132 42.7718 34.9036 42.7718C34.9413 42.7414 34.979 42.7186 35.0167 42.7111C35.0543 42.7111 35.0996 42.7111 35.1448 42.7338C35.2201 42.7338 35.2955 42.7187 35.3558 42.7187C35.4537 42.7187 35.5441 42.7262 35.6195 42.7338C35.6949 42.7414 35.7551 42.7642 35.8079 42.7794C35.9058 42.8097 35.9586 42.8553 35.9586 42.8932L35.9887 42.9084Z" fill="#0061EF"/>
<path d="M50.1472 26.1138C50.1472 26.1594 50.102 26.1973 50.0116 26.2428C49.9664 26.2656 49.9136 26.2884 49.8533 26.3111C49.7931 26.3415 49.7177 26.3718 49.6423 26.4022C49.5896 26.425 49.5368 26.4553 49.4766 26.4781C49.4464 26.4933 49.4238 26.516 49.3937 26.5312C49.3635 26.5464 49.3334 26.5616 49.3033 26.5692C49.1978 26.4933 49.2505 26.8044 49.1149 26.683C49.0244 26.6754 48.9717 26.7437 48.9189 26.8196C48.8737 26.8955 48.7306 26.8424 48.723 26.9866C48.7532 27.1004 48.6854 27.0776 48.61 27.0624C48.5422 27.0473 48.4744 27.0473 48.5271 27.1839C48.497 27.2901 48.4216 27.3432 48.3463 27.4115C48.2483 27.3888 48.2182 27.4343 48.2106 27.495C48.1956 27.5481 48.2106 27.6164 48.188 27.6696C47.9695 27.6468 47.9695 27.7986 48.0599 27.9504C47.766 27.9276 47.7585 28.0794 47.962 28.2615C47.9469 28.3146 47.9167 28.3602 47.8866 28.4133C47.8715 28.4361 47.864 28.4664 47.864 28.4968C47.864 28.5271 47.8791 28.5575 47.9017 28.5878C47.9017 28.6486 47.9017 28.7017 47.9092 28.7624C47.9092 28.8231 47.9092 28.8762 47.8866 28.9369C47.977 28.9976 48.0222 29.0508 48.0298 29.1039C48.0298 29.1342 48.0222 29.1646 48.0072 29.195C47.9921 29.2253 47.9695 29.2557 47.9318 29.2936C48.1353 29.3847 48.0901 29.4909 48.0298 29.6427C47.9996 29.7186 48.0599 29.7641 48.1202 29.8097C48.1805 29.8552 48.2332 29.8932 48.188 29.9842C48.2031 30.0449 48.2558 30.0905 48.2935 30.1436C48.3312 30.1967 48.3764 30.2422 48.399 30.303C48.399 30.3409 48.399 30.3789 48.4141 30.4168C48.4216 30.4547 48.4367 30.4851 48.4518 30.5155C48.4894 30.5762 48.5497 30.6065 48.6627 30.5838C48.7306 30.6065 48.7908 30.6369 48.8511 30.6596C48.9114 30.69 48.9491 30.7431 48.9792 30.819C49.1978 30.7128 49.2505 30.8418 49.3409 30.9936C49.4087 30.9936 49.4615 31.0543 49.5218 31.0846C49.5821 31.115 49.6499 31.1453 49.7252 31.0998C49.793 31.1226 49.8609 31.115 49.9287 31.0998C49.9965 31.0846 50.0643 31.0846 50.1321 31.1302C50.2 31.1605 50.2753 31.1833 50.3431 31.1909C50.4109 31.1909 50.4863 31.1605 50.539 31.0922C50.5918 31.0163 50.6596 31.0087 50.7274 31.0163C50.7953 31.0163 50.8706 31.0239 50.9309 30.9784C51.0288 31.0467 51.0891 30.9936 51.1343 30.9404C51.1796 30.8873 51.2097 30.8038 51.285 30.8038C51.3378 30.7659 51.4056 30.7431 51.4659 30.7204C51.5337 30.6976 51.5865 30.6521 51.6015 30.5686C51.6392 30.5155 51.6694 30.4547 51.707 30.4016C51.7296 30.3789 51.7522 30.3561 51.7748 30.3409C51.7975 30.3181 51.8276 30.303 51.8653 30.2878C51.7824 30.1436 51.8351 30.1132 51.9029 30.0829C51.9708 30.0525 52.0838 30.0449 52.0763 29.969C52.1592 29.9387 52.1893 29.878 52.1968 29.8173C52.1968 29.749 52.1968 29.6807 52.2345 29.6351C52.227 29.5668 52.2722 29.5213 52.3099 29.4682C52.3551 29.415 52.3777 29.3543 52.3249 29.286C52.3325 29.2557 52.34 29.2253 52.34 29.195C52.34 29.1646 52.3249 29.1342 52.3249 29.1039C52.3099 29.0432 52.3249 28.9901 52.3777 28.9293C52.3023 28.8762 52.3249 28.8155 52.3626 28.7548C52.4003 28.6941 52.4229 28.6334 52.3626 28.5803L52.3475 28.4968L52.3249 28.4133C52.3099 28.3602 52.3099 28.2995 52.3023 28.2463C52.3927 28.1553 52.3852 28.1021 52.3475 28.0566C52.3099 28.0111 52.2345 27.9883 52.2044 27.9428C52.1818 27.8289 51.9934 27.8289 52.0763 27.6544C52.0537 27.6089 52.0461 27.5481 52.0311 27.5026C52.016 27.4495 51.9858 27.404 51.918 27.404C51.8728 27.3812 51.9029 27.2901 51.9029 27.2142C51.9029 27.1383 51.8728 27.0928 51.7372 27.1839C51.6844 27.1763 51.692 27.1004 51.6769 27.0397C51.6694 26.979 51.6392 26.9334 51.5413 26.9941C51.3679 27.1004 51.4131 26.8803 51.3453 26.8272C51.285 26.7741 51.2172 26.7361 51.1494 26.6906C50.5692 26.3187 50.1095 26.258 50.1095 26.1138C50.1095 26.0759 50.1397 26.0455 50.215 26.0152C50.2828 25.9848 50.3883 25.9469 50.5315 25.9469C50.8103 25.9165 51.2323 25.9469 51.7221 26.1745C51.8125 26.2201 52.0084 26.1366 52.016 26.3339C52.0612 26.3718 52.129 26.3794 52.1893 26.4022C52.2496 26.425 52.3023 26.4629 52.3174 26.5388C52.438 26.5009 52.4982 26.5388 52.5284 26.5995C52.5585 26.6602 52.5736 26.7437 52.6113 26.7968C52.664 26.8424 52.6942 26.9107 52.7318 26.9638C52.7695 27.0245 52.8147 27.0776 52.8901 27.1156C53.0709 27.1763 52.9956 27.3964 53.1312 27.495C53.086 27.6923 53.1614 27.8138 53.3347 27.9276C53.297 28.0263 53.3196 28.1021 53.3648 28.1704C53.3874 28.2084 53.41 28.2463 53.4326 28.2843C53.4552 28.3222 53.4628 28.3602 53.4703 28.4057C53.3799 28.5044 53.3874 28.5878 53.41 28.6713C53.4326 28.7548 53.4929 28.8383 53.5381 28.9218C53.5833 29.0128 53.5607 29.1039 53.5457 29.195C53.5381 29.2405 53.5306 29.286 53.523 29.3316C53.5155 29.3771 53.508 29.4226 53.523 29.4682C53.4628 29.6427 53.5004 29.8476 53.4176 30.0298C53.4326 30.136 53.4251 30.2422 53.3949 30.3409C53.3648 30.432 53.297 30.5155 53.2066 30.5838C53.1915 30.69 53.1387 30.7735 53.086 30.857C53.0332 30.948 52.9579 31.0163 52.8976 31.0998C52.8825 31.1529 52.8599 31.1985 52.8298 31.244C52.7997 31.2819 52.762 31.3199 52.7243 31.3578C52.6489 31.4261 52.5661 31.4944 52.4907 31.5703C52.4304 31.6614 52.3174 31.6918 52.2119 31.7221C52.1064 31.7601 52.0235 31.8132 51.9934 31.965C51.8276 32.1091 51.6015 32.1471 51.4207 32.2685L51.1042 32.3444C50.9987 32.3672 50.8932 32.4051 50.7877 32.4582C50.6596 32.3672 50.5541 32.3672 50.4486 32.3899C50.3431 32.4127 50.2376 32.4734 50.1246 32.519C50.0116 32.5493 49.8985 32.5493 49.7855 32.5341C49.6725 32.519 49.567 32.481 49.454 32.4507C49.3409 32.4431 49.2354 32.4127 49.1299 32.3824C49.0244 32.352 48.9265 32.2989 48.821 32.2609C48.708 32.2609 48.6175 32.1774 48.5271 32.1167C48.4367 32.056 48.3613 31.9801 48.2408 31.9574C48.1202 31.9422 48.0524 31.8511 47.9846 31.7676C47.9092 31.6842 47.8565 31.5931 47.751 31.5627C47.653 31.5172 47.5626 31.4565 47.4872 31.3806C47.4496 31.3427 47.4194 31.3047 47.3968 31.2516C47.3742 31.2061 47.3591 31.1529 47.3441 31.0922C47.2838 31.0087 47.2612 30.9025 47.2386 30.8038C47.2084 30.7052 47.1557 30.6217 47.0351 30.5762C46.9748 30.4927 46.8618 30.4396 46.794 30.3561C46.7337 30.2726 46.7111 30.1664 46.8241 30.0298C46.7638 29.9463 46.7714 29.84 46.7789 29.749C46.7789 29.6503 46.8015 29.5592 46.7186 29.4758C46.7638 29.4226 46.7864 29.3771 46.794 29.3316C46.8015 29.286 46.794 29.2405 46.7789 29.195C46.7488 29.1115 46.6885 29.0204 46.7036 28.9293C46.7262 28.8383 46.7638 28.7548 46.7789 28.6713C46.794 28.5878 46.809 28.5044 46.7789 28.4133C46.7563 28.3678 46.7563 28.3222 46.7638 28.2767C46.7714 28.2387 46.794 28.1932 46.8166 28.1553C46.8618 28.0794 46.907 28.0111 46.9221 27.9276C46.8919 27.8289 46.9598 27.7682 47.02 27.7075C47.0803 27.6468 47.1557 27.6013 47.1255 27.495C47.216 27.366 47.2536 27.2218 47.3667 27.1156C47.2838 26.9714 47.329 26.9107 47.4043 26.8727C47.4797 26.8424 47.5852 26.8348 47.6379 26.7968C47.6982 26.7589 47.7058 26.6754 47.7359 26.6071C47.7585 26.5388 47.8112 26.4933 47.9318 26.5312C47.9017 26.4022 47.9469 26.3491 48.0147 26.3339C48.0825 26.3187 48.1729 26.3339 48.2332 26.3187C48.3613 26.3035 48.3764 26.1062 48.5271 26.1594C48.5422 25.962 48.7532 26.1442 48.8135 26.0455C48.9416 26.0986 48.9868 25.9772 49.0772 25.9772C49.1149 25.9469 49.1525 25.9241 49.1902 25.9165C49.2279 25.9165 49.2731 25.9165 49.3183 25.9393C49.3937 25.9393 49.469 25.9241 49.5368 25.9241C49.6348 25.9241 49.7252 25.9317 49.8006 25.9393C49.8759 25.9469 49.9362 25.9696 49.989 25.9848C50.0869 26.0228 50.1397 26.0607 50.1397 26.0986L50.1472 26.1138Z" fill="#0061EF"/>
</g>
<defs>
<clipPath id="clip0_3484_38829">
<rect width="65" height="65" fill="white"/>
</clipPath>
</defs>
</svg>
