<svg width="75" height="65" viewBox="0 0 75 65" fill="none" xmlns="http://www.w3.org/2000/svg">
<path d="M51.6063 1.08331C61.9946 1.08331 70.4161 11.3422 70.4161 23.997C70.4159 35.1572 45.636 58.5204 37.1495 63.8844C36.7665 64.6037 36.29 65 35.7002 65C35.5682 65 35.4035 64.9647 35.2077 64.8995C35.0121 64.9646 34.8477 65 34.7158 65C34.1259 65 33.6488 64.6039 33.2658 63.8844C24.7787 58.5197 0.000188461 35.1569 0 23.997C0 11.3422 8.42144 1.08331 18.8098 1.08331C25.8481 1.08331 31.9825 5.79319 35.2077 12.7661C38.4328 5.79297 44.5678 1.08331 51.6063 1.08331Z" fill="#FFEDDE"/>
<path d="M20.6079 10.9029C20.6992 10.9859 19.6865 11.9487 18.35 14.0652C18.2338 14.2395 18.1342 14.4304 18.018 14.6213C17.9101 14.8122 17.7856 15.0114 17.6776 15.2272C17.5697 15.443 17.4618 15.6588 17.3456 15.8829C17.2377 16.1153 17.1298 16.3477 17.0053 16.5884C16.8309 16.8042 16.7811 17.0864 16.7064 17.3603C16.6317 17.6342 16.5736 17.9164 16.3827 18.1654C16.3163 18.2982 16.2582 18.431 16.2084 18.5804C16.1586 18.7215 16.117 18.8709 16.0755 19.0203C16.034 19.1697 15.9925 19.3191 15.9593 19.4768C15.9261 19.6345 15.8929 19.7922 15.8597 19.9499C15.8265 20.1076 15.785 20.2653 15.7435 20.423C15.702 20.5807 15.6605 20.7467 15.619 20.9044C15.5277 21.2281 15.4779 21.5684 15.4779 21.917C15.4945 22.0083 15.4945 22.0996 15.4945 22.1826C15.4945 22.2739 15.4862 22.3569 15.4696 22.4482C15.4364 22.6225 15.3866 22.7968 15.3368 22.9711C15.2371 23.3197 15.1707 23.6932 15.2869 24.0667C15.3285 24.8137 15.3035 25.5773 15.3534 26.3742C15.2205 27.1793 15.5194 27.9761 15.7103 28.7895C15.6937 29.2211 15.7435 29.6444 15.8846 30.0594C16.0008 30.4744 16.2084 30.8728 16.4076 31.2629C16.4076 31.4953 16.4408 31.7194 16.4906 31.9435C16.5155 32.0514 16.5404 32.1593 16.5736 32.2755C16.6068 32.3834 16.6566 32.483 16.6981 32.5909C16.7977 32.7984 16.9056 32.9976 17.0302 33.1885C17.1713 33.3794 17.3207 33.562 17.4867 33.7363C17.5863 33.9438 17.7025 34.143 17.8105 34.3505C17.9184 34.558 18.018 34.7655 18.1425 34.9647C18.2587 35.1639 18.3832 35.3714 18.516 35.5706C18.6572 35.7615 18.8149 35.9524 18.9726 36.1267C19.5537 36.8903 20.2012 37.6124 20.8652 38.3594C21.0645 38.5088 21.2803 38.6499 21.4795 38.8076C21.6787 38.957 21.8614 39.1313 22.0606 39.289C22.2515 39.455 22.4341 39.6293 22.6167 39.8036C22.8077 39.9779 22.9903 40.1605 23.1646 40.3514C24.1192 40.7913 24.9327 41.4055 25.8209 42.0031C26.0451 42.1442 26.2858 42.2687 26.5265 42.3766C26.7756 42.4762 27.0329 42.5592 27.2819 42.6505C27.531 42.7418 27.7966 42.8082 28.0539 42.9078C28.3029 43.0074 28.5603 43.0987 28.8093 43.2232C29.8469 43.5718 30.9344 43.7544 32.0384 43.9453C33.1341 44.186 34.288 44.3437 35.4252 44.0947C36.5708 43.9951 37.6997 43.7793 38.8618 43.6382C39.9493 43.1568 41.0782 42.9078 42.2238 42.5426C43.2946 42.0446 44.4401 41.6047 45.3781 40.8162C46.4075 40.1605 47.2625 39.2807 48.2005 38.4922C49.1136 37.6705 49.9603 36.7492 50.5248 35.6702C50.7987 35.1307 51.1308 34.6244 51.4379 34.1098C51.6039 33.8608 51.7367 33.5952 51.8861 33.3296C52.0356 33.0723 52.1518 32.7901 52.2597 32.5162C52.3427 32.3917 52.4257 32.2589 52.4921 32.1261C52.5585 31.9933 52.6166 31.8522 52.6664 31.7194C52.7162 31.5783 52.7744 31.4455 52.8159 31.3044C52.8574 31.1633 52.8989 31.0222 52.9321 30.8728L53.04 30.4412L53.1313 30.0096C53.1645 29.8685 53.1977 29.7274 53.2392 29.5863C53.2807 29.4452 53.3056 29.3041 53.3471 29.163C53.5796 28.0259 53.8701 26.8805 53.8037 25.7267C53.8037 24.5813 53.7124 23.4608 53.6543 22.3403C53.4052 21.8091 53.3388 21.2696 53.2641 20.7218C53.2392 20.4479 53.1977 20.174 53.1479 19.9001C53.123 19.7673 53.0981 19.6262 53.0649 19.4934C53.0234 19.3606 52.9819 19.2361 52.9321 19.1033C52.7246 18.016 52.1684 17.0698 51.7118 16.1236C51.4296 15.6754 51.2138 15.194 50.9564 14.7375C50.89 14.6213 50.8319 14.5051 50.7655 14.3972C50.6991 14.2893 50.6244 14.1814 50.5497 14.0735C50.475 13.9656 50.4003 13.866 50.3173 13.7581L50.1927 13.6087C50.1512 13.5589 50.1014 13.5174 50.0599 13.4676C49.9105 13.2601 49.7445 13.0609 49.5868 12.8617C49.4124 12.6708 49.2464 12.4882 49.0721 12.2973C48.9061 12.1064 48.7235 11.9321 48.5574 11.7495C48.3914 11.5669 48.2337 11.3677 48.0677 11.1768C47.8602 11.0357 47.6692 10.8697 47.4949 10.7037C47.3123 10.5377 47.138 10.3634 46.9636 10.1891C46.7976 10.0065 46.6067 9.85709 46.4241 9.69939C46.2415 9.54169 46.0505 9.39229 45.8347 9.28439C45.0627 8.71999 44.2409 8.26348 43.444 7.80698C43.2697 7.64928 43.0788 7.51648 42.8795 7.40028C42.6803 7.29238 42.4645 7.20938 42.257 7.12638C42.149 7.08488 42.0411 7.04338 41.9332 7.01018C41.8253 6.97698 41.7174 6.95208 41.6095 6.91888C41.3937 6.86078 41.1861 6.78608 40.9703 6.72798C40.5553 6.57858 40.1319 6.47898 39.7168 6.38768C39.3018 6.28808 38.8867 6.20508 38.4966 6.03078C37.6831 5.85647 36.8779 5.62407 36.081 5.67387C35.8818 5.67387 35.6909 5.63237 35.4916 5.59917C35.3007 5.56597 35.1015 5.52447 34.9106 5.49127C34.7196 5.45807 34.5287 5.44147 34.3378 5.45807C34.1469 5.47467 33.9559 5.51617 33.7733 5.60747C33.3998 5.66557 33.0345 5.61577 32.6693 5.60747C32.4867 5.60747 32.304 5.60747 32.1297 5.63237C32.0384 5.64067 31.9554 5.65727 31.8724 5.68217C31.7894 5.70707 31.7064 5.74027 31.6234 5.79007C31.2996 5.95608 30.9593 5.99758 30.6272 6.03908C30.4612 6.05568 30.2952 6.07228 30.1292 6.08888C29.9632 6.10548 29.8054 6.13868 29.6477 6.17188C29.49 6.21338 29.3406 6.24658 29.1829 6.28808C29.0334 6.32958 28.884 6.37938 28.7346 6.42088C28.5852 6.46238 28.4441 6.51218 28.2946 6.55368C28.1535 6.59518 28.0124 6.65328 27.8713 6.70308C26.6178 7.14298 25.5387 7.65758 24.6256 8.15558C24.4015 8.28838 24.1856 8.41288 23.9781 8.53738C23.7706 8.66189 23.5797 8.79469 23.397 8.91089C23.0235 9.14329 22.7081 9.38399 22.4092 9.59149C21.8282 10.0231 21.3965 10.3634 21.106 10.5958C20.8154 10.8282 20.6494 10.9361 20.6245 10.9112C20.5996 10.8863 20.749 10.6954 21.0562 10.3468C21.1392 10.2638 21.2222 10.1642 21.3218 10.0563C21.4297 9.95669 21.5376 9.84879 21.6621 9.72429C21.7866 9.60809 21.9195 9.47529 22.0689 9.34249C22.2183 9.20969 22.3843 9.07689 22.5586 8.93579C23.2559 8.37138 24.1524 7.70738 25.298 7.06828C26.4352 6.42918 27.8215 5.82327 29.4402 5.35847C29.6062 5.31697 29.7639 5.25057 29.9216 5.20077C30.0877 5.15097 30.2537 5.09287 30.4197 5.04307C30.76 4.93517 31.1087 4.87707 31.4822 4.89367C31.8392 4.82727 32.2044 4.76087 32.578 4.69447C32.9515 4.63637 33.3417 4.60317 33.7318 4.62807C34.5038 4.37077 35.3339 4.55337 36.1557 4.62807C36.9941 4.66957 37.8325 4.86877 38.7124 4.94347C39.1607 4.96837 39.6006 5.07627 40.024 5.22567C40.4639 5.35847 40.8873 5.53277 41.3439 5.62407C41.5514 5.73197 41.7589 5.84817 41.9747 5.93947C42.0826 5.98928 42.1906 6.03078 42.2985 6.08058C42.4064 6.13038 42.5143 6.17188 42.6222 6.22168C42.838 6.31298 43.0705 6.39598 43.2946 6.47068C43.5187 6.56198 43.7511 6.64498 43.9836 6.71968C44.1911 6.85248 44.3903 6.99358 44.6062 7.11808C44.822 7.24258 45.0461 7.35048 45.2619 7.47498C45.4778 7.59948 45.7019 7.71568 45.926 7.84018C46.1418 7.97298 46.3577 8.10578 46.5652 8.25518C46.7478 8.44608 46.9304 8.62869 47.1214 8.79469C47.3123 8.96899 47.5281 9.11009 47.7273 9.27609C47.9266 9.43379 48.1424 9.59149 48.3582 9.74089C48.5657 9.89859 48.7733 10.0646 48.9808 10.2306C49.1883 10.3966 49.3792 10.5875 49.5619 10.7784C49.7445 10.9693 49.9354 11.1602 50.1014 11.376C50.2757 11.5835 50.4501 11.791 50.6244 12.0068C50.7904 12.2226 50.9564 12.4384 51.1391 12.6459C51.7616 13.5506 52.4506 14.447 52.9404 15.4762C53.563 16.4307 54.0444 17.5097 54.2851 18.6634C54.7085 19.759 54.9243 20.9376 55.0903 22.1245C55.3477 23.3031 55.3062 24.5398 55.2813 25.7682C55.2813 26.3825 55.1734 26.9967 55.0571 27.6109C55.0073 27.918 54.9409 28.2168 54.8994 28.5322C54.8579 28.8393 54.8164 29.1547 54.8081 29.4701C54.5674 30.7068 54.1108 31.902 53.646 33.0972C53.1147 34.2675 52.4672 35.388 51.7865 36.5002C50.8568 37.4464 50.1512 38.5337 49.2796 39.538C48.3914 40.5257 47.3372 41.3391 46.2415 42.0446C45.1706 42.7999 44.0168 43.4058 42.8297 43.9038C41.6676 44.4765 40.4058 44.7006 39.2022 45.0658C38.9033 45.1571 38.5962 45.2318 38.2808 45.2733C37.9736 45.3231 37.6582 45.3646 37.3511 45.3812C36.7285 45.4393 36.1142 45.4559 35.4999 45.5306C34.2714 45.6468 33.0345 45.6302 31.8558 45.3397C31.2581 45.2484 30.6853 45.099 30.1126 44.933C29.822 44.8583 29.5481 44.7753 29.2576 44.7006C29.1164 44.6674 28.9753 44.6342 28.8259 44.6093C28.6848 44.5761 28.5354 44.5512 28.3943 44.5346C28.112 44.4599 27.8298 44.3935 27.5476 44.3105C27.2653 44.2275 26.9831 44.1611 26.7092 44.0615C26.4352 43.9619 26.1696 43.854 25.9123 43.7129C25.6632 43.5635 25.4225 43.3975 25.2067 43.1983C24.6837 42.9659 24.2105 42.6588 23.754 42.3268C23.6378 42.2438 23.5216 42.1691 23.4136 42.0861C23.2974 42.0031 23.1895 41.9201 23.0733 41.8371C22.9571 41.7541 22.8492 41.6794 22.7247 41.6047C22.6084 41.53 22.4922 41.4636 22.3677 41.3889C22.1851 41.1731 21.9942 40.9822 21.7866 40.7996C21.5874 40.617 21.3799 40.4427 21.1641 40.2767C20.9482 40.119 20.749 39.9364 20.5415 39.7704C20.334 39.5961 20.1347 39.4301 19.9521 39.2309C19.2382 38.4424 18.6572 37.5875 17.9682 36.8239C17.8022 36.633 17.6444 36.4255 17.5033 36.218C17.3705 36.0022 17.246 35.7864 17.1215 35.5623C16.997 35.3465 16.889 35.1141 16.7811 34.8983C16.6732 34.6742 16.5487 34.4667 16.4325 34.2509C16.2914 34.0517 16.1752 33.8276 16.0838 33.6118C15.9925 33.3877 15.9178 33.1553 15.8431 32.9312C15.8016 32.815 15.7684 32.7071 15.7269 32.5909C15.6937 32.4747 15.6605 32.3668 15.619 32.2506C15.5443 32.0265 15.4447 31.8107 15.3368 31.6032C15.2122 31.155 15.0545 30.7234 14.9383 30.2835C14.8055 29.8519 14.7142 29.412 14.6478 28.9721C14.515 28.7729 14.4485 28.5571 14.3987 28.3496C14.3489 28.1338 14.3157 27.918 14.3157 27.7022C14.3157 27.2623 14.3406 26.839 14.3323 26.4157C14.3074 25.5856 14.0501 24.7722 14.3323 23.992C14.2327 23.5936 14.2493 23.2035 14.3157 22.83C14.3572 22.6391 14.3987 22.4565 14.4485 22.2739C14.4734 22.1826 14.4983 22.0913 14.515 22C14.5399 21.9087 14.5648 21.8257 14.5897 21.7344C14.6893 21.3775 14.7142 21.0206 14.7806 20.6803C14.8138 20.506 14.8387 20.34 14.8802 20.1657C14.9217 19.9997 14.9881 19.842 15.0628 19.6843C15.0628 19.51 15.096 19.344 15.1375 19.1863C15.1873 19.0286 15.2537 18.8792 15.3202 18.7298C15.3866 18.5804 15.4613 18.4393 15.5194 18.2899C15.5775 18.1488 15.6439 17.9994 15.6854 17.8583C15.8514 17.5927 15.951 17.3105 16.0672 17.0449C16.1752 16.7793 16.2665 16.5054 16.3993 16.2647C16.5072 16.0074 16.6151 15.7667 16.7396 15.5343C16.8724 15.3102 17.0136 15.0944 17.163 14.8952C17.2875 14.6794 17.4203 14.4885 17.5448 14.2976C17.6776 14.1067 17.7939 13.9158 17.9184 13.7498C18.6572 12.704 19.3544 11.9902 19.8193 11.5171C20.3091 11.0689 20.583 10.8448 20.6162 10.878L20.6079 10.9029Z" fill="#0061EF"/>
<path d="M53.7604 39.9779C53.8351 40.036 53.7272 40.2933 53.4782 40.7249C53.4367 40.7996 53.3868 40.8743 53.337 40.9573C53.2955 41.0486 53.254 41.1399 53.171 41.2146C53.0133 41.2146 53.1959 41.53 52.9718 41.4885C52.8473 41.5383 52.8058 41.6628 52.7477 41.779C52.6896 41.9035 52.5069 41.9201 52.4986 42.0944C52.5733 42.36 52.1168 42.1193 52.2247 42.4347C52.1666 42.5841 52.0338 42.6754 51.9093 42.775C51.6685 42.7501 51.6685 42.9991 51.5689 43.1402C51.295 43.0987 51.2369 43.2813 51.2037 43.522C51.0377 43.4722 50.9297 43.4805 50.8633 43.5469C50.8301 43.5801 50.8135 43.6299 50.7969 43.688C50.7969 43.7212 50.7969 43.7461 50.7969 43.7876C50.7969 43.8291 50.7969 43.8623 50.8218 43.8955C50.8052 43.9204 50.7637 43.9204 50.7222 43.937C50.689 43.9536 50.6558 43.9785 50.7139 44.02C50.7056 44.0449 50.7139 44.0615 50.7056 44.0781C50.7056 44.0781 50.7056 44.0781 50.7056 44.0864C50.7056 44.0864 50.7139 44.0947 50.7222 44.103C50.7222 44.103 50.7222 44.1196 50.7222 44.1279C51.0128 44.1362 50.9546 44.0864 50.855 44.2275C50.8799 44.2192 50.8965 44.2026 50.9131 44.1943C50.9131 44.1943 50.9297 44.186 50.938 44.186C50.9546 44.186 50.9629 44.1943 50.9796 44.2026C51.0294 44.2275 51.0709 44.2607 51.1041 44.2939C51.1705 44.3769 51.212 44.4848 51.2452 44.601C51.3116 44.8334 51.6768 44.767 51.71 45.0492C51.8595 45.2152 52.0587 45.3231 52.1915 45.5057C52.2911 45.7298 52.3741 45.9539 52.6813 45.9788C52.8805 46.1033 53.0963 46.2195 53.1793 46.4602C53.2706 46.3938 53.2789 46.3523 53.2789 46.3689C53.2789 46.3772 53.2623 46.4436 53.2623 46.5349C53.2789 46.5183 53.2872 46.5764 53.3038 46.6262C53.3204 46.6677 53.3536 46.7092 53.337 46.6096C53.3536 46.6511 53.3619 46.6345 53.3536 46.6096C53.3536 46.5764 53.3287 46.5266 53.3453 46.5432C53.3453 46.5432 53.3536 46.5598 53.3702 46.5847C53.3951 46.6262 53.4201 46.6428 53.4284 46.6262C53.4367 46.6096 53.4284 46.5515 53.3785 46.4768C53.3204 46.4021 53.337 46.4104 53.3702 46.4021C53.3702 46.4021 53.3868 46.4021 53.3952 46.4021L53.4117 46.3772L53.4367 46.3274C53.4699 46.261 53.5031 46.2029 53.5114 46.1282C53.5861 46.0867 53.6359 46.0286 53.6691 45.9705C53.7023 45.9124 53.7272 45.846 53.7438 45.7713C53.777 45.6302 53.8019 45.4808 53.9181 45.3895C53.9928 45.2733 54.0924 45.1654 54.2003 45.0824C54.3083 44.9911 54.3996 44.8998 54.4494 44.7504C54.6237 44.5346 54.8063 44.3105 55.0803 44.2441C55.0803 44.1362 55.1218 44.0698 55.1799 44.02C55.2297 43.9785 55.3044 43.9619 55.3791 43.9536C55.5285 43.937 55.6696 43.9453 55.7775 43.8706C55.927 43.8872 56.0349 43.8291 56.1511 43.771C56.1926 43.7378 56.1843 43.7129 56.2258 43.7212C56.2258 43.688 56.2756 43.7212 56.3337 43.7378C56.3835 43.7544 56.4499 43.7627 56.3918 43.7129C56.4499 43.7212 56.4084 43.6797 56.425 43.688C56.4333 43.688 56.4748 43.6963 56.5827 43.7295C56.5578 43.7212 56.5329 43.7129 56.5163 43.6963C56.4997 43.688 56.4914 43.6797 56.4914 43.6797C56.4914 43.6797 56.5246 43.6797 56.5495 43.6797C56.6159 43.6797 56.6658 43.6797 56.5495 43.6382C56.508 43.5967 56.4582 43.5635 56.4665 43.522C56.6076 43.4805 56.5827 43.439 56.5246 43.4141C56.4748 43.3892 56.3918 43.3975 56.3669 43.3809C56.3669 43.3643 56.342 43.356 56.3254 43.356L56.3088 43.3477L56.2839 43.3311L56.2258 43.2979C56.1511 43.2481 56.093 43.19 56.093 43.0738C55.9934 42.941 55.9519 42.7501 55.7692 42.7086C55.6281 42.6256 55.8107 42.2272 55.4704 42.36C55.321 42.3019 55.4538 41.9699 55.1882 42.0363C54.9391 42.0861 55.0138 41.8288 54.9308 41.7292C54.8478 41.6296 54.7731 41.5383 54.6984 41.447C54.0343 40.6253 53.7023 40.1107 53.8019 40.0111C53.9098 39.9032 54.5324 40.3265 55.5202 41.1399C55.6198 41.2229 55.8356 41.1897 55.8273 41.3972C55.927 41.4968 56.1262 41.4968 56.1511 41.6794C56.425 41.613 56.3918 41.862 56.4997 41.9782C56.6159 42.0778 56.6824 42.2521 56.865 42.3019C56.9729 42.3102 57.0227 42.3849 57.0642 42.4596L57.0974 42.5177L57.114 42.5426V42.5592L57.1389 42.5758C57.1887 42.6256 57.2385 42.6754 57.3132 42.7169C57.3962 43.0074 57.5872 43.1485 57.9856 43.3477C58.0022 43.4722 58.1184 43.5635 58.2595 43.6797C58.409 43.7876 58.5916 43.9121 58.6995 44.0366C58.6248 44.1196 58.6995 44.2109 58.8489 44.3354C58.9236 44.3935 59.0232 44.4682 59.1312 44.5429C59.1893 44.5844 59.2391 44.6176 59.2972 44.6591C59.3387 44.6923 59.3802 44.7172 59.4217 44.7504C59.5296 44.8334 59.6043 44.9081 59.6375 44.9662C59.4632 44.9496 59.2889 44.9413 59.1229 44.9247C58.9402 44.9164 58.7742 44.9081 58.6331 44.9247C58.4837 44.9081 58.3426 44.8998 58.218 44.8998C58.1018 44.8998 57.9856 44.8998 57.8694 44.9081C57.7532 44.9081 57.6287 44.9164 57.5042 44.9164H57.4045C57.4045 44.9164 57.3381 44.9164 57.3132 44.9164C57.2634 44.9164 57.2136 44.933 57.1638 44.933C57.0891 44.9745 56.9978 45.016 56.9065 45.0492C56.8567 45.0658 56.8152 45.0824 56.7654 45.099C56.7156 45.1156 56.6741 45.1239 56.6242 45.1405C56.5495 45.182 56.4665 45.1903 56.3586 45.1654C56.2922 45.2235 56.2175 45.2816 56.1428 45.3148L56.0183 45.3646C56.0183 45.3646 55.9436 45.4144 55.9021 45.4393C55.8024 45.6053 55.6115 45.6551 55.487 45.7962C55.4455 45.8792 55.3376 45.9124 55.2463 45.9622C55.155 46.012 55.0969 46.095 55.1467 46.2361C55.0969 46.3191 55.0554 46.3938 54.9972 46.4768C54.9723 46.5183 54.9474 46.5598 54.9225 46.6013C54.8976 46.6428 54.8893 46.6926 54.881 46.7424L54.8063 46.8669L54.7897 46.9001V46.9167C54.7897 46.9167 54.7731 46.9416 54.7731 46.9582L54.7399 47.1242C54.715 47.2321 54.6984 47.3483 54.6818 47.4645C54.6818 47.5226 54.6652 47.5807 54.6652 47.6471V47.6969V47.7633C54.6652 47.8048 54.6735 47.8463 54.6818 47.8878C54.5822 48.087 54.549 48.2945 54.5822 48.6265C54.6154 48.9668 54.6901 49.4067 54.7565 49.8798C54.7731 50.0126 54.7897 50.1288 54.798 50.245C54.7565 50.2201 54.6984 50.1786 54.6486 50.1288L54.5656 50.0541C54.5656 50.0541 54.5158 50.0043 54.4743 49.9628C54.3332 49.8051 54.1837 49.6391 54.0426 49.4814C53.7272 49.1992 53.3951 48.8506 53.0797 48.5103C52.9137 48.3941 52.756 48.2032 52.6149 48.0206C52.4654 47.838 52.3326 47.6803 52.15 47.5558C51.9093 47.4645 51.901 47.1491 51.6685 47.0578C51.461 46.9416 51.2701 46.8088 51.1954 46.5681C51.0377 46.4104 51.0377 46.095 50.7388 46.0867C50.5479 45.9622 50.2076 46.0037 50.2906 45.6219C50.1827 45.5721 50.1411 45.4725 50.0913 45.3729C50.0664 45.3231 50.0415 45.2733 50.0083 45.2401C50 45.2318 49.9917 45.2235 49.9834 45.2152C49.9668 45.2069 49.9502 45.1903 49.9336 45.1737C49.9004 45.1488 49.8589 45.1239 49.8091 45.099C49.7759 44.8998 49.6763 44.7919 49.5269 44.6757C49.3775 44.5678 49.1865 44.4516 49.0703 44.3271C49.0288 44.269 48.979 44.2026 48.9375 44.1445L48.8711 44.0532L48.8877 44.0366L48.9126 44.02L48.9707 43.9785C49.1118 43.8789 49.228 43.7793 49.2861 43.6548C49.3443 43.5303 49.502 43.4224 49.6514 43.3311C49.8008 43.2398 49.9502 43.1651 50.0498 43.0489C50.0747 43.0074 50.083 42.9825 50.0913 42.9659C50.1079 42.9493 50.1245 42.9327 50.1411 42.9244C50.1827 42.8995 50.2325 42.8912 50.274 42.8829C50.3653 42.858 50.4649 42.8331 50.4732 42.7252C50.6143 42.6339 50.7056 42.4762 50.855 42.4015C50.7471 42.0529 51.0875 42.1857 51.2203 42.1027C51.3614 42.028 51.2867 41.7458 51.5689 41.8205C51.4942 41.5383 51.7349 41.5881 51.8761 41.5383C52.0172 41.4885 51.984 41.2727 52.1666 41.281C52.1251 41.0735 52.4073 41.1648 52.4405 41.0403C52.6066 41.0403 52.5983 40.8826 52.6896 40.8245C52.7228 40.7166 52.7975 40.6502 52.9054 40.6253C52.9718 40.5672 53.0382 40.5091 53.1046 40.451C53.4782 40.1356 53.7189 39.9862 53.7936 40.0443L53.7604 39.9779Z" fill="#0061EF"/>
<path d="M54.9512 45.2152C54.9512 45.2152 54.9512 45.2816 54.918 45.348C54.9014 45.3895 54.8765 45.431 54.8433 45.4808C54.8101 45.5306 54.7769 45.5887 54.7437 45.6551C54.586 45.9207 54.3867 46.3191 54.2622 46.8669C54.2456 46.9582 54.229 47.0578 54.2124 47.1491C54.1958 47.2487 54.1958 47.3483 54.1875 47.4562C54.1875 47.5641 54.1958 47.672 54.1958 47.7799C54.1958 47.8878 54.2124 48.004 54.2124 48.1202C54.1626 48.2447 54.2373 48.3609 54.3037 48.4688C54.3784 48.5767 54.4449 48.6846 54.3868 48.834C54.4034 48.9585 54.4366 49.0913 54.5113 49.2075C54.5445 49.2656 54.5777 49.3237 54.6192 49.3818C54.6607 49.4316 54.7105 49.4897 54.752 49.5478C54.835 49.664 54.9097 49.7802 54.9844 49.9047C55.0259 49.9628 55.0757 50.0209 55.1255 50.0707C55.1753 50.1205 55.2335 50.162 55.3165 50.2035C55.7232 50.2782 55.6153 50.8759 56.0802 50.9174C56.379 51.1249 56.6363 51.4071 56.8937 51.6893C57.0348 52.0877 57.4498 52.2454 57.757 52.511C57.8898 52.9509 58.255 53.1833 58.6618 53.3742C58.7531 53.8888 59.0934 54.171 59.6164 54.2872C59.9401 54.5943 60.1809 55.001 60.6042 55.2417C60.9529 55.5571 61.3264 55.8559 61.6335 56.2377C62.115 56.4369 62.4636 56.7938 62.6961 57.2752C63.2024 57.4827 63.5096 57.906 63.8001 58.3459C64.0823 58.8024 64.6717 58.9518 64.929 59.4581C65.2943 59.8482 65.7259 60.1885 66.0912 60.6035C66.4149 61.0517 66.7387 61.5165 67.2782 61.7738C67.4941 61.9564 67.7182 62.1307 67.9257 62.3216C67.9755 62.3714 68.0253 62.4212 68.0834 62.471L68.2163 62.6121C68.2993 62.6951 68.3657 62.7864 68.4404 62.8777C68.5068 62.886 68.5649 62.9026 68.6147 62.9192C68.6728 62.9358 68.7309 62.9524 68.7807 62.969C68.8305 62.9856 68.8803 63.0188 68.9384 63.0354C68.9882 63.052 69.0381 63.0769 69.0879 63.1018L69.1626 63.1433L69.2373 63.1765C69.2871 63.2014 69.3369 63.2263 69.3867 63.2595C69.4863 63.3093 69.5942 63.3674 69.7021 63.4172C69.8183 63.4172 69.9346 63.4504 70.0508 63.4587L70.2251 63.4836H70.4077C70.5322 63.5002 70.6485 63.4836 70.773 63.467C70.8892 63.4421 71.0054 63.4006 71.1133 63.3342C71.2295 63.301 71.3457 63.2678 71.4453 63.2097L71.6031 63.1267L71.7525 63.0271C71.9517 62.8943 72.126 62.7366 72.3336 62.6121C72.7154 62.3216 73.0474 61.89 73.064 61.392C73.064 61.2675 73.0723 61.1513 73.0972 61.0351C73.1056 60.9189 73.1471 60.8027 73.1554 60.6865L73.1886 60.5122V60.3379C73.2052 60.2217 73.1886 60.0972 73.1554 59.9893C73.1886 59.8648 73.1803 59.7403 73.1554 59.6241C73.1388 59.566 73.1139 59.5079 73.089 59.4581L73.0474 59.3751L72.9976 59.3004L72.898 59.151C72.8648 59.1012 72.8233 59.0597 72.7901 59.0099C72.7569 58.9601 72.7237 58.9103 72.6905 58.8688C72.6573 58.819 72.6241 58.7775 72.5992 58.7194C72.5328 58.6281 72.4498 58.5451 72.3834 58.4455C72.3502 58.404 72.3004 58.3459 72.2589 58.2878L72.1177 58.1218C71.9268 57.906 71.7359 57.6985 71.4952 57.5408C71.0718 57.1673 70.6485 56.8104 70.3247 56.3539C69.7021 56.1962 69.6108 55.5239 69.1875 55.1919C68.9052 54.7105 68.4238 54.4532 68.0751 54.0631C67.6601 53.7394 67.4526 53.2248 67.0043 52.9592C66.664 52.5857 66.224 52.3284 65.9667 51.8968C65.5101 51.6644 65.3773 51.1166 64.9705 50.8675C64.6385 50.5355 64.3065 50.2201 64.0159 49.8798C63.8831 49.3818 63.4183 49.2241 63.1028 48.9336C62.8206 48.6099 62.3972 48.4356 62.2312 48.0289C61.9573 47.7301 61.7581 47.3649 61.4094 47.1657C61.1106 46.9167 61.1355 46.3689 60.6374 46.3523C60.3386 46.1365 60.322 45.6634 59.9152 45.5887C59.8156 45.5638 59.7492 45.5389 59.6911 45.4974C59.633 45.4559 59.5915 45.3978 59.5417 45.3397C59.4504 45.2318 59.3757 45.0907 59.2511 45.0243C59.193 44.9828 59.1349 44.9496 59.0768 44.9081C59.0187 44.8749 58.9523 44.85 58.8942 44.8168C58.778 44.7504 58.6535 44.7089 58.5373 44.6591C57.9894 44.4599 57.4581 44.4267 56.9933 44.4682C56.5284 44.5097 56.1466 44.6342 55.8477 44.7587C55.2501 45.0243 54.9595 45.2733 54.9014 45.2152C54.8765 45.1903 54.9346 45.0824 55.0757 44.9081C55.1504 44.8168 55.2584 44.7255 55.3829 44.6093C55.5157 44.5097 55.6734 44.3852 55.8726 44.2773C56.2628 44.0615 56.8023 43.8623 57.4664 43.8125C57.7985 43.7959 58.1554 43.8125 58.5373 43.8872C58.7282 43.9204 58.9108 43.9868 59.11 44.0449C59.2013 44.0864 59.301 44.1279 59.4006 44.1611C59.5002 44.2026 59.5915 44.2607 59.6911 44.3105C59.8488 44.3852 60.0148 44.4599 60.1809 44.5512C60.2639 44.601 60.3386 44.6591 60.405 44.7255C60.4714 44.7919 60.5378 44.8749 60.5627 44.9579C60.8034 45.1986 61.1438 45.348 61.3264 45.6717C61.7498 45.7547 61.8743 46.1614 62.1399 46.4436C62.4221 46.7092 62.6463 47.0412 63.0032 47.2653C63.3851 47.4562 63.5428 47.8961 63.908 48.1285C64.1072 48.5352 64.4476 48.8174 64.8626 49.0415C65.0785 49.4565 65.5267 49.664 65.8505 49.996C66.0248 50.4857 66.473 50.7099 66.8798 50.9921C67.2782 51.2826 67.5522 51.7059 67.9423 52.0296C68.2661 52.4197 68.6977 52.7102 69.0464 53.1003C69.4863 53.3991 69.8848 53.7394 70.1753 54.2042C70.6069 54.5362 70.9473 54.9595 71.3374 55.3496C71.7857 55.6733 72.1094 56.1381 72.5245 56.5199C72.7403 56.7025 72.898 56.9432 73.0723 57.1673C73.1139 57.2254 73.1637 57.2752 73.2135 57.3333C73.2633 57.3831 73.3131 57.4329 73.3712 57.4993C73.4874 57.6155 73.6285 57.7151 73.7779 57.823C73.8277 57.8894 73.8858 57.9558 73.9357 58.0305C73.9855 58.1052 74.027 58.1799 74.0685 58.2546C74.11 58.3293 74.1598 58.404 74.193 58.487L74.3009 58.7277L74.3507 58.8522L74.3922 58.9767L74.4752 59.2257C74.5167 59.3917 74.5665 59.566 74.608 59.732C74.6993 60.4375 74.6329 61.1347 74.4835 61.8402C74.3673 61.9896 74.2843 62.1473 74.1847 62.2967C74.1432 62.3714 74.1017 62.4544 74.0602 62.5291C74.0187 62.6038 73.9772 62.6785 73.9357 62.7615C73.7779 63.0769 73.5953 63.384 73.3795 63.6911C72.9063 64.2555 72.2256 64.6207 71.5284 64.795C70.8477 65.0274 70.1089 65.0523 69.4199 64.9195C69.2456 64.9029 69.0713 64.8614 68.9052 64.8116C68.8222 64.7784 68.7392 64.7452 68.6562 64.712L68.5317 64.6622L68.4155 64.6041L68.183 64.4796C68.1083 64.4381 68.0336 64.3883 67.9589 64.3468L67.7348 64.214C67.6601 64.1642 67.5854 64.1227 67.5107 64.0812C67.3529 64.0065 67.2284 63.882 67.0956 63.7658C67.0292 63.6994 66.9877 63.6496 66.9379 63.5998L66.7968 63.4338C66.6142 63.2097 66.4315 62.9939 66.1991 62.8279C65.7508 62.4793 65.3358 62.1141 65.0287 61.641C64.6385 61.2509 64.4061 60.7114 63.8831 60.479C63.4681 60.1304 62.9036 59.9561 62.7791 59.3502C62.3557 59.0431 62.1648 58.5036 61.7083 58.2546C61.5256 57.7234 61.011 57.5408 60.6706 57.1922C60.3635 56.8104 60.0813 56.4203 59.6745 56.163C59.2594 55.914 59.0602 55.4658 58.7199 55.1753C58.3048 54.9595 58.2218 54.42 57.8068 54.2291C57.5245 53.9054 57.1925 53.6481 56.9352 53.3244C56.4122 53.2663 56.3707 52.7517 56.1134 52.4612C55.8726 52.1541 55.4244 52.0794 55.3414 51.6478C54.9097 51.5731 54.8184 51.1664 54.6275 50.8841C54.5777 50.8177 54.5196 50.743 54.4532 50.6766C54.3867 50.6102 54.312 50.5521 54.2539 50.4857C54.1377 50.3529 54.0049 50.2118 53.9883 50.0209C53.9053 49.9711 53.8472 49.8964 53.8057 49.8217C53.7725 49.747 53.7476 49.6557 53.731 49.5727C53.6895 49.4067 53.6978 49.2324 53.6148 49.0996C53.6148 48.9336 53.5982 48.7842 53.5483 48.6431C53.5234 48.502 53.4736 48.3609 53.4819 48.2115C53.457 48.0704 53.4321 47.9376 53.4487 47.8048C53.4653 47.672 53.4819 47.5392 53.5317 47.423C53.5567 47.2985 53.5733 47.1823 53.6065 47.0744C53.6397 46.9665 53.6729 46.8586 53.7061 46.759C53.7642 46.6096 53.8223 46.4685 53.8887 46.344C53.9551 46.2195 54.0132 46.1033 54.0879 46.0037C54.1626 45.9041 54.2207 45.8128 54.2871 45.7298C54.3535 45.6551 54.42 45.5887 54.4781 45.5306C54.5279 45.4725 54.586 45.4227 54.6358 45.3895C54.6856 45.348 54.7271 45.3231 54.7603 45.2982C54.835 45.2567 54.8765 45.2401 54.8931 45.2567L54.9512 45.2152Z" fill="#0061EF"/>
<path d="M17.462 7.76551C17.5533 7.85681 16.3082 9.01882 14.6479 11.6001C14.5068 11.8159 14.3823 12.0483 14.2412 12.2807C14.1001 12.5131 13.9507 12.7538 13.8178 13.0194C13.685 13.2767 13.5522 13.5506 13.4111 13.8245C13.2783 14.1067 13.1455 14.3972 12.996 14.6877C12.8964 14.8205 12.8217 14.9699 12.7719 15.1359C12.7138 15.2936 12.6723 15.4596 12.6225 15.6339C12.5229 15.9659 12.4399 16.3145 12.224 16.6216C12.1493 16.7876 12.0746 16.9536 12.0082 17.1279C11.9501 17.3022 11.892 17.4848 11.8422 17.6674C11.7924 17.85 11.7343 18.0326 11.6928 18.2235C11.6513 18.4145 11.6098 18.6054 11.5683 18.7963C11.5268 18.9872 11.4687 19.1864 11.4272 19.3773C11.3773 19.5765 11.3275 19.7674 11.2777 19.9749C11.1698 20.3733 11.1034 20.7883 11.0868 21.2199C11.0951 21.3278 11.0951 21.4357 11.0868 21.5436C11.0868 21.6515 11.0702 21.7594 11.0536 21.8673C11.0204 22.0831 10.9623 22.2989 10.9042 22.5147C10.8461 22.7305 10.8129 22.9546 10.788 23.1787C10.7714 23.4028 10.7797 23.6352 10.8378 23.8676C10.871 24.7889 10.8378 25.7268 10.9125 26.6979C10.8876 26.9469 10.871 27.1959 10.8959 27.4366C10.9208 27.6856 10.954 27.9346 10.9955 28.1753C11.0287 28.4243 11.1034 28.6733 11.1615 28.914C11.2279 29.163 11.2777 29.412 11.3441 29.661C11.3441 30.1839 11.4188 30.7068 11.5849 31.2131C11.726 31.7277 11.9584 32.2174 12.1991 32.7071C12.2157 32.9893 12.2656 33.2632 12.332 33.5288C12.3652 33.6616 12.4067 33.7944 12.4482 33.9272C12.498 34.06 12.5478 34.1845 12.6059 34.309C12.7221 34.5663 12.8466 34.8153 13.0043 35.056C13.1621 35.2884 13.3364 35.5208 13.5273 35.7449C13.6518 36.0022 13.7929 36.2429 13.9258 36.5002C14.0586 36.7492 14.1831 37.0148 14.3408 37.2555C14.4902 37.5045 14.6396 37.7535 14.8057 37.9942C14.98 38.2349 15.1626 38.459 15.3535 38.6831C15.5196 38.9238 15.7105 39.1479 15.9014 39.3803C16.0923 39.6127 16.2749 39.8451 16.4742 40.0692C16.6734 40.2933 16.8726 40.5174 17.0635 40.7498C17.2711 40.9739 17.4786 41.198 17.6778 41.4304C17.9185 41.6213 18.1676 41.8039 18.4083 41.9948C18.649 42.1857 18.8732 42.4015 19.1139 42.5924C19.3463 42.7916 19.5788 43.0074 19.8029 43.2232C20.0353 43.4307 20.2677 43.6465 20.4919 43.879C21.6374 44.46 22.6584 45.207 23.7625 45.9125C24.0447 46.0868 24.3352 46.2362 24.6341 46.369C24.9412 46.4935 25.2483 46.6014 25.5638 46.7176C25.7215 46.7757 25.8792 46.8255 26.0369 46.8753C26.1947 46.9251 26.3524 46.9832 26.5101 47.033C26.8172 47.1575 27.1327 47.2654 27.4398 47.4065C28.7182 47.8298 30.0629 48.0705 31.416 48.2946C32.7608 48.5768 34.1885 48.7428 35.5914 48.4855C37.0026 48.3776 38.3972 48.1203 39.8249 47.9211C41.178 47.3816 42.5643 47.0413 43.9672 46.5765C45.2953 45.9706 46.6816 45.3979 47.852 44.4517C49.1138 43.6382 50.1846 42.5841 51.3302 41.5881C52.4508 40.5672 53.4718 39.4301 54.194 38.1104C54.551 37.4547 54.9494 36.8322 55.3229 36.1931C55.5222 35.8777 55.6882 35.554 55.8625 35.2303C56.0451 34.9066 56.1863 34.5663 56.3191 34.226C56.4187 34.0683 56.51 33.9106 56.593 33.7446C56.6677 33.5786 56.7424 33.4043 56.8088 33.2383C56.8752 33.064 56.9416 32.898 56.9998 32.7237L57.1492 32.1925L57.2903 31.6696C57.3318 31.4953 57.3733 31.3127 57.4065 31.1384C57.448 30.9641 57.4895 30.7898 57.5393 30.6155C57.5808 30.4412 57.6223 30.2669 57.6721 30.0926C57.9627 28.6899 58.2947 27.2789 58.2366 25.8596C58.2532 24.4486 58.1453 23.0625 58.0457 21.6847C57.78 21.029 57.6887 20.3567 57.5891 19.6844C57.5476 19.3441 57.4895 19.0121 57.4231 18.6801C57.3899 18.5141 57.3567 18.3481 57.3152 18.1821C57.2654 18.0243 57.2156 17.8583 57.1575 17.7006C56.8752 16.3726 56.2195 15.194 55.6467 14.032C55.3063 13.4759 55.0324 12.8866 54.7087 12.3305C54.6257 12.1894 54.551 12.0483 54.4679 11.9072C54.3849 11.7744 54.2936 11.6416 54.2023 11.5088C54.111 11.376 54.0197 11.2515 53.9201 11.1187L53.7707 10.9278C53.7208 10.8697 53.6627 10.8116 53.6046 10.7535C53.4137 10.4962 53.2228 10.2555 53.0236 10.0065C52.816 9.77412 52.6002 9.54172 52.3927 9.30932C52.1935 9.07692 51.961 8.86111 51.7618 8.62871C51.5543 8.40461 51.3551 8.16391 51.1475 7.93981C50.8985 7.75721 50.6744 7.55801 50.4502 7.35051C50.2261 7.15131 50.0103 6.94381 49.7945 6.72801C49.5869 6.51221 49.3545 6.3213 49.1221 6.1304C48.8897 5.9395 48.6572 5.7569 48.3916 5.6158C48.1509 5.4498 47.9101 5.2755 47.6694 5.1178C47.4204 4.9601 47.1796 4.8107 46.9306 4.653C46.6899 4.4953 46.4326 4.3625 46.1918 4.2131C45.9428 4.072 45.7021 3.9226 45.4447 3.79809C45.2206 3.61549 44.9799 3.45779 44.7391 3.31669C44.4901 3.18389 44.2328 3.07599 43.9672 2.97639C43.8343 2.92659 43.7098 2.87679 43.577 2.83529C43.4442 2.79379 43.3114 2.75229 43.1786 2.71909C42.9129 2.64439 42.6556 2.55309 42.3983 2.47009C41.8836 2.29579 41.3689 2.15469 40.8543 2.04679C40.3479 1.91399 39.8332 1.81439 39.3518 1.61519C38.3474 1.39939 37.3595 1.14208 36.38 1.18358C36.1393 1.18358 35.8986 1.13378 35.6578 1.10058C35.4171 1.06738 35.1764 1.02588 34.9439 0.992684C34.7032 0.959484 34.4708 0.942884 34.2384 0.959484C34.0059 0.976084 33.7735 1.01758 33.5494 1.10888C33.3252 1.13378 33.0928 1.15038 32.8687 1.14208C32.6446 1.14208 32.4121 1.12548 32.1963 1.13378C31.9722 1.13378 31.7563 1.15038 31.5405 1.17528C31.4326 1.19188 31.3247 1.20848 31.2168 1.23339C31.1089 1.26659 31.0093 1.29979 30.9096 1.34959C30.5029 1.52389 30.0961 1.58199 29.6894 1.64009C29.4819 1.66499 29.2826 1.68989 29.0834 1.70649C28.8842 1.73139 28.685 1.77289 28.494 1.82269C28.3031 1.87249 28.1122 1.92229 27.9213 1.96379C27.7387 2.01359 27.5477 2.07169 27.3734 2.12979C27.1908 2.18789 27.0165 2.23769 26.8338 2.29579C26.6595 2.35389 26.4852 2.42029 26.3109 2.47839C24.7669 3.01789 23.4553 3.65699 22.343 4.2795C22.0691 4.4455 21.8034 4.5949 21.5544 4.7443C21.2971 4.8937 21.0729 5.0597 20.8405 5.2091C20.384 5.4996 19.9938 5.7984 19.6286 6.0557C18.923 6.58691 18.3917 7.01021 18.0431 7.30901C17.6861 7.59951 17.4952 7.74061 17.4703 7.71571C17.4454 7.69081 17.628 7.45841 18.0182 7.04341C18.1178 6.94381 18.2174 6.81931 18.3502 6.69481C18.4747 6.57031 18.6158 6.43751 18.7736 6.2964C18.9313 6.1553 19.089 5.9976 19.2716 5.8399C19.4542 5.6822 19.6535 5.5162 19.8693 5.3419C20.7243 4.653 21.8283 3.8562 23.2229 3.08429C24.6175 2.31239 26.3109 1.58199 28.2782 1.01758C28.4774 0.967784 28.6684 0.893084 28.8676 0.826683C29.0668 0.768583 29.2743 0.702183 29.4736 0.644083C29.8803 0.519582 30.3203 0.444882 30.7685 0.453182C30.8764 0.436582 30.9844 0.411682 31.1006 0.395082C31.2085 0.378482 31.3247 0.361882 31.4326 0.336982C31.6567 0.295481 31.8809 0.262281 32.105 0.220781C32.3291 0.179281 32.5615 0.162681 32.8023 0.146081C33.0347 0.129481 33.2754 0.121181 33.5079 0.137781C34.4542 -0.12782 35.4503 0.0547805 36.463 0.154381C37.4841 0.204181 38.5051 0.436582 39.5759 0.544482C40.1155 0.594283 40.6467 0.718783 41.178 0.893084C41.7093 1.05078 42.2322 1.25829 42.7884 1.38279C43.0457 1.50729 43.3031 1.64009 43.5604 1.74799C43.6932 1.80609 43.826 1.86419 43.9588 1.91399C44.0917 1.97209 44.2245 2.03019 44.3573 2.07999C44.6229 2.19619 44.8969 2.29579 45.1708 2.39539C45.4447 2.50329 45.7187 2.61119 46.0009 2.71079C46.2582 2.86849 46.5073 3.03449 46.7646 3.18389C47.0219 3.33329 47.2959 3.46609 47.5532 3.62379C47.8188 3.77319 48.0845 3.9226 48.3501 4.072C48.6157 4.2297 48.8731 4.404 49.1221 4.5783C49.3462 4.7941 49.5703 5.0099 49.8111 5.2174C50.0435 5.4249 50.3008 5.5992 50.5499 5.8067C50.7989 6.0059 51.0479 6.1968 51.3053 6.3877C51.5543 6.58691 51.8033 6.78611 52.0523 6.99361C52.3014 7.20111 52.5338 7.42521 52.7579 7.66591C52.9821 7.90661 53.2145 8.13901 53.4137 8.39631C53.6212 8.64531 53.8371 8.90261 54.0446 9.15992C54.2438 9.42552 54.4513 9.68282 54.6672 9.94012C55.4309 11.0357 56.2444 12.1313 56.8586 13.3763C57.5891 14.5549 58.1702 15.858 58.4856 17.2524C58.992 18.5888 59.2576 20.0164 59.4652 21.4606C59.7557 22.8965 59.7308 24.3988 59.6976 25.8845C59.6893 26.6315 59.5731 27.3785 59.4403 28.1255C59.3904 28.499 59.2991 28.8725 59.2493 29.246C59.1995 29.6195 59.1414 30.0013 59.1165 30.3831C58.8094 31.8854 58.2698 33.3379 57.697 34.7904C57.0496 36.2097 56.2693 37.5792 55.4392 38.9321C54.3517 40.1107 53.4635 41.4138 52.3927 42.6256C51.297 43.8125 50.0269 44.8086 48.6904 45.6718C47.3872 46.5765 45.9926 47.3235 44.5482 47.9294C43.137 48.61 41.6097 48.9171 40.1404 49.3487C39.7751 49.4566 39.4016 49.5479 39.0197 49.5977C38.6462 49.6558 38.2644 49.7139 37.8908 49.7388C37.1354 49.8135 36.3883 49.8384 35.6412 49.9214C34.147 50.0542 32.6446 50.021 31.2168 49.6973C30.4946 49.5894 29.789 49.4151 29.0917 49.2242C28.7431 49.1412 28.4027 49.0333 28.0541 48.9503C27.8798 48.9088 27.7055 48.8673 27.5311 48.8341C27.3568 48.7926 27.1825 48.7594 27.0082 48.7262C26.6678 48.6266 26.3192 48.5519 25.9788 48.444C25.8045 48.3942 25.6385 48.3444 25.4725 48.2946C25.2982 48.2448 25.1321 48.195 24.9661 48.1286C24.6341 48.0041 24.3103 47.8713 24.0032 47.7053C23.6961 47.531 23.4055 47.3401 23.1316 47.1077C22.5007 46.8172 21.9196 46.452 21.3635 46.0536C21.2224 45.954 21.0812 45.8627 20.9401 45.7631C20.8073 45.6635 20.6662 45.5639 20.5334 45.4643C20.3923 45.3647 20.2594 45.2734 20.1183 45.1821L19.9025 45.0493L19.6867 44.9165C19.4542 44.6592 19.2135 44.4351 18.9645 44.2193C18.7154 43.9952 18.4664 43.7876 18.2091 43.5801C17.9435 43.3809 17.7027 43.1651 17.4537 42.9576C17.2047 42.7418 16.9556 42.5343 16.7398 42.2936C16.524 42.0529 16.3165 41.8122 16.1089 41.5715C15.9097 41.3225 15.7105 41.0735 15.5113 40.8328C15.3037 40.5921 15.1211 40.3348 14.9219 40.0941C14.7227 39.8534 14.5234 39.6127 14.3242 39.372C14.125 39.1313 13.9341 38.8906 13.7597 38.6333C13.5937 38.376 13.4443 38.1104 13.2949 37.8448C13.1372 37.5875 13.0126 37.3053 12.8715 37.0397C12.7387 36.7741 12.581 36.5168 12.4482 36.2512C12.2822 36.0022 12.1493 35.7366 12.0248 35.471C11.9086 35.1971 11.8173 34.9232 11.7177 34.6493C11.6679 34.5082 11.6181 34.3754 11.5766 34.2426C11.5351 34.1015 11.4936 33.9687 11.4438 33.8359C11.3524 33.562 11.2362 33.3047 11.1034 33.0474C10.9457 32.4996 10.7548 31.9767 10.622 31.4372C10.4642 30.906 10.3563 30.3748 10.265 29.8436C10.1239 29.5946 10.0492 29.3373 9.99107 29.08C9.93297 28.8227 9.89146 28.5571 9.89146 28.2915C9.88316 28.0259 9.89146 27.7686 9.89146 27.503C9.89146 27.2457 9.90806 26.9884 9.89146 26.7311C9.85826 25.7185 9.60093 24.7225 9.87486 23.7763C9.82505 23.5356 9.80845 23.2949 9.81675 23.0625C9.81675 22.8301 9.83335 22.5894 9.88316 22.3653C9.92467 22.1412 9.97447 21.9171 10.0326 21.693C10.0575 21.5851 10.0824 21.4689 10.1073 21.361C10.1405 21.2531 10.1654 21.1452 10.1903 21.0373C10.2982 20.6057 10.3397 20.1741 10.4227 19.7508C10.4559 19.5433 10.4974 19.3358 10.5472 19.1283C10.597 18.9208 10.6718 18.7299 10.7548 18.539C10.7631 18.3315 10.8046 18.1322 10.8544 17.933C10.9125 17.7421 10.9872 17.5595 11.0702 17.3769C11.1449 17.1943 11.2279 17.02 11.3026 16.8374C11.3773 16.6631 11.4521 16.4888 11.5019 16.3062C11.6928 15.9742 11.809 15.6339 11.9501 15.3102C12.0165 15.1442 12.0829 14.9782 12.1493 14.8205C12.2157 14.6628 12.2822 14.5051 12.3652 14.3557C12.498 14.0403 12.6391 13.7498 12.7885 13.4593C12.9462 13.1854 13.1206 12.9198 13.2866 12.6791C13.436 12.4218 13.602 12.1811 13.7514 11.9487C13.9092 11.7163 14.0503 11.4839 14.208 11.2764C15.1045 9.98992 15.9429 9.11842 16.5074 8.53741C17.0967 7.98131 17.4205 7.70741 17.4537 7.74061L17.462 7.76551Z" fill="#0061EF"/>
<path d="M34.6776 18.4726C34.6776 18.4726 34.5115 18.3481 34.304 18.0493C34.0882 17.7588 33.806 17.3106 33.3743 16.796C33.2332 16.6217 33.0672 16.4474 32.8928 16.273C32.7932 16.19 32.7019 16.107 32.594 16.024C32.4861 15.9493 32.3948 15.8497 32.2786 15.7667C32.2039 15.6339 32.0544 15.5924 31.905 15.5675C31.8303 15.5509 31.7639 15.5343 31.6975 15.5011C31.6311 15.4762 31.573 15.4347 31.5232 15.3517C31.4651 15.3019 31.3904 15.2687 31.324 15.2438C31.2492 15.2189 31.1745 15.194 31.0998 15.1691C31.0251 15.1525 30.9421 15.1442 30.8591 15.1276C30.7761 15.111 30.7014 15.1027 30.6101 15.1027C30.5271 15.1027 30.444 15.0861 30.361 15.0612C30.278 15.0446 30.195 15.028 30.1037 15.0197C29.9294 14.9865 29.7468 14.9865 29.5641 15.0363C29.3815 15.1525 29.2072 15.1027 29.0163 15.0529C28.925 15.0363 28.8253 15.028 28.734 15.0363C28.6427 15.0529 28.5431 15.0778 28.4684 15.1774C28.2941 15.2604 28.1115 15.3019 27.9288 15.3766C27.8375 15.4098 27.7462 15.443 27.6549 15.4762C27.5636 15.5177 27.4723 15.5592 27.381 15.6007C27.3229 15.6007 27.2731 15.6007 27.2232 15.6173C27.1734 15.6339 27.1236 15.6505 27.0821 15.6754C26.9908 15.7252 26.8995 15.7833 26.8248 15.8497C26.6754 15.9992 26.526 16.1569 26.3931 16.3146C26.2852 16.3478 26.169 16.3893 26.086 16.4557C25.9947 16.5221 25.92 16.6051 25.8536 16.6881C25.7872 16.7794 25.7374 16.879 25.6959 16.9869C25.671 17.0367 25.6544 17.0948 25.6295 17.1446C25.6128 17.2027 25.6045 17.2608 25.5879 17.3189C25.0899 17.5264 24.9239 18.0493 25.0733 18.5639C25.0484 18.6801 25.0069 18.788 24.982 18.8959C24.9571 19.0121 24.9322 19.1283 24.9073 19.2445C24.8824 19.3607 24.8824 19.4769 24.8824 19.6014C24.8824 19.6595 24.8824 19.7176 24.8907 19.784C24.899 19.8504 24.9156 19.9085 24.9322 19.9666C24.9654 20.4646 25.0816 20.9626 25.148 21.4855C25.4634 21.9503 25.6045 22.44 25.6544 23.021C26.0528 23.4526 26.2188 23.9755 26.4014 24.5399C26.5758 25.1126 27.1485 25.4529 27.3395 26.0422C27.6632 26.5485 28.07 27.005 28.4269 27.5196C28.7423 28.0591 29.0661 28.6235 29.6388 28.9804C30.0954 29.4286 30.5769 29.8685 30.9421 30.4246C31.5564 30.7483 31.9382 31.3044 32.3201 31.8688C32.8181 32.3253 33.1751 32.9229 33.7479 33.3213C33.9803 33.5786 34.2376 33.8027 34.4949 34.0351L34.5946 34.1264L34.6195 34.1513H34.6278C34.6278 34.1513 34.6278 34.1596 34.6278 34.1679L34.6444 34.1845C34.661 34.2011 34.661 34.2177 34.6859 34.2758C34.7025 34.2758 34.7274 34.2758 34.7606 34.2758C34.7772 34.2758 34.7938 34.2592 34.8104 34.2509H34.8187V34.2426H34.827L34.8519 34.2094L34.9432 34.1181C35.1922 33.8774 35.4247 33.6201 35.6156 33.3296C35.9974 32.7403 36.62 32.4 37.0434 31.8771C37.6659 31.5368 37.915 30.8645 38.4213 30.4329C38.853 29.9349 39.3925 29.5448 39.7246 28.9887C40.1147 28.4741 40.48 27.9678 40.9282 27.5279C41.0444 26.839 41.7334 26.59 42.0157 26.0505C42.4722 25.6272 42.6465 25.0379 42.9537 24.5482C43.1778 24.017 43.6178 23.5937 43.7008 23.0293C43.9332 22.523 43.9664 21.9752 44.2071 21.4938C44.1905 21.3527 44.2071 21.2282 44.2403 21.1037C44.2652 20.9792 44.2984 20.8547 44.34 20.7302C44.4064 20.4812 44.4811 20.2322 44.423 19.9749V19.7923V19.618C44.4147 19.5018 44.423 19.3773 44.3981 19.2611C44.3815 19.1449 44.3649 19.0287 44.3566 18.9125C44.34 18.7963 44.3068 18.6884 44.2901 18.5722C44.3068 18.5058 44.3151 18.4477 44.3234 18.3813C44.3234 18.3232 44.315 18.2651 44.2984 18.207C44.2735 18.0908 44.2403 17.9829 44.1739 17.8833C44.1158 17.7837 44.0411 17.6924 43.983 17.6011C43.9166 17.5098 43.8336 17.4268 43.7755 17.3355C43.7506 17.2857 43.7257 17.2359 43.6925 17.1944C43.6593 17.1529 43.6261 17.1114 43.5846 17.0699C43.5099 16.9869 43.4434 16.9039 43.3604 16.8375C43.2774 16.7628 43.211 16.6881 43.1446 16.6051C43.0865 16.5221 43.0118 16.4391 42.9703 16.3312C42.8292 16.1735 42.6714 16.0323 42.5137 15.8912C42.4307 15.8248 42.3477 15.775 42.2564 15.7252C42.2149 15.7003 42.1651 15.6754 42.1236 15.6588C42.0738 15.6422 42.024 15.6256 41.9742 15.6173C41.8829 15.5841 41.7998 15.526 41.7168 15.4513C41.6338 15.3932 41.5508 15.3268 41.4678 15.2604C41.3018 15.1276 41.1026 15.0778 40.8784 15.194C40.7871 15.1774 40.6875 15.1691 40.6045 15.1359C40.5132 15.1027 40.4302 15.0612 40.3389 15.028C40.1562 14.9782 39.9653 14.9367 39.791 15.0529C39.6084 15.1691 39.434 15.1608 39.2597 15.1442C39.1767 15.1442 39.0854 15.1193 39.0024 15.111C38.9194 15.111 38.8281 15.111 38.7451 15.111C38.6621 15.1193 38.579 15.1359 38.5043 15.1608C38.4296 15.1774 38.3466 15.194 38.2719 15.2106C38.1972 15.2355 38.1225 15.2604 38.0478 15.2853C37.9731 15.3102 37.8984 15.3351 37.832 15.36C37.7572 15.3932 37.6742 15.4264 37.5995 15.4596C37.5248 15.5011 37.4584 15.5343 37.3837 15.5758C37.309 15.609 37.2426 15.6588 37.1762 15.7003C37.1098 15.7418 37.0434 15.7833 36.9852 15.8331C36.7445 16.024 36.5204 16.2149 36.3295 16.4142C35.9476 16.8126 35.6571 17.1944 35.4247 17.5181C34.9681 18.1572 34.7357 18.5224 34.6693 18.4892C34.6112 18.456 34.7523 17.9497 35.2171 17.0616C35.4579 16.63 35.7816 16.0904 36.3129 15.5509C36.5785 15.2853 36.9022 15.028 37.2758 14.8039C37.6576 14.5798 38.0976 14.4138 38.5707 14.3059C38.6621 14.281 38.7617 14.2561 38.853 14.2229C38.9526 14.1897 39.0439 14.1648 39.1435 14.1399C39.3427 14.0901 39.5503 14.0818 39.7578 14.1482C39.9653 14.1482 40.1811 14.1316 40.4053 14.115C40.5132 14.115 40.6294 14.1316 40.7373 14.1482C40.8452 14.1731 40.9614 14.1897 41.0694 14.2478C41.3184 14.1897 41.5591 14.2229 41.7749 14.3391C41.8829 14.3889 41.9908 14.447 42.0987 14.5051C42.1983 14.5715 42.3062 14.6379 42.4141 14.696C42.4722 14.7209 42.5303 14.7458 42.5801 14.779L42.7379 14.8786C42.8458 14.945 42.9454 15.0114 43.0533 15.0861C43.2525 15.2438 43.4683 15.3766 43.6842 15.526C43.8004 15.5924 43.9166 15.6671 44.0079 15.7667C44.0992 15.8663 44.1822 15.9659 44.2652 16.0738C44.3483 16.1817 44.4147 16.3062 44.4894 16.4142C44.5309 16.4723 44.5724 16.5221 44.6139 16.5719C44.6554 16.63 44.6969 16.6798 44.7384 16.7379C44.9127 17.2774 45.1535 17.7505 45.444 18.2817C45.444 18.4311 45.4689 18.5722 45.4938 18.7133C45.5104 18.8544 45.5436 19.0038 45.5768 19.1449C45.61 19.286 45.6266 19.4354 45.6515 19.5848C45.6598 19.6595 45.6681 19.7342 45.6764 19.8089C45.6764 19.8836 45.6764 19.9583 45.6764 20.0247C45.444 20.5974 45.527 21.1784 45.4772 21.7926C45.4191 22.3985 45.1286 22.9546 44.9542 23.5356C44.6886 24.0917 44.506 24.6893 44.1739 25.2205C43.9664 25.8181 43.6593 26.3908 43.1944 26.8473C42.8956 27.4117 42.4722 27.9097 42.0738 28.416C41.7417 28.9804 41.252 29.4286 40.8369 29.9432C40.4385 30.4744 39.791 30.7815 39.5171 31.4372C39.0854 31.9518 38.5707 32.4 38.1308 32.9146C37.6327 33.3794 37.1347 33.8525 36.6947 34.3837C36.3627 34.5414 36.1053 34.7738 35.8729 35.0311C35.4828 35.4793 35.0843 35.9441 34.6859 36.4006C34.4534 36.1931 34.2127 35.969 33.972 35.7366L33.615 35.388L33.3826 35.1473C33.1419 34.8983 32.9094 34.641 32.677 34.3837C32.1707 33.9106 31.6975 33.4126 31.2409 32.9063C30.718 32.4664 30.3776 31.8522 29.8547 31.4289C29.3234 31.0056 29.0412 30.3665 28.5348 29.9349C28.0533 29.4784 27.6051 28.9887 27.298 28.4077C26.8995 27.8931 26.7003 27.2457 26.1773 26.839C25.7872 26.341 25.2144 25.9343 25.2061 25.2122C24.8326 24.6976 24.7744 24.0419 24.4258 23.5273C24.4258 23.1953 24.3262 22.9131 24.21 22.6309C24.0938 22.357 23.9609 22.0748 23.8945 21.776C23.8032 21.1784 23.8198 20.5891 23.6953 20.0081C23.6787 19.9334 23.6621 19.8587 23.6621 19.7923C23.6621 19.7176 23.6621 19.6429 23.6621 19.5682C23.6704 19.4188 23.6787 19.2694 23.7119 19.12C23.7451 18.9789 23.7783 18.8295 23.8198 18.6884C23.853 18.5473 23.9028 18.4062 23.9277 18.2651C23.9277 18.1904 23.936 18.1157 23.9526 18.041C23.9692 17.9663 24.0025 17.8999 24.0274 17.8335C24.0855 17.7007 24.1519 17.5679 24.2349 17.4517C24.3179 17.3355 24.3926 17.2193 24.459 17.0948C24.5254 16.9703 24.6001 16.8541 24.6333 16.713L24.7495 16.5387L24.8741 16.3727C24.9571 16.2648 25.0318 16.1486 25.1231 16.049C25.2144 15.9493 25.2974 15.8497 25.3887 15.7501C25.48 15.6505 25.5879 15.5758 25.6876 15.4928C25.7623 15.1857 25.9947 15.0363 26.2271 14.9118C26.3516 14.862 26.4762 14.8205 26.6007 14.7873C26.6588 14.7707 26.7252 14.7458 26.7833 14.7292C26.8414 14.7126 26.8995 14.6877 26.9576 14.6711C27.0738 14.6296 27.1817 14.5715 27.2814 14.5051C27.3893 14.447 27.4972 14.3889 27.6051 14.3308C27.8209 14.2146 28.0533 14.1648 28.3024 14.2229C28.402 14.1316 28.5099 14.0901 28.6178 14.0569C28.7257 14.0237 28.8419 14.0154 28.9582 14.0154C29.1823 14.0403 29.4064 14.0901 29.6139 14.1233C29.8215 14.1648 30.0207 14.1399 30.2282 14.1482C30.3278 14.1482 30.4274 14.1482 30.5271 14.1731C30.6267 14.198 30.718 14.2229 30.8093 14.281C30.9172 14.2561 31.0168 14.2644 31.1081 14.281C31.1994 14.3059 31.2907 14.3474 31.3738 14.3889C31.4568 14.4387 31.5398 14.4968 31.6228 14.5383C31.7058 14.5798 31.7888 14.6213 31.8718 14.6462C31.9382 14.7126 32.0129 14.7624 32.0876 14.8039C32.1624 14.8537 32.2371 14.8952 32.3118 14.9367C32.4612 15.0114 32.6106 15.0944 32.7268 15.2023C32.8679 15.277 32.9842 15.3849 33.1004 15.4845C33.2083 15.5924 33.2913 15.7169 33.366 15.8331C33.5403 16.0489 33.698 16.2565 33.8309 16.4557C34.221 17.0533 34.4368 17.5513 34.578 17.8916C34.7108 18.2319 34.7523 18.4228 34.7108 18.4477L34.6776 18.4726Z" fill="#0061EF"/>
<path d="M44.3313 23.2036C44.3313 23.2949 43.9079 23.3862 43.1276 23.4692C42.9948 23.4858 42.862 23.4941 42.7126 23.5107C42.6794 23.5107 42.6296 23.519 42.5715 23.5273C42.5217 23.5273 42.4636 23.5356 42.4055 23.5439C42.2975 23.5439 42.1813 23.5522 42.0651 23.5439C42.0402 23.5273 42.0153 23.519 41.9904 23.519C41.9489 23.4277 41.8576 23.3862 41.7746 23.3198C41.6916 23.2534 41.6086 23.1538 41.6252 23.0044C41.6169 22.9795 41.6086 22.9546 41.592 22.9214C41.592 22.8965 41.5754 22.8799 41.567 22.855C41.5421 22.8135 41.5172 22.772 41.4923 22.7305C41.4342 22.6558 41.3678 22.5811 41.3014 22.4981C41.1603 22.3404 41.1603 22.0997 40.9528 21.9669C40.6373 21.8922 40.9528 21.444 40.5792 21.3942C40.5377 21.3527 40.4962 21.3029 40.463 21.2614L40.4381 21.2282L40.4215 21.2116C40.4215 21.2116 40.4049 21.195 40.4049 21.1784C40.38 21.1369 40.3634 21.0871 40.3385 21.0373C40.3634 20.8962 40.3219 20.8298 40.2804 20.8132C40.2389 20.7966 40.1974 20.8298 40.1725 20.8132C40.1725 20.6887 40.1476 20.5808 40.131 20.5144C40.0812 20.5061 40.0231 20.7634 40.0231 20.9792C39.8653 20.6555 39.6993 21.029 39.8985 21.2531C39.8985 21.2531 39.8736 21.3029 39.857 21.3278L39.7906 21.4191C39.7491 21.4772 39.7076 21.5436 39.6578 21.6017C39.5748 21.7262 39.5001 21.859 39.4835 22.025C39.3507 22.2989 39.2428 22.5977 39.0352 22.8467C39.0352 23.0376 39.002 23.1953 38.9273 23.3364C38.9107 23.3696 38.8858 23.4028 38.8609 23.436C38.8526 23.4526 38.836 23.4692 38.8194 23.4858L38.753 23.5688C38.6617 23.685 38.5621 23.8012 38.4542 23.8925C38.421 24.0253 38.3795 24.1664 38.3297 24.2909C38.1055 24.3324 37.8482 24.3324 37.5909 24.3158C37.5245 24.3158 37.4663 24.3075 37.3999 24.2992C37.3667 24.2992 37.3335 24.2826 37.3003 24.2743C37.2339 24.2577 37.1675 24.2328 37.1011 24.2162C36.7608 24.1 36.4204 24.4071 36.0718 24.2328H35.9971H35.9473C35.939 24.2328 35.9307 24.2328 35.9141 24.2328C35.8975 24.2328 35.8808 24.2411 35.8642 24.2494C35.8559 24.2826 35.8476 24.2992 35.8227 24.3158H35.8144C35.8144 24.3158 35.8144 24.3158 35.7978 24.3241L35.748 24.3739L35.6567 24.4735C35.5986 24.5399 35.5405 24.6146 35.4907 24.6893C35.3911 24.8387 35.3164 25.013 35.3164 25.2205C35.25 25.3948 35.1836 25.5691 35.1006 25.7351C35.0757 25.7766 35.059 25.8181 35.0341 25.8596L34.9926 25.9177L34.9345 26.0007C34.8349 26.1501 34.7353 26.2912 34.6274 26.4157C34.5361 26.8058 34.3452 27.1959 34.1542 27.503C33.9633 27.8184 33.7558 28.0508 33.5815 28.2417C33.3822 28.6235 33.1913 28.8808 33.0087 29.1547C32.934 28.8144 32.8593 28.5239 32.7431 28.3247C32.6601 27.9429 32.5521 27.6441 32.4442 27.3121C32.3363 26.9801 32.2284 26.6149 32.1786 26.2248C32.1454 26.0422 32.1122 25.8596 32.079 25.677L32.0541 25.5442V25.511L32.0458 25.4944V25.4612C32.0292 25.4114 32.0209 25.3616 32.0126 25.3201C31.9711 25.1292 31.9047 24.9466 31.7884 24.7723C31.5477 24.432 31.6473 24.0087 31.4979 23.6518C31.6224 23.2866 31.39 23.5107 31.4315 23.3779C31.4149 23.3696 31.4315 23.2949 31.4315 23.2202C31.4315 23.1455 31.4232 23.0708 31.3983 23.1621V23.1953C31.3651 23.27 31.3568 23.3364 31.3485 23.3613C31.3402 23.3862 31.3319 23.3779 31.2987 23.3364C31.3402 23.602 31.3485 23.5356 31.2987 23.5024C31.2821 23.4858 31.2489 23.4692 31.224 23.4609C31.2074 23.4609 31.1991 23.4609 31.1908 23.4609L31.1742 23.4858C31.1742 23.4858 31.1576 23.5273 31.1493 23.5439C30.8504 23.7763 30.8172 24.1498 30.618 24.432C30.5599 24.5897 30.4437 24.7225 30.3358 24.847C30.286 24.9134 30.2279 24.9798 30.1863 25.0462C30.1614 25.0794 30.1448 25.1209 30.1365 25.1541C30.1365 25.1707 30.1199 25.1956 30.1199 25.2122V25.2454C30.1199 25.2454 30.1116 25.262 30.1033 25.2869C29.9539 25.5276 29.8294 25.7932 29.6883 26.0588C29.4061 26.0754 29.1072 26.0754 28.825 26.009C28.7835 26.0173 28.7752 26.0256 28.7503 26.0339C28.7337 26.0339 28.7088 26.0422 28.6922 26.0505C28.6507 26.0505 28.6175 26.0588 28.576 26.0505C28.5012 26.0505 28.4182 26.0256 28.3435 26.009C28.1858 25.9675 28.0364 25.9177 27.8787 25.9758C27.5715 25.9758 27.2727 25.9841 26.9822 25.9509C26.6916 25.6936 26.4011 25.9094 26.1271 25.926C25.8449 25.9011 25.571 26.0754 25.3137 25.9011C25.048 25.8762 24.7907 25.7683 24.5417 25.8679C24.2926 25.9094 24.0436 25.4944 23.8112 25.8347C23.5787 25.8928 23.3463 25.5691 23.1305 25.8015C22.9147 26.009 22.6988 25.7766 22.4996 25.7683C22.3004 25.7517 22.1012 25.7434 21.9185 25.7351C20.25 25.6272 19.2871 25.4944 19.2871 25.3533C19.2871 25.1956 20.4659 25.0545 22.4996 24.9383C22.6988 24.93 22.9147 24.7474 23.1305 24.9051C23.3463 24.9051 23.5787 24.764 23.8112 24.8719C24.0436 24.6312 24.2926 24.8304 24.5417 24.8387C24.7907 24.8304 25.048 24.9051 25.3137 24.8055C25.5793 24.6644 25.8532 24.8719 26.1271 24.7723C26.4094 24.9217 26.6916 24.8802 26.9822 24.7474C27.2727 24.8885 27.5715 24.7142 27.8787 24.7225C28.0281 24.8304 28.1858 24.847 28.3435 24.8304C28.4182 24.8221 28.5012 24.7972 28.576 24.7723L28.6922 24.7391L28.7503 24.7225C28.7503 24.7225 28.8001 24.7142 28.8001 24.7059C28.8333 24.6644 28.8582 24.6727 28.8997 24.6893C28.9246 24.6727 28.9578 24.6478 28.9495 24.598C28.9495 24.598 28.9495 24.598 28.9661 24.5814L28.9827 24.5565L29.0159 24.5067C29.0159 24.5067 29.0574 24.432 29.0823 24.3988C29.1238 24.3241 29.157 24.2494 29.1902 24.1747C29.2566 24.0253 29.3313 23.8676 29.431 23.7348C29.514 23.3862 29.6468 23.0708 29.929 22.8301L29.9539 22.772V22.7388L29.9871 22.689C30.0203 22.6143 30.0618 22.5396 30.1033 22.4732C30.178 22.3321 30.2611 22.1827 30.3524 22.0416C30.5184 21.7594 30.6927 21.4938 30.8587 21.2116C31.0082 20.863 31.1908 20.5642 31.3568 20.2903C31.5311 20.0164 31.6888 19.7674 31.8632 19.452L31.8964 19.3773C31.9877 19.6678 32.0458 20.1243 32.1122 20.4895C32.1786 20.863 32.2533 21.1369 32.411 21.2946C32.5106 21.61 32.5936 21.9669 32.685 22.3155C32.7265 22.4898 32.768 22.6641 32.8178 22.8301L32.8925 23.0874C32.9091 23.1372 32.9091 23.1455 32.9174 23.1704L32.9423 23.2368C33.0087 23.6103 33.0834 23.9921 33.2411 24.349C33.1747 24.5648 33.2079 24.764 33.2743 24.9466C33.2909 24.9881 33.3075 25.0379 33.3324 25.0794L33.349 25.1126V25.1292H33.3656C33.3656 25.1292 33.3822 25.1292 33.3822 25.1375C33.4071 25.1458 33.4403 25.1458 33.457 25.1375C33.4902 25.1375 33.4985 25.1375 33.4985 25.1541C33.4985 25.1707 33.4985 25.2205 33.4902 25.2786C33.4985 25.2786 33.5068 25.2786 33.5068 25.3035C33.5151 25.2869 33.5234 25.2869 33.54 25.2786C33.5483 25.1956 33.5566 25.2288 33.5815 25.2371C33.5981 25.2454 33.6313 25.2288 33.6147 25.1624C33.6064 25.1292 33.5981 25.1209 33.6147 25.1126L33.6313 25.0794L33.6728 25.0213L33.7558 24.9134C33.872 24.764 33.9882 24.6229 34.038 24.4403C34.0961 24.266 34.1708 24.0917 34.2538 23.934C34.2954 23.8593 34.3452 23.7763 34.4033 23.7099C34.4282 23.6767 34.4614 23.6352 34.4946 23.602L34.5444 23.5522C34.5444 23.5522 34.561 23.5273 34.5776 23.5107L34.6191 23.4609C34.7519 23.2202 34.9179 23.0127 35.0673 22.8218C35.2666 22.8467 35.4492 22.855 35.6235 22.855C35.7148 22.855 35.7978 22.8467 35.8891 22.8301C35.9058 22.8301 35.939 22.8301 35.9556 22.8135L35.9971 22.7969C35.9971 22.7969 36.0469 22.772 36.0718 22.7554C36.4204 22.7056 36.7608 22.44 37.1011 22.772C37.1675 22.7554 37.2339 22.7554 37.3003 22.7554C37.3335 22.7554 37.3667 22.7554 37.3999 22.7637L37.4165 22.7803C37.4165 22.7803 37.4912 22.8384 37.5245 22.8301C37.5245 22.8135 37.5245 22.7803 37.5245 22.7471C37.5743 22.7803 37.6158 22.7803 37.6407 22.7637C37.6407 22.7637 37.6407 22.7637 37.6573 22.7471C37.6656 22.7305 37.6822 22.7139 37.6905 22.6973C37.7071 22.6641 37.7237 22.6226 37.7403 22.5894C37.7984 22.44 37.8316 22.274 37.9146 22.1329C38.1138 21.8839 38.338 21.6515 38.4044 21.3361C38.4293 21.1784 38.5206 21.0539 38.6202 20.9377C38.67 20.8796 38.7198 20.8215 38.7613 20.7634C38.7862 20.7302 38.8028 20.7053 38.8277 20.6721C38.8526 20.6389 38.8609 20.6223 38.8941 20.5559C38.9605 20.2986 39.1348 20.0911 39.276 19.9334C39.4254 19.7591 39.5499 19.6346 39.6329 19.3275C39.8072 19.0619 39.9733 18.7382 40.1393 18.4643C40.1974 18.5722 40.2555 18.6884 40.3136 18.8129C40.4464 18.7133 40.5792 18.9457 40.6788 19.2113C40.7784 19.4769 40.8449 19.7674 40.9362 19.95C41.0192 20.1492 41.152 20.2654 41.2848 20.4314C41.318 20.4729 41.3512 20.5144 41.3761 20.5559C41.3927 20.5808 41.401 20.5974 41.4176 20.6223C41.4176 20.6389 41.4342 20.6472 41.4342 20.6638C41.4508 20.7219 41.4591 20.7883 41.4342 20.8713C41.7663 20.946 41.6916 21.2531 41.7497 21.4772C41.7995 21.7013 42.0568 21.8009 42.0402 22.0416C42.1647 22.0831 42.1979 22.1827 42.2145 22.2906C42.2145 22.3404 42.2311 22.3985 42.2394 22.44C42.2394 22.4649 42.256 22.4898 42.2643 22.5064C42.2643 22.5147 42.2726 22.523 42.2809 22.5396C42.2809 22.5396 42.2892 22.5479 42.2975 22.5562C42.2809 22.6226 42.2975 22.6724 42.3224 22.7139C42.3473 22.7471 42.3805 22.772 42.4055 22.8135C42.4221 22.8135 42.4304 22.8135 42.4387 22.8135C42.4968 22.7969 42.5466 22.7886 42.5881 22.7969C42.613 22.7969 42.6296 22.8052 42.6545 22.8135C42.6794 22.8218 42.696 22.8384 42.7375 22.855C42.8869 22.8716 43.028 22.8799 43.1525 22.8965C43.9328 22.9795 44.3562 23.0625 44.3562 23.1538L44.3313 23.2036Z" fill="#0061EF"/>
</svg>
