<svg width="68" height="65" viewBox="0 0 68 65" fill="none" xmlns="http://www.w3.org/2000/svg">
<circle cx="13.5" cy="19.5" r="13.5" fill="#BFF2FB"/>
<g clip-path="url(#clip0_3484_38827)">
<path d="M59.895 30.9117C59.895 30.9117 59.7218 30.9117 59.4506 31.0241C59.315 31.0765 59.1493 31.1439 58.961 31.2339C58.9158 31.2563 58.863 31.2788 58.8103 31.3013C58.7576 31.3238 58.7048 31.3387 58.6446 31.3612C58.5316 31.4062 58.4111 31.4511 58.283 31.4961C58.1173 31.5635 57.9365 31.6309 57.7406 31.7133C57.5372 31.7658 57.3263 31.8257 57.1154 31.9231C56.9346 32.1104 56.6031 31.9156 56.4148 32.1404C56.1813 32.2603 55.9101 32.3052 55.6389 32.3502C55.3602 32.3876 55.0966 32.5524 54.7802 32.53C54.6069 32.4625 54.4789 32.5599 54.3282 32.6348C54.1851 32.7098 54.0344 32.7847 53.8461 32.6798C53.6804 32.6798 53.5146 32.6948 53.3564 32.7247C53.1907 32.7472 53.025 32.7697 52.8517 32.7922C52.686 32.8896 52.5128 32.9046 52.332 32.9046C52.1512 32.9046 51.9704 32.8596 51.7896 32.8521C51.6088 32.957 51.428 32.987 51.2397 32.9795C51.1418 32.9795 51.0514 32.9645 50.9534 32.942C50.8555 32.9195 50.7651 32.8821 50.6672 32.8521C50.4713 32.9795 50.2755 33.0319 50.0796 33.0169C49.8837 32.9945 49.6879 32.912 49.4996 32.7697C49.2962 32.7622 49.0928 32.7472 48.8894 32.7397C48.686 32.7247 48.4751 32.7023 48.2792 32.6049C48.0758 32.5599 47.8724 32.515 47.6615 32.4625C47.4581 32.4101 47.2472 32.3651 47.0288 32.3427C46.6521 32.0655 46.2303 31.9681 45.7632 31.9756C45.5749 31.8257 45.379 31.7208 45.1606 31.6459C45.0551 31.6085 44.9421 31.586 44.8291 31.5635C44.7161 31.541 44.6031 31.5111 44.4826 31.4961C44.2491 31.4586 44.0457 31.3312 43.8574 31.1964C43.6615 31.0615 43.4581 30.9417 43.2171 30.8967C42.7877 30.6944 42.396 30.4023 41.9741 30.17C41.5222 29.9752 41.0551 29.7579 40.7764 29.3159C40.4148 28.9713 40.0758 28.6042 39.6389 28.3345C39.5259 28.0872 39.3602 27.8925 39.187 27.7126C39.0966 27.6227 38.9986 27.5403 38.8932 27.4654C38.7952 27.383 38.6898 27.3006 38.5843 27.2257C38.509 27.1208 38.4186 27.0309 38.3357 26.9335C38.2529 26.8361 38.1625 26.7387 38.0721 26.6413C37.8913 26.454 37.7406 26.2367 37.6352 25.9895C37.4694 25.7872 37.3564 25.5475 37.2284 25.3227C37.1003 25.0905 36.9873 24.8582 36.8141 24.6484C36.6634 24.4312 36.5203 24.2064 36.3998 23.9667C36.2943 23.7269 36.1888 23.4797 36.1587 23.2175C36.0984 22.6856 35.7595 22.2585 35.6766 21.7491C35.6013 21.6367 35.5485 21.5168 35.5109 21.3969C35.4732 21.2696 35.4657 21.1422 35.4581 21.0149C35.4506 20.8875 35.4431 20.7601 35.428 20.6328C35.4205 20.5054 35.4054 20.3855 35.3753 20.2582C35.3602 20.1308 35.3376 20.0109 35.315 19.8836C35.2924 19.7637 35.2773 19.6363 35.2547 19.5165C35.2397 19.3966 35.2171 19.2692 35.2171 19.1419C35.2171 19.022 35.2171 18.8946 35.2472 18.7673C35.2472 18.6474 35.2547 18.52 35.2623 18.4002C35.2623 18.2728 35.2773 18.1454 35.2773 18.0181C35.2773 17.7634 35.2698 17.5086 35.2246 17.2614C35.5184 16.7594 35.1493 16.265 35.2096 15.7705C35.089 15.2835 35.2321 14.7966 35.1945 14.3246C35.2472 13.8526 35.0589 13.3806 35.1794 12.9161C35.1568 12.4516 35.2773 12.0021 35.1644 11.56C35.3075 11.118 35.0438 10.676 35.1418 10.249C35.1418 9.82192 35.1493 9.40237 35.1192 8.99031C34.8932 8.57825 35.0815 8.18118 35.0966 7.78411C35.074 7.39453 35.2246 7.01244 35.074 6.63784C35.0589 6.26325 34.9534 5.90363 35.0438 5.55151C35.074 5.19939 34.7124 4.86226 35.0137 4.52512C35.0137 4.48766 35.0212 4.44271 35.0137 4.40525C35.0137 4.38277 35.0137 4.36779 35.0137 4.34531C35.0137 4.33033 35.0137 4.32284 35.0062 4.31535C34.9911 4.27789 34.9685 4.23293 34.9459 4.18049C34.9082 4.0831 34.8856 3.94824 34.9836 3.96322H34.9911C35.3075 4.15801 35.1719 3.94824 35.4958 3.93326C35.7821 3.91827 36.0608 3.91078 36.3169 3.90329C38.6747 3.80589 40.0306 3.69352 40.0306 3.56615C40.0306 3.4313 38.3583 3.30393 35.4958 3.19905C35.4581 3.19905 35.428 3.19905 35.3903 3.19156H35.3602L35.315 3.18406H35.2321C35.1192 3.16159 34.9986 3.1466 34.8781 3.13162C34.637 3.10914 34.3659 3.10165 34.1926 3.16908H34.1851C34.1851 3.40133 34.1549 3.6186 34.1323 3.86583C34.1248 3.9857 34.1173 4.12055 34.1173 4.24792V4.34531C34.1173 4.34531 34.1173 4.38277 34.1248 4.40525C34.1248 4.4502 34.1399 4.48766 34.1474 4.52512C33.9365 4.85476 34.1097 5.19939 34.1173 5.55151C34.1097 5.90363 34.1775 6.26325 34.0871 6.63784C33.9666 7.01244 34.1474 7.39453 34.0645 7.78411C34.1926 8.17369 34.1625 8.57825 34.0419 8.99031C34.17 9.40237 34.0118 9.82192 34.0193 10.249C34.2152 10.676 34.0796 11.118 33.9967 11.56C33.9289 12.0021 34.0269 12.4591 33.9817 12.9161C34.0193 13.3806 33.9289 13.8451 33.9666 14.3246C33.8762 14.804 33.8386 15.2835 33.9515 15.7705C33.8913 16.2575 33.9365 16.7594 33.9365 17.2614C33.8988 17.5086 33.8988 17.7634 33.9063 18.0181C33.9063 18.1454 33.9139 18.2728 33.9214 18.4002C33.9214 18.5275 33.9365 18.6699 33.9289 18.8047C33.9289 18.9396 33.9289 19.0744 33.9515 19.2093C33.9741 19.3442 34.0043 19.479 34.0344 19.6139C34.057 19.7487 34.0796 19.8836 34.0871 20.0184C34.0947 20.1533 34.0871 20.2956 34.057 20.438C34.0721 20.5728 34.0871 20.7152 34.1097 20.85C34.1399 20.9849 34.17 21.1197 34.2001 21.2546C34.2303 21.3895 34.2604 21.5243 34.2905 21.6592C34.3282 21.794 34.3583 21.9289 34.3809 22.0712C34.5466 22.6106 34.75 23.1351 34.9007 23.6895C35.1041 23.9217 35.2397 24.169 35.3376 24.4387C35.4431 24.7009 35.5259 24.9856 35.6239 25.2628C35.7444 25.525 35.8649 25.7872 36.0231 26.0345C36.1813 26.2742 36.3395 26.5139 36.5203 26.7387C36.6709 26.9784 36.8367 27.2182 37.0175 27.4354C37.1079 27.5478 37.1907 27.6602 37.2811 27.7651C37.3715 27.87 37.4694 27.9749 37.5598 28.0798C37.6427 28.1921 37.7256 28.3045 37.8235 28.4019C37.9214 28.4993 38.0269 28.5967 38.1323 28.6866C38.3357 28.8814 38.5466 29.0537 38.7199 29.271C38.8856 29.4957 39.1116 29.6531 39.3301 29.8179C39.5485 29.9827 39.7821 30.125 39.9628 30.3273C40.347 30.7019 40.7764 31.0391 41.2736 31.2339C41.718 31.5185 42.2604 31.601 42.6295 31.9905C42.8404 32.1329 43.0438 32.2977 43.2623 32.4326C43.4807 32.5674 43.7218 32.6498 44.008 32.6049C44.1135 32.6723 44.2265 32.7173 44.347 32.7547C44.4676 32.7922 44.5881 32.8147 44.7086 32.8446C44.9497 32.9046 45.1832 32.9645 45.3941 33.0919C45.9139 33.0319 46.3056 33.3466 46.7651 33.4515C46.9986 33.4814 47.2246 33.4964 47.4506 33.5339C47.6766 33.5638 47.895 33.6013 48.106 33.6837C48.3169 33.7736 48.5429 33.7811 48.7613 33.7886C48.9798 33.7886 49.1982 33.7886 49.4092 33.8186C49.6201 33.8935 49.831 33.871 50.0419 33.8485C50.2529 33.8186 50.4563 33.7811 50.6596 33.856C50.863 33.856 51.0589 33.8485 51.2623 33.841C51.4581 33.841 51.654 33.8336 51.8499 33.8036C52.0457 33.9459 52.2416 33.9384 52.4299 33.871C52.6182 33.8111 52.7915 33.7137 52.9723 33.6837C53.1531 33.6388 53.3338 33.6837 53.5146 33.6837C53.6954 33.6837 53.8687 33.6537 54.0193 33.5189C54.396 33.6762 54.6898 33.444 54.9836 33.3016C55.2773 33.1593 55.6163 33.2492 55.8649 33.0544C56.1888 33.1143 56.3847 32.7997 56.6559 32.7697C56.8819 32.5974 57.1455 32.5899 57.364 32.4775C57.5975 32.4251 57.8084 32.3277 57.9892 32.2003C58.1775 32.1029 58.3583 32.0055 58.5165 31.9156C58.637 31.8482 58.75 31.7808 58.863 31.7208C58.9158 31.6909 58.9685 31.6609 59.0212 31.6309C59.0664 31.601 59.1192 31.571 59.1644 31.541C59.3451 31.4212 59.4883 31.3163 59.6088 31.2264C59.8423 31.054 59.9553 30.9417 59.9327 30.9117H59.895Z" fill="#0061EF"/>
<path d="M63.0889 28.3945C63.0287 28.3345 62.9759 28.2821 62.9232 28.2296L62.9006 28.2072C62.9006 28.2072 62.8855 28.1922 62.878 28.1847C62.8629 28.1697 62.878 28.1847 62.8554 28.1622C62.8855 28.1922 62.8554 28.1622 62.8328 28.1397C62.8027 28.1098 62.8855 28.1847 62.8102 28.1173C62.6596 27.9674 62.9759 28.2821 62.7876 28.0948C62.75 28.0573 62.7575 28.0648 62.765 28.0723C62.878 28.1847 62.765 28.0723 62.7424 28.0498C62.8855 28.1847 62.8178 28.1247 62.7274 28.0348C62.9157 28.2221 62.8855 28.1922 62.7123 28.0199C62.7123 28.0199 62.7801 28.0873 62.6972 28.0049C62.6822 27.9899 62.652 27.9599 62.6822 27.9899C62.5541 27.8625 62.5616 27.87 62.6671 27.9749C62.5315 27.8401 62.5842 27.8925 62.652 27.9674C62.7274 28.0423 62.5315 27.855 62.637 27.9599C62.6445 27.9674 62.6068 27.93 62.6294 27.9524C62.6822 28.0049 62.75 28.0648 62.6219 27.9524C62.5918 27.9225 62.539 27.8775 62.6219 27.9524C62.539 27.8775 62.4788 27.8101 62.6219 27.9524C62.7048 28.0273 62.5993 27.93 62.6219 27.9524C62.6445 27.9749 62.5541 27.8925 62.6219 27.9524C62.7048 28.0348 62.6671 27.9974 62.6219 27.9524C62.6596 27.9899 62.5315 27.8625 62.6219 27.9524C62.7575 28.0873 62.5767 27.9075 62.6219 27.9524C62.6972 28.0273 62.6068 27.9374 62.6219 27.9524C62.5993 27.93 62.5692 27.9 62.6294 27.9524C62.4185 27.7501 62.6822 28.0049 62.637 27.9599C62.7274 28.0498 62.6219 27.9449 62.6445 27.9674C62.6068 27.93 62.7424 28.0573 62.6596 27.9824C62.6746 27.9974 62.5918 27.915 62.6746 27.9974C62.5692 27.8925 62.765 28.0798 62.6897 28.0124C62.6897 28.0124 62.6897 28.0124 62.7048 28.0273C62.8705 28.1847 62.7349 28.0573 62.7198 28.0423C62.7349 28.0573 62.6294 27.9524 62.7349 28.0573C62.75 28.0723 62.8178 28.1397 62.7575 28.0798C62.7349 28.0573 62.9985 28.312 62.7801 28.1023C62.7424 28.0648 62.9458 28.2671 62.8027 28.1247C62.6671 27.9899 62.8178 28.1397 62.8253 28.1472L62.8479 28.1697C62.9157 28.2371 62.9985 28.3195 63.0889 28.4019C63.1869 28.4993 63.2773 28.5818 63.3526 28.6567C63.3601 28.6567 63.4731 28.7765 63.3752 28.6791C63.3752 28.6791 63.4656 28.7616 63.3978 28.7016C63.5484 28.8515 63.4279 28.7316 63.4204 28.7241C63.4204 28.7241 63.3752 28.6866 63.443 28.7391C63.5334 28.8215 63.3978 28.6941 63.4581 28.7541C63.3677 28.6642 63.3903 28.6866 63.4731 28.7691C63.3827 28.6791 63.4957 28.784 63.4882 28.784C63.3451 28.6492 63.443 28.7466 63.5033 28.799C63.556 28.8515 63.4807 28.7765 63.5183 28.814C63.4882 28.784 63.556 28.8515 63.5334 28.829C63.6012 28.8964 63.6238 28.9189 63.5409 28.8365C63.5861 28.8814 63.5484 28.844 63.5484 28.844C63.5786 28.8739 63.3978 28.7016 63.5484 28.844C63.571 28.8664 63.5258 28.8215 63.5484 28.844C63.5258 28.8215 63.5108 28.8065 63.5484 28.844C63.4882 28.784 63.3978 28.6941 63.5484 28.844C63.5936 28.8889 63.571 28.8664 63.5484 28.844C63.5635 28.859 63.556 28.844 63.5484 28.844C63.5936 28.8889 63.4807 28.784 63.5484 28.844C63.6162 28.9039 63.4807 28.7765 63.5484 28.844C63.5936 28.8889 63.6162 28.9114 63.5409 28.844C63.5409 28.844 63.4053 28.7091 63.5334 28.8365C63.5635 28.8664 63.7368 29.0313 63.5258 28.829C63.5786 28.8814 63.4204 28.7316 63.5108 28.8215C63.3526 28.6717 63.5033 28.814 63.4957 28.8065C63.4656 28.7765 63.4129 28.7241 63.4807 28.7915C63.556 28.8664 63.443 28.7541 63.4656 28.7765C63.556 28.8664 63.3451 28.6642 63.4505 28.7616C63.4355 28.7466 63.4505 28.7616 63.4355 28.7466C63.6464 28.9489 63.4355 28.7466 63.4129 28.7316C63.3827 28.7016 63.556 28.8664 63.3903 28.7091C63.5484 28.8664 63.4129 28.7316 63.3677 28.6866C63.3225 28.6417 63.4355 28.7541 63.3451 28.6642C63.4581 28.769 63.2848 28.6042 63.3225 28.6417C63.2848 28.6117 63.3074 28.6267 63.2999 28.6192C63.2848 28.6042 63.2999 28.6192 63.2773 28.5967L63.2547 28.5743C63.2019 28.5218 63.1492 28.4694 63.0889 28.4094V28.3945Z" fill="#0061EF"/>
<path d="M65.5136 25.143C65.4458 25.1055 65.3705 25.068 65.3102 25.0306L65.2801 25.0156C65.2801 25.0156 65.2575 25.0006 65.25 25.0006C65.2349 24.9931 65.25 25.0006 65.2198 24.9856C65.1972 24.9781 65.2048 24.9781 65.1897 24.9707C65.1746 24.9707 65.1972 24.9707 65.1596 24.9557C65.137 24.9407 65.1596 24.9557 65.137 24.9407C65.1068 24.9257 65.1144 24.9332 65.1144 24.9257C65.0918 24.9107 65.0918 24.9182 65.0918 24.9107C65.0767 24.9032 65.0842 24.9107 65.0692 24.8957C65.0541 24.8882 65.0692 24.8957 65.0466 24.8807C65.0466 24.8807 65.0466 24.8807 65.0315 24.8733C65.0315 24.8733 65.0315 24.8733 65.0164 24.8658C65.0014 24.8658 65.0164 24.8658 65.0014 24.8583C64.9863 24.8583 65.0014 24.8583 64.9863 24.8508C64.9788 24.8508 64.9863 24.8508 64.9712 24.8508C64.9712 24.8508 64.9712 24.8508 64.9562 24.8508C64.9562 24.8508 64.9562 24.8508 64.9486 24.8508C64.9788 24.8658 64.8733 24.8058 64.9486 24.8508C65.0541 24.9107 65.0014 24.8807 64.9486 24.8508C64.9486 24.8508 64.9486 24.8508 64.9562 24.8508C64.9712 24.8508 64.9637 24.8508 64.9712 24.8508C64.9863 24.8583 64.9788 24.8508 64.9863 24.8508C64.9938 24.8508 64.9863 24.8508 65.0014 24.8583C65.0014 24.8583 65.0014 24.8583 65.0164 24.8658C65.0315 24.8733 65.0164 24.8658 65.0315 24.8733C65.0315 24.8733 65.0315 24.8733 65.0541 24.8807C65.0767 24.8957 65.0767 24.8882 65.0767 24.8957C65.0767 24.8957 65.0692 24.8957 65.0993 24.9032C65.0993 24.9032 65.0993 24.9032 65.1219 24.9182C65.1219 24.9182 65.1219 24.9182 65.1445 24.9332C65.152 24.9332 65.1445 24.9332 65.1746 24.9482C65.2048 24.9632 65.1972 24.9632 65.2048 24.9632L65.2349 24.9781C65.3253 25.0231 65.4232 25.083 65.5287 25.143C65.6492 25.2104 65.7622 25.2703 65.8526 25.3228C65.8526 25.3228 65.8526 25.3228 65.8827 25.3378C65.8827 25.3378 65.8827 25.3378 65.9053 25.3527C65.9355 25.3677 65.9279 25.3677 65.9279 25.3677C65.9279 25.3677 65.9204 25.3677 65.9505 25.3827C65.9731 25.3977 65.9505 25.3827 65.9731 25.3902C65.9882 25.3977 65.9731 25.3902 65.9957 25.4052C66.0183 25.4127 66.0183 25.4127 66.0183 25.4127C66.0334 25.4202 66.0334 25.4127 66.0334 25.4202C66.056 25.4277 66.0334 25.4202 66.0485 25.4277C66.0635 25.4277 66.0485 25.4277 66.0635 25.4277C66.0635 25.4277 66.0635 25.4277 66.0786 25.4277C66.0936 25.4277 66.0936 25.4277 66.0936 25.4277C66.1087 25.4277 66.0936 25.4277 66.1012 25.4277C66.0259 25.3902 65.9129 25.3228 66.1012 25.4277C66.1539 25.4576 66.1313 25.4426 66.1012 25.4277C66.1012 25.4277 66.1012 25.4277 66.0936 25.4277C66.0936 25.4277 66.0936 25.4277 66.0786 25.4277C66.0786 25.4277 66.0786 25.4277 66.0635 25.4277C66.056 25.4277 66.0635 25.4277 66.0485 25.4202C66.0259 25.4127 66.0334 25.4127 66.0334 25.4127C66.0259 25.4127 66.0334 25.4127 66.0183 25.4052C65.9957 25.3977 66.0033 25.4052 65.9957 25.3977C65.9807 25.3902 65.9957 25.3977 65.9731 25.3827C65.9505 25.3752 65.9807 25.3827 65.9505 25.3677C65.9279 25.3527 65.9279 25.3602 65.9279 25.3527C65.9279 25.3527 65.9279 25.3527 65.9053 25.3378C65.8827 25.3228 65.8827 25.3303 65.8752 25.3228C65.8601 25.3153 65.8827 25.3228 65.8451 25.3078C65.8149 25.2928 65.83 25.3003 65.8149 25.2928C65.7773 25.2703 65.7923 25.2853 65.7848 25.2778C65.7697 25.2703 65.7848 25.2778 65.7547 25.2628L65.7245 25.2479C65.6643 25.2104 65.5889 25.1729 65.5211 25.1355L65.5136 25.143Z" fill="#0061EF"/>
<path d="M61.793 3.58116C61.793 3.66357 62.0943 3.73849 62.6518 3.81341C62.7422 3.8209 62.8476 3.83589 62.9531 3.85087C63.0585 3.87335 63.1715 3.89582 63.2921 3.88833C63.4126 3.78344 63.5406 4.09061 63.6687 3.9183C63.7968 3.87335 63.9399 3.9183 64.083 3.94827C64.2261 3.98573 64.3768 3.88084 64.535 3.97823C64.6932 4.18801 64.8514 3.74598 65.0246 4.0082C65.1904 4.06065 65.3636 4.04566 65.5444 4.03817C65.7252 3.88084 65.906 4.03817 66.0943 4.06814C66.1847 3.97074 66.2826 3.94077 66.3806 3.95576C66.5011 3.97074 66.5237 4.02319 66.5463 4.09061C66.6819 3.84338 66.9003 3.86585 66.7723 4.06814C66.7572 4.09061 66.7422 4.11309 66.7271 4.12807C66.7271 4.16553 66.7497 4.18052 66.7572 4.21048C66.7648 4.24045 66.7572 4.2929 66.7045 4.33035C66.7045 4.33785 66.7045 4.34534 66.697 4.35283V4.42775C66.6819 4.48019 66.6744 4.54013 66.6668 4.59257C66.6593 4.70495 66.6593 4.81733 66.6819 4.92222C66.5011 5.14698 66.5086 5.37173 66.6668 5.60398C66.4785 5.83623 66.5538 6.06848 66.6518 6.31572C66.7572 6.55546 66.486 6.7952 66.6367 7.04243C66.6518 7.28967 66.5915 7.5369 66.6216 7.79163C66.697 8.04635 66.7874 8.30108 66.6141 8.5633C66.5689 8.82551 66.5011 9.08773 66.6066 9.34995C66.4032 9.61217 66.4936 9.88188 66.6066 10.1516C66.5689 10.4213 66.7196 10.691 66.6066 10.9682C66.6367 11.2454 66.5162 11.5151 66.6066 11.7998C66.6668 12.077 66.7271 12.3542 66.6066 12.6314C66.4785 12.9086 66.6593 13.1783 66.6066 13.448C66.7949 13.7177 66.5463 13.9875 66.6066 14.2497C66.5915 14.5119 66.7196 14.7741 66.6141 15.0363C66.5764 15.2985 66.5463 15.5533 66.6216 15.808C66.3278 16.0627 66.697 16.31 66.6367 16.5572C66.7572 16.8044 66.6216 17.0442 66.6518 17.2839C66.599 17.5236 66.7874 17.7559 66.6668 17.9881C66.6894 18.2204 66.5764 18.4526 66.6819 18.6624C66.5312 18.8722 66.7874 19.097 66.6819 19.2992C66.6668 19.509 66.6367 19.7038 66.6442 19.9061C66.7497 20.0185 66.7497 20.1159 66.712 20.2132C66.6744 20.3032 66.6066 20.3931 66.584 20.4905C66.5764 20.6852 66.3956 20.8351 66.5162 21.0449C66.4936 21.2247 66.5538 21.4195 66.4258 21.5693C66.3881 21.6517 66.4559 21.7491 66.4785 21.8465C66.5086 21.9364 66.4936 22.0263 66.3203 22.0638C66.2224 22.1986 66.4559 22.4384 66.2148 22.5208C65.9964 22.6107 66.1395 22.8055 66.1019 22.9403C66.0642 23.0752 66.0265 23.2025 65.9964 23.3299C65.8231 23.8843 65.6875 24.3263 65.5896 24.626C65.4992 24.9332 65.4691 25.113 65.5218 25.1429C65.5821 25.1729 65.7327 25.0231 65.9738 24.6934C66.0265 24.611 66.1019 24.5211 66.1621 24.4162C66.2224 24.3113 66.2902 24.199 66.3655 24.0716C66.4333 23.9442 66.5162 23.8094 66.584 23.667C66.6518 23.5172 66.7271 23.3599 66.8024 23.1875C66.8627 23.0527 67.0736 22.9628 66.9832 22.7605C67.0284 22.6107 67.1941 22.4833 67.1565 22.2885C67.2845 22.2361 67.3222 22.1537 67.3222 22.0638C67.3222 21.9739 67.2996 21.8765 67.3222 21.7866C67.3749 21.6067 67.3523 21.412 67.4729 21.2396C67.631 21.0748 67.4729 20.8426 67.5934 20.6553C67.5482 20.5429 67.5406 20.438 67.5632 20.3331C67.5858 20.2282 67.631 20.1308 67.6988 20.026C67.5934 19.8012 67.7666 19.5989 67.7817 19.3742C67.5934 19.1419 67.7365 18.9246 67.8269 18.6849C67.9098 18.4452 67.8043 18.2279 67.8495 17.9881C67.8118 17.7559 67.9022 17.5236 67.8646 17.2839C67.955 17.0442 67.9926 16.8044 67.8796 16.5572C67.9399 16.31 67.8947 16.0627 67.8947 15.808C67.97 15.5533 67.8872 15.2985 67.9022 15.0363C67.9399 14.7741 67.6913 14.5119 67.9098 14.2497C67.9399 13.9875 67.8721 13.7177 67.9098 13.448C67.8796 13.1783 67.857 12.9086 67.9098 12.6314C67.6988 12.3542 67.8269 12.077 67.9098 11.7998C67.97 11.5226 67.9399 11.2454 67.9098 10.9682C67.9324 10.691 67.9173 10.4213 67.9098 10.1516C67.97 9.88188 67.8194 9.61217 67.9098 9.34995C68.0002 9.08773 67.8118 8.82551 67.9022 8.5633C67.9625 8.30108 68.0002 8.04635 67.8947 7.79163C67.8947 7.5369 67.6988 7.28967 67.8796 7.04243C67.9248 6.7952 68.1659 6.55546 67.8646 6.31572C67.9399 6.07597 67.7214 5.83623 67.8495 5.60398C67.631 5.37173 67.842 5.14698 67.8344 4.92222C67.8118 4.80984 67.7817 4.69746 67.7742 4.59257C67.7742 4.54013 67.7742 4.48019 67.7742 4.42775C67.7742 4.39778 67.7742 4.37531 67.7892 4.34534C67.7892 4.30039 67.8043 4.25544 67.8194 4.20299C67.8721 4.0082 67.857 3.80592 67.8344 3.6411C67.8118 3.46878 67.7817 3.31894 67.7968 3.12415C67.8043 3.09419 67.8118 3.06422 67.8194 3.03425C67.6838 3.00428 67.4729 3.04174 67.2921 3.0792C67.1113 3.11666 66.9606 3.13914 66.825 3.0792C66.4333 3.10917 66.3052 3.06422 66.1094 3.10168C65.9211 2.80949 65.7403 3.10168 65.5595 3.13165C65.3787 3.1766 65.2054 2.93686 65.0397 3.16161C64.874 2.93686 64.7083 3.13165 64.5501 3.19158C64.3919 3.25901 64.2412 3.10168 64.0981 3.22155C63.955 3.06422 63.8118 3.31145 63.6838 3.25152C63.5482 3.3564 63.4277 3.25152 63.3071 3.28148C63.1866 3.24402 63.0736 3.25901 62.9681 3.31894C62.8627 3.33393 62.7648 3.34142 62.6668 3.3564C62.1094 3.43132 61.8081 3.50624 61.8081 3.58865L61.793 3.58116Z" fill="#0061EF"/>
<path d="M57.7015 6.30074C57.7844 6.30074 57.8597 6.11345 57.9351 5.77631C57.9426 5.71637 57.9577 5.65644 57.9727 5.5965C57.9953 5.52907 58.0179 5.46165 58.0104 5.38673C57.9049 5.31181 58.2138 5.23689 58.0481 5.15448C58.0029 5.07207 58.0481 4.98966 58.0782 4.89975C58.1159 4.80985 58.0104 4.71995 58.1083 4.62255C58.3192 4.52516 57.8748 4.42776 58.1385 4.33037C58.1912 4.22548 58.1837 4.12059 58.1686 4.01571C58.0104 3.91082 58.1686 3.79844 58.1987 3.67857C58.0029 3.56619 58.0857 3.44632 58.2213 3.32645C57.9577 3.20658 57.9953 3.07921 58.2439 2.95185C58.2515 2.82449 58.146 2.69712 58.2665 2.56227C58.2816 2.42742 58.3343 2.29256 58.2891 2.15771C58.3795 2.09028 58.4247 2.02285 58.4247 1.94793V1.93295C58.4247 1.93295 58.4096 1.93295 58.4021 1.93295C58.3795 1.93295 58.3569 1.91796 58.3192 1.89549C58.4172 1.90298 58.4398 1.91796 58.4398 1.91047C58.4322 1.90298 58.387 1.86552 58.3418 1.80559C58.2891 1.74565 58.3268 1.75314 58.3644 1.78311C58.4021 1.80559 58.4322 1.85054 58.372 1.75314C58.372 1.75314 58.3644 1.73816 58.3569 1.73067C58.3644 1.73067 58.387 1.74565 58.4096 1.76063C58.4322 1.77562 58.4398 1.78311 58.4473 1.77562C58.4473 1.73067 58.4548 1.69321 58.4774 1.69321C58.5 1.69321 58.5302 1.72317 58.5302 1.81308C58.5302 1.82806 58.5302 1.84304 58.5452 1.85054C58.5754 1.87301 58.613 1.89549 58.6507 1.91047C58.726 1.94044 58.8014 1.96292 58.8993 1.94044C58.9897 2.18018 59.1705 2.15021 59.3663 2.09777C59.5095 2.18018 59.7204 2.09777 59.8409 2.2551C60.0142 2.27758 60.1347 2.4424 60.323 2.41992C60.5038 2.41992 60.6846 2.41992 60.8051 2.57725C60.8654 2.66716 60.9482 2.67465 61.0386 2.68214C61.0989 2.68214 61.0914 2.67465 61.0989 2.66716C61.1064 2.66716 61.114 2.66716 61.114 2.67465C61.1592 2.62221 61.1893 2.61471 61.1968 2.6297C61.1968 2.64468 61.1893 2.66716 61.1742 2.68214C61.1592 2.70462 61.1516 2.71211 61.1742 2.70462C61.1667 2.7196 61.1893 2.7196 61.2119 2.73458C61.2194 2.73458 61.227 2.74957 61.227 2.75706V2.77204C61.227 2.77204 61.2044 2.8095 61.1968 2.83198C61.1592 2.98931 61.1215 3.14664 61.2044 3.30397C60.9106 3.4613 61.2797 3.61114 61.2194 3.76098C61.3475 3.91082 61.2044 4.06066 61.2345 4.203C61.2194 4.24046 61.2194 4.27792 61.2345 4.31538V4.34535L61.2496 4.36033L61.2722 4.37532C61.2722 4.37532 61.3174 4.42776 61.2571 4.42776C61.2722 4.45773 61.227 4.45773 61.227 4.46522C61.2119 4.46522 61.2194 4.4802 61.242 4.51017C61.1667 4.45773 61.1818 4.4877 61.1893 4.52516C61.1893 4.56262 61.1893 4.60757 61.1441 4.57011C61.016 4.61506 60.888 4.64503 60.7825 4.71245C60.7373 4.96718 60.5565 4.83233 60.436 4.8548C60.3305 4.91474 60.1648 4.80985 60.1046 4.98966C59.9991 5.0421 59.9238 5.17695 59.7957 5.12451C59.6827 5.12451 59.6978 5.5066 59.5019 5.25187C59.3889 5.2294 59.3814 5.53657 59.2307 5.37174C59.0801 5.22191 59.0575 5.45416 58.9746 5.49162C58.8918 5.52908 58.8164 5.56653 58.7411 5.60399C58.0857 5.92615 57.7241 6.16589 57.7618 6.27827C57.807 6.40563 58.3343 6.36817 59.2081 6.18837C59.2985 6.17338 59.4341 6.29325 59.4793 6.12843C59.5697 6.09846 59.6978 6.18087 59.7731 6.061C59.9388 6.22582 59.984 6.03103 60.082 5.98608C60.1874 5.96361 60.2703 5.85872 60.4134 5.90367C60.5641 5.98608 60.6168 5.76882 60.7599 5.81377C60.8353 5.65644 60.9633 5.64895 61.1215 5.71637C61.2044 5.55904 61.3701 5.66393 61.4982 5.61149C61.5735 5.48412 61.6639 5.43917 61.7769 5.42419C61.8899 5.4092 62.033 5.4167 62.1837 5.4092C62.2891 5.40171 62.3795 5.37174 62.4624 5.34178C62.4624 5.17695 62.4247 5.00464 62.4624 4.8548C62.4247 4.60757 62.5151 4.3004 62.4774 4.19551C62.5678 4.04567 62.6055 3.90333 62.4925 3.75349C62.5528 3.60365 62.5076 3.44632 62.5076 3.29648C62.5829 3.13915 62.5 2.98182 62.5151 2.82449C62.5151 2.80201 62.5151 2.78703 62.5151 2.76455V2.7196C62.5151 2.7196 62.5 2.68214 62.5 2.66716C62.485 2.59224 62.4624 2.52481 62.4473 2.45738C62.4172 2.32253 62.4096 2.19517 62.5151 1.99288C62.5151 1.89549 62.5226 1.80559 62.5151 1.71568C62.3042 1.65575 62.0857 1.6033 61.8974 1.5134L61.6639 1.45346L61.4756 1.40102C61.3927 1.37855 61.3174 1.34109 61.2496 1.28864C61.0236 1.43848 60.9031 1.25867 60.7675 1.12382C60.6243 1.01144 60.4511 0.988965 60.2853 0.966489C60.1272 0.891569 59.969 0.85411 59.8108 0.809158C59.6752 0.696779 59.4718 0.794174 59.3437 0.65932C59.2835 0.591892 59.2006 0.591892 59.1102 0.5844C59.065 0.5844 59.0273 0.5844 58.9897 0.569416C58.9219 0.554433 58.8541 0.524465 58.7863 0.479513C58.5226 0.329675 58.1912 0.179836 57.9577 0.217296C57.8221 0.172344 57.7091 0.187328 57.6036 0.179836C57.4906 0.172344 57.3852 0.134884 57.1667 -0.029938L57.129 -0.0449219C57.1064 0.0524732 57.0386 0.104917 57.0085 0.224788C56.9859 0.337167 57.0085 0.516973 57.1441 0.764207C57.1064 0.869094 57.1441 1.03392 57.1742 1.17626C57.2044 1.31861 57.227 1.44597 57.1592 1.55086C57.2119 1.62578 57.242 1.69321 57.2571 1.75314C57.2571 1.78311 57.2571 1.81308 57.2571 1.84304C57.2571 1.85803 57.2571 1.87301 57.2571 1.888V1.91047L57.2496 1.92546C57.227 1.99288 57.1742 2.0678 57.1818 2.13523C57.227 2.27008 57.2948 2.40494 57.2044 2.53979C57.0989 2.67465 57.2646 2.80201 57.227 2.92937C57.0989 3.05674 57.3927 3.1841 57.2496 3.30397C57.2797 3.42384 57.2345 3.54371 57.2722 3.65609C56.9784 3.76847 57.2722 3.88085 57.3023 3.99323C57.3475 4.09812 57.1064 4.21049 57.3324 4.30789C57.114 4.41278 57.3023 4.51017 57.3626 4.60008C57.4304 4.69747 57.2722 4.78737 57.3927 4.87728C57.2345 4.96718 57.4756 5.04959 57.4228 5.132C57.5283 5.21441 57.4228 5.28933 57.453 5.36425C57.4153 5.43917 57.4304 5.5066 57.4906 5.57403C57.5057 5.64145 57.5132 5.70139 57.5283 5.75383C57.6036 6.09097 57.6789 6.27827 57.7618 6.27827L57.7015 6.30074Z" fill="#0061EF"/>
<path d="M40.0218 4.94466C40.1047 4.94466 40.18 4.75736 40.2553 4.42022C40.2704 4.36029 40.2779 4.30035 40.293 4.24042C40.3156 4.17299 40.3382 4.10556 40.3307 4.03814C40.2252 3.96322 40.5341 3.8883 40.3608 3.80589C40.3156 3.72347 40.3608 3.64106 40.3909 3.55116C40.4286 3.46126 40.3231 3.37135 40.4211 3.27396C40.632 3.17656 40.1875 3.07917 40.4512 2.97428C40.4813 2.92184 40.4889 2.86939 40.4964 2.81695V2.77949V2.76451V2.72705C40.406 2.68959 40.406 2.65213 40.4286 2.63714C40.4512 2.61467 40.4964 2.61467 40.5115 2.60718C40.4587 2.56222 40.4286 2.52476 40.4135 2.50229C40.4135 2.45734 40.5341 2.4948 40.6245 2.56222C40.5567 2.44985 40.5642 2.38242 40.6019 2.38242C40.6245 2.38242 40.6471 2.38991 40.6697 2.41988C40.6998 2.44985 40.7525 2.47981 40.7977 2.53226C40.9182 2.50229 41.0162 2.35994 41.1744 2.42737C41.3024 2.40489 41.4531 2.40489 41.5661 2.31499C41.7544 2.44235 41.8825 2.38991 41.9729 2.20261C42.1687 2.33747 42.2817 2.2176 42.3947 2.08274C42.5002 1.9329 42.7262 2.15017 42.8241 1.95538C42.9672 1.89544 43.1254 1.90293 43.2685 1.82052C43.3137 1.78306 43.2911 1.76808 43.3062 1.7531C43.3062 1.73811 43.3213 1.71564 43.3363 1.70814C43.3589 1.69316 43.3891 1.70814 43.3815 1.79805C43.3891 1.82052 43.3815 1.85049 43.3891 1.85798C43.3891 1.86547 43.3966 1.85798 43.4493 1.78306C43.4041 1.85798 43.374 1.91043 43.3589 1.9329C43.3213 1.98535 43.3891 1.88795 43.4644 1.843C43.4493 1.87297 43.4719 1.85798 43.4945 1.86547C43.5096 1.86547 43.5171 1.89544 43.4644 1.92541C43.4719 1.92541 43.4644 1.9329 43.4644 1.94039C43.4644 1.94039 43.4644 1.94039 43.4568 1.94789C43.4568 1.94789 43.4568 1.94789 43.4568 1.95538V1.98535C43.4342 2.06776 43.4267 2.15766 43.4719 2.24007C43.5322 2.41239 43.5924 2.57721 43.4719 2.74952C43.3439 2.91435 43.5246 3.08666 43.4719 3.25148C43.6602 3.41631 43.4116 3.58113 43.4719 3.74595C43.4568 3.91077 43.5849 4.0681 43.4794 4.22543C43.4418 4.38276 43.4041 4.54009 43.487 4.69743C43.1932 4.85476 43.5623 5.00459 43.502 5.15443C43.5171 5.17691 43.5322 5.19189 43.5397 5.21437C43.5397 5.22186 43.5397 5.23684 43.5472 5.24434C43.5472 5.25183 43.5472 5.24434 43.5472 5.25183C43.5472 5.25932 43.5472 5.2743 43.5397 5.2818C43.5246 5.29678 43.4945 5.30427 43.5096 5.32675C43.4794 5.32675 43.5096 5.35671 43.5397 5.39417C43.5623 5.43163 43.5849 5.47659 43.5246 5.43163C43.5397 5.46909 43.4945 5.44662 43.4945 5.45411C43.4794 5.45411 43.487 5.45411 43.5096 5.51405C43.4343 5.41665 43.4568 5.45411 43.4568 5.49157C43.4568 5.52903 43.4568 5.57398 43.4192 5.50655C43.3815 5.49157 43.3514 5.47659 43.3062 5.49157C43.2685 5.59646 43.2384 5.59646 43.1706 5.559C43.1179 5.52154 43.0727 5.45411 43.0199 5.42414C42.8994 5.40916 42.8316 5.22935 42.6734 5.33424C42.5604 5.31926 42.4173 5.3717 42.342 5.25183C42.2516 5.1844 42.0331 5.49906 42.0331 5.17691C41.9503 5.0945 41.7695 5.33424 41.7393 5.10948C41.7092 4.89971 41.551 5.07202 41.4681 5.04955C41.3778 5.03456 41.2949 5.01209 41.2196 4.9971C40.4964 4.86225 40.067 4.83977 40.0294 4.95215C39.9842 5.07951 40.4361 5.36421 41.2422 5.7388C41.325 5.77626 41.3627 5.95607 41.4907 5.85118C41.5811 5.88115 41.6339 6.03099 41.7619 5.97105C41.7921 6.2033 41.9503 6.07594 42.0557 6.09842C42.1536 6.14337 42.2817 6.1134 42.3646 6.22578C42.4324 6.37562 42.6056 6.24076 42.696 6.36063C42.7713 6.31568 42.8391 6.31568 42.8994 6.34565C42.9145 6.34565 42.9295 6.36063 42.9371 6.36813L42.9597 6.38311C42.9597 6.38311 42.9823 6.39809 42.9898 6.40559C43.035 6.43555 43.0727 6.4805 43.1254 6.52546C43.2384 6.49549 43.3288 6.53295 43.4342 6.59288C43.5397 6.65282 43.6527 6.72774 43.7657 6.75771C43.841 6.68279 43.9314 6.69777 44.0444 6.75771C44.1574 6.81764 44.3005 6.92253 44.4512 7.01243C44.5567 7.07237 44.6471 7.10983 44.7299 7.1323C44.7299 6.95999 44.6923 6.7652 44.7299 6.63784C44.7073 6.49549 44.7299 6.37562 44.7299 6.25575C44.745 6.13588 44.76 6.00851 44.7375 5.86617C44.7826 5.75379 44.8128 5.61893 44.8203 5.47659C44.8203 5.40916 44.8203 5.33424 44.8052 5.25932C44.8052 5.24434 44.8052 5.22186 44.7977 5.20688C44.7977 5.19938 44.7902 5.19189 44.7826 5.17691C44.7751 5.16192 44.76 5.13945 44.745 5.11697C44.8052 4.96713 44.76 4.8098 44.76 4.65997C44.8354 4.50264 44.7525 4.3453 44.7676 4.18797C44.8052 4.03064 44.5567 3.86582 44.7751 3.70849C44.8052 3.54367 44.745 3.38634 44.7751 3.21402C44.745 3.0492 44.7224 2.88438 44.7751 2.71206C44.5642 2.53975 44.6923 2.37493 44.7751 2.20261C44.8052 2.1202 44.8128 2.0303 44.8052 1.94789C44.8052 1.88046 44.7977 1.81303 44.7902 1.73811L44.7676 1.50586C44.7902 1.18371 44.7751 0.861556 44.7676 0.569371C44.8128 0.307153 44.745 0.149823 44.7375 -0.0374756C44.6471 -1.59293e-05 44.5642 0.0224599 44.5039 0.0149679C44.3985 -1.59293e-05 44.2252 0.0823953 44.0745 0.164807C43.9164 0.239726 43.7732 0.314645 43.6452 0.314645C43.5096 0.322137 43.3665 0.352105 43.2233 0.397056C43.148 0.419532 43.0802 0.4495 43.0124 0.479468C42.9521 0.509435 42.8617 0.561879 42.8467 0.591847C42.696 0.636798 42.6132 0.87654 42.4173 0.749177C42.2591 0.756669 42.0407 0.576863 41.9955 0.906508C41.8297 0.884032 41.7619 1.13127 41.5887 1.06384C41.5209 1.31107 41.325 1.16123 41.197 1.21368C41.0764 1.29609 40.971 1.40847 40.8203 1.36352C40.6621 1.30358 40.5868 1.49837 40.4587 1.50586C40.4361 1.49837 40.4211 1.49088 40.406 1.49088C40.3909 1.49088 40.3834 1.49088 40.3533 1.50586C40.3005 1.52834 40.2629 1.5658 40.2177 1.59577C40.1348 1.66319 40.067 1.72313 39.9239 1.70065C39.7958 1.76059 39.6452 1.79056 39.5171 1.843C39.5171 1.89544 39.5246 1.95538 39.5397 2.00782C39.3966 2.01531 39.3966 2.13518 39.4343 2.24756C39.4719 2.36743 39.5548 2.47232 39.5698 2.56222C39.5774 2.60718 39.5698 2.65213 39.5623 2.68959C39.5623 2.71206 39.5472 2.73454 39.5397 2.75701C39.5397 2.772 39.5246 2.78698 39.5171 2.79447C39.487 2.84692 39.487 2.89936 39.6 2.95181C39.3815 3.05669 39.5698 3.15409 39.6301 3.25148C39.6979 3.34888 39.5397 3.43878 39.6602 3.52868C39.502 3.61859 39.7431 3.701 39.6904 3.78341C39.7958 3.86582 39.6904 3.94074 39.7205 4.01566C39.6828 4.09058 39.6979 4.15801 39.7582 4.21794C39.7732 4.28537 39.7808 4.3453 39.7958 4.39775C39.8712 4.73488 39.9465 4.92218 40.0294 4.92218L40.0218 4.94466Z" fill="#0061EF"/>
<path d="M38.5998 63.3817C38.5848 63.3442 38.4266 63.3592 38.1478 63.4117C37.8691 63.4716 37.4548 63.5615 36.92 63.6664C36.7392 63.6964 36.5509 63.7338 36.3475 63.7713C36.1365 63.7938 35.9181 63.8162 35.6921 63.8687C35.4812 64.0185 35.1874 63.7488 34.9614 63.9586C34.7128 64.0485 34.4416 64.026 34.1554 64.0185C33.8767 64.0035 33.5904 64.1309 33.2815 64.0485C33.1234 63.9511 32.9727 64.011 32.822 64.0635C32.6638 64.1234 32.5057 64.1684 32.3399 64.026C32.016 63.9586 31.6846 63.9811 31.338 63.9586C31.1573 64.026 30.984 64.011 30.8107 63.9736C30.6375 63.9361 30.4642 63.8612 30.2834 63.8237C30.0876 63.8912 29.8993 63.8987 29.7185 63.8537C29.5377 63.8013 29.3569 63.7188 29.1836 63.614C28.9652 63.7114 28.7618 63.7188 28.5735 63.6589C28.3851 63.599 28.2043 63.4866 28.0461 63.3143C27.6695 63.1869 27.2401 63.1794 26.8861 62.9172C26.7881 62.8798 26.6902 62.8348 26.5998 62.7973L26.4567 62.7374L26.3136 62.67C26.1252 62.5801 25.9218 62.4977 25.7185 62.4302C25.5603 62.2654 25.387 62.1231 25.1912 62.0257C25.0932 61.9732 24.9878 61.9358 24.8823 61.9058C24.7768 61.8683 24.6638 61.8384 24.5509 61.8234C24.2495 61.4488 23.8352 61.2765 23.3908 61.1117C23.1723 61.0292 22.9991 60.8569 22.8333 60.6921C22.6601 60.5348 22.4944 60.355 22.2608 60.28C22.1629 60.2126 22.0725 60.1377 21.9821 60.0628C21.8917 59.9804 21.8013 59.9055 21.7185 59.823C21.5452 59.6582 21.3569 59.5084 21.1761 59.3436C20.9727 59.2087 20.7618 59.0664 20.581 58.9015C20.4002 58.7292 20.242 58.5344 20.1365 58.2947C19.8352 57.8901 19.5565 57.4781 19.1648 57.1334C19.1271 57.0061 19.0744 56.8862 19.0066 56.7738C18.9463 56.6614 18.8785 56.5566 18.7957 56.4517C18.6375 56.2494 18.4416 56.0696 18.2608 55.8823C18.1403 55.6575 17.967 55.4552 17.8164 55.238C17.6733 55.0207 17.5301 54.796 17.4473 54.5412C17.3117 54.3165 17.2062 54.0692 17.1008 53.8295C16.9953 53.5823 16.8974 53.335 16.7392 53.1103C16.596 52.8855 16.4755 52.6458 16.3625 52.3985C16.3098 52.2787 16.2571 52.1513 16.2194 52.0239C16.1817 51.8966 16.1591 51.7617 16.1441 51.6269C16.0838 51.0949 15.7599 50.6454 15.662 50.1285C15.5038 49.9037 15.4586 49.6415 15.4209 49.3868C15.3832 49.1321 15.3908 48.8698 15.3004 48.6226C15.2778 48.4952 15.2477 48.3754 15.2175 48.248C15.1874 48.1206 15.1573 48.0008 15.1271 47.8734C15.0744 47.6262 15.0217 47.3789 15.0443 47.1242C15.0367 46.877 15.0217 46.6223 14.9991 46.375C14.9765 46.1278 14.9539 45.8881 14.8936 45.6408C15.0217 45.3861 14.984 45.1463 14.9388 44.9066C14.8861 44.6669 14.8032 44.4271 14.8333 44.1874C14.7053 43.7004 14.8484 43.2134 14.8183 42.7414C14.871 42.262 14.6827 41.7975 14.8032 41.333C14.7806 40.8685 14.9011 40.4189 14.7881 39.9694C14.9313 39.5274 14.6676 39.0854 14.7655 38.6583C14.7655 38.2313 14.7731 37.8117 14.7429 37.3997C14.517 36.9876 14.7053 36.5906 14.7203 36.1935C14.6977 35.8039 14.8484 35.4218 14.6977 35.0472C14.6827 34.6726 14.5772 34.313 14.6676 33.9609C14.6977 33.6088 14.3362 33.2641 14.6375 32.9345C14.6902 32.6049 14.404 32.2827 14.6074 31.9755C14.7957 31.6684 14.5848 31.3687 14.5772 31.084C14.5697 30.7993 14.5546 30.5221 14.5471 30.2674C14.4492 27.9224 14.3362 26.5739 14.2081 26.5739C14.0725 26.5739 13.9444 28.2371 13.839 31.084C13.8315 31.3687 13.6657 31.6684 13.8089 31.9755C13.8089 32.2827 13.6883 32.6049 13.7787 32.9345C13.5678 33.2641 13.7411 33.6088 13.7486 33.9609C13.7411 34.313 13.8089 34.6726 13.7185 35.0472C13.5979 35.4218 13.7787 35.8039 13.6959 36.1935C13.8239 36.5831 13.7938 36.9876 13.6733 37.3997C13.8013 37.8117 13.6431 38.2313 13.6507 38.6583C13.8465 39.0854 13.7109 39.5274 13.6281 39.9694C13.5527 40.4114 13.6582 40.8685 13.6055 41.3255C13.6431 41.79 13.5527 42.2545 13.5904 42.7339C13.5 43.2059 13.4623 43.6929 13.5753 44.1799C13.5301 44.6819 13.5753 45.1913 13.6205 45.7082C13.5979 45.9705 13.613 46.2252 13.6507 46.4874C13.6883 46.7496 13.7335 47.0043 13.7561 47.2741C13.7637 47.5363 13.8691 47.7985 13.9369 48.0532C13.9746 48.1806 14.0047 48.3154 14.0198 48.4503C14.0348 48.5851 14.0424 48.72 14.0198 48.8623C14.065 49.1321 14.1177 49.3943 14.193 49.664C14.2684 49.9262 14.3362 50.1959 14.3889 50.4656C14.5697 50.9901 14.7505 51.5145 14.8936 52.0614C14.9915 52.1738 15.0669 52.2937 15.1271 52.421C15.1949 52.5484 15.2477 52.6757 15.2928 52.8106C15.3832 53.0803 15.436 53.365 15.5264 53.6422C15.6168 53.9119 15.7222 54.1816 15.8578 54.4289C15.9934 54.6761 16.1365 54.9233 16.2797 55.1631C16.4077 55.4103 16.5509 55.6575 16.694 55.8973C16.8371 56.137 17.0028 56.3618 17.1535 56.594C17.274 56.8487 17.4623 57.0585 17.6356 57.2683C17.726 57.3732 17.8089 57.4781 17.8917 57.5905C17.9746 57.6953 18.0574 57.8077 18.1252 57.9276C18.3889 58.4221 18.8861 58.6993 19.1799 59.1563C19.338 59.366 19.5113 59.5758 19.6921 59.7706C19.8804 59.9579 20.0838 60.1227 20.3098 60.2651C20.4981 60.4524 20.7316 60.5722 20.9426 60.7221C21.048 60.797 21.1535 60.8719 21.2439 60.9618C21.3418 61.0442 21.4247 61.1416 21.5 61.254C21.6883 61.4188 21.839 61.6436 22.0348 61.8084C22.2232 61.9732 22.4416 62.1081 22.7279 62.1231C22.9162 62.2804 23.1497 62.3853 23.3682 62.4902C23.5866 62.5951 23.8126 62.685 23.9934 62.8573C24.1215 62.8648 24.242 62.9022 24.3475 62.9472C24.4529 62.9921 24.5659 63.0446 24.6638 63.1045C24.8672 63.2244 25.048 63.3817 25.2665 63.4716C25.4849 63.539 25.7109 63.6065 25.9218 63.6814C25.9746 63.7039 26.0273 63.7188 26.08 63.7413C26.1328 63.7638 26.1855 63.7788 26.2382 63.8013C26.3437 63.8462 26.4416 63.8987 26.5396 63.9586C26.9237 64.2208 27.3983 64.1833 27.79 64.3407C27.9783 64.4605 28.1968 64.468 28.4077 64.4755C28.6186 64.4905 28.822 64.5055 29.0104 64.6029C29.2138 64.6254 29.4096 64.6703 29.6055 64.7078C29.8013 64.7452 29.9972 64.7677 30.1855 64.7752C30.3588 64.94 30.5471 64.9775 30.7429 64.955C30.9388 64.9325 31.1271 64.8651 31.3079 64.8651C31.4887 64.8651 31.6695 64.925 31.8428 64.9475C32.016 64.9775 32.1968 64.985 32.3625 64.8801C32.5283 65 32.7015 65 32.8672 64.97C33.033 64.94 33.1912 64.8726 33.3493 64.8351C33.6582 64.7527 33.9821 64.8876 34.2608 64.7452C34.5697 64.8651 34.8258 64.6029 35.0895 64.6179C35.338 64.4755 35.6017 64.5355 35.8352 64.4605C36.0763 64.4456 36.3023 64.3856 36.4981 64.2882C36.7015 64.2208 36.8898 64.1609 37.0706 64.1084C37.5979 63.9286 37.9972 63.7638 38.2608 63.6289C38.5245 63.4941 38.6525 63.4117 38.6375 63.3742L38.5998 63.3817Z" fill="#0061EF"/>
<path d="M42.2241 61.5237C42.1789 61.4563 42.1337 61.3888 42.096 61.3289L42.0734 61.2989C42.0734 61.2989 42.0584 61.2765 42.0508 61.269C42.0433 61.254 42.0508 61.269 42.0282 61.239C42.0132 61.224 42.0207 61.224 42.0132 61.209C41.9906 61.1791 42.0508 61.269 41.9981 61.1866C41.8776 61.0143 42.1261 61.3814 41.983 61.1641C41.9529 61.1191 41.9604 61.1266 41.968 61.1416C42.0584 61.2765 41.968 61.1416 41.9529 61.1191C42.0584 61.2765 42.0132 61.209 41.9378 61.0967C42.0885 61.3139 42.0659 61.284 41.9228 61.0742C41.9228 61.0742 41.9755 61.1491 41.9077 61.0592C41.9002 61.0442 41.87 61.0068 41.8926 61.0442C41.7947 60.8944 41.7947 60.9019 41.8851 61.0292C41.7796 60.8719 41.8173 60.9318 41.8776 61.0143C41.9378 61.1042 41.7872 60.8794 41.87 60.9993C41.87 61.0068 41.8474 60.9618 41.87 60.9918C41.9152 61.0592 41.9604 61.1266 41.87 60.9843C41.8399 60.9468 41.8098 60.8944 41.87 60.9843C41.8098 60.8944 41.757 60.8195 41.87 60.9843C41.9303 61.0742 41.855 60.9543 41.87 60.9843C41.8851 61.0143 41.8173 60.9094 41.87 60.9843C41.9378 61.0817 41.9077 61.0367 41.87 60.9843C41.9002 61.0292 41.7947 60.8794 41.87 60.9843C41.9755 61.1416 41.8324 60.9318 41.87 60.9843C41.9303 61.0742 41.8625 60.9693 41.87 60.9843C41.8474 60.9543 41.8324 60.9244 41.87 60.9918C41.7043 60.752 41.9152 61.0517 41.87 60.9993C41.9378 61.1042 41.8625 60.9843 41.8776 61.0143C41.8474 60.9693 41.9529 61.1266 41.8851 61.0292C41.9002 61.0517 41.8324 60.9543 41.8926 61.0442C41.8098 60.9244 41.9604 61.1416 41.9002 61.0592C41.9002 61.0592 41.9002 61.0592 41.9152 61.0742C42.0433 61.2615 41.9378 61.1042 41.9303 61.0967C41.9454 61.1191 41.855 60.9918 41.9454 61.1191C41.9529 61.1341 42.0132 61.2165 41.9604 61.1416C41.9378 61.1116 42.1487 61.4188 41.9755 61.1641C41.9454 61.1191 42.1036 61.3589 41.9906 61.1866C41.8851 61.0292 42.0056 61.209 42.0056 61.209L42.0207 61.239C42.0734 61.3214 42.1412 61.4188 42.209 61.5162C42.2843 61.6286 42.3597 61.7335 42.4124 61.8234C42.4124 61.8309 42.5103 61.9657 42.4275 61.8459C42.4275 61.8459 42.4953 61.9433 42.4425 61.8683C42.5631 62.0406 42.4651 61.8983 42.4576 61.8908C42.4576 61.8983 42.4275 61.8459 42.4727 61.9133C42.5405 62.0182 42.435 61.8608 42.4877 61.9358C42.4124 61.8309 42.435 61.8533 42.5028 61.9582C42.435 61.8533 42.5179 61.9807 42.5179 61.9732C42.4049 61.8084 42.4877 61.9283 42.5329 61.9882C42.5706 62.0481 42.5179 61.9657 42.5405 62.0032C42.5179 61.9732 42.5706 62.0406 42.548 62.0182C42.6007 62.0931 42.6158 62.1231 42.5555 62.0332C42.5932 62.0856 42.5631 62.0406 42.5631 62.0406C42.6083 62.1006 42.5631 62.0332 42.5631 62.0481C42.5857 62.0781 42.4501 61.8758 42.5631 62.0481C42.5781 62.0706 42.5405 62.0182 42.5631 62.0481C42.548 62.0257 42.5329 62.0032 42.5631 62.0481C42.5179 61.9807 42.4425 61.8683 42.5631 62.0481C42.5932 62.1006 42.5781 62.0706 42.5631 62.0481C42.5781 62.0631 42.5631 62.0556 42.5631 62.0481C42.6007 62.1006 42.5103 61.9732 42.5631 62.0481C42.6158 62.1231 42.5103 61.9657 42.5631 62.0481C42.6007 62.1006 42.6158 62.1305 42.5631 62.0406C42.5631 62.0406 42.4501 61.8833 42.5631 62.0332C42.5857 62.0631 42.7213 62.2654 42.5555 62.0182C42.6007 62.0781 42.4727 61.8983 42.548 62.0032C42.4275 61.8234 42.548 61.9957 42.5405 61.9882C42.5179 61.9507 42.4727 61.8908 42.5254 61.9732C42.5857 62.0556 42.4953 61.9283 42.5103 61.9582C42.5781 62.0631 42.4199 61.8234 42.4953 61.9358C42.4802 61.9133 42.4953 61.9433 42.4802 61.9133C42.6459 62.153 42.4802 61.9133 42.4651 61.8908C42.4425 61.8533 42.5706 62.0481 42.4501 61.8683C42.5706 62.0481 42.4651 61.8908 42.435 61.8459C42.3973 61.7934 42.4877 61.9208 42.4199 61.8234C42.4049 61.7934 42.4049 61.8084 42.4049 61.7934C42.3823 61.756 42.3898 61.7784 42.3823 61.7634C42.3747 61.7485 42.3823 61.7634 42.3597 61.7335L42.3371 61.7035C42.2994 61.6436 42.2542 61.5761 42.209 61.5087L42.2241 61.5237Z" fill="#0061EF"/>
<path d="M45.3273 58.8941C45.2671 58.8341 45.2143 58.7817 45.1616 58.7367L45.1315 58.7142C45.1315 58.7142 45.1164 58.6993 45.1089 58.6918C45.0938 58.6768 45.1089 58.6918 45.0863 58.6693C45.0712 58.6543 45.0712 58.6618 45.0637 58.6468C45.0486 58.6318 45.0712 58.6468 45.0411 58.6243C45.026 58.6094 45.0411 58.6243 45.0185 58.6019C44.9959 58.5794 45.0034 58.5869 44.9959 58.5794C44.9733 58.5644 44.9808 58.5644 44.9733 58.5644C44.9582 58.5494 44.9657 58.5569 44.9582 58.5494C44.9431 58.5344 44.9582 58.5494 44.9431 58.5344C44.9431 58.5344 44.9431 58.5344 44.9281 58.5195C44.9281 58.5195 44.9281 58.5195 44.913 58.5045C44.9055 58.497 44.913 58.5045 44.8979 58.4895C44.8904 58.482 44.8979 58.4895 44.8829 58.4745C44.8753 58.4745 44.8829 58.4745 44.8753 58.467C44.8753 58.467 44.8753 58.467 44.8678 58.4595C44.8678 58.4595 44.8678 58.4595 44.8603 58.452C44.8603 58.452 44.8603 58.452 44.8678 58.452C44.8753 58.4595 44.8678 58.452 44.8753 58.4595C44.8904 58.4745 44.8753 58.4595 44.8829 58.467C44.8829 58.467 44.8829 58.467 44.8979 58.4745C44.8979 58.4745 44.8979 58.4745 44.913 58.4895C44.9281 58.5045 44.913 58.4895 44.9281 58.5045C44.9281 58.5045 44.9281 58.5045 44.9431 58.5195C44.9657 58.5344 44.9582 58.5344 44.9582 58.5344C44.9582 58.5344 44.9582 58.5344 44.9733 58.5494C44.9733 58.5494 44.9733 58.5494 44.9959 58.5719C44.9959 58.5719 44.9959 58.5719 45.0185 58.5944C45.0185 58.5944 45.0185 58.5944 45.0411 58.6168C45.0637 58.6393 45.0637 58.6393 45.0637 58.6393L45.0863 58.6618C45.1541 58.7292 45.2445 58.8116 45.3349 58.8941C45.4328 58.984 45.5232 59.0739 45.606 59.1488C45.606 59.1488 45.606 59.1488 45.6286 59.1713C45.6286 59.1713 45.6286 59.1713 45.6512 59.1937C45.6738 59.2162 45.6738 59.2087 45.6738 59.2162C45.6738 59.2162 45.6663 59.2162 45.6964 59.2312C45.719 59.2537 45.6964 59.2312 45.7115 59.2462C45.7266 59.2537 45.7115 59.2462 45.7266 59.2612C45.7416 59.2761 45.7416 59.2761 45.7416 59.2761C45.7567 59.2911 45.7492 59.2836 45.7567 59.2911C45.7718 59.3061 45.7567 59.2911 45.7718 59.3061C45.7793 59.3136 45.7718 59.3061 45.7868 59.3136C45.7868 59.3136 45.7868 59.3136 45.7944 59.3211C45.8094 59.3286 45.8019 59.3286 45.8019 59.3286C45.8019 59.3286 45.8019 59.3286 45.7944 59.3286C45.7944 59.3286 45.7944 59.3286 45.7868 59.3211C45.7868 59.3211 45.7868 59.3211 45.7793 59.3136C45.7718 59.3136 45.7793 59.3136 45.7642 59.2986C45.7492 59.2836 45.7492 59.2836 45.7492 59.2836C45.7492 59.2836 45.7492 59.2836 45.7341 59.2686C45.719 59.2537 45.7266 59.2612 45.719 59.2537C45.704 59.2387 45.719 59.2537 45.704 59.2387C45.6889 59.2237 45.7115 59.2462 45.6889 59.2237C45.6663 59.2012 45.6738 59.2087 45.6663 59.2087C45.6663 59.2087 45.6663 59.2087 45.6437 59.1862C45.6211 59.1638 45.6286 59.1713 45.6211 59.1638C45.606 59.1488 45.6211 59.1638 45.5985 59.1413C45.5759 59.1188 45.5834 59.1263 45.5759 59.1188C45.5458 59.0888 45.5608 59.1038 45.5533 59.0963C45.5382 59.0813 45.5533 59.0963 45.5307 59.0739L45.5006 59.0514C45.4478 58.9989 45.3876 58.9465 45.3273 58.8941Z" fill="#0061EF"/>
<path d="M50.9238 33.3541C50.8409 33.3541 50.7656 33.6537 50.6902 34.1932C50.6752 34.2831 50.6676 34.3805 50.6526 34.4853C50.63 34.5902 50.6074 34.7026 50.6149 34.815C50.7204 34.9349 50.4115 35.0547 50.5848 35.1896C50.63 35.317 50.5848 35.4518 50.5546 35.5942C50.517 35.7365 50.6224 35.8863 50.5245 36.0362C50.3136 36.1935 50.758 36.3508 50.4944 36.5157C50.4341 36.6805 50.4492 36.8528 50.4642 37.0251C50.6224 37.1974 50.4642 37.3847 50.4341 37.5645C50.63 37.7518 50.5471 37.9391 50.4115 38.1339C50.6752 38.3287 50.6375 38.531 50.3889 38.7333C50.3814 38.9356 50.4868 39.1453 50.3663 39.3626C50.3513 39.5799 50.2985 39.7896 50.3437 40.0144C50.1629 40.2392 50.1705 40.4639 50.3211 40.6887C50.1328 40.9209 50.2081 41.1532 50.3061 41.3854C50.4115 41.6252 50.1403 41.8649 50.291 42.1046C50.3061 42.3519 50.2458 42.5991 50.2759 42.8463C50.3513 43.1011 50.4416 43.3483 50.2684 43.603C50.2232 43.8578 50.1629 44.12 50.2533 44.3747C50.0424 44.6294 50.1328 44.8841 50.2307 45.1464C50.1855 45.4011 50.3061 45.6708 50.178 45.9255C50.178 46.0604 50.1554 46.1877 50.1253 46.3226C50.0951 46.45 50.0725 46.5848 50.1027 46.7197C50.1328 46.9894 50.1705 47.2666 50.0047 47.5063C49.8315 47.7461 49.9746 48.0308 49.8842 48.2855C50.0198 48.5777 49.7185 48.78 49.7336 49.0422C49.6658 49.2894 49.7336 49.5591 49.5678 49.7764C49.4699 50.0086 49.3795 50.2409 49.3795 50.4881C49.0255 50.638 49.3117 50.9676 49.1761 51.1774C49.2138 51.4396 48.9953 51.6119 48.9501 51.8442C48.8823 51.9415 48.8823 52.0614 48.8597 52.1738C48.8371 52.2862 48.8145 52.3986 48.7166 52.481C48.6488 52.6982 48.4605 52.8556 48.4755 53.0953C48.2496 53.2302 48.4077 53.5298 48.2194 53.6797C48.1742 53.7696 48.129 53.867 48.0838 53.9569C48.0386 54.0468 47.9934 54.1367 47.9633 54.2341C48.0688 54.5188 47.8126 54.6012 47.7072 54.7585C47.6319 54.9383 47.4059 55.0132 47.4435 55.253C47.3682 55.4178 47.3682 55.6276 47.1874 55.7175C47.0669 55.8374 47.2778 56.182 46.9313 56.152C46.7957 56.2569 46.9539 56.5491 46.6902 56.5566C46.4492 56.5716 46.532 56.8113 46.4567 56.9237C46.3814 57.0436 46.3136 57.1559 46.2458 57.2683C46.0801 57.5081 45.9369 57.7253 45.8164 57.9126C45.6959 58.1074 45.5829 58.2572 45.5 58.3921C45.3343 58.6618 45.2665 58.8266 45.3117 58.8716C45.3644 58.9165 45.5452 58.8116 45.8541 58.5644C45.9294 58.5045 46.0123 58.4296 46.1027 58.3546C46.1931 58.2722 46.2835 58.1823 46.3814 58.0849C46.5848 57.8826 46.8183 57.6504 47.0443 57.3732C47.1422 57.2608 47.3607 57.2309 47.3381 57.0286C47.436 56.9012 47.6243 56.8338 47.6394 56.639C47.9106 56.6165 47.8654 56.3768 47.9558 56.2194C48.0688 56.0771 48.0989 55.8823 48.2722 55.7624C48.4755 55.6575 48.4153 55.4028 48.5961 55.268C48.5735 55.0282 48.7015 54.8634 48.9049 54.736C48.9049 54.6162 48.9577 54.5263 49.0255 54.4364C49.0932 54.354 49.1686 54.2715 49.2138 54.1667C49.1309 53.882 49.3494 53.7396 49.5226 53.5673C49.6808 53.3875 49.6733 53.1328 49.8089 52.9305C49.839 52.8106 49.8917 52.7132 49.952 52.6008C50.0047 52.496 50.0575 52.3836 50.0876 52.2637C50.2533 52.0689 50.3739 51.8442 50.3513 51.567C50.4868 51.3497 50.5094 51.0875 50.5848 50.8402C50.743 50.6155 50.7128 50.3383 50.8032 50.091C50.9087 49.8438 50.7354 49.5291 50.9991 49.3119C51.0819 49.0497 51.0819 48.7725 51.1723 48.5102C51.1874 48.233 51.2025 47.9558 51.3079 47.6861C51.1497 47.379 51.2929 47.1242 51.4134 46.847C51.4586 46.7122 51.4812 46.5698 51.4963 46.4275C51.5038 46.2851 51.4963 46.1428 51.4963 46.0079C51.5339 45.7307 51.549 45.4535 51.5415 45.1763C51.6093 44.8991 51.4661 44.6294 51.5565 44.3597C51.6545 44.09 51.4661 43.8353 51.5565 43.5731C51.6168 43.3183 51.6545 43.0636 51.549 42.8164C51.549 42.5691 51.3531 42.3219 51.5339 42.0747C51.5791 41.8349 51.8202 41.5877 51.5189 41.3554C51.5942 41.1157 51.3757 40.8835 51.5038 40.6587C51.2853 40.4264 51.4963 40.2017 51.4887 39.9844C51.4435 39.7597 51.3757 39.5424 51.4661 39.3326C51.5716 39.1229 51.4134 38.9131 51.4435 38.7033C51.5716 38.501 51.2778 38.2987 51.4209 38.104C51.3908 37.9092 51.436 37.7219 51.3983 37.5346C51.6921 37.3473 51.3983 37.1675 51.3682 36.9951C51.323 36.8228 51.5641 36.6505 51.3381 36.4857C51.5641 36.3209 51.3682 36.1635 51.3079 36.0062C51.2401 35.8489 51.4059 35.7065 51.2778 35.5642C51.436 35.4218 51.1949 35.287 51.2477 35.1596C51.1422 35.0323 51.2477 34.9049 51.2175 34.785C51.2552 34.6652 51.2401 34.5603 51.1799 34.4554C51.1648 34.3505 51.1573 34.2531 51.1422 34.1632C51.0669 33.6163 50.9916 33.3241 50.9087 33.3241L50.9238 33.3541Z" fill="#0061EF"/>
<path d="M6.16188 12.0096C6.23721 12.062 6.59878 11.575 7.37468 10.8333C7.50274 10.7135 7.6534 10.5861 7.80406 10.4512C7.96978 10.3239 8.15057 10.204 8.3163 10.0467C8.36903 9.93431 8.49709 9.90434 8.61762 9.85939C8.67788 9.83691 8.73815 9.81444 8.79088 9.78447C8.84361 9.7545 8.8888 9.70955 8.91894 9.63463C9.00933 9.54473 9.1148 9.46981 9.22779 9.40238C9.34832 9.34244 9.47638 9.29 9.60444 9.23756C9.7325 9.17762 9.84549 9.1027 9.97355 9.02778C10.0941 8.95286 10.2221 8.87794 10.3803 8.87045C10.5611 8.90791 10.6741 8.78804 10.7946 8.68315C10.9152 8.58576 11.0508 8.48836 11.2466 8.55579C11.563 8.51084 11.8719 8.39846 12.2033 8.31605C12.2786 8.25611 12.354 8.21865 12.4368 8.19618C12.5197 8.1737 12.6101 8.16621 12.6929 8.16621C12.7833 8.16621 12.8737 8.16621 12.9566 8.16621C13.047 8.16621 13.1374 8.18119 13.2278 8.1737C13.5668 7.94145 13.9509 8.00888 14.3201 8.14373C14.5084 8.01637 14.7042 7.96393 14.9001 7.9939C15.096 8.00888 15.2843 8.11377 15.4575 8.25611C15.6534 8.28608 15.8493 8.30107 16.0451 8.33103C16.241 8.36849 16.4444 8.41344 16.6176 8.52582C17.0093 8.64569 17.3709 8.83299 17.7777 8.96036C18.0941 9.28251 18.4481 9.4773 18.9076 9.57469C19.1788 9.95678 19.5555 10.1516 19.9623 10.3688C20.0602 10.4213 20.1506 10.4887 20.2334 10.5786C20.3088 10.661 20.3766 10.7509 20.4519 10.8408C20.5875 11.0281 20.7231 11.2079 20.9265 11.3353C21.2353 11.6799 21.4764 12.077 21.7476 12.4591C22.0564 12.8112 22.3653 13.2158 22.3954 13.7327C22.5385 14.1972 22.6214 14.6692 22.8323 15.1187C22.7419 15.6357 22.9076 16.0927 23.0432 16.5871C23.0432 17.0816 23.1713 17.5986 23.0056 18.093C22.983 18.6025 22.757 19.082 22.7042 19.5914C22.6214 20.1009 22.4783 20.6178 22.1468 21.0224C22.0564 21.1198 21.9961 21.2246 21.9284 21.337C21.8606 21.4419 21.8078 21.5543 21.7551 21.6742C21.6948 21.7865 21.6421 21.8989 21.5818 22.0113C21.5216 22.1237 21.4462 22.2211 21.3634 22.3185C21.3332 22.4533 21.2655 22.5582 21.1901 22.6631C21.1148 22.768 21.0244 22.8504 20.934 22.9328C20.8436 23.0152 20.7457 23.0976 20.6477 23.18C20.5498 23.2625 20.467 23.3524 20.3916 23.4423C20.03 23.7719 19.7287 24.184 19.2692 24.3787C18.8474 24.626 18.4255 24.8283 18.0413 25.1055C17.8982 25.0905 17.7852 25.1055 17.6722 25.1429C17.5668 25.1879 17.4613 25.2403 17.3634 25.3003C17.2655 25.3677 17.1675 25.4351 17.0621 25.4876C16.9566 25.5475 16.8511 25.5924 16.7381 25.6074C16.3314 25.8622 15.8417 25.8097 15.4123 25.9071C14.9679 25.9221 14.531 26.1244 14.0941 26.0045C13.6572 26.027 13.2429 25.8622 12.8135 25.9221C12.6176 25.8097 12.4067 25.8097 12.2033 25.7947C11.9924 25.7947 11.7815 25.7722 11.6007 25.6674C11.2165 25.5475 10.8398 25.4051 10.4783 25.2703C10.2523 25.3003 10.0715 25.2104 9.91329 25.1055C9.75509 24.9931 9.61197 24.8582 9.46131 24.7533C9.29558 24.6634 9.15999 24.5361 9.0244 24.4162C8.88127 24.3038 8.74568 24.1915 8.55735 24.139C8.40669 24.0416 8.26357 23.9367 8.12044 23.8393C7.98485 23.7344 7.85679 23.6146 7.76639 23.4647C7.66093 23.3299 7.48014 23.2699 7.33702 23.18C7.19389 23.0901 7.06583 22.9778 7.08843 22.753C7.0131 22.6107 6.86997 22.5282 6.74945 22.4234C6.68918 22.3709 6.62892 22.3185 6.59126 22.2585C6.55359 22.1911 6.53099 22.1162 6.53099 22.0263C6.53099 21.9364 6.50839 21.869 6.47826 21.8015C6.44813 21.7341 6.40293 21.6817 6.35773 21.6217C6.2598 21.5168 6.13928 21.4194 6.07901 21.2996C5.93589 21.0598 5.82289 20.8276 5.71743 20.5953C5.47637 20.0784 5.30312 19.5989 5.18259 19.1719C5.11479 18.9621 5.0696 18.7598 5.0244 18.5725C4.98673 18.3852 4.94907 18.2204 4.91894 18.0631C4.88881 17.9132 4.86621 17.7709 4.84361 17.6585C4.82101 17.5386 4.80594 17.4412 4.79087 17.3588C4.76074 17.2015 4.72308 17.1116 4.69295 17.1116C4.65528 17.1116 4.62515 17.2165 4.60255 17.4187C4.58748 17.5236 4.57242 17.651 4.57242 17.8008C4.57242 17.9507 4.56489 18.1305 4.57242 18.3253C4.58749 18.7223 4.64775 19.2093 4.77581 19.7712C4.90387 20.3331 5.10726 20.9624 5.42364 21.6367C5.48391 21.7716 5.52157 21.9214 5.58183 22.0712C5.61197 22.1462 5.6421 22.2136 5.6873 22.281C5.73249 22.3484 5.79276 22.4009 5.86056 22.4533C5.90575 22.5208 5.94342 22.5957 5.98108 22.6706C6.01875 22.7455 6.05641 22.8204 6.10161 22.8879C6.18447 23.0377 6.2824 23.18 6.42553 23.2849C6.47826 23.6895 6.85491 23.8543 7.11856 24.109C7.24662 24.2439 7.39728 24.3638 7.5404 24.4836C7.69106 24.6035 7.82666 24.7384 7.95472 24.8882C8.06771 25.0605 8.24097 25.1729 8.42176 25.2703C8.59502 25.3752 8.78334 25.4576 8.934 25.6074C9.35584 25.7123 9.70236 25.9446 10.0489 26.2293C10.4933 26.2967 10.8549 26.5889 11.2918 26.7237C11.7815 26.6638 12.1882 26.896 12.6477 27.0534C13.1073 27.1882 13.6044 27.1433 14.0941 27.1882C14.5837 27.1508 15.0884 27.2182 15.5931 27.1133C16.1054 27.1358 16.6402 27.0609 17.1148 26.8061C17.6421 26.7162 18.1242 26.4765 18.6139 26.2442C19.1336 26.0794 19.5705 25.7273 20.03 25.4276C20.1506 25.3527 20.256 25.2703 20.3615 25.1729C20.4594 25.0755 20.5574 24.9781 20.6553 24.8807C20.7532 24.7833 20.8511 24.6859 20.9566 24.596C21.0696 24.5136 21.1826 24.4312 21.3257 24.3713C21.7476 23.9967 22.079 23.5247 22.4481 23.0901C22.772 22.6107 23.0432 22.1087 23.3596 21.6067C23.4274 20.9924 23.7513 20.5129 24.0074 19.966C24.2334 19.4116 24.3238 18.8197 24.354 18.2354C24.4368 17.6585 24.4368 17.0741 24.3916 16.5047C24.3916 16.3624 24.3916 16.22 24.369 16.0777C24.3464 15.9353 24.3163 15.793 24.2937 15.6581C24.2259 15.3809 24.1656 15.1037 24.143 14.8265C24.1355 14.6842 24.1054 14.5418 24.0602 14.4145C24.015 14.2796 23.9698 14.1448 23.9095 14.0174C23.8493 13.89 23.7965 13.7627 23.7513 13.6353C23.6986 13.508 23.6534 13.3806 23.6233 13.2382C23.4651 12.7063 23.2391 12.1969 22.8624 11.7923C22.7871 11.6799 22.7042 11.575 22.6214 11.4702C22.531 11.3728 22.4406 11.2754 22.3502 11.1705C22.1694 10.9757 22.0112 10.7734 21.9058 10.5187C21.7551 10.3089 21.6195 10.0692 21.4538 9.86688C21.3709 9.76948 21.2805 9.67209 21.1675 9.59717C21.0621 9.52225 20.934 9.46981 20.7909 9.44733C20.708 9.34994 20.6101 9.26752 20.5046 9.2001C20.3992 9.13267 20.2937 9.05775 20.1807 9.00531C20.0677 8.94537 19.9623 8.88544 19.8568 8.81052C19.7513 8.74309 19.6534 8.66817 19.5705 8.57827C19.4425 8.55579 19.322 8.52582 19.209 8.47338C19.096 8.42094 18.998 8.35351 18.8926 8.29357C18.7946 8.22615 18.6892 8.15872 18.5913 8.09129C18.4858 8.03136 18.3879 7.97142 18.2749 7.91898C17.8229 7.76914 17.3634 7.67924 16.9491 7.46946C16.7457 7.34959 16.5197 7.31962 16.2937 7.28965C16.0677 7.26718 15.8493 7.25969 15.6308 7.21474C15.4199 7.12483 15.2014 7.13982 14.983 7.16229C14.7645 7.18477 14.5611 7.21473 14.3502 7.13982C13.9359 7.16978 13.5291 7.13982 13.1374 7.22223C13.0319 7.16229 12.9265 7.13232 12.8285 7.13232C12.7306 7.13232 12.6327 7.16229 12.5423 7.19226C12.4519 7.22972 12.3615 7.27467 12.2711 7.31213C12.1807 7.35708 12.0978 7.40203 12.0074 7.42451C11.8342 7.48444 11.6383 7.47695 11.4575 7.50692C11.2768 7.53689 11.1035 7.57435 10.9754 7.73917C10.7796 7.69422 10.6063 7.74666 10.4632 7.82907C10.3201 7.91898 10.192 8.04634 10.0564 8.13624C9.92082 8.22615 9.77016 8.28608 9.62704 8.33852C9.48391 8.39846 9.34078 8.4584 9.24285 8.59325C9.07713 8.60074 8.9566 8.69814 8.85867 8.80302C8.76074 8.90791 8.67035 9.02778 8.54229 9.08023C8.50462 9.14016 8.45189 9.18511 8.39916 9.23006C8.34643 9.27502 8.30123 9.31248 8.24097 9.34994C8.13551 9.42485 8.02251 9.48479 7.93965 9.57469C7.72873 9.70955 7.563 9.86688 7.44248 10.0617C7.29935 10.2265 7.15623 10.3688 7.04323 10.5187C6.33513 11.4027 6.10914 11.9796 6.1694 12.0171L6.16188 12.0096Z" fill="#0061EF"/>
<path d="M4.75295 15.793C4.83582 15.8005 4.91114 15.8155 4.98647 15.823H5.02414C5.02414 15.823 5.04674 15.8305 5.0618 15.8305C5.0844 15.8305 5.0618 15.8305 5.09193 15.8305C5.11453 15.8305 5.107 15.8305 5.12207 15.8305C5.15973 15.8305 5.05427 15.823 5.1522 15.8305C5.36312 15.8604 4.91868 15.8005 5.18233 15.8305C5.24259 15.838 5.22753 15.8305 5.21246 15.8305C5.05427 15.808 5.21246 15.8305 5.2426 15.8305C5.04674 15.8005 5.13713 15.8155 5.26519 15.8305C5.00154 15.793 5.0392 15.8005 5.28779 15.8305C5.29533 15.8305 5.1974 15.8155 5.31039 15.8305C5.32546 15.8305 5.37819 15.838 5.33299 15.8305C5.50625 15.8529 5.49872 15.8529 5.34806 15.8305C5.53638 15.8604 5.46105 15.8454 5.36312 15.8305C5.25766 15.8155 5.52885 15.8529 5.37819 15.8305C5.37066 15.8305 5.42338 15.8305 5.39325 15.8305C5.31792 15.823 5.22753 15.808 5.40079 15.8305C5.44599 15.8305 5.51378 15.8454 5.40832 15.8305C5.61171 15.8604 5.52132 15.8454 5.40832 15.8305C5.43845 15.8305 5.29533 15.8155 5.40832 15.8305C5.49872 15.8454 5.37819 15.8305 5.40832 15.8305C5.34806 15.823 5.28779 15.8155 5.40832 15.8305C5.53638 15.8454 5.35559 15.8305 5.40832 15.8305C5.46859 15.838 5.22 15.8005 5.40832 15.8305C5.42339 15.8305 5.29533 15.8155 5.40079 15.8305C5.43845 15.8305 5.46858 15.838 5.39325 15.8305C5.68704 15.8679 5.31793 15.823 5.37819 15.8305C5.25766 15.8155 5.39325 15.8305 5.36312 15.8305C5.41585 15.8305 5.22753 15.808 5.34806 15.8305C5.32546 15.8305 5.43845 15.8454 5.33299 15.8305C5.47611 15.8529 5.21246 15.8155 5.31039 15.8305C5.31039 15.8305 5.31792 15.8305 5.28779 15.8305C5.0618 15.8005 5.25013 15.8305 5.26519 15.8305C5.2426 15.8305 5.39326 15.8454 5.2426 15.8305C5.22753 15.8305 5.12207 15.8155 5.21246 15.8305C5.2426 15.8305 4.88101 15.7855 5.18233 15.8305C5.23506 15.838 4.94881 15.8005 5.1522 15.8305C5.34052 15.8529 5.1296 15.8305 5.12207 15.8305H5.09193C4.99401 15.8155 4.88101 15.793 4.76049 15.778C4.62489 15.7555 4.49683 15.7406 4.39137 15.7256C4.38384 15.7256 4.21811 15.7031 4.36124 15.7256C4.36124 15.7256 4.24071 15.7106 4.33111 15.7256C4.12019 15.6956 4.29344 15.7256 4.30098 15.7256C4.29344 15.7256 4.36124 15.7331 4.27084 15.7256C4.15032 15.7106 4.33111 15.7331 4.24825 15.7256C4.37631 15.7406 4.34617 15.7406 4.22564 15.7256C4.3537 15.7406 4.19551 15.7256 4.20304 15.7256C4.3989 15.7555 4.26331 15.7331 4.18045 15.7256C4.11265 15.7181 4.21058 15.7256 4.16538 15.7256C4.20305 15.7256 4.11265 15.7256 4.15031 15.7256C4.05992 15.7106 4.02226 15.7106 4.13525 15.7256C4.07499 15.7181 4.12018 15.7256 4.12018 15.7256C4.04485 15.7106 4.12772 15.7256 4.11265 15.7256C4.07499 15.7256 4.31604 15.7555 4.10512 15.7256C4.14278 15.7256 4.07499 15.7256 4.10512 15.7256C4.15785 15.7331 4.13525 15.7256 4.10512 15.7256C4.31604 15.7555 4.18798 15.7331 4.10512 15.7256C4.07499 15.7256 4.04485 15.7181 4.10512 15.7256C4.09759 15.7256 4.08252 15.7256 4.10512 15.7256C4.19551 15.7406 4.04485 15.7181 4.10512 15.7256C4.01472 15.7106 4.20305 15.7406 4.11265 15.7256C4.05239 15.7181 4.01472 15.7106 4.12018 15.7256C4.12018 15.7256 4.31604 15.7555 4.13525 15.7256C4.09759 15.7256 3.85653 15.6881 4.15031 15.7256C4.07498 15.7181 4.29344 15.748 4.16538 15.7256C4.38384 15.7555 4.18045 15.7256 4.18045 15.7256C4.22564 15.7256 4.29344 15.7406 4.20304 15.7256C4.09758 15.7106 4.25577 15.7256 4.22564 15.7256C4.10512 15.7106 4.38384 15.748 4.24825 15.7256C4.27085 15.7256 4.24071 15.7256 4.27084 15.7256C3.97706 15.6881 4.27084 15.7256 4.30098 15.7256C4.34617 15.7256 4.11265 15.6956 4.33111 15.7256C4.11265 15.6956 4.30097 15.7256 4.36124 15.7256C4.4215 15.7331 4.27084 15.7106 4.39137 15.7256C4.4215 15.7256 4.41397 15.7256 4.4215 15.7256C4.4667 15.7256 4.4441 15.7256 4.45163 15.7256C4.4667 15.7256 4.45163 15.7256 4.48177 15.7256H4.51943C4.59476 15.7406 4.67009 15.748 4.75295 15.763V15.793Z" fill="#0061EF"/>
<path d="M10.1023 17.1191C10.1399 17.1191 10.1851 17.0516 10.2303 16.9168C10.2529 16.8494 10.2755 16.7744 10.3057 16.6771C10.3433 16.5871 10.3735 16.4823 10.4111 16.3624C10.4413 16.2875 10.4789 16.2051 10.5091 16.1152C10.5317 16.0702 10.5543 16.0327 10.5693 15.9878C10.5919 15.9428 10.6145 15.8979 10.6296 15.8454C10.5693 15.7106 10.8857 15.7181 10.7803 15.5608C10.7878 15.4409 10.8706 15.3435 10.9686 15.2611C11.0665 15.1787 11.0364 15.0063 11.2021 14.9614C11.3226 14.9689 11.3151 14.8865 11.3226 14.7966C11.3226 14.7142 11.3452 14.6318 11.4884 14.6617C11.5561 14.6318 11.6089 14.5793 11.6616 14.5344C11.7143 14.4894 11.7671 14.437 11.8198 14.377C11.8198 14.2646 11.8876 14.2197 11.9629 14.1897C12.0383 14.1598 12.1286 14.1523 12.1964 14.1223C12.2266 13.8826 12.4149 13.8526 12.6258 13.9125C12.6409 13.7627 12.6936 13.6653 12.784 13.6428C12.8669 13.6203 12.9799 13.6578 13.1004 13.7477C13.1833 13.7252 13.2586 13.6878 13.3415 13.6503C13.3791 13.6353 13.4243 13.6203 13.4695 13.6203C13.5147 13.6203 13.5599 13.6278 13.6126 13.6503C13.703 13.6503 13.7934 13.6503 13.8763 13.6503C13.9667 13.6503 14.0571 13.6503 14.1475 13.6203C14.2379 13.7028 14.3283 13.7552 14.4111 13.7627C14.4563 13.7627 14.5015 13.7627 14.5467 13.7402C14.5919 13.7327 14.6447 13.7102 14.6899 13.6803C14.8481 13.8901 15.0213 13.8601 15.2398 13.8151C15.3452 13.8001 15.4281 13.8751 15.5034 13.935C15.5787 14.0024 15.6465 14.0774 15.7746 14.0474C15.8725 14.0774 15.9403 14.1523 16.0232 14.2047C16.1061 14.2572 16.1814 14.3246 16.2718 14.3695C16.3245 14.3845 16.3772 14.3995 16.43 14.4145C16.4752 14.437 16.5279 14.4594 16.5656 14.4969C16.6032 14.5269 16.6409 14.5643 16.671 14.6093C16.7012 14.6542 16.7087 14.7142 16.7162 14.7816C16.769 14.8715 16.8217 14.9614 16.8669 15.0513C16.9196 15.1412 16.9949 15.2086 17.0853 15.2761C17.0251 15.5608 17.1833 15.6806 17.3716 15.838C17.3867 15.9428 17.462 16.0327 17.5072 16.1301C17.5448 16.2275 17.59 16.3324 17.5524 16.4523C17.5825 16.5572 17.5825 16.6696 17.575 16.7744C17.5674 16.8868 17.5599 16.9917 17.6126 17.0966C17.6352 17.209 17.6578 17.3139 17.6654 17.4337C17.6654 17.5461 17.6202 17.651 17.5524 17.7484C17.4695 17.8458 17.4469 17.9432 17.4469 18.0556C17.4469 18.1605 17.4319 18.2728 17.3716 18.3627C17.4243 18.4976 17.3565 18.5875 17.2812 18.6699C17.2134 18.7523 17.1079 18.8123 17.0853 18.9246C17.0251 19.0145 16.9799 19.1044 16.9347 19.2018C16.8895 19.2992 16.8217 19.3816 16.7162 19.4191C16.671 19.4491 16.6334 19.4865 16.5957 19.509C16.5505 19.539 16.5128 19.5689 16.4752 19.5989C16.4375 19.6289 16.3998 19.6663 16.3697 19.7038C16.332 19.7413 16.3019 19.7787 16.2718 19.8237C16.0985 19.7637 16.0458 19.8386 15.9855 19.9285C15.9253 20.0185 15.8876 20.1458 15.7746 20.1533C15.7143 20.2507 15.6239 20.2957 15.526 20.3181C15.4281 20.3331 15.3302 20.3406 15.2473 20.393C15.1494 20.393 15.0665 20.4455 14.9761 20.4979C14.8932 20.5504 14.7953 20.5729 14.6974 20.5354C14.6522 20.5504 14.607 20.5504 14.5618 20.5579C14.5166 20.5579 14.4714 20.5504 14.4187 20.5429C14.3283 20.5279 14.2379 20.5429 14.1475 20.5953C14.0571 20.5204 13.9742 20.5429 13.8763 20.5803C13.7859 20.6103 13.688 20.6328 13.6126 20.5729L13.4846 20.5504L13.3565 20.5204C13.2737 20.4979 13.1908 20.4904 13.1079 20.4755C12.9949 20.5579 12.9045 20.5354 12.8367 20.483C12.7614 20.438 12.7087 20.3481 12.6409 20.3106C12.4752 20.2657 12.43 20.0484 12.2115 20.1009C12.1437 20.0634 12.0684 20.0409 11.9931 20.011C11.9177 19.9735 11.8575 19.936 11.8349 19.8461C11.7897 19.7862 11.6842 19.7937 11.5938 19.7787C11.5034 19.7637 11.4432 19.7113 11.5109 19.5614C11.4884 19.494 11.3904 19.479 11.3151 19.4491C11.2473 19.4191 11.187 19.3741 11.2247 19.2618C11.2925 19.052 11.0665 19.067 10.9912 18.9621C10.9158 18.8647 10.8631 18.7598 10.8028 18.6624C10.5467 18.2204 10.4187 17.8233 10.3283 17.5461C10.2529 17.2689 10.1851 17.1116 10.1249 17.1116C10.0948 17.1116 10.0571 17.1565 10.0345 17.2614C10.0194 17.3064 10.0044 17.3738 9.99682 17.4412C9.98176 17.5161 9.97423 17.5986 9.97423 17.696C9.95916 18.078 10.027 18.6624 10.3584 19.3292C10.4262 19.4566 10.3659 19.6813 10.5844 19.7338C10.6296 19.8012 10.6597 19.8836 10.6899 19.9585C10.7275 20.0334 10.7802 20.1009 10.8782 20.1383C10.8631 20.2732 10.9083 20.3556 10.9912 20.4005C11.074 20.453 11.172 20.4755 11.2398 20.5354C11.3 20.6028 11.3904 20.6478 11.4657 20.7002C11.5486 20.7527 11.6164 20.8126 11.6767 20.9025C11.7821 21.1048 12.0458 21.0673 12.1964 21.2247C12.3245 21.2097 12.4224 21.2396 12.5204 21.2771C12.6183 21.322 12.7012 21.3895 12.7916 21.4869C12.9121 21.4644 13.0175 21.4869 13.123 21.5393C13.1757 21.5618 13.2285 21.5918 13.2812 21.6142C13.3339 21.6367 13.3942 21.6517 13.4469 21.6592C13.575 21.5768 13.688 21.5843 13.801 21.6142C13.914 21.6367 14.027 21.6966 14.1475 21.7416C14.268 21.7865 14.3885 21.7641 14.5091 21.7416C14.5693 21.7341 14.6296 21.7266 14.6899 21.7191C14.7501 21.7116 14.8104 21.7041 14.8782 21.7041C15.1192 21.6367 15.3829 21.6592 15.6315 21.5543C15.7671 21.5543 15.9027 21.5393 16.0307 21.4944C16.1588 21.4494 16.2718 21.367 16.3697 21.2621C16.5053 21.2396 16.6183 21.1572 16.7388 21.0898C16.8593 21.0224 16.9573 20.925 17.0703 20.8426C17.1381 20.8201 17.1983 20.7826 17.2586 20.7452C17.3113 20.7002 17.3641 20.6553 17.4093 20.6028L17.5524 20.453C17.5976 20.4005 17.6428 20.3481 17.6955 20.2957C17.8085 20.2058 17.8612 20.0709 17.9215 19.936C17.9818 19.8012 18.0646 19.6963 18.2228 19.6289C18.4036 19.3966 18.4789 19.1119 18.6296 18.8572C18.6673 18.7149 18.7125 18.5725 18.7501 18.4302C18.7803 18.2878 18.833 18.1455 18.8857 18.0031C18.8029 17.8383 18.8104 17.696 18.8405 17.5461C18.8631 17.4038 18.9234 17.2539 18.9761 17.1041C18.9987 16.9543 18.9987 16.7969 18.9836 16.6471C18.961 16.4972 18.9234 16.3474 18.8857 16.2051C18.8706 16.0552 18.8254 15.9129 18.7878 15.7705C18.7501 15.6282 18.6823 15.4933 18.6296 15.3585C18.607 15.2086 18.5166 15.0888 18.4337 14.9614C18.3584 14.834 18.2605 14.7291 18.2228 14.5793C18.1927 14.4295 18.0722 14.3321 17.9742 14.2272C17.8688 14.1223 17.7558 14.0399 17.6955 13.905C17.6578 13.8451 17.6202 13.7777 17.575 13.7252C17.5298 13.6728 17.4846 13.6203 17.4319 13.5679C17.3791 13.5155 17.3264 13.478 17.2661 13.433C17.2059 13.3956 17.1381 13.3731 17.0627 13.3506C16.9497 13.2682 16.8141 13.2233 16.6861 13.1783C16.558 13.1334 16.4526 13.0584 16.3697 12.9236C16.2567 12.8487 16.1663 12.7213 16.0533 12.6464C15.9403 12.5715 15.8047 12.5415 15.6315 12.6389C15.5185 12.564 15.3829 12.5715 15.2473 12.5715C15.1192 12.564 14.9912 12.5715 14.8782 12.4966C14.8104 12.5415 14.7426 12.5565 14.6823 12.564C14.6221 12.5715 14.5618 12.564 14.5015 12.549C14.381 12.519 14.2605 12.4591 14.1399 12.4666C14.0194 12.4966 13.8989 12.5265 13.7859 12.549C13.6729 12.5715 13.5599 12.5865 13.4318 12.549C13.3716 12.534 13.3113 12.534 13.2511 12.549C13.1983 12.564 13.1381 12.5865 13.0929 12.6089C12.9874 12.6614 12.8895 12.7138 12.7765 12.7363C12.656 12.7138 12.558 12.7887 12.4752 12.8637C12.3848 12.9311 12.317 13.021 12.1889 12.9985C12.0081 13.1109 11.8198 13.1783 11.6691 13.3207C11.5034 13.2532 11.4206 13.3207 11.3678 13.4106C11.3151 13.5005 11.285 13.6203 11.2247 13.6953C11.172 13.7702 11.0665 13.8001 10.9836 13.8376C10.9008 13.8751 10.8405 13.95 10.8556 14.0848C10.7125 14.0773 10.6447 14.1373 10.6145 14.2197C10.5844 14.3021 10.5844 14.407 10.5618 14.4894C10.5166 14.6467 10.3057 14.6992 10.3358 14.894C10.2303 14.9164 10.2077 14.9914 10.2077 15.0738C10.2077 15.1562 10.2228 15.2311 10.1701 15.2836C10.2002 15.4409 10.0722 15.5233 10.0571 15.6507C10.0194 15.7031 9.99683 15.7555 9.98176 15.808C9.97423 15.8679 9.98176 15.9204 9.98929 15.9803C9.97422 16.0852 9.95916 16.1826 9.95163 16.2725C9.95163 16.4148 9.95163 16.5347 9.95163 16.6396C9.95163 16.7445 9.97422 16.8344 9.98929 16.9018C10.0194 17.0442 10.0571 17.1116 10.1023 17.1116V17.1191Z" fill="#0061EF"/>
</g>
<defs>
<clipPath id="clip0_3484_38827">
<rect width="64" height="65" fill="white" transform="matrix(-1 0 0 1 68 0)"/>
</clipPath>
</defs>
</svg>
