<svg width="62" height="65" viewBox="0 0 62 65" fill="none" xmlns="http://www.w3.org/2000/svg">
<rect x="10.3633" y="12.2463" width="43.3333" height="52.7536" rx="4" fill="#E0E6FF"/>
<g clip-path="url(#clip0_3484_38830)">
<path d="M17.7946 51.7118C17.8305 51.7118 17.8735 52.332 17.9094 53.5148C17.9452 54.6976 17.9811 56.4502 18.017 58.7149C18.0241 59.2413 18.0313 59.7967 18.0457 60.4097C18.1461 60.4097 18.268 60.4097 18.3828 60.4097C18.5764 60.4097 18.7701 60.4025 18.9709 60.3953C19.1933 60.3953 19.4228 60.3881 19.6451 60.3809C20.1042 60.3737 20.5776 60.3737 21.0581 60.3809C22.0264 60.4818 23.0521 60.1934 24.128 60.352C25.2038 60.3953 26.3228 60.352 27.4991 60.3232C28.6753 60.2871 29.8947 60.3881 31.1642 60.2943C32.4338 60.0996 33.7535 60.5107 35.1091 60.2655C36.4719 60.215 37.8777 60.2294 39.3266 60.2366C40.7754 60.3881 42.2673 60.2366 43.8022 60.2078C45.3371 60.3881 46.9151 60.3088 48.5289 60.1861C50.1427 60.4314 51.7996 60.3953 53.4923 60.1645C55.185 60.1573 56.9136 60.2511 58.678 60.1429C58.9865 60.1429 59.2877 60.1429 59.5961 60.1357H59.8185H59.8759H59.9906V60.0131V59.9554V59.775C59.9906 59.4793 59.9906 59.1836 59.9906 58.8807C59.9906 58.2821 59.9906 57.6835 60.0121 57.0849C59.8472 55.2386 59.8543 53.3634 59.9978 51.4593C59.8185 49.5481 59.8902 47.608 59.9834 45.6391C60.0838 43.6701 59.8256 41.6723 59.9691 39.6385C59.9834 37.6118 59.9261 35.5564 59.9547 33.4792C60.0265 31.3949 60.1054 29.2889 59.9476 27.1613C59.9045 25.0337 59.8472 22.8773 59.9404 20.6992C59.7539 18.5211 59.8328 16.3213 59.9404 14.1072C59.9117 11.893 60.0408 9.65001 59.9404 7.39258C59.9404 7.09688 59.9404 6.80118 59.9404 6.50548V6.32517V6.28911V6.2242H59.8472H59.2949C58.8789 6.23862 58.4629 6.24583 58.0469 6.24583C57.2077 6.24583 56.3757 6.24583 55.5293 6.21699C54.6399 6.19535 53.7505 6.17371 52.8683 6.15929C52.4236 6.15929 51.9861 6.15207 51.5414 6.15207H50.9174C50.8671 6.15207 50.8169 6.15929 50.7739 6.1665V6.25305L50.7883 6.28911V6.31074V6.31796V6.33959L50.8169 7.07524C50.8671 7.9912 50.8672 8.91436 50.8528 9.8231C50.8456 10.2775 50.8385 10.7391 50.8241 11.1934C50.8241 11.4314 50.8169 11.6694 50.8098 11.9074C50.8098 12.3257 50.8098 12.7441 50.8026 13.1624C50.4225 13.1624 50.0495 13.1624 49.6693 13.1624H49.282L48.9736 13.1696C46.7645 12.9893 44.5768 13.2273 42.4179 13.1696C40.2518 13.184 38.1144 13.0686 35.9913 13.1624C33.8754 13.1984 31.7739 13.2273 29.7082 13.1552C29.45 13.1912 29.1846 13.2129 28.9264 13.2345H28.8762H28.8045H28.6108L28.2306 13.2489C27.9724 13.2489 27.7142 13.2489 27.456 13.2561C27.456 12.8811 27.456 12.4988 27.456 12.1166V11.8425V11.6983V11.4098C27.4775 11.0275 27.4991 10.6453 27.5134 10.263C27.5493 9.49855 27.5851 8.73406 27.5636 7.97677C27.5851 7.5801 27.5995 7.18342 27.6066 6.78675C27.6066 6.62087 27.6066 6.45499 27.6066 6.28911C27.6066 6.23862 27.6066 6.18092 27.6066 6.13044H27.4847L27.4273 6.13765H27.2193C26.9181 6.14486 26.6168 6.15207 26.3156 6.15207C25.7131 6.15929 25.1178 6.1665 24.5224 6.15207C22.5643 6.20256 20.6349 6.02947 18.7342 6.13765H18.4545H18.3397V6.2819L18.3469 6.29632V6.33238V6.47663V6.77233C18.3541 7.169 18.3612 7.55846 18.3684 7.94792C18.3684 8.72684 18.3684 9.50576 18.3254 10.2775C18.4617 12.1238 18.2106 13.9341 18.3039 15.7083C18.3039 17.4825 18.311 19.2206 18.2823 20.9227C18.0672 22.6248 18.2465 24.2836 18.2608 25.9136C18.2537 26.4257 18.2608 26.9377 18.2752 27.4426C18.2752 27.695 18.2895 27.9475 18.2895 28.1999V28.2359V28.2504V28.2792V28.3369V28.4451C18.3326 28.4451 18.3756 28.4451 18.4186 28.4451C18.4688 28.4451 18.4617 28.4451 18.6481 28.4523C18.935 28.4595 19.2148 28.4812 19.4945 28.5028C20.262 28.51 21.0151 28.5389 21.7682 28.5533C22.1412 28.5533 22.5141 28.5677 22.8799 28.5605C23.0664 28.5605 23.2457 28.5605 23.4322 28.5533L23.7048 28.5389C23.798 28.5389 23.8769 28.5316 24.006 28.5316C24.2355 28.5461 24.4579 28.5966 24.6659 28.6975C24.8739 28.7913 25.0532 28.9283 25.211 29.087C25.5194 29.4043 25.7059 29.8226 25.749 30.2482C25.7633 30.3491 25.7561 30.4645 25.7561 30.5583C25.7561 30.6448 25.7561 30.7314 25.7418 30.8251C25.7418 30.9982 25.7418 31.1785 25.7418 31.3516C25.749 31.6978 25.7848 32.044 25.8494 32.3902C25.8996 33.7605 25.6342 35.0804 25.8207 36.3569C25.9928 37.6335 25.7992 38.8668 25.792 40.0424C25.792 40.6338 25.7776 41.2108 25.7776 41.7733C25.7776 42.0546 25.7776 42.3359 25.7776 42.6099V42.8191C25.7705 42.8984 25.7776 42.985 25.7561 43.0643C25.7346 43.223 25.6844 43.3816 25.627 43.5331C25.4477 43.9586 25.1178 44.3048 24.7233 44.4995C24.5225 44.6005 24.3144 44.6654 24.0993 44.6798C23.8697 44.7015 23.7048 44.6798 23.5255 44.6871C22.8082 44.6798 22.1125 44.6726 21.4526 44.6654C20.7856 44.6582 20.1544 44.651 19.5447 44.6438C19.0139 44.6366 18.5047 44.6294 18.017 44.6221C17.9954 45.7184 17.9811 46.6993 17.9668 47.5359C17.9524 48.4374 17.9309 49.2019 17.9094 49.8222C17.8735 51.0555 17.8377 51.7046 17.7946 51.7046C17.7516 51.7046 17.7157 51.0627 17.6799 49.8294C17.6583 49.2091 17.644 48.4446 17.6225 47.5431C17.6153 47.0887 17.6081 46.6055 17.5938 46.079C17.5866 45.4876 17.5794 44.8529 17.5651 44.1822C19.1144 44.1606 20.886 44.1461 22.8584 44.1173C23.0951 44.1173 23.3318 44.1173 23.5757 44.1101H23.755C23.8195 44.1101 23.8769 44.1101 23.9271 44.1101H23.9989L24.0706 44.0956C24.1208 44.0956 24.171 44.074 24.214 44.0596C24.5942 43.9442 24.9313 43.6269 25.0532 43.2302C25.1249 43.0282 25.1178 42.8407 25.1106 42.545C25.1106 42.2782 25.1106 42.0041 25.1034 41.73C25.1034 41.1819 25.0963 40.6193 25.0891 40.0496C25.0819 38.8668 24.9313 37.6407 25.0604 36.3641C25.0604 35.0876 24.9456 33.7605 25.0317 32.3974C24.9815 32.0584 24.9528 31.7122 24.9456 31.3588C24.9456 31.1857 24.9385 31.0127 24.9385 30.8323V30.5655C24.9385 30.5222 24.9385 30.5006 24.9385 30.4717C24.9385 30.4429 24.9385 30.414 24.9313 30.3852C24.9098 30.1472 24.795 29.9092 24.6157 29.7217C24.4364 29.5341 24.1925 29.4115 23.9271 29.3971C23.2099 29.3971 22.4855 29.3827 21.7467 29.3827C21.0007 29.3827 20.2404 29.3827 19.473 29.4187C19.1933 29.4404 18.9064 29.4476 18.6266 29.4548C18.4186 29.4548 18.2106 29.4548 18.0026 29.4548C17.7588 29.4548 17.5221 29.4548 17.2782 29.4548C17.2782 29.0437 17.2854 28.6254 17.2925 28.2071C17.2925 27.9547 17.3069 27.7022 17.3069 27.4498C17.3141 26.945 17.3141 26.4329 17.2854 25.9208C17.4073 24.2981 17.3714 22.632 17.2638 20.9299C17.3786 19.2279 17.2423 17.4897 17.2423 15.7155C17.4216 13.9413 17.2997 12.131 17.2208 10.2847C17.1921 9.51298 17.1921 8.74127 17.1993 7.95513C17.1993 7.56567 17.2065 7.169 17.2136 6.77954C17.2136 6.55596 17.2136 6.32517 17.2136 6.09438C17.2136 5.74819 17.2136 5.39479 17.2136 5.04139C17.4862 5.04139 17.7588 5.04139 18.0385 5.04139H18.4545L18.6984 5.03418C20.5991 5.07024 22.5285 4.99091 24.4866 5.01975C25.0819 4.99091 25.6844 4.96927 26.2797 4.96206C26.581 4.96206 26.8822 4.95484 27.1835 4.94763C27.6999 4.94763 28.2235 4.94763 28.7471 4.94763C28.7471 5.32267 28.7471 5.70492 28.7471 6.07995V6.49105L28.7327 6.78675C28.7184 7.18342 28.704 7.5801 28.6897 7.97677C28.7112 8.73406 28.7184 9.49134 28.7184 10.263C28.7184 10.6453 28.7184 11.0275 28.7184 11.4098V11.6983V11.8425V11.9579H28.7686H28.7973H28.8905C29.1487 11.9579 29.4141 11.9579 29.6723 11.9579C31.7452 11.8858 33.8396 11.9651 35.9555 11.9507C38.0714 11.9147 40.2159 12.1454 42.382 11.9435C44.5482 11.9147 46.7358 11.9723 48.9377 11.9435H49.4685L49.5546 11.9579V11.8642L49.5689 11.2079C49.5689 10.7535 49.5689 10.2991 49.5689 9.84474C49.5689 8.92879 49.5617 8.01283 49.5331 7.09688C49.5546 6.85166 49.5689 6.60645 49.5904 6.36123L49.612 5.71934L49.6263 5.07745C50.0136 5.07745 50.4009 5.08466 50.7883 5.09188H51.484C51.9215 5.09188 52.3662 5.09188 52.8109 5.07745C53.6931 5.05582 54.5825 5.01975 55.4719 4.99091C56.3111 4.96927 57.1503 4.96206 57.9895 4.96206C58.4055 4.96206 58.8215 4.96206 59.2375 4.96206C59.8687 4.96206 60.4999 4.96206 61.131 4.96927C61.131 5.48134 61.131 6.00062 61.1239 6.51269C61.1239 6.80839 61.1167 7.10409 61.1095 7.39979C61.131 9.65722 61.1167 11.893 61.1095 14.1144C61.1669 16.3358 61.0235 18.5283 61.1095 20.7064C61.1956 22.8845 61.0163 25.0409 61.1024 27.1685C61.1597 29.3034 61.1884 31.4093 61.0952 33.4864C61.0952 35.5636 60.9159 37.6191 61.0808 39.6457C61.1167 41.6723 61.3462 43.6701 61.0665 45.6463C61.1382 47.6152 60.9374 49.5553 61.0521 51.4666C60.8513 53.3778 61.045 55.253 61.0378 57.0921C61.0235 57.6979 61.0091 58.2965 60.9948 58.8879C60.9948 59.1836 60.9876 59.4866 60.9804 59.7823C60.9804 60.2366 60.9804 60.6982 60.9804 61.1526C60.7222 61.1526 60.464 61.1526 60.2058 61.1526H59.8185H59.5746C59.2662 61.1526 58.9649 61.167 58.6565 61.1886C56.8921 61.2824 55.1635 61.1382 53.4708 61.167C51.7781 61.2824 50.1284 61.0156 48.5074 61.1454C46.8936 61.1165 45.3156 61.1598 43.7807 61.1237C42.2458 61.3978 40.7539 61.1237 39.305 61.0949C37.8562 61.0588 36.4504 61.2752 35.0876 61.066C33.7248 61.2752 32.4122 61.0949 31.1427 61.0372C29.8732 60.9795 28.6538 61.1237 27.4775 61.0083C26.3012 61.1526 25.1823 60.929 24.1064 60.9795C23.0306 60.8857 22.0121 60.9795 21.0366 60.9506C20.5489 60.9651 20.0827 60.9723 19.6236 60.9651C19.3941 60.9651 19.1717 60.9579 18.9494 60.9506C18.6984 60.9434 18.4545 60.929 18.2178 60.9218C17.9739 60.9218 17.7372 60.9218 17.5364 60.9146C17.5436 60.1284 17.5579 59.4072 17.5651 58.7365C17.601 56.4718 17.6296 54.7193 17.6727 53.5365C17.7085 52.3537 17.7444 51.7334 17.7803 51.7334L17.7946 51.7118Z" fill="#0061EF"/>
<path d="M28.1312 9.46242C28.1312 9.49848 27.7224 9.54175 26.9334 9.57782C26.1516 9.61388 24.9897 9.64994 23.4906 9.686C23.2396 9.686 22.9813 9.70042 22.716 9.70042C22.5008 9.70042 22.2784 9.71485 22.0489 9.71485C22.0059 9.71485 21.9557 9.71485 21.9055 9.71485C21.9055 9.80139 21.9126 9.88794 21.9198 9.97449C21.9198 10.0178 21.9198 10.061 21.9198 10.0971C21.9198 10.1476 21.9198 10.1981 21.9198 10.2486C21.9198 10.5154 21.9198 10.7967 21.9198 11.078C21.8194 11.7271 22.1063 12.4122 21.9485 13.1334C21.9055 13.8547 21.9485 14.6047 21.9772 15.3909C22.0131 16.177 21.9126 16.9992 22.0059 17.843C22.1995 18.6941 21.7907 19.574 22.0346 20.4899C22.0848 21.3987 22.0704 22.3435 22.0633 23.3171C21.9126 24.2908 22.0633 25.2861 22.092 26.3174C22.0131 26.7502 21.9844 27.1829 21.9844 27.6228C21.9844 27.731 21.9844 27.8464 21.9844 27.9546V28.1205L21.9915 28.1998V28.2431V28.2647C22.0059 28.3729 22.0202 28.4739 22.0417 28.546C22.135 28.5316 22.2139 28.5099 22.2784 28.4883C22.2856 28.4955 22.3 28.5027 22.3143 28.5099H22.3358C22.3358 28.5099 22.3358 28.5244 22.3645 28.5316C22.4291 28.546 22.5008 28.5604 22.5653 28.5676C22.7016 28.5893 22.8379 28.6037 22.9742 28.6253C23.2467 28.6542 23.5193 28.6614 23.7918 28.6614C23.8564 28.6614 23.9425 28.6614 24.0214 28.6614C24.1003 28.6614 24.1863 28.6758 24.2652 28.6902C24.4302 28.7191 24.5952 28.7624 24.753 28.8273C24.9108 28.8922 25.0686 28.9715 25.2048 29.0797C25.3483 29.1807 25.4846 29.3033 25.6065 29.4475C25.7069 29.599 25.7786 29.7721 25.836 29.9524C25.8862 30.1327 25.9149 30.3202 25.9149 30.5077C25.9149 30.5582 25.9149 30.5871 25.9149 30.6231V30.7313V30.9477C25.9149 31.0919 25.9149 31.2362 25.9077 31.3804C25.9006 31.9574 25.9077 32.5416 25.9579 33.133C25.9723 34.3158 26.0225 35.5202 25.9795 36.7463C26.1444 37.9724 26.1373 39.2273 25.9938 40.4967C26.0799 41.1314 26.1086 41.7732 26.1014 42.4151V42.6603C26.1014 42.7469 26.1014 42.8046 26.0871 42.9344C26.0727 43.158 26.0225 43.3888 25.9293 43.5979C25.7571 44.0162 25.4487 44.3696 25.0757 44.6076C24.7745 44.7952 24.4374 44.9106 24.0859 44.9538H23.9568C23.9138 44.9683 23.8636 44.9683 23.8349 44.9683H23.634C23.5049 44.9827 23.3687 44.9827 23.2396 44.9899C22.9742 45.0043 22.7088 45.0187 22.4434 45.026H22.3502L22.3358 45.0332H22.3071C22.3071 45.0332 22.2713 45.0404 22.2569 45.0404C22.2569 45.0548 22.2569 45.0692 22.2426 45.0909L22.2282 45.1197V45.1341C22.2282 45.1341 22.2139 45.1558 22.2139 45.1702V45.2207C22.1995 46.5694 22.2497 47.9397 22.2139 49.3245C22.1422 50.7092 22.0633 52.1156 22.2211 53.5292C22.2354 54.0629 22.2497 54.6038 22.2713 55.1447C22.2713 55.4188 22.2784 55.6856 22.2856 55.9597V56.0679V56.0895C22.2856 56.104 22.2856 56.1184 22.2856 56.1328C22.3 56.1328 22.3143 56.14 22.3286 56.1472H22.343C22.343 56.1472 22.343 56.1472 22.3573 56.1472H22.4219L22.6873 56.1689C24.1289 55.9813 25.585 56.0607 27.0553 56.1689C28.5257 56.14 30.0104 56.2698 31.5023 56.1689C32.9942 56.1977 34.5004 56.0895 36.021 56.1689C37.5416 56.2266 39.0406 56.277 40.5397 56.1689C42.0316 56.0463 43.5163 56.2193 44.9867 56.1689C46.457 56.3492 47.9131 56.1112 49.3547 56.1689C50.7964 56.1544 52.2237 56.2698 53.6367 56.1689C54.146 56.1617 54.6552 56.1472 55.1573 56.14C55.4084 56.14 55.6594 56.14 55.9104 56.14H55.9893H56.0395C56.0395 56.1184 56.0467 56.0967 56.0539 56.0679V56.0535C56.0539 56.0535 56.0539 56.0535 56.0539 56.0318V55.8876L56.0754 55.5991C55.8028 54.2143 56.1471 52.844 56.0897 51.4953C56.2045 50.1466 56.0754 48.8124 56.1041 47.4998C56.0539 46.1871 56.226 44.8961 56.1184 43.6268C56.1399 42.3574 56.0324 41.1025 56.1328 39.8764C55.9965 38.6503 56.2475 37.4459 56.1543 36.2631C56.1543 35.0803 56.1471 33.9263 56.1758 32.794C56.3838 31.6617 56.2117 30.551 56.1973 29.4692C56.2188 28.3873 56.0754 27.3343 56.2188 26.303C56.2332 25.2789 56.3264 24.2764 56.2475 23.3027C56.2188 22.3291 56.556 21.3915 56.2762 20.4755C56.226 19.5668 56.4914 18.6797 56.3049 17.8286C56.1328 16.9776 56.3264 16.1626 56.3336 15.3765C56.3408 14.5903 56.3551 13.8402 56.3623 13.119C56.3695 12.4483 56.3838 11.8064 56.391 11.1934C56.391 10.8904 56.3982 10.5875 56.4053 10.299C56.4053 10.0899 56.4125 9.89515 56.4197 9.70042C56.2404 9.70042 56.0682 9.69321 55.9033 9.686C55.6594 9.686 55.4227 9.67879 55.186 9.67157C54.727 9.65715 54.2894 9.64994 53.8878 9.64273C53.0845 9.62109 52.4031 9.59945 51.858 9.57782C50.7606 9.53454 50.1796 9.49127 50.1796 9.448C50.1796 9.40472 50.7606 9.36145 51.858 9.31817C52.4102 9.29654 53.0845 9.2749 53.8878 9.25326C54.2894 9.24605 54.7198 9.23163 55.186 9.22442C55.4155 9.22442 55.6522 9.2172 55.9033 9.20999C56.2332 9.20999 56.5775 9.20278 56.9218 9.19557C56.9504 10.9554 56.9791 13.0325 57.0078 15.3837C57.015 16.1698 57.1656 16.9848 57.0365 17.8358C57.0365 18.6869 57.1513 19.5668 57.0652 20.4827C57.2589 21.3915 57.1011 22.3363 57.0939 23.3099C57.1011 24.2836 57.0437 25.2789 57.1226 26.3102C57.2373 27.3416 57.0652 28.3945 57.1441 29.4764C57.0222 30.5582 57.058 31.6689 57.1656 32.8012C57.0509 33.9335 57.1943 35.0875 57.1871 36.2703C57.0078 37.4531 57.1369 38.6576 57.2087 39.8836C57.2732 41.1097 57.18 42.3646 57.223 43.634C57.1871 44.9034 57.266 46.1943 57.2373 47.507C57.3234 48.8196 57.3521 50.1466 57.2517 51.5026C57.3091 52.8512 57.266 54.2216 57.266 55.6063L57.2804 55.8948V56.039L57.2876 56.2987C57.2876 56.6665 57.2876 57.0343 57.2947 57.4022C56.8357 57.4022 56.3766 57.4022 55.9104 57.4022C55.6594 57.4022 55.4084 57.4022 55.1573 57.3949C54.6552 57.3949 54.146 57.3805 53.6367 57.3949C52.2237 57.431 50.7964 57.2002 49.3547 57.4022C47.9131 57.431 46.457 57.3733 44.9867 57.4022C43.5163 57.3733 42.0388 57.3517 40.5397 57.4022C39.0478 57.2002 37.5416 57.3228 36.021 57.4022C34.5004 57.4599 33.0014 57.431 31.5023 57.4022C30.0104 57.4238 28.5257 57.4094 27.0553 57.4022C25.585 57.4599 24.1289 57.3156 22.6873 57.4022L22.4219 57.4166H22.3573H22.2426H21.9915C21.6616 57.4166 21.3245 57.4166 20.9946 57.4166C20.9946 57.1569 20.9946 56.8973 20.9946 56.6377V56.2482L21.0017 56.0535V55.9525C21.0161 55.6784 21.0232 55.4116 21.0304 55.1375C21.0448 54.5966 21.0519 54.0557 21.0161 53.522C20.9587 52.1012 20.93 50.702 21.0232 49.3172C21.0232 47.9325 21.2026 46.5622 21.0376 45.2135C21.0376 44.9899 21.0304 44.7663 21.0232 44.5427C21.0161 44.2903 21.0089 44.0379 21.0017 43.7855C21.4751 43.771 21.9557 43.7494 22.4291 43.735C22.6944 43.7205 22.9598 43.7061 23.2252 43.7061C23.3615 43.7061 23.4906 43.7061 23.6197 43.7061H23.8205L23.8923 43.7205H23.9496C24.1003 43.7205 24.2581 43.7133 24.423 43.6628C24.5808 43.5258 24.7171 43.3599 24.7888 43.1724C24.8319 43.0787 24.8534 42.9777 24.8677 42.8767C24.8749 42.8406 24.8749 42.7397 24.8821 42.6603L24.8964 42.4151C24.9251 41.766 24.9466 41.1314 24.8821 40.4967C25.0829 39.2273 24.8964 37.9724 24.8964 36.7463C24.9323 35.5202 25.004 34.3158 24.9179 33.133C24.8677 32.5416 24.8821 31.9574 24.9036 31.3804C24.9036 31.2362 24.9179 31.0919 24.9179 30.9477V30.7313L24.9323 30.6231C24.9323 30.5871 24.9323 30.5438 24.9323 30.5294C24.9323 30.4284 24.9179 30.3346 24.8964 30.2409C24.8677 30.1471 24.8319 30.0606 24.7745 29.9812C24.7099 29.9091 24.6454 29.837 24.5736 29.7793C24.5019 29.7144 24.423 29.6639 24.3441 29.6206C24.2652 29.5701 24.1792 29.5341 24.0931 29.5052C24.0501 29.4908 23.9998 29.4764 23.9568 29.4692C23.9066 29.4692 23.8707 29.4547 23.7918 29.4475C23.5193 29.4259 23.2467 29.4115 22.9742 29.4043C22.8379 29.4043 22.7016 29.4043 22.5653 29.4043C22.5008 29.4043 22.4291 29.4043 22.3645 29.4187L22.0346 29.4403C21.7405 29.4403 21.4536 29.4403 21.1667 29.4331C21.1667 28.8201 21.1667 28.2214 21.1667 27.6228C21.1667 27.1829 21.1667 26.7502 21.1882 26.3174C20.9157 25.2933 21.1882 24.2908 21.2097 23.3171C21.2456 22.3435 21.0304 21.4059 21.2384 20.4899C21.0304 19.5812 21.2097 18.6941 21.2671 17.843C21.3245 16.992 21.181 16.177 21.2958 15.3909C21.1524 14.6047 21.3747 13.8547 21.3245 13.1334C21.4177 12.4122 21.3245 11.7271 21.3532 11.078C21.3388 10.7967 21.3317 10.5154 21.3388 10.2486C21.3388 10.162 21.3388 10.0755 21.3388 9.99612C21.3388 9.90237 21.3388 9.80861 21.3388 9.71485C21.3388 9.53454 21.3532 9.35424 21.3604 9.18835C21.4679 9.18835 21.5755 9.20278 21.6831 9.20999C22.0346 9.20999 22.3717 9.2172 22.6944 9.22442C22.967 9.22442 23.2252 9.23884 23.4691 9.23884C24.9681 9.2749 26.1301 9.30375 26.9119 9.34702C27.7009 9.38309 28.1097 9.41915 28.1097 9.45521L28.1312 9.46242Z" fill="#0061EF"/>
<path d="M28.1228 4.58696C28.2016 4.58696 28.2734 5.34425 28.3379 6.72178C28.3451 6.95257 28.3594 7.19779 28.3738 7.46464C28.3953 7.7315 28.4168 8.00556 28.4097 8.30848C28.3092 8.60418 28.5961 8.92152 28.4383 9.24607C28.3953 9.57783 28.4383 9.9168 28.467 10.2774C28.5029 10.638 28.4025 11.0131 28.4957 11.4025C28.5388 11.4963 28.5531 11.59 28.5459 11.6838C28.5459 11.7343 28.5388 11.7776 28.5244 11.828C28.5244 11.8569 28.5172 11.8569 28.5101 11.8713L28.4957 11.9074C28.4742 11.9579 28.4527 12.0228 28.4455 12.0805C28.4455 12.1382 28.4455 12.1887 28.4957 12.1959C28.5101 12.1887 28.5244 12.1814 28.5459 12.167C28.6607 12.1382 28.7468 12.131 28.8328 12.131H28.9763C29.0337 12.131 29.0839 12.131 29.1413 12.131C29.2488 12.131 29.3636 12.131 29.4712 12.1382C29.9159 12.2896 30.3678 12.1382 30.834 12.1165C31.3002 12.2968 31.7807 12.2175 32.2756 12.0949C32.7706 12.3401 33.2726 12.3041 33.7819 12.0733C34.2983 12.0661 34.8219 12.1598 35.3598 12.0516C35.8978 12.0372 36.4429 11.9867 37.0023 12.03C37.5618 11.8641 38.1284 11.8713 38.7094 12.0156C39.2904 11.8353 39.8714 11.9074 40.4738 12.0011C41.0692 12.1021 41.6717 11.8497 42.2885 11.9867C42.9053 11.9939 43.5222 11.9434 44.1534 11.9723C44.7845 12.0444 45.4229 12.1237 46.0684 11.9651C46.7139 11.9218 47.3666 11.8641 48.0265 11.9579C48.3565 11.8641 48.6864 11.8353 49.0163 11.8497C49.1024 11.8497 49.1813 11.8497 49.2674 11.8641H49.3965L49.461 11.8785C49.4825 11.8785 49.5112 11.8785 49.5041 11.8785C49.5112 11.9002 49.5399 11.9218 49.583 11.9434C49.5901 11.9434 49.5973 11.9434 49.6045 11.9434C49.6045 11.9218 49.6045 11.9074 49.6188 11.8785L49.6332 11.8425C49.6332 11.8425 49.6332 11.8208 49.6332 11.8064V11.7487L49.6403 11.6333C49.6547 11.3232 49.6547 11.0131 49.6045 10.7029C49.6332 10.0178 49.5184 9.3254 49.6045 8.62581C49.6619 7.92623 49.7121 7.23385 49.6045 6.54869C49.5471 6.21693 49.5543 5.89238 49.5758 5.56783L49.5901 5.32261V5.30819V5.29376V5.27212C49.5901 5.27212 49.6116 5.21443 49.6045 5.19279H49.5901C49.6045 5.15673 49.5686 5.13509 49.5256 5.12788C49.5184 5.12788 49.5041 5.12788 49.4969 5.12788H49.375C49.2889 5.13509 49.21 5.1423 49.1239 5.14952C48.794 5.17837 48.4569 5.22164 48.1341 5.18558C47.8974 5.18558 47.6535 5.18558 47.4169 5.16394C46.9865 5.14952 46.5705 5.13509 46.1473 5.13509C46.1473 4.82497 46.133 4.52205 46.1115 4.20471V3.98113L46.1043 3.87295V3.80804L46.0899 3.56282C46.0899 3.40416 46.0756 3.23827 46.0756 3.0796C46.0756 2.76227 46.0828 2.43772 46.1186 2.12038C46.011 1.86795 45.9967 1.62273 46.0182 1.37752V1.35588L46.0326 1.34146C46.0397 1.34146 46.0541 1.32703 46.0612 1.31261C46.0828 1.29097 46.1043 1.25491 46.1115 1.21885C46.1043 1.20442 46.0756 1.19721 46.0397 1.21164C46.0326 1.19721 46.0182 1.19 45.9967 1.18279H45.9823H45.9537L45.8389 1.17557C45.6883 1.17557 45.5377 1.17557 45.3799 1.18279C45.0786 1.19721 44.7774 1.22606 44.4761 1.21164C43.8808 1.26212 43.2926 1.08903 42.7117 1.19721C42.1307 1.17557 41.5641 1.28376 41.0046 1.18279C40.4452 1.31982 39.9 1.06739 39.3621 1.16115C38.8242 1.16115 38.3006 1.16836 37.7841 1.13951C37.2677 0.923146 36.7656 1.10345 36.2707 1.11788C35.7758 1.09624 35.3025 1.24048 34.8362 1.09624C34.37 1.08182 33.9182 0.988056 33.4735 1.06739C33.2511 1.08182 33.0359 1.00248 32.8208 0.959207C32.7132 0.937571 32.6056 0.923146 32.5052 0.930358C32.455 0.930358 32.3976 0.944783 32.3474 0.959207C32.3187 0.973632 32.29 1.00248 32.2756 1.03854C32.1967 1.06018 32.1035 1.01691 31.9672 0.980844C31.9457 1.01691 31.9242 1.06739 31.9242 1.1323C31.9242 1.19721 31.9385 1.26933 31.9959 1.32703C32.0103 1.34146 32.0174 1.34867 32.0246 1.3703C32.0318 1.39194 32.039 1.42079 32.0461 1.44243C32.0605 1.49291 32.0676 1.53619 32.0676 1.58667C32.0676 1.68043 32.0676 1.77419 32.0533 1.86795C32.0246 2.05547 31.9744 2.23577 31.9672 2.41608C31.9601 2.77669 31.9457 3.12288 31.9385 3.44743C31.9242 3.93786 31.9098 4.40666 31.9027 4.83939C31.5297 4.83218 31.1782 4.81775 30.8411 4.81054C30.5901 4.80333 30.3606 4.7889 30.1382 4.78169C29.7007 4.76006 29.3349 4.73842 29.0337 4.71678C28.4383 4.67351 28.1228 4.62302 28.1228 4.57254C28.1228 4.52205 28.4383 4.47157 29.0337 4.42829C29.3277 4.40666 29.7007 4.38502 30.1311 4.36338C30.3462 4.35617 30.5829 4.34175 30.834 4.33453C30.8627 4.33453 30.8913 4.33453 30.9272 4.33453H30.9918C31.0348 4.33453 31.0707 4.32732 31.1137 4.32011C31.1926 4.32011 31.2715 4.3129 31.3504 4.30568C31.3504 4.20471 31.336 4.10374 31.336 4.00277C31.336 3.94507 31.336 3.89459 31.3289 3.83689C31.3289 3.75034 31.3289 3.6638 31.3217 3.57004C31.3074 3.20942 31.3002 2.83439 31.2858 2.43772C31.2858 2.25741 31.2428 2.0771 31.2213 1.88959C31.2069 1.79583 31.2069 1.70207 31.2069 1.60831C31.2069 1.55782 31.2069 1.51455 31.2213 1.46406C31.2356 1.40637 31.2428 1.34867 31.2571 1.28376C31.2571 0.959207 31.2213 0.605808 31.2069 0.230771C31.4795 0.216347 31.7951 0.216347 32.0963 0.252408C32.1752 0.230771 32.2541 0.209135 32.3402 0.19471C32.3976 0.180286 32.4478 0.173073 32.498 0.165861C32.6056 0.151437 32.706 0.158649 32.8136 0.165861C33.0288 0.180286 33.2439 0.223559 33.4663 0.230771C33.911 0.223559 34.3629 0.281257 34.8291 0.209135C35.2953 0.0937389 35.7758 0.266833 36.2636 0.187498C36.7585 0.310106 37.2606 0.274045 37.777 0.165861C38.2934 0.281257 38.817 0.137012 39.3549 0.144225C39.8929 0.32453 40.438 0.19471 40.9974 0.122588C41.5569 0.0576777 42.1235 0.151437 42.7045 0.108163C43.2855 0.144225 43.8665 0.0648899 44.4689 0.0937389C44.7702 0.0504655 45.0643 0.0216165 45.3727 0.0144043C45.5233 0.0144043 45.6739 0.0144043 45.8317 0.0288288H45.9465L45.9752 0.0432532H46.0326L46.1401 0.0504655C46.2836 0.0576777 46.4199 0.0721022 46.5562 0.0865267C46.8 0.0721022 47.0511 0.06489 47.3021 0.06489C47.3021 0.288469 47.3021 0.519261 47.3021 0.750052C47.3021 0.973632 47.3021 1.19721 47.3021 1.42079C47.3021 1.66601 47.2877 1.91843 47.2877 2.16365C47.3236 2.48099 47.3236 2.79833 47.3093 3.12288C47.3093 3.28155 47.3021 3.44022 47.2949 3.6061V3.85131V3.90901C47.2949 3.90901 47.2949 3.93065 47.2949 3.93786C47.3021 3.9595 47.2949 3.98113 47.2806 4.02441C47.2949 4.04604 47.3308 4.07489 47.3953 4.08211C47.632 4.08932 47.8759 4.07489 48.1126 4.00277C48.4425 3.98835 48.7725 4.00277 49.1024 4.00277H49.3534H49.7121C50.0205 4.00277 50.3361 4.00277 50.6588 3.98835H50.8095C50.8023 4.52205 50.7951 5.05576 50.7808 5.58946C50.7808 5.91401 50.7808 6.24578 50.8095 6.57033C50.6086 7.25549 50.7306 7.94786 50.8095 8.64745C50.8668 9.34704 50.8381 10.0394 50.8095 10.7246C50.8166 11.0347 50.8238 11.3448 50.8238 11.655C50.8238 12.1742 50.8166 12.6935 50.8095 13.2056C50.6875 13.2056 50.5728 13.2056 50.4508 13.2056C50.1424 13.22 49.8268 13.22 49.5112 13.22H49.3678L49.2387 13.2128L48.9876 13.1984C48.6577 13.1767 48.3206 13.1623 47.9978 13.1984C47.338 13.2849 46.6853 13.1046 46.0397 13.1912C45.3942 13.2489 44.7558 13.2777 44.1247 13.1839C43.4935 13.1839 42.8695 13.0036 42.2598 13.1695C41.643 13.2056 41.0405 13.4364 40.4452 13.1551C39.8498 13.2272 39.2617 13.0253 38.6807 13.1407C38.0997 12.9387 37.5331 13.1262 36.9737 13.1262C36.4142 13.0902 35.8691 13.0181 35.3311 13.1046C34.7932 13.1984 34.2696 13.0541 33.7532 13.083C33.2368 13.1984 32.7347 12.9315 32.247 13.0613C31.7521 13.0325 31.2787 13.0758 30.8053 13.0397C30.3391 13.3138 29.8872 13.0397 29.4425 13.0109C29.3349 13.0036 29.2201 13.0109 29.1126 13.0181L28.9476 13.0397L28.8687 13.0541C28.8687 13.0541 28.8185 13.0541 28.7683 13.0613C28.4168 13.083 28.0152 13.0902 27.7785 12.9892C27.7426 12.9892 27.7139 13.0036 27.6781 13.0109C27.592 12.7728 27.592 12.3978 27.6207 12.0733L27.635 11.9507V11.893L27.6422 11.8641V11.8497L27.6781 11.7054C27.6996 11.6117 27.7211 11.5179 27.7354 11.4242C27.7928 11.0347 27.6494 10.6597 27.7641 10.2991C27.6207 9.93844 27.843 9.59947 27.7928 9.2677C27.8861 8.93594 27.7928 8.62581 27.8215 8.33011C27.7856 8.03441 27.8 7.75313 27.8502 7.48628C27.8645 7.21943 27.8717 6.97421 27.8861 6.74342C27.9506 5.36588 28.0223 4.6086 28.1012 4.6086L28.1228 4.58696Z" fill="#0061EF"/>
<path d="M39.1618 4.07485C39.1618 4.11091 39.1259 4.15418 39.0542 4.19024C39.0183 4.21188 38.9753 4.2263 38.9323 4.24794C38.8821 4.27679 38.8319 4.29843 38.7745 4.32728C38.7386 4.34891 38.6956 4.37055 38.6525 4.39219C38.631 4.40661 38.6095 4.42103 38.588 4.43546C38.5665 4.44988 38.545 4.46431 38.5163 4.46431C38.4302 4.39219 38.4876 4.67346 38.3728 4.55807C38.3011 4.54364 38.2581 4.60134 38.2294 4.66625C38.1935 4.73116 38.0859 4.68068 38.0859 4.79607C38.1146 4.89704 38.0572 4.86819 37.9998 4.85377C37.9425 4.83934 37.8851 4.83213 37.9425 4.94753C37.9209 5.03407 37.8707 5.07014 37.8134 5.12062C37.7273 5.09898 37.7058 5.12783 37.6986 5.17832C37.6986 5.22159 37.6986 5.27929 37.6986 5.31535C37.5121 5.27929 37.5193 5.4019 37.6054 5.53172C37.3471 5.49566 37.34 5.61827 37.5336 5.76251C37.5193 5.79857 37.4978 5.83463 37.4762 5.87791C37.4547 5.91397 37.4476 5.96445 37.4978 6.01494C37.4978 6.05821 37.5049 6.10149 37.5121 6.14476C37.5121 6.18803 37.5121 6.23131 37.4906 6.27458C37.5695 6.31785 37.6197 6.36113 37.6197 6.39719C37.6197 6.41882 37.6197 6.44046 37.5982 6.4621C37.5838 6.48373 37.5623 6.50537 37.5265 6.53422C37.7129 6.59913 37.6627 6.67846 37.5982 6.79386C37.5695 6.85156 37.6197 6.88762 37.6627 6.91647C37.7129 6.94532 37.756 6.97417 37.7129 7.04629C37.7273 7.08956 37.7631 7.12562 37.7918 7.16168C37.8205 7.19775 37.8564 7.23381 37.8707 7.27708C37.8707 7.30593 37.8707 7.33478 37.8707 7.37084C37.8707 7.39969 37.8851 7.42854 37.8994 7.45017C37.9281 7.49345 37.9783 7.5223 38.0716 7.48624C38.1218 7.50066 38.172 7.51508 38.215 7.53672C38.258 7.55836 38.2867 7.59442 38.3083 7.65933C38.4876 7.55114 38.5163 7.65933 38.5736 7.78915C38.6238 7.78915 38.6597 7.83963 38.7099 7.86127C38.753 7.89012 38.8032 7.91176 38.8677 7.86848C38.9179 7.89012 38.9681 7.8757 39.0183 7.86848C39.0685 7.85406 39.1188 7.85406 39.169 7.89733C39.2192 7.92618 39.2766 7.94782 39.3268 7.95503C39.377 7.95503 39.4343 7.93339 39.4702 7.86848C39.5061 7.80357 39.5563 7.79636 39.6065 7.80357C39.6567 7.81079 39.7141 7.818 39.7571 7.78194C39.836 7.84685 39.879 7.80357 39.9149 7.7603C39.9508 7.71703 39.9651 7.6449 40.0225 7.65212C40.0584 7.62327 40.1086 7.60884 40.1588 7.59442C40.209 7.57999 40.252 7.54393 40.252 7.47902C40.2807 7.43575 40.295 7.39248 40.3237 7.3492C40.3524 7.31314 40.3883 7.28429 40.4457 7.26987C40.3668 7.14726 40.4026 7.13284 40.4672 7.1112C40.5246 7.09677 40.6178 7.08956 40.6106 7.03186C40.6824 7.01744 40.7039 6.96695 40.7039 6.92368C40.7039 6.8732 40.7039 6.82271 40.7254 6.78665C40.7111 6.73616 40.7541 6.7001 40.79 6.66404C40.8258 6.62798 40.8473 6.57749 40.7971 6.52701C40.8043 6.50537 40.8043 6.48373 40.8043 6.4621C40.8043 6.44046 40.79 6.41882 40.79 6.39719C40.7756 6.35391 40.79 6.31064 40.833 6.26737C40.7613 6.22409 40.79 6.18082 40.8186 6.13755C40.8473 6.09427 40.876 6.04379 40.8186 6.00773C40.8186 5.96445 40.8043 5.92839 40.79 5.88512C40.7828 5.84185 40.7756 5.79857 40.7756 5.76251C40.8617 5.69039 40.8545 5.64711 40.8258 5.61105C40.7971 5.57499 40.7326 5.56057 40.7039 5.53172C40.6895 5.44517 40.5246 5.4596 40.6106 5.31535C40.5819 5.25044 40.6106 5.12062 40.4959 5.12062C40.46 5.1062 40.4959 5.02686 40.4959 4.96195C40.5031 4.90425 40.4815 4.86819 40.3596 4.94753C40.3166 4.94753 40.3309 4.87541 40.3237 4.82492C40.3237 4.77443 40.3022 4.73837 40.2162 4.79607C40.0655 4.89704 40.1229 4.70952 40.0727 4.66625C40.0225 4.62298 39.9723 4.59413 39.9292 4.55807C39.4917 4.25515 39.1331 4.19746 39.1403 4.06763C39.1403 4.03879 39.169 4.00994 39.2192 3.98109C39.2765 3.95224 39.3554 3.92339 39.4702 3.91618C39.6926 3.88733 40.0297 3.90175 40.4242 4.07485C40.4959 4.11091 40.6608 4.03157 40.6608 4.19746C40.6967 4.2263 40.7541 4.23352 40.8043 4.24794C40.8545 4.26237 40.8975 4.29843 40.9047 4.36334C41.1199 4.284 41.0769 4.48594 41.1414 4.57249C41.2203 4.64461 41.2346 4.77443 41.3638 4.82492C41.5216 4.86819 41.4427 5.05571 41.5574 5.12783C41.5072 5.2865 41.5718 5.38026 41.7224 5.47402C41.6865 5.55336 41.708 5.61105 41.7439 5.66875C41.7798 5.72645 41.83 5.78415 41.8371 5.85627C41.7582 5.9356 41.7582 6.00051 41.7798 6.06542C41.8013 6.13033 41.8587 6.19524 41.8945 6.26737C41.9304 6.33949 41.916 6.41161 41.9017 6.48373C41.9017 6.5198 41.8874 6.55586 41.8874 6.59192C41.8802 6.62798 41.8802 6.66404 41.8874 6.7001C41.8371 6.84435 41.873 7.00302 41.8013 7.14726C41.8156 7.23381 41.8156 7.32035 41.7941 7.39969C41.7654 7.47902 41.7152 7.54393 41.6363 7.58721C41.6148 7.7603 41.4857 7.8757 41.3853 8.00552C41.3638 8.09206 41.3064 8.15697 41.249 8.21467C41.1844 8.27237 41.1199 8.32285 41.0625 8.38055C41.0123 8.45267 40.9191 8.47431 40.833 8.49595C40.7469 8.5248 40.6824 8.56807 40.6608 8.69789C40.5246 8.81329 40.3453 8.84214 40.1946 8.94311C40.0225 8.98638 39.8504 9.00802 39.6854 9.09456C39.5778 9.00802 39.4917 9.00802 39.4057 9.02965C39.3196 9.05129 39.2335 9.10178 39.1474 9.14505C39.0542 9.16669 38.961 9.1739 38.8749 9.16669C38.7816 9.15226 38.6956 9.12341 38.6095 9.09456C38.5163 9.09456 38.4302 9.06571 38.3441 9.03687C38.258 9.00802 38.1792 8.97196 38.1003 8.93589C38.007 8.93589 37.9353 8.87098 37.8636 8.81329C37.7918 8.7628 37.7345 8.69789 37.634 8.69068C37.5336 8.69068 37.4834 8.61134 37.426 8.53922C37.3687 8.47431 37.3256 8.39498 37.2324 8.37334C37.1463 8.33728 37.0746 8.29401 37.0172 8.2291C36.9885 8.20025 36.9598 8.16419 36.9383 8.12812C36.924 8.09206 36.9096 8.04158 36.9024 7.9983C36.8522 7.93339 36.8379 7.83963 36.8235 7.7603C36.802 7.68097 36.7662 7.61606 36.6586 7.57999C36.6084 7.51508 36.508 7.47181 36.4577 7.4069C36.4075 7.34199 36.386 7.25544 36.4936 7.14005C36.4362 7.07514 36.4506 6.98859 36.4577 6.90926C36.4577 6.82992 36.4793 6.7578 36.4075 6.69289C36.4506 6.64962 36.4721 6.60634 36.4793 6.57749C36.4864 6.54143 36.4793 6.50537 36.4649 6.46931C36.4434 6.39719 36.386 6.33228 36.3932 6.26016C36.4147 6.18803 36.4434 6.12312 36.4577 6.051C36.4721 5.98609 36.4793 5.91397 36.4506 5.84185C36.4147 5.76251 36.4362 5.6976 36.4793 5.6399C36.5151 5.5822 36.5582 5.52451 36.5653 5.4596C36.5295 5.38026 36.594 5.32978 36.6442 5.2865C36.7016 5.24323 36.759 5.19996 36.7231 5.12062C36.7949 5.01965 36.8235 4.89704 36.9168 4.81771C36.8379 4.6951 36.8738 4.64461 36.9383 4.61577C37.0029 4.59413 37.0889 4.59413 37.1391 4.56528C37.1893 4.53643 37.1893 4.47152 37.2109 4.41382C37.2324 4.35612 37.2682 4.32006 37.3758 4.36334C37.3471 4.25515 37.3758 4.21188 37.4332 4.19746C37.4906 4.19024 37.5623 4.19746 37.6197 4.19746C37.7273 4.19746 37.7273 4.02436 37.8564 4.07485C37.8564 3.90175 38.0429 4.07485 38.0859 3.9883C38.1935 4.03879 38.2222 3.93781 38.3011 3.93781C38.3298 3.90897 38.3585 3.89454 38.3872 3.88733C38.423 3.88733 38.4517 3.88733 38.4876 3.90897C38.545 3.90897 38.6023 3.90175 38.6597 3.90175C38.7386 3.90175 38.8103 3.91618 38.8677 3.92339C38.9251 3.9306 38.9753 3.95224 39.0183 3.96666C39.0972 3.99551 39.1331 4.03157 39.1331 4.07485H39.1618Z" fill="#0061EF"/>
<path d="M28.6406 35.239C28.6406 35.1597 29.114 35.0876 29.9819 35.0227C30.1253 35.0155 30.2831 35.001 30.4481 34.9866C30.6131 34.965 30.7924 34.9433 30.9789 34.9578C31.1654 35.0587 31.359 34.7702 31.567 34.9289C31.775 34.9722 31.9902 34.9289 32.2125 34.9001C32.4349 34.864 32.6716 34.965 32.9155 34.8712C33.1593 34.6765 33.4104 35.0876 33.6757 34.8424C33.9411 34.7919 34.2065 34.8063 34.4862 34.8135C34.766 34.965 35.0529 34.8135 35.3469 34.7847C35.641 34.965 35.9423 34.8856 36.2579 34.763C36.5663 35.0083 36.889 34.9722 37.2118 34.7414C37.5346 34.7342 37.8717 34.8279 38.2088 34.7198C38.5459 34.7053 38.8973 34.6549 39.2488 34.6981C39.6003 34.5322 39.9589 34.5395 40.3247 34.6837C40.6905 34.5034 41.0634 34.5755 41.4364 34.6693C41.8166 34.7702 42.1967 34.5178 42.584 34.6549C42.9713 34.6693 43.3658 34.6116 43.7603 34.6404C44.1548 34.7125 44.5636 34.7919 44.9653 34.6332C45.3741 34.5899 45.783 34.5322 46.199 34.626C46.615 34.4385 47.0382 34.5178 47.4613 34.626C47.8845 34.5972 48.3149 34.727 48.7452 34.626C49.1756 34.6548 49.6131 34.5395 50.0506 34.626V35.8521C49.6131 35.7944 49.1756 35.7367 48.7452 35.8521C48.3149 35.9747 47.8845 35.8016 47.4613 35.8521C47.0382 35.6718 46.615 35.9098 46.199 35.8521C45.783 35.8665 45.3741 35.7511 44.9653 35.8521C44.5565 35.8881 44.1548 35.917 43.7603 35.8449C43.3587 36.1189 42.9713 35.7727 42.584 35.8304C42.1967 35.715 41.8166 35.8449 41.4364 35.816C41.0563 35.8665 40.6905 35.6934 40.3247 35.8016C39.9589 35.78 39.6003 35.8881 39.2488 35.7872C38.8973 35.9242 38.5531 35.6718 38.2088 35.7655C37.8717 35.7655 37.5346 35.7727 37.2118 35.7439C36.889 35.5347 36.5663 35.7078 36.2579 35.7223C35.9494 35.7006 35.6482 35.8449 35.3469 35.7006C35.0529 35.6862 34.766 35.5924 34.4862 35.679C34.2065 35.7078 33.934 35.3689 33.6757 35.6501C33.4175 35.7006 33.1593 35.4338 32.9155 35.6213C32.6716 35.7944 32.4349 35.5997 32.2125 35.5924C31.9902 35.5852 31.7678 35.5708 31.567 35.5636C29.7093 35.4698 28.6406 35.3616 28.6406 35.2463C28.6406 35.1164 29.9532 35.001 32.2125 34.9001C32.4349 34.8929 32.6716 34.7414 32.9155 34.8712C33.1593 34.8712 33.4104 34.7558 33.6757 34.8424C33.9411 34.6476 34.2065 34.8063 34.4862 34.8135C34.766 34.8063 35.0529 34.8712 35.3469 34.7919C35.641 34.6765 35.9423 34.8496 36.2579 34.7702C36.5663 34.8929 36.889 34.8568 37.2118 34.7486C37.5346 34.864 37.8717 34.727 38.2088 34.727C38.5459 34.9073 38.8973 34.7775 39.2488 34.7053C39.6003 34.6404 39.9589 34.7342 40.3247 34.6909C40.6905 34.727 41.0634 34.6404 41.4364 34.6765C41.8094 34.5899 42.1967 34.5611 42.584 34.6621C42.9713 34.6044 43.3658 34.6476 43.7603 34.6476C44.1548 34.5755 44.5636 34.6548 44.9653 34.6404C45.3741 34.6044 45.783 34.8352 46.199 34.6332C46.615 34.6044 47.0382 34.6621 47.4613 34.6332C47.8845 34.6621 48.3149 34.6837 48.7452 34.6332C49.1756 34.8279 49.6131 34.7053 50.0506 34.6332V35.8954C49.6131 35.9531 49.1756 35.9242 48.7452 35.8954C48.3149 35.917 47.8845 35.9026 47.4613 35.8954C47.0382 35.9531 46.615 35.8088 46.199 35.8954C45.783 35.9819 45.3741 35.8016 44.9653 35.8881C44.5565 35.9458 44.1548 35.9747 43.7603 35.8809C43.3587 35.8809 42.9713 35.7006 42.584 35.8665C42.1967 35.9026 41.8166 36.1261 41.4364 35.8521C41.0563 35.9242 40.6905 35.7223 40.3247 35.8377C39.9589 35.6357 39.6003 35.8304 39.2488 35.8232C38.8973 35.7872 38.5459 35.7151 38.2088 35.8088C37.8717 35.9026 37.5346 35.7583 37.2118 35.7872C36.889 35.9026 36.5663 35.6357 36.2579 35.7655C35.9494 35.7367 35.641 35.78 35.3469 35.7439C35.0529 36.018 34.766 35.7439 34.4862 35.715C34.2065 35.679 33.934 35.8954 33.6757 35.6862C33.4175 35.8954 33.1593 35.715 32.9155 35.6574C32.6716 35.5997 32.4349 35.7439 32.2125 35.6285C31.9902 35.7727 31.7678 35.5492 31.567 35.5997C31.359 35.5059 31.1654 35.5997 30.9789 35.5708C30.7924 35.5997 30.6131 35.5924 30.4481 35.5347C30.2831 35.5203 30.1253 35.5131 29.9819 35.4987C29.114 35.4338 28.6406 35.3544 28.6406 35.2823V35.239Z" fill="#0061EF"/>
<path d="M35.5547 42.7397C35.5547 42.6675 35.8775 42.5882 36.4584 42.5233C36.5588 42.5161 36.6593 42.5017 36.774 42.4872C36.8888 42.4656 37.0035 42.444 37.1326 42.4512C37.2617 42.5521 37.3909 42.2637 37.5343 42.4223C37.6778 42.4656 37.8212 42.4223 37.9718 42.3935C38.1225 42.3574 38.2802 42.4584 38.4524 42.3646C38.6174 42.1699 38.7895 42.581 38.9688 42.3358C39.1481 42.2853 39.3274 42.2997 39.5211 42.3069C39.7076 42.4584 39.9012 42.3069 40.1021 42.2781C40.3029 42.4584 40.5037 42.379 40.7189 42.2564C40.9269 42.5017 41.1421 42.4656 41.3644 42.2348C41.5868 42.2276 41.8091 42.3213 42.0387 42.2132C42.2682 42.1987 42.5049 42.1483 42.7416 42.1915C42.9783 42.0256 43.2221 42.0329 43.4732 42.1771C43.717 41.9968 43.9681 42.0689 44.2263 42.1627C44.4845 42.2637 44.7427 42.004 45.0009 42.1483C45.2663 42.1627 45.5317 42.105 45.7971 42.1338C46.0696 42.206 46.3422 42.2853 46.6147 42.1266C46.8873 42.0833 47.167 42.0256 47.4539 42.1194C47.7336 41.9319 48.0205 42.0112 48.3074 42.1194C48.5943 42.0906 48.8812 42.2204 49.1753 42.1194C49.4694 42.1483 49.7635 42.0329 50.0575 42.1194V43.3455C49.7635 43.2878 49.4694 43.2301 49.1753 43.3455C48.8812 43.4681 48.5943 43.295 48.3074 43.3455C48.0205 43.1652 47.7336 43.4032 47.4539 43.3455C47.1742 43.3599 46.8945 43.2445 46.6147 43.3455C46.3422 43.3743 46.0624 43.4104 45.7971 43.3383C45.5245 43.6123 45.2591 43.2662 45.0009 43.3311C44.7355 43.2157 44.4773 43.3455 44.2263 43.3166C43.9681 43.3671 43.717 43.194 43.4732 43.3022C43.2293 43.2806 42.9854 43.3888 42.7416 43.2878C42.5049 43.4248 42.2682 43.1724 42.0387 43.2662C41.8091 43.2662 41.5868 43.2734 41.3644 43.2445C41.1421 43.0281 40.9269 43.2085 40.7189 43.2229C40.5109 43.2012 40.3029 43.3455 40.1021 43.2012C39.9012 43.1868 39.7076 43.0931 39.5211 43.1796C39.3346 43.2085 39.1481 42.8695 38.9688 43.1508C38.7895 43.2012 38.6174 42.9344 38.4524 43.1219C38.2874 43.295 38.1296 43.1003 37.9718 43.0931C37.8212 43.0786 37.6706 43.0714 37.5343 43.0642C36.2791 42.9705 35.5547 42.8623 35.5547 42.7541C35.5547 42.6243 36.4441 42.5089 37.9718 42.4079C38.1225 42.4007 38.2802 42.2492 38.4524 42.379C38.6174 42.379 38.7895 42.2637 38.9688 42.3502C39.1481 42.1555 39.3274 42.3141 39.5211 42.3214C39.7076 42.3141 39.9012 42.379 40.1021 42.2997C40.3029 42.1843 40.5037 42.3574 40.7189 42.2781C40.9269 42.4007 41.1421 42.3646 41.3644 42.2564C41.5868 42.3718 41.8091 42.2276 42.0387 42.2348C42.2682 42.4151 42.5049 42.2925 42.7416 42.2132C42.9783 42.1483 43.2221 42.242 43.4732 42.1987C43.717 42.2348 43.9681 42.1483 44.2263 42.1843C44.4773 42.0978 44.7427 42.0689 45.0009 42.1699C45.2663 42.1122 45.5317 42.1555 45.7971 42.1555C46.0696 42.0833 46.3422 42.1627 46.6147 42.1483C46.8873 42.1122 47.167 42.343 47.4539 42.141C47.7336 42.1122 48.0205 42.1699 48.3074 42.141C48.5943 42.1699 48.8812 42.1915 49.1753 42.141C49.4694 42.3358 49.7635 42.2132 50.0575 42.141V43.4032C49.7635 43.4609 49.4694 43.432 49.1753 43.4032C48.8812 43.4248 48.5943 43.4104 48.3074 43.4032C48.0205 43.4609 47.7336 43.3166 47.4539 43.4032C47.1742 43.4897 46.8945 43.3166 46.6147 43.396C46.3422 43.4537 46.0624 43.4825 45.7971 43.3888C45.5245 43.3888 45.2591 43.2085 45.0009 43.3743C44.7355 43.4104 44.4773 43.634 44.2263 43.3599C43.9681 43.432 43.717 43.2301 43.4732 43.3455C43.2293 43.1435 42.9854 43.3383 42.7416 43.3311C42.5049 43.295 42.2682 43.2229 42.0387 43.3094C41.8091 43.4032 41.5868 43.2589 41.3644 43.2878C41.1421 43.4032 40.9269 43.1363 40.7189 43.2662C40.5109 43.2373 40.3029 43.2806 40.1021 43.2445C39.9012 43.5186 39.7076 43.2445 39.5211 43.2157C39.3346 43.1796 39.1481 43.396 38.9688 43.1868C38.7895 43.396 38.6174 43.2157 38.4524 43.158C38.2874 43.1003 38.1296 43.2445 37.9718 43.1291C37.8212 43.2734 37.6706 43.0498 37.5343 43.1003C37.398 43.0065 37.2617 43.1003 37.1326 43.0714C37.0035 43.1075 36.8888 43.0931 36.774 43.0426C36.6593 43.0281 36.5588 43.0209 36.4584 43.0065C35.8703 42.9416 35.5547 42.8623 35.5547 42.7901V42.7397Z" fill="#0061EF"/>
<path d="M28.6406 50.2404C28.6406 50.161 29.114 50.0889 29.9819 50.024C30.1253 50.0168 30.2831 50.0024 30.4481 49.9879C30.6131 49.9663 30.7924 49.9447 30.9789 49.9591C31.1654 50.0601 31.359 49.7716 31.567 49.9302C31.775 49.9735 31.9902 49.9302 32.2125 49.9014C32.4349 49.8653 32.6716 49.9663 32.9155 49.8726C33.1593 49.6778 33.4104 50.0889 33.6757 49.8437C33.9411 49.7932 34.2065 49.8076 34.4862 49.8149C34.766 49.9663 35.0529 49.8149 35.3469 49.786C35.641 49.9663 35.9423 49.887 36.2579 49.7644C36.5663 50.0096 36.889 49.9735 37.2118 49.7427C37.5346 49.7355 37.8717 49.8293 38.2088 49.7211C38.5459 49.7067 38.8973 49.6562 39.2488 49.6995C39.6003 49.5336 39.9589 49.5408 40.3247 49.685C40.6905 49.5047 41.0634 49.5768 41.4364 49.6706C41.8166 49.7716 42.1967 49.5119 42.584 49.6562C42.9713 49.6706 43.3658 49.6129 43.7603 49.6418C44.1548 49.7139 44.5636 49.7932 44.9653 49.6345C45.3741 49.5913 45.783 49.5336 46.199 49.6345C46.615 49.447 47.0382 49.5264 47.4613 49.6345C47.8845 49.6057 48.3149 49.7355 48.7452 49.6345C49.1756 49.6634 49.6131 49.548 50.0506 49.6345V50.8606C49.6131 50.8029 49.1756 50.7524 48.7452 50.8606C48.3149 50.9832 47.8845 50.8101 47.4613 50.8606C47.0382 50.6803 46.615 50.9183 46.199 50.8606C45.783 50.875 45.3741 50.7597 44.9653 50.8606C44.5565 50.8895 44.1548 50.9255 43.7603 50.8534C43.3587 51.1275 42.9713 50.7813 42.584 50.839C42.1967 50.7236 41.8166 50.8534 41.4364 50.8246C41.0563 50.8751 40.6905 50.702 40.3247 50.8101C39.9589 50.7885 39.6003 50.8967 39.2488 50.7957C38.8973 50.9327 38.5531 50.6803 38.2088 50.7741C37.8717 50.7741 37.5346 50.7813 37.2118 50.7524C36.889 50.5433 36.5663 50.7164 36.2579 50.7308C35.9494 50.7092 35.6482 50.8534 35.3469 50.7092C35.0529 50.6947 34.766 50.601 34.4862 50.6803C34.2065 50.7092 33.934 50.3702 33.6757 50.6515C33.4175 50.702 33.1593 50.4351 32.9155 50.6226C32.6716 50.7957 32.4349 50.601 32.2125 50.5938C31.9902 50.5866 31.7678 50.5721 31.567 50.5649C29.7093 50.4712 28.6406 50.363 28.6406 50.2548C28.6406 50.125 29.9532 50.0096 32.2125 49.9086C32.4349 49.9014 32.6716 49.7499 32.9155 49.8798C33.1593 49.8798 33.4104 49.7644 33.6757 49.8509C33.9411 49.6562 34.2065 49.8149 34.4862 49.8221C34.766 49.8149 35.0529 49.8726 35.3469 49.7932C35.641 49.6778 35.9423 49.8509 36.2579 49.7716C36.5663 49.8942 36.889 49.8581 37.2118 49.7499C37.5346 49.8726 37.8717 49.7211 38.2088 49.7283C38.5459 49.9086 38.8973 49.786 39.2488 49.7067C39.6003 49.6418 39.9589 49.7355 40.3247 49.6922C40.6905 49.7283 41.0634 49.649 41.4364 49.6778C41.8094 49.5913 42.1967 49.5624 42.584 49.6634C42.9713 49.6057 43.3658 49.649 43.7603 49.649C44.1548 49.5768 44.5636 49.6562 44.9653 49.6418C45.3741 49.6057 45.783 49.8365 46.199 49.6345C46.615 49.6057 47.0382 49.6634 47.4613 49.6345C47.8845 49.6634 48.3149 49.685 48.7452 49.6345C49.1756 49.8365 49.6131 49.7139 50.0506 49.6345V50.8967C49.6131 50.9544 49.1756 50.9255 48.7452 50.8967C48.3149 50.9183 47.8845 50.9039 47.4613 50.8967C47.0382 50.9544 46.615 50.8101 46.199 50.8967C45.783 50.9832 45.3741 50.8101 44.9653 50.8895C44.5565 50.9472 44.1548 50.976 43.7603 50.8823C43.3587 50.8823 42.9713 50.702 42.584 50.8751C42.1967 50.9111 41.8166 51.1347 41.4364 50.8606C41.0563 50.9255 40.6905 50.7308 40.3247 50.8462C39.9589 50.6443 39.6003 50.839 39.2488 50.8318C38.8973 50.7957 38.5459 50.7236 38.2088 50.8101C37.8717 50.9039 37.5346 50.7597 37.2118 50.7885C36.889 50.9039 36.5663 50.637 36.2579 50.7669C35.9494 50.738 35.641 50.7813 35.3469 50.7452C35.0529 51.0193 34.766 50.7452 34.4862 50.7164C34.2065 50.6803 33.934 50.8967 33.6757 50.6875C33.4175 50.8967 33.1593 50.7164 32.9155 50.6587C32.6716 50.601 32.4349 50.7452 32.2125 50.6298C31.9902 50.7741 31.7678 50.5505 31.567 50.601C31.359 50.5072 31.1654 50.601 30.9789 50.5721C30.7924 50.6082 30.6131 50.5938 30.4481 50.5433C30.2831 50.5289 30.1253 50.5216 29.9819 50.5072C29.114 50.4423 28.6406 50.3702 28.6406 50.2909V50.2404Z" fill="#0061EF"/>
<path d="M30.582 27.7455C30.582 27.6662 31.0124 27.594 31.8014 27.5291C31.9305 27.5219 32.0739 27.5075 32.2245 27.4931C32.3752 27.4714 32.533 27.4498 32.7051 27.4642C32.8772 27.5652 33.0566 27.2767 33.243 27.4354C33.4295 27.4786 33.6304 27.4354 33.8312 27.4065C34.0392 27.3705 34.2472 27.4714 34.4695 27.3777C34.6919 27.1829 34.9214 27.594 35.1581 27.3488C35.3948 27.2983 35.6387 27.3128 35.8969 27.32C36.1479 27.4714 36.4133 27.32 36.6787 27.2911C36.9441 27.4714 37.2238 27.3921 37.5035 27.2695C37.7833 27.5147 38.0773 27.4786 38.3714 27.2479C38.6655 27.2406 38.9667 27.3344 39.2751 27.2262C39.5836 27.2118 39.8991 27.1613 40.2219 27.2046C40.5447 27.0387 40.8674 27.0459 41.1974 27.1902C41.5273 27.0099 41.8644 27.082 42.2087 27.1757C42.553 27.2767 42.8973 27.0171 43.2487 27.1613C43.6002 27.1685 43.9588 27.118 44.3174 27.1469C44.6761 27.219 45.0419 27.2983 45.4148 27.1397C45.7878 27.0964 46.1608 27.0387 46.5409 27.1397C46.9211 26.9522 47.3012 27.0315 47.6885 27.1397C48.0758 27.1108 48.4631 27.2406 48.8576 27.1397C49.2521 27.1685 49.6466 27.0531 50.0411 27.1397V28.3658C49.6394 28.3081 49.245 28.2504 48.8576 28.3658C48.4631 28.4884 48.0758 28.3153 47.6885 28.3658C47.3012 28.1854 46.9211 28.4235 46.5409 28.3658C46.1608 28.3802 45.7878 28.2648 45.4148 28.3585C45.0419 28.3874 44.6761 28.4235 44.3174 28.3513C43.9588 28.6254 43.6002 28.2792 43.2487 28.3369C42.8973 28.2215 42.5458 28.3513 42.2087 28.3225C41.8644 28.373 41.5273 28.1999 41.1974 28.3081C40.8674 28.2864 40.5375 28.3946 40.2219 28.2936C39.8991 28.4307 39.5836 28.1782 39.2751 28.272C38.9667 28.272 38.6655 28.2792 38.3714 28.2504C38.0773 28.0412 37.7833 28.2143 37.5035 28.2287C37.2238 28.2071 36.9441 28.3513 36.6787 28.2071C36.4133 28.1927 36.1479 28.0989 35.8969 28.1782C35.6458 28.2071 35.3948 27.8681 35.1581 28.1494C34.9214 28.1999 34.6919 27.933 34.4695 28.1205C34.2472 28.2936 34.032 28.0989 33.8312 28.0917C33.6232 28.0845 33.4295 28.0701 33.243 28.0628C31.5503 27.9691 30.582 27.8609 30.582 27.7527C30.582 27.6229 31.7798 27.5075 33.8312 27.4065C34.0392 27.3993 34.2472 27.2479 34.4695 27.3777C34.6919 27.3777 34.9214 27.2623 35.1581 27.3488C35.3948 27.1541 35.6387 27.3128 35.8969 27.32C36.1479 27.3128 36.4133 27.3777 36.6787 27.2983C36.9441 27.1829 37.2238 27.356 37.5035 27.2767C37.7833 27.3993 38.0773 27.3633 38.3714 27.2551C38.6655 27.3705 38.9667 27.2262 39.2751 27.2334C39.5836 27.4137 39.8991 27.2839 40.2219 27.2118C40.5447 27.1469 40.8674 27.2406 41.1974 27.1974C41.5273 27.2334 41.8644 27.1541 42.2087 27.1829C42.553 27.0964 42.8973 27.0675 43.2487 27.1685C43.6002 27.1108 43.9588 27.1541 44.3174 27.1541C44.6761 27.082 45.0419 27.1613 45.4148 27.1469C45.7878 27.1108 46.1608 27.3416 46.5409 27.1397C46.9211 27.1108 47.3012 27.1757 47.6885 27.1397C48.0758 27.1685 48.4631 27.1902 48.8576 27.1397C49.2521 27.3344 49.6466 27.2118 50.0411 27.1397V28.4018C49.6394 28.4595 49.245 28.4307 48.8576 28.4018C48.4631 28.4235 48.0758 28.409 47.6885 28.4018C47.3012 28.4595 46.9211 28.3153 46.5409 28.4018C46.1608 28.4884 45.7878 28.3153 45.4148 28.4018C45.0419 28.4595 44.6761 28.4884 44.3174 28.3946C43.9588 28.3946 43.6002 28.2143 43.2487 28.3802C42.8973 28.4162 42.5458 28.6398 42.2087 28.3658C41.8644 28.4379 41.5273 28.2287 41.1974 28.3513C40.8674 28.1494 40.5375 28.3441 40.2219 28.3369C39.8991 28.3008 39.5836 28.2287 39.2751 28.3153C38.9667 28.409 38.6655 28.2648 38.3714 28.2936C38.0773 28.409 37.7833 28.1422 37.5035 28.272C37.2238 28.2431 36.9441 28.2864 36.6787 28.2504C36.4133 28.5244 36.1479 28.2504 35.8969 28.2287C35.6458 28.1927 35.3948 28.409 35.1581 28.1999C34.9214 28.409 34.6919 28.2287 34.4695 28.171C34.2472 28.1133 34.032 28.2576 33.8312 28.1422C33.6232 28.2864 33.4295 28.0628 33.243 28.1133C33.0566 28.0196 32.8772 28.1133 32.7051 28.0845C32.533 28.1133 32.3752 28.1061 32.2245 28.0484C32.0739 28.0412 31.9305 28.0268 31.8014 28.0196C31.0124 27.9547 30.582 27.8753 30.582 27.8032V27.7455Z" fill="#0061EF"/>
<path d="M36.7598 20.252C36.7598 20.1726 37.0538 20.1005 37.5918 20.0356C37.685 20.0284 37.7783 20.014 37.8787 19.9995C37.9791 19.9779 38.0939 19.9563 38.2086 19.9707C38.3234 20.0717 38.4453 19.7832 38.5744 19.9418C38.7035 19.9851 38.8398 19.9418 38.9761 19.913C39.1195 19.8769 39.263 19.9779 39.4136 19.8841C39.5642 19.6894 39.722 20.1005 39.887 19.8553C40.052 19.7976 40.2169 19.8192 40.3891 19.8264C40.5612 19.9779 40.7405 19.8264 40.927 19.8048C41.1135 19.9851 41.3 19.9058 41.4936 19.7832C41.6873 20.0284 41.881 19.9923 42.089 19.7615C42.2898 19.7543 42.4978 19.8481 42.7058 19.7399C42.9138 19.7255 43.129 19.675 43.3513 19.7183C43.5737 19.5524 43.796 19.5596 44.0184 19.7038C44.2479 19.5235 44.4774 19.5957 44.7069 19.6894C44.9436 19.7904 45.1803 19.5307 45.417 19.675C45.6537 19.6894 45.9047 19.6389 46.1486 19.6606C46.3925 19.7327 46.6435 19.812 46.9017 19.6534C47.1528 19.6101 47.411 19.5524 47.6692 19.6461C47.9274 19.4586 48.1856 19.538 48.451 19.6461C48.7164 19.6173 48.9818 19.7471 49.2471 19.6461C49.5125 19.675 49.7851 19.5596 50.0576 19.6461V20.8722C49.7851 20.8145 49.5125 20.7568 49.2471 20.8722C48.9818 20.9948 48.7164 20.8217 48.451 20.8722C48.1856 20.6919 47.9274 20.9299 47.6692 20.8722C47.411 20.8866 47.1528 20.7713 46.9017 20.865C46.6507 20.9011 46.3996 20.9299 46.1486 20.8578C45.9047 21.1319 45.6537 20.7857 45.417 20.8434C45.1731 20.728 44.9365 20.8578 44.7069 20.8289C44.4702 20.8794 44.2407 20.6991 44.0184 20.8145C43.796 20.7929 43.5665 20.9011 43.3513 20.8001C43.129 20.9371 42.921 20.6847 42.7058 20.7785C42.4978 20.7785 42.2898 20.7857 42.089 20.7568C41.8881 20.5477 41.6873 20.7208 41.4936 20.7352C41.3 20.7136 41.1135 20.8578 40.927 20.7136C40.7405 20.6991 40.5684 20.6054 40.3891 20.6847C40.2169 20.7136 40.0448 20.3746 39.887 20.6559C39.722 20.7063 39.5642 20.4395 39.4136 20.627C39.263 20.8001 39.1195 20.6054 38.9761 20.5982C38.8326 20.5909 38.7035 20.5765 38.5744 20.5693C37.4196 20.4755 36.7598 20.3674 36.7598 20.252C36.7598 20.1221 37.5774 20.0068 38.9761 19.9058C39.1195 19.8986 39.263 19.7471 39.4136 19.8769C39.5642 19.8769 39.722 19.7615 39.887 19.8481C40.052 19.6534 40.2169 19.812 40.3891 19.8192C40.5612 19.812 40.7405 19.8769 40.927 19.7976C41.1135 19.6822 41.3 19.8553 41.4936 19.776C41.6873 19.8986 41.881 19.8625 42.089 19.7543C42.2898 19.8697 42.4978 19.7255 42.7058 19.7327C42.9138 19.913 43.129 19.7832 43.3513 19.7111C43.5737 19.6461 43.796 19.7399 44.0184 19.6966C44.2479 19.7327 44.4774 19.6534 44.7069 19.6822C44.9436 19.5957 45.1803 19.5668 45.417 19.6678C45.6537 19.6101 45.9047 19.6534 46.1486 19.6534C46.3925 19.5812 46.6435 19.6606 46.9017 19.6461C47.1528 19.6101 47.411 19.8409 47.6692 19.6389C47.9274 19.6101 48.1856 19.6678 48.451 19.6389C48.7164 19.6606 48.9818 19.6894 49.2471 19.6389C49.5125 19.8409 49.7851 19.7183 50.0576 19.6389V20.9011C49.7851 20.9588 49.5197 20.9299 49.2471 20.9011C48.9818 20.9227 48.7164 20.9083 48.451 20.9011C48.1856 20.9588 47.9274 20.8145 47.6692 20.9011C47.411 20.9876 47.1528 20.8145 46.9017 20.9011C46.6507 20.9588 46.3996 20.9876 46.1486 20.8939C45.9047 20.8939 45.6537 20.7136 45.417 20.8794C45.1731 20.9155 44.9365 21.1463 44.7069 20.865C44.4702 20.9371 44.2407 20.7352 44.0184 20.8506C43.796 20.6486 43.5665 20.8434 43.3513 20.8362C43.129 20.8001 42.921 20.728 42.7058 20.8145C42.4978 20.9083 42.2898 20.764 42.089 20.7929C41.8881 20.9083 41.6873 20.6414 41.4936 20.7713C41.3 20.7424 41.1135 20.7857 40.927 20.7496C40.7405 21.0237 40.5684 20.7496 40.3891 20.7208C40.2169 20.6775 40.0448 20.9011 39.887 20.6919C39.722 20.9011 39.5642 20.7208 39.4136 20.6631C39.263 20.6054 39.1195 20.7496 38.9761 20.6342C38.8326 20.7785 38.7035 20.5549 38.5744 20.6054C38.4453 20.5116 38.3234 20.6054 38.2086 20.5765C38.0939 20.6126 37.9863 20.5982 37.8787 20.5477C37.7783 20.5332 37.6778 20.526 37.5918 20.5116C37.0538 20.4467 36.7598 20.3746 36.7598 20.2952V20.252Z" fill="#0061EF"/>
<path d="M27.5057 17.4032C27.5846 17.4032 27.6564 17.533 27.7209 17.7638C27.7353 17.7999 27.7424 17.8431 27.7568 17.8864C27.7783 17.9297 27.7998 17.9802 27.7926 18.0307C27.6922 18.0811 27.9791 18.1316 27.8213 18.1893C27.7783 18.247 27.8213 18.3047 27.85 18.3624C27.8859 18.4201 27.7855 18.485 27.8787 18.5499C28.0724 18.6149 27.6635 18.687 27.9074 18.7519C27.9576 18.824 27.9433 18.8961 27.9361 18.9683C27.7855 19.0404 27.9361 19.1197 27.9576 19.199C27.7783 19.2784 27.8572 19.3577 27.9791 19.4443C27.7353 19.5308 27.7711 19.6101 28.0007 19.7039C28.0078 19.7904 27.9146 19.877 28.0222 19.9708C28.0365 20.0573 28.0867 20.1511 28.0437 20.252C28.2087 20.3458 28.2015 20.4395 28.058 20.5405C28.2373 20.6343 28.1656 20.7353 28.0724 20.8362C27.972 20.9372 28.2302 21.0382 28.0867 21.1463C28.0724 21.2473 28.1298 21.3555 28.1011 21.4637C28.0293 21.5719 27.9504 21.6801 28.1082 21.7882C28.1513 21.8964 28.2087 22.0046 28.1082 22.12C28.2947 22.2354 28.2158 22.3436 28.1082 22.459C28.1369 22.5744 28.0078 22.6898 28.1082 22.8052C28.0795 22.9206 28.1943 23.036 28.1082 23.1586H26.8889C26.9463 23.0432 27.0037 22.9206 26.8889 22.8052C26.767 22.6898 26.9391 22.5744 26.8889 22.459C27.0682 22.3436 26.8315 22.2354 26.8889 22.12C26.8746 22.0118 26.9893 21.8964 26.8889 21.7882C26.8602 21.6801 26.8244 21.5719 26.8961 21.4637C26.6235 21.3555 26.9678 21.2545 26.9104 21.1463C27.0252 21.0454 26.8961 20.9372 26.9248 20.8362C26.8746 20.7353 27.0539 20.6343 26.9391 20.5405C26.9606 20.4395 26.853 20.3458 26.9535 20.252C26.8172 20.1583 27.0682 20.0645 26.975 19.9708C26.975 19.877 26.9678 19.7904 26.9965 19.7039C27.2045 19.6174 27.0324 19.5308 27.018 19.4443C27.0395 19.3577 26.8961 19.2784 27.0395 19.199C27.0539 19.1197 27.1471 19.0404 27.0682 18.9683C27.0395 18.8961 27.3766 18.824 27.0969 18.7519C27.0467 18.6798 27.3121 18.6149 27.1256 18.5499C26.9535 18.485 27.1471 18.4201 27.1543 18.3624C27.1615 18.3047 27.1758 18.247 27.183 18.1893C27.2762 17.6917 27.3838 17.4032 27.4914 17.4032C27.6205 17.4032 27.7353 17.7566 27.8357 18.3624C27.8429 18.4201 27.9935 18.485 27.8644 18.5499C27.8644 18.6149 27.9791 18.687 27.8931 18.7519C28.0867 18.824 27.9289 18.8961 27.9218 18.9683C27.9289 19.0404 27.8715 19.1197 27.9433 19.199C28.058 19.2784 27.8859 19.3577 27.9648 19.4443C27.8429 19.5308 27.8787 19.6101 27.9863 19.7039C27.8715 19.7904 28.015 19.877 28.0078 19.9708C27.8285 20.0573 27.9576 20.1511 28.0293 20.252C28.0939 20.3458 28.0006 20.4395 28.0437 20.5405C28.0078 20.6343 28.0867 20.7353 28.058 20.8362C28.1441 20.9372 28.1728 21.0382 28.0724 21.1463C28.1298 21.2473 28.0867 21.3555 28.0867 21.4637C28.1584 21.5719 28.0795 21.6801 28.0939 21.7882C28.1298 21.8964 27.9002 22.0046 28.1011 22.12C28.1298 22.2354 28.0724 22.3436 28.1011 22.459C28.0795 22.5744 28.0509 22.6898 28.1011 22.8052C27.9074 22.9206 28.0222 23.036 28.1011 23.1586H26.8459C26.7885 23.0432 26.8172 22.9206 26.8459 22.8052C26.8244 22.6898 26.8387 22.5744 26.8459 22.459C26.7885 22.3436 26.9319 22.2354 26.8459 22.12C26.7598 22.0118 26.9391 21.8964 26.853 21.7882C26.7957 21.6801 26.767 21.5719 26.8602 21.4637C26.8602 21.3555 27.0395 21.2545 26.8746 21.1463C26.8387 21.0454 26.6092 20.9372 26.8889 20.8362C26.8244 20.7353 27.0252 20.6343 26.9033 20.5405C27.1041 20.4395 26.9104 20.3458 26.9176 20.252C26.9535 20.1583 27.0252 20.0645 26.9391 19.9708C26.8459 19.877 26.9893 19.7904 26.9606 19.7039C26.8459 19.6174 27.1113 19.5308 26.9822 19.4443C27.0108 19.3577 26.9678 19.2784 27.0037 19.199C26.7311 19.1197 27.0037 19.0404 27.0324 18.9683C27.0682 18.8961 26.853 18.824 27.061 18.7519C26.853 18.6798 27.0324 18.6149 27.0897 18.5499C27.1471 18.485 27.0037 18.4201 27.1184 18.3624C26.975 18.3047 27.1973 18.247 27.1471 18.1893C27.2404 18.1316 27.1471 18.0811 27.1758 18.0307C27.1471 17.9802 27.1543 17.9369 27.2117 17.8864C27.226 17.8431 27.2332 17.7999 27.2475 17.7638C27.3121 17.533 27.3838 17.4032 27.4627 17.4032H27.5057Z" fill="#0061EF"/>
<path d="M30.3753 20.2664C30.3753 20.3457 30.2462 20.4179 30.0167 20.4828C29.9809 20.4972 29.9378 20.5044 29.8948 20.5188C29.8518 20.5405 29.8015 20.5621 29.7513 20.5477C29.7011 20.4467 29.6509 20.7352 29.5935 20.5765C29.5362 20.5333 29.4788 20.5765 29.4214 20.6054C29.364 20.6414 29.2995 20.5405 29.2349 20.6342C29.1704 20.829 29.0986 20.4179 29.0341 20.6631C28.9624 20.7136 28.8906 20.6991 28.8189 20.6919C28.7472 20.5405 28.6683 20.6919 28.5894 20.7136C28.5105 20.5333 28.4316 20.6126 28.3455 20.7352C28.2666 20.49 28.1806 20.526 28.0945 20.7568C28.0084 20.764 27.9223 20.6703 27.8291 20.7785C27.7359 20.7929 27.6498 20.8434 27.5494 20.8001C27.4561 20.966 27.3629 20.9588 27.2625 20.8145C27.1621 20.9948 27.0688 20.9227 26.9684 20.829C26.868 20.728 26.7676 20.9876 26.66 20.8434C26.5596 20.8362 26.452 20.8867 26.3444 20.8578C26.2368 20.7857 26.1292 20.7063 26.0216 20.865C25.914 20.9083 25.8064 20.966 25.6917 20.8722C25.5841 21.0597 25.4693 20.9804 25.3546 20.8722C25.2398 20.9011 25.1251 20.7713 25.0103 20.8722C24.8955 20.8434 24.7808 20.9588 24.666 20.8722V19.6461C24.7808 19.7038 24.8955 19.7615 25.0103 19.6461C25.1251 19.5235 25.2398 19.6966 25.3546 19.6461C25.4693 19.8265 25.5769 19.5885 25.6917 19.6461C25.7993 19.6317 25.914 19.7471 26.0216 19.6461C26.1292 19.6101 26.2368 19.5812 26.3444 19.6534C26.452 19.3793 26.5524 19.7255 26.66 19.6678C26.7604 19.7832 26.868 19.6534 26.9684 19.6822C27.0688 19.6317 27.1692 19.8048 27.2625 19.6966C27.3629 19.7183 27.4561 19.6101 27.5494 19.7111C27.6426 19.574 27.7359 19.8265 27.8291 19.7327C27.9223 19.7327 28.0084 19.7255 28.0945 19.7543C28.1806 19.9707 28.2666 19.7904 28.3455 19.776C28.4316 19.7976 28.5105 19.6534 28.5894 19.7976C28.6683 19.812 28.7472 19.9058 28.8189 19.8265C28.8906 19.7976 28.9624 20.1366 29.0341 19.8553C29.1058 19.8048 29.1704 20.0717 29.2349 19.8842C29.2995 19.7111 29.364 19.9058 29.4214 19.913C29.4788 19.9274 29.5362 19.9346 29.5935 19.9418C30.0884 20.0356 30.3753 20.1438 30.3753 20.2592C30.3753 20.3818 30.0239 20.5044 29.4214 20.6054C29.364 20.6126 29.2995 20.764 29.2349 20.6342C29.1704 20.6342 29.0986 20.7496 29.0341 20.6631C28.9624 20.8578 28.8906 20.6991 28.8189 20.6919C28.7472 20.6991 28.6683 20.6414 28.5894 20.7136C28.5105 20.829 28.4316 20.6559 28.3455 20.7352C28.2666 20.6126 28.1806 20.6486 28.0945 20.7568C28.0084 20.6414 27.9223 20.7857 27.8291 20.7785C27.7359 20.5982 27.6498 20.7208 27.5494 20.8001C27.4561 20.865 27.3629 20.7713 27.2625 20.8145C27.1621 20.7785 27.0688 20.8578 26.9684 20.829C26.868 20.9155 26.7676 20.9444 26.66 20.8434C26.5596 20.9011 26.452 20.8506 26.3444 20.8506C26.2368 20.9227 26.1292 20.8434 26.0216 20.8578C25.914 20.8939 25.8064 20.6631 25.6917 20.865C25.5841 20.8939 25.4693 20.8362 25.3546 20.865C25.2398 20.8362 25.1251 20.8145 25.0103 20.865C24.8955 20.6703 24.7808 20.7857 24.666 20.865V19.6029C24.7808 19.5452 24.8955 19.574 25.0103 19.6029C25.1251 19.5812 25.2398 19.5957 25.3546 19.6029C25.4693 19.5452 25.5769 19.6894 25.6917 19.6029C25.7993 19.5163 25.914 19.6966 26.0216 19.6029C26.1292 19.5452 26.2368 19.5163 26.3444 19.6101C26.452 19.6101 26.5524 19.7904 26.66 19.6245C26.7604 19.5884 26.868 19.3577 26.9684 19.6389C27.0688 19.574 27.1692 19.7688 27.2625 19.6534C27.3629 19.8553 27.4561 19.6606 27.5494 19.6678C27.6426 19.7038 27.7359 19.776 27.8291 19.6894C27.9223 19.5957 28.0084 19.7399 28.0945 19.7111C28.1806 19.5957 28.2666 19.8625 28.3455 19.7327C28.4316 19.7615 28.5105 19.7183 28.5894 19.7543C28.6683 19.4803 28.7472 19.7543 28.8189 19.7832C28.8906 19.8192 28.9624 19.6029 29.0341 19.812C29.1058 19.6029 29.1704 19.7832 29.2349 19.8409C29.2995 19.8986 29.364 19.7543 29.4214 19.8697C29.4788 19.7255 29.5362 19.9491 29.5935 19.8986C29.6509 19.9923 29.7011 19.8986 29.7513 19.9274C29.8015 19.8986 29.8446 19.9058 29.8948 19.9563C29.9378 19.9707 29.9809 19.9779 30.0167 19.9923C30.2462 20.0572 30.3753 20.1294 30.3753 20.2087V20.2664Z" fill="#0061EF"/>
<path d="M2.16712 28.95C2.16712 28.9932 1.93043 28.9932 1.5718 29.188C1.39966 29.2889 1.19165 29.4404 1.03386 29.6856C0.954961 29.801 0.883236 29.9453 0.8402 30.1039C0.825855 30.14 0.818683 30.1833 0.81151 30.2265C0.797165 30.2698 0.797165 30.3131 0.789993 30.3564C0.789993 30.3996 0.78282 30.4429 0.789993 30.4862C0.789993 30.5295 0.789993 30.5727 0.789993 30.6304C0.804338 30.9045 0.81151 31.2074 0.825855 31.5247C0.847373 31.8421 0.868891 32.1811 0.854546 32.5345C0.75413 32.8951 1.04103 33.2701 0.883236 33.6668C0.8402 34.0634 0.883236 34.4745 0.911926 34.9073C0.947788 35.34 0.847373 35.7872 0.940616 36.256C1.13427 36.7248 0.72544 37.208 0.969306 37.7128C1.01951 38.2177 1.00517 38.7298 0.997996 39.2707C0.847373 39.8044 0.997996 40.3525 1.02669 40.9223C0.847373 41.4848 0.926271 42.069 1.0482 42.6604C1.03386 42.6965 1.01951 42.7326 1.00517 42.7758C0.990824 42.8119 0.983651 42.8407 0.969306 42.8768C0.962133 42.9057 0.954961 42.9345 0.940616 42.9633C0.940616 42.9922 0.933443 43.021 0.933443 43.0571C0.933443 43.1797 0.954961 43.3023 1.01234 43.4105C1.1271 43.6341 1.3638 43.7855 1.60766 43.7928C1.7009 43.8432 1.80132 43.8937 1.90173 43.9226C1.93043 43.9298 1.95194 43.937 1.98063 43.9442C2.00932 43.9442 2.03801 43.9586 2.05953 43.9586H2.1456C2.1456 43.9586 2.17429 43.9731 2.19581 43.9731H2.25319C2.41098 43.9731 2.56878 43.9803 2.73375 43.9731C2.81265 43.9731 2.89154 43.9658 2.97761 43.9586L3.09955 43.9442C3.1641 43.9442 3.23583 43.9298 3.30038 43.9226C3.77377 43.9154 4.24715 43.9009 4.72054 43.8937C4.64164 44.2111 4.55557 44.5428 4.4695 44.8746C4.42647 45.0405 4.37626 45.2064 4.33322 45.3722L4.29736 45.4804L4.27584 45.5525L4.23281 45.6896C4.23281 45.7545 4.23281 45.8266 4.22563 45.8915V45.9925L4.21129 46.043V46.0718C4.22563 46.0935 4.23281 46.1079 4.23998 46.1223C4.24715 46.1439 4.23998 46.1584 4.1826 46.2377C4.1826 46.2593 4.17543 46.281 4.1826 46.3098C4.2615 46.2449 4.29019 46.2016 4.31171 46.18C4.32605 46.1656 4.32605 46.1584 4.3404 46.1512C4.42647 46.1223 4.51254 46.1007 4.59143 46.079C4.93572 45.9925 5.28717 45.942 5.6458 45.8915C6.36305 45.805 7.0014 45.365 7.75452 45.3073C8.47177 45.127 9.18185 44.8818 9.92062 44.7087C10.6737 44.5789 11.434 44.4563 12.1441 44.0957C12.3091 44.0452 12.4669 43.9875 12.6318 43.937L12.8757 43.8577L12.9976 43.8216L13.2056 43.7639H13.6216C13.7292 43.7639 13.844 43.7639 13.9516 43.7639C14.1739 43.7639 14.3963 43.7855 14.6186 43.8144C15.4148 43.6269 16.2109 43.7062 17.0214 43.8144C17.8319 43.7855 18.6496 43.9154 19.4673 43.8144C20.2921 43.8432 21.1169 43.7278 21.9561 43.8144C22.3721 43.8432 22.7881 43.8721 23.2041 43.8793C23.4122 43.8793 23.6202 43.8793 23.821 43.8721C23.8784 43.8721 23.9071 43.8649 23.9429 43.8577C23.9788 43.8577 24.0075 43.8432 24.0362 43.836C24.072 43.836 24.1007 43.8144 24.1294 43.8C24.1581 43.7855 24.1868 43.7711 24.2155 43.7495C24.4235 43.6052 24.61 43.4466 24.7391 43.2302C24.8036 43.122 24.8467 43.0066 24.861 42.8768V42.8263C24.861 42.8263 24.861 42.7758 24.8682 42.7542V42.6027C24.8682 42.5018 24.8682 42.4008 24.8682 42.2998C25.0475 41.4848 24.8108 40.6771 24.8682 39.8837C24.8538 39.0832 24.9686 38.297 24.8753 37.5181C24.8395 36.7392 24.8108 35.9675 24.8825 35.203C24.61 34.4385 24.9542 33.6884 24.8969 32.9456C25.0116 32.2027 24.8825 31.467 24.9112 30.7458V30.6088C24.9112 30.6088 24.904 30.5583 24.904 30.5439V30.5006C24.904 30.4429 24.8897 30.3852 24.8825 30.3275C24.8682 30.2121 24.8323 30.0967 24.7821 29.9957C24.7319 29.8876 24.653 29.7866 24.5598 29.7145C24.4665 29.6351 24.3518 29.5847 24.237 29.5702C24.1294 29.527 24.0146 29.5053 23.9071 29.5053H23.8568H23.7923H23.6632L23.405 29.5197C23.0607 29.5342 22.7236 29.5342 22.3865 29.4837C21.7123 29.6207 21.0524 29.3683 20.4069 29.462C19.7613 29.462 19.1302 29.4693 18.5061 29.4404C17.8893 29.224 17.2796 29.4043 16.6843 29.4188C16.089 29.3971 15.5152 29.5414 14.9557 29.3971C14.3963 29.3827 13.844 29.2889 13.3132 29.3683C12.7825 29.3971 12.266 29.0582 11.764 29.3394C11.2619 29.3899 10.7813 29.1231 10.3151 29.3106C9.8489 29.4837 9.4042 29.2889 8.97385 29.2817C8.5435 29.2673 8.13466 29.2601 7.74017 29.2529C4.19694 29.1591 2.16712 29.0509 2.16712 28.9428C2.16712 28.8779 2.79113 28.8202 3.96025 28.7625C5.1222 28.7048 6.82926 28.6471 8.98102 28.6038C9.41137 28.5966 9.86324 28.4451 10.3223 28.5749C10.7885 28.5749 11.2691 28.4595 11.7711 28.5461C12.2732 28.3514 12.7825 28.51 13.3204 28.5172C13.8512 28.51 14.3963 28.5677 14.9629 28.4956C15.5224 28.3802 16.1033 28.5533 16.6915 28.474C17.2868 28.5966 17.8893 28.5605 18.5133 28.4523C19.1302 28.5677 19.7685 28.4235 20.414 28.4307C21.0596 28.611 21.7194 28.4884 22.3937 28.4091C22.7308 28.373 23.0679 28.3802 23.4122 28.3946C23.5843 28.3946 23.7636 28.4018 23.9357 28.4091C24.1653 28.4091 24.402 28.4595 24.6243 28.5317C25.0618 28.712 25.4491 29.0077 25.7145 29.4116C25.8436 29.6135 25.9512 29.8371 26.0014 30.0751C26.0301 30.1977 26.0516 30.3203 26.0516 30.4429V30.5367C26.0516 30.5367 26.0516 30.5871 26.0516 30.6088V30.7458C26.1305 31.467 26.1664 32.2027 26.0588 32.9456C26.1162 33.6884 26.0732 34.4457 26.0732 35.203C26.1449 35.9675 26.066 36.7392 26.0803 37.5181C26.1162 38.297 25.8867 39.0904 26.0875 39.8837C26.1162 40.6843 26.0588 41.4848 26.0875 42.2998V42.6027L26.0732 42.7542V42.8335L26.066 42.9345C26.0445 43.2158 25.9727 43.4971 25.8508 43.7495C25.6069 44.2616 25.1838 44.6726 24.653 44.9034C24.5813 44.9179 24.5095 44.9323 24.4378 44.9395C24.3661 44.9467 24.2944 44.9539 24.2226 44.9611C24.1509 44.9611 24.0792 44.9611 24.0146 44.9611C23.9429 44.9611 23.8712 44.9611 23.8282 44.9539C23.6202 44.9395 23.4122 44.9395 23.2113 44.9467C22.7953 44.9611 22.3793 45.0116 21.9633 45.0477C21.1313 45.1054 20.2993 45.0765 19.4744 45.0477C18.6496 45.0693 17.8319 45.0549 17.0286 45.0477C16.2181 45.1054 15.422 44.9611 14.6258 45.0477C14.4035 45.0693 14.1811 45.0765 13.9588 45.0693C13.8512 45.0693 13.7364 45.0621 13.6288 45.0549H13.4639L13.4208 45.0405C13.4136 45.0405 13.385 45.0405 13.3921 45.0405H13.3778H13.3706H13.3419L13.2128 45.0765C13.1267 45.0982 13.0478 45.1198 12.9618 45.1342C12.7968 45.1775 12.6318 45.228 12.474 45.2929C11.7424 45.5525 11.0037 45.7833 10.2506 45.8843C9.51896 46.079 8.74433 46.1007 8.07728 46.4541C7.37437 46.6849 6.72885 47.0887 5.96139 47.0094C5.62428 47.132 5.27282 47.1969 4.92137 47.2618C4.8353 47.2763 4.74923 47.2979 4.66316 47.3123C4.51971 47.3484 4.36909 47.3844 4.22563 47.4205C3.93156 47.4998 3.63749 47.5864 3.31472 47.7018C3.09237 47.7162 2.8772 47.7451 2.65485 47.7955C2.80547 47.3267 2.89154 46.9229 2.98479 46.4901C3.03499 46.2666 3.07803 46.043 3.12824 45.8266L3.17127 45.6102C3.18562 45.5453 3.19996 45.4804 3.22148 45.4155L3.27169 45.2785L3.29321 45.2064V45.1919H3.30038C3.30038 45.1919 3.32907 45.1342 3.34341 45.1054C3.3721 45.0477 3.40079 44.9828 3.41514 44.9179C3.33624 44.9179 3.22148 44.9179 3.14975 44.9611C3.13541 44.9611 3.13541 44.9683 3.11389 44.9756H2.99196C2.91306 44.99 2.83416 44.99 2.74809 44.99C2.5903 44.99 2.42533 44.9828 2.26753 44.9683H2.21015L2.1456 44.9611L1.98781 44.9467C1.9376 44.9467 1.88739 44.9251 1.83718 44.9179C1.78697 44.9107 1.73677 44.8962 1.68656 44.8818C1.48573 44.8241 1.29924 44.7448 1.11993 44.6438C0.926271 44.5645 0.761303 44.4346 0.632197 44.276C0.495919 44.1245 0.395504 43.9442 0.323778 43.7567C0.252053 43.5692 0.209018 43.3744 0.180328 43.1869L0.15881 43.0427L0.144465 42.8984L0.13012 42.7758C0.13012 42.7398 0.115775 42.7037 0.108602 42.6604C0.137293 42.0618 0.0942573 41.4848 0.13012 40.9223C-0.142436 40.3597 0.13012 39.8044 0.151638 39.2707C0.1875 38.737 -0.0276757 38.2177 0.180328 37.7128C-0.0276757 37.208 0.151638 36.7248 0.209018 36.256C0.266398 35.7872 0.122947 35.34 0.237708 34.9073C0.0942573 34.4745 0.316606 34.0634 0.266398 33.6668C0.359641 33.2701 0.266398 32.8951 0.295088 32.5345C0.266398 32.1738 0.273571 31.8421 0.323778 31.5247C0.338123 31.2074 0.345296 30.9117 0.359641 30.6304C0.359641 30.5799 0.359641 30.5222 0.373986 30.4645C0.373986 30.4068 0.388331 30.3491 0.395504 30.2987C0.402676 30.241 0.417021 30.1905 0.431366 30.14C0.445711 30.0895 0.460056 30.039 0.481574 29.9885C0.553299 29.7938 0.660887 29.6279 0.775648 29.4981C1.00517 29.224 1.27055 29.0798 1.48573 29.0005C1.93042 28.8562 2.17429 28.9355 2.17429 28.9644L2.16712 28.95Z" fill="#0061EF"/>
<path d="M19.1857 32.895C19.1857 32.9743 19.0494 33.0464 18.7983 33.1113C18.7553 33.1186 18.7123 33.133 18.6621 33.1474C18.6119 33.169 18.5616 33.1907 18.5114 33.1763C18.4541 33.0753 18.4038 33.3638 18.3393 33.2051C18.2819 33.1618 18.2174 33.2051 18.1528 33.234C18.0883 33.27 18.0165 33.169 17.952 33.2628C17.8803 33.4575 17.8085 33.0464 17.7368 33.2917C17.6579 33.3421 17.5862 33.3277 17.5001 33.3205C17.4212 33.169 17.3351 33.3205 17.2491 33.3494C17.163 33.169 17.0769 33.2484 16.9909 33.371C16.8976 33.1258 16.8115 33.1618 16.7183 33.3926C16.6251 33.3998 16.5318 33.3061 16.4314 33.4143C16.331 33.4287 16.2306 33.4792 16.1302 33.4359C16.0297 33.6018 15.9222 33.5946 15.8217 33.4503C15.7141 33.6306 15.6137 33.5585 15.5061 33.4647C15.3986 33.3638 15.2838 33.6234 15.1762 33.4792C15.0614 33.472 14.9539 33.5224 14.8391 33.4936C14.7243 33.4215 14.6096 33.3421 14.4948 33.5008C14.3801 33.5441 14.2581 33.6018 14.1362 33.5008C14.0143 33.6883 13.8923 33.609 13.7704 33.5008C13.6485 33.5297 13.5265 33.3998 13.4046 33.5008C13.2827 33.472 13.1536 33.5801 13.0316 33.5008C12.9025 33.4431 12.7806 33.3854 12.6587 33.5008C12.5367 33.6234 12.4148 33.4503 12.2929 33.5008C12.1709 33.3205 12.049 33.5585 11.9271 33.5008C11.8051 33.5152 11.6904 33.3998 11.5684 33.5008C11.4537 33.5297 11.3317 33.5657 11.2241 33.4936C11.1094 33.7677 10.9946 33.4215 10.887 33.4792C10.7723 33.3638 10.6647 33.4936 10.5571 33.4647C10.4495 33.5152 10.3419 33.3421 10.2343 33.4503C10.1267 33.4287 10.0263 33.5369 9.92592 33.4359C9.8255 33.5729 9.72509 33.3205 9.62467 33.4143C9.52426 33.4143 9.43101 33.4215 9.33777 33.3926C9.24453 33.1763 9.15128 33.3566 9.06521 33.371C8.97914 33.3494 8.8859 33.4936 8.807 33.3494C8.72093 33.3349 8.64203 33.2412 8.56314 33.3205C8.48424 33.3494 8.40534 33.0104 8.32644 33.2917C8.24755 33.3421 8.17582 33.0753 8.11127 33.2628C8.03954 33.4359 7.97499 33.2412 7.91044 33.234C7.84588 33.2195 7.78133 33.2123 7.72395 33.2051C7.19318 33.1113 6.88477 33.0032 6.88477 32.895C6.88477 32.7652 7.26491 32.6498 7.91044 32.5488C7.97499 32.5416 8.04672 32.3901 8.11127 32.5199C8.18299 32.5199 8.25472 32.4045 8.32644 32.4911C8.39817 32.2964 8.47707 32.455 8.56314 32.4622C8.64203 32.455 8.72811 32.5127 8.807 32.4406C8.89307 32.3252 8.97914 32.4983 9.06521 32.419C9.15128 32.5416 9.24453 32.5055 9.33777 32.3973C9.43101 32.5127 9.52426 32.3685 9.62467 32.3757C9.72509 32.556 9.8255 32.4334 9.92592 32.3541C10.0263 32.2892 10.1339 32.3829 10.2343 32.3396C10.3419 32.3757 10.4495 32.2964 10.5571 32.3252C10.6647 32.2387 10.7723 32.2098 10.887 32.3108C11.0018 32.2531 11.1094 32.2964 11.2241 32.2964C11.3389 32.2242 11.4537 32.3036 11.5684 32.2892C11.6832 32.2531 11.8051 32.4839 11.9271 32.2819C12.049 32.2531 12.1637 32.3108 12.2929 32.2819C12.4148 32.3108 12.5367 32.3324 12.6587 32.2819C12.7806 32.4767 12.9097 32.3541 13.0316 32.2819C13.1607 32.2242 13.2827 32.2531 13.4046 32.2819C13.5265 32.2603 13.6485 32.2747 13.7704 32.2819C13.8923 32.2242 14.0143 32.3685 14.1362 32.2819C14.2581 32.1954 14.3729 32.3757 14.4948 32.2892C14.6096 32.2315 14.7243 32.2026 14.8391 32.2964C14.9539 32.2964 15.0686 32.4767 15.1762 32.3108C15.291 32.2747 15.3986 32.0439 15.5061 32.3252C15.6137 32.2531 15.7213 32.455 15.8217 32.3396C15.9293 32.5416 16.0297 32.3469 16.1302 32.3541C16.2306 32.3901 16.331 32.4622 16.4314 32.3757C16.5318 32.2819 16.6251 32.4262 16.7183 32.3973C16.8115 32.2819 16.9048 32.5488 16.9909 32.419C17.0769 32.4478 17.1702 32.4045 17.2491 32.4406C17.3351 32.1665 17.414 32.4406 17.5001 32.4622C17.579 32.4983 17.6579 32.2819 17.7368 32.4911C17.8085 32.2819 17.8874 32.4622 17.952 32.5199C18.0237 32.5776 18.0883 32.4334 18.1528 32.5488C18.2174 32.4046 18.2819 32.6281 18.3393 32.5776C18.3967 32.6714 18.4541 32.5776 18.5114 32.6065C18.5616 32.5776 18.6119 32.5849 18.6621 32.6353C18.7123 32.6426 18.7553 32.657 18.7983 32.6714C19.0494 32.7363 19.1857 32.8084 19.1857 32.8878V32.895Z" fill="#0061EF"/>
<path d="M17.6216 36.3209C17.6216 36.4002 17.5212 36.4723 17.3347 36.5373C17.306 36.5517 17.2701 36.5589 17.2343 36.5733C17.1984 36.595 17.1626 36.6166 17.1195 36.6022C17.0765 36.5012 17.0406 36.7897 16.9904 36.631C16.9474 36.5877 16.8972 36.631 16.8541 36.6599C16.8039 36.6959 16.7537 36.595 16.7035 36.6887C16.6533 36.8834 16.5959 36.4723 16.5386 36.7176C16.4812 36.768 16.4238 36.7536 16.3664 36.7464C16.309 36.595 16.2445 36.7464 16.1799 36.768C16.1154 36.5877 16.0508 36.6671 15.9863 36.7897C15.9217 36.5445 15.85 36.5805 15.7783 36.8113C15.7065 36.8185 15.6348 36.7248 15.5631 36.833C15.4914 36.8474 15.4196 36.8979 15.3407 36.8546C15.2618 37.0205 15.1901 37.0133 15.1112 36.869C15.0323 37.0493 14.9534 36.9772 14.8745 36.8834C14.7956 36.7825 14.7096 37.0421 14.6307 36.8979C14.5446 36.8834 14.4657 36.9411 14.3796 36.9123C14.2935 36.8402 14.2075 36.7608 14.1214 36.9195C14.0353 36.9628 13.9421 37.0205 13.856 36.9195C13.77 37.107 13.6767 37.0277 13.5835 36.9195C13.4902 36.9484 13.4042 36.8185 13.3109 36.9195C13.2177 36.8907 13.1244 37.006 13.0312 36.9195C12.9379 36.8618 12.8447 36.8041 12.7515 36.9195C12.6582 37.0421 12.565 36.869 12.4717 36.9195C12.3785 36.7392 12.2924 36.9772 12.1992 36.9195C12.1131 36.9339 12.0199 36.8185 11.9338 36.9195C11.8477 36.9556 11.7616 36.9844 11.6756 36.9123C11.5895 37.1864 11.5034 36.8402 11.4245 36.8979C11.3385 36.7825 11.2596 36.9123 11.1807 36.8834C11.1018 36.9339 11.0229 36.7608 10.944 36.869C10.8651 36.8474 10.7862 36.9556 10.7145 36.8546C10.6356 36.9916 10.5638 36.7392 10.4921 36.833C10.4204 36.833 10.3487 36.8402 10.2769 36.8113C10.2052 36.6022 10.1407 36.7753 10.0689 36.7897C10.0044 36.768 9.93983 36.9123 9.87527 36.768C9.81072 36.7536 9.75334 36.6599 9.68879 36.7464C9.63141 36.7753 9.56685 36.4363 9.51665 36.7176C9.45927 36.768 9.40906 36.5012 9.35168 36.6887C9.30147 36.8618 9.25126 36.6671 9.20105 36.6599C9.15085 36.6527 9.10781 36.6382 9.06478 36.631C8.66311 36.5373 8.43359 36.4291 8.43359 36.3137C8.43359 36.1839 8.71332 36.0685 9.20105 35.9675C9.25126 35.9603 9.30147 35.8088 9.35168 35.9386C9.40188 35.9386 9.45927 35.8232 9.51665 35.9098C9.57403 35.7151 9.63141 35.8737 9.68879 35.8809C9.74617 35.8737 9.81072 35.9386 9.87527 35.8593C9.93983 35.7439 10.0044 35.917 10.0689 35.8377C10.1335 35.9603 10.2052 35.9242 10.2769 35.816C10.3487 35.9314 10.4204 35.7872 10.4921 35.7944C10.5638 35.9747 10.6356 35.8449 10.7145 35.7728C10.7934 35.7078 10.8651 35.8016 10.944 35.7583C11.0229 35.7944 11.1018 35.7078 11.1807 35.7439C11.2596 35.6574 11.3456 35.6285 11.4245 35.7295C11.5106 35.6718 11.5895 35.7151 11.6756 35.7151C11.7616 35.6429 11.8477 35.7223 11.9338 35.7078C12.0199 35.6718 12.1131 35.9026 12.1992 35.7006C12.2924 35.6718 12.3785 35.7295 12.4717 35.7006C12.565 35.7295 12.6582 35.7511 12.7515 35.7006C12.8447 35.8954 12.9379 35.7728 13.0312 35.7006C13.1244 35.6429 13.2177 35.6718 13.3109 35.7006C13.4042 35.679 13.4974 35.6934 13.5835 35.7006C13.6767 35.6429 13.7628 35.7872 13.856 35.7006C13.9421 35.6141 14.0353 35.7872 14.1214 35.7078C14.2075 35.6501 14.2935 35.6213 14.3796 35.7151C14.4657 35.7151 14.5518 35.8954 14.6307 35.7295C14.7167 35.6934 14.7956 35.4698 14.8745 35.7439C14.9534 35.6718 15.0323 35.8809 15.1112 35.7583C15.1901 35.9603 15.269 35.7655 15.3407 35.7728C15.4125 35.8088 15.4914 35.8809 15.5631 35.7944C15.6348 35.7006 15.7065 35.8449 15.7783 35.816C15.85 35.7006 15.9145 35.9675 15.9863 35.8377C16.0508 35.8665 16.1154 35.8232 16.1799 35.8593C16.2445 35.5852 16.3019 35.8593 16.3664 35.8809C16.4238 35.9242 16.4812 35.7006 16.5386 35.9098C16.5959 35.7006 16.6461 35.8809 16.7035 35.9386C16.7537 35.9963 16.8039 35.8521 16.8541 35.9675C16.9044 35.8232 16.9474 36.0468 16.9904 35.9963C17.0335 36.0901 17.0765 35.9963 17.1195 36.0252C17.1626 35.9963 17.1984 36.0036 17.2343 36.0612C17.2701 36.0685 17.306 36.0829 17.3347 36.0901C17.5212 36.155 17.6216 36.2343 17.6216 36.3065V36.3209Z" fill="#0061EF"/>
<path d="M19.1857 39.7465C19.1857 39.8259 19.0494 39.898 18.7983 39.9629C18.7553 39.9773 18.7123 39.9845 18.6621 39.999C18.6119 40.0206 18.5616 40.0422 18.5114 40.0278C18.4541 39.9269 18.4038 40.2153 18.3393 40.0567C18.2819 40.0134 18.2174 40.0567 18.1528 40.0855C18.0883 40.1216 18.0165 40.0206 17.952 40.1144C17.8803 40.3091 17.8085 39.898 17.7368 40.1432C17.6579 40.1937 17.5862 40.1793 17.5001 40.1721C17.4212 40.0206 17.3351 40.1721 17.2491 40.1937C17.163 40.0134 17.0769 40.0927 16.9909 40.2153C16.8976 39.9701 16.8115 40.0062 16.7183 40.237C16.6251 40.2442 16.5318 40.1504 16.4314 40.2586C16.331 40.273 16.2306 40.3235 16.1302 40.2802C16.0297 40.4461 15.9222 40.4389 15.8217 40.2947C15.7141 40.475 15.6137 40.4029 15.5061 40.3091C15.3986 40.2081 15.2838 40.4678 15.1762 40.3235C15.0614 40.3163 14.9539 40.3668 14.8391 40.3379C14.7243 40.2658 14.6096 40.1865 14.4948 40.3452C14.3801 40.3884 14.2581 40.4461 14.1362 40.3524C14.0143 40.5399 13.8923 40.4606 13.7704 40.3524C13.6485 40.3812 13.5265 40.2514 13.4046 40.3524C13.2827 40.3235 13.1536 40.4389 13.0316 40.3524C12.9025 40.2947 12.7806 40.237 12.6587 40.3524C12.5367 40.475 12.4148 40.3019 12.2929 40.3524C12.1709 40.1721 12.049 40.4101 11.9271 40.3524C11.8051 40.3668 11.6904 40.2514 11.5684 40.3452C11.4537 40.374 11.3317 40.4101 11.2241 40.3379C11.1094 40.612 10.9946 40.2658 10.887 40.3235C10.7723 40.2081 10.6647 40.3379 10.5571 40.3091C10.4495 40.3596 10.3419 40.1865 10.2343 40.2947C10.1267 40.273 10.0263 40.3812 9.92592 40.2802C9.8255 40.4173 9.72509 40.1649 9.62467 40.2586C9.52426 40.2586 9.43101 40.2658 9.33777 40.237C9.24453 40.0278 9.15128 40.2009 9.06521 40.2153C8.97914 40.1937 8.8859 40.3379 8.807 40.1937C8.72093 40.1793 8.64203 40.0855 8.56314 40.1721C8.48424 40.2009 8.40534 39.8619 8.32644 40.1432C8.24755 40.1937 8.17582 39.9268 8.11127 40.1144C8.03954 40.2875 7.97499 40.0927 7.91044 40.0855C7.84588 40.0783 7.78133 40.0639 7.72395 40.0567C7.19318 39.9629 6.88477 39.8547 6.88477 39.7465C6.88477 39.6167 7.26491 39.5013 7.91044 39.4004C7.97499 39.3931 8.04672 39.2417 8.11127 39.3715C8.18299 39.3715 8.25472 39.2561 8.32644 39.3427C8.39817 39.1479 8.47707 39.3066 8.56314 39.3138C8.64203 39.3066 8.72811 39.3643 8.807 39.2922C8.89307 39.1768 8.97914 39.3499 9.06521 39.2705C9.15128 39.3931 9.24453 39.3571 9.33777 39.2489C9.43101 39.3643 9.52426 39.2273 9.62467 39.2273C9.72509 39.4076 9.8255 39.285 9.92592 39.2056C10.0263 39.1407 10.1339 39.2345 10.2343 39.1912C10.3419 39.2273 10.4495 39.1479 10.5571 39.1768C10.6647 39.0902 10.7723 39.0614 10.887 39.1624C11.0018 39.1047 11.1094 39.1479 11.2241 39.1479C11.3389 39.0758 11.4537 39.1551 11.5684 39.1407C11.6832 39.1047 11.8051 39.3354 11.9271 39.1407C12.049 39.1119 12.1637 39.1696 12.2929 39.1407C12.4148 39.1624 12.5367 39.1912 12.6587 39.1407C12.7806 39.3427 12.9097 39.2201 13.0316 39.1407C13.1607 39.083 13.2827 39.1119 13.4046 39.1407C13.5265 39.1191 13.6485 39.1335 13.7704 39.1407C13.8923 39.083 14.0143 39.2273 14.1362 39.1407C14.2581 39.0542 14.3729 39.2345 14.4948 39.1407C14.6096 39.083 14.7243 39.0542 14.8391 39.1479C14.9539 39.1479 15.0686 39.3282 15.1762 39.1624C15.291 39.1263 15.3986 38.8955 15.5061 39.1768C15.6137 39.1047 15.7213 39.3066 15.8217 39.1912C15.9293 39.3931 16.0297 39.1984 16.1302 39.2056C16.2306 39.2417 16.331 39.3138 16.4314 39.2273C16.5318 39.1335 16.6251 39.2777 16.7183 39.2489C16.8115 39.1335 16.9048 39.4004 16.9909 39.2705C17.0769 39.2994 17.1702 39.2561 17.2491 39.2922C17.3351 39.0181 17.414 39.2922 17.5001 39.3138C17.579 39.3499 17.6579 39.1335 17.7368 39.3427C17.8085 39.1335 17.8874 39.3138 17.952 39.3715C18.0237 39.4292 18.0883 39.285 18.1528 39.4004C18.2174 39.2561 18.2819 39.4797 18.3393 39.4292C18.3967 39.523 18.4541 39.4292 18.5114 39.4581C18.5616 39.422 18.6119 39.4364 18.6621 39.4869C18.7123 39.5013 18.7553 39.5085 18.7983 39.523C19.0494 39.5879 19.1857 39.66 19.1857 39.7393V39.7465Z" fill="#0061EF"/>
</g>
<defs>
<clipPath id="clip0_3484_38830">
<rect width="61.2319" height="61.2319" fill="white"/>
</clipPath>
</defs>
</svg>
