<svg width="48" height="65" viewBox="0 0 48 65" fill="none" xmlns="http://www.w3.org/2000/svg">
<path d="M47.4331 21.7063C47.4331 33.6943 27.0455 61.6916 25.9128 60.5491C25.0409 62.0724 4.39258 33.6943 4.39258 21.7063C4.39258 9.71824 14.0275 0 25.9128 0C37.7982 0 47.4331 9.71824 47.4331 21.7063Z" fill="#F5FFEA"/>
<g clip-path="url(#clip0_3483_38825)">
<path d="M18.9096 7.97967C18.9096 8.02018 18.5418 8.05394 17.8331 8.12146C17.131 8.20248 16.0947 8.33077 14.7909 8.66162C14.3563 8.76289 13.8949 8.91144 13.4068 9.07348C13.1661 9.16126 12.9187 9.25579 12.6647 9.35707C12.4106 9.4651 12.1565 9.57313 11.8824 9.67441C11.6016 9.74868 11.3475 9.91748 11.0867 10.0728C10.8327 10.2416 10.5719 10.4104 10.2576 10.4981C9.97014 10.6399 9.68932 10.802 9.4085 10.9843C9.26809 11.0788 9.13436 11.1801 8.99395 11.2746C8.92709 11.3219 8.85354 11.3759 8.78668 11.4232C8.71982 11.4772 8.65296 11.5312 8.57941 11.5852C8.44568 11.6932 8.29859 11.7945 8.15149 11.8958C8.0044 11.9971 7.86399 12.1119 7.71689 12.2199C7.57648 12.3347 7.4227 12.436 7.28897 12.5642C7.14856 12.6925 7.01484 12.8208 6.8878 12.9626C6.77414 13.1179 6.6471 13.2597 6.50669 13.388C6.36628 13.5163 6.20581 13.6311 6.05203 13.7593C5.75115 14.0092 5.44359 14.2725 5.26975 14.6574C5.01567 14.9747 4.78165 15.3055 4.52089 15.6364C4.39386 15.8052 4.28019 15.974 4.15315 16.1495C4.09298 16.2373 4.02612 16.3183 3.96594 16.4061C3.90576 16.4939 3.85227 16.5884 3.7921 16.6762C3.20371 17.3244 2.89615 18.1819 2.54178 19.0191C2.47492 19.1137 2.41474 19.2149 2.35457 19.3095C2.29439 19.4107 2.2409 19.512 2.1941 19.6133C2.09381 19.8226 2.00689 20.0387 1.92665 20.2615C1.78624 20.7139 1.67258 21.173 1.60572 21.6524C1.131 22.5099 0.957156 23.5227 1.06413 24.5422L1.04408 24.7313L1.0307 24.9203C1.01733 25.0486 1.00396 25.1702 0.997273 25.2985C0.983901 25.4267 0.970528 25.5483 0.963842 25.6766C0.963842 25.8048 0.95047 25.9331 0.943783 26.0614C0.937097 26.318 0.917039 26.5813 0.943783 26.8176C0.943783 26.9392 0.970528 27.0607 0.983901 27.189C1.00396 27.3105 1.0307 27.4388 1.06413 27.5604C1.24466 28.5596 1.61909 29.5657 1.97346 30.5987C2.2409 31.0781 2.48829 31.571 2.71562 32.0842C2.94295 32.5906 3.15023 33.1172 3.34412 33.6574C3.99268 34.6094 4.47409 35.6627 4.96887 36.7363C5.46365 37.8166 6.26599 38.7349 6.76745 39.8557C7.37589 40.909 8.06457 41.942 8.69976 43.0156C9.30152 44.1162 9.91665 45.2302 10.7324 46.2228C11.4545 47.2828 12.21 48.3361 12.8452 49.484C13.7077 50.4833 14.363 51.6379 15.0182 52.8127C15.7737 53.92 16.4022 55.1151 17.218 56.2157C17.5723 56.7964 17.9534 57.3703 18.3279 57.9442L18.602 58.3831L18.7424 58.6059L18.836 58.7612C18.836 58.7612 18.8628 58.8287 18.8895 58.9097C18.8895 58.9097 18.9497 58.8557 18.9965 58.8017C18.9965 58.8152 19.0567 58.7072 19.1035 58.6396L19.2439 58.4236L19.518 57.9847C19.8858 57.404 20.2401 56.8166 20.5611 56.2089C21.2029 54.9936 22.0721 53.9538 22.7608 52.8059C23.63 51.7796 24.1716 50.544 24.9338 49.4772C25.6359 48.3699 26.4315 47.3436 27.0467 46.216C27.7153 45.1222 28.3638 44.0284 29.0793 43.0088C29.5272 41.8138 30.4366 40.9225 31.0116 39.8489C31.727 38.8564 32.2151 37.7491 32.8101 36.7295C33.3384 35.6695 34.027 34.7242 34.4349 33.6506C34.6957 33.1442 34.9163 32.6243 35.1369 32.1112C35.3576 31.598 35.5715 31.0849 35.8122 30.592C35.9527 30.0586 36.1532 29.5657 36.3338 29.066C36.5143 28.5664 36.6748 28.0668 36.7149 27.5536C36.7349 27.4253 36.7483 27.3038 36.7684 27.1822C36.7751 27.0607 36.7951 26.9324 36.7951 26.8176C36.8085 26.5813 36.7951 26.318 36.7951 26.0614C36.7951 25.9331 36.7951 25.8048 36.7884 25.6766C36.7884 25.5483 36.7751 25.42 36.7617 25.2985C36.755 25.1702 36.7483 25.0486 36.7416 24.9203V24.7313L36.7149 24.5422C36.7349 24.2857 36.7283 24.0358 36.7082 23.786C36.6748 23.5362 36.628 23.2931 36.5812 23.0568C36.5611 22.9353 36.5277 22.8205 36.4876 22.6989C36.4541 22.5842 36.4207 22.4626 36.3873 22.3478C36.3538 22.2331 36.3204 22.1115 36.287 21.9967C36.2468 21.882 36.2134 21.7672 36.18 21.6524C36.0663 21.1865 35.8858 20.7476 35.7186 20.3088C35.625 20.0927 35.5381 19.8834 35.4646 19.6606C35.4244 19.5525 35.3843 19.4445 35.3442 19.3365C35.3041 19.2284 35.2707 19.1204 35.2372 19.0056C34.8762 18.1751 34.5285 17.3446 33.9869 16.6627C33.9267 16.5749 33.8733 16.4804 33.8198 16.3859C33.7663 16.2981 33.7061 16.2036 33.6593 16.109C33.5523 15.9267 33.4587 15.7309 33.3517 15.5554C33.1311 15.1975 32.8904 14.8599 32.516 14.6439C32.2418 14.3468 32.0011 14.0294 31.7537 13.7188C31.6334 13.5635 31.493 13.4217 31.3592 13.2935C31.2188 13.1652 31.0717 13.0369 30.8979 12.9491C30.7307 12.8546 30.577 12.7466 30.4366 12.6318C30.2961 12.5102 30.1557 12.4022 30.022 12.2739C29.8883 12.1524 29.7612 12.0241 29.6275 11.9026C29.4938 11.7878 29.3601 11.673 29.2197 11.5717C29.1528 11.5177 29.0793 11.4704 29.0124 11.4164C28.9388 11.3692 28.872 11.3219 28.7984 11.2746C28.658 11.1801 28.5176 11.0856 28.3772 10.991C28.0964 10.8087 27.8156 10.6467 27.5414 10.4846C26.2911 9.77569 25.0943 9.28955 24.0312 8.95195C23.8975 8.91144 23.7637 8.87093 23.6367 8.83041C23.5698 8.81016 23.5097 8.7899 23.4428 8.76965C23.3759 8.75614 23.3158 8.73589 23.2556 8.72238C23.0082 8.66162 22.7675 8.5941 22.5335 8.54008C22.0654 8.44555 21.6442 8.35103 21.2631 8.29701C21.0692 8.27 20.8887 8.23624 20.7215 8.20923C20.5544 8.18898 20.3939 8.16872 20.2468 8.15522C20.0997 8.13496 19.966 8.12146 19.8389 8.10795C19.7119 8.09445 19.6049 8.0877 19.5046 8.08095C19.1035 8.04719 18.8962 8.01343 18.8962 7.98642C18.8962 7.95941 19.157 7.9324 19.6517 7.9189C19.7119 7.9189 19.7788 7.9189 19.8523 7.9189C19.9192 7.9189 19.9927 7.9189 20.073 7.9189C20.2267 7.9189 20.3939 7.9324 20.5811 7.93916C20.7683 7.93916 20.9622 7.96616 21.1762 7.98642C21.3901 8.01343 21.6175 8.02018 21.8515 8.06069C22.8076 8.18223 23.9844 8.43205 25.3082 8.88443C25.4687 8.9452 25.6359 9.01272 25.8097 9.07348C25.9769 9.141 26.1574 9.20177 26.3245 9.27604C26.6655 9.42459 27.0266 9.57313 27.381 9.76219C28.1031 10.1133 28.8386 10.5454 29.5874 11.0586C29.7345 11.1598 29.8883 11.2611 30.0488 11.3556C30.2025 11.4569 30.3563 11.565 30.5101 11.673C30.6639 11.781 30.8244 11.8891 30.9581 12.0241C31.0985 12.1524 31.2389 12.2942 31.3659 12.4427C31.5197 12.571 31.6601 12.706 31.8072 12.8343C31.9543 12.9694 32.1148 13.0977 32.2552 13.2394C32.5427 13.523 32.8436 13.8134 33.0776 14.1645C33.4253 14.421 33.6927 14.7586 33.9468 15.1097C34.0738 15.2853 34.1808 15.4811 34.3012 15.6702C34.3613 15.7647 34.4215 15.8592 34.4817 15.9537C34.5352 16.0483 34.5954 16.1495 34.6555 16.2441C35.157 16.9935 35.5448 17.8375 36.0061 18.668C36.0663 18.7693 36.1265 18.8773 36.18 18.9854C36.2335 19.0934 36.287 19.2014 36.3271 19.3162C36.414 19.539 36.4942 19.7686 36.5812 20.0049C36.7216 20.4775 36.8687 20.9502 37.0291 21.4228C37.1829 22.4221 37.4236 23.4079 37.6376 24.4477V24.6435L37.6443 24.8393C37.6443 24.9744 37.6509 25.1026 37.6643 25.2377C37.671 25.3727 37.6844 25.501 37.6911 25.636C37.6978 25.7711 37.7044 25.8994 37.7111 26.0344C37.7245 26.3045 37.7512 26.5678 37.7512 26.8649C37.7512 27.0067 37.7379 27.1485 37.7312 27.297C37.7178 27.4388 37.6978 27.5806 37.6777 27.7224C37.5039 28.2626 37.3568 28.8027 37.2097 29.3429C37.0626 29.883 36.9222 30.4299 36.7483 30.9701C36.5745 31.5103 36.3471 32.0369 36.1064 32.5568C35.8657 33.0767 35.6117 33.5966 35.371 34.1233C34.8294 35.1496 34.348 36.2299 33.7462 37.2629C33.2381 38.35 32.6564 39.4168 31.9476 40.4228C31.3659 41.5099 30.6839 42.5497 30.022 43.6165C29.4136 44.7238 28.6714 45.7569 27.9961 46.8507C27.3342 47.9513 26.4449 48.9236 25.8899 50.1322C25.1946 51.2462 24.4257 52.3266 23.7236 53.4609C22.9748 54.5682 22.2192 55.6823 21.5306 56.8571C21.0893 57.377 20.7148 57.9442 20.3672 58.5316C20.2802 58.6802 20.1933 58.8287 20.1131 58.9772C20.0195 59.146 19.9259 59.3148 19.8323 59.4836C19.5314 60.0238 19.2171 60.6112 18.8895 61.2121C18.5552 60.6517 18.2209 60.0913 17.8866 59.5377C17.6927 59.2271 17.5055 58.9097 17.3116 58.5991C16.9572 58.0185 16.6028 57.431 16.2552 56.8571C15.513 55.7228 14.7842 54.5885 14.0621 53.4609C13.2865 52.3738 12.6714 51.1855 11.8958 50.1254C11.1135 49.0654 10.5451 47.8905 9.78961 46.844C9.05413 45.7907 8.34539 44.7306 7.76369 43.6098C7.10176 42.543 6.6003 41.3951 5.83807 40.4161C5.18283 39.383 4.39386 38.431 4.03949 37.2562C3.4043 36.2366 3.02319 35.1091 2.41474 34.1165C2.2409 33.5493 2.0002 33.0294 1.74613 32.5163C1.49205 32.0031 1.23129 31.4968 1.0307 30.9633C0.656277 29.8898 0.368771 28.8162 0.101324 27.7157C0.0678929 27.5806 0.0411482 27.4388 0.0210896 27.297C0.00771722 27.1552 -0.0123413 27.0134 -0.0190275 26.8649C-0.0323999 26.5678 -0.0123413 26.3045 0.00103103 26.0344C0.00771722 25.8994 0.0144034 25.7643 0.0277758 25.6293C0.0411482 25.4943 0.0545205 25.366 0.0678929 25.2309C0.0812653 25.0959 0.0946376 24.9676 0.10801 24.8326L0.121382 24.6368L0.141441 24.441C0.141441 24.1776 0.174872 23.9143 0.214989 23.6577C0.268478 23.4011 0.328654 23.1513 0.38883 22.9015C0.415575 22.7732 0.455692 22.6517 0.489123 22.5301C0.522554 22.4086 0.555985 22.2871 0.589415 22.1588C0.622846 22.0373 0.642905 21.909 0.676336 21.7874C0.703081 21.6659 0.729825 21.5376 0.749884 21.4161C0.890294 20.9367 1.05076 20.464 1.20454 19.9982C1.29147 19.7686 1.38507 19.5458 1.47199 19.3162C1.51211 19.2014 1.5656 19.0934 1.61909 18.9854C1.67258 18.8773 1.72607 18.7693 1.77287 18.6613C1.79293 18.5397 1.81967 18.4182 1.8531 18.3034C1.89322 18.1886 1.93334 18.0806 1.98014 17.9726C2.08044 17.7565 2.18741 17.5472 2.31445 17.3581C2.44818 17.1623 2.5819 16.98 2.71562 16.791C2.84935 16.6019 2.98976 16.4264 3.11679 16.2441C3.18366 16.1495 3.24383 16.055 3.29732 15.9605C3.3575 15.866 3.42436 15.7782 3.47785 15.6837C3.5982 15.4946 3.70518 15.3055 3.83222 15.1232C4.07961 14.7654 4.34037 14.421 4.69473 14.1712C4.88863 13.7796 5.18283 13.4825 5.47702 13.1989C5.62411 13.0571 5.79127 12.9356 5.94505 12.8141C6.10552 12.6925 6.25262 12.5642 6.41308 12.4495C6.56687 12.3279 6.71396 12.2064 6.85437 12.0781C6.99478 11.9431 7.14188 11.8283 7.28229 11.7068C7.4227 11.5852 7.56311 11.4637 7.71689 11.3556C7.87067 11.2476 8.02445 11.1531 8.18492 11.0721C8.2451 11.0045 8.31196 10.9438 8.38551 10.883C8.45906 10.829 8.52592 10.775 8.60615 10.7277C8.75325 10.6332 8.90703 10.5454 9.06081 10.4644C9.36838 10.3091 9.68263 10.1808 9.95676 9.99175C10.271 9.87697 10.5518 9.73518 10.8327 9.58663C11.1135 9.45159 11.3809 9.3098 11.6617 9.20177C11.9292 9.08024 12.1966 8.96545 12.4574 8.87093C12.7248 8.78315 12.9856 8.70888 13.2464 8.64811C13.7545 8.50632 14.2292 8.37128 14.6772 8.29026C16.0479 7.98642 17.111 7.9189 17.8264 7.9054C18.5418 7.9054 18.9096 7.93916 18.9096 7.97292V7.97967Z" fill="#0061EF"/>
<path d="M18.9077 16.19C18.9077 16.2778 18.2658 16.2913 17.1492 16.5681C17.0556 16.5884 16.962 16.6221 16.8617 16.6492C16.7614 16.6762 16.6611 16.7032 16.5608 16.7437C16.4605 16.7842 16.3536 16.8247 16.2466 16.8585C16.1396 16.899 16.0259 16.9462 15.9123 16.98C15.7786 16.98 15.6783 17.0678 15.5713 17.1488C15.4643 17.2298 15.3573 17.3108 15.2035 17.3041C15.0698 17.3379 14.9495 17.3986 14.8224 17.4729C14.7623 17.5067 14.7021 17.5472 14.6419 17.5877C14.5817 17.6282 14.5215 17.6755 14.4614 17.716C14.341 17.8037 14.2073 17.8713 14.0736 17.9455C13.9399 18.0198 13.8128 18.1143 13.7058 18.2426C13.6256 18.4047 13.4785 18.4722 13.318 18.5397C13.1643 18.6072 13.0105 18.695 12.957 18.8908C12.743 19.1609 12.4823 19.3972 12.2416 19.6673C11.8939 19.8496 11.7802 20.2412 11.5863 20.572C11.2386 20.8016 11.0915 21.1932 11.0247 21.6051C10.6502 21.8684 10.5032 22.287 10.5834 22.7597C10.463 23.158 10.2691 23.5632 10.3026 24.0155C10.2491 24.4544 10.2424 24.9001 10.2023 25.3524C10.3561 25.8116 10.3627 26.2504 10.3026 26.7366C10.5299 27.1755 10.57 27.6346 10.6302 28.1275C10.6502 28.249 10.6837 28.3638 10.7305 28.4786C10.7773 28.5934 10.8441 28.6947 10.8976 28.8027C10.9511 28.9107 11.0247 29.012 11.0715 29.1268C11.1183 29.2416 11.1718 29.3496 11.1985 29.4779C11.4125 29.9235 11.72 30.3286 12.0009 30.754C12.2482 31.1996 12.5491 31.652 13.0372 31.8951C13.4451 32.2192 13.8864 32.496 14.2808 32.8539C14.8157 32.9889 15.237 33.2927 15.705 33.5831C16.2065 33.7586 16.7012 34.0355 17.2629 34.0422C17.7978 34.1773 18.3527 34.1232 18.9077 34.2043C19.4626 34.2583 20.031 34.2515 20.5525 34.049C20.8066 33.9409 21.074 33.8869 21.3415 33.8329C21.4752 33.8059 21.6089 33.7721 21.7359 33.7384C21.8697 33.7046 21.99 33.6574 22.1104 33.5966C22.2508 33.5898 22.3845 33.5493 22.5049 33.4953C22.565 33.4683 22.6252 33.4413 22.6854 33.4075C22.7456 33.3738 22.799 33.34 22.8592 33.2995L23.0264 33.1915L23.1868 33.0767C23.3005 33.0024 23.4075 32.9349 23.5278 32.8741C23.9624 32.577 24.4505 32.3407 24.7715 31.9153C25.1325 31.5372 25.4468 31.1389 25.8078 30.7743C25.8546 30.4907 26.0084 30.3016 26.1756 30.1126C26.2625 30.018 26.3427 29.9235 26.423 29.8222C26.4631 29.775 26.4965 29.721 26.5299 29.6669C26.5634 29.6129 26.5901 29.5589 26.6102 29.4981C26.9311 29.0998 27.0113 28.5934 27.1785 28.141C27.2253 27.9047 27.3189 27.6819 27.3925 27.4523L27.4459 27.2835C27.4593 27.2295 27.4727 27.1687 27.4861 27.1079C27.5061 26.9932 27.5262 26.8716 27.5128 26.7501C27.6064 26.2842 27.5195 25.8183 27.6131 25.3659C27.5797 25.2512 27.5663 25.1431 27.5663 25.0283C27.5663 24.9136 27.5663 24.8055 27.573 24.6907C27.5797 24.576 27.5797 24.4679 27.573 24.3531C27.573 24.2451 27.5529 24.1303 27.5061 24.0291C27.4393 23.5969 27.3189 23.1851 27.2253 22.7732C27.2387 22.6584 27.2253 22.5504 27.2052 22.4423C27.1785 22.3411 27.1384 22.2465 27.0916 22.152C27.0448 22.0575 26.9913 21.9697 26.9378 21.8819C26.8843 21.7942 26.8308 21.7064 26.784 21.6186C26.7038 21.4363 26.5901 21.2675 26.4765 21.1055C26.3695 20.9434 26.2692 20.7814 26.2224 20.5788C26.0218 20.2547 25.868 19.8969 25.5671 19.674C25.4401 19.5457 25.3732 19.3634 25.2796 19.2082C25.1927 19.0461 25.0657 18.9178 24.8517 18.8976C24.7113 18.803 24.6177 18.6545 24.5107 18.5195C24.4037 18.3912 24.2901 18.2696 24.1029 18.2494C23.929 18.2224 23.8087 18.1278 23.6883 18.0266C23.5746 17.9185 23.4744 17.797 23.3473 17.7227C23.2871 17.6822 23.2203 17.6417 23.1601 17.6079C23.0999 17.5674 23.0331 17.5337 22.9729 17.4999C22.8525 17.4324 22.7322 17.3649 22.6052 17.3041C22.0636 17.0273 21.5487 16.8382 21.0941 16.6964C20.6394 16.5546 20.2382 16.4736 19.9106 16.4061C19.583 16.3453 19.3289 16.3048 19.1618 16.2778C18.9879 16.2508 18.901 16.217 18.901 16.19C18.901 16.136 19.349 16.055 20.1914 16.109C20.6127 16.1428 21.1275 16.2103 21.7226 16.3723C22.311 16.5344 22.9796 16.7842 23.6683 17.1623C23.8087 17.2366 23.9624 17.2906 24.1162 17.3649C24.27 17.4324 24.4104 17.5337 24.5107 17.6822C24.6511 17.7767 24.7982 17.8713 24.952 17.9725C25.0991 18.0738 25.2395 18.1886 25.3532 18.3439C25.7477 18.4654 25.9215 18.8435 26.1622 19.1541C26.4296 19.4445 26.6235 19.8091 26.9177 20.1129C27.0715 20.2615 27.1785 20.4505 27.2721 20.6463C27.3657 20.8421 27.4459 21.0447 27.5797 21.227C27.6666 21.6794 27.8672 22.071 28.1012 22.4829C28.1146 22.5976 28.1279 22.7192 28.1614 22.834C28.1881 22.9487 28.2282 23.0568 28.2617 23.1716C28.3018 23.2863 28.3352 23.4011 28.3753 23.5159C28.4088 23.6307 28.4355 23.7522 28.4556 23.867C28.362 24.3734 28.5358 24.8393 28.6027 25.3457C28.6695 25.8521 28.5625 26.3652 28.5224 26.8919C28.4154 27.405 28.3753 27.9452 28.1881 28.4583C28.1012 28.9985 27.914 29.5387 27.573 29.991C27.3657 30.5177 27.0247 30.9768 26.6837 31.436C26.3962 31.9424 25.9482 32.3272 25.527 32.7323C25.3197 32.9416 25.0724 33.1037 24.8183 33.259C24.6979 33.34 24.5709 33.421 24.4572 33.5088C24.3436 33.6033 24.2299 33.6979 24.1296 33.8194C23.6348 34.1637 23.0732 34.3933 22.5249 34.6566C21.9499 34.866 21.3615 35.0145 20.7598 35.1833C20.1246 35.1158 19.5295 35.2913 18.901 35.3656C18.2725 35.4196 17.644 35.3318 17.0422 35.1833C16.4271 35.082 15.8387 34.893 15.2771 34.6566C14.6887 34.4743 14.2073 34.076 13.6724 33.8194C13.5387 33.7586 13.405 33.6776 13.2913 33.5898C13.1709 33.5021 13.0573 33.4075 12.9503 33.3062C12.7297 33.1104 12.5224 32.9011 12.2817 32.7323C11.8203 32.3745 11.3991 31.9491 11.125 31.436C10.9578 31.2064 10.8241 30.9498 10.697 30.7C10.6302 30.5785 10.5633 30.4502 10.4898 30.3354C10.4497 30.2746 10.4095 30.2206 10.3694 30.1598C10.3293 30.1058 10.2825 30.0451 10.2357 29.991C10.1622 29.8695 10.0819 29.7547 10.0084 29.6332C9.93482 29.5116 9.85459 29.3969 9.79441 29.2686C9.73424 29.1403 9.67406 29.012 9.64732 28.877C9.62057 28.7419 9.6072 28.6001 9.62726 28.4516C9.52028 28.2018 9.47348 27.9317 9.44005 27.6684C9.43336 27.6008 9.41999 27.5333 9.4133 27.4726C9.40662 27.405 9.39993 27.3443 9.38656 27.2767C9.3665 27.1485 9.32638 27.0202 9.28626 26.8919C9.31301 26.7568 9.32638 26.6218 9.31969 26.4935C9.31969 26.3652 9.30632 26.2369 9.28626 26.1087C9.26621 25.9804 9.24615 25.8521 9.23277 25.7305C9.2194 25.6023 9.20603 25.474 9.21272 25.3524C9.25283 24.846 9.3665 24.3599 9.35981 23.8738C9.34644 23.3741 9.6072 22.942 9.71418 22.4896C9.72755 22.3681 9.76098 22.26 9.8011 22.152C9.8479 22.044 9.90808 21.9427 9.96157 21.8482C10.0151 21.7469 10.0752 21.6524 10.1287 21.5511C10.1822 21.4498 10.2156 21.3485 10.2357 21.2337C10.4497 20.8489 10.6302 20.4505 10.8909 20.1197C10.9043 19.8766 11.0247 19.701 11.1785 19.5593C11.3322 19.4175 11.5061 19.3027 11.6465 19.1609C11.9206 18.8841 12.0543 18.4654 12.4555 18.3507C12.5291 18.1548 12.6628 18.0266 12.8166 17.932C12.977 17.8375 13.1375 17.77 13.298 17.6957C13.4518 17.6214 13.5788 17.4999 13.7125 17.4054C13.8396 17.3041 13.9733 17.2096 14.1404 17.1758C14.1939 17.1083 14.2541 17.0543 14.321 17.0205C14.3878 16.98 14.4614 16.9597 14.5349 16.9395C14.682 16.8922 14.8291 16.8652 14.9562 16.7842C15.2503 16.7437 15.471 16.5681 15.7251 16.5006C15.8454 16.4466 15.9591 16.3993 16.0794 16.3656C16.1998 16.3386 16.3201 16.3183 16.4338 16.3116C16.5475 16.2846 16.6544 16.2643 16.7614 16.244C16.8684 16.2238 16.9687 16.2035 17.069 16.19C18.2591 16.028 18.9077 16.1563 18.9077 16.2103V16.19Z" fill="#0061EF"/>
<path d="M17.0691 19.6808C17.1426 19.6808 17.2095 20.1939 17.2697 21.1324C17.2764 21.2877 17.2897 21.4565 17.3031 21.6388C17.3232 21.8211 17.3432 22.0102 17.3365 22.2127C17.2429 22.4153 17.5104 22.6314 17.3633 22.8542C17.3432 22.9487 17.3432 23.1243 17.3499 23.2931C17.3566 23.4619 17.3767 23.6374 17.39 23.8332C17.39 23.8737 17.39 23.9142 17.39 23.9615C17.2296 23.9615 17.0557 23.948 16.8886 23.948C16.7214 23.948 16.5542 23.948 16.3938 23.9818C16.133 24.1641 15.8589 23.7792 15.5781 24.0088C15.2972 24.0628 15.0097 24.0425 14.7089 24.0358C14.5618 23.9683 14.408 23.9683 14.2542 23.9885C14.1807 24.002 14.1004 24.0155 14.0202 24.029L13.8998 24.0493H13.8397L13.8129 24.0628H13.7995C13.7126 23.9548 13.5455 23.948 13.4853 23.9885C13.5053 24.0695 13.5455 24.1506 13.5856 24.2113C13.5254 24.2113 13.4853 24.2451 13.4585 24.2856C13.4585 24.2991 13.4452 24.3059 13.4452 24.3194C13.4452 24.3396 13.4385 24.3599 13.4318 24.3869C13.4318 24.4274 13.4251 24.4747 13.4318 24.5152C13.4318 24.6907 13.4987 24.8595 13.6056 25.0418C13.6123 25.3929 13.5254 25.7575 13.6257 26.1221C13.6391 26.3044 13.6458 26.4935 13.6524 26.6825C13.6591 26.7433 13.6591 26.7703 13.6391 26.8378C13.6524 26.8378 13.6658 26.8378 13.6792 26.8243C13.7661 26.7703 13.7862 26.7433 13.7995 26.7501C13.7995 26.7501 13.8062 26.7501 13.8129 26.7568C13.8129 26.7568 13.8263 26.7568 13.8397 26.7568H13.8731L13.94 26.7703C14.0269 26.7838 14.1138 26.8108 14.2074 26.8378C14.6019 26.669 14.9964 26.7366 15.4042 26.8243C15.6048 26.8716 15.8121 26.8311 16.0127 26.8041C16.113 26.7906 16.2199 26.7771 16.3202 26.7703C16.347 26.7703 16.3737 26.7703 16.4005 26.7703C16.4473 26.7703 16.4874 26.7703 16.5342 26.7703C16.6278 26.7703 16.7214 26.7906 16.815 26.8041C17.0758 26.8041 17.3432 26.8041 17.6174 26.8041C17.6174 27.0539 17.624 27.297 17.6307 27.5468V28.0194V28.0735V28.1815C17.5572 28.6136 17.4836 29.0525 17.6307 29.4914C17.6508 29.7142 17.6775 29.937 17.6842 30.1598C17.6842 30.2746 17.6842 30.3826 17.6842 30.4974V30.5784C17.6842 30.5784 17.6708 30.6459 17.6708 30.6392L17.6441 30.6662C17.7043 30.673 17.7377 30.6459 17.7444 30.6392C17.7578 30.6324 17.7444 30.6392 17.7444 30.6595C17.7444 30.6662 17.7444 30.6797 17.7511 30.6932C17.8246 30.7067 17.8982 30.7202 17.9717 30.7337C18.4264 30.7067 18.8877 30.8283 19.3491 30.7337C19.5831 30.7472 19.8104 30.7337 20.0444 30.7135H20.0846H20.0912C20.0912 30.7135 20.1046 30.7135 20.1113 30.7135C20.1247 30.7135 20.138 30.7202 20.1782 30.7405C20.1782 30.7405 20.2049 30.727 20.2183 30.7067C20.2183 30.7 20.225 30.6865 20.2317 30.673V30.6527V30.6392V30.5987C20.2383 30.3624 20.2317 30.126 20.1782 29.8965C20.0645 29.4306 20.225 28.9647 20.1782 28.5056C20.2116 28.411 20.2317 28.3098 20.2383 28.2152C20.245 28.114 20.2383 28.0532 20.2383 27.8506C20.2183 27.513 20.1848 27.1417 20.1782 26.7838C20.3119 26.7838 20.4456 26.7838 20.586 26.7973C21.5756 26.7838 21.8096 26.8919 22.2843 26.8041C22.7189 26.7703 23.1535 26.7433 23.5814 26.8108C23.675 26.7568 23.762 26.7298 23.8489 26.7163C23.8957 26.7163 23.9358 26.7096 23.9826 26.7163C23.996 26.7163 23.9826 26.7163 23.996 26.7298C24.0093 26.7568 24.0695 26.8108 24.123 26.8311C24.123 26.8311 24.123 26.8108 24.123 26.7906C24.1498 26.7906 24.1631 26.7636 24.1631 26.7366C24.1631 26.7231 24.1631 26.7096 24.1631 26.696V26.5408C24.1431 26.3314 24.1163 26.1289 24.1297 25.9263C24.0829 25.5212 24.2434 25.1161 24.1431 24.7177C24.1431 24.6299 24.1431 24.5422 24.1431 24.4476V24.3801V24.3464C24.1431 24.3329 24.1431 24.3194 24.1431 24.3194V24.2924C24.123 24.2586 24.1163 24.2383 24.1431 24.1708C24.1431 24.1708 24.1431 24.1573 24.1431 24.1506C24.0428 24.2113 24.0562 24.1843 23.9893 24.1506C23.8021 24.1168 23.6215 24.083 23.4343 24.1303C23.0733 24.1303 22.7122 24.1371 22.3645 24.11C22.1907 24.0088 22.0169 24.002 21.8497 24.0223C21.7628 24.029 21.6826 24.0493 21.5956 24.0628C21.5555 24.0695 21.5087 24.0763 21.4686 24.083H21.4017L21.2948 24.0965C21.1276 24.0898 20.9671 24.0965 20.7933 24.11C20.6195 24.1236 20.4456 24.1371 20.2718 24.1371C20.2718 23.921 20.2785 23.6847 20.3319 23.4619C20.3319 23.3336 20.3453 23.1985 20.352 23.077V22.9892L20.3654 22.9285L20.3787 22.8137C20.3921 22.6584 20.3921 22.5031 20.352 22.3545C20.3253 22.0507 20.6395 21.7604 20.3787 21.4768C20.3319 21.1932 20.5793 20.9164 20.4055 20.653C20.3654 20.5855 20.3453 20.518 20.3386 20.4572C20.3386 20.4437 20.3386 20.4235 20.3386 20.41V20.3897V20.383C20.3386 20.3695 20.3453 20.356 20.352 20.3425C20.3787 20.2884 20.4256 20.2007 20.4256 20.1264C20.4256 20.0926 20.4256 20.0589 20.4256 20.0251C20.3253 20.0184 20.2317 20.0116 20.1447 20.0049C19.67 19.9778 19.2421 19.9576 18.8744 19.9373C18.4866 19.9171 18.1589 19.8901 17.8915 19.8631C17.3566 19.8158 17.0691 19.7618 17.0691 19.7078C17.0691 19.647 17.4034 19.593 18.0319 19.539C18.3461 19.512 18.7273 19.485 19.1819 19.4647C19.4093 19.4512 19.65 19.4444 19.9107 19.4309C19.9776 19.4309 20.0511 19.4309 20.1247 19.4242C20.225 19.4242 20.3186 19.4242 20.4189 19.4174C20.6261 19.4174 20.8334 19.4039 21.0541 19.4039C21.0541 19.485 21.0541 19.566 21.0541 19.6538C21.0541 19.8293 21.0942 20.0049 21.1142 20.2007C21.1142 20.2479 21.1209 20.3019 21.1276 20.356V20.4167C21.1276 20.4167 21.1276 20.4505 21.1276 20.464C21.1276 20.5315 21.1075 20.5923 21.0808 20.6598C21.0808 20.9231 21.1878 21.2 21.1075 21.4835C21.2881 21.7671 21.141 22.0575 21.1343 22.3613C21.1343 22.5166 21.1276 22.6651 21.1209 22.8204V22.9352V22.996C21.1209 23.0162 21.1209 23.0162 21.1209 23.023C21.1209 23.0567 21.1343 23.0837 21.1543 23.104C21.1945 23.131 21.1945 23.158 21.1878 23.2053C21.2078 23.212 21.2279 23.2255 21.2613 23.2323C21.2881 23.239 21.3349 23.2323 21.3683 23.212C21.3683 23.2188 21.3817 23.2255 21.3884 23.2323C21.4084 23.2323 21.4285 23.2458 21.4485 23.2458C21.4887 23.2525 21.5355 23.2661 21.5756 23.2661C21.6625 23.2796 21.7427 23.2796 21.8297 23.2796C22.0035 23.2796 22.1706 23.239 22.3445 23.185C22.6922 23.2931 23.0532 23.1648 23.4143 23.1648C23.5948 23.2525 23.782 23.2593 23.9692 23.2458C24.2567 23.2255 24.591 23.185 24.9521 23.1445C25.019 23.1445 25.0925 23.131 25.1594 23.131C25.1727 23.4281 25.1661 23.7522 25.1594 24.0695C25.1594 24.1978 25.1594 24.3194 25.1527 24.4476C25.1527 24.5354 25.1527 24.6232 25.1661 24.7177C25.1326 25.1161 25.2062 25.5145 25.1794 25.9263C25.2195 26.1289 25.2463 26.3382 25.253 26.5408C25.253 26.5948 25.253 26.642 25.253 26.7028C25.253 26.8041 25.253 26.8986 25.2463 26.9999C25.2396 27.1957 25.2195 27.3848 25.1995 27.5603C25.2062 27.6818 25.2129 27.8101 25.2195 27.9317C24.9053 27.9452 24.5643 27.9384 24.23 27.9317H23.9826L23.8489 27.9249C23.762 27.9249 23.6684 27.9249 23.5814 27.9249C23.1535 27.9924 22.7189 27.9182 22.2843 27.9317C22.0637 27.9519 21.843 27.9047 21.6224 27.8776C21.5221 27.8641 21.3616 27.8574 21.375 27.8641C21.3482 27.8709 21.3282 27.8911 21.3416 27.9384C21.3416 27.9384 21.3282 27.9384 21.3215 27.9384C21.3215 27.9654 21.3215 27.9789 21.3081 28.0059C21.3081 27.9789 21.3081 28.1207 21.3081 28.2085C21.3081 28.303 21.3081 28.3975 21.3215 28.4988C21.3014 28.958 21.2747 29.4238 21.3215 29.8897C21.2279 30.126 21.2145 30.3556 21.2279 30.5919C21.2279 30.6865 21.2413 30.781 21.2413 30.8755C21.248 30.9835 21.2546 31.0916 21.268 31.1996C21.2881 31.4292 21.3081 31.6655 21.3215 31.8951C21.1142 31.9086 20.8936 31.9153 20.6729 31.9221H20.3386H20.0378C19.8037 31.9221 19.5697 31.9086 19.3424 31.8951C18.881 31.9153 18.4197 31.9018 17.965 31.8951C17.8915 31.9018 17.8179 31.9086 17.7444 31.9086C17.604 31.9086 17.4636 31.9086 17.3232 31.9086C17.0557 31.8951 16.7883 31.8883 16.5208 31.8748C16.5275 31.5777 16.5275 31.2941 16.5008 31.0106C16.4941 30.9093 16.4874 30.8012 16.4807 30.6932V30.5852V30.5042C16.4807 30.3894 16.4941 30.2813 16.5074 30.1666C16.5275 29.9437 16.5476 29.7209 16.5074 29.4981C16.454 29.0592 16.4272 28.6204 16.5141 28.1882C16.5141 28.1545 16.5141 28.1207 16.5141 28.0802V28.0262C16.5141 28.0262 16.5208 28.0194 16.5208 28.0127L16.5476 27.9654C16.5676 27.9317 16.5877 27.8776 16.5877 27.8371C16.5542 27.8371 16.4874 27.8506 16.4473 27.9047C16.4339 27.9047 16.4272 27.9182 16.4205 27.9249C16.4205 27.9249 16.4205 27.9384 16.4072 27.9384L16.3269 27.9519C16.2266 27.9722 16.1196 27.9924 16.0194 28.0059C15.8121 28.0329 15.6115 28.0194 15.4109 27.8911C15.0097 27.9587 14.6086 27.7696 14.2141 27.8776C14.1272 27.8371 14.0402 27.8101 13.9466 27.7966C13.9266 27.7966 13.8998 27.7966 13.8798 27.7966H13.8463H13.8062C13.7327 27.7966 13.6591 27.7966 13.5856 27.7966C13.2914 27.8101 12.9705 27.8506 12.6562 27.8574C12.6562 27.7966 12.6562 27.7291 12.6562 27.6683C12.6763 27.3172 12.6963 26.9729 12.7097 26.6758C12.7231 26.4867 12.7097 26.3044 12.6763 26.1154C12.5893 25.744 12.7231 25.3862 12.6963 25.0351C12.6428 24.8595 12.6763 24.684 12.7097 24.5084C12.7164 24.4679 12.7231 24.4206 12.7364 24.3801V24.3126L12.7498 24.2113C12.7498 24.0695 12.7498 23.9345 12.7164 23.7792C12.7231 23.5834 12.7231 23.3943 12.7231 23.1985C13.0707 23.1985 13.4251 23.185 13.7728 23.212C13.7862 23.2053 13.8062 23.1985 13.8196 23.1918C13.833 23.1918 13.8397 23.1783 13.853 23.1715C13.8731 23.158 13.8931 23.1513 13.9132 23.1378C13.9533 23.1175 13.9934 23.1108 14.0336 23.104C14.1138 23.0905 14.1873 23.104 14.2676 23.1175C14.4214 23.1513 14.5751 23.2255 14.7222 23.2323C15.0231 23.2728 15.3106 23.0635 15.5914 23.2593C15.8723 23.0635 16.1464 23.2323 16.4072 23.2863C16.4807 23.3133 16.5275 23.2998 16.5743 23.2863C16.6211 23.2728 16.6545 23.2593 16.7281 23.2863C16.7281 23.2863 16.7415 23.2728 16.7548 23.2728C16.688 23.158 16.708 23.131 16.7348 23.0837C16.7615 23.0365 16.8016 22.996 16.7816 22.8609C16.8685 22.6381 16.7816 22.4221 16.8083 22.2195C16.7749 22.0169 16.7883 21.8279 16.8351 21.6456C16.8484 21.4633 16.8551 21.2945 16.8685 21.1392C16.9287 20.2007 16.9955 19.6875 17.0691 19.6875V19.6808Z" fill="#0061EF"/>
<path d="M21.0689 56.4588C21.1291 56.4993 20.7413 57.2352 19.9992 58.5586C19.939 58.6666 19.8788 58.7882 19.8119 58.903C19.7384 59.0312 19.6648 59.1663 19.5913 59.3013C19.4108 59.6457 19.1968 60.044 18.9628 60.4222C18.9494 60.4357 18.9361 60.4492 18.9227 60.4694C18.9227 60.4897 18.9093 60.4694 18.9026 60.4492L18.8826 60.4087C18.8558 60.3546 18.8291 60.3141 18.7956 60.2736C18.7355 60.1926 18.6686 60.1251 18.6017 60.044C18.5349 59.963 18.4613 59.8752 18.3878 59.7605C18.3209 59.6524 18.2541 59.5241 18.2139 59.3891C18.1872 59.3283 18.1538 59.2743 18.127 59.2136C18.1003 59.1663 18.0802 59.1325 18.0602 59.0853C18.0134 59.0042 17.9666 58.9232 17.9131 58.8489C17.8061 58.6937 17.6991 58.5316 17.5788 58.3763C17.3447 58.059 17.2043 57.6606 16.9035 57.35C16.8098 57.2825 16.743 57.2015 16.6895 57.1002C16.6761 57.0732 16.6627 57.0529 16.6494 57.0259L16.6293 56.9854C16.6293 56.9854 16.6293 56.9719 16.6293 56.9652C16.6293 56.9381 16.6159 56.9044 16.6093 56.8774C16.6026 56.8436 16.5959 56.8099 16.5825 56.7761C16.5625 56.7558 16.529 56.7626 16.4956 56.7558C16.422 56.7558 16.3886 56.7761 16.2616 56.8369C15.8136 56.9044 15.3456 56.9111 14.8642 56.9314C14.3761 56.8234 13.888 56.9989 13.3798 57.0664C12.8583 56.9381 12.3368 57.0664 11.8219 57.242C11.267 57.0732 10.7187 57.1812 10.1972 57.4783C9.64225 57.5661 9.06724 57.5796 8.51229 57.7889C7.94396 57.9172 7.37564 58.086 6.78725 58.2075C6.24567 58.5113 5.67734 58.6801 5.06221 58.7747C4.93518 58.8692 4.80814 58.957 4.67442 59.0245C4.54738 59.1055 4.40697 59.1663 4.27324 59.2338C3.99911 59.3621 3.73166 59.4769 3.48427 59.6119C3.2302 59.7402 3.05636 59.9765 2.99618 60.1723C2.95607 60.2669 2.97612 60.3411 2.96275 60.4087C2.96275 60.4762 2.97612 60.5504 2.9895 60.6517C3.07642 60.8408 3.29038 61.0366 3.53108 61.1986C3.77178 61.3674 4.0526 61.5227 4.33342 61.6713C4.88837 62.0156 5.51688 62.3195 6.21893 62.3735C6.89423 62.5288 7.58291 62.6436 8.2649 62.8731C8.99369 62.8461 9.68237 63.0419 10.3911 63.2445C11.1132 63.3187 11.8286 63.5348 12.5842 63.5146C13.3197 63.6158 14.0752 63.5686 14.824 63.6969C15.5729 63.7981 16.3218 63.8792 17.0706 63.7981C17.8128 63.7036 18.5549 63.8724 19.2837 63.8251C20.0192 63.9872 20.7413 63.7509 21.4567 63.7846C22.1722 63.7441 22.8876 63.8116 23.583 63.6766C24.285 63.5956 24.967 63.501 25.6557 63.501C26.3042 63.1702 27.013 63.4065 27.6682 63.2512C28.3435 63.2512 28.972 63.0217 29.6072 62.9136C30.229 62.7381 30.8843 62.7448 31.4526 62.4748C32.0544 62.3195 32.5959 62.0291 33.1643 61.8941C33.405 61.7185 33.6724 61.624 33.9265 61.5092C34.1806 61.4012 34.4279 61.2729 34.5817 61.0703C34.7623 60.9015 34.896 60.7192 34.9428 60.5639C34.9695 60.4829 34.9695 60.4154 34.9628 60.3344C34.9628 60.3276 34.9628 60.3141 34.9628 60.3074V60.2804C34.9628 60.2804 34.9428 60.2399 34.9428 60.2196C34.9361 60.1791 34.9094 60.1386 34.896 60.0913C34.896 60.0373 34.8759 59.9833 34.8559 59.9293C34.8358 59.8752 34.8024 59.828 34.7689 59.7807C34.7422 59.7335 34.6887 59.6929 34.6486 59.6457C34.6285 59.6254 34.6018 59.6052 34.5817 59.5849L34.5015 59.5309C34.3009 59.3891 34.0535 59.2946 33.8329 59.1798C33.3916 58.9165 32.8768 58.8489 32.4555 58.5586C31.9942 58.3763 31.5395 58.1535 31.0581 58.1062C30.5968 58.0117 30.209 57.5998 29.7075 57.7619C29.2595 57.7146 28.8717 57.3905 28.4304 57.4918C27.9891 57.5796 27.6214 57.3365 27.2336 57.2757C26.8525 57.215 26.4781 57.1542 26.1237 57.1002C24.5324 56.8706 23.2687 56.7423 22.4062 56.6478C21.5437 56.5533 21.0823 56.4925 21.0823 56.4385C21.0823 56.3845 21.6573 56.3372 22.7271 56.344C23.7902 56.3507 25.3548 56.4115 27.3205 56.6411C27.715 56.6883 28.1429 56.614 28.5441 56.8031C28.9653 56.8774 29.4267 56.8571 29.8613 57.0259C30.3494 56.9449 30.784 57.1947 31.2587 57.3298C31.7401 57.4513 32.2081 57.6471 32.7297 57.7551C33.2646 57.8362 33.7125 58.1873 34.2541 58.3966C34.4814 58.5924 34.7155 58.7544 34.9628 58.9435C35.2035 59.1325 35.4643 59.3283 35.6983 59.6322C35.7251 59.7267 35.7652 59.8145 35.7919 59.909L35.8254 60.0575L35.8387 60.1318C35.8387 60.1318 35.8387 60.1858 35.8454 60.2061C35.8722 60.4087 35.8655 60.6247 35.812 60.8273C35.7117 61.2324 35.4844 61.5497 35.2303 61.7793C34.916 61.9481 34.6486 62.1169 34.3745 62.2925C34.107 62.468 33.8329 62.6503 33.5521 62.8123C32.9837 63.1297 32.3419 63.2512 31.7267 63.4673C31.0915 63.6158 30.4697 63.8454 29.8145 63.9534C29.1793 64.1695 28.5174 64.318 27.822 64.3248C27.1534 64.4801 26.4647 64.5273 25.7693 64.6016C25.0807 64.7434 24.3652 64.7299 23.6565 64.7974C22.9411 64.8852 22.2123 64.7029 21.4902 64.9257C20.7614 64.9797 20.0259 64.9392 19.277 64.9797C18.5349 64.9595 17.786 64.9257 17.0238 64.9595C16.2749 64.7502 15.5127 64.8312 14.7371 64.8582C13.9682 64.8582 13.206 64.7772 12.4505 64.6691C11.6949 64.6084 10.9461 64.5071 10.2106 64.3856C9.46173 64.3315 8.75299 64.075 8.01751 63.9939C7.27534 63.9197 6.60672 63.5888 5.88462 63.4538C5.16919 63.2985 4.46714 63.0824 3.83864 62.6706C3.50433 62.5085 3.19677 62.2857 2.90258 62.0426C2.75548 61.9211 2.60838 61.786 2.46129 61.6443C2.31419 61.5025 2.1671 61.3472 2.02 61.1514C1.89965 60.9421 1.80604 60.6922 1.7793 60.4154C1.7793 60.3479 1.7793 60.2804 1.7793 60.2128C1.7793 60.1453 1.7793 60.0711 1.79936 60.0103C1.81273 59.9428 1.8261 59.882 1.84616 59.8145C1.86622 59.7537 1.89296 59.6929 1.91302 59.6389C2.12029 59.173 2.46129 58.8827 2.82903 58.7612C3.10985 58.5113 3.43747 58.3493 3.75841 58.221C3.91888 58.1535 4.07935 58.0995 4.23313 58.0252C4.38691 57.9644 4.54069 57.8902 4.6811 57.8024C5.36309 57.7416 5.91136 57.3838 6.5198 57.2285C7.13493 57.1002 7.74338 57.0327 8.3117 56.8301C8.88003 56.6276 9.48178 56.6613 10.0434 56.5465C10.5917 56.3507 11.1801 56.5263 11.7083 56.344C12.2499 56.3102 12.7781 56.2089 13.2929 56.2089C13.7877 55.9118 14.3092 56.1279 14.7973 56.1212C15.2854 56.1212 15.7534 55.8983 16.2148 56.0739C16.295 56.0199 16.5223 55.9861 16.7096 55.9726C16.7564 55.9726 16.8098 55.9659 16.8566 55.9591H16.9302H16.9636C16.9636 55.9591 16.977 55.9591 16.9837 55.9591V55.9726C17.0439 56.0536 17.0907 56.1414 17.1375 56.2224C17.1843 56.3035 17.2244 56.3912 17.2712 56.4723L17.2979 56.533L17.3113 56.5735L17.3447 56.6478C17.3849 56.7491 17.425 56.8504 17.4718 56.9516C17.6523 57.3433 17.9866 57.6201 18.107 58.0117C18.2741 58.14 18.3544 58.3223 18.4279 58.4978C18.468 58.5856 18.4948 58.6801 18.5349 58.7612C18.5549 58.8017 18.575 58.8489 18.5951 58.8827C18.6084 58.903 18.6218 58.9232 18.6419 58.9435C18.6619 59.065 18.7221 59.1663 18.7756 59.2473C18.8023 59.2878 18.8291 59.3216 18.8558 59.3621C18.8692 59.3824 18.8826 59.4026 18.8959 59.4229V59.4364C18.8959 59.4364 18.9093 59.4499 18.916 59.4364C18.916 59.4296 18.9294 59.4161 18.9361 59.4094C19.0297 59.1865 19.1032 59.0853 19.2369 58.957C19.3907 58.7274 19.5311 58.5046 19.6582 58.302C20.514 57.0462 21.0155 56.3777 21.0689 56.4182V56.4588Z" fill="#0061EF"/>
</g>
<defs>
<clipPath id="clip0_3483_38825">
<rect width="37.7703" height="57.0946" fill="white" transform="translate(0 7.9054)"/>
</clipPath>
</defs>
</svg>
