<svg width="65" height="64" viewBox="0 0 65 64" fill="none" xmlns="http://www.w3.org/2000/svg">
<circle cx="32.5" cy="42.5" r="20.5" fill="#FFFF66"/>
<g clip-path="url(#clip0_3484_38831)">
<path d="M38.2321 22.9855C38.315 22.9855 38.3979 24.377 38.4733 26.9193C38.4808 27.3405 38.4959 27.7993 38.511 28.2882C38.5336 28.7771 38.5562 29.296 38.5486 29.8376C38.4356 30.3866 38.7521 30.9658 38.5863 31.5675C38.5336 32.1768 38.5863 32.8086 38.6165 33.4704C38.6541 34.1323 38.5486 34.8243 38.6466 35.5388C38.8652 36.2534 38.4054 36.998 38.6767 37.7652C38.737 38.5324 38.722 39.3297 38.7069 40.1495C38.5411 40.9693 38.7069 41.8117 38.737 42.6767C38.5411 43.5417 38.624 44.4292 38.7596 45.3468C38.4883 46.2569 38.5336 47.1896 38.7823 48.1448C38.7898 49.1 38.6843 50.0778 38.8049 51.0706C38.8199 52.0635 38.8727 53.0789 38.8275 54.1168C39.0083 55.1548 39.0008 56.2078 38.8501 57.2758C39.046 58.3439 38.9707 59.4345 38.8652 60.5401C38.8199 60.9914 38.8425 61.4427 38.8652 61.9015L38.8878 62.2475V62.4205L38.9028 62.5032V62.5183C38.9028 62.5183 38.9254 62.5784 38.9254 62.6161C38.9481 62.6161 38.9631 62.6311 39.0008 62.6612H39.0234H39.0912H39.3023C39.4454 62.6612 39.5886 62.6612 39.7318 62.6612C40.0182 62.6612 40.3046 62.6537 40.5985 62.6461C41.1788 62.6386 41.7591 62.6311 42.3394 62.6461C43.5075 62.7289 44.6907 62.8116 45.8889 62.6386C47.0872 62.5935 48.3005 62.5258 49.5214 62.6311C50.7423 62.4205 51.9782 62.5183 53.2292 62.6311C54.4727 62.5935 55.7312 62.7439 57.0049 62.6311C57.6379 62.6461 58.2785 62.6311 58.9115 62.6085C59.2281 62.6085 59.5521 62.5935 59.8686 62.5935H59.9892H60.0495C60.0495 62.5935 60.0646 62.5935 60.0796 62.5935C60.1023 62.5935 60.1249 62.6085 60.155 62.6161C60.155 62.6161 60.1701 62.5784 60.1776 62.5559V62.5108L60.1927 62.5032V62.4431L60.2002 62.3227C60.2153 61.9993 60.2228 61.6834 60.2228 61.3675C60.2228 60.7282 60.2153 60.0964 60.155 59.4646C60.0194 58.201 60.2078 56.9449 60.155 55.6963C60.351 54.4553 60.0947 53.2218 60.155 51.9958C60.1399 50.7773 60.2681 49.5663 60.1625 48.3704C60.1249 47.1745 60.0872 45.9937 60.1701 44.8278C59.8686 43.662 60.2454 42.5037 60.1852 41.368C60.3133 40.2322 60.1701 39.1115 60.2002 38.0059C60.1475 36.9002 60.3359 35.8096 60.2153 34.7416C60.2379 33.6735 60.1173 32.6205 60.2379 31.5826C60.0872 30.5446 60.366 29.5367 60.2605 28.5364C60.2605 27.5435 60.253 26.5658 60.2831 25.6105C60.3886 25.1668 60.4112 24.7305 60.3962 24.2943C60.3962 24.189 60.3886 24.0762 60.3811 23.9709V23.8129C60.3811 23.8129 60.366 23.7903 60.366 23.7828V23.7678L60.3585 23.7377C60.3434 23.655 60.3283 23.5873 60.3208 23.5196C60.2907 23.5196 60.2681 23.5196 60.2454 23.5196C60.2078 23.5196 60.1701 23.5196 60.1249 23.5196H60.0646H60.0495H60.0269H59.944C59.7179 23.5271 59.4918 23.5421 59.2733 23.5497C58.8286 23.5647 58.3915 23.5647 57.9544 23.4895C57.0878 23.4669 56.2437 23.3691 55.4223 23.4594C54.6008 23.497 53.8095 23.1209 53.0408 23.4293C52.2721 23.482 51.526 23.1886 50.8101 23.3992C50.0941 23.5948 49.4008 23.3767 48.7376 23.3691C48.0744 23.3541 47.4339 23.3466 46.831 23.3391C44.1028 23.2864 41.9475 23.2338 40.4854 23.1736C39.0159 23.1134 38.2396 23.0532 38.2396 22.9931C38.2396 22.9254 39.2043 22.8577 41.0054 22.79C42.7991 22.7298 45.4292 22.6696 48.7452 22.617C49.4083 22.6019 50.1017 22.444 50.8176 22.5869C51.5336 22.5869 52.2796 22.4666 53.0483 22.5568C53.817 22.3387 54.6159 22.5192 55.4298 22.5267C56.2512 22.5192 57.0953 22.5869 57.962 22.4966C58.3915 22.4365 58.8362 22.4515 59.2808 22.4666C59.4994 22.4741 59.7254 22.4891 59.9515 22.4891H60.1701H60.4489C60.6373 22.4891 60.8257 22.4816 61.0292 22.4666C61.1347 22.4741 61.2402 22.4816 61.3382 22.4966C61.3156 22.8727 61.293 23.2187 61.2854 23.5572C61.2854 23.6926 61.2854 23.8279 61.2854 23.9633C61.2854 24.0686 61.2854 24.1815 61.2854 24.2868C61.3005 24.723 61.3307 25.1592 61.391 25.603C61.2628 26.5582 61.4211 27.5285 61.4136 28.5289C61.2101 29.5217 61.3533 30.5371 61.4362 31.575C61.5115 32.613 61.406 33.666 61.4512 34.734C61.4136 35.8021 61.504 36.8927 61.4663 37.9984C61.5567 39.104 61.5944 40.2247 61.4814 41.3604C61.5492 42.4962 61.4965 43.6545 61.4965 44.8203C61.5718 45.9861 61.4889 47.167 61.504 48.3629C61.5492 49.5588 61.293 50.7698 61.5115 51.9883C61.5417 53.2067 61.4739 54.4402 61.5115 55.6888C61.4814 56.9374 61.4512 58.1934 61.5115 59.457C61.406 60.0889 61.3834 60.7282 61.3985 61.36C61.406 61.6759 61.4211 61.9993 61.4437 62.3152V62.4355L61.4588 62.4957V62.6085L61.4814 63.0523C61.4889 63.3607 61.504 63.6691 61.5115 63.9699C61.2101 63.9699 60.9086 63.985 60.6072 63.9925C60.3585 63.9925 60.1023 63.9925 59.8536 64.0075C59.5295 64.0075 59.213 64.0075 58.8965 64.0075C58.2559 64.0075 57.6228 63.985 56.9898 63.9699C55.7237 63.9925 54.4652 63.9774 53.2141 63.9699C51.9707 64.0301 50.7347 63.8797 49.5063 63.9699C48.2854 64.0602 47.0721 63.8721 45.8738 63.9624C44.6756 64.0226 43.4924 64.0602 42.3243 63.9549C41.7365 63.9549 41.1562 63.9022 40.5834 63.8797C40.297 63.8646 40.0107 63.8571 39.7167 63.8646C39.5736 63.8646 39.4304 63.8797 39.2872 63.8872C39.2194 63.8872 39.144 63.9022 39.0762 63.9097H39.0234L38.933 63.9248L38.737 63.9398C38.3527 63.9474 37.9608 63.9624 37.5463 63.9774C37.5237 63.5487 37.5086 63.1125 37.486 62.6837V62.5183L37.471 62.428V62.255C37.4559 62.1422 37.4483 62.0294 37.4483 61.909C37.4408 61.4502 37.471 60.9989 37.5991 60.5477C37.5237 59.442 37.7423 58.3514 37.6141 57.2834C37.8402 56.2153 37.6292 55.1623 37.6367 54.1243C37.682 53.0864 37.7573 52.0785 37.6594 51.0782C37.5539 50.0853 37.7196 49.1075 37.682 48.1523C37.5539 47.1971 37.8478 46.2644 37.7046 45.3543C37.7347 44.4442 37.682 43.5567 37.7272 42.6842C37.4257 41.8192 37.7272 40.9768 37.7573 40.157C37.8025 39.3372 37.5614 38.5474 37.7875 37.7727C37.5614 37.0055 37.7573 36.2609 37.8176 35.5464C37.8854 34.8318 37.7196 34.1398 37.8478 33.478C37.6895 32.8161 37.9382 32.1843 37.8779 31.575C37.9834 30.9658 37.8779 30.3942 37.9081 29.8451C37.8704 29.296 37.8854 28.7771 37.9457 28.2957C37.9608 27.8068 37.9683 27.3555 37.9834 26.9268C38.0588 24.3845 38.1341 22.9931 38.2246 22.9931L38.2321 22.9855Z" fill="#0061EF"/>
<path d="M3.98797 22.9855C4.07087 22.9855 4.15377 24.377 4.22913 26.9192C4.23667 27.3404 4.25174 27.7992 4.26681 28.2881C4.28942 28.777 4.31203 29.296 4.30449 29.8375C4.19145 30.3866 4.50797 30.9658 4.34217 31.5675C4.28942 32.1767 4.34217 32.8085 4.37232 33.4704C4.41 34.1323 4.30449 34.8243 4.40246 35.5388C4.61348 36.2533 4.1613 36.998 4.43261 37.7651C4.4929 38.5323 4.47782 39.3296 4.46275 40.1419C4.29696 40.9618 4.46275 41.8042 4.4929 42.6691C4.29696 43.5341 4.37985 44.4216 4.51551 45.3317C4.2442 46.2418 4.28188 47.1745 4.53811 48.1297C4.54565 49.0849 4.44014 50.0627 4.56072 51.0555C4.5758 52.0484 4.62855 53.0638 4.58333 54.1017C4.7642 55.1397 4.75667 56.1927 4.5984 57.2607C4.79435 58.3288 4.71898 59.4194 4.61348 60.525C4.56826 60.9763 4.59087 61.4276 4.61348 61.8864L4.63609 62.2324V62.4054L4.65116 62.4881V62.5032C4.65116 62.5032 4.67377 62.5634 4.67377 62.601C4.69638 62.601 4.71898 62.616 4.74913 62.6461H4.77174H4.83956H5.05058C5.19377 62.6461 5.33696 62.6461 5.48014 62.6461C5.76652 62.6461 6.0529 62.6386 6.34681 62.631C6.9271 62.6235 7.50739 62.616 8.08768 62.631C9.2558 62.7138 10.4465 62.7965 11.6372 62.6235C12.8355 62.5784 14.0488 62.5107 15.2697 62.616C16.4906 62.4054 17.7265 62.5032 18.9775 62.616C20.221 62.5784 21.4796 62.7288 22.7532 62.616C23.3862 62.631 24.0268 62.616 24.6599 62.5934C24.9764 62.5934 25.3004 62.5784 25.617 62.5784H25.7375H25.7978C25.7978 62.5784 25.8129 62.5784 25.828 62.5784C25.8506 62.5784 25.8732 62.5934 25.9109 62.601C25.9109 62.601 25.9259 62.5634 25.9335 62.5408V62.4957L25.9486 62.4881V62.428V62.3076C25.9636 61.9842 25.9712 61.6683 25.9787 61.3524C25.9787 60.7131 25.9712 60.0813 25.9109 59.4495C25.7752 58.1859 25.9636 56.9298 25.9109 55.6812C26.1068 54.4402 25.8506 53.2067 25.9109 51.9807C25.8883 50.7622 26.0239 49.5513 25.9184 48.3553C25.8807 47.1594 25.843 45.9786 25.9259 44.8127C25.6245 43.6469 26.0013 42.4886 25.941 41.3529C26.0691 40.2171 25.9184 39.0889 25.9561 37.9833C25.9033 36.8776 26.0917 35.787 25.9712 34.719C25.9938 33.6509 25.8732 32.5979 25.9938 31.5599C25.843 30.5295 26.1143 29.5066 26.0164 28.5138C26.0164 27.5209 26.0088 26.5431 26.039 25.5879C26.1445 25.1442 26.1671 24.7079 26.152 24.2792C26.152 24.1739 26.1445 24.0611 26.137 23.9558V23.7978L26.1219 23.7752V23.7602L26.1143 23.7301C26.0993 23.6474 26.0842 23.5797 26.0767 23.512C26.0465 23.512 26.0239 23.512 26.0013 23.512C25.9636 23.512 25.9259 23.512 25.8807 23.512H25.8204H25.8054C25.8054 23.512 25.8054 23.512 25.7828 23.512H25.6999C25.4738 23.527 25.2477 23.5346 25.0291 23.5421C24.5845 23.5571 24.1474 23.5571 23.7103 23.4819C22.8436 23.4593 21.9996 23.3616 21.1781 23.4518C20.3567 23.4894 19.5654 23.1134 18.7967 23.4217C18.028 23.4744 17.2819 23.1811 16.5659 23.3917C15.85 23.5872 15.1567 23.3691 14.4935 23.3616C13.8303 23.3465 13.1897 23.339 12.5868 23.3315C9.85116 23.2788 7.70333 23.2262 6.2413 23.166C4.77174 23.1058 3.99551 23.0457 3.99551 22.9855C3.99551 22.9178 4.96014 22.8501 6.7613 22.7824C8.55493 22.7222 11.1851 22.6621 14.501 22.6094C15.1642 22.5944 15.8575 22.4364 16.5735 22.5793C17.2894 22.5793 18.0355 22.459 18.8042 22.5493C19.5729 22.3311 20.3717 22.5116 21.1857 22.5192C22.0071 22.5116 22.8512 22.5793 23.7178 22.4891C24.1549 22.4289 24.592 22.444 25.0367 22.459C25.2628 22.4665 25.4813 22.4816 25.7074 22.4816H25.9184H26.1972C26.3857 22.4816 26.5741 22.474 26.7775 22.459C26.883 22.4665 26.9886 22.474 27.0941 22.4891C27.0715 22.8652 27.0488 23.2111 27.0413 23.5496C27.0413 23.685 27.0413 23.8204 27.0338 23.9558C27.0338 24.0611 27.0338 24.1739 27.0338 24.2792C27.0413 24.7079 27.079 25.1517 27.1393 25.5879C27.0112 26.5431 27.1694 27.5209 27.1619 28.5138C26.9584 29.5066 27.1016 30.522 27.1845 31.5599C27.2599 32.5979 27.1543 33.6509 27.2071 34.719C27.1694 35.787 27.2599 36.8776 27.2222 37.9833C27.3126 39.0889 27.3503 40.2096 27.2372 41.3529C27.2975 42.4886 27.2523 43.6469 27.2523 44.8127C27.3352 45.9786 27.2448 47.1594 27.2599 48.3553C27.3051 49.5513 27.0488 50.7622 27.2674 51.9807C27.2975 53.1992 27.2297 54.4327 27.2674 55.6812C27.2372 56.9298 27.2146 58.1784 27.2674 59.4495C27.1619 60.0813 27.1393 60.7206 27.1543 61.3524C27.1619 61.6683 27.1845 61.9917 27.1996 62.3076V62.428L27.2146 62.4881V62.5934L27.2372 63.0372C27.2523 63.3456 27.2599 63.654 27.2674 63.9548C26.9659 63.9548 26.6645 63.9699 26.363 63.9774C26.1143 63.9774 25.8581 63.9774 25.6094 63.9924C25.2854 63.9924 24.9688 63.9924 24.6523 63.9924C24.0117 63.9924 23.3787 63.9699 22.7457 63.9548C21.4796 63.9774 20.221 63.9623 18.97 63.9548C17.7265 64.015 16.4906 63.8646 15.2622 63.9548C14.0413 64.0451 12.828 63.857 11.6297 63.9473C10.4314 64.0075 9.24826 64.0451 8.08014 63.9398C7.49232 63.9398 6.91203 63.8871 6.33927 63.8646C6.0529 63.8495 5.76652 63.842 5.47261 63.8495C5.32942 63.8495 5.18623 63.8646 5.04304 63.8721C4.97522 63.8721 4.89985 63.8871 4.83203 63.8947H4.77927L4.68884 63.9097L4.4929 63.9247C4.10855 63.9323 3.70913 63.9473 3.30217 63.9623C3.27956 63.5336 3.26449 63.0974 3.24188 62.6687V62.5032L3.22681 62.4129V62.2399C3.21174 62.1271 3.2042 62.0143 3.2042 61.8939C3.19667 61.4351 3.22681 60.9839 3.35493 60.5326C3.27956 59.4269 3.49811 58.3363 3.37 57.2683C3.58855 56.2002 3.37753 55.1472 3.39261 54.1093C3.43782 53.0713 3.51319 52.0559 3.41522 51.0631C3.30971 50.0702 3.47551 49.0924 3.43782 48.1372C3.30971 47.182 3.60362 46.2493 3.46043 45.3392C3.49058 44.4291 3.43782 43.5416 3.49058 42.6766C3.18913 41.8117 3.49058 40.9693 3.52072 40.1494C3.56594 39.3296 3.32478 38.5399 3.55087 37.7727C3.32478 37.0055 3.52072 36.2609 3.58101 35.5463C3.64884 34.8318 3.48304 34.1398 3.61116 33.4779C3.4529 32.816 3.70159 32.1842 3.6413 31.575C3.74681 30.9658 3.6413 30.3941 3.67898 29.8451C3.6413 29.296 3.65638 28.777 3.71667 28.2956C3.73174 27.8067 3.73927 27.3555 3.75435 26.9267C3.82971 24.3845 3.90507 22.993 3.98797 22.993V22.9855Z" fill="#0061EF"/>
<path d="M26.5883 15.8628C26.6712 15.8628 26.7541 17.1715 26.8219 19.5558C26.837 19.9544 26.8445 20.3832 26.8596 20.842C26.8822 21.3008 26.9048 21.7821 26.8973 22.3011C26.7842 22.8126 27.1008 23.3541 26.935 23.9258C26.8822 24.4974 26.935 25.0916 26.9651 25.7159C27.0028 26.3401 26.8973 26.987 26.9953 27.6564C27.2138 28.3333 26.7541 29.0253 27.0254 29.7474C27.0857 30.4694 27.0706 31.214 27.0556 31.9812C26.8898 32.7484 27.0555 33.5382 27.0857 34.358C26.8898 35.1703 26.9727 36.0052 27.1158 36.8626C26.8445 37.7201 26.8822 38.5926 27.1384 39.4952C27.146 40.3902 27.0405 41.3078 27.1611 42.248C27.1761 43.1807 27.2289 44.1359 27.1837 45.1062C27.3645 46.0764 27.357 47.0693 27.2063 48.0771C27.4022 49.085 27.3269 50.1079 27.2213 51.1459C27.1083 52.1838 27.3947 53.2368 27.2364 54.3049C27.2213 55.3729 27.2816 56.456 27.2515 57.5542C27.1686 58.6523 27.0857 59.7655 27.2666 60.8862C27.2816 61.2848 27.2967 61.6834 27.3118 62.0821V62.3829L27.3193 62.4581V62.4957C27.3193 62.4957 27.3193 62.4957 27.3193 62.5033V62.5183C27.3193 62.5183 27.3193 62.5484 27.3193 62.571C27.3344 62.571 27.3419 62.5785 27.357 62.586L27.3871 62.601C27.3871 62.601 27.4098 62.601 27.4324 62.601H27.4927L27.6208 62.6161C28.7738 62.4055 29.9344 62.5033 31.1025 62.6161C32.2706 62.5785 33.4538 62.7289 34.6521 62.6161C35.2474 62.6311 35.8503 62.6161 36.4457 62.5935C36.7471 62.5935 37.0486 62.5785 37.35 62.5785H37.4631C37.4631 62.5785 37.4782 62.5785 37.4857 62.5785C37.4857 62.5785 37.5008 62.5785 37.5083 62.5785C37.5234 62.5785 37.5535 62.5935 37.5837 62.601C37.5837 62.601 37.5987 62.571 37.6063 62.5484V62.5108C37.6063 62.5108 37.6213 62.5108 37.6213 62.4807V62.3679C37.6364 62.067 37.6515 61.7662 37.6515 61.4653C37.659 60.8636 37.6515 60.2694 37.5837 59.6752C37.448 58.4868 37.6364 57.3059 37.5837 56.1326C37.7796 54.9593 37.5234 53.801 37.5837 52.6577C37.5611 51.5069 37.6967 50.3712 37.5912 49.2505C37.5535 48.1298 37.5158 47.0166 37.5987 45.9185C37.2973 44.8203 37.6741 43.7373 37.6138 42.6692C37.7419 41.6012 37.5912 40.5482 37.6289 39.5102C37.5686 38.4722 37.7645 37.4493 37.644 36.4415C37.6666 35.4336 37.546 34.4483 37.659 33.4705C37.5083 32.5002 37.7871 31.545 37.6816 30.6123C37.6816 29.6797 37.6741 28.7621 37.7042 27.867C37.9379 26.9719 37.7419 26.0919 37.7269 25.2345C37.7495 24.377 37.5987 23.5422 37.757 22.7298C37.7721 21.9175 37.8776 21.1278 37.7871 20.3531C37.7495 19.5859 38.1263 18.8413 37.8173 18.1192C37.7871 17.7582 37.8474 17.4047 37.8927 17.0512C37.9002 16.9684 37.9153 16.8782 37.9153 16.7879V16.66L37.9228 16.6149V16.5773C37.9228 16.4795 37.9002 16.3817 37.8474 16.3366C37.8324 16.3216 37.8173 16.3065 37.8098 16.2915C37.7118 16.3216 37.6515 16.3291 37.5912 16.3291C37.5611 16.3291 37.5309 16.3291 37.5008 16.3216C37.4857 16.3216 37.4782 16.3216 37.448 16.3141H37.335C37.0411 16.2689 36.7471 16.2238 36.4608 16.2238C35.8353 16.2088 35.2399 16.2012 34.6671 16.1937C32.0973 16.1411 30.0851 16.0884 28.706 16.0282C27.3269 15.9681 26.5958 15.9079 26.5958 15.8477C26.5958 15.78 27.5077 15.7123 29.1883 15.6446C30.8764 15.5845 33.3408 15.5243 36.4608 15.4717C36.7471 15.4717 37.0411 15.4265 37.335 15.404H37.448L37.6213 15.3889C37.7419 15.3889 37.8625 15.3889 37.9831 15.3889C38.2242 15.3889 38.4729 15.3889 38.6915 15.419C38.684 15.5168 38.6764 15.607 38.6613 15.7048C38.6613 15.9605 38.6689 16.2163 38.6764 16.487V16.6751L38.6915 16.8029C38.6915 16.8857 38.699 16.9759 38.7066 17.0662C38.7292 17.4122 38.7367 17.7732 38.684 18.1342C38.9025 18.8563 38.7216 19.6009 38.7141 20.3681C38.7216 21.1353 38.6538 21.9251 38.7442 22.7449C38.8724 23.5572 38.684 24.3921 38.7669 25.2495C38.6312 26.107 38.6689 26.9795 38.7895 27.882C38.6613 28.7771 38.8196 29.6947 38.8121 30.6274C38.6086 31.56 38.7518 32.5153 38.8347 33.4855C38.91 34.4558 38.8045 35.4486 38.8573 36.449C38.8196 37.4568 38.91 38.4798 38.8724 39.5177C38.9628 40.5557 39.0005 41.6087 38.8874 42.6767C38.9477 43.7448 38.9025 44.8279 38.9025 45.926C38.9854 47.0241 38.895 48.1373 38.91 49.258C38.9553 50.3787 38.699 51.5144 38.9176 52.6652C38.9477 53.816 38.8799 54.9743 38.9176 56.1401C38.8874 57.3059 38.8573 58.4868 38.9176 59.6827C38.8121 60.2769 38.7895 60.8786 38.8045 61.4728C38.8121 61.7737 38.8347 62.0745 38.8498 62.3754V62.4882L38.8648 62.6838L38.8799 63.105C38.8874 63.3908 38.9025 63.6841 38.91 63.97C38.6312 63.97 38.3448 63.985 38.066 63.9925C37.8173 63.9925 37.5611 63.9925 37.3124 64.0076C37.0109 64.0076 36.7095 64.0076 36.408 64.0076C35.8051 64.0076 35.2098 63.985 34.6144 63.97C33.4237 63.9925 32.2405 63.9775 31.0648 63.97C29.8892 64.0301 28.7286 63.8797 27.5831 63.97H27.455L27.3947 63.985H27.3118L26.8295 63.9925C26.5054 63.9925 26.1813 63.9925 25.8648 63.9925C25.8724 63.6089 25.8799 63.2253 25.8874 62.8493V62.571L25.9025 62.398L25.9176 62.0971C25.9327 61.6985 25.9327 61.2998 25.9025 60.9012C25.8422 59.7805 25.8045 58.6673 25.91 57.5692C25.91 56.4711 26.106 55.388 25.9251 54.3199C25.8799 53.2519 25.6387 52.1989 25.9402 51.1609C25.8648 50.123 26.0909 49.1 25.9553 48.0922C26.1738 47.0843 25.9628 46.099 25.9703 45.1212C26.0155 44.1509 26.0909 43.1957 25.9929 42.263C25.8874 41.3304 26.0532 40.4128 26.0156 39.5102C25.8874 38.6151 26.1813 37.7351 26.0382 36.8777C26.0683 36.0202 26.0156 35.1854 26.0608 34.3731C25.7593 33.5607 26.0608 32.771 26.0909 31.9963C26.1361 31.2291 25.895 30.4845 26.1211 29.7624C25.895 29.0403 26.0909 28.3409 26.1512 27.6714C26.219 27.002 26.0532 26.3477 26.1813 25.7309C26.0231 25.1066 26.2718 24.5124 26.2115 23.9408C26.317 23.3692 26.2115 22.8276 26.2416 22.3162C26.204 21.8047 26.219 21.3158 26.2793 20.857C26.2944 20.3982 26.3019 19.9695 26.317 19.5708C26.3924 17.1865 26.4677 15.8778 26.5582 15.8778L26.5883 15.8628Z" fill="#0061EF"/>
<path d="M38.2312 15.8628C38.3141 15.8628 38.397 16.5924 38.4724 17.9387C38.4799 18.1644 38.495 18.4051 38.5101 18.6608C38.5327 18.9165 38.5553 19.1873 38.5478 19.4806C38.4347 19.7664 38.7512 20.0748 38.5854 20.3907C38.5327 20.7141 38.5854 21.0451 38.6156 21.3911C38.6382 21.5641 38.6156 21.7446 38.608 21.9251C38.608 22.0154 38.6005 22.1056 38.608 22.2034C38.608 22.256 38.6231 22.3087 38.6533 22.3463C38.7512 22.3914 38.7136 22.4516 38.6683 22.5795C38.6909 22.6096 38.7286 22.6396 38.7889 22.6472C38.8492 22.6472 38.9321 22.6321 38.9924 22.5644H39.0301L39.0451 22.5494H39.0828L39.2336 22.5343C39.3391 22.5343 39.4446 22.5268 39.5425 22.5268C39.7536 22.5268 39.9646 22.5268 40.1831 22.5419C40.6127 22.7073 41.0573 22.5419 41.517 22.5118C41.9767 22.7073 42.444 22.6246 42.9263 22.4892C43.4086 22.76 43.8985 22.7224 44.4034 22.4666C44.9083 22.4591 45.4208 22.5644 45.9483 22.4441C46.4759 22.429 47.0109 22.3764 47.5611 22.4215C48.1037 22.241 48.6614 22.2485 49.2341 22.4065C49.7994 22.2109 50.3721 22.2861 50.9599 22.3914C51.5478 22.4967 52.1356 22.2184 52.7385 22.3764C53.3414 22.3914 53.9518 22.3313 54.5622 22.3613C55.1802 22.4441 55.8057 22.5268 56.4388 22.3538C57.0718 22.3087 57.7124 22.241 58.353 22.3538C59.0011 22.1432 59.6492 22.241 60.3124 22.3538C60.968 22.3162 61.6312 22.4666 62.302 22.3538C62.6336 22.3689 62.9727 22.3538 63.3118 22.3313H63.5454C63.5454 22.3313 63.5605 22.3162 63.568 22.3162C63.5831 22.3162 63.6057 22.3237 63.6509 22.3463C63.6509 22.3463 63.6811 22.3162 63.6962 22.2861C63.6962 22.2711 63.7112 22.256 63.7112 22.2335C63.7112 22.2335 63.7112 22.2034 63.7112 22.1884V22.1282V22.0003C63.7188 21.6619 63.7112 21.3309 63.6434 20.9924C63.5078 20.323 63.6962 19.6611 63.6434 19.0068C63.8393 18.3524 63.5831 17.698 63.6434 17.0587C63.6434 16.9609 63.6434 16.8632 63.6434 16.7654V16.6902V16.6751L63.6509 16.645C63.6585 16.6074 63.6736 16.5623 63.6811 16.5097C63.6359 16.5021 63.5605 16.5097 63.5153 16.5473C63.5228 16.5473 63.4701 16.5473 63.4324 16.5473H63.3118L63.0782 16.5623C62.9199 16.5623 62.7617 16.5774 62.6109 16.5774C62.302 16.5774 61.9854 16.5698 61.6764 16.5247C61.0585 16.8256 60.448 16.4495 59.8527 16.5097C59.2498 16.3818 58.6544 16.5247 58.0741 16.4946C57.4863 16.5473 56.9135 16.3592 56.3483 16.4796C55.7831 16.457 55.2254 16.5774 54.6753 16.4645C54.1327 16.615 53.5901 16.3367 53.0701 16.442C52.5425 16.442 52.0301 16.4495 51.5251 16.4194C51.0202 16.1862 50.5304 16.3818 50.048 16.3968C49.5657 16.3743 49.0985 16.5322 48.6388 16.3743C48.1791 16.3517 47.7344 16.2539 47.3049 16.3442C46.8753 16.3818 46.4533 16.0057 46.0463 16.3141C45.6393 16.3668 45.2475 16.0734 44.8707 16.284C44.4938 16.4796 44.1246 16.2615 43.7779 16.2539C43.4312 16.2389 43.0921 16.2314 42.7756 16.2238C39.8967 16.1261 38.2388 16.0057 38.2388 15.8779C38.2388 15.7349 40.2811 15.6071 43.7779 15.5018C44.1246 15.4943 44.4938 15.3288 44.8707 15.4717C45.2475 15.4717 45.6393 15.3438 46.0463 15.4416C46.4533 15.2235 46.8678 15.404 47.3049 15.4115C47.7344 15.404 48.1791 15.4717 48.6388 15.3814C49.0985 15.2536 49.5657 15.4416 50.048 15.3589C50.5304 15.4943 51.0202 15.4567 51.5251 15.3363C52.0301 15.4642 52.5425 15.3062 53.0701 15.3137C53.5976 15.5093 54.1327 15.3739 54.6753 15.2912C55.2254 15.216 55.7756 15.3213 56.3408 15.2761C56.906 15.3137 57.4863 15.2235 58.0666 15.2611C58.6469 15.1633 59.2423 15.1332 59.8451 15.2461C60.448 15.1784 61.0585 15.231 61.6689 15.231C61.9779 15.1934 62.2869 15.1934 62.6034 15.2009C62.7617 15.2009 62.9124 15.2084 63.0707 15.216H63.3043H63.5756C64.0353 15.2009 64.495 15.231 64.917 15.2536C64.8944 15.6296 64.8718 15.9756 64.8718 16.3216C64.8718 16.4044 64.8718 16.4946 64.8718 16.5774V16.6375V16.6676V16.6827L64.8869 16.7579C64.902 16.8556 64.9246 16.9534 64.9547 17.0512C64.9849 17.698 64.917 18.3449 64.9547 18.9993C64.9246 19.6536 64.8944 20.3155 64.9547 20.9849C64.8492 21.3159 64.8266 21.6543 64.8417 21.9928C64.8793 22.5569 64.917 23.1285 64.9547 23.7002C64.6533 23.7152 64.3292 23.7302 64.0051 23.7302H63.5153H63.244C62.9049 23.7302 62.5733 23.7077 62.2341 23.6926C61.5634 23.7152 60.9002 23.7002 60.2446 23.6926C59.5889 23.7603 58.9333 23.6024 58.2851 23.6926C57.637 23.7829 57.004 23.5949 56.3709 23.6851C55.7379 23.7453 55.1124 23.7829 54.4944 23.6701C53.8764 23.6701 53.266 23.4745 52.6707 23.655C52.0678 23.7002 51.4799 23.9408 50.8921 23.64C50.3043 23.7152 49.7315 23.4971 49.1663 23.6249C48.6011 23.4068 48.0434 23.6174 47.4933 23.6024C46.9431 23.5573 46.408 23.482 45.8805 23.5798C45.353 23.6851 44.8405 23.5196 44.3356 23.5573C43.8307 23.6851 43.3408 23.3918 42.8585 23.5347C42.3762 23.5046 41.9089 23.5573 41.4492 23.5046C40.9895 23.8055 40.5449 23.5046 40.1153 23.4745C39.8967 23.452 39.6857 23.5046 39.4747 23.5272C39.3692 23.5422 39.2637 23.5497 39.1657 23.5347C39.113 23.5347 39.0602 23.5196 39.015 23.5046L38.9773 23.4896L38.917 23.4745C38.8793 23.4595 38.8341 23.452 38.7965 23.4369C38.4121 23.5648 37.9825 23.5573 37.666 23.5196C37.6962 23.1962 37.7489 22.8954 37.7791 22.6246C37.7941 22.4742 37.7941 22.3313 37.7941 22.1959C37.7941 22.1056 37.7791 22.0154 37.7715 21.9176C37.7564 21.7371 37.7489 21.5566 37.8092 21.3836C37.6509 21.0376 37.8996 20.6991 37.8393 20.3832C37.9449 20.0673 37.8393 19.7589 37.8695 19.4731C37.8318 19.1873 37.8469 18.909 37.9072 18.6533C37.9222 18.3975 37.9298 18.1569 37.9449 17.9312C38.0202 16.5924 38.0956 15.8553 38.186 15.8553L38.2312 15.8628Z" fill="#0061EF"/>
<path d="M0.518342 15.8628C0.601241 15.8628 0.684139 16.5924 0.759502 17.9387C0.774574 18.1644 0.78211 18.4051 0.797183 18.6608C0.819792 18.9165 0.8424 19.1873 0.834864 19.4806C0.721821 19.7664 1.03834 20.0748 0.865009 20.3907C0.819792 20.7141 0.865009 21.0451 0.895154 21.3911C0.917763 21.5641 0.895154 21.7446 0.895154 21.9251C0.895154 22.0154 0.895154 22.1056 0.895154 22.2034C0.895154 22.256 0.910226 22.3087 0.940371 22.3463C1.03834 22.3914 1.00066 22.4516 0.955444 22.5795C0.978052 22.6096 1.01573 22.6396 1.07602 22.6472C1.12878 22.6472 1.21168 22.6321 1.2795 22.5644H1.31718L1.33226 22.5494H1.36994L1.52066 22.5343C1.62617 22.5343 1.72414 22.5268 1.82965 22.5268C2.04066 22.5268 2.25168 22.5268 2.47023 22.5419C2.89979 22.7073 3.35197 22.5419 3.80414 22.5118C4.26385 22.7073 4.7311 22.6246 5.21341 22.4892C5.69573 22.76 6.18559 22.7224 6.69052 22.4666C7.19544 22.4591 7.70791 22.5644 8.23544 22.4441C8.76298 22.429 9.29805 22.3764 9.84066 22.4215C10.3908 22.241 10.941 22.2485 11.5062 22.4065C12.0714 22.2109 12.6441 22.2861 13.232 22.3914C13.8198 22.4967 14.4076 22.2184 15.0105 22.3764C15.6134 22.3914 16.2238 22.3313 16.8418 22.3613C17.4598 22.4441 18.0853 22.5268 18.7183 22.3538C19.3514 22.3087 19.992 22.241 20.6325 22.3538C21.2807 22.1432 21.9288 22.241 22.5844 22.3538C23.2401 22.3162 23.9033 22.4666 24.574 22.3538C24.9056 22.3689 25.2447 22.3538 25.5839 22.3313H25.8175C25.8175 22.3313 25.8325 22.3162 25.8401 22.3162C25.8552 22.3162 25.8778 22.3237 25.923 22.3463C25.923 22.3463 25.9531 22.3162 25.9682 22.2861C25.9682 22.2711 25.9833 22.256 25.9833 22.2335C25.9833 22.2335 25.9833 22.2034 25.9833 22.1884V22.1282V22.0003C25.9833 21.6619 25.9757 21.3309 25.9154 20.9924C25.7798 20.323 25.9682 19.6611 25.9154 19.0068C26.1114 18.3524 25.8552 17.698 25.9154 17.0587C25.9154 16.9609 25.9154 16.8632 25.9154 16.7654V16.6902V16.6751L25.923 16.645C25.9305 16.6074 25.9456 16.5623 25.9531 16.5097C25.9079 16.5021 25.8325 16.5097 25.7873 16.5473C25.7873 16.5473 25.7421 16.5473 25.7044 16.5473H25.5839L25.3502 16.5623C25.192 16.5623 25.0337 16.5774 24.883 16.5774C24.574 16.5774 24.2575 16.5698 23.9485 16.5247C23.3305 16.8256 22.7201 16.4495 22.1172 16.5097C21.5143 16.3818 20.9265 16.5247 20.3386 16.4946C19.7583 16.5473 19.1781 16.3592 18.6128 16.4796C18.0476 16.457 17.4899 16.5774 16.9473 16.4645C16.3972 16.615 15.8621 16.3367 15.3346 16.442C14.807 16.442 14.2946 16.4495 13.7896 16.4194C13.2847 16.1862 12.7949 16.3818 12.3125 16.3968C11.8302 16.3743 11.363 16.5322 10.9033 16.3743C10.4436 16.3517 9.99892 16.2539 9.56936 16.3442C9.13979 16.3818 8.71776 16.0057 8.31081 16.3141C7.90385 16.3668 7.51197 16.0734 7.13515 16.284C6.75834 16.4796 6.38907 16.2615 6.0424 16.2539C5.69573 16.2389 5.3566 16.2314 5.04008 16.2238C2.16124 16.1261 0.50327 16.0057 0.50327 15.8779C0.50327 15.7349 2.54559 15.6071 6.0424 15.5018C6.3966 15.4943 6.75834 15.3288 7.13515 15.4717C7.51197 15.4717 7.90385 15.3438 8.31081 15.4416C8.71776 15.2235 9.13979 15.404 9.56936 15.4115C9.99892 15.404 10.4511 15.4717 10.9033 15.3814C11.363 15.2536 11.8302 15.4416 12.3125 15.3589C12.7949 15.4943 13.2847 15.4567 13.7896 15.3363C14.2946 15.4642 14.807 15.3062 15.3346 15.3137C15.8621 15.5093 16.3972 15.3739 16.9473 15.2912C17.4899 15.216 18.0476 15.3213 18.6128 15.2761C19.1781 15.3137 19.7508 15.2235 20.3386 15.2611C20.9265 15.1633 21.5143 15.1332 22.1172 15.2461C22.7201 15.1784 23.3305 15.231 23.9485 15.231C24.2575 15.1934 24.5665 15.1934 24.883 15.2009C25.0412 15.2009 25.192 15.2084 25.3502 15.216H25.5839H25.8552C26.3149 15.2009 26.7746 15.231 27.1966 15.2536C27.174 15.6296 27.1514 15.9756 27.1514 16.3216C27.1514 16.4044 27.1514 16.4946 27.1514 16.5774V16.6375V16.6676V16.6827L27.1589 16.7579C27.174 16.8556 27.1966 16.9534 27.2267 17.0512C27.2569 17.6905 27.1891 18.3449 27.2267 18.9993C27.1966 19.6536 27.174 20.3155 27.2267 20.9849C27.1212 21.3159 27.0986 21.6543 27.1137 21.9928C27.1514 22.5569 27.1891 23.1285 27.2267 23.7002C26.9253 23.7152 26.6012 23.7302 26.2772 23.7302H25.7873H25.516C25.1769 23.7302 24.8453 23.7077 24.5062 23.6926C23.8354 23.7152 23.1723 23.7002 22.5166 23.6926C21.861 23.7603 21.2053 23.6024 20.5647 23.6926C19.9166 23.7829 19.2836 23.5949 18.6505 23.6851C18.0175 23.7453 17.392 23.7829 16.774 23.6701C16.156 23.6701 15.5456 23.4745 14.9427 23.655C14.3398 23.7002 13.752 23.9408 13.1641 23.64C12.5838 23.7152 12.0036 23.4971 11.4383 23.6249C10.8731 23.4068 10.3154 23.6174 9.77284 23.6024C9.23023 23.5573 8.68762 23.482 8.16762 23.5798C7.64008 23.6851 7.12762 23.5196 6.62269 23.5573C6.11776 23.6851 5.62791 23.3918 5.14559 23.5347C4.66327 23.5046 4.19602 23.5573 3.73631 23.5046C3.2766 23.8055 2.83197 23.5046 2.4024 23.4745C2.18385 23.452 1.97284 23.5046 1.76182 23.5272C1.65631 23.5422 1.55081 23.5497 1.45284 23.5347C1.40008 23.5347 1.34733 23.5196 1.30211 23.5046L1.26443 23.4896L1.20414 23.4745C1.16646 23.4595 1.12124 23.452 1.08356 23.4369C0.699212 23.5648 0.269647 23.5573 -0.046875 23.5196C-0.0167301 23.1962 0.0360236 22.8954 0.0661685 22.6246C0.0812409 22.4742 0.0812409 22.3313 0.0812409 22.1959C0.0812409 22.1056 0.0661685 22.0154 0.0586322 21.9176C0.0435598 21.7371 0.0360236 21.5566 0.0963134 21.3836C-0.0619475 21.0376 0.186748 20.6991 0.126458 20.3832C0.231966 20.0673 0.126458 19.7589 0.156603 19.4731C0.118922 19.1873 0.133995 18.909 0.194284 18.6533C0.209357 18.3975 0.216893 18.1569 0.231966 17.9312C0.307328 16.5924 0.38269 15.8553 0.465589 15.8553L0.518342 15.8628Z" fill="#0061EF"/>
<path d="M39.7078 15.8477C39.7078 15.9305 39.135 16.0132 38.0875 16.0809C37.9142 16.0959 37.7257 16.1034 37.5223 16.1185C37.3188 16.1411 37.1078 16.1636 36.8817 16.1561C36.6556 16.0433 36.422 16.3592 36.1657 16.1937C35.917 16.1486 35.6533 16.1937 35.382 16.2238C35.1107 16.2614 34.8243 16.1561 34.5304 16.2539C34.3797 16.3592 34.2289 16.299 34.0782 16.2539C33.9727 16.2238 33.8597 16.2012 33.7542 16.2012C33.6411 16.2012 33.5281 16.2238 33.3623 16.2915C33.0985 16.3216 32.8272 16.3291 32.5634 16.3366C32.4956 16.3366 32.4353 16.3366 32.3675 16.3366H32.3223V16.3216V16.299L32.3675 16.2012C32.4127 16.0734 32.4579 15.9455 32.5107 15.8176C32.6991 15.5168 32.7744 15.2987 32.8347 15.0504C32.8498 14.9903 32.8649 14.9226 32.8799 14.8624L32.9026 14.7646C32.9026 14.7646 32.9176 14.6894 32.9176 14.6744C32.9327 14.5841 32.9478 14.4939 32.9628 14.4111C33.2718 14.1403 33.3246 13.7718 33.3321 13.3656C33.7165 13.1099 33.8295 12.7414 33.7466 12.275C33.822 12.087 33.9199 11.914 34.0104 11.7335C34.1084 11.553 34.1913 11.3649 34.2214 11.1543C34.2968 10.9588 34.3721 10.7632 34.455 10.5677C34.5379 10.3721 34.6359 10.1841 34.7565 9.99603C34.7715 9.76287 34.8318 9.54474 34.9373 9.34919C35.0428 9.15363 35.186 8.98064 35.3669 8.82268C35.4121 8.33379 35.7211 7.97276 36.0527 7.6343C36.2185 7.4613 36.3165 7.2507 36.4144 7.03258C36.5199 6.81446 36.6179 6.59634 36.8214 6.44591C37.1153 6.06984 37.3565 5.63359 37.6956 5.27256C38.0649 4.9341 38.4643 4.62572 38.6753 4.1293C38.8336 3.93374 38.9994 3.73066 39.1727 3.53511C39.3536 3.34707 39.557 3.1816 39.7831 3.04621C40.0394 2.54228 40.5217 2.2715 41.0266 2.05338C41.0794 2.00825 41.1321 1.97065 41.1849 1.92552C41.2452 1.88791 41.2979 1.85782 41.3582 1.82022C41.4788 1.75252 41.5994 1.68483 41.7199 1.62466C41.8405 1.55697 41.9611 1.4968 42.0817 1.4291C42.2023 1.36141 42.3153 1.27867 42.4208 1.18842C42.677 1.07559 42.9182 0.932687 43.1669 0.804822C43.295 0.74465 43.4231 0.684479 43.5588 0.631829C43.6266 0.609264 43.6944 0.579178 43.7623 0.564136C43.8301 0.549093 43.9055 0.53405 43.9733 0.519007C44.1089 0.488921 44.2521 0.458835 44.3953 0.42875C44.5385 0.406185 44.6742 0.383621 44.8173 0.353535C44.8852 0.338492 44.953 0.323449 45.0208 0.300885C45.0886 0.285842 45.1565 0.270799 45.2318 0.255756C45.3675 0.22567 45.5031 0.17302 45.6463 0.127892C45.9252 0.0376343 46.2115 0.0150699 46.4979 0.0451557C46.6411 0.0526772 46.7843 0.06772 46.9275 0.0902844C47.0707 0.112849 47.2139 0.12037 47.357 0.12037C47.4927 0.188063 47.6284 0.233192 47.7715 0.263278C47.9072 0.293363 48.0504 0.323449 48.1936 0.338492C48.3368 0.353535 48.4799 0.391142 48.6156 0.42875C48.6834 0.451314 48.7512 0.473878 48.8191 0.496443C48.8869 0.526528 48.9472 0.564136 49.015 0.601743C49.2863 0.707043 49.5199 0.887558 49.746 1.06807C49.8591 1.16585 49.9646 1.24859 50.0776 1.34637C50.1831 1.44414 50.3037 1.54192 50.4243 1.62466C50.5298 1.72996 50.6278 1.84278 50.7257 1.9556C50.8086 2.06842 50.8915 2.18877 50.9744 2.30911C51.0423 2.43698 51.1026 2.56484 51.1628 2.69271C51.2081 2.82809 51.2533 2.96348 51.2834 3.09886C51.3965 3.20416 51.4718 3.33203 51.517 3.45989C51.5623 3.59528 51.5698 3.73066 51.5773 3.87357C51.5773 4.15187 51.5321 4.42264 51.5773 4.67837C51.5623 4.74606 51.5547 4.81375 51.5472 4.87392C51.5397 4.94162 51.5321 5.00179 51.5246 5.06948C51.517 5.19735 51.5246 5.32521 51.517 5.45308C51.517 5.58094 51.5095 5.70881 51.502 5.82915C51.4869 5.95701 51.4718 6.07736 51.4417 6.1977C51.4417 6.32556 51.404 6.44591 51.3663 6.55873C51.3286 6.67907 51.291 6.79189 51.2382 6.90472C51.1402 7.13036 51.0573 7.34848 51.0197 7.58917C50.8312 8.01789 50.7257 8.49174 50.4092 8.83021C50.364 9.06337 50.2133 9.23636 50.0701 9.40184C49.9118 9.55979 49.7611 9.71774 49.6782 9.92082C49.5426 10.0863 49.4144 10.2593 49.2863 10.4248C49.1507 10.5827 49.0075 10.7331 48.8643 10.876C48.4197 11.0189 48.284 11.4326 48.0127 11.7109C47.9373 11.7711 47.8695 11.8463 47.8092 11.914C47.7414 11.9817 47.6811 12.0569 47.6133 12.1246C47.4776 12.26 47.342 12.3879 47.146 12.4405C46.8446 12.6511 46.513 12.794 46.2794 13.0648C46.1513 13.1776 45.9628 13.2077 45.797 13.2679C45.6313 13.3205 45.4881 13.3957 45.4353 13.6138C45.1941 13.847 44.7721 13.7492 44.6214 14.0802C44.4631 14.4036 44.0939 14.3509 43.8527 14.4788C43.604 14.6067 43.3628 14.712 43.1292 14.8173C42.873 14.9376 42.6243 15.0429 42.3907 15.1332C42.157 15.2234 41.9385 15.3137 41.7275 15.3889C41.3055 15.5318 40.9588 15.6522 40.6649 15.7349C40.077 15.8928 39.753 15.953 39.7379 15.8928C39.7153 15.8252 40.062 15.6296 40.7252 15.3062C41.3808 14.9677 42.3455 14.5089 43.4985 13.8169C43.7321 13.674 43.8979 13.4108 44.2144 13.3807C44.4631 13.2303 44.6591 12.9745 44.9605 12.8843C45.0284 12.7113 45.1565 12.6135 45.2997 12.5458C45.4428 12.4706 45.6011 12.4104 45.7368 12.3202C46.0005 12.1246 46.302 11.9667 46.5205 11.6884C46.6185 11.5304 46.7542 11.4251 46.9049 11.3273C46.9802 11.2747 47.0556 11.2295 47.1234 11.1694C47.1912 11.1092 47.2515 11.0415 47.3043 10.9663C47.666 10.8159 47.8997 10.515 48.0655 10.1615C48.2388 10.0637 48.3594 9.9133 48.4649 9.75534C48.5628 9.58987 48.6533 9.41688 48.7739 9.25893C48.9623 9.16115 49.0904 9.0032 49.1883 8.83021C49.2712 8.64969 49.3391 8.45413 49.3994 8.25858C49.4295 8.1608 49.4747 8.07054 49.5199 7.98028C49.5426 7.93515 49.5652 7.89003 49.5953 7.8449L49.6631 7.70951C49.7084 7.61925 49.7611 7.529 49.8063 7.43874C49.8515 7.34848 49.8817 7.2507 49.9043 7.15292C50.0023 6.97241 50.0475 6.76933 50.1002 6.57377C50.1228 6.47599 50.1379 6.37069 50.1605 6.27291C50.1831 6.17514 50.2057 6.06984 50.2359 5.97206C50.2284 5.55086 50.2133 5.15974 50.3113 4.74606C50.2284 4.3399 50.2133 3.93374 50.0776 3.55015C50.0173 3.46741 49.9721 3.37716 49.9344 3.27938C49.8817 3.19664 49.844 3.10638 49.7988 3.00861C49.7536 2.92587 49.7008 2.83561 49.6481 2.74536C49.5878 2.67014 49.535 2.5874 49.4672 2.51971C49.3918 2.45954 49.324 2.39185 49.2637 2.30911C49.1959 2.2339 49.1205 2.15868 49.0527 2.07595C48.8944 1.93304 48.7136 1.80517 48.4724 1.82022C48.0805 1.66979 47.6736 1.48927 47.2139 1.47423C46.7692 1.39902 46.302 1.36893 45.8347 1.48927C45.7141 1.45167 45.586 1.44414 45.4655 1.44414C45.4052 1.44414 45.3449 1.44415 45.2846 1.45919C45.2243 1.47423 45.164 1.48927 45.1113 1.50432C44.9982 1.54192 44.8776 1.58705 44.7721 1.6397C44.6591 1.69987 44.5536 1.76005 44.4405 1.82022C44.3878 1.8503 44.3275 1.87287 44.2747 1.89543L44.1089 1.97065C43.9959 2.0233 43.8828 2.06842 43.7698 2.11355C43.5437 2.21133 43.3176 2.30159 43.0991 2.39937C42.677 2.6551 42.2626 2.89578 41.8556 3.16656C41.5014 3.4975 41.0266 3.67801 40.7176 4.06161C40.5744 4.25717 40.3785 4.40007 40.1901 4.54298C40.0017 4.69341 39.8208 4.85136 39.6852 5.04692C39.4139 5.44555 39.1199 5.80658 38.7507 6.09992C38.4492 6.45343 38.0272 6.71668 37.9066 7.19053C37.7936 7.38609 37.7257 7.61925 37.6278 7.82233C37.5298 8.02541 37.3942 8.19841 37.1455 8.31123C36.9797 8.73243 36.5576 8.98816 36.4597 9.43192C36.2562 9.56731 36.1507 9.75534 36.0678 9.9509C35.9924 10.154 35.9397 10.3646 35.8417 10.5451C35.7286 10.7181 35.6081 10.8911 35.5026 11.0716C35.4046 11.2521 35.3292 11.4401 35.284 11.6432C35.2463 11.8463 35.1484 12.0193 35.0504 12.1923C34.9524 12.3653 34.8469 12.5308 34.7866 12.7188C34.7565 13.125 34.3344 13.3581 34.342 13.7643C34.1837 14.1027 34.1008 14.4562 33.935 14.7721C33.9802 14.8775 33.9802 14.9752 33.9727 15.058C33.9727 15.0881 33.9727 15.0805 33.9727 15.0881C33.9727 15.0881 33.9727 15.0956 33.9727 15.1031C33.9727 15.1031 33.9576 15.1181 33.9426 15.1257C33.8898 15.1557 33.7768 15.231 33.7391 15.3062C33.6939 15.3814 33.7014 15.434 33.822 15.3739C33.9124 15.3438 33.9275 15.3438 33.9275 15.4566C34.0631 15.3438 34.0631 15.3363 34.131 15.3663C34.2817 15.3964 34.4324 15.4566 34.5831 15.4867C34.877 15.5544 35.1634 15.3889 35.4347 15.5168C35.706 15.3588 35.9698 15.607 36.2185 15.5469C36.4672 15.6522 36.7084 15.5469 36.9344 15.5769C37.1605 15.5393 37.3715 15.5544 37.575 15.6146C37.7785 15.6296 37.9669 15.6371 38.1402 15.6522C39.1878 15.7274 39.7605 15.8101 39.7605 15.8928L39.7078 15.8477Z" fill="#0061EF"/>
<path d="M25.1267 15.8702C25.1267 15.7875 25.6995 15.7047 26.747 15.6295C26.9203 15.622 27.1087 15.607 27.3122 15.5919C27.5157 15.5694 27.7267 15.5468 27.9528 15.5543C28.1789 15.6671 28.4125 15.3512 28.6687 15.5167C28.9174 15.5694 29.1812 15.5167 29.4525 15.4866C29.7238 15.449 30.0102 15.5543 30.3041 15.4565C30.4548 15.3512 30.6055 15.4114 30.7563 15.4565C30.809 15.4866 30.8467 15.5092 30.8919 15.5092C30.9371 15.5092 30.9748 15.4866 30.9748 15.4189C31.0276 15.3888 31.0803 15.3813 31.1482 15.3738C31.2537 15.4039 31.1858 15.3061 31.1858 15.2535C31.2687 15.2309 31.2311 15.1256 31.1783 15.0504C31.1632 15.0278 31.1482 15.0128 31.1331 14.9977L31.1105 14.9752V14.9601H31.0954V14.9451C31.0426 14.8699 30.9974 14.7871 30.9673 14.7119C31.0351 14.3133 30.8166 14.0049 30.5603 13.704C30.6884 13.2603 30.4925 12.9218 30.1082 12.6586C30.0253 12.478 29.98 12.29 29.9122 12.102C29.8368 11.9214 29.754 11.7409 29.6108 11.583C29.5128 11.4025 29.4224 11.222 29.3244 11.0414C29.2264 10.8609 29.1284 10.6804 29.0606 10.4773C28.8873 10.3344 28.7516 10.1614 28.6537 9.98091C28.5482 9.8004 28.4803 9.5898 28.4426 9.36416C28.0734 9.07834 27.9076 8.6797 27.7569 8.24346C27.689 8.02534 27.5232 7.85987 27.3725 7.69439C27.2142 7.52892 27.0711 7.35593 27.0032 7.13029C26.7395 6.76173 26.4305 6.41575 26.1592 6.03968C25.9406 5.626 25.6769 5.21232 25.2247 4.97915C25.0438 4.82872 24.8554 4.67829 24.6821 4.51282C24.5012 4.35487 24.3354 4.1894 24.1922 3.98632C23.6948 3.82837 23.3858 3.45982 23.0542 3.09127C23.0015 3.06118 22.9563 3.02357 22.9035 2.98597C22.8508 2.94836 22.8055 2.91827 22.7528 2.88067C22.6548 2.80545 22.5568 2.73024 22.4589 2.65502C22.3609 2.57981 22.2554 2.51212 22.1499 2.45947C22.0444 2.39929 21.9313 2.35417 21.8108 2.31656C21.5997 2.18869 21.3661 2.10596 21.14 2.0157C21.027 1.97809 20.9064 1.94049 20.7934 1.88784C20.7406 1.86527 20.6803 1.83519 20.6276 1.81262C20.5748 1.79006 20.5145 1.75997 20.4618 1.72989C20.3487 1.67724 20.2357 1.62459 20.1226 1.57194C20.0096 1.52681 19.889 1.4892 19.776 1.45911C19.7157 1.44407 19.6554 1.42903 19.6026 1.41399C19.5424 1.40646 19.4821 1.39894 19.4218 1.39142C19.3012 1.3839 19.1806 1.37638 19.06 1.39142C18.8189 1.43655 18.5928 1.39142 18.3592 1.37638C18.2461 1.36134 18.1255 1.34629 18.0125 1.34629C17.8995 1.34629 17.7864 1.34629 17.6734 1.37638C17.5528 1.34629 17.4397 1.34629 17.3267 1.36133C17.2137 1.37638 17.1082 1.42151 17.0026 1.45911C16.8971 1.49672 16.8067 1.55689 16.7087 1.60202C16.6635 1.62459 16.6108 1.64715 16.558 1.66219C16.5128 1.68476 16.46 1.70732 16.4073 1.71484C16.2189 1.8051 16.0229 1.89536 15.8421 2.00066C15.7592 2.06083 15.6687 2.11348 15.5858 2.18117C15.518 2.24887 15.4502 2.3316 15.3974 2.41434C15.3447 2.49707 15.2919 2.57229 15.2392 2.65502C15.194 2.74528 15.1412 2.82802 15.0884 2.91827C15.0432 3.00853 14.998 3.09879 14.9453 3.18153C14.9 3.27178 14.8473 3.36204 14.7945 3.44478C14.8322 3.56512 14.8397 3.67042 14.8171 3.7682C14.7945 3.86598 14.7644 3.96376 14.7192 4.05401C14.674 4.14427 14.6363 4.24205 14.5986 4.34735C14.5609 4.44513 14.5458 4.55043 14.5609 4.65573C14.5458 4.70838 14.5308 4.76103 14.5157 4.80616C14.5082 4.85881 14.5082 4.91146 14.5006 4.96411C14.5006 5.06941 14.5006 5.17471 14.5232 5.27249C14.5458 5.37779 14.5609 5.47557 14.5835 5.58087C14.6061 5.67865 14.6287 5.78395 14.6363 5.88925C14.6664 5.98703 14.689 6.09233 14.7041 6.1901C14.7192 6.28788 14.7267 6.39318 14.7493 6.49848C14.787 6.70156 14.8247 6.90464 14.9679 7.07764C14.998 7.17541 15.0357 7.27319 15.0809 7.35593C15.1337 7.44619 15.1789 7.53644 15.2316 7.61918L15.2995 7.75457C15.3221 7.79969 15.3447 7.84482 15.3673 7.88995C15.4125 7.98021 15.4426 8.07799 15.4653 8.17577C15.6311 8.31115 15.7064 8.49167 15.7818 8.6797C15.8647 8.86022 15.94 9.04825 16.0983 9.17612C16.2189 9.32655 16.3395 9.4845 16.4525 9.63493C16.5731 9.78536 16.6937 9.92826 16.8067 10.0787C16.8896 10.5149 17.289 10.6503 17.5679 10.8835C17.6282 10.9512 17.696 11.0114 17.7713 11.064C17.8467 11.1167 17.9221 11.1693 17.9899 11.222C18.1331 11.3197 18.2612 11.4401 18.3441 11.6131C18.6003 11.8387 18.8038 12.1396 19.1279 12.2524C19.2711 12.3351 19.354 12.5006 19.4519 12.6285C19.5574 12.7563 19.6855 12.8616 19.8966 12.8165C20.1829 12.9444 20.2884 13.343 20.6426 13.3129C20.9818 13.2979 21.125 13.6138 21.3586 13.7567C21.5847 13.8996 21.8108 14.0199 22.0293 14.1403C22.2705 14.2757 22.4966 14.4035 22.7226 14.5163C22.9412 14.6292 23.1447 14.742 23.3406 14.8398C23.7325 15.0278 24.0566 15.2008 24.3279 15.3362C24.8705 15.5994 25.1493 15.7724 25.1267 15.8326C25.1041 15.9003 24.7047 15.8251 23.9887 15.6145C23.2803 15.3888 22.2479 15.0278 21.0044 14.4186C20.7557 14.2907 20.4166 14.3057 20.2357 14.0199C19.9795 13.862 19.6403 13.8169 19.4218 13.5536C19.2258 13.5536 19.0826 13.4709 18.9545 13.3656C18.8264 13.2527 18.7134 13.1174 18.5777 13.0121C18.2838 12.824 18.0577 12.5382 17.7111 12.3803C17.5302 12.3126 17.4021 12.1772 17.2664 12.0343C17.1986 11.9666 17.1383 11.8914 17.0705 11.8312C17.0026 11.7635 16.9273 11.7033 16.8444 11.6507C16.6484 11.2896 16.3545 11.0339 15.9853 10.8158C15.9024 10.6202 15.7592 10.4698 15.6084 10.3269C15.4653 10.1765 15.2995 10.0336 15.1713 9.86057C15.1261 9.62741 15.0206 9.43937 14.8774 9.2739C14.7493 9.1009 14.5835 8.94295 14.4328 8.76244C14.1464 8.40141 14.0334 7.9426 13.8224 7.5214C13.747 7.29576 13.6716 7.07011 13.5812 6.84447C13.536 6.73165 13.5058 6.61131 13.4757 6.49096C13.4455 6.37062 13.4154 6.25028 13.4003 6.12993C13.2119 5.6636 13.1366 5.12958 13.2722 4.6106C13.2345 4.0841 13.3777 3.54255 13.5586 3.02357C13.5887 2.88819 13.634 2.7528 13.6867 2.62494C13.747 2.49707 13.8148 2.36921 13.8902 2.24887C13.9731 2.12852 14.056 2.0157 14.1389 1.89536C14.2293 1.78254 14.3273 1.66219 14.4177 1.54937C14.5157 1.43655 14.6287 1.33877 14.7493 1.24851C14.8699 1.16578 14.998 1.09808 15.1261 1.02287C15.3824 0.887484 15.6235 0.744576 15.8421 0.526454C16.3621 0.255682 16.9424 0.157903 17.5076 0.052603C18.0879 0.0149958 18.6531 0.052603 19.2258 0.052603C19.3615 0.127817 19.4971 0.187989 19.6328 0.225596C19.7006 0.248161 19.7684 0.263204 19.8363 0.278246C19.9041 0.293289 19.9719 0.308332 20.0397 0.323375C20.1754 0.353461 20.3186 0.368504 20.4618 0.383547C20.605 0.406111 20.7482 0.428675 20.8838 0.45124C20.9516 0.466283 21.027 0.481326 21.0948 0.50389C21.1626 0.526454 21.2305 0.549019 21.2983 0.571583C21.434 0.616712 21.5621 0.669362 21.6902 0.729533C21.9464 0.849877 22.1951 0.985263 22.4287 1.12817C22.9261 1.37638 23.3858 1.66971 23.8229 1.99314C24.3053 2.25639 24.6218 2.7152 25.0664 2.99349C25.2925 3.1364 25.4734 3.33195 25.6392 3.52751C25.805 3.73059 25.9632 3.92615 26.1742 4.07658C26.5586 4.40752 26.9354 4.76103 27.154 5.21984C27.478 5.60343 27.5911 6.11489 28.0282 6.39318C28.1864 6.5737 28.3748 6.73917 28.5331 6.91968C28.6913 7.1002 28.8119 7.30328 28.8044 7.58909C29.1134 7.95012 29.1661 8.44654 29.4902 8.77748C29.5053 9.02569 29.6108 9.22125 29.7389 9.40176C29.8595 9.58228 30.0026 9.75527 30.1006 9.95083C30.176 10.1539 30.2513 10.357 30.3342 10.5525C30.4096 10.7481 30.5076 10.9361 30.6357 11.1091C30.7713 11.2746 30.8467 11.4702 30.907 11.6657C30.9673 11.8613 31.0125 12.0568 31.1029 12.2373C31.3742 12.5608 31.2537 13.0271 31.5174 13.328C31.6229 13.6965 31.8038 14.0199 31.8792 14.3734C31.9771 14.4336 32.045 14.5088 32.0826 14.584V14.5991L32.1053 14.6292L32.1279 14.6818C32.1429 14.7194 32.1505 14.757 32.1655 14.7946C32.1882 14.8699 32.2032 14.9451 32.2183 15.0203C32.2786 15.3211 32.2711 15.5618 32.3464 15.81C32.3766 15.9304 32.4293 16.0582 32.4896 16.2012L32.5348 16.3065L32.5499 16.3365V16.3516H32.5047C32.4444 16.3666 32.3841 16.3741 32.3313 16.3817C32.0902 16.4118 31.7887 16.4118 31.4722 16.2989C31.2913 16.4118 30.9824 16.4193 30.7487 16.3892C30.598 16.3591 30.4473 16.2989 30.2966 16.2688C30.0026 16.2012 29.7163 16.3666 29.445 16.2388C29.1737 16.3967 28.9099 16.1485 28.6612 16.2087C28.4125 16.1034 28.1713 16.2087 27.9453 16.1711C27.7192 16.2087 27.5082 16.1936 27.3047 16.1335C27.1012 16.1184 26.9203 16.1109 26.7395 16.0959C25.6919 16.0206 25.1192 15.9379 25.1192 15.8552L25.1267 15.8702Z" fill="#0061EF"/>
</g>
<defs>
<clipPath id="clip0_3484_38831">
<rect width="65" height="64" fill="white"/>
</clipPath>
</defs>
</svg>
