<svg width="267" height="49" viewBox="0 0 267 49" fill="none" xmlns="http://www.w3.org/2000/svg">
<path fill-rule="evenodd" clip-rule="evenodd" d="M25.8445 3.76594C24.5564 3.13633 21.5922 1.95021 20.304 1.54547C17.7609 0.747221 9.67163 0.350909 5.06188 6.28715C2.82073 9.17658 1.6295 12.8277 1.29153 16.462C0.382876 26.2067 5.85141 35.2629 9.13143 39.8247L9.20623 39.9287L9.00677 40.0889L8.92366 39.9905C8.35021 39.3075 7.7269 38.6582 7.2227 37.919C6.60216 37.0112 6.03148 36.0724 5.48851 35.1167C4.96492 34.192 3.95654 32.3172 3.95654 32.3172C3.63796 31.6314 2.06444 28.0871 1.50484 26.2377C0.948014 24.4023 0.546323 22.5303 0.2222 20.6415V20.6359C-1.03828 11.3689 3.33046 5.34275 6.61324 2.84964C11.3449 -0.742461 17.3038 -0.694679 22.8055 1.63541C23.3596 1.87151 23.8499 2.16383 24.3569 2.48706C24.8971 2.83278 25.4345 3.18131 25.972 3.53265L26.0772 3.6001L25.9581 3.81934L25.8473 3.76594H25.8445Z" fill="white"/>
<path fill-rule="evenodd" clip-rule="evenodd" d="M36.4421 3.82373C35.8796 4.01388 35.2696 4.20963 35.1325 4.24598C35.0737 4.26276 34.9785 4.29072 34.917 4.29072H34.5588C34.5588 4.29072 35.2696 3.67552 35.7957 3.3092C41.8767 -0.93006 49.3178 1.10009 52.3653 2.63808C67.5162 10.2861 52.8718 29.4495 51.0053 31.6865C46.7964 36.7312 38.401 42.7405 33.3051 44.7175L33.1959 44.7595L33.084 44.5525L34.6987 43.4004H34.7043C36.4897 42.3239 40.0801 39.6953 41.7312 38.2915C44.1994 36.1915 46.5222 33.8845 48.607 31.4041C51.8644 27.5312 55.5164 22.0643 56.5966 15.9934C58.9277 2.86179 45.4336 2.543 43.0129 2.60732C41.3002 2.65206 39.5764 2.88695 37.9169 3.3092L36.4449 3.82094L36.4421 3.82373Z" fill="white"/>
<path fill-rule="evenodd" clip-rule="evenodd" d="M6.61719 27.9668H14.9926L15.9932 33.0378L27.0201 7.78427H28.2666L20.7194 44.5175L32.272 16.5492L33.072 16.7863L32.0346 27.3121L45.9277 27.2923L45.3821 28.2377L31.0339 28.565L31.4325 21.9306L20.0721 48.5782L18.8143 48.6516L25.3834 14.9492L15.9028 36.1448H15.0831L14.0259 29.0927H6.63415L6.61719 27.9668Z" fill="white"/>
<path d="M17.7676 24.0453L17.5332 25.2346H14.7425L14.6679 25.0271L16.777 22.3622C17.0752 21.9853 17.2936 21.7194 17.432 21.5616L17.4107 21.5324H16.508C16.3749 21.5324 16.2763 21.5411 16.2151 21.5616C16.1538 21.582 16.0926 21.6171 16.0314 21.6668C15.9701 21.7165 15.9035 21.7895 15.8316 21.8859C15.7597 21.9853 15.6825 22.1226 15.5946 22.3038H15.2511L15.4775 21.1905H18.2203L18.2922 21.4038L15.5254 24.8635L15.5467 24.8927H16.4201C16.5746 24.8927 16.6918 24.8839 16.7743 24.8664C16.8569 24.8459 16.9287 24.8138 16.99 24.7612C17.0512 24.7115 17.1152 24.6326 17.1817 24.5304C17.2483 24.4281 17.3282 24.2645 17.4267 24.0453H17.7702H17.7676ZM13.419 22.6573C13.4404 22.5405 13.4563 22.4411 13.4643 22.3564C13.4723 22.2716 13.475 22.1811 13.475 22.0817C13.475 21.8626 13.4324 21.7018 13.3472 21.6025C13.2619 21.5032 13.1208 21.4535 12.9237 21.4535C12.8172 21.4535 12.7107 21.471 12.6149 21.509C12.5163 21.547 12.4178 21.6113 12.3193 21.6989C12.2181 21.7895 12.1222 21.9035 12.0317 22.0496C11.9411 22.1927 11.8586 22.3681 11.784 22.5726C11.7095 22.7801 11.6535 22.9992 11.6109 23.2359C11.5683 23.4726 11.5497 23.7005 11.5497 23.9226C11.5497 24.2148 11.5843 24.4369 11.6589 24.58C11.7334 24.7261 11.8559 24.7992 12.0264 24.7992C12.1062 24.7992 12.1888 24.7817 12.274 24.7407C12.3592 24.7028 12.4551 24.6297 12.5616 24.5216C12.6681 24.4164 12.7879 24.2586 12.9211 24.0541C13.0409 23.8641 13.1368 23.6771 13.2087 23.493C13.2806 23.309 13.3365 23.0927 13.3844 22.8414L13.419 22.6603V22.6573ZM13.7572 21.398L14.1114 21.1174L14.3564 21.1847L13.7679 24.0599C13.7333 24.2294 13.7066 24.358 13.6933 24.4515C13.6827 24.542 13.6747 24.618 13.6747 24.6765C13.6747 24.7933 13.704 24.8752 13.7626 24.9278C13.8211 24.9804 13.9357 25.0125 14.1008 25.0271L14.0661 25.2346H12.9637L13.206 24.1739L13.1554 24.1563C12.9104 24.5508 12.6761 24.8401 12.4551 25.0242C12.2341 25.2053 11.9997 25.2989 11.7547 25.2989C11.4725 25.2989 11.2541 25.182 11.097 24.9482C10.9426 24.7144 10.8653 24.3843 10.8653 23.9606C10.8653 23.6917 10.8946 23.42 10.9505 23.1453C11.0065 22.8736 11.0917 22.6164 11.2062 22.371C11.3207 22.1255 11.4565 21.9122 11.6163 21.7252C11.776 21.5382 11.9624 21.3921 12.1702 21.2811C12.3805 21.17 12.6069 21.1145 12.8545 21.1145C13.0143 21.1145 13.1661 21.135 13.3099 21.1759C13.4537 21.2168 13.6028 21.2898 13.7572 21.395M7.90419 22.07H8.02934C8.13852 22.07 8.23705 22.0496 8.32493 22.0116C8.41546 21.9707 8.51665 21.8976 8.63648 21.7954C8.75632 21.6902 8.94272 21.5002 9.20102 21.2197C9.45932 20.9392 9.64306 20.7259 9.75224 20.5827C9.86142 20.4366 9.9413 20.311 9.9919 20.2058C10.0425 20.1006 10.0665 20.0042 10.0665 19.9165C10.0665 19.8464 10.0425 19.7908 9.98924 19.747C9.93598 19.7032 9.86408 19.6769 9.76822 19.6681L9.81082 19.4607H11.4645L11.4219 19.6681C11.318 19.6827 11.2035 19.7441 11.073 19.8434C10.9452 19.9428 10.7455 20.1386 10.4792 20.4308L8.98266 22.0291L9.80283 24.1943C9.87207 24.3784 9.92799 24.5128 9.9706 24.5976C10.0132 24.6852 10.0585 24.7554 10.1064 24.8138C10.1543 24.8722 10.2103 24.919 10.2715 24.9541C10.3328 24.9891 10.4073 25.0154 10.4952 25.0271L10.4526 25.2346H8.96402L9.00663 25.0271C9.1451 25.0154 9.217 24.9453 9.217 24.8255C9.217 24.7875 9.21433 24.7495 9.20634 24.7115C9.20102 24.6706 9.1877 24.6122 9.16374 24.5391C9.14244 24.4632 9.11048 24.3696 9.0732 24.2645L8.57258 22.9203C8.51399 22.7596 8.4634 22.6457 8.41813 22.5814C8.37552 22.5171 8.32759 22.4703 8.27966 22.447C8.23172 22.4236 8.1545 22.409 8.05065 22.409H7.83495L7.5154 24.0073C7.48079 24.1768 7.45948 24.3112 7.44883 24.4076C7.43818 24.507 7.43285 24.5917 7.43285 24.6677C7.43285 24.7933 7.46215 24.8839 7.52073 24.9365C7.57931 24.9891 7.67518 25.0213 7.81099 25.03L7.76838 25.2375H6.22656L6.26917 25.03C6.3677 25.0154 6.43959 24.9862 6.49019 24.9482C6.53812 24.9102 6.58073 24.8576 6.61268 24.7904C6.64464 24.7232 6.67659 24.6414 6.70588 24.545C6.73518 24.4485 6.77778 24.2586 6.8337 23.981L7.48878 20.723C7.5154 20.5944 7.53405 20.4688 7.55002 20.349C7.566 20.2292 7.57399 20.1269 7.57399 20.0421C7.57399 19.9107 7.54203 19.8171 7.48079 19.7646C7.41954 19.712 7.32368 19.6798 7.19586 19.674L7.23846 19.4665H8.78028L8.73767 19.674C8.63915 19.6944 8.56991 19.7207 8.52731 19.7499C8.4847 19.7792 8.44476 19.8201 8.4128 19.8756C8.37818 19.9311 8.34357 20.0188 8.30895 20.1415C8.27433 20.2613 8.22906 20.4571 8.1758 20.7288L7.90152 22.0788L7.90419 22.07Z" fill="white"/>
<path d="M41.0274 22.6061C41.0659 22.3979 41.088 22.2015 41.088 22.02C41.088 21.7969 41.0439 21.6332 40.9557 21.532C40.8675 21.4309 40.7214 21.3803 40.5174 21.3803C40.4044 21.3803 40.2969 21.3982 40.1977 21.4368C40.0957 21.4755 39.9937 21.541 39.8917 21.6302C39.7869 21.7225 39.6877 21.8385 39.594 21.9873C39.5003 22.1331 39.4148 22.3116 39.3376 22.5199C39.2605 22.7311 39.2026 22.9543 39.1585 23.1953C39.1144 23.4363 39.0951 23.6683 39.0951 23.8945C39.0951 24.192 39.1309 24.4181 39.2081 24.5639C39.2853 24.7127 39.4121 24.7871 39.5885 24.7871C39.6712 24.7871 39.7566 24.7692 39.8448 24.7276C39.933 24.6889 40.0323 24.6145 40.1425 24.5044C40.2528 24.3973 40.3768 24.2366 40.5146 24.0284C40.6387 23.835 40.7379 23.6445 40.8123 23.4571C40.8868 23.2696 40.9447 23.0495 40.9943 22.7936L41.0301 22.6091L41.0274 22.6061ZM41.5235 20.2854C41.5428 20.1902 41.5621 20.086 41.5786 19.97C41.5952 19.854 41.6007 19.7528 41.6007 19.6695C41.6007 19.5862 41.5869 19.5177 41.5566 19.4731C41.529 19.4285 41.4849 19.3957 41.4326 19.3779C41.3774 19.3571 41.2809 19.3422 41.1404 19.3333L41.1872 19.1101L42.1878 19.0714H42.4249L41.3912 24.0343C41.3554 24.2158 41.3278 24.3497 41.314 24.439C41.303 24.5282 41.2947 24.6026 41.2947 24.6621C41.2947 24.7811 41.3251 24.8644 41.3857 24.918C41.4463 24.9715 41.5649 25.0043 41.7385 25.0192L41.7027 25.2304H40.5615L40.8123 24.1504L40.76 24.1325C40.5064 24.5342 40.2638 24.8287 40.035 25.0162C39.8062 25.2006 39.5637 25.2959 39.3101 25.2959C39.0179 25.2959 38.7919 25.1768 38.6292 24.9388C38.4694 24.7008 38.3894 24.3646 38.3894 23.9332C38.3894 23.6594 38.4197 23.3827 38.4776 23.103C38.5355 22.8263 38.6237 22.5645 38.7422 22.3146C38.8608 22.0646 39.0014 21.8474 39.1667 21.657C39.3321 21.4666 39.5251 21.3178 39.7401 21.2048C39.9578 21.0917 40.1921 21.0352 40.4485 21.0352C40.6111 21.0352 40.76 21.056 40.8978 21.0887C41.0356 21.1244 41.1762 21.1869 41.3195 21.2762L41.529 20.2824L41.5235 20.2854ZM35.44 23.0078C35.6853 23.0048 35.9003 22.99 36.085 22.9632C36.2697 22.9364 36.4296 22.8977 36.5619 22.8501C36.6942 22.8025 36.8072 22.746 36.8954 22.6805C36.9836 22.6151 37.0525 22.5407 37.1049 22.4633C37.1573 22.383 37.1931 22.2997 37.2124 22.2134C37.2317 22.1241 37.2427 22.0349 37.2427 21.9397C37.2427 21.7641 37.2069 21.6273 37.1297 21.5291C37.0525 21.4309 36.9423 21.3803 36.7907 21.3803C36.606 21.3803 36.4213 21.4517 36.2421 21.5975C36.063 21.7403 35.9031 21.9367 35.7653 22.1836C35.6274 22.4306 35.5199 22.7043 35.44 23.0078ZM37.5625 24.3735C37.364 24.6056 37.1766 24.7901 36.9946 24.9239C36.8127 25.0578 36.6335 25.156 36.4516 25.2125C36.2724 25.2691 36.0712 25.2988 35.8535 25.2988C35.6357 25.2988 35.4621 25.2631 35.3104 25.1887C35.1588 25.1144 35.0348 25.0162 34.9356 24.8882C34.8336 24.7603 34.7619 24.6086 34.7123 24.433C34.6654 24.2545 34.6406 24.0641 34.6406 23.8558C34.6406 23.5493 34.693 23.2191 34.795 22.868C34.897 22.5169 35.0513 22.2015 35.2581 21.9218C35.4676 21.6421 35.7156 21.4249 36.0051 21.2702C36.2945 21.1185 36.606 21.0381 36.9312 21.0381C37.2565 21.0381 37.4936 21.1095 37.6562 21.2494C37.8161 21.3922 37.8988 21.6094 37.8988 21.9099C37.8988 22.3979 37.6865 22.7638 37.262 23.0078C36.8375 23.2518 36.2063 23.3738 35.3711 23.3738C35.3408 23.5464 35.3242 23.7338 35.3242 23.9332C35.3242 24.2337 35.3794 24.4538 35.4869 24.5907C35.5971 24.7276 35.7735 24.796 36.0216 24.796C36.2697 24.796 36.4902 24.7395 36.6887 24.6234C36.8899 24.5074 37.0966 24.3318 37.3144 24.0938L37.5625 24.3735Z" fill="white"/>
<path d="M75.2441 7.46396H84.6252V41.1894H75.2441V7.46396ZM94.305 41.1894L85.1258 24.5545L95.2577 7.46396H99.9724L92.65 19.8506L104.388 41.1894H94.305Z" fill="white"/>
<path d="M103.734 41.1894L115.772 7.46396H125.201L137.444 41.1894H127.361L123.699 31.1792H112.159L108.55 41.1894H103.734ZM113.668 26.9838H122.194L117.83 14.9513L113.664 26.9838H113.668Z" fill="white"/>
<path d="M136.939 41.1894L153.34 12.1679H137.84V7.46396H166.383L149.933 36.4895H165.329V41.1894H136.939Z" fill="white"/>
<path d="M169.193 41.1894V7.46396H178.421L185.844 25.466L193.219 7.46396H202.35V41.1894H192.969V19.2971L183.939 41.1894H182.986L173.856 19.1466V41.1894H169.193Z" fill="white"/>
<path d="M208.363 41.1894V7.46396H229.483V12.0174H217.744V21.877H228.881V26.4264H217.744V36.64H229.887V41.1894H208.363Z" fill="white"/>
<path d="M234.545 41.1894V7.46396H247.49C252.637 7.46396 256.92 8.77831 260.327 11.407C264.775 14.8455 266.999 19.2605 266.999 24.6563C266.999 27.521 266.313 30.1944 264.941 32.6685C263.568 35.1466 261.663 37.1609 259.221 38.7112C256.581 40.3633 252.649 41.1894 247.434 41.1894H234.541H234.545ZM243.926 36.7906H245.682C248.895 36.7906 251.402 35.9482 253.206 34.2636C255.846 31.8018 257.17 28.3958 257.17 24.05C257.17 20.408 256.165 17.4701 254.163 15.2239C252.153 12.9818 249.416 11.8627 245.936 11.8627H243.93V36.7906H243.926Z" fill="white"/>
</svg>
