<svg width="22" height="22" viewBox="0 0 22 22" fill="none" xmlns="http://www.w3.org/2000/svg">
<path d="M12.4789 2.1825L14.2389 5.7025C14.4789 6.1925 15.1189 6.6625 15.6589 6.7525L18.8489 7.2825C20.8889 7.6225 21.3689 9.1025 19.8989 10.5625L17.4189 13.0425C16.9989 13.4625 16.7689 14.2725 16.8989 14.8525L17.6089 17.9225C18.1689 20.3525 16.8789 21.2925 14.7289 20.0225L11.7389 18.2525C11.1989 17.9325 10.3089 17.9325 9.75893 18.2525L6.76893 20.0225C4.62893 21.2925 3.32893 20.3425 3.88893 17.9225L4.59893 14.8525C4.72893 14.2725 4.49893 13.4625 4.07893 13.0425L1.59893 10.5625C0.138932 9.1025 0.608933 7.6225 2.64893 7.2825L5.83893 6.7525C6.36893 6.6625 7.00893 6.1925 7.24893 5.7025L9.00893 2.1825C9.96893 0.2725 11.5289 0.2725 12.4789 2.1825Z" fill="white" stroke="#C10D0D" stroke-width="1.5" stroke-linecap="round" stroke-linejoin="round"/>
</svg>
