<svg width="65" height="65" viewBox="0 0 65 65" fill="none" xmlns="http://www.w3.org/2000/svg">
<g clip-path="url(#clip0_926_16101)">
<path d="M64.4928 0.476992C64.4928 0.476992 64.2203 1.01456 63.6148 1.96855C63.047 2.95282 62.1614 4.37623 61.2379 6.32964C61.0865 6.65521 60.9351 6.99592 60.7686 7.35177C60.6853 7.52591 60.6096 7.70763 60.5264 7.88934C60.4507 8.07105 60.375 8.26033 60.2917 8.45719C60.1403 8.84333 59.9814 9.23704 59.8224 9.64589C59.671 10.0623 59.5196 10.4787 59.3455 10.9179C59.1336 11.3343 59.0427 11.8113 58.9216 12.2883C58.8913 12.4094 58.8611 12.523 58.8308 12.6441C58.8005 12.7653 58.7702 12.8864 58.7399 13.0076C58.6718 13.2499 58.5886 13.4921 58.475 13.7268C58.3009 14.2114 58.1798 14.7263 58.0587 15.2487C57.93 15.7711 57.8392 16.3162 57.7408 16.869C57.6348 17.4217 57.5288 17.9819 57.4228 18.5574C57.3017 19.1328 57.2412 19.7234 57.2033 20.3291C57.2033 20.4805 57.2033 20.6319 57.2033 20.7909C57.2033 20.9423 57.1806 21.1013 57.1655 21.2528C57.1276 21.5556 57.0746 21.866 57.0141 22.1765C56.9535 22.4869 56.9232 22.8049 56.9005 23.1229C56.8854 23.4409 56.8778 23.7665 56.9308 24.092C56.9535 25.3943 56.9308 26.7344 57.0065 28.12C56.9081 29.5131 57.2412 30.9214 57.4758 32.3675C57.5061 33.1019 57.5894 33.8439 57.771 34.5783C57.8619 34.9418 57.9451 35.3128 58.0587 35.6762C58.1722 36.0396 58.3009 36.403 58.422 36.7665C58.5734 38.3186 59.073 39.848 59.9057 41.2563C60.4961 42.7478 61.0714 44.3075 61.9722 45.7385C62.7821 47.2149 63.6905 48.661 64.6669 50.1072C64.7729 50.2359 64.8789 50.3646 64.9849 50.4933L64.1295 51.3489C62.767 50.5387 61.4272 49.668 60.0722 48.7519C58.3993 48.0478 56.7946 47.1998 55.0914 46.4199C54.6675 46.2306 54.236 46.0489 53.7819 45.9051C53.3353 45.7612 52.8887 45.6174 52.4269 45.4962C51.9727 45.3751 51.511 45.2464 51.0568 45.1252C50.8297 45.0646 50.5951 45.0041 50.368 44.9284C50.1409 44.8602 49.9138 44.7845 49.6792 44.7088C47.817 44.2394 45.8944 43.9517 43.9414 43.7169L43.6992 43.6867L43.3283 43.6412C43.0406 43.6034 42.7454 43.5731 42.4578 43.5352C42.4426 43.1642 42.4275 42.8008 42.4124 42.4298C42.4048 42.2103 42.3972 41.9907 42.3897 41.7711C42.3821 41.5591 42.3669 41.3471 42.3594 41.1351C42.3594 40.9231 42.3594 40.7111 42.3518 40.4916C42.3442 40.0676 42.3291 39.636 42.2988 39.2044C42.2988 38.7729 42.2761 38.3413 42.2458 37.9097C42.2685 35.8352 42.4048 33.7303 42.8665 31.6558C43.0331 29.5282 43.6462 27.4461 44.4107 25.4321C44.494 25.1747 44.5773 24.9173 44.6681 24.6599L44.7968 24.2737L44.8649 24.0844L44.9406 23.8952C45.145 23.3955 45.3494 22.8882 45.5537 22.3885C46.0003 21.3966 46.447 20.3972 46.8936 19.3902C47.2342 18.6936 47.6278 18.0198 47.9911 17.3308L48.2561 16.8462C48.3015 16.7705 48.3393 16.6948 48.3848 16.6267C48.4226 16.5737 48.468 16.5131 48.6043 16.3541C48.6043 16.3541 48.5362 16.3617 48.4378 16.4147C48.3469 16.4601 48.2409 16.5207 48.1274 16.5888L47.9609 16.6872L47.923 16.7175L47.9003 16.7327L47.8398 16.763L47.5824 16.9068C46.9011 17.2854 46.2426 17.7018 45.5613 18.0652C45.3191 18.2015 45.0844 18.3378 44.8422 18.4665L44.4789 18.6558L44.108 18.8224C43.6084 19.0419 43.1088 19.2615 42.6016 19.4659C42.0869 19.6552 41.5797 19.8369 41.065 20.0262L40.8757 20.0943L40.6789 20.1549L40.2929 20.2836C40.0355 20.3669 39.7857 20.4578 39.5284 20.5486C39.0061 20.6849 38.4762 20.8061 37.9614 20.9499C37.7041 21.0256 37.4467 21.1013 37.1894 21.177C36.932 21.2452 36.6746 21.3133 36.4173 21.389C35.3878 21.6919 34.3508 21.9342 33.3062 22.0932C31.217 22.4718 29.1202 22.5399 27.0537 22.7065C26.6222 22.7216 26.1907 22.7443 25.7593 22.7595C25.3278 22.7595 24.8964 22.7595 24.4725 22.7519C24.2605 22.7519 24.041 22.7519 23.829 22.7443C23.6171 22.7292 23.4051 22.714 23.1932 22.7065C22.5876 22.661 21.9821 22.6156 21.3765 22.5777C21.3462 22.2673 21.3235 21.9569 21.3008 21.6465L21.2781 21.4193V21.2755L21.2554 21.0332C21.0056 20.0716 20.8845 19.1101 20.7634 18.1409C20.7406 17.8987 20.7028 17.6564 20.665 17.4217C20.6271 17.1794 20.5968 16.9447 20.559 16.7024C20.5287 16.4677 20.4757 16.2254 20.4227 15.9907C20.3697 15.756 20.3168 15.5213 20.2486 15.2941C19.908 13.4013 19.1965 11.6296 18.5455 9.88817C17.8112 8.17705 17.1981 6.42807 16.214 4.90623C15.4419 3.46767 14.4957 2.15783 13.6328 0.832845L14.4579 0.00756836C14.5941 0.105996 14.7228 0.211995 14.8591 0.310422C15.2376 0.52242 15.6009 0.764703 15.9567 1.00699C16.32 1.2417 16.6758 1.48398 17.024 1.72626C17.1981 1.84741 17.3798 1.96855 17.5614 2.07455C17.7431 2.18812 17.9248 2.30169 18.1064 2.40769C18.2881 2.51368 18.4698 2.62725 18.6514 2.72568C18.8407 2.82411 19.0299 2.91497 19.2192 2.99825C20.6952 3.79324 22.2091 4.45195 23.7004 5.06523C24.0561 5.26208 24.4195 5.43622 24.7904 5.58765C25.1613 5.73151 25.5398 5.85265 25.9182 5.96622C26.2967 6.08736 26.6752 6.17064 27.0537 6.26907C27.2429 6.3145 27.4322 6.3675 27.6214 6.41293L27.9015 6.48864L28.1815 6.55678C28.5525 6.65521 28.9234 6.74607 29.2943 6.82935C29.6652 6.91264 30.0361 6.97321 30.407 7.04135C31.1413 7.19278 31.8755 7.29877 32.5795 7.5032C34.0253 7.73034 35.4332 8.00291 36.826 7.97262C38.2037 8.03319 39.5586 8.38148 40.853 8.04834C41.1785 8.01805 41.504 8.01048 41.8219 8.01048C42.1399 8.01048 42.4578 8.02562 42.7757 8.01048C43.0936 8.00291 43.404 7.98777 43.7143 7.95748C43.8657 7.94234 44.0247 7.91962 44.1685 7.89691C44.3199 7.86663 44.4713 7.82877 44.6151 7.78334C45.2055 7.6092 45.796 7.54863 46.3713 7.47291C46.9541 7.40477 47.5294 7.36692 48.0744 7.24577C48.627 7.1322 49.1644 7.03378 49.6867 6.89749C50.209 6.76878 50.7238 6.65521 51.2158 6.51135C53.4488 5.89808 55.3866 5.1788 57.0444 4.47466C57.4531 4.29295 57.8467 4.11124 58.2252 3.9371C58.3161 3.89167 58.4145 3.85381 58.5053 3.80838C58.5961 3.76296 58.687 3.71753 58.7778 3.6721C58.9595 3.58124 59.1336 3.49796 59.3001 3.4071C59.9889 3.07396 60.5945 2.73325 61.1395 2.43797C61.2758 2.36226 61.412 2.28654 61.5407 2.2184C61.6694 2.14269 61.7905 2.06697 61.904 1.99883C62.1387 1.86255 62.3658 1.72626 62.5702 1.60512C62.9865 1.37041 63.3195 1.15084 63.5921 0.976701C64.1446 0.63599 64.4323 0.46942 64.455 0.499706C64.4777 0.529991 64.1522 0.787417 63.5164 1.26441C63.3574 1.38555 63.1833 1.52184 62.9713 1.65812C62.767 1.79441 62.5399 1.94583 62.2977 2.1124C62.1765 2.19569 62.0479 2.27897 61.9192 2.36983C61.7905 2.46068 61.6467 2.55154 61.5028 2.63483C61.2152 2.80897 60.8973 2.99825 60.5718 3.1951C59.2395 3.96738 57.5591 4.8608 55.5002 5.70879C53.4412 6.55678 51.0038 7.35934 48.2182 7.96505C47.6657 8.09377 47.0904 8.23005 46.5151 8.35119C45.9322 8.48748 45.3267 8.55562 44.7059 8.57076C44.5546 8.59347 44.3956 8.61619 44.2442 8.63133C44.0852 8.65404 43.9338 8.66919 43.7749 8.68433C43.4645 8.72219 43.1466 8.76762 42.8287 8.80547C42.5108 8.8509 42.1853 8.85847 41.8598 8.88118C41.5343 8.89633 41.2012 8.91147 40.8757 8.89633C39.5511 9.13861 38.1734 8.97961 36.7655 8.87361C35.3499 8.82061 33.9117 8.57833 32.4205 8.44962C31.6711 8.38148 30.9217 8.25276 30.1799 8.06348C29.809 7.97262 29.4305 7.88934 29.0521 7.79091C28.6736 7.69248 28.2951 7.60163 27.909 7.52591L27.629 7.43506L27.3489 7.33663C27.1597 7.26849 26.9704 7.20792 26.7812 7.13978C26.4027 7.01106 26.0166 6.90506 25.6382 6.77635C25.2521 6.65521 24.8661 6.53407 24.4725 6.4205C24.0864 6.29936 23.6928 6.17064 23.2916 6.05707C21.8004 5.3378 20.1956 4.80023 18.6817 3.97495C17.2586 2.99068 15.6766 2.2184 14.1703 1.2417C14.0264 1.15084 13.8826 1.05241 13.7388 0.961558C14.0189 0.681418 14.2989 0.401278 14.579 0.121139C15.5555 1.42341 16.373 2.86954 17.2284 4.31566C18.0913 5.95865 18.9845 7.63191 19.6582 9.42632C20.4454 11.1753 21.0737 13.0379 21.4371 14.9761C21.9745 16.8765 22.2697 18.8678 22.4892 20.8818L22.5195 21.1316V21.1922L22.5346 21.2225V21.2452C22.5346 21.2679 22.5498 21.283 22.5498 21.2982C22.5801 21.2982 22.6028 21.2982 22.633 21.2982C22.8299 21.3133 23.0267 21.3209 23.231 21.336C23.4354 21.3512 23.6398 21.3663 23.8517 21.3815C24.0561 21.3815 24.2681 21.3966 24.4725 21.4042C24.8888 21.4193 25.3051 21.4269 25.7214 21.442C26.1378 21.442 26.5617 21.4269 26.978 21.4118C27.2278 21.3966 27.4776 21.3966 27.7349 21.3815C27.9847 21.3663 28.2345 21.3588 28.4919 21.3436C28.9991 21.3209 29.5062 21.3209 30.0134 21.2679C30.2708 21.2452 30.5205 21.2225 30.7779 21.1998C31.0277 21.1695 31.2851 21.1543 31.5424 21.1089C32.0496 21.0256 32.5492 20.9196 33.0488 20.7909C35.0623 20.4048 37.0985 19.9656 39.0817 19.2766C39.3315 19.1934 39.5813 19.1176 39.8311 19.0344L40.2096 18.9132L40.3989 18.8526L40.5805 18.7845C41.0725 18.5952 41.5646 18.4059 42.0566 18.2242C42.541 18.0198 43.0255 17.8002 43.51 17.5807L43.8733 17.4141L44.2291 17.2324C44.4637 17.1112 44.6984 16.9825 44.933 16.8614C45.6446 16.6115 46.3107 16.2481 46.9768 15.8923L47.2266 15.756L47.2872 15.7181L47.3931 15.65L47.5975 15.5137L48.4226 14.9685C48.9752 14.6051 49.5429 14.2266 50.1333 13.8253C50.421 13.8328 50.6859 13.8858 50.9054 13.9994C51.0265 14.219 51.1779 14.4158 51.3218 14.6127C50.9281 15.226 50.5345 15.8317 50.1409 16.445L49.5429 17.3611L49.3915 17.5882L49.3158 17.7018L49.278 17.7624L49.1417 18.0122C48.7784 18.6709 48.3772 19.3145 48.0517 19.9883C47.9382 20.2231 47.817 20.4653 47.7035 20.7076L47.5294 21.0635L47.3704 21.4269C47.1585 21.9115 46.939 22.396 46.7346 22.8806C46.5454 23.3727 46.3485 23.8649 46.1593 24.3494L46.0836 24.5312L46.0231 24.7204L45.8944 25.0914C45.8111 25.3413 45.7203 25.5911 45.637 25.8334C45.0541 27.8398 44.4032 29.8235 44.1231 31.8678C44.0701 32.3826 43.9944 32.8899 43.9111 33.3896C43.8657 33.6395 43.843 33.8969 43.8052 34.1468C43.7749 34.3966 43.737 34.654 43.7068 34.9039C43.6311 35.4036 43.5932 35.9109 43.5554 36.4182C43.5402 36.668 43.5175 36.9254 43.51 37.1753C43.4948 37.4252 43.51 37.6826 43.51 37.9324C43.51 38.3564 43.51 38.7729 43.51 39.1893C43.5251 39.6057 43.5402 40.0221 43.5554 40.4386C43.5554 40.643 43.5629 40.855 43.5705 41.0594C43.5856 41.2638 43.5932 41.4758 43.6084 41.6803C43.6159 41.8771 43.6311 42.074 43.6386 42.2784L43.6235 42.3465L43.6689 42.3692H43.684V42.3768H43.7143L43.7749 42.392L44.0247 42.4298C46.0458 42.6494 47.9684 43.187 49.929 43.4747C50.1712 43.5201 50.4134 43.5807 50.6481 43.6337C50.8903 43.6867 51.125 43.7397 51.3672 43.7927C51.8441 43.8987 52.3209 44.0274 52.7903 44.1561C53.2596 44.2848 53.7213 44.4514 54.1755 44.6255C54.6297 44.7996 55.0611 45.0192 55.485 45.2615C57.3017 45.8975 58.9141 46.9045 60.5945 47.6919C61.9646 48.6762 63.4331 49.4333 64.7729 50.357C64.5004 50.6296 64.2279 50.9021 63.9554 51.1747C63.857 51.0309 63.7586 50.8946 63.6602 50.7507C62.6534 49.2667 61.8208 47.7146 60.9276 46.2382C60.0116 44.7618 59.4818 43.1415 58.8459 41.6197C58.6718 41.2411 58.5129 40.8625 58.3842 40.4764C58.2631 40.0903 58.1495 39.6966 58.0435 39.3029C57.93 38.9167 57.8392 38.523 57.7332 38.1369C57.6802 37.9476 57.6197 37.7583 57.5591 37.569C57.4985 37.3797 57.438 37.1904 57.3699 37.0087C57.279 36.6226 57.1882 36.244 57.0898 35.8655C56.9914 35.4869 56.9232 35.1083 56.84 34.7298C56.6659 33.9802 56.5523 33.2306 56.4464 32.4886C55.9392 31.0501 56.0603 29.551 56.0225 28.1427C55.9695 26.7344 55.75 25.3564 55.9998 24.0314C55.9543 23.6983 55.9468 23.3652 55.9543 23.0396C55.9619 22.714 55.9771 22.3885 56.0225 22.0705C56.0679 21.7525 56.1209 21.4345 56.1739 21.1241C56.1966 20.9651 56.2268 20.8136 56.2496 20.6622C56.2798 20.5108 56.3101 20.3518 56.3404 20.2003C56.4539 19.5946 56.4994 18.9889 56.5902 18.3984C56.6735 17.8078 56.7567 17.2324 56.946 16.6872C56.9914 16.1118 57.1201 15.5667 57.2942 15.0443C57.4607 14.5218 57.6272 14.0146 57.7559 13.5073C57.8543 13.265 57.9376 13.0227 58.0133 12.7804C58.0511 12.6593 58.089 12.5381 58.1268 12.417C58.1647 12.2959 58.2025 12.1747 58.2404 12.0612C58.3918 11.5917 58.5204 11.1223 58.6945 10.6832C58.8459 10.2365 59.0049 9.80489 59.1638 9.38846C59.3304 8.97204 59.5272 8.5859 59.7089 8.21491C59.7921 8.02562 59.8754 7.83634 59.9587 7.65463C60.0495 7.47291 60.1328 7.2912 60.2236 7.11706C60.3977 6.76878 60.5642 6.42807 60.7308 6.1025C61.7375 4.15667 62.6837 2.75597 63.3271 1.81712C64.0084 0.900987 64.3717 0.431564 64.4096 0.454278L64.4928 0.476992Z" fill="#0061EF"/>
<path d="M50.8827 14.0903C50.8827 14.0903 50.6102 14.6278 50.0047 15.5894C49.9668 15.65 49.929 15.7106 49.8835 15.7711C49.8457 15.8393 49.8078 15.8998 49.77 15.968C49.6943 16.1043 49.611 16.2481 49.5202 16.3995C49.3461 16.7024 49.1493 17.0355 48.9449 17.3914C48.7481 17.7548 48.5437 18.1561 48.3166 18.5725C48.2107 18.7845 48.082 19.0041 47.976 19.2312C47.8625 19.4584 47.7565 19.7006 47.6354 19.9429C47.484 20.2685 47.3175 20.6016 47.1585 20.9575C47.0071 21.3133 46.8481 21.6843 46.6892 22.0629C46.6135 22.2522 46.5302 22.449 46.447 22.6459C46.3713 22.8428 46.3031 23.0472 46.2274 23.2592C46.076 23.668 45.9095 24.092 45.743 24.5236C45.5462 24.9476 45.4402 25.417 45.3191 25.894C45.2888 26.0152 45.2585 26.1287 45.2282 26.2499C45.198 26.371 45.1753 26.4921 45.1374 26.6133C45.0693 26.8556 44.986 27.0979 44.88 27.3326C44.7968 27.5748 44.7135 27.8247 44.6454 28.0746C44.5848 28.332 44.5243 28.5894 44.4637 28.8544C44.3426 29.3768 44.2291 29.9144 44.1458 30.4747C43.949 31.5801 43.6613 32.7234 43.6084 33.9424C43.6311 34.2528 43.6084 34.5556 43.5629 34.8585C43.5251 35.1613 43.457 35.4718 43.4115 35.7822C43.3661 36.0926 43.3207 36.4106 43.298 36.7286C43.2753 37.0466 43.2753 37.3722 43.3359 37.6977C43.351 39 43.3359 40.3401 43.404 41.7257C43.3888 42.074 43.3888 42.4223 43.404 42.7781C43.4191 43.1264 43.4721 43.4822 43.51 43.8381C43.5327 44.0122 43.5629 44.194 43.5857 44.3681C43.6159 44.5422 43.6462 44.7239 43.6841 44.8981C43.7522 45.2539 43.8052 45.6174 43.8733 45.9732C43.9036 47.4496 44.3048 48.926 44.8195 50.3797C44.8573 50.7659 44.9028 51.1596 44.9936 51.5382C45.0769 51.9167 45.1828 52.3029 45.3039 52.6739C45.4326 53.0449 45.584 53.4159 45.743 53.7868C45.8187 53.9686 45.9095 54.1503 46.0079 54.332C46.0987 54.5137 46.1972 54.6878 46.3031 54.8696C46.8936 56.3687 47.4764 57.9208 48.3696 59.3518C49.1644 60.8358 50.1031 62.2668 51.0644 63.7205C51.1704 63.8492 51.2763 63.9779 51.3823 64.1066L50.527 64.9622C50.1788 64.7653 49.8457 64.5609 49.5051 64.3489C49.3385 64.2429 49.172 64.1293 49.0055 64.0233C48.8314 63.9173 48.6648 63.8113 48.4983 63.7053C48.3318 63.5993 48.1577 63.4857 47.9911 63.3722C47.8246 63.2586 47.6581 63.145 47.484 63.039C47.1434 62.8195 46.8027 62.5923 46.4697 62.3652C44.7968 61.661 43.1845 60.8131 41.4889 60.0332C41.065 59.8439 40.6259 59.6698 40.1869 59.5184C39.7403 59.3745 39.2861 59.2458 38.832 59.1095C37.916 58.8672 37.0001 58.6249 36.0842 58.3297C34.2221 57.8602 32.2994 57.5725 30.3465 57.3302C28.4011 57.035 26.3951 56.8684 24.3816 57.1107C22.3681 57.2242 20.3546 57.4892 18.3108 57.7315C16.32 58.2842 14.2989 58.6855 12.2703 59.2382C10.2946 59.9196 8.27355 60.5935 6.419 61.6535C4.49633 62.5848 2.72505 63.7962 0.915919 64.9849L0 64.0612C1.30954 62.3425 2.47525 60.5102 3.33062 58.5568C4.17084 56.6034 5.14732 54.7181 5.75288 52.7041C5.9724 52.2271 6.13136 51.7274 6.28275 51.2277C6.35088 50.9779 6.43414 50.728 6.4947 50.4706C6.55526 50.2132 6.60824 49.9633 6.6688 49.7059C6.72179 49.4485 6.78235 49.1986 6.82776 48.9412C6.87318 48.6838 6.9186 48.4339 6.96401 48.1765C7.00943 47.9266 7.06242 47.6692 7.11541 47.4193C7.16082 47.1619 7.20624 46.9121 7.25923 46.6622C7.59229 44.6331 7.92535 42.6115 7.87993 40.59C7.91021 38.576 7.79667 36.5847 7.66042 34.6238C7.40305 33.6622 7.29708 32.7006 7.16839 31.7315C7.13812 31.4892 7.11541 31.247 7.07756 31.0122C7.03971 30.77 7.00186 30.5352 6.96401 30.293C6.92617 30.0582 6.88075 29.816 6.83533 29.5813C6.78991 29.3465 6.72179 29.1118 6.66123 28.8847C6.3206 26.9919 5.61663 25.2202 4.95808 23.4788C4.22383 21.7676 3.60312 20.0262 2.62664 18.4968C2.42984 18.141 2.22546 17.7851 2.02108 17.4368C1.92267 17.2627 1.80913 17.0885 1.69559 16.922C1.58204 16.7554 1.47607 16.5813 1.36252 16.4147C1.24898 16.2481 1.14301 16.074 1.03703 15.9074C0.931059 15.7408 0.809945 15.5743 0.696401 15.4153C0.469314 15.0897 0.249796 14.7566 0.0378479 14.4234L0.862932 13.5981C0.999185 13.6966 1.12787 13.8026 1.25655 13.901C2.00594 14.3477 2.71748 14.8323 3.42902 15.3168C3.78479 15.5516 4.14056 15.7863 4.5039 16.0058C4.87481 16.2178 5.24572 16.4147 5.6242 16.5964C7.10784 17.3838 8.61418 18.0501 10.1054 18.6634C10.2871 18.7618 10.4612 18.8527 10.6428 18.9435C10.8245 19.0344 11.0062 19.1101 11.1954 19.1782C11.5663 19.3221 11.9448 19.4508 12.3233 19.5644C12.7018 19.6704 13.0878 19.7688 13.4587 19.8672C13.8372 19.9656 14.2157 20.0414 14.5866 20.1398C14.9575 20.2534 15.3284 20.3366 15.6993 20.4124C16.0702 20.4881 16.4411 20.5714 16.812 20.6319C17.1829 20.6925 17.5463 20.7682 17.9096 20.8439C18.273 20.9121 18.6287 20.9954 18.9845 21.0938C19.3478 21.1619 19.7036 21.2073 20.0594 21.2679C20.2411 21.2982 20.4152 21.3285 20.5893 21.3512C20.7709 21.3739 20.945 21.3966 21.1191 21.4193C21.4749 21.4572 21.8231 21.5102 22.1713 21.5253C22.5195 21.5481 22.8753 21.5556 23.2159 21.5556C23.9047 21.5935 24.586 21.6692 25.2597 21.7373C25.4262 21.7525 25.5928 21.7676 25.7593 21.7752C25.9258 21.7752 26.0923 21.7752 26.2589 21.7752C26.5919 21.7601 26.9174 21.7146 27.2429 21.6313C27.5684 21.6162 27.8863 21.6011 28.2118 21.5935C28.5298 21.5935 28.8477 21.5935 29.1656 21.5935C29.4835 21.5935 29.7939 21.5708 30.1042 21.5405C30.4146 21.5026 30.7098 21.4496 31.0126 21.3663C32.1859 21.0256 33.3743 21.0483 34.4719 20.8288C35.0245 20.7379 35.5619 20.6016 36.0842 20.4805C36.3491 20.4199 36.6065 20.3594 36.8639 20.2988C37.1212 20.2306 37.371 20.1625 37.6132 20.0944C39.8463 19.4811 41.7917 18.7769 43.4418 18.0501C43.6462 17.9592 43.8506 17.876 44.055 17.7927C44.2518 17.7018 44.441 17.611 44.6302 17.5201C45.0087 17.3384 45.3645 17.1718 45.7127 17.0052C46.394 16.657 47.0071 16.3238 47.5521 16.0361C48.0896 15.7257 48.5664 15.4456 48.9752 15.2108C49.1871 15.0973 49.3688 14.9761 49.5353 14.8701C49.7019 14.7641 49.8608 14.6657 49.9971 14.5824C50.5497 14.2417 50.8373 14.0751 50.86 14.1054C50.8827 14.1357 50.5572 14.3931 49.9214 14.8701C49.7624 14.9913 49.5808 15.12 49.3839 15.2714C49.1796 15.4153 48.9525 15.5591 48.7103 15.7181C48.4605 15.8771 48.1955 16.0513 47.9154 16.2405C47.8473 16.286 47.7716 16.3314 47.6959 16.3844C47.6202 16.4298 47.5445 16.4753 47.4688 16.5207C47.3099 16.6115 47.1509 16.71 46.9844 16.8008C46.6513 16.9901 46.3031 17.2021 45.9246 17.4141C45.5462 17.611 45.145 17.823 44.7211 18.035C44.3048 18.2621 43.8506 18.4589 43.3813 18.6709C43.1466 18.7769 42.912 18.8905 42.6622 18.9965C42.4199 19.1101 42.1626 19.2009 41.9052 19.3069C39.8463 20.1549 37.4164 20.9651 34.6233 21.5708C33.5105 21.8131 32.3524 22.1613 31.111 22.1841C30.8006 22.2143 30.4978 22.2598 30.1799 22.3052C29.8696 22.3506 29.5516 22.4036 29.2337 22.4263C28.9158 22.4566 28.5903 22.4869 28.2648 22.502C27.9393 22.5248 27.6138 22.5399 27.2808 22.5172C25.9561 22.7746 24.5784 22.6005 23.1705 22.502C22.8147 22.4869 22.4665 22.4566 22.1032 22.4339C21.7474 22.4112 21.3841 22.3582 21.0283 22.3203C20.8466 22.2976 20.665 22.2825 20.4833 22.2598C20.3016 22.2371 20.1199 22.2143 19.9383 22.1916C19.5674 22.1462 19.204 22.1159 18.8256 22.0781C18.4546 22.0478 18.0762 21.9948 17.7052 21.9342C17.3343 21.8661 16.9559 21.7828 16.585 21.6919C16.2065 21.6086 15.8356 21.5102 15.4571 21.4193C15.0786 21.3285 14.7001 21.2452 14.3141 21.1543C13.9432 21.0181 13.5647 20.9045 13.1862 20.7682C12.8077 20.6395 12.4293 20.5184 12.0432 20.4048C11.6572 20.2836 11.2711 20.1549 10.8775 20.0414C10.6807 19.9884 10.4839 19.9278 10.2871 19.8596C10.0903 19.7991 9.89344 19.7385 9.69663 19.6779C8.20543 18.9662 6.60824 18.4059 5.07919 17.6034C3.64854 16.6267 2.0892 15.8317 0.567719 14.8701C0.423897 14.7793 0.280075 14.6808 0.136252 14.59C0.416327 14.3099 0.696401 14.0297 0.976476 13.7496C1.2187 14.0827 1.44579 14.4159 1.68045 14.7566C1.79399 14.9307 1.9151 15.0973 2.02108 15.2714C2.12705 15.4456 2.23303 15.6197 2.34657 15.8014C2.45254 15.9755 2.56609 16.1573 2.67206 16.3314C2.77804 16.5055 2.89158 16.6797 2.98998 16.869C3.19436 17.2324 3.40631 17.5958 3.62583 17.9517C4.48876 19.5947 5.3744 21.2679 6.0481 23.0623C6.8429 24.8113 7.46361 26.6739 7.82695 28.6197C8.35682 30.5201 8.6596 32.5114 8.87912 34.5178C9.1819 36.5242 9.16676 38.5912 9.12135 40.6581C9.10621 41.6954 8.99266 42.7327 8.85641 43.77C8.79585 44.2924 8.71259 44.8072 8.65203 45.3297C8.62175 45.5871 8.59904 45.8521 8.56877 46.1171C8.53849 46.3821 8.51578 46.6395 8.49307 46.9121C8.16001 49.0093 7.58472 51.0763 6.94888 53.1433C6.25247 55.1875 5.39711 57.194 4.45848 59.1852C3.27763 61.0478 2.25574 63.0012 1.02189 64.8713C0.703971 64.5533 0.386049 64.2353 0.0756958 63.9249C1.85455 62.5696 3.78479 61.449 5.76045 60.4875C7.7134 59.4805 9.74205 58.6552 11.801 57.9965C13.8372 57.2621 15.9567 56.8987 18.0307 56.452C20.1124 55.9977 22.2243 55.9825 24.2832 55.8235C26.3497 55.6948 28.4162 55.7403 30.4221 56.0658C32.4432 56.2854 34.3659 56.823 36.3189 57.1182C37.2802 57.3227 38.2415 57.5422 39.1877 57.7997C39.657 57.9435 40.1188 58.0949 40.573 58.2615C41.0196 58.4432 41.4586 58.6552 41.8749 58.8975C43.6916 59.5411 45.3039 60.5405 46.9844 61.3203C47.325 61.5702 47.6732 61.8049 48.029 62.0245C48.2107 62.1305 48.3772 62.244 48.5589 62.3576C48.733 62.4712 48.9071 62.5772 49.0887 62.6832C49.2704 62.7892 49.4445 62.8952 49.6186 63.0012C49.7927 63.1072 49.9668 63.2207 50.1409 63.3267C50.4891 63.5463 50.8297 63.7659 51.1704 63.993C50.8979 64.2656 50.6254 64.5382 50.3529 64.8107C50.2544 64.6669 50.156 64.5306 50.0576 64.3943C49.066 62.8952 48.2031 61.3658 47.325 59.8818C46.4242 58.3978 45.8717 56.7851 45.2434 55.2633C45.1526 55.074 45.0769 54.8847 44.9936 54.6954C44.9103 54.5061 44.8422 54.3093 44.7816 54.12C44.653 53.7339 44.5394 53.3401 44.4334 52.954C44.335 52.5603 44.2366 52.1742 44.1231 51.788C44.0095 51.4094 43.9111 51.0233 43.7673 50.6523C43.3964 49.1229 43.0255 47.6238 42.8438 46.1322C42.7076 45.7764 42.6319 45.4054 42.5638 45.0419C42.5335 44.8602 42.5032 44.6785 42.4881 44.4968C42.4729 44.3151 42.4654 44.1334 42.4502 43.9517C42.4351 43.5882 42.4199 43.2248 42.4275 42.8614C42.4275 42.498 42.4275 42.1421 42.4199 41.7938C42.3745 40.3856 42.1399 39.0076 42.4048 37.6826C42.3518 37.3495 42.3442 37.0163 42.3594 36.6907C42.3669 36.3652 42.3972 36.0396 42.4275 35.7216C42.4578 35.4036 42.5183 35.0856 42.5789 34.7752C42.6319 34.4648 42.6924 34.1543 42.7379 33.8515C42.9574 32.6325 42.9877 31.4287 43.351 30.3384C43.3737 29.763 43.5402 29.2178 43.6992 28.6954C43.7825 28.438 43.8657 28.1806 43.9414 27.9231C44.0247 27.6657 44.1079 27.4159 44.1609 27.166C44.2593 26.9237 44.3426 26.6814 44.4183 26.4391C44.4562 26.318 44.494 26.1969 44.5318 26.0757C44.5697 25.9546 44.6075 25.8334 44.6454 25.7199C44.7968 25.2504 44.933 24.781 45.0996 24.3419C45.2434 23.8952 45.4099 23.4636 45.5764 23.0548C45.6597 22.8503 45.743 22.6459 45.8338 22.449C45.9246 22.2522 46.0231 22.0629 46.1215 21.8812C46.2956 21.5026 46.4621 21.1316 46.6286 20.7758C46.8027 20.4199 46.9768 20.0868 47.1434 19.7688C47.272 19.5265 47.3931 19.2918 47.5067 19.0647C47.6278 18.8375 47.7565 18.6255 47.8776 18.4135C48.1198 17.9971 48.3469 17.6034 48.5589 17.2475C48.786 16.8993 48.9979 16.5737 49.1871 16.2784C49.2855 16.1345 49.3764 15.9907 49.4672 15.8544C49.5126 15.7863 49.558 15.7257 49.5959 15.6576C49.6413 15.597 49.6867 15.5364 49.7246 15.4834C50.3983 14.5597 50.7692 14.0979 50.7995 14.1206L50.8827 14.0903Z" fill="#0061EF"/>
<path d="M34.6015 41.1882C34.6848 41.1882 34.7907 41.4305 34.9194 41.8924C34.9421 41.9681 34.9648 42.0514 34.9875 42.1422C35.0178 42.2331 35.0557 42.3239 35.0557 42.4224C34.9573 42.5359 35.2752 42.5965 35.1314 42.7328C35.1011 42.8539 35.1692 42.9599 35.2298 43.0735C35.2903 43.1871 35.2071 43.3309 35.3282 43.4445C35.5628 43.5354 35.1465 43.7549 35.4341 43.8458C35.5098 43.9745 35.5325 44.1184 35.5553 44.2698C35.4341 44.4515 35.6309 44.5651 35.6991 44.7165C35.5477 44.9209 35.6688 45.0572 35.8429 45.1859C35.7369 45.2995 35.6991 45.4055 35.7369 45.4812C35.7748 45.5645 35.8656 45.6251 36.017 45.6705C36.0776 45.837 36.0397 46.0339 36.2062 46.1778C36.2819 46.3443 36.3803 46.5033 36.3955 46.7002C36.6301 46.8213 36.6983 46.9955 36.6226 47.2302C36.8724 47.3437 36.8724 47.5557 36.8572 47.7753C36.8421 47.8889 36.9253 47.9722 36.9935 48.0479C37.0692 48.1236 37.1449 48.2069 37.1222 48.328C37.1979 48.5173 37.3417 48.6839 37.4098 48.8883C37.4174 49.0019 37.4325 49.1154 37.4704 49.2214C37.5082 49.3199 37.5763 49.4107 37.7126 49.4637C37.864 49.6303 38.0305 49.7893 38.0456 50.0316C38.3333 50.1224 38.3636 50.3647 38.3863 50.6146C38.5377 50.7811 38.5452 51.0537 38.7723 51.1824C38.8783 51.3944 39.1054 51.5156 39.1584 51.7654L39.1811 51.8336L38.2879 52.727C38.1441 52.568 37.9851 52.4165 37.7504 52.3863C37.4855 52.3636 37.4022 52.0834 37.1827 52.0001C37.1449 51.8563 37.0313 51.8108 36.9178 51.7806C36.8042 51.7503 36.6831 51.7351 36.6074 51.6518C36.403 51.561 36.2744 51.3338 36.0397 51.3187C35.8353 51.2354 35.6234 51.1824 35.472 51.0158C35.1465 51.19 35.1238 50.766 34.9043 50.7281C34.768 50.5237 34.5258 50.5616 34.3517 50.4631C34.1473 50.4404 34.0338 50.1906 33.8067 50.2209C33.6326 50.1224 33.4131 50.1679 33.2768 49.9861C33.0497 50.0619 32.9589 49.7514 32.7545 49.7893C32.5804 49.7287 32.4063 49.6833 32.2549 49.6C32.1565 49.3274 31.937 49.4486 31.7705 49.4259C31.6115 49.3577 31.4147 49.4713 31.3011 49.282C31.1498 49.2214 31.0211 49.0852 30.8545 49.1382C30.7031 49.1382 30.6426 48.7369 30.4306 49.0094C30.2793 49.0397 30.2036 48.7293 30.0295 48.9034C29.8629 49.0624 29.7797 48.8353 29.6585 48.805C29.5374 48.7747 29.4239 48.7369 29.3179 48.7066C29.1968 48.6687 29.0757 48.6384 28.9697 48.6157C28.8562 48.5854 28.7578 48.5627 28.6594 48.54C28.4701 48.487 28.3036 48.4416 28.1749 48.3962C27.91 48.3053 27.7662 48.2296 27.7737 48.169C27.7737 48.1009 27.963 48.0555 28.3112 48.0327C28.4853 48.0252 28.6972 48.0176 28.947 48.0176C29.0681 48.0176 29.2044 48.0176 29.3482 48.0327C29.492 48.0479 29.6358 48.063 29.7948 48.0782C29.9235 48.0933 30.0824 47.957 30.1884 48.1236C30.3247 48.1463 30.4912 48.0555 30.6123 48.1766C30.8016 47.9949 30.9151 48.2069 31.0589 48.2523C31.2103 48.2826 31.3541 48.3886 31.5358 48.3507C31.725 48.275 31.8462 48.4946 32.0354 48.4567C32.1716 48.6233 32.3457 48.6536 32.5577 48.593C32.6939 48.7747 32.921 48.6839 33.1027 48.7444C33.2238 48.9943 33.4509 48.9186 33.6704 48.911C33.8824 48.911 34.0338 49.0852 34.2457 49.123C34.4198 49.2366 34.6545 49.2366 34.8361 49.3426C35.0708 49.335 35.2827 49.4032 35.4341 49.6C35.6612 49.6379 35.8353 49.7817 36.0397 49.8801C36.2744 49.9104 36.4485 50.0846 36.6528 50.183C36.8724 50.2587 36.9556 50.5919 37.266 50.5237C37.372 50.5691 37.4779 50.6373 37.5763 50.7054C37.6747 50.7736 37.7807 50.8341 37.8867 50.8871C38.0759 51.0461 38.2576 51.2051 38.4922 51.2884C38.5679 51.5761 38.8026 51.6216 39.0373 51.6821C38.7345 51.985 38.4317 52.2954 38.1213 52.5983L38.0608 52.5528C37.8715 52.3787 37.758 52.1591 37.652 51.932C37.5006 51.7427 37.372 51.5307 37.2508 51.3187C37.0767 51.1446 37.0919 50.8568 36.9026 50.6903C36.7058 50.5313 36.7588 50.236 36.562 50.077C36.4712 49.9937 36.403 49.9029 36.3501 49.7969C36.2971 49.6984 36.2668 49.5849 36.2592 49.4562C36.1608 49.2517 36.2441 48.9716 35.9791 48.8504C35.911 48.7596 35.7975 48.6914 35.7294 48.6006C35.6612 48.5097 35.6385 48.4037 35.7294 48.2447C35.578 48.0706 35.7066 47.798 35.5098 47.6542C35.6385 47.3816 35.366 47.2756 35.3055 47.0787C35.2827 46.8743 35.2903 46.6623 35.1465 46.5109C34.9875 46.3595 35.0859 46.1323 34.9951 45.9658C34.9043 45.8976 34.9194 45.7992 34.927 45.7008C34.9345 45.6023 34.9573 45.5115 34.8664 45.4433C34.8513 45.2692 34.7604 45.1102 34.768 44.9361C34.4425 44.8452 34.6923 44.6181 34.6772 44.4591C34.6772 44.3001 34.4122 44.2016 34.6015 44.0048C34.3593 43.9064 34.5182 43.7246 34.5561 43.5808C34.5939 43.4369 34.4122 43.3309 34.5182 43.1871C34.3441 43.0887 34.5561 42.9297 34.4879 42.8237C34.5636 42.6949 34.4577 42.5965 34.4728 42.4905C34.4274 42.3921 34.4274 42.2937 34.4728 42.1952C34.4728 42.1044 34.4728 42.0135 34.4728 41.9302C34.4879 41.4381 34.5334 41.1731 34.6166 41.1655L34.6015 41.1882Z" fill="#0061EF"/>
<path d="M16.8159 41.3245C16.7326 41.3245 16.6872 41.0065 16.6418 40.4537C16.6418 40.3629 16.6267 40.2645 16.6191 40.1585C16.604 40.0525 16.5813 39.9389 16.5964 39.8178C16.7099 39.6966 16.3996 39.5679 16.5661 39.4392C16.6191 39.3105 16.5661 39.1742 16.5358 39.0303C16.498 38.8865 16.5964 38.7351 16.498 38.5836C16.286 38.4398 16.7175 38.2581 16.445 38.1066C16.3769 37.9476 16.3844 37.7735 16.3844 37.5993C16.5358 37.4101 16.3542 37.2435 16.3088 37.0618C16.4829 36.8574 16.3769 36.6756 16.2179 36.4939C16.4526 36.2668 16.3844 36.0699 16.1119 35.9034C16.0741 35.7065 16.1422 35.4794 15.9833 35.2901C15.9227 35.0857 15.8394 34.8812 15.8394 34.6541C15.6199 34.4724 15.5745 34.2604 15.6729 34.003C15.4307 33.8288 15.4458 33.5865 15.4761 33.3367C15.5139 33.0793 15.1809 32.9278 15.2566 32.6553C15.196 32.4205 15.0673 32.2086 15.0068 31.9587C14.9992 31.7013 14.9916 31.4287 14.7267 31.2546C14.5905 31.035 14.4315 30.823 14.4239 30.5429C14.1363 30.3839 14.106 30.1189 14.0909 29.8311C13.947 29.604 13.9546 29.3012 13.7275 29.1194C13.6291 28.8696 13.3869 28.6879 13.3263 28.4077C13.2431 28.1427 13.1522 27.8777 12.9024 27.7112C12.6451 27.5522 12.6526 27.2342 12.4634 27.0449C12.4634 26.8935 12.3877 26.795 12.2969 26.7118L13.1295 25.8789C13.2582 25.9395 13.4096 25.9698 13.5004 26.0758C13.72 26.2045 13.8713 26.4543 14.1363 26.5073C14.3709 26.6133 14.6056 26.7118 14.7797 26.9086C15.143 26.7799 15.1733 27.219 15.4155 27.2796C15.5745 27.5067 15.8546 27.4916 16.0438 27.6203C16.2785 27.6733 16.4072 27.9459 16.6645 27.9307C16.8613 28.0519 17.1187 28.0292 17.2777 28.2185C17.535 28.1655 17.641 28.4986 17.8757 28.4759C18.0725 28.5516 18.2768 28.6122 18.4585 28.7106C18.5796 28.9983 18.8294 28.8772 19.0187 28.9226C19.2003 29.0059 19.4274 28.915 19.5561 29.1119C19.7302 29.18 19.8816 29.3314 20.0708 29.286C20.2525 29.3012 20.3282 29.6949 20.5629 29.4374C20.737 29.4223 20.8278 29.7403 21.0246 29.5737C21.2138 29.4223 21.3122 29.657 21.4561 29.6949C21.5923 29.7327 21.7286 29.7706 21.8573 29.8009C23.0003 30.1037 23.674 30.2551 23.6664 30.3839C23.6588 30.5126 22.7883 30.5959 21.3198 30.4217C21.176 30.4066 20.9868 30.5277 20.8656 30.3536C20.7067 30.3233 20.5174 30.399 20.3736 30.2703C20.1541 30.4369 20.0254 30.2249 19.8513 30.1643C19.6696 30.1264 19.5107 30.0129 19.2987 30.0356C19.0792 30.0961 18.943 29.8614 18.7159 29.8841C18.5645 29.6949 18.3525 29.6646 18.1103 29.71C17.9514 29.5207 17.694 29.5889 17.482 29.5056C17.3458 29.2406 17.0809 29.286 16.8386 29.2709C16.5964 29.2482 16.4147 29.0589 16.1801 29.0059C15.9757 28.8696 15.7183 28.8469 15.5064 28.703C15.2414 28.6727 14.9992 28.5894 14.8251 28.3699C14.5677 28.3017 14.3634 28.1352 14.1363 27.9989C13.8713 27.9307 13.6821 27.7187 13.4475 27.59C13.1977 27.4765 13.1068 27.1206 12.7586 27.1433C12.6299 27.0752 12.5088 26.9767 12.3953 26.8859C12.7056 26.5755 13.016 26.265 13.3263 25.9546C13.3945 26.0606 13.4702 26.1742 13.561 26.2726C13.6972 26.5225 13.8335 26.7723 14.0379 26.9843C14.0076 27.3402 14.2725 27.5143 14.4921 27.7263C14.6889 27.9459 14.8024 28.2185 14.916 28.4834C15.0673 28.7257 15.1885 28.9832 15.2944 29.2482C15.4761 29.4753 15.4534 29.7933 15.6426 30.0129C15.8394 30.2324 15.7713 30.558 15.953 30.77C16.1119 30.9971 16.2331 31.2394 16.2255 31.5271C16.3163 31.777 16.2103 32.0798 16.4601 32.2691C16.5737 32.4963 16.884 32.678 16.6645 33.0035C16.8008 33.2231 16.657 33.5184 16.8386 33.7228C16.6872 34.0105 16.937 34.1922 16.9824 34.4194C16.99 34.6541 16.9597 34.8964 17.096 35.0932C17.2398 35.2977 17.1187 35.5399 17.1868 35.7444C17.3458 35.9412 17.0884 36.1835 17.255 36.3728C17.255 36.5772 17.3231 36.7741 17.2928 36.9709C17.6032 37.1375 17.3306 37.3571 17.3155 37.5388C17.2852 37.7205 17.535 37.8871 17.3155 38.0763C17.5426 38.2353 17.3609 38.4171 17.3079 38.5761C17.2474 38.7351 17.4139 38.8865 17.2852 39.0379C17.4442 39.1818 17.202 39.3256 17.255 39.4619C17.149 39.5982 17.2474 39.7269 17.2171 39.848C17.2474 39.9692 17.2322 40.0828 17.1717 40.1888C17.1565 40.2947 17.1414 40.3932 17.1263 40.4916C17.0203 41.0519 16.9143 41.3472 16.8311 41.3396L16.8159 41.3245Z" fill="#0061EF"/>
<path d="M30.4754 35.8655C30.4754 35.9488 30.3694 36.0245 30.1802 36.1002C30.1499 36.1154 30.1121 36.123 30.0742 36.1381C30.0364 36.1608 29.9985 36.1835 29.9607 36.176C29.9153 36.07 29.8774 36.3804 29.832 36.2062C29.7866 36.1608 29.7412 36.2062 29.6882 36.2365C29.6352 36.2744 29.5898 36.1684 29.5292 36.2668C29.4762 36.4788 29.4157 36.0321 29.3627 36.2971C29.3021 36.3577 29.2416 36.3425 29.181 36.3274C29.1205 36.1684 29.0523 36.3274 28.9918 36.3577C28.9237 36.1608 28.8631 36.2517 28.7874 36.3804C28.7193 36.1154 28.6511 36.1532 28.5755 36.4031C28.4998 36.4107 28.4316 36.3047 28.3559 36.4258C28.2802 36.4409 28.2045 36.4939 28.1213 36.4485C28.0456 36.6302 27.9623 36.6151 27.8791 36.4637C27.7958 36.6529 27.7125 36.5772 27.6293 36.4788C27.546 36.3728 27.4627 36.6454 27.3719 36.4939C27.2886 36.4788 27.1978 36.5394 27.107 36.5091C27.0161 36.4334 26.9329 36.3425 26.842 36.5167C26.7512 36.5621 26.6603 36.6302 26.5695 36.5242C26.4787 36.7287 26.3878 36.6378 26.2894 36.5242C26.1986 36.5545 26.1002 36.4107 26.0018 36.5242C25.9034 36.4939 25.8126 36.6151 25.7141 36.5242C25.6157 36.4637 25.5173 36.4031 25.4265 36.5242C25.3281 36.6529 25.2373 36.4712 25.1389 36.5242C25.0405 36.335 24.9496 36.5848 24.8588 36.5242C24.768 36.5469 24.6771 36.4107 24.5863 36.5167C24.4954 36.5545 24.4046 36.5848 24.3138 36.5091C24.2229 36.8044 24.1397 36.4334 24.0488 36.4939C23.9656 36.3728 23.8747 36.5091 23.7915 36.4788C23.7082 36.5318 23.6249 36.3425 23.5417 36.4637C23.4584 36.4409 23.3827 36.5545 23.2995 36.4485C23.2238 36.5924 23.1481 36.3274 23.0724 36.4258C22.9967 36.4258 22.921 36.4334 22.8528 36.4031C22.7772 36.176 22.709 36.3652 22.6409 36.3804C22.5728 36.3577 22.5046 36.5091 22.4365 36.3577C22.3684 36.3425 22.3078 36.2365 22.2473 36.3274C22.1867 36.3577 22.1262 35.9942 22.0656 36.2971C22.0051 36.3501 21.9521 36.0624 21.8991 36.2668C21.8461 36.4561 21.7931 36.2441 21.7401 36.2365C21.6871 36.2214 21.6417 36.2138 21.5963 36.2062C21.18 36.1078 20.9453 35.9942 20.9453 35.8655C20.9453 35.7292 21.2405 35.6005 21.7401 35.4945C21.7931 35.487 21.8461 35.3204 21.8991 35.4642C21.9521 35.4642 22.0126 35.3431 22.0656 35.434C22.1262 35.222 22.1867 35.3961 22.2473 35.4037C22.3078 35.3961 22.3684 35.4642 22.4365 35.3734C22.5046 35.2522 22.5728 35.434 22.6409 35.3507C22.709 35.4794 22.7772 35.4491 22.8528 35.328C22.921 35.4567 22.9967 35.2977 23.0724 35.3052C23.1481 35.5021 23.2238 35.3658 23.2995 35.2825C23.3827 35.2144 23.4584 35.3128 23.5417 35.2674C23.6249 35.3052 23.7082 35.2144 23.7915 35.2522C23.8747 35.1614 23.958 35.1235 24.0488 35.2371C24.1397 35.1765 24.2229 35.222 24.3138 35.222C24.4046 35.1462 24.4879 35.2295 24.5863 35.2144C24.6771 35.1765 24.768 35.4264 24.8588 35.2068C24.9496 35.1765 25.048 35.2447 25.1389 35.2068C25.2297 35.2371 25.3281 35.2674 25.4265 35.2068C25.5249 35.4188 25.6157 35.2901 25.7141 35.2068C25.8126 35.1462 25.911 35.1765 26.0018 35.2068C26.1002 35.1841 26.191 35.1992 26.2894 35.2068C26.3878 35.1462 26.4787 35.2977 26.5695 35.2068C26.6603 35.116 26.7587 35.3052 26.842 35.2144C26.9329 35.1538 27.0237 35.116 27.107 35.222C27.1978 35.222 27.2811 35.4188 27.3719 35.2371C27.4552 35.1917 27.546 34.957 27.6293 35.2522C27.7125 35.1765 27.7958 35.3961 27.8791 35.2674C27.9623 35.487 28.038 35.275 28.1213 35.2825C28.197 35.328 28.2802 35.3961 28.3559 35.3052C28.4316 35.1992 28.5073 35.3658 28.5755 35.328C28.6436 35.1992 28.7193 35.4945 28.7874 35.3507C28.8555 35.381 28.9237 35.3355 28.9918 35.3734C29.0599 35.0781 29.1205 35.3734 29.181 35.4037C29.2416 35.4491 29.3021 35.2068 29.3627 35.434C29.4232 35.2144 29.4762 35.4037 29.5292 35.4642C29.5822 35.5324 29.6352 35.3734 29.6882 35.4945C29.7412 35.3355 29.7866 35.5778 29.832 35.5248C29.8774 35.6308 29.9228 35.5248 29.9607 35.5551C29.9985 35.5172 30.0439 35.5324 30.0742 35.593C30.1121 35.6081 30.1424 35.6157 30.1802 35.6308C30.3694 35.7065 30.4754 35.7822 30.4754 35.8655Z" fill="#0061EF"/>
<path d="M30.4754 42.6719C30.4754 42.7552 30.3694 42.8309 30.1802 42.9066C30.1499 42.9218 30.1121 42.9294 30.0742 42.9445C30.0364 42.9672 29.9985 42.9899 29.9607 42.9823C29.9153 42.8764 29.8774 43.1868 29.832 43.0126C29.7866 42.9672 29.7412 43.0126 29.6882 43.0429C29.6352 43.0808 29.5898 42.9748 29.5292 43.0732C29.4762 43.2852 29.4157 42.8385 29.3627 43.1035C29.3021 43.1641 29.2416 43.1489 29.181 43.1338C29.1205 42.9748 29.0523 43.1338 28.9918 43.1641C28.9237 42.9672 28.8631 43.0581 28.7874 43.1868C28.7193 42.9218 28.6511 42.9596 28.5755 43.2095C28.4998 43.2171 28.4316 43.1111 28.3559 43.2322C28.2802 43.2473 28.2045 43.3003 28.1213 43.2549C28.0456 43.4366 27.9623 43.4291 27.8791 43.2701C27.7958 43.4593 27.7125 43.3836 27.6293 43.2852C27.546 43.1792 27.4627 43.4518 27.3719 43.3003C27.2886 43.2852 27.1978 43.3458 27.107 43.3155C27.0161 43.2398 26.9329 43.1489 26.842 43.3231C26.7512 43.3685 26.6603 43.4366 26.5695 43.3306C26.4787 43.5351 26.3878 43.4442 26.2894 43.3306C26.1986 43.3609 26.1002 43.2171 26.0018 43.3306C25.9034 43.3003 25.8126 43.4215 25.7141 43.3306C25.6157 43.2701 25.5173 43.2095 25.4265 43.3306C25.3281 43.4593 25.2373 43.2776 25.1389 43.3306C25.0405 43.1413 24.9496 43.3912 24.8588 43.3306C24.768 43.3458 24.6771 43.2171 24.5863 43.3231C24.4954 43.3609 24.4046 43.3912 24.3138 43.3155C24.2229 43.6108 24.1397 43.2398 24.0488 43.3003C23.9656 43.1792 23.8747 43.3155 23.7915 43.2852C23.7082 43.3382 23.6249 43.1489 23.5417 43.2701C23.4584 43.2473 23.3827 43.3685 23.2995 43.2549C23.2238 43.3988 23.1481 43.1338 23.0724 43.2322C22.9967 43.2322 22.921 43.2398 22.8528 43.2095C22.7772 42.9823 22.709 43.1716 22.6409 43.1868C22.5728 43.1641 22.5046 43.3155 22.4365 43.1641C22.3684 43.1489 22.3078 43.0429 22.2473 43.1338C22.1867 43.1641 22.1262 42.8006 22.0656 43.1035C22.0051 43.1565 21.9521 42.8688 21.8991 43.0732C21.8461 43.2625 21.7931 43.0505 21.7401 43.0429C21.6871 43.0278 21.6417 43.0202 21.5963 43.0126C21.18 42.9142 20.9453 42.8006 20.9453 42.6719C20.9453 42.5356 21.2405 42.4069 21.7401 42.3009C21.7931 42.2934 21.8461 42.1268 21.8991 42.2706C21.9521 42.2706 22.0126 42.1495 22.0656 42.2404C22.1262 42.0284 22.1867 42.2025 22.2473 42.2101C22.3078 42.2025 22.3684 42.2706 22.4365 42.1798C22.5046 42.0586 22.5728 42.2404 22.6409 42.1571C22.709 42.2858 22.7772 42.2555 22.8528 42.1344C22.921 42.2631 22.9967 42.1041 23.0724 42.1116C23.1481 42.3085 23.2238 42.1722 23.2995 42.0889C23.3827 42.0208 23.4584 42.1192 23.5417 42.0738C23.6249 42.1116 23.7082 42.0208 23.7915 42.0586C23.8747 41.9678 23.958 41.9299 24.0488 42.0435C24.1397 41.9829 24.2229 42.0284 24.3138 42.0284C24.4046 41.9526 24.4879 42.0359 24.5863 42.0208C24.6771 41.9829 24.768 42.2328 24.8588 42.0208C24.9496 41.9905 25.048 42.0511 25.1389 42.0208C25.2297 42.0511 25.3281 42.0738 25.4265 42.0208C25.5249 42.2328 25.6157 42.1041 25.7141 42.0208C25.8126 41.9602 25.911 41.9905 26.0018 42.0208C26.1002 41.9981 26.191 42.0132 26.2894 42.0208C26.3878 41.9602 26.4787 42.1116 26.5695 42.0208C26.6603 41.9299 26.7587 42.1192 26.842 42.0208C26.9329 41.9602 27.0237 41.9224 27.107 42.0284C27.1978 42.0284 27.2811 42.2252 27.3719 42.0435C27.4552 41.9981 27.546 41.7634 27.6293 42.0586C27.7125 41.9829 27.7958 42.2025 27.8791 42.0738C27.9623 42.2934 28.038 42.0814 28.1213 42.0889C28.197 42.1344 28.2802 42.2025 28.3559 42.1116C28.4316 42.0056 28.5073 42.1646 28.5755 42.1344C28.6436 42.0132 28.7193 42.3009 28.7874 42.1571C28.8555 42.1874 28.9237 42.1419 28.9918 42.1798C29.0599 41.8845 29.1205 42.1798 29.181 42.2101C29.2416 42.2555 29.3021 42.0132 29.3627 42.2404C29.4232 42.0208 29.4762 42.2101 29.5292 42.2706C29.5822 42.3312 29.6352 42.1798 29.6882 42.3009C29.7412 42.1419 29.7866 42.3842 29.832 42.3312C29.8774 42.4372 29.9228 42.3312 29.9607 42.3691C29.9985 42.3312 30.0439 42.3464 30.0742 42.3994C30.1121 42.4145 30.1424 42.4221 30.1802 42.4372C30.3694 42.5129 30.4754 42.5886 30.4754 42.6719Z" fill="#0061EF"/>
</g>
<defs>
<clipPath id="clip0_926_16101">
<rect width="65" height="65" fill="white"/>
</clipPath>
</defs>
</svg>
