<svg width="76" height="86" viewBox="0 0 76 86" fill="none" xmlns="http://www.w3.org/2000/svg">
<g clip-path="url(#clip0_926_16118)">
<path d="M37.7727 0.0799219C37.7727 0.0799219 37.6527 0.139922 37.4227 0.179922C37.3027 0.199922 37.1627 0.219922 36.9927 0.239922C36.8227 0.259922 36.6227 0.319922 36.4027 0.359922C35.5227 0.549922 34.2327 0.969922 32.8027 1.91992C32.5727 2.07992 32.3327 2.25992 32.0827 2.43992C31.8427 2.62992 31.6027 2.83992 31.3527 3.04992C31.1127 3.26992 30.8827 3.51992 30.6227 3.75992C30.3727 4.00992 30.1427 4.27992 29.8727 4.53992C29.5627 4.75992 29.3727 5.10992 29.1627 5.43992C28.9627 5.77992 28.7627 6.12992 28.4227 6.38992C28.1627 6.70992 27.9227 7.05992 27.6927 7.41992C27.4827 7.79992 27.2627 8.17992 27.0527 8.57992C26.6527 9.38992 26.0727 10.1499 25.7827 11.0999C25.7027 11.5999 25.4227 12.0199 25.1627 12.4599C25.0327 12.6799 24.9027 12.8999 24.8027 13.1399C24.7027 13.3799 24.6427 13.6299 24.6327 13.9099C24.5627 14.1599 24.4727 14.4099 24.3927 14.6699C24.3127 14.9299 24.2327 15.1799 24.1427 15.4399C23.9627 15.9499 23.7927 16.4799 23.6127 17.0099C23.4727 17.2599 23.3727 17.5199 23.2827 17.7999C23.1927 18.0699 23.1227 18.3499 23.0627 18.6299C22.9427 19.1899 22.8727 19.7799 22.7427 20.3599C22.4927 20.9099 22.3127 21.4899 22.2127 22.0899C22.1627 22.3899 22.1327 22.6999 22.1027 23.0099C22.0727 23.3199 22.0627 23.6299 22.0527 23.9499C21.7727 24.5299 21.5927 25.1499 21.5127 25.7899C21.4727 26.1099 21.4627 26.4299 21.4627 26.7599C21.4627 27.0899 21.5027 27.4199 21.5427 27.7499C21.4627 28.3999 21.3927 29.0599 21.3127 29.7199C21.2327 30.3799 21.2127 31.0599 21.2427 31.7499C21.2127 32.4299 21.2227 33.1199 21.2027 33.8199C21.2027 34.5199 21.1927 35.2199 21.1627 35.9299C21.4027 37.3499 21.4527 38.7699 21.3327 40.2499C21.6827 41.6999 21.7227 43.1799 21.7827 44.6899C21.8327 46.2099 22.4527 47.6599 22.5527 49.2199C22.8527 50.7399 23.2927 52.2599 23.7027 53.7899C24.0527 55.3399 24.4727 56.9199 25.3127 58.3299C25.9927 59.7999 26.7827 61.2299 27.5027 62.7099C28.0527 63.3399 28.5127 64.0099 28.9927 64.6699C29.2227 65.0099 29.4727 65.3299 29.7027 65.6699C29.8227 65.8399 29.9527 65.9999 30.0727 66.1599L30.2527 66.4099L30.4427 66.6499C30.6627 66.8699 30.8827 67.0999 31.1127 67.3099L31.4527 67.6399L31.8027 67.9499C31.9227 68.0499 32.0327 68.1599 32.1627 68.2599L32.2527 68.3299L32.2727 68.3499L32.3027 68.3799C32.3027 68.3799 32.3527 68.4199 32.3827 68.4399L32.4227 68.4699C32.4227 68.4699 32.4527 68.4999 32.4527 68.4699L32.4827 68.3399C32.4827 68.3399 32.4827 68.3199 32.4827 68.2999L32.5027 68.2399L32.5227 68.1899V68.1599L32.5727 68.0799C32.8427 67.6399 33.1727 67.2399 33.5327 66.8799C33.8927 66.5099 34.3027 66.1899 34.7527 65.9199C35.2027 65.6599 35.6827 65.4399 36.1927 65.3099C36.7027 65.1799 37.2327 65.1299 37.7527 65.1499C38.2727 65.1799 38.7827 65.2599 39.2827 65.4099C39.7827 65.5599 40.2427 65.7699 40.6927 66.0199C41.1427 66.2699 41.5427 66.5799 41.9127 66.9299C42.2827 67.2799 42.6327 67.6599 42.9227 68.0799L42.9727 68.1499L42.9927 68.1699L43.0227 68.2099L43.0527 68.2499C43.0527 68.2499 43.0527 68.2499 43.0627 68.2599C43.0827 68.2599 43.0827 68.2799 43.0927 68.2899C43.1127 68.2899 43.1327 68.2699 43.1627 68.2699H43.1827H43.1927L43.2827 68.1999C43.4127 68.1199 43.5327 68.0199 43.6527 67.9199L44.0227 67.6299C44.1427 67.5299 44.2627 67.4199 44.3727 67.3199C44.6127 67.1099 44.8227 66.8799 45.0327 66.6499C45.1127 66.5899 45.1927 66.5199 45.2727 66.4599C45.3527 66.3899 45.4227 66.3199 45.4927 66.2499C45.6427 66.0999 45.7827 65.9599 45.9227 65.7999C46.1827 65.4799 46.4327 65.1499 46.6527 64.7999C47.1127 64.1199 47.5027 63.3899 47.9727 62.7099C48.7827 61.2899 49.6627 59.8899 50.1627 58.3299C50.7427 56.8099 51.2227 55.2899 51.7727 53.7899C51.7927 53.3799 51.8527 52.9899 51.9527 52.6099C52.0527 52.2299 52.1627 51.8499 52.2927 51.4799L52.4827 50.9199C52.5427 50.7299 52.6027 50.5499 52.6627 50.3599C52.7727 49.9899 52.8827 49.6099 52.9327 49.2199C53.4127 47.7299 53.4727 46.1799 53.7027 44.6899C53.8227 43.1799 54.2227 41.7199 54.1527 40.2499C54.2727 38.7899 54.1627 37.3399 54.3227 35.9299C54.2327 35.2199 54.2527 34.5199 54.2927 33.8199C54.3127 33.1199 54.3527 32.4299 54.2427 31.7499C54.1927 31.0699 54.1627 30.3999 54.1027 29.7299C54.0527 29.0599 53.9927 28.4099 53.9427 27.7499C53.9827 27.4199 53.9927 27.0899 53.9727 26.7599C53.9427 26.4399 53.9027 26.1199 53.8427 25.7999C53.7327 25.1699 53.5527 24.5599 53.4427 23.9399C53.4027 23.6299 53.3427 23.3299 53.2727 23.0299C53.2027 22.7299 53.1327 22.4299 53.0627 22.1399C52.9227 21.5499 52.7827 20.9699 52.7627 20.3599C52.6327 19.7799 52.5327 19.1999 52.4027 18.6399C52.3327 18.3599 52.2627 18.0799 52.1827 17.8099C52.1027 17.5399 52.0127 17.2699 51.8927 17.0099C51.7027 16.4799 51.6527 15.9199 51.5327 15.3899C51.4727 15.1199 51.4027 14.8599 51.3027 14.6099C51.2027 14.3599 51.0527 14.1299 50.8727 13.9199C50.7627 13.6799 50.6827 13.4299 50.6027 13.1899C50.5227 12.9399 50.4527 12.6899 50.3827 12.4499C50.2427 11.9599 50.0527 11.4899 49.7227 11.1099C49.0827 10.3399 48.8927 9.37992 48.4527 8.58992C48.2327 8.19992 47.9927 7.81992 47.7827 7.44992C47.5527 7.08992 47.3127 6.73992 47.0827 6.38992C46.0227 4.86992 44.8927 3.64992 43.7927 2.72992C42.6927 1.80992 41.6227 1.20992 40.7027 0.839922C40.5927 0.789922 40.4727 0.749922 40.3727 0.699922C40.2627 0.659922 40.1527 0.629922 40.0527 0.599922C39.8427 0.539922 39.6527 0.479922 39.4627 0.419922C39.0927 0.349922 38.7827 0.259922 38.5227 0.219922C38.0127 0.149922 37.7427 0.0999219 37.7427 0.0599219C37.7427 0.0199219 38.0827 -0.0200781 38.7327 -0.0200781C39.3827 0.0199219 40.3727 0.149922 41.5527 0.629922C42.7327 1.09992 44.0927 1.93992 45.4427 3.18992C45.6127 3.33992 45.7727 3.50992 45.9427 3.67992C46.1027 3.84992 46.2827 4.00992 46.4427 4.19992C46.7627 4.56992 47.1127 4.93992 47.4227 5.35992C48.0827 6.16992 48.6927 7.08992 49.3127 8.07992C49.7927 8.87992 50.4427 9.63992 50.7027 10.6399C50.9127 11.0999 51.1727 11.5399 51.3927 12.0199C51.5027 12.2599 51.6227 12.4899 51.7227 12.7399C51.8227 12.9899 51.9027 13.2399 51.9727 13.5099C52.1327 13.7399 52.2727 13.9799 52.3827 14.2299C52.4927 14.4799 52.5727 14.7499 52.6627 15.0099C52.8327 15.5399 52.9327 16.0999 53.0927 16.6499C53.1827 16.9199 53.2627 17.1999 53.3327 17.4799C53.4027 17.7599 53.4827 18.0499 53.5527 18.3299C53.7027 18.8999 53.8427 19.4799 54.0527 20.0599C54.2627 20.6299 54.3827 21.2399 54.4827 21.8499C54.5327 22.1599 54.5727 22.4699 54.6327 22.7799C54.6927 23.0899 54.7527 23.3999 54.8327 23.7099C54.8527 24.3499 54.9327 24.9899 55.0227 25.6399C55.0727 25.9599 55.1327 26.2899 55.2027 26.6099C55.2627 26.9299 55.3327 27.2599 55.4127 27.5899C55.4127 28.2599 55.4727 28.9299 55.5627 29.6099C55.6627 30.2899 55.7327 30.9699 55.7827 31.6699C55.6927 32.3699 55.6827 33.0699 55.7427 33.7799C55.7727 34.4899 55.8627 35.1999 55.9127 35.9299C56.0027 37.3799 55.8127 38.8499 55.7927 40.3499C55.6527 41.8399 55.6127 43.3699 55.3727 44.9099C55.3027 46.4599 55.0827 48.0299 54.6127 49.5699C54.3727 51.1499 53.9227 52.7199 53.4527 54.2899C53.0827 55.8999 52.4227 57.4399 51.8027 59.0099C51.7227 59.2099 51.6427 59.3999 51.5627 59.5999C51.4727 59.7899 51.3727 59.9799 51.2827 60.1699C51.0927 60.5499 50.8827 60.9199 50.6727 61.2999C50.2627 62.0499 49.8327 62.7999 49.5227 63.6199C49.0827 64.3699 48.6027 65.1099 48.0627 65.8099C47.8027 66.1699 47.5127 66.5099 47.2327 66.8599C47.0927 67.0299 46.9427 67.1999 46.7927 67.3699L46.5727 67.6299L46.3427 67.8799C46.1027 68.1199 45.8527 68.3699 45.5927 68.5999L45.2027 68.9499L44.7927 69.2799C44.6627 69.3899 44.5227 69.5099 44.3827 69.6099L44.2727 69.6899L44.0827 69.8199L43.7127 70.0799C43.4627 70.2599 43.2127 70.4099 42.9527 70.5899L42.5727 70.8399C42.4527 70.9199 42.3127 71.0199 42.2027 71.0699L42.0027 70.5099L41.7927 69.9299C41.7527 69.8399 41.7227 69.7299 41.6827 69.6399L41.5627 69.4099L41.4427 69.1799L41.3827 69.0599C41.3827 69.0599 41.3527 69.0199 41.3427 68.9999C41.2227 68.6499 41.0127 68.3299 40.7627 68.0599C40.5127 67.7799 40.2127 67.5499 39.8727 67.3799C39.5427 67.2099 39.1827 67.0799 38.8127 67.0099C38.4427 66.9499 38.0727 66.9299 37.7127 66.9599C37.3427 66.9899 36.9827 67.0499 36.6427 67.1399C36.2927 67.2399 35.9627 67.3799 35.6527 67.5499C35.3427 67.7199 35.0427 67.9399 34.7827 68.1799C34.5227 68.4299 34.2827 68.6999 34.0927 68.9999C34.0827 69.0199 34.0727 69.0299 34.0527 69.0599L33.9927 69.1799L33.8827 69.4199L33.7727 69.6599C33.7327 69.7499 33.7027 69.8599 33.6727 69.9599C33.5427 70.3599 33.4027 70.7499 33.2727 71.1399C33.1627 71.0799 33.0227 70.9799 32.8927 70.8999L32.5027 70.6399C32.2427 70.4699 31.9727 70.3099 31.7227 70.1199L31.3327 69.8499L31.1427 69.7099L31.0327 69.6299C30.8927 69.5299 30.7527 69.4099 30.6227 69.2999L30.2227 68.9599C30.0927 68.8399 29.9727 68.7199 29.8427 68.5999C29.5827 68.3599 29.3527 68.1099 29.1127 67.8599C29.0327 67.7799 28.9527 67.6999 28.8727 67.6199L28.6427 67.3699C28.4927 67.1999 28.3427 67.0299 28.2027 66.8599C27.9327 66.5099 27.6527 66.1499 27.4127 65.7799C26.9027 65.0599 26.4527 64.2999 25.9527 63.5899C24.9527 62.1499 24.4327 60.4899 23.6727 58.9799C22.9427 57.4499 22.3527 55.8799 22.0227 54.2599C21.5527 52.6799 21.4227 51.0499 20.8627 49.5399C20.4827 47.9899 19.9027 46.4699 20.1027 44.8799C19.8027 43.3499 19.9527 41.8099 19.6827 40.3199C19.8927 38.8099 19.5527 37.3499 19.5627 35.8999C19.5827 35.1799 19.6427 34.4599 19.6627 33.7499C19.7027 33.0399 19.7127 32.3399 19.6927 31.6399C19.6727 30.9399 19.7127 30.2499 19.8127 29.5699C19.9027 28.8899 20.0027 28.2299 20.0627 27.5599C20.0627 27.2199 20.0827 26.8899 20.1327 26.5699C20.1927 26.2399 20.2627 25.9199 20.3327 25.5999C20.4627 24.9599 20.6327 24.3299 20.6427 23.6899C20.7627 23.0599 20.8827 22.4499 20.9927 21.8299C21.1127 21.2199 21.2527 20.6199 21.4127 20.0299C21.3727 19.3999 21.5127 18.8099 21.7127 18.2499C21.8227 17.9699 21.9327 17.6999 22.0527 17.4299C22.1627 17.1599 22.2727 16.8899 22.3727 16.6199C22.5727 16.0799 22.6727 15.5199 22.8227 14.9799C22.8927 14.7099 22.9827 14.4499 23.0827 14.1899C23.1827 13.9399 23.3227 13.6999 23.4927 13.4699C23.5227 13.1899 23.5727 12.9299 23.6627 12.6699C23.7527 12.4199 23.8627 12.1799 23.9827 11.9399C24.2127 11.4699 24.5127 11.0399 24.7627 10.5999C25.2627 9.72992 25.5427 8.76992 26.1527 8.03992C26.2927 7.57992 26.5727 7.20992 26.8427 6.84992C27.1327 6.49992 27.4327 6.17992 27.6427 5.80992C27.9627 5.50992 28.2127 5.17992 28.4527 4.84992C28.7127 4.53992 28.9427 4.20992 29.2227 3.93992C29.4727 3.64992 29.7227 3.35992 29.9927 3.10992C30.2727 2.86992 30.5427 2.62992 30.8327 2.43992C31.1127 2.22992 31.3727 2.01992 31.6327 1.83992C31.9027 1.65992 32.1627 1.48992 32.4227 1.32992C32.6227 1.21992 32.8127 1.11992 33.0027 1.00992C33.0927 0.959922 33.1827 0.909922 33.2827 0.859922C33.3727 0.819922 33.4727 0.779922 33.5627 0.739922C33.7427 0.659922 33.9227 0.579922 34.0927 0.509922C34.2727 0.439922 34.4427 0.389922 34.6027 0.339922C34.7627 0.289922 34.9227 0.229922 35.0827 0.189922C35.2427 0.159922 35.3927 0.119922 35.5327 0.0899219C35.6727 0.0599219 35.8127 0.0299219 35.9427 0.00992187C36.0727 -7.81268e-05 36.1927 -0.0200781 36.3127 -0.0300781C36.5427 -0.0500781 36.7527 -0.0800781 36.9327 -0.0800781C37.1127 -0.0800781 37.2627 -0.0700781 37.3827 -0.0600781C37.6227 -0.0400781 37.7427 -0.0200781 37.7427 -7.81268e-05L37.7727 0.0799219Z" fill="#0061EF"/>
<path d="M69.7763 22.8599C69.7763 22.8599 69.6663 22.9299 69.4463 23.0099C69.3263 23.0499 69.1863 23.0899 69.0063 23.1099C68.9163 23.1199 68.8263 23.1299 68.7163 23.1499C68.6163 23.1699 68.5063 23.1699 68.3863 23.1699C67.9163 23.1899 67.3163 23.1199 66.6463 22.8899C65.9863 22.6599 65.2363 22.2599 64.5863 21.5899C64.1463 21.1499 63.7563 20.5899 63.4763 19.9299C63.1763 19.2699 62.9963 18.4999 63.0363 17.6799C63.0563 17.5799 63.0763 17.4799 63.0863 17.3699C63.0863 17.2699 63.1163 17.1699 63.1163 17.0599C63.1163 16.9599 63.1163 16.8499 63.1363 16.7399C63.1463 16.6299 63.1563 16.5199 63.1763 16.4199L63.1963 16.2599L63.2363 16.0999C63.2663 15.9899 63.2963 15.8799 63.3263 15.7799C63.3663 15.6799 63.4163 15.5699 63.4763 15.4799C63.5363 15.3799 63.5963 15.2799 63.6863 15.1999L63.7763 15.0599L63.8363 14.9799C63.8363 14.9799 63.9163 14.8799 63.9563 14.8299C64.0263 14.7199 64.1163 14.6299 64.1863 14.5299V14.5099C64.1863 14.5099 64.2163 14.4999 64.2063 14.4899L64.1563 14.4699L64.0563 14.4299C63.9863 14.3999 63.9263 14.3799 63.8663 14.3499C63.7363 14.2899 63.6163 14.2599 63.4963 14.2199C62.6663 13.9299 61.8163 13.5099 60.8463 13.4199C60.3463 13.4599 59.8863 13.2899 59.3963 13.1499C59.2763 13.1099 59.1563 13.0799 59.0263 13.0499C58.9063 13.0199 58.7763 12.9999 58.6463 12.9899C58.3863 12.9599 58.1263 12.9499 57.8663 13.0299C56.8263 13.0199 55.7463 12.9899 54.6363 13.0099C54.0763 12.9199 53.5063 12.9599 52.9363 13.0299C52.3663 13.1199 51.7963 13.2299 51.2063 13.3399C49.9963 13.2299 48.8063 13.5499 47.6263 13.9899C46.3363 13.8999 45.0863 14.2699 43.9263 14.9599C42.6763 15.3399 41.3563 15.6199 40.1363 16.2399C38.8663 16.7399 37.5963 17.3099 36.2863 17.8299C35.0863 18.6299 33.7963 19.2199 32.3963 19.7199C31.2163 20.6299 29.8663 21.2499 28.4963 21.9199C27.8063 22.2399 27.1963 22.7099 26.5663 23.1499C26.2563 23.3799 25.9463 23.6099 25.6263 23.8299C25.3063 24.0499 24.9763 24.2399 24.6263 24.4299C23.3263 25.2999 22.1163 26.3099 20.8363 27.2599C19.5263 28.1799 18.2163 29.1499 17.1863 30.4399C16.0463 31.6099 14.9563 32.8399 13.7563 33.9899C12.8663 35.4199 11.7463 36.6299 10.6763 37.9499C9.77632 39.3599 8.74632 40.7399 8.18632 42.3499C8.01632 42.7299 7.84632 43.1199 7.70632 43.5199L7.50632 44.1199L7.40632 44.4199L7.32632 44.7199L7.15632 45.3299C7.10632 45.5299 7.06632 45.7399 7.01632 45.9399C6.90632 46.3499 6.84632 46.7499 6.74632 47.1599C6.61632 47.9799 6.51632 48.8099 6.59632 49.6199L6.61632 49.9299C6.62632 50.0299 6.64632 50.1299 6.66632 50.2299C6.70632 50.4299 6.73632 50.6299 6.78632 50.8199C6.84632 51.0099 6.90632 51.1999 6.97632 51.3899L7.02632 51.5299L7.08632 51.6699L7.21632 51.9399C7.37632 52.2999 7.59632 52.6199 7.77632 52.9699C7.99632 53.2899 8.17632 53.6399 8.42632 53.9399C8.64632 54.2599 8.91632 54.5399 9.18632 54.8299C9.32632 54.9699 9.47632 55.0899 9.62632 55.2199L9.85632 55.4099L10.1063 55.5699C10.2463 55.7099 10.3963 55.8399 10.5563 55.9599C10.7163 56.0699 10.8863 56.1799 11.0663 56.2799C11.1563 56.3299 11.2363 56.3799 11.3263 56.4299L11.6063 56.5499C11.7963 56.6299 11.9763 56.7099 12.1663 56.7799C12.9263 57.0399 13.7063 57.2499 14.4763 57.4699C16.0363 57.8299 17.6463 58.1699 19.2563 58.0599C20.8663 58.0399 22.4463 57.8899 24.0363 57.8099C24.4163 57.6599 24.8063 57.5699 25.1863 57.4999C25.5763 57.4299 25.9663 57.3999 26.3563 57.3499C26.7463 57.3099 27.1363 57.2799 27.5263 57.2299C27.9163 57.1799 28.2963 57.0999 28.6663 56.9999C29.0563 56.9599 29.4363 56.8799 29.8063 56.7899C30.1763 56.6999 30.5563 56.5999 30.9163 56.4799C31.2763 56.3599 31.6463 56.2499 32.0063 56.1299C32.3663 56.0099 32.7263 55.8899 33.0863 55.7899C33.4463 55.6599 33.7963 55.5399 34.1563 55.4299C34.5163 55.3199 34.8763 55.2199 35.2263 55.1099C35.9363 54.8799 36.6363 54.6499 37.2863 54.2899C38.6663 53.7799 39.9063 53.0299 41.2563 52.5699C41.8463 52.1699 42.4963 51.8999 43.1363 51.6199C43.7663 51.3299 44.4163 51.0799 44.9763 50.6699C46.1763 50.0099 47.3163 49.3199 48.4463 48.6599C49.7163 48.2199 50.6563 47.2999 51.6563 46.5599C52.7063 45.8699 53.5463 44.9699 54.6063 44.3999C55.0763 44.0399 55.5663 43.7099 56.0163 43.3499C56.2463 43.1699 56.4663 42.9899 56.6863 42.7999C56.8963 42.6099 57.0963 42.4099 57.2863 42.1999C57.6963 41.8199 58.1663 41.5199 58.6163 41.1999C59.0563 40.8699 59.4663 40.5199 59.6863 39.9999C60.0263 39.5999 60.4563 39.2899 60.8363 38.9499C61.0263 38.7799 61.2163 38.6099 61.3863 38.4299C61.5463 38.2399 61.6963 38.0399 61.8063 37.8099C62.0463 37.3599 62.3463 36.9999 62.6863 36.6699C63.0163 36.3399 63.3663 36.0199 63.6563 35.6699C64.2263 34.9599 64.7563 34.2699 65.2263 33.5899C66.2963 32.0699 67.1563 30.6299 67.7763 29.3199C68.4063 28.0199 68.8363 26.8599 69.1063 25.8999C69.3963 24.9399 69.5063 24.1799 69.6063 23.6699C69.6763 23.1599 69.7263 22.8899 69.7763 22.8899C69.7963 22.8899 69.8163 22.9699 69.8263 23.1399C69.8263 23.2199 69.8363 23.3299 69.8463 23.4499C69.8463 23.5699 69.8463 23.7199 69.8463 23.8799C69.8263 24.5299 69.7163 25.4999 69.4063 26.7199C68.7963 29.1699 67.2463 32.5899 64.4363 36.2899C64.1463 36.6499 63.8963 37.0599 63.6163 37.4499C63.3263 37.8399 63.0163 38.2199 62.6063 38.5299C62.4363 38.7199 62.2763 38.9099 62.1163 39.1099C61.9463 39.3099 61.7863 39.4999 61.6163 39.6999C61.2863 40.0999 60.9163 40.4799 60.4863 40.8199C60.2063 41.2999 59.8163 41.6899 59.3963 42.0599C58.9663 42.4199 58.5163 42.7599 58.0763 43.1299C57.8663 43.3199 57.6463 43.5099 57.4263 43.6999C57.2063 43.8799 56.9763 44.0699 56.7463 44.2499C56.2963 44.6299 55.8263 44.9999 55.3963 45.4299C54.5463 46.3099 53.4063 46.8699 52.4263 47.6899C51.2863 48.2899 50.2263 49.0399 49.1863 49.8899C47.9663 50.4499 46.9063 51.3299 45.6763 51.9899C45.0063 52.2199 44.3663 52.5199 43.7563 52.8799C43.1363 53.2299 42.5263 53.6099 41.8963 53.9799C40.6263 54.6799 39.2263 55.1799 37.8563 55.7899C37.1563 56.0599 36.4463 56.3299 35.7363 56.6199C35.3863 56.7599 35.0163 56.8899 34.6563 57.0199C34.2963 57.1499 33.9263 57.2799 33.5563 57.3799C33.1963 57.5299 32.8363 57.6699 32.4663 57.8099C32.0963 57.9399 31.7163 58.0599 31.3363 58.1699C30.9563 58.2899 30.5763 58.3799 30.1863 58.4599C29.7963 58.5399 29.4063 58.6199 29.0063 58.6699C27.4663 59.1199 25.8463 59.3399 24.2063 59.5399C22.5763 59.8499 20.8863 59.8399 19.1863 59.8299C18.3363 59.8299 17.4763 59.7199 16.6163 59.5699C16.1863 59.4999 15.7563 59.4299 15.3263 59.3599C15.1163 59.3299 14.8963 59.2999 14.6763 59.2799C14.4563 59.2499 14.2363 59.2199 14.0163 59.2099C13.1463 59.0299 12.2963 58.7199 11.4563 58.3799C11.2463 58.2899 11.0463 58.1799 10.8363 58.0799L10.5263 57.9299C10.4263 57.8799 10.3263 57.8199 10.2263 57.7599L9.62632 57.4199C9.42632 57.2999 9.23632 57.1599 9.03632 57.0399L8.75632 56.8299L8.48632 56.5999C8.30632 56.4399 8.12632 56.2999 7.95632 56.1299C7.62632 55.7899 7.28632 55.4499 7.00632 55.0699C6.69632 54.7099 6.44632 54.2899 6.17632 53.8899C5.95632 53.4599 5.69632 53.0499 5.52632 52.5999L5.44632 52.2399L5.39632 52.0599L5.36632 51.8799C5.32632 51.6399 5.27632 51.4099 5.22632 51.1699C5.18632 50.9399 5.15632 50.6999 5.11632 50.4599L5.05632 50.1099L5.01632 49.7599C4.88632 48.8199 4.87632 47.8699 4.92632 46.9199C5.10632 45.0199 5.72632 43.2399 6.50632 41.5999C7.23632 39.9299 8.15632 38.3799 9.16632 36.9299C9.40632 36.5599 9.64632 36.1899 9.91632 35.8399C10.1863 35.4899 10.4563 35.1499 10.7363 34.8099C11.0263 34.4799 11.3063 34.1499 11.5763 33.8099C11.8563 33.4799 12.1363 33.1499 12.3963 32.7999C13.4463 31.4199 14.8263 30.3799 15.9563 29.1399C17.1263 27.9299 18.3663 26.8099 19.7363 25.8899C20.3863 25.3899 21.0563 24.9299 21.7363 24.4799C22.0763 24.2599 22.3963 24.0199 22.7163 23.7799C23.0363 23.5399 23.3463 23.2899 23.6463 23.0099C23.9663 22.7699 24.2763 22.5199 24.5863 22.2799C24.8963 22.0399 25.2063 21.7799 25.5263 21.5599C26.1763 21.1099 26.8463 20.6999 27.6163 20.4799C28.8963 19.5899 30.3763 19.1199 31.6163 18.2699C33.0763 17.8399 34.2863 16.9599 35.6163 16.3799C36.9663 15.8399 38.3163 15.4099 39.5763 14.7999C40.8363 14.1799 42.2163 13.9699 43.4763 13.5399C44.7163 12.9899 46.0863 13.0599 47.2963 12.5999C48.5563 12.3599 49.7763 12.0899 50.9963 11.9899C51.5763 11.7099 52.1763 11.6499 52.7763 11.6499C53.3763 11.6599 53.9663 11.7299 54.5463 11.7299C54.8363 11.7299 55.1163 11.7099 55.4063 11.6999C55.6963 11.6799 55.9763 11.6499 56.2563 11.6399C56.5363 11.6399 56.8163 11.6399 57.0963 11.6499C57.3763 11.6799 57.6463 11.7399 57.9063 11.8299C59.0263 11.6199 60.0563 12.0299 61.0363 12.3299C61.2763 12.4099 61.5263 12.4799 61.7663 12.5299C62.0063 12.5899 62.2463 12.6499 62.4863 12.7099C62.7263 12.7699 62.9563 12.8499 63.1863 12.9299C63.2963 12.9699 63.4163 13.0199 63.5163 13.0699C63.6263 13.1199 63.7263 13.1899 63.8263 13.2499C64.1663 13.3499 64.5163 13.4699 64.8263 13.6399C64.9863 13.7199 65.1363 13.7999 65.2763 13.8899L65.4863 14.0099L65.5863 14.0699C65.5863 14.0699 65.6063 14.0899 65.6163 14.0999V14.1399C65.3663 14.3999 65.1163 14.6499 64.9063 14.8999C64.7963 15.0299 64.6863 15.1399 64.6063 15.2699L64.5463 15.3699C64.5463 15.3699 64.5063 15.4399 64.4963 15.4599C64.4763 15.4999 64.4563 15.5399 64.4363 15.5899C64.3663 15.6599 64.3263 15.7499 64.2763 15.8299C64.2263 15.9099 64.1763 15.9899 64.1363 16.0799C64.0963 16.1699 64.0663 16.2599 64.0363 16.3399L63.9863 16.4699L63.9563 16.5999C63.9363 16.6899 63.9163 16.7799 63.8963 16.8699C63.8763 16.9599 63.8763 17.0499 63.8663 17.1399C63.8663 17.2299 63.8363 17.3199 63.8363 17.3999C63.8363 17.4899 63.8263 17.5699 63.8163 17.6599C63.8363 18.3599 63.9463 18.9999 64.1063 19.5999C64.3263 20.1899 64.6463 20.6899 65.0063 21.0999C65.5463 21.7299 66.1863 22.1299 66.7763 22.3799C67.3663 22.6299 67.9063 22.7499 68.3563 22.7799C68.4663 22.7899 68.5763 22.8099 68.6663 22.7999C68.7663 22.7999 68.8563 22.7999 68.9463 22.7999C69.1163 22.8099 69.2563 22.7999 69.3763 22.7799C69.6063 22.7699 69.7363 22.7799 69.7363 22.7999L69.7763 22.8599Z" fill="#0061EF"/>
<path d="M68.5906 53.4299C68.5906 53.4299 68.5906 53.2899 68.6806 53.0699C68.7206 52.9599 68.7806 52.8199 68.8406 52.6599C68.9106 52.4999 68.9506 52.2999 69.0306 52.0899C69.3106 51.2199 69.5806 49.8899 69.4706 48.1599C69.4406 47.8699 69.4106 47.5799 69.3706 47.2699C69.3206 46.9599 69.2606 46.6499 69.2006 46.3199C69.1206 45.9999 69.0206 45.6699 68.9406 45.3299C68.8406 44.9899 68.7306 44.6499 68.6306 44.2899C68.5806 43.9099 68.3806 43.5699 68.1906 43.2199C67.9806 42.8799 67.7906 42.5199 67.7206 42.0999C67.5706 41.7099 67.3906 41.3199 67.1806 40.9399C67.0706 40.7499 66.9606 40.5599 66.8406 40.3699C66.7306 40.1799 66.6106 39.9899 66.4806 39.7999C66.2206 39.4199 66.0206 38.9999 65.7706 38.5999C65.5206 38.1899 65.2706 37.7799 64.9206 37.4199C64.7206 37.2599 64.5606 37.0599 64.4306 36.8499C64.2906 36.6399 64.1706 36.4199 64.0406 36.1899C63.9106 35.9699 63.7906 35.7399 63.6206 35.5299C63.4606 35.3299 63.2706 35.1399 63.0306 34.9899C62.3006 34.2199 61.5906 33.3899 60.8406 32.5499C60.5306 32.0599 60.1306 31.6599 59.7006 31.2599C59.2606 30.8799 58.8006 30.5099 58.3506 30.1199C57.6506 29.1199 56.6506 28.3799 55.5606 27.7199C55.3706 27.4499 55.1706 27.1999 54.9506 26.9699C54.7306 26.7399 54.4806 26.5299 54.2206 26.3399C53.7106 25.9499 53.1206 25.6399 52.4906 25.3799C51.9606 24.9899 51.4206 24.5899 50.8806 24.1899C50.3306 23.7899 49.7606 23.4299 49.1406 23.1099C48.5506 22.7599 47.9606 22.3999 47.3506 22.0499C46.7406 21.7099 46.1406 21.3299 45.5306 20.9599C44.1706 20.4699 42.9006 19.7799 41.6606 18.9499C40.9406 18.7499 40.2606 18.4499 39.5706 18.1499C39.2306 17.9899 38.8906 17.8199 38.5606 17.6499C38.2206 17.4799 37.8806 17.3099 37.5406 17.1299C37.2006 16.9499 36.8506 16.7999 36.4906 16.6699C36.1306 16.5499 35.7606 16.4399 35.3906 16.3199C34.6506 16.0799 33.9006 15.8899 33.1906 15.5399C32.8206 15.4099 32.4406 15.3099 32.0706 15.1899C31.6906 15.0799 31.3106 14.9599 30.9306 14.8699C30.1606 14.6799 29.3906 14.4699 28.6106 14.2799C27.0806 13.7999 25.4806 13.4099 23.8306 13.4499C23.4206 13.4199 23.0206 13.3999 22.6106 13.3699C22.2006 13.3599 21.7906 13.3499 21.3806 13.3299L21.0706 13.3099H20.7606C20.5606 13.3099 20.3506 13.2999 20.1506 13.2899C19.9506 13.2799 19.7406 13.2699 19.5306 13.2599H19.2206C19.2206 13.2599 19.1906 13.2599 19.1806 13.2499H19.1706L19.1406 13.2299C19.1106 13.2799 19.1106 13.3099 19.1406 13.3399C19.1606 13.3699 19.1706 13.3799 19.1806 13.3899C19.1806 13.3899 19.1806 13.3899 19.1906 13.3899C19.1906 13.3899 19.1906 13.3199 19.1906 13.3699V13.5299C19.1806 13.7499 19.1706 13.9599 19.1306 14.1799L19.0806 14.4999C19.0606 14.6099 19.0206 14.7099 19.0006 14.8099C18.7606 15.6499 18.3106 16.4099 17.7406 17.0399C17.6706 17.1499 17.5806 17.2299 17.5006 17.3299C17.4106 17.4199 17.3306 17.5199 17.2406 17.6099C17.0506 17.7799 16.8606 17.9599 16.6506 18.0999C16.2406 18.4099 15.7806 18.6299 15.3106 18.8299C14.3506 19.1799 13.3306 19.3299 12.2906 19.2799C11.3906 19.1499 10.5006 18.8599 9.71063 18.3599C9.32063 18.1199 8.95063 17.8199 8.63063 17.4899L8.52063 17.3799L8.50063 17.3599C8.50063 17.3599 8.48063 17.3199 8.47063 17.2899C8.47063 17.2599 8.46062 17.2899 8.45062 17.2899H8.42063C8.42063 17.2899 8.37063 17.3299 8.34063 17.3499C8.34063 17.3499 8.34063 17.3499 8.33063 17.3599L8.30063 17.3899L8.21063 17.5099L8.02063 17.7499C7.90063 17.9099 7.79062 18.0799 7.68062 18.2499C7.58063 18.4299 7.49062 18.5999 7.39062 18.7799C7.04063 19.5099 6.79063 20.2899 6.77063 21.0999C6.77063 21.1999 6.75063 21.2999 6.75063 21.3999V21.6999C6.75063 21.8999 6.72062 22.0999 6.72062 22.2999C6.72062 22.6999 6.70063 23.1099 6.73063 23.5099C6.75063 24.3199 6.88063 25.1399 7.11063 25.9299C7.21063 26.7599 7.49062 27.5499 7.85063 28.2999L8.12063 28.8599C8.21062 29.0399 8.32063 29.2299 8.41062 29.4099C8.51062 29.5899 8.60062 29.7799 8.69062 29.9599C8.79062 30.1399 8.88063 30.3299 8.97063 30.5199C9.77063 31.9599 10.5306 33.4399 11.6206 34.6699C12.6406 35.9499 13.7106 37.1499 14.7306 38.3899C15.0706 38.6199 15.3806 38.8699 15.6706 39.1499C15.9506 39.4299 16.2106 39.7299 16.4806 40.0199C16.7406 40.3199 16.9906 40.6199 17.2606 40.9099C17.5306 41.1999 17.8106 41.4699 18.1106 41.7199C19.1706 42.8899 20.4806 43.7399 21.6606 44.6999C22.2806 45.1499 22.8706 45.6199 23.4506 46.0899C23.7406 46.3199 24.0406 46.5499 24.3506 46.7599C24.6506 46.9699 24.9606 47.1799 25.3006 47.3499C25.9106 47.7699 26.5306 48.1499 27.1606 48.5199C27.4706 48.7099 27.7806 48.8999 28.0806 49.0899C28.3906 49.2799 28.6906 49.4799 28.9706 49.6899C29.6306 49.9799 30.2306 50.3399 30.8206 50.7299C31.4106 51.1099 32.0006 51.4799 32.6406 51.7399C33.2606 52.0399 33.8606 52.3499 34.4706 52.6399C35.0806 52.9199 35.6806 53.2199 36.2706 53.4999C36.5406 53.6999 36.8206 53.8699 37.1206 54.0199C37.4106 54.1699 37.7206 54.2799 38.0206 54.3899C38.3306 54.4999 38.6306 54.5999 38.9306 54.6899C39.2406 54.7799 39.5406 54.8799 39.8406 54.9799C41.0106 55.4599 42.2406 55.6399 43.3106 56.1999C43.8806 56.3899 44.4406 56.5799 44.9906 56.7599C45.5506 56.9199 46.1006 57.0799 46.6706 57.1399C47.7706 57.3499 48.7606 58.0599 49.8806 57.8199C50.1406 57.8399 50.4006 57.8899 50.6606 57.9599C50.9106 58.0199 51.1706 58.0799 51.4206 58.1399C51.6706 58.1999 51.9206 58.2499 52.1706 58.2799C52.4206 58.2999 52.6706 58.2899 52.9206 58.2499C53.4206 58.1699 53.9006 58.1999 54.3706 58.2599C54.8406 58.3299 55.3006 58.3999 55.7606 58.4099C55.9906 58.4199 56.2106 58.4099 56.4306 58.4099C56.6506 58.4099 56.8706 58.4099 57.0906 58.3999C57.5306 58.3899 57.9506 58.3499 58.3606 58.3299C60.2206 58.1799 61.8606 57.8199 63.2206 57.3199C64.5806 56.8299 65.6506 56.1999 66.4306 55.5899C66.5306 55.5099 66.6306 55.4399 66.7206 55.3699C66.8106 55.2999 66.8906 55.2099 66.9706 55.1399C67.1306 54.9899 67.2806 54.8499 67.4206 54.7199C67.6706 54.4299 67.9006 54.1999 68.0606 53.9999C68.3806 53.5899 68.5606 53.3799 68.6006 53.3999C68.6406 53.4199 68.5006 53.7399 68.1606 54.2999C67.7906 54.8499 67.1806 55.6399 66.1606 56.4299C65.1506 57.2199 63.7306 57.9799 61.9606 58.5199C61.0706 58.7699 60.1106 59.0099 59.0606 59.1499C58.5406 59.2399 58.0006 59.2799 57.4506 59.3299C57.1706 59.3599 56.8906 59.3599 56.6006 59.3799C56.3106 59.3899 56.0206 59.4099 55.7306 59.4099C55.2606 59.4099 54.7806 59.4799 54.2906 59.4799C53.8006 59.4799 53.3006 59.4799 52.8006 59.3299C52.5506 59.3099 52.2906 59.2899 52.0306 59.2899C51.7706 59.2699 51.5106 59.2599 51.2506 59.2399C50.9906 59.2199 50.7206 59.1999 50.4606 59.1599C50.2006 59.1199 49.9306 59.0599 49.6706 58.9899C48.5506 59.0999 47.4806 58.6399 46.3606 58.3699C45.7906 58.2499 45.2306 58.0699 44.6606 57.9199C44.0906 57.7499 43.5106 57.5899 42.9106 57.4699C41.6906 57.2699 40.5806 56.6399 39.3406 56.2899C39.0506 56.1399 38.7606 55.9899 38.4706 55.8599C38.1806 55.7199 37.8806 55.5899 37.5706 55.4799C36.9606 55.2499 36.3306 55.0299 35.6806 54.8299C35.0906 54.4899 34.4806 54.1999 33.8406 53.9399C33.2106 53.6699 32.5706 53.3999 31.9406 53.0899C31.3806 52.6399 30.7606 52.2999 30.1206 51.9799C29.4906 51.6499 28.8106 51.3799 28.1606 51.0399C27.8306 50.8699 27.5106 50.6999 27.2006 50.5099C26.8806 50.3199 26.5806 50.1199 26.2606 49.9099C25.6306 49.5099 25.0206 49.0799 24.3706 48.6899C24.0606 48.4699 23.7506 48.2599 23.4406 48.0399C23.1206 47.8299 22.8106 47.6099 22.4906 47.3999C21.8606 46.9499 21.2206 46.5199 20.6206 46.0199C19.3006 45.1699 18.0506 44.1799 16.9506 42.9899C15.6906 41.9799 14.5706 40.7799 13.4406 39.5699C12.2306 38.4299 11.2306 37.0699 10.1906 35.7199C9.92062 35.3899 9.68062 35.0299 9.45062 34.6699C9.33063 34.4899 9.22062 34.3099 9.11062 34.1199L8.79063 33.5599C8.68063 33.3699 8.57063 33.1899 8.46063 32.9999C8.35063 32.8099 8.24063 32.6299 8.13063 32.4399C8.01063 32.2599 7.89062 32.0699 7.77063 31.8999C7.65063 31.7199 7.52063 31.5399 7.39062 31.3599C6.53062 29.8199 5.89062 28.1399 5.37063 26.3999C5.17063 25.5099 5.00063 24.5999 4.94063 23.6599C4.89063 23.1999 4.90062 22.7199 4.89062 22.2499C4.89062 22.0099 4.91063 21.7699 4.92063 21.5399L4.94063 21.1799C4.94063 21.0599 4.97063 20.9399 4.98063 20.8199C5.06063 20.5899 5.12063 20.3599 5.19063 20.1299C5.28063 19.8999 5.36062 19.6699 5.43062 19.4399C5.49062 19.2099 5.60063 18.9899 5.69063 18.7599C5.78063 18.5399 5.86062 18.3099 5.97062 18.0899C6.07062 17.8699 6.18063 17.6499 6.28063 17.4299C6.40063 17.2199 6.52062 16.9999 6.64062 16.7899L6.84063 16.4799L6.94063 16.3299L7.01063 16.2299C7.01063 16.2299 7.07063 16.1499 7.11063 16.1199C7.37063 15.8099 7.63063 15.4899 7.92063 15.1799L8.33063 14.7499L8.53062 14.5399L8.63063 14.4299L8.72063 14.3399C8.94063 14.6799 9.15063 15.0199 9.37063 15.3599L9.71063 15.8499C9.77063 15.9299 9.83063 15.9999 9.89063 16.0699C9.93063 16.1199 9.94062 16.1199 9.95062 16.1399L9.99062 16.1799C10.2106 16.4099 10.4606 16.6099 10.7306 16.7899C11.2606 17.1499 11.8706 17.3799 12.5006 17.4799C13.2306 17.5599 13.9606 17.4399 14.6206 17.1799C14.9506 17.0399 15.2706 16.8699 15.5506 16.6499C15.7006 16.5499 15.8306 16.4299 15.9606 16.3099C16.0306 16.2499 16.0806 16.1799 16.1506 16.1199C16.2106 16.0499 16.2806 15.9899 16.3306 15.9199C16.6706 15.4299 16.9506 14.8999 17.1206 14.3299C17.1406 14.2599 17.1706 14.1899 17.1806 14.1199L17.2206 13.8999C17.2606 13.7499 17.2606 13.6099 17.2806 13.4599V13.3499C17.2806 13.3499 17.2906 13.2599 17.2806 13.2099V13.0799L17.2206 12.5699C17.1906 12.2299 17.1406 11.8999 17.0906 11.5599C17.5806 11.5299 18.0906 11.5099 18.6006 11.4699C18.9006 11.4499 19.2006 11.4299 19.5006 11.4099C19.7206 11.4099 19.9406 11.4099 20.1606 11.4099L20.8106 11.4299L21.1406 11.4499L21.4606 11.4799C21.8906 11.5199 22.3206 11.5699 22.7506 11.5999C23.1806 11.6499 23.6006 11.6899 24.0306 11.6999C25.7306 11.8299 27.4106 12.0599 28.9906 12.5899C29.8006 12.7599 30.5706 13.0599 31.3506 13.2899C31.7406 13.4099 32.1206 13.5499 32.5106 13.6499C32.9006 13.7599 33.3006 13.8399 33.7006 13.9099C34.4706 14.1499 35.2706 14.2899 36.0206 14.5399C36.4006 14.6599 36.7706 14.7999 37.1306 14.9599C37.4906 15.1199 37.8306 15.3299 38.1506 15.5699C38.5206 15.6999 38.8806 15.8399 39.2306 15.9999C39.5806 16.1699 39.9206 16.3499 40.2706 16.5199C40.9606 16.8599 41.6306 17.2299 42.3506 17.4799C43.5806 18.3999 45.0106 18.8499 46.2806 19.5799C46.9106 19.9499 47.5006 20.3699 48.1106 20.7399C48.7206 21.1199 49.3106 21.4999 49.9406 21.8199C50.5606 22.1499 51.1406 22.5399 51.6906 22.9599C52.2306 23.3799 52.7806 23.7899 53.3306 24.1799C53.9206 24.5099 54.4306 24.9499 54.9106 25.3999C55.1506 25.6199 55.4006 25.8399 55.6506 26.0499C55.9006 26.2599 56.1506 26.4599 56.4306 26.6299C57.4006 27.4699 58.3806 28.2599 59.2406 29.1299C59.8206 29.3999 60.2506 29.8299 60.6506 30.2799C61.0306 30.7499 61.3606 31.2399 61.7506 31.6699C62.4906 32.5499 63.4906 33.1799 63.9406 34.2199C64.1706 34.3799 64.3706 34.5699 64.5506 34.7699C64.7306 34.9699 64.8806 35.1899 65.0306 35.4099C65.1706 35.6299 65.3106 35.8599 65.4406 36.0799C65.5606 36.3099 65.6906 36.5399 65.8106 36.7599C66.0706 37.1999 66.3606 37.5999 66.6506 37.9999C66.9406 38.3899 67.1806 38.8099 67.3506 39.2599C67.5206 39.4299 67.6406 39.6299 67.7506 39.8399C67.8606 40.0399 67.9506 40.2499 68.0406 40.4599C68.2106 40.8799 68.3306 41.3099 68.5506 41.6799C68.6606 42.0999 68.8106 42.4899 68.9806 42.8699C69.1306 43.2499 69.2906 43.6199 69.4006 43.9999C69.5306 44.3699 69.6506 44.7299 69.7406 45.0899C69.8106 45.4499 69.8806 45.8099 69.9006 46.1599C69.9406 46.5099 69.9906 46.8399 70.0306 47.1599C70.0506 47.4899 70.0706 47.7999 70.0806 48.0999C70.1006 49.9299 69.7006 51.3199 69.3106 52.1699C69.2106 52.3799 69.1306 52.5799 69.0406 52.7299C68.9506 52.8799 68.8706 53.0099 68.8006 53.1099C68.6706 53.3099 68.5906 53.4099 68.5606 53.3899L68.5906 53.4299Z" fill="#0061EF"/>
<path d="M37.7745 26.0601C37.7745 26.1101 37.6045 26.1801 37.2945 26.2501C37.1445 26.2901 36.9445 26.3101 36.7245 26.3701C36.5045 26.4301 36.2445 26.5001 35.9645 26.5601C35.7745 26.6101 35.5745 26.6901 35.3645 26.7601C35.2545 26.8001 35.1545 26.8401 35.0345 26.8801C34.9245 26.9301 34.8145 26.9801 34.6945 27.0101C34.4045 26.9601 34.3145 27.4201 33.9745 27.3501C33.8345 27.3801 33.7045 27.4401 33.5845 27.5201C33.5245 27.5601 33.4545 27.6001 33.4045 27.6401C33.3445 27.6901 33.2845 27.7401 33.2345 27.7901C33.0045 27.9901 32.6445 28.0201 32.4745 28.3401C32.4245 28.5501 32.2545 28.5801 32.0745 28.6301C31.8945 28.6801 31.7345 28.7601 31.7245 29.0101C31.6245 29.1601 31.4945 29.2701 31.3745 29.4101C31.2545 29.5401 31.1245 29.6701 30.9945 29.8001C30.7845 29.8601 30.6745 30.0201 30.5845 30.1901C30.4945 30.3601 30.4245 30.5501 30.3345 30.7201C29.9145 30.9101 29.7745 31.3201 29.7845 31.7701C29.6545 31.8201 29.5545 31.8901 29.4745 31.9701C29.3945 32.0501 29.3245 32.1401 29.3045 32.2401C29.2445 32.4401 29.2545 32.6801 29.3445 32.9301C29.3045 33.0301 29.2845 33.1301 29.2445 33.2301C29.2045 33.3301 29.1745 33.4301 29.1345 33.5401C29.1045 33.6401 29.0745 33.7501 29.0545 33.8601C29.0445 33.9701 29.0545 34.0801 29.0745 34.2001C29.0545 34.4201 29.0345 34.6401 29.0245 34.8601C29.0245 35.0801 29.0245 35.3101 28.9745 35.5401C29.0245 35.6501 29.0745 35.7701 29.1145 35.8801C29.1545 35.9901 29.1745 36.1001 29.1745 36.2201C29.1745 36.3301 29.1745 36.4501 29.1545 36.5701C29.1545 36.6901 29.1245 36.8101 29.0945 36.9301C29.1745 37.0401 29.2345 37.1401 29.2745 37.2601C29.2945 37.3101 29.3145 37.3701 29.3245 37.4301C29.3445 37.4901 29.3645 37.5401 29.3745 37.6001C29.4245 37.8301 29.4245 38.0701 29.4245 38.3301C29.4445 38.5801 29.5745 38.7901 29.7045 39.0001C29.8445 39.2101 29.9945 39.4001 30.0045 39.6801L30.0845 39.8501C30.1145 39.9001 30.1545 39.9501 30.1845 40.0101C30.2545 40.1101 30.3245 40.2201 30.3945 40.3201C30.5245 40.5401 30.6945 40.7301 30.8245 40.9401C30.8845 41.0601 30.9345 41.1801 30.9945 41.3001C31.0645 41.4101 31.1445 41.5201 31.2245 41.6201C31.3045 41.7201 31.3945 41.8201 31.5045 41.9001C31.6145 41.9801 31.7345 42.0401 31.8745 42.0801C32.0845 42.2301 32.3045 42.3801 32.5245 42.5201C32.7445 42.6601 32.9345 42.8501 33.1345 43.0301C33.7245 43.0801 34.1145 43.4101 34.5645 43.7601C34.6945 43.8001 34.8245 43.8501 34.9445 43.9001C35.0745 43.9601 35.1945 44.0201 35.3245 44.0601C35.5845 44.1501 35.8445 44.2401 36.1345 44.2101C36.4045 44.2701 36.6845 44.2901 36.9545 44.3001C37.2345 44.3001 37.5045 44.3001 37.7845 44.3701C38.0645 44.4001 38.3445 44.4201 38.6245 44.4201C38.9045 44.4001 39.1745 44.3301 39.4345 44.2101C39.4945 44.1801 39.5645 44.1501 39.6245 44.1201C39.6845 44.0901 39.7545 44.0701 39.8145 44.0501C39.9445 44.0101 40.0845 43.9901 40.2145 43.9701C40.3545 43.9601 40.4845 43.9201 40.6145 43.8901C40.7445 43.8501 40.8745 43.8101 40.9945 43.7501C41.0745 43.7501 41.1445 43.7501 41.2145 43.7501C41.2845 43.7301 41.3445 43.7101 41.4045 43.6901C41.5245 43.6301 41.6445 43.5601 41.7545 43.4801L41.9245 43.3601L42.0845 43.2301C42.1945 43.1501 42.3045 43.0701 42.4245 43.0201C42.6545 42.8801 42.8745 42.7401 43.1045 42.6001C43.3345 42.4701 43.5345 42.2901 43.6845 42.0601C43.7745 41.9601 43.8645 41.8701 43.9445 41.7701C44.0245 41.6701 44.1045 41.5701 44.1945 41.4701C44.2745 41.3701 44.3645 41.2801 44.4645 41.1901C44.5545 41.1001 44.6345 41.0001 44.7345 40.9201C44.7345 40.6001 44.9045 40.4201 45.0745 40.2401C45.1645 40.1501 45.2645 40.0701 45.3545 39.9701C45.3945 39.9201 45.4445 39.8801 45.4745 39.8201C45.5045 39.7701 45.5345 39.7101 45.5545 39.6501C45.7345 39.4601 45.8445 39.2401 45.9245 39.0001C45.9845 38.7601 46.0345 38.5201 46.1445 38.3001C46.1745 38.0601 46.2745 37.8401 46.3745 37.6101C46.3945 37.5501 46.4245 37.5001 46.4445 37.4401C46.4645 37.3801 46.4745 37.3201 46.4845 37.2601C46.5045 37.1401 46.5045 37.0201 46.4845 36.9001C46.5145 36.7801 46.5245 36.6701 46.5345 36.5501C46.5345 36.4301 46.5345 36.3201 46.5245 36.2001C46.5245 36.0901 46.5245 35.9701 46.5345 35.8601C46.5445 35.7501 46.5745 35.6301 46.6045 35.5201C46.4945 35.2901 46.5245 35.0701 46.5645 34.8401C46.6045 34.6101 46.6045 34.3801 46.5045 34.1801C46.4845 34.0701 46.4745 33.9601 46.4545 33.8601C46.4245 33.7501 46.4045 33.6501 46.3745 33.5501C46.3145 33.3401 46.2845 33.1301 46.2345 32.9301C46.3045 32.6801 46.2445 32.4701 46.1445 32.2901C46.0945 32.1901 46.0345 32.1101 45.9645 32.0301C45.8945 31.9401 45.8345 31.8601 45.7845 31.7701C45.6545 31.3801 45.2445 31.1601 45.2345 30.7201C45.1445 30.5501 45.0445 30.3801 44.9545 30.2101C44.8545 30.0401 44.7545 29.8901 44.5745 29.8001C44.4345 29.6801 44.3945 29.4701 44.3245 29.2901C44.2545 29.1101 44.1245 28.9801 43.8545 29.0101C43.7045 28.9201 43.6345 28.7401 43.5345 28.6001C43.4345 28.4601 43.3145 28.3301 43.1045 28.3501C42.7045 28.3501 42.5945 27.9801 42.3445 27.8001C42.2845 27.7601 42.2245 27.7201 42.1645 27.6701C42.1045 27.6301 42.0345 27.6001 41.9745 27.5601C41.8445 27.4901 41.7245 27.4201 41.6045 27.3601C40.4945 26.7801 39.5245 26.5401 38.8545 26.3701C38.1845 26.2401 37.8045 26.1601 37.8045 26.0701C37.8045 26.0201 37.9245 25.9801 38.1445 25.9501C38.2545 25.9301 38.4045 25.9201 38.5745 25.9101C38.6545 25.9101 38.7545 25.8901 38.8445 25.8901C38.9445 25.8901 39.0445 25.8901 39.1545 25.9101C40.0345 25.9401 41.3645 26.1501 42.8545 26.9301C43.1445 27.0901 43.5745 27.0801 43.7545 27.4701C43.9045 27.5801 44.0745 27.6601 44.2445 27.7501C44.4145 27.8501 44.5545 27.9801 44.6645 28.1501C44.9045 28.1801 45.0745 28.3001 45.1945 28.4701C45.3145 28.6401 45.4045 28.8301 45.5445 28.9901C45.6945 29.1301 45.8045 29.3201 45.9245 29.5001C46.0445 29.6801 46.1845 29.8401 46.3545 30.0001C46.7245 30.2901 46.7645 30.8001 47.0545 31.1701C47.0645 31.2901 47.0845 31.4101 47.1245 31.5301C47.1645 31.6401 47.2045 31.7501 47.2445 31.8601C47.3345 32.0801 47.4645 32.2901 47.6245 32.4901C47.6245 32.7501 47.6845 32.9901 47.7745 33.2201C47.8245 33.3401 47.8745 33.4601 47.9145 33.5701C47.9545 33.6901 47.9845 33.8201 48.0045 33.9401C47.9045 34.2201 47.9445 34.4701 47.9845 34.7201C48.0245 34.9801 48.1145 35.2301 48.1745 35.5001C48.2145 35.6301 48.2145 35.7701 48.2045 35.9001C48.2045 36.0401 48.1845 36.1701 48.1745 36.3101C48.1645 36.4501 48.1445 36.5801 48.1345 36.7201C48.1145 36.8601 48.0945 36.9901 48.0945 37.1301C48.0645 37.2701 48.0345 37.4001 48.0145 37.5401L47.9845 37.7501L47.9445 37.9601C47.8945 38.2401 47.8445 38.5201 47.7345 38.7901C47.6945 39.0801 47.6345 39.3701 47.5445 39.6501C47.4445 39.9301 47.2745 40.1801 47.0845 40.4101C47.0645 40.4801 47.0345 40.5501 47.0045 40.6201C46.9745 40.6901 46.9345 40.7501 46.9045 40.8201C46.8345 40.9501 46.7545 41.0801 46.6745 41.2101C46.5245 41.4701 46.3245 41.7001 46.1345 41.9401C46.0645 42.0801 45.9845 42.2101 45.8945 42.3301C45.7945 42.4501 45.6845 42.5601 45.5745 42.6701C45.4645 42.7801 45.3545 42.8901 45.2445 43.0001C45.1345 43.1101 45.0145 43.2101 44.9045 43.3201C44.6945 43.5501 44.4145 43.7201 44.1345 43.8601C43.8545 44.0101 43.6145 44.2001 43.4145 44.4801C42.8945 44.8601 42.2745 45.0801 41.6945 45.3701C41.5345 45.4201 41.3845 45.4701 41.2245 45.5101C41.0645 45.5601 40.9145 45.6101 40.7545 45.6501C40.5945 45.6901 40.4345 45.7301 40.2745 45.7801L40.0345 45.8601C39.9545 45.8901 39.8745 45.9101 39.7945 45.9301C39.4345 45.8401 39.1145 45.8701 38.7945 45.9301C38.4645 45.9701 38.1345 46.0601 37.8045 46.1301C37.4645 46.1601 37.1345 46.1501 36.7945 46.1301C36.4645 46.0901 36.1345 46.0101 35.8145 45.9401C35.4845 45.9001 35.1645 45.8001 34.8445 45.7201C34.6845 45.6801 34.5345 45.6201 34.3745 45.5601C34.2245 45.5001 34.0745 45.4401 33.9145 45.3801C33.8345 45.3601 33.7545 45.3401 33.6745 45.3101C33.5945 45.2801 33.5245 45.2401 33.4545 45.2001C33.3145 45.1201 33.1745 45.0401 33.0345 44.9601L32.8245 44.8401C32.7545 44.8001 32.6945 44.7501 32.6245 44.7101C32.4845 44.6301 32.3445 44.5501 32.1945 44.4901C31.8845 44.3901 31.6545 44.1501 31.4145 43.9401C31.1745 43.7301 30.9745 43.4901 30.6945 43.3301C30.5645 43.2401 30.4345 43.1501 30.3145 43.0501C30.1945 42.9501 30.0845 42.8401 29.9845 42.7201C29.8745 42.6101 29.7745 42.4901 29.6845 42.3601C29.6045 42.2301 29.5245 42.0901 29.4645 41.9501C29.2845 41.7101 29.1545 41.4301 29.0345 41.1501C28.9745 41.0101 28.9045 40.8801 28.8145 40.7601C28.7745 40.7001 28.7245 40.6401 28.6745 40.5801C28.6245 40.5201 28.5745 40.4701 28.5145 40.4101C28.3645 40.1501 28.1345 39.9301 27.9945 39.6701C27.8545 39.4101 27.7745 39.1201 27.8645 38.7801C27.7345 38.5201 27.7145 38.2201 27.6845 37.9401C27.6845 37.8701 27.6645 37.8001 27.6545 37.7301C27.6545 37.6601 27.6445 37.5901 27.6345 37.5201C27.6145 37.3801 27.5845 37.2501 27.5145 37.1101C27.5645 36.9601 27.5845 36.8201 27.5745 36.6901C27.5745 36.5501 27.5745 36.4201 27.5445 36.2801C27.5245 36.1501 27.4945 36.0101 27.4645 35.8801C27.4345 35.7501 27.4145 35.6101 27.4245 35.4801C27.4645 35.2101 27.5145 34.9501 27.5445 34.6901C27.5745 34.4301 27.6245 34.1801 27.5945 33.9101C27.5745 33.7801 27.5945 33.6501 27.6045 33.5201C27.6345 33.4001 27.6845 33.2801 27.7245 33.1601C27.7745 33.0401 27.8245 32.9201 27.8645 32.8101C27.9045 32.6901 27.9345 32.5701 27.9745 32.4601C27.9745 32.2001 28.1145 31.9901 28.2445 31.7801C28.3045 31.6801 28.3845 31.5801 28.4445 31.4701C28.5045 31.3701 28.5445 31.2601 28.5545 31.1301C28.7745 30.7201 28.9845 30.3101 29.2545 29.9601C29.2145 29.6601 29.3545 29.4901 29.5245 29.3401C29.6945 29.2001 29.9045 29.0901 30.0645 28.9601C30.2245 28.8201 30.3145 28.6301 30.4245 28.4501C30.5345 28.2701 30.6945 28.1401 30.9345 28.1201C30.9745 27.8801 31.1145 27.7301 31.2845 27.6401C31.4645 27.5501 31.6645 27.5101 31.8345 27.4301C32.1645 27.2801 32.3645 26.9301 32.7345 26.9001C32.7845 26.8101 32.8445 26.7501 32.9145 26.7101C32.9845 26.6701 33.0745 26.6501 33.1545 26.6401C33.3245 26.6101 33.4845 26.6001 33.6145 26.5001C33.9345 26.4901 34.1645 26.2801 34.4345 26.2201C34.5545 26.1501 34.6745 26.1001 34.8045 26.0601C34.9345 26.0301 35.0645 26.0301 35.1845 26.0301C35.4245 25.9901 35.6445 25.9401 35.8545 25.9101C36.1745 25.8901 36.4445 25.8701 36.6845 25.8601C36.9245 25.8601 37.1345 25.8801 37.2945 25.9001C37.6245 25.9401 37.7845 25.9801 37.7845 26.0401L37.7745 26.0601Z" fill="#0061EF"/>
<path d="M68.5846 12.71C68.5846 12.77 68.4946 12.82 68.3346 12.89C68.2546 12.92 68.1546 12.95 68.0346 12.99C67.9146 13.03 67.7846 13.08 67.6346 13.13C67.5346 13.17 67.4346 13.21 67.3246 13.26C67.2746 13.29 67.2146 13.32 67.1646 13.34C67.1146 13.37 67.0546 13.4 66.9846 13.41C66.8046 13.32 66.8346 13.74 66.6246 13.6C66.4746 13.6 66.3546 13.71 66.2446 13.84C66.1446 13.96 65.9146 13.92 65.8646 14.14C65.8846 14.31 65.7746 14.29 65.6546 14.29C65.5446 14.29 65.4346 14.31 65.4946 14.5C65.4546 14.59 65.3946 14.65 65.3346 14.72C65.2746 14.79 65.2046 14.85 65.1346 14.91C64.9846 14.91 64.9246 14.99 64.8946 15.08C64.8646 15.18 64.8546 15.29 64.8146 15.38C64.4946 15.4 64.4646 15.65 64.5546 15.92C64.3546 15.93 64.2246 16 64.1946 16.11C64.1646 16.22 64.2246 16.36 64.3446 16.51C64.3146 16.61 64.2646 16.71 64.2246 16.81C64.2046 16.86 64.1846 16.91 64.1846 16.97C64.1846 17.03 64.1946 17.09 64.2246 17.15C64.2246 17.26 64.2246 17.37 64.2246 17.48C64.2246 17.59 64.2246 17.7 64.1846 17.82C64.2946 17.93 64.3746 18.04 64.3746 18.15C64.3746 18.21 64.3746 18.26 64.3446 18.32C64.3246 18.38 64.2946 18.44 64.2546 18.5C64.5346 18.69 64.4946 18.91 64.4246 19.19C64.3946 19.32 64.4946 19.42 64.5846 19.52C64.6746 19.61 64.7646 19.7 64.7246 19.85C64.7646 19.97 64.8546 20.06 64.9246 20.16C64.9946 20.26 65.0746 20.36 65.1346 20.47C65.1546 20.54 65.1646 20.61 65.1846 20.67C65.2146 20.73 65.2446 20.79 65.2846 20.84C65.3246 20.89 65.3746 20.94 65.4246 20.97C65.4846 21 65.5646 21.02 65.6546 21.02C65.7746 21.08 65.8846 21.14 65.9946 21.2C66.1046 21.26 66.1946 21.36 66.2746 21.48C66.6346 21.39 66.7846 21.59 66.9746 21.83C67.1046 21.85 67.2146 21.94 67.3446 22C67.4646 22.05 67.5946 22.11 67.7446 22.05C67.8746 22.09 68.0146 22.08 68.1446 22.08C68.2846 22.06 68.4146 22.06 68.5546 22.13C68.6946 22.16 68.8346 22.2 68.9746 22.2C69.1146 22.2 69.2446 22.15 69.3646 22.05C69.4846 21.94 69.6046 21.92 69.7446 21.92C69.8846 21.92 70.0246 21.9 70.1346 21.83C70.3046 21.91 70.4246 21.81 70.5246 21.72C70.6346 21.63 70.7046 21.5 70.8346 21.47C70.9446 21.4 71.0646 21.34 71.1846 21.28C71.3046 21.22 71.4046 21.14 71.4546 21C71.4946 20.95 71.5346 20.9 71.5746 20.85C71.6146 20.79 71.6446 20.74 71.6846 20.7C71.7246 20.65 71.7646 20.61 71.8146 20.57C71.8646 20.53 71.9146 20.49 71.9746 20.45C71.8946 20.23 71.9746 20.16 72.0946 20.09C72.2046 20.02 72.3746 19.97 72.3846 19.84C72.5146 19.77 72.5646 19.65 72.5946 19.53C72.6146 19.41 72.6246 19.28 72.6846 19.18C72.6846 19.06 72.7546 18.95 72.8146 18.85C72.8846 18.74 72.9146 18.62 72.8546 18.5C72.8746 18.44 72.8746 18.39 72.8746 18.33C72.8746 18.27 72.8646 18.21 72.8546 18.16C72.8446 18.04 72.8546 17.93 72.9246 17.82C72.8246 17.71 72.8546 17.6 72.8946 17.48C72.9346 17.37 72.9646 17.25 72.8946 17.15L72.8646 16.99L72.8246 16.83C72.7946 16.73 72.7846 16.62 72.7746 16.51C72.8846 16.36 72.8546 16.25 72.7946 16.16C72.7346 16.07 72.6146 16.01 72.5646 15.92C72.5146 15.71 72.2246 15.66 72.3046 15.38C72.2646 15.29 72.2346 15.19 72.1946 15.1C72.1546 15.01 72.1046 14.93 71.9846 14.9C71.9046 14.85 71.9246 14.7 71.9146 14.59C71.9046 14.47 71.8346 14.4 71.6346 14.49C71.5446 14.46 71.5346 14.34 71.5046 14.24C71.4646 14.15 71.4146 14.07 71.2646 14.13C70.9946 14.23 71.0146 13.93 70.8846 13.83C70.7646 13.73 70.6246 13.67 70.5046 13.59C69.9446 13.26 69.4446 13.1 69.1046 12.98C68.7546 12.88 68.5546 12.79 68.5546 12.71C68.5546 12.66 68.6146 12.62 68.7446 12.58C68.8646 12.55 69.0546 12.49 69.3046 12.5C69.7946 12.48 70.5446 12.56 71.3946 12.97C71.5546 13.05 71.8546 12.97 71.9046 13.26C71.9846 13.32 72.0946 13.35 72.1946 13.4C72.2946 13.45 72.3846 13.52 72.4246 13.64C72.6046 13.61 72.7046 13.67 72.7646 13.78C72.8246 13.88 72.8546 14.01 72.9346 14.1C73.0246 14.18 73.0746 14.29 73.1446 14.39C73.2146 14.49 73.2946 14.58 73.4046 14.66C73.6746 14.79 73.6146 15.13 73.8146 15.32C73.7946 15.48 73.8246 15.61 73.8746 15.73C73.9346 15.85 74.0246 15.96 74.1546 16.07C74.1146 16.23 74.1546 16.36 74.2246 16.49C74.2546 16.56 74.2946 16.62 74.3246 16.69C74.3546 16.76 74.3746 16.83 74.3846 16.9C74.2746 17.07 74.2846 17.21 74.3246 17.35C74.3546 17.49 74.4446 17.64 74.4946 17.79C74.5546 17.94 74.5246 18.1 74.5046 18.26C74.4946 18.34 74.4846 18.42 74.4746 18.49C74.4646 18.57 74.4546 18.65 74.4546 18.73C74.3646 19.04 74.3946 19.38 74.2646 19.69C74.2646 19.86 74.2546 20.04 74.1946 20.2C74.1346 20.36 74.0346 20.51 73.8946 20.63C73.8646 20.81 73.7646 20.95 73.6746 21.1C73.5846 21.25 73.4646 21.38 73.3546 21.52C73.3246 21.61 73.2746 21.69 73.2246 21.76C73.1646 21.83 73.1046 21.89 73.0446 21.95L72.8446 22.13C72.7746 22.19 72.7046 22.25 72.6446 22.31C72.5246 22.45 72.3546 22.52 72.1746 22.6C72.0046 22.67 71.8646 22.78 71.7846 22.99C71.4946 23.22 71.1146 23.32 70.7946 23.51C70.6146 23.56 70.4346 23.61 70.2446 23.66C70.0646 23.7 69.8846 23.77 69.7046 23.84C69.4846 23.73 69.3046 23.73 69.1146 23.77C68.9246 23.8 68.7446 23.89 68.5446 23.95C68.3446 23.98 68.1546 23.98 67.9546 23.97C67.7646 23.94 67.5746 23.89 67.3846 23.84C67.1946 23.82 67.0046 23.77 66.8246 23.72C66.6446 23.67 66.4646 23.59 66.2946 23.51C66.0946 23.49 65.9446 23.36 65.7846 23.26C65.6246 23.16 65.4846 23.03 65.2946 22.99C65.1046 22.95 64.9746 22.8 64.8446 22.67C64.7146 22.54 64.6046 22.39 64.4346 22.31C64.3546 22.26 64.2746 22.22 64.2046 22.16C64.1346 22.1 64.0646 22.04 64.0046 21.98C63.9446 21.91 63.8846 21.84 63.8346 21.77C63.7946 21.69 63.7546 21.6 63.7346 21.51C63.6246 21.37 63.5746 21.19 63.5246 21.03C63.4746 20.86 63.3746 20.73 63.1946 20.63C63.0946 20.49 62.9346 20.38 62.8246 20.23C62.7246 20.08 62.6846 19.91 62.8246 19.69C62.7346 19.55 62.7346 19.37 62.7346 19.2C62.7346 19.03 62.7446 18.87 62.6346 18.73C62.6946 18.64 62.7246 18.56 62.7246 18.48C62.7346 18.4 62.7246 18.32 62.7046 18.25C62.6646 18.1 62.5846 17.95 62.5946 17.79C62.6346 17.64 62.6746 17.49 62.7046 17.34C62.7346 17.19 62.7546 17.05 62.7046 16.89C62.6846 16.81 62.6746 16.74 62.6946 16.66C62.7146 16.59 62.7446 16.52 62.7746 16.45C62.8446 16.32 62.9146 16.19 62.9346 16.05C62.9046 15.89 63.0046 15.77 63.1046 15.67C63.1946 15.56 63.3146 15.47 63.2746 15.31C63.4146 15.08 63.5046 14.84 63.6846 14.65C63.5946 14.44 63.6746 14.33 63.7946 14.26C63.9146 14.19 64.0646 14.16 64.1646 14.09C64.2646 14.02 64.2946 13.89 64.3446 13.78C64.3946 13.67 64.4846 13.59 64.6646 13.63C64.6446 13.45 64.7246 13.36 64.8346 13.32C64.9446 13.28 65.0846 13.29 65.1846 13.26C65.3946 13.21 65.4546 12.93 65.6946 12.97C65.7246 12.83 65.8146 12.81 65.9246 12.81C66.0246 12.81 66.1346 12.83 66.1946 12.76C66.4046 12.81 66.5046 12.64 66.6646 12.62C66.7246 12.57 66.7946 12.54 66.8646 12.52C66.9346 12.51 67.0146 12.52 67.0846 12.53C67.2246 12.51 67.3446 12.49 67.4646 12.49C67.6446 12.49 67.7946 12.49 67.9246 12.49C68.0546 12.49 68.1746 12.53 68.2646 12.55C68.4446 12.59 68.5346 12.64 68.5346 12.7L68.5846 12.71Z" fill="#0061EF"/>
<path d="M13.0312 8.16993C13.0312 8.22993 12.9412 8.27993 12.7812 8.33993C12.7012 8.36993 12.6012 8.39993 12.4812 8.43993C12.3612 8.47993 12.2312 8.52993 12.0812 8.57993C11.9812 8.61993 11.8812 8.65993 11.7712 8.70993C11.7212 8.73993 11.6612 8.76993 11.6112 8.78993C11.5612 8.81993 11.5012 8.84993 11.4312 8.85993C11.2512 8.76993 11.2812 9.19993 11.0712 9.05993C10.9212 9.05993 10.8012 9.16993 10.6912 9.29993C10.5912 9.42993 10.3612 9.37993 10.3112 9.59993C10.3312 9.75993 10.2212 9.74993 10.1012 9.74993C9.99117 9.74993 9.88117 9.76993 9.94117 9.95993C9.90117 10.0499 9.84117 10.1099 9.78117 10.1799C9.72117 10.2499 9.65117 10.3099 9.58117 10.3699C9.43117 10.3699 9.37117 10.4499 9.34117 10.5399C9.31117 10.6399 9.30117 10.7499 9.26117 10.8399C8.94117 10.8599 8.91117 11.1099 9.00117 11.3799C8.80117 11.3899 8.67117 11.4599 8.64117 11.5699C8.61117 11.6799 8.67117 11.8199 8.79117 11.9699C8.76117 12.0699 8.71117 12.1699 8.67117 12.2699C8.65117 12.3199 8.63117 12.3699 8.63117 12.4299C8.63117 12.4899 8.64117 12.5499 8.67117 12.6099C8.67117 12.7199 8.67117 12.8299 8.67117 12.9399C8.67117 13.0499 8.67117 13.1599 8.63117 13.2699C8.74117 13.3899 8.82117 13.4899 8.82117 13.5999C8.82117 13.6599 8.82117 13.7099 8.79117 13.7699C8.77117 13.8299 8.74117 13.8899 8.70117 13.9499C8.98117 14.1399 8.94117 14.3599 8.87117 14.6399C8.84117 14.7699 8.94117 14.8699 9.03117 14.9699C9.12117 15.0599 9.21117 15.1499 9.17117 15.3099C9.21117 15.4299 9.30117 15.5199 9.37117 15.6199C9.44117 15.7199 9.52117 15.8099 9.58117 15.9299C9.60117 15.9999 9.61117 16.0599 9.63117 16.1299C9.66117 16.1899 9.69117 16.2499 9.73117 16.2999C9.77117 16.3499 9.82117 16.3999 9.87117 16.4299C9.93117 16.4599 10.0112 16.4799 10.0912 16.4799C10.2112 16.5399 10.3212 16.5999 10.4312 16.6599C10.5412 16.7199 10.6312 16.8199 10.7112 16.9399C11.0712 16.8499 11.2212 17.0499 11.4212 17.2899C11.5512 17.3099 11.6612 17.3999 11.7912 17.4599C11.9112 17.5099 12.0512 17.5699 12.1912 17.5099C12.3212 17.5499 12.4612 17.5399 12.5912 17.5399C12.7312 17.5199 12.8612 17.5199 13.0012 17.5899C13.1412 17.6199 13.2812 17.6599 13.4212 17.6599C13.5612 17.6599 13.7012 17.6099 13.8112 17.5099C13.9312 17.3999 14.0512 17.3799 14.1912 17.3799C14.3312 17.3799 14.4712 17.3599 14.5812 17.2899C14.7612 17.3699 14.8712 17.2799 14.9712 17.1899C15.0812 17.0999 15.1512 16.9699 15.2812 16.9399C15.3912 16.8699 15.5112 16.8099 15.6312 16.7499C15.7512 16.6999 15.8512 16.6099 15.9012 16.4699C15.9412 16.4199 15.9812 16.3699 16.0212 16.3199C16.0612 16.2699 16.0912 16.2199 16.1312 16.1699C16.1712 16.1199 16.2212 16.0799 16.2712 16.0399C16.3212 15.9999 16.3712 15.9599 16.4312 15.9199C16.3512 15.6999 16.4312 15.6299 16.5512 15.5599C16.6612 15.4899 16.8312 15.4399 16.8412 15.3099C16.9612 15.2399 17.0212 15.1199 17.0512 14.9999C17.0712 14.8799 17.0812 14.7499 17.1412 14.6499C17.1412 14.5199 17.2112 14.4199 17.2712 14.3199C17.3412 14.2199 17.3712 14.0999 17.3112 13.9699C17.3312 13.9099 17.3312 13.8599 17.3312 13.7999C17.3312 13.7399 17.3212 13.6799 17.3112 13.6199C17.2912 13.4999 17.3112 13.3899 17.3812 13.2799C17.2712 13.1699 17.3112 13.0599 17.3612 12.9399C17.4012 12.8299 17.4312 12.7099 17.3512 12.6099L17.3212 12.4499L17.2812 12.2899C17.2512 12.1899 17.2412 12.0799 17.2312 11.9699C17.3412 11.8199 17.3112 11.7099 17.2512 11.6199C17.1912 11.5299 17.0712 11.4699 17.0212 11.3799C16.9712 11.1699 16.6812 11.1199 16.7612 10.8399C16.7212 10.7499 16.6912 10.6499 16.6512 10.5599C16.6112 10.4699 16.5612 10.3899 16.4412 10.3599C16.3612 10.3099 16.3812 10.1599 16.3712 10.0499C16.3612 9.92993 16.2912 9.85993 16.0912 9.94993C16.0012 9.91993 15.9912 9.79993 15.9612 9.69993C15.9212 9.60993 15.8712 9.52993 15.7212 9.58993C15.4512 9.68993 15.4712 9.38993 15.3412 9.28993C15.2212 9.18993 15.0812 9.12993 14.9712 9.04993C14.4112 8.71993 13.9112 8.55993 13.5712 8.43993C13.2212 8.33993 13.0212 8.24993 13.0212 8.16993C13.0212 8.11993 13.0812 8.07993 13.2112 8.03993C13.3312 8.00993 13.5212 7.94993 13.7712 7.95993C14.2612 7.93993 15.0112 8.01993 15.8612 8.42993C16.0212 8.50993 16.3212 8.42993 16.3712 8.71993C16.4512 8.77993 16.5612 8.80993 16.6612 8.84993C16.7612 8.89993 16.8512 8.96993 16.8912 9.08993C17.0712 9.05993 17.1712 9.12993 17.2312 9.22993C17.2912 9.32993 17.3212 9.45993 17.4012 9.54993C17.4912 9.62993 17.5412 9.73993 17.6112 9.83993C17.6812 9.93993 17.7612 10.0299 17.8712 10.1099C18.1412 10.2399 18.0812 10.5799 18.2812 10.7699C18.2512 10.9299 18.2912 11.0599 18.3412 11.1799C18.4012 11.2999 18.4912 11.4099 18.6212 11.5199C18.5812 11.6799 18.6212 11.8099 18.6912 11.9399C18.7212 11.9999 18.7612 12.0699 18.7912 12.1399C18.8212 12.2099 18.8412 12.2799 18.8512 12.3499C18.7412 12.5199 18.7512 12.6599 18.7912 12.7999C18.8312 12.9399 18.9112 13.0899 18.9712 13.2399C19.0312 13.3899 19.0012 13.5499 18.9812 13.6999C18.9712 13.7799 18.9612 13.8599 18.9512 13.9299C18.9412 14.0099 18.9312 14.0899 18.9312 14.1699C18.8412 14.4799 18.8712 14.8199 18.7412 15.1299C18.7412 15.2999 18.7212 15.4799 18.6712 15.6399C18.6112 15.7999 18.5112 15.9499 18.3712 16.0699C18.3412 16.2499 18.2412 16.3899 18.1512 16.5399C18.0612 16.6899 17.9412 16.8199 17.8312 16.9599C17.8012 17.0499 17.7512 17.1299 17.7012 17.1999C17.6412 17.2699 17.5812 17.3299 17.5112 17.3899L17.3112 17.5699C17.2412 17.6299 17.1712 17.6899 17.1112 17.7499C16.9912 17.8899 16.8212 17.9599 16.6412 18.0299C16.4712 18.0999 16.3312 18.2099 16.2512 18.4199C15.9612 18.6499 15.5812 18.7499 15.2612 18.9399C15.0712 18.9899 14.9012 19.0399 14.7112 19.0899C14.5312 19.1299 14.3512 19.1999 14.1712 19.2699C13.9512 19.1599 13.7712 19.1599 13.5812 19.1999C13.3912 19.2299 13.2112 19.3199 13.0112 19.3799C12.8212 19.4099 12.6212 19.4099 12.4312 19.3999C12.2412 19.3699 12.0512 19.3199 11.8612 19.2699C11.6712 19.2499 11.4812 19.1999 11.3012 19.1499C11.1212 19.0999 10.9412 19.0199 10.7712 18.9399C10.5812 18.9199 10.4212 18.7899 10.2612 18.6899C10.1012 18.5899 9.96117 18.4599 9.77117 18.4199C9.57117 18.3799 9.45117 18.2299 9.32117 18.0999C9.19117 17.9699 9.08117 17.8199 8.91117 17.7399C8.83117 17.6899 8.75117 17.6499 8.68117 17.5899C8.61117 17.5299 8.54117 17.4699 8.48117 17.4099C8.42117 17.3399 8.36117 17.2699 8.31117 17.1999C8.27117 17.1199 8.23117 17.0299 8.21117 16.9399C8.10117 16.7999 8.05117 16.6199 8.00117 16.4599C7.94117 16.2899 7.85117 16.1599 7.67117 16.0599C7.57117 15.9199 7.40117 15.8099 7.30117 15.6599C7.20117 15.5099 7.16117 15.3399 7.30117 15.1199C7.21117 14.9799 7.21117 14.7999 7.21117 14.6299C7.21117 14.4599 7.22117 14.2999 7.11117 14.1599C7.17117 14.0699 7.20117 13.9899 7.20117 13.9099C7.20117 13.8299 7.20117 13.7599 7.18117 13.6799C7.14117 13.5299 7.06117 13.3799 7.07117 13.2199C7.11117 13.0699 7.15117 12.9199 7.18117 12.7699C7.21117 12.6199 7.23117 12.4799 7.18117 12.3199C7.16117 12.2399 7.15117 12.1599 7.17117 12.0899C7.19117 12.0199 7.22117 11.9499 7.25117 11.8799C7.32117 11.7499 7.39117 11.6199 7.41117 11.4799C7.38117 11.3199 7.48117 11.1999 7.58117 11.0999C7.67117 10.9899 7.78117 10.8999 7.76117 10.7399C7.90117 10.5099 7.99117 10.2599 8.17117 10.0799C8.08117 9.86993 8.16117 9.75993 8.28117 9.68993C8.40117 9.61993 8.55117 9.58993 8.65117 9.51993C8.75117 9.44993 8.78117 9.31993 8.83117 9.20993C8.88117 9.09993 8.97117 9.01993 9.15117 9.05993C9.13117 8.87993 9.21117 8.78993 9.32117 8.74993C9.43117 8.70993 9.57117 8.71993 9.67117 8.68993C9.88117 8.62993 9.94117 8.35993 10.1912 8.39993C10.2212 8.25993 10.3112 8.23993 10.4212 8.23993C10.5212 8.23993 10.6312 8.25993 10.6912 8.18993C10.9012 8.23993 11.0012 8.06993 11.1612 8.04993C11.2212 7.99993 11.2912 7.96993 11.3612 7.94993C11.4312 7.93993 11.5112 7.94993 11.5812 7.96993C11.7112 7.94993 11.8412 7.92993 11.9612 7.92993C12.1412 7.92993 12.2912 7.92993 12.4212 7.92993C12.5512 7.92993 12.6712 7.96993 12.7512 7.98993C12.9312 8.02993 13.0212 8.07993 13.0212 8.13993L13.0312 8.16993Z" fill="#0061EF"/>
<path d="M37.7646 66.0501C37.7646 66.1001 37.6746 66.1601 37.5146 66.2201C37.4346 66.2501 37.3346 66.2801 37.2146 66.3201C37.1046 66.3601 36.9646 66.4101 36.8246 66.4601C36.7246 66.5001 36.6246 66.5401 36.5146 66.5901C36.4646 66.6201 36.4046 66.6501 36.3546 66.6701C36.3046 66.7001 36.2446 66.7301 36.1746 66.7401C35.9946 66.6501 36.0246 67.0801 35.8146 66.9401C35.6646 66.9401 35.5446 67.0501 35.4346 67.1801C35.3346 67.3001 35.1046 67.2601 35.0546 67.4801C35.0746 67.6501 34.9646 67.6301 34.8446 67.6301C34.7346 67.6301 34.6246 67.6501 34.6846 67.8401C34.6446 67.9301 34.5846 67.9901 34.5246 68.0601C34.4646 68.1301 34.3946 68.1901 34.3246 68.2501C34.1746 68.2501 34.1146 68.3301 34.0846 68.4201C34.0546 68.5201 34.0446 68.6301 34.0046 68.7201C33.6846 68.7401 33.6546 68.9901 33.7446 69.2601C33.5446 69.2701 33.4146 69.3401 33.3846 69.4501C33.3546 69.5601 33.4146 69.7001 33.5346 69.8501C33.5046 69.9501 33.4546 70.0501 33.4146 70.1501C33.3946 70.2001 33.3746 70.2501 33.3746 70.3101C33.3746 70.3701 33.3846 70.4301 33.4146 70.4901C33.4146 70.6001 33.4146 70.7101 33.4146 70.8201C33.4146 70.9301 33.4146 71.0401 33.3746 71.1601C33.4846 71.2801 33.5646 71.3801 33.5646 71.4901C33.5646 71.5501 33.5646 71.6001 33.5346 71.6601C33.5146 71.7201 33.4846 71.7801 33.4446 71.8401C33.7246 72.0301 33.6846 72.2501 33.6146 72.5301C33.5846 72.6601 33.6846 72.7601 33.7746 72.8601C33.8646 72.9501 33.9646 73.0401 33.9146 73.2001C33.9546 73.3201 34.0446 73.4101 34.1146 73.5101C34.1846 73.6101 34.2646 73.7001 34.3246 73.8201C34.3446 73.8901 34.3546 73.9601 34.3746 74.0201C34.4046 74.0801 34.4346 74.1401 34.4746 74.1901C34.5146 74.2401 34.5646 74.2901 34.6246 74.3201C34.6846 74.3501 34.7646 74.3701 34.8446 74.3701C34.9546 74.4301 35.0746 74.4901 35.1846 74.5501C35.2946 74.6101 35.3846 74.7101 35.4646 74.8301C35.8246 74.7401 35.9746 74.9401 36.1746 75.1801C36.3046 75.2001 36.4146 75.2901 36.5446 75.3501C36.6646 75.4001 36.7946 75.4601 36.9446 75.4001C37.0746 75.4401 37.2146 75.4301 37.3546 75.4301C37.4946 75.4101 37.6246 75.4101 37.7646 75.4801C37.9046 75.5101 38.0446 75.5501 38.1846 75.5501C38.3246 75.5501 38.4646 75.5001 38.5746 75.4001C38.6846 75.2901 38.8146 75.2701 38.9546 75.2701C39.0946 75.2701 39.2246 75.2501 39.3446 75.1801C39.5146 75.2601 39.6346 75.1601 39.7346 75.0701C39.8446 74.9801 39.9146 74.8501 40.0446 74.8201C40.1546 74.7501 40.2746 74.6901 40.3946 74.6301C40.5146 74.5801 40.6146 74.4901 40.6646 74.3501C40.7046 74.3001 40.7446 74.2501 40.7846 74.2001C40.8246 74.1501 40.8546 74.1001 40.8946 74.0501C40.9346 74.0001 40.9746 73.9601 41.0346 73.9201C41.0846 73.8801 41.1346 73.8401 41.1946 73.8001C41.1146 73.5801 41.1946 73.5101 41.3146 73.4401C41.4246 73.3701 41.5946 73.3201 41.6046 73.1901C41.7246 73.1201 41.7846 73.0001 41.8146 72.8801C41.8346 72.7601 41.8446 72.6301 41.9046 72.5301C41.9046 72.4001 41.9746 72.3001 42.0346 72.1901C42.1046 72.0901 42.1346 71.9701 42.0746 71.8401C42.0946 71.7801 42.0946 71.7301 42.0946 71.6701C42.0946 71.6101 42.0846 71.5501 42.0746 71.5001C42.0646 71.3801 42.0746 71.2701 42.1446 71.1601C42.0446 71.0501 42.0746 70.9401 42.1246 70.8201C42.1646 70.7001 42.1946 70.5901 42.1146 70.4901L42.0846 70.3301L42.0446 70.1701C42.0146 70.0701 42.0046 69.9601 41.9846 69.8501C42.0946 69.7001 42.0646 69.5901 42.0046 69.5001C41.9446 69.4101 41.8246 69.3501 41.7746 69.2601C41.7246 69.0501 41.4346 69.0001 41.5146 68.7201C41.4746 68.6301 41.4446 68.5301 41.4046 68.4401C41.3646 68.3501 41.3146 68.2701 41.1946 68.2401C41.1146 68.1901 41.1346 68.0401 41.1246 67.9301C41.1146 67.8101 41.0446 67.7401 40.8446 67.8301C40.7546 67.8001 40.7446 67.6801 40.7146 67.5801C40.6746 67.4901 40.6246 67.4101 40.4746 67.4701C40.2046 67.5701 40.2246 67.2701 40.0946 67.1701C39.9746 67.0701 39.8346 67.0101 39.7146 66.9301C39.1546 66.6001 38.6546 66.4401 38.3146 66.3201C37.9646 66.2201 37.7646 66.1301 37.7646 66.0501C37.7646 66.0001 37.8246 65.9601 37.9546 65.9201C38.0746 65.8901 38.2646 65.8301 38.5146 65.8401C39.0046 65.8201 39.7546 65.9001 40.6046 66.3101C40.7646 66.4001 41.0646 66.3101 41.1146 66.6001C41.1946 66.6601 41.3046 66.6901 41.4046 66.7401C41.5046 66.7901 41.5946 66.8601 41.6346 66.9801C41.8146 66.9501 41.9146 67.0101 41.9746 67.1201C42.0346 67.2201 42.0646 67.3501 42.1446 67.4401C42.2346 67.5201 42.2846 67.6301 42.3546 67.7301C42.4246 67.8301 42.5046 67.9201 42.6146 68.0001C42.8846 68.1301 42.8146 68.4701 43.0246 68.6601C43.0046 68.8201 43.0346 68.9501 43.0946 69.0701C43.1446 69.1901 43.2446 69.3001 43.3746 69.4101C43.3446 69.5701 43.3746 69.7001 43.4446 69.8301C43.4746 69.9001 43.5146 69.9601 43.5446 70.0301C43.5746 70.1001 43.5946 70.1701 43.6046 70.2401C43.4946 70.4101 43.5046 70.5501 43.5446 70.6901C43.5846 70.8301 43.6646 70.9801 43.7246 71.1301C43.7846 71.2801 43.7546 71.4401 43.7346 71.6001C43.7246 71.6801 43.7146 71.7601 43.7046 71.8301C43.6946 71.9101 43.6846 71.9901 43.6846 72.0701C43.5946 72.3801 43.6246 72.7201 43.4946 73.0301C43.4946 73.2001 43.4746 73.3801 43.4246 73.5401C43.3646 73.7001 43.2646 73.8501 43.1246 73.9701C43.0946 74.1501 42.9946 74.2901 42.9046 74.4401C42.8146 74.5901 42.6946 74.7201 42.5846 74.8601C42.5546 74.9501 42.5046 75.0301 42.4546 75.1001C42.3946 75.1701 42.3346 75.2301 42.2746 75.2901L42.0746 75.4701C42.0046 75.5301 41.9346 75.5901 41.8746 75.6501C41.7546 75.7901 41.5846 75.8601 41.4046 75.9301C41.2346 76.0001 41.0946 76.1101 41.0146 76.3201C40.7246 76.5501 40.3446 76.6501 40.0246 76.8401C39.8446 76.8801 39.6646 76.9401 39.4746 76.9901C39.2846 77.0301 39.1146 77.1001 38.9346 77.1701C38.7146 77.0601 38.5346 77.0601 38.3446 77.1001C38.1546 77.1301 37.9746 77.2201 37.7746 77.2801C37.5846 77.3101 37.3846 77.3101 37.1946 77.3001C37.0046 77.2701 36.8146 77.2201 36.6246 77.1701C36.4346 77.1501 36.2446 77.1001 36.0646 77.0501C35.8846 77.0001 35.7046 76.9101 35.5346 76.8401C35.3446 76.8201 35.1846 76.7001 35.0346 76.5901C34.8746 76.4901 34.7346 76.3601 34.5446 76.3201C34.3446 76.2801 34.2246 76.1301 34.0946 76.0001C33.9646 75.8701 33.8546 75.7201 33.6846 75.6401C33.6046 75.5901 33.5246 75.5501 33.4546 75.4901C33.3846 75.4301 33.3146 75.3701 33.2546 75.3101C33.1946 75.2401 33.1346 75.1701 33.0846 75.1001C33.0446 75.0201 33.0046 74.9301 32.9846 74.8401C32.8746 74.7001 32.8246 74.5201 32.7746 74.3601C32.7146 74.1901 32.6246 74.0601 32.4446 73.9601C32.3446 73.8201 32.1746 73.7101 32.0746 73.5601C31.9746 73.4101 31.9346 73.2401 32.0746 73.0201C31.9846 72.8801 31.9846 72.7001 31.9846 72.5301C31.9846 72.3701 31.9946 72.2001 31.8846 72.0601C31.9446 71.9701 31.9746 71.8901 31.9746 71.8101C31.9746 71.7301 31.9746 71.6601 31.9546 71.5801C31.9146 71.4301 31.8346 71.2701 31.8446 71.1201C31.8846 70.9701 31.9246 70.8201 31.9546 70.6701C31.9846 70.5201 32.0046 70.3801 31.9546 70.2201C31.9346 70.1401 31.9246 70.0601 31.9446 69.9901C31.9646 69.9201 31.9946 69.8501 32.0246 69.7801C32.0946 69.6501 32.1646 69.5201 32.1846 69.3801C32.1546 69.2201 32.2546 69.1001 32.3546 69.0001C32.4446 68.8901 32.5646 68.8001 32.5346 68.6401C32.6746 68.4101 32.7646 68.1601 32.9446 67.9801C32.8546 67.7601 32.9346 67.6601 33.0546 67.5901C33.1746 67.5201 33.3346 67.4901 33.4246 67.4201C33.5246 67.3501 33.5546 67.2201 33.6046 67.1101C33.6546 67.0001 33.7446 66.9201 33.9246 66.9601C33.9046 66.7801 33.9846 66.6901 34.0946 66.6501C34.2046 66.6101 34.3446 66.6201 34.4446 66.5901C34.6546 66.5301 34.7146 66.2601 34.9546 66.3001C34.9846 66.1601 35.0746 66.1401 35.1846 66.1401C35.2846 66.1401 35.3946 66.1601 35.4546 66.0901C35.6646 66.1401 35.7646 65.9701 35.9246 65.9501C35.9846 65.9001 36.0546 65.8701 36.1246 65.8501C36.1946 65.8401 36.2746 65.8501 36.3446 65.8601C36.4846 65.8401 36.6046 65.8201 36.7246 65.8201C36.9046 65.8201 37.0546 65.8201 37.1846 65.8201C37.3146 65.8201 37.4346 65.8601 37.5246 65.8801C37.7046 65.9201 37.7946 65.9701 37.7946 66.0301L37.7646 66.0501Z" fill="#0061EF"/>
<path d="M75.5312 76.34C75.5312 76.45 74.7012 76.56 73.1712 76.66C72.9212 76.68 72.6413 76.69 72.3512 76.71C72.0612 76.74 71.7513 76.77 71.4212 76.76C71.0912 76.61 70.7412 77.03 70.3812 76.81C70.0212 76.74 69.6312 76.81 69.2412 76.85C68.8412 76.9 68.4313 76.76 68.0013 76.89C67.5713 77.18 67.1213 76.57 66.6613 76.93C66.2013 77.01 65.7213 76.99 65.2313 76.97C64.7413 76.75 64.2312 76.97 63.7113 77.01C63.1912 76.75 62.6513 76.86 62.1113 77.04C61.5613 76.68 61.0013 76.73 60.4313 77.07C59.8613 77.08 59.2712 76.94 58.6712 77.1C58.0713 77.12 57.4613 77.19 56.8413 77.13C56.2213 77.37 55.5913 77.36 54.9412 77.15C54.3013 77.41 53.6413 77.31 52.9813 77.17C52.3213 77.03 51.6413 77.4 50.9613 77.19C50.2812 77.17 49.5813 77.25 48.8813 77.21C48.1813 77.1 47.4713 76.99 46.7513 77.22C46.0312 77.28 45.3013 77.37 44.5713 77.23C43.8413 77.51 43.0913 77.38 42.3512 77.23C41.6012 77.28 40.8512 77.08 40.0913 77.23C39.3313 77.19 38.5613 77.35 37.7913 77.23C37.0213 77.15 36.2513 77.07 35.4913 77.23C34.7313 77.41 33.9713 77.16 33.2213 77.23C32.4713 76.97 31.7312 77.31 31.0012 77.23C30.2712 77.26 29.5412 77.08 28.8212 77.22C28.1012 77.27 27.3913 77.32 26.6912 77.21C25.9912 77.61 25.3013 77.11 24.6112 77.19C23.9312 77.02 23.2512 77.21 22.5912 77.17C21.9212 77.24 21.2712 76.99 20.6312 77.15C19.9912 77.12 19.3512 77.28 18.7312 77.13C18.1112 77.33 17.5012 76.96 16.9012 77.1C16.3012 77.1 15.7113 77.11 15.1413 77.07C14.5613 76.76 14.0113 77.02 13.4613 77.04C12.9113 77.01 12.3813 77.22 11.8612 77.01C11.3412 76.98 10.8313 76.85 10.3413 76.97C9.85125 77.02 9.37125 76.52 8.91125 76.93C8.45125 77 8.00125 76.61 7.57125 76.89C7.14125 77.15 6.72125 76.86 6.33125 76.85C5.93125 76.83 5.55125 76.82 5.19125 76.81C1.91125 76.68 0.03125 76.52 0.03125 76.35C0.03125 76.17 2.35125 75.99 6.33125 75.85C6.73125 75.84 7.14125 75.62 7.57125 75.81C8.00125 75.81 8.45125 75.64 8.91125 75.77C9.37125 75.48 9.85125 75.72 10.3413 75.73C10.8313 75.72 11.3412 75.81 11.8612 75.69C12.3813 75.52 12.9113 75.77 13.4613 75.66C14.0113 75.84 14.5713 75.79 15.1413 75.63C15.7113 75.8 16.3012 75.59 16.9012 75.6C17.5012 75.86 18.1112 75.68 18.7312 75.57C19.3512 75.47 19.9912 75.61 20.6312 75.54C21.2712 75.59 21.9312 75.47 22.5912 75.52C23.2512 75.4 23.9312 75.35 24.6112 75.5C25.2913 75.41 25.9912 75.48 26.6912 75.48C27.3913 75.38 28.1012 75.49 28.8212 75.47C29.5412 75.41 30.2712 75.75 31.0012 75.46C31.7312 75.42 32.4813 75.5 33.2213 75.46C33.9713 75.5 34.7213 75.54 35.4913 75.46C36.2513 75.75 37.0213 75.57 37.7913 75.46C38.5613 75.38 39.3313 75.42 40.0913 75.46C40.8512 75.43 41.6112 75.45 42.3512 75.46C43.1012 75.37 43.8413 75.58 44.5713 75.46C45.3013 75.34 46.0312 75.59 46.7513 75.47C47.4713 75.39 48.1813 75.34 48.8813 75.48C49.5813 75.48 50.2713 75.74 50.9613 75.5C51.6413 75.44 52.3213 75.12 52.9813 75.52C53.6413 75.42 54.3013 75.71 54.9412 75.54C55.5812 75.83 56.2213 75.56 56.8413 75.57C57.4613 75.63 58.0713 75.73 58.6712 75.6C59.2712 75.46 59.8613 75.68 60.4313 75.63C61.0013 75.46 61.5613 75.85 62.1113 75.66C62.6613 75.7 63.1912 75.63 63.7113 75.69C64.2312 75.29 64.7413 75.69 65.2313 75.73C65.7213 75.79 66.2013 75.47 66.6613 75.77C67.1213 75.47 67.5713 75.73 68.0013 75.81C68.4313 75.9 68.8512 75.68 69.2412 75.85C69.6413 75.64 70.0212 75.97 70.3812 75.89C70.7412 76.03 71.0912 75.89 71.4212 75.94C71.7513 75.89 72.0612 75.91 72.3512 75.99C72.6413 76.01 72.9212 76.02 73.1712 76.04C74.7012 76.14 75.5312 76.25 75.5312 76.36V76.34Z" fill="#0061EF"/>
<path d="M62.4194 84.68C62.4194 84.79 61.8694 84.9 60.8794 85C60.7094 85.02 60.5294 85.03 60.3394 85.05C60.1494 85.08 59.9494 85.11 59.7294 85.1C59.5194 84.95 59.2894 85.37 59.0494 85.14C58.8094 85.08 58.5594 85.14 58.2994 85.18C58.0394 85.23 57.7694 85.09 57.4894 85.22C57.2094 85.51 56.9194 84.9 56.6194 85.26C56.3194 85.34 56.0094 85.32 55.6894 85.3C55.3694 85.08 55.0394 85.3 54.6994 85.34C54.3594 85.08 54.0094 85.19 53.6494 85.37C53.2894 85.01 52.9294 85.07 52.5494 85.4C52.1794 85.41 51.7894 85.27 51.3994 85.43C51.0094 85.45 50.6094 85.52 50.1994 85.46C49.7894 85.7 49.3794 85.69 48.9594 85.48C48.5394 85.74 48.1094 85.64 47.6794 85.5C47.2494 85.36 46.8094 85.73 46.3594 85.52C45.9094 85.5 45.4594 85.58 44.9994 85.54C44.5394 85.43 44.0794 85.31 43.6094 85.55C43.1394 85.61 42.6694 85.7 42.1894 85.56C41.7094 85.84 41.2294 85.71 40.7394 85.56C40.2494 85.61 39.7594 85.41 39.2594 85.56C38.7594 85.52 38.2594 85.68 37.7594 85.56C37.2594 85.48 36.7594 85.4 36.2594 85.56C35.7594 85.74 35.2694 85.49 34.7794 85.56C34.2894 85.3 33.8094 85.64 33.3294 85.56C32.8494 85.59 32.3794 85.41 31.9094 85.55C31.4394 85.6 30.9794 85.65 30.5194 85.54C30.0594 85.94 29.6094 85.44 29.1594 85.52C28.7094 85.35 28.2694 85.55 27.8394 85.5C27.4094 85.57 26.9794 85.32 26.5594 85.48C26.1394 85.45 25.7294 85.61 25.3194 85.46C24.9094 85.66 24.5194 85.29 24.1294 85.43C23.7394 85.43 23.3594 85.44 22.9794 85.4C22.6094 85.09 22.2394 85.35 21.8794 85.37C21.5194 85.34 21.1694 85.55 20.8294 85.34C20.4894 85.31 20.1594 85.18 19.8394 85.3C19.5194 85.35 19.2094 84.85 18.9094 85.26C18.6094 85.33 18.3194 84.94 18.0394 85.22C17.7594 85.47 17.4894 85.19 17.2294 85.18C16.9694 85.16 16.7194 85.15 16.4794 85.14C14.3394 85.01 13.1094 84.85 13.1094 84.68C13.1094 84.49 14.6294 84.32 17.2194 84.18C17.4794 84.17 17.7494 83.95 18.0294 84.14C18.3094 84.14 18.5994 83.97 18.8994 84.1C19.1994 83.81 19.5094 84.05 19.8294 84.06C20.1494 84.05 20.4794 84.14 20.8194 84.02C21.1594 83.85 21.5094 84.1 21.8694 83.99C22.2294 84.17 22.5894 84.12 22.9694 83.96C23.3394 84.13 23.7294 83.92 24.1194 83.93C24.5094 84.2 24.9094 84.01 25.3094 83.9C25.7194 83.8 26.1294 83.94 26.5494 83.87C26.9694 83.92 27.3994 83.8 27.8294 83.85C28.2594 83.73 28.6994 83.68 29.1494 83.83C29.5994 83.75 30.0494 83.81 30.5094 83.81C30.9694 83.7 31.4294 83.82 31.8994 83.8C32.3694 83.74 32.8394 84.08 33.3194 83.79C33.7994 83.75 34.2794 83.84 34.7694 83.79C35.2594 83.83 35.7494 83.87 36.2494 83.79C36.7494 84.08 37.2494 83.9 37.7494 83.79C38.2494 83.71 38.7494 83.75 39.2494 83.79C39.7494 83.76 40.2394 83.78 40.7294 83.79C41.2194 83.7 41.6994 83.91 42.1794 83.79C42.6594 83.67 43.1294 83.92 43.5994 83.8C44.0694 83.72 44.5294 83.67 44.9894 83.81C45.4494 83.81 45.8994 84.07 46.3494 83.83C46.7994 83.77 47.2394 83.45 47.6694 83.85C48.0994 83.75 48.5294 84.04 48.9494 83.87C49.3694 84.16 49.7794 83.89 50.1894 83.9C50.5994 83.96 50.9894 84.06 51.3894 83.93C51.7794 83.79 52.1594 84.01 52.5394 83.96C52.9094 83.79 53.2794 84.18 53.6394 83.99C53.9994 84.03 54.3494 83.96 54.6894 84.02C55.0294 83.62 55.3594 84.02 55.6794 84.06C55.9994 84.12 56.3094 83.8 56.6094 84.1C56.9094 83.8 57.1994 84.06 57.4794 84.14C57.7594 84.23 58.0294 84.01 58.2894 84.18C58.5494 83.97 58.7994 84.3 59.0394 84.22C59.2794 84.36 59.4994 84.22 59.7194 84.27C59.9294 84.22 60.1394 84.24 60.3294 84.32C60.5194 84.34 60.6994 84.35 60.8694 84.37C61.8694 84.47 62.4094 84.57 62.4094 84.69L62.4194 84.68Z" fill="#0061EF"/>
</g>
<defs>
<clipPath id="clip0_926_16118">
<rect width="75.53" height="85.74" fill="white"/>
</clipPath>
</defs>
</svg>
