<svg width="77" height="85" viewBox="0 0 77 85" fill="none" xmlns="http://www.w3.org/2000/svg">
<g clip-path="url(#clip0_926_16129)">
<path d="M57.0354 22.7099C57.0654 22.6099 57.7554 22.7399 59.0054 23.0699C59.2154 23.1199 59.4354 23.1999 59.6754 23.2699C59.9154 23.3299 60.1754 23.3999 60.4354 23.5199C60.6354 23.7599 61.0754 23.4999 61.2654 23.8299C61.5154 24.0199 61.8454 24.0999 62.1654 24.2099C62.4854 24.3299 62.7454 24.5999 63.1254 24.6699C63.5854 24.6199 63.6254 25.2999 64.1354 25.2199C64.3254 25.2999 64.5054 25.3899 64.6754 25.4999C64.8454 25.6099 65.0154 25.7399 65.1854 25.8599C65.2454 25.9599 65.3154 26.0399 65.3954 26.1099C65.4754 26.1799 65.5654 26.2399 65.6654 26.2899C65.8554 26.3899 66.0754 26.4699 66.2654 26.5899C66.4654 27.0699 66.8954 27.2499 67.3554 27.4299C67.4254 27.7199 67.5554 27.9199 67.7454 28.0699C67.9254 28.2199 68.1654 28.3199 68.4654 28.3699C68.6554 28.5299 68.8054 28.7299 68.9754 28.9199C69.0554 29.0099 69.1454 29.0999 69.2454 29.1899C69.3354 29.2799 69.4454 29.3599 69.5554 29.4199C69.9354 29.7699 70.3254 30.1299 70.6254 30.5799C71.1354 30.8499 71.4854 31.2899 71.6554 31.8599C71.9254 32.0099 72.1154 32.2199 72.2654 32.4599C72.4154 32.6999 72.5354 32.9699 72.6354 33.2499C72.8354 33.7999 73.4254 34.1299 73.5554 34.7399C73.6854 34.9999 73.8454 35.2599 73.9954 35.5199C74.1354 35.7799 74.2754 36.0499 74.3854 36.3399C74.5454 36.9399 74.6854 37.5399 75.1154 38.0399C75.2654 38.3199 75.3954 38.6099 75.5054 38.8999C75.6254 39.1899 75.7054 39.4999 75.7354 39.8299C75.8454 39.9599 75.9354 40.0999 75.9954 40.2499C76.0554 40.3999 76.1054 40.5499 76.1454 40.7099C76.1754 40.8699 76.2054 41.0299 76.2154 41.1899C76.2154 41.3499 76.2254 41.5199 76.2254 41.6899C76.2654 41.8499 76.3054 41.9999 76.3254 42.1699C76.3554 42.3299 76.3654 42.4999 76.3754 42.6599C76.4154 42.9899 76.4654 43.3099 76.5754 43.6299C76.5954 43.9599 76.6854 44.2799 76.7254 44.6099C76.7754 44.9399 76.8254 45.2699 76.7854 45.6099C76.7554 46.2899 76.6954 46.9399 76.8454 47.5999C76.9154 47.9299 76.8854 48.2599 76.8454 48.5899C76.7954 48.9199 76.7654 49.2399 76.7554 49.5599C76.5954 49.8699 76.5854 50.1899 76.5954 50.5199C76.5954 50.6799 76.6054 50.8399 76.5954 50.9999C76.5954 51.1599 76.5654 51.3199 76.5154 51.4699C76.4754 51.7899 76.3854 52.0899 76.3054 52.3999C76.2654 52.5499 76.2354 52.7099 76.2054 52.8599C76.1754 53.0099 76.1454 53.1699 76.1454 53.3299C76.0354 53.9399 75.9554 54.5699 75.6554 55.1099C75.7454 55.4599 75.6254 55.7399 75.4854 56.0099L75.3654 56.2099C75.3254 56.2699 75.2854 56.3399 75.2354 56.3999C75.1554 56.5299 75.0854 56.6599 75.0554 56.8099C74.8754 57.0599 74.7754 57.3299 74.6854 57.6099C74.6454 57.7499 74.5954 57.8899 74.5454 58.0199C74.4954 58.1499 74.4354 58.2899 74.3654 58.4099C74.2754 58.6799 74.1154 58.9299 73.9654 59.1699L73.8554 59.3499C73.8154 59.4099 73.7754 59.4699 73.7454 59.5299C73.6754 59.6499 73.6254 59.7799 73.5854 59.9199C73.2854 60.3899 73.1654 60.9599 72.7354 61.3299C72.6754 61.6099 72.4954 61.8099 72.3154 62.0099C72.2254 62.1099 72.1354 62.2099 72.0554 62.3099C71.9654 62.4099 71.8954 62.5199 71.8454 62.6399C71.6954 62.8499 71.5454 63.0499 71.3954 63.2599C71.2454 63.4599 71.0954 63.6599 70.9154 63.8399C70.3654 64.0299 70.2454 64.5599 69.9554 64.9299C69.6054 65.2499 69.4354 65.7199 68.9754 65.8999C68.8954 65.9799 68.8054 66.0499 68.7254 66.1199C68.6354 66.1799 68.5454 66.2499 68.4554 66.3099C68.2854 66.4399 68.1254 66.5799 68.0054 66.7699C67.8654 66.9299 67.6354 66.9899 67.4454 67.0799C67.2554 67.1699 67.0754 67.2699 67.0554 67.5499C66.7854 67.8599 66.2654 67.7999 66.1354 68.2399C65.9754 68.6499 65.5254 68.6399 65.2454 68.8199C64.9554 69.0099 64.6854 69.1899 64.4154 69.3299C63.2054 70.0399 62.1854 70.4399 61.4954 70.7199C60.8054 70.9999 60.4154 71.1099 60.3854 71.0399C60.3454 70.9599 60.7454 70.6599 61.5054 70.1699C61.8854 69.9299 62.3654 69.6399 62.9154 69.2999C63.1854 69.1199 63.4654 68.9199 63.7654 68.7099C63.9154 68.6099 64.0754 68.4999 64.2354 68.3899C64.3854 68.2699 64.5454 68.1499 64.7054 68.0199C64.9654 67.8199 65.1254 67.4599 65.5154 67.3999C65.7954 67.1799 65.9754 66.8199 66.3454 66.6799C66.4054 66.4499 66.5454 66.3299 66.7154 66.2199C66.8754 66.1099 67.0554 66.0199 67.2154 65.8799C67.3554 65.7399 67.5254 65.6099 67.6754 65.4799C67.7554 65.4099 67.8354 65.3399 67.9054 65.2699C67.9754 65.1899 68.0354 65.0999 68.0954 65.0099C68.2754 64.5899 68.7454 64.4399 68.9754 64.0399C69.3854 63.8099 69.6554 63.4199 69.8354 62.9699C70.0554 62.8499 70.1854 62.6399 70.3054 62.4299C70.4254 62.2199 70.5254 61.9999 70.6754 61.7999C70.7954 61.7399 70.9054 61.6599 70.9854 61.5699C71.0754 61.4799 71.1354 61.3699 71.1954 61.2599C71.3054 61.0299 71.3854 60.7799 71.4754 60.5399C71.6854 60.0699 72.0254 59.6799 72.2354 59.1899C72.3054 59.0799 72.3754 58.9699 72.4354 58.8499L72.5254 58.6699C72.5554 58.6099 72.5754 58.5499 72.6054 58.4799C72.7054 58.2299 72.8054 57.9799 72.9354 57.7499C72.9654 57.6099 73.0054 57.4799 73.0454 57.3499L73.1754 56.9599C73.2654 56.6999 73.3854 56.4599 73.5554 56.2199C73.5854 56.0799 73.6254 55.9499 73.6754 55.8199L73.7454 55.6199L73.8154 55.4199C73.9054 55.1499 74.0054 54.8899 74.0954 54.6199C74.1854 54.0499 74.4054 53.5199 74.5254 52.9399C74.5454 52.7999 74.5954 52.6599 74.6454 52.5199C74.6954 52.3799 74.7354 52.2399 74.7854 52.0999C74.8754 51.8199 74.9354 51.5199 74.8454 51.2099C74.8554 51.0599 74.8854 50.9099 74.9054 50.7699C74.9254 50.6199 74.9454 50.4699 74.9654 50.3199C75.0054 50.0199 75.0454 49.7199 75.0454 49.4199C75.1054 49.1199 75.1154 48.8099 75.1354 48.5099C75.1454 48.1999 75.1454 47.8999 75.1254 47.5899C75.4054 46.9699 75.2154 46.3399 75.0654 45.7199C74.9454 45.0999 74.9154 44.4799 74.8654 43.8599C74.8054 43.5599 74.7554 43.2499 74.6954 42.9499C74.6654 42.7999 74.6454 42.6499 74.6154 42.4999C74.5854 42.3499 74.5554 42.1999 74.5254 42.0499C74.4754 41.9099 74.4354 41.7599 74.4054 41.6099C74.3754 41.4599 74.3454 41.3099 74.3254 41.1699C74.2954 41.0199 74.2754 40.8699 74.2354 40.7299C74.1954 40.5899 74.1454 40.4399 74.0754 40.3099C73.9354 40.0399 73.8754 39.7499 73.8054 39.4599C73.7354 39.1699 73.6754 38.8799 73.5154 38.6299C73.2354 38.1099 72.9654 37.6099 72.8554 37.0299C72.7354 36.7699 72.6654 36.4899 72.5654 36.2199C72.4654 35.9599 72.3354 35.6999 72.0954 35.5199C71.7754 35.0599 71.2354 34.7599 71.2654 34.0999C71.0854 33.8899 70.9654 33.6499 70.8454 33.4099C70.7254 33.1699 70.5954 32.9299 70.3754 32.7699C70.2954 32.1799 69.7454 31.9399 69.4354 31.5399C69.1454 31.1199 68.8854 30.6799 68.4554 30.4099C68.3454 30.3399 68.2554 30.2599 68.1754 30.1799C68.0954 30.0999 68.0154 29.9999 67.9354 29.9099C67.7854 29.7199 67.6454 29.5199 67.4654 29.3799C67.2354 29.2799 67.1054 29.0899 66.9654 28.8899C66.8254 28.6999 66.6854 28.5199 66.4554 28.4399C66.1454 28.1199 65.7554 27.8999 65.4554 27.5899C65.1654 27.6099 65.0054 27.4899 64.8654 27.3299C64.7954 27.2499 64.7354 27.1599 64.6754 27.0699C64.6154 26.9799 64.5454 26.8999 64.4654 26.8399C64.3154 26.6999 64.1154 26.6499 63.9354 26.5599C63.7554 26.4799 63.5854 26.3899 63.5054 26.1699C63.0354 26.2099 62.8454 25.8199 62.5754 25.5799C62.3054 25.3299 61.9054 25.3599 61.6854 25.0699C61.3054 25.0999 61.1554 24.6899 60.8554 24.6199C60.6454 24.3699 60.3154 24.3799 60.0854 24.2399C59.8154 24.1699 59.5854 24.0699 59.3854 23.9199C59.1654 23.8199 58.9654 23.7199 58.7654 23.6399C57.5954 23.1399 56.9554 22.8099 56.9854 22.7099H57.0354Z" fill="#0061EF"/>
<path d="M56.8503 27.17C56.8503 27.17 57.0203 27.12 57.2803 27.15C57.5503 27.18 57.9303 27.24 58.4503 27.37C58.5403 27.4 58.6403 27.42 58.7303 27.45C58.8203 27.49 58.9003 27.52 58.9903 27.56C59.1803 27.63 59.3803 27.69 59.5703 27.81C59.7003 28.04 60.1003 27.79 60.2103 28.1C60.3903 28.28 60.6403 28.36 60.8903 28.47C61.0203 28.52 61.1303 28.61 61.2403 28.69C61.3503 28.77 61.4703 28.85 61.6303 28.88C62.0203 28.83 61.9403 29.47 62.4003 29.37C62.5503 29.43 62.6903 29.51 62.8203 29.61C62.9503 29.71 63.0703 29.82 63.1903 29.94C63.3203 30.31 63.7203 30.37 64.0103 30.57C64.1003 31 64.4403 31.16 64.8303 31.3C64.8703 31.79 65.1503 32.03 65.6603 32.1C65.9303 32.38 66.1203 32.75 66.4803 32.98C66.7503 33.29 67.0703 33.57 67.2803 33.95C67.7103 34.16 67.9603 34.53 68.0503 35.01C68.5003 35.24 68.6403 35.7 68.7703 36.15C68.8003 36.27 68.8503 36.37 68.9203 36.46C68.9803 36.56 69.0603 36.65 69.1303 36.74C69.2803 36.93 69.4203 37.12 69.4403 37.37C69.4903 37.48 69.5403 37.58 69.6003 37.68C69.6603 37.78 69.7203 37.89 69.7603 38C69.8603 38.21 69.9603 38.43 70.0403 38.66C70.0903 38.9 70.1303 39.14 70.2103 39.38C70.2803 39.61 70.3803 39.84 70.5703 40.03C70.6803 40.26 70.7903 40.48 70.8803 40.72C70.9603 40.96 71.0103 41.21 71.0103 41.47C71.2003 41.68 71.3003 41.92 71.3503 42.17C71.3803 42.3 71.3803 42.43 71.3803 42.56C71.3803 42.69 71.3703 42.83 71.3603 42.96C71.5003 43.46 71.4203 44 71.6103 44.5C71.6203 45.03 71.8603 45.54 71.7503 46.08C71.7203 46.35 71.6903 46.61 71.6903 46.88C71.6903 47.01 71.6903 47.14 71.7103 47.27C71.7103 47.4 71.7403 47.53 71.7703 47.66C71.8503 47.92 71.8203 48.19 71.7703 48.45C71.7503 48.58 71.7303 48.71 71.7103 48.84C71.6903 48.97 71.6703 49.1 71.6703 49.23C71.5203 49.47 71.5103 49.73 71.5203 49.99C71.5203 50.25 71.5703 50.51 71.4703 50.75C71.4403 51 71.3603 51.24 71.2903 51.48C71.2603 51.6 71.2303 51.72 71.2103 51.84C71.1903 51.96 71.1803 52.09 71.1803 52.21C71.1003 52.7 71.0303 53.19 70.8003 53.63C71.0103 54.2 70.4003 54.52 70.3303 54.98C70.0103 55.36 70.0003 55.85 69.7903 56.26C69.7403 56.49 69.5903 56.67 69.4603 56.86C69.3303 57.05 69.2103 57.24 69.1803 57.47C68.9703 57.86 68.8603 58.3 68.5303 58.6C68.5003 58.83 68.3603 59 68.2203 59.15C68.0603 59.3 67.9003 59.44 67.8403 59.65C67.7203 59.82 67.6103 59.99 67.5003 60.15C67.4403 60.23 67.3803 60.31 67.3203 60.39C67.2603 60.46 67.1903 60.54 67.1203 60.61C66.6403 60.74 66.6003 61.19 66.3803 61.49C66.1103 61.75 66.0103 62.15 65.6303 62.28C65.5003 62.4 65.3603 62.51 65.2303 62.62C65.0903 62.73 64.9703 62.84 64.8903 63C64.6803 63.27 64.1303 63.14 64.1603 63.65C63.9603 63.91 63.4903 63.82 63.4403 64.21C63.3703 64.58 62.9903 64.57 62.7603 64.71C62.5303 64.86 62.3203 65 62.1103 65.13C61.9903 65.2 61.8803 65.28 61.7703 65.35C61.6603 65.42 61.5403 65.48 61.4403 65.54C61.2203 65.66 61.0203 65.77 60.8303 65.87C60.6403 65.97 60.4703 66.07 60.3003 66.14C60.1303 66.21 59.9803 66.27 59.8403 66.33C59.2903 66.55 58.9803 66.63 58.9403 66.56C58.9003 66.48 59.2003 66.22 59.7803 65.82C60.0803 65.63 60.4203 65.35 60.8303 65.05C61.2503 64.76 61.6803 64.37 62.1903 63.97C62.4003 63.81 62.4603 63.47 62.7903 63.43C63.0003 63.25 63.1203 62.95 63.4303 62.84C63.4603 62.43 63.8303 62.38 64.0703 62.17C64.1803 62.05 64.3103 61.96 64.4303 61.85C64.5503 61.74 64.6503 61.61 64.7203 61.45C64.8203 61.09 65.2403 61 65.3803 60.66C65.7303 60.49 65.9203 60.17 66.0203 59.79C66.1103 59.74 66.1803 59.68 66.2403 59.61C66.3003 59.54 66.3403 59.45 66.3803 59.37C66.4603 59.2 66.5303 59.01 66.6403 58.86C66.8503 58.77 66.9803 58.62 67.0703 58.44C67.1503 58.26 67.1903 58.05 67.2403 57.85C67.3603 57.46 67.6903 57.18 67.8103 56.78C67.9203 56.61 68.0003 56.41 68.0803 56.22C68.1603 56.02 68.2403 55.83 68.3403 55.64C68.3903 55.2 68.5203 54.79 68.8103 54.44C68.8703 54 69.0703 53.6 69.2103 53.18C69.2303 52.72 69.4503 52.31 69.5403 51.86C69.5603 51.75 69.5903 51.64 69.6303 51.53C69.6703 51.42 69.7103 51.31 69.7503 51.2C69.8303 50.98 69.8803 50.75 69.7903 50.5C69.8203 50.27 69.8503 50.04 69.8903 49.8C69.9203 49.57 69.9603 49.33 69.9603 49.09C69.9803 48.97 70.0103 48.85 70.0203 48.74C70.0303 48.62 70.0403 48.5 70.0503 48.38C70.0603 48.14 70.0603 47.9 70.0303 47.65C70.1003 47.53 70.1503 47.41 70.1703 47.29C70.1903 47.17 70.1803 47.04 70.1703 46.92C70.1403 46.67 70.0603 46.43 70.0003 46.19C69.9203 45.7 69.8803 45.22 69.8803 44.73C69.8103 44.25 69.7303 43.78 69.6603 43.31C69.6203 43.2 69.5903 43.08 69.5803 42.96C69.5703 42.84 69.5603 42.72 69.5403 42.61C69.5103 42.38 69.4703 42.14 69.3503 41.93C69.2303 41.72 69.2103 41.49 69.1803 41.25C69.1303 41.02 69.0903 40.79 68.9603 40.59C68.8503 40.39 68.7503 40.18 68.6703 39.97C68.5803 39.76 68.5103 39.55 68.4903 39.32C68.4003 39.11 68.3703 38.88 68.3203 38.66C68.3003 38.55 68.2603 38.45 68.2003 38.35C68.1403 38.26 68.0703 38.17 67.9603 38.1C67.8403 37.92 67.6603 37.77 67.5303 37.59C67.4703 37.5 67.4203 37.41 67.3903 37.31C67.3603 37.21 67.3503 37.09 67.3803 36.95C67.2303 36.79 67.1603 36.59 67.0903 36.39C67.0103 36.19 66.9403 35.99 66.7503 35.87C66.7503 35.38 66.2903 35.19 66.0703 34.86C65.8703 34.51 65.6903 34.15 65.3603 33.93C65.0303 33.71 64.9103 33.31 64.6303 33.07C64.2703 32.91 64.2903 32.38 63.9003 32.27C63.6703 32 63.3803 31.81 63.1703 31.54C62.6703 31.61 62.6603 31.12 62.4403 30.89C62.3303 30.77 62.1703 30.72 62.0403 30.65C61.9003 30.58 61.7703 30.5 61.7303 30.3C61.3203 30.36 61.2303 30 61.0403 29.77C60.9503 29.65 60.8203 29.6 60.6903 29.55C60.5603 29.5 60.4503 29.44 60.3803 29.3C60.0603 29.34 60.0103 28.94 59.7703 28.88C59.6303 28.64 59.3603 28.66 59.1903 28.53C58.9803 28.47 58.8103 28.37 58.6703 28.21C58.5903 28.16 58.5103 28.11 58.4303 28.06C58.3503 28.02 58.2903 27.99 58.2203 27.95C57.7803 27.75 57.4103 27.59 57.1703 27.46C56.9303 27.33 56.8103 27.23 56.8303 27.18L56.8503 27.17Z" fill="#0061EF"/>
<path d="M37.7606 16.9099C37.8606 16.9399 37.7606 17.6999 37.4906 19.0599C37.4506 19.2899 37.3906 19.5299 37.3406 19.7899C37.3006 20.0499 37.2506 20.3299 37.1706 20.6199C36.9606 20.8699 37.2606 21.2799 36.9706 21.5399C36.8206 21.8399 36.7906 22.1899 36.7406 22.5499C36.6906 22.9099 36.4606 23.2399 36.4906 23.6499C36.6506 24.0999 35.9906 24.3399 36.2106 24.8299C36.1706 25.2599 36.0406 25.6699 35.9106 26.0899C35.5906 26.4699 35.6706 26.9699 35.5906 27.4299C35.2306 27.8199 35.2106 28.3199 35.2506 28.8399C34.7906 29.2299 34.7106 29.7399 34.8806 30.3199C34.8206 30.5699 34.7206 30.8199 34.6406 31.0699C34.6006 31.1999 34.5606 31.3299 34.5406 31.4599C34.5306 31.5299 34.5206 31.5899 34.5106 31.6599C34.5106 31.6899 34.5106 31.7299 34.5106 31.7599V31.7799V31.8099C34.5106 31.8899 34.5006 31.9499 34.5106 32.0099C34.5106 32.0299 34.5106 32.0399 34.5106 32.0599V32.0799C34.5106 32.0799 34.5106 32.0899 34.5206 32.0899C34.5506 32.0899 34.5806 32.0999 34.6006 32.1199C34.6806 32.0599 34.7206 32.0199 34.7506 31.9899L34.7806 31.9599H34.8406H34.9506C35.2406 31.9599 35.5306 32.0099 35.8206 32.0999C36.4006 31.8499 37.0006 31.9499 37.6006 32.0799C38.2006 32.2199 38.8206 31.8599 39.4406 32.0599C40.0606 32.0699 40.6906 31.9999 41.3306 32.0399C41.9706 32.1399 42.6106 32.2499 43.2706 32.0299C43.9206 31.9699 44.5806 31.8899 45.2506 32.0199C45.9206 31.7599 46.5906 31.8699 47.2706 32.0199C47.6106 31.9999 47.9506 32.0299 48.2906 32.0599C48.4606 32.0699 48.6306 32.0799 48.8006 32.0799C48.8906 32.0799 48.9706 32.0799 49.0606 32.0599C49.1506 32.0599 49.2306 32.0399 49.3106 32.0099C49.6206 32.0099 49.9306 31.9899 50.2306 31.8999C50.3806 31.8599 50.5306 31.8399 50.6906 31.8099C50.8406 31.7699 50.9906 31.7499 51.1506 31.7299C51.3106 31.7199 51.4606 31.6799 51.6106 31.6399C51.7606 31.5999 51.9206 31.5599 52.0606 31.4999C52.3406 31.3699 52.6306 31.2299 52.8506 30.9899C52.9606 30.8699 53.0906 30.7899 53.2106 30.6999C53.3306 30.6099 53.4606 30.5199 53.5906 30.4399C53.7306 30.3699 53.8406 30.2699 53.9706 30.1799C54.0906 30.0799 54.2106 29.9899 54.3006 29.8699C54.5906 29.7299 54.8006 29.4899 54.9406 29.2199C55.0106 29.0899 55.0906 28.9499 55.1606 28.8199C55.2306 28.6799 55.3006 28.5499 55.4006 28.4399C55.4406 28.3699 55.4806 28.3099 55.5106 28.2499C55.5406 28.1799 55.5806 28.1199 55.6206 28.0499C55.7006 27.9199 55.7706 27.7899 55.8506 27.6599C55.9106 27.5199 55.9706 27.3899 56.0206 27.2499C56.0406 27.1799 56.0606 27.1099 56.0806 27.0399C56.1006 26.9699 56.1006 26.8899 56.1006 26.8199C56.1306 26.6799 56.1506 26.5299 56.1806 26.3899C56.2106 26.2499 56.2106 26.0999 56.2306 25.9599C56.2506 25.8199 56.2806 25.6799 56.3006 25.5299C56.3206 25.3899 56.3406 25.2499 56.3706 25.0999C56.3306 25.0299 56.3006 24.9599 56.2806 24.8899C56.2606 24.8199 56.2406 24.7499 56.2306 24.6799C56.2106 24.5399 56.2306 24.3999 56.2506 24.2599L56.2706 24.1499V24.0399C56.2906 23.9699 56.2906 23.8999 56.2906 23.8299C56.2906 23.6899 56.2906 23.5499 56.2506 23.4099C56.2506 23.2699 56.2406 23.1299 56.2106 22.9899C56.1806 22.8499 56.1506 22.7199 56.0806 22.5899C55.9606 22.3399 55.8506 22.0899 55.7406 21.8399C55.6606 21.7299 55.6106 21.5999 55.5606 21.4799C55.5006 21.3599 55.4506 21.2299 55.3906 21.1099C55.3306 20.9899 55.2806 20.8599 55.2006 20.7499C55.1206 20.6399 55.0306 20.5399 54.9206 20.4599C54.8806 20.3999 54.8406 20.3499 54.8006 20.2999C54.7606 20.2499 54.7106 20.2099 54.6606 20.1599C54.5706 20.0699 54.4706 19.9799 54.3806 19.8899C54.2906 19.7999 54.1906 19.7199 54.1006 19.6299C54.0106 19.5399 53.9306 19.4399 53.8506 19.3199C53.5906 19.2299 53.4106 19.0599 53.2406 18.8699C53.0506 18.6999 52.8606 18.5199 52.6106 18.4599C52.3906 18.3599 52.1706 18.2399 51.9506 18.1499C51.7206 18.0699 51.5006 17.9699 51.2806 17.8799C51.0906 17.6799 50.8606 17.5999 50.6206 17.5799C50.3806 17.5799 50.1406 17.5999 49.9106 17.5799C49.6806 17.5499 49.4606 17.5799 49.2306 17.5899C48.9906 17.6099 48.7506 17.6099 48.5206 17.5099C48.0506 17.4899 47.5906 17.3599 47.1406 17.4799C46.6906 17.5199 46.2606 17.0499 45.8406 17.4399C45.4206 17.5099 45.0106 17.1399 44.6206 17.3999C44.2306 17.6399 43.8506 17.3699 43.4906 17.3599C43.1306 17.3499 42.7806 17.3299 42.4506 17.3199C39.4706 17.1899 37.7706 17.0399 37.7706 16.8799C37.7706 16.6999 39.8806 16.5399 43.4906 16.3999C43.8506 16.3899 44.2306 16.1799 44.6206 16.3599C45.0106 16.3599 45.4206 16.1999 45.8406 16.3199C46.2606 16.0499 46.6906 16.2699 47.1406 16.2799C47.5906 16.2699 48.0506 16.3499 48.5206 16.2399C48.7606 16.1599 48.9906 16.1799 49.2406 16.2099C49.5006 16.2499 49.7606 16.2899 50.0406 16.2499C50.3006 16.3599 50.5606 16.4399 50.8306 16.4699C51.1006 16.5099 51.3806 16.5399 51.6706 16.5399C51.9206 16.6999 52.1806 16.7999 52.4606 16.8699C52.7406 16.9499 53.0206 17.0499 53.2806 17.1799C53.4806 17.4299 53.7106 17.6099 53.9806 17.7399C54.2306 17.8999 54.5206 18.0199 54.7906 18.1699C54.9206 18.2499 55.0406 18.3499 55.1606 18.4599C55.2806 18.5699 55.3906 18.6699 55.4906 18.7899C55.5906 18.9099 55.6906 19.0299 55.8006 19.1499C55.8506 19.2099 55.9106 19.2699 55.9606 19.3299C56.0106 19.3899 56.0606 19.4499 56.1206 19.5099C56.2106 19.6399 56.3006 19.7699 56.4006 19.8999C56.5006 20.0299 56.5806 20.1699 56.6806 20.2999C56.7706 20.4399 56.8706 20.5699 56.9506 20.7099C57.0306 20.8599 57.1006 21.0099 57.1606 21.1599C57.3706 21.4299 57.5106 21.7399 57.6406 22.0499C57.7106 22.2099 57.7406 22.3799 57.7706 22.5499C57.8006 22.7199 57.8206 22.8899 57.8206 23.0699C57.8706 23.2299 57.9106 23.3999 57.9406 23.5699L57.9806 23.8299L58.0006 23.9599V24.0899C58.0006 24.2699 58.0106 24.4399 58.0206 24.6099C58.0206 24.6999 58.0206 24.7899 58.0206 24.8699L58.0006 25.1299C58.0206 25.3099 58.0206 25.4799 58.0106 25.6599C58.0106 25.8399 57.9606 26.0099 57.9306 26.1899C57.8906 26.3699 57.8706 26.5399 57.8206 26.7199C57.7706 26.8899 57.7206 27.0699 57.6806 27.2399C57.6606 27.3299 57.6406 27.4199 57.6106 27.4999C57.5806 27.5799 57.5406 27.6699 57.5006 27.7499C57.4206 27.9099 57.3306 28.0699 57.2506 28.2399C57.1606 28.3999 57.0706 28.5499 57.0006 28.7199C56.9606 28.7999 56.9306 28.8899 56.9106 28.9799C56.8906 29.0699 56.8606 29.1599 56.8406 29.2599C56.7506 29.4199 56.6606 29.5799 56.5606 29.7399C56.4606 29.8999 56.3406 30.0399 56.2206 30.1799C56.0006 30.4799 55.7306 30.7399 55.5006 31.0399C54.9406 31.5399 54.3406 31.9999 53.7206 32.4399C53.3306 32.5299 52.9706 32.6499 52.6406 32.8399C52.4706 32.9299 52.3006 33.0099 52.1306 33.0999C51.9606 33.1899 51.7906 33.2899 51.6006 33.3599C51.4206 33.4299 51.2306 33.4899 51.0406 33.5399C50.8506 33.5899 50.6606 33.6099 50.4706 33.6399C50.0906 33.7099 49.7006 33.6899 49.3106 33.6899C49.2106 33.6899 49.1306 33.6999 49.0406 33.6999H48.7806C48.6106 33.6999 48.4406 33.6999 48.2706 33.6999C47.9306 33.6999 47.5906 33.6899 47.2506 33.6799C46.5706 33.7599 45.9006 33.5599 45.2306 33.6799C44.5606 33.7999 43.9006 33.5499 43.2506 33.6699C42.6006 33.7499 41.9506 33.7899 41.3106 33.6599C40.6706 33.6599 40.0406 33.4099 39.4206 33.6399C38.8006 33.6899 38.1906 33.9999 37.5806 33.6199C36.9806 33.7199 36.3806 33.4299 35.8006 33.5999C35.5106 33.4599 35.2206 33.4599 34.9306 33.4899H34.8206L34.7606 33.5099H34.6706C34.5506 33.5099 34.4406 33.5099 34.3206 33.5199C34.0806 33.5199 33.8406 33.5199 33.6106 33.5199C33.3906 33.4899 33.1706 33.4699 32.9606 33.4399H32.9206H32.9006H32.8906V33.4299V33.3399L32.9006 33.1699C32.9006 33.0599 32.9106 32.9399 32.9206 32.8299V32.6599C32.9206 32.5999 32.9406 32.5499 32.9506 32.4999C32.9706 32.3899 32.9906 32.2899 33.0106 32.1799C33.0406 31.9699 33.0606 31.7499 33.0706 31.5299V31.4499V31.3799C33.0706 31.3499 33.0706 31.3099 33.0806 31.2799C33.0806 31.2099 33.1006 31.1499 33.1206 31.0799C33.1606 30.9499 33.2006 30.8199 33.2506 30.6999C33.3506 30.4499 33.4506 30.2099 33.5006 29.9499C33.4806 29.3999 33.9706 29.0099 33.9206 28.4799C34.0806 28.0099 34.1506 27.5199 34.3306 27.0799C34.0906 26.5299 34.5706 26.1799 34.7206 25.7599C34.8906 25.3399 34.7106 24.8499 35.0906 24.5199C34.9206 24.0399 35.2706 23.7099 35.4406 23.3599C35.6206 22.9999 35.5206 22.5899 35.7706 22.2799C35.6706 21.8799 36.0606 21.6199 36.0806 21.2899C36.2906 21.0099 36.2506 20.6699 36.3706 20.3899C36.4006 20.0899 36.4906 19.8199 36.6306 19.5799C36.7106 19.3299 36.7906 19.0899 36.8706 18.8699C37.3206 17.5499 37.6106 16.8499 37.7206 16.8799L37.7606 16.9099Z" fill="#0061EF"/>
<path d="M48.3553 22.9401C48.3553 22.8901 48.4053 22.8401 48.5053 22.7901C48.5553 22.7701 48.6153 22.7401 48.6953 22.7301C48.7753 22.7201 48.8553 22.7101 48.9653 22.7001C49.0353 22.7001 49.1053 22.7001 49.1853 22.7001C49.2653 22.6901 49.3553 22.6901 49.4353 22.7301C49.4653 22.8901 49.7053 22.5501 49.7053 22.7901C49.7653 22.8901 49.8853 22.8701 49.9953 22.8901C50.1153 22.9101 50.1353 23.0701 50.3053 23.0401C50.4353 22.9701 50.4353 23.0701 50.4453 23.1501C50.4453 23.2401 50.4453 23.3201 50.6153 23.2401C50.7653 23.2701 50.8453 23.3901 50.9253 23.5001C50.8553 23.7301 51.0953 23.7201 51.2153 23.8201C51.0853 24.0801 51.2453 24.1301 51.4653 24.2001C51.2253 24.4901 51.3153 24.5801 51.6753 24.6401C51.7053 24.7201 51.6953 24.8101 51.7053 24.8901C51.7053 24.9701 51.7353 25.0501 51.8253 25.1301C51.8453 25.2101 51.8853 25.3001 51.9053 25.3901C51.9253 25.4801 51.9253 25.5701 51.9053 25.6601C52.0253 25.7501 52.0653 25.8501 52.0653 25.9501C52.0653 26.0001 52.0453 26.0501 52.0253 26.0901C51.9953 26.1401 51.9453 26.1801 51.8953 26.2201C52.1153 26.4501 51.9653 26.6501 51.7853 26.7901C51.6853 26.8601 51.7053 26.9701 51.7153 27.0801C51.7153 27.1901 51.7153 27.3101 51.5753 27.3501C51.4653 27.5201 51.4153 27.7401 51.2553 27.8801C51.1553 27.9401 51.0453 27.9801 50.9653 28.0501C50.8853 28.1201 50.8353 28.2101 50.8353 28.3701C50.7753 28.4601 50.7153 28.5701 50.6353 28.6401C50.5553 28.7201 50.4553 28.7801 50.3253 28.7801C50.2753 29.1201 49.9853 29.1401 49.7253 29.0901C49.6253 29.1501 49.5053 29.1601 49.3953 29.1701C49.2753 29.1701 49.1753 29.2001 49.0653 29.2901C48.9453 29.2901 48.8353 29.3401 48.7253 29.3701C48.6053 29.4001 48.4853 29.4101 48.3753 29.3701C48.2553 29.3301 48.1453 29.2801 48.0353 29.2701C47.9253 29.2501 47.8153 29.2501 47.6853 29.3101C47.5553 29.3701 47.4453 29.3201 47.3353 29.2601C47.2353 29.2001 47.1453 29.1201 47.0253 29.1101C46.9653 28.9601 46.8653 28.9201 46.7453 28.9101C46.6253 28.9101 46.5053 28.8901 46.4253 28.7901C46.3253 28.7401 46.2553 28.6401 46.1853 28.5601C46.1053 28.4801 46.0353 28.4001 45.9153 28.3801C45.8153 28.3201 45.7253 28.2601 45.6553 28.1801C45.5753 28.1001 45.5153 28.0101 45.4953 27.8901C45.2853 27.9201 45.2353 27.8101 45.2253 27.6901C45.2253 27.5601 45.2553 27.4301 45.1753 27.3601C45.2053 27.2301 45.1553 27.1501 45.0953 27.0601C45.0453 26.9701 44.9753 26.8901 44.9553 26.7901C44.8953 26.7101 44.9153 26.6001 44.9253 26.4901C44.9253 26.3901 44.9453 26.2901 44.8553 26.2101C44.8553 26.1601 44.8553 26.1201 44.8353 26.0701C44.8253 26.0201 44.8153 25.9801 44.7953 25.9301C44.7753 25.8401 44.7653 25.7401 44.8453 25.6501C44.7553 25.5601 44.7953 25.4601 44.8453 25.3801C44.8953 25.3001 44.9653 25.2201 44.9153 25.1201C44.9253 25.0301 44.9453 24.9501 44.9653 24.8701C44.9953 24.7901 45.0153 24.7001 45.0653 24.6301C45.2353 24.6001 45.2653 24.5301 45.2753 24.4501C45.2753 24.3701 45.2553 24.2701 45.2753 24.1901C45.3653 24.0701 45.2753 23.8301 45.5253 23.8101C45.6353 23.7001 45.8153 23.6701 45.8153 23.4901C45.8453 23.4201 45.9753 23.4401 46.0653 23.4401C46.1553 23.4401 46.2153 23.4201 46.1253 23.2301C46.1453 23.1601 46.2453 23.1701 46.3253 23.1801C46.4053 23.1801 46.4653 23.1801 46.4353 23.0301C46.3953 22.7501 46.6453 22.9201 46.7453 22.8801C46.8453 22.8301 46.9453 22.8101 47.0353 22.7701C47.4653 22.6501 47.8153 22.6601 48.0353 22.7001C48.2653 22.7601 48.3753 22.8301 48.3753 22.9101C48.3753 23.0001 48.2353 23.0801 48.0253 23.1901C47.8153 23.3001 47.5153 23.4401 47.2153 23.7001C47.1553 23.7601 47.2053 23.9601 47.0353 23.8601C46.9653 23.9101 47.0053 24.0801 46.8653 24.0501C46.9853 24.3001 46.7853 24.2001 46.7053 24.2601C46.6553 24.3301 46.5353 24.3601 46.5653 24.5001C46.6553 24.6601 46.3953 24.6201 46.4553 24.7701C46.2553 24.7801 46.2553 24.9101 46.3753 25.0601C46.2753 25.0801 46.2753 25.1401 46.2953 25.2001C46.3053 25.2601 46.3453 25.3201 46.3353 25.3701C46.2053 25.4001 46.1753 25.4601 46.1953 25.5101C46.2153 25.5701 46.2853 25.6301 46.3353 25.6801C46.3753 25.7301 46.3753 25.7901 46.3653 25.8401C46.3653 25.8701 46.3553 25.9001 46.3553 25.9201C46.3553 25.9501 46.3653 25.9701 46.3853 26.0001C46.3453 26.1201 46.4853 26.2001 46.4753 26.3201C46.5553 26.3501 46.6053 26.3901 46.6353 26.4401C46.6653 26.4901 46.6653 26.5401 46.6253 26.6301C46.7453 26.6901 46.7453 26.8201 46.8253 26.9101C46.8953 26.9301 46.9353 26.9701 46.9653 27.0201C46.9953 27.0701 47.0153 27.1301 47.0753 27.1601C47.1353 27.1801 47.1353 27.2701 47.1653 27.3401C47.1953 27.4001 47.2353 27.4601 47.3653 27.3701C47.4853 27.4001 47.5553 27.5301 47.6853 27.5301C47.7853 27.6101 47.8953 27.6801 48.0353 27.6301C48.0753 27.7701 48.1353 27.8101 48.2053 27.8001C48.2753 27.7801 48.3453 27.7101 48.4053 27.6701C48.4653 27.6301 48.5253 27.6101 48.5853 27.6201C48.6453 27.6201 48.7053 27.6201 48.7753 27.6401C48.8853 27.5901 49.0053 27.5701 49.1253 27.5401C49.1953 27.4201 49.3953 27.5401 49.4453 27.3801C49.4653 27.3001 49.5253 27.2901 49.5953 27.2801C49.6653 27.2801 49.7253 27.2501 49.7353 27.1701C49.7553 27.1001 49.7653 27.0401 49.8053 27.0001C49.8453 26.9601 49.8953 26.9301 49.9753 26.9301C50.0053 26.8801 50.0953 26.8701 50.1553 26.8401C50.2153 26.8101 50.2553 26.7601 50.1753 26.6501C50.1753 26.5901 50.1153 26.5001 50.1053 26.4401C50.0853 26.3801 50.1253 26.3401 50.3253 26.3501C50.2953 26.2801 50.3453 26.2401 50.4053 26.2001C50.4653 26.1601 50.4853 26.1001 50.4153 26.0401C50.4853 26.0201 50.5253 26.0001 50.5453 25.9701C50.5653 25.9401 50.5553 25.9101 50.5453 25.8801C50.5153 25.8201 50.4653 25.7701 50.4653 25.7101C50.4853 25.6601 50.5253 25.6001 50.5353 25.5401C50.5453 25.4901 50.5353 25.4301 50.4553 25.3901C50.3853 25.3501 50.3953 25.3001 50.4053 25.2401C50.4253 25.1901 50.4553 25.1201 50.4053 25.0801C50.3153 25.0601 50.3453 25.0001 50.3753 24.9301C50.4053 24.8601 50.4253 24.8001 50.3253 24.7901C50.3253 24.6801 50.2153 24.6401 50.2153 24.5201C50.0353 24.5901 50.0053 24.5601 50.0253 24.4901C50.0453 24.4301 50.0953 24.3201 50.0753 24.2801C50.0653 24.2301 49.9853 24.2401 49.9353 24.2301C49.8853 24.2201 49.8453 24.2001 49.9153 24.0701C49.7853 24.1501 49.7553 24.1301 49.7453 24.0701C49.7453 24.0201 49.7453 23.9301 49.7453 23.8801C49.7253 23.7601 49.5453 23.8901 49.5653 23.7201C49.4053 23.8501 49.4853 23.5501 49.3853 23.5801C49.3853 23.4201 49.2553 23.52 49.2153 23.46C49.1353 23.48 49.0853 23.4501 49.0453 23.3601C48.9953 23.3301 48.9453 23.3001 48.8953 23.2701C48.8253 23.2401 48.7553 23.2001 48.6953 23.1701C48.6353 23.1401 48.5853 23.1101 48.5453 23.0901C48.4653 23.0401 48.4153 22.9801 48.4153 22.9301L48.3553 22.9401Z" fill="#0061EF"/>
<path d="M38.9497 12.48C39.0497 12.51 38.7897 13.86 38.2297 16.32C38.1397 16.73 38.0297 17.17 37.9197 17.64C37.8197 18.11 37.7197 18.62 37.5597 19.14C37.2897 19.63 37.5197 20.28 37.1597 20.81C36.9497 21.37 36.8397 22 36.7097 22.64C36.5897 23.29 36.2797 23.91 36.2197 24.63C36.2997 25.39 35.5597 25.95 35.6897 26.77C35.5597 27.52 35.3397 28.28 35.1097 29.06C34.6997 29.79 34.6797 30.65 34.4997 31.49C34.0397 32.25 33.9097 33.13 33.8497 34.05C33.2797 34.83 33.0997 35.74 33.1597 36.74C32.9297 37.66 32.5497 38.56 32.4397 39.55C32.2097 40.51 32.0097 41.5 31.6797 42.47C31.6397 43.52 31.3597 44.53 30.8897 45.5C30.8497 46.59 30.4797 47.61 30.0697 48.63C29.8797 49.09 29.7897 49.58 29.6997 50.07L29.6297 50.44L29.6097 50.53V50.58L29.5797 50.66L29.4997 51C29.3897 51.45 29.2697 51.92 29.1297 52.34C28.9197 52.27 28.7097 52.2 28.5097 52.13C28.2597 52.06 28.0197 52 27.7697 51.93C27.5697 51.88 27.3797 51.83 27.1797 51.78C26.8997 51.71 26.6297 51.64 26.3497 51.57C25.7997 51.43 25.2397 51.29 24.6797 51.12C23.5897 50.72 22.4897 50.31 21.2797 50.22C20.1197 49.97 18.9397 49.74 17.8097 49.3C16.5697 49.24 15.4197 48.81 14.2697 48.36C13.0697 48.08 11.9097 47.58 10.6597 47.4C10.0597 47.22 9.43969 47.08 8.82969 46.94L8.36969 46.83L8.13969 46.77L7.87969 46.7C7.29969 46.54 6.71969 46.38 6.17969 46.2C6.34969 45.63 6.51969 45.07 6.68969 44.5L6.83969 44.02L6.96969 43.57C7.13969 42.96 7.28969 42.35 7.36969 41.72C7.52969 40.46 8.07969 39.32 8.33969 38.11C8.89969 36.98 8.89969 35.72 9.29969 34.57C9.58969 33.39 10.0597 32.28 10.2397 31.1C10.4997 29.94 10.7597 28.8 11.1597 27.71C11.0897 26.49 11.8497 25.51 12.0597 24.4C12.5097 23.35 12.6197 22.23 12.9397 21.18C13.1497 20.1 13.6697 19.12 13.7997 18.06C14.1097 17.04 14.2297 15.99 14.6297 15.04C14.7097 14 15.3097 13.12 15.4397 12.13C15.6997 11.18 15.9297 10.24 16.2197 9.33997C16.4797 8.91997 16.6197 8.46997 16.7097 8.01997C16.7597 7.77997 16.7797 7.62997 16.8697 7.20997C16.9497 6.84997 17.0297 6.46997 17.1197 6.09997L17.1597 5.96997C17.5097 6.06997 17.8497 6.14997 18.1997 6.22997C18.3797 6.26997 18.5497 6.30997 18.7197 6.34997C18.8297 6.36997 18.9397 6.39997 19.0497 6.41997C19.4697 6.50997 19.8697 6.62997 20.2497 6.82997C21.0697 7.06997 21.8497 7.41997 22.6597 7.50997C23.4597 7.67997 24.0897 8.33997 24.9297 8.15997C25.6797 8.28997 26.2997 8.83997 27.0497 8.76997C27.7997 8.71997 28.3897 9.15997 29.0197 9.33997C29.6497 9.51997 30.2597 9.69997 30.8297 9.86997C33.4197 10.63 35.4597 11.25 36.8397 11.69C38.2197 12.14 38.9497 12.41 38.9297 12.49C38.9097 12.57 37.9597 12.41 36.2197 12.03C34.4797 11.65 31.9497 11.05 28.7697 10.26C28.1297 10.1 27.4197 10.13 26.7797 9.76997C26.0897 9.57997 25.3397 9.54997 24.6397 9.23997C23.8297 9.30997 23.1297 8.88997 22.3497 8.65997C21.5597 8.45997 20.7797 8.15997 19.9197 8.04997C19.4997 8.01997 19.0997 7.88997 18.6897 7.75997C18.5897 7.72997 18.4897 7.68997 18.3897 7.65997C18.3597 7.63997 18.3197 7.62997 18.2797 7.61997C18.2097 7.58997 18.1297 7.57997 18.0697 7.57997V7.61997C17.9597 7.68997 17.9097 7.76997 17.7697 8.31997C17.6597 8.76997 17.5897 9.22997 17.5397 9.70997C17.1397 10.58 17.0797 11.57 16.8197 12.52C16.3197 13.41 16.2297 14.43 16.0597 15.44C15.8897 16.45 15.4897 17.43 15.2697 18.47C14.9497 19.48 14.7797 20.55 14.4497 21.6C14.2797 22.69 14.0397 23.77 13.6097 24.83C13.3997 25.94 13.0397 27.03 12.7397 28.15C12.5397 29.29 12.1197 30.4 11.8397 31.55C11.5797 32.71 10.9597 33.78 10.9197 35.02C10.6397 36.2 10.2497 37.36 9.97969 38.56C9.62969 39.74 9.26969 40.94 9.01969 42.17C8.71969 42.74 8.53969 43.34 8.38969 43.96C8.34969 44.11 8.31969 44.27 8.28969 44.42L8.23969 44.65L8.21969 44.77C8.21969 44.77 8.19969 44.86 8.20969 44.86C8.20969 44.93 8.23969 44.97 8.25969 44.99C8.31969 44.99 8.34969 44.99 8.37969 44.99L8.80969 45.1L9.26969 45.22C9.87969 45.39 10.4797 45.57 11.0797 45.75C12.2997 46.05 13.4997 46.38 14.6897 46.72C15.8997 46.96 17.0297 47.47 18.2297 47.68C19.4297 47.88 20.5197 48.43 21.6997 48.62C22.8597 48.85 24.0097 49.11 25.0897 49.54C25.6497 49.69 26.1897 49.9 26.7297 50.08C26.9997 50.17 27.2697 50.25 27.5497 50.32L27.6497 50.34H27.6997L27.7397 50.36C27.7597 50.36 27.7797 50.36 27.7897 50.36C27.8197 50.36 27.8497 50.34 27.8597 50.31C27.8797 50.31 27.8897 50.31 27.8997 50.3C27.8997 50.24 27.8797 50.18 27.8597 50.15C27.8597 50.15 27.8597 50.14 27.8397 50.13V50.08L27.8597 49.99C27.8797 49.87 27.8997 49.74 27.9297 49.62C28.0397 49.13 28.1997 48.66 28.4897 48.23C28.6797 47.15 29.2297 46.18 29.3497 45.11C29.8997 44.16 29.9097 43.08 30.1797 42.09C30.4997 41.11 30.8497 40.17 30.9897 39.18C31.1097 38.19 31.5697 37.31 31.7697 36.39C31.8597 35.43 32.4597 34.64 32.5197 33.72C32.7897 32.86 32.9597 31.99 33.2397 31.18C33.0997 30.25 33.6797 29.54 33.9197 28.77C34.1797 28 34.0897 27.16 34.5697 26.5C34.4897 25.69 34.9197 25.04 35.1797 24.38C35.4397 23.72 35.4297 23 35.7497 22.41C35.7297 21.72 36.1897 21.2 36.2797 20.6C36.5597 20.05 36.5897 19.47 36.7697 18.95C36.8697 18.41 37.0197 17.92 37.2097 17.48C37.3497 17.02 37.4797 16.59 37.6097 16.18C38.3497 13.77 38.8097 12.47 38.9097 12.49L38.9497 12.48Z" fill="#0061EF"/>
<path d="M23.2962 49.91C23.3962 49.94 23.3863 50.37 23.2763 51.14C23.2563 51.27 23.2362 51.4 23.2162 51.55C23.2062 51.7 23.1962 51.86 23.1362 52.01C22.9562 52.13 23.2962 52.41 23.0462 52.53C22.9362 52.69 22.9463 52.89 22.9363 53.1C22.9363 53.31 22.7463 53.47 22.8162 53.71C23.0262 53.99 22.4062 54.06 22.6763 54.37C22.6863 54.61 22.6063 54.8401 22.5263 55.0801C22.2663 55.2701 22.3963 55.5701 22.3663 55.8301C22.0563 56.0201 22.0963 56.31 22.1863 56.62C21.7463 56.94 21.7363 57.1801 21.8563 57.9901C21.8363 58.0901 21.8063 58.18 21.7763 58.26C21.5763 58.2 21.3763 58.12 21.1863 58.07C20.9963 58.01 20.8163 57.9801 20.6163 57.9901C20.4963 57.9601 20.3663 57.94 20.2362 57.91L20.1462 57.89H20.0863L19.9762 57.8601C19.8263 57.8301 19.6763 57.7901 19.5263 57.7201C19.1663 57.8601 18.8563 57.7701 18.5963 57.4901C18.2163 57.6401 17.9262 57.47 17.6362 57.26C17.3462 57.04 16.9262 57.29 16.6462 57.01C16.3162 56.91 15.9563 56.88 15.6263 56.75C15.3063 56.5601 14.9963 56.3601 14.5863 56.4901C14.2163 56.4501 13.8463 56.4401 13.5262 56.2201C13.1062 56.3801 12.7762 56.17 12.4462 55.94C12.0763 55.88 11.7563 55.6101 11.3463 55.6501C11.3063 55.6301 11.2563 55.6201 11.2063 55.6101L10.9663 55.55C10.7863 55.51 10.6063 55.47 10.4263 55.44C10.0663 55.36 9.68625 55.27 9.40625 55.14C9.54625 54.76 9.68625 54.4101 9.77625 54.0801C9.82625 53.9101 9.86625 53.7501 9.89625 53.5801L9.91625 53.4501C9.91625 53.4501 9.92625 53.36 9.92625 53.34C9.92625 53.29 9.92625 53.24 9.92625 53.19C9.86625 52.78 10.1962 52.47 10.2262 52.09C10.5562 51.79 10.3462 51.35 10.5262 51.01C10.5962 50.65 10.8562 50.3401 10.8162 49.9501C10.8662 49.5901 10.9162 49.23 11.1062 48.92C10.8362 48.48 11.3862 48.27 11.3962 47.91C11.4262 47.87 11.4562 47.83 11.4762 47.8C11.4762 47.8 11.4763 47.7801 11.4963 47.7701L11.5163 47.7201L11.5563 47.6101C11.5963 47.4701 11.6363 47.32 11.6663 47.18C11.7263 46.88 11.7763 46.5601 11.8663 46.2901C11.8763 46.2001 11.8963 46.13 11.9163 46.05C12.1663 46.12 12.4362 46.2301 12.6862 46.3301C12.9362 46.4201 13.1562 46.4901 13.4062 46.4901C13.4763 46.5101 13.5462 46.53 13.6062 46.55C13.6662 46.56 13.6862 46.5701 13.7362 46.5801C13.8162 46.5901 13.8962 46.6 13.9762 46.62C14.1362 46.65 14.2863 46.68 14.4163 46.8C14.7663 46.7 14.9763 47.1101 15.2963 47.0601C15.5863 47.1401 15.8762 47.2 16.1462 47.32C16.3462 47.68 16.6862 47.52 16.9562 47.57C17.2162 47.67 17.5262 47.5501 17.7262 47.8101C17.9762 47.9001 18.1862 48.0901 18.4562 48.0401C18.7062 48.0601 18.8162 48.58 19.1462 48.26C19.3862 48.26 19.5163 48.6701 19.7863 48.4701C20.0563 48.2901 20.1862 48.61 20.3762 48.67C20.5662 48.74 20.7463 48.8001 20.9163 48.8601C22.4762 49.4101 23.3562 49.8001 23.3162 49.9501C23.2662 50.1201 22.0962 49.98 20.1262 49.59C19.9262 49.55 19.6763 49.7001 19.5063 49.4701C19.2963 49.4101 19.0363 49.5101 18.8463 49.3301C18.5563 49.5301 18.3762 49.26 18.1362 49.18C17.8962 49.13 17.6662 48.9801 17.3862 49.0201C17.0962 49.11 16.8963 48.81 16.5963 48.84C16.3763 48.61 16.0863 48.5801 15.7663 48.6501C15.5263 48.4201 15.1962 48.5301 14.9062 48.4501C14.6863 48.1301 14.3363 48.2201 14.0063 48.2401C13.8463 48.2401 13.6963 48.19 13.5463 48.14C13.4663 48.11 13.3962 48.0901 13.3162 48.0601C13.2762 48.0601 13.2363 48.04 13.2063 48.03C13.1963 48.03 13.1863 48.03 13.1763 48.03C13.1463 48 13.1163 48 13.0863 48.01C13.0563 48.01 13.0463 48.0301 13.0163 48.0201C13.0163 48.0201 13.0163 48.02 13.0063 48.03C13.0463 48.13 13.0663 48.17 13.0763 48.19C13.0763 48.19 13.0763 48.2001 13.0563 48.2001H13.0463C13.0463 48.2001 13.0362 48.22 13.0262 48.23C13.0062 48.27 12.9762 48.31 12.9462 48.34C12.9462 48.69 12.7862 49.0101 12.6862 49.3601C12.6862 49.7301 12.4863 50.0401 12.4263 50.4001C12.3863 50.7601 11.9762 51.03 12.1562 51.46C12.0963 51.83 11.9263 52.1701 11.8763 52.5401C11.7463 52.8901 11.6063 53.25 11.5863 53.64C11.5363 53.68 11.5063 53.72 11.4663 53.76C11.4463 53.79 11.4363 53.7801 11.4263 53.7901C11.4263 53.7901 11.4062 53.79 11.4062 53.8C11.3763 53.82 11.3663 53.85 11.3763 53.87C11.3763 53.92 11.4563 53.93 11.5163 53.91C11.5863 53.89 11.6062 53.88 11.6062 53.89C11.6062 53.89 11.6063 53.9 11.6163 53.91C11.6163 53.91 11.6162 53.92 11.6462 53.93L11.7863 53.98C12.1663 54.05 12.5263 54.17 12.8863 54.28C13.2763 54.3 13.5763 54.5901 13.9663 54.5801C14.3563 54.5601 14.6462 54.89 15.0262 54.87C15.3962 54.89 15.7562 54.94 16.0562 55.16C16.3962 55.25 16.6762 55.5801 17.0662 55.4501C17.4163 55.4901 17.8162 55.27 18.0462 55.73C18.3962 55.73 18.6363 56.08 18.9963 56.01C19.2362 56.36 19.6163 56.19 19.9163 56.28C20.0662 56.35 20.2063 56.42 20.3463 56.48C20.3863 56.49 20.4162 56.51 20.4562 56.5201H20.5163C20.5163 56.5201 20.5263 56.5401 20.5363 56.5401C20.5663 56.5401 20.5863 56.53 20.6063 56.5C20.6363 56.45 20.6463 56.46 20.6863 56.48C20.7163 56.51 20.7662 56.5601 20.8062 56.5801C20.8062 56.5801 20.8162 56.55 20.8162 56.53C20.7662 56.41 20.8163 56.44 20.8663 56.42C20.8963 56.42 20.9263 56.4001 20.9363 56.3801C20.9363 56.3701 20.9363 56.3601 20.9363 56.34C20.9363 56.34 20.9363 56.32 20.9263 56.32C20.9263 56.32 20.9263 56.3201 20.9263 56.3101V56.28C21.0263 56.02 21.0363 55.75 21.1562 55.51C20.8562 55.16 21.2862 55.01 21.3862 54.78C21.5062 54.55 21.2663 54.24 21.6063 54.09C21.3863 53.79 21.6862 53.6401 21.8162 53.4501C21.9563 53.2601 21.8163 53.01 22.0163 52.85C21.8763 52.6 22.2262 52.5 22.2062 52.3C22.3862 52.16 22.3062 51.9601 22.3862 51.8101C22.3862 51.6401 22.4462 51.49 22.5462 51.37C22.5962 51.23 22.6563 51.1 22.6963 50.98C22.9863 50.26 23.1962 49.88 23.2962 49.91Z" fill="#0061EF"/>
<path d="M19.0109 56.82C19.1109 56.85 19.1409 57.13 19.1009 57.64C19.1009 57.72 19.0809 57.81 19.0809 57.91C19.0809 58.01 19.0809 58.11 19.0409 58.21C18.8809 58.28 19.2309 58.49 19.0009 58.55C18.9109 58.65 18.9309 58.78 18.9409 58.92C18.9509 59.06 18.7909 59.15 18.8709 59.32C19.1009 59.53 18.5009 59.52 18.7909 59.75C18.8209 59.91 18.7609 60.06 18.7009 60.21C18.4609 60.31 18.6209 60.52 18.6109 60.69C18.3209 60.79 18.3909 60.98 18.5109 61.2C18.3209 61.24 18.2309 61.31 18.2209 61.4C18.2209 61.42 18.2209 61.45 18.2209 61.47C18.2209 61.5 18.2409 61.52 18.2509 61.56C18.2809 61.64 18.3209 61.73 18.3709 61.84C18.3309 61.99 18.2709 62.13 18.2209 62.27C18.1709 62.41 18.1309 62.56 18.1509 62.79C18.1209 62.95 18.0909 63.11 18.0609 63.27C17.8909 63.24 17.6909 63.19 17.4909 63.1C17.2409 63.27 16.7609 63.13 16.4509 62.85C16.4209 62.85 16.4009 62.87 16.3709 62.87C16.3509 62.87 16.3409 62.89 16.3209 62.89C16.2909 62.9 16.2609 62.91 16.2309 62.92C16.1709 62.92 16.1209 62.92 16.0709 62.9C15.9709 62.86 15.8809 62.78 15.7909 62.69C15.6209 62.5 15.3209 62.79 15.1509 62.54C14.9409 62.47 14.7109 62.48 14.5009 62.38C14.3109 62.22 14.1109 62.06 13.8309 62.22C13.5909 62.22 13.3409 62.24 13.1509 62.05C12.8509 62.24 12.6509 62.07 12.4509 61.87C12.3309 61.86 12.2209 61.79 12.1109 61.74C12.0409 61.7 11.7909 61.62 11.5509 61.63C11.3409 61.55 11.1009 61.52 10.8609 61.47C10.6209 61.43 10.3709 61.37 10.2109 61.27C10.3209 61.02 10.4209 60.78 10.4909 60.57C10.5609 60.36 10.5909 60.16 10.5709 59.94C10.5409 59.73 10.6409 59.43 10.6909 59.37C10.7509 59.26 10.8209 59.15 10.8209 59.03C11.1209 58.86 10.8709 58.54 11.0109 58.34C11.0509 58.1 11.2709 57.92 11.2009 57.66C11.2209 57.42 11.2309 57.19 11.3909 57C11.0809 56.68 11.6009 56.59 11.5809 56.35C11.6909 56.26 11.7109 56.16 11.7209 56.04V55.96C11.7209 55.96 11.7209 55.91 11.7409 55.86C11.7609 55.76 11.7809 55.67 11.8109 55.58C11.8309 55.38 11.9209 55.21 11.9909 55.06C12.0709 54.9 12.1309 54.76 12.1209 54.51C12.1509 54.43 12.1709 54.33 12.1909 54.23C12.4309 54.27 12.6809 54.28 12.9709 54.47C13.1209 54.41 13.3109 54.5 13.4709 54.6C13.5509 54.65 13.6309 54.69 13.7109 54.73C13.7509 54.75 13.7909 54.76 13.8309 54.77H13.8609H13.8809C13.8909 54.77 13.9109 54.77 13.9209 54.77C14.1109 54.82 14.2909 54.86 14.4609 54.94C14.5609 55.27 14.8009 55.08 14.9809 55.11C15.1409 55.19 15.3609 55.04 15.4709 55.28C15.6309 55.35 15.7509 55.51 15.9409 55.44C16.1109 55.44 16.1309 55.94 16.3809 55.6C16.5409 55.57 16.5809 55.97 16.7909 55.75C16.9909 55.55 17.0509 55.85 17.1709 55.89C17.2909 55.94 17.4109 55.98 17.5209 56.03C18.5109 56.43 19.0609 56.73 19.0209 56.88C18.9809 57.05 18.2109 57.01 16.9309 56.81C16.8009 56.79 16.6209 56.96 16.5309 56.75C16.4009 56.71 16.2109 56.83 16.1009 56.68C15.8809 56.91 15.7909 56.65 15.6409 56.6C15.4809 56.57 15.3509 56.44 15.1609 56.51C14.9609 56.62 14.8509 56.35 14.6509 56.41C14.5209 56.2 14.3409 56.2 14.1109 56.3C13.9709 56.09 13.7409 56.24 13.5509 56.18C13.5509 56.16 13.5409 56.14 13.5309 56.13V56.11L13.5109 56.09C13.5109 56.07 13.5109 56.05 13.4909 56.04C13.4709 56.02 13.4509 56.01 13.4409 56.02C13.4009 56.04 13.3809 56.1 13.3709 56.15C13.3609 56.22 13.3209 56.15 13.2709 56.13C13.2709 56.13 13.2709 56.15 13.2709 56.18C13.2509 56.18 13.2509 56.22 13.2609 56.25C13.2609 56.28 13.2809 56.31 13.2609 56.32C13.2909 56.34 13.3109 56.36 13.3209 56.37C13.3309 56.37 13.3209 56.4 13.3209 56.43C13.3209 56.46 13.3209 56.49 13.3209 56.51C13.3009 56.62 13.2509 56.72 13.1509 56.81C13.1709 57.05 13.0509 57.25 12.9909 57.46C13.0309 57.71 12.8609 57.9 12.8209 58.13C12.8209 58.37 12.4409 58.51 12.6509 58.81C12.6209 59.05 12.4809 59.26 12.4709 59.51C12.3809 59.71 12.2509 60.05 12.3409 60C12.2009 60.01 12.1509 60.07 12.1709 60.09C12.1809 60.12 12.2609 60.11 12.3209 60.09C12.4409 60.04 12.3909 60.07 12.4009 60.11C12.3409 60.07 12.7009 60.18 12.9009 60.25C13.1609 60.23 13.3409 60.49 13.5909 60.44C13.8509 60.39 14.0109 60.68 14.2709 60.63C14.5109 60.61 14.7509 60.63 14.9309 60.82C15.1509 60.88 15.3009 61.18 15.5809 61.01C15.8109 61.01 16.1009 60.77 16.2109 61.2C16.3309 61.18 16.4209 61.25 16.5109 61.32C16.5609 61.35 16.6009 61.38 16.6509 61.4C16.6809 61.4 16.7009 61.41 16.7309 61.4C16.7409 61.4 16.7609 61.4 16.7709 61.4C16.7709 61.4 16.7709 61.39 16.7809 61.38C16.7809 61.52 16.8309 61.54 16.8509 61.52C16.8809 61.5 16.8909 61.43 16.9109 61.44C16.9509 61.48 17.0009 61.54 17.0509 61.56C17.0609 61.54 17.0609 61.5 17.0309 61.42C16.9909 61.33 17.0009 61.34 17.0309 61.33C17.0609 61.33 17.1109 61.33 17.0909 61.28C17.0609 61.25 17.0509 61.24 17.0609 61.23C17.0609 61.23 17.0809 61.21 17.1009 61.19C17.1209 61.17 17.1309 61.15 17.1509 61.13C17.2209 61.06 17.2909 60.98 17.2309 60.87C17.3109 60.71 17.3009 60.53 17.4009 60.38C17.0809 60.12 17.4909 60.06 17.5609 59.92C17.6509 59.78 17.4009 59.55 17.7109 59.48C17.4709 59.26 17.7509 59.19 17.8609 59.07C17.9809 58.96 17.8109 58.77 18.0009 58.69C17.8409 58.51 18.1709 58.48 18.1409 58.34C18.3009 58.26 18.2109 58.12 18.2709 58.03C18.2509 57.92 18.3009 57.82 18.3909 57.75C18.4309 57.66 18.4709 57.58 18.5009 57.51C18.7209 57.06 18.8909 56.82 18.9909 56.85L19.0109 56.82Z" fill="#0061EF"/>
<path d="M36.0284 4.1401C36.1284 4.1701 36.1184 4.6101 35.9984 5.3901C35.9784 5.5201 35.9584 5.6601 35.9384 5.8101C35.9284 5.9601 35.9184 6.1201 35.8584 6.2801C35.6784 6.4101 36.0184 6.6801 35.7584 6.8101C35.6484 6.9801 35.6584 7.1801 35.6484 7.3901C35.6484 7.6001 35.4584 7.7701 35.5184 8.0201C35.7184 8.3001 35.1084 8.3801 35.3784 8.7001C35.3784 8.9501 35.3084 9.1801 35.2184 9.4201C34.9584 9.6101 35.0884 9.9201 35.0484 10.1801C34.9684 10.2301 34.9184 10.2801 34.8784 10.3401C34.8784 10.3501 34.8584 10.3701 34.8484 10.4001C34.8384 10.4201 34.8284 10.4501 34.8184 10.4701C34.7984 10.5201 34.7884 10.5701 34.7784 10.6201C34.7384 10.8201 34.7484 11.0601 34.7584 11.3601C34.5784 11.4301 34.4784 11.5201 34.4284 11.7001C34.2084 11.6401 34.0584 11.7001 33.8484 11.8201C33.6084 11.7601 33.3684 11.6601 33.1284 11.5901L32.9784 11.5401C32.9784 11.5401 32.9084 11.5201 32.8684 11.5201C32.7884 11.5101 32.7184 11.5101 32.6284 11.5201C32.3284 11.4601 32.0084 11.4401 31.7184 11.3001C31.3484 11.4401 31.0384 11.3401 30.7684 11.0701C30.3884 11.2201 30.0884 11.0401 29.7884 10.8301C29.4984 10.6101 29.0684 10.8601 28.7784 10.5801C28.4484 10.4701 28.0784 10.4501 27.7384 10.3201C27.4184 10.1301 27.0884 9.9201 26.6784 10.0501C26.3084 10.0101 25.9284 10.0001 25.5984 9.7701C25.1684 9.9301 24.8284 9.7101 24.4884 9.4801C24.1084 9.4201 23.7784 9.1401 23.3584 9.1801C23.2484 9.1301 22.7984 9.0401 22.4484 8.9601C22.0784 8.8801 21.6884 8.7901 21.3984 8.6501C21.5384 8.2601 21.6784 7.9101 21.7784 7.5701C21.8284 7.4001 21.8684 7.2401 21.8984 7.0701L21.9184 6.9401C21.9184 6.9401 21.9184 6.8901 21.9184 6.8801V6.8401C21.9184 6.8401 21.9184 6.7401 21.9184 6.6901C21.8584 6.2701 22.1884 5.9601 22.2184 5.5701C22.5584 5.2601 22.3384 4.8101 22.5184 4.4701C22.5884 4.1001 22.8484 3.7801 22.8184 3.3901C22.8684 3.0201 22.9184 2.6601 23.1184 2.3301C22.9784 2.1101 23.0484 1.9401 23.1584 1.7801C23.1684 1.7601 23.1784 1.7501 23.1984 1.7101L23.2584 1.6001C23.2984 1.5301 23.3284 1.4501 23.3684 1.3801C23.4384 1.2401 23.4884 1.1001 23.5084 0.930098C23.6584 0.690098 23.7284 0.410098 23.7884 0.100098C24.0684 0.150098 24.3584 0.190098 24.6684 0.300098C24.8084 0.320098 24.9584 0.360098 25.1084 0.410098C25.1784 0.430098 25.2484 0.460098 25.3184 0.490098C25.3884 0.520098 25.4684 0.550098 25.4984 0.560098C25.6484 0.640098 25.8084 0.700098 25.9884 0.670098C26.2984 0.790098 26.6584 0.720098 26.9284 0.950098C27.2884 0.850098 27.4984 1.2701 27.8284 1.2201C28.1284 1.3001 28.4184 1.3601 28.6984 1.4801C28.9084 1.8401 29.2484 1.6801 29.5284 1.7301C29.7884 1.8301 30.1084 1.7101 30.3184 1.9701C30.5684 2.0601 30.7884 2.2601 31.0684 2.2101C31.3284 2.2301 31.4384 2.7501 31.7684 2.4301C32.0184 2.4301 32.1384 2.8401 32.4284 2.6501C32.7084 2.4701 32.8384 2.7901 33.0384 2.8501C33.2284 2.9201 33.4184 2.9801 33.5984 3.0401C35.1884 3.6001 36.0884 3.9901 36.0484 4.1401C35.9984 4.3101 34.8084 4.1601 32.7984 3.7601C32.5984 3.7201 32.3384 3.8701 32.1684 3.6301C31.9584 3.5701 31.6884 3.6701 31.4984 3.4901C31.1984 3.6901 31.0184 3.4101 30.7784 3.3301C30.5284 3.2801 30.2984 3.1301 30.0184 3.1601C29.7184 3.2401 29.5184 2.9401 29.2184 2.9801C28.9884 2.7401 28.6984 2.7101 28.3784 2.7901C28.1384 2.5501 27.7984 2.6701 27.4984 2.5801C27.2684 2.2601 26.9184 2.3501 26.5784 2.3601C26.2484 2.3601 25.9684 2.1601 25.6284 2.1301C25.4784 2.0601 25.3084 2.0401 25.1384 2.0101C25.0884 2.0001 25.0884 2.0101 25.0784 2.0101H25.0584C25.0384 2.0101 25.0284 2.0101 25.0084 1.9901C24.9884 2.0501 24.9984 2.0901 24.9884 2.1001C24.9884 2.1201 24.9684 2.1001 24.8984 2.0801C24.9084 2.1101 24.9184 2.1301 24.9184 2.1401C24.9184 2.1401 24.9184 2.1501 24.9184 2.1601L24.8984 2.2201C24.8484 2.3901 24.7884 2.5601 24.7384 2.7301C24.7384 3.1101 24.5384 3.4301 24.4684 3.7901C24.4284 4.1601 24.0184 4.4401 24.1884 4.8801C24.1284 5.2501 23.9484 5.6001 23.8984 5.9901C23.7684 6.3501 23.6284 6.7201 23.5984 7.1101C23.5584 7.1501 23.5184 7.1901 23.4784 7.2301L23.4584 7.2601H23.4484C23.4384 7.2601 23.4284 7.2601 23.4284 7.2701C23.3984 7.2901 23.3884 7.3201 23.3984 7.3401C23.3984 7.3901 23.4784 7.4101 23.5384 7.3901C23.6084 7.3701 23.6184 7.3601 23.6384 7.3701C23.6684 7.3801 23.5784 7.3801 23.8484 7.4701C24.2284 7.5501 24.6084 7.6601 24.9684 7.7801C25.3584 7.8001 25.6784 8.0901 26.0684 8.0801C26.4584 8.0701 26.7584 8.4001 27.1484 8.3801C27.5284 8.4001 27.8884 8.4501 28.1984 8.6801C28.5484 8.7701 28.8284 9.1101 29.2284 8.9701C29.5784 9.0101 29.9984 8.8001 30.2284 9.2601C30.5784 9.2601 30.8384 9.6101 31.1984 9.5401C31.4484 9.9001 31.8284 9.7201 32.1384 9.8201C32.4284 9.9601 32.7084 10.1301 33.0384 10.0901C33.1184 10.0801 33.1984 10.0901 33.2684 10.1101C33.3084 10.1201 33.3384 10.1301 33.3784 10.1501C33.3884 10.1501 33.4184 10.1701 33.4184 10.1701H33.4284C33.4584 10.2201 33.5084 10.2801 33.5484 10.2601C33.5684 10.1701 33.6084 10.2601 33.7084 10.3401C33.7484 10.3601 33.7884 10.3201 33.7384 10.2101C33.7684 10.1801 33.7684 10.1301 33.7784 10.0801V10.0501L33.7984 10.0001C33.8184 9.9401 33.8384 9.8701 33.8784 9.8101C33.5884 9.4501 34.0184 9.3001 34.1184 9.0701C34.2384 8.8401 34.0084 8.5201 34.3384 8.3701C34.1284 8.0701 34.4184 7.9101 34.5584 7.7201C34.6984 7.5301 34.5584 7.2701 34.7584 7.1101C34.6184 6.8601 34.9684 6.7501 34.9484 6.5501C35.1284 6.4001 35.0484 6.2001 35.1284 6.0401C35.1284 5.8601 35.1884 5.7101 35.2984 5.5901C35.3584 5.4501 35.4084 5.3201 35.4484 5.1901C35.7384 4.4601 35.9484 4.0701 36.0484 4.0901L36.0284 4.1401Z" fill="#0061EF"/>
<path d="M21.1382 0.170089C21.1682 0.0700888 21.3882 0.0200888 21.7782 0.0300888C21.8482 0.0300888 21.9082 0.0300888 21.9882 0.0300888C22.0682 0.0300888 22.1482 0.0100888 22.2282 0.0500888C22.2682 0.210089 22.4582 -0.159911 22.4882 0.0700888C22.5582 0.150089 22.6682 0.120089 22.7682 0.100089C22.8782 0.0800888 22.9382 0.240089 23.0782 0.140089C23.2482 -0.0999112 23.2082 0.490089 23.4082 0.190089C23.5382 0.150089 23.6482 0.190089 23.7582 0.250089C23.8182 0.480089 23.9982 0.310089 24.1282 0.310089C24.1882 0.590089 24.3482 0.510089 24.5182 0.380089C24.5582 0.750089 24.7082 0.730089 24.9282 0.460089C25.0682 0.490089 25.1782 0.650089 25.3582 0.550089C25.5082 0.570089 25.6682 0.550089 25.7982 0.640089C26.0082 0.460089 26.1582 0.510089 26.2582 0.740089C26.4782 0.540089 26.6082 0.680089 26.7382 0.840089C26.8582 1.02009 27.1182 0.720089 27.2282 0.950089C27.3882 1.01009 27.5682 0.980089 27.7282 1.07009C27.8682 1.21009 28.0082 1.37009 28.2382 1.19009C28.4282 1.18009 28.6182 1.14009 28.7582 1.32009C29.0082 1.11009 29.1482 1.27009 29.2982 1.45009C29.4882 1.45009 29.6182 1.68009 29.8382 1.59009C30.0082 1.68009 30.2382 1.58009 30.3882 1.74009C30.5482 1.87009 30.7182 1.99009 30.9382 1.89009C31.1582 1.78009 31.2782 2.06009 31.4782 2.04009C31.5982 2.33009 31.8582 2.06009 32.0082 2.19009C32.1882 2.21009 32.3182 2.42009 32.5282 2.34009C32.7082 2.34009 32.8982 2.34009 33.0382 2.49009C33.3082 2.17009 33.3482 2.67009 33.5282 2.64009C33.6482 2.84009 33.8582 2.70009 34.0082 2.79009C34.1882 2.77009 34.2782 3.04009 34.4682 2.94009C34.6182 3.01009 34.8082 2.90009 34.9182 3.08009C35.1182 2.94009 35.1682 3.31009 35.3482 3.22009C35.4882 3.26009 35.6382 3.29009 35.7582 3.36009C35.8182 3.68009 36.0182 3.48009 36.1582 3.50009C36.2782 3.56009 36.4582 3.41009 36.5282 3.63009C36.6482 3.69009 36.7382 3.84009 36.8782 3.76009C37.0082 3.75009 36.9982 4.24009 37.2082 3.89009C37.3382 3.85009 37.3482 4.24009 37.5182 4.01009C37.6882 3.80009 37.7182 4.09009 37.8082 4.13009C37.8982 4.17009 37.9882 4.21009 38.0682 4.24009C38.8182 4.57009 39.2282 4.84009 39.1882 4.99009C39.1382 5.16009 38.5482 5.17009 37.5582 5.05009C37.4582 5.04009 37.3082 5.21009 37.2482 5.01009C37.1482 4.98009 36.9982 5.11009 36.9182 4.96009C36.7382 5.19009 36.6782 4.95009 36.5682 4.90009C36.4482 4.88009 36.3482 4.76009 36.1982 4.83009C36.0282 4.95009 35.9682 4.69009 35.8082 4.76009C35.7182 4.56009 35.5782 4.57009 35.3982 4.68009C35.3082 4.49009 35.1082 4.64009 34.9682 4.59009C34.8882 4.31009 34.6982 4.44009 34.5182 4.50009C34.3482 4.55009 34.2282 4.38009 34.0582 4.40009C33.9182 4.31009 33.7282 4.38009 33.5782 4.29009C33.3882 4.36009 33.2182 4.36009 33.0882 4.18009C32.9082 4.22009 32.7582 4.11009 32.5882 4.06009C32.3982 4.11009 32.2582 3.96009 32.0782 3.94009C31.8982 3.94009 31.7982 3.59009 31.5582 3.81009C31.3782 3.80009 31.2182 3.67009 31.0182 3.68009C30.8482 3.60009 30.6782 3.51009 30.4782 3.54009C30.3682 3.22009 30.1382 3.34009 29.9282 3.39009C29.7182 3.42009 29.5482 3.33009 29.3782 3.24009C29.1882 3.22009 29.0082 3.16009 28.8382 3.09009C28.6382 3.12009 28.5082 2.88009 28.3082 2.94009C28.0982 3.00009 27.9882 2.72009 27.7882 2.79009C27.5982 2.82009 27.4182 2.82009 27.2782 2.64009C27.1082 2.59009 27.0082 2.31009 26.7882 2.49009C26.6082 2.49009 26.3682 2.75009 26.3082 2.34009C26.1282 2.39009 26.0382 2.08009 25.8482 2.19009C25.7682 1.88009 25.5482 2.10009 25.3982 2.05009C25.2682 1.96009 25.1382 1.83009 24.9682 1.91009C24.7882 2.00009 24.7082 1.76009 24.5582 1.77009C24.3782 1.89009 24.3382 1.49009 24.1582 1.63009C24.0382 1.56009 23.8982 1.58009 23.7882 1.50009C23.5682 1.83009 23.5382 1.43009 23.4382 1.37009C23.3382 1.29009 23.1382 1.55009 23.1082 1.24009C22.9282 1.49009 22.8782 1.22009 22.7982 1.12009C22.7182 1.01009 22.5682 1.18009 22.5082 1.00009C22.3582 1.17009 22.3482 0.840089 22.2482 0.890089C22.1982 0.740089 22.0782 0.840089 22.0082 0.780089C21.9182 0.800089 21.8482 0.770089 21.7982 0.680089C21.7282 0.650089 21.6682 0.610089 21.6182 0.580089C21.2782 0.390089 21.0982 0.240089 21.1282 0.140089L21.1382 0.170089Z" fill="#0061EF"/>
<path d="M35.4821 74.7699C35.3821 74.7399 35.4521 74.1999 35.6721 73.2499C35.7121 73.0899 35.7521 72.9199 35.7921 72.7399C35.8221 72.5599 35.8621 72.3599 35.9321 72.1599C36.1321 72.0099 35.8221 71.6699 36.1021 71.5199C36.2321 71.3199 36.2521 71.0699 36.2921 70.8199C36.3221 70.5699 36.5421 70.3599 36.5021 70.0599C36.3321 69.7199 36.9621 69.6299 36.7321 69.2399C36.7521 68.9399 36.8721 68.6599 36.9821 68.3699C37.2821 68.1399 37.1821 67.7699 37.2521 67.4499C37.5921 67.2199 37.5921 66.8599 37.5421 66.4799C37.9721 66.2599 38.0421 65.8999 37.8521 65.4599C37.9621 65.1099 38.2021 64.7999 38.1821 64.3899C38.2821 64.0199 38.3421 63.6399 38.5221 63.2799C38.4321 62.8299 38.5621 62.4599 38.8821 62.1299C38.7821 61.6699 39.0021 61.2999 39.2521 60.9399C39.5121 60.5799 39.3121 60.0699 39.6421 59.7199C39.7821 59.3199 39.9021 58.8999 40.0421 58.4699C40.3921 58.4699 40.7621 58.4599 41.1321 58.4799L41.2821 58.4999H41.3521L41.3921 58.5199L41.5621 58.5599C41.6721 58.5799 41.7821 58.5999 41.9021 58.6099C42.1321 58.6199 42.3521 58.5999 42.5821 58.4799C43.0421 58.4199 43.5021 58.3399 43.9621 58.4799C44.4321 58.2199 44.9021 58.3399 45.3721 58.4799C45.8421 58.4399 46.3221 58.6299 46.8021 58.4799C47.2821 58.5199 47.7721 58.3699 48.2621 58.4799C48.7521 58.5599 49.2321 58.6399 49.7221 58.4799C50.2021 58.3199 50.6821 58.5599 51.1621 58.4899C51.6321 58.7399 52.1021 58.4199 52.5721 58.5099C53.0421 58.4899 53.5021 58.6599 53.9521 58.5299C54.1821 58.5099 54.4121 58.4899 54.6321 58.4799C54.7421 58.4799 54.8521 58.4799 54.9721 58.4899C55.0321 58.4899 55.0821 58.4999 55.1421 58.5099C55.2021 58.5099 55.2321 58.5299 55.3521 58.5399C55.7421 58.3699 56.1921 58.3799 56.5521 58.4299C56.6121 58.6699 56.6621 58.9199 56.7121 59.1399C56.7421 59.2499 56.7621 59.3599 56.8021 59.4599C56.8221 59.5099 56.8321 59.5599 56.8521 59.6099C56.8721 59.6599 56.8921 59.7099 56.9121 59.7299C56.9121 60.1899 57.2421 60.5199 57.3621 60.9299C57.5821 61.2999 57.5021 61.7699 57.7921 62.0999C57.9121 62.4899 58.2021 62.8099 58.2021 63.2299C58.5221 63.5299 58.3421 64.0199 58.6021 64.3199C58.7421 64.6699 58.8821 65.0099 58.9821 65.3699C58.8421 65.8199 59.1921 66.0599 59.3421 66.3699C59.4421 66.7099 59.7421 66.9499 59.6821 67.3299C59.7821 67.6499 59.7721 67.9899 60.0021 68.2399C60.1521 68.5099 59.8221 68.9699 60.2921 69.0999C60.4621 69.3499 60.2221 69.7499 60.5621 69.9099C60.8921 70.0799 60.7321 70.4199 60.8121 70.6599C60.8921 70.8999 60.9621 71.1299 61.0321 71.3499C61.6721 73.3299 61.9621 74.4899 61.8121 74.5499C61.6521 74.6099 60.9621 73.2999 59.9221 70.9999C59.8121 70.7699 59.5321 70.5999 59.6021 70.2799C59.5021 70.0299 59.2521 69.8199 59.2621 69.4999C58.9021 69.3299 59.0021 68.9599 58.9021 68.6699C58.7721 68.3799 58.7421 68.0499 58.5221 67.7899C58.2521 67.5399 58.3521 67.1399 58.1221 66.8499C58.1521 66.4699 57.9821 66.1499 57.7121 65.8699C57.7321 65.4699 57.4121 65.1999 57.2821 64.8399C57.3821 64.3899 57.0721 64.0999 56.8321 63.7699C56.6021 63.4399 56.5821 63.0099 56.3721 62.6599C56.2721 62.2599 56.0121 61.9199 55.9021 61.5099C55.6421 61.1599 55.4421 60.7799 55.4221 60.3199C55.4021 60.2799 55.4021 60.2899 55.3921 60.2899H55.3821C55.3821 60.2899 55.3721 60.2699 55.3621 60.2699C55.3621 60.2599 55.3521 60.2399 55.3421 60.2199C55.3221 60.2199 55.2921 60.1999 55.2621 60.1999C55.2721 60.2099 55.2021 60.2199 55.1421 60.2299C55.0921 60.2299 55.0321 60.2299 54.9721 60.2399C54.8621 60.2399 54.7521 60.2399 54.6321 60.2399C54.4021 60.2299 54.1821 60.1999 53.9521 60.2099C53.4921 60.2599 53.0321 59.9399 52.5721 60.2099C52.1021 60.2399 51.6321 60.1599 51.1621 60.2099C50.6921 60.1699 50.2121 60.1299 49.7221 60.2099C49.2421 59.9299 48.7521 60.0999 48.2621 60.2099C47.7721 60.2899 47.2821 60.2399 46.8021 60.1999C46.3221 60.2299 45.8421 60.1999 45.3621 60.1899C44.8921 60.2699 44.4221 60.0699 43.9521 60.1699C43.4821 60.2799 43.0321 60.0399 42.5721 60.1499C42.3421 60.1899 42.1221 60.2199 41.8921 60.2199C41.7821 60.2199 41.6721 60.2199 41.5521 60.1999C41.4921 60.1999 41.4421 60.1799 41.3821 60.1699H41.3421V60.1499V60.1299C41.3421 60.1299 41.2521 60.0799 41.1721 60.0399C41.1221 60.0399 41.0721 60.1399 41.1721 60.2299C41.0821 60.6599 41.2421 61.1599 40.7521 61.4399C40.7121 61.8699 40.3121 62.1699 40.3421 62.6099C39.9421 62.9099 40.0721 63.3699 39.9421 63.7399C39.7621 64.0999 39.5521 64.4299 39.5521 64.8299C39.5521 65.2299 39.2421 65.5199 39.1721 65.8799C39.2121 66.2799 38.7421 66.4999 38.8021 66.8799C38.6621 67.1999 38.6121 67.5399 38.4521 67.8299C38.7021 68.2599 38.2421 68.4499 38.1121 68.7299C37.9621 69.0099 38.1521 69.3899 37.7921 69.5799C37.9721 69.9499 37.6421 70.1399 37.4921 70.3699C37.3321 70.5999 37.4421 70.9199 37.2021 71.0999C37.3121 71.3999 36.9421 71.5299 36.9321 71.7799C36.7321 71.9599 36.7821 72.1999 36.6821 72.3899C36.6621 72.5999 36.5821 72.7799 36.4521 72.9399C36.3721 73.1099 36.3121 73.2699 36.2421 73.4199C35.8421 74.3099 35.5821 74.7799 35.4821 74.7499V74.7699Z" fill="#0061EF"/>
<path d="M48.3135 64.03C48.3135 63.98 48.3635 63.93 48.4735 63.88C48.5235 63.86 48.5935 63.83 48.6735 63.82C48.7535 63.81 48.8435 63.8 48.9535 63.79C49.0235 63.79 49.1035 63.79 49.1835 63.79C49.2235 63.79 49.2735 63.79 49.3135 63.79C49.3535 63.79 49.4035 63.81 49.4435 63.83C49.4735 63.99 49.7235 63.65 49.7335 63.9C49.7935 64 49.9235 63.99 50.0435 64.01C50.1635 64.03 50.1935 64.2 50.3635 64.17C50.4935 64.1 50.5035 64.2 50.5135 64.29C50.5135 64.38 50.5235 64.47 50.6935 64.39C50.8435 64.42 50.9235 64.55 51.0135 64.66C50.9835 64.78 51.0235 64.84 51.0935 64.88C51.1635 64.92 51.2535 64.94 51.3135 65C51.1835 65.27 51.3535 65.32 51.5735 65.4C51.3435 65.69 51.4335 65.79 51.7935 65.86C51.8235 65.94 51.8135 66.03 51.8235 66.12C51.8335 66.21 51.8535 66.29 51.9435 66.37C51.9635 66.46 52.0035 66.55 52.0235 66.64C52.0435 66.73 52.0435 66.83 52.0235 66.92C52.1435 67.01 52.1835 67.12 52.1835 67.22C52.1835 67.27 52.1635 67.32 52.1435 67.37C52.1135 67.42 52.0635 67.46 52.0135 67.51C52.2335 67.75 52.0835 67.95 51.9035 68.11C51.8035 68.19 51.8235 68.3 51.8235 68.42C51.8235 68.54 51.8135 68.65 51.6735 68.7C51.5635 68.88 51.5135 69.11 51.3435 69.26C51.2435 69.32 51.1335 69.37 51.0435 69.44C50.9635 69.51 50.9135 69.61 50.9035 69.77C50.8435 69.87 50.7835 69.97 50.6935 70.05C50.6035 70.13 50.5035 70.19 50.3735 70.19C50.3135 70.54 50.0235 70.56 49.7535 70.52C49.6535 70.58 49.5235 70.59 49.4035 70.6C49.2835 70.6 49.1735 70.63 49.0635 70.72C48.9435 70.72 48.8235 70.77 48.7035 70.8C48.5835 70.83 48.4635 70.84 48.3335 70.8C48.2135 70.76 48.0935 70.71 47.9735 70.69C47.8535 70.67 47.7435 70.67 47.6035 70.72C47.4735 70.78 47.3535 70.72 47.2435 70.67C47.1335 70.61 47.0435 70.52 46.9235 70.51C46.8635 70.36 46.7535 70.32 46.6335 70.31C46.5135 70.3 46.3835 70.28 46.3035 70.19C46.1935 70.14 46.1235 70.04 46.0535 69.96C45.9735 69.88 45.9035 69.8 45.7735 69.77C45.6735 69.71 45.5835 69.65 45.5035 69.56C45.4635 69.52 45.4235 69.48 45.4035 69.43C45.3735 69.38 45.3535 69.33 45.3435 69.26C45.1235 69.29 45.0735 69.18 45.0735 69.05C45.0735 68.92 45.0935 68.79 45.0135 68.71C45.0435 68.58 44.9835 68.49 44.9335 68.4C44.8735 68.31 44.8135 68.22 44.7935 68.12C44.7335 68.03 44.7535 67.92 44.7535 67.81C44.7535 67.7 44.7735 67.61 44.6835 67.52C44.6835 67.47 44.6835 67.42 44.6635 67.37C44.6535 67.32 44.6435 67.27 44.6235 67.22C44.6035 67.12 44.5935 67.02 44.6735 66.93C44.5835 66.83 44.6335 66.74 44.6735 66.65C44.7235 66.56 44.7935 66.48 44.7435 66.38C44.7535 66.29 44.7735 66.2 44.7935 66.12C44.8235 66.03 44.8435 65.95 44.8935 65.87C45.0635 65.83 45.1035 65.77 45.1035 65.68C45.1035 65.59 45.0835 65.49 45.1035 65.41C45.1935 65.28 45.1235 65.04 45.3635 65.01C45.4735 64.9 45.6535 64.86 45.6635 64.68C45.6935 64.61 45.8235 64.63 45.9135 64.63C46.0035 64.63 46.0635 64.6 45.9835 64.41C46.0135 64.34 46.1035 64.35 46.1935 64.35C46.2735 64.35 46.3435 64.34 46.3135 64.2C46.2735 63.92 46.5335 64.09 46.6335 64.04C46.7335 63.99 46.8435 63.96 46.9435 63.93C47.3935 63.8 47.7535 63.81 47.9935 63.85C48.2335 63.9 48.3435 63.98 48.3435 64.06C48.3435 64.15 48.2035 64.23 47.9735 64.34C47.7435 64.45 47.4235 64.6 47.1135 64.87C47.0535 64.93 47.0935 65.13 46.9235 65.04C46.8535 65.09 46.8835 65.26 46.7435 65.24C46.8635 65.5 46.6535 65.4 46.5735 65.47C46.5135 65.55 46.3935 65.58 46.4235 65.72C46.5135 65.89 46.2435 65.85 46.3035 66C46.1035 66.02 46.1035 66.16 46.2135 66.3C46.1135 66.33 46.1135 66.39 46.1235 66.45C46.1335 66.51 46.1735 66.57 46.1635 66.63C46.0335 66.66 46.0035 66.72 46.0235 66.78C46.0435 66.84 46.1135 66.91 46.1635 66.96C46.2035 67.02 46.2035 67.07 46.1935 67.13C46.1935 67.16 46.1835 67.19 46.1835 67.22C46.1835 67.25 46.1835 67.28 46.2135 67.3C46.1735 67.43 46.3235 67.51 46.3135 67.64C46.3935 67.68 46.4535 67.72 46.4735 67.77C46.5035 67.82 46.5035 67.88 46.4735 67.97C46.5335 68.01 46.5735 68.05 46.5935 68.11C46.6135 68.17 46.6435 68.22 46.6835 68.27C46.7235 68.27 46.7435 68.3 46.7735 68.32C46.7935 68.34 46.8135 68.36 46.8335 68.39C46.8635 68.44 46.8935 68.51 46.9535 68.54C47.0135 68.56 47.0135 68.66 47.0535 68.72C47.0835 68.79 47.1335 68.85 47.2635 68.76C47.3835 68.8 47.4635 68.93 47.6135 68.93C47.6635 68.97 47.7235 69.01 47.7835 69.03C47.8435 69.05 47.9135 69.06 47.9835 69.03C48.0235 69.17 48.0935 69.21 48.1635 69.2C48.2335 69.18 48.3135 69.11 48.3735 69.07C48.4435 69.03 48.5035 69.01 48.5735 69.02C48.6335 69.02 48.7035 69.02 48.7735 69.04C48.8935 68.99 49.0235 68.97 49.1535 68.93C49.2335 68.81 49.4435 68.93 49.5035 68.76C49.5335 68.68 49.5935 68.67 49.6635 68.65C49.7335 68.65 49.8035 68.62 49.8135 68.53C49.8335 68.46 49.8535 68.39 49.8935 68.35C49.9335 68.3 49.9835 68.28 50.0735 68.26C50.1135 68.21 50.2035 68.2 50.2635 68.16C50.3235 68.12 50.3735 68.07 50.2835 67.96C50.2835 67.89 50.2335 67.8 50.2135 67.74C50.1935 67.67 50.2335 67.63 50.4335 67.64C50.4035 67.57 50.4635 67.53 50.5135 67.48C50.5735 67.43 50.6035 67.37 50.5335 67.3C50.6035 67.28 50.6435 67.26 50.6635 67.23C50.6835 67.2 50.6735 67.17 50.6635 67.14C50.6335 67.08 50.5835 67.02 50.5835 66.96C50.6035 66.9 50.6435 66.84 50.6535 66.78C50.6635 66.72 50.6535 66.66 50.5735 66.62C50.5035 66.58 50.5035 66.52 50.5235 66.46C50.5335 66.4 50.5635 66.34 50.5235 66.29C50.4335 66.27 50.4635 66.2 50.4935 66.13C50.5235 66.06 50.5335 65.99 50.4335 65.98C50.4335 65.87 50.3135 65.82 50.3135 65.7C50.1335 65.76 50.1035 65.73 50.1135 65.66C50.1235 65.59 50.1835 65.49 50.1635 65.44C50.1535 65.39 50.0735 65.39 50.0235 65.38C49.9735 65.37 49.9335 65.35 49.9935 65.21C49.8635 65.29 49.8335 65.26 49.8235 65.21C49.8135 65.16 49.8235 65.07 49.8235 65.01C49.8035 64.88 49.6135 65.01 49.6335 64.84C49.4735 64.97 49.5435 64.67 49.4435 64.7C49.4335 64.54 49.3135 64.64 49.2635 64.58C49.2235 64.58 49.1935 64.58 49.1635 64.57C49.1335 64.55 49.1135 64.52 49.0935 64.48C49.0335 64.45 48.9835 64.42 48.9335 64.39C48.8535 64.35 48.7835 64.32 48.7235 64.29C48.6635 64.26 48.6035 64.23 48.5635 64.21C48.4735 64.15 48.4235 64.1 48.4235 64.05L48.3135 64.03Z" fill="#0061EF"/>
<path d="M67.612 74.76C67.722 74.76 67.822 76.43 67.912 79.49C67.922 80 67.942 80.55 67.962 81.13C67.972 81.42 67.992 81.73 68.002 82.04C68.002 82.2 68.002 82.35 68.002 82.51C68.002 82.71 68.002 82.9 68.002 83.1C67.952 83.41 67.972 83.72 68.002 84.09C67.732 84.12 67.432 84.17 67.102 84.19C67.022 84.19 66.932 84.19 66.852 84.19H66.722C66.722 84.19 66.632 84.19 66.602 84.19C66.482 84.19 66.372 84.16 66.252 84.13C65.522 84.07 64.762 84.13 63.962 84.17C63.162 84.22 62.332 84.08 61.472 84.21C60.612 84.48 59.712 83.91 58.792 84.25C57.862 84.32 56.912 84.3 55.922 84.29C54.932 84.08 53.922 84.29 52.882 84.32C51.842 84.07 50.772 84.18 49.672 84.35C48.572 84.01 47.452 84.06 46.302 84.38C45.152 84.39 43.982 84.26 42.782 84.41C41.582 84.43 40.362 84.5 39.112 84.44C37.862 84.67 36.602 84.66 35.312 84.46C34.022 84.71 32.712 84.61 31.382 84.48C30.052 84.34 28.702 84.7 27.332 84.5C25.962 84.48 24.572 84.56 23.162 84.52C21.752 84.42 20.332 84.31 18.892 84.53C17.452 84.59 15.992 84.67 14.522 84.54C13.052 84.8 11.562 84.69 10.062 84.54C8.56204 84.58 7.05204 84.4 5.52204 84.54C4.76204 84.52 3.99204 84.54 3.22204 84.57C2.84204 84.58 2.45204 84.59 2.06204 84.59C1.75204 84.59 1.43204 84.59 1.12204 84.58C0.762041 84.58 0.402041 84.56 0.0620408 84.55C0.0820408 83.88 0.102041 83.21 0.122041 82.54C0.142041 82.15 0.152041 81.77 0.152041 81.38C0.152041 80.61 0.152041 79.85 0.0620408 79.08C-0.0179592 78.35 -0.00795918 77.62 0.0220408 76.89C0.0420408 76.53 0.0520408 76.16 0.0620408 75.8V75.38L0.0720408 74.88C0.0720408 74.55 0.0720408 74.22 0.0720408 73.88H0.402041C0.772041 73.9 1.12204 73.93 1.46204 73.94L1.93204 73.96H2.21204C2.58204 73.97 2.95204 73.96 3.33204 73.94C4.07204 73.9 4.81204 73.84 5.55204 73.89C7.02204 73.87 8.48204 74.03 9.92204 73.89C11.362 73.84 12.782 73.8 14.192 73.9C15.602 73.52 16.982 74 18.352 73.92C19.722 74.08 21.072 73.9 22.402 73.94C23.732 73.87 25.042 74.11 26.332 73.96C27.622 73.99 28.892 73.84 30.132 73.98C31.382 73.79 32.602 74.14 33.802 74.01C35.002 74.01 36.172 74 37.322 74.04C38.472 74.34 39.592 74.09 40.692 74.07C41.792 74.1 42.862 73.9 43.902 74.1C44.942 74.12 45.962 74.25 46.942 74.13C47.932 74.09 48.882 74.56 49.812 74.17C50.732 74.1 51.632 74.47 52.492 74.21C53.352 73.97 54.182 74.24 54.982 74.25C55.782 74.26 56.542 74.28 57.272 74.29C60.552 74.35 63.142 74.42 64.902 74.5C66.662 74.57 67.602 74.65 67.602 74.73C67.602 74.82 66.442 74.9 64.282 74.98C62.122 75.06 58.962 75.14 54.982 75.2C54.182 75.21 53.352 75.42 52.492 75.24C51.632 75.24 50.732 75.4 49.812 75.28C48.882 75.55 47.932 75.33 46.942 75.32C45.952 75.33 44.942 75.25 43.902 75.35C42.862 75.51 41.792 75.27 40.692 75.38C39.592 75.21 38.472 75.26 37.322 75.41C36.172 75.25 35.002 75.44 33.802 75.44C32.602 75.19 31.382 75.37 30.132 75.47C28.882 75.56 27.622 75.43 26.332 75.49C25.042 75.44 23.732 75.55 22.402 75.51C21.072 75.63 19.722 75.67 18.352 75.53C16.982 75.61 15.592 75.55 14.192 75.55C12.782 75.65 11.362 75.54 9.92204 75.56C8.48204 75.61 7.02204 75.29 5.55204 75.57C4.82204 75.59 4.08204 75.57 3.33204 75.57C2.96204 75.57 2.58204 75.57 2.21204 75.57H1.93204H1.89204H1.88204H1.86204C1.83204 75.57 1.81204 75.57 1.80204 75.58H1.77204L1.76204 75.64V75.68C1.76204 75.68 1.76204 75.68 1.75204 75.8C1.75204 76.16 1.75204 76.52 1.74204 76.89C1.74204 77.61 1.74204 78.34 1.79204 79.08C1.65204 79.84 1.63204 80.61 1.65204 81.38C1.66204 81.76 1.68204 82.15 1.71204 82.54V82.68C1.71204 82.68 1.72204 82.71 1.73204 82.71C1.73204 82.71 1.74204 82.75 1.75204 82.77C1.77204 82.8 1.78204 82.81 1.79204 82.82L1.87204 82.8H1.90204C1.90204 82.8 1.90204 82.8 1.93204 82.8H2.07204C2.46204 82.8 2.84204 82.8 3.23204 82.8C4.00204 82.8 4.76204 82.83 5.53204 82.85C7.05204 82.82 8.57204 82.84 10.072 82.85C11.572 82.77 13.062 82.97 14.532 82.85C16.002 82.73 17.462 82.98 18.902 82.85C20.342 82.77 21.762 82.73 23.172 82.86C24.582 82.86 25.972 83.11 27.342 82.88C28.712 82.83 30.062 82.52 31.392 82.9C32.722 82.8 34.032 83.09 35.322 82.92C36.612 83.2 37.882 82.93 39.122 82.94C40.372 82.99 41.592 83.09 42.792 82.97C43.992 82.84 45.162 83.04 46.312 83C47.462 82.84 48.582 83.21 49.682 83.03C50.782 83.07 51.852 83.01 52.892 83.06C53.932 82.68 54.952 83.06 55.932 83.09C56.922 83.15 57.872 82.84 58.802 83.13C59.722 82.84 60.622 83.09 61.482 83.17C62.342 83.25 63.172 83.05 63.972 83.21C64.772 83.01 65.532 83.32 66.262 83.25C66.382 83.27 66.492 83.29 66.612 83.3H66.732C66.732 83.3 66.802 83.32 66.842 83.32C66.982 83.32 67.112 83.32 67.242 83.3C67.242 83.15 67.222 83.01 67.242 82.87C67.242 82.82 67.242 82.77 67.232 82.73V82.68V82.62V82.5C67.232 82.34 67.232 82.18 67.232 82.03C67.232 81.72 67.262 81.42 67.302 81.12C67.322 80.53 67.332 79.98 67.352 79.47C67.442 76.41 67.552 74.74 67.652 74.74L67.612 74.76Z" fill="#0061EF"/>
</g>
<defs>
<clipPath id="clip0_926_16129">
<rect width="76.92" height="84.72" fill="white"/>
</clipPath>
</defs>
</svg>
