<svg width="108" height="65" viewBox="0 0 108 65" fill="none" xmlns="http://www.w3.org/2000/svg">
<g clip-path="url(#clip0_926_16102)">
<path d="M37.7039 10.3255C37.7039 10.3885 37.1396 10.4766 36.0487 10.5648C35.5096 10.6152 34.845 10.6781 34.0425 10.7537C33.6412 10.804 33.2274 10.8544 32.7635 10.9048C32.5378 10.93 32.2995 10.9677 32.0613 10.9929C31.823 11.0307 31.5722 11.0685 31.3215 11.1062C30.9829 11.1566 30.6318 11.207 30.2556 11.2699C29.892 11.3329 29.5158 11.4085 29.1271 11.4714C28.9265 11.5092 28.7384 11.547 28.5378 11.5847C28.3371 11.6351 28.1365 11.6729 27.9359 11.7233C27.5221 11.8114 27.0958 11.887 26.6694 11.9751C26.218 11.9751 25.7917 12.164 25.3528 12.3403C24.9139 12.5166 24.4751 12.7054 23.961 12.6928C23.4719 12.7684 22.9954 12.9321 22.5064 13.0832C22.0174 13.2343 21.5284 13.4484 21.0393 13.6498C20.7885 13.7506 20.5378 13.8387 20.2744 13.9269C20.0111 14.015 19.7603 14.1031 19.497 14.2039C18.9704 14.3802 18.4437 14.6068 17.9422 14.909C17.4782 15.2868 16.9139 15.4631 16.3371 15.6394C16.0487 15.7275 15.7603 15.8283 15.4845 15.9668C15.2086 16.1053 14.9578 16.2816 14.7321 16.5208C13.7039 17.2134 12.5879 17.8304 11.5096 18.5733C10.8826 18.8252 10.3559 19.2407 9.84184 19.6814C9.59106 19.9081 9.35281 20.1599 9.11457 20.3992L8.75093 20.7643C8.63808 20.8902 8.51269 21.0162 8.38729 21.1421C8.08635 21.3184 7.78541 21.5073 7.52209 21.7465C7.25877 21.9732 7.00798 22.225 6.76974 22.4894C6.31833 23.0435 5.90454 23.6353 5.56598 24.2901C4.33714 25.1589 3.55971 26.5315 3.32146 28.0677C3.18353 28.4077 3.02052 28.7477 2.87005 29.1002C2.73212 29.4528 2.60673 29.8054 2.4688 30.1706C2.35595 30.5357 2.25563 30.9009 2.16786 31.2787C2.10516 31.6564 2.055 32.0468 2.02993 32.4371C1.81676 33.9734 1.892 35.5474 2.055 37.1465C2.59419 38.6828 3.0456 40.1812 3.52209 41.8056C4.52522 43.1655 5.32773 44.6136 6.31833 46.0743C6.56911 46.4395 6.85751 46.7543 7.15845 47.0816C7.45939 47.3964 7.81049 47.6735 8.13651 47.9631C8.47507 48.2527 8.82617 48.5171 9.16472 48.8193C9.32773 48.9704 9.50328 49.1216 9.66629 49.2601C9.8293 49.4112 9.99231 49.5749 10.1428 49.7386C10.4813 50.0408 10.8575 50.2926 11.2211 50.557C11.4092 50.683 11.5848 50.8215 11.7854 50.9474L12.4751 51.3881L13.0143 51.7407L13.2901 51.917C13.2901 51.917 13.3904 51.9673 13.4155 52.0051V52.1688C13.3654 52.597 13.3403 53.0125 13.3027 53.4406C13.265 53.9191 13.2274 54.3976 13.1647 54.8761C12.8763 56.7775 12.5754 58.7041 12.7259 60.6936V60.9958V61.0462C12.7259 61.0714 12.7384 61.0966 12.7509 61.1217C12.7635 61.1595 12.776 61.1973 12.7885 61.2225C13.0143 61.084 12.5378 61.3232 14.0299 60.7188C15.6851 59.5477 17.5785 58.8174 19.497 58.0997C20.4124 57.6338 21.3528 57.2308 22.2933 56.8153L22.7321 56.6138L23.3215 56.3368C23.3215 56.3368 23.4343 56.3368 23.4845 56.3368L23.66 56.3871L23.9986 56.4753L24.4625 56.5886C24.9516 56.7145 25.4531 56.8279 25.9547 56.8782C27.9233 57.3819 29.9798 57.533 32.0111 57.8856C34.055 58.2004 36.1114 58.4019 38.1428 58.1878C40.1741 57.9611 42.1929 58.1374 44.1741 57.81C44.4249 57.81 44.6757 57.81 44.9265 57.81C45.1773 57.7975 45.4281 57.7597 45.6788 57.7345C46.1679 57.6589 46.6569 57.5834 47.1459 57.4575C47.6224 57.3441 48.1114 57.2182 48.5879 57.1049C49.0644 56.979 49.5409 56.8656 50.0299 56.7901C51.9234 56.299 53.8419 55.9338 55.5848 55.0902C57.3528 54.3598 59.0331 53.5162 60.7384 52.7481C61.077 52.4081 61.4531 52.131 61.8418 51.8918C62.218 51.64 62.6193 51.4133 63.0331 51.1992C63.4343 50.9852 63.8356 50.7585 64.2243 50.5319C64.613 50.2926 64.9766 50.0282 65.3277 49.7386C66.8826 48.7816 68.0111 47.3587 69.1522 46.0617C69.2901 45.898 69.4155 45.7217 69.5409 45.5454C69.6663 45.3691 69.8042 45.2054 69.9422 45.0417C70.0801 44.878 70.2055 44.7018 70.3434 44.5381L70.7321 44.0218C70.9829 43.6818 71.2086 43.3166 71.4343 42.9515C71.6475 42.5863 71.8105 42.1959 71.9484 41.8056C72.1365 41.4278 72.287 41.0501 72.4375 40.6597C72.5629 40.2694 72.6882 39.879 72.8136 39.4887C72.9014 39.0857 73.0143 38.6954 73.1146 38.3176C73.1898 37.9272 73.3027 37.5369 73.4155 37.1465C73.3904 36.7436 73.4281 36.3407 73.4657 35.9503C73.4782 35.5599 73.5409 35.1696 73.566 34.7667C73.5785 34.3763 73.6036 33.9859 73.5911 33.5956C73.5534 33.2052 73.5158 32.8149 73.4155 32.4371C73.1773 30.9135 72.7008 29.4528 72.124 28.0803C72.0613 27.7025 71.9234 27.35 71.7729 26.9974C71.6976 26.8211 71.6099 26.6574 71.5096 26.5063C71.4092 26.3426 71.3089 26.1915 71.2086 26.0404C71.0205 25.7256 70.7697 25.4486 70.544 25.1589C70.4312 25.0204 70.3183 24.8693 70.2055 24.7308C70.0801 24.5923 69.9672 24.4538 69.8544 24.3153C69.4406 23.7234 68.9265 23.2198 68.4375 22.7161C68.1867 22.4768 67.9359 22.225 67.7102 21.9732C67.4719 21.7087 67.2337 21.4569 67.0331 21.1799L66.6694 20.8147C66.544 20.7014 66.4186 20.5754 66.2933 20.4621C66.0425 20.2355 65.8042 19.9836 65.5409 19.7696C65.0268 19.3414 64.5002 18.9133 63.9108 18.6111C63.3591 18.2459 62.8951 17.7926 62.3936 17.3771C62.1553 17.163 61.8795 16.9867 61.6036 16.8482C61.3277 16.7097 61.0268 16.5964 60.6882 16.5586C59.5597 16.0675 58.6945 15.0853 57.4782 14.9468C56.8889 14.8713 56.3748 14.632 55.8732 14.3928C55.6224 14.2668 55.3716 14.1409 55.1334 14.015C54.8951 13.8891 54.6444 13.7883 54.3936 13.6876C53.892 13.5113 53.403 13.3224 52.9014 13.1713C52.4124 13.0202 51.9359 12.8439 51.4594 12.7306C49.3403 12.1136 47.3967 11.6855 45.7039 11.3959C45.4907 11.3581 45.2776 11.3203 45.077 11.2825C44.8763 11.2574 44.6632 11.2196 44.4751 11.1944C44.0738 11.1314 43.6976 11.0811 43.334 11.0307C42.6067 10.9426 41.9422 10.867 41.3528 10.7914C40.7635 10.7285 40.2368 10.6781 39.7854 10.6403C39.334 10.6026 38.9453 10.5648 38.6443 10.5396C38.0299 10.4766 37.7039 10.4263 37.7039 10.3633C37.7039 10.3004 38.1052 10.25 38.8701 10.2122C39.0581 10.2122 39.2713 10.187 39.5096 10.1744C39.7478 10.1744 40.0111 10.1744 40.287 10.1744C40.8512 10.1744 41.5033 10.1744 42.2431 10.2122C42.6067 10.2374 43.008 10.25 43.4218 10.2752C43.8356 10.313 44.2619 10.3507 44.7133 10.3885C45.1647 10.4263 45.6412 10.4892 46.1302 10.5522C46.381 10.59 46.6318 10.6152 46.8826 10.6529C47.1334 10.6907 47.3967 10.7411 47.66 10.7789C49.7666 11.1188 52.1867 11.6477 54.7948 12.504C55.0581 12.5921 55.334 12.6551 55.5973 12.7306C55.8732 12.8062 56.1491 12.8817 56.4249 12.9699C56.9766 13.1336 57.5284 13.3476 58.0299 13.7002C59.1208 14.1661 60.3371 14.5313 61.403 15.2742C62.7071 15.589 63.7102 16.5208 64.8136 17.3393C65.3904 17.7171 65.9296 18.1704 66.4813 18.6111C66.7572 18.8377 67.0205 19.077 67.3089 19.2911C67.4469 19.4044 67.5973 19.5177 67.7353 19.6185C67.8732 19.7318 68.0237 19.8451 68.1616 19.9584C68.4625 20.1725 68.7509 20.3992 69.0143 20.6762C69.2776 20.9406 69.5284 21.2176 69.7792 21.5073C70.2556 22.0991 70.7321 22.6909 71.2462 23.2701C72.0111 24.6427 72.8889 25.9396 73.7666 27.35C73.8795 27.7529 74.0299 28.1432 74.1679 28.521C74.2933 28.9114 74.4437 29.3017 74.6067 29.6921C74.7321 30.095 74.8701 30.498 74.9955 30.9009C75.0958 31.3164 75.1961 31.7446 75.2713 32.1601C75.2462 32.6008 75.2462 33.0415 75.2713 33.4697C75.2713 33.8978 75.2839 34.3385 75.3215 34.7792C75.334 35.22 75.3465 35.6607 75.3591 36.1014C75.3591 36.5421 75.334 36.9954 75.3215 37.4488C75.2839 37.9021 75.1961 38.3428 75.1208 38.7961C75.008 39.2368 74.8826 39.6775 74.7572 40.1183C74.5942 40.5464 74.4437 40.9745 74.2807 41.4152C74.0926 41.8434 73.9296 42.2715 73.7541 42.6996C72.9014 44.3366 71.9861 45.9987 70.7196 47.4216C69.6287 48.983 68.2494 50.3808 66.6193 51.4259C65.1647 52.7103 63.4845 53.7302 61.7541 54.6746C60.0864 55.745 58.2055 56.4375 56.3371 57.1804C56.0989 57.2812 55.8732 57.3693 55.6349 57.4575C55.3967 57.533 55.1585 57.6086 54.9077 57.6715C54.4187 57.81 53.9296 57.9486 53.4406 58.0619C52.4625 58.3137 51.4719 58.553 50.5315 58.9937C48.5503 59.5226 46.4939 59.7744 44.4375 60.0892C42.3685 60.2907 40.2744 60.3914 38.1553 60.4921C36.0362 60.1396 33.9296 60.2655 31.7603 60.1899C29.6036 60.0766 27.497 59.6611 25.4406 59.1322C24.9265 59.0315 24.4124 58.893 23.8983 58.767L23.6224 58.6915C23.6224 58.6915 23.6099 58.6915 23.5848 58.6915L23.2462 58.8552C22.3183 59.2959 21.3779 59.724 20.4625 60.1522C18.6694 61.1343 16.7259 61.7639 14.9829 62.7587C14.7321 62.8972 14.4813 63.0357 14.2306 63.1617L13.729 63.4009L13.0017 63.7409C12.0362 64.1942 11.0958 64.6097 10.1804 65.0127C10.2682 64.1942 10.3434 63.3883 10.4061 62.6076C10.4437 62.2173 10.4688 61.8269 10.4939 61.4366L10.5315 60.8447C10.5315 60.7062 10.5315 60.6181 10.5315 60.5047C10.5817 58.5404 10.682 56.5886 11.008 54.6872C11.0456 54.2087 11.1083 53.7302 11.171 53.2643V53.2266L11.1835 53.1762L11.2086 53.088V53.0629C11.2086 53.0629 11.2086 53.0629 11.2086 53.0503L11.1835 53.0251L11.1208 52.9621H11.1083C11.1083 52.9621 11.1083 52.9495 11.0832 52.9243L10.9327 52.811L10.6318 52.597C10.4312 52.4584 10.2431 52.3073 10.0425 52.1814C9.65375 51.9044 9.22742 51.6651 8.81363 51.4133C8.62554 51.2622 8.42491 51.1237 8.22428 50.9852C8.02366 50.8467 7.82303 50.7081 7.63494 50.557C7.24623 50.2548 6.85751 49.9778 6.49388 49.663C6.14278 49.3356 5.77914 49.0082 5.4782 48.6305C5.17726 48.2527 4.9014 47.8498 4.70077 47.409C4.38729 47.0565 4.07381 46.6913 3.81049 46.3009C3.54717 45.9106 3.29638 45.5076 3.05814 45.1047C2.83243 44.6892 2.60673 44.2862 2.38102 43.8833C2.16786 43.4677 1.92961 43.0774 1.67883 42.6744C1.57852 42.2085 1.42805 41.7804 1.27758 41.3397C1.13964 40.899 0.964095 40.4834 0.813625 40.0553C0.675694 39.6272 0.512685 39.199 0.387293 38.7583C0.27444 38.3176 0.161587 37.8769 0.0988915 37.4362C-0.101735 35.6355 0.0487348 33.8726 0.149048 32.1475C0.186666 31.7194 0.249362 31.2787 0.337136 30.8631C0.449989 30.4476 0.575381 30.0446 0.700773 29.6291C0.863782 29.2388 1.01425 28.8484 1.16472 28.458C1.32773 28.0803 1.50328 27.7025 1.65375 27.3122C1.7666 26.9218 1.96723 26.5567 2.15532 26.1915C2.25563 26.0152 2.35595 25.8389 2.48134 25.6752C2.59419 25.5115 2.71958 25.3478 2.83243 25.1841C3.05814 24.8441 3.32146 24.5419 3.54717 24.2271C3.66002 24.0634 3.77287 23.8997 3.87319 23.736C3.98604 23.5723 4.08635 23.4086 4.18667 23.245C4.66316 22.6279 5.16472 22.0613 5.66629 21.4821C5.92961 21.205 6.19294 20.9406 6.44372 20.6762C6.70704 20.4117 6.99544 20.1725 7.27131 19.9333C7.35908 19.7696 7.45939 19.6059 7.57225 19.4548C7.6851 19.3162 7.81049 19.1777 7.94842 19.0518C8.21175 18.8 8.48761 18.5733 8.80109 18.3844C9.41551 18.0067 10.0425 17.6793 10.6193 17.3141C11.1961 16.9364 11.7227 16.5208 12.2619 16.1179C12.5252 15.9164 12.8136 15.7527 13.102 15.589C13.3904 15.4379 13.7039 15.312 14.0299 15.249C14.9829 14.3046 16.2619 14.0402 17.403 13.675C17.9672 13.4861 18.4939 13.2217 19.0205 12.9951C19.2838 12.8817 19.5472 12.7684 19.8105 12.6803C20.0738 12.5921 20.3497 12.5291 20.6255 12.4788C21.102 12.1766 21.6287 12.0255 22.1553 11.9373C22.682 11.8492 23.1835 11.761 23.66 11.5973C24.1741 11.5596 24.6381 11.4336 25.102 11.3077C25.566 11.1944 26.0174 11.0559 26.4563 10.9803C26.8951 10.8544 27.3215 10.7663 27.7478 10.7033C27.961 10.6655 28.1616 10.6403 28.3748 10.6152C28.5754 10.59 28.7885 10.59 28.9892 10.5774C29.3904 10.527 29.7791 10.4766 30.1428 10.4263C30.519 10.3885 30.8826 10.3633 31.2337 10.3255C31.497 10.3004 31.7478 10.2752 31.9986 10.2626C32.2494 10.2374 32.4876 10.2374 32.7133 10.2248C33.1773 10.1996 33.6161 10.1744 34.0174 10.1618C34.8199 10.1618 35.497 10.1493 36.0487 10.1618C37.1396 10.2122 37.7164 10.2626 37.7164 10.3381L37.7039 10.3255Z" fill="#0061EF"/>
<path d="M55.3572 24.5419C55.3572 24.6805 54.9685 24.819 54.2538 24.9449C54.1409 24.9701 54.003 24.9827 53.8651 25.0078C53.7271 25.0456 53.5767 25.0834 53.4262 25.0708C53.2757 24.8819 53.1127 25.4108 52.9372 25.1212C52.7616 25.0456 52.5861 25.1212 52.398 25.1715C52.2099 25.2345 52.0218 25.0582 51.8212 25.2219C51.6205 25.5871 51.4074 24.819 51.1942 25.2723C50.981 25.373 50.7553 25.3478 50.5296 25.3226C50.3039 25.0456 50.0657 25.3226 49.8149 25.373C49.5767 25.0456 49.3259 25.1841 49.0626 25.4108C48.8118 24.9575 48.5484 25.0204 48.2726 25.4486C48.0093 25.4612 47.7334 25.2849 47.445 25.4863C47.1691 25.5115 46.8807 25.5997 46.5923 25.5241C46.3039 25.8263 46.003 25.8137 45.702 25.5493C45.4011 25.8767 45.1002 25.7508 44.7867 25.5745C44.4732 25.3982 44.1597 25.8641 43.8463 25.5997C43.5202 25.5745 43.2067 25.6752 42.8682 25.6249C42.5422 25.4863 42.2036 25.3478 41.8776 25.6374C41.539 25.713 41.2005 25.8263 40.8619 25.65C40.5234 26.0026 40.1723 25.8389 39.8212 25.65C39.4701 25.713 39.119 25.4612 38.7679 25.65C38.4168 25.5997 38.0531 25.8011 37.6895 25.65C37.3259 25.5493 36.9748 25.4486 36.6111 25.65C36.26 25.8767 35.8964 25.5619 35.5578 25.65C35.2068 25.3226 34.8557 25.7508 34.5171 25.65C34.1785 25.6878 33.8274 25.4612 33.5014 25.6374C33.1629 25.7004 32.8368 25.7634 32.5108 25.6249C32.1848 26.1285 31.8588 25.4989 31.5453 25.5997C31.2193 25.3856 30.9058 25.6374 30.6049 25.5745C30.2914 25.6626 29.9904 25.3478 29.6895 25.5493C29.3886 25.5115 29.0876 25.713 28.7992 25.5241C28.5108 25.776 28.2224 25.3101 27.9466 25.4863C27.6707 25.4863 27.3948 25.4989 27.119 25.4486C26.8557 25.0582 26.5923 25.3856 26.329 25.4108C26.0782 25.373 25.8274 25.6374 25.5767 25.373C25.3384 25.3352 25.1002 25.1715 24.8619 25.3226C24.6362 25.3856 24.4105 24.756 24.1973 25.2723C23.9842 25.3604 23.771 24.8693 23.5704 25.2219C23.3698 25.5367 23.1817 25.1841 22.9936 25.1715C22.8055 25.1464 22.6299 25.1338 22.4544 25.1212C20.9246 24.9575 20.0469 24.756 20.0469 24.5419C20.0469 24.3153 21.1378 24.0886 22.9936 23.9123C23.1817 23.8997 23.3698 23.6227 23.5704 23.862C23.771 23.862 23.9842 23.6479 24.1973 23.8116C24.4105 23.4464 24.6362 23.7486 24.8619 23.7612C25.0876 23.7486 25.3259 23.862 25.5767 23.7109C25.8149 23.4968 26.0657 23.8116 26.329 23.6605C26.5798 23.8872 26.8431 23.8242 27.119 23.6227C27.3823 23.8368 27.6582 23.5724 27.9466 23.5849C28.2224 23.9249 28.5108 23.6857 28.7992 23.5472C29.0876 23.4213 29.3886 23.5975 29.6895 23.522C29.9904 23.5849 30.2914 23.4338 30.6049 23.4968C30.9183 23.3457 31.2318 23.2827 31.5453 23.4716C31.8588 23.3583 32.1848 23.4464 32.5108 23.4464C32.8368 23.3079 33.1754 23.459 33.5014 23.4213C33.84 23.3583 34.1785 23.7738 34.5171 23.4087C34.8557 23.3583 35.2068 23.4716 35.5578 23.4087C35.9089 23.459 36.26 23.5094 36.6111 23.4087C36.9622 23.7738 37.3259 23.5472 37.6895 23.4087C38.0531 23.3079 38.4168 23.3583 38.7679 23.4087C39.119 23.3709 39.4826 23.3961 39.8212 23.4087C40.1723 23.2953 40.5234 23.5598 40.8619 23.4087C41.2005 23.2576 41.539 23.5724 41.8776 23.4213C42.2162 23.3205 42.5422 23.2576 42.8682 23.4464C43.1942 23.4464 43.5202 23.7738 43.8463 23.4716C44.1597 23.3961 44.4857 22.9931 44.7867 23.4968C45.1002 23.3709 45.4011 23.7361 45.702 23.522C46.003 23.8872 46.3039 23.5346 46.5923 23.5472C46.8807 23.6227 47.1691 23.7486 47.445 23.5849C47.7209 23.4087 47.9967 23.6857 48.2726 23.6227C48.5359 23.4087 48.7992 23.8998 49.0626 23.6605C49.3259 23.7109 49.5641 23.6227 49.8149 23.7109C50.0531 23.2072 50.2914 23.7109 50.5296 23.7612C50.7553 23.8368 50.981 23.4338 51.1942 23.8116C51.4074 23.4338 51.6205 23.7612 51.8212 23.862C52.0218 23.9753 52.2099 23.6983 52.398 23.9123C52.5861 23.6479 52.7616 24.0634 52.9372 23.9627C53.1002 24.139 53.2632 23.9627 53.4262 24.0257C53.5767 23.9627 53.7271 23.9879 53.8651 24.0886C54.003 24.1138 54.1284 24.1264 54.2538 24.1516C54.9685 24.2775 55.3572 24.4034 55.3572 24.5419Z" fill="#0061EF"/>
<path d="M46.0688 33.0288C46.0688 33.1673 45.7804 33.3058 45.2537 33.4317C45.1659 33.4443 45.0656 33.4695 44.9779 33.4947C44.8775 33.5324 44.7772 33.5702 44.6518 33.5576C44.539 33.3687 44.4136 33.8976 44.2882 33.608C44.1628 33.5198 44.0249 33.608 43.8995 33.6584C43.7616 33.7213 43.6236 33.545 43.4732 33.7087C43.3227 34.0739 43.1722 33.3058 43.0092 33.7591C42.8462 33.8598 42.6832 33.8346 42.5202 33.8095C42.3572 33.5324 42.1816 33.8095 41.9935 33.8598C41.818 33.5324 41.6299 33.671 41.4418 33.8976C41.2537 33.4443 41.0656 33.5198 40.865 33.9354C40.6644 33.948 40.4638 33.7717 40.2631 33.9732C40.0625 33.9983 39.8493 34.0865 39.6362 34.0109C39.423 34.3131 39.2098 34.3006 38.9841 34.0487C38.7584 34.3761 38.5327 34.2502 38.307 34.0739C38.0813 33.8976 37.8431 34.3635 37.6048 34.0991C37.3666 34.0739 37.1283 34.1746 36.8901 34.1243C36.6518 33.9858 36.4011 33.8472 36.1503 34.1369C35.8995 34.2124 35.6487 34.3257 35.3979 34.1495C35.1471 34.502 34.8964 34.3383 34.633 34.1495C34.3697 34.1998 34.1189 33.9606 33.8556 34.1495C33.5923 34.0991 33.329 34.3006 33.0656 34.1495C32.8023 34.0487 32.539 33.948 32.2757 34.1495C32.0123 34.3761 31.7616 34.0613 31.4982 34.1495C31.2475 33.8221 30.9841 34.2502 30.7333 34.1495C30.4826 34.1872 30.2318 33.9606 29.981 34.1369C29.7302 34.1998 29.492 34.2628 29.2412 34.1243C29.0029 34.6279 28.7647 33.9983 28.5265 34.0991C28.2882 33.885 28.0625 34.1369 27.8243 34.0739C27.5986 34.1746 27.3728 33.8472 27.1471 34.0487C26.9214 34.0109 26.7083 34.2124 26.4951 34.0109C26.2819 34.2628 26.0688 33.8095 25.8681 33.9732C25.6675 33.9732 25.4543 33.9858 25.2663 33.9354C25.0656 33.545 24.8775 33.8724 24.6895 33.8976C24.5014 33.8598 24.3133 34.1243 24.1377 33.8472C23.9622 33.8221 23.7866 33.6458 23.6111 33.7969C23.4481 33.8598 23.2725 33.2302 23.1221 33.7465C22.9591 33.8472 22.8086 33.3436 22.6581 33.6961C22.5076 34.0109 22.3697 33.6584 22.2318 33.6458C22.0938 33.6206 21.9685 33.608 21.8431 33.5954C20.7145 33.4317 20.0625 33.2302 20.0625 33.0162C20.0625 32.7769 20.865 32.5629 22.2318 32.3866C22.3697 32.374 22.5076 32.097 22.6581 32.3362C22.8086 32.3362 22.9591 32.1347 23.1221 32.2858C23.2851 31.9207 23.4481 32.2229 23.6111 32.2355C23.7741 32.2229 23.9496 32.3362 24.1377 32.1851C24.3133 31.971 24.5014 32.2858 24.6895 32.1473C24.8775 32.374 25.0656 32.311 25.2663 32.1095C25.4669 32.3236 25.6675 32.0592 25.8681 32.0718C26.0688 32.4117 26.2819 32.1725 26.4951 32.034C26.7083 31.9081 26.9214 32.0844 27.1471 32.0088C27.3728 32.0718 27.5986 31.9207 27.8243 31.9836C28.05 31.8325 28.2882 31.7696 28.5265 31.9584C28.7647 31.8577 29.0029 31.9333 29.2412 31.9333C29.4794 31.7947 29.7302 31.9458 29.981 31.9207C30.2318 31.8577 30.4826 32.2732 30.7333 31.9081C30.9841 31.8577 31.2475 31.971 31.4982 31.9081C31.7616 31.9584 32.0123 31.9962 32.2757 31.9081C32.539 32.2732 32.8023 32.0466 33.0656 31.9081C33.329 31.8073 33.5923 31.8577 33.8556 31.9081C34.1189 31.8703 34.3823 31.8955 34.633 31.9081C34.8964 31.7947 35.1471 32.0592 35.3979 31.9081C35.6487 31.757 35.8995 32.0718 36.1503 31.9207C36.4011 31.8199 36.6393 31.757 36.8901 31.9333C37.1283 31.9333 37.3666 32.2606 37.6048 31.9584C37.8431 31.8829 38.0688 31.4799 38.307 31.9836C38.5327 31.8577 38.7584 32.2229 38.9841 32.0088C39.2098 32.374 39.423 32.0214 39.6362 32.034C39.8493 32.1095 40.0625 32.2355 40.2631 32.0718C40.4763 31.8955 40.6769 32.1725 40.865 32.1095C41.0656 31.8955 41.2537 32.3866 41.4418 32.1473C41.6299 32.1977 41.818 32.1095 41.9935 32.1851C42.1691 31.6814 42.3446 32.1851 42.5202 32.2355C42.6957 32.311 42.8587 31.9081 43.0092 32.2858C43.1722 31.9081 43.3227 32.2355 43.4732 32.3362C43.6236 32.4495 43.7616 32.1725 43.8995 32.3866C44.0374 32.1221 44.1628 32.5377 44.2882 32.4369C44.4136 32.6132 44.539 32.4369 44.6518 32.4999C44.7647 32.4369 44.8775 32.4621 44.9779 32.5629C45.0782 32.588 45.1659 32.6006 45.2537 32.6258C45.7804 32.7517 46.0688 32.8902 46.0688 33.0288Z" fill="#0061EF"/>
<path d="M37.531 41.5036C37.531 41.6421 37.3429 41.7806 36.9793 41.9065C36.9166 41.9317 36.8539 41.9443 36.7912 41.9695C36.7285 42.0073 36.6533 42.045 36.5781 42.0324C36.5028 41.8436 36.4276 42.3724 36.3398 42.0954C36.252 42.0198 36.1643 42.0954 36.0765 42.1458C35.9887 42.2087 35.8884 42.0324 35.7881 42.1961C35.6878 42.5613 35.5875 41.7932 35.4746 42.2465C35.3743 42.3472 35.2614 42.3221 35.1486 42.2969C35.0357 42.0198 34.9229 42.2969 34.7975 42.3472C34.6846 42.0198 34.5592 42.1584 34.4338 42.385C34.3085 41.9317 34.1705 41.9947 34.0451 42.4228C33.9072 42.4354 33.7818 42.2591 33.6439 42.4606C33.506 42.4858 33.368 42.5739 33.2175 42.4983C33.0796 42.8006 32.9291 42.788 32.7787 42.5361C32.6282 42.8635 32.4777 42.7376 32.3273 42.5613C32.1768 42.385 32.0138 42.8509 31.8633 42.5865C31.7003 42.5613 31.5498 42.662 31.3868 42.6117C31.2238 42.4732 31.0608 42.3346 30.8978 42.6243C30.7348 42.6998 30.5592 42.8131 30.3962 42.6369C30.2207 42.9894 30.0577 42.8257 29.8821 42.6369C29.7066 42.6872 29.531 42.448 29.3555 42.6369C29.1799 42.5865 29.0044 42.788 28.8163 42.6369C28.6407 42.5361 28.4652 42.4354 28.2896 42.6369C28.1141 42.8635 27.9386 42.5487 27.763 42.6369C27.5875 42.3095 27.4119 42.7376 27.2489 42.6369C27.0733 42.6746 26.9103 42.448 26.7473 42.6243C26.5843 42.6872 26.4213 42.7502 26.2583 42.6117C26.0953 43.1154 25.9323 42.4858 25.7818 42.5865C25.6188 42.3724 25.4683 42.6117 25.3179 42.5613C25.1674 42.6494 25.0169 42.3346 24.8665 42.5361C24.716 42.4983 24.5781 42.6998 24.4276 42.4983C24.2896 42.7502 24.1392 42.2843 24.0012 42.4606C23.8633 42.4606 23.7254 42.4732 23.6 42.4228C23.4621 42.0324 23.3367 42.3598 23.2113 42.385C23.0859 42.3472 22.9605 42.6117 22.8351 42.3472C22.7097 42.3095 22.5969 42.1458 22.484 42.2969C22.3712 42.3472 22.2583 41.7302 22.158 42.2465C22.0577 42.3346 21.9448 41.8436 21.8445 42.1961C21.7442 42.5235 21.6439 42.1584 21.5561 42.1458C21.4683 42.1206 21.3806 42.108 21.2928 42.0954C20.5404 41.9317 20.1016 41.7302 20.1016 41.5162C20.1016 41.2895 20.6407 41.0629 21.5561 40.8866C21.6439 40.874 21.7442 40.5969 21.8445 40.8362C21.9448 40.8362 22.0451 40.6221 22.158 40.7858C22.2708 40.4207 22.3712 40.7229 22.484 40.7355C22.5969 40.7229 22.7097 40.8362 22.8351 40.6851C22.9605 40.471 23.0733 40.7858 23.2113 40.6473C23.3367 40.874 23.4621 40.811 23.6 40.6095C23.7379 40.8236 23.8633 40.5592 24.0012 40.5718C24.1392 40.9117 24.2771 40.6725 24.4276 40.534C24.5655 40.4081 24.716 40.5844 24.8665 40.5088C25.0169 40.5718 25.1674 40.4207 25.3179 40.4836C25.4683 40.3325 25.6313 40.2696 25.7818 40.4584C25.9448 40.3451 26.0953 40.4333 26.2583 40.4333C26.4213 40.3073 26.5843 40.4458 26.7473 40.4207C26.9103 40.3451 27.0859 40.7732 27.2489 40.4081C27.4119 40.3577 27.5875 40.471 27.763 40.4081C27.9386 40.4584 28.1141 40.5088 28.2896 40.4081C28.4652 40.7732 28.6407 40.5466 28.8163 40.4081C28.9918 40.3073 29.1674 40.3577 29.3555 40.4081C29.531 40.3703 29.7066 40.3955 29.8821 40.4081C30.0577 40.2947 30.2332 40.5592 30.3962 40.4081C30.5718 40.257 30.7348 40.5718 30.8978 40.4207C31.0608 40.3073 31.2238 40.257 31.3868 40.4333C31.5498 40.4333 31.7128 40.7606 31.8633 40.4584C32.0263 40.3829 32.1768 39.9799 32.3273 40.4836C32.4777 40.3577 32.6282 40.7355 32.7787 40.5088C32.9291 40.874 33.0796 40.5214 33.2175 40.534C33.3555 40.6095 33.506 40.7355 33.6439 40.5718C33.7818 40.3955 33.9197 40.6725 34.0451 40.6095C34.1831 40.3955 34.3085 40.8866 34.4338 40.6473C34.5592 40.6977 34.6846 40.6095 34.7975 40.6851C34.9229 40.1814 35.0357 40.6851 35.1486 40.7355C35.2614 40.811 35.3743 40.4081 35.4746 40.7858C35.5875 40.4081 35.6878 40.7355 35.7881 40.8362C35.8884 40.9495 35.9887 40.6725 36.0765 40.8866C36.1643 40.6221 36.252 41.0377 36.3398 40.9369C36.4276 41.1132 36.5028 40.9369 36.5781 40.9873C36.6533 40.9243 36.7285 40.9495 36.7912 41.0503C36.8665 41.0754 36.9166 41.088 36.9793 41.1132C37.3304 41.2391 37.531 41.3651 37.531 41.5162V41.5036Z" fill="#0061EF"/>
<path d="M70.1935 0.188885C70.1935 0.113333 70.7577 0.0629646 71.8612 0.0125965C72.4129 -0.0125875 73.09 0.0125965 73.8925 0.0125965C74.2938 0.0125965 74.7327 0.0503726 75.1966 0.0755566C75.4349 0.0755566 75.6731 0.100741 75.9113 0.113333C76.1621 0.138517 76.4129 0.163701 76.6762 0.176293C77.0273 0.201477 77.391 0.239253 77.7546 0.277029C78.1308 0.327397 78.507 0.377765 78.9082 0.428133C79.1088 0.453317 79.3095 0.478501 79.5226 0.503685C79.7233 0.528869 79.9364 0.566645 80.1496 0.591829C80.5759 0.667382 81.0023 0.730342 81.4537 0.831078C81.88 1.01996 82.3439 1.04514 82.833 1.07033C83.3095 1.1081 83.811 1.18365 84.2499 1.44809C84.7264 1.61178 85.2154 1.77548 85.7295 1.9014C86.2436 2.02732 86.7577 2.17842 87.2844 2.31694C87.5477 2.39249 87.811 2.48063 88.0744 2.58137C88.3377 2.6947 88.601 2.79543 88.8643 2.90876C89.391 3.12283 89.9302 3.34948 90.507 3.51318C91.1339 3.57614 91.6355 3.94131 92.1621 4.28129C92.4255 4.44499 92.6888 4.63387 92.9646 4.77238C93.2405 4.92348 93.5414 5.03681 93.88 5.08718C95.0461 5.62864 96.1872 6.33379 97.2907 7.13968C97.7797 7.63077 98.3314 8.0589 98.9082 8.46184C99.1966 8.66331 99.485 8.87738 99.7734 9.09144C99.9239 9.19218 100.062 9.30551 100.212 9.40624C100.35 9.51957 100.488 9.64549 100.626 9.75882C101.479 10.9802 102.582 11.9624 103.711 13.0579C104.288 14.569 105.153 15.8156 106.231 17.1252C106.394 17.5029 106.557 17.8807 106.695 18.271C106.82 18.6614 106.946 19.0643 107.071 19.4673C107.172 19.8702 107.284 20.2857 107.397 20.6887C107.498 21.1042 107.598 21.5198 107.723 21.9353C108.024 23.6352 108.112 25.4359 107.773 27.2114C107.811 29.0372 107.222 30.8882 106.193 32.4496C105.692 34.2755 104.513 35.8369 103.172 37.1716C102.833 37.5116 102.507 37.8516 102.206 38.2168C101.893 38.5694 101.579 38.9345 101.253 39.2871C100.601 39.9923 99.9114 40.6722 99.0712 41.1759C98.695 41.4907 98.2938 41.7551 97.9176 42.0573C97.717 42.1959 97.5289 42.3596 97.3283 42.4855L97.0273 42.6869L96.8769 42.7877C96.8769 42.7877 96.8518 42.8003 96.8393 42.8129L96.7891 42.8632L96.764 42.8884V42.964V43.0521C96.8142 43.5306 96.8392 44.0091 96.8769 44.4876C96.9019 46.4142 96.9019 48.3659 97.3534 50.3051L97.391 50.6325L97.4537 51.2243C97.4913 51.6273 97.5289 52.0302 97.5791 52.4332C97.6543 53.2516 97.7421 54.0827 97.8173 54.9138C96.0242 54.0827 93.5164 52.8865 92.9521 52.5087C90.996 51.9547 89.228 50.9473 87.4725 49.9148C86.5446 49.4992 85.6292 49.0207 84.7139 48.5548L84.5383 48.4667L84.5007 48.4415H84.4881L84.4631 48.4163L84.3502 48.3534C84.3502 48.3534 84.3001 48.3534 84.275 48.3534L83.9866 48.4289C83.4725 48.5674 82.9709 48.7311 82.4568 48.8822C80.3878 49.2978 78.3063 49.8644 76.1371 49.9399C75.0587 49.9903 73.9928 50.0407 72.927 50.0659L72.137 50.1036L71.3471 50.1288L70.9458 50.154C70.8079 50.154 70.7201 50.1666 70.4443 50.1792C69.9803 50.2044 69.5038 50.2044 69.0148 50.217C68.3001 50.2422 67.5728 50.2422 66.8455 50.2422H65.7797L65.253 50.217C65.0775 50.217 64.9019 50.217 64.764 50.1918C65.7546 49.26 66.7452 48.3282 67.7233 47.409C67.8486 47.2956 67.9615 47.1823 68.0618 47.069L68.3753 46.729L68.6888 46.389L68.927 46.1372C69.1402 45.8979 69.3157 45.6461 69.5038 45.3942C70.2311 44.7269 70.7703 43.9084 71.1966 43.0395C71.6229 42.1707 71.9866 41.3018 72.3628 40.433C72.6762 39.5389 73.0023 38.6575 73.1903 37.7509C73.391 36.8442 73.5038 35.9124 73.4286 34.9932C73.4286 34.7666 73.4035 34.5399 73.391 34.3007C73.3784 34.074 73.3659 33.8474 73.3408 33.6207L73.253 32.9407L73.2154 32.6007C73.2029 32.4874 73.1778 32.3741 73.1527 32.2733L73.0273 31.606C72.9897 31.3793 72.927 31.1653 72.8769 30.9512C72.8267 30.7371 72.7891 30.5105 72.7264 30.2964C72.6637 30.0823 72.6135 29.8557 72.5508 29.6416C72.4881 29.5409 72.4255 29.4527 72.3753 29.352C72.3126 29.2513 72.2499 29.1631 72.1997 29.0624C72.0869 28.8609 71.9866 28.672 71.8988 28.458C71.7107 28.055 71.5352 27.6521 71.3722 27.2365L71.0963 26.6195C71.0085 26.4181 70.9207 26.204 70.8079 26.0151C70.5947 25.6248 70.3816 25.2218 70.0806 24.8944C69.8549 24.5041 69.6167 24.1263 69.3283 23.7863C69.1903 23.61 69.0524 23.4463 68.9019 23.2701C68.7515 23.1064 68.601 22.9427 68.438 22.7916L67.974 22.3131L67.485 21.8598L67.0085 21.4064C66.8455 21.2553 66.6825 21.1168 66.5195 20.9657C65.1653 19.8828 63.949 18.5858 62.3816 17.8429C60.9521 16.8985 59.3722 16.2815 57.9427 15.4378C56.3377 14.9845 54.9834 13.9897 53.4035 13.6498C51.8737 13.1713 50.3565 12.7809 48.8643 12.4031C47.4349 11.7106 45.88 11.761 44.4255 11.6098C44.2374 11.5847 44.0618 11.5595 43.8737 11.5343H43.7358L43.6606 11.5091H43.5602L43.1339 11.4713C42.5446 11.4461 41.9678 11.4084 41.3784 11.3706C40.7891 11.3454 40.1872 11.2825 39.648 11.2195C39.3722 11.1817 39.1088 11.1439 38.8706 11.1062C38.7452 11.081 38.6323 11.0684 38.5195 11.0432L38.3565 11.0054L38.2812 10.9802H38.2938L38.3189 10.9551L38.369 10.9173C38.8079 10.5395 39.2593 10.1744 39.7107 9.80919C39.9239 9.6329 40.1496 9.45661 40.3628 9.28032C40.5759 9.10403 40.7891 8.95293 40.9897 8.80183C41.4035 8.48703 41.7922 8.18482 42.1809 7.87002L42.4693 7.63077C42.4693 7.63077 42.5571 7.55522 42.5822 7.54262L42.6825 7.46707C42.8204 7.36634 42.9458 7.25301 43.0838 7.13968C43.3596 6.93821 43.6606 6.76192 43.9615 6.61081C44.2624 6.45971 44.5885 6.34638 44.8894 6.19528C45.1903 6.05677 45.4913 5.90566 45.7546 5.72937C46.0305 5.56568 46.2812 5.35161 46.507 5.08718C46.7828 4.91089 47.0587 4.77238 47.3471 4.64646C47.648 4.53313 47.949 4.43239 48.2374 4.33166C48.5258 4.23092 48.8142 4.11759 49.09 3.97908C49.3659 3.85316 49.6292 3.70206 49.8675 3.50059C50.833 2.71988 52.0618 2.65692 53.09 2.30434C53.6167 2.14065 54.1308 1.98954 54.6323 1.82585C55.1339 1.67474 55.6355 1.56141 56.1245 1.43549C56.4004 1.35994 56.6637 1.29698 56.9396 1.23402C57.2029 1.18365 57.4787 1.12069 57.7295 1.07033C58.2562 0.96959 58.7577 0.84367 59.2593 0.755526C60.2499 0.591829 61.1778 0.428133 62.0555 0.339989C62.4944 0.289621 62.9082 0.239253 63.3095 0.188885C63.7107 0.163701 64.0994 0.125925 64.4756 0.100741C64.8392 0.0755566 65.2029 0.0503726 65.5289 0.0251885C65.8675 0.0125965 66.1809 0.0125965 66.4819 4.50201e-06C67.0838 4.50201e-06 67.6229 -0.0251795 68.0744 -0.0125875C68.5383 4.50201e-06 68.9145 0.0251885 69.228 0.0377806C69.8549 0.0755566 70.1684 0.125925 70.1684 0.176293C70.1684 0.239253 69.7671 0.302213 69.0148 0.377765C68.6386 0.415541 68.1621 0.440725 67.6104 0.503685C67.0587 0.566645 66.4066 0.629605 65.6794 0.705158C64.9521 0.805894 64.1496 0.90663 63.2593 1.03255C62.3816 1.19625 61.416 1.32217 60.3878 1.56141C60.137 1.61178 59.8737 1.67474 59.6104 1.72511C59.4725 1.7503 59.3471 1.77548 59.2092 1.81326C59.0712 1.85103 58.9458 1.88881 58.8079 1.91399C58.2562 2.0525 57.7044 2.19102 57.1151 2.34212C56.5383 2.50582 55.949 2.6947 55.3471 2.87098C54.7452 3.05986 54.1308 3.28652 53.4913 3.50059C52.4881 3.87835 51.5477 4.50795 50.3941 4.75979C50.1308 4.87312 49.8675 4.99904 49.6041 5.13755C49.3534 5.27606 49.09 5.42716 48.8267 5.57827C48.5634 5.72937 48.3001 5.86789 48.0242 5.99381C47.7609 6.13232 47.485 6.27083 47.1966 6.38416C46.9709 6.61082 46.7201 6.7997 46.4568 6.97598C46.206 7.15227 45.9302 7.31597 45.6543 7.46707C45.3784 7.61818 45.09 7.76928 44.8016 7.92038C44.5258 8.08408 44.2499 8.24778 43.974 8.43666C43.8361 8.53739 43.7107 8.62554 43.5728 8.71368L43.3847 8.8396L43.2969 8.90256C43.1715 8.99071 43.0336 9.09144 42.9082 9.17959C42.8455 9.22995 42.7703 9.28032 42.7201 9.33069C42.67 9.38106 42.6198 9.41883 42.5697 9.4692C42.4819 9.55735 42.4192 9.64549 42.4066 9.69586H42.4568L42.5446 9.68327H42.6825C42.7703 9.65808 42.833 9.65808 42.8831 9.65808C42.9333 9.65808 42.9834 9.65808 43.0336 9.67068L43.2217 9.70845C43.3722 9.74623 43.5226 9.77141 43.6982 9.7966C43.8236 9.7966 43.949 9.82178 44.0744 9.83437C44.2624 9.85956 44.4505 9.85956 44.6386 9.87215C46.1182 10.2625 47.648 10.4892 49.2405 10.6151C50.7452 11.1691 52.3753 11.3328 53.9678 11.8365C55.4474 12.6676 57.1026 13.0453 58.7452 13.6372C60.3878 14.2416 61.88 15.2238 63.4474 16.1178C64.9396 17.1252 66.5195 18.1073 67.8988 19.4043C69.4035 20.5376 70.7828 21.9353 71.786 23.6478C73.0148 25.1715 73.9302 26.9973 74.5822 28.9365C74.6825 29.1757 74.7703 29.415 74.8581 29.6542C74.9458 29.8935 75.0085 30.1453 75.0712 30.3971C75.1339 30.649 75.2092 30.9008 75.2593 31.1527C75.3095 31.4045 75.3471 31.6689 75.3847 31.9208C75.4098 32.0467 75.4349 32.1726 75.4474 32.3111L75.485 32.7015L75.5602 33.4822C75.5728 33.7466 75.5728 33.9985 75.5853 34.2629C75.5853 34.5273 75.6104 34.7918 75.6104 35.0436C75.648 36.1013 75.4223 37.1465 75.1841 38.1664C74.9458 39.199 74.6198 40.1937 74.4192 41.264C73.7044 43.2914 72.5132 45.1046 71.2468 46.8297C71.0211 47.0942 70.8079 47.3586 70.5822 47.6104L70.4944 47.6986H70.4819L70.4568 47.7363L70.3941 47.7993C70.3189 47.8749 70.2186 47.9504 70.1559 48.026C70.1308 48.0386 70.1559 48.026 70.1809 48.026H70.2311H70.3314C70.4066 48.026 70.4693 48.0008 70.532 47.9882C70.532 48.0386 70.5697 48.0763 70.6198 48.1015C70.6073 48.1141 70.7828 48.1267 70.9082 48.1393L71.2969 48.1645C71.5602 48.1645 71.811 48.1771 72.0618 48.1645C72.3126 48.1645 72.5759 48.1393 72.8267 48.1141C73.8549 48.0511 74.8706 47.8623 75.8863 47.686C77.9302 47.3712 79.949 47.0816 81.9301 46.6786C82.4192 46.5653 82.9082 46.4268 83.3972 46.3009L83.8737 46.1749L84.2374 46.0742L84.4129 46.0238C84.4129 46.0238 84.5383 45.9735 84.5885 46.0238L85.6418 46.5401C86.5697 46.9934 87.485 47.4341 88.4129 47.8874C90.3063 48.6682 92.0117 49.7763 93.88 50.5066C94.1433 50.6073 94.4066 50.7207 94.6574 50.834L94.9207 50.9599C94.9207 50.9599 94.9458 50.9725 94.9584 50.9851C95.0085 51.0229 95.0838 51.0858 95.1841 51.1614C95.1966 51.1236 95.2092 51.0732 95.2092 50.9977C95.2092 50.9599 95.2092 50.9221 95.1966 50.8843C95.1966 50.8592 95.1966 50.8466 95.1841 50.834L95.1339 50.5192C94.8706 48.5674 94.6574 46.6282 94.695 44.7017C94.6574 44.2232 94.6449 43.7447 94.6324 43.2662C94.6073 42.8506 94.5947 42.4351 94.5697 42.0196V41.8685C94.5697 41.8685 94.6449 41.8055 94.695 41.7803L94.9709 41.6166L95.4976 41.2892C95.7233 41.1507 95.949 40.9996 96.1747 40.8611C96.3753 40.7478 96.5508 40.5967 96.7264 40.4582C97.0775 40.1685 97.4411 39.8915 97.7295 39.5389C98.4192 38.9597 99.0085 38.2672 99.6104 37.6375C99.8988 37.3102 100.212 37.0079 100.526 36.7057C100.839 36.4035 101.178 36.1391 101.554 35.8873C101.792 35.5221 102.068 35.1947 102.344 34.8547C102.595 34.5147 102.871 34.1747 103.134 33.8348C103.372 33.4822 103.623 33.1422 103.836 32.777C104.037 32.3993 104.225 32.0215 104.35 31.6312C104.601 31.2912 104.827 30.926 104.99 30.5482C105.14 30.1579 105.291 29.7675 105.391 29.3772C105.479 28.9742 105.567 28.5713 105.629 28.1809C105.679 27.778 105.755 27.3876 105.805 26.9847C106.118 25.4233 106.231 23.7989 105.83 22.2879C105.717 21.9101 105.629 21.5449 105.554 21.1672C105.454 20.802 105.366 20.4243 105.291 20.0591C105.19 19.6939 105.077 19.3288 104.977 18.9762C104.852 18.6236 104.701 18.271 104.538 17.9436C104.338 17.6288 104.15 17.3014 103.999 16.974C103.924 16.8103 103.836 16.6467 103.761 16.4704C103.686 16.3067 103.598 16.143 103.523 15.9667C103.372 15.6267 103.184 15.3119 102.983 15.0097C102.883 14.8586 102.783 14.7075 102.67 14.569C102.557 14.4305 102.432 14.2919 102.294 14.1786C101.454 12.995 100.438 12.0128 99.4725 11.0306C99.3095 10.9551 99.1465 10.8795 98.996 10.7788C98.8455 10.6906 98.695 10.6025 98.5697 10.5017C98.2938 10.3003 98.0555 10.061 97.8173 9.83437C97.3283 9.38106 96.8894 8.85219 96.3628 8.47443C95.8486 8.0589 95.2593 7.79446 94.695 7.49226C94.4192 7.32856 94.1308 7.20264 93.8675 7.02635C93.6041 6.86266 93.3659 6.66118 93.1276 6.42193C91.8612 6.17009 90.9584 5.35161 89.9176 4.81016C89.4035 4.53313 88.8769 4.34425 88.3377 4.18055C88.0744 4.09241 87.811 4.00427 87.5603 3.90353C87.3095 3.80279 87.0587 3.70206 86.8204 3.56355C86.2687 3.51318 85.7922 3.31171 85.3157 3.11023C84.8392 2.90876 84.3878 2.66951 83.8988 2.60655C83.4474 2.39249 82.9834 2.26657 82.5195 2.16583C82.0555 2.07769 81.6041 2.00214 81.1778 1.88881C80.7389 1.82585 80.3126 1.76289 79.8988 1.67474C79.6982 1.63697 79.4976 1.5866 79.2969 1.53623C79.0963 1.48586 78.9082 1.43549 78.7076 1.38513C78.3189 1.30957 77.9427 1.24661 77.5791 1.18365C77.2154 1.13329 76.8643 1.07033 76.5132 1.01996C76.2624 0.982182 76.0117 0.944406 75.7609 0.90663C75.5226 0.881446 75.2844 0.84367 75.0587 0.818486C74.6073 0.768118 74.1809 0.71775 73.7797 0.667381C72.9897 0.591829 72.3126 0.528869 71.7734 0.478501C70.695 0.390357 70.1182 0.314805 70.1182 0.251845L70.1935 0.188885Z" fill="#0061EF"/>
<path d="M91.6753 18.0948C91.6753 18.2333 91.3744 18.3718 90.8226 18.4851C90.7349 18.5103 90.6345 18.5229 90.5342 18.5481C90.4339 18.5859 90.3211 18.6236 90.1957 18.6111C90.0828 18.4222 89.9574 18.951 89.8195 18.674C89.6816 18.5859 89.5562 18.674 89.4057 18.7244C89.2678 18.7873 89.1173 18.6111 88.9543 18.7747C88.8038 19.1399 88.6408 18.3718 88.4778 18.8251C88.3148 18.9259 88.1393 18.9007 87.9637 18.8755C87.7882 18.5985 87.6001 18.8755 87.4245 18.9259C87.2364 18.5985 87.0483 18.737 86.8477 18.9762C86.6471 18.5229 86.4465 18.5859 86.2458 19.014C86.0452 19.0266 85.832 18.8503 85.6189 19.0518C85.4057 19.077 85.18 19.1651 84.9668 19.0895C84.7411 19.3918 84.5154 19.3792 84.2897 19.1273C84.064 19.4547 83.8258 19.3288 83.5875 19.1525C83.3493 18.9636 83.111 19.4421 82.8603 19.1777C82.6095 19.1525 82.3712 19.2532 82.1079 19.2029C81.8571 19.0644 81.6063 18.9259 81.343 19.2281C81.0797 19.3036 80.8289 19.4169 80.5656 19.2407C80.3023 19.5932 80.0389 19.4295 79.7631 19.2407C79.4998 19.3036 79.2239 19.0518 78.948 19.2407C78.6722 19.1903 78.3963 19.3918 78.1204 19.2407C77.8446 19.1399 77.5687 19.0392 77.2929 19.2407C77.017 19.4673 76.7537 19.1399 76.4778 19.2407C76.2145 18.9133 75.9386 19.3414 75.6753 19.2407C75.412 19.2658 75.1487 19.0518 74.8979 19.2281C74.6346 19.291 74.3838 19.354 74.133 19.2029C73.8822 19.7066 73.6314 19.077 73.3932 19.1777C73.1424 18.9636 72.9041 19.2029 72.6659 19.1525C72.4277 19.2407 72.1894 18.9259 71.9637 19.1273C71.738 19.0895 71.5123 19.291 71.2866 19.0895C71.0609 19.3414 70.8477 18.8881 70.6346 19.0518C70.4214 19.0518 70.2082 19.0644 70.0076 19.014C69.807 18.6236 69.6063 18.951 69.4057 18.9762C69.2051 18.9384 69.017 19.2029 68.8289 18.9259C68.6408 18.9007 68.4653 18.7244 68.2897 18.8755C68.1142 18.9384 67.9386 18.3088 67.7756 18.8251C67.6126 18.9133 67.4496 18.4222 67.2991 18.7747C67.1487 19.1021 66.9982 18.737 66.8477 18.7244C66.7098 18.6992 66.5719 18.6866 66.4339 18.674C65.2552 18.5103 64.5781 18.3088 64.5781 18.0948C64.5781 17.8555 65.4057 17.6415 66.8352 17.4652C66.9731 17.4526 67.1236 17.1756 67.2866 17.4148C67.4371 17.4148 67.6001 17.2133 67.7631 17.3644C67.9261 16.9993 68.1016 17.3015 68.2772 17.3141C68.4527 17.2889 68.6408 17.4148 68.8164 17.2637C69.0045 17.0496 69.1925 17.3644 69.3932 17.2259C69.5938 17.4526 69.7944 17.3896 69.9951 17.1882C70.1957 17.4022 70.4088 17.1378 70.622 17.1504C70.8352 17.4904 71.0609 17.2511 71.2741 17.1126C71.4998 16.9867 71.7255 17.163 71.9512 17.0874C72.1769 17.1504 72.4151 16.9993 72.6534 17.0622C72.8916 16.9111 73.1299 16.8482 73.3806 17.0371C73.6189 16.9363 73.8697 17.0119 74.1204 17.0119C74.3712 16.8734 74.622 17.0245 74.8853 16.9993C75.1487 16.9363 75.3994 17.3519 75.6628 16.9867C75.9261 16.9363 76.1894 17.0496 76.4653 16.9867C76.7286 17.0371 77.0045 17.0874 77.2803 16.9867C77.5562 17.3519 77.832 17.1252 78.1079 16.9867C78.3838 16.8859 78.6596 16.9363 78.9355 16.9867C79.2114 16.9489 79.4747 16.9741 79.7505 16.9867C80.0139 16.8734 80.2897 17.1378 80.553 16.9867C80.8164 16.8356 81.0797 17.1504 81.3305 16.9993C81.5813 16.8985 81.8446 16.8356 82.0954 17.0119C82.3462 17.0119 82.5969 17.3393 82.8477 17.0371C83.086 16.9615 83.3367 16.5586 83.575 17.0622C83.8132 16.9363 84.0515 17.3015 84.2772 17.0874C84.5029 17.4526 84.7286 17.1 84.9543 17.1126C85.18 17.1882 85.3932 17.3141 85.6063 17.1504C85.8195 16.9741 86.0327 17.2511 86.2333 17.1882C86.4339 16.9741 86.6471 17.4652 86.8352 17.2259C87.0358 17.2763 87.2239 17.2007 87.412 17.2637C87.6001 16.76 87.7756 17.2637 87.9512 17.3141C88.1267 17.3896 88.3023 16.9867 88.4653 17.3644C88.6283 16.9867 88.7913 17.3141 88.9418 17.4148C89.0922 17.5281 89.2427 17.2511 89.3932 17.4652C89.5311 17.2007 89.669 17.6163 89.807 17.5155C89.9324 17.6918 90.0577 17.5155 90.1831 17.5785C90.296 17.5155 90.4088 17.5407 90.5217 17.6415C90.622 17.6667 90.7223 17.6792 90.8101 17.7044C91.3618 17.8303 91.6628 17.9689 91.6628 18.1074L91.6753 18.0948Z" fill="#0061EF"/>
<path d="M82.3718 26.569C82.3718 26.7075 82.259 26.846 82.0583 26.9719C82.0207 26.9971 81.9831 27.0097 81.9455 27.0349C81.9079 27.0727 81.8702 27.1105 81.8201 27.0979C81.7699 26.909 81.7323 27.4379 81.6822 27.1608C81.632 27.0727 81.5818 27.1608 81.5317 27.2112C81.4815 27.2742 81.4188 27.0979 81.3687 27.2616C81.306 27.6267 81.2558 26.8586 81.1931 27.3119C81.1304 27.4127 81.0677 27.3875 81.005 27.3623C80.9423 27.0853 80.8671 27.3623 80.8044 27.4127C80.7292 27.0853 80.6665 27.2238 80.5912 27.4504C80.516 26.9971 80.4408 27.0601 80.3655 27.4882C80.2903 27.5008 80.2151 27.3245 80.1273 27.526C80.0521 27.5512 79.9643 27.6393 79.8891 27.5638C79.8138 27.866 79.726 27.8534 79.6383 27.6015C79.5505 27.9289 79.4627 27.803 79.375 27.6267C79.2872 27.4504 79.1994 27.9163 79.1116 27.6519C79.0239 27.6267 78.9235 27.7275 78.8358 27.6771C78.748 27.5386 78.6477 27.3875 78.5599 27.6897C78.4596 27.7652 78.3718 27.8786 78.2715 27.7023C78.1712 28.0549 78.0709 27.8912 77.9831 27.7023C77.8828 27.7527 77.7825 27.5134 77.6822 27.7023C77.5818 27.6519 77.4815 27.8534 77.3812 27.7023C77.2809 27.6015 77.1806 27.5008 77.0803 27.7023C76.98 27.9289 76.8797 27.6141 76.7793 27.7023C76.679 27.3749 76.5787 27.803 76.4909 27.7023C76.3906 27.7275 76.3029 27.5134 76.2025 27.6897C76.1022 27.7527 76.0145 27.8156 75.9141 27.6771C75.8264 28.1808 75.726 27.5512 75.6383 27.6519C75.5505 27.4379 75.4627 27.6771 75.375 27.6267C75.2872 27.7149 75.1994 27.4001 75.1116 27.6015C75.0239 27.5638 74.9486 27.7652 74.8608 27.5638C74.7856 27.8156 74.6978 27.3497 74.6226 27.526C74.5474 27.526 74.4596 27.5386 74.3844 27.4882C74.3091 27.0979 74.2339 27.4253 74.1586 27.4504C74.0834 27.4127 74.0207 27.6771 73.9455 27.4127C73.8703 27.3749 73.8076 27.2112 73.7449 27.3623C73.6822 27.4253 73.6195 26.7957 73.5568 27.3119C73.4941 27.4001 73.4314 26.909 73.3812 27.2616C73.3185 27.589 73.2684 27.2238 73.2182 27.2112C73.1681 27.186 73.1179 27.1734 73.0677 27.1608C72.6289 26.9971 72.3906 26.7957 72.3906 26.5816C72.3906 26.3549 72.6916 26.1283 73.2182 25.952C73.2684 25.9394 73.3311 25.6624 73.3812 25.9016C73.4314 25.9016 73.4941 25.6876 73.5568 25.8513C73.6195 25.4861 73.6822 25.7883 73.7449 25.8009C73.8076 25.7883 73.8828 25.9016 73.9455 25.7505C74.0207 25.5365 74.0834 25.8513 74.1586 25.7127C74.2339 25.9394 74.3091 25.8764 74.3844 25.675C74.4596 25.889 74.5348 25.6246 74.6226 25.6372C74.6978 25.9646 74.7856 25.7379 74.8608 25.5994C74.9486 25.4735 75.0239 25.6498 75.1116 25.5742C75.1994 25.6372 75.2872 25.4861 75.375 25.5491C75.4627 25.3854 75.5505 25.335 75.6383 25.5239C75.726 25.4105 75.8264 25.4987 75.9141 25.4987C76.0019 25.3602 76.1022 25.5113 76.2025 25.4861C76.3029 25.4231 76.3906 25.8387 76.4909 25.4735C76.5913 25.4231 76.6916 25.5239 76.7793 25.4735C76.8797 25.5239 76.98 25.5742 77.0803 25.4735C77.1806 25.8387 77.2809 25.612 77.3812 25.4735C77.4815 25.3728 77.5818 25.4231 77.6822 25.4735C77.7825 25.4357 77.8828 25.4609 77.9831 25.4735C78.0834 25.3602 78.1837 25.6246 78.2715 25.4735C78.3718 25.3224 78.4596 25.6372 78.5599 25.4861C78.6602 25.3854 78.748 25.3224 78.8358 25.4987C78.9235 25.4987 79.0239 25.8261 79.1116 25.5239C79.1994 25.4483 79.2872 25.0454 79.375 25.5491C79.4627 25.4231 79.5505 25.7883 79.6383 25.5742C79.726 25.9394 79.8138 25.5994 79.8891 25.5994C79.9768 25.675 80.0521 25.8009 80.1273 25.6372C80.2025 25.4609 80.2778 25.7379 80.3655 25.675C80.4408 25.4609 80.516 25.952 80.5912 25.7127C80.6665 25.7631 80.7292 25.675 80.8044 25.7505C80.8671 25.2468 80.9423 25.7505 81.005 25.8009C81.0677 25.8764 81.1304 25.4735 81.1931 25.8513C81.2558 25.4735 81.3185 25.8009 81.3687 25.9016C81.4188 26.015 81.4815 25.7379 81.5317 25.952C81.5818 25.6876 81.632 26.1031 81.6822 26.0024C81.7323 26.1787 81.7699 26.0024 81.8201 26.0653C81.8577 26.0024 81.9079 26.0275 81.9455 26.1283C81.9831 26.1535 82.0207 26.1661 82.0583 26.1912C82.259 26.3172 82.3718 26.4431 82.3718 26.5942V26.569Z" fill="#0061EF"/>
</g>
<defs>
<clipPath id="clip0_926_16102">
<rect width="108" height="65" fill="white"/>
</clipPath>
</defs>
</svg>
