<svg width="87" height="87" viewBox="0 0 87 87" fill="none" xmlns="http://www.w3.org/2000/svg">
<path d="M85.4598 85.13C85.4098 85.13 85.3498 84.37 85.2998 82.93C85.2498 81.48 85.1998 79.35 85.1498 76.58C85.1298 75.66 85.1198 74.67 85.0998 73.61C85.0698 72.55 85.0398 71.43 85.0498 70.24C85.1898 69.05 84.7798 67.79 85.0098 66.48C85.0698 65.16 85.0098 63.78 84.9698 62.34C84.9198 60.9 85.0598 59.4 84.9298 57.84C84.6498 56.28 85.2398 54.67 84.8898 53C84.8098 51.33 84.8298 49.6 84.8498 47.82C85.0598 46.04 84.8498 44.21 84.8098 42.33C85.0698 40.45 84.9598 38.51 84.7798 36.53C84.8798 35.95 84.9498 35.36 84.9898 34.78C84.9898 34.63 85.0098 34.48 85.0098 34.34V33.95C85.0198 33.78 85.0098 33.6 85.0098 33.44C84.8798 33.44 84.7498 33.46 84.6298 33.48L84.4598 33.5C84.4598 33.5 84.4398 33.5 84.4098 33.5H84.3298L84.1698 33.52C83.7398 33.56 83.3198 33.62 82.8898 33.69C80.8098 33.7 78.6898 33.56 76.5298 33.72C74.3698 33.74 72.1598 33.81 69.9098 33.75C67.6598 33.99 65.3698 33.98 63.0398 33.78C60.7098 34.03 58.3398 33.93 55.9398 33.8C53.5398 33.66 51.0998 34.02 48.6198 33.82C46.1498 33.8 43.6398 33.88 41.0998 33.84C38.5598 33.74 35.9898 33.62 33.3898 33.85C30.7898 33.91 28.1598 34 25.4998 33.86C22.8398 34.13 20.1598 34.01 17.4498 33.86C14.7398 33.9 12.0098 33.71 9.25978 33.86C7.87978 33.84 6.49978 33.86 5.10979 33.89C4.41979 33.89 3.71979 33.91 3.02979 33.91C2.67979 33.91 2.32979 33.91 1.98979 33.9H1.95979H1.93979H1.89979L1.81979 33.87L1.79979 33.94V33.98L1.78979 34V34.02V34.05C1.77979 34.4 1.76979 34.75 1.75979 35.09C1.73979 35.79 1.72979 36.48 1.72979 37.18C1.71979 38.57 1.72979 39.95 1.81979 41.33C1.98979 44.08 1.74979 46.81 1.81979 49.52C1.56979 52.23 1.89979 54.91 1.81979 57.57C1.83979 60.22 1.66979 62.85 1.80979 65.45C1.85979 68.05 1.90979 70.62 1.79979 73.16C2.18979 75.7 1.69979 78.21 1.77979 80.68C1.72979 81.43 1.70979 82.18 1.70979 82.92C1.70979 83.29 1.70979 83.66 1.70979 84.03C1.70979 84.15 1.70979 84.14 1.70979 84.17V84.24L1.72979 84.37H1.89979L1.93979 84.35C1.95979 84.35 1.93979 84.35 2.02979 84.35H2.38979C2.86979 84.35 3.33979 84.35 3.80979 84.35C6.20979 84.28 8.57978 84.53 10.9098 84.37C13.2398 84.4 15.5298 84.25 17.7798 84.39C20.0298 84.2 22.2398 84.55 24.3998 84.42C26.5698 84.42 28.6898 84.41 30.7598 84.45C32.8298 84.75 34.8698 84.5 36.8498 84.48C38.8298 84.51 40.7598 84.31 42.6498 84.51C44.5298 84.53 46.3698 84.67 48.1498 84.55C49.9298 84.51 51.6598 84.99 53.3298 84.59C54.9998 84.52 56.6198 84.9 58.1698 84.63C59.7298 84.38 61.2298 84.66 62.6698 84.67C64.1098 84.69 65.4898 84.7 66.8098 84.71C72.7398 84.78 77.3998 84.85 80.5898 84.92C82.1798 84.96 83.3998 85 84.2198 85.03C85.0398 85.07 85.4698 85.11 85.4698 85.15C85.4698 85.2 84.9498 85.24 83.9298 85.28C82.9198 85.32 81.4198 85.37 79.4698 85.41C75.5698 85.49 69.8698 85.57 62.6698 85.64C61.2298 85.65 59.7298 85.87 58.1698 85.68C56.6098 85.68 54.9998 85.84 53.3298 85.72C51.6598 86 49.9298 85.77 48.1498 85.76C46.3698 85.77 44.5398 85.68 42.6598 85.8C40.7798 85.96 38.8398 85.72 36.8598 85.83C34.8798 85.66 32.8498 85.7 30.7698 85.86C28.6898 85.69 26.5698 85.9 24.4098 85.89C22.2498 85.63 20.0398 85.81 17.7898 85.92C15.5398 86.01 13.2498 85.88 10.9198 85.94C8.58978 85.89 6.21979 86.01 3.81979 85.96C3.34979 85.98 2.86979 86.01 2.39979 86.02H2.03979L1.41979 86.04C0.959785 86.04 0.499785 86.05 0.0397852 86.06C0.0397852 85.38 0.0397852 84.71 0.0297852 84.03C0.0297852 83.66 0.0297852 83.29 0.0297852 82.92C0.0397852 82.18 0.0697852 81.43 0.109785 80.68C0.0297852 78.21 0.0897852 75.7 0.0897852 73.16C-0.0102148 70.62 0.0997852 68.05 0.0797852 65.45C0.0297852 62.85 0.349785 60.22 0.0697852 57.57C0.0297852 54.91 0.109785 52.23 0.0697852 49.52C0.109785 46.81 0.149785 44.08 0.0697852 41.33C0.209785 39.95 0.239785 38.57 0.209785 37.18C0.199785 36.49 0.179785 35.79 0.149785 35.09C0.139785 34.74 0.119785 34.39 0.109785 34.05C0.0997852 33.4 0.0797852 32.75 0.0697852 32.1H0.0497852C1.04979 32.09 2.04979 32.07 3.03979 32.06C3.73979 32.06 4.42979 32.06 5.11979 32.06C6.50979 32.06 7.88978 32.09 9.26978 32.11C12.0198 32.08 14.7598 32.1 17.4598 32.11C20.1698 32.03 22.8498 32.23 25.5098 32.11C28.1698 31.99 30.7998 32.24 33.3998 32.12C35.9998 32.04 38.5698 31.99 41.1098 32.13C43.6498 32.13 46.1598 32.39 48.6298 32.15C51.0998 32.1 53.5398 31.78 55.9498 32.17C58.3498 32.07 60.7198 32.36 63.0498 32.19C65.3798 32.48 67.6698 32.2 69.9198 32.21C72.1698 32.27 74.3798 32.36 76.5398 32.24C78.6998 32.1 80.8298 32.31 82.8998 32.27C83.3298 32.24 83.7598 32.22 84.1798 32.23C84.4898 32.23 84.7898 32.23 85.0998 32.24C85.4598 32.24 85.8198 32.26 86.1798 32.27C86.1598 32.78 86.1498 33.29 86.1298 33.8C86.1198 34.12 86.1098 34.45 86.0998 34.77C86.0898 35.36 86.0998 35.94 86.1398 36.52C86.0998 38.5 86.1698 40.44 86.1098 42.32C86.4998 44.2 86.1098 46.03 86.0698 47.81C86.0098 49.59 86.3298 51.32 86.0298 52.99C86.3198 54.66 86.0698 56.28 85.9898 57.83C85.8998 59.39 86.1098 60.89 85.9498 62.33C86.1598 63.77 85.8298 65.15 85.9098 66.47C85.7698 67.79 85.9098 69.04 85.8698 70.23C85.9198 71.42 85.8998 72.54 85.8198 73.6C85.7998 74.66 85.7898 75.65 85.7698 76.57C85.7198 79.33 85.6698 81.47 85.6198 82.92C85.5698 84.37 85.5198 85.12 85.4598 85.12V85.13Z" fill="#5B5B5B"/>
<path d="M85.46 15.01C85.41 15.01 85.35 14.45 85.3 13.39C85.25 12.32 85.2 10.75 85.15 8.71C85.13 8.03 85.12 7.3 85.1 6.52C85.07 5.74 85.04 4.91 85.05 4.03C85.12 3.59 85.05 3.14 85 2.68C84.97 2.45 84.95 2.22 84.94 1.98V1.89V1.84C84.94 1.81 84.94 1.78 84.95 1.75C84.95 1.69 84.98 1.61 85.01 1.53C85.02 1.4 85.03 1.27 85.04 1.14C84.82 1.18 84.57 1.24 84.34 1.3C83.96 1.4 83.57 1.5 83.17 1.6C82.14 1.87 81.03 1.96 79.93 2.33C78.87 2.84 77.58 2.52 76.44 3.11C75.25 3.44 74 3.69 72.71 3.94C71.38 4.01 70.1 4.49 68.75 4.82C67.34 4.86 65.97 5.26 64.57 5.74C63.07 5.7 61.61 6.07 60.19 6.71C58.69 7.04 57.14 7.23 55.61 7.72C54.05 8.07 52.47 8.48 50.84 8.76C49.27 9.34 47.61 9.68 45.89 9.84C44.26 10.44 42.53 10.71 40.77 10.95C39.01 11.18 37.32 11.91 35.49 12.09C33.7 12.45 31.91 12.91 30.07 13.26C28.22 13.55 26.34 13.83 24.51 14.46C22.65 14.92 20.77 15.41 18.82 15.68C16.96 16.35 15 16.65 13.02 16.92C11.08 17.38 9.07 17.61 7.11 18.18C6.11 18.37 5.12 18.61 4.12 18.84C3.62 18.96 3.12 19.07 2.62 19.18L2.24 19.26L2.05 19.3L1.96 19.32H1.91C1.88 19.32 1.84 19.32 1.79 19.32C1.79 19.32 1.77 19.39 1.76 19.43V19.48V19.58V19.77V20.16C1.73 20.67 1.72 21.19 1.71 21.7C1.7 22.72 1.71 23.74 1.8 24.76C1.97 26.79 1.73 28.81 1.8 30.8C1.78 30.98 1.76 31.17 1.74 31.35L1.72 31.63V31.75L1.71 31.78C1.7 31.87 1.7 31.97 1.71 32.04C1.79 32.02 1.87 31.99 1.93 31.96L1.97 31.94H1.98H2.01L2.12 31.9L2.57 31.78C3.17 31.63 3.78 31.48 4.39 31.38C6.3 30.95 8.23 30.71 10.08 30.18C11.95 29.74 13.79 29.29 15.65 29.01C17.4 28.24 19.31 28.33 21.08 27.87C22.9 27.65 24.62 27.09 26.36 26.77C28.08 26.33 29.84 26.21 31.49 25.7C33.18 25.37 34.8 24.87 36.45 24.67C38.03 24.14 39.7 24.14 41.23 23.68C42.79 23.35 44.32 23.01 45.82 22.73C47.38 22.71 48.79 22.15 50.22 21.83C51.66 21.56 53.01 21.06 54.41 20.97C55.77 20.7 57.12 20.55 58.38 20.16C59.66 19.84 61 20.05 62.12 19.4C63.31 19.07 64.56 19.2 65.62 18.69C66.69 18.21 67.83 18.25 68.87 18.04C69.91 17.83 70.91 17.64 71.86 17.45C76.15 16.6 79.53 15.96 81.84 15.54C84.15 15.12 85.39 14.94 85.41 15.02C85.43 15.11 83.93 15.52 81.14 16.19C78.34 16.87 74.25 17.82 69.07 18.99C68.03 19.22 67 19.66 65.83 19.72C64.71 19.96 63.57 20.36 62.34 20.5C61.19 21.03 59.9 21.07 58.61 21.33C57.33 21.62 55.99 21.81 54.65 22.21C53.33 22.66 51.88 22.72 50.47 23.13C49.01 23.27 47.55 23.62 46.09 24.09C44.56 24.24 43.07 24.77 41.51 25.09C39.89 25.17 38.34 25.69 36.74 26.13C35.14 26.57 33.46 26.79 31.79 27.21C30.1 27.52 28.42 27.99 26.67 28.32C24.96 28.81 23.21 29.23 21.39 29.46C19.62 29.92 17.8 30.24 15.97 30.63C14.16 31.12 12.28 31.4 10.41 31.83C8.55 32.28 6.58 32.36 4.73 33.05C4.13 33.19 3.52 33.32 2.91 33.44C1.95 33.64 0.99 33.84 0.02 34.04C0.02 33.36 0.02 32.68 0.02 31.99V31.3L0 30.75C0.04 28.75 0.08 26.74 0 24.71C0.14 23.69 0.17 22.68 0.14 21.65C0.13 21.14 0.11 20.63 0.08 20.11L0.04 19.3C0.03 18.82 0.01 18.33 0 17.84H0.05C0.79 17.67 1.53 17.5 2.26 17.33C2.76 17.22 3.26 17.11 3.76 17C4.76 16.79 5.76 16.6 6.76 16.41C8.74 15.96 10.71 15.55 12.67 15.16C14.6 14.66 16.58 14.45 18.48 13.93C20.37 13.41 22.32 13.24 24.17 12.73C26.03 12.25 27.87 11.81 29.73 11.56C31.56 11.17 33.42 11.04 35.16 10.42C36.93 9.99 38.63 9.3 40.44 9.31C42.15 8.85 43.92 8.76 45.57 8.24C47.31 8.16 48.9 7.54 50.53 7.21C52.16 6.92 53.78 6.67 55.31 6.22C56.84 5.75 58.42 5.63 59.91 5.27C61.37 4.79 62.92 4.85 64.31 4.37C65.75 4.1 67.13 3.74 68.5 3.51C69.78 2.84 71.18 2.94 72.47 2.7C73.77 2.48 74.95 1.91 76.21 1.94C77.35 1.4 78.57 1.4 79.71 1.23C80.85 1.07 81.89 0.64 82.96 0.58C83.16 0.5 83.36 0.43 83.55 0.38C83.65 0.36 83.75 0.33 83.85 0.32C83.96 0.3 84.07 0.28 84.18 0.26C84.8 0.15 85.36 0.09 85.89 0C85.88 0.32 85.88 0.61 85.89 0.9C85.87 1.09 85.86 1.26 85.85 1.44C85.85 1.6 85.84 1.75 85.83 1.91C85.83 2.15 85.83 2.38 85.83 2.61C85.84 3.07 85.86 3.52 85.85 3.96C85.9 4.84 85.88 5.67 85.8 6.45C85.78 7.23 85.77 7.96 85.75 8.64C85.7 10.68 85.65 12.25 85.6 13.32C85.55 14.39 85.5 14.94 85.44 14.94L85.46 15.01Z" fill="#5B5B5B"/>
<path d="M85.4399 7.79998C85.4599 7.90998 84.5499 8.20998 82.8599 8.65998C82.5799 8.72998 82.2799 8.81998 81.9499 8.89998C81.6299 8.99998 81.2899 9.09998 80.9199 9.16998C80.5199 9.10998 80.2199 9.58998 79.7699 9.45998C79.3499 9.47998 78.9399 9.62998 78.4999 9.76998C78.0699 9.90998 77.5699 9.86998 77.1199 10.1C76.6999 10.48 76.0699 10.01 75.6299 10.46C75.1299 10.65 74.5899 10.74 74.0399 10.84C73.4499 10.75 72.9199 11.08 72.3499 11.24C71.7099 11.11 71.1399 11.35 70.5599 11.65C69.8699 11.44 69.2599 11.62 68.6799 12.08C68.0399 12.23 67.3599 12.23 66.7199 12.53C66.0599 12.7 65.3899 12.9 64.6799 12.99C64.0299 13.37 63.3199 13.51 62.5599 13.47C61.8899 13.87 61.1399 13.93 60.3699 13.96C59.5999 13.98 58.9199 14.5 58.1099 14.46C57.3399 14.61 56.5799 14.84 55.7899 14.97C54.9799 15.04 54.1599 15.09 53.4099 15.49C52.6199 15.72 51.8199 15.98 50.9699 16.02C50.1999 16.46 49.3499 16.52 48.4799 16.56C47.6499 16.78 46.7699 16.77 45.9499 17.1C45.0899 17.24 44.2599 17.58 43.3799 17.65C42.4999 17.75 41.6199 17.86 40.8099 18.19C39.9899 18.54 39.0999 18.48 38.2799 18.73C37.3899 18.66 36.6299 19.16 35.7899 19.25C34.9699 19.45 34.1199 19.46 33.3499 19.76C32.5599 19.98 31.7699 20.19 30.9599 20.25C30.2499 20.8 29.3799 20.49 28.6299 20.73C27.8299 20.73 27.1099 21.08 26.3599 21.19C25.6299 21.42 24.8499 21.33 24.1599 21.64C23.4299 21.76 22.7599 22.07 22.0299 22.07C21.3699 22.41 20.6199 22.2 19.9799 22.48C19.3099 22.62 18.6599 22.77 18.0099 22.87C17.3099 22.71 16.7299 23.09 16.1199 23.24C15.4999 23.34 14.9399 23.67 14.3199 23.59C13.7299 23.69 13.1399 23.68 12.6099 23.92C12.0699 24.08 11.4399 23.72 10.9999 24.22C10.4999 24.4 9.91992 24.13 9.48991 24.5C9.05991 24.85 8.53991 24.67 8.08991 24.76C7.63991 24.84 7.20991 24.92 6.79991 24.99C3.09991 25.64 0.969915 25.94 0.939915 25.78C0.899915 25.6 3.45992 24.89 7.88991 23.8C8.32992 23.69 8.74992 23.39 9.26992 23.47C9.74992 23.37 10.2199 23.1 10.7599 23.11C11.2199 22.73 11.7999 22.84 12.3499 22.73C12.8999 22.6 13.4799 22.57 14.0399 22.33C14.5899 22.05 15.2399 22.16 15.8299 21.92C16.4799 21.96 17.0999 21.78 17.6999 21.49C18.3799 21.52 18.9899 21.18 19.6599 21.04C20.3799 21.15 21.0299 20.83 21.6999 20.58C22.3699 20.34 23.1099 20.32 23.8199 20.1C24.5499 20 25.2599 19.73 26.0099 19.61C26.7299 19.33 27.4699 19.13 28.2699 19.11C29.0199 18.87 29.8099 18.77 30.5899 18.6C31.3499 18.33 32.1699 18.28 32.9699 18.08C33.7599 17.86 34.6399 18.01 35.4099 17.55C36.2199 17.34 37.0699 17.24 37.8999 17.01C38.7399 16.87 39.5999 16.72 40.4299 16.47C41.3399 16.56 42.1599 16.21 42.9999 15.92C43.8499 15.66 44.7099 15.51 45.5699 15.38C46.4199 15.17 47.2599 15 48.1099 14.84C48.9299 14.58 49.7999 14.6 50.5999 14.32C51.3999 14.03 52.2599 14.1 53.0399 13.81C53.8299 13.56 54.6099 13.35 55.4299 13.32C56.2099 13.15 57.0399 13.24 57.7599 12.84C58.5099 12.62 59.1999 12.15 60.0299 12.38C60.7499 12.13 61.5499 12.25 62.2299 11.93C63.0099 12.06 63.6599 11.64 64.3599 11.5C65.0699 11.41 65.7699 11.36 66.4099 11.09C67.0499 10.81 67.7499 10.88 68.3799 10.7C68.9899 10.4 69.6899 10.64 70.2699 10.33C70.8899 10.24 71.4799 10.05 72.0699 9.97998C72.5699 9.47998 73.2199 9.73998 73.7799 9.64998C74.3399 9.58998 74.8099 9.16998 75.3899 9.34998C75.8499 8.94998 76.3999 9.08998 76.8999 9.06998C77.3999 9.04998 77.8199 8.74998 78.2999 8.80998C78.6999 8.50998 79.1999 8.73998 79.5899 8.57998C80.0299 8.62998 80.3899 8.41998 80.7599 8.36998C81.1199 8.24998 81.4699 8.18998 81.8099 8.18998C82.1399 8.13998 82.4499 8.08998 82.7399 8.03998C84.4699 7.76998 85.4199 7.66998 85.4499 7.77998L85.4399 7.79998Z" fill="#5B5B5B"/>
<path d="M24.3299 74.92C24.2199 74.92 24.1199 73.66 24.0199 71.37C24.0099 70.99 23.9899 70.57 23.9699 70.14C23.9399 69.7 23.9099 69.23 23.9299 68.74C24.0699 68.25 23.6599 67.72 23.8899 67.17C23.9499 66.62 23.8899 66.05 23.8499 65.45C23.7999 64.85 23.9399 64.23 23.8099 63.58C23.5299 62.93 24.1199 62.26 23.7699 61.57C23.6899 60.87 23.7099 60.16 23.7299 59.42C23.9399 58.68 23.7299 57.92 23.6899 57.14C23.9499 56.36 23.8299 55.55 23.6599 54.73C24.0099 53.91 23.9599 53.06 23.6299 52.2C23.6199 51.34 23.7499 50.45 23.5999 49.56C23.5799 48.66 23.5099 47.74 23.5699 46.81C23.4499 46.34 23.3999 45.87 23.3999 45.39C23.3999 45.27 23.3999 45.15 23.3999 45.03V44.85L23.4199 44.76V44.6C23.4499 44.15 23.4899 43.72 23.5399 43.34C23.4799 42.87 23.4399 42.37 23.4099 41.87C24.0099 42.08 24.6899 42.37 25.3399 42.67C25.4999 42.74 25.6599 42.82 25.8199 42.9L26.0599 43.01L26.1899 43.08C26.3499 43.17 26.5199 43.27 26.6799 43.36C27.5499 43.88 28.6199 43.94 29.4899 44.52C30.4299 44.93 31.4199 45.27 32.3799 45.72C33.3099 46.22 34.2499 46.75 35.3399 46.95C36.3599 47.31 37.3999 47.66 38.3699 48.21C39.4899 48.39 40.4699 48.93 41.4599 49.5C42.5099 49.89 43.4899 50.51 44.5999 50.81C45.6399 51.29 46.7599 51.59 47.7899 52.15C48.8299 52.68 49.8599 53.19 50.9799 53.49C52.0999 53.77 53.0499 54.44 54.1199 54.81C55.0599 55.48 56.2199 55.6 57.1999 56.11C57.7099 56.31 58.2099 56.56 58.6999 56.79C58.9499 56.91 59.1999 57.02 59.4499 57.12C59.5699 57.17 59.6999 57.22 59.8299 57.26L60.0199 57.32L60.1199 57.35L60.1699 57.37L60.2599 57.4C60.9599 57.68 61.6499 57.95 62.3299 58.22C63.0299 58.5 63.7199 58.79 64.3599 59.08C63.8499 59.28 63.3299 59.48 62.8099 59.67C62.5399 59.89 62.1199 60.11 61.6499 60.32C61.1799 60.53 60.6899 60.71 60.2099 60.88C59.6899 61.03 59.1799 61.13 58.7199 61.37C57.7099 61.62 56.8499 62.18 55.9099 62.53C55.0199 62.98 54.0099 63.13 53.1799 63.65C52.2699 63.99 51.4599 64.51 50.5399 64.73C49.7499 65.27 48.7699 65.3 47.9899 65.77C47.1599 66.12 46.3499 66.47 45.5399 66.77C44.6299 66.83 43.9399 67.38 43.1899 67.72C42.4199 68.01 41.7599 68.51 40.9599 68.62C40.2299 68.9 39.4699 69.07 38.8399 69.47C38.1799 69.8 37.3299 69.63 36.8399 70.27C36.2299 70.6 35.4599 70.51 34.9699 71.01C34.4699 71.49 33.7899 71.47 33.2299 71.7C32.6699 71.92 32.1399 72.13 31.6299 72.33C27.0299 74.12 24.3699 75.07 24.3099 74.92C24.2699 74.84 25.0399 74.42 26.5099 73.71C27.9699 73.01 30.1299 72.02 32.8599 70.79C33.4099 70.55 33.8999 70.11 34.5699 70.03C35.1699 69.78 35.7199 69.37 36.4099 69.21C36.9399 68.68 37.6899 68.62 38.3799 68.34C39.0599 68.04 39.7899 67.83 40.4699 67.42C41.1299 66.97 41.9599 66.88 42.6799 66.46C43.5099 66.3 44.2699 65.93 44.9999 65.45C45.8599 65.27 46.5999 64.74 47.4299 64.4C48.3599 64.29 49.1399 63.77 49.9599 63.31C50.7899 62.86 51.7099 62.62 52.5799 62.18C53.4899 61.85 54.3499 61.36 55.2899 61.02C56.1599 60.52 57.0799 60.09 58.0899 59.82C58.5399 59.58 59.0299 59.38 59.4999 59.19C59.5599 59.17 59.6599 59.15 59.7299 59.12C59.7299 59.09 59.7199 59.08 59.7299 59.07C59.6799 59.05 59.6699 59.03 59.6299 59.01C59.5999 58.99 59.5499 58.95 59.4899 58.94L59.4399 58.92L59.3499 58.88L59.1599 58.8C59.0399 58.74 58.9099 58.69 58.7899 58.63C58.5499 58.5 58.3099 58.38 58.0599 58.25C57.5699 58 57.0699 57.78 56.4999 57.7C55.4699 57.31 54.4699 56.8 53.4099 56.41C52.3899 55.94 51.3499 55.47 50.2699 55.1C49.3199 54.4 48.1899 54.11 47.0799 53.76C45.9799 53.38 44.9299 52.9 43.8899 52.42C42.8199 52 41.7799 51.55 40.7499 51.1C39.6799 50.74 38.7299 50.12 37.6699 49.8C36.6099 49.48 35.6899 48.83 34.6499 48.52C33.6199 48.18 32.6199 47.8 31.6999 47.27C30.7299 46.86 29.8599 46.22 28.8199 46.04C27.8499 45.69 26.7899 45.59 26.0199 44.84C25.8399 44.78 25.6699 44.72 25.4899 44.64L25.3599 44.58L25.3399 44.56L25.2899 44.52C25.2199 44.46 25.1099 44.38 25.0199 44.33C25.0199 44.39 25.0299 44.48 25.0699 44.56C24.9999 44.56 24.9599 44.62 24.9499 44.7C24.9499 44.71 24.9499 44.72 24.9499 44.73V44.82V45C24.9499 45.12 24.9499 45.24 24.9699 45.36C24.9999 45.84 25.0699 46.31 25.0599 46.78C24.9999 47.72 24.9099 48.63 25.0299 49.53C25.1699 50.43 24.9599 51.31 24.9999 52.17C25.1699 53.03 24.7799 53.88 24.9699 54.7C24.9299 55.52 24.9899 56.33 24.9399 57.11C25.3299 57.89 24.9399 58.65 24.8999 59.39C24.8399 60.13 25.1599 60.85 24.8599 61.54C25.1499 62.23 24.8999 62.91 24.8199 63.55C24.7299 64.2 24.9399 64.82 24.7799 65.42C24.9899 66.02 24.6599 66.59 24.7399 67.14C24.5999 67.69 24.7399 68.21 24.6999 68.71C24.7499 69.2 24.7299 69.67 24.6499 70.11C24.6299 70.55 24.6199 70.96 24.5999 71.34C24.4999 73.64 24.3999 74.89 24.2899 74.89L24.3299 74.92Z" fill="#5B5B5B"/>
</svg>
