<svg width="24" height="24" viewBox="0 0 24 24" fill="none" xmlns="http://www.w3.org/2000/svg">
<rect x="1.83594" y="4.5" width="20.3333" height="15" rx="1.5" stroke="#5B5B5B"/>
<path d="M14.5547 9.28125C15.1904 9.28125 15.8438 9.53906 15.8438 9.53906L15.6094 10.6875C15.6094 10.6875 15.1172 10.3359 14.6719 10.3359C13.9893 10.3359 13.7344 10.5762 13.7344 10.875C13.7344 11.4609 15.6562 11.5488 15.6562 12.8672C15.6562 13.9629 14.2734 14.7188 13.2891 14.7188C12.3047 14.7188 11.8125 14.4141 11.8125 14.4141L12.0469 13.3359C12.0469 13.3359 12.5654 13.6172 13.3594 13.6172C14.1533 13.6172 14.2734 13.292 14.2734 13.1484C14.2734 12.3076 12.3516 12.5332 12.3516 10.8984C12.3516 9.99316 13.1104 9.28125 14.5547 9.28125ZM7.75781 14.5547H6.25781L5.15625 10.3594C5.15625 10.3594 6.31641 10.957 7.03125 12.5625C7.06055 12.7588 7.125 13.0781 7.125 13.0781L8.39062 9.375H9.86719L7.75781 14.5547ZM10.9688 14.5547H9.58594L10.4062 9.375H11.7891L10.9688 14.5547ZM20.3672 14.5547H19.125L18.9844 13.8281H17.25L16.9688 14.5547H15.6094L17.8594 9.375H19.3125L20.3672 14.5547ZM17.6484 12.8203H18.7734L18.375 10.875L17.6484 12.8203ZM5.74219 9.39844C6.28711 9.39844 6.49219 9.91406 6.49219 9.91406L6.96094 12.2578C6.33105 10.2246 3.63281 9.39844 3.63281 9.39844H5.74219Z" fill="#5B5B5B"/>
</svg>
