<svg width="24" height="23" viewBox="0 0 24 23" fill="none" xmlns="http://www.w3.org/2000/svg">
<rect width="24" height="23" rx="11.5" fill="url(#paint0_linear_1455_44885)"/>
<path d="M4.7207 18.1907L5.74964 14.61C5.11351 13.559 4.7798 12.3688 4.78327 11.152C4.78327 7.33921 8.03693 4.23926 12.031 4.23926C13.9707 4.23926 15.7922 4.95871 17.1583 6.265C18.5279 7.57129 19.2822 9.30859 19.2787 11.1553C19.2787 14.9681 16.0251 18.068 12.0275 18.068H12.024C10.8109 18.068 9.61857 17.7763 8.55835 17.2259L4.7207 18.1907ZM8.74258 15.976L8.96158 16.102C9.88623 16.6258 10.9464 16.901 12.0275 16.9043H12.031C15.3507 16.9043 18.0551 14.3282 18.0551 11.1586C18.0551 9.62356 17.4294 8.18134 16.2927 7.09387C15.156 6.0064 13.6404 5.40961 12.031 5.40961C8.7113 5.4063 6.00687 7.98241 6.00687 11.152C6.00687 12.2361 6.3232 13.2938 6.92804 14.2088L7.07056 14.4277L6.46224 16.5462L8.74258 15.976Z" fill="white"/>
<path d="M4.97461 17.9484L5.96878 14.4903C5.35351 13.4791 5.03023 12.3286 5.03023 11.155C5.0337 7.47482 8.17265 4.48096 12.0311 4.48096C13.9048 4.48096 15.6602 5.1772 16.9812 6.43708C18.3021 7.69695 19.0286 9.37457 19.0286 11.1583C19.0286 14.8385 15.8862 17.8323 12.0311 17.8323H12.0277C10.8562 17.8323 9.70562 17.5505 8.68364 17.02L4.97461 17.9484Z" fill="url(#paint1_linear_1455_44885)"/>
<path d="M4.7207 18.1907L5.74964 14.61C5.11351 13.559 4.7798 12.3688 4.78327 11.152C4.78327 7.33921 8.03693 4.23926 12.031 4.23926C13.9707 4.23926 15.7922 4.95871 17.1583 6.265C18.5279 7.57129 19.2822 9.30859 19.2787 11.1553C19.2787 14.9681 16.0251 18.068 12.0275 18.068H12.024C10.8109 18.068 9.61857 17.7763 8.55835 17.2259L4.7207 18.1907ZM8.74258 15.976L8.96158 16.102C9.88623 16.6258 10.9464 16.901 12.0275 16.9043H12.031C15.3507 16.9043 18.0551 14.3282 18.0551 11.1586C18.0551 9.62356 17.4294 8.18134 16.2927 7.09387C15.156 6.0064 13.6404 5.40961 12.031 5.40961C8.7113 5.4063 6.00687 7.98241 6.00687 11.152C6.00687 12.2361 6.3232 13.2938 6.92804 14.2088L7.07056 14.4277L6.46224 16.5462L8.74258 15.976Z" fill="url(#paint2_linear_1455_44885)"/>
<path fill-rule="evenodd" clip-rule="evenodd" d="M10.2198 8.26069C10.0842 7.97225 9.94168 7.96562 9.81306 7.9623C9.70877 7.95898 9.58711 7.95898 9.46545 7.95898C9.34378 7.95898 9.14912 8.00209 8.98226 8.17449C8.81541 8.34689 8.34961 8.76464 8.34961 9.61671C8.34961 10.4655 8.99964 11.2877 9.09002 11.4037C9.1804 11.5198 10.3449 13.3201 12.1838 14.013C13.7133 14.5899 14.0261 14.4739 14.3564 14.444C14.6866 14.4142 15.427 14.0263 15.58 13.6218C15.7294 13.2173 15.7294 12.8725 15.6842 12.7996C15.639 12.7266 15.5174 12.6835 15.3366 12.5973C15.1559 12.5111 14.266 12.0934 14.0991 12.0337C13.9323 11.9773 13.8106 11.9475 13.6924 12.1199C13.5708 12.2923 13.2231 12.6802 13.1189 12.7962C13.0146 12.9123 12.9068 12.9255 12.7261 12.8393C12.5453 12.7531 11.9613 12.5708 11.2696 11.9806C10.7308 11.5231 10.3658 10.9562 10.2615 10.7838C10.1572 10.6114 10.2511 10.5185 10.3414 10.4323C10.4214 10.3561 10.5222 10.2301 10.6126 10.1306C10.7029 10.0311 10.7342 9.95821 10.7933 9.84216C10.8524 9.72612 10.8246 9.62666 10.7794 9.54046C10.7342 9.45757 10.3797 8.60218 10.2198 8.26069Z" fill="white"/>
<defs>
<linearGradient id="paint0_linear_1455_44885" x1="11.9994" y1="22.9989" x2="11.9994" y2="-0.00080471" gradientUnits="userSpaceOnUse">
<stop stop-color="#20B038"/>
<stop offset="1" stop-color="#60D66A"/>
</linearGradient>
<linearGradient id="paint1_linear_1455_44885" x1="12.0012" y1="17.9477" x2="12.0012" y2="4.48049" gradientUnits="userSpaceOnUse">
<stop stop-color="#20B038"/>
<stop offset="1" stop-color="#60D66A"/>
</linearGradient>
<linearGradient id="paint2_linear_1455_44885" x1="12.0011" y1="18.1894" x2="12.0011" y2="4.23926" gradientUnits="userSpaceOnUse">
<stop stop-color="#F9F9F9"/>
<stop offset="1" stop-color="white"/>
</linearGradient>
</defs>
</svg>
