<svg width="40" height="40" viewBox="0 0 40 40" fill="none" xmlns="http://www.w3.org/2000/svg">
<g clip-path="url(#clip0_233_12621)">
<path d="M19.9983 39.9593C31.0215 39.9593 39.9576 31.0232 39.9576 20C39.9576 8.97681 31.0215 0.040741 19.9983 0.040741C8.97513 0.040741 0.0390625 8.97681 0.0390625 20C0.0390625 31.0232 8.97513 39.9593 19.9983 39.9593Z" fill="#FC3F1D"/>
<path d="M25.3333 29.3333H21.8266V13.1934H20.2644C17.4009 13.1934 15.901 14.5258 15.901 16.5146C15.901 18.7711 16.9355 19.8166 19.0757 21.1489L20.8395 22.2551L15.7706 29.3306H12L16.562 23.0136C13.9386 21.2703 12.4624 19.5683 12.4624 16.6967C12.4624 13.1079 15.151 10.6667 20.2407 10.6667H25.3096V29.3278H25.3333V29.3333Z" fill="white"/>
</g>
<defs>
<clipPath id="clip0_233_12621">
<rect width="40" height="40" fill="white"/>
</clipPath>
</defs>
</svg>
