<svg width="30" height="30" viewBox="0 0 30 30" fill="none" xmlns="http://www.w3.org/2000/svg">
<rect width="30" height="30" rx="15" fill="#0061EF"/>
<path d="M15 8.43604C15.0176 8.43604 20.8704 8.43652 22.3359 8.8374C23.139 9.05361 23.773 9.68674 23.9893 10.4897C24.3885 11.9483 24.3752 14.9794 24.375 15.0151C24.375 15.0151 24.3752 18.0575 23.9893 19.5249C23.773 20.328 23.1391 20.962 22.3359 21.1782C20.8703 21.5637 15.0176 21.564 15 21.564C15 21.564 9.14735 21.5641 7.66406 21.1626C6.86102 20.9464 6.22703 20.3133 6.01074 19.5103C5.62742 18.0689 5.62502 15.0441 5.625 15.0005C5.625 15.0005 5.62462 11.957 6.01074 10.4897C6.22704 9.68675 6.87647 9.03798 7.66406 8.82178C9.13201 8.43577 15 8.43604 15 8.43604ZM13.1309 17.811L18.0117 15.0005L13.1309 12.189V17.811Z" fill="white"/>
</svg>
